<?xml version="1.0" encoding="utf-8" standalone="no"?>
<!DOCTYPE svg PUBLIC "-//W3C//DTD SVG 1.1//EN"
  "http://www.w3.org/Graphics/SVG/1.1/DTD/svg11.dtd">
<svg xmlns:xlink="http://www.w3.org/1999/xlink" width="4320pt" height="1440pt" viewBox="0 0 4320 1440" xmlns="http://www.w3.org/2000/svg" version="1.1">
 <metadata>
  <rdf:RDF xmlns:dc="http://purl.org/dc/elements/1.1/" xmlns:cc="http://creativecommons.org/ns#" xmlns:rdf="http://www.w3.org/1999/02/22-rdf-syntax-ns#">
   <cc:Work>
    <dc:type rdf:resource="http://purl.org/dc/dcmitype/StillImage"/>
    <dc:date>2021-11-07T01:33:05.418607</dc:date>
    <dc:format>image/svg+xml</dc:format>
    <dc:creator>
     <cc:Agent>
      <dc:title>Matplotlib v3.5.0rc1, https://matplotlib.org/</dc:title>
     </cc:Agent>
    </dc:creator>
   </cc:Work>
  </rdf:RDF>
 </metadata>
 <defs>
  <style type="text/css">*{stroke-linejoin: round; stroke-linecap: butt}</style>
 </defs>
 <g id="figure_1">
  <g id="patch_1">
   <path d="M 0 1440 
L 4320 1440 
L 4320 0 
L 0 0 
z
" style="fill: #ffffff"/>
  </g>
  <g id="axes_1">
   <g id="patch_2">
    <path d="M 540 1260 
L 3888 1260 
L 3888 172.8 
L 540 172.8 
z
" style="fill: #ffffff"/>
   </g>
   <g id="matplotlib.axis_1">
    <g id="xtick_1">
     <g id="line2d_1">
      <defs>
       <path id="mfa584c41a7" d="M 0 0 
L 0 3.5 
" style="stroke: #000000; stroke-width: 0.8"/>
      </defs>
      <g>
       <use xlink:href="#mfa584c41a7" x="692.181818" y="1260" style="stroke: #000000; stroke-width: 0.8"/>
      </g>
     </g>
     <g id="text_1">
      <!-- 0 -->
      <g transform="translate(684.228693 1285.996094)scale(0.25 -0.25)">
       <defs>
        <path id="DejaVuSans-30" d="M 2034 4250 
Q 1547 4250 1301 3770 
Q 1056 3291 1056 2328 
Q 1056 1369 1301 889 
Q 1547 409 2034 409 
Q 2525 409 2770 889 
Q 3016 1369 3016 2328 
Q 3016 3291 2770 3770 
Q 2525 4250 2034 4250 
z
M 2034 4750 
Q 2819 4750 3233 4129 
Q 3647 3509 3647 2328 
Q 3647 1150 3233 529 
Q 2819 -91 2034 -91 
Q 1250 -91 836 529 
Q 422 1150 422 2328 
Q 422 3509 836 4129 
Q 1250 4750 2034 4750 
z
" transform="scale(0.015625)"/>
       </defs>
       <use xlink:href="#DejaVuSans-30"/>
      </g>
     </g>
    </g>
    <g id="xtick_2">
     <g id="line2d_2">
      <g>
       <use xlink:href="#mfa584c41a7" x="1128.649748" y="1260" style="stroke: #000000; stroke-width: 0.8"/>
      </g>
     </g>
     <g id="text_2">
      <!-- 150 -->
      <g transform="translate(1104.790373 1285.996094)scale(0.25 -0.25)">
       <defs>
        <path id="DejaVuSans-31" d="M 794 531 
L 1825 531 
L 1825 4091 
L 703 3866 
L 703 4441 
L 1819 4666 
L 2450 4666 
L 2450 531 
L 3481 531 
L 3481 0 
L 794 0 
L 794 531 
z
" transform="scale(0.015625)"/>
        <path id="DejaVuSans-35" d="M 691 4666 
L 3169 4666 
L 3169 4134 
L 1269 4134 
L 1269 2991 
Q 1406 3038 1543 3061 
Q 1681 3084 1819 3084 
Q 2600 3084 3056 2656 
Q 3513 2228 3513 1497 
Q 3513 744 3044 326 
Q 2575 -91 1722 -91 
Q 1428 -91 1123 -41 
Q 819 9 494 109 
L 494 744 
Q 775 591 1075 516 
Q 1375 441 1709 441 
Q 2250 441 2565 725 
Q 2881 1009 2881 1497 
Q 2881 1984 2565 2268 
Q 2250 2553 1709 2553 
Q 1456 2553 1204 2497 
Q 953 2441 691 2322 
L 691 4666 
z
" transform="scale(0.015625)"/>
       </defs>
       <use xlink:href="#DejaVuSans-31"/>
       <use xlink:href="#DejaVuSans-35" x="63.623047"/>
       <use xlink:href="#DejaVuSans-30" x="127.246094"/>
      </g>
     </g>
    </g>
    <g id="xtick_3">
     <g id="line2d_3">
      <g>
       <use xlink:href="#mfa584c41a7" x="1565.117678" y="1260" style="stroke: #000000; stroke-width: 0.8"/>
      </g>
     </g>
     <g id="text_3">
      <!-- 300 -->
      <g transform="translate(1541.258303 1285.996094)scale(0.25 -0.25)">
       <defs>
        <path id="DejaVuSans-33" d="M 2597 2516 
Q 3050 2419 3304 2112 
Q 3559 1806 3559 1356 
Q 3559 666 3084 287 
Q 2609 -91 1734 -91 
Q 1441 -91 1130 -33 
Q 819 25 488 141 
L 488 750 
Q 750 597 1062 519 
Q 1375 441 1716 441 
Q 2309 441 2620 675 
Q 2931 909 2931 1356 
Q 2931 1769 2642 2001 
Q 2353 2234 1838 2234 
L 1294 2234 
L 1294 2753 
L 1863 2753 
Q 2328 2753 2575 2939 
Q 2822 3125 2822 3475 
Q 2822 3834 2567 4026 
Q 2313 4219 1838 4219 
Q 1578 4219 1281 4162 
Q 984 4106 628 3988 
L 628 4550 
Q 988 4650 1302 4700 
Q 1616 4750 1894 4750 
Q 2613 4750 3031 4423 
Q 3450 4097 3450 3541 
Q 3450 3153 3228 2886 
Q 3006 2619 2597 2516 
z
" transform="scale(0.015625)"/>
       </defs>
       <use xlink:href="#DejaVuSans-33"/>
       <use xlink:href="#DejaVuSans-30" x="63.623047"/>
       <use xlink:href="#DejaVuSans-30" x="127.246094"/>
      </g>
     </g>
    </g>
    <g id="xtick_4">
     <g id="line2d_4">
      <g>
       <use xlink:href="#mfa584c41a7" x="2001.585608" y="1260" style="stroke: #000000; stroke-width: 0.8"/>
      </g>
     </g>
     <g id="text_4">
      <!-- 450 -->
      <g transform="translate(1977.726233 1285.996094)scale(0.25 -0.25)">
       <defs>
        <path id="DejaVuSans-34" d="M 2419 4116 
L 825 1625 
L 2419 1625 
L 2419 4116 
z
M 2253 4666 
L 3047 4666 
L 3047 1625 
L 3713 1625 
L 3713 1100 
L 3047 1100 
L 3047 0 
L 2419 0 
L 2419 1100 
L 313 1100 
L 313 1709 
L 2253 4666 
z
" transform="scale(0.015625)"/>
       </defs>
       <use xlink:href="#DejaVuSans-34"/>
       <use xlink:href="#DejaVuSans-35" x="63.623047"/>
       <use xlink:href="#DejaVuSans-30" x="127.246094"/>
      </g>
     </g>
    </g>
    <g id="xtick_5">
     <g id="line2d_5">
      <g>
       <use xlink:href="#mfa584c41a7" x="2438.053537" y="1260" style="stroke: #000000; stroke-width: 0.8"/>
      </g>
     </g>
     <g id="text_5">
      <!-- 600 -->
      <g transform="translate(2414.194162 1285.996094)scale(0.25 -0.25)">
       <defs>
        <path id="DejaVuSans-36" d="M 2113 2584 
Q 1688 2584 1439 2293 
Q 1191 2003 1191 1497 
Q 1191 994 1439 701 
Q 1688 409 2113 409 
Q 2538 409 2786 701 
Q 3034 994 3034 1497 
Q 3034 2003 2786 2293 
Q 2538 2584 2113 2584 
z
M 3366 4563 
L 3366 3988 
Q 3128 4100 2886 4159 
Q 2644 4219 2406 4219 
Q 1781 4219 1451 3797 
Q 1122 3375 1075 2522 
Q 1259 2794 1537 2939 
Q 1816 3084 2150 3084 
Q 2853 3084 3261 2657 
Q 3669 2231 3669 1497 
Q 3669 778 3244 343 
Q 2819 -91 2113 -91 
Q 1303 -91 875 529 
Q 447 1150 447 2328 
Q 447 3434 972 4092 
Q 1497 4750 2381 4750 
Q 2619 4750 2861 4703 
Q 3103 4656 3366 4563 
z
" transform="scale(0.015625)"/>
       </defs>
       <use xlink:href="#DejaVuSans-36"/>
       <use xlink:href="#DejaVuSans-30" x="63.623047"/>
       <use xlink:href="#DejaVuSans-30" x="127.246094"/>
      </g>
     </g>
    </g>
    <g id="xtick_6">
     <g id="line2d_6">
      <g>
       <use xlink:href="#mfa584c41a7" x="2874.521467" y="1260" style="stroke: #000000; stroke-width: 0.8"/>
      </g>
     </g>
     <g id="text_6">
      <!-- 750 -->
      <g transform="translate(2850.662092 1285.996094)scale(0.25 -0.25)">
       <defs>
        <path id="DejaVuSans-37" d="M 525 4666 
L 3525 4666 
L 3525 4397 
L 1831 0 
L 1172 0 
L 2766 4134 
L 525 4134 
L 525 4666 
z
" transform="scale(0.015625)"/>
       </defs>
       <use xlink:href="#DejaVuSans-37"/>
       <use xlink:href="#DejaVuSans-35" x="63.623047"/>
       <use xlink:href="#DejaVuSans-30" x="127.246094"/>
      </g>
     </g>
    </g>
    <g id="xtick_7">
     <g id="line2d_7">
      <g>
       <use xlink:href="#mfa584c41a7" x="3310.989397" y="1260" style="stroke: #000000; stroke-width: 0.8"/>
      </g>
     </g>
     <g id="text_7">
      <!-- 900 -->
      <g transform="translate(3287.130022 1285.996094)scale(0.25 -0.25)">
       <defs>
        <path id="DejaVuSans-39" d="M 703 97 
L 703 672 
Q 941 559 1184 500 
Q 1428 441 1663 441 
Q 2288 441 2617 861 
Q 2947 1281 2994 2138 
Q 2813 1869 2534 1725 
Q 2256 1581 1919 1581 
Q 1219 1581 811 2004 
Q 403 2428 403 3163 
Q 403 3881 828 4315 
Q 1253 4750 1959 4750 
Q 2769 4750 3195 4129 
Q 3622 3509 3622 2328 
Q 3622 1225 3098 567 
Q 2575 -91 1691 -91 
Q 1453 -91 1209 -44 
Q 966 3 703 97 
z
M 1959 2075 
Q 2384 2075 2632 2365 
Q 2881 2656 2881 3163 
Q 2881 3666 2632 3958 
Q 2384 4250 1959 4250 
Q 1534 4250 1286 3958 
Q 1038 3666 1038 3163 
Q 1038 2656 1286 2365 
Q 1534 2075 1959 2075 
z
" transform="scale(0.015625)"/>
       </defs>
       <use xlink:href="#DejaVuSans-39"/>
       <use xlink:href="#DejaVuSans-30" x="63.623047"/>
       <use xlink:href="#DejaVuSans-30" x="127.246094"/>
      </g>
     </g>
    </g>
    <g id="xtick_8">
     <g id="line2d_8">
      <g>
       <use xlink:href="#mfa584c41a7" x="3747.457327" y="1260" style="stroke: #000000; stroke-width: 0.8"/>
      </g>
     </g>
     <g id="text_8">
      <!-- 1050 -->
      <g transform="translate(3715.644827 1285.996094)scale(0.25 -0.25)">
       <use xlink:href="#DejaVuSans-31"/>
       <use xlink:href="#DejaVuSans-30" x="63.623047"/>
       <use xlink:href="#DejaVuSans-35" x="127.246094"/>
       <use xlink:href="#DejaVuSans-30" x="190.869141"/>
      </g>
     </g>
    </g>
    <g id="text_9">
     <!-- Point Index -->
     <g transform="translate(2116.817578 1321.789844)scale(0.35 -0.35)">
      <defs>
       <path id="DejaVuSans-50" d="M 1259 4147 
L 1259 2394 
L 2053 2394 
Q 2494 2394 2734 2622 
Q 2975 2850 2975 3272 
Q 2975 3691 2734 3919 
Q 2494 4147 2053 4147 
L 1259 4147 
z
M 628 4666 
L 2053 4666 
Q 2838 4666 3239 4311 
Q 3641 3956 3641 3272 
Q 3641 2581 3239 2228 
Q 2838 1875 2053 1875 
L 1259 1875 
L 1259 0 
L 628 0 
L 628 4666 
z
" transform="scale(0.015625)"/>
       <path id="DejaVuSans-6f" d="M 1959 3097 
Q 1497 3097 1228 2736 
Q 959 2375 959 1747 
Q 959 1119 1226 758 
Q 1494 397 1959 397 
Q 2419 397 2687 759 
Q 2956 1122 2956 1747 
Q 2956 2369 2687 2733 
Q 2419 3097 1959 3097 
z
M 1959 3584 
Q 2709 3584 3137 3096 
Q 3566 2609 3566 1747 
Q 3566 888 3137 398 
Q 2709 -91 1959 -91 
Q 1206 -91 779 398 
Q 353 888 353 1747 
Q 353 2609 779 3096 
Q 1206 3584 1959 3584 
z
" transform="scale(0.015625)"/>
       <path id="DejaVuSans-69" d="M 603 3500 
L 1178 3500 
L 1178 0 
L 603 0 
L 603 3500 
z
M 603 4863 
L 1178 4863 
L 1178 4134 
L 603 4134 
L 603 4863 
z
" transform="scale(0.015625)"/>
       <path id="DejaVuSans-6e" d="M 3513 2113 
L 3513 0 
L 2938 0 
L 2938 2094 
Q 2938 2591 2744 2837 
Q 2550 3084 2163 3084 
Q 1697 3084 1428 2787 
Q 1159 2491 1159 1978 
L 1159 0 
L 581 0 
L 581 3500 
L 1159 3500 
L 1159 2956 
Q 1366 3272 1645 3428 
Q 1925 3584 2291 3584 
Q 2894 3584 3203 3211 
Q 3513 2838 3513 2113 
z
" transform="scale(0.015625)"/>
       <path id="DejaVuSans-74" d="M 1172 4494 
L 1172 3500 
L 2356 3500 
L 2356 3053 
L 1172 3053 
L 1172 1153 
Q 1172 725 1289 603 
Q 1406 481 1766 481 
L 2356 481 
L 2356 0 
L 1766 0 
Q 1100 0 847 248 
Q 594 497 594 1153 
L 594 3053 
L 172 3053 
L 172 3500 
L 594 3500 
L 594 4494 
L 1172 4494 
z
" transform="scale(0.015625)"/>
       <path id="DejaVuSans-20" transform="scale(0.015625)"/>
       <path id="DejaVuSans-49" d="M 628 4666 
L 1259 4666 
L 1259 0 
L 628 0 
L 628 4666 
z
" transform="scale(0.015625)"/>
       <path id="DejaVuSans-64" d="M 2906 2969 
L 2906 4863 
L 3481 4863 
L 3481 0 
L 2906 0 
L 2906 525 
Q 2725 213 2448 61 
Q 2172 -91 1784 -91 
Q 1150 -91 751 415 
Q 353 922 353 1747 
Q 353 2572 751 3078 
Q 1150 3584 1784 3584 
Q 2172 3584 2448 3432 
Q 2725 3281 2906 2969 
z
M 947 1747 
Q 947 1113 1208 752 
Q 1469 391 1925 391 
Q 2381 391 2643 752 
Q 2906 1113 2906 1747 
Q 2906 2381 2643 2742 
Q 2381 3103 1925 3103 
Q 1469 3103 1208 2742 
Q 947 2381 947 1747 
z
" transform="scale(0.015625)"/>
       <path id="DejaVuSans-65" d="M 3597 1894 
L 3597 1613 
L 953 1613 
Q 991 1019 1311 708 
Q 1631 397 2203 397 
Q 2534 397 2845 478 
Q 3156 559 3463 722 
L 3463 178 
Q 3153 47 2828 -22 
Q 2503 -91 2169 -91 
Q 1331 -91 842 396 
Q 353 884 353 1716 
Q 353 2575 817 3079 
Q 1281 3584 2069 3584 
Q 2775 3584 3186 3129 
Q 3597 2675 3597 1894 
z
M 3022 2063 
Q 3016 2534 2758 2815 
Q 2500 3097 2075 3097 
Q 1594 3097 1305 2825 
Q 1016 2553 972 2059 
L 3022 2063 
z
" transform="scale(0.015625)"/>
       <path id="DejaVuSans-78" d="M 3513 3500 
L 2247 1797 
L 3578 0 
L 2900 0 
L 1881 1375 
L 863 0 
L 184 0 
L 1544 1831 
L 300 3500 
L 978 3500 
L 1906 2253 
L 2834 3500 
L 3513 3500 
z
" transform="scale(0.015625)"/>
      </defs>
      <use xlink:href="#DejaVuSans-50"/>
      <use xlink:href="#DejaVuSans-6f" x="56.677734"/>
      <use xlink:href="#DejaVuSans-69" x="117.859375"/>
      <use xlink:href="#DejaVuSans-6e" x="145.642578"/>
      <use xlink:href="#DejaVuSans-74" x="209.021484"/>
      <use xlink:href="#DejaVuSans-20" x="248.230469"/>
      <use xlink:href="#DejaVuSans-49" x="280.017578"/>
      <use xlink:href="#DejaVuSans-6e" x="309.509766"/>
      <use xlink:href="#DejaVuSans-64" x="372.888672"/>
      <use xlink:href="#DejaVuSans-65" x="436.365234"/>
      <use xlink:href="#DejaVuSans-78" x="496.138672"/>
     </g>
    </g>
   </g>
   <g id="matplotlib.axis_2">
    <g id="ytick_1">
     <g id="line2d_9">
      <defs>
       <path id="m00bc0a37dc" d="M 0 0 
L -3.5 0 
" style="stroke: #000000; stroke-width: 0.8"/>
      </defs>
      <g>
       <use xlink:href="#m00bc0a37dc" x="540" y="1210.581818" style="stroke: #000000; stroke-width: 0.8"/>
      </g>
     </g>
     <g id="text_10">
      <!-- 0 -->
      <g transform="translate(517.09375 1220.079865)scale(0.25 -0.25)">
       <use xlink:href="#DejaVuSans-30"/>
      </g>
     </g>
    </g>
    <g id="ytick_2">
     <g id="line2d_10">
      <g>
       <use xlink:href="#m00bc0a37dc" x="540" y="1073.948847" style="stroke: #000000; stroke-width: 0.8"/>
      </g>
     </g>
     <g id="text_11">
      <!-- 100 -->
      <g transform="translate(485.28125 1083.446894)scale(0.25 -0.25)">
       <use xlink:href="#DejaVuSans-31"/>
       <use xlink:href="#DejaVuSans-30" x="63.623047"/>
       <use xlink:href="#DejaVuSans-30" x="127.246094"/>
      </g>
     </g>
    </g>
    <g id="ytick_3">
     <g id="line2d_11">
      <g>
       <use xlink:href="#m00bc0a37dc" x="540" y="937.315876" style="stroke: #000000; stroke-width: 0.8"/>
      </g>
     </g>
     <g id="text_12">
      <!-- 200 -->
      <g transform="translate(485.28125 946.813923)scale(0.25 -0.25)">
       <defs>
        <path id="DejaVuSans-32" d="M 1228 531 
L 3431 531 
L 3431 0 
L 469 0 
L 469 531 
Q 828 903 1448 1529 
Q 2069 2156 2228 2338 
Q 2531 2678 2651 2914 
Q 2772 3150 2772 3378 
Q 2772 3750 2511 3984 
Q 2250 4219 1831 4219 
Q 1534 4219 1204 4116 
Q 875 4013 500 3803 
L 500 4441 
Q 881 4594 1212 4672 
Q 1544 4750 1819 4750 
Q 2544 4750 2975 4387 
Q 3406 4025 3406 3419 
Q 3406 3131 3298 2873 
Q 3191 2616 2906 2266 
Q 2828 2175 2409 1742 
Q 1991 1309 1228 531 
z
" transform="scale(0.015625)"/>
       </defs>
       <use xlink:href="#DejaVuSans-32"/>
       <use xlink:href="#DejaVuSans-30" x="63.623047"/>
       <use xlink:href="#DejaVuSans-30" x="127.246094"/>
      </g>
     </g>
    </g>
    <g id="ytick_4">
     <g id="line2d_12">
      <g>
       <use xlink:href="#m00bc0a37dc" x="540" y="800.682905" style="stroke: #000000; stroke-width: 0.8"/>
      </g>
     </g>
     <g id="text_13">
      <!-- 300 -->
      <g transform="translate(485.28125 810.180952)scale(0.25 -0.25)">
       <use xlink:href="#DejaVuSans-33"/>
       <use xlink:href="#DejaVuSans-30" x="63.623047"/>
       <use xlink:href="#DejaVuSans-30" x="127.246094"/>
      </g>
     </g>
    </g>
    <g id="ytick_5">
     <g id="line2d_13">
      <g>
       <use xlink:href="#m00bc0a37dc" x="540" y="664.049934" style="stroke: #000000; stroke-width: 0.8"/>
      </g>
     </g>
     <g id="text_14">
      <!-- 400 -->
      <g transform="translate(485.28125 673.54798)scale(0.25 -0.25)">
       <use xlink:href="#DejaVuSans-34"/>
       <use xlink:href="#DejaVuSans-30" x="63.623047"/>
       <use xlink:href="#DejaVuSans-30" x="127.246094"/>
      </g>
     </g>
    </g>
    <g id="ytick_6">
     <g id="line2d_14">
      <g>
       <use xlink:href="#m00bc0a37dc" x="540" y="527.416962" style="stroke: #000000; stroke-width: 0.8"/>
      </g>
     </g>
     <g id="text_15">
      <!-- 500 -->
      <g transform="translate(485.28125 536.915009)scale(0.25 -0.25)">
       <use xlink:href="#DejaVuSans-35"/>
       <use xlink:href="#DejaVuSans-30" x="63.623047"/>
       <use xlink:href="#DejaVuSans-30" x="127.246094"/>
      </g>
     </g>
    </g>
    <g id="ytick_7">
     <g id="line2d_15">
      <g>
       <use xlink:href="#m00bc0a37dc" x="540" y="390.783991" style="stroke: #000000; stroke-width: 0.8"/>
      </g>
     </g>
     <g id="text_16">
      <!-- 600 -->
      <g transform="translate(485.28125 400.282038)scale(0.25 -0.25)">
       <use xlink:href="#DejaVuSans-36"/>
       <use xlink:href="#DejaVuSans-30" x="63.623047"/>
       <use xlink:href="#DejaVuSans-30" x="127.246094"/>
      </g>
     </g>
    </g>
    <g id="ytick_8">
     <g id="line2d_16">
      <g>
       <use xlink:href="#m00bc0a37dc" x="540" y="254.15102" style="stroke: #000000; stroke-width: 0.8"/>
      </g>
     </g>
     <g id="text_17">
      <!-- 700 -->
      <g transform="translate(485.28125 263.649067)scale(0.25 -0.25)">
       <use xlink:href="#DejaVuSans-37"/>
       <use xlink:href="#DejaVuSans-30" x="63.623047"/>
       <use xlink:href="#DejaVuSans-30" x="127.246094"/>
      </g>
     </g>
    </g>
    <g id="text_18">
     <!-- Arc-Length -->
     <g transform="translate(474.002344 811.471484)rotate(-90)scale(0.35 -0.35)">
      <defs>
       <path id="DejaVuSans-41" d="M 2188 4044 
L 1331 1722 
L 3047 1722 
L 2188 4044 
z
M 1831 4666 
L 2547 4666 
L 4325 0 
L 3669 0 
L 3244 1197 
L 1141 1197 
L 716 0 
L 50 0 
L 1831 4666 
z
" transform="scale(0.015625)"/>
       <path id="DejaVuSans-72" d="M 2631 2963 
Q 2534 3019 2420 3045 
Q 2306 3072 2169 3072 
Q 1681 3072 1420 2755 
Q 1159 2438 1159 1844 
L 1159 0 
L 581 0 
L 581 3500 
L 1159 3500 
L 1159 2956 
Q 1341 3275 1631 3429 
Q 1922 3584 2338 3584 
Q 2397 3584 2469 3576 
Q 2541 3569 2628 3553 
L 2631 2963 
z
" transform="scale(0.015625)"/>
       <path id="DejaVuSans-63" d="M 3122 3366 
L 3122 2828 
Q 2878 2963 2633 3030 
Q 2388 3097 2138 3097 
Q 1578 3097 1268 2742 
Q 959 2388 959 1747 
Q 959 1106 1268 751 
Q 1578 397 2138 397 
Q 2388 397 2633 464 
Q 2878 531 3122 666 
L 3122 134 
Q 2881 22 2623 -34 
Q 2366 -91 2075 -91 
Q 1284 -91 818 406 
Q 353 903 353 1747 
Q 353 2603 823 3093 
Q 1294 3584 2113 3584 
Q 2378 3584 2631 3529 
Q 2884 3475 3122 3366 
z
" transform="scale(0.015625)"/>
       <path id="DejaVuSans-2d" d="M 313 2009 
L 1997 2009 
L 1997 1497 
L 313 1497 
L 313 2009 
z
" transform="scale(0.015625)"/>
       <path id="DejaVuSans-4c" d="M 628 4666 
L 1259 4666 
L 1259 531 
L 3531 531 
L 3531 0 
L 628 0 
L 628 4666 
z
" transform="scale(0.015625)"/>
       <path id="DejaVuSans-67" d="M 2906 1791 
Q 2906 2416 2648 2759 
Q 2391 3103 1925 3103 
Q 1463 3103 1205 2759 
Q 947 2416 947 1791 
Q 947 1169 1205 825 
Q 1463 481 1925 481 
Q 2391 481 2648 825 
Q 2906 1169 2906 1791 
z
M 3481 434 
Q 3481 -459 3084 -895 
Q 2688 -1331 1869 -1331 
Q 1566 -1331 1297 -1286 
Q 1028 -1241 775 -1147 
L 775 -588 
Q 1028 -725 1275 -790 
Q 1522 -856 1778 -856 
Q 2344 -856 2625 -561 
Q 2906 -266 2906 331 
L 2906 616 
Q 2728 306 2450 153 
Q 2172 0 1784 0 
Q 1141 0 747 490 
Q 353 981 353 1791 
Q 353 2603 747 3093 
Q 1141 3584 1784 3584 
Q 2172 3584 2450 3431 
Q 2728 3278 2906 2969 
L 2906 3500 
L 3481 3500 
L 3481 434 
z
" transform="scale(0.015625)"/>
       <path id="DejaVuSans-68" d="M 3513 2113 
L 3513 0 
L 2938 0 
L 2938 2094 
Q 2938 2591 2744 2837 
Q 2550 3084 2163 3084 
Q 1697 3084 1428 2787 
Q 1159 2491 1159 1978 
L 1159 0 
L 581 0 
L 581 4863 
L 1159 4863 
L 1159 2956 
Q 1366 3272 1645 3428 
Q 1925 3584 2291 3584 
Q 2894 3584 3203 3211 
Q 3513 2838 3513 2113 
z
" transform="scale(0.015625)"/>
      </defs>
      <use xlink:href="#DejaVuSans-41"/>
      <use xlink:href="#DejaVuSans-72" x="68.408203"/>
      <use xlink:href="#DejaVuSans-63" x="107.271484"/>
      <use xlink:href="#DejaVuSans-2d" x="162.251953"/>
      <use xlink:href="#DejaVuSans-4c" x="198.335938"/>
      <use xlink:href="#DejaVuSans-65" x="252.298828"/>
      <use xlink:href="#DejaVuSans-6e" x="313.822266"/>
      <use xlink:href="#DejaVuSans-67" x="377.201172"/>
      <use xlink:href="#DejaVuSans-74" x="440.677734"/>
      <use xlink:href="#DejaVuSans-68" x="479.886719"/>
     </g>
    </g>
   </g>
   <g id="patch_3">
    <path d="M 540 1260 
L 540 172.8 
" style="fill: none; stroke: #000000; stroke-width: 0.8; stroke-linejoin: miter; stroke-linecap: square"/>
   </g>
   <g id="patch_4">
    <path d="M 3888 1260 
L 3888 172.8 
" style="fill: none; stroke: #000000; stroke-width: 0.8; stroke-linejoin: miter; stroke-linecap: square"/>
   </g>
   <g id="patch_5">
    <path d="M 540 1260 
L 3888 1260 
" style="fill: none; stroke: #000000; stroke-width: 0.8; stroke-linejoin: miter; stroke-linecap: square"/>
   </g>
   <g id="patch_6">
    <path d="M 540 172.8 
L 3888 172.8 
" style="fill: none; stroke: #000000; stroke-width: 0.8; stroke-linejoin: miter; stroke-linecap: square"/>
   </g>
   <g id="text_19">
    <!-- Predicted Arc-Length vs. Ground Truth Arc-Length (at Anchors) -->
    <g transform="translate(1667.007422 165.521094)scale(0.35 -0.35)">
     <defs>
      <path id="DejaVuSans-76" d="M 191 3500 
L 800 3500 
L 1894 563 
L 2988 3500 
L 3597 3500 
L 2284 0 
L 1503 0 
L 191 3500 
z
" transform="scale(0.015625)"/>
      <path id="DejaVuSans-73" d="M 2834 3397 
L 2834 2853 
Q 2591 2978 2328 3040 
Q 2066 3103 1784 3103 
Q 1356 3103 1142 2972 
Q 928 2841 928 2578 
Q 928 2378 1081 2264 
Q 1234 2150 1697 2047 
L 1894 2003 
Q 2506 1872 2764 1633 
Q 3022 1394 3022 966 
Q 3022 478 2636 193 
Q 2250 -91 1575 -91 
Q 1294 -91 989 -36 
Q 684 19 347 128 
L 347 722 
Q 666 556 975 473 
Q 1284 391 1588 391 
Q 1994 391 2212 530 
Q 2431 669 2431 922 
Q 2431 1156 2273 1281 
Q 2116 1406 1581 1522 
L 1381 1569 
Q 847 1681 609 1914 
Q 372 2147 372 2553 
Q 372 3047 722 3315 
Q 1072 3584 1716 3584 
Q 2034 3584 2315 3537 
Q 2597 3491 2834 3397 
z
" transform="scale(0.015625)"/>
      <path id="DejaVuSans-2e" d="M 684 794 
L 1344 794 
L 1344 0 
L 684 0 
L 684 794 
z
" transform="scale(0.015625)"/>
      <path id="DejaVuSans-47" d="M 3809 666 
L 3809 1919 
L 2778 1919 
L 2778 2438 
L 4434 2438 
L 4434 434 
Q 4069 175 3628 42 
Q 3188 -91 2688 -91 
Q 1594 -91 976 548 
Q 359 1188 359 2328 
Q 359 3472 976 4111 
Q 1594 4750 2688 4750 
Q 3144 4750 3555 4637 
Q 3966 4525 4313 4306 
L 4313 3634 
Q 3963 3931 3569 4081 
Q 3175 4231 2741 4231 
Q 1884 4231 1454 3753 
Q 1025 3275 1025 2328 
Q 1025 1384 1454 906 
Q 1884 428 2741 428 
Q 3075 428 3337 486 
Q 3600 544 3809 666 
z
" transform="scale(0.015625)"/>
      <path id="DejaVuSans-75" d="M 544 1381 
L 544 3500 
L 1119 3500 
L 1119 1403 
Q 1119 906 1312 657 
Q 1506 409 1894 409 
Q 2359 409 2629 706 
Q 2900 1003 2900 1516 
L 2900 3500 
L 3475 3500 
L 3475 0 
L 2900 0 
L 2900 538 
Q 2691 219 2414 64 
Q 2138 -91 1772 -91 
Q 1169 -91 856 284 
Q 544 659 544 1381 
z
M 1991 3584 
L 1991 3584 
z
" transform="scale(0.015625)"/>
      <path id="DejaVuSans-54" d="M -19 4666 
L 3928 4666 
L 3928 4134 
L 2272 4134 
L 2272 0 
L 1638 0 
L 1638 4134 
L -19 4134 
L -19 4666 
z
" transform="scale(0.015625)"/>
      <path id="DejaVuSans-28" d="M 1984 4856 
Q 1566 4138 1362 3434 
Q 1159 2731 1159 2009 
Q 1159 1288 1364 580 
Q 1569 -128 1984 -844 
L 1484 -844 
Q 1016 -109 783 600 
Q 550 1309 550 2009 
Q 550 2706 781 3412 
Q 1013 4119 1484 4856 
L 1984 4856 
z
" transform="scale(0.015625)"/>
      <path id="DejaVuSans-61" d="M 2194 1759 
Q 1497 1759 1228 1600 
Q 959 1441 959 1056 
Q 959 750 1161 570 
Q 1363 391 1709 391 
Q 2188 391 2477 730 
Q 2766 1069 2766 1631 
L 2766 1759 
L 2194 1759 
z
M 3341 1997 
L 3341 0 
L 2766 0 
L 2766 531 
Q 2569 213 2275 61 
Q 1981 -91 1556 -91 
Q 1019 -91 701 211 
Q 384 513 384 1019 
Q 384 1609 779 1909 
Q 1175 2209 1959 2209 
L 2766 2209 
L 2766 2266 
Q 2766 2663 2505 2880 
Q 2244 3097 1772 3097 
Q 1472 3097 1187 3025 
Q 903 2953 641 2809 
L 641 3341 
Q 956 3463 1253 3523 
Q 1550 3584 1831 3584 
Q 2591 3584 2966 3190 
Q 3341 2797 3341 1997 
z
" transform="scale(0.015625)"/>
      <path id="DejaVuSans-29" d="M 513 4856 
L 1013 4856 
Q 1481 4119 1714 3412 
Q 1947 2706 1947 2009 
Q 1947 1309 1714 600 
Q 1481 -109 1013 -844 
L 513 -844 
Q 928 -128 1133 580 
Q 1338 1288 1338 2009 
Q 1338 2731 1133 3434 
Q 928 4138 513 4856 
z
" transform="scale(0.015625)"/>
     </defs>
     <use xlink:href="#DejaVuSans-50"/>
     <use xlink:href="#DejaVuSans-72" x="58.552734"/>
     <use xlink:href="#DejaVuSans-65" x="97.416016"/>
     <use xlink:href="#DejaVuSans-64" x="158.939453"/>
     <use xlink:href="#DejaVuSans-69" x="222.416016"/>
     <use xlink:href="#DejaVuSans-63" x="250.199219"/>
     <use xlink:href="#DejaVuSans-74" x="305.179688"/>
     <use xlink:href="#DejaVuSans-65" x="344.388672"/>
     <use xlink:href="#DejaVuSans-64" x="405.912109"/>
     <use xlink:href="#DejaVuSans-20" x="469.388672"/>
     <use xlink:href="#DejaVuSans-41" x="501.175781"/>
     <use xlink:href="#DejaVuSans-72" x="569.583984"/>
     <use xlink:href="#DejaVuSans-63" x="608.447266"/>
     <use xlink:href="#DejaVuSans-2d" x="663.427734"/>
     <use xlink:href="#DejaVuSans-4c" x="699.511719"/>
     <use xlink:href="#DejaVuSans-65" x="753.474609"/>
     <use xlink:href="#DejaVuSans-6e" x="814.998047"/>
     <use xlink:href="#DejaVuSans-67" x="878.376953"/>
     <use xlink:href="#DejaVuSans-74" x="941.853516"/>
     <use xlink:href="#DejaVuSans-68" x="981.0625"/>
     <use xlink:href="#DejaVuSans-20" x="1044.441406"/>
     <use xlink:href="#DejaVuSans-76" x="1076.228516"/>
     <use xlink:href="#DejaVuSans-73" x="1135.408203"/>
     <use xlink:href="#DejaVuSans-2e" x="1187.507812"/>
     <use xlink:href="#DejaVuSans-20" x="1219.294922"/>
     <use xlink:href="#DejaVuSans-47" x="1251.082031"/>
     <use xlink:href="#DejaVuSans-72" x="1328.572266"/>
     <use xlink:href="#DejaVuSans-6f" x="1367.435547"/>
     <use xlink:href="#DejaVuSans-75" x="1428.617188"/>
     <use xlink:href="#DejaVuSans-6e" x="1491.996094"/>
     <use xlink:href="#DejaVuSans-64" x="1555.375"/>
     <use xlink:href="#DejaVuSans-20" x="1618.851562"/>
     <use xlink:href="#DejaVuSans-54" x="1650.638672"/>
     <use xlink:href="#DejaVuSans-72" x="1696.972656"/>
     <use xlink:href="#DejaVuSans-75" x="1738.085938"/>
     <use xlink:href="#DejaVuSans-74" x="1801.464844"/>
     <use xlink:href="#DejaVuSans-68" x="1840.673828"/>
     <use xlink:href="#DejaVuSans-20" x="1904.052734"/>
     <use xlink:href="#DejaVuSans-41" x="1935.839844"/>
     <use xlink:href="#DejaVuSans-72" x="2004.248047"/>
     <use xlink:href="#DejaVuSans-63" x="2043.111328"/>
     <use xlink:href="#DejaVuSans-2d" x="2098.091797"/>
     <use xlink:href="#DejaVuSans-4c" x="2134.175781"/>
     <use xlink:href="#DejaVuSans-65" x="2188.138672"/>
     <use xlink:href="#DejaVuSans-6e" x="2249.662109"/>
     <use xlink:href="#DejaVuSans-67" x="2313.041016"/>
     <use xlink:href="#DejaVuSans-74" x="2376.517578"/>
     <use xlink:href="#DejaVuSans-68" x="2415.726562"/>
     <use xlink:href="#DejaVuSans-20" x="2479.105469"/>
     <use xlink:href="#DejaVuSans-28" x="2510.892578"/>
     <use xlink:href="#DejaVuSans-61" x="2549.90625"/>
     <use xlink:href="#DejaVuSans-74" x="2611.185547"/>
     <use xlink:href="#DejaVuSans-20" x="2650.394531"/>
     <use xlink:href="#DejaVuSans-41" x="2682.181641"/>
     <use xlink:href="#DejaVuSans-6e" x="2750.589844"/>
     <use xlink:href="#DejaVuSans-63" x="2813.96875"/>
     <use xlink:href="#DejaVuSans-68" x="2868.949219"/>
     <use xlink:href="#DejaVuSans-6f" x="2932.328125"/>
     <use xlink:href="#DejaVuSans-72" x="2993.509766"/>
     <use xlink:href="#DejaVuSans-73" x="3034.623047"/>
     <use xlink:href="#DejaVuSans-29" x="3086.722656"/>
    </g>
   </g>
   <g id="legend_1">
    <g id="patch_7">
     <path d="M 557.5 339.58125 
L 1208.160156 339.58125 
Q 1213.160156 339.58125 1213.160156 334.58125 
L 1213.160156 190.3 
Q 1213.160156 185.3 1208.160156 185.3 
L 557.5 185.3 
Q 552.5 185.3 552.5 190.3 
L 552.5 334.58125 
Q 552.5 339.58125 557.5 339.58125 
z
" style="fill: #ffffff; opacity: 0.8; stroke: #cccccc; stroke-linejoin: miter"/>
    </g>
    <g id="line2d_17">
     <path d="M 562.5 205.546094 
L 587.5 205.546094 
L 612.5 205.546094 
" style="fill: none; stroke: #ff8c00; stroke-width: 6; stroke-linecap: square"/>
    </g>
    <g id="text_20">
     <!-- True Arc-Length (Transformed Curve #1) -->
     <g transform="translate(632.5 214.296094)scale(0.25 -0.25)">
      <defs>
       <path id="DejaVuSans-66" d="M 2375 4863 
L 2375 4384 
L 1825 4384 
Q 1516 4384 1395 4259 
Q 1275 4134 1275 3809 
L 1275 3500 
L 2222 3500 
L 2222 3053 
L 1275 3053 
L 1275 0 
L 697 0 
L 697 3053 
L 147 3053 
L 147 3500 
L 697 3500 
L 697 3744 
Q 697 4328 969 4595 
Q 1241 4863 1831 4863 
L 2375 4863 
z
" transform="scale(0.015625)"/>
       <path id="DejaVuSans-6d" d="M 3328 2828 
Q 3544 3216 3844 3400 
Q 4144 3584 4550 3584 
Q 5097 3584 5394 3201 
Q 5691 2819 5691 2113 
L 5691 0 
L 5113 0 
L 5113 2094 
Q 5113 2597 4934 2840 
Q 4756 3084 4391 3084 
Q 3944 3084 3684 2787 
Q 3425 2491 3425 1978 
L 3425 0 
L 2847 0 
L 2847 2094 
Q 2847 2600 2669 2842 
Q 2491 3084 2119 3084 
Q 1678 3084 1418 2786 
Q 1159 2488 1159 1978 
L 1159 0 
L 581 0 
L 581 3500 
L 1159 3500 
L 1159 2956 
Q 1356 3278 1631 3431 
Q 1906 3584 2284 3584 
Q 2666 3584 2933 3390 
Q 3200 3197 3328 2828 
z
" transform="scale(0.015625)"/>
       <path id="DejaVuSans-43" d="M 4122 4306 
L 4122 3641 
Q 3803 3938 3442 4084 
Q 3081 4231 2675 4231 
Q 1875 4231 1450 3742 
Q 1025 3253 1025 2328 
Q 1025 1406 1450 917 
Q 1875 428 2675 428 
Q 3081 428 3442 575 
Q 3803 722 4122 1019 
L 4122 359 
Q 3791 134 3420 21 
Q 3050 -91 2638 -91 
Q 1578 -91 968 557 
Q 359 1206 359 2328 
Q 359 3453 968 4101 
Q 1578 4750 2638 4750 
Q 3056 4750 3426 4639 
Q 3797 4528 4122 4306 
z
" transform="scale(0.015625)"/>
       <path id="DejaVuSans-23" d="M 3272 2816 
L 2363 2816 
L 2100 1772 
L 3016 1772 
L 3272 2816 
z
M 2803 4594 
L 2478 3297 
L 3391 3297 
L 3719 4594 
L 4219 4594 
L 3897 3297 
L 4872 3297 
L 4872 2816 
L 3775 2816 
L 3519 1772 
L 4513 1772 
L 4513 1294 
L 3397 1294 
L 3072 0 
L 2572 0 
L 2894 1294 
L 1978 1294 
L 1656 0 
L 1153 0 
L 1478 1294 
L 494 1294 
L 494 1772 
L 1594 1772 
L 1856 2816 
L 850 2816 
L 850 3297 
L 1978 3297 
L 2297 4594 
L 2803 4594 
z
" transform="scale(0.015625)"/>
      </defs>
      <use xlink:href="#DejaVuSans-54"/>
      <use xlink:href="#DejaVuSans-72" x="46.333984"/>
      <use xlink:href="#DejaVuSans-75" x="87.447266"/>
      <use xlink:href="#DejaVuSans-65" x="150.826172"/>
      <use xlink:href="#DejaVuSans-20" x="212.349609"/>
      <use xlink:href="#DejaVuSans-41" x="244.136719"/>
      <use xlink:href="#DejaVuSans-72" x="312.544922"/>
      <use xlink:href="#DejaVuSans-63" x="351.408203"/>
      <use xlink:href="#DejaVuSans-2d" x="406.388672"/>
      <use xlink:href="#DejaVuSans-4c" x="442.472656"/>
      <use xlink:href="#DejaVuSans-65" x="496.435547"/>
      <use xlink:href="#DejaVuSans-6e" x="557.958984"/>
      <use xlink:href="#DejaVuSans-67" x="621.337891"/>
      <use xlink:href="#DejaVuSans-74" x="684.814453"/>
      <use xlink:href="#DejaVuSans-68" x="724.023438"/>
      <use xlink:href="#DejaVuSans-20" x="787.402344"/>
      <use xlink:href="#DejaVuSans-28" x="819.189453"/>
      <use xlink:href="#DejaVuSans-54" x="858.203125"/>
      <use xlink:href="#DejaVuSans-72" x="904.537109"/>
      <use xlink:href="#DejaVuSans-61" x="945.650391"/>
      <use xlink:href="#DejaVuSans-6e" x="1006.929688"/>
      <use xlink:href="#DejaVuSans-73" x="1070.308594"/>
      <use xlink:href="#DejaVuSans-66" x="1122.408203"/>
      <use xlink:href="#DejaVuSans-6f" x="1157.613281"/>
      <use xlink:href="#DejaVuSans-72" x="1218.794922"/>
      <use xlink:href="#DejaVuSans-6d" x="1258.158203"/>
      <use xlink:href="#DejaVuSans-65" x="1355.570312"/>
      <use xlink:href="#DejaVuSans-64" x="1417.09375"/>
      <use xlink:href="#DejaVuSans-20" x="1480.570312"/>
      <use xlink:href="#DejaVuSans-43" x="1512.357422"/>
      <use xlink:href="#DejaVuSans-75" x="1582.181641"/>
      <use xlink:href="#DejaVuSans-72" x="1645.560547"/>
      <use xlink:href="#DejaVuSans-76" x="1686.673828"/>
      <use xlink:href="#DejaVuSans-65" x="1745.853516"/>
      <use xlink:href="#DejaVuSans-20" x="1807.376953"/>
      <use xlink:href="#DejaVuSans-23" x="1839.164062"/>
      <use xlink:href="#DejaVuSans-31" x="1922.953125"/>
      <use xlink:href="#DejaVuSans-29" x="1986.576172"/>
     </g>
    </g>
    <g id="line2d_18">
     <path d="M 562.5 242.241406 
L 587.5 242.241406 
L 612.5 242.241406 
" style="fill: none; stroke: #aa0000; stroke-width: 6; stroke-linecap: square"/>
    </g>
    <g id="text_21">
     <!-- Predicted Arc-Length (Transformed Curve #1) -->
     <g transform="translate(632.5 250.991406)scale(0.25 -0.25)">
      <use xlink:href="#DejaVuSans-50"/>
      <use xlink:href="#DejaVuSans-72" x="58.552734"/>
      <use xlink:href="#DejaVuSans-65" x="97.416016"/>
      <use xlink:href="#DejaVuSans-64" x="158.939453"/>
      <use xlink:href="#DejaVuSans-69" x="222.416016"/>
      <use xlink:href="#DejaVuSans-63" x="250.199219"/>
      <use xlink:href="#DejaVuSans-74" x="305.179688"/>
      <use xlink:href="#DejaVuSans-65" x="344.388672"/>
      <use xlink:href="#DejaVuSans-64" x="405.912109"/>
      <use xlink:href="#DejaVuSans-20" x="469.388672"/>
      <use xlink:href="#DejaVuSans-41" x="501.175781"/>
      <use xlink:href="#DejaVuSans-72" x="569.583984"/>
      <use xlink:href="#DejaVuSans-63" x="608.447266"/>
      <use xlink:href="#DejaVuSans-2d" x="663.427734"/>
      <use xlink:href="#DejaVuSans-4c" x="699.511719"/>
      <use xlink:href="#DejaVuSans-65" x="753.474609"/>
      <use xlink:href="#DejaVuSans-6e" x="814.998047"/>
      <use xlink:href="#DejaVuSans-67" x="878.376953"/>
      <use xlink:href="#DejaVuSans-74" x="941.853516"/>
      <use xlink:href="#DejaVuSans-68" x="981.0625"/>
      <use xlink:href="#DejaVuSans-20" x="1044.441406"/>
      <use xlink:href="#DejaVuSans-28" x="1076.228516"/>
      <use xlink:href="#DejaVuSans-54" x="1115.242188"/>
      <use xlink:href="#DejaVuSans-72" x="1161.576172"/>
      <use xlink:href="#DejaVuSans-61" x="1202.689453"/>
      <use xlink:href="#DejaVuSans-6e" x="1263.96875"/>
      <use xlink:href="#DejaVuSans-73" x="1327.347656"/>
      <use xlink:href="#DejaVuSans-66" x="1379.447266"/>
      <use xlink:href="#DejaVuSans-6f" x="1414.652344"/>
      <use xlink:href="#DejaVuSans-72" x="1475.833984"/>
      <use xlink:href="#DejaVuSans-6d" x="1515.197266"/>
      <use xlink:href="#DejaVuSans-65" x="1612.609375"/>
      <use xlink:href="#DejaVuSans-64" x="1674.132812"/>
      <use xlink:href="#DejaVuSans-20" x="1737.609375"/>
      <use xlink:href="#DejaVuSans-43" x="1769.396484"/>
      <use xlink:href="#DejaVuSans-75" x="1839.220703"/>
      <use xlink:href="#DejaVuSans-72" x="1902.599609"/>
      <use xlink:href="#DejaVuSans-76" x="1943.712891"/>
      <use xlink:href="#DejaVuSans-65" x="2002.892578"/>
      <use xlink:href="#DejaVuSans-20" x="2064.416016"/>
      <use xlink:href="#DejaVuSans-23" x="2096.203125"/>
      <use xlink:href="#DejaVuSans-31" x="2179.992188"/>
      <use xlink:href="#DejaVuSans-29" x="2243.615234"/>
     </g>
    </g>
    <g id="line2d_19">
     <path d="M 562.5 278.936719 
L 587.5 278.936719 
L 612.5 278.936719 
" style="fill: none; stroke: #444444; stroke-width: 6; stroke-linecap: square"/>
    </g>
    <g id="text_22">
     <!-- True Arc-Length (Transformed Curve #2) -->
     <g transform="translate(632.5 287.686719)scale(0.25 -0.25)">
      <use xlink:href="#DejaVuSans-54"/>
      <use xlink:href="#DejaVuSans-72" x="46.333984"/>
      <use xlink:href="#DejaVuSans-75" x="87.447266"/>
      <use xlink:href="#DejaVuSans-65" x="150.826172"/>
      <use xlink:href="#DejaVuSans-20" x="212.349609"/>
      <use xlink:href="#DejaVuSans-41" x="244.136719"/>
      <use xlink:href="#DejaVuSans-72" x="312.544922"/>
      <use xlink:href="#DejaVuSans-63" x="351.408203"/>
      <use xlink:href="#DejaVuSans-2d" x="406.388672"/>
      <use xlink:href="#DejaVuSans-4c" x="442.472656"/>
      <use xlink:href="#DejaVuSans-65" x="496.435547"/>
      <use xlink:href="#DejaVuSans-6e" x="557.958984"/>
      <use xlink:href="#DejaVuSans-67" x="621.337891"/>
      <use xlink:href="#DejaVuSans-74" x="684.814453"/>
      <use xlink:href="#DejaVuSans-68" x="724.023438"/>
      <use xlink:href="#DejaVuSans-20" x="787.402344"/>
      <use xlink:href="#DejaVuSans-28" x="819.189453"/>
      <use xlink:href="#DejaVuSans-54" x="858.203125"/>
      <use xlink:href="#DejaVuSans-72" x="904.537109"/>
      <use xlink:href="#DejaVuSans-61" x="945.650391"/>
      <use xlink:href="#DejaVuSans-6e" x="1006.929688"/>
      <use xlink:href="#DejaVuSans-73" x="1070.308594"/>
      <use xlink:href="#DejaVuSans-66" x="1122.408203"/>
      <use xlink:href="#DejaVuSans-6f" x="1157.613281"/>
      <use xlink:href="#DejaVuSans-72" x="1218.794922"/>
      <use xlink:href="#DejaVuSans-6d" x="1258.158203"/>
      <use xlink:href="#DejaVuSans-65" x="1355.570312"/>
      <use xlink:href="#DejaVuSans-64" x="1417.09375"/>
      <use xlink:href="#DejaVuSans-20" x="1480.570312"/>
      <use xlink:href="#DejaVuSans-43" x="1512.357422"/>
      <use xlink:href="#DejaVuSans-75" x="1582.181641"/>
      <use xlink:href="#DejaVuSans-72" x="1645.560547"/>
      <use xlink:href="#DejaVuSans-76" x="1686.673828"/>
      <use xlink:href="#DejaVuSans-65" x="1745.853516"/>
      <use xlink:href="#DejaVuSans-20" x="1807.376953"/>
      <use xlink:href="#DejaVuSans-23" x="1839.164062"/>
      <use xlink:href="#DejaVuSans-32" x="1922.953125"/>
      <use xlink:href="#DejaVuSans-29" x="1986.576172"/>
     </g>
    </g>
    <g id="line2d_20">
     <path d="M 562.5 315.632031 
L 587.5 315.632031 
L 612.5 315.632031 
" style="fill: none; stroke: #00aa00; stroke-width: 6; stroke-linecap: square"/>
    </g>
    <g id="text_23">
     <!-- Predicted Arc-Length (Transformed Curve #2) -->
     <g transform="translate(632.5 324.382031)scale(0.25 -0.25)">
      <use xlink:href="#DejaVuSans-50"/>
      <use xlink:href="#DejaVuSans-72" x="58.552734"/>
      <use xlink:href="#DejaVuSans-65" x="97.416016"/>
      <use xlink:href="#DejaVuSans-64" x="158.939453"/>
      <use xlink:href="#DejaVuSans-69" x="222.416016"/>
      <use xlink:href="#DejaVuSans-63" x="250.199219"/>
      <use xlink:href="#DejaVuSans-74" x="305.179688"/>
      <use xlink:href="#DejaVuSans-65" x="344.388672"/>
      <use xlink:href="#DejaVuSans-64" x="405.912109"/>
      <use xlink:href="#DejaVuSans-20" x="469.388672"/>
      <use xlink:href="#DejaVuSans-41" x="501.175781"/>
      <use xlink:href="#DejaVuSans-72" x="569.583984"/>
      <use xlink:href="#DejaVuSans-63" x="608.447266"/>
      <use xlink:href="#DejaVuSans-2d" x="663.427734"/>
      <use xlink:href="#DejaVuSans-4c" x="699.511719"/>
      <use xlink:href="#DejaVuSans-65" x="753.474609"/>
      <use xlink:href="#DejaVuSans-6e" x="814.998047"/>
      <use xlink:href="#DejaVuSans-67" x="878.376953"/>
      <use xlink:href="#DejaVuSans-74" x="941.853516"/>
      <use xlink:href="#DejaVuSans-68" x="981.0625"/>
      <use xlink:href="#DejaVuSans-20" x="1044.441406"/>
      <use xlink:href="#DejaVuSans-28" x="1076.228516"/>
      <use xlink:href="#DejaVuSans-54" x="1115.242188"/>
      <use xlink:href="#DejaVuSans-72" x="1161.576172"/>
      <use xlink:href="#DejaVuSans-61" x="1202.689453"/>
      <use xlink:href="#DejaVuSans-6e" x="1263.96875"/>
      <use xlink:href="#DejaVuSans-73" x="1327.347656"/>
      <use xlink:href="#DejaVuSans-66" x="1379.447266"/>
      <use xlink:href="#DejaVuSans-6f" x="1414.652344"/>
      <use xlink:href="#DejaVuSans-72" x="1475.833984"/>
      <use xlink:href="#DejaVuSans-6d" x="1515.197266"/>
      <use xlink:href="#DejaVuSans-65" x="1612.609375"/>
      <use xlink:href="#DejaVuSans-64" x="1674.132812"/>
      <use xlink:href="#DejaVuSans-20" x="1737.609375"/>
      <use xlink:href="#DejaVuSans-43" x="1769.396484"/>
      <use xlink:href="#DejaVuSans-75" x="1839.220703"/>
      <use xlink:href="#DejaVuSans-72" x="1902.599609"/>
      <use xlink:href="#DejaVuSans-76" x="1943.712891"/>
      <use xlink:href="#DejaVuSans-65" x="2002.892578"/>
      <use xlink:href="#DejaVuSans-20" x="2064.416016"/>
      <use xlink:href="#DejaVuSans-23" x="2096.203125"/>
      <use xlink:href="#DejaVuSans-32" x="2179.992188"/>
      <use xlink:href="#DejaVuSans-29" x="2243.615234"/>
     </g>
    </g>
   </g>
   <g id="line2d_21">
    <path d="M 692.181818 1210.581818 
L 724.189466 1199.15673 
L 759.106901 1186.951329 
L 855.129845 1153.638973 
L 878.408135 1145.188706 
L 898.776638 1137.565612 
L 919.145142 1129.720316 
L 942.423431 1120.505751 
L 968.611507 1109.89585 
L 1064.634452 1070.725416 
L 1087.912741 1061.571301 
L 1111.191031 1052.652541 
L 1131.559534 1045.064162 
L 1151.928038 1037.690054 
L 1172.296541 1030.531692 
L 1195.574831 1022.591665 
L 1224.672693 1012.919952 
L 1268.319485 998.416779 
L 1288.687989 991.415818 
L 1309.056492 984.171249 
L 1329.424996 976.666651 
L 1349.793499 968.928544 
L 1375.981575 958.734653 
L 1445.816444 931.406393 
L 1472.004519 921.487347 
L 1495.282809 912.904558 
L 1521.470885 903.506388 
L 1550.568747 893.328179 
L 1597.125326 877.345379 
L 1637.862333 863.268134 
L 1666.960195 852.959461 
L 1696.058057 842.389103 
L 1774.622284 813.618874 
L 1792.081001 807.566918 
L 1809.539718 801.764053 
L 1826.998436 796.223122 
L 1847.366939 790.04058 
L 1905.562663 772.61966 
L 1923.02138 767.028814 
L 1940.480097 761.18534 
L 1960.848601 754.094321 
L 1987.036677 744.707993 
L 2068.51069 715.369392 
L 2141.255345 689.343234 
L 2158.714062 683.366563 
L 2173.262993 678.584279 
L 2187.811924 674.01697 
L 2202.360855 669.671587 
L 2219.819572 664.710317 
L 2275.10551 649.276726 
L 2289.654441 644.842331 
L 2304.203372 640.151389 
L 2318.752303 635.213665 
L 2336.21102 629.024017 
L 2368.218669 617.334018 
L 2388.587172 610.035186 
L 2403.136103 605.063636 
L 2414.775248 601.296502 
L 2426.414392 597.752982 
L 2438.053537 594.45517 
L 2449.692682 591.41016 
L 2461.331827 588.606243 
L 2472.970972 586.009752 
L 2490.429689 582.376065 
L 2519.527551 576.386939 
L 2534.076482 573.162703 
L 2548.625413 569.710487 
L 2563.174344 566.042906 
L 2583.542847 560.64836 
L 2627.18964 548.970943 
L 2644.648357 544.563099 
L 2662.107075 540.37184 
L 2688.29515 534.361301 
L 2717.393012 527.635802 
L 2734.85173 523.365453 
L 2752.310447 518.845268 
L 2769.769164 514.067838 
L 2787.227881 509.053383 
L 2807.596384 502.945284 
L 2827.964888 496.607422 
L 2854.152964 488.200291 
L 2938.536763 460.811035 
L 2958.905267 454.566043 
L 2982.183556 447.684266 
L 3014.191205 438.498689 
L 3054.928211 426.776376 
L 3084.026073 418.148883 
L 3110.214149 410.151433 
L 3133.492439 402.833682 
L 3156.770728 395.292717 
L 3182.958804 386.547784 
L 3244.064314 365.938004 
L 3261.523031 360.390864 
L 3276.071962 356.011415 
L 3290.620893 351.887533 
L 3305.169824 348.024865 
L 3319.718755 344.397948 
L 3337.177473 340.275983 
L 3395.373197 326.755324 
L 3421.561272 320.309747 
L 3523.403789 294.789401 
L 3540.862507 290.063986 
L 3555.411438 285.891444 
L 3569.960369 281.482448 
L 3584.509299 276.838209 
L 3599.05823 271.978212 
L 3616.516948 265.907504 
L 3636.885451 258.582945 
L 3668.893099 246.796422 
L 3721.269251 227.498162 
L 3735.818182 222.218182 
L 3735.818182 222.218182 
" clip-path="url(#peae09ba309)" style="fill: none; stroke: #ff8c00; stroke-width: 6; stroke-linecap: square"/>
   </g>
   <g id="line2d_22">
    <path d="M 692.181818 1210.581818 
L 700.911177 1207.528738 
L 706.730749 1205.340173 
L 709.640535 1204.362727 
L 712.550322 1203.232489 
L 718.369894 1201.215951 
L 724.189466 1199.109008 
L 730.009039 1197.159908 
L 732.918825 1196.113631 
L 735.828611 1195.192175 
L 741.648184 1193.058508 
L 750.377542 1190.072747 
L 756.197115 1188.049454 
L 782.38519 1179.025402 
L 831.851556 1161.953652 
L 858.039631 1152.707624 
L 898.776638 1137.653424 
L 916.235355 1130.948084 
L 948.243004 1118.276624 
L 983.160438 1103.922285 
L 1003.528941 1095.513807 
L 1012.2583 1091.922389 
L 1023.897445 1087.097362 
L 1029.717017 1084.755274 
L 1058.814879 1072.928902 
L 1099.551886 1056.949516 
L 1114.100817 1051.432823 
L 1137.379107 1042.820703 
L 1143.198679 1040.677841 
L 1169.386755 1031.318121 
L 1189.755258 1024.372764 
L 1198.484617 1021.389274 
L 1218.85312 1014.637097 
L 1233.402051 1009.876439 
L 1288.687989 991.226227 
L 1311.966278 982.964379 
L 1341.06414 972.13402 
L 1384.710933 955.071961 
L 1405.079437 946.944097 
L 1431.267513 936.655603 
L 1445.816444 930.961701 
L 1483.643664 916.617016 
L 1506.921954 908.13785 
L 1544.749174 894.80878 
L 1591.305754 878.806327 
L 1611.674257 871.834895 
L 1649.501477 858.609123 
L 1722.246132 832.25563 
L 1728.065705 830.075824 
L 1730.975491 829.002845 
L 1733.885277 828.050955 
L 1739.70485 825.870859 
L 1748.434208 822.718554 
L 1754.253781 820.641858 
L 1777.53207 812.478573 
L 1780.441856 811.628023 
L 1783.351643 810.575449 
L 1789.171215 808.688561 
L 1794.990787 806.774175 
L 1812.449505 801.137628 
L 1821.178863 798.512695 
L 1832.818008 794.840721 
L 1835.727794 794.143182 
L 1856.096298 788.450639 
L 1859.006084 787.357742 
L 1864.825656 785.831688 
L 1867.735442 784.935165 
L 1873.555015 783.407131 
L 1899.743091 775.742121 
L 1920.111594 769.335809 
L 1931.750739 765.614672 
L 1966.668173 753.543125 
L 2007.40518 738.96035 
L 2016.134539 735.80511 
L 2036.503042 728.571624 
L 2048.142187 724.401447 
L 2068.51069 717.168511 
L 2103.428124 704.699537 
L 2117.977055 699.464069 
L 2138.345559 692.22136 
L 2167.443421 682.307145 
L 2184.902138 676.753078 
L 2199.451069 672.362466 
L 2214 668.192138 
L 2240.188076 660.994142 
L 2251.827221 657.812742 
L 2275.10551 651.186075 
L 2289.654441 646.726725 
L 2298.3838 643.979278 
L 2321.662089 636.128753 
L 2344.940379 627.770074 
L 2388.587172 611.981173 
L 2400.226317 607.997726 
L 2420.59482 601.473048 
L 2435.143751 597.264546 
L 2452.602468 592.807364 
L 2464.241613 590.061377 
L 2467.151399 589.620865 
L 2475.880758 587.694284 
L 2478.790544 587.117328 
L 2481.70033 586.709781 
L 2484.610116 585.980501 
L 2490.429689 584.943509 
L 2493.339475 584.533773 
L 2496.249261 583.842992 
L 2499.159047 583.280834 
L 2502.068834 582.97379 
L 2510.798192 581.284863 
L 2519.527551 579.290449 
L 2522.437337 578.858533 
L 2525.347123 578.250788 
L 2528.256909 577.469907 
L 2531.166696 576.834612 
L 2534.076482 576.397488 
L 2536.986268 575.657078 
L 2539.896054 575.146234 
L 2542.80584 574.257782 
L 2554.444985 571.567 
L 2566.08413 568.730797 
L 2568.993916 568.040192 
L 2571.903702 567.18181 
L 2574.813489 566.512535 
L 2586.452633 563.394314 
L 2598.091778 560.273058 
L 2627.18964 552.521639 
L 2638.828785 549.547226 
L 2653.377716 546.06624 
L 2665.016861 543.441665 
L 2688.29515 538.522838 
L 2691.204937 537.989492 
L 2694.114723 537.236669 
L 2697.024509 536.795891 
L 2705.753868 534.861718 
L 2708.663654 534.515727 
L 2737.761516 528.337234 
L 2740.671302 527.602605 
L 2746.490874 526.330948 
L 2749.400661 525.422241 
L 2766.859378 521.187988 
L 2769.769164 520.26224 
L 2778.498523 518.041379 
L 2784.318095 516.5198 
L 2787.227881 515.60185 
L 2790.137667 514.951355 
L 2795.95724 513.220746 
L 2798.867026 512.478705 
L 2801.776812 511.532033 
L 2804.686598 510.804761 
L 2807.596384 509.956373 
L 2810.506171 508.932429 
L 2819.235529 506.539282 
L 2822.145315 505.661584 
L 2825.055102 504.618696 
L 2830.874674 503.031868 
L 2836.694246 501.112676 
L 2839.604033 500.249743 
L 2842.513819 499.222378 
L 2848.333391 497.421287 
L 2851.243177 496.350493 
L 2865.792108 491.657654 
L 2883.250826 485.953494 
L 2894.88997 482.145933 
L 2918.16826 474.580095 
L 2941.44655 467.193877 
L 2961.815053 460.968032 
L 2985.093343 454.116636 
L 3022.920563 443.270352 
L 3025.830349 442.596296 
L 3028.740136 441.705568 
L 3034.559708 440.175371 
L 3037.469494 439.22458 
L 3046.198853 436.755114 
L 3054.928211 434.181312 
L 3063.65757 431.654848 
L 3084.026073 425.693208 
L 3089.845646 423.990203 
L 3095.665218 422.284476 
L 3110.214149 417.839871 
L 3116.033722 416.093485 
L 3130.582653 411.496349 
L 3139.312011 408.671048 
L 3142.221797 407.797787 
L 3145.131584 406.802972 
L 3148.04137 405.945995 
L 3159.680515 402.084013 
L 3162.590301 401.233796 
L 3168.409873 399.265107 
L 3171.319659 398.511895 
L 3174.229446 397.42528 
L 3180.049018 395.653139 
L 3182.958804 394.760874 
L 3188.778376 392.652454 
L 3191.688163 391.816388 
L 3197.507735 389.825733 
L 3206.237094 386.881033 
L 3209.14688 385.833962 
L 3217.876238 383.013984 
L 3226.605597 380.014912 
L 3232.425169 378.143194 
L 3238.244742 376.136317 
L 3264.432818 367.827665 
L 3281.891535 362.709555 
L 3299.350252 357.933021 
L 3328.448114 350.770803 
L 3342.997045 347.447582 
L 3345.906831 346.737099 
L 3348.816617 346.183588 
L 3369.185121 341.556445 
L 3375.004693 340.284949 
L 3377.914479 339.560557 
L 3383.734052 338.272654 
L 3389.553624 336.915371 
L 3392.46341 336.280034 
L 3398.282983 334.826791 
L 3404.102555 333.462571 
L 3517.584217 305.287607 
L 3532.133148 301.403286 
L 3543.772293 298.248647 
L 3567.050582 291.397208 
L 3572.870155 289.510355 
L 3584.509299 285.78464 
L 3593.238658 282.816166 
L 3599.05823 280.926082 
L 3601.968017 279.948487 
L 3604.877803 278.827344 
L 3613.607161 275.827521 
L 3628.156092 270.655016 
L 3631.065879 269.618531 
L 3636.885451 267.380832 
L 3639.795237 266.461756 
L 3645.61481 264.307028 
L 3648.524596 263.316785 
L 3654.344168 261.178521 
L 3671.802885 254.790074 
L 3674.712672 253.865349 
L 3677.622458 252.669084 
L 3735.818182 231.812016 
L 3735.818182 231.812016 
" clip-path="url(#peae09ba309)" style="fill: none; stroke: #aa0000; stroke-width: 6; stroke-linecap: square"/>
   </g>
   <g id="line2d_23">
    <path d="M 692.181818 1210.581818 
L 724.189466 1199.15673 
L 759.106901 1186.951329 
L 855.129845 1153.638973 
L 878.408135 1145.188706 
L 898.776638 1137.565612 
L 919.145142 1129.720316 
L 942.423431 1120.505751 
L 968.611507 1109.89585 
L 1064.634452 1070.725416 
L 1087.912741 1061.571301 
L 1111.191031 1052.652541 
L 1131.559534 1045.064162 
L 1151.928038 1037.690054 
L 1172.296541 1030.531692 
L 1195.574831 1022.591665 
L 1224.672693 1012.919952 
L 1268.319485 998.416779 
L 1288.687989 991.415818 
L 1309.056492 984.171249 
L 1329.424996 976.666651 
L 1349.793499 968.928544 
L 1375.981575 958.734653 
L 1445.816444 931.406393 
L 1472.004519 921.487347 
L 1495.282809 912.904558 
L 1521.470885 903.506388 
L 1550.568747 893.328179 
L 1597.125326 877.345379 
L 1637.862333 863.268134 
L 1666.960195 852.959461 
L 1696.058057 842.389103 
L 1774.622284 813.618874 
L 1792.081001 807.566918 
L 1809.539718 801.764053 
L 1826.998436 796.223122 
L 1847.366939 790.04058 
L 1905.562663 772.61966 
L 1923.02138 767.028814 
L 1940.480097 761.18534 
L 1960.848601 754.094321 
L 1987.036677 744.707993 
L 2068.51069 715.369392 
L 2141.255345 689.343234 
L 2158.714062 683.366563 
L 2173.262993 678.584279 
L 2187.811924 674.01697 
L 2202.360855 669.671587 
L 2219.819572 664.710317 
L 2275.10551 649.276726 
L 2289.654441 644.842331 
L 2304.203372 640.151389 
L 2318.752303 635.213665 
L 2336.21102 629.024017 
L 2368.218669 617.334018 
L 2388.587172 610.035186 
L 2403.136103 605.063636 
L 2414.775248 601.296502 
L 2426.414392 597.752982 
L 2438.053537 594.45517 
L 2449.692682 591.41016 
L 2461.331827 588.606243 
L 2472.970972 586.009752 
L 2490.429689 582.376065 
L 2519.527551 576.386939 
L 2534.076482 573.162703 
L 2548.625413 569.710487 
L 2563.174344 566.042906 
L 2583.542847 560.64836 
L 2627.18964 548.970943 
L 2644.648357 544.563099 
L 2662.107075 540.37184 
L 2688.29515 534.361301 
L 2717.393012 527.635802 
L 2734.85173 523.365453 
L 2752.310447 518.845268 
L 2769.769164 514.067838 
L 2787.227881 509.053383 
L 2807.596384 502.945284 
L 2827.964888 496.607422 
L 2854.152964 488.200291 
L 2938.536763 460.811035 
L 2958.905267 454.566043 
L 2982.183556 447.684266 
L 3014.191205 438.498689 
L 3054.928211 426.776376 
L 3084.026073 418.148883 
L 3110.214149 410.151433 
L 3133.492439 402.833682 
L 3156.770728 395.292717 
L 3182.958804 386.547784 
L 3244.064314 365.938004 
L 3261.523031 360.390864 
L 3276.071962 356.011415 
L 3290.620893 351.887533 
L 3305.169824 348.024865 
L 3319.718755 344.397948 
L 3337.177473 340.275983 
L 3395.373197 326.755324 
L 3421.561272 320.309747 
L 3523.403789 294.789401 
L 3540.862507 290.063986 
L 3555.411438 285.891444 
L 3569.960369 281.482448 
L 3584.509299 276.838209 
L 3599.05823 271.978212 
L 3616.516948 265.907504 
L 3636.885451 258.582945 
L 3668.893099 246.796422 
L 3721.269251 227.498162 
L 3735.818182 222.218182 
L 3735.818182 222.218182 
" clip-path="url(#peae09ba309)" style="fill: none; stroke: #444444; stroke-width: 6; stroke-linecap: square"/>
   </g>
   <g id="line2d_24">
    <path d="M 692.181818 1210.581818 
L 724.189466 1199.150198 
L 738.738397 1194.052288 
L 756.197115 1187.988486 
L 779.475404 1180.01648 
L 799.843908 1173.099338 
L 802.753694 1171.993678 
L 811.483052 1169.127327 
L 814.392839 1168.003393 
L 817.302625 1167.204995 
L 823.122197 1165.069273 
L 834.761342 1161.239499 
L 837.671128 1160.15216 
L 840.580914 1159.39288 
L 852.220059 1155.444411 
L 855.129845 1154.556504 
L 860.949418 1152.314726 
L 863.859204 1151.337051 
L 869.678776 1149.525579 
L 875.498349 1147.699816 
L 878.408135 1146.528499 
L 881.317921 1145.661465 
L 884.227707 1144.57279 
L 887.137493 1143.364713 
L 890.04728 1142.544515 
L 892.957066 1141.529589 
L 895.866852 1140.143565 
L 898.776638 1139.40125 
L 904.596211 1137.00785 
L 907.505997 1136.119929 
L 913.325569 1133.966852 
L 916.235355 1132.758928 
L 919.145142 1131.67645 
L 922.054928 1130.735666 
L 936.603859 1125.197049 
L 939.513645 1124.31304 
L 942.423431 1123.057287 
L 951.15279 1119.740866 
L 956.972362 1117.378784 
L 959.882148 1116.459449 
L 974.431079 1110.621949 
L 977.340866 1109.548268 
L 980.250652 1108.247378 
L 997.709369 1101.415081 
L 1000.619155 1100.122358 
L 1003.528941 1099.13659 
L 1006.438728 1097.784746 
L 1009.348514 1096.634068 
L 1012.2583 1095.614901 
L 1015.168086 1094.400861 
L 1018.077872 1093.373608 
L 1020.987659 1092.211182 
L 1023.897445 1090.87653 
L 1026.807231 1089.861803 
L 1029.717017 1088.539241 
L 1032.626803 1087.540599 
L 1035.53659 1086.213261 
L 1041.356162 1084.034765 
L 1047.175734 1081.591856 
L 1087.912741 1065.597179 
L 1134.46932 1047.893584 
L 1160.657396 1038.459203 
L 1181.0259 1031.330716 
L 1215.943334 1019.558827 
L 1236.311837 1012.863408 
L 1265.409699 1003.211515 
L 1291.597775 994.382847 
L 1338.154354 977.440766 
L 1358.522858 969.57681 
L 1445.816444 935.294927 
L 1480.733878 921.961181 
L 1498.192595 915.609981 
L 1515.651312 909.359056 
L 1518.561099 908.380431 
L 1527.290457 905.202393 
L 1536.019816 902.142033 
L 1550.568747 897.104346 
L 1565.117678 892.101234 
L 1576.756823 888.064233 
L 1646.591691 863.816463 
L 1675.689553 853.410956 
L 1762.983139 821.30709 
L 1786.261429 813.104751 
L 1803.720146 807.217527 
L 1826.998436 799.799145 
L 1844.457153 794.511261 
L 1859.006084 790.253681 
L 1876.464801 785.158802 
L 1882.284373 783.429346 
L 1888.103946 781.697792 
L 1891.013732 780.957653 
L 1896.833304 779.169324 
L 1902.652877 777.472671 
L 1937.570311 766.236237 
L 1963.758387 757.279044 
L 1972.487746 754.174784 
L 1987.036677 749.019873 
L 2021.954111 736.382636 
L 2056.871545 723.854138 
L 2097.608552 709.211588 
L 2129.6162 697.798204 
L 2144.165131 692.69783 
L 2155.804276 688.695704 
L 2170.353207 683.866894 
L 2187.811924 678.357107 
L 2205.270641 673.153057 
L 2228.548931 666.608686 
L 2234.368503 665.209538 
L 2237.27829 664.5103 
L 2240.188076 663.593948 
L 2243.097862 662.999695 
L 2257.646793 659.296511 
L 2260.556579 658.235114 
L 2263.466365 657.375593 
L 2266.376152 656.732978 
L 2269.285938 655.750428 
L 2280.925083 652.786896 
L 2289.654441 650.046807 
L 2292.564227 649.416905 
L 2295.474014 648.54625 
L 2298.3838 647.385889 
L 2301.293586 646.569059 
L 2310.022945 643.837415 
L 2312.932731 642.615919 
L 2321.662089 639.891994 
L 2336.21102 635.026179 
L 2339.120807 633.789939 
L 2342.030593 633.039089 
L 2344.940379 631.84051 
L 2350.759951 629.894428 
L 2356.579524 627.724704 
L 2362.399096 625.699067 
L 2385.677386 617.503506 
L 2391.496958 615.503095 
L 2403.136103 611.634392 
L 2420.59482 606.181801 
L 2435.143751 602.068095 
L 2452.602468 597.583086 
L 2455.512254 597.012739 
L 2458.422041 596.298516 
L 2464.241613 595.133157 
L 2470.061185 593.791653 
L 2475.880758 592.751998 
L 2478.790544 592.170413 
L 2493.339475 589.720322 
L 2504.97862 587.681301 
L 2507.888406 586.758661 
L 2516.617765 585.148458 
L 2519.527551 584.862185 
L 2522.437337 584.133232 
L 2525.347123 583.237497 
L 2528.256909 582.907106 
L 2531.166696 582.343358 
L 2542.80584 579.629296 
L 2545.715627 579.04491 
L 2548.625413 578.209327 
L 2560.264558 575.3915 
L 2566.08413 573.847583 
L 2586.452633 568.412504 
L 2633.009213 556.061478 
L 2647.558144 552.444901 
L 2670.836433 547.090382 
L 2682.475578 544.483735 
L 2685.385364 543.957981 
L 2694.114723 542.029724 
L 2697.024509 541.522929 
L 2699.934295 540.792838 
L 2702.844081 540.296972 
L 2714.483226 537.801014 
L 2720.302799 536.671963 
L 2726.122371 535.328394 
L 2729.032157 534.851599 
L 2731.941943 534.05169 
L 2740.671302 532.092675 
L 2743.581088 531.236257 
L 2752.310447 529.298636 
L 2758.130019 527.678721 
L 2761.039805 527.032758 
L 2766.859378 525.455263 
L 2778.498523 522.263908 
L 2784.318095 520.587989 
L 2798.867026 516.310606 
L 2813.415957 511.901069 
L 2825.055102 508.267818 
L 2836.694246 504.552759 
L 2877.431253 491.33501 
L 2906.529115 481.768078 
L 2926.897619 475.190425 
L 2947.266122 468.801603 
L 2964.724839 463.503333 
L 2982.183556 458.36728 
L 3014.191205 449.207812 
L 3060.747784 435.806385 
L 3086.93586 428.025392 
L 3124.76308 416.351116 
L 3148.04137 408.898634 
L 3168.409873 402.226019 
L 3246.9741 375.737417 
L 3255.703459 373.029188 
L 3267.342604 369.360185 
L 3278.981749 365.924519 
L 3296.440466 361.102522 
L 3310.989397 357.418341 
L 3316.808969 355.967077 
L 3319.718755 355.350886 
L 3325.538328 353.936101 
L 3337.177473 351.416932 
L 3345.906831 349.504246 
L 3348.816617 349.01362 
L 3357.545976 347.075502 
L 3360.455762 346.553021 
L 3363.365548 345.821025 
L 3366.275335 345.268939 
L 3409.922128 335.043334 
L 3523.403789 306.669848 
L 3532.133148 304.383427 
L 3549.591865 299.54906 
L 3572.870155 292.493787 
L 3584.509299 288.787624 
L 3601.968017 282.94117 
L 3622.33652 275.820008 
L 3703.810534 245.681585 
L 3735.818182 233.944953 
L 3735.818182 233.944953 
" clip-path="url(#peae09ba309)" style="fill: none; stroke: #00aa00; stroke-width: 6; stroke-linecap: square"/>
   </g>
  </g>
 </g>
 <defs>
  <clipPath id="peae09ba309">
   <rect x="540" y="172.8" width="3348" height="1087.2"/>
  </clipPath>
 </defs>
</svg>
