<?xml version="1.0" encoding="utf-8" standalone="no"?>
<!DOCTYPE svg PUBLIC "-//W3C//DTD SVG 1.1//EN"
  "http://www.w3.org/Graphics/SVG/1.1/DTD/svg11.dtd">
<svg xmlns:xlink="http://www.w3.org/1999/xlink" width="4320pt" height="1440pt" viewBox="0 0 4320 1440" xmlns="http://www.w3.org/2000/svg" version="1.1">
 <metadata>
  <rdf:RDF xmlns:dc="http://purl.org/dc/elements/1.1/" xmlns:cc="http://creativecommons.org/ns#" xmlns:rdf="http://www.w3.org/1999/02/22-rdf-syntax-ns#">
   <cc:Work>
    <dc:type rdf:resource="http://purl.org/dc/dcmitype/StillImage"/>
    <dc:date>2021-11-07T01:33:05.088247</dc:date>
    <dc:format>image/svg+xml</dc:format>
    <dc:creator>
     <cc:Agent>
      <dc:title>Matplotlib v3.5.0rc1, https://matplotlib.org/</dc:title>
     </cc:Agent>
    </dc:creator>
   </cc:Work>
  </rdf:RDF>
 </metadata>
 <defs>
  <style type="text/css">*{stroke-linejoin: round; stroke-linecap: butt}</style>
 </defs>
 <g id="figure_1">
  <g id="patch_1">
   <path d="M 0 1440 
L 4320 1440 
L 4320 0 
L 0 0 
z
" style="fill: #ffffff"/>
  </g>
  <g id="axes_1">
   <g id="patch_2">
    <path d="M 540 1260 
L 3888 1260 
L 3888 172.8 
L 540 172.8 
z
" style="fill: #ffffff"/>
   </g>
   <g id="matplotlib.axis_1">
    <g id="xtick_1">
     <g id="line2d_1">
      <defs>
       <path id="m4c92205e91" d="M 0 0 
L 0 3.5 
" style="stroke: #000000; stroke-width: 0.8"/>
      </defs>
      <g>
       <use xlink:href="#m4c92205e91" x="692.181818" y="1260" style="stroke: #000000; stroke-width: 0.8"/>
      </g>
     </g>
     <g id="text_1">
      <!-- 0 -->
      <g transform="translate(684.228693 1285.996094)scale(0.25 -0.25)">
       <defs>
        <path id="DejaVuSans-30" d="M 2034 4250 
Q 1547 4250 1301 3770 
Q 1056 3291 1056 2328 
Q 1056 1369 1301 889 
Q 1547 409 2034 409 
Q 2525 409 2770 889 
Q 3016 1369 3016 2328 
Q 3016 3291 2770 3770 
Q 2525 4250 2034 4250 
z
M 2034 4750 
Q 2819 4750 3233 4129 
Q 3647 3509 3647 2328 
Q 3647 1150 3233 529 
Q 2819 -91 2034 -91 
Q 1250 -91 836 529 
Q 422 1150 422 2328 
Q 422 3509 836 4129 
Q 1250 4750 2034 4750 
z
" transform="scale(0.015625)"/>
       </defs>
       <use xlink:href="#DejaVuSans-30"/>
      </g>
     </g>
    </g>
    <g id="xtick_2">
     <g id="line2d_2">
      <g>
       <use xlink:href="#m4c92205e91" x="1118.859813" y="1260" style="stroke: #000000; stroke-width: 0.8"/>
      </g>
     </g>
     <g id="text_2">
      <!-- 150 -->
      <g transform="translate(1095.000438 1285.996094)scale(0.25 -0.25)">
       <defs>
        <path id="DejaVuSans-31" d="M 794 531 
L 1825 531 
L 1825 4091 
L 703 3866 
L 703 4441 
L 1819 4666 
L 2450 4666 
L 2450 531 
L 3481 531 
L 3481 0 
L 794 0 
L 794 531 
z
" transform="scale(0.015625)"/>
        <path id="DejaVuSans-35" d="M 691 4666 
L 3169 4666 
L 3169 4134 
L 1269 4134 
L 1269 2991 
Q 1406 3038 1543 3061 
Q 1681 3084 1819 3084 
Q 2600 3084 3056 2656 
Q 3513 2228 3513 1497 
Q 3513 744 3044 326 
Q 2575 -91 1722 -91 
Q 1428 -91 1123 -41 
Q 819 9 494 109 
L 494 744 
Q 775 591 1075 516 
Q 1375 441 1709 441 
Q 2250 441 2565 725 
Q 2881 1009 2881 1497 
Q 2881 1984 2565 2268 
Q 2250 2553 1709 2553 
Q 1456 2553 1204 2497 
Q 953 2441 691 2322 
L 691 4666 
z
" transform="scale(0.015625)"/>
       </defs>
       <use xlink:href="#DejaVuSans-31"/>
       <use xlink:href="#DejaVuSans-35" x="63.623047"/>
       <use xlink:href="#DejaVuSans-30" x="127.246094"/>
      </g>
     </g>
    </g>
    <g id="xtick_3">
     <g id="line2d_3">
      <g>
       <use xlink:href="#m4c92205e91" x="1545.537808" y="1260" style="stroke: #000000; stroke-width: 0.8"/>
      </g>
     </g>
     <g id="text_3">
      <!-- 300 -->
      <g transform="translate(1521.678433 1285.996094)scale(0.25 -0.25)">
       <defs>
        <path id="DejaVuSans-33" d="M 2597 2516 
Q 3050 2419 3304 2112 
Q 3559 1806 3559 1356 
Q 3559 666 3084 287 
Q 2609 -91 1734 -91 
Q 1441 -91 1130 -33 
Q 819 25 488 141 
L 488 750 
Q 750 597 1062 519 
Q 1375 441 1716 441 
Q 2309 441 2620 675 
Q 2931 909 2931 1356 
Q 2931 1769 2642 2001 
Q 2353 2234 1838 2234 
L 1294 2234 
L 1294 2753 
L 1863 2753 
Q 2328 2753 2575 2939 
Q 2822 3125 2822 3475 
Q 2822 3834 2567 4026 
Q 2313 4219 1838 4219 
Q 1578 4219 1281 4162 
Q 984 4106 628 3988 
L 628 4550 
Q 988 4650 1302 4700 
Q 1616 4750 1894 4750 
Q 2613 4750 3031 4423 
Q 3450 4097 3450 3541 
Q 3450 3153 3228 2886 
Q 3006 2619 2597 2516 
z
" transform="scale(0.015625)"/>
       </defs>
       <use xlink:href="#DejaVuSans-33"/>
       <use xlink:href="#DejaVuSans-30" x="63.623047"/>
       <use xlink:href="#DejaVuSans-30" x="127.246094"/>
      </g>
     </g>
    </g>
    <g id="xtick_4">
     <g id="line2d_4">
      <g>
       <use xlink:href="#m4c92205e91" x="1972.215803" y="1260" style="stroke: #000000; stroke-width: 0.8"/>
      </g>
     </g>
     <g id="text_4">
      <!-- 450 -->
      <g transform="translate(1948.356428 1285.996094)scale(0.25 -0.25)">
       <defs>
        <path id="DejaVuSans-34" d="M 2419 4116 
L 825 1625 
L 2419 1625 
L 2419 4116 
z
M 2253 4666 
L 3047 4666 
L 3047 1625 
L 3713 1625 
L 3713 1100 
L 3047 1100 
L 3047 0 
L 2419 0 
L 2419 1100 
L 313 1100 
L 313 1709 
L 2253 4666 
z
" transform="scale(0.015625)"/>
       </defs>
       <use xlink:href="#DejaVuSans-34"/>
       <use xlink:href="#DejaVuSans-35" x="63.623047"/>
       <use xlink:href="#DejaVuSans-30" x="127.246094"/>
      </g>
     </g>
    </g>
    <g id="xtick_5">
     <g id="line2d_5">
      <g>
       <use xlink:href="#m4c92205e91" x="2398.893798" y="1260" style="stroke: #000000; stroke-width: 0.8"/>
      </g>
     </g>
     <g id="text_5">
      <!-- 600 -->
      <g transform="translate(2375.034423 1285.996094)scale(0.25 -0.25)">
       <defs>
        <path id="DejaVuSans-36" d="M 2113 2584 
Q 1688 2584 1439 2293 
Q 1191 2003 1191 1497 
Q 1191 994 1439 701 
Q 1688 409 2113 409 
Q 2538 409 2786 701 
Q 3034 994 3034 1497 
Q 3034 2003 2786 2293 
Q 2538 2584 2113 2584 
z
M 3366 4563 
L 3366 3988 
Q 3128 4100 2886 4159 
Q 2644 4219 2406 4219 
Q 1781 4219 1451 3797 
Q 1122 3375 1075 2522 
Q 1259 2794 1537 2939 
Q 1816 3084 2150 3084 
Q 2853 3084 3261 2657 
Q 3669 2231 3669 1497 
Q 3669 778 3244 343 
Q 2819 -91 2113 -91 
Q 1303 -91 875 529 
Q 447 1150 447 2328 
Q 447 3434 972 4092 
Q 1497 4750 2381 4750 
Q 2619 4750 2861 4703 
Q 3103 4656 3366 4563 
z
" transform="scale(0.015625)"/>
       </defs>
       <use xlink:href="#DejaVuSans-36"/>
       <use xlink:href="#DejaVuSans-30" x="63.623047"/>
       <use xlink:href="#DejaVuSans-30" x="127.246094"/>
      </g>
     </g>
    </g>
    <g id="xtick_6">
     <g id="line2d_6">
      <g>
       <use xlink:href="#m4c92205e91" x="2825.571793" y="1260" style="stroke: #000000; stroke-width: 0.8"/>
      </g>
     </g>
     <g id="text_6">
      <!-- 750 -->
      <g transform="translate(2801.712418 1285.996094)scale(0.25 -0.25)">
       <defs>
        <path id="DejaVuSans-37" d="M 525 4666 
L 3525 4666 
L 3525 4397 
L 1831 0 
L 1172 0 
L 2766 4134 
L 525 4134 
L 525 4666 
z
" transform="scale(0.015625)"/>
       </defs>
       <use xlink:href="#DejaVuSans-37"/>
       <use xlink:href="#DejaVuSans-35" x="63.623047"/>
       <use xlink:href="#DejaVuSans-30" x="127.246094"/>
      </g>
     </g>
    </g>
    <g id="xtick_7">
     <g id="line2d_7">
      <g>
       <use xlink:href="#m4c92205e91" x="3252.249788" y="1260" style="stroke: #000000; stroke-width: 0.8"/>
      </g>
     </g>
     <g id="text_7">
      <!-- 900 -->
      <g transform="translate(3228.390413 1285.996094)scale(0.25 -0.25)">
       <defs>
        <path id="DejaVuSans-39" d="M 703 97 
L 703 672 
Q 941 559 1184 500 
Q 1428 441 1663 441 
Q 2288 441 2617 861 
Q 2947 1281 2994 2138 
Q 2813 1869 2534 1725 
Q 2256 1581 1919 1581 
Q 1219 1581 811 2004 
Q 403 2428 403 3163 
Q 403 3881 828 4315 
Q 1253 4750 1959 4750 
Q 2769 4750 3195 4129 
Q 3622 3509 3622 2328 
Q 3622 1225 3098 567 
Q 2575 -91 1691 -91 
Q 1453 -91 1209 -44 
Q 966 3 703 97 
z
M 1959 2075 
Q 2384 2075 2632 2365 
Q 2881 2656 2881 3163 
Q 2881 3666 2632 3958 
Q 2384 4250 1959 4250 
Q 1534 4250 1286 3958 
Q 1038 3666 1038 3163 
Q 1038 2656 1286 2365 
Q 1534 2075 1959 2075 
z
" transform="scale(0.015625)"/>
       </defs>
       <use xlink:href="#DejaVuSans-39"/>
       <use xlink:href="#DejaVuSans-30" x="63.623047"/>
       <use xlink:href="#DejaVuSans-30" x="127.246094"/>
      </g>
     </g>
    </g>
    <g id="xtick_8">
     <g id="line2d_8">
      <g>
       <use xlink:href="#m4c92205e91" x="3678.927782" y="1260" style="stroke: #000000; stroke-width: 0.8"/>
      </g>
     </g>
     <g id="text_8">
      <!-- 1050 -->
      <g transform="translate(3647.115282 1285.996094)scale(0.25 -0.25)">
       <use xlink:href="#DejaVuSans-31"/>
       <use xlink:href="#DejaVuSans-30" x="63.623047"/>
       <use xlink:href="#DejaVuSans-35" x="127.246094"/>
       <use xlink:href="#DejaVuSans-30" x="190.869141"/>
      </g>
     </g>
    </g>
    <g id="text_9">
     <!-- Point Index -->
     <g transform="translate(2116.817578 1321.789844)scale(0.35 -0.35)">
      <defs>
       <path id="DejaVuSans-50" d="M 1259 4147 
L 1259 2394 
L 2053 2394 
Q 2494 2394 2734 2622 
Q 2975 2850 2975 3272 
Q 2975 3691 2734 3919 
Q 2494 4147 2053 4147 
L 1259 4147 
z
M 628 4666 
L 2053 4666 
Q 2838 4666 3239 4311 
Q 3641 3956 3641 3272 
Q 3641 2581 3239 2228 
Q 2838 1875 2053 1875 
L 1259 1875 
L 1259 0 
L 628 0 
L 628 4666 
z
" transform="scale(0.015625)"/>
       <path id="DejaVuSans-6f" d="M 1959 3097 
Q 1497 3097 1228 2736 
Q 959 2375 959 1747 
Q 959 1119 1226 758 
Q 1494 397 1959 397 
Q 2419 397 2687 759 
Q 2956 1122 2956 1747 
Q 2956 2369 2687 2733 
Q 2419 3097 1959 3097 
z
M 1959 3584 
Q 2709 3584 3137 3096 
Q 3566 2609 3566 1747 
Q 3566 888 3137 398 
Q 2709 -91 1959 -91 
Q 1206 -91 779 398 
Q 353 888 353 1747 
Q 353 2609 779 3096 
Q 1206 3584 1959 3584 
z
" transform="scale(0.015625)"/>
       <path id="DejaVuSans-69" d="M 603 3500 
L 1178 3500 
L 1178 0 
L 603 0 
L 603 3500 
z
M 603 4863 
L 1178 4863 
L 1178 4134 
L 603 4134 
L 603 4863 
z
" transform="scale(0.015625)"/>
       <path id="DejaVuSans-6e" d="M 3513 2113 
L 3513 0 
L 2938 0 
L 2938 2094 
Q 2938 2591 2744 2837 
Q 2550 3084 2163 3084 
Q 1697 3084 1428 2787 
Q 1159 2491 1159 1978 
L 1159 0 
L 581 0 
L 581 3500 
L 1159 3500 
L 1159 2956 
Q 1366 3272 1645 3428 
Q 1925 3584 2291 3584 
Q 2894 3584 3203 3211 
Q 3513 2838 3513 2113 
z
" transform="scale(0.015625)"/>
       <path id="DejaVuSans-74" d="M 1172 4494 
L 1172 3500 
L 2356 3500 
L 2356 3053 
L 1172 3053 
L 1172 1153 
Q 1172 725 1289 603 
Q 1406 481 1766 481 
L 2356 481 
L 2356 0 
L 1766 0 
Q 1100 0 847 248 
Q 594 497 594 1153 
L 594 3053 
L 172 3053 
L 172 3500 
L 594 3500 
L 594 4494 
L 1172 4494 
z
" transform="scale(0.015625)"/>
       <path id="DejaVuSans-20" transform="scale(0.015625)"/>
       <path id="DejaVuSans-49" d="M 628 4666 
L 1259 4666 
L 1259 0 
L 628 0 
L 628 4666 
z
" transform="scale(0.015625)"/>
       <path id="DejaVuSans-64" d="M 2906 2969 
L 2906 4863 
L 3481 4863 
L 3481 0 
L 2906 0 
L 2906 525 
Q 2725 213 2448 61 
Q 2172 -91 1784 -91 
Q 1150 -91 751 415 
Q 353 922 353 1747 
Q 353 2572 751 3078 
Q 1150 3584 1784 3584 
Q 2172 3584 2448 3432 
Q 2725 3281 2906 2969 
z
M 947 1747 
Q 947 1113 1208 752 
Q 1469 391 1925 391 
Q 2381 391 2643 752 
Q 2906 1113 2906 1747 
Q 2906 2381 2643 2742 
Q 2381 3103 1925 3103 
Q 1469 3103 1208 2742 
Q 947 2381 947 1747 
z
" transform="scale(0.015625)"/>
       <path id="DejaVuSans-65" d="M 3597 1894 
L 3597 1613 
L 953 1613 
Q 991 1019 1311 708 
Q 1631 397 2203 397 
Q 2534 397 2845 478 
Q 3156 559 3463 722 
L 3463 178 
Q 3153 47 2828 -22 
Q 2503 -91 2169 -91 
Q 1331 -91 842 396 
Q 353 884 353 1716 
Q 353 2575 817 3079 
Q 1281 3584 2069 3584 
Q 2775 3584 3186 3129 
Q 3597 2675 3597 1894 
z
M 3022 2063 
Q 3016 2534 2758 2815 
Q 2500 3097 2075 3097 
Q 1594 3097 1305 2825 
Q 1016 2553 972 2059 
L 3022 2063 
z
" transform="scale(0.015625)"/>
       <path id="DejaVuSans-78" d="M 3513 3500 
L 2247 1797 
L 3578 0 
L 2900 0 
L 1881 1375 
L 863 0 
L 184 0 
L 1544 1831 
L 300 3500 
L 978 3500 
L 1906 2253 
L 2834 3500 
L 3513 3500 
z
" transform="scale(0.015625)"/>
      </defs>
      <use xlink:href="#DejaVuSans-50"/>
      <use xlink:href="#DejaVuSans-6f" x="56.677734"/>
      <use xlink:href="#DejaVuSans-69" x="117.859375"/>
      <use xlink:href="#DejaVuSans-6e" x="145.642578"/>
      <use xlink:href="#DejaVuSans-74" x="209.021484"/>
      <use xlink:href="#DejaVuSans-20" x="248.230469"/>
      <use xlink:href="#DejaVuSans-49" x="280.017578"/>
      <use xlink:href="#DejaVuSans-6e" x="309.509766"/>
      <use xlink:href="#DejaVuSans-64" x="372.888672"/>
      <use xlink:href="#DejaVuSans-65" x="436.365234"/>
      <use xlink:href="#DejaVuSans-78" x="496.138672"/>
     </g>
    </g>
   </g>
   <g id="matplotlib.axis_2">
    <g id="ytick_1">
     <g id="line2d_9">
      <defs>
       <path id="mac96487aff" d="M 0 0 
L -3.5 0 
" style="stroke: #000000; stroke-width: 0.8"/>
      </defs>
      <g>
       <use xlink:href="#mac96487aff" x="540" y="1210.581818" style="stroke: #000000; stroke-width: 0.8"/>
      </g>
     </g>
     <g id="text_10">
      <!-- 0 -->
      <g transform="translate(517.09375 1220.079865)scale(0.25 -0.25)">
       <use xlink:href="#DejaVuSans-30"/>
      </g>
     </g>
    </g>
    <g id="ytick_2">
     <g id="line2d_10">
      <g>
       <use xlink:href="#mac96487aff" x="540" y="1068.875154" style="stroke: #000000; stroke-width: 0.8"/>
      </g>
     </g>
     <g id="text_11">
      <!-- 100 -->
      <g transform="translate(485.28125 1078.373201)scale(0.25 -0.25)">
       <use xlink:href="#DejaVuSans-31"/>
       <use xlink:href="#DejaVuSans-30" x="63.623047"/>
       <use xlink:href="#DejaVuSans-30" x="127.246094"/>
      </g>
     </g>
    </g>
    <g id="ytick_3">
     <g id="line2d_11">
      <g>
       <use xlink:href="#mac96487aff" x="540" y="927.16849" style="stroke: #000000; stroke-width: 0.8"/>
      </g>
     </g>
     <g id="text_12">
      <!-- 200 -->
      <g transform="translate(485.28125 936.666537)scale(0.25 -0.25)">
       <defs>
        <path id="DejaVuSans-32" d="M 1228 531 
L 3431 531 
L 3431 0 
L 469 0 
L 469 531 
Q 828 903 1448 1529 
Q 2069 2156 2228 2338 
Q 2531 2678 2651 2914 
Q 2772 3150 2772 3378 
Q 2772 3750 2511 3984 
Q 2250 4219 1831 4219 
Q 1534 4219 1204 4116 
Q 875 4013 500 3803 
L 500 4441 
Q 881 4594 1212 4672 
Q 1544 4750 1819 4750 
Q 2544 4750 2975 4387 
Q 3406 4025 3406 3419 
Q 3406 3131 3298 2873 
Q 3191 2616 2906 2266 
Q 2828 2175 2409 1742 
Q 1991 1309 1228 531 
z
" transform="scale(0.015625)"/>
       </defs>
       <use xlink:href="#DejaVuSans-32"/>
       <use xlink:href="#DejaVuSans-30" x="63.623047"/>
       <use xlink:href="#DejaVuSans-30" x="127.246094"/>
      </g>
     </g>
    </g>
    <g id="ytick_4">
     <g id="line2d_12">
      <g>
       <use xlink:href="#mac96487aff" x="540" y="785.461826" style="stroke: #000000; stroke-width: 0.8"/>
      </g>
     </g>
     <g id="text_13">
      <!-- 300 -->
      <g transform="translate(485.28125 794.959873)scale(0.25 -0.25)">
       <use xlink:href="#DejaVuSans-33"/>
       <use xlink:href="#DejaVuSans-30" x="63.623047"/>
       <use xlink:href="#DejaVuSans-30" x="127.246094"/>
      </g>
     </g>
    </g>
    <g id="ytick_5">
     <g id="line2d_13">
      <g>
       <use xlink:href="#mac96487aff" x="540" y="643.755162" style="stroke: #000000; stroke-width: 0.8"/>
      </g>
     </g>
     <g id="text_14">
      <!-- 400 -->
      <g transform="translate(485.28125 653.253209)scale(0.25 -0.25)">
       <use xlink:href="#DejaVuSans-34"/>
       <use xlink:href="#DejaVuSans-30" x="63.623047"/>
       <use xlink:href="#DejaVuSans-30" x="127.246094"/>
      </g>
     </g>
    </g>
    <g id="ytick_6">
     <g id="line2d_14">
      <g>
       <use xlink:href="#mac96487aff" x="540" y="502.048498" style="stroke: #000000; stroke-width: 0.8"/>
      </g>
     </g>
     <g id="text_15">
      <!-- 500 -->
      <g transform="translate(485.28125 511.546545)scale(0.25 -0.25)">
       <use xlink:href="#DejaVuSans-35"/>
       <use xlink:href="#DejaVuSans-30" x="63.623047"/>
       <use xlink:href="#DejaVuSans-30" x="127.246094"/>
      </g>
     </g>
    </g>
    <g id="ytick_7">
     <g id="line2d_15">
      <g>
       <use xlink:href="#mac96487aff" x="540" y="360.341834" style="stroke: #000000; stroke-width: 0.8"/>
      </g>
     </g>
     <g id="text_16">
      <!-- 600 -->
      <g transform="translate(485.28125 369.839881)scale(0.25 -0.25)">
       <use xlink:href="#DejaVuSans-36"/>
       <use xlink:href="#DejaVuSans-30" x="63.623047"/>
       <use xlink:href="#DejaVuSans-30" x="127.246094"/>
      </g>
     </g>
    </g>
    <g id="ytick_8">
     <g id="line2d_16">
      <g>
       <use xlink:href="#mac96487aff" x="540" y="218.63517" style="stroke: #000000; stroke-width: 0.8"/>
      </g>
     </g>
     <g id="text_17">
      <!-- 700 -->
      <g transform="translate(485.28125 228.133217)scale(0.25 -0.25)">
       <use xlink:href="#DejaVuSans-37"/>
       <use xlink:href="#DejaVuSans-30" x="63.623047"/>
       <use xlink:href="#DejaVuSans-30" x="127.246094"/>
      </g>
     </g>
    </g>
    <g id="text_18">
     <!-- Arc-Length -->
     <g transform="translate(474.002344 811.471484)rotate(-90)scale(0.35 -0.35)">
      <defs>
       <path id="DejaVuSans-41" d="M 2188 4044 
L 1331 1722 
L 3047 1722 
L 2188 4044 
z
M 1831 4666 
L 2547 4666 
L 4325 0 
L 3669 0 
L 3244 1197 
L 1141 1197 
L 716 0 
L 50 0 
L 1831 4666 
z
" transform="scale(0.015625)"/>
       <path id="DejaVuSans-72" d="M 2631 2963 
Q 2534 3019 2420 3045 
Q 2306 3072 2169 3072 
Q 1681 3072 1420 2755 
Q 1159 2438 1159 1844 
L 1159 0 
L 581 0 
L 581 3500 
L 1159 3500 
L 1159 2956 
Q 1341 3275 1631 3429 
Q 1922 3584 2338 3584 
Q 2397 3584 2469 3576 
Q 2541 3569 2628 3553 
L 2631 2963 
z
" transform="scale(0.015625)"/>
       <path id="DejaVuSans-63" d="M 3122 3366 
L 3122 2828 
Q 2878 2963 2633 3030 
Q 2388 3097 2138 3097 
Q 1578 3097 1268 2742 
Q 959 2388 959 1747 
Q 959 1106 1268 751 
Q 1578 397 2138 397 
Q 2388 397 2633 464 
Q 2878 531 3122 666 
L 3122 134 
Q 2881 22 2623 -34 
Q 2366 -91 2075 -91 
Q 1284 -91 818 406 
Q 353 903 353 1747 
Q 353 2603 823 3093 
Q 1294 3584 2113 3584 
Q 2378 3584 2631 3529 
Q 2884 3475 3122 3366 
z
" transform="scale(0.015625)"/>
       <path id="DejaVuSans-2d" d="M 313 2009 
L 1997 2009 
L 1997 1497 
L 313 1497 
L 313 2009 
z
" transform="scale(0.015625)"/>
       <path id="DejaVuSans-4c" d="M 628 4666 
L 1259 4666 
L 1259 531 
L 3531 531 
L 3531 0 
L 628 0 
L 628 4666 
z
" transform="scale(0.015625)"/>
       <path id="DejaVuSans-67" d="M 2906 1791 
Q 2906 2416 2648 2759 
Q 2391 3103 1925 3103 
Q 1463 3103 1205 2759 
Q 947 2416 947 1791 
Q 947 1169 1205 825 
Q 1463 481 1925 481 
Q 2391 481 2648 825 
Q 2906 1169 2906 1791 
z
M 3481 434 
Q 3481 -459 3084 -895 
Q 2688 -1331 1869 -1331 
Q 1566 -1331 1297 -1286 
Q 1028 -1241 775 -1147 
L 775 -588 
Q 1028 -725 1275 -790 
Q 1522 -856 1778 -856 
Q 2344 -856 2625 -561 
Q 2906 -266 2906 331 
L 2906 616 
Q 2728 306 2450 153 
Q 2172 0 1784 0 
Q 1141 0 747 490 
Q 353 981 353 1791 
Q 353 2603 747 3093 
Q 1141 3584 1784 3584 
Q 2172 3584 2450 3431 
Q 2728 3278 2906 2969 
L 2906 3500 
L 3481 3500 
L 3481 434 
z
" transform="scale(0.015625)"/>
       <path id="DejaVuSans-68" d="M 3513 2113 
L 3513 0 
L 2938 0 
L 2938 2094 
Q 2938 2591 2744 2837 
Q 2550 3084 2163 3084 
Q 1697 3084 1428 2787 
Q 1159 2491 1159 1978 
L 1159 0 
L 581 0 
L 581 4863 
L 1159 4863 
L 1159 2956 
Q 1366 3272 1645 3428 
Q 1925 3584 2291 3584 
Q 2894 3584 3203 3211 
Q 3513 2838 3513 2113 
z
" transform="scale(0.015625)"/>
      </defs>
      <use xlink:href="#DejaVuSans-41"/>
      <use xlink:href="#DejaVuSans-72" x="68.408203"/>
      <use xlink:href="#DejaVuSans-63" x="107.271484"/>
      <use xlink:href="#DejaVuSans-2d" x="162.251953"/>
      <use xlink:href="#DejaVuSans-4c" x="198.335938"/>
      <use xlink:href="#DejaVuSans-65" x="252.298828"/>
      <use xlink:href="#DejaVuSans-6e" x="313.822266"/>
      <use xlink:href="#DejaVuSans-67" x="377.201172"/>
      <use xlink:href="#DejaVuSans-74" x="440.677734"/>
      <use xlink:href="#DejaVuSans-68" x="479.886719"/>
     </g>
    </g>
   </g>
   <g id="patch_3">
    <path d="M 540 1260 
L 540 172.8 
" style="fill: none; stroke: #000000; stroke-width: 0.8; stroke-linejoin: miter; stroke-linecap: square"/>
   </g>
   <g id="patch_4">
    <path d="M 3888 1260 
L 3888 172.8 
" style="fill: none; stroke: #000000; stroke-width: 0.8; stroke-linejoin: miter; stroke-linecap: square"/>
   </g>
   <g id="patch_5">
    <path d="M 540 1260 
L 3888 1260 
" style="fill: none; stroke: #000000; stroke-width: 0.8; stroke-linejoin: miter; stroke-linecap: square"/>
   </g>
   <g id="patch_6">
    <path d="M 540 172.8 
L 3888 172.8 
" style="fill: none; stroke: #000000; stroke-width: 0.8; stroke-linejoin: miter; stroke-linecap: square"/>
   </g>
   <g id="text_19">
    <!-- Predicted Arc-Length vs. Ground Truth Arc-Length (at Anchors) -->
    <g transform="translate(1667.007422 165.521094)scale(0.35 -0.35)">
     <defs>
      <path id="DejaVuSans-76" d="M 191 3500 
L 800 3500 
L 1894 563 
L 2988 3500 
L 3597 3500 
L 2284 0 
L 1503 0 
L 191 3500 
z
" transform="scale(0.015625)"/>
      <path id="DejaVuSans-73" d="M 2834 3397 
L 2834 2853 
Q 2591 2978 2328 3040 
Q 2066 3103 1784 3103 
Q 1356 3103 1142 2972 
Q 928 2841 928 2578 
Q 928 2378 1081 2264 
Q 1234 2150 1697 2047 
L 1894 2003 
Q 2506 1872 2764 1633 
Q 3022 1394 3022 966 
Q 3022 478 2636 193 
Q 2250 -91 1575 -91 
Q 1294 -91 989 -36 
Q 684 19 347 128 
L 347 722 
Q 666 556 975 473 
Q 1284 391 1588 391 
Q 1994 391 2212 530 
Q 2431 669 2431 922 
Q 2431 1156 2273 1281 
Q 2116 1406 1581 1522 
L 1381 1569 
Q 847 1681 609 1914 
Q 372 2147 372 2553 
Q 372 3047 722 3315 
Q 1072 3584 1716 3584 
Q 2034 3584 2315 3537 
Q 2597 3491 2834 3397 
z
" transform="scale(0.015625)"/>
      <path id="DejaVuSans-2e" d="M 684 794 
L 1344 794 
L 1344 0 
L 684 0 
L 684 794 
z
" transform="scale(0.015625)"/>
      <path id="DejaVuSans-47" d="M 3809 666 
L 3809 1919 
L 2778 1919 
L 2778 2438 
L 4434 2438 
L 4434 434 
Q 4069 175 3628 42 
Q 3188 -91 2688 -91 
Q 1594 -91 976 548 
Q 359 1188 359 2328 
Q 359 3472 976 4111 
Q 1594 4750 2688 4750 
Q 3144 4750 3555 4637 
Q 3966 4525 4313 4306 
L 4313 3634 
Q 3963 3931 3569 4081 
Q 3175 4231 2741 4231 
Q 1884 4231 1454 3753 
Q 1025 3275 1025 2328 
Q 1025 1384 1454 906 
Q 1884 428 2741 428 
Q 3075 428 3337 486 
Q 3600 544 3809 666 
z
" transform="scale(0.015625)"/>
      <path id="DejaVuSans-75" d="M 544 1381 
L 544 3500 
L 1119 3500 
L 1119 1403 
Q 1119 906 1312 657 
Q 1506 409 1894 409 
Q 2359 409 2629 706 
Q 2900 1003 2900 1516 
L 2900 3500 
L 3475 3500 
L 3475 0 
L 2900 0 
L 2900 538 
Q 2691 219 2414 64 
Q 2138 -91 1772 -91 
Q 1169 -91 856 284 
Q 544 659 544 1381 
z
M 1991 3584 
L 1991 3584 
z
" transform="scale(0.015625)"/>
      <path id="DejaVuSans-54" d="M -19 4666 
L 3928 4666 
L 3928 4134 
L 2272 4134 
L 2272 0 
L 1638 0 
L 1638 4134 
L -19 4134 
L -19 4666 
z
" transform="scale(0.015625)"/>
      <path id="DejaVuSans-28" d="M 1984 4856 
Q 1566 4138 1362 3434 
Q 1159 2731 1159 2009 
Q 1159 1288 1364 580 
Q 1569 -128 1984 -844 
L 1484 -844 
Q 1016 -109 783 600 
Q 550 1309 550 2009 
Q 550 2706 781 3412 
Q 1013 4119 1484 4856 
L 1984 4856 
z
" transform="scale(0.015625)"/>
      <path id="DejaVuSans-61" d="M 2194 1759 
Q 1497 1759 1228 1600 
Q 959 1441 959 1056 
Q 959 750 1161 570 
Q 1363 391 1709 391 
Q 2188 391 2477 730 
Q 2766 1069 2766 1631 
L 2766 1759 
L 2194 1759 
z
M 3341 1997 
L 3341 0 
L 2766 0 
L 2766 531 
Q 2569 213 2275 61 
Q 1981 -91 1556 -91 
Q 1019 -91 701 211 
Q 384 513 384 1019 
Q 384 1609 779 1909 
Q 1175 2209 1959 2209 
L 2766 2209 
L 2766 2266 
Q 2766 2663 2505 2880 
Q 2244 3097 1772 3097 
Q 1472 3097 1187 3025 
Q 903 2953 641 2809 
L 641 3341 
Q 956 3463 1253 3523 
Q 1550 3584 1831 3584 
Q 2591 3584 2966 3190 
Q 3341 2797 3341 1997 
z
" transform="scale(0.015625)"/>
      <path id="DejaVuSans-29" d="M 513 4856 
L 1013 4856 
Q 1481 4119 1714 3412 
Q 1947 2706 1947 2009 
Q 1947 1309 1714 600 
Q 1481 -109 1013 -844 
L 513 -844 
Q 928 -128 1133 580 
Q 1338 1288 1338 2009 
Q 1338 2731 1133 3434 
Q 928 4138 513 4856 
z
" transform="scale(0.015625)"/>
     </defs>
     <use xlink:href="#DejaVuSans-50"/>
     <use xlink:href="#DejaVuSans-72" x="58.552734"/>
     <use xlink:href="#DejaVuSans-65" x="97.416016"/>
     <use xlink:href="#DejaVuSans-64" x="158.939453"/>
     <use xlink:href="#DejaVuSans-69" x="222.416016"/>
     <use xlink:href="#DejaVuSans-63" x="250.199219"/>
     <use xlink:href="#DejaVuSans-74" x="305.179688"/>
     <use xlink:href="#DejaVuSans-65" x="344.388672"/>
     <use xlink:href="#DejaVuSans-64" x="405.912109"/>
     <use xlink:href="#DejaVuSans-20" x="469.388672"/>
     <use xlink:href="#DejaVuSans-41" x="501.175781"/>
     <use xlink:href="#DejaVuSans-72" x="569.583984"/>
     <use xlink:href="#DejaVuSans-63" x="608.447266"/>
     <use xlink:href="#DejaVuSans-2d" x="663.427734"/>
     <use xlink:href="#DejaVuSans-4c" x="699.511719"/>
     <use xlink:href="#DejaVuSans-65" x="753.474609"/>
     <use xlink:href="#DejaVuSans-6e" x="814.998047"/>
     <use xlink:href="#DejaVuSans-67" x="878.376953"/>
     <use xlink:href="#DejaVuSans-74" x="941.853516"/>
     <use xlink:href="#DejaVuSans-68" x="981.0625"/>
     <use xlink:href="#DejaVuSans-20" x="1044.441406"/>
     <use xlink:href="#DejaVuSans-76" x="1076.228516"/>
     <use xlink:href="#DejaVuSans-73" x="1135.408203"/>
     <use xlink:href="#DejaVuSans-2e" x="1187.507812"/>
     <use xlink:href="#DejaVuSans-20" x="1219.294922"/>
     <use xlink:href="#DejaVuSans-47" x="1251.082031"/>
     <use xlink:href="#DejaVuSans-72" x="1328.572266"/>
     <use xlink:href="#DejaVuSans-6f" x="1367.435547"/>
     <use xlink:href="#DejaVuSans-75" x="1428.617188"/>
     <use xlink:href="#DejaVuSans-6e" x="1491.996094"/>
     <use xlink:href="#DejaVuSans-64" x="1555.375"/>
     <use xlink:href="#DejaVuSans-20" x="1618.851562"/>
     <use xlink:href="#DejaVuSans-54" x="1650.638672"/>
     <use xlink:href="#DejaVuSans-72" x="1696.972656"/>
     <use xlink:href="#DejaVuSans-75" x="1738.085938"/>
     <use xlink:href="#DejaVuSans-74" x="1801.464844"/>
     <use xlink:href="#DejaVuSans-68" x="1840.673828"/>
     <use xlink:href="#DejaVuSans-20" x="1904.052734"/>
     <use xlink:href="#DejaVuSans-41" x="1935.839844"/>
     <use xlink:href="#DejaVuSans-72" x="2004.248047"/>
     <use xlink:href="#DejaVuSans-63" x="2043.111328"/>
     <use xlink:href="#DejaVuSans-2d" x="2098.091797"/>
     <use xlink:href="#DejaVuSans-4c" x="2134.175781"/>
     <use xlink:href="#DejaVuSans-65" x="2188.138672"/>
     <use xlink:href="#DejaVuSans-6e" x="2249.662109"/>
     <use xlink:href="#DejaVuSans-67" x="2313.041016"/>
     <use xlink:href="#DejaVuSans-74" x="2376.517578"/>
     <use xlink:href="#DejaVuSans-68" x="2415.726562"/>
     <use xlink:href="#DejaVuSans-20" x="2479.105469"/>
     <use xlink:href="#DejaVuSans-28" x="2510.892578"/>
     <use xlink:href="#DejaVuSans-61" x="2549.90625"/>
     <use xlink:href="#DejaVuSans-74" x="2611.185547"/>
     <use xlink:href="#DejaVuSans-20" x="2650.394531"/>
     <use xlink:href="#DejaVuSans-41" x="2682.181641"/>
     <use xlink:href="#DejaVuSans-6e" x="2750.589844"/>
     <use xlink:href="#DejaVuSans-63" x="2813.96875"/>
     <use xlink:href="#DejaVuSans-68" x="2868.949219"/>
     <use xlink:href="#DejaVuSans-6f" x="2932.328125"/>
     <use xlink:href="#DejaVuSans-72" x="2993.509766"/>
     <use xlink:href="#DejaVuSans-73" x="3034.623047"/>
     <use xlink:href="#DejaVuSans-29" x="3086.722656"/>
    </g>
   </g>
   <g id="legend_1">
    <g id="patch_7">
     <path d="M 557.5 339.58125 
L 1208.160156 339.58125 
Q 1213.160156 339.58125 1213.160156 334.58125 
L 1213.160156 190.3 
Q 1213.160156 185.3 1208.160156 185.3 
L 557.5 185.3 
Q 552.5 185.3 552.5 190.3 
L 552.5 334.58125 
Q 552.5 339.58125 557.5 339.58125 
z
" style="fill: #ffffff; opacity: 0.8; stroke: #cccccc; stroke-linejoin: miter"/>
    </g>
    <g id="line2d_17">
     <path d="M 562.5 205.546094 
L 587.5 205.546094 
L 612.5 205.546094 
" style="fill: none; stroke: #ff8c00; stroke-width: 6; stroke-linecap: square"/>
    </g>
    <g id="text_20">
     <!-- True Arc-Length (Transformed Curve #1) -->
     <g transform="translate(632.5 214.296094)scale(0.25 -0.25)">
      <defs>
       <path id="DejaVuSans-66" d="M 2375 4863 
L 2375 4384 
L 1825 4384 
Q 1516 4384 1395 4259 
Q 1275 4134 1275 3809 
L 1275 3500 
L 2222 3500 
L 2222 3053 
L 1275 3053 
L 1275 0 
L 697 0 
L 697 3053 
L 147 3053 
L 147 3500 
L 697 3500 
L 697 3744 
Q 697 4328 969 4595 
Q 1241 4863 1831 4863 
L 2375 4863 
z
" transform="scale(0.015625)"/>
       <path id="DejaVuSans-6d" d="M 3328 2828 
Q 3544 3216 3844 3400 
Q 4144 3584 4550 3584 
Q 5097 3584 5394 3201 
Q 5691 2819 5691 2113 
L 5691 0 
L 5113 0 
L 5113 2094 
Q 5113 2597 4934 2840 
Q 4756 3084 4391 3084 
Q 3944 3084 3684 2787 
Q 3425 2491 3425 1978 
L 3425 0 
L 2847 0 
L 2847 2094 
Q 2847 2600 2669 2842 
Q 2491 3084 2119 3084 
Q 1678 3084 1418 2786 
Q 1159 2488 1159 1978 
L 1159 0 
L 581 0 
L 581 3500 
L 1159 3500 
L 1159 2956 
Q 1356 3278 1631 3431 
Q 1906 3584 2284 3584 
Q 2666 3584 2933 3390 
Q 3200 3197 3328 2828 
z
" transform="scale(0.015625)"/>
       <path id="DejaVuSans-43" d="M 4122 4306 
L 4122 3641 
Q 3803 3938 3442 4084 
Q 3081 4231 2675 4231 
Q 1875 4231 1450 3742 
Q 1025 3253 1025 2328 
Q 1025 1406 1450 917 
Q 1875 428 2675 428 
Q 3081 428 3442 575 
Q 3803 722 4122 1019 
L 4122 359 
Q 3791 134 3420 21 
Q 3050 -91 2638 -91 
Q 1578 -91 968 557 
Q 359 1206 359 2328 
Q 359 3453 968 4101 
Q 1578 4750 2638 4750 
Q 3056 4750 3426 4639 
Q 3797 4528 4122 4306 
z
" transform="scale(0.015625)"/>
       <path id="DejaVuSans-23" d="M 3272 2816 
L 2363 2816 
L 2100 1772 
L 3016 1772 
L 3272 2816 
z
M 2803 4594 
L 2478 3297 
L 3391 3297 
L 3719 4594 
L 4219 4594 
L 3897 3297 
L 4872 3297 
L 4872 2816 
L 3775 2816 
L 3519 1772 
L 4513 1772 
L 4513 1294 
L 3397 1294 
L 3072 0 
L 2572 0 
L 2894 1294 
L 1978 1294 
L 1656 0 
L 1153 0 
L 1478 1294 
L 494 1294 
L 494 1772 
L 1594 1772 
L 1856 2816 
L 850 2816 
L 850 3297 
L 1978 3297 
L 2297 4594 
L 2803 4594 
z
" transform="scale(0.015625)"/>
      </defs>
      <use xlink:href="#DejaVuSans-54"/>
      <use xlink:href="#DejaVuSans-72" x="46.333984"/>
      <use xlink:href="#DejaVuSans-75" x="87.447266"/>
      <use xlink:href="#DejaVuSans-65" x="150.826172"/>
      <use xlink:href="#DejaVuSans-20" x="212.349609"/>
      <use xlink:href="#DejaVuSans-41" x="244.136719"/>
      <use xlink:href="#DejaVuSans-72" x="312.544922"/>
      <use xlink:href="#DejaVuSans-63" x="351.408203"/>
      <use xlink:href="#DejaVuSans-2d" x="406.388672"/>
      <use xlink:href="#DejaVuSans-4c" x="442.472656"/>
      <use xlink:href="#DejaVuSans-65" x="496.435547"/>
      <use xlink:href="#DejaVuSans-6e" x="557.958984"/>
      <use xlink:href="#DejaVuSans-67" x="621.337891"/>
      <use xlink:href="#DejaVuSans-74" x="684.814453"/>
      <use xlink:href="#DejaVuSans-68" x="724.023438"/>
      <use xlink:href="#DejaVuSans-20" x="787.402344"/>
      <use xlink:href="#DejaVuSans-28" x="819.189453"/>
      <use xlink:href="#DejaVuSans-54" x="858.203125"/>
      <use xlink:href="#DejaVuSans-72" x="904.537109"/>
      <use xlink:href="#DejaVuSans-61" x="945.650391"/>
      <use xlink:href="#DejaVuSans-6e" x="1006.929688"/>
      <use xlink:href="#DejaVuSans-73" x="1070.308594"/>
      <use xlink:href="#DejaVuSans-66" x="1122.408203"/>
      <use xlink:href="#DejaVuSans-6f" x="1157.613281"/>
      <use xlink:href="#DejaVuSans-72" x="1218.794922"/>
      <use xlink:href="#DejaVuSans-6d" x="1258.158203"/>
      <use xlink:href="#DejaVuSans-65" x="1355.570312"/>
      <use xlink:href="#DejaVuSans-64" x="1417.09375"/>
      <use xlink:href="#DejaVuSans-20" x="1480.570312"/>
      <use xlink:href="#DejaVuSans-43" x="1512.357422"/>
      <use xlink:href="#DejaVuSans-75" x="1582.181641"/>
      <use xlink:href="#DejaVuSans-72" x="1645.560547"/>
      <use xlink:href="#DejaVuSans-76" x="1686.673828"/>
      <use xlink:href="#DejaVuSans-65" x="1745.853516"/>
      <use xlink:href="#DejaVuSans-20" x="1807.376953"/>
      <use xlink:href="#DejaVuSans-23" x="1839.164062"/>
      <use xlink:href="#DejaVuSans-31" x="1922.953125"/>
      <use xlink:href="#DejaVuSans-29" x="1986.576172"/>
     </g>
    </g>
    <g id="line2d_18">
     <path d="M 562.5 242.241406 
L 587.5 242.241406 
L 612.5 242.241406 
" style="fill: none; stroke: #aa0000; stroke-width: 6; stroke-linecap: square"/>
    </g>
    <g id="text_21">
     <!-- Predicted Arc-Length (Transformed Curve #1) -->
     <g transform="translate(632.5 250.991406)scale(0.25 -0.25)">
      <use xlink:href="#DejaVuSans-50"/>
      <use xlink:href="#DejaVuSans-72" x="58.552734"/>
      <use xlink:href="#DejaVuSans-65" x="97.416016"/>
      <use xlink:href="#DejaVuSans-64" x="158.939453"/>
      <use xlink:href="#DejaVuSans-69" x="222.416016"/>
      <use xlink:href="#DejaVuSans-63" x="250.199219"/>
      <use xlink:href="#DejaVuSans-74" x="305.179688"/>
      <use xlink:href="#DejaVuSans-65" x="344.388672"/>
      <use xlink:href="#DejaVuSans-64" x="405.912109"/>
      <use xlink:href="#DejaVuSans-20" x="469.388672"/>
      <use xlink:href="#DejaVuSans-41" x="501.175781"/>
      <use xlink:href="#DejaVuSans-72" x="569.583984"/>
      <use xlink:href="#DejaVuSans-63" x="608.447266"/>
      <use xlink:href="#DejaVuSans-2d" x="663.427734"/>
      <use xlink:href="#DejaVuSans-4c" x="699.511719"/>
      <use xlink:href="#DejaVuSans-65" x="753.474609"/>
      <use xlink:href="#DejaVuSans-6e" x="814.998047"/>
      <use xlink:href="#DejaVuSans-67" x="878.376953"/>
      <use xlink:href="#DejaVuSans-74" x="941.853516"/>
      <use xlink:href="#DejaVuSans-68" x="981.0625"/>
      <use xlink:href="#DejaVuSans-20" x="1044.441406"/>
      <use xlink:href="#DejaVuSans-28" x="1076.228516"/>
      <use xlink:href="#DejaVuSans-54" x="1115.242188"/>
      <use xlink:href="#DejaVuSans-72" x="1161.576172"/>
      <use xlink:href="#DejaVuSans-61" x="1202.689453"/>
      <use xlink:href="#DejaVuSans-6e" x="1263.96875"/>
      <use xlink:href="#DejaVuSans-73" x="1327.347656"/>
      <use xlink:href="#DejaVuSans-66" x="1379.447266"/>
      <use xlink:href="#DejaVuSans-6f" x="1414.652344"/>
      <use xlink:href="#DejaVuSans-72" x="1475.833984"/>
      <use xlink:href="#DejaVuSans-6d" x="1515.197266"/>
      <use xlink:href="#DejaVuSans-65" x="1612.609375"/>
      <use xlink:href="#DejaVuSans-64" x="1674.132812"/>
      <use xlink:href="#DejaVuSans-20" x="1737.609375"/>
      <use xlink:href="#DejaVuSans-43" x="1769.396484"/>
      <use xlink:href="#DejaVuSans-75" x="1839.220703"/>
      <use xlink:href="#DejaVuSans-72" x="1902.599609"/>
      <use xlink:href="#DejaVuSans-76" x="1943.712891"/>
      <use xlink:href="#DejaVuSans-65" x="2002.892578"/>
      <use xlink:href="#DejaVuSans-20" x="2064.416016"/>
      <use xlink:href="#DejaVuSans-23" x="2096.203125"/>
      <use xlink:href="#DejaVuSans-31" x="2179.992188"/>
      <use xlink:href="#DejaVuSans-29" x="2243.615234"/>
     </g>
    </g>
    <g id="line2d_19">
     <path d="M 562.5 278.936719 
L 587.5 278.936719 
L 612.5 278.936719 
" style="fill: none; stroke: #444444; stroke-width: 6; stroke-linecap: square"/>
    </g>
    <g id="text_22">
     <!-- True Arc-Length (Transformed Curve #2) -->
     <g transform="translate(632.5 287.686719)scale(0.25 -0.25)">
      <use xlink:href="#DejaVuSans-54"/>
      <use xlink:href="#DejaVuSans-72" x="46.333984"/>
      <use xlink:href="#DejaVuSans-75" x="87.447266"/>
      <use xlink:href="#DejaVuSans-65" x="150.826172"/>
      <use xlink:href="#DejaVuSans-20" x="212.349609"/>
      <use xlink:href="#DejaVuSans-41" x="244.136719"/>
      <use xlink:href="#DejaVuSans-72" x="312.544922"/>
      <use xlink:href="#DejaVuSans-63" x="351.408203"/>
      <use xlink:href="#DejaVuSans-2d" x="406.388672"/>
      <use xlink:href="#DejaVuSans-4c" x="442.472656"/>
      <use xlink:href="#DejaVuSans-65" x="496.435547"/>
      <use xlink:href="#DejaVuSans-6e" x="557.958984"/>
      <use xlink:href="#DejaVuSans-67" x="621.337891"/>
      <use xlink:href="#DejaVuSans-74" x="684.814453"/>
      <use xlink:href="#DejaVuSans-68" x="724.023438"/>
      <use xlink:href="#DejaVuSans-20" x="787.402344"/>
      <use xlink:href="#DejaVuSans-28" x="819.189453"/>
      <use xlink:href="#DejaVuSans-54" x="858.203125"/>
      <use xlink:href="#DejaVuSans-72" x="904.537109"/>
      <use xlink:href="#DejaVuSans-61" x="945.650391"/>
      <use xlink:href="#DejaVuSans-6e" x="1006.929688"/>
      <use xlink:href="#DejaVuSans-73" x="1070.308594"/>
      <use xlink:href="#DejaVuSans-66" x="1122.408203"/>
      <use xlink:href="#DejaVuSans-6f" x="1157.613281"/>
      <use xlink:href="#DejaVuSans-72" x="1218.794922"/>
      <use xlink:href="#DejaVuSans-6d" x="1258.158203"/>
      <use xlink:href="#DejaVuSans-65" x="1355.570312"/>
      <use xlink:href="#DejaVuSans-64" x="1417.09375"/>
      <use xlink:href="#DejaVuSans-20" x="1480.570312"/>
      <use xlink:href="#DejaVuSans-43" x="1512.357422"/>
      <use xlink:href="#DejaVuSans-75" x="1582.181641"/>
      <use xlink:href="#DejaVuSans-72" x="1645.560547"/>
      <use xlink:href="#DejaVuSans-76" x="1686.673828"/>
      <use xlink:href="#DejaVuSans-65" x="1745.853516"/>
      <use xlink:href="#DejaVuSans-20" x="1807.376953"/>
      <use xlink:href="#DejaVuSans-23" x="1839.164062"/>
      <use xlink:href="#DejaVuSans-32" x="1922.953125"/>
      <use xlink:href="#DejaVuSans-29" x="1986.576172"/>
     </g>
    </g>
    <g id="line2d_20">
     <path d="M 562.5 315.632031 
L 587.5 315.632031 
L 612.5 315.632031 
" style="fill: none; stroke: #00aa00; stroke-width: 6; stroke-linecap: square"/>
    </g>
    <g id="text_23">
     <!-- Predicted Arc-Length (Transformed Curve #2) -->
     <g transform="translate(632.5 324.382031)scale(0.25 -0.25)">
      <use xlink:href="#DejaVuSans-50"/>
      <use xlink:href="#DejaVuSans-72" x="58.552734"/>
      <use xlink:href="#DejaVuSans-65" x="97.416016"/>
      <use xlink:href="#DejaVuSans-64" x="158.939453"/>
      <use xlink:href="#DejaVuSans-69" x="222.416016"/>
      <use xlink:href="#DejaVuSans-63" x="250.199219"/>
      <use xlink:href="#DejaVuSans-74" x="305.179688"/>
      <use xlink:href="#DejaVuSans-65" x="344.388672"/>
      <use xlink:href="#DejaVuSans-64" x="405.912109"/>
      <use xlink:href="#DejaVuSans-20" x="469.388672"/>
      <use xlink:href="#DejaVuSans-41" x="501.175781"/>
      <use xlink:href="#DejaVuSans-72" x="569.583984"/>
      <use xlink:href="#DejaVuSans-63" x="608.447266"/>
      <use xlink:href="#DejaVuSans-2d" x="663.427734"/>
      <use xlink:href="#DejaVuSans-4c" x="699.511719"/>
      <use xlink:href="#DejaVuSans-65" x="753.474609"/>
      <use xlink:href="#DejaVuSans-6e" x="814.998047"/>
      <use xlink:href="#DejaVuSans-67" x="878.376953"/>
      <use xlink:href="#DejaVuSans-74" x="941.853516"/>
      <use xlink:href="#DejaVuSans-68" x="981.0625"/>
      <use xlink:href="#DejaVuSans-20" x="1044.441406"/>
      <use xlink:href="#DejaVuSans-28" x="1076.228516"/>
      <use xlink:href="#DejaVuSans-54" x="1115.242188"/>
      <use xlink:href="#DejaVuSans-72" x="1161.576172"/>
      <use xlink:href="#DejaVuSans-61" x="1202.689453"/>
      <use xlink:href="#DejaVuSans-6e" x="1263.96875"/>
      <use xlink:href="#DejaVuSans-73" x="1327.347656"/>
      <use xlink:href="#DejaVuSans-66" x="1379.447266"/>
      <use xlink:href="#DejaVuSans-6f" x="1414.652344"/>
      <use xlink:href="#DejaVuSans-72" x="1475.833984"/>
      <use xlink:href="#DejaVuSans-6d" x="1515.197266"/>
      <use xlink:href="#DejaVuSans-65" x="1612.609375"/>
      <use xlink:href="#DejaVuSans-64" x="1674.132812"/>
      <use xlink:href="#DejaVuSans-20" x="1737.609375"/>
      <use xlink:href="#DejaVuSans-43" x="1769.396484"/>
      <use xlink:href="#DejaVuSans-75" x="1839.220703"/>
      <use xlink:href="#DejaVuSans-72" x="1902.599609"/>
      <use xlink:href="#DejaVuSans-76" x="1943.712891"/>
      <use xlink:href="#DejaVuSans-65" x="2002.892578"/>
      <use xlink:href="#DejaVuSans-20" x="2064.416016"/>
      <use xlink:href="#DejaVuSans-23" x="2096.203125"/>
      <use xlink:href="#DejaVuSans-32" x="2179.992188"/>
      <use xlink:href="#DejaVuSans-29" x="2243.615234"/>
     </g>
    </g>
   </g>
   <g id="line2d_21">
    <path d="M 692.181818 1210.581818 
L 714.937978 1204.602593 
L 729.160578 1200.632274 
L 743.383178 1196.392016 
L 757.605777 1191.868321 
L 771.828377 1187.088809 
L 788.895497 1181.095054 
L 820.185217 1169.781013 
L 842.941376 1161.666742 
L 860.008496 1155.804725 
L 877.075616 1150.17732 
L 896.987256 1143.859401 
L 933.966015 1132.186206 
L 948.188615 1127.43542 
L 962.411215 1122.422605 
L 973.789295 1118.200877 
L 988.011895 1112.660688 
L 1002.234494 1106.860295 
L 1019.301614 1099.644619 
L 1067.658454 1079.010911 
L 1081.881054 1073.292276 
L 1093.259133 1068.940268 
L 1104.637213 1064.819541 
L 1116.015293 1060.948621 
L 1127.393373 1057.332364 
L 1138.771453 1053.959976 
L 1150.149533 1050.803571 
L 1164.372133 1047.091587 
L 1212.728972 1034.752677 
L 1224.107052 1031.554742 
L 1235.485132 1028.156024 
L 1246.863212 1024.538748 
L 1258.241291 1020.696703 
L 1269.619371 1016.63348 
L 1280.997451 1012.361126 
L 1295.220051 1006.757064 
L 1309.442651 1000.910494 
L 1329.354291 992.450904 
L 1366.33305 976.661542 
L 1380.55565 970.869505 
L 1391.93373 966.463496 
L 1403.31181 962.319492 
L 1411.84537 959.414787 
L 1420.378929 956.706787 
L 1428.912489 954.21336 
L 1437.446049 951.949487 
L 1445.979609 949.926339 
L 1454.513169 948.149917 
L 1463.046729 946.618836 
L 1471.580289 945.320476 
L 1480.113849 944.224308 
L 1494.336449 942.674554 
L 1508.559048 941.083158 
L 1517.092608 939.937045 
L 1525.626168 938.587019 
L 1534.159728 937.013085 
L 1542.693288 935.210163 
L 1551.226848 933.182365 
L 1559.760408 930.939723 
L 1568.293968 928.496248 
L 1579.672048 924.955078 
L 1591.050127 921.131244 
L 1602.428207 917.072159 
L 1616.650807 911.740738 
L 1633.717927 905.084666 
L 1667.852167 891.443831 
L 1696.297366 880.195832 
L 1719.053526 871.426583 
L 1747.498726 860.724645 
L 1810.078165 837.307416 
L 1838.523364 826.36984 
L 1901.102804 802.173422 
L 1918.169924 795.881898 
L 1932.392523 790.85509 
L 1946.615123 786.06362 
L 1960.837723 781.525531 
L 1975.060323 777.233874 
L 1992.127443 772.354669 
L 2020.572642 764.543264 
L 2040.484282 758.981547 
L 2057.551402 753.981282 
L 2074.618522 748.717633 
L 2091.685641 743.216917 
L 2117.286321 734.701319 
L 2148.576041 724.341115 
L 2168.487681 718.019889 
L 2185.5548 712.830324 
L 2205.46644 707.008049 
L 2282.268479 684.848637 
L 2327.780799 671.463243 
L 2347.692438 665.869814 
L 2367.604078 660.530516 
L 2390.360238 654.685039 
L 2433.028037 643.796755 
L 2452.939677 638.463478 
L 2475.695837 632.114597 
L 2512.674596 621.488063 
L 2549.653356 610.95397 
L 2603.699235 595.663619 
L 2623.610875 589.734166 
L 2640.677995 584.418881 
L 2657.745115 578.875805 
L 2677.656754 572.145179 
L 2700.412914 564.178996 
L 2728.858114 553.963067 
L 2777.214953 536.324041 
L 2819.882753 520.555766 
L 2848.327952 509.816105 
L 2873.928632 499.923161 
L 2902.373832 488.692335 
L 2950.730671 469.552544 
L 2967.797791 463.073995 
L 2982.020391 457.924058 
L 2993.398471 454.023456 
L 3004.776551 450.362305 
L 3016.15463 446.980599 
L 3024.68819 444.650172 
L 3033.22175 442.511724 
L 3041.75531 440.57677 
L 3050.28887 438.853566 
L 3058.82243 437.345707 
L 3067.35599 436.049819 
L 3075.88955 434.951534 
L 3087.26763 433.735287 
L 3112.868309 431.1924 
L 3121.401869 430.116417 
L 3129.935429 428.845805 
L 3138.468989 427.364165 
L 3147.002549 425.666394 
L 3155.536109 423.754341 
L 3164.069669 421.63434 
L 3172.603229 419.315747 
L 3181.136788 416.810016 
L 3192.514868 413.200419 
L 3203.892948 409.31448 
L 3215.271028 405.187354 
L 3229.493628 399.744367 
L 3243.716228 394.052411 
L 3263.627867 385.801905 
L 3314.829227 364.38519 
L 3329.051827 358.729636 
L 3340.429907 354.397348 
L 3351.807986 350.278657 
L 3363.186066 346.411337 
L 3374.564146 342.829732 
L 3383.097706 340.348396 
L 3391.631266 338.052449 
L 3400.164826 335.946009 
L 3408.698386 334.026905 
L 3420.076466 331.738726 
L 3431.454545 329.701148 
L 3465.588785 323.804134 
L 3474.122345 322.048056 
L 3482.655905 320.087623 
L 3491.189465 317.901577 
L 3499.723025 315.47967 
L 3508.256585 312.820216 
L 3516.790144 309.928241 
L 3525.323704 306.81415 
L 3533.857264 303.492737 
L 3545.235344 298.773984 
L 3556.613424 293.771512 
L 3570.836024 287.20984 
L 3587.903144 279.050884 
L 3619.192863 264.013592 
L 3633.415463 257.446039 
L 3644.793543 252.42196 
L 3656.171623 247.652868 
L 3667.549703 243.173543 
L 3678.927782 239.004727 
L 3690.305862 235.150172 
L 3701.683942 231.593647 
L 3713.062022 228.296586 
L 3727.284622 224.445209 
L 3735.818182 222.218182 
L 3735.818182 222.218182 
" clip-path="url(#pedba68498f)" style="fill: none; stroke: #ff8c00; stroke-width: 6; stroke-linecap: square"/>
   </g>
   <g id="line2d_22">
    <path d="M 692.181818 1210.581818 
L 695.026338 1209.960857 
L 697.870858 1209.097303 
L 700.715378 1208.699646 
L 706.404418 1207.460431 
L 709.248938 1206.554196 
L 723.471538 1203.236232 
L 726.316058 1202.381372 
L 732.005098 1201.088271 
L 734.849618 1200.182242 
L 737.694138 1199.708224 
L 740.538658 1198.746234 
L 743.383178 1198.252243 
L 749.072218 1196.422964 
L 751.916737 1195.882519 
L 760.450297 1193.381072 
L 768.983857 1190.476929 
L 771.828377 1189.597161 
L 774.672897 1188.837404 
L 780.361937 1187.033317 
L 783.206457 1185.789751 
L 786.050977 1185.073109 
L 788.895497 1183.9592 
L 791.740017 1183.096014 
L 800.273577 1179.880504 
L 820.185217 1172.92393 
L 823.029737 1171.984351 
L 825.874257 1170.916528 
L 828.718777 1170.022 
L 831.563297 1168.909768 
L 837.252336 1167.06329 
L 845.785896 1163.993663 
L 851.474936 1162.068353 
L 877.075616 1153.728097 
L 888.453696 1150.305867 
L 891.298216 1149.273033 
L 902.676296 1145.812584 
L 905.520816 1144.877055 
L 914.054376 1142.370769 
L 936.810535 1135.185947 
L 951.033135 1130.379852 
L 965.255735 1125.314323 
L 976.633815 1121.04243 
L 990.856415 1115.438559 
L 1005.079014 1109.572073 
L 1024.990654 1101.083693 
L 1061.969414 1085.268087 
L 1076.192014 1079.421618 
L 1090.414613 1073.887146 
L 1101.792693 1069.720844 
L 1113.170773 1065.791375 
L 1127.393373 1061.241921 
L 1138.771453 1057.841715 
L 1147.305013 1055.478789 
L 1155.838573 1053.191871 
L 1207.039932 1040.116347 
L 1232.640612 1033.108031 
L 1235.485132 1032.298651 
L 1241.174172 1030.455846 
L 1244.018692 1029.564114 
L 1246.863212 1028.811423 
L 1249.707732 1027.728931 
L 1255.396771 1025.971908 
L 1258.241291 1024.816526 
L 1266.774851 1022.067235 
L 1269.619371 1020.797372 
L 1272.463891 1019.977556 
L 1275.308411 1018.72267 
L 1278.152931 1017.67956 
L 1283.841971 1015.973214 
L 1286.686491 1014.916832 
L 1292.375531 1012.476734 
L 1295.220051 1011.748561 
L 1298.064571 1010.285437 
L 1312.287171 1004.601231 
L 1320.820731 1000.975202 
L 1323.665251 999.914299 
L 1332.198811 996.240943 
L 1363.48853 983.10384 
L 1369.17757 980.779236 
L 1372.02209 979.650585 
L 1374.86661 978.691964 
L 1377.71113 977.408063 
L 1386.24469 974.104814 
L 1389.08921 973.042227 
L 1391.93373 972.149466 
L 1397.62277 970.014072 
L 1411.84537 965.065078 
L 1414.68989 964.283956 
L 1423.223449 961.613535 
L 1437.446049 957.730221 
L 1445.979609 955.718891 
L 1454.513169 953.951813 
L 1463.046729 952.423338 
L 1471.580289 951.126908 
L 1480.113849 950.052006 
L 1494.336449 948.547532 
L 1511.403568 946.768448 
L 1517.092608 946.130601 
L 1525.626168 944.623098 
L 1528.470688 944.411066 
L 1531.315208 943.594023 
L 1534.159728 943.300149 
L 1537.004248 942.738539 
L 1542.693288 941.426618 
L 1554.071368 939.009133 
L 1562.604928 936.746369 
L 1568.293968 935.238867 
L 1573.983008 933.616925 
L 1593.894647 927.164744 
L 1596.739167 926.075831 
L 1599.583687 925.137019 
L 1602.428207 924.022045 
L 1605.272727 923.143142 
L 1608.117247 921.924972 
L 1619.495327 917.861595 
L 1622.339847 916.602822 
L 1625.184367 915.671458 
L 1628.028887 914.421216 
L 1630.873407 913.426297 
L 1633.717927 912.253006 
L 1639.406967 910.214351 
L 1645.096007 907.881329 
L 1650.785047 905.749936 
L 1659.318607 902.386281 
L 1662.163127 901.149562 
L 1679.230246 894.592517 
L 1687.763806 891.407732 
L 1696.297366 888.103361 
L 1701.986406 886.003313 
L 1704.830926 884.895945 
L 1707.675446 883.943082 
L 1710.519966 882.764493 
L 1716.209006 880.668951 
L 1719.053526 879.818447 
L 1721.898046 878.574139 
L 1733.276126 874.558575 
L 1738.965166 872.374289 
L 1741.809686 871.500236 
L 1744.654206 870.347711 
L 1750.343246 868.413844 
L 1753.187766 867.344824 
L 1761.721325 864.450901 
L 1767.410365 862.43811 
L 1778.788445 858.493603 
L 1781.632965 857.31006 
L 1807.233645 847.757192 
L 1810.078165 846.602738 
L 1812.922685 845.67491 
L 1815.767205 844.512077 
L 1821.456245 842.471503 
L 1824.300765 841.377993 
L 1827.145285 840.429236 
L 1832.834325 838.186849 
L 1838.523364 836.038541 
L 1841.367884 835.071901 
L 1858.435004 828.523037 
L 1861.279524 827.312082 
L 1866.968564 825.24201 
L 1875.502124 822.220144 
L 1884.035684 818.888834 
L 1886.880204 817.993756 
L 1889.724724 816.799388 
L 1895.413764 814.74318 
L 1915.325404 807.604152 
L 1918.169924 806.607726 
L 1921.014444 805.439323 
L 1923.858963 804.635268 
L 1926.703483 803.686383 
L 1929.548003 802.468851 
L 1932.392523 801.659567 
L 1938.081563 799.642273 
L 1943.770603 797.790212 
L 1946.615123 796.966748 
L 1949.459643 795.937973 
L 1960.837723 792.375514 
L 1989.282923 784.127925 
L 2000.661003 781.048183 
L 2003.505523 780.42032 
L 2006.350042 779.522433 
L 2012.039082 778.126789 
L 2020.572642 775.663136 
L 2023.417162 775.011507 
L 2029.106202 773.413146 
L 2043.328802 769.290939 
L 2049.017842 767.681415 
L 2066.084962 762.580928 
L 2108.752761 748.675612 
L 2131.508921 741.03557 
L 2168.487681 729.111178 
L 2182.71028 724.78363 
L 2214 715.751369 
L 2222.53356 713.479025 
L 2233.91164 710.288256 
L 2259.512319 703.055249 
L 2262.356839 702.360424 
L 2273.734919 699.040704 
L 2282.268479 696.727588 
L 2287.957519 695.168139 
L 2290.802039 694.23755 
L 2313.558199 687.802582 
L 2319.247239 686.082248 
L 2324.936279 684.644641 
L 2327.780799 683.75435 
L 2336.314359 681.477043 
L 2339.158879 680.690172 
L 2342.003398 680.045576 
L 2350.536958 677.760262 
L 2353.381478 677.137036 
L 2356.225998 676.165688 
L 2361.915038 674.694852 
L 2367.604078 673.500686 
L 2373.293118 672.043459 
L 2376.137638 671.351381 
L 2378.982158 670.780817 
L 2381.826678 669.942447 
L 2390.360238 668.083776 
L 2393.204758 667.256847 
L 2401.738318 665.319191 
L 2404.582838 664.586564 
L 2407.427358 664.098773 
L 2413.116398 662.779287 
L 2418.805438 661.611855 
L 2421.649958 660.798024 
L 2430.183517 658.931613 
L 2433.028037 657.999166 
L 2444.406117 655.268512 
L 2447.250637 654.448383 
L 2450.095157 653.761157 
L 2455.784197 652.161796 
L 2464.317757 649.98883 
L 2472.851317 647.496959 
L 2481.384877 645.154399 
L 2506.985556 637.815974 
L 2575.254036 618.419597 
L 2578.098556 617.711627 
L 2580.943076 616.836878 
L 2583.787596 616.150728 
L 2586.632116 615.290988 
L 2595.165675 613.062961 
L 2600.854715 611.389105 
L 2606.543755 609.696746 
L 2609.388275 609.073399 
L 2615.077315 607.406747 
L 2626.455395 604.013383 
L 2629.299915 603.026049 
L 2637.833475 600.443515 
L 2643.522515 598.619193 
L 2649.211555 596.858051 
L 2652.056075 595.890308 
L 2654.900595 595.065686 
L 2689.034834 583.412519 
L 2694.723874 581.378179 
L 2706.101954 577.363583 
L 2745.925234 562.86305 
L 2791.437553 546.183727 
L 2831.260833 531.305771 
L 2871.084112 515.986217 
L 2885.306712 510.383361 
L 2890.995752 508.185393 
L 2896.684792 505.892151 
L 2925.129992 494.593578 
L 2939.352591 488.934238 
L 2945.041631 486.734432 
L 2953.575191 483.381812 
L 2964.953271 479.081037 
L 2979.175871 473.838166 
L 3001.932031 466.091026 
L 3010.46559 463.458321 
L 3018.99915 460.999978 
L 3030.37723 458.009397 
L 3041.75531 455.412941 
L 3047.44435 454.259398 
L 3055.97791 452.707617 
L 3064.51147 451.344081 
L 3073.04503 450.22753 
L 3084.42311 448.944466 
L 3090.11215 448.496206 
L 3098.645709 447.744249 
L 3101.490229 447.558337 
L 3107.179269 447.022947 
L 3110.023789 446.777966 
L 3127.090909 444.579905 
L 3135.624469 443.171239 
L 3144.158029 441.540442 
L 3152.691589 439.693788 
L 3161.225149 437.645646 
L 3172.603229 434.600863 
L 3181.136788 432.090607 
L 3189.670348 429.402903 
L 3198.203908 426.565579 
L 3212.426508 421.503709 
L 3226.649108 416.094208 
L 3255.094308 404.515213 
L 3300.606627 385.342701 
L 3311.984707 380.69056 
L 3329.051827 373.901947 
L 3346.118946 367.420862 
L 3354.652506 364.407931 
L 3363.186066 361.510011 
L 3374.564146 357.915198 
L 3388.786746 353.891071 
L 3397.320306 351.728016 
L 3414.387426 347.948479 
L 3420.076466 346.940745 
L 3439.988105 343.570287 
L 3442.832625 343.227474 
L 3445.677145 342.672313 
L 3459.899745 340.414715 
L 3471.277825 338.255307 
L 3488.344945 334.401839 
L 3502.567545 330.446505 
L 3519.634664 324.715314 
L 3533.857264 319.319475 
L 3545.235344 314.567188 
L 3556.613424 309.558301 
L 3570.836024 302.965007 
L 3585.058624 296.147962 
L 3619.192863 279.709839 
L 3633.415463 273.144342 
L 3644.793543 268.111134 
L 3653.327103 264.494379 
L 3664.705183 259.937811 
L 3673.238743 256.713848 
L 3684.616822 252.722137 
L 3695.994902 249.012784 
L 3707.372982 245.618369 
L 3713.062022 244.139908 
L 3718.751062 242.625062 
L 3721.595582 241.974302 
L 3727.284622 240.269073 
L 3732.973662 239.08615 
L 3735.818182 238.205202 
L 3735.818182 238.205202 
" clip-path="url(#pedba68498f)" style="fill: none; stroke: #aa0000; stroke-width: 6; stroke-linecap: square"/>
   </g>
   <g id="line2d_23">
    <path d="M 692.181818 1210.581818 
L 714.937978 1204.602593 
L 729.160578 1200.632274 
L 743.383178 1196.392016 
L 757.605777 1191.868321 
L 771.828377 1187.088809 
L 788.895497 1181.095054 
L 820.185217 1169.781013 
L 842.941376 1161.666742 
L 860.008496 1155.804725 
L 877.075616 1150.17732 
L 896.987256 1143.859401 
L 933.966015 1132.186206 
L 948.188615 1127.43542 
L 962.411215 1122.422605 
L 973.789295 1118.200877 
L 988.011895 1112.660688 
L 1002.234494 1106.860295 
L 1019.301614 1099.644619 
L 1067.658454 1079.010911 
L 1081.881054 1073.292276 
L 1093.259133 1068.940268 
L 1104.637213 1064.819541 
L 1116.015293 1060.948621 
L 1127.393373 1057.332364 
L 1138.771453 1053.959976 
L 1150.149533 1050.803571 
L 1164.372133 1047.091587 
L 1212.728972 1034.752677 
L 1224.107052 1031.554742 
L 1235.485132 1028.156024 
L 1246.863212 1024.538748 
L 1258.241291 1020.696703 
L 1269.619371 1016.63348 
L 1280.997451 1012.361126 
L 1295.220051 1006.757064 
L 1309.442651 1000.910494 
L 1329.354291 992.450904 
L 1366.33305 976.661542 
L 1380.55565 970.869505 
L 1391.93373 966.463496 
L 1403.31181 962.319492 
L 1411.84537 959.414787 
L 1420.378929 956.706787 
L 1428.912489 954.21336 
L 1437.446049 951.949487 
L 1445.979609 949.926339 
L 1454.513169 948.149917 
L 1463.046729 946.618836 
L 1471.580289 945.320476 
L 1480.113849 944.224308 
L 1494.336449 942.674554 
L 1508.559048 941.083158 
L 1517.092608 939.937045 
L 1525.626168 938.587019 
L 1534.159728 937.013085 
L 1542.693288 935.210163 
L 1551.226848 933.182365 
L 1559.760408 930.939723 
L 1568.293968 928.496248 
L 1579.672048 924.955078 
L 1591.050127 921.131244 
L 1602.428207 917.072159 
L 1616.650807 911.740738 
L 1633.717927 905.084666 
L 1667.852167 891.443831 
L 1696.297366 880.195832 
L 1719.053526 871.426583 
L 1747.498726 860.724645 
L 1810.078165 837.307416 
L 1838.523364 826.36984 
L 1901.102804 802.173422 
L 1918.169924 795.881898 
L 1932.392523 790.85509 
L 1946.615123 786.06362 
L 1960.837723 781.525531 
L 1975.060323 777.233874 
L 1992.127443 772.354669 
L 2020.572642 764.543264 
L 2040.484282 758.981547 
L 2057.551402 753.981282 
L 2074.618522 748.717633 
L 2091.685641 743.216917 
L 2117.286321 734.701319 
L 2148.576041 724.341115 
L 2168.487681 718.019889 
L 2185.5548 712.830324 
L 2205.46644 707.008049 
L 2282.268479 684.848637 
L 2327.780799 671.463243 
L 2347.692438 665.869814 
L 2367.604078 660.530516 
L 2390.360238 654.685039 
L 2433.028037 643.796755 
L 2452.939677 638.463478 
L 2475.695837 632.114597 
L 2512.674596 621.488063 
L 2549.653356 610.95397 
L 2603.699235 595.663619 
L 2623.610875 589.734166 
L 2640.677995 584.418881 
L 2657.745115 578.875805 
L 2677.656754 572.145179 
L 2700.412914 564.178996 
L 2728.858114 553.963067 
L 2777.214953 536.324041 
L 2819.882753 520.555766 
L 2848.327952 509.816105 
L 2873.928632 499.923161 
L 2902.373832 488.692335 
L 2950.730671 469.552544 
L 2967.797791 463.073995 
L 2982.020391 457.924058 
L 2993.398471 454.023456 
L 3004.776551 450.362305 
L 3016.15463 446.980599 
L 3024.68819 444.650172 
L 3033.22175 442.511724 
L 3041.75531 440.57677 
L 3050.28887 438.853566 
L 3058.82243 437.345707 
L 3067.35599 436.049819 
L 3075.88955 434.951534 
L 3087.26763 433.735287 
L 3112.868309 431.1924 
L 3121.401869 430.116417 
L 3129.935429 428.845805 
L 3138.468989 427.364165 
L 3147.002549 425.666394 
L 3155.536109 423.754341 
L 3164.069669 421.63434 
L 3172.603229 419.315747 
L 3181.136788 416.810016 
L 3192.514868 413.200419 
L 3203.892948 409.31448 
L 3215.271028 405.187354 
L 3229.493628 399.744367 
L 3243.716228 394.052411 
L 3263.627867 385.801905 
L 3314.829227 364.38519 
L 3329.051827 358.729636 
L 3340.429907 354.397348 
L 3351.807986 350.278657 
L 3363.186066 346.411337 
L 3374.564146 342.829732 
L 3383.097706 340.348396 
L 3391.631266 338.052449 
L 3400.164826 335.946009 
L 3408.698386 334.026905 
L 3420.076466 331.738726 
L 3431.454545 329.701148 
L 3465.588785 323.804134 
L 3474.122345 322.048056 
L 3482.655905 320.087623 
L 3491.189465 317.901577 
L 3499.723025 315.47967 
L 3508.256585 312.820216 
L 3516.790144 309.928241 
L 3525.323704 306.81415 
L 3533.857264 303.492737 
L 3545.235344 298.773984 
L 3556.613424 293.771512 
L 3570.836024 287.20984 
L 3587.903144 279.050884 
L 3619.192863 264.013592 
L 3633.415463 257.446039 
L 3644.793543 252.42196 
L 3656.171623 247.652868 
L 3667.549703 243.173543 
L 3678.927782 239.004727 
L 3690.305862 235.150172 
L 3701.683942 231.593647 
L 3713.062022 228.296586 
L 3727.284622 224.445209 
L 3735.818182 222.218182 
L 3735.818182 222.218182 
" clip-path="url(#pedba68498f)" style="fill: none; stroke: #444444; stroke-width: 6; stroke-linecap: square"/>
   </g>
   <g id="line2d_24">
    <path d="M 692.181818 1210.581818 
L 703.559898 1207.813343 
L 706.404418 1207.178592 
L 712.093458 1205.730349 
L 714.937978 1204.971522 
L 717.782498 1204.352662 
L 726.316058 1202.002691 
L 732.005098 1200.434485 
L 740.538658 1197.903909 
L 757.605777 1192.958858 
L 777.517417 1186.27885 
L 805.962617 1176.12117 
L 837.252336 1164.855998 
L 854.319456 1158.936256 
L 871.386576 1153.224039 
L 896.987256 1145.073895 
L 922.587935 1137.307884 
L 925.432455 1136.500038 
L 931.121495 1134.628753 
L 945.344095 1130.078362 
L 951.033135 1128.071149 
L 956.722175 1126.291227 
L 959.566695 1125.153043 
L 962.411215 1124.217447 
L 973.789295 1119.857327 
L 976.633815 1118.940161 
L 985.167375 1115.536788 
L 988.011895 1114.567966 
L 993.700935 1112.094521 
L 996.545455 1111.043382 
L 1019.301614 1101.410637 
L 1024.990654 1098.916666 
L 1036.368734 1093.983051 
L 1053.435854 1086.619685 
L 1070.502974 1079.502392 
L 1087.570093 1072.744583 
L 1098.948173 1068.514882 
L 1110.326253 1064.493403 
L 1127.393373 1059.005711 
L 1133.082413 1057.420886 
L 1135.926933 1056.437516 
L 1144.460493 1054.161958 
L 1150.149533 1052.822019 
L 1152.994053 1052.024142 
L 1155.838573 1051.505514 
L 1161.527613 1050.130061 
L 1164.372133 1049.590214 
L 1167.216653 1048.838372 
L 1170.061172 1048.35313 
L 1175.750212 1046.867187 
L 1178.594732 1046.384744 
L 1181.439252 1046.102506 
L 1184.283772 1045.135104 
L 1187.128292 1044.843017 
L 1192.817332 1043.77119 
L 1195.661852 1043.119307 
L 1198.506372 1042.719552 
L 1201.350892 1042.062082 
L 1204.195412 1041.162068 
L 1207.039932 1040.8516 
L 1209.884452 1039.876563 
L 1215.573492 1038.53838 
L 1218.418012 1037.980407 
L 1221.262532 1037.202227 
L 1224.107052 1036.184271 
L 1226.951572 1035.660523 
L 1235.485132 1033.129254 
L 1238.329652 1032.608043 
L 1241.174172 1031.452089 
L 1246.863212 1029.907535 
L 1249.707732 1028.76766 
L 1252.552251 1028.128532 
L 1255.396771 1027.19535 
L 1258.241291 1026.016689 
L 1261.085811 1025.272025 
L 1266.774851 1023.399012 
L 1269.619371 1022.435486 
L 1272.463891 1021.238592 
L 1278.152931 1019.198209 
L 1283.841971 1016.872576 
L 1289.531011 1014.757613 
L 1292.375531 1013.486916 
L 1306.598131 1007.747758 
L 1312.287171 1005.32483 
L 1320.820731 1001.789993 
L 1326.509771 999.381104 
L 1363.48853 983.537898 
L 1377.71113 977.718761 
L 1391.93373 972.206465 
L 1397.62277 970.098371 
L 1406.15633 967.062638 
L 1411.84537 965.132936 
L 1420.378929 962.412672 
L 1428.912489 959.889308 
L 1440.290569 956.916317 
L 1448.824129 955.001078 
L 1457.357689 953.356868 
L 1465.891249 951.938431 
L 1471.580289 951.187194 
L 1485.802889 949.482305 
L 1488.647409 949.369008 
L 1494.336449 948.756135 
L 1502.870008 947.985168 
L 1505.714528 947.891601 
L 1514.248088 946.886854 
L 1517.092608 946.462521 
L 1519.937128 946.195578 
L 1522.781648 945.619713 
L 1525.626168 945.228451 
L 1539.848768 942.429595 
L 1542.693288 941.937952 
L 1545.537808 941.139916 
L 1551.226848 939.856376 
L 1562.604928 936.894666 
L 1573.983008 933.481928 
L 1588.205607 928.851255 
L 1616.650807 918.45597 
L 1628.028887 914.044404 
L 1650.785047 904.989959 
L 1682.074766 892.484147 
L 1713.364486 880.30735 
L 1767.410365 860.012274 
L 1795.855565 849.385593 
L 1838.523364 833.069848 
L 1864.124044 823.001767 
L 1878.346644 817.426118 
L 1901.102804 808.684824 
L 1923.858963 800.362975 
L 1943.770603 793.52442 
L 1960.837723 788.055209 
L 1983.593883 781.417671 
L 1989.282923 779.869233 
L 2012.039082 773.765664 
L 2014.883602 773.238152 
L 2017.728122 772.342396 
L 2020.572642 771.765006 
L 2023.417162 770.800447 
L 2026.261682 770.124889 
L 2029.106202 769.192004 
L 2046.173322 764.793175 
L 2049.017842 763.927671 
L 2051.862362 763.18494 
L 2054.706882 762.25267 
L 2057.551402 761.448631 
L 2060.395922 760.774414 
L 2083.152082 753.613173 
L 2122.975361 740.448584 
L 2128.664401 738.545955 
L 2145.731521 732.891992 
L 2165.643161 726.572189 
L 2177.02124 723.115654 
L 2185.5548 720.63974 
L 2199.7774 716.592828 
L 2208.31096 714.10866 
L 2216.84452 711.946278 
L 2219.68904 711.086848 
L 2222.53356 710.393667 
L 2228.2226 708.850875 
L 2239.60068 705.925114 
L 2242.4452 705.04782 
L 2248.13424 703.59044 
L 2250.97876 702.704018 
L 2256.667799 701.298424 
L 2265.201359 698.839787 
L 2270.890399 697.362226 
L 2273.734919 696.436015 
L 2282.268479 694.08977 
L 2290.802039 691.791758 
L 2293.646559 690.854374 
L 2296.491079 690.044464 
L 2299.335599 689.378596 
L 2305.024639 687.661027 
L 2333.469839 679.647554 
L 2336.314359 678.936081 
L 2342.003398 677.341398 
L 2347.692438 675.931506 
L 2353.381478 674.425508 
L 2359.070518 673.008884 
L 2364.759558 671.517371 
L 2367.604078 670.948971 
L 2370.448598 670.14036 
L 2376.137638 668.859002 
L 2398.893798 663.300286 
L 2401.738318 662.684297 
L 2404.582838 661.888557 
L 2407.427358 661.289736 
L 2410.271878 660.542532 
L 2413.116398 659.94108 
L 2418.805438 658.528401 
L 2421.649958 657.925098 
L 2424.494477 657.088282 
L 2427.338997 656.384987 
L 2430.183517 655.851141 
L 2435.872557 654.305391 
L 2447.250637 651.430314 
L 2484.229397 641.180418 
L 2501.296517 636.233261 
L 2566.720476 617.670916 
L 2578.098556 614.602711 
L 2586.632116 612.091091 
L 2589.476636 611.425901 
L 2592.321155 610.570865 
L 2600.854715 608.317182 
L 2606.543755 606.548524 
L 2612.232795 605.079094 
L 2615.077315 604.182203 
L 2626.455395 601.049588 
L 2629.299915 600.071848 
L 2632.144435 599.388015 
L 2634.988955 598.434554 
L 2637.833475 597.690955 
L 2640.677995 596.709792 
L 2643.522515 595.939279 
L 2669.123195 587.515596 
L 2706.101954 574.695792 
L 2723.169074 568.537277 
L 2726.013594 567.590276 
L 2731.702634 565.524704 
L 2757.303314 556.260453 
L 2762.992353 554.167203 
L 2788.593033 544.843724 
L 2794.282073 542.731079 
L 2836.949873 526.951047 
L 2839.794393 525.766644 
L 2842.638912 524.807407 
L 2888.151232 507.180293 
L 2956.419711 480.084108 
L 2973.486831 473.698128 
L 2987.709431 468.655985 
L 2999.087511 464.857229 
L 3010.46559 461.322636 
L 3018.99915 458.875794 
L 3030.37723 455.894656 
L 3038.91079 453.883684 
L 3047.44435 452.106043 
L 3053.13339 451.022638 
L 3067.35599 448.737221 
L 3073.04503 448.014243 
L 3084.42311 446.706877 
L 3104.334749 444.96943 
L 3115.712829 443.872129 
L 3124.246389 442.782405 
L 3132.779949 441.438687 
L 3141.313509 439.892707 
L 3149.847069 438.116828 
L 3158.380629 436.134273 
L 3166.914189 433.942589 
L 3175.447749 431.573639 
L 3186.825828 428.108273 
L 3198.203908 424.336542 
L 3209.581988 420.331662 
L 3220.960068 416.087763 
L 3232.338148 411.673973 
L 3246.560748 405.90715 
L 3272.161427 395.220265 
L 3300.606627 383.191859 
L 3334.740867 369.497173 
L 3354.652506 362.21167 
L 3366.030586 358.408403 
L 3374.564146 355.71123 
L 3391.631266 350.998847 
L 3403.009346 348.294359 
L 3414.387426 345.948185 
L 3445.677145 340.586207 
L 3457.055225 338.689583 
L 3459.899745 338.126279 
L 3462.744265 337.683768 
L 3465.588785 337.050486 
L 3468.433305 336.637802 
L 3474.122345 335.42815 
L 3479.811385 334.444156 
L 3488.344945 332.267193 
L 3494.033985 331.0219 
L 3496.878505 330.013052 
L 3505.412065 327.784248 
L 3511.101105 325.848188 
L 3513.945624 325.032644 
L 3519.634664 322.982954 
L 3522.479184 322.107923 
L 3533.857264 317.798269 
L 3539.546304 315.392735 
L 3542.390824 314.399951 
L 3545.235344 313.002568 
L 3548.079864 312.010668 
L 3556.613424 308.269377 
L 3565.146984 304.3119 
L 3576.525064 298.995397 
L 3585.058624 294.908689 
L 3624.881903 276.074913 
L 3627.726423 274.886057 
L 3630.570943 273.534875 
L 3650.482583 265.028936 
L 3659.016143 261.51563 
L 3661.860663 260.570738 
L 3664.705183 259.385811 
L 3681.772302 253.272083 
L 3693.150382 249.68709 
L 3704.528462 246.210923 
L 3715.906542 243.213765 
L 3730.129142 239.531413 
L 3732.973662 238.895039 
L 3735.818182 238.02326 
L 3735.818182 238.02326 
" clip-path="url(#pedba68498f)" style="fill: none; stroke: #00aa00; stroke-width: 6; stroke-linecap: square"/>
   </g>
  </g>
 </g>
 <defs>
  <clipPath id="pedba68498f">
   <rect x="540" y="172.8" width="3348" height="1087.2"/>
  </clipPath>
 </defs>
</svg>
