<svg class="main-svg" xmlns="http://www.w3.org/2000/svg" xmlns:xlink="http://www.w3.org/1999/xlink" width="3500" height="1000" style="" viewBox="0 0 3500 1000"><rect x="0" y="0" width="3500" height="1000" style="fill: rgb(255, 255, 255); fill-opacity: 1;"/><defs id="defs-75ba2f"><g class="clips"><clipPath id="clip75ba2fxyplot" class="plotclip"><rect width="2582" height="796"/></clipPath><clipPath class="axesclip" id="clip75ba2fx"><rect x="160" y="0" width="2582" height="1000"/></clipPath><clipPath class="axesclip" id="clip75ba2fy"><rect x="0" y="100" width="3500" height="796"/></clipPath><clipPath class="axesclip" id="clip75ba2fxy"><rect x="160" y="100" width="2582" height="796"/></clipPath></g><g class="gradients"/><g class="patterns"/></defs><g class="bglayer"><rect class="bg" x="160" y="100" width="2582" height="796" style="fill: rgb(229, 236, 246); fill-opacity: 1; stroke-width: 0;"/></g><g class="layer-below"><g class="imagelayer"/><g class="shapelayer"/></g><g class="cartesianlayer"><g class="subplot xy"><g class="layer-subplot"><g class="shapelayer"/><g class="imagelayer"/></g><g class="gridlayer"><g class="x"><path class="xgrid crisp" transform="translate(653.69,0)" d="M0,100v796" style="stroke: rgb(255, 255, 255); stroke-opacity: 1; stroke-width: 1px;"/><path class="xgrid crisp" transform="translate(1147.38,0)" d="M0,100v796" style="stroke: rgb(255, 255, 255); stroke-opacity: 1; stroke-width: 1px;"/><path class="xgrid crisp" transform="translate(1641.07,0)" d="M0,100v796" style="stroke: rgb(255, 255, 255); stroke-opacity: 1; stroke-width: 1px;"/><path class="xgrid crisp" transform="translate(2134.76,0)" d="M0,100v796" style="stroke: rgb(255, 255, 255); stroke-opacity: 1; stroke-width: 1px;"/><path class="xgrid crisp" transform="translate(2628.45,0)" d="M0,100v796" style="stroke: rgb(255, 255, 255); stroke-opacity: 1; stroke-width: 1px;"/></g><g class="y"><path class="ygrid crisp" transform="translate(0,872.86)" d="M160,0h2582" style="stroke: rgb(255, 255, 255); stroke-opacity: 1; stroke-width: 1px;"/><path class="ygrid crisp" transform="translate(0,772.66)" d="M160,0h2582" style="stroke: rgb(255, 255, 255); stroke-opacity: 1; stroke-width: 1px;"/><path class="ygrid crisp" transform="translate(0,672.47)" d="M160,0h2582" style="stroke: rgb(255, 255, 255); stroke-opacity: 1; stroke-width: 1px;"/><path class="ygrid crisp" transform="translate(0,572.27)" d="M160,0h2582" style="stroke: rgb(255, 255, 255); stroke-opacity: 1; stroke-width: 1px;"/><path class="ygrid crisp" transform="translate(0,371.87)" d="M160,0h2582" style="stroke: rgb(255, 255, 255); stroke-opacity: 1; stroke-width: 1px;"/><path class="ygrid crisp" transform="translate(0,271.66999999999996)" d="M160,0h2582" style="stroke: rgb(255, 255, 255); stroke-opacity: 1; stroke-width: 1px;"/><path class="ygrid crisp" transform="translate(0,171.48000000000002)" d="M160,0h2582" style="stroke: rgb(255, 255, 255); stroke-opacity: 1; stroke-width: 1px;"/></g></g><g class="zerolinelayer"><path class="xzl zl crisp" transform="translate(160,0)" d="M0,100v796" style="stroke: rgb(255, 255, 255); stroke-opacity: 1; stroke-width: 2px;"/><path class="yzl zl crisp" transform="translate(0,472.07)" d="M160,0h2582" style="stroke: rgb(255, 255, 255); stroke-opacity: 1; stroke-width: 2px;"/></g><path class="xlines-below"/><path class="ylines-below"/><g class="overlines-below"/><g class="xaxislayer-below"/><g class="yaxislayer-below"/><g class="overaxes-below"/><g class="plot" transform="translate(160,100)" clip-path="url(#clip75ba2fxyplot)"><g class="scatterlayer mlayer"><g class="trace scatter tracece789f" style="stroke-miterlimit: 2; opacity: 1;"><g class="fills"/><g class="errorbars"/><g class="lines"><path class="js-line" d="M0,204.57L9.87,198.39L12.34,198.41L22.22,194.01L24.68,193.21L27.15,191.12L29.62,191L39.5,187.32L41.96,186.96L46.9,184.27L49.37,184.07L54.31,181.52L56.77,181.55L59.24,180.47L61.71,180.83L69.12,179.28L71.59,179.09L74.05,179.23L76.52,177.95L81.46,178.07L83.93,178.89L86.4,177.38L88.86,177.53L93.8,178.12L96.27,177.88L101.21,179.44L103.67,180.23L111.08,182.04L113.55,183.68L118.49,185.35L120.95,187.61L125.89,189.87L128.36,191.37L150.58,208.02L153.04,210.5L177.73,233.1L180.2,235.39L197.48,249.55L199.94,251.04L212.29,259.59L214.76,261.23L219.69,264.1L222.16,265.35L227.1,267.45L229.57,268.97L249.31,276.05L251.78,276.61L269.06,280.57L271.53,280.73L288.81,284.5L291.28,284.68L303.62,288.74L306.09,288.97L325.84,298.91L328.3,301L340.65,311.83L343.11,314.67L352.99,325.17L355.46,329.07L360.39,336.64L362.86,338.23L370.27,352.78L372.74,357.47L377.67,366.59L380.14,372.8L385.08,383.08L387.55,386.89L399.89,416.37L402.36,419.52L407.29,431.42L409.76,439.82L427.04,480.39L429.51,485.49L434.45,494.47L436.92,498L446.79,512.5L449.26,515.38L456.66,522.65L459.13,523.04L461.6,524.48L464.07,524.72L466.54,525.52L469.01,524.82L473.94,524.42L476.41,523.33L478.88,522.14L481.35,519.47L483.82,518.39L486.28,515.36L493.69,505.95L496.16,502.33L510.97,478.19L513.44,473.2L535.65,423.82L538.12,419.55L540.59,415.86L543.06,410.25L550.46,393.83L552.93,390.29L562.81,369.66L565.28,366.43L575.15,347.42L577.62,344.29L585.02,329.94L587.49,327.01L592.43,321.09L594.9,316.71L602.3,306.45L604.77,305.29L614.64,291.43L617.11,289.52L624.52,279.76L626.99,277.82L629.46,276.54L631.92,273.49L639.33,266.5L641.8,265.5L649.2,258.46L651.67,257.27L654.14,256.6L656.61,254.39L664.01,249.79L666.48,249.3L673.89,245.69L676.36,244.89L681.29,242.99L683.76,242.63L691.17,241.02L693.63,240.75L701.04,240.15L703.51,239.99L705.98,240.63L708.45,240.13L720.79,242.38L723.26,242.99L728.19,244.9L730.66,246.09L738.07,248.71L740.54,250.07L745.47,252.2L747.94,253.57L757.81,260.79L760.28,262.03L780.03,276.03L782.5,278.34L792.37,285.5L794.84,287.08L797.31,287.97L799.78,289.98L809.65,296.5L812.12,296.07L824.46,302.18L826.93,302.32L831.87,303.75L834.34,303.88L854.08,302.59L856.55,300.57L868.89,291.77L871.36,290.32L873.83,287.04L876.3,287.93L888.64,270.17L891.11,266.3L896.05,263.05L898.52,258.38L915.8,223.31L918.26,224.31L935.54,179.06L938.01,176.12L952.82,137.65L955.29,133.87L965.16,113.03L967.63,108.29L975.04,99L977.51,96.36L984.91,86.6L987.38,86.62L997.25,82.27L999.72,82.61L1004.66,83.11L1007.13,84.6L1014.53,88.89L1017,91.38L1024.41,96.41L1026.88,100.21L1046.62,126.92L1049.09,129.14L1054.03,135.54L1056.5,138.46L1063.9,146.97L1066.37,149.23L1071.31,153.76L1073.78,154.93L1078.71,157.65L1081.18,159.12L1093.52,162.14L1095.99,162.26L1100.93,162.67L1103.4,162.3L1118.21,160.82L1120.68,159.87L1137.96,160.09L1140.42,161.06L1150.3,165.52L1152.77,167.44L1160.17,173.56L1162.64,176.75L1170.05,186.08L1172.51,190.68L1179.92,203.55L1182.39,209.64L1189.79,226.36L1192.26,233.96L1199.67,254.89L1202.14,264.04L1212.01,300.38L1214.48,310.36L1221.88,343.33L1224.35,355L1234.23,405.13L1236.69,418.13L1249.04,485.11L1251.5,499.61L1273.72,614.37L1276.19,622.79L1283.59,646.32L1286.06,652.86L1293.47,673.61L1295.94,678.25L1300.87,687.06L1303.34,689.07L1310.75,694.92L1313.22,695.08L1315.68,695.45L1318.15,694.56L1323.09,692.06L1325.56,689.22L1328.03,687.43L1330.5,683.88L1345.31,655.52L1347.77,649.66L1360.12,619.27L1362.59,610.34L1379.86,564.14L1382.33,559.19L1389.74,544.18L1392.21,540.1L1402.08,526.63L1404.55,525.21L1409.49,520.63L1411.95,519.09L1416.89,517.27L1419.36,517.12L1426.76,518.53L1429.23,520.1L1436.64,527.28L1439.11,529.61L1444.04,538.03L1446.51,543.77L1453.92,560.07L1456.39,567.98L1461.32,583.18L1463.79,589.66L1471.2,618.4L1473.67,628.75L1481.07,653.11L1483.54,663.54L1488.48,685.43L1490.94,690.8L1498.35,713.56L1500.82,722.1L1503.29,730.81L1505.76,733.36L1518.1,754.65L1520.57,756.2L1523.03,755.12L1525.5,755.36L1530.44,753.34L1532.91,751.89L1537.85,749.99L1540.31,747.1L1545.25,736.58L1547.72,729.29L1550.19,721.6L1552.66,717.67L1557.59,698.38L1560.06,688.32L1572.4,625.18L1574.87,608.4L1592.15,468.95L1594.62,446.77L1602.02,381.12L1604.49,368.82L1614.37,277.43L1616.84,267.2L1621.77,239.41L1624.24,223.31L1634.11,166.86L1636.58,164.66L1648.93,108.92L1651.39,102.05L1653.86,98.53L1656.33,91.84L1666.2,65.41L1668.67,62.71L1683.48,43.95L1685.95,43.77L1688.42,41.32L1690.89,40.55L1698.29,39.8L1700.76,41.16L1713.11,47.51L1715.57,50.09L1727.92,61.76L1730.38,65.47L1732.85,69.44L1735.32,70.9L1740.26,77.63L1742.73,80.53L1750.13,91.9L1752.6,93.04L1755.07,98.91L1757.54,100.96L1762.47,106.27L1764.94,109.87L1772.35,120.26L1774.82,120.05L1779.75,126.6L1782.22,130.49L1801.97,156.58L1804.44,161.01L1806.91,160.5L1809.37,164.33L1816.78,177.71L1819.25,182.84L1824.19,188.6L1826.65,192.78L1831.59,206.7L1834.06,209.62L1836.53,211.92L1839,218.38L1843.93,232.23L1846.4,240.04L1858.74,274.14L1861.21,282.12L1873.55,329.86L1876.02,337.37L1885.9,370.81L1888.37,384.31L1895.77,420.89L1898.24,428.19L1910.58,476.19L1913.05,483.75L1920.46,510.16L1922.92,517.11L1935.27,543.18L1937.73,547.41L1940.2,547.34L1942.67,550.96L1945.14,552.86L1947.61,552.95L1955.01,552.34L1957.48,551.08L1962.42,547.19L1964.89,548.13L1967.36,547.16L1969.82,542.96L1984.63,503.13L1987.1,492.98L1989.57,491.66L1992.04,484.19L1996.98,461.58L1999.45,448.2L2006.85,412.23L2009.32,403.66L2011.79,395.25L2014.26,382.02L2016.72,375.34L2019.19,365.68L2029.07,315.08L2031.54,306.14L2038.94,285.39L2041.41,276.09L2046.35,264.42L2048.81,257.46L2056.22,240.88L2058.69,235.97L2061.16,232.23L2063.63,230.85L2066.09,228.83L2068.56,223.41L2078.44,214.93L2080.9,213.63L2088.31,209.45L2090.78,211.54L2093.25,211.54L2095.72,209.97L2100.65,209.53L2103.12,209.88L2108.06,208.61L2110.53,207.79L2112.99,211.11L2115.46,211.99L2120.4,211.91L2122.87,212.47L2127.8,212.11L2130.27,213.54L2135.21,212.81L2137.68,212.13L2142.62,211.88L2145.08,210L2147.55,209.67L2150.02,207.84L2157.43,200.9L2159.89,200.46L2169.77,187.57L2172.24,182.23L2174.71,180.43L2177.17,176.12L2194.45,137.69L2196.92,133.85L2216.67,88.71L2219.14,85.1L2226.54,73.76L2229.01,70.58L2238.89,61.86L2241.35,61.27L2246.29,61.11L2248.76,61.94L2251.23,62.12L2253.7,63.76L2258.63,69.08L2261.1,72.7L2263.57,75.59L2266.04,80.15L2275.91,104.39L2278.38,112.2L2283.32,131.75L2285.79,144.64L2293.19,177.03L2295.66,193.1L2303.07,244.95L2305.53,261.03L2312.94,326.11L2315.41,351.22L2317.88,376.99L2320.34,391.84L2325.28,425.76L2327.75,446.03L2337.62,522.48L2340.09,532.45L2352.43,596.22L2354.9,604.97L2364.78,633.53L2367.24,639.59L2374.65,650.18L2377.12,651.63L2382.06,653.81L2384.52,654.02L2386.99,654.8L2389.46,651.04L2391.93,650.11L2394.4,647.04L2399.33,639.81L2401.8,634.96L2409.21,618.22L2411.68,611.39L2414.15,603.64L2416.61,599.41L2426.49,558.84L2428.96,554.43L2433.89,536.38L2436.36,523.94L2446.24,477.4L2448.7,469.08L2451.17,465.36L2453.64,455.07L2463.51,408.06L2465.98,400.14L2468.45,395.89L2470.92,385.55L2473.39,380.03L2475.86,371.47L2483.26,344.16L2485.73,338.01L2488.2,333.75L2490.67,325.58L2493.14,323.56L2495.6,317.92L2505.48,292.76L2507.95,287.95L2510.41,284.86L2512.88,277.56L2515.35,277.5L2517.82,272.78L2532.63,247.29L2535.1,247.36L2544.97,233.75L2547.44,229.8L2549.91,227.73L2552.38,227.85L2564.72,215.44L2567.19,214.34L2569.66,213.85L2572.13,212.3L2582,203.99" style="vector-effect: non-scaling-stroke; fill: none; stroke: rgb(170, 0, 0); stroke-opacity: 1; stroke-width: 4px; opacity: 1;"/></g><g class="points"/><g class="text"/></g><g class="trace scatter trace471ec1" style="stroke-miterlimit: 2; opacity: 1;"><g class="fills"/><g class="errorbars"/><g class="lines"><path class="js-line" d="M0,204.27L4.94,201.02L7.41,200.21L12.34,197.83L14.81,196.83L39.5,187.06L41.96,186.4L54.31,182.75L56.77,181.32L59.24,179.55L61.71,179.77L64.18,178.32L66.65,178.38L71.59,179.58L74.05,179.01L76.52,178.09L78.99,182.24L81.46,177.97L83.93,177.71L88.86,177.8L91.33,178.77L98.74,180.59L101.21,193.8L103.67,177.32L106.14,180.95L108.61,181.17L111.08,182.79L113.55,185.71L116.02,186.92L120.95,186.21L123.42,188.47L125.89,178.26L128.36,195.11L130.83,193.33L133.3,196.35L135.76,195.78L138.23,197.27L140.7,202.39L143.17,204.56L148.11,204.13L150.58,207.94L153.04,200.76L155.51,215.63L157.98,216.34L160.45,215.74L162.92,215.2L165.39,219.4L167.85,223.52L170.32,224.98L172.79,225.02L175.26,226.39L177.73,230.71L180.2,240.14L182.67,237.38L185.13,236.24L187.6,237.29L190.07,239.83L197.48,246.65L199.94,247.03L202.41,248.91L204.88,253.86L207.35,253.14L209.82,256.59L219.69,261.76L222.16,261.73L224.63,261.64L227.1,265.32L232.03,269.58L234.5,269.24L236.97,269.82L239.44,271.52L241.91,272.15L244.38,271.61L246.85,271.63L249.31,277.9L256.72,276.98L259.19,278.18L264.12,278.16L266.59,277.78L269.06,281.05L271.53,280.81L276.47,281.7L278.93,282.58L283.87,281.32L286.34,284.22L288.81,283.98L291.28,284.9L296.21,286.59L298.68,286.5L301.15,287.99L303.62,288.12L315.96,293.98L318.43,294.33L338.18,308.53L340.65,311.34L345.58,317.36L348.05,318.51L362.86,339.68L365.33,344.07L372.74,358.1L375.2,360.13L382.61,377.25L385.08,383.24L394.95,403.91L397.42,410.73L402.36,422.85L404.83,426.61L417.17,458.09L419.64,461.84L431.98,489.45L434.45,492.55L444.32,510.3L446.79,512.31L459.13,523.61L461.6,524.09L464.07,525.24L466.54,524.86L473.94,523.31L476.41,521.95L483.82,518.11L486.28,515.58L493.69,506.12L496.16,501.58L498.63,501.07L501.1,495.98L510.97,476.14L513.44,473.3L518.37,462.18L520.84,455.93L528.25,439.7L530.72,438.6L535.65,426.45L538.12,419.58L545.53,403.24L548,401.86L555.4,385.78L557.87,380.11L562.81,369.49L565.28,368.97L570.21,358.64L572.68,353.31L577.62,345.45L580.09,341.08L592.43,320.19L594.9,316.3L599.83,309.64L602.3,306.39L626.99,276.79L629.46,274.29L634.39,271.25L636.86,268.57L644.27,261.59L646.73,261.24L661.54,251.23L664.01,251.04L668.95,248.49L671.42,246.76L673.89,244.57L676.36,243.96L681.29,243.55L683.76,242.51L688.7,241.21L691.17,241.06L696.1,241L698.57,240.57L705.98,240.03L708.45,240.88L713.38,241.03L715.85,241L735.6,247.88L738.07,249.2L743,250.77L745.47,252.62L750.41,255.56L752.88,256.46L757.81,259.71L760.28,261.9L770.16,268.52L772.63,270.57L802.25,291.4L804.72,292.47L817.06,298.89L819.53,300.11L829.4,303.04L831.87,303.52L836.8,304.08L839.27,303.95L846.68,303.44L849.15,302.67L854.08,301.62L856.55,300.65L863.96,296.96L866.43,294.86L871.36,291.26L873.83,289.35L881.24,282.17L883.71,278.69L888.64,272.45L891.11,269.48L898.52,258.5L900.98,253.59L905.92,244.5L908.39,240.46L915.8,225.77L918.26,219.6L925.67,203.07L928.14,197.41L947.89,149.17L950.35,144.48L965.16,113.07L967.63,107.87L979.98,92.5L982.44,89.71L987.38,85.87L989.85,84.5L992.32,82.8L994.79,82.74L1004.66,83.78L1007.13,84.12L1009.6,84.84L1012.07,86.71L1024.41,98.15L1026.88,101.47L1034.28,110L1036.75,114.19L1041.69,118.19L1044.15,122.09L1049.09,129.22L1051.56,132.27L1058.97,141.6L1061.43,143.65L1068.84,151.06L1071.31,152.57L1078.71,158.05L1081.18,158.56L1093.52,162.24L1095.99,162.23L1100.93,162.69L1103.4,162.44L1115.74,161.12L1118.21,160.68L1133.02,159.86L1135.49,160.81L1142.89,161.86L1145.36,163.28L1155.24,169.02L1157.7,171.55L1165.11,179.23L1167.58,183.11L1174.98,195.35L1177.45,200.27L1187.33,221.63L1189.79,228.92L1197.2,246.3L1199.67,255.25L1204.6,272.97L1207.07,279.17L1212.01,299.74L1214.48,312.05L1224.35,348.53L1226.82,361.97L1229.29,374.43L1231.76,376.89L1234.23,391.93L1236.69,413.96L1241.63,459.42L1244.1,474.45L1256.44,534.14L1258.91,547.03L1268.78,590L1271.25,602.66L1273.72,614.65L1276.19,621.42L1281.13,637.12L1283.59,646.06L1288.53,663.88L1291,665.33L1295.94,676.71L1298.41,681.27L1303.34,690.09L1305.81,688.76L1310.75,693.36L1313.22,694.13L1320.62,694.79L1323.09,689.13L1328.03,685.54L1330.5,682.35L1335.43,673.7L1337.9,672.78L1340.37,665.82L1342.84,661.94L1347.77,650.06L1350.24,642.35L1352.71,634.91L1355.18,633.29L1369.99,588.6L1372.46,584.76L1374.93,580.69L1377.4,574.17L1384.8,554.32L1387.27,549.15L1392.21,541.91L1394.67,540.3L1402.08,527.64L1404.55,525.24L1409.49,520.38L1411.95,519.6L1414.42,520.7L1416.89,519.91L1419.36,518.99L1421.83,519.38L1431.7,521.14L1434.17,525.45L1439.11,532.36L1441.58,537.35L1448.98,549.74L1451.45,550.17L1471.2,615.45L1473.67,619.19L1483.54,664.22L1486.01,676L1490.94,693.23L1493.41,696.73L1508.22,738.81L1510.69,741.47L1515.63,748.15L1518.1,750.45L1525.5,755.56L1527.97,755.99L1530.44,755.91L1532.91,754.25L1537.85,747.73L1540.31,743.89L1547.72,733.74L1550.19,728.25L1557.59,702.92L1560.06,689.76L1562.53,680.84L1565,667.94L1569.93,638.77L1572.4,615.1L1577.34,587.49L1579.81,570.53L1589.68,487.52L1592.15,466.77L1594.62,438.85L1597.09,422.47L1602.02,384.5L1604.49,360.33L1624.24,215.8L1626.71,206.52L1636.58,161.2L1639.05,147.8L1641.52,137.18L1643.99,131.59L1651.39,100.03L1653.86,94.53L1671.14,58.61L1673.61,55.72L1678.55,51.14L1681.02,47.91L1683.48,43.94L1685.95,43.2L1688.42,41.31L1690.89,41.16L1698.29,40.06L1700.76,41.65L1703.23,41.15L1705.7,42.67L1713.11,47.22L1715.57,50.32L1718.04,50.63L1720.51,53.69L1725.45,59.05L1727.92,64.25L1730.38,65.79L1732.85,69.04L1737.79,75.05L1740.26,79.16L1747.66,86.99L1750.13,90.67L1755.07,97.9L1757.54,100.62L1779.75,128.6L1782.22,131.47L1789.63,140.47L1792.1,142.53L1799.5,153.12L1801.97,155.66L1806.91,162.47L1809.37,166.98L1816.78,176.36L1819.25,181.7L1826.65,195.01L1829.12,200.39L1839,221.91L1841.46,228.12L1858.74,275.91L1861.21,284.64L1868.62,306.96L1871.09,317.63L1890.83,397L1893.3,407.92L1903.18,447.11L1905.64,456.92L1927.86,525.69L1930.33,530.35L1937.73,544.9L1940.2,547.68L1945.14,552.87L1947.61,555.32L1952.54,557.01L1955.01,556.34L1957.48,556.29L1959.95,554.91L1962.42,553.42L1964.89,550.22L1969.82,545.05L1972.29,541.33L1982.17,514.47L1984.63,504.58L1989.57,490.1L1992.04,480.23L1999.45,451.88L2001.91,439.43L2029.07,312.27L2031.54,304.58L2038.94,279.94L2041.41,271.41L2051.28,245.49L2053.75,242.09L2058.69,232.57L2061.16,228.98L2066.09,222.47L2068.56,220.49L2073.5,214.85L2075.97,213.98L2080.9,211L2083.37,210.33L2088.31,209.42L2090.78,209.12L2098.18,208.26L2100.65,209.2L2117.93,212.29L2120.4,212.58L2132.74,213.53L2135.21,212.72L2145.08,211.19L2147.55,209.39L2162.36,197.05L2164.83,193.33L2169.77,184.65L2172.24,183.4L2182.11,163.04L2184.58,156.65L2187.05,155.62L2189.52,150.04L2199.39,122.79L2201.86,121.92L2209.26,104.48L2211.73,97.41L2214.2,91.93L2216.67,90.35L2221.61,81.23L2224.07,75.32L2238.89,61.49L2241.35,61.35L2251.23,62.42L2253.7,63.59L2261.1,70.51L2263.57,74.51L2275.91,103.61L2278.38,113.34L2283.32,129.74L2285.79,139.6L2295.66,190.85L2298.13,203.66L2305.53,255.72L2308,273.8L2312.94,310.84L2315.41,333.53L2330.22,480.96L2332.69,492.38L2337.62,522.85L2340.09,531.68L2347.5,581.3L2349.97,596.41L2359.84,624.49L2362.31,629.58L2367.24,640.97L2369.71,644.29L2372.18,648.05L2374.65,649.82L2377.12,652.24L2379.59,653.23L2384.52,654.21L2386.99,653.11L2389.46,652.48L2391.93,650.58L2396.87,645.36L2399.33,640.87L2404.27,632.85L2406.74,627.08L2414.15,607.96L2416.61,600.46L2428.96,555.81L2431.42,545.3L2448.7,470.83L2451.17,461.37L2463.51,412.03L2465.98,402.86L2473.39,375.61L2475.86,369.11L2485.73,338.07L2488.2,332.48L2495.6,310.32L2498.07,306.49L2503.01,297.16L2505.48,290.97L2512.88,276.51L2515.35,275.06L2527.69,253.76L2530.16,252.48L2542.5,235.69L2544.97,235.06L2554.85,223.98L2557.32,221.96L2559.78,221.05L2562.25,218.61L2569.66,212.28L2572.13,211.55L2582,204.67" style="vector-effect: non-scaling-stroke; fill: none; stroke: rgb(0, 170, 0); stroke-opacity: 1; stroke-width: 4px; opacity: 1;"/></g><g class="points"/><g class="text"/></g></g></g><g class="overplot"/><path class="xlines-above crisp" d="M0,0" style="fill: none;"/><path class="ylines-above crisp" d="M0,0" style="fill: none;"/><g class="overlines-above"/><g class="xaxislayer-above"><g class="xtick"><text text-anchor="middle" x="0" y="934" transform="translate(160,0)" style="font-family: 'Open Sans', verdana, arial, sans-serif; font-size: 37px; fill: rgb(42, 63, 95); fill-opacity: 1; white-space: pre; opacity: 1;">0</text></g><g class="xtick"><text text-anchor="middle" x="0" y="934" style="font-family: 'Open Sans', verdana, arial, sans-serif; font-size: 37px; fill: rgb(42, 63, 95); fill-opacity: 1; white-space: pre; opacity: 1;" transform="translate(653.69,0)">200</text></g><g class="xtick"><text text-anchor="middle" x="0" y="934" style="font-family: 'Open Sans', verdana, arial, sans-serif; font-size: 37px; fill: rgb(42, 63, 95); fill-opacity: 1; white-space: pre; opacity: 1;" transform="translate(1147.38,0)">400</text></g><g class="xtick"><text text-anchor="middle" x="0" y="934" style="font-family: 'Open Sans', verdana, arial, sans-serif; font-size: 37px; fill: rgb(42, 63, 95); fill-opacity: 1; white-space: pre; opacity: 1;" transform="translate(1641.07,0)">600</text></g><g class="xtick"><text text-anchor="middle" x="0" y="934" style="font-family: 'Open Sans', verdana, arial, sans-serif; font-size: 37px; fill: rgb(42, 63, 95); fill-opacity: 1; white-space: pre; opacity: 1;" transform="translate(2134.76,0)">800</text></g><g class="xtick"><text text-anchor="middle" x="0" y="934" style="font-family: 'Open Sans', verdana, arial, sans-serif; font-size: 37px; fill: rgb(42, 63, 95); fill-opacity: 1; white-space: pre; opacity: 1;" transform="translate(2628.45,0)">1000</text></g></g><g class="yaxislayer-above"><g class="ytick"><text text-anchor="end" x="159" y="12.95" transform="translate(0,872.86)" style="font-family: 'Open Sans', verdana, arial, sans-serif; font-size: 37px; fill: rgb(42, 63, 95); fill-opacity: 1; white-space: pre; opacity: 1;">−200</text></g><g class="ytick"><text text-anchor="end" x="159" y="12.95" style="font-family: 'Open Sans', verdana, arial, sans-serif; font-size: 37px; fill: rgb(42, 63, 95); fill-opacity: 1; white-space: pre; opacity: 1;" transform="translate(0,772.66)">−150</text></g><g class="ytick"><text text-anchor="end" x="159" y="12.95" style="font-family: 'Open Sans', verdana, arial, sans-serif; font-size: 37px; fill: rgb(42, 63, 95); fill-opacity: 1; white-space: pre; opacity: 1;" transform="translate(0,672.47)">−100</text></g><g class="ytick"><text text-anchor="end" x="159" y="12.95" style="font-family: 'Open Sans', verdana, arial, sans-serif; font-size: 37px; fill: rgb(42, 63, 95); fill-opacity: 1; white-space: pre; opacity: 1;" transform="translate(0,572.27)">−50</text></g><g class="ytick"><text text-anchor="end" x="159" y="12.95" style="font-family: 'Open Sans', verdana, arial, sans-serif; font-size: 37px; fill: rgb(42, 63, 95); fill-opacity: 1; white-space: pre; opacity: 1;" transform="translate(0,472.07)">0</text></g><g class="ytick"><text text-anchor="end" x="159" y="12.95" style="font-family: 'Open Sans', verdana, arial, sans-serif; font-size: 37px; fill: rgb(42, 63, 95); fill-opacity: 1; white-space: pre; opacity: 1;" transform="translate(0,371.87)">50</text></g><g class="ytick"><text text-anchor="end" x="159" y="12.95" style="font-family: 'Open Sans', verdana, arial, sans-serif; font-size: 37px; fill: rgb(42, 63, 95); fill-opacity: 1; white-space: pre; opacity: 1;" transform="translate(0,271.66999999999996)">100</text></g><g class="ytick"><text text-anchor="end" x="159" y="12.95" style="font-family: 'Open Sans', verdana, arial, sans-serif; font-size: 37px; fill: rgb(42, 63, 95); fill-opacity: 1; white-space: pre; opacity: 1;" transform="translate(0,171.48000000000002)">150</text></g></g><g class="overaxes-above"/></g></g><g class="polarlayer"/><g class="ternarylayer"/><g class="geolayer"/><g class="funnelarealayer"/><g class="pielayer"/><g class="iciclelayer"/><g class="treemaplayer"/><g class="sunburstlayer"/><g class="glimages"/><defs id="topdefs-75ba2f"><g class="clips"/><clipPath id="legend75ba2f"><rect width="694" height="113" x="0" y="0"/></clipPath></defs><g class="layer-above"><g class="imagelayer"/><g class="shapelayer"/></g><g class="infolayer"><g class="legend" pointer-events="all" transform="translate(2793.64,100)"><rect class="bg" shape-rendering="crispEdges" width="694" height="113" x="0" y="0" style="stroke: rgb(68, 68, 68); stroke-opacity: 1; fill: rgb(255, 255, 255); fill-opacity: 1; stroke-width: 0px;"/><g class="scrollbox" transform="" clip-path="url(#legend75ba2f)"><g class="groups"><g class="traces" transform="translate(0,30.55)" style="opacity: 1;"><text class="legendtext" text-anchor="start" x="40" y="14.43" style="font-family: 'Open Sans', verdana, arial, sans-serif; font-size: 37px; fill: rgb(42, 63, 95); fill-opacity: 1; white-space: pre;">Predicted Curvature at Anchors #1</text><g class="layers" style="opacity: 1;"><g class="legendfill"/><g class="legendlines"><path class="js-line" d="M5,0h30" style="fill: none; stroke: rgb(170, 0, 0); stroke-opacity: 1; stroke-width: 4px;"/></g><g class="legendsymbols"><g class="legendpoints"/></g></g><rect class="legendtoggle" x="0" y="-25.55" width="688.125" height="51.1" style="fill: rgb(0, 0, 0); fill-opacity: 0;"/></g><g class="traces" transform="translate(0,81.65)" style="opacity: 1;"><text class="legendtext" text-anchor="start" x="40" y="14.43" style="font-family: 'Open Sans', verdana, arial, sans-serif; font-size: 37px; fill: rgb(42, 63, 95); fill-opacity: 1; white-space: pre;">Predicted Curvature at Anchors #2</text><g class="layers" style="opacity: 1;"><g class="legendfill"/><g class="legendlines"><path class="js-line" d="M5,0h30" style="fill: none; stroke: rgb(0, 170, 0); stroke-opacity: 1; stroke-width: 4px;"/></g><g class="legendsymbols"><g class="legendpoints"/></g></g><rect class="legendtoggle" x="0" y="-25.55" width="688.125" height="51.1" style="fill: rgb(0, 0, 0); fill-opacity: 0;"/></g></g></g><rect class="scrollbar" rx="20" ry="3" width="0" height="0" x="0" y="0" style="fill: rgb(128, 139, 164); fill-opacity: 1;"/></g><g class="g-gtitle"/><g class="g-xtitle"><text class="xtitle" x="1451" y="987.8" text-anchor="middle" style="font-family: 'Open Sans', verdana, arial, sans-serif; font-size: 44px; fill: rgb(42, 63, 95); opacity: 1; font-weight: normal; white-space: pre;">Anchor Point Index</text></g><g class="g-ytitle" transform="translate(31.6591796875,0)"><text class="ytitle" transform="rotate(-90,12.340624999999989,498)" x="12.340624999999989" y="498" text-anchor="middle" style="font-family: 'Open Sans', verdana, arial, sans-serif; font-size: 44px; fill: rgb(42, 63, 95); opacity: 1; font-weight: normal; white-space: pre;">Predicted Curvature</text></g><g class="annotation" data-index="0" style="opacity: 1;"><g class="annotation-text-g" transform="rotate(0,1451,75.49999999999994)"><g class="cursor-pointer" transform="translate(585,51)"><rect class="bg" x="0.5" y="0.5" width="1732" height="48" style="stroke-width: 1px; stroke: rgb(0, 0, 0); stroke-opacity: 0; fill: rgb(0, 0, 0); fill-opacity: 0;"/><text class="annotation-text" text-anchor="middle" x="866.546875" y="39" style="font-family: 'Open Sans', verdana, arial, sans-serif; font-size: 37px; fill: rgb(42, 63, 95); fill-opacity: 1; white-space: pre;"><tspan style="font-weight:bold">Predicted Curvature at Anchors (Transformed Curve #1 vs. Transformed Curve #2)</tspan></text></g></g></g></g></svg>