<svg class="main-svg" xmlns="http://www.w3.org/2000/svg" xmlns:xlink="http://www.w3.org/1999/xlink" width="3500" height="1000" style="" viewBox="0 0 3500 1000"><rect x="0" y="0" width="3500" height="1000" style="fill: rgb(255, 255, 255); fill-opacity: 1;"/><defs id="defs-581804"><g class="clips"><clipPath id="clip581804xyplot" class="plotclip"><rect width="2582" height="796"/></clipPath><clipPath class="axesclip" id="clip581804x"><rect x="160" y="0" width="2582" height="1000"/></clipPath><clipPath class="axesclip" id="clip581804y"><rect x="0" y="100" width="3500" height="796"/></clipPath><clipPath class="axesclip" id="clip581804xy"><rect x="160" y="100" width="2582" height="796"/></clipPath></g><g class="gradients"/><g class="patterns"/></defs><g class="bglayer"><rect class="bg" x="160" y="100" width="2582" height="796" style="fill: rgb(229, 236, 246); fill-opacity: 1; stroke-width: 0;"/></g><g class="layer-below"><g class="imagelayer"/><g class="shapelayer"/></g><g class="cartesianlayer"><g class="subplot xy"><g class="layer-subplot"><g class="shapelayer"/><g class="imagelayer"/></g><g class="gridlayer"><g class="x"><path class="xgrid crisp" transform="translate(642.62,0)" d="M0,100v796" style="stroke: rgb(255, 255, 255); stroke-opacity: 1; stroke-width: 1px;"/><path class="xgrid crisp" transform="translate(1125.23,0)" d="M0,100v796" style="stroke: rgb(255, 255, 255); stroke-opacity: 1; stroke-width: 1px;"/><path class="xgrid crisp" transform="translate(1607.85,0)" d="M0,100v796" style="stroke: rgb(255, 255, 255); stroke-opacity: 1; stroke-width: 1px;"/><path class="xgrid crisp" transform="translate(2090.4700000000003,0)" d="M0,100v796" style="stroke: rgb(255, 255, 255); stroke-opacity: 1; stroke-width: 1px;"/><path class="xgrid crisp" transform="translate(2573.08,0)" d="M0,100v796" style="stroke: rgb(255, 255, 255); stroke-opacity: 1; stroke-width: 1px;"/></g><g class="y"><path class="ygrid crisp" transform="translate(0,828.79)" d="M160,0h2582" style="stroke: rgb(255, 255, 255); stroke-opacity: 1; stroke-width: 1px;"/><path class="ygrid crisp" transform="translate(0,747.31)" d="M160,0h2582" style="stroke: rgb(255, 255, 255); stroke-opacity: 1; stroke-width: 1px;"/><path class="ygrid crisp" transform="translate(0,665.83)" d="M160,0h2582" style="stroke: rgb(255, 255, 255); stroke-opacity: 1; stroke-width: 1px;"/><path class="ygrid crisp" transform="translate(0,584.35)" d="M160,0h2582" style="stroke: rgb(255, 255, 255); stroke-opacity: 1; stroke-width: 1px;"/><path class="ygrid crisp" transform="translate(0,421.39)" d="M160,0h2582" style="stroke: rgb(255, 255, 255); stroke-opacity: 1; stroke-width: 1px;"/><path class="ygrid crisp" transform="translate(0,339.90999999999997)" d="M160,0h2582" style="stroke: rgb(255, 255, 255); stroke-opacity: 1; stroke-width: 1px;"/><path class="ygrid crisp" transform="translate(0,258.43)" d="M160,0h2582" style="stroke: rgb(255, 255, 255); stroke-opacity: 1; stroke-width: 1px;"/><path class="ygrid crisp" transform="translate(0,176.95)" d="M160,0h2582" style="stroke: rgb(255, 255, 255); stroke-opacity: 1; stroke-width: 1px;"/></g></g><g class="zerolinelayer"><path class="xzl zl crisp" transform="translate(160,0)" d="M0,100v796" style="stroke: rgb(255, 255, 255); stroke-opacity: 1; stroke-width: 2px;"/><path class="yzl zl crisp" transform="translate(0,502.87)" d="M160,0h2582" style="stroke: rgb(255, 255, 255); stroke-opacity: 1; stroke-width: 2px;"/></g><path class="xlines-below"/><path class="ylines-below"/><g class="overlines-below"/><g class="xaxislayer-below"/><g class="yaxislayer-below"/><g class="overaxes-below"/><g class="plot" transform="translate(160,100)" clip-path="url(#clip581804xyplot)"><g class="scatterlayer mlayer"><g class="trace scatter tracede58eb" style="stroke-miterlimit: 2; opacity: 1;"><g class="fills"/><g class="errorbars"/><g class="lines"><path class="js-line" d="M0,140.58L4.83,139.64L7.24,139.16L9.65,136.91L12.07,142.68L14.48,152.63L16.89,153.85L19.3,154.96L21.72,166.91L24.13,158.57L26.54,158.15L28.96,157.09L31.37,160.06L33.78,166.75L36.2,176.73L38.61,190.61L41.02,170.67L43.44,209.43L45.85,214.8L53.09,233.61L55.5,240.93L60.33,252.18L62.74,264.08L65.15,263.45L67.57,266.26L77.22,283.94L79.63,285.77L82.04,286.94L84.46,291.82L89.28,294.37L91.7,295.69L96.52,296.65L98.94,295.7L101.35,294.19L103.76,293.92L106.18,295.66L108.59,293.45L113.41,288.7L115.83,285.47L123.07,274.47L125.48,275.51L142.37,241.79L144.79,240.54L156.85,214.52L159.26,212.82L171.33,195.87L173.74,195.5L183.39,191.14L185.81,192.29L190.63,190.45L193.05,190.75L197.87,193.44L200.29,196.59L209.94,219.53L212.35,224.22L217.18,233.37L219.59,238.96L222,243.92L224.42,252.61L236.48,290.04L238.9,296.64L246.13,324.35L248.55,332.15L253.37,345.12L255.79,351.47L267.85,390.23L270.27,396.37L277.5,412.29L279.92,418.84L287.16,437.08L289.57,441.86L294.4,451.51L296.81,459.04L308.87,490.38L311.29,494.36L316.11,504.6L318.53,510.12L342.66,578.07L345.07,585.52L349.9,600.05L352.31,607.5L357.14,621.69L359.55,628.95L364.38,642.13L366.79,649.02L371.61,660.68L374.03,666.93L378.85,676.8L381.27,682.1L383.68,685.43L386.09,690.6L388.51,695.37L390.92,697.69L393.33,701.72L395.75,703.7L400.57,706.51L402.99,708.51L407.81,711.43L410.22,710.41L415.05,710.74L417.46,709.98L424.7,707.55L427.12,705.31L431.94,701.61L434.36,695.66L436.77,693.97L439.18,691L448.83,676.45L451.25,672.96L456.07,661.92L458.49,655.58L460.9,652.84L463.31,646.41L468.14,635.7L470.55,628.36L472.96,621.61L475.38,618.89L489.86,580.14L492.27,578.58L494.68,571.27L497.1,569.12L509.16,537.84L511.57,532.66L513.99,531.14L516.4,528.37L530.88,495.45L533.29,493.22L535.7,490.14L538.12,484.97L545.36,470.42L547.77,467.46L552.6,459.33L555.01,456.94L567.07,435.06L569.49,432.97L571.9,424.75L574.31,425.43L581.55,410.26L583.97,404.37L588.79,394.66L591.21,384.89L593.62,384.3L596.03,378.38L603.27,351.99L605.68,341.57L608.1,336.3L610.51,327.04L615.34,301.95L617.75,289.9L622.58,270.99L624.99,255.69L637.05,178.06L639.47,168.04L644.29,138.67L646.71,130.09L651.53,102.64L653.95,94.76L658.77,71.75L661.19,66.94L668.42,51.34L670.84,48.58L673.25,45.75L675.66,44.59L678.08,44.16L680.49,45.79L682.9,47.51L685.32,53.91L690.14,52.66L692.56,56.81L694.97,57.04L697.38,74.72L702.21,82.05L704.62,87.14L707.03,95.18L709.45,107.08L711.86,110.91L714.27,127.6L719.1,143.18L721.51,153.74L726.34,178.39L728.75,182.81L731.16,198.07L733.58,206.13L745.64,249.01L748.06,255.88L750.47,262.2L752.88,265.16L757.71,274.87L760.12,281.15L762.53,286.06L764.95,288.69L767.36,290.01L769.77,292.84L772.19,293.56L774.6,296.28L781.84,301.43L784.25,304.04L786.67,305.6L789.08,305.8L793.9,306.65L796.32,304.29L798.73,306.23L801.14,306.82L805.97,306.74L808.38,307.36L813.21,306.04L815.62,306.94L820.45,302.38L822.86,302.63L827.69,302L830.1,301.26L834.93,300.23L837.34,298.74L839.75,298.6L842.17,293.71L844.58,295.17L846.99,293.93L863.88,288.94L866.3,290.35L868.71,286.87L871.12,288.05L875.95,284.96L878.36,285.27L883.19,286.07L885.6,285.44L890.43,284.34L892.84,286.17L895.25,281.14L897.67,297.08L902.49,287.79L904.91,288.37L909.73,294.24L912.15,292.48L916.97,289.93L919.39,284.47L921.8,300.6L924.21,304.85L926.62,316.39L929.04,311.61L931.45,312.21L933.86,314.3L936.28,316.24L938.69,316.52L941.1,317.11L943.52,321.09L948.34,332.45L950.76,331.82L955.58,334.99L957.99,341.37L965.23,349.51L967.65,353.24L979.71,369.17L982.13,373.42L984.54,374.39L986.95,377.19L996.6,395.39L999.02,398.42L1003.84,402.02L1006.26,415.41L1008.67,411.9L1011.08,415.03L1015.91,424.96L1018.32,430.72L1023.15,440.39L1025.56,443.79L1027.97,454.85L1030.39,454.58L1037.63,473.8L1040.04,481.08L1044.87,493.45L1047.28,503.87L1049.69,504.14L1052.1,511.28L1064.17,553.36L1066.58,556.86L1073.82,581.47L1076.24,590.5L1085.89,613.9L1088.3,620.52L1090.71,626.87L1093.13,629.05L1100.37,640.55L1102.78,644.07L1105.19,647.25L1107.61,647.41L1110.02,650.06L1112.43,650.59L1117.26,651.51L1119.67,649.78L1122.08,649.63L1124.5,647.8L1129.32,642.6L1131.74,638.63L1136.56,631.19L1138.98,625.69L1148.63,599.92L1151.04,591.47L1163.11,543.5L1165.52,531.72L1187.24,428.71L1189.65,415.75L1199.3,368.19L1201.72,358.95L1211.37,317.87L1213.78,311.16L1218.61,297.02L1221.02,288.47L1225.85,271.9L1228.26,266.29L1242.74,223.19L1245.15,218.58L1257.22,194.04L1259.63,190.88L1269.28,175.72L1271.7,173.4L1281.35,164.49L1283.76,163.09L1288.59,160.39L1291,159.8L1298.24,158.22L1300.65,158.29L1310.3,160.23L1312.72,162.19L1315.13,162.38L1317.54,163.88L1322.37,165.69L1324.78,168.96L1327.2,169.07L1329.61,170.93L1339.26,177.43L1341.67,177.54L1356.15,185.23L1358.57,185.45L1368.22,186.94L1370.63,186.31L1375.46,185.31L1377.87,184.67L1385.11,182.01L1387.52,180.33L1392.35,178.33L1394.76,177.22L1402,171.34L1404.41,169.17L1414.07,163.14L1416.48,160.26L1433.37,153.64L1435.79,153.73L1440.61,153L1443.02,153.92L1450.26,156.37L1452.68,158.42L1455.09,158.48L1457.5,161.27L1464.74,170.73L1467.16,175.91L1469.57,177.76L1471.98,182.41L1479.22,199.07L1481.63,206.16L1484.05,213.14L1486.46,215.14L1493.7,239.7L1496.11,250.69L1500.94,272.18L1503.35,277.76L1508.18,302.9L1510.59,318.09L1513,334.57L1515.42,343.58L1522.66,383.83L1525.07,399.41L1532.31,439.3L1534.72,446.42L1549.2,518.27L1551.61,524.26L1561.27,563.11L1563.68,567.11L1570.92,584.94L1573.33,590.51L1578.16,601.1L1580.57,602.11L1587.81,610.82L1590.22,613.32L1595.05,617.52L1597.46,616.11L1599.87,618.19L1602.29,617.95L1609.53,616.83L1611.94,614.71L1616.77,612.05L1619.18,609.59L1626.42,600.01L1628.83,596.01L1631.24,594.84L1633.66,590.11L1643.31,570.51L1645.72,566.35L1655.38,543.08L1657.79,536.77L1660.2,531.3L1662.61,529.09L1686.75,468.47L1689.16,464.79L1693.99,457.32L1696.4,452.66L1706.05,434.49L1708.46,433.99L1715.7,421.26L1718.12,416.66L1722.94,412.86L1725.36,409.55L1730.18,403.78L1732.59,401.38L1737.42,395.45L1739.83,393.43L1747.07,388.39L1749.49,386.78L1754.31,384.32L1756.73,383.24L1759.14,383.18L1761.55,381.8L1771.2,379.78L1773.62,379.4L1790.51,379.25L1792.92,379.63L1800.16,380.65L1802.57,381.1L1829.12,384.64L1831.53,384.94L1841.18,385.77L1843.6,385.8L1858.07,385.56L1860.49,385.22L1877.38,382.38L1879.79,381.67L1896.68,376.06L1899.1,374.84L1915.99,365.83L1918.4,363.86L1928.05,357.07L1930.47,354.27L1937.71,345.02L1940.12,343.66L1947.36,330.82L1949.77,325.86L1952.19,321.75L1954.6,319.79L1961.84,301.18L1964.25,292.91L1966.66,285.53L1969.08,281.4L1973.9,263.91L1976.32,251.25L1988.38,195.06L1990.79,182.57L1998.03,150.75L2000.45,138.35L2005.27,115.58L2007.69,107.8L2017.34,72.8L2019.75,68.46L2024.58,59.26L2026.99,50.14L2029.4,46.85L2031.82,45.31L2034.23,43.35L2036.64,39.8L2039.06,42.24L2041.47,43.23L2043.88,42.14L2046.3,42.48L2055.95,57.32L2058.36,69.76L2060.77,75.62L2063.19,85.44L2070.43,109.8L2072.84,125.24L2075.25,141.03L2077.67,141.26L2087.32,197.67L2089.73,207.81L2094.56,235.33L2096.97,242.78L2106.62,275.32L2109.04,283.34L2113.86,295.53L2116.27,301.29L2125.93,324.18L2128.34,326.87L2133.17,334.61L2135.58,338.66L2140.41,346.64L2142.82,348.97L2147.64,353.84L2150.06,356.96L2159.71,367.7L2162.12,367.76L2174.19,379.22L2176.6,382.35L2179.01,382.28L2181.43,384.77L2191.08,395.17L2193.49,395.87L2200.73,402.76L2203.15,405.34L2207.97,410.61L2210.39,411.17L2217.62,420.71L2220.04,423.99L2232.1,442.33L2234.52,446.91L2241.76,459.15L2244.17,465.31L2251.41,485.52L2253.82,488.55L2261.06,513.34L2263.47,523.76L2265.89,534L2268.3,539.43L2273.13,561.13L2275.54,575.06L2280.36,598.82L2282.78,610.1L2292.43,658.66L2294.84,669.12L2302.08,700.02L2304.5,707.99L2309.32,720.68L2311.73,728.15L2321.39,747.58L2323.8,750.33L2331.04,754.04L2333.45,754.28L2335.87,756.2L2338.28,753.4L2340.69,751.43L2343.1,750.98L2345.52,749.91L2347.93,741.83L2352.76,734.1L2355.17,728.58L2357.58,723.73L2360,715.87L2367.24,689.64L2369.65,676.1L2374.47,657.03L2376.89,645.52L2388.95,586.42L2391.37,572L2405.84,513.71L2408.26,506.14L2417.91,479.53L2420.32,474.97L2432.39,451.37L2434.8,446.83L2444.45,432.26L2446.87,428.85L2456.52,415.82L2458.93,413.13L2475.82,389.8L2478.24,385.7L2480.65,382.83L2483.06,378.39L2485.48,375.37L2487.89,370.3L2497.54,348.87L2499.96,342.82L2514.43,300.97L2516.85,291.96L2524.09,267.56L2526.5,256.84L2531.33,238.47L2533.74,236.06L2543.39,198.89L2545.8,191.31L2550.63,160.44L2553.04,156.21L2562.7,140.67L2565.11,155.35L2567.52,142.11L2569.93,156.64L2574.76,139.12L2577.17,135.65L2582,141.93" style="vector-effect: non-scaling-stroke; fill: none; stroke: rgb(170, 0, 0); stroke-opacity: 1; stroke-width: 4px; opacity: 1;"/></g><g class="points"/><g class="text"/></g><g class="trace scatter trace89e3c0" style="stroke-miterlimit: 2; opacity: 1;"><g class="fills"/><g class="errorbars"/><g class="lines"><path class="js-line" d="M0,134.53L4.83,136.08L7.24,137.98L14.48,144.9L16.89,148.95L19.3,151.13L21.72,154.93L31.37,177.93L33.78,179.76L41.02,200.51L43.44,210.39L53.09,234.83L55.5,243.7L69.98,274.79L72.39,277.93L79.63,289.14L82.04,291.59L89.28,296.92L91.7,298.11L98.94,298.66L101.35,298.14L106.18,295.66L108.59,294.13L118.24,283.56L120.65,280.15L127.89,269.63L130.31,264.77L154.44,218.28L156.85,216.01L166.5,200.66L168.92,199.29L178.57,192L180.98,191.79L183.39,191.21L185.81,191.93L190.63,192.64L193.05,196.78L195.46,196.41L197.87,199.5L205.11,209.83L207.53,215.86L209.94,216.44L212.35,221.58L219.59,239.94L222,246.9L224.42,255.55L226.83,257.18L238.9,299.38L241.31,304.49L255.79,353.81L258.2,355.62L270.27,395.8L272.68,398.13L279.92,417.45L282.33,425.87L284.74,430.1L287.16,431.87L299.22,464.51L301.64,470.2L311.29,492.35L313.7,500.93L318.53,516.18L320.94,519.05L333.01,553.1L335.42,559.16L337.83,561.99L340.24,570.42L349.9,605.1L352.31,611.02L354.72,612.44L357.14,619.66L369.2,656.33L371.61,661.54L374.03,663.6L376.44,668.69L388.51,697.42L390.92,699.88L405.4,707.26L407.81,711.29L410.22,712.71L412.64,712.34L417.46,710.03L419.88,708.09L422.29,706.48L424.7,708.54L427.12,707.42L429.53,705.07L436.77,694.63L439.18,694.96L441.59,688.68L444.01,685.69L448.83,676.21L451.25,670.5L453.66,668.71L456.07,663.02L460.9,653.26L463.31,646.9L468.14,635.06L470.55,631.34L482.62,600.77L485.03,595.21L494.68,570.92L497.1,568.87L509.16,540.36L511.57,534.97L518.81,519L521.23,515.72L528.47,499.6L530.88,495.87L533.29,493.04L535.7,488.58L545.36,470.08L547.77,469.29L559.84,446.21L562.25,445.33L574.31,420.82L576.73,419.44L586.38,396.03L588.79,390.08L591.21,387.81L593.62,381.11L603.27,347.33L605.68,344.03L612.92,309.85L615.34,296L617.75,283.5L620.16,278.71L627.4,233.08L629.81,213.69L632.23,199.31L634.64,193.9L641.88,150.85L644.29,133.58L649.12,114.19L651.53,105.18L661.19,65.46L663.6,60.28L673.25,47.77L675.66,45.27L680.49,43.36L682.9,44.19L685.32,48.06L687.73,47.59L690.14,54.24L692.56,56.36L694.97,60.62L697.38,68.86L699.79,72.27L702.21,86.85L704.62,91.69L707.03,98.92L716.69,136.65L719.1,145.14L726.34,175.93L728.75,184.92L740.82,233.94L743.23,241.38L750.47,261.79L752.88,266.8L762.53,285.81L764.95,287.88L769.77,293.12L772.19,296.61L774.6,298.35L777.01,298.37L781.84,301.23L784.25,303.95L786.67,306.95L789.08,308.11L793.9,307.96L796.32,309.35L805.97,309.41L808.38,309.07L825.27,305.34L827.69,304.36L842.17,298.45L844.58,297.38L854.23,293.29L856.64,292.14L871.12,287.23L873.54,286.84L880.78,285.49L883.19,285.14L897.67,286.65L900.08,287.45L904.91,289.24L907.32,290.88L912.15,293.23L914.56,295.3L929.04,306.1L931.45,308.93L938.69,316.15L941.1,319.16L957.99,339.75L960.41,343.08L967.65,353.71L970.06,356.12L982.13,374.55L984.54,376.23L996.6,396.79L999.02,398.86L1011.08,421.46L1013.5,423.96L1020.73,439.33L1023.15,444.87L1027.97,454.89L1030.39,456.88L1037.63,476.65L1040.04,483.63L1044.87,497.55L1047.28,499.23L1054.52,523.55L1056.93,531.93L1061.76,547.2L1064.17,549.8L1078.65,595.66L1081.06,600.03L1090.71,627.4L1093.13,628.84L1100.37,640.57L1102.78,643.74L1107.61,648.84L1110.02,647.38L1112.43,650.59L1114.84,650.85L1122.08,649.23L1124.5,645.94L1126.91,645.61L1129.32,642.76L1136.56,629.62L1138.98,624.6L1141.39,620.82L1143.8,614.49L1155.87,575.15L1158.28,565.42L1177.59,475.73L1180,461.93L1189.65,414.42L1192.06,399.8L1196.89,380.72L1199.3,370.75L1208.96,329.07L1211.37,323.98L1221.02,285.83L1223.43,279.96L1235.5,242.51L1237.91,239.75L1247.56,212.2L1249.98,208.92L1259.63,188.32L1262.04,186.44L1269.28,176.19L1271.7,172.54L1276.52,168.63L1278.93,167.18L1283.76,161.89L1286.17,161.78L1288.59,160.31L1291,160.27L1298.24,158.32L1300.65,158.93L1303.07,158.08L1305.48,159.31L1310.3,159.95L1312.72,162.2L1315.13,162.33L1317.54,163.98L1324.78,167.95L1327.2,169.56L1329.61,169.75L1332.02,171.89L1346.5,181.19L1348.91,182.26L1358.57,185.69L1360.98,186.14L1365.81,187.26L1368.22,186.32L1373.04,186.7L1375.46,186.04L1380.28,184.28L1382.7,184.01L1387.52,181.59L1389.94,179.87L1394.76,175.85L1397.18,175.74L1402,172.45L1404.41,170.27L1409.24,165.67L1411.65,165.15L1416.48,161.59L1418.89,158.89L1421.31,158.64L1423.72,157.15L1428.55,155.53L1430.96,154.39L1433.37,153.22L1435.79,153.38L1445.44,154.19L1447.85,154.82L1459.92,164.26L1462.33,168.32L1467.16,174.24L1469.57,178.1L1481.63,201.8L1484.05,208.46L1496.11,249.78L1498.53,260.96L1505.76,294.72L1508.18,305.96L1527.48,411.58L1529.9,427.96L1537.13,461.17L1539.55,473.58L1546.79,508.84L1549.2,517.63L1558.85,556.76L1561.27,560.99L1573.33,591.6L1575.74,597.08L1578.16,598.44L1580.57,601.92L1592.64,616.48L1595.05,615.14L1597.46,617.34L1599.87,617.76L1609.53,616.65L1611.94,613.52L1614.35,613.8L1616.77,611.74L1631.24,594.39L1633.66,590.3L1643.31,569.53L1645.72,563.96L1648.14,559.17L1650.55,558.51L1662.61,524.89L1665.03,521.08L1672.27,504.75L1674.68,498.38L1684.33,474.08L1686.75,473.72L1698.81,445.82L1701.22,443.72L1718.12,416.53L1720.53,414.54L1722.94,411.26L1725.36,410.7L1737.42,396.32L1739.83,394.5L1742.25,394.15L1744.66,391.67L1756.73,384.11L1759.14,383.32L1778.44,379.23L1780.86,379.3L1783.27,380.44L1785.68,379.06L1790.51,379.13L1792.92,379.58L1800.16,379.75L1802.57,381.81L1804.99,380.6L1807.4,381.15L1824.29,384.07L1826.7,384.33L1841.18,385.79L1843.6,385.88L1867.73,384.45L1870.14,383.68L1882.21,381.47L1884.62,380.3L1891.86,377.93L1894.27,377.06L1906.34,371.41L1908.75,370.21L1923.23,361.03L1925.64,358.19L1942.53,341.01L1944.95,337.85L1949.77,327.02L1952.19,317.54L1954.6,310.92L1957.01,307.23L1964.25,293.21L1966.66,287.47L1978.73,241.42L1981.14,230.01L1985.97,210.65L1988.38,198.25L1993.21,173.75L1995.62,162.81L2005.27,117.99L2007.69,110.36L2017.34,77.28L2019.75,71.27L2024.58,54.75L2026.99,51.06L2031.82,47.35L2034.23,43.58L2036.64,41.11L2039.06,41.91L2043.88,42.85L2046.3,45L2048.71,48.12L2051.12,54.21L2055.95,62.18L2058.36,72.79L2060.77,78.58L2063.19,90.43L2065.6,91.38L2068.01,100.54L2072.84,123.18L2075.25,137.41L2087.32,190.61L2089.73,203.65L2092.14,219.08L2094.56,226.14L2106.62,276L2109.04,282.35L2116.27,303.02L2118.69,308.38L2133.17,335.62L2135.58,339.03L2142.82,348.58L2145.23,351.14L2154.88,362.28L2157.3,364.67L2164.54,371.73L2166.95,373.56L2191.08,393.97L2193.49,396.35L2212.8,415.54L2215.21,418.69L2217.62,421.03L2220.04,424.85L2224.86,431.57L2227.28,434.66L2244.17,464.43L2246.58,470.98L2253.82,493.36L2256.23,496.59L2263.47,526.6L2265.89,537.98L2268.3,547.63L2270.71,552.6L2280.36,604.43L2282.78,617.36L2285.19,628.24L2287.6,630.99L2292.43,651.19L2294.84,663.85L2302.08,700.61L2304.5,699.65L2306.91,701.62L2309.32,714.52L2311.73,728.69L2314.15,731.68L2318.97,746.73L2321.39,752.69L2323.8,756.09L2326.21,750.25L2331.04,753.12L2333.45,754.58L2335.87,755.06L2338.28,754.09L2340.69,752.52L2343.1,746.27L2347.93,744.41L2350.34,740.95L2355.17,726.39L2357.58,718.84L2360,719.58L2362.41,708.84L2367.24,692.25L2369.65,681.67L2374.47,653.47L2376.89,654.09L2379.3,636.71L2381.71,626.78L2388.95,585.69L2391.37,571.65L2396.19,557.81L2398.61,545.86L2405.84,513.52L2408.26,508.98L2415.5,486.5L2417.91,478.99L2425.15,463.93L2427.56,461.28L2437.21,442.1L2439.63,439.59L2444.45,433.76L2446.87,430.25L2454.11,418.21L2456.52,416.15L2458.93,414.54L2461.35,409.82L2463.76,407.6L2466.17,403.06L2471,394.91L2473.41,392.23L2475.82,385.72L2478.24,386.79L2480.65,383.64L2483.06,378.58L2490.3,364.44L2492.72,361.4L2495.13,352.63L2497.54,352.72L2507.19,324.46L2509.61,317.17L2512.02,305.73L2514.43,306.45L2526.5,258.63L2528.91,247.19L2531.33,246.41L2533.74,236.45L2540.98,208.33L2543.39,200.71L2550.63,181.04L2553.04,174.2L2562.7,151.3L2565.11,148.17L2569.93,141.43L2572.35,139.32L2579.59,134.34L2582,136.91" style="vector-effect: non-scaling-stroke; fill: none; stroke: rgb(0, 170, 0); stroke-opacity: 1; stroke-width: 4px; opacity: 1;"/></g><g class="points"/><g class="text"/></g></g></g><g class="overplot"/><path class="xlines-above crisp" d="M0,0" style="fill: none;"/><path class="ylines-above crisp" d="M0,0" style="fill: none;"/><g class="overlines-above"/><g class="xaxislayer-above"><g class="xtick"><text text-anchor="middle" x="0" y="934" transform="translate(160,0)" style="font-family: 'Open Sans', verdana, arial, sans-serif; font-size: 37px; fill: rgb(42, 63, 95); fill-opacity: 1; white-space: pre; opacity: 1;">0</text></g><g class="xtick"><text text-anchor="middle" x="0" y="934" style="font-family: 'Open Sans', verdana, arial, sans-serif; font-size: 37px; fill: rgb(42, 63, 95); fill-opacity: 1; white-space: pre; opacity: 1;" transform="translate(642.62,0)">200</text></g><g class="xtick"><text text-anchor="middle" x="0" y="934" style="font-family: 'Open Sans', verdana, arial, sans-serif; font-size: 37px; fill: rgb(42, 63, 95); fill-opacity: 1; white-space: pre; opacity: 1;" transform="translate(1125.23,0)">400</text></g><g class="xtick"><text text-anchor="middle" x="0" y="934" style="font-family: 'Open Sans', verdana, arial, sans-serif; font-size: 37px; fill: rgb(42, 63, 95); fill-opacity: 1; white-space: pre; opacity: 1;" transform="translate(1607.85,0)">600</text></g><g class="xtick"><text text-anchor="middle" x="0" y="934" style="font-family: 'Open Sans', verdana, arial, sans-serif; font-size: 37px; fill: rgb(42, 63, 95); fill-opacity: 1; white-space: pre; opacity: 1;" transform="translate(2090.4700000000003,0)">800</text></g><g class="xtick"><text text-anchor="middle" x="0" y="934" style="font-family: 'Open Sans', verdana, arial, sans-serif; font-size: 37px; fill: rgb(42, 63, 95); fill-opacity: 1; white-space: pre; opacity: 1;" transform="translate(2573.08,0)">1000</text></g></g><g class="yaxislayer-above"><g class="ytick"><text text-anchor="end" x="159" y="12.95" transform="translate(0,828.79)" style="font-family: 'Open Sans', verdana, arial, sans-serif; font-size: 37px; fill: rgb(42, 63, 95); fill-opacity: 1; white-space: pre; opacity: 1;">−200</text></g><g class="ytick"><text text-anchor="end" x="159" y="12.95" style="font-family: 'Open Sans', verdana, arial, sans-serif; font-size: 37px; fill: rgb(42, 63, 95); fill-opacity: 1; white-space: pre; opacity: 1;" transform="translate(0,747.31)">−150</text></g><g class="ytick"><text text-anchor="end" x="159" y="12.95" style="font-family: 'Open Sans', verdana, arial, sans-serif; font-size: 37px; fill: rgb(42, 63, 95); fill-opacity: 1; white-space: pre; opacity: 1;" transform="translate(0,665.83)">−100</text></g><g class="ytick"><text text-anchor="end" x="159" y="12.95" style="font-family: 'Open Sans', verdana, arial, sans-serif; font-size: 37px; fill: rgb(42, 63, 95); fill-opacity: 1; white-space: pre; opacity: 1;" transform="translate(0,584.35)">−50</text></g><g class="ytick"><text text-anchor="end" x="159" y="12.95" style="font-family: 'Open Sans', verdana, arial, sans-serif; font-size: 37px; fill: rgb(42, 63, 95); fill-opacity: 1; white-space: pre; opacity: 1;" transform="translate(0,502.87)">0</text></g><g class="ytick"><text text-anchor="end" x="159" y="12.95" style="font-family: 'Open Sans', verdana, arial, sans-serif; font-size: 37px; fill: rgb(42, 63, 95); fill-opacity: 1; white-space: pre; opacity: 1;" transform="translate(0,421.39)">50</text></g><g class="ytick"><text text-anchor="end" x="159" y="12.95" style="font-family: 'Open Sans', verdana, arial, sans-serif; font-size: 37px; fill: rgb(42, 63, 95); fill-opacity: 1; white-space: pre; opacity: 1;" transform="translate(0,339.90999999999997)">100</text></g><g class="ytick"><text text-anchor="end" x="159" y="12.95" style="font-family: 'Open Sans', verdana, arial, sans-serif; font-size: 37px; fill: rgb(42, 63, 95); fill-opacity: 1; white-space: pre; opacity: 1;" transform="translate(0,258.43)">150</text></g><g class="ytick"><text text-anchor="end" x="159" y="12.95" style="font-family: 'Open Sans', verdana, arial, sans-serif; font-size: 37px; fill: rgb(42, 63, 95); fill-opacity: 1; white-space: pre; opacity: 1;" transform="translate(0,176.95)">200</text></g></g><g class="overaxes-above"/></g></g><g class="polarlayer"/><g class="ternarylayer"/><g class="geolayer"/><g class="funnelarealayer"/><g class="pielayer"/><g class="iciclelayer"/><g class="treemaplayer"/><g class="sunburstlayer"/><g class="glimages"/><defs id="topdefs-581804"><g class="clips"/><clipPath id="legend581804"><rect width="694" height="113" x="0" y="0"/></clipPath></defs><g class="layer-above"><g class="imagelayer"/><g class="shapelayer"/></g><g class="infolayer"><g class="legend" pointer-events="all" transform="translate(2793.64,100)"><rect class="bg" shape-rendering="crispEdges" width="694" height="113" x="0" y="0" style="stroke: rgb(68, 68, 68); stroke-opacity: 1; fill: rgb(255, 255, 255); fill-opacity: 1; stroke-width: 0px;"/><g class="scrollbox" transform="" clip-path="url(#legend581804)"><g class="groups"><g class="traces" transform="translate(0,30.55)" style="opacity: 1;"><text class="legendtext" text-anchor="start" x="40" y="14.43" style="font-family: 'Open Sans', verdana, arial, sans-serif; font-size: 37px; fill: rgb(42, 63, 95); fill-opacity: 1; white-space: pre;">Predicted Curvature at Anchors #1</text><g class="layers" style="opacity: 1;"><g class="legendfill"/><g class="legendlines"><path class="js-line" d="M5,0h30" style="fill: none; stroke: rgb(170, 0, 0); stroke-opacity: 1; stroke-width: 4px;"/></g><g class="legendsymbols"><g class="legendpoints"/></g></g><rect class="legendtoggle" x="0" y="-25.55" width="688.125" height="51.1" style="fill: rgb(0, 0, 0); fill-opacity: 0;"/></g><g class="traces" transform="translate(0,81.65)" style="opacity: 1;"><text class="legendtext" text-anchor="start" x="40" y="14.43" style="font-family: 'Open Sans', verdana, arial, sans-serif; font-size: 37px; fill: rgb(42, 63, 95); fill-opacity: 1; white-space: pre;">Predicted Curvature at Anchors #2</text><g class="layers" style="opacity: 1;"><g class="legendfill"/><g class="legendlines"><path class="js-line" d="M5,0h30" style="fill: none; stroke: rgb(0, 170, 0); stroke-opacity: 1; stroke-width: 4px;"/></g><g class="legendsymbols"><g class="legendpoints"/></g></g><rect class="legendtoggle" x="0" y="-25.55" width="688.125" height="51.1" style="fill: rgb(0, 0, 0); fill-opacity: 0;"/></g></g></g><rect class="scrollbar" rx="20" ry="3" width="0" height="0" x="0" y="0" style="fill: rgb(128, 139, 164); fill-opacity: 1;"/></g><g class="g-gtitle"/><g class="g-xtitle"><text class="xtitle" x="1451" y="987.8" text-anchor="middle" style="font-family: 'Open Sans', verdana, arial, sans-serif; font-size: 44px; fill: rgb(42, 63, 95); opacity: 1; font-weight: normal; white-space: pre;">Anchor Point Index</text></g><g class="g-ytitle" transform="translate(31.6591796875,0)"><text class="ytitle" transform="rotate(-90,12.340624999999989,498)" x="12.340624999999989" y="498" text-anchor="middle" style="font-family: 'Open Sans', verdana, arial, sans-serif; font-size: 44px; fill: rgb(42, 63, 95); opacity: 1; font-weight: normal; white-space: pre;">Predicted Curvature</text></g><g class="annotation" data-index="0" style="opacity: 1;"><g class="annotation-text-g" transform="rotate(0,1451,75.49999999999994)"><g class="cursor-pointer" transform="translate(585,51)"><rect class="bg" x="0.5" y="0.5" width="1732" height="48" style="stroke-width: 1px; stroke: rgb(0, 0, 0); stroke-opacity: 0; fill: rgb(0, 0, 0); fill-opacity: 0;"/><text class="annotation-text" text-anchor="middle" x="866.546875" y="39" style="font-family: 'Open Sans', verdana, arial, sans-serif; font-size: 37px; fill: rgb(42, 63, 95); fill-opacity: 1; white-space: pre;"><tspan style="font-weight:bold">Predicted Curvature at Anchors (Transformed Curve #1 vs. Transformed Curve #2)</tspan></text></g></g></g></g></svg>