<svg class="main-svg" xmlns="http://www.w3.org/2000/svg" xmlns:xlink="http://www.w3.org/1999/xlink" width="3500" height="1000" style="" viewBox="0 0 3500 1000"><rect x="0" y="0" width="3500" height="1000" style="fill: rgb(255, 255, 255); fill-opacity: 1;"/><defs id="defs-660283"><g class="clips"><clipPath id="clip660283xyplot" class="plotclip"><rect width="2582" height="796"/></clipPath><clipPath class="axesclip" id="clip660283x"><rect x="160" y="0" width="2582" height="1000"/></clipPath><clipPath class="axesclip" id="clip660283y"><rect x="0" y="100" width="3500" height="796"/></clipPath><clipPath class="axesclip" id="clip660283xy"><rect x="160" y="100" width="2582" height="796"/></clipPath></g><g class="gradients"/><g class="patterns"/></defs><g class="bglayer"><rect class="bg" x="160" y="100" width="2582" height="796" style="fill: rgb(229, 236, 246); fill-opacity: 1; stroke-width: 0;"/></g><g class="layer-below"><g class="imagelayer"/><g class="shapelayer"/></g><g class="cartesianlayer"><g class="subplot xy"><g class="layer-subplot"><g class="shapelayer"/><g class="imagelayer"/></g><g class="gridlayer"><g class="x"><path class="xgrid crisp" transform="translate(612.98,0)" d="M0,100v796" style="stroke: rgb(255, 255, 255); stroke-opacity: 1; stroke-width: 1px;"/><path class="xgrid crisp" transform="translate(1065.96,0)" d="M0,100v796" style="stroke: rgb(255, 255, 255); stroke-opacity: 1; stroke-width: 1px;"/><path class="xgrid crisp" transform="translate(1518.95,0)" d="M0,100v796" style="stroke: rgb(255, 255, 255); stroke-opacity: 1; stroke-width: 1px;"/><path class="xgrid crisp" transform="translate(1971.93,0)" d="M0,100v796" style="stroke: rgb(255, 255, 255); stroke-opacity: 1; stroke-width: 1px;"/><path class="xgrid crisp" transform="translate(2424.91,0)" d="M0,100v796" style="stroke: rgb(255, 255, 255); stroke-opacity: 1; stroke-width: 1px;"/></g><g class="y"><path class="ygrid crisp" transform="translate(0,829.53)" d="M160,0h2582" style="stroke: rgb(255, 255, 255); stroke-opacity: 1; stroke-width: 1px;"/><path class="ygrid crisp" transform="translate(0,749.58)" d="M160,0h2582" style="stroke: rgb(255, 255, 255); stroke-opacity: 1; stroke-width: 1px;"/><path class="ygrid crisp" transform="translate(0,669.63)" d="M160,0h2582" style="stroke: rgb(255, 255, 255); stroke-opacity: 1; stroke-width: 1px;"/><path class="ygrid crisp" transform="translate(0,589.69)" d="M160,0h2582" style="stroke: rgb(255, 255, 255); stroke-opacity: 1; stroke-width: 1px;"/><path class="ygrid crisp" transform="translate(0,429.8)" d="M160,0h2582" style="stroke: rgb(255, 255, 255); stroke-opacity: 1; stroke-width: 1px;"/><path class="ygrid crisp" transform="translate(0,349.85)" d="M160,0h2582" style="stroke: rgb(255, 255, 255); stroke-opacity: 1; stroke-width: 1px;"/><path class="ygrid crisp" transform="translate(0,269.9)" d="M160,0h2582" style="stroke: rgb(255, 255, 255); stroke-opacity: 1; stroke-width: 1px;"/><path class="ygrid crisp" transform="translate(0,189.95999999999998)" d="M160,0h2582" style="stroke: rgb(255, 255, 255); stroke-opacity: 1; stroke-width: 1px;"/><path class="ygrid crisp" transform="translate(0,110.01)" d="M160,0h2582" style="stroke: rgb(255, 255, 255); stroke-opacity: 1; stroke-width: 1px;"/></g></g><g class="zerolinelayer"><path class="xzl zl crisp" transform="translate(160,0)" d="M0,100v796" style="stroke: rgb(255, 255, 255); stroke-opacity: 1; stroke-width: 2px;"/><path class="yzl zl crisp" transform="translate(0,509.74)" d="M160,0h2582" style="stroke: rgb(255, 255, 255); stroke-opacity: 1; stroke-width: 2px;"/></g><path class="xlines-below"/><path class="ylines-below"/><g class="overlines-below"/><g class="xaxislayer-below"/><g class="yaxislayer-below"/><g class="overaxes-below"/><g class="plot" transform="translate(160,100)" clip-path="url(#clip660283xyplot)"><g class="scatterlayer mlayer"><g class="trace scatter trace99c974" style="stroke-miterlimit: 2; opacity: 1;"><g class="fills"/><g class="errorbars"/><g class="lines"><path class="js-line" d="M0,213.21L18.12,235.92L20.38,236.87L24.91,242.66L27.18,245.12L36.24,254.68L38.5,255.77L40.77,258.85L43.03,260L47.56,261.07L49.83,262.05L54.36,262.71L56.62,262.21L61.15,261.02L63.42,261.82L77.01,249.12L79.27,246.51L86.07,238.55L88.33,234.66L99.66,215.57L101.92,214.46L113.25,198.05L115.51,195.53L117.78,193.42L120.04,192.87L124.57,187.83L126.84,186.8L135.89,184.52L138.16,184.17L147.22,188.53L149.48,190.8L151.75,194.62L154.01,196.02L156.28,197.08L158.54,200.7L160.81,206.1L163.07,214.94L165.34,218.32L167.6,226.96L174.4,249.85L176.66,261.85L178.93,268.37L181.19,278.36L187.99,325.47L190.25,351.55L192.52,362.59L194.78,382.64L201.58,441.91L203.84,465.78L206.11,480.18L208.37,505.02L212.9,539.72L215.17,552.78L219.7,583.48L221.96,593.71L231.02,634.17L233.29,641.12L242.35,667.37L244.61,671.15L253.67,686.12L255.94,687.24L260.46,690.34L262.73,691.01L269.52,689.9L271.79,688.76L276.32,685.63L278.58,683.71L296.7,647.74L298.97,641.59L301.23,636.66L303.5,628.7L305.76,618.81L308.03,613.42L317.09,581.64L319.35,571.42L328.41,534.38L330.68,524.94L342,472.68L344.27,456.46L348.8,422.62L351.06,406.16L353.33,395.98L355.59,371.26L362.39,300.88L364.65,289.66L369.18,231.85L371.45,206.71L373.71,181.39L375.98,167.32L380.51,133.3L382.77,125.72L385.04,103.46L387.3,93.09L396.36,59.05L398.62,55.76L400.89,49.02L403.15,47.37L405.42,41.18L407.68,40.7L412.21,42.27L414.48,45.2L416.74,51.21L419.01,51.97L421.27,54.7L423.54,62.25L425.8,73.61L428.07,77.84L430.33,84.89L432.6,95.47L434.86,115.16L437.13,123L439.39,140.53L441.66,168.6L443.92,179.26L446.19,197.33L448.45,224.36L450.72,236.11L459.78,333.79L462.04,343.49L473.37,412.42L475.63,422L480.16,441.48L482.43,449.03L489.22,467.38L491.49,472.72L505.08,499.37L507.34,503.22L514.14,514.32L516.4,518.4L527.72,533.47L529.99,536.1L536.78,543.55L539.05,545.53L543.58,549.44L545.84,551.74L554.9,555.69L557.17,556.77L563.96,557.88L566.23,556.43L568.49,556.72L570.76,555.6L579.82,551.03L582.08,549.25L588.88,542.39L591.14,538.79L593.41,537.74L595.67,534.12L609.26,510.44L611.53,505.66L616.06,497.62L618.32,495.29L625.12,480.89L627.38,475.6L631.91,465.31L634.18,464.84L645.5,438.2L647.76,435.58L661.35,408.34L663.62,406.92L677.21,384.93L679.47,383.31L693.06,369.2L695.33,368.02L711.18,361.61L713.45,361.96L727.04,363.87L729.3,365.02L740.63,372.56L742.89,374.52L745.16,374.3L747.42,376.62L758.75,389.27L761.01,389.92L774.6,406.8L776.86,407.82L799.51,436.26L801.78,439.59L806.31,445.56L808.57,447.32L815.37,457.77L817.63,461.57L822.16,468.74L824.43,470.34L831.22,482.99L833.49,487.78L838.02,498.2L840.28,499.97L847.08,517.35L849.34,524.84L858.4,549.57L860.67,557.79L865.2,573.9L867.46,579.8L874.26,605.2L876.52,615.21L894.64,673.26L896.91,679.31L905.96,703.4L908.23,706.3L917.29,720.44L919.55,721.47L921.82,723.26L924.08,723.63L926.35,726.44L928.61,725.66L935.41,724.88L937.67,722.44L939.94,721.8L942.2,718.04L946.73,713.39L949,707.97L960.32,679.62L962.59,671.94L980.71,600L982.97,589.25L992.03,550.25L994.3,542.74L1003.36,510.32L1005.62,502.78L1023.74,457.92L1026.01,454.68L1041.86,429.43L1044.12,427.05L1071.3,397.04L1073.57,395.42L1093.95,368.15L1096.22,363.67L1103.01,351.08L1105.28,345.02L1109.81,337.19L1112.07,331.34L1123.4,297.07L1125.66,286.29L1134.72,250.02L1136.99,237.74L1150.58,171.15L1152.84,162.3L1161.9,125.11L1164.16,118.19L1170.96,94.05L1173.22,90.61L1175.49,88.06L1177.75,83.92L1182.28,77.35L1184.55,75.28L1189.08,76.63L1191.34,75.32L1193.61,76.83L1195.87,76.93L1202.67,87.73L1204.93,94.27L1207.2,99.01L1209.46,106.28L1211.73,112.58L1213.99,123.35L1218.52,135.27L1220.79,144.59L1227.58,168.6L1229.85,178.14L1234.38,197.93L1236.64,206.13L1241.17,223.73L1243.44,235.15L1250.23,256.64L1252.5,264.45L1263.82,291.75L1266.09,294.86L1272.88,304.18L1275.15,307.65L1286.47,317.34L1288.74,318.59L1297.79,322.31L1300.06,322.84L1304.59,323.74L1306.85,323.76L1329.5,323.51L1331.77,323.09L1340.83,322.49L1343.09,322.46L1349.89,322.02L1352.15,322.56L1361.21,323.85L1363.48,324.36L1374.8,329.7L1377.07,330.83L1383.86,335.21L1386.13,337.43L1395.19,346.76L1397.45,347.3L1411.04,366.85L1413.31,367.36L1420.1,376.9L1422.36,380.37L1429.16,389.53L1431.42,389.37L1445.01,404.97L1447.28,406.04L1458.6,409.84L1460.87,410.17L1465.4,410.65L1467.66,409.68L1476.72,403.8L1478.99,402.26L1483.52,399.95L1485.78,396.99L1497.11,378.72L1499.37,374.49L1501.64,373.17L1503.9,368.78L1517.49,337.16L1519.76,336.44L1526.55,321.04L1528.82,315.63L1535.61,301.07L1537.88,300.56L1551.46,276.87L1553.73,275.43L1565.05,265.2L1567.32,264.91L1578.64,264.14L1580.91,265.81L1583.17,267.66L1585.44,267.5L1594.5,276.63L1596.76,279.26L1601.29,284.08L1603.56,287.8L1605.82,292.72L1608.09,295.13L1610.35,297.3L1612.62,301.9L1619.41,315.04L1621.68,318.54L1628.47,331.01L1630.74,333.91L1644.33,358.37L1646.59,361.64L1660.18,379.37L1662.45,382.13L1673.77,392.06L1676.04,393.63L1687.36,398.89L1689.62,399.48L1696.42,400.37L1698.68,400.23L1705.48,399.33L1707.74,398.44L1714.54,395.75L1716.8,394.11L1723.6,389.63L1725.86,387.25L1734.92,378.77L1737.19,375.81L1741.72,370.78L1743.98,367.1L1759.84,342.11L1762.1,338.48L1787.02,294.04L1789.28,290.45L1796.08,278.17L1798.34,274.8L1807.4,261.6L1809.66,259.05L1825.52,237.68L1827.78,237.12L1832.31,233.6L1834.58,231.11L1843.64,222.35L1845.9,221.05L1854.96,211.64L1857.23,208.75L1859.49,205.64L1861.76,205.35L1866.29,200.42L1868.55,197.06L1875.35,184.54L1877.61,184.63L1882.14,177L1884.41,172.07L1888.94,160.89L1891.2,158.82L1898,143.89L1900.26,136.9L1920.65,96.76L1922.91,94.32L1925.18,92.54L1927.44,88.85L1934.24,80.85L1936.5,80.65L1938.76,81.87L1941.03,81.44L1943.29,80.49L1945.56,82.45L1947.82,83.03L1950.09,85.48L1952.35,89.7L1954.62,91.81L1956.88,98.41L1959.15,100.77L1961.41,104.02L1963.68,109.46L1977.27,152.02L1979.53,164.72L1984.06,184.02L1986.33,194.76L1990.86,222.37L1993.12,240.58L1997.65,264.97L1999.92,279.37L2006.71,328.62L2008.98,336.43L2022.57,409.92L2024.83,417.01L2027.1,422.49L2029.36,431.77L2036.16,460.08L2038.42,464.51L2054.28,506.78L2056.54,508.69L2065.6,531.32L2067.86,536.96L2070.13,541.57L2072.39,543.62L2079.19,560.51L2081.45,567.15L2088.25,581.34L2090.51,587.51L2095.04,601.53L2097.31,605.08L2099.57,609.07L2101.84,615.25L2113.16,647.02L2115.43,651.47L2122.22,673.05L2124.49,681.31L2131.28,697.15L2133.55,703.35L2138.08,718.52L2140.34,722.19L2142.61,724.55L2144.87,729.27L2149.4,738.68L2151.67,745.24L2153.93,745.49L2156.2,747.77L2160.73,750.7L2162.99,750.96L2165.26,752.27L2167.52,756.2L2169.79,751.19L2172.05,756.02L2174.32,754.86L2176.58,752.3L2178.85,749.71L2181.11,749.52L2183.38,741.7L2185.64,745.25L2190.17,736.45L2192.44,730.56L2194.7,725.66L2196.96,723.75L2208.29,682.59L2210.55,677.8L2221.88,625.28L2224.14,619.67L2237.73,561.16L2240,554.29L2251.32,514.38L2253.59,510.06L2262.65,483.76L2264.91,479.85L2269.44,473.07L2271.71,468.16L2278.5,455.43L2280.77,451.42L2283.03,451.29L2285.3,447.41L2292.09,436.33L2294.36,434.65L2298.89,430.02L2301.15,426.79L2305.68,421.31L2307.95,419.44L2314.74,414.64L2317.01,412.16L2323.8,406.2L2326.06,405.11L2330.59,402.49L2332.86,400.76L2339.65,396.52L2341.92,396.09L2353.24,391.76L2355.51,391.18L2357.77,391.51L2360.04,390.5L2373.63,390.45L2375.89,390.62L2380.42,390.94L2382.69,391.38L2398.54,394.05L2400.81,394.2L2407.6,395.04L2409.87,394.59L2416.66,393.85L2418.93,393.26L2430.25,389.05L2432.52,387.23L2446.11,375.44L2448.37,372.11L2455.16,362.01L2457.43,360.03L2464.22,347.52L2466.49,342.68L2473.28,331.04L2475.55,325.33L2480.08,314.82L2482.34,311.04L2493.67,283.25L2495.93,281.31L2509.52,247.97L2511.79,246.73L2523.11,222.43L2525.38,220.98L2529.91,213.57L2532.17,210.17L2538.97,201.71L2541.23,200.65L2543.5,197.73L2545.76,198.15L2550.29,197.24L2552.56,196.38L2557.09,196.12L2559.35,197.12L2561.62,197.79L2563.88,196.79L2570.68,202.8L2572.94,203.59L2577.47,206.89L2579.74,209.44L2582,209.58" style="vector-effect: non-scaling-stroke; fill: none; stroke: rgb(170, 0, 0); stroke-opacity: 1; stroke-width: 4px; opacity: 1;"/></g><g class="points"/><g class="text"/></g><g class="trace scatter trace3d3620" style="stroke-miterlimit: 2; opacity: 1;"><g class="fills"/><g class="errorbars"/><g class="lines"><path class="js-line" d="M0,218.14L4.53,222.44L6.79,219.76L9.06,220.05L11.32,223.72L18.12,234.86L20.38,237.09L22.65,239.99L24.91,245.42L27.18,235.41L29.44,246.47L31.71,246.43L33.97,248.47L40.77,255.37L43.03,257.07L54.36,263.61L56.62,262.41L65.68,259.46L67.95,257.55L70.21,255.65L72.48,256L83.8,242.59L86.07,237.26L88.33,236.5L90.6,233.39L108.72,203.77L110.98,201.37L120.04,190.07L122.31,188.74L131.36,183.83L133.63,183.89L138.16,184.15L140.42,185.31L142.69,185.47L144.95,187.29L149.48,192.12L151.75,195L154.01,197.33L156.28,201.18L160.81,211.41L163.07,217.02L167.6,229.79L169.87,237.88L181.19,284.67L183.46,297.83L194.78,378.69L197.05,401.28L215.17,545.09L217.43,558.37L226.49,614.95L228.76,623.42L237.82,657.4L240.08,662.77L244.61,673.52L246.88,676.18L251.41,682.67L253.67,685.01L258.2,689.19L260.46,688.62L262.73,689.98L264.99,689.75L271.79,687.84L274.05,685.1L276.32,684.19L278.58,681.55L285.38,670.88L287.64,666.67L292.17,659.07L294.44,654.05L305.76,621.43L308.03,613.44L323.88,555.53L326.15,545.31L332.94,519.01L335.21,507.89L348.8,425.98L351.06,407.1L355.59,378.61L357.86,359.36L362.39,304.69L364.65,287.2L366.92,266.93L369.18,233.15L371.45,203.16L373.71,189.21L375.98,175.12L378.24,148.77L380.51,130L382.77,120.78L385.04,111.09L387.3,93.85L389.56,80.63L391.83,76.46L394.09,71.93L396.36,57.39L398.62,49.07L400.89,46.18L407.68,42.59L409.95,41.12L412.21,41.64L414.48,39.8L416.74,44.56L419.01,52.36L423.54,55.78L425.8,68.63L428.07,86.78L430.33,92.95L432.6,100.74L434.86,117.05L437.13,140.72L439.39,152.46L446.19,197.84L448.45,228.3L455.25,281.29L457.51,302.43L466.57,376.57L468.84,392.09L471.1,399.15L473.37,414.1L484.69,455.05L486.96,459.31L489.22,462.98L491.49,468.62L500.55,491.17L502.81,494.13L507.34,501.12L509.61,505.54L516.4,518.42L518.66,521.31L523.19,526.41L525.46,529.84L532.25,539.98L534.52,541.8L536.78,543L539.05,545.47L550.37,553.21L552.64,554.28L557.17,556.37L559.43,556.22L566.23,556.52L568.49,555.87L570.76,554.03L573.02,555.89L584.35,546.68L586.61,543.96L588.88,543.95L591.14,540.44L600.2,525.77L602.47,522.69L607,517.48L609.26,512.82L620.59,488.15L622.85,488.58L627.38,478.14L629.65,472.26L636.44,456.58L638.71,454.82L652.29,424.67L654.56,422.67L663.62,405.6L665.88,401.6L668.15,398.79L670.41,394.01L672.68,393.7L674.94,390.46L684,377.42L686.27,375.07L690.8,371.16L693.06,369.16L699.86,365.11L702.12,364.76L711.18,361.93L713.45,362.06L720.24,362.14L722.51,362.67L733.83,367.64L736.1,369.07L742.89,373.36L745.16,375.64L761.01,391.05L763.28,393.26L804.04,442.53L806.31,445.95L810.84,452.08L813.1,454.59L828.96,478.93L831.22,483.4L844.81,513.26L847.08,519.95L851.61,532.19L853.87,536.15L860.67,558.83L862.93,567.41L867.46,583.2L869.73,587.28L878.79,625.7L881.05,635.54L885.58,644.8L887.85,652.39L899.17,690.26L901.44,694.05L903.7,696.53L905.96,701.38L915.02,720.2L917.29,720.38L924.08,724.41L926.35,725.03L933.14,724.88L935.41,723.04L937.67,724.5L939.94,722.43L944.47,715.5L946.73,711.07L949,706.33L951.26,705.63L955.79,694.52L958.06,688.62L971.65,641.1L973.91,630.3L978.44,607.05L980.71,602.83L992.03,551.1L994.3,541.07L1001.09,521.57L1003.36,512.45L1007.89,495.95L1010.15,491.51L1023.74,458.96L1026.01,455.92L1030.54,448.86L1032.8,444.16L1037.33,436.13L1039.59,433.98L1041.86,431.98L1044.12,425.09L1046.39,425.04L1048.65,423.02L1053.18,415.65L1055.45,413.4L1057.71,411.89L1059.98,406.97L1064.51,403.61L1066.77,403.21L1071.3,396.45L1073.57,393.54L1078.1,391.02L1080.36,382.07L1082.63,385.72L1084.89,383.28L1096.22,364.67L1098.48,362.79L1100.75,353.14L1103.01,354.84L1112.07,330.23L1114.34,323.14L1116.6,316.87L1118.87,304.54L1121.13,307.99L1123.4,299.09L1134.72,247.68L1136.99,229.56L1139.25,231.23L1141.52,219.23L1152.84,154.6L1155.11,152.04L1164.16,117.32L1166.43,106.47L1168.69,104.58L1170.96,97.81L1175.49,89L1177.75,86.51L1182.28,78.17L1184.55,76.47L1186.81,75.06L1189.08,75.68L1191.34,77.36L1193.61,75.62L1195.87,82.33L1198.14,81.75L1200.4,83.21L1202.67,88.28L1211.73,109.06L1213.99,118.06L1216.26,124.34L1218.52,136.94L1223.05,151.04L1225.32,161.51L1229.85,177.35L1232.11,186.35L1238.91,217.95L1241.17,226.06L1247.97,250.42L1250.23,257.24L1254.76,270.09L1257.03,275.86L1266.09,294.42L1268.35,298.09L1272.88,304.93L1275.15,306.96L1286.47,317.27L1288.74,319.02L1297.79,322.38L1300.06,323.2L1315.91,324.63L1318.18,324.2L1322.71,324.07L1324.97,323.76L1338.56,322.55L1340.83,322.3L1356.68,323L1358.95,323.36L1370.27,326.75L1372.54,328L1381.6,333.56L1383.86,335.23L1399.72,351.68L1401.98,354.2L1406.51,358.77L1408.78,361.85L1422.36,381.16L1424.63,384.01L1445.01,405.52L1447.28,406.8L1454.07,410L1456.34,410.42L1460.87,410.86L1463.13,411.25L1467.66,410.75L1469.93,409.3L1474.46,407.19L1476.72,405.26L1488.05,393.72L1490.31,390.61L1501.64,372.86L1503.9,367.49L1510.7,353.4L1512.96,347.52L1524.29,324.71L1526.55,319.25L1549.2,278.96L1551.46,275.96L1560.52,267.5L1562.79,266.45L1569.58,263.51L1571.85,263.73L1576.38,263.33L1578.64,263.67L1589.97,272.03L1592.23,274.31L1601.29,284.84L1603.56,288.44L1614.88,306.85L1617.15,310.55L1644.33,358.04L1646.59,361.41L1653.39,371.13L1655.65,373.95L1662.45,382.02L1664.71,384.52L1669.24,388.83L1671.51,390.43L1682.83,397.09L1685.09,398.08L1691.89,400.08L1694.15,400.22L1703.21,400.05L1705.48,399.35L1716.8,394.03L1719.07,392.54L1725.86,388.23L1728.13,385.66L1737.19,375.98L1739.45,372.08L1743.98,367.05L1746.25,363.18L1753.04,352.69L1755.31,351.03L1768.9,326.8L1771.16,321.21L1777.96,310.15L1780.22,305.98L1784.75,297.86L1787.02,295.45L1800.61,271.61L1802.87,268.54L1820.99,245.16L1823.25,242.8L1850.43,216.8L1852.7,214.79L1859.49,207.78L1861.76,205.56L1873.08,191.91L1875.35,188.09L1898,144.4L1900.26,139.36L1904.79,129.96L1907.06,123.58L1909.32,117.27L1911.59,114L1916.12,105.86L1918.38,100.39L1922.91,94.9L1925.18,92.23L1931.97,83.38L1934.24,82.5L1938.76,78.66L1941.03,80.28L1947.82,81.6L1950.09,85.78L1954.62,89.52L1956.88,93.42L1961.41,103.48L1963.68,107.99L1965.94,113.38L1968.21,121.9L1972.74,133.5L1975,143.09L1986.33,198.32L1988.59,208.19L1997.65,263.94L1999.92,284.51L2002.18,294.9L2004.45,310.35L2008.98,336.84L2011.24,351.12L2015.77,374.91L2018.04,387.34L2022.57,407.64L2024.83,418.06L2031.63,443.7L2033.89,452.05L2038.42,465.37L2040.69,472.48L2045.22,484.18L2047.48,490.43L2056.54,509.12L2058.81,515.96L2070.13,542.27L2072.39,546.5L2074.66,550.21L2076.92,556.63L2083.72,571.6L2085.98,577.14L2090.51,585.55L2092.78,591.58L2099.57,608.11L2101.84,615.52L2104.1,619.97L2106.37,628.33L2110.9,640.93L2113.16,646.98L2117.69,658.5L2119.96,663.7L2124.49,679.25L2126.75,684.82L2131.28,700.57L2133.55,704.19L2140.34,719.93L2142.61,722.95L2149.4,737.49L2151.67,740.57L2153.93,743.33L2156.2,747.95L2160.73,750.41L2162.99,751.77L2165.26,753.88L2167.52,754.37L2172.05,753.27L2174.32,753.45L2176.58,752.58L2178.85,750.16L2185.64,743.16L2187.91,739.05L2194.7,725.87L2196.96,720.1L2203.76,698.7L2206.02,690.69L2212.82,663.98L2215.08,655.05L2240,549.21L2242.26,543.56L2255.85,500.91L2258.12,498.05L2267.18,474.34L2269.44,470.76L2273.97,464.78L2276.24,460.25L2283.03,448.72L2285.3,445.02L2287.56,445.03L2289.83,441.59L2296.62,431.28L2298.89,428.57L2301.15,427.66L2303.42,425.24L2312.48,415.28L2314.74,414.56L2323.8,405.76L2326.06,404.54L2330.59,401.82L2332.86,400.04L2341.92,396.12L2344.18,394.61L2357.77,390.25L2360.04,390.48L2369.1,389.86L2371.36,390.26L2378.16,390.7L2380.42,391.13L2407.6,394.78L2409.87,394.84L2418.93,393.05L2421.19,392.08L2423.46,392.06L2425.72,391.02L2430.25,387.77L2432.52,386.07L2437.05,382.69L2439.31,380.02L2441.58,379.52L2443.84,376.73L2455.16,360.26L2457.43,359.34L2464.22,345.69L2466.49,340.86L2473.28,327.55L2475.55,319.94L2477.81,319.41L2480.08,314.95L2495.93,277.45L2498.2,268.26L2500.46,261.78L2502.73,260.94L2509.52,248.66L2511.79,245.61L2520.85,227.6L2523.11,225.45L2525.38,222.2L2527.64,214.6L2532.17,212.76L2534.44,209.22L2538.97,204.17L2541.23,203.02L2545.76,201.09L2548.03,200.96L2552.56,201.74L2554.82,204.2L2557.09,205.17L2559.35,202.14L2561.62,200.41L2563.88,201.05L2568.41,198.92L2570.68,199.73L2575.21,204.98L2577.47,208.29L2579.74,211.47L2582,207.31" style="vector-effect: non-scaling-stroke; fill: none; stroke: rgb(0, 170, 0); stroke-opacity: 1; stroke-width: 4px; opacity: 1;"/></g><g class="points"/><g class="text"/></g></g></g><g class="overplot"/><path class="xlines-above crisp" d="M0,0" style="fill: none;"/><path class="ylines-above crisp" d="M0,0" style="fill: none;"/><g class="overlines-above"/><g class="xaxislayer-above"><g class="xtick"><text text-anchor="middle" x="0" y="934" transform="translate(160,0)" style="font-family: 'Open Sans', verdana, arial, sans-serif; font-size: 37px; fill: rgb(42, 63, 95); fill-opacity: 1; white-space: pre; opacity: 1;">0</text></g><g class="xtick"><text text-anchor="middle" x="0" y="934" style="font-family: 'Open Sans', verdana, arial, sans-serif; font-size: 37px; fill: rgb(42, 63, 95); fill-opacity: 1; white-space: pre; opacity: 1;" transform="translate(612.98,0)">200</text></g><g class="xtick"><text text-anchor="middle" x="0" y="934" style="font-family: 'Open Sans', verdana, arial, sans-serif; font-size: 37px; fill: rgb(42, 63, 95); fill-opacity: 1; white-space: pre; opacity: 1;" transform="translate(1065.96,0)">400</text></g><g class="xtick"><text text-anchor="middle" x="0" y="934" style="font-family: 'Open Sans', verdana, arial, sans-serif; font-size: 37px; fill: rgb(42, 63, 95); fill-opacity: 1; white-space: pre; opacity: 1;" transform="translate(1518.95,0)">600</text></g><g class="xtick"><text text-anchor="middle" x="0" y="934" style="font-family: 'Open Sans', verdana, arial, sans-serif; font-size: 37px; fill: rgb(42, 63, 95); fill-opacity: 1; white-space: pre; opacity: 1;" transform="translate(1971.93,0)">800</text></g><g class="xtick"><text text-anchor="middle" x="0" y="934" style="font-family: 'Open Sans', verdana, arial, sans-serif; font-size: 37px; fill: rgb(42, 63, 95); fill-opacity: 1; white-space: pre; opacity: 1;" transform="translate(2424.91,0)">1000</text></g></g><g class="yaxislayer-above"><g class="ytick"><text text-anchor="end" x="159" y="12.95" transform="translate(0,829.53)" style="font-family: 'Open Sans', verdana, arial, sans-serif; font-size: 37px; fill: rgb(42, 63, 95); fill-opacity: 1; white-space: pre; opacity: 1;">−200</text></g><g class="ytick"><text text-anchor="end" x="159" y="12.95" style="font-family: 'Open Sans', verdana, arial, sans-serif; font-size: 37px; fill: rgb(42, 63, 95); fill-opacity: 1; white-space: pre; opacity: 1;" transform="translate(0,749.58)">−150</text></g><g class="ytick"><text text-anchor="end" x="159" y="12.95" style="font-family: 'Open Sans', verdana, arial, sans-serif; font-size: 37px; fill: rgb(42, 63, 95); fill-opacity: 1; white-space: pre; opacity: 1;" transform="translate(0,669.63)">−100</text></g><g class="ytick"><text text-anchor="end" x="159" y="12.95" style="font-family: 'Open Sans', verdana, arial, sans-serif; font-size: 37px; fill: rgb(42, 63, 95); fill-opacity: 1; white-space: pre; opacity: 1;" transform="translate(0,589.69)">−50</text></g><g class="ytick"><text text-anchor="end" x="159" y="12.95" style="font-family: 'Open Sans', verdana, arial, sans-serif; font-size: 37px; fill: rgb(42, 63, 95); fill-opacity: 1; white-space: pre; opacity: 1;" transform="translate(0,509.74)">0</text></g><g class="ytick"><text text-anchor="end" x="159" y="12.95" style="font-family: 'Open Sans', verdana, arial, sans-serif; font-size: 37px; fill: rgb(42, 63, 95); fill-opacity: 1; white-space: pre; opacity: 1;" transform="translate(0,429.8)">50</text></g><g class="ytick"><text text-anchor="end" x="159" y="12.95" style="font-family: 'Open Sans', verdana, arial, sans-serif; font-size: 37px; fill: rgb(42, 63, 95); fill-opacity: 1; white-space: pre; opacity: 1;" transform="translate(0,349.85)">100</text></g><g class="ytick"><text text-anchor="end" x="159" y="12.95" style="font-family: 'Open Sans', verdana, arial, sans-serif; font-size: 37px; fill: rgb(42, 63, 95); fill-opacity: 1; white-space: pre; opacity: 1;" transform="translate(0,269.9)">150</text></g><g class="ytick"><text text-anchor="end" x="159" y="12.95" style="font-family: 'Open Sans', verdana, arial, sans-serif; font-size: 37px; fill: rgb(42, 63, 95); fill-opacity: 1; white-space: pre; opacity: 1;" transform="translate(0,189.95999999999998)">200</text></g><g class="ytick"><text text-anchor="end" x="159" y="12.95" style="font-family: 'Open Sans', verdana, arial, sans-serif; font-size: 37px; fill: rgb(42, 63, 95); fill-opacity: 1; white-space: pre; opacity: 1;" transform="translate(0,110.01)">250</text></g></g><g class="overaxes-above"/></g></g><g class="polarlayer"/><g class="ternarylayer"/><g class="geolayer"/><g class="funnelarealayer"/><g class="pielayer"/><g class="iciclelayer"/><g class="treemaplayer"/><g class="sunburstlayer"/><g class="glimages"/><defs id="topdefs-660283"><g class="clips"/><clipPath id="legend660283"><rect width="694" height="113" x="0" y="0"/></clipPath></defs><g class="layer-above"><g class="imagelayer"/><g class="shapelayer"/></g><g class="infolayer"><g class="legend" pointer-events="all" transform="translate(2793.64,100)"><rect class="bg" shape-rendering="crispEdges" width="694" height="113" x="0" y="0" style="stroke: rgb(68, 68, 68); stroke-opacity: 1; fill: rgb(255, 255, 255); fill-opacity: 1; stroke-width: 0px;"/><g class="scrollbox" transform="" clip-path="url(#legend660283)"><g class="groups"><g class="traces" transform="translate(0,30.55)" style="opacity: 1;"><text class="legendtext" text-anchor="start" x="40" y="14.43" style="font-family: 'Open Sans', verdana, arial, sans-serif; font-size: 37px; fill: rgb(42, 63, 95); fill-opacity: 1; white-space: pre;">Predicted Curvature at Anchors #1</text><g class="layers" style="opacity: 1;"><g class="legendfill"/><g class="legendlines"><path class="js-line" d="M5,0h30" style="fill: none; stroke: rgb(170, 0, 0); stroke-opacity: 1; stroke-width: 4px;"/></g><g class="legendsymbols"><g class="legendpoints"/></g></g><rect class="legendtoggle" x="0" y="-25.55" width="688.125" height="51.1" style="fill: rgb(0, 0, 0); fill-opacity: 0;"/></g><g class="traces" transform="translate(0,81.65)" style="opacity: 1;"><text class="legendtext" text-anchor="start" x="40" y="14.43" style="font-family: 'Open Sans', verdana, arial, sans-serif; font-size: 37px; fill: rgb(42, 63, 95); fill-opacity: 1; white-space: pre;">Predicted Curvature at Anchors #2</text><g class="layers" style="opacity: 1;"><g class="legendfill"/><g class="legendlines"><path class="js-line" d="M5,0h30" style="fill: none; stroke: rgb(0, 170, 0); stroke-opacity: 1; stroke-width: 4px;"/></g><g class="legendsymbols"><g class="legendpoints"/></g></g><rect class="legendtoggle" x="0" y="-25.55" width="688.125" height="51.1" style="fill: rgb(0, 0, 0); fill-opacity: 0;"/></g></g></g><rect class="scrollbar" rx="20" ry="3" width="0" height="0" x="0" y="0" style="fill: rgb(128, 139, 164); fill-opacity: 1;"/></g><g class="g-gtitle"/><g class="g-xtitle"><text class="xtitle" x="1451" y="987.8" text-anchor="middle" style="font-family: 'Open Sans', verdana, arial, sans-serif; font-size: 44px; fill: rgb(42, 63, 95); opacity: 1; font-weight: normal; white-space: pre;">Anchor Point Index</text></g><g class="g-ytitle" transform="translate(31.6591796875,0)"><text class="ytitle" transform="rotate(-90,12.340624999999989,498)" x="12.340624999999989" y="498" text-anchor="middle" style="font-family: 'Open Sans', verdana, arial, sans-serif; font-size: 44px; fill: rgb(42, 63, 95); opacity: 1; font-weight: normal; white-space: pre;">Predicted Curvature</text></g><g class="annotation" data-index="0" style="opacity: 1;"><g class="annotation-text-g" transform="rotate(0,1451,75.49999999999994)"><g class="cursor-pointer" transform="translate(585,51)"><rect class="bg" x="0.5" y="0.5" width="1732" height="48" style="stroke-width: 1px; stroke: rgb(0, 0, 0); stroke-opacity: 0; fill: rgb(0, 0, 0); fill-opacity: 0;"/><text class="annotation-text" text-anchor="middle" x="866.546875" y="39" style="font-family: 'Open Sans', verdana, arial, sans-serif; font-size: 37px; fill: rgb(42, 63, 95); fill-opacity: 1; white-space: pre;"><tspan style="font-weight:bold">Predicted Curvature at Anchors (Transformed Curve #1 vs. Transformed Curve #2)</tspan></text></g></g></g></g></svg>