<?xml version="1.0" encoding="utf-8" standalone="no"?>
<!DOCTYPE svg PUBLIC "-//W3C//DTD SVG 1.1//EN"
  "http://www.w3.org/Graphics/SVG/1.1/DTD/svg11.dtd">
<svg xmlns:xlink="http://www.w3.org/1999/xlink" width="4320pt" height="1440pt" viewBox="0 0 4320 1440" xmlns="http://www.w3.org/2000/svg" version="1.1">
 <metadata>
  <rdf:RDF xmlns:dc="http://purl.org/dc/elements/1.1/" xmlns:cc="http://creativecommons.org/ns#" xmlns:rdf="http://www.w3.org/1999/02/22-rdf-syntax-ns#">
   <cc:Work>
    <dc:type rdf:resource="http://purl.org/dc/dcmitype/StillImage"/>
    <dc:date>2021-11-03T13:25:48.857200</dc:date>
    <dc:format>image/svg+xml</dc:format>
    <dc:creator>
     <cc:Agent>
      <dc:title>Matplotlib v3.5.0rc1, https://matplotlib.org/</dc:title>
     </cc:Agent>
    </dc:creator>
   </cc:Work>
  </rdf:RDF>
 </metadata>
 <defs>
  <style type="text/css">*{stroke-linejoin: round; stroke-linecap: butt}</style>
 </defs>
 <g id="figure_1">
  <g id="patch_1">
   <path d="M 0 1440 
L 4320 1440 
L 4320 0 
L 0 0 
z
" style="fill: #ffffff"/>
  </g>
  <g id="axes_1">
   <g id="patch_2">
    <path d="M 540 1260 
L 3888 1260 
L 3888 172.8 
L 540 172.8 
z
" style="fill: #ffffff"/>
   </g>
   <g id="line2d_1">
    <path d="M 692.181818 1034.303262 
L 710.751634 1014.29306 
L 729.27891 999.513877 
L 747.717417 986.64456 
L 765.974284 975.333648 
L 783.904131 964.898507 
L 801.149821 955.575895 
L 818.501473 948.115224 
L 835.829329 942.480092 
L 851.145696 937.787983 
L 871.636297 932.805619 
L 893.580533 926.066384 
L 917.812226 915.695463 
L 943.155416 899.546715 
L 969.209083 877.299521 
L 995.370187 853.684437 
L 1021.526574 823.315333 
L 1047.701803 756.627412 
L 1073.715098 460.36801 
L 1099.042129 265.985774 
L 1123.492026 263.201428 
L 1146.345186 298.965936 
L 1167.294794 335.778092 
L 1187.088193 365.437538 
L 1206.945012 388.339275 
L 1223.964157 406.628057 
L 1240.318055 422.287992 
L 1291.548247 466.441984 
L 1309.103157 481.416469 
L 1326.629193 494.625664 
L 1344.155309 521.040733 
L 1361.673241 667.258048 
L 1379.175006 1048.081668 
L 1396.681225 1086.729662 
L 1414.195807 1054.808035 
L 1430.969054 1014.434348 
L 1447.553395 990.767825 
L 1463.713535 979.160835 
L 1479.850277 972.613537 
L 1497.465265 968.476808 
L 1517.693315 965.950389 
L 1537.954154 964.853537 
L 1559.521092 965.176018 
L 1582.532741 966.938954 
L 1606.689708 970.118141 
L 1631.478971 974.60197 
L 1656.62049 980.178286 
L 1681.942066 986.551932 
L 1707.247978 993.387603 
L 1756.927706 1007.178006 
L 1780.583539 1013.601777 
L 1802.619269 1019.406301 
L 1822.525927 1024.362464 
L 1842.310062 1028.222304 
L 1860.578682 1030.72657 
L 1877.956445 1031.639876 
L 1895.410807 1030.816158 
L 1913.243247 1028.272414 
L 1931.117571 1024.226986 
L 1948.994221 1019.070888 
L 1966.870354 1013.277163 
L 2002.447629 1001.416598 
L 2020.165275 995.835031 
L 2037.850503 990.664435 
L 2055.516629 986.201606 
L 2073.177895 983.041127 
L 2090.848639 981.913374 
L 2108.543176 983.417262 
L 2126.257256 987.849457 
L 2143.985825 995.021496 
L 2161.746336 1004.055863 
L 2179.525424 1013.432751 
L 2197.320183 1021.398417 
L 2215.123598 1026.466379 
L 2232.943684 1027.727702 
L 2250.875171 1024.960531 
L 2268.903281 1018.655187 
L 2286.951292 1009.852059 
L 2304.902938 999.603307 
L 2322.660314 988.395004 
L 2340.221164 976.024844 
L 2357.700399 962.14243 
L 2375.213723 946.974936 
L 2392.637842 930.085612 
L 2408.968428 906.36231 
L 2424.586721 862.260539 
L 2443.454298 797.875367 
L 2463.765017 698.957649 
L 2484.365344 278.813167 
L 2505.469733 222.218182 
L 2526.266509 289.218154 
L 2546.141354 339.400385 
L 2566.011053 366.196403 
L 2583.658868 379.121415 
L 2600.559158 385.240019 
L 2618.286988 388.993531 
L 2636.047928 393.255227 
L 2653.981367 399.594865 
L 2671.98308 408.493078 
L 2690.385439 419.658285 
L 2709.039197 432.409886 
L 2727.472095 446.195022 
L 2745.872424 460.927568 
L 2764.145714 476.813763 
L 2782.175935 494.1063 
L 2799.785028 513.886683 
L 2817.221897 541.011373 
L 2834.662753 587.965405 
L 2852.172344 664.878439 
L 2869.707826 1210.581818 
L 2887.293796 1165.925544 
L 2904.935259 1081.795546 
L 2922.625436 1055.902258 
L 2940.357869 1040.925151 
L 2958.118862 1028.265423 
L 2975.888611 1016.081416 
L 2993.643785 1004.724847 
L 3011.361806 994.584413 
L 3028.984383 985.719714 
L 3046.508647 978.084625 
L 3063.097168 971.589393 
L 3079.12 966.245172 
L 3098.20154 962.350654 
L 3118.521259 960.352642 
L 3140.206327 960.483641 
L 3163.256255 962.642595 
L 3187.168152 966.476733 
L 3211.346108 971.429662 
L 3235.417667 976.746657 
L 3259.082302 981.570181 
L 3281.850966 985.118579 
L 3303.606209 986.834544 
L 3324.081413 986.430423 
L 3343.911361 983.84552 
L 3363.819068 979.162554 
L 3383.723584 972.521595 
L 3402.320358 964.055374 
L 3419.617871 953.919706 
L 3436.464061 942.641917 
L 3453.009322 932.022944 
L 3469.321673 925.842689 
L 3485.583428 928.260281 
L 3502.017751 940.603511 
L 3518.621939 960.866278 
L 3535.432647 985.265925 
L 3552.431004 1008.81035 
L 3569.443249 1026.851304 
L 3587.107722 1038.562129 
L 3604.831897 1046.766359 
L 3622.626845 1052.891608 
L 3640.535687 1056.948482 
L 3658.476371 1058.970201 
L 3676.541856 1057.923112 
L 3695.011981 1049.771229 
L 3735.818182 1034.303262 
L 3735.818182 1034.303262 
" clip-path="url(#p2676014fd3)" style="fill: none; stroke: #aa0000; stroke-width: 4; stroke-linecap: square"/>
   </g>
   <g id="line2d_2">
    <path d="M 692.181818 1109.150054 
L 710.693231 1099.757418 
L 728.993216 1093.134497 
L 747.64841 1074.799061 
L 766.664743 1044.707725 
L 785.107105 1014.968832 
L 803.736729 986.5817 
L 822.067263 960.99901 
L 840.09251 942.933102 
L 857.520689 928.298181 
L 874.496031 918.473008 
L 889.334296 909.637566 
L 910.845237 897.709427 
L 935.892413 879.994419 
L 961.986631 857.683326 
L 973.400724 838.524239 
L 989.435051 814.682235 
L 1006.077852 755.741582 
L 1021.391241 472.324927 
L 1029.896668 268.920825 
L 1056.124837 251.064529 
L 1080.283541 274.263003 
L 1100.770982 302.48809 
L 1120.406216 327.355685 
L 1137.710414 348.22587 
L 1155.497894 366.23521 
L 1173.361724 382.876754 
L 1191.321743 399.429772 
L 1209.361029 416.965745 
L 1227.760252 436.516067 
L 1246.310084 459.327968 
L 1264.81094 485.766843 
L 1283.299879 510.884549 
L 1301.77489 625.340536 
L 1320.233614 1113.828236 
L 1338.670775 1082.893586 
L 1357.079933 1014.482599 
L 1375.405098 988.737053 
L 1393.54219 974.363662 
L 1411.286587 963.239092 
L 1428.625057 953.95651 
L 1445.99576 946.207614 
L 1463.301513 939.967413 
L 1478.400205 935.29436 
L 1499.073498 932.29419 
L 1523.276502 931.074474 
L 1549.382181 931.717021 
L 1565.366335 934.190992 
L 1584.407936 938.314048 
L 1603.755071 943.752627 
L 1623.529288 950.070858 
L 1643.698595 956.804672 
L 1664.451549 963.532525 
L 1685.567885 969.92327 
L 1706.921705 975.754347 
L 1728.323733 980.904555 
L 1749.672772 985.3322 
L 1770.994737 989.049066 
L 1792.291984 992.097964 
L 1813.566902 994.537662 
L 1834.8252 996.435905 
L 1855.994389 997.869499 
L 1876.908528 998.930076 
L 1937.438515 1001.266669 
L 1956.889855 1002.514809 
L 1975.794481 1004.594633 
L 1986.986169 1008.03972 
L 2012.638185 1013.488272 
L 2034.862483 1021.575246 
L 2054.388291 1032.670929 
L 2071.911182 1046.450857 
L 2089.998011 1061.452589 
L 2108.124302 1074.885946 
L 2126.303228 1082.59695 
L 2145.00403 1078.807034 
L 2163.846875 1057.736964 
L 2182.308586 1025.355849 
L 2201.001365 997.456252 
L 2219.340258 968.573953 
L 2237.433664 945.623342 
L 2254.811142 926.848933 
L 2271.079196 912.795615 
L 2287.113171 902.696233 
L 2301.239364 892.917941 
L 2320.406242 880.139722 
L 2340.711331 862.125681 
L 2362.346321 839.766413 
L 2383.988476 820.04615 
L 2407.642399 797.260843 
L 2418.644584 733.855273 
L 2423.892872 432.461131 
L 2433.874829 250.428975 
L 2442.704978 239.598611 
L 2444.271053 257.53015 
L 2468.002728 274.368358 
L 2488.794646 285.540917 
L 2509.288415 292.309167 
L 2529.457402 296.003447 
L 2545.064494 299.095438 
L 2563.879303 307.381174 
L 2582.537273 324.487852 
L 2601.145413 353.936287 
L 2620.407472 397.371743 
L 2640.378784 445.999181 
L 2644.410158 502.616923 
L 2660.480061 550.421083 
L 2677.019706 572.753952 
L 2689.778551 583.960223 
L 2692.187817 601.956053 
L 2710.696603 628.482563 
L 2729.819037 681.7402 
L 2749.223888 1140.483508 
L 2768.837201 1203.245098 
L 2788.213815 1149.975945 
L 2806.829974 1120.65688 
L 2833.23236 1113.159566 
L 2854.009409 1110.700312 
L 2872.517215 1103.336075 
L 2891.105914 1086.913896 
L 2909.421282 1062.322213 
L 2928.161562 1035.582767 
L 2946.661224 1012.27553 
L 2983.363749 958.791502 
L 3000.83367 942.149045 
L 3017.73414 931.64505 
L 3033.600504 925.813595 
L 3057.190165 924.367959 
L 3083.364059 925.608036 
L 3100.493018 928.432502 
L 3138.97399 936.094121 
L 3158.705029 939.2973 
L 3178.727502 941.001539 
L 3199.021862 940.680607 
L 3219.640599 938.104394 
L 3240.474786 933.316634 
L 3261.480968 926.66741 
L 3282.629734 918.957734 
L 3303.893295 911.603046 
L 3325.213049 906.500801 
L 3346.535516 905.332496 
L 3367.838609 908.761598 
L 3389.116672 916.815794 
L 3410.37155 930.11277 
L 3431.603972 949.177913 
L 3452.816313 972.778911 
L 3474.008891 998.140846 
L 3495.185142 1022.054997 
L 3516.332892 1041.610176 
L 3537.321258 1055.10077 
L 3557.866922 1063.238323 
L 3577.840896 1068.890614 
L 3597.340238 1074.625091 
L 3614.546871 1081.153112 
L 3639.909336 1076.996007 
L 3680.537904 1109.150054 
L 3680.537904 1109.150054 
" clip-path="url(#p2676014fd3)" style="fill: none; stroke: #00aa00; stroke-width: 4; stroke-linecap: square"/>
   </g>
   <g id="matplotlib.axis_1">
    <g id="xtick_1">
     <g id="line2d_3">
      <defs>
       <path id="m3892be9b4f" d="M 0 0 
L 0 3.5 
" style="stroke: #000000; stroke-width: 0.8"/>
      </defs>
      <g>
       <use xlink:href="#m3892be9b4f" x="692.181818" y="1260" style="stroke: #000000; stroke-width: 0.8"/>
      </g>
     </g>
     <g id="text_1">
      <!-- 0 -->
      <g transform="translate(684.228693 1285.996094)scale(0.25 -0.25)">
       <defs>
        <path id="DejaVuSans-30" d="M 2034 4250 
Q 1547 4250 1301 3770 
Q 1056 3291 1056 2328 
Q 1056 1369 1301 889 
Q 1547 409 2034 409 
Q 2525 409 2770 889 
Q 3016 1369 3016 2328 
Q 3016 3291 2770 3770 
Q 2525 4250 2034 4250 
z
M 2034 4750 
Q 2819 4750 3233 4129 
Q 3647 3509 3647 2328 
Q 3647 1150 3233 529 
Q 2819 -91 2034 -91 
Q 1250 -91 836 529 
Q 422 1150 422 2328 
Q 422 3509 836 4129 
Q 1250 4750 2034 4750 
z
" transform="scale(0.015625)"/>
       </defs>
       <use xlink:href="#DejaVuSans-30"/>
      </g>
     </g>
    </g>
    <g id="xtick_2">
     <g id="line2d_4">
      <g>
       <use xlink:href="#m3892be9b4f" x="1275.438287" y="1260" style="stroke: #000000; stroke-width: 0.8"/>
      </g>
     </g>
     <g id="text_2">
      <!-- 20 -->
      <g transform="translate(1259.532037 1285.996094)scale(0.25 -0.25)">
       <defs>
        <path id="DejaVuSans-32" d="M 1228 531 
L 3431 531 
L 3431 0 
L 469 0 
L 469 531 
Q 828 903 1448 1529 
Q 2069 2156 2228 2338 
Q 2531 2678 2651 2914 
Q 2772 3150 2772 3378 
Q 2772 3750 2511 3984 
Q 2250 4219 1831 4219 
Q 1534 4219 1204 4116 
Q 875 4013 500 3803 
L 500 4441 
Q 881 4594 1212 4672 
Q 1544 4750 1819 4750 
Q 2544 4750 2975 4387 
Q 3406 4025 3406 3419 
Q 3406 3131 3298 2873 
Q 3191 2616 2906 2266 
Q 2828 2175 2409 1742 
Q 1991 1309 1228 531 
z
" transform="scale(0.015625)"/>
       </defs>
       <use xlink:href="#DejaVuSans-32"/>
       <use xlink:href="#DejaVuSans-30" x="63.623047"/>
      </g>
     </g>
    </g>
    <g id="xtick_3">
     <g id="line2d_5">
      <g>
       <use xlink:href="#m3892be9b4f" x="1858.694756" y="1260" style="stroke: #000000; stroke-width: 0.8"/>
      </g>
     </g>
     <g id="text_3">
      <!-- 40 -->
      <g transform="translate(1842.788506 1285.996094)scale(0.25 -0.25)">
       <defs>
        <path id="DejaVuSans-34" d="M 2419 4116 
L 825 1625 
L 2419 1625 
L 2419 4116 
z
M 2253 4666 
L 3047 4666 
L 3047 1625 
L 3713 1625 
L 3713 1100 
L 3047 1100 
L 3047 0 
L 2419 0 
L 2419 1100 
L 313 1100 
L 313 1709 
L 2253 4666 
z
" transform="scale(0.015625)"/>
       </defs>
       <use xlink:href="#DejaVuSans-34"/>
       <use xlink:href="#DejaVuSans-30" x="63.623047"/>
      </g>
     </g>
    </g>
    <g id="xtick_4">
     <g id="line2d_6">
      <g>
       <use xlink:href="#m3892be9b4f" x="2441.951226" y="1260" style="stroke: #000000; stroke-width: 0.8"/>
      </g>
     </g>
     <g id="text_4">
      <!-- 60 -->
      <g transform="translate(2426.044976 1285.996094)scale(0.25 -0.25)">
       <defs>
        <path id="DejaVuSans-36" d="M 2113 2584 
Q 1688 2584 1439 2293 
Q 1191 2003 1191 1497 
Q 1191 994 1439 701 
Q 1688 409 2113 409 
Q 2538 409 2786 701 
Q 3034 994 3034 1497 
Q 3034 2003 2786 2293 
Q 2538 2584 2113 2584 
z
M 3366 4563 
L 3366 3988 
Q 3128 4100 2886 4159 
Q 2644 4219 2406 4219 
Q 1781 4219 1451 3797 
Q 1122 3375 1075 2522 
Q 1259 2794 1537 2939 
Q 1816 3084 2150 3084 
Q 2853 3084 3261 2657 
Q 3669 2231 3669 1497 
Q 3669 778 3244 343 
Q 2819 -91 2113 -91 
Q 1303 -91 875 529 
Q 447 1150 447 2328 
Q 447 3434 972 4092 
Q 1497 4750 2381 4750 
Q 2619 4750 2861 4703 
Q 3103 4656 3366 4563 
z
" transform="scale(0.015625)"/>
       </defs>
       <use xlink:href="#DejaVuSans-36"/>
       <use xlink:href="#DejaVuSans-30" x="63.623047"/>
      </g>
     </g>
    </g>
    <g id="xtick_5">
     <g id="line2d_7">
      <g>
       <use xlink:href="#m3892be9b4f" x="3025.207695" y="1260" style="stroke: #000000; stroke-width: 0.8"/>
      </g>
     </g>
     <g id="text_5">
      <!-- 80 -->
      <g transform="translate(3009.301445 1285.996094)scale(0.25 -0.25)">
       <defs>
        <path id="DejaVuSans-38" d="M 2034 2216 
Q 1584 2216 1326 1975 
Q 1069 1734 1069 1313 
Q 1069 891 1326 650 
Q 1584 409 2034 409 
Q 2484 409 2743 651 
Q 3003 894 3003 1313 
Q 3003 1734 2745 1975 
Q 2488 2216 2034 2216 
z
M 1403 2484 
Q 997 2584 770 2862 
Q 544 3141 544 3541 
Q 544 4100 942 4425 
Q 1341 4750 2034 4750 
Q 2731 4750 3128 4425 
Q 3525 4100 3525 3541 
Q 3525 3141 3298 2862 
Q 3072 2584 2669 2484 
Q 3125 2378 3379 2068 
Q 3634 1759 3634 1313 
Q 3634 634 3220 271 
Q 2806 -91 2034 -91 
Q 1263 -91 848 271 
Q 434 634 434 1313 
Q 434 1759 690 2068 
Q 947 2378 1403 2484 
z
M 1172 3481 
Q 1172 3119 1398 2916 
Q 1625 2713 2034 2713 
Q 2441 2713 2670 2916 
Q 2900 3119 2900 3481 
Q 2900 3844 2670 4047 
Q 2441 4250 2034 4250 
Q 1625 4250 1398 4047 
Q 1172 3844 1172 3481 
z
" transform="scale(0.015625)"/>
       </defs>
       <use xlink:href="#DejaVuSans-38"/>
       <use xlink:href="#DejaVuSans-30" x="63.623047"/>
      </g>
     </g>
    </g>
    <g id="xtick_6">
     <g id="line2d_8">
      <g>
       <use xlink:href="#m3892be9b4f" x="3608.464164" y="1260" style="stroke: #000000; stroke-width: 0.8"/>
      </g>
     </g>
     <g id="text_6">
      <!-- 100 -->
      <g transform="translate(3584.604789 1285.996094)scale(0.25 -0.25)">
       <defs>
        <path id="DejaVuSans-31" d="M 794 531 
L 1825 531 
L 1825 4091 
L 703 3866 
L 703 4441 
L 1819 4666 
L 2450 4666 
L 2450 531 
L 3481 531 
L 3481 0 
L 794 0 
L 794 531 
z
" transform="scale(0.015625)"/>
       </defs>
       <use xlink:href="#DejaVuSans-31"/>
       <use xlink:href="#DejaVuSans-30" x="63.623047"/>
       <use xlink:href="#DejaVuSans-30" x="127.246094"/>
      </g>
     </g>
    </g>
    <g id="text_7">
     <!-- Predicted Arc-Length at Anchors -->
     <g transform="translate(1931.719531 1321.789844)scale(0.35 -0.35)">
      <defs>
       <path id="DejaVuSans-50" d="M 1259 4147 
L 1259 2394 
L 2053 2394 
Q 2494 2394 2734 2622 
Q 2975 2850 2975 3272 
Q 2975 3691 2734 3919 
Q 2494 4147 2053 4147 
L 1259 4147 
z
M 628 4666 
L 2053 4666 
Q 2838 4666 3239 4311 
Q 3641 3956 3641 3272 
Q 3641 2581 3239 2228 
Q 2838 1875 2053 1875 
L 1259 1875 
L 1259 0 
L 628 0 
L 628 4666 
z
" transform="scale(0.015625)"/>
       <path id="DejaVuSans-72" d="M 2631 2963 
Q 2534 3019 2420 3045 
Q 2306 3072 2169 3072 
Q 1681 3072 1420 2755 
Q 1159 2438 1159 1844 
L 1159 0 
L 581 0 
L 581 3500 
L 1159 3500 
L 1159 2956 
Q 1341 3275 1631 3429 
Q 1922 3584 2338 3584 
Q 2397 3584 2469 3576 
Q 2541 3569 2628 3553 
L 2631 2963 
z
" transform="scale(0.015625)"/>
       <path id="DejaVuSans-65" d="M 3597 1894 
L 3597 1613 
L 953 1613 
Q 991 1019 1311 708 
Q 1631 397 2203 397 
Q 2534 397 2845 478 
Q 3156 559 3463 722 
L 3463 178 
Q 3153 47 2828 -22 
Q 2503 -91 2169 -91 
Q 1331 -91 842 396 
Q 353 884 353 1716 
Q 353 2575 817 3079 
Q 1281 3584 2069 3584 
Q 2775 3584 3186 3129 
Q 3597 2675 3597 1894 
z
M 3022 2063 
Q 3016 2534 2758 2815 
Q 2500 3097 2075 3097 
Q 1594 3097 1305 2825 
Q 1016 2553 972 2059 
L 3022 2063 
z
" transform="scale(0.015625)"/>
       <path id="DejaVuSans-64" d="M 2906 2969 
L 2906 4863 
L 3481 4863 
L 3481 0 
L 2906 0 
L 2906 525 
Q 2725 213 2448 61 
Q 2172 -91 1784 -91 
Q 1150 -91 751 415 
Q 353 922 353 1747 
Q 353 2572 751 3078 
Q 1150 3584 1784 3584 
Q 2172 3584 2448 3432 
Q 2725 3281 2906 2969 
z
M 947 1747 
Q 947 1113 1208 752 
Q 1469 391 1925 391 
Q 2381 391 2643 752 
Q 2906 1113 2906 1747 
Q 2906 2381 2643 2742 
Q 2381 3103 1925 3103 
Q 1469 3103 1208 2742 
Q 947 2381 947 1747 
z
" transform="scale(0.015625)"/>
       <path id="DejaVuSans-69" d="M 603 3500 
L 1178 3500 
L 1178 0 
L 603 0 
L 603 3500 
z
M 603 4863 
L 1178 4863 
L 1178 4134 
L 603 4134 
L 603 4863 
z
" transform="scale(0.015625)"/>
       <path id="DejaVuSans-63" d="M 3122 3366 
L 3122 2828 
Q 2878 2963 2633 3030 
Q 2388 3097 2138 3097 
Q 1578 3097 1268 2742 
Q 959 2388 959 1747 
Q 959 1106 1268 751 
Q 1578 397 2138 397 
Q 2388 397 2633 464 
Q 2878 531 3122 666 
L 3122 134 
Q 2881 22 2623 -34 
Q 2366 -91 2075 -91 
Q 1284 -91 818 406 
Q 353 903 353 1747 
Q 353 2603 823 3093 
Q 1294 3584 2113 3584 
Q 2378 3584 2631 3529 
Q 2884 3475 3122 3366 
z
" transform="scale(0.015625)"/>
       <path id="DejaVuSans-74" d="M 1172 4494 
L 1172 3500 
L 2356 3500 
L 2356 3053 
L 1172 3053 
L 1172 1153 
Q 1172 725 1289 603 
Q 1406 481 1766 481 
L 2356 481 
L 2356 0 
L 1766 0 
Q 1100 0 847 248 
Q 594 497 594 1153 
L 594 3053 
L 172 3053 
L 172 3500 
L 594 3500 
L 594 4494 
L 1172 4494 
z
" transform="scale(0.015625)"/>
       <path id="DejaVuSans-20" transform="scale(0.015625)"/>
       <path id="DejaVuSans-41" d="M 2188 4044 
L 1331 1722 
L 3047 1722 
L 2188 4044 
z
M 1831 4666 
L 2547 4666 
L 4325 0 
L 3669 0 
L 3244 1197 
L 1141 1197 
L 716 0 
L 50 0 
L 1831 4666 
z
" transform="scale(0.015625)"/>
       <path id="DejaVuSans-2d" d="M 313 2009 
L 1997 2009 
L 1997 1497 
L 313 1497 
L 313 2009 
z
" transform="scale(0.015625)"/>
       <path id="DejaVuSans-4c" d="M 628 4666 
L 1259 4666 
L 1259 531 
L 3531 531 
L 3531 0 
L 628 0 
L 628 4666 
z
" transform="scale(0.015625)"/>
       <path id="DejaVuSans-6e" d="M 3513 2113 
L 3513 0 
L 2938 0 
L 2938 2094 
Q 2938 2591 2744 2837 
Q 2550 3084 2163 3084 
Q 1697 3084 1428 2787 
Q 1159 2491 1159 1978 
L 1159 0 
L 581 0 
L 581 3500 
L 1159 3500 
L 1159 2956 
Q 1366 3272 1645 3428 
Q 1925 3584 2291 3584 
Q 2894 3584 3203 3211 
Q 3513 2838 3513 2113 
z
" transform="scale(0.015625)"/>
       <path id="DejaVuSans-67" d="M 2906 1791 
Q 2906 2416 2648 2759 
Q 2391 3103 1925 3103 
Q 1463 3103 1205 2759 
Q 947 2416 947 1791 
Q 947 1169 1205 825 
Q 1463 481 1925 481 
Q 2391 481 2648 825 
Q 2906 1169 2906 1791 
z
M 3481 434 
Q 3481 -459 3084 -895 
Q 2688 -1331 1869 -1331 
Q 1566 -1331 1297 -1286 
Q 1028 -1241 775 -1147 
L 775 -588 
Q 1028 -725 1275 -790 
Q 1522 -856 1778 -856 
Q 2344 -856 2625 -561 
Q 2906 -266 2906 331 
L 2906 616 
Q 2728 306 2450 153 
Q 2172 0 1784 0 
Q 1141 0 747 490 
Q 353 981 353 1791 
Q 353 2603 747 3093 
Q 1141 3584 1784 3584 
Q 2172 3584 2450 3431 
Q 2728 3278 2906 2969 
L 2906 3500 
L 3481 3500 
L 3481 434 
z
" transform="scale(0.015625)"/>
       <path id="DejaVuSans-68" d="M 3513 2113 
L 3513 0 
L 2938 0 
L 2938 2094 
Q 2938 2591 2744 2837 
Q 2550 3084 2163 3084 
Q 1697 3084 1428 2787 
Q 1159 2491 1159 1978 
L 1159 0 
L 581 0 
L 581 4863 
L 1159 4863 
L 1159 2956 
Q 1366 3272 1645 3428 
Q 1925 3584 2291 3584 
Q 2894 3584 3203 3211 
Q 3513 2838 3513 2113 
z
" transform="scale(0.015625)"/>
       <path id="DejaVuSans-61" d="M 2194 1759 
Q 1497 1759 1228 1600 
Q 959 1441 959 1056 
Q 959 750 1161 570 
Q 1363 391 1709 391 
Q 2188 391 2477 730 
Q 2766 1069 2766 1631 
L 2766 1759 
L 2194 1759 
z
M 3341 1997 
L 3341 0 
L 2766 0 
L 2766 531 
Q 2569 213 2275 61 
Q 1981 -91 1556 -91 
Q 1019 -91 701 211 
Q 384 513 384 1019 
Q 384 1609 779 1909 
Q 1175 2209 1959 2209 
L 2766 2209 
L 2766 2266 
Q 2766 2663 2505 2880 
Q 2244 3097 1772 3097 
Q 1472 3097 1187 3025 
Q 903 2953 641 2809 
L 641 3341 
Q 956 3463 1253 3523 
Q 1550 3584 1831 3584 
Q 2591 3584 2966 3190 
Q 3341 2797 3341 1997 
z
" transform="scale(0.015625)"/>
       <path id="DejaVuSans-6f" d="M 1959 3097 
Q 1497 3097 1228 2736 
Q 959 2375 959 1747 
Q 959 1119 1226 758 
Q 1494 397 1959 397 
Q 2419 397 2687 759 
Q 2956 1122 2956 1747 
Q 2956 2369 2687 2733 
Q 2419 3097 1959 3097 
z
M 1959 3584 
Q 2709 3584 3137 3096 
Q 3566 2609 3566 1747 
Q 3566 888 3137 398 
Q 2709 -91 1959 -91 
Q 1206 -91 779 398 
Q 353 888 353 1747 
Q 353 2609 779 3096 
Q 1206 3584 1959 3584 
z
" transform="scale(0.015625)"/>
       <path id="DejaVuSans-73" d="M 2834 3397 
L 2834 2853 
Q 2591 2978 2328 3040 
Q 2066 3103 1784 3103 
Q 1356 3103 1142 2972 
Q 928 2841 928 2578 
Q 928 2378 1081 2264 
Q 1234 2150 1697 2047 
L 1894 2003 
Q 2506 1872 2764 1633 
Q 3022 1394 3022 966 
Q 3022 478 2636 193 
Q 2250 -91 1575 -91 
Q 1294 -91 989 -36 
Q 684 19 347 128 
L 347 722 
Q 666 556 975 473 
Q 1284 391 1588 391 
Q 1994 391 2212 530 
Q 2431 669 2431 922 
Q 2431 1156 2273 1281 
Q 2116 1406 1581 1522 
L 1381 1569 
Q 847 1681 609 1914 
Q 372 2147 372 2553 
Q 372 3047 722 3315 
Q 1072 3584 1716 3584 
Q 2034 3584 2315 3537 
Q 2597 3491 2834 3397 
z
" transform="scale(0.015625)"/>
      </defs>
      <use xlink:href="#DejaVuSans-50"/>
      <use xlink:href="#DejaVuSans-72" x="58.552734"/>
      <use xlink:href="#DejaVuSans-65" x="97.416016"/>
      <use xlink:href="#DejaVuSans-64" x="158.939453"/>
      <use xlink:href="#DejaVuSans-69" x="222.416016"/>
      <use xlink:href="#DejaVuSans-63" x="250.199219"/>
      <use xlink:href="#DejaVuSans-74" x="305.179688"/>
      <use xlink:href="#DejaVuSans-65" x="344.388672"/>
      <use xlink:href="#DejaVuSans-64" x="405.912109"/>
      <use xlink:href="#DejaVuSans-20" x="469.388672"/>
      <use xlink:href="#DejaVuSans-41" x="501.175781"/>
      <use xlink:href="#DejaVuSans-72" x="569.583984"/>
      <use xlink:href="#DejaVuSans-63" x="608.447266"/>
      <use xlink:href="#DejaVuSans-2d" x="663.427734"/>
      <use xlink:href="#DejaVuSans-4c" x="699.511719"/>
      <use xlink:href="#DejaVuSans-65" x="753.474609"/>
      <use xlink:href="#DejaVuSans-6e" x="814.998047"/>
      <use xlink:href="#DejaVuSans-67" x="878.376953"/>
      <use xlink:href="#DejaVuSans-74" x="941.853516"/>
      <use xlink:href="#DejaVuSans-68" x="981.0625"/>
      <use xlink:href="#DejaVuSans-20" x="1044.441406"/>
      <use xlink:href="#DejaVuSans-61" x="1076.228516"/>
      <use xlink:href="#DejaVuSans-74" x="1137.507812"/>
      <use xlink:href="#DejaVuSans-20" x="1176.716797"/>
      <use xlink:href="#DejaVuSans-41" x="1208.503906"/>
      <use xlink:href="#DejaVuSans-6e" x="1276.912109"/>
      <use xlink:href="#DejaVuSans-63" x="1340.291016"/>
      <use xlink:href="#DejaVuSans-68" x="1395.271484"/>
      <use xlink:href="#DejaVuSans-6f" x="1458.650391"/>
      <use xlink:href="#DejaVuSans-72" x="1519.832031"/>
      <use xlink:href="#DejaVuSans-73" x="1560.945312"/>
     </g>
    </g>
   </g>
   <g id="matplotlib.axis_2">
    <g id="ytick_1">
     <g id="line2d_9">
      <defs>
       <path id="m9e0f5536bb" d="M 0 0 
L -3.5 0 
" style="stroke: #000000; stroke-width: 0.8"/>
      </defs>
      <g>
       <use xlink:href="#m9e0f5536bb" x="540" y="1099.641158" style="stroke: #000000; stroke-width: 0.8"/>
      </g>
     </g>
     <g id="text_8">
      <!-- −10 -->
      <g transform="translate(480.238281 1109.139205)scale(0.25 -0.25)">
       <defs>
        <path id="DejaVuSans-2212" d="M 678 2272 
L 4684 2272 
L 4684 1741 
L 678 1741 
L 678 2272 
z
" transform="scale(0.015625)"/>
       </defs>
       <use xlink:href="#DejaVuSans-2212"/>
       <use xlink:href="#DejaVuSans-31" x="83.789062"/>
       <use xlink:href="#DejaVuSans-30" x="147.412109"/>
      </g>
     </g>
    </g>
    <g id="ytick_2">
     <g id="line2d_10">
      <g>
       <use xlink:href="#m9e0f5536bb" x="540" y="929.070563" style="stroke: #000000; stroke-width: 0.8"/>
      </g>
     </g>
     <g id="text_9">
      <!-- −5 -->
      <g transform="translate(496.144531 938.56861)scale(0.25 -0.25)">
       <defs>
        <path id="DejaVuSans-35" d="M 691 4666 
L 3169 4666 
L 3169 4134 
L 1269 4134 
L 1269 2991 
Q 1406 3038 1543 3061 
Q 1681 3084 1819 3084 
Q 2600 3084 3056 2656 
Q 3513 2228 3513 1497 
Q 3513 744 3044 326 
Q 2575 -91 1722 -91 
Q 1428 -91 1123 -41 
Q 819 9 494 109 
L 494 744 
Q 775 591 1075 516 
Q 1375 441 1709 441 
Q 2250 441 2565 725 
Q 2881 1009 2881 1497 
Q 2881 1984 2565 2268 
Q 2250 2553 1709 2553 
Q 1456 2553 1204 2497 
Q 953 2441 691 2322 
L 691 4666 
z
" transform="scale(0.015625)"/>
       </defs>
       <use xlink:href="#DejaVuSans-2212"/>
       <use xlink:href="#DejaVuSans-35" x="83.789062"/>
      </g>
     </g>
    </g>
    <g id="ytick_3">
     <g id="line2d_11">
      <g>
       <use xlink:href="#m9e0f5536bb" x="540" y="758.499967" style="stroke: #000000; stroke-width: 0.8"/>
      </g>
     </g>
     <g id="text_10">
      <!-- 0 -->
      <g transform="translate(517.09375 767.998014)scale(0.25 -0.25)">
       <use xlink:href="#DejaVuSans-30"/>
      </g>
     </g>
    </g>
    <g id="ytick_4">
     <g id="line2d_12">
      <g>
       <use xlink:href="#m9e0f5536bb" x="540" y="587.929372" style="stroke: #000000; stroke-width: 0.8"/>
      </g>
     </g>
     <g id="text_11">
      <!-- 5 -->
      <g transform="translate(517.09375 597.427419)scale(0.25 -0.25)">
       <use xlink:href="#DejaVuSans-35"/>
      </g>
     </g>
    </g>
    <g id="ytick_5">
     <g id="line2d_13">
      <g>
       <use xlink:href="#m9e0f5536bb" x="540" y="417.358776" style="stroke: #000000; stroke-width: 0.8"/>
      </g>
     </g>
     <g id="text_12">
      <!-- 10 -->
      <g transform="translate(501.1875 426.856823)scale(0.25 -0.25)">
       <use xlink:href="#DejaVuSans-31"/>
       <use xlink:href="#DejaVuSans-30" x="63.623047"/>
      </g>
     </g>
    </g>
    <g id="ytick_6">
     <g id="line2d_14">
      <g>
       <use xlink:href="#m9e0f5536bb" x="540" y="246.788181" style="stroke: #000000; stroke-width: 0.8"/>
      </g>
     </g>
     <g id="text_13">
      <!-- 15 -->
      <g transform="translate(501.1875 256.286228)scale(0.25 -0.25)">
       <use xlink:href="#DejaVuSans-31"/>
       <use xlink:href="#DejaVuSans-35" x="63.623047"/>
      </g>
     </g>
    </g>
    <g id="text_14">
     <!-- Predicted Curvature at Anchors -->
     <g transform="translate(468.959375 990.715234)rotate(-90)scale(0.35 -0.35)">
      <defs>
       <path id="DejaVuSans-43" d="M 4122 4306 
L 4122 3641 
Q 3803 3938 3442 4084 
Q 3081 4231 2675 4231 
Q 1875 4231 1450 3742 
Q 1025 3253 1025 2328 
Q 1025 1406 1450 917 
Q 1875 428 2675 428 
Q 3081 428 3442 575 
Q 3803 722 4122 1019 
L 4122 359 
Q 3791 134 3420 21 
Q 3050 -91 2638 -91 
Q 1578 -91 968 557 
Q 359 1206 359 2328 
Q 359 3453 968 4101 
Q 1578 4750 2638 4750 
Q 3056 4750 3426 4639 
Q 3797 4528 4122 4306 
z
" transform="scale(0.015625)"/>
       <path id="DejaVuSans-75" d="M 544 1381 
L 544 3500 
L 1119 3500 
L 1119 1403 
Q 1119 906 1312 657 
Q 1506 409 1894 409 
Q 2359 409 2629 706 
Q 2900 1003 2900 1516 
L 2900 3500 
L 3475 3500 
L 3475 0 
L 2900 0 
L 2900 538 
Q 2691 219 2414 64 
Q 2138 -91 1772 -91 
Q 1169 -91 856 284 
Q 544 659 544 1381 
z
M 1991 3584 
L 1991 3584 
z
" transform="scale(0.015625)"/>
       <path id="DejaVuSans-76" d="M 191 3500 
L 800 3500 
L 1894 563 
L 2988 3500 
L 3597 3500 
L 2284 0 
L 1503 0 
L 191 3500 
z
" transform="scale(0.015625)"/>
      </defs>
      <use xlink:href="#DejaVuSans-50"/>
      <use xlink:href="#DejaVuSans-72" x="58.552734"/>
      <use xlink:href="#DejaVuSans-65" x="97.416016"/>
      <use xlink:href="#DejaVuSans-64" x="158.939453"/>
      <use xlink:href="#DejaVuSans-69" x="222.416016"/>
      <use xlink:href="#DejaVuSans-63" x="250.199219"/>
      <use xlink:href="#DejaVuSans-74" x="305.179688"/>
      <use xlink:href="#DejaVuSans-65" x="344.388672"/>
      <use xlink:href="#DejaVuSans-64" x="405.912109"/>
      <use xlink:href="#DejaVuSans-20" x="469.388672"/>
      <use xlink:href="#DejaVuSans-43" x="501.175781"/>
      <use xlink:href="#DejaVuSans-75" x="571"/>
      <use xlink:href="#DejaVuSans-72" x="634.378906"/>
      <use xlink:href="#DejaVuSans-76" x="675.492188"/>
      <use xlink:href="#DejaVuSans-61" x="734.671875"/>
      <use xlink:href="#DejaVuSans-74" x="795.951172"/>
      <use xlink:href="#DejaVuSans-75" x="835.160156"/>
      <use xlink:href="#DejaVuSans-72" x="898.539062"/>
      <use xlink:href="#DejaVuSans-65" x="937.402344"/>
      <use xlink:href="#DejaVuSans-20" x="998.925781"/>
      <use xlink:href="#DejaVuSans-61" x="1030.712891"/>
      <use xlink:href="#DejaVuSans-74" x="1091.992188"/>
      <use xlink:href="#DejaVuSans-20" x="1131.201172"/>
      <use xlink:href="#DejaVuSans-41" x="1162.988281"/>
      <use xlink:href="#DejaVuSans-6e" x="1231.396484"/>
      <use xlink:href="#DejaVuSans-63" x="1294.775391"/>
      <use xlink:href="#DejaVuSans-68" x="1349.755859"/>
      <use xlink:href="#DejaVuSans-6f" x="1413.134766"/>
      <use xlink:href="#DejaVuSans-72" x="1474.316406"/>
      <use xlink:href="#DejaVuSans-73" x="1515.429688"/>
     </g>
    </g>
   </g>
   <g id="patch_3">
    <path d="M 540 1260 
L 540 172.8 
" style="fill: none; stroke: #000000; stroke-width: 0.8; stroke-linejoin: miter; stroke-linecap: square"/>
   </g>
   <g id="patch_4">
    <path d="M 3888 1260 
L 3888 172.8 
" style="fill: none; stroke: #000000; stroke-width: 0.8; stroke-linejoin: miter; stroke-linecap: square"/>
   </g>
   <g id="patch_5">
    <path d="M 540 1260 
L 3888 1260 
" style="fill: none; stroke: #000000; stroke-width: 0.8; stroke-linejoin: miter; stroke-linecap: square"/>
   </g>
   <g id="patch_6">
    <path d="M 540 172.8 
L 3888 172.8 
" style="fill: none; stroke: #000000; stroke-width: 0.8; stroke-linejoin: miter; stroke-linecap: square"/>
   </g>
   <g id="text_15">
    <!-- Predicted Signature Curve at Anchors (Transformed Curve #1 vs. Transformed Curve #2) -->
    <g transform="translate(1434.875391 165.521094)scale(0.35 -0.35)">
     <defs>
      <path id="DejaVuSans-53" d="M 3425 4513 
L 3425 3897 
Q 3066 4069 2747 4153 
Q 2428 4238 2131 4238 
Q 1616 4238 1336 4038 
Q 1056 3838 1056 3469 
Q 1056 3159 1242 3001 
Q 1428 2844 1947 2747 
L 2328 2669 
Q 3034 2534 3370 2195 
Q 3706 1856 3706 1288 
Q 3706 609 3251 259 
Q 2797 -91 1919 -91 
Q 1588 -91 1214 -16 
Q 841 59 441 206 
L 441 856 
Q 825 641 1194 531 
Q 1563 422 1919 422 
Q 2459 422 2753 634 
Q 3047 847 3047 1241 
Q 3047 1584 2836 1778 
Q 2625 1972 2144 2069 
L 1759 2144 
Q 1053 2284 737 2584 
Q 422 2884 422 3419 
Q 422 4038 858 4394 
Q 1294 4750 2059 4750 
Q 2388 4750 2728 4690 
Q 3069 4631 3425 4513 
z
" transform="scale(0.015625)"/>
      <path id="DejaVuSans-28" d="M 1984 4856 
Q 1566 4138 1362 3434 
Q 1159 2731 1159 2009 
Q 1159 1288 1364 580 
Q 1569 -128 1984 -844 
L 1484 -844 
Q 1016 -109 783 600 
Q 550 1309 550 2009 
Q 550 2706 781 3412 
Q 1013 4119 1484 4856 
L 1984 4856 
z
" transform="scale(0.015625)"/>
      <path id="DejaVuSans-54" d="M -19 4666 
L 3928 4666 
L 3928 4134 
L 2272 4134 
L 2272 0 
L 1638 0 
L 1638 4134 
L -19 4134 
L -19 4666 
z
" transform="scale(0.015625)"/>
      <path id="DejaVuSans-66" d="M 2375 4863 
L 2375 4384 
L 1825 4384 
Q 1516 4384 1395 4259 
Q 1275 4134 1275 3809 
L 1275 3500 
L 2222 3500 
L 2222 3053 
L 1275 3053 
L 1275 0 
L 697 0 
L 697 3053 
L 147 3053 
L 147 3500 
L 697 3500 
L 697 3744 
Q 697 4328 969 4595 
Q 1241 4863 1831 4863 
L 2375 4863 
z
" transform="scale(0.015625)"/>
      <path id="DejaVuSans-6d" d="M 3328 2828 
Q 3544 3216 3844 3400 
Q 4144 3584 4550 3584 
Q 5097 3584 5394 3201 
Q 5691 2819 5691 2113 
L 5691 0 
L 5113 0 
L 5113 2094 
Q 5113 2597 4934 2840 
Q 4756 3084 4391 3084 
Q 3944 3084 3684 2787 
Q 3425 2491 3425 1978 
L 3425 0 
L 2847 0 
L 2847 2094 
Q 2847 2600 2669 2842 
Q 2491 3084 2119 3084 
Q 1678 3084 1418 2786 
Q 1159 2488 1159 1978 
L 1159 0 
L 581 0 
L 581 3500 
L 1159 3500 
L 1159 2956 
Q 1356 3278 1631 3431 
Q 1906 3584 2284 3584 
Q 2666 3584 2933 3390 
Q 3200 3197 3328 2828 
z
" transform="scale(0.015625)"/>
      <path id="DejaVuSans-23" d="M 3272 2816 
L 2363 2816 
L 2100 1772 
L 3016 1772 
L 3272 2816 
z
M 2803 4594 
L 2478 3297 
L 3391 3297 
L 3719 4594 
L 4219 4594 
L 3897 3297 
L 4872 3297 
L 4872 2816 
L 3775 2816 
L 3519 1772 
L 4513 1772 
L 4513 1294 
L 3397 1294 
L 3072 0 
L 2572 0 
L 2894 1294 
L 1978 1294 
L 1656 0 
L 1153 0 
L 1478 1294 
L 494 1294 
L 494 1772 
L 1594 1772 
L 1856 2816 
L 850 2816 
L 850 3297 
L 1978 3297 
L 2297 4594 
L 2803 4594 
z
" transform="scale(0.015625)"/>
      <path id="DejaVuSans-2e" d="M 684 794 
L 1344 794 
L 1344 0 
L 684 0 
L 684 794 
z
" transform="scale(0.015625)"/>
      <path id="DejaVuSans-29" d="M 513 4856 
L 1013 4856 
Q 1481 4119 1714 3412 
Q 1947 2706 1947 2009 
Q 1947 1309 1714 600 
Q 1481 -109 1013 -844 
L 513 -844 
Q 928 -128 1133 580 
Q 1338 1288 1338 2009 
Q 1338 2731 1133 3434 
Q 928 4138 513 4856 
z
" transform="scale(0.015625)"/>
     </defs>
     <use xlink:href="#DejaVuSans-50"/>
     <use xlink:href="#DejaVuSans-72" x="58.552734"/>
     <use xlink:href="#DejaVuSans-65" x="97.416016"/>
     <use xlink:href="#DejaVuSans-64" x="158.939453"/>
     <use xlink:href="#DejaVuSans-69" x="222.416016"/>
     <use xlink:href="#DejaVuSans-63" x="250.199219"/>
     <use xlink:href="#DejaVuSans-74" x="305.179688"/>
     <use xlink:href="#DejaVuSans-65" x="344.388672"/>
     <use xlink:href="#DejaVuSans-64" x="405.912109"/>
     <use xlink:href="#DejaVuSans-20" x="469.388672"/>
     <use xlink:href="#DejaVuSans-53" x="501.175781"/>
     <use xlink:href="#DejaVuSans-69" x="564.652344"/>
     <use xlink:href="#DejaVuSans-67" x="592.435547"/>
     <use xlink:href="#DejaVuSans-6e" x="655.912109"/>
     <use xlink:href="#DejaVuSans-61" x="719.291016"/>
     <use xlink:href="#DejaVuSans-74" x="780.570312"/>
     <use xlink:href="#DejaVuSans-75" x="819.779297"/>
     <use xlink:href="#DejaVuSans-72" x="883.158203"/>
     <use xlink:href="#DejaVuSans-65" x="922.021484"/>
     <use xlink:href="#DejaVuSans-20" x="983.544922"/>
     <use xlink:href="#DejaVuSans-43" x="1015.332031"/>
     <use xlink:href="#DejaVuSans-75" x="1085.15625"/>
     <use xlink:href="#DejaVuSans-72" x="1148.535156"/>
     <use xlink:href="#DejaVuSans-76" x="1189.648438"/>
     <use xlink:href="#DejaVuSans-65" x="1248.828125"/>
     <use xlink:href="#DejaVuSans-20" x="1310.351562"/>
     <use xlink:href="#DejaVuSans-61" x="1342.138672"/>
     <use xlink:href="#DejaVuSans-74" x="1403.417969"/>
     <use xlink:href="#DejaVuSans-20" x="1442.626953"/>
     <use xlink:href="#DejaVuSans-41" x="1474.414062"/>
     <use xlink:href="#DejaVuSans-6e" x="1542.822266"/>
     <use xlink:href="#DejaVuSans-63" x="1606.201172"/>
     <use xlink:href="#DejaVuSans-68" x="1661.181641"/>
     <use xlink:href="#DejaVuSans-6f" x="1724.560547"/>
     <use xlink:href="#DejaVuSans-72" x="1785.742188"/>
     <use xlink:href="#DejaVuSans-73" x="1826.855469"/>
     <use xlink:href="#DejaVuSans-20" x="1878.955078"/>
     <use xlink:href="#DejaVuSans-28" x="1910.742188"/>
     <use xlink:href="#DejaVuSans-54" x="1949.755859"/>
     <use xlink:href="#DejaVuSans-72" x="1996.089844"/>
     <use xlink:href="#DejaVuSans-61" x="2037.203125"/>
     <use xlink:href="#DejaVuSans-6e" x="2098.482422"/>
     <use xlink:href="#DejaVuSans-73" x="2161.861328"/>
     <use xlink:href="#DejaVuSans-66" x="2213.960938"/>
     <use xlink:href="#DejaVuSans-6f" x="2249.166016"/>
     <use xlink:href="#DejaVuSans-72" x="2310.347656"/>
     <use xlink:href="#DejaVuSans-6d" x="2349.710938"/>
     <use xlink:href="#DejaVuSans-65" x="2447.123047"/>
     <use xlink:href="#DejaVuSans-64" x="2508.646484"/>
     <use xlink:href="#DejaVuSans-20" x="2572.123047"/>
     <use xlink:href="#DejaVuSans-43" x="2603.910156"/>
     <use xlink:href="#DejaVuSans-75" x="2673.734375"/>
     <use xlink:href="#DejaVuSans-72" x="2737.113281"/>
     <use xlink:href="#DejaVuSans-76" x="2778.226562"/>
     <use xlink:href="#DejaVuSans-65" x="2837.40625"/>
     <use xlink:href="#DejaVuSans-20" x="2898.929688"/>
     <use xlink:href="#DejaVuSans-23" x="2930.716797"/>
     <use xlink:href="#DejaVuSans-31" x="3014.505859"/>
     <use xlink:href="#DejaVuSans-20" x="3078.128906"/>
     <use xlink:href="#DejaVuSans-76" x="3109.916016"/>
     <use xlink:href="#DejaVuSans-73" x="3169.095703"/>
     <use xlink:href="#DejaVuSans-2e" x="3221.195312"/>
     <use xlink:href="#DejaVuSans-20" x="3252.982422"/>
     <use xlink:href="#DejaVuSans-54" x="3284.769531"/>
     <use xlink:href="#DejaVuSans-72" x="3331.103516"/>
     <use xlink:href="#DejaVuSans-61" x="3372.216797"/>
     <use xlink:href="#DejaVuSans-6e" x="3433.496094"/>
     <use xlink:href="#DejaVuSans-73" x="3496.875"/>
     <use xlink:href="#DejaVuSans-66" x="3548.974609"/>
     <use xlink:href="#DejaVuSans-6f" x="3584.179688"/>
     <use xlink:href="#DejaVuSans-72" x="3645.361328"/>
     <use xlink:href="#DejaVuSans-6d" x="3684.724609"/>
     <use xlink:href="#DejaVuSans-65" x="3782.136719"/>
     <use xlink:href="#DejaVuSans-64" x="3843.660156"/>
     <use xlink:href="#DejaVuSans-20" x="3907.136719"/>
     <use xlink:href="#DejaVuSans-43" x="3938.923828"/>
     <use xlink:href="#DejaVuSans-75" x="4008.748047"/>
     <use xlink:href="#DejaVuSans-72" x="4072.126953"/>
     <use xlink:href="#DejaVuSans-76" x="4113.240234"/>
     <use xlink:href="#DejaVuSans-65" x="4172.419922"/>
     <use xlink:href="#DejaVuSans-20" x="4233.943359"/>
     <use xlink:href="#DejaVuSans-23" x="4265.730469"/>
     <use xlink:href="#DejaVuSans-32" x="4349.519531"/>
     <use xlink:href="#DejaVuSans-29" x="4413.142578"/>
    </g>
   </g>
   <g id="legend_1">
    <g id="patch_7">
     <path d="M 3153.359375 266.190625 
L 3870.5 266.190625 
Q 3875.5 266.190625 3875.5 261.190625 
L 3875.5 190.3 
Q 3875.5 185.3 3870.5 185.3 
L 3153.359375 185.3 
Q 3148.359375 185.3 3148.359375 190.3 
L 3148.359375 261.190625 
Q 3148.359375 266.190625 3153.359375 266.190625 
z
" style="fill: #ffffff; opacity: 0.8; stroke: #cccccc; stroke-linejoin: miter"/>
    </g>
    <g id="line2d_15">
     <path d="M 3158.359375 205.546094 
L 3183.359375 205.546094 
L 3208.359375 205.546094 
" style="fill: none; stroke: #aa0000; stroke-width: 4; stroke-linecap: square"/>
    </g>
    <g id="text_16">
     <!-- Predicted Signature Curve (Transformed Curve #1) -->
     <g transform="translate(3228.359375 214.296094)scale(0.25 -0.25)">
      <use xlink:href="#DejaVuSans-50"/>
      <use xlink:href="#DejaVuSans-72" x="58.552734"/>
      <use xlink:href="#DejaVuSans-65" x="97.416016"/>
      <use xlink:href="#DejaVuSans-64" x="158.939453"/>
      <use xlink:href="#DejaVuSans-69" x="222.416016"/>
      <use xlink:href="#DejaVuSans-63" x="250.199219"/>
      <use xlink:href="#DejaVuSans-74" x="305.179688"/>
      <use xlink:href="#DejaVuSans-65" x="344.388672"/>
      <use xlink:href="#DejaVuSans-64" x="405.912109"/>
      <use xlink:href="#DejaVuSans-20" x="469.388672"/>
      <use xlink:href="#DejaVuSans-53" x="501.175781"/>
      <use xlink:href="#DejaVuSans-69" x="564.652344"/>
      <use xlink:href="#DejaVuSans-67" x="592.435547"/>
      <use xlink:href="#DejaVuSans-6e" x="655.912109"/>
      <use xlink:href="#DejaVuSans-61" x="719.291016"/>
      <use xlink:href="#DejaVuSans-74" x="780.570312"/>
      <use xlink:href="#DejaVuSans-75" x="819.779297"/>
      <use xlink:href="#DejaVuSans-72" x="883.158203"/>
      <use xlink:href="#DejaVuSans-65" x="922.021484"/>
      <use xlink:href="#DejaVuSans-20" x="983.544922"/>
      <use xlink:href="#DejaVuSans-43" x="1015.332031"/>
      <use xlink:href="#DejaVuSans-75" x="1085.15625"/>
      <use xlink:href="#DejaVuSans-72" x="1148.535156"/>
      <use xlink:href="#DejaVuSans-76" x="1189.648438"/>
      <use xlink:href="#DejaVuSans-65" x="1248.828125"/>
      <use xlink:href="#DejaVuSans-20" x="1310.351562"/>
      <use xlink:href="#DejaVuSans-28" x="1342.138672"/>
      <use xlink:href="#DejaVuSans-54" x="1381.152344"/>
      <use xlink:href="#DejaVuSans-72" x="1427.486328"/>
      <use xlink:href="#DejaVuSans-61" x="1468.599609"/>
      <use xlink:href="#DejaVuSans-6e" x="1529.878906"/>
      <use xlink:href="#DejaVuSans-73" x="1593.257812"/>
      <use xlink:href="#DejaVuSans-66" x="1645.357422"/>
      <use xlink:href="#DejaVuSans-6f" x="1680.5625"/>
      <use xlink:href="#DejaVuSans-72" x="1741.744141"/>
      <use xlink:href="#DejaVuSans-6d" x="1781.107422"/>
      <use xlink:href="#DejaVuSans-65" x="1878.519531"/>
      <use xlink:href="#DejaVuSans-64" x="1940.042969"/>
      <use xlink:href="#DejaVuSans-20" x="2003.519531"/>
      <use xlink:href="#DejaVuSans-43" x="2035.306641"/>
      <use xlink:href="#DejaVuSans-75" x="2105.130859"/>
      <use xlink:href="#DejaVuSans-72" x="2168.509766"/>
      <use xlink:href="#DejaVuSans-76" x="2209.623047"/>
      <use xlink:href="#DejaVuSans-65" x="2268.802734"/>
      <use xlink:href="#DejaVuSans-20" x="2330.326172"/>
      <use xlink:href="#DejaVuSans-23" x="2362.113281"/>
      <use xlink:href="#DejaVuSans-31" x="2445.902344"/>
      <use xlink:href="#DejaVuSans-29" x="2509.525391"/>
     </g>
    </g>
    <g id="line2d_16">
     <path d="M 3158.359375 242.241406 
L 3183.359375 242.241406 
L 3208.359375 242.241406 
" style="fill: none; stroke: #00aa00; stroke-width: 4; stroke-linecap: square"/>
    </g>
    <g id="text_17">
     <!-- Predicted Signature Curve (Transformed Curve #2) -->
     <g transform="translate(3228.359375 250.991406)scale(0.25 -0.25)">
      <use xlink:href="#DejaVuSans-50"/>
      <use xlink:href="#DejaVuSans-72" x="58.552734"/>
      <use xlink:href="#DejaVuSans-65" x="97.416016"/>
      <use xlink:href="#DejaVuSans-64" x="158.939453"/>
      <use xlink:href="#DejaVuSans-69" x="222.416016"/>
      <use xlink:href="#DejaVuSans-63" x="250.199219"/>
      <use xlink:href="#DejaVuSans-74" x="305.179688"/>
      <use xlink:href="#DejaVuSans-65" x="344.388672"/>
      <use xlink:href="#DejaVuSans-64" x="405.912109"/>
      <use xlink:href="#DejaVuSans-20" x="469.388672"/>
      <use xlink:href="#DejaVuSans-53" x="501.175781"/>
      <use xlink:href="#DejaVuSans-69" x="564.652344"/>
      <use xlink:href="#DejaVuSans-67" x="592.435547"/>
      <use xlink:href="#DejaVuSans-6e" x="655.912109"/>
      <use xlink:href="#DejaVuSans-61" x="719.291016"/>
      <use xlink:href="#DejaVuSans-74" x="780.570312"/>
      <use xlink:href="#DejaVuSans-75" x="819.779297"/>
      <use xlink:href="#DejaVuSans-72" x="883.158203"/>
      <use xlink:href="#DejaVuSans-65" x="922.021484"/>
      <use xlink:href="#DejaVuSans-20" x="983.544922"/>
      <use xlink:href="#DejaVuSans-43" x="1015.332031"/>
      <use xlink:href="#DejaVuSans-75" x="1085.15625"/>
      <use xlink:href="#DejaVuSans-72" x="1148.535156"/>
      <use xlink:href="#DejaVuSans-76" x="1189.648438"/>
      <use xlink:href="#DejaVuSans-65" x="1248.828125"/>
      <use xlink:href="#DejaVuSans-20" x="1310.351562"/>
      <use xlink:href="#DejaVuSans-28" x="1342.138672"/>
      <use xlink:href="#DejaVuSans-54" x="1381.152344"/>
      <use xlink:href="#DejaVuSans-72" x="1427.486328"/>
      <use xlink:href="#DejaVuSans-61" x="1468.599609"/>
      <use xlink:href="#DejaVuSans-6e" x="1529.878906"/>
      <use xlink:href="#DejaVuSans-73" x="1593.257812"/>
      <use xlink:href="#DejaVuSans-66" x="1645.357422"/>
      <use xlink:href="#DejaVuSans-6f" x="1680.5625"/>
      <use xlink:href="#DejaVuSans-72" x="1741.744141"/>
      <use xlink:href="#DejaVuSans-6d" x="1781.107422"/>
      <use xlink:href="#DejaVuSans-65" x="1878.519531"/>
      <use xlink:href="#DejaVuSans-64" x="1940.042969"/>
      <use xlink:href="#DejaVuSans-20" x="2003.519531"/>
      <use xlink:href="#DejaVuSans-43" x="2035.306641"/>
      <use xlink:href="#DejaVuSans-75" x="2105.130859"/>
      <use xlink:href="#DejaVuSans-72" x="2168.509766"/>
      <use xlink:href="#DejaVuSans-76" x="2209.623047"/>
      <use xlink:href="#DejaVuSans-65" x="2268.802734"/>
      <use xlink:href="#DejaVuSans-20" x="2330.326172"/>
      <use xlink:href="#DejaVuSans-23" x="2362.113281"/>
      <use xlink:href="#DejaVuSans-32" x="2445.902344"/>
      <use xlink:href="#DejaVuSans-29" x="2509.525391"/>
     </g>
    </g>
   </g>
   <g id="PathCollection_1">
    <defs>
     <path id="m9397f33255" d="M 0 0.707107 
C 0.187527 0.707107 0.367398 0.632602 0.5 0.5 
C 0.632602 0.367398 0.707107 0.187527 0.707107 0 
C 0.707107 -0.187527 0.632602 -0.367398 0.5 -0.5 
C 0.367398 -0.632602 0.187527 -0.707107 0 -0.707107 
C -0.187527 -0.707107 -0.367398 -0.632602 -0.5 -0.5 
C -0.632602 -0.367398 -0.707107 -0.187527 -0.707107 0 
C -0.707107 0.187527 -0.632602 0.367398 -0.5 0.5 
C -0.367398 0.632602 -0.187527 0.707107 0 0.707107 
z
" style="stroke: #aa0000"/>
    </defs>
    <g clip-path="url(#p2676014fd3)">
     <use xlink:href="#m9397f33255" x="692.181818" y="1034.303262" style="fill: #aa0000; stroke: #aa0000"/>
     <use xlink:href="#m9397f33255" x="710.751634" y="1014.29306" style="fill: #aa0000; stroke: #aa0000"/>
     <use xlink:href="#m9397f33255" x="729.27891" y="999.513877" style="fill: #aa0000; stroke: #aa0000"/>
     <use xlink:href="#m9397f33255" x="747.717417" y="986.64456" style="fill: #aa0000; stroke: #aa0000"/>
     <use xlink:href="#m9397f33255" x="765.974284" y="975.333648" style="fill: #aa0000; stroke: #aa0000"/>
     <use xlink:href="#m9397f33255" x="783.904131" y="964.898507" style="fill: #aa0000; stroke: #aa0000"/>
     <use xlink:href="#m9397f33255" x="801.149821" y="955.575895" style="fill: #aa0000; stroke: #aa0000"/>
     <use xlink:href="#m9397f33255" x="818.501473" y="948.115224" style="fill: #aa0000; stroke: #aa0000"/>
     <use xlink:href="#m9397f33255" x="835.829329" y="942.480092" style="fill: #aa0000; stroke: #aa0000"/>
     <use xlink:href="#m9397f33255" x="851.145696" y="937.787983" style="fill: #aa0000; stroke: #aa0000"/>
     <use xlink:href="#m9397f33255" x="871.636297" y="932.805619" style="fill: #aa0000; stroke: #aa0000"/>
     <use xlink:href="#m9397f33255" x="893.580533" y="926.066384" style="fill: #aa0000; stroke: #aa0000"/>
     <use xlink:href="#m9397f33255" x="917.812226" y="915.695463" style="fill: #aa0000; stroke: #aa0000"/>
     <use xlink:href="#m9397f33255" x="943.155416" y="899.546715" style="fill: #aa0000; stroke: #aa0000"/>
     <use xlink:href="#m9397f33255" x="969.209083" y="877.299521" style="fill: #aa0000; stroke: #aa0000"/>
     <use xlink:href="#m9397f33255" x="995.370187" y="853.684437" style="fill: #aa0000; stroke: #aa0000"/>
     <use xlink:href="#m9397f33255" x="1021.526574" y="823.315333" style="fill: #aa0000; stroke: #aa0000"/>
     <use xlink:href="#m9397f33255" x="1047.701803" y="756.627412" style="fill: #aa0000; stroke: #aa0000"/>
     <use xlink:href="#m9397f33255" x="1073.715098" y="460.36801" style="fill: #aa0000; stroke: #aa0000"/>
     <use xlink:href="#m9397f33255" x="1099.042129" y="265.985774" style="fill: #aa0000; stroke: #aa0000"/>
     <use xlink:href="#m9397f33255" x="1123.492026" y="263.201428" style="fill: #aa0000; stroke: #aa0000"/>
     <use xlink:href="#m9397f33255" x="1146.345186" y="298.965936" style="fill: #aa0000; stroke: #aa0000"/>
     <use xlink:href="#m9397f33255" x="1167.294794" y="335.778092" style="fill: #aa0000; stroke: #aa0000"/>
     <use xlink:href="#m9397f33255" x="1187.088193" y="365.437538" style="fill: #aa0000; stroke: #aa0000"/>
     <use xlink:href="#m9397f33255" x="1206.945012" y="388.339275" style="fill: #aa0000; stroke: #aa0000"/>
     <use xlink:href="#m9397f33255" x="1223.964157" y="406.628057" style="fill: #aa0000; stroke: #aa0000"/>
     <use xlink:href="#m9397f33255" x="1240.318055" y="422.287992" style="fill: #aa0000; stroke: #aa0000"/>
     <use xlink:href="#m9397f33255" x="1257.161047" y="436.839846" style="fill: #aa0000; stroke: #aa0000"/>
     <use xlink:href="#m9397f33255" x="1274.014213" y="451.363967" style="fill: #aa0000; stroke: #aa0000"/>
     <use xlink:href="#m9397f33255" x="1291.548247" y="466.441984" style="fill: #aa0000; stroke: #aa0000"/>
     <use xlink:href="#m9397f33255" x="1309.103157" y="481.416469" style="fill: #aa0000; stroke: #aa0000"/>
     <use xlink:href="#m9397f33255" x="1326.629193" y="494.625664" style="fill: #aa0000; stroke: #aa0000"/>
     <use xlink:href="#m9397f33255" x="1344.155309" y="521.040733" style="fill: #aa0000; stroke: #aa0000"/>
     <use xlink:href="#m9397f33255" x="1361.673241" y="667.258048" style="fill: #aa0000; stroke: #aa0000"/>
     <use xlink:href="#m9397f33255" x="1379.175006" y="1048.081668" style="fill: #aa0000; stroke: #aa0000"/>
     <use xlink:href="#m9397f33255" x="1396.681225" y="1086.729662" style="fill: #aa0000; stroke: #aa0000"/>
     <use xlink:href="#m9397f33255" x="1414.195807" y="1054.808035" style="fill: #aa0000; stroke: #aa0000"/>
     <use xlink:href="#m9397f33255" x="1430.969054" y="1014.434348" style="fill: #aa0000; stroke: #aa0000"/>
     <use xlink:href="#m9397f33255" x="1447.553395" y="990.767825" style="fill: #aa0000; stroke: #aa0000"/>
     <use xlink:href="#m9397f33255" x="1463.713535" y="979.160835" style="fill: #aa0000; stroke: #aa0000"/>
     <use xlink:href="#m9397f33255" x="1479.850277" y="972.613537" style="fill: #aa0000; stroke: #aa0000"/>
     <use xlink:href="#m9397f33255" x="1497.465265" y="968.476808" style="fill: #aa0000; stroke: #aa0000"/>
     <use xlink:href="#m9397f33255" x="1517.693315" y="965.950389" style="fill: #aa0000; stroke: #aa0000"/>
     <use xlink:href="#m9397f33255" x="1537.954154" y="964.853537" style="fill: #aa0000; stroke: #aa0000"/>
     <use xlink:href="#m9397f33255" x="1559.521092" y="965.176018" style="fill: #aa0000; stroke: #aa0000"/>
     <use xlink:href="#m9397f33255" x="1582.532741" y="966.938954" style="fill: #aa0000; stroke: #aa0000"/>
     <use xlink:href="#m9397f33255" x="1606.689708" y="970.118141" style="fill: #aa0000; stroke: #aa0000"/>
     <use xlink:href="#m9397f33255" x="1631.478971" y="974.60197" style="fill: #aa0000; stroke: #aa0000"/>
     <use xlink:href="#m9397f33255" x="1656.62049" y="980.178286" style="fill: #aa0000; stroke: #aa0000"/>
     <use xlink:href="#m9397f33255" x="1681.942066" y="986.551932" style="fill: #aa0000; stroke: #aa0000"/>
     <use xlink:href="#m9397f33255" x="1707.247978" y="993.387603" style="fill: #aa0000; stroke: #aa0000"/>
     <use xlink:href="#m9397f33255" x="1732.329761" y="1000.358516" style="fill: #aa0000; stroke: #aa0000"/>
     <use xlink:href="#m9397f33255" x="1756.927706" y="1007.178006" style="fill: #aa0000; stroke: #aa0000"/>
     <use xlink:href="#m9397f33255" x="1780.583539" y="1013.601777" style="fill: #aa0000; stroke: #aa0000"/>
     <use xlink:href="#m9397f33255" x="1802.619269" y="1019.406301" style="fill: #aa0000; stroke: #aa0000"/>
     <use xlink:href="#m9397f33255" x="1822.525927" y="1024.362464" style="fill: #aa0000; stroke: #aa0000"/>
     <use xlink:href="#m9397f33255" x="1842.310062" y="1028.222304" style="fill: #aa0000; stroke: #aa0000"/>
     <use xlink:href="#m9397f33255" x="1860.578682" y="1030.72657" style="fill: #aa0000; stroke: #aa0000"/>
     <use xlink:href="#m9397f33255" x="1877.956445" y="1031.639876" style="fill: #aa0000; stroke: #aa0000"/>
     <use xlink:href="#m9397f33255" x="1895.410807" y="1030.816158" style="fill: #aa0000; stroke: #aa0000"/>
     <use xlink:href="#m9397f33255" x="1913.243247" y="1028.272414" style="fill: #aa0000; stroke: #aa0000"/>
     <use xlink:href="#m9397f33255" x="1931.117571" y="1024.226986" style="fill: #aa0000; stroke: #aa0000"/>
     <use xlink:href="#m9397f33255" x="1948.994221" y="1019.070888" style="fill: #aa0000; stroke: #aa0000"/>
     <use xlink:href="#m9397f33255" x="1966.870354" y="1013.277163" style="fill: #aa0000; stroke: #aa0000"/>
     <use xlink:href="#m9397f33255" x="1984.686427" y="1007.286751" style="fill: #aa0000; stroke: #aa0000"/>
     <use xlink:href="#m9397f33255" x="2002.447629" y="1001.416598" style="fill: #aa0000; stroke: #aa0000"/>
     <use xlink:href="#m9397f33255" x="2020.165275" y="995.835031" style="fill: #aa0000; stroke: #aa0000"/>
     <use xlink:href="#m9397f33255" x="2037.850503" y="990.664435" style="fill: #aa0000; stroke: #aa0000"/>
     <use xlink:href="#m9397f33255" x="2055.516629" y="986.201606" style="fill: #aa0000; stroke: #aa0000"/>
     <use xlink:href="#m9397f33255" x="2073.177895" y="983.041127" style="fill: #aa0000; stroke: #aa0000"/>
     <use xlink:href="#m9397f33255" x="2090.848639" y="981.913374" style="fill: #aa0000; stroke: #aa0000"/>
     <use xlink:href="#m9397f33255" x="2108.543176" y="983.417262" style="fill: #aa0000; stroke: #aa0000"/>
     <use xlink:href="#m9397f33255" x="2126.257256" y="987.849457" style="fill: #aa0000; stroke: #aa0000"/>
     <use xlink:href="#m9397f33255" x="2143.985825" y="995.021496" style="fill: #aa0000; stroke: #aa0000"/>
     <use xlink:href="#m9397f33255" x="2161.746336" y="1004.055863" style="fill: #aa0000; stroke: #aa0000"/>
     <use xlink:href="#m9397f33255" x="2179.525424" y="1013.432751" style="fill: #aa0000; stroke: #aa0000"/>
     <use xlink:href="#m9397f33255" x="2197.320183" y="1021.398417" style="fill: #aa0000; stroke: #aa0000"/>
     <use xlink:href="#m9397f33255" x="2215.123598" y="1026.466379" style="fill: #aa0000; stroke: #aa0000"/>
     <use xlink:href="#m9397f33255" x="2232.943684" y="1027.727702" style="fill: #aa0000; stroke: #aa0000"/>
     <use xlink:href="#m9397f33255" x="2250.875171" y="1024.960531" style="fill: #aa0000; stroke: #aa0000"/>
     <use xlink:href="#m9397f33255" x="2268.903281" y="1018.655187" style="fill: #aa0000; stroke: #aa0000"/>
     <use xlink:href="#m9397f33255" x="2286.951292" y="1009.852059" style="fill: #aa0000; stroke: #aa0000"/>
     <use xlink:href="#m9397f33255" x="2304.902938" y="999.603307" style="fill: #aa0000; stroke: #aa0000"/>
     <use xlink:href="#m9397f33255" x="2322.660314" y="988.395004" style="fill: #aa0000; stroke: #aa0000"/>
     <use xlink:href="#m9397f33255" x="2340.221164" y="976.024844" style="fill: #aa0000; stroke: #aa0000"/>
     <use xlink:href="#m9397f33255" x="2357.700399" y="962.14243" style="fill: #aa0000; stroke: #aa0000"/>
     <use xlink:href="#m9397f33255" x="2375.213723" y="946.974936" style="fill: #aa0000; stroke: #aa0000"/>
     <use xlink:href="#m9397f33255" x="2392.637842" y="930.085612" style="fill: #aa0000; stroke: #aa0000"/>
     <use xlink:href="#m9397f33255" x="2408.968428" y="906.36231" style="fill: #aa0000; stroke: #aa0000"/>
     <use xlink:href="#m9397f33255" x="2424.586721" y="862.260539" style="fill: #aa0000; stroke: #aa0000"/>
     <use xlink:href="#m9397f33255" x="2443.454298" y="797.875367" style="fill: #aa0000; stroke: #aa0000"/>
     <use xlink:href="#m9397f33255" x="2463.765017" y="698.957649" style="fill: #aa0000; stroke: #aa0000"/>
     <use xlink:href="#m9397f33255" x="2484.365344" y="278.813167" style="fill: #aa0000; stroke: #aa0000"/>
     <use xlink:href="#m9397f33255" x="2505.469733" y="222.218182" style="fill: #aa0000; stroke: #aa0000"/>
     <use xlink:href="#m9397f33255" x="2526.266509" y="289.218154" style="fill: #aa0000; stroke: #aa0000"/>
     <use xlink:href="#m9397f33255" x="2546.141354" y="339.400385" style="fill: #aa0000; stroke: #aa0000"/>
     <use xlink:href="#m9397f33255" x="2566.011053" y="366.196403" style="fill: #aa0000; stroke: #aa0000"/>
     <use xlink:href="#m9397f33255" x="2583.658868" y="379.121415" style="fill: #aa0000; stroke: #aa0000"/>
     <use xlink:href="#m9397f33255" x="2600.559158" y="385.240019" style="fill: #aa0000; stroke: #aa0000"/>
     <use xlink:href="#m9397f33255" x="2618.286988" y="388.993531" style="fill: #aa0000; stroke: #aa0000"/>
     <use xlink:href="#m9397f33255" x="2636.047928" y="393.255227" style="fill: #aa0000; stroke: #aa0000"/>
     <use xlink:href="#m9397f33255" x="2653.981367" y="399.594865" style="fill: #aa0000; stroke: #aa0000"/>
     <use xlink:href="#m9397f33255" x="2671.98308" y="408.493078" style="fill: #aa0000; stroke: #aa0000"/>
     <use xlink:href="#m9397f33255" x="2690.385439" y="419.658285" style="fill: #aa0000; stroke: #aa0000"/>
     <use xlink:href="#m9397f33255" x="2709.039197" y="432.409886" style="fill: #aa0000; stroke: #aa0000"/>
     <use xlink:href="#m9397f33255" x="2727.472095" y="446.195022" style="fill: #aa0000; stroke: #aa0000"/>
     <use xlink:href="#m9397f33255" x="2745.872424" y="460.927568" style="fill: #aa0000; stroke: #aa0000"/>
     <use xlink:href="#m9397f33255" x="2764.145714" y="476.813763" style="fill: #aa0000; stroke: #aa0000"/>
     <use xlink:href="#m9397f33255" x="2782.175935" y="494.1063" style="fill: #aa0000; stroke: #aa0000"/>
     <use xlink:href="#m9397f33255" x="2799.785028" y="513.886683" style="fill: #aa0000; stroke: #aa0000"/>
     <use xlink:href="#m9397f33255" x="2817.221897" y="541.011373" style="fill: #aa0000; stroke: #aa0000"/>
     <use xlink:href="#m9397f33255" x="2834.662753" y="587.965405" style="fill: #aa0000; stroke: #aa0000"/>
     <use xlink:href="#m9397f33255" x="2852.172344" y="664.878439" style="fill: #aa0000; stroke: #aa0000"/>
     <use xlink:href="#m9397f33255" x="2869.707826" y="1210.581818" style="fill: #aa0000; stroke: #aa0000"/>
     <use xlink:href="#m9397f33255" x="2887.293796" y="1165.925544" style="fill: #aa0000; stroke: #aa0000"/>
     <use xlink:href="#m9397f33255" x="2904.935259" y="1081.795546" style="fill: #aa0000; stroke: #aa0000"/>
     <use xlink:href="#m9397f33255" x="2922.625436" y="1055.902258" style="fill: #aa0000; stroke: #aa0000"/>
     <use xlink:href="#m9397f33255" x="2940.357869" y="1040.925151" style="fill: #aa0000; stroke: #aa0000"/>
     <use xlink:href="#m9397f33255" x="2958.118862" y="1028.265423" style="fill: #aa0000; stroke: #aa0000"/>
     <use xlink:href="#m9397f33255" x="2975.888611" y="1016.081416" style="fill: #aa0000; stroke: #aa0000"/>
     <use xlink:href="#m9397f33255" x="2993.643785" y="1004.724847" style="fill: #aa0000; stroke: #aa0000"/>
     <use xlink:href="#m9397f33255" x="3011.361806" y="994.584413" style="fill: #aa0000; stroke: #aa0000"/>
     <use xlink:href="#m9397f33255" x="3028.984383" y="985.719714" style="fill: #aa0000; stroke: #aa0000"/>
     <use xlink:href="#m9397f33255" x="3046.508647" y="978.084625" style="fill: #aa0000; stroke: #aa0000"/>
     <use xlink:href="#m9397f33255" x="3063.097168" y="971.589393" style="fill: #aa0000; stroke: #aa0000"/>
     <use xlink:href="#m9397f33255" x="3079.12" y="966.245172" style="fill: #aa0000; stroke: #aa0000"/>
     <use xlink:href="#m9397f33255" x="3098.20154" y="962.350654" style="fill: #aa0000; stroke: #aa0000"/>
     <use xlink:href="#m9397f33255" x="3118.521259" y="960.352642" style="fill: #aa0000; stroke: #aa0000"/>
     <use xlink:href="#m9397f33255" x="3140.206327" y="960.483641" style="fill: #aa0000; stroke: #aa0000"/>
     <use xlink:href="#m9397f33255" x="3163.256255" y="962.642595" style="fill: #aa0000; stroke: #aa0000"/>
     <use xlink:href="#m9397f33255" x="3187.168152" y="966.476733" style="fill: #aa0000; stroke: #aa0000"/>
     <use xlink:href="#m9397f33255" x="3211.346108" y="971.429662" style="fill: #aa0000; stroke: #aa0000"/>
     <use xlink:href="#m9397f33255" x="3235.417667" y="976.746657" style="fill: #aa0000; stroke: #aa0000"/>
     <use xlink:href="#m9397f33255" x="3259.082302" y="981.570181" style="fill: #aa0000; stroke: #aa0000"/>
     <use xlink:href="#m9397f33255" x="3281.850966" y="985.118579" style="fill: #aa0000; stroke: #aa0000"/>
     <use xlink:href="#m9397f33255" x="3303.606209" y="986.834544" style="fill: #aa0000; stroke: #aa0000"/>
     <use xlink:href="#m9397f33255" x="3324.081413" y="986.430423" style="fill: #aa0000; stroke: #aa0000"/>
     <use xlink:href="#m9397f33255" x="3343.911361" y="983.84552" style="fill: #aa0000; stroke: #aa0000"/>
     <use xlink:href="#m9397f33255" x="3363.819068" y="979.162554" style="fill: #aa0000; stroke: #aa0000"/>
     <use xlink:href="#m9397f33255" x="3383.723584" y="972.521595" style="fill: #aa0000; stroke: #aa0000"/>
     <use xlink:href="#m9397f33255" x="3402.320358" y="964.055374" style="fill: #aa0000; stroke: #aa0000"/>
     <use xlink:href="#m9397f33255" x="3419.617871" y="953.919706" style="fill: #aa0000; stroke: #aa0000"/>
     <use xlink:href="#m9397f33255" x="3436.464061" y="942.641917" style="fill: #aa0000; stroke: #aa0000"/>
     <use xlink:href="#m9397f33255" x="3453.009322" y="932.022944" style="fill: #aa0000; stroke: #aa0000"/>
     <use xlink:href="#m9397f33255" x="3469.321673" y="925.842689" style="fill: #aa0000; stroke: #aa0000"/>
     <use xlink:href="#m9397f33255" x="3485.583428" y="928.260281" style="fill: #aa0000; stroke: #aa0000"/>
     <use xlink:href="#m9397f33255" x="3502.017751" y="940.603511" style="fill: #aa0000; stroke: #aa0000"/>
     <use xlink:href="#m9397f33255" x="3518.621939" y="960.866278" style="fill: #aa0000; stroke: #aa0000"/>
     <use xlink:href="#m9397f33255" x="3535.432647" y="985.265925" style="fill: #aa0000; stroke: #aa0000"/>
     <use xlink:href="#m9397f33255" x="3552.431004" y="1008.81035" style="fill: #aa0000; stroke: #aa0000"/>
     <use xlink:href="#m9397f33255" x="3569.443249" y="1026.851304" style="fill: #aa0000; stroke: #aa0000"/>
     <use xlink:href="#m9397f33255" x="3587.107722" y="1038.562129" style="fill: #aa0000; stroke: #aa0000"/>
     <use xlink:href="#m9397f33255" x="3604.831897" y="1046.766359" style="fill: #aa0000; stroke: #aa0000"/>
     <use xlink:href="#m9397f33255" x="3622.626845" y="1052.891608" style="fill: #aa0000; stroke: #aa0000"/>
     <use xlink:href="#m9397f33255" x="3640.535687" y="1056.948482" style="fill: #aa0000; stroke: #aa0000"/>
     <use xlink:href="#m9397f33255" x="3658.476371" y="1058.970201" style="fill: #aa0000; stroke: #aa0000"/>
     <use xlink:href="#m9397f33255" x="3676.541856" y="1057.923112" style="fill: #aa0000; stroke: #aa0000"/>
     <use xlink:href="#m9397f33255" x="3695.011981" y="1049.771229" style="fill: #aa0000; stroke: #aa0000"/>
     <use xlink:href="#m9397f33255" x="3735.818182" y="1034.303262" style="fill: #aa0000; stroke: #aa0000"/>
    </g>
   </g>
   <g id="PathCollection_2">
    <defs>
     <path id="mbff6ece7e7" d="M 0 0.707107 
C 0.187527 0.707107 0.367398 0.632602 0.5 0.5 
C 0.632602 0.367398 0.707107 0.187527 0.707107 0 
C 0.707107 -0.187527 0.632602 -0.367398 0.5 -0.5 
C 0.367398 -0.632602 0.187527 -0.707107 0 -0.707107 
C -0.187527 -0.707107 -0.367398 -0.632602 -0.5 -0.5 
C -0.632602 -0.367398 -0.707107 -0.187527 -0.707107 0 
C -0.707107 0.187527 -0.632602 0.367398 -0.5 0.5 
C -0.367398 0.632602 -0.187527 0.707107 0 0.707107 
z
" style="stroke: #00aa00"/>
    </defs>
    <g clip-path="url(#p2676014fd3)">
     <use xlink:href="#mbff6ece7e7" x="692.181818" y="1109.150054" style="fill: #00aa00; stroke: #00aa00"/>
     <use xlink:href="#mbff6ece7e7" x="710.693231" y="1099.757418" style="fill: #00aa00; stroke: #00aa00"/>
     <use xlink:href="#mbff6ece7e7" x="728.993216" y="1093.134497" style="fill: #00aa00; stroke: #00aa00"/>
     <use xlink:href="#mbff6ece7e7" x="747.64841" y="1074.799061" style="fill: #00aa00; stroke: #00aa00"/>
     <use xlink:href="#mbff6ece7e7" x="766.664743" y="1044.707725" style="fill: #00aa00; stroke: #00aa00"/>
     <use xlink:href="#mbff6ece7e7" x="785.107105" y="1014.968832" style="fill: #00aa00; stroke: #00aa00"/>
     <use xlink:href="#mbff6ece7e7" x="803.736729" y="986.5817" style="fill: #00aa00; stroke: #00aa00"/>
     <use xlink:href="#mbff6ece7e7" x="822.067263" y="960.99901" style="fill: #00aa00; stroke: #00aa00"/>
     <use xlink:href="#mbff6ece7e7" x="840.09251" y="942.933102" style="fill: #00aa00; stroke: #00aa00"/>
     <use xlink:href="#mbff6ece7e7" x="857.520689" y="928.298181" style="fill: #00aa00; stroke: #00aa00"/>
     <use xlink:href="#mbff6ece7e7" x="874.496031" y="918.473008" style="fill: #00aa00; stroke: #00aa00"/>
     <use xlink:href="#mbff6ece7e7" x="889.334296" y="909.637566" style="fill: #00aa00; stroke: #00aa00"/>
     <use xlink:href="#mbff6ece7e7" x="910.845237" y="897.709427" style="fill: #00aa00; stroke: #00aa00"/>
     <use xlink:href="#mbff6ece7e7" x="935.892413" y="879.994419" style="fill: #00aa00; stroke: #00aa00"/>
     <use xlink:href="#mbff6ece7e7" x="961.986631" y="857.683326" style="fill: #00aa00; stroke: #00aa00"/>
     <use xlink:href="#mbff6ece7e7" x="973.400724" y="838.524239" style="fill: #00aa00; stroke: #00aa00"/>
     <use xlink:href="#mbff6ece7e7" x="989.435051" y="814.682235" style="fill: #00aa00; stroke: #00aa00"/>
     <use xlink:href="#mbff6ece7e7" x="1006.077852" y="755.741582" style="fill: #00aa00; stroke: #00aa00"/>
     <use xlink:href="#mbff6ece7e7" x="1021.391241" y="472.324927" style="fill: #00aa00; stroke: #00aa00"/>
     <use xlink:href="#mbff6ece7e7" x="1029.896668" y="268.920825" style="fill: #00aa00; stroke: #00aa00"/>
     <use xlink:href="#mbff6ece7e7" x="1056.124837" y="251.064529" style="fill: #00aa00; stroke: #00aa00"/>
     <use xlink:href="#mbff6ece7e7" x="1080.283541" y="274.263003" style="fill: #00aa00; stroke: #00aa00"/>
     <use xlink:href="#mbff6ece7e7" x="1100.770982" y="302.48809" style="fill: #00aa00; stroke: #00aa00"/>
     <use xlink:href="#mbff6ece7e7" x="1120.406216" y="327.355685" style="fill: #00aa00; stroke: #00aa00"/>
     <use xlink:href="#mbff6ece7e7" x="1137.710414" y="348.22587" style="fill: #00aa00; stroke: #00aa00"/>
     <use xlink:href="#mbff6ece7e7" x="1155.497894" y="366.23521" style="fill: #00aa00; stroke: #00aa00"/>
     <use xlink:href="#mbff6ece7e7" x="1173.361724" y="382.876754" style="fill: #00aa00; stroke: #00aa00"/>
     <use xlink:href="#mbff6ece7e7" x="1191.321743" y="399.429772" style="fill: #00aa00; stroke: #00aa00"/>
     <use xlink:href="#mbff6ece7e7" x="1209.361029" y="416.965745" style="fill: #00aa00; stroke: #00aa00"/>
     <use xlink:href="#mbff6ece7e7" x="1227.760252" y="436.516067" style="fill: #00aa00; stroke: #00aa00"/>
     <use xlink:href="#mbff6ece7e7" x="1246.310084" y="459.327968" style="fill: #00aa00; stroke: #00aa00"/>
     <use xlink:href="#mbff6ece7e7" x="1264.81094" y="485.766843" style="fill: #00aa00; stroke: #00aa00"/>
     <use xlink:href="#mbff6ece7e7" x="1283.299879" y="510.884549" style="fill: #00aa00; stroke: #00aa00"/>
     <use xlink:href="#mbff6ece7e7" x="1301.77489" y="625.340536" style="fill: #00aa00; stroke: #00aa00"/>
     <use xlink:href="#mbff6ece7e7" x="1320.233614" y="1113.828236" style="fill: #00aa00; stroke: #00aa00"/>
     <use xlink:href="#mbff6ece7e7" x="1338.670775" y="1082.893586" style="fill: #00aa00; stroke: #00aa00"/>
     <use xlink:href="#mbff6ece7e7" x="1357.079933" y="1014.482599" style="fill: #00aa00; stroke: #00aa00"/>
     <use xlink:href="#mbff6ece7e7" x="1375.405098" y="988.737053" style="fill: #00aa00; stroke: #00aa00"/>
     <use xlink:href="#mbff6ece7e7" x="1393.54219" y="974.363662" style="fill: #00aa00; stroke: #00aa00"/>
     <use xlink:href="#mbff6ece7e7" x="1411.286587" y="963.239092" style="fill: #00aa00; stroke: #00aa00"/>
     <use xlink:href="#mbff6ece7e7" x="1428.625057" y="953.95651" style="fill: #00aa00; stroke: #00aa00"/>
     <use xlink:href="#mbff6ece7e7" x="1445.99576" y="946.207614" style="fill: #00aa00; stroke: #00aa00"/>
     <use xlink:href="#mbff6ece7e7" x="1463.301513" y="939.967413" style="fill: #00aa00; stroke: #00aa00"/>
     <use xlink:href="#mbff6ece7e7" x="1478.400205" y="935.29436" style="fill: #00aa00; stroke: #00aa00"/>
     <use xlink:href="#mbff6ece7e7" x="1499.073498" y="932.29419" style="fill: #00aa00; stroke: #00aa00"/>
     <use xlink:href="#mbff6ece7e7" x="1523.276502" y="931.074474" style="fill: #00aa00; stroke: #00aa00"/>
     <use xlink:href="#mbff6ece7e7" x="1549.382181" y="931.717021" style="fill: #00aa00; stroke: #00aa00"/>
     <use xlink:href="#mbff6ece7e7" x="1565.366335" y="934.190992" style="fill: #00aa00; stroke: #00aa00"/>
     <use xlink:href="#mbff6ece7e7" x="1584.407936" y="938.314048" style="fill: #00aa00; stroke: #00aa00"/>
     <use xlink:href="#mbff6ece7e7" x="1603.755071" y="943.752627" style="fill: #00aa00; stroke: #00aa00"/>
     <use xlink:href="#mbff6ece7e7" x="1623.529288" y="950.070858" style="fill: #00aa00; stroke: #00aa00"/>
     <use xlink:href="#mbff6ece7e7" x="1643.698595" y="956.804672" style="fill: #00aa00; stroke: #00aa00"/>
     <use xlink:href="#mbff6ece7e7" x="1664.451549" y="963.532525" style="fill: #00aa00; stroke: #00aa00"/>
     <use xlink:href="#mbff6ece7e7" x="1685.567885" y="969.92327" style="fill: #00aa00; stroke: #00aa00"/>
     <use xlink:href="#mbff6ece7e7" x="1706.921705" y="975.754347" style="fill: #00aa00; stroke: #00aa00"/>
     <use xlink:href="#mbff6ece7e7" x="1728.323733" y="980.904555" style="fill: #00aa00; stroke: #00aa00"/>
     <use xlink:href="#mbff6ece7e7" x="1749.672772" y="985.3322" style="fill: #00aa00; stroke: #00aa00"/>
     <use xlink:href="#mbff6ece7e7" x="1770.994737" y="989.049066" style="fill: #00aa00; stroke: #00aa00"/>
     <use xlink:href="#mbff6ece7e7" x="1792.291984" y="992.097964" style="fill: #00aa00; stroke: #00aa00"/>
     <use xlink:href="#mbff6ece7e7" x="1813.566902" y="994.537662" style="fill: #00aa00; stroke: #00aa00"/>
     <use xlink:href="#mbff6ece7e7" x="1834.8252" y="996.435905" style="fill: #00aa00; stroke: #00aa00"/>
     <use xlink:href="#mbff6ece7e7" x="1855.994389" y="997.869499" style="fill: #00aa00; stroke: #00aa00"/>
     <use xlink:href="#mbff6ece7e7" x="1876.908528" y="998.930076" style="fill: #00aa00; stroke: #00aa00"/>
     <use xlink:href="#mbff6ece7e7" x="1897.475798" y="999.734516" style="fill: #00aa00; stroke: #00aa00"/>
     <use xlink:href="#mbff6ece7e7" x="1917.59813" y="1000.440574" style="fill: #00aa00; stroke: #00aa00"/>
     <use xlink:href="#mbff6ece7e7" x="1937.438515" y="1001.266669" style="fill: #00aa00; stroke: #00aa00"/>
     <use xlink:href="#mbff6ece7e7" x="1956.889855" y="1002.514809" style="fill: #00aa00; stroke: #00aa00"/>
     <use xlink:href="#mbff6ece7e7" x="1975.794481" y="1004.594633" style="fill: #00aa00; stroke: #00aa00"/>
     <use xlink:href="#mbff6ece7e7" x="1986.986169" y="1008.03972" style="fill: #00aa00; stroke: #00aa00"/>
     <use xlink:href="#mbff6ece7e7" x="2012.638185" y="1013.488272" style="fill: #00aa00; stroke: #00aa00"/>
     <use xlink:href="#mbff6ece7e7" x="2034.862483" y="1021.575246" style="fill: #00aa00; stroke: #00aa00"/>
     <use xlink:href="#mbff6ece7e7" x="2054.388291" y="1032.670929" style="fill: #00aa00; stroke: #00aa00"/>
     <use xlink:href="#mbff6ece7e7" x="2071.911182" y="1046.450857" style="fill: #00aa00; stroke: #00aa00"/>
     <use xlink:href="#mbff6ece7e7" x="2089.998011" y="1061.452589" style="fill: #00aa00; stroke: #00aa00"/>
     <use xlink:href="#mbff6ece7e7" x="2108.124302" y="1074.885946" style="fill: #00aa00; stroke: #00aa00"/>
     <use xlink:href="#mbff6ece7e7" x="2126.303228" y="1082.59695" style="fill: #00aa00; stroke: #00aa00"/>
     <use xlink:href="#mbff6ece7e7" x="2145.00403" y="1078.807034" style="fill: #00aa00; stroke: #00aa00"/>
     <use xlink:href="#mbff6ece7e7" x="2163.846875" y="1057.736964" style="fill: #00aa00; stroke: #00aa00"/>
     <use xlink:href="#mbff6ece7e7" x="2182.308586" y="1025.355849" style="fill: #00aa00; stroke: #00aa00"/>
     <use xlink:href="#mbff6ece7e7" x="2201.001365" y="997.456252" style="fill: #00aa00; stroke: #00aa00"/>
     <use xlink:href="#mbff6ece7e7" x="2219.340258" y="968.573953" style="fill: #00aa00; stroke: #00aa00"/>
     <use xlink:href="#mbff6ece7e7" x="2237.433664" y="945.623342" style="fill: #00aa00; stroke: #00aa00"/>
     <use xlink:href="#mbff6ece7e7" x="2254.811142" y="926.848933" style="fill: #00aa00; stroke: #00aa00"/>
     <use xlink:href="#mbff6ece7e7" x="2271.079196" y="912.795615" style="fill: #00aa00; stroke: #00aa00"/>
     <use xlink:href="#mbff6ece7e7" x="2287.113171" y="902.696233" style="fill: #00aa00; stroke: #00aa00"/>
     <use xlink:href="#mbff6ece7e7" x="2301.239364" y="892.917941" style="fill: #00aa00; stroke: #00aa00"/>
     <use xlink:href="#mbff6ece7e7" x="2320.406242" y="880.139722" style="fill: #00aa00; stroke: #00aa00"/>
     <use xlink:href="#mbff6ece7e7" x="2340.711331" y="862.125681" style="fill: #00aa00; stroke: #00aa00"/>
     <use xlink:href="#mbff6ece7e7" x="2362.346321" y="839.766413" style="fill: #00aa00; stroke: #00aa00"/>
     <use xlink:href="#mbff6ece7e7" x="2383.988476" y="820.04615" style="fill: #00aa00; stroke: #00aa00"/>
     <use xlink:href="#mbff6ece7e7" x="2407.642399" y="797.260843" style="fill: #00aa00; stroke: #00aa00"/>
     <use xlink:href="#mbff6ece7e7" x="2418.644584" y="733.855273" style="fill: #00aa00; stroke: #00aa00"/>
     <use xlink:href="#mbff6ece7e7" x="2423.892872" y="432.461131" style="fill: #00aa00; stroke: #00aa00"/>
     <use xlink:href="#mbff6ece7e7" x="2433.874829" y="250.428975" style="fill: #00aa00; stroke: #00aa00"/>
     <use xlink:href="#mbff6ece7e7" x="2442.704978" y="239.598611" style="fill: #00aa00; stroke: #00aa00"/>
     <use xlink:href="#mbff6ece7e7" x="2444.271053" y="257.53015" style="fill: #00aa00; stroke: #00aa00"/>
     <use xlink:href="#mbff6ece7e7" x="2468.002728" y="274.368358" style="fill: #00aa00; stroke: #00aa00"/>
     <use xlink:href="#mbff6ece7e7" x="2488.794646" y="285.540917" style="fill: #00aa00; stroke: #00aa00"/>
     <use xlink:href="#mbff6ece7e7" x="2509.288415" y="292.309167" style="fill: #00aa00; stroke: #00aa00"/>
     <use xlink:href="#mbff6ece7e7" x="2529.457402" y="296.003447" style="fill: #00aa00; stroke: #00aa00"/>
     <use xlink:href="#mbff6ece7e7" x="2545.064494" y="299.095438" style="fill: #00aa00; stroke: #00aa00"/>
     <use xlink:href="#mbff6ece7e7" x="2563.879303" y="307.381174" style="fill: #00aa00; stroke: #00aa00"/>
     <use xlink:href="#mbff6ece7e7" x="2582.537273" y="324.487852" style="fill: #00aa00; stroke: #00aa00"/>
     <use xlink:href="#mbff6ece7e7" x="2601.145413" y="353.936287" style="fill: #00aa00; stroke: #00aa00"/>
     <use xlink:href="#mbff6ece7e7" x="2620.407472" y="397.371743" style="fill: #00aa00; stroke: #00aa00"/>
     <use xlink:href="#mbff6ece7e7" x="2640.378784" y="445.999181" style="fill: #00aa00; stroke: #00aa00"/>
     <use xlink:href="#mbff6ece7e7" x="2644.410158" y="502.616923" style="fill: #00aa00; stroke: #00aa00"/>
     <use xlink:href="#mbff6ece7e7" x="2660.480061" y="550.421083" style="fill: #00aa00; stroke: #00aa00"/>
     <use xlink:href="#mbff6ece7e7" x="2677.019706" y="572.753952" style="fill: #00aa00; stroke: #00aa00"/>
     <use xlink:href="#mbff6ece7e7" x="2689.778551" y="583.960223" style="fill: #00aa00; stroke: #00aa00"/>
     <use xlink:href="#mbff6ece7e7" x="2692.187817" y="601.956053" style="fill: #00aa00; stroke: #00aa00"/>
     <use xlink:href="#mbff6ece7e7" x="2710.696603" y="628.482563" style="fill: #00aa00; stroke: #00aa00"/>
     <use xlink:href="#mbff6ece7e7" x="2729.819037" y="681.7402" style="fill: #00aa00; stroke: #00aa00"/>
     <use xlink:href="#mbff6ece7e7" x="2749.223888" y="1140.483508" style="fill: #00aa00; stroke: #00aa00"/>
     <use xlink:href="#mbff6ece7e7" x="2768.837201" y="1203.245098" style="fill: #00aa00; stroke: #00aa00"/>
     <use xlink:href="#mbff6ece7e7" x="2788.213815" y="1149.975945" style="fill: #00aa00; stroke: #00aa00"/>
     <use xlink:href="#mbff6ece7e7" x="2806.829974" y="1120.65688" style="fill: #00aa00; stroke: #00aa00"/>
     <use xlink:href="#mbff6ece7e7" x="2833.23236" y="1113.159566" style="fill: #00aa00; stroke: #00aa00"/>
     <use xlink:href="#mbff6ece7e7" x="2854.009409" y="1110.700312" style="fill: #00aa00; stroke: #00aa00"/>
     <use xlink:href="#mbff6ece7e7" x="2872.517215" y="1103.336075" style="fill: #00aa00; stroke: #00aa00"/>
     <use xlink:href="#mbff6ece7e7" x="2891.105914" y="1086.913896" style="fill: #00aa00; stroke: #00aa00"/>
     <use xlink:href="#mbff6ece7e7" x="2909.421282" y="1062.322213" style="fill: #00aa00; stroke: #00aa00"/>
     <use xlink:href="#mbff6ece7e7" x="2928.161562" y="1035.582767" style="fill: #00aa00; stroke: #00aa00"/>
     <use xlink:href="#mbff6ece7e7" x="2946.661224" y="1012.27553" style="fill: #00aa00; stroke: #00aa00"/>
     <use xlink:href="#mbff6ece7e7" x="2965.154088" y="985.335407" style="fill: #00aa00; stroke: #00aa00"/>
     <use xlink:href="#mbff6ece7e7" x="2983.363749" y="958.791502" style="fill: #00aa00; stroke: #00aa00"/>
     <use xlink:href="#mbff6ece7e7" x="3000.83367" y="942.149045" style="fill: #00aa00; stroke: #00aa00"/>
     <use xlink:href="#mbff6ece7e7" x="3017.73414" y="931.64505" style="fill: #00aa00; stroke: #00aa00"/>
     <use xlink:href="#mbff6ece7e7" x="3033.600504" y="925.813595" style="fill: #00aa00; stroke: #00aa00"/>
     <use xlink:href="#mbff6ece7e7" x="3057.190165" y="924.367959" style="fill: #00aa00; stroke: #00aa00"/>
     <use xlink:href="#mbff6ece7e7" x="3083.364059" y="925.608036" style="fill: #00aa00; stroke: #00aa00"/>
     <use xlink:href="#mbff6ece7e7" x="3100.493018" y="928.432502" style="fill: #00aa00; stroke: #00aa00"/>
     <use xlink:href="#mbff6ece7e7" x="3119.569116" y="932.179127" style="fill: #00aa00; stroke: #00aa00"/>
     <use xlink:href="#mbff6ece7e7" x="3138.97399" y="936.094121" style="fill: #00aa00; stroke: #00aa00"/>
     <use xlink:href="#mbff6ece7e7" x="3158.705029" y="939.2973" style="fill: #00aa00; stroke: #00aa00"/>
     <use xlink:href="#mbff6ece7e7" x="3178.727502" y="941.001539" style="fill: #00aa00; stroke: #00aa00"/>
     <use xlink:href="#mbff6ece7e7" x="3199.021862" y="940.680607" style="fill: #00aa00; stroke: #00aa00"/>
     <use xlink:href="#mbff6ece7e7" x="3219.640599" y="938.104394" style="fill: #00aa00; stroke: #00aa00"/>
     <use xlink:href="#mbff6ece7e7" x="3240.474786" y="933.316634" style="fill: #00aa00; stroke: #00aa00"/>
     <use xlink:href="#mbff6ece7e7" x="3261.480968" y="926.66741" style="fill: #00aa00; stroke: #00aa00"/>
     <use xlink:href="#mbff6ece7e7" x="3282.629734" y="918.957734" style="fill: #00aa00; stroke: #00aa00"/>
     <use xlink:href="#mbff6ece7e7" x="3303.893295" y="911.603046" style="fill: #00aa00; stroke: #00aa00"/>
     <use xlink:href="#mbff6ece7e7" x="3325.213049" y="906.500801" style="fill: #00aa00; stroke: #00aa00"/>
     <use xlink:href="#mbff6ece7e7" x="3346.535516" y="905.332496" style="fill: #00aa00; stroke: #00aa00"/>
     <use xlink:href="#mbff6ece7e7" x="3367.838609" y="908.761598" style="fill: #00aa00; stroke: #00aa00"/>
     <use xlink:href="#mbff6ece7e7" x="3389.116672" y="916.815794" style="fill: #00aa00; stroke: #00aa00"/>
     <use xlink:href="#mbff6ece7e7" x="3410.37155" y="930.11277" style="fill: #00aa00; stroke: #00aa00"/>
     <use xlink:href="#mbff6ece7e7" x="3431.603972" y="949.177913" style="fill: #00aa00; stroke: #00aa00"/>
     <use xlink:href="#mbff6ece7e7" x="3452.816313" y="972.778911" style="fill: #00aa00; stroke: #00aa00"/>
     <use xlink:href="#mbff6ece7e7" x="3474.008891" y="998.140846" style="fill: #00aa00; stroke: #00aa00"/>
     <use xlink:href="#mbff6ece7e7" x="3495.185142" y="1022.054997" style="fill: #00aa00; stroke: #00aa00"/>
     <use xlink:href="#mbff6ece7e7" x="3516.332892" y="1041.610176" style="fill: #00aa00; stroke: #00aa00"/>
     <use xlink:href="#mbff6ece7e7" x="3537.321258" y="1055.10077" style="fill: #00aa00; stroke: #00aa00"/>
     <use xlink:href="#mbff6ece7e7" x="3557.866922" y="1063.238323" style="fill: #00aa00; stroke: #00aa00"/>
     <use xlink:href="#mbff6ece7e7" x="3577.840896" y="1068.890614" style="fill: #00aa00; stroke: #00aa00"/>
     <use xlink:href="#mbff6ece7e7" x="3597.340238" y="1074.625091" style="fill: #00aa00; stroke: #00aa00"/>
     <use xlink:href="#mbff6ece7e7" x="3614.546871" y="1081.153112" style="fill: #00aa00; stroke: #00aa00"/>
     <use xlink:href="#mbff6ece7e7" x="3639.909336" y="1076.996007" style="fill: #00aa00; stroke: #00aa00"/>
     <use xlink:href="#mbff6ece7e7" x="3680.537904" y="1109.150054" style="fill: #00aa00; stroke: #00aa00"/>
    </g>
   </g>
  </g>
 </g>
 <defs>
  <clipPath id="p2676014fd3">
   <rect x="540" y="172.8" width="3348" height="1087.2"/>
  </clipPath>
 </defs>
</svg>
