<?xml version="1.0" encoding="utf-8" standalone="no"?>
<!DOCTYPE svg PUBLIC "-//W3C//DTD SVG 1.1//EN"
  "http://www.w3.org/Graphics/SVG/1.1/DTD/svg11.dtd">
<svg xmlns:xlink="http://www.w3.org/1999/xlink" width="4320pt" height="1440pt" viewBox="0 0 4320 1440" xmlns="http://www.w3.org/2000/svg" version="1.1">
 <metadata>
  <rdf:RDF xmlns:dc="http://purl.org/dc/elements/1.1/" xmlns:cc="http://creativecommons.org/ns#" xmlns:rdf="http://www.w3.org/1999/02/22-rdf-syntax-ns#">
   <cc:Work>
    <dc:type rdf:resource="http://purl.org/dc/dcmitype/StillImage"/>
    <dc:date>2021-11-06T19:51:56.277315</dc:date>
    <dc:format>image/svg+xml</dc:format>
    <dc:creator>
     <cc:Agent>
      <dc:title>Matplotlib v3.5.0rc1, https://matplotlib.org/</dc:title>
     </cc:Agent>
    </dc:creator>
   </cc:Work>
  </rdf:RDF>
 </metadata>
 <defs>
  <style type="text/css">*{stroke-linejoin: round; stroke-linecap: butt}</style>
 </defs>
 <g id="figure_1">
  <g id="patch_1">
   <path d="M 0 1440 
L 4320 1440 
L 4320 0 
L 0 0 
z
" style="fill: #ffffff"/>
  </g>
  <g id="axes_1">
   <g id="patch_2">
    <path d="M 540 1260 
L 3888 1260 
L 3888 172.8 
L 540 172.8 
z
" style="fill: #ffffff"/>
   </g>
   <g id="line2d_1">
    <path d="M 692.181818 293.206504 
L 730.011134 596.775401 
L 777.989017 1070.006163 
L 832.737854 1084.431911 
L 891.188009 918.181271 
L 976.541678 790.614584 
L 1084.529114 725.985694 
L 1160.866003 695.428184 
L 1259.964854 675.643231 
L 1350.904548 594.181612 
L 1394.656639 297.11742 
L 1426.46217 222.218182 
L 1478.159792 528.266843 
L 1564.762299 698.735626 
L 1630.955895 798.091239 
L 1724.737879 888.032738 
L 1778.220578 881.416608 
L 1847.053014 775.269788 
L 1913.162995 678.912493 
L 1982.783433 643.569967 
L 2043.78473 675.772746 
L 2111.420114 774.232446 
L 2160.39024 868.682714 
L 2226.316785 926.846647 
L 2309.734162 914.607339 
L 2366.666007 851.381244 
L 2443.863665 701.414129 
L 2494.067287 462.457929 
L 2532.836876 357.044133 
L 2586.568699 407.033764 
L 2644.192647 460.040358 
L 2698.121632 468.440001 
L 2767.774996 516.814811 
L 2839.26367 609.756687 
L 2919.274838 669.912075 
L 3019.673738 656.208185 
L 3090.230533 627.249131 
L 3170.925988 666.649203 
L 3240.753661 840.036897 
L 3263.330199 1149.270939 
L 3290.729439 1207.200236 
L 3307.065645 704.632284 
L 3339.85977 239.337119 
L 3360.364147 250.910634 
L 3390.052587 310.078431 
L 3421.040815 322.311082 
L 3458.67783 661.979851 
L 3513.002338 979.180617 
L 3559.749475 1147.669001 
L 3597.108974 1203.998736 
L 3638.327247 1020.711591 
L 3676.009624 402.201862 
L 3705.324698 242.794233 
L 3735.818182 266.810809 
" clip-path="url(#pedf1386ab2)" style="fill: none; stroke: #aa0000; stroke-width: 4; stroke-linecap: square"/>
   </g>
   <g id="line2d_2">
    <path d="M 692.181818 292.834475 
L 722.809418 585.846856 
L 772.681728 1065.777208 
L 818.730882 1083.467046 
L 889.510473 918.625582 
L 962.355639 787.973135 
L 1064.55735 722.544985 
L 1163.226859 695.222289 
L 1266.982812 675.884812 
L 1334.574637 595.556489 
L 1395.400427 291.420573 
L 1422.255432 227.837652 
L 1468.927502 527.752462 
L 1543.033893 698.318469 
L 1617.579333 796.788485 
L 1692.842045 893.075565 
L 1770.639899 881.499909 
L 1839.871879 774.854113 
L 1906.087801 678.319409 
L 1966.55514 642.759956 
L 2031.106749 675.335656 
L 2098.554086 769.591145 
L 2155.16942 874.270825 
L 2216.539533 927.434216 
L 2303.586443 919.092786 
L 2376.612638 793.878887 
L 2461.671456 678.335345 
L 2516.313961 300.846357 
L 2538.218286 379.77801 
L 2575.666184 390.262132 
L 2616.911064 458.204186 
L 2690.915279 470.371737 
L 2773.875478 515.807129 
L 2840.604288 618.857144 
L 2911.510967 671.001831 
L 2973.44054 656.831239 
L 3053.530778 625.834836 
L 3138.046923 663.9926 
L 3187.968573 826.601719 
L 3244.820128 1144.060242 
L 3274.541786 1210.581818 
L 3299.343703 717.513479 
L 3322.569634 233.190963 
L 3343.819492 255.884238 
L 3374.607813 314.111969 
L 3414.048146 331.315603 
L 3467.619702 662.14583 
L 3494.189537 976.772523 
L 3541.566974 1145.100594 
L 3580.147851 1204.841041 
L 3604.816784 1022.294409 
L 3644.440434 399.523866 
L 3680.503226 240.479754 
L 3702.450472 265.071657 
" clip-path="url(#pedf1386ab2)" style="fill: none; stroke: #00aa00; stroke-width: 4; stroke-linecap: square"/>
   </g>
   <g id="matplotlib.axis_1">
    <g id="xtick_1">
     <g id="line2d_3">
      <defs>
       <path id="mc0ab4ec934" d="M 0 0 
L 0 3.5 
" style="stroke: #000000; stroke-width: 0.8"/>
      </defs>
      <g>
       <use xlink:href="#mc0ab4ec934" x="692.181818" y="1260" style="stroke: #000000; stroke-width: 0.8"/>
      </g>
     </g>
     <g id="text_1">
      <!-- 0 -->
      <g transform="translate(684.228693 1285.996094)scale(0.25 -0.25)">
       <defs>
        <path id="DejaVuSans-30" d="M 2034 4250 
Q 1547 4250 1301 3770 
Q 1056 3291 1056 2328 
Q 1056 1369 1301 889 
Q 1547 409 2034 409 
Q 2525 409 2770 889 
Q 3016 1369 3016 2328 
Q 3016 3291 2770 3770 
Q 2525 4250 2034 4250 
z
M 2034 4750 
Q 2819 4750 3233 4129 
Q 3647 3509 3647 2328 
Q 3647 1150 3233 529 
Q 2819 -91 2034 -91 
Q 1250 -91 836 529 
Q 422 1150 422 2328 
Q 422 3509 836 4129 
Q 1250 4750 2034 4750 
z
" transform="scale(0.015625)"/>
       </defs>
       <use xlink:href="#DejaVuSans-30"/>
      </g>
     </g>
    </g>
    <g id="xtick_2">
     <g id="line2d_4">
      <g>
       <use xlink:href="#mc0ab4ec934" x="1159.339522" y="1260" style="stroke: #000000; stroke-width: 0.8"/>
      </g>
     </g>
     <g id="text_2">
      <!-- 100 -->
      <g transform="translate(1135.480147 1285.996094)scale(0.25 -0.25)">
       <defs>
        <path id="DejaVuSans-31" d="M 794 531 
L 1825 531 
L 1825 4091 
L 703 3866 
L 703 4441 
L 1819 4666 
L 2450 4666 
L 2450 531 
L 3481 531 
L 3481 0 
L 794 0 
L 794 531 
z
" transform="scale(0.015625)"/>
       </defs>
       <use xlink:href="#DejaVuSans-31"/>
       <use xlink:href="#DejaVuSans-30" x="63.623047"/>
       <use xlink:href="#DejaVuSans-30" x="127.246094"/>
      </g>
     </g>
    </g>
    <g id="xtick_3">
     <g id="line2d_5">
      <g>
       <use xlink:href="#mc0ab4ec934" x="1626.497225" y="1260" style="stroke: #000000; stroke-width: 0.8"/>
      </g>
     </g>
     <g id="text_3">
      <!-- 200 -->
      <g transform="translate(1602.63785 1285.996094)scale(0.25 -0.25)">
       <defs>
        <path id="DejaVuSans-32" d="M 1228 531 
L 3431 531 
L 3431 0 
L 469 0 
L 469 531 
Q 828 903 1448 1529 
Q 2069 2156 2228 2338 
Q 2531 2678 2651 2914 
Q 2772 3150 2772 3378 
Q 2772 3750 2511 3984 
Q 2250 4219 1831 4219 
Q 1534 4219 1204 4116 
Q 875 4013 500 3803 
L 500 4441 
Q 881 4594 1212 4672 
Q 1544 4750 1819 4750 
Q 2544 4750 2975 4387 
Q 3406 4025 3406 3419 
Q 3406 3131 3298 2873 
Q 3191 2616 2906 2266 
Q 2828 2175 2409 1742 
Q 1991 1309 1228 531 
z
" transform="scale(0.015625)"/>
       </defs>
       <use xlink:href="#DejaVuSans-32"/>
       <use xlink:href="#DejaVuSans-30" x="63.623047"/>
       <use xlink:href="#DejaVuSans-30" x="127.246094"/>
      </g>
     </g>
    </g>
    <g id="xtick_4">
     <g id="line2d_6">
      <g>
       <use xlink:href="#mc0ab4ec934" x="2093.654928" y="1260" style="stroke: #000000; stroke-width: 0.8"/>
      </g>
     </g>
     <g id="text_4">
      <!-- 300 -->
      <g transform="translate(2069.795553 1285.996094)scale(0.25 -0.25)">
       <defs>
        <path id="DejaVuSans-33" d="M 2597 2516 
Q 3050 2419 3304 2112 
Q 3559 1806 3559 1356 
Q 3559 666 3084 287 
Q 2609 -91 1734 -91 
Q 1441 -91 1130 -33 
Q 819 25 488 141 
L 488 750 
Q 750 597 1062 519 
Q 1375 441 1716 441 
Q 2309 441 2620 675 
Q 2931 909 2931 1356 
Q 2931 1769 2642 2001 
Q 2353 2234 1838 2234 
L 1294 2234 
L 1294 2753 
L 1863 2753 
Q 2328 2753 2575 2939 
Q 2822 3125 2822 3475 
Q 2822 3834 2567 4026 
Q 2313 4219 1838 4219 
Q 1578 4219 1281 4162 
Q 984 4106 628 3988 
L 628 4550 
Q 988 4650 1302 4700 
Q 1616 4750 1894 4750 
Q 2613 4750 3031 4423 
Q 3450 4097 3450 3541 
Q 3450 3153 3228 2886 
Q 3006 2619 2597 2516 
z
" transform="scale(0.015625)"/>
       </defs>
       <use xlink:href="#DejaVuSans-33"/>
       <use xlink:href="#DejaVuSans-30" x="63.623047"/>
       <use xlink:href="#DejaVuSans-30" x="127.246094"/>
      </g>
     </g>
    </g>
    <g id="xtick_5">
     <g id="line2d_7">
      <g>
       <use xlink:href="#mc0ab4ec934" x="2560.812632" y="1260" style="stroke: #000000; stroke-width: 0.8"/>
      </g>
     </g>
     <g id="text_5">
      <!-- 400 -->
      <g transform="translate(2536.953257 1285.996094)scale(0.25 -0.25)">
       <defs>
        <path id="DejaVuSans-34" d="M 2419 4116 
L 825 1625 
L 2419 1625 
L 2419 4116 
z
M 2253 4666 
L 3047 4666 
L 3047 1625 
L 3713 1625 
L 3713 1100 
L 3047 1100 
L 3047 0 
L 2419 0 
L 2419 1100 
L 313 1100 
L 313 1709 
L 2253 4666 
z
" transform="scale(0.015625)"/>
       </defs>
       <use xlink:href="#DejaVuSans-34"/>
       <use xlink:href="#DejaVuSans-30" x="63.623047"/>
       <use xlink:href="#DejaVuSans-30" x="127.246094"/>
      </g>
     </g>
    </g>
    <g id="xtick_6">
     <g id="line2d_8">
      <g>
       <use xlink:href="#mc0ab4ec934" x="3027.970335" y="1260" style="stroke: #000000; stroke-width: 0.8"/>
      </g>
     </g>
     <g id="text_6">
      <!-- 500 -->
      <g transform="translate(3004.11096 1285.996094)scale(0.25 -0.25)">
       <defs>
        <path id="DejaVuSans-35" d="M 691 4666 
L 3169 4666 
L 3169 4134 
L 1269 4134 
L 1269 2991 
Q 1406 3038 1543 3061 
Q 1681 3084 1819 3084 
Q 2600 3084 3056 2656 
Q 3513 2228 3513 1497 
Q 3513 744 3044 326 
Q 2575 -91 1722 -91 
Q 1428 -91 1123 -41 
Q 819 9 494 109 
L 494 744 
Q 775 591 1075 516 
Q 1375 441 1709 441 
Q 2250 441 2565 725 
Q 2881 1009 2881 1497 
Q 2881 1984 2565 2268 
Q 2250 2553 1709 2553 
Q 1456 2553 1204 2497 
Q 953 2441 691 2322 
L 691 4666 
z
" transform="scale(0.015625)"/>
       </defs>
       <use xlink:href="#DejaVuSans-35"/>
       <use xlink:href="#DejaVuSans-30" x="63.623047"/>
       <use xlink:href="#DejaVuSans-30" x="127.246094"/>
      </g>
     </g>
    </g>
    <g id="xtick_7">
     <g id="line2d_9">
      <g>
       <use xlink:href="#mc0ab4ec934" x="3495.128038" y="1260" style="stroke: #000000; stroke-width: 0.8"/>
      </g>
     </g>
     <g id="text_7">
      <!-- 600 -->
      <g transform="translate(3471.268663 1285.996094)scale(0.25 -0.25)">
       <defs>
        <path id="DejaVuSans-36" d="M 2113 2584 
Q 1688 2584 1439 2293 
Q 1191 2003 1191 1497 
Q 1191 994 1439 701 
Q 1688 409 2113 409 
Q 2538 409 2786 701 
Q 3034 994 3034 1497 
Q 3034 2003 2786 2293 
Q 2538 2584 2113 2584 
z
M 3366 4563 
L 3366 3988 
Q 3128 4100 2886 4159 
Q 2644 4219 2406 4219 
Q 1781 4219 1451 3797 
Q 1122 3375 1075 2522 
Q 1259 2794 1537 2939 
Q 1816 3084 2150 3084 
Q 2853 3084 3261 2657 
Q 3669 2231 3669 1497 
Q 3669 778 3244 343 
Q 2819 -91 2113 -91 
Q 1303 -91 875 529 
Q 447 1150 447 2328 
Q 447 3434 972 4092 
Q 1497 4750 2381 4750 
Q 2619 4750 2861 4703 
Q 3103 4656 3366 4563 
z
" transform="scale(0.015625)"/>
       </defs>
       <use xlink:href="#DejaVuSans-36"/>
       <use xlink:href="#DejaVuSans-30" x="63.623047"/>
       <use xlink:href="#DejaVuSans-30" x="127.246094"/>
      </g>
     </g>
    </g>
    <g id="text_8">
     <!-- Predicted Arc-Length at Anchors -->
     <g transform="translate(1931.719531 1321.789844)scale(0.35 -0.35)">
      <defs>
       <path id="DejaVuSans-50" d="M 1259 4147 
L 1259 2394 
L 2053 2394 
Q 2494 2394 2734 2622 
Q 2975 2850 2975 3272 
Q 2975 3691 2734 3919 
Q 2494 4147 2053 4147 
L 1259 4147 
z
M 628 4666 
L 2053 4666 
Q 2838 4666 3239 4311 
Q 3641 3956 3641 3272 
Q 3641 2581 3239 2228 
Q 2838 1875 2053 1875 
L 1259 1875 
L 1259 0 
L 628 0 
L 628 4666 
z
" transform="scale(0.015625)"/>
       <path id="DejaVuSans-72" d="M 2631 2963 
Q 2534 3019 2420 3045 
Q 2306 3072 2169 3072 
Q 1681 3072 1420 2755 
Q 1159 2438 1159 1844 
L 1159 0 
L 581 0 
L 581 3500 
L 1159 3500 
L 1159 2956 
Q 1341 3275 1631 3429 
Q 1922 3584 2338 3584 
Q 2397 3584 2469 3576 
Q 2541 3569 2628 3553 
L 2631 2963 
z
" transform="scale(0.015625)"/>
       <path id="DejaVuSans-65" d="M 3597 1894 
L 3597 1613 
L 953 1613 
Q 991 1019 1311 708 
Q 1631 397 2203 397 
Q 2534 397 2845 478 
Q 3156 559 3463 722 
L 3463 178 
Q 3153 47 2828 -22 
Q 2503 -91 2169 -91 
Q 1331 -91 842 396 
Q 353 884 353 1716 
Q 353 2575 817 3079 
Q 1281 3584 2069 3584 
Q 2775 3584 3186 3129 
Q 3597 2675 3597 1894 
z
M 3022 2063 
Q 3016 2534 2758 2815 
Q 2500 3097 2075 3097 
Q 1594 3097 1305 2825 
Q 1016 2553 972 2059 
L 3022 2063 
z
" transform="scale(0.015625)"/>
       <path id="DejaVuSans-64" d="M 2906 2969 
L 2906 4863 
L 3481 4863 
L 3481 0 
L 2906 0 
L 2906 525 
Q 2725 213 2448 61 
Q 2172 -91 1784 -91 
Q 1150 -91 751 415 
Q 353 922 353 1747 
Q 353 2572 751 3078 
Q 1150 3584 1784 3584 
Q 2172 3584 2448 3432 
Q 2725 3281 2906 2969 
z
M 947 1747 
Q 947 1113 1208 752 
Q 1469 391 1925 391 
Q 2381 391 2643 752 
Q 2906 1113 2906 1747 
Q 2906 2381 2643 2742 
Q 2381 3103 1925 3103 
Q 1469 3103 1208 2742 
Q 947 2381 947 1747 
z
" transform="scale(0.015625)"/>
       <path id="DejaVuSans-69" d="M 603 3500 
L 1178 3500 
L 1178 0 
L 603 0 
L 603 3500 
z
M 603 4863 
L 1178 4863 
L 1178 4134 
L 603 4134 
L 603 4863 
z
" transform="scale(0.015625)"/>
       <path id="DejaVuSans-63" d="M 3122 3366 
L 3122 2828 
Q 2878 2963 2633 3030 
Q 2388 3097 2138 3097 
Q 1578 3097 1268 2742 
Q 959 2388 959 1747 
Q 959 1106 1268 751 
Q 1578 397 2138 397 
Q 2388 397 2633 464 
Q 2878 531 3122 666 
L 3122 134 
Q 2881 22 2623 -34 
Q 2366 -91 2075 -91 
Q 1284 -91 818 406 
Q 353 903 353 1747 
Q 353 2603 823 3093 
Q 1294 3584 2113 3584 
Q 2378 3584 2631 3529 
Q 2884 3475 3122 3366 
z
" transform="scale(0.015625)"/>
       <path id="DejaVuSans-74" d="M 1172 4494 
L 1172 3500 
L 2356 3500 
L 2356 3053 
L 1172 3053 
L 1172 1153 
Q 1172 725 1289 603 
Q 1406 481 1766 481 
L 2356 481 
L 2356 0 
L 1766 0 
Q 1100 0 847 248 
Q 594 497 594 1153 
L 594 3053 
L 172 3053 
L 172 3500 
L 594 3500 
L 594 4494 
L 1172 4494 
z
" transform="scale(0.015625)"/>
       <path id="DejaVuSans-20" transform="scale(0.015625)"/>
       <path id="DejaVuSans-41" d="M 2188 4044 
L 1331 1722 
L 3047 1722 
L 2188 4044 
z
M 1831 4666 
L 2547 4666 
L 4325 0 
L 3669 0 
L 3244 1197 
L 1141 1197 
L 716 0 
L 50 0 
L 1831 4666 
z
" transform="scale(0.015625)"/>
       <path id="DejaVuSans-2d" d="M 313 2009 
L 1997 2009 
L 1997 1497 
L 313 1497 
L 313 2009 
z
" transform="scale(0.015625)"/>
       <path id="DejaVuSans-4c" d="M 628 4666 
L 1259 4666 
L 1259 531 
L 3531 531 
L 3531 0 
L 628 0 
L 628 4666 
z
" transform="scale(0.015625)"/>
       <path id="DejaVuSans-6e" d="M 3513 2113 
L 3513 0 
L 2938 0 
L 2938 2094 
Q 2938 2591 2744 2837 
Q 2550 3084 2163 3084 
Q 1697 3084 1428 2787 
Q 1159 2491 1159 1978 
L 1159 0 
L 581 0 
L 581 3500 
L 1159 3500 
L 1159 2956 
Q 1366 3272 1645 3428 
Q 1925 3584 2291 3584 
Q 2894 3584 3203 3211 
Q 3513 2838 3513 2113 
z
" transform="scale(0.015625)"/>
       <path id="DejaVuSans-67" d="M 2906 1791 
Q 2906 2416 2648 2759 
Q 2391 3103 1925 3103 
Q 1463 3103 1205 2759 
Q 947 2416 947 1791 
Q 947 1169 1205 825 
Q 1463 481 1925 481 
Q 2391 481 2648 825 
Q 2906 1169 2906 1791 
z
M 3481 434 
Q 3481 -459 3084 -895 
Q 2688 -1331 1869 -1331 
Q 1566 -1331 1297 -1286 
Q 1028 -1241 775 -1147 
L 775 -588 
Q 1028 -725 1275 -790 
Q 1522 -856 1778 -856 
Q 2344 -856 2625 -561 
Q 2906 -266 2906 331 
L 2906 616 
Q 2728 306 2450 153 
Q 2172 0 1784 0 
Q 1141 0 747 490 
Q 353 981 353 1791 
Q 353 2603 747 3093 
Q 1141 3584 1784 3584 
Q 2172 3584 2450 3431 
Q 2728 3278 2906 2969 
L 2906 3500 
L 3481 3500 
L 3481 434 
z
" transform="scale(0.015625)"/>
       <path id="DejaVuSans-68" d="M 3513 2113 
L 3513 0 
L 2938 0 
L 2938 2094 
Q 2938 2591 2744 2837 
Q 2550 3084 2163 3084 
Q 1697 3084 1428 2787 
Q 1159 2491 1159 1978 
L 1159 0 
L 581 0 
L 581 4863 
L 1159 4863 
L 1159 2956 
Q 1366 3272 1645 3428 
Q 1925 3584 2291 3584 
Q 2894 3584 3203 3211 
Q 3513 2838 3513 2113 
z
" transform="scale(0.015625)"/>
       <path id="DejaVuSans-61" d="M 2194 1759 
Q 1497 1759 1228 1600 
Q 959 1441 959 1056 
Q 959 750 1161 570 
Q 1363 391 1709 391 
Q 2188 391 2477 730 
Q 2766 1069 2766 1631 
L 2766 1759 
L 2194 1759 
z
M 3341 1997 
L 3341 0 
L 2766 0 
L 2766 531 
Q 2569 213 2275 61 
Q 1981 -91 1556 -91 
Q 1019 -91 701 211 
Q 384 513 384 1019 
Q 384 1609 779 1909 
Q 1175 2209 1959 2209 
L 2766 2209 
L 2766 2266 
Q 2766 2663 2505 2880 
Q 2244 3097 1772 3097 
Q 1472 3097 1187 3025 
Q 903 2953 641 2809 
L 641 3341 
Q 956 3463 1253 3523 
Q 1550 3584 1831 3584 
Q 2591 3584 2966 3190 
Q 3341 2797 3341 1997 
z
" transform="scale(0.015625)"/>
       <path id="DejaVuSans-6f" d="M 1959 3097 
Q 1497 3097 1228 2736 
Q 959 2375 959 1747 
Q 959 1119 1226 758 
Q 1494 397 1959 397 
Q 2419 397 2687 759 
Q 2956 1122 2956 1747 
Q 2956 2369 2687 2733 
Q 2419 3097 1959 3097 
z
M 1959 3584 
Q 2709 3584 3137 3096 
Q 3566 2609 3566 1747 
Q 3566 888 3137 398 
Q 2709 -91 1959 -91 
Q 1206 -91 779 398 
Q 353 888 353 1747 
Q 353 2609 779 3096 
Q 1206 3584 1959 3584 
z
" transform="scale(0.015625)"/>
       <path id="DejaVuSans-73" d="M 2834 3397 
L 2834 2853 
Q 2591 2978 2328 3040 
Q 2066 3103 1784 3103 
Q 1356 3103 1142 2972 
Q 928 2841 928 2578 
Q 928 2378 1081 2264 
Q 1234 2150 1697 2047 
L 1894 2003 
Q 2506 1872 2764 1633 
Q 3022 1394 3022 966 
Q 3022 478 2636 193 
Q 2250 -91 1575 -91 
Q 1294 -91 989 -36 
Q 684 19 347 128 
L 347 722 
Q 666 556 975 473 
Q 1284 391 1588 391 
Q 1994 391 2212 530 
Q 2431 669 2431 922 
Q 2431 1156 2273 1281 
Q 2116 1406 1581 1522 
L 1381 1569 
Q 847 1681 609 1914 
Q 372 2147 372 2553 
Q 372 3047 722 3315 
Q 1072 3584 1716 3584 
Q 2034 3584 2315 3537 
Q 2597 3491 2834 3397 
z
" transform="scale(0.015625)"/>
      </defs>
      <use xlink:href="#DejaVuSans-50"/>
      <use xlink:href="#DejaVuSans-72" x="58.552734"/>
      <use xlink:href="#DejaVuSans-65" x="97.416016"/>
      <use xlink:href="#DejaVuSans-64" x="158.939453"/>
      <use xlink:href="#DejaVuSans-69" x="222.416016"/>
      <use xlink:href="#DejaVuSans-63" x="250.199219"/>
      <use xlink:href="#DejaVuSans-74" x="305.179688"/>
      <use xlink:href="#DejaVuSans-65" x="344.388672"/>
      <use xlink:href="#DejaVuSans-64" x="405.912109"/>
      <use xlink:href="#DejaVuSans-20" x="469.388672"/>
      <use xlink:href="#DejaVuSans-41" x="501.175781"/>
      <use xlink:href="#DejaVuSans-72" x="569.583984"/>
      <use xlink:href="#DejaVuSans-63" x="608.447266"/>
      <use xlink:href="#DejaVuSans-2d" x="663.427734"/>
      <use xlink:href="#DejaVuSans-4c" x="699.511719"/>
      <use xlink:href="#DejaVuSans-65" x="753.474609"/>
      <use xlink:href="#DejaVuSans-6e" x="814.998047"/>
      <use xlink:href="#DejaVuSans-67" x="878.376953"/>
      <use xlink:href="#DejaVuSans-74" x="941.853516"/>
      <use xlink:href="#DejaVuSans-68" x="981.0625"/>
      <use xlink:href="#DejaVuSans-20" x="1044.441406"/>
      <use xlink:href="#DejaVuSans-61" x="1076.228516"/>
      <use xlink:href="#DejaVuSans-74" x="1137.507812"/>
      <use xlink:href="#DejaVuSans-20" x="1176.716797"/>
      <use xlink:href="#DejaVuSans-41" x="1208.503906"/>
      <use xlink:href="#DejaVuSans-6e" x="1276.912109"/>
      <use xlink:href="#DejaVuSans-63" x="1340.291016"/>
      <use xlink:href="#DejaVuSans-68" x="1395.271484"/>
      <use xlink:href="#DejaVuSans-6f" x="1458.650391"/>
      <use xlink:href="#DejaVuSans-72" x="1519.832031"/>
      <use xlink:href="#DejaVuSans-73" x="1560.945312"/>
     </g>
    </g>
   </g>
   <g id="matplotlib.axis_2">
    <g id="ytick_1">
     <g id="line2d_10">
      <defs>
       <path id="m0ad14a0710" d="M 0 0 
L -3.5 0 
" style="stroke: #000000; stroke-width: 0.8"/>
      </defs>
      <g>
       <use xlink:href="#m0ad14a0710" x="540" y="1247.637037" style="stroke: #000000; stroke-width: 0.8"/>
      </g>
     </g>
     <g id="text_9">
      <!-- −200 -->
      <g transform="translate(464.332031 1257.135084)scale(0.25 -0.25)">
       <defs>
        <path id="DejaVuSans-2212" d="M 678 2272 
L 4684 2272 
L 4684 1741 
L 678 1741 
L 678 2272 
z
" transform="scale(0.015625)"/>
       </defs>
       <use xlink:href="#DejaVuSans-2212"/>
       <use xlink:href="#DejaVuSans-32" x="83.789062"/>
       <use xlink:href="#DejaVuSans-30" x="147.412109"/>
       <use xlink:href="#DejaVuSans-30" x="211.035156"/>
      </g>
     </g>
    </g>
    <g id="ytick_2">
     <g id="line2d_11">
      <g>
       <use xlink:href="#m0ad14a0710" x="540" y="1123.939866" style="stroke: #000000; stroke-width: 0.8"/>
      </g>
     </g>
     <g id="text_10">
      <!-- −150 -->
      <g transform="translate(464.332031 1133.437913)scale(0.25 -0.25)">
       <use xlink:href="#DejaVuSans-2212"/>
       <use xlink:href="#DejaVuSans-31" x="83.789062"/>
       <use xlink:href="#DejaVuSans-35" x="147.412109"/>
       <use xlink:href="#DejaVuSans-30" x="211.035156"/>
      </g>
     </g>
    </g>
    <g id="ytick_3">
     <g id="line2d_12">
      <g>
       <use xlink:href="#m0ad14a0710" x="540" y="1000.242694" style="stroke: #000000; stroke-width: 0.8"/>
      </g>
     </g>
     <g id="text_11">
      <!-- −100 -->
      <g transform="translate(464.332031 1009.740741)scale(0.25 -0.25)">
       <use xlink:href="#DejaVuSans-2212"/>
       <use xlink:href="#DejaVuSans-31" x="83.789062"/>
       <use xlink:href="#DejaVuSans-30" x="147.412109"/>
       <use xlink:href="#DejaVuSans-30" x="211.035156"/>
      </g>
     </g>
    </g>
    <g id="ytick_4">
     <g id="line2d_13">
      <g>
       <use xlink:href="#m0ad14a0710" x="540" y="876.545523" style="stroke: #000000; stroke-width: 0.8"/>
      </g>
     </g>
     <g id="text_12">
      <!-- −50 -->
      <g transform="translate(480.238281 886.043569)scale(0.25 -0.25)">
       <use xlink:href="#DejaVuSans-2212"/>
       <use xlink:href="#DejaVuSans-35" x="83.789062"/>
       <use xlink:href="#DejaVuSans-30" x="147.412109"/>
      </g>
     </g>
    </g>
    <g id="ytick_5">
     <g id="line2d_14">
      <g>
       <use xlink:href="#m0ad14a0710" x="540" y="752.848351" style="stroke: #000000; stroke-width: 0.8"/>
      </g>
     </g>
     <g id="text_13">
      <!-- 0 -->
      <g transform="translate(517.09375 762.346398)scale(0.25 -0.25)">
       <use xlink:href="#DejaVuSans-30"/>
      </g>
     </g>
    </g>
    <g id="ytick_6">
     <g id="line2d_15">
      <g>
       <use xlink:href="#m0ad14a0710" x="540" y="629.151179" style="stroke: #000000; stroke-width: 0.8"/>
      </g>
     </g>
     <g id="text_14">
      <!-- 50 -->
      <g transform="translate(501.1875 638.649226)scale(0.25 -0.25)">
       <use xlink:href="#DejaVuSans-35"/>
       <use xlink:href="#DejaVuSans-30" x="63.623047"/>
      </g>
     </g>
    </g>
    <g id="ytick_7">
     <g id="line2d_16">
      <g>
       <use xlink:href="#m0ad14a0710" x="540" y="505.454008" style="stroke: #000000; stroke-width: 0.8"/>
      </g>
     </g>
     <g id="text_15">
      <!-- 100 -->
      <g transform="translate(485.28125 514.952055)scale(0.25 -0.25)">
       <use xlink:href="#DejaVuSans-31"/>
       <use xlink:href="#DejaVuSans-30" x="63.623047"/>
       <use xlink:href="#DejaVuSans-30" x="127.246094"/>
      </g>
     </g>
    </g>
    <g id="ytick_8">
     <g id="line2d_17">
      <g>
       <use xlink:href="#m0ad14a0710" x="540" y="381.756836" style="stroke: #000000; stroke-width: 0.8"/>
      </g>
     </g>
     <g id="text_16">
      <!-- 150 -->
      <g transform="translate(485.28125 391.254883)scale(0.25 -0.25)">
       <use xlink:href="#DejaVuSans-31"/>
       <use xlink:href="#DejaVuSans-35" x="63.623047"/>
       <use xlink:href="#DejaVuSans-30" x="127.246094"/>
      </g>
     </g>
    </g>
    <g id="ytick_9">
     <g id="line2d_18">
      <g>
       <use xlink:href="#m0ad14a0710" x="540" y="258.059664" style="stroke: #000000; stroke-width: 0.8"/>
      </g>
     </g>
     <g id="text_17">
      <!-- 200 -->
      <g transform="translate(485.28125 267.557711)scale(0.25 -0.25)">
       <use xlink:href="#DejaVuSans-32"/>
       <use xlink:href="#DejaVuSans-30" x="63.623047"/>
       <use xlink:href="#DejaVuSans-30" x="127.246094"/>
      </g>
     </g>
    </g>
    <g id="text_18">
     <!-- Predicted Curvature at Anchors -->
     <g transform="translate(453.053125 990.715234)rotate(-90)scale(0.35 -0.35)">
      <defs>
       <path id="DejaVuSans-43" d="M 4122 4306 
L 4122 3641 
Q 3803 3938 3442 4084 
Q 3081 4231 2675 4231 
Q 1875 4231 1450 3742 
Q 1025 3253 1025 2328 
Q 1025 1406 1450 917 
Q 1875 428 2675 428 
Q 3081 428 3442 575 
Q 3803 722 4122 1019 
L 4122 359 
Q 3791 134 3420 21 
Q 3050 -91 2638 -91 
Q 1578 -91 968 557 
Q 359 1206 359 2328 
Q 359 3453 968 4101 
Q 1578 4750 2638 4750 
Q 3056 4750 3426 4639 
Q 3797 4528 4122 4306 
z
" transform="scale(0.015625)"/>
       <path id="DejaVuSans-75" d="M 544 1381 
L 544 3500 
L 1119 3500 
L 1119 1403 
Q 1119 906 1312 657 
Q 1506 409 1894 409 
Q 2359 409 2629 706 
Q 2900 1003 2900 1516 
L 2900 3500 
L 3475 3500 
L 3475 0 
L 2900 0 
L 2900 538 
Q 2691 219 2414 64 
Q 2138 -91 1772 -91 
Q 1169 -91 856 284 
Q 544 659 544 1381 
z
M 1991 3584 
L 1991 3584 
z
" transform="scale(0.015625)"/>
       <path id="DejaVuSans-76" d="M 191 3500 
L 800 3500 
L 1894 563 
L 2988 3500 
L 3597 3500 
L 2284 0 
L 1503 0 
L 191 3500 
z
" transform="scale(0.015625)"/>
      </defs>
      <use xlink:href="#DejaVuSans-50"/>
      <use xlink:href="#DejaVuSans-72" x="58.552734"/>
      <use xlink:href="#DejaVuSans-65" x="97.416016"/>
      <use xlink:href="#DejaVuSans-64" x="158.939453"/>
      <use xlink:href="#DejaVuSans-69" x="222.416016"/>
      <use xlink:href="#DejaVuSans-63" x="250.199219"/>
      <use xlink:href="#DejaVuSans-74" x="305.179688"/>
      <use xlink:href="#DejaVuSans-65" x="344.388672"/>
      <use xlink:href="#DejaVuSans-64" x="405.912109"/>
      <use xlink:href="#DejaVuSans-20" x="469.388672"/>
      <use xlink:href="#DejaVuSans-43" x="501.175781"/>
      <use xlink:href="#DejaVuSans-75" x="571"/>
      <use xlink:href="#DejaVuSans-72" x="634.378906"/>
      <use xlink:href="#DejaVuSans-76" x="675.492188"/>
      <use xlink:href="#DejaVuSans-61" x="734.671875"/>
      <use xlink:href="#DejaVuSans-74" x="795.951172"/>
      <use xlink:href="#DejaVuSans-75" x="835.160156"/>
      <use xlink:href="#DejaVuSans-72" x="898.539062"/>
      <use xlink:href="#DejaVuSans-65" x="937.402344"/>
      <use xlink:href="#DejaVuSans-20" x="998.925781"/>
      <use xlink:href="#DejaVuSans-61" x="1030.712891"/>
      <use xlink:href="#DejaVuSans-74" x="1091.992188"/>
      <use xlink:href="#DejaVuSans-20" x="1131.201172"/>
      <use xlink:href="#DejaVuSans-41" x="1162.988281"/>
      <use xlink:href="#DejaVuSans-6e" x="1231.396484"/>
      <use xlink:href="#DejaVuSans-63" x="1294.775391"/>
      <use xlink:href="#DejaVuSans-68" x="1349.755859"/>
      <use xlink:href="#DejaVuSans-6f" x="1413.134766"/>
      <use xlink:href="#DejaVuSans-72" x="1474.316406"/>
      <use xlink:href="#DejaVuSans-73" x="1515.429688"/>
     </g>
    </g>
   </g>
   <g id="patch_3">
    <path d="M 540 1260 
L 540 172.8 
" style="fill: none; stroke: #000000; stroke-width: 0.8; stroke-linejoin: miter; stroke-linecap: square"/>
   </g>
   <g id="patch_4">
    <path d="M 3888 1260 
L 3888 172.8 
" style="fill: none; stroke: #000000; stroke-width: 0.8; stroke-linejoin: miter; stroke-linecap: square"/>
   </g>
   <g id="patch_5">
    <path d="M 540 1260 
L 3888 1260 
" style="fill: none; stroke: #000000; stroke-width: 0.8; stroke-linejoin: miter; stroke-linecap: square"/>
   </g>
   <g id="patch_6">
    <path d="M 540 172.8 
L 3888 172.8 
" style="fill: none; stroke: #000000; stroke-width: 0.8; stroke-linejoin: miter; stroke-linecap: square"/>
   </g>
   <g id="text_19">
    <!-- Predicted Signature Curve at Anchors (Transformed Curve #1 vs. Transformed Curve #2) -->
    <g transform="translate(1434.875391 165.521094)scale(0.35 -0.35)">
     <defs>
      <path id="DejaVuSans-53" d="M 3425 4513 
L 3425 3897 
Q 3066 4069 2747 4153 
Q 2428 4238 2131 4238 
Q 1616 4238 1336 4038 
Q 1056 3838 1056 3469 
Q 1056 3159 1242 3001 
Q 1428 2844 1947 2747 
L 2328 2669 
Q 3034 2534 3370 2195 
Q 3706 1856 3706 1288 
Q 3706 609 3251 259 
Q 2797 -91 1919 -91 
Q 1588 -91 1214 -16 
Q 841 59 441 206 
L 441 856 
Q 825 641 1194 531 
Q 1563 422 1919 422 
Q 2459 422 2753 634 
Q 3047 847 3047 1241 
Q 3047 1584 2836 1778 
Q 2625 1972 2144 2069 
L 1759 2144 
Q 1053 2284 737 2584 
Q 422 2884 422 3419 
Q 422 4038 858 4394 
Q 1294 4750 2059 4750 
Q 2388 4750 2728 4690 
Q 3069 4631 3425 4513 
z
" transform="scale(0.015625)"/>
      <path id="DejaVuSans-28" d="M 1984 4856 
Q 1566 4138 1362 3434 
Q 1159 2731 1159 2009 
Q 1159 1288 1364 580 
Q 1569 -128 1984 -844 
L 1484 -844 
Q 1016 -109 783 600 
Q 550 1309 550 2009 
Q 550 2706 781 3412 
Q 1013 4119 1484 4856 
L 1984 4856 
z
" transform="scale(0.015625)"/>
      <path id="DejaVuSans-54" d="M -19 4666 
L 3928 4666 
L 3928 4134 
L 2272 4134 
L 2272 0 
L 1638 0 
L 1638 4134 
L -19 4134 
L -19 4666 
z
" transform="scale(0.015625)"/>
      <path id="DejaVuSans-66" d="M 2375 4863 
L 2375 4384 
L 1825 4384 
Q 1516 4384 1395 4259 
Q 1275 4134 1275 3809 
L 1275 3500 
L 2222 3500 
L 2222 3053 
L 1275 3053 
L 1275 0 
L 697 0 
L 697 3053 
L 147 3053 
L 147 3500 
L 697 3500 
L 697 3744 
Q 697 4328 969 4595 
Q 1241 4863 1831 4863 
L 2375 4863 
z
" transform="scale(0.015625)"/>
      <path id="DejaVuSans-6d" d="M 3328 2828 
Q 3544 3216 3844 3400 
Q 4144 3584 4550 3584 
Q 5097 3584 5394 3201 
Q 5691 2819 5691 2113 
L 5691 0 
L 5113 0 
L 5113 2094 
Q 5113 2597 4934 2840 
Q 4756 3084 4391 3084 
Q 3944 3084 3684 2787 
Q 3425 2491 3425 1978 
L 3425 0 
L 2847 0 
L 2847 2094 
Q 2847 2600 2669 2842 
Q 2491 3084 2119 3084 
Q 1678 3084 1418 2786 
Q 1159 2488 1159 1978 
L 1159 0 
L 581 0 
L 581 3500 
L 1159 3500 
L 1159 2956 
Q 1356 3278 1631 3431 
Q 1906 3584 2284 3584 
Q 2666 3584 2933 3390 
Q 3200 3197 3328 2828 
z
" transform="scale(0.015625)"/>
      <path id="DejaVuSans-23" d="M 3272 2816 
L 2363 2816 
L 2100 1772 
L 3016 1772 
L 3272 2816 
z
M 2803 4594 
L 2478 3297 
L 3391 3297 
L 3719 4594 
L 4219 4594 
L 3897 3297 
L 4872 3297 
L 4872 2816 
L 3775 2816 
L 3519 1772 
L 4513 1772 
L 4513 1294 
L 3397 1294 
L 3072 0 
L 2572 0 
L 2894 1294 
L 1978 1294 
L 1656 0 
L 1153 0 
L 1478 1294 
L 494 1294 
L 494 1772 
L 1594 1772 
L 1856 2816 
L 850 2816 
L 850 3297 
L 1978 3297 
L 2297 4594 
L 2803 4594 
z
" transform="scale(0.015625)"/>
      <path id="DejaVuSans-2e" d="M 684 794 
L 1344 794 
L 1344 0 
L 684 0 
L 684 794 
z
" transform="scale(0.015625)"/>
      <path id="DejaVuSans-29" d="M 513 4856 
L 1013 4856 
Q 1481 4119 1714 3412 
Q 1947 2706 1947 2009 
Q 1947 1309 1714 600 
Q 1481 -109 1013 -844 
L 513 -844 
Q 928 -128 1133 580 
Q 1338 1288 1338 2009 
Q 1338 2731 1133 3434 
Q 928 4138 513 4856 
z
" transform="scale(0.015625)"/>
     </defs>
     <use xlink:href="#DejaVuSans-50"/>
     <use xlink:href="#DejaVuSans-72" x="58.552734"/>
     <use xlink:href="#DejaVuSans-65" x="97.416016"/>
     <use xlink:href="#DejaVuSans-64" x="158.939453"/>
     <use xlink:href="#DejaVuSans-69" x="222.416016"/>
     <use xlink:href="#DejaVuSans-63" x="250.199219"/>
     <use xlink:href="#DejaVuSans-74" x="305.179688"/>
     <use xlink:href="#DejaVuSans-65" x="344.388672"/>
     <use xlink:href="#DejaVuSans-64" x="405.912109"/>
     <use xlink:href="#DejaVuSans-20" x="469.388672"/>
     <use xlink:href="#DejaVuSans-53" x="501.175781"/>
     <use xlink:href="#DejaVuSans-69" x="564.652344"/>
     <use xlink:href="#DejaVuSans-67" x="592.435547"/>
     <use xlink:href="#DejaVuSans-6e" x="655.912109"/>
     <use xlink:href="#DejaVuSans-61" x="719.291016"/>
     <use xlink:href="#DejaVuSans-74" x="780.570312"/>
     <use xlink:href="#DejaVuSans-75" x="819.779297"/>
     <use xlink:href="#DejaVuSans-72" x="883.158203"/>
     <use xlink:href="#DejaVuSans-65" x="922.021484"/>
     <use xlink:href="#DejaVuSans-20" x="983.544922"/>
     <use xlink:href="#DejaVuSans-43" x="1015.332031"/>
     <use xlink:href="#DejaVuSans-75" x="1085.15625"/>
     <use xlink:href="#DejaVuSans-72" x="1148.535156"/>
     <use xlink:href="#DejaVuSans-76" x="1189.648438"/>
     <use xlink:href="#DejaVuSans-65" x="1248.828125"/>
     <use xlink:href="#DejaVuSans-20" x="1310.351562"/>
     <use xlink:href="#DejaVuSans-61" x="1342.138672"/>
     <use xlink:href="#DejaVuSans-74" x="1403.417969"/>
     <use xlink:href="#DejaVuSans-20" x="1442.626953"/>
     <use xlink:href="#DejaVuSans-41" x="1474.414062"/>
     <use xlink:href="#DejaVuSans-6e" x="1542.822266"/>
     <use xlink:href="#DejaVuSans-63" x="1606.201172"/>
     <use xlink:href="#DejaVuSans-68" x="1661.181641"/>
     <use xlink:href="#DejaVuSans-6f" x="1724.560547"/>
     <use xlink:href="#DejaVuSans-72" x="1785.742188"/>
     <use xlink:href="#DejaVuSans-73" x="1826.855469"/>
     <use xlink:href="#DejaVuSans-20" x="1878.955078"/>
     <use xlink:href="#DejaVuSans-28" x="1910.742188"/>
     <use xlink:href="#DejaVuSans-54" x="1949.755859"/>
     <use xlink:href="#DejaVuSans-72" x="1996.089844"/>
     <use xlink:href="#DejaVuSans-61" x="2037.203125"/>
     <use xlink:href="#DejaVuSans-6e" x="2098.482422"/>
     <use xlink:href="#DejaVuSans-73" x="2161.861328"/>
     <use xlink:href="#DejaVuSans-66" x="2213.960938"/>
     <use xlink:href="#DejaVuSans-6f" x="2249.166016"/>
     <use xlink:href="#DejaVuSans-72" x="2310.347656"/>
     <use xlink:href="#DejaVuSans-6d" x="2349.710938"/>
     <use xlink:href="#DejaVuSans-65" x="2447.123047"/>
     <use xlink:href="#DejaVuSans-64" x="2508.646484"/>
     <use xlink:href="#DejaVuSans-20" x="2572.123047"/>
     <use xlink:href="#DejaVuSans-43" x="2603.910156"/>
     <use xlink:href="#DejaVuSans-75" x="2673.734375"/>
     <use xlink:href="#DejaVuSans-72" x="2737.113281"/>
     <use xlink:href="#DejaVuSans-76" x="2778.226562"/>
     <use xlink:href="#DejaVuSans-65" x="2837.40625"/>
     <use xlink:href="#DejaVuSans-20" x="2898.929688"/>
     <use xlink:href="#DejaVuSans-23" x="2930.716797"/>
     <use xlink:href="#DejaVuSans-31" x="3014.505859"/>
     <use xlink:href="#DejaVuSans-20" x="3078.128906"/>
     <use xlink:href="#DejaVuSans-76" x="3109.916016"/>
     <use xlink:href="#DejaVuSans-73" x="3169.095703"/>
     <use xlink:href="#DejaVuSans-2e" x="3221.195312"/>
     <use xlink:href="#DejaVuSans-20" x="3252.982422"/>
     <use xlink:href="#DejaVuSans-54" x="3284.769531"/>
     <use xlink:href="#DejaVuSans-72" x="3331.103516"/>
     <use xlink:href="#DejaVuSans-61" x="3372.216797"/>
     <use xlink:href="#DejaVuSans-6e" x="3433.496094"/>
     <use xlink:href="#DejaVuSans-73" x="3496.875"/>
     <use xlink:href="#DejaVuSans-66" x="3548.974609"/>
     <use xlink:href="#DejaVuSans-6f" x="3584.179688"/>
     <use xlink:href="#DejaVuSans-72" x="3645.361328"/>
     <use xlink:href="#DejaVuSans-6d" x="3684.724609"/>
     <use xlink:href="#DejaVuSans-65" x="3782.136719"/>
     <use xlink:href="#DejaVuSans-64" x="3843.660156"/>
     <use xlink:href="#DejaVuSans-20" x="3907.136719"/>
     <use xlink:href="#DejaVuSans-43" x="3938.923828"/>
     <use xlink:href="#DejaVuSans-75" x="4008.748047"/>
     <use xlink:href="#DejaVuSans-72" x="4072.126953"/>
     <use xlink:href="#DejaVuSans-76" x="4113.240234"/>
     <use xlink:href="#DejaVuSans-65" x="4172.419922"/>
     <use xlink:href="#DejaVuSans-20" x="4233.943359"/>
     <use xlink:href="#DejaVuSans-23" x="4265.730469"/>
     <use xlink:href="#DejaVuSans-32" x="4349.519531"/>
     <use xlink:href="#DejaVuSans-29" x="4413.142578"/>
    </g>
   </g>
   <g id="legend_1">
    <g id="patch_7">
     <path d="M 557.5 266.190625 
L 1274.640625 266.190625 
Q 1279.640625 266.190625 1279.640625 261.190625 
L 1279.640625 190.3 
Q 1279.640625 185.3 1274.640625 185.3 
L 557.5 185.3 
Q 552.5 185.3 552.5 190.3 
L 552.5 261.190625 
Q 552.5 266.190625 557.5 266.190625 
z
" style="fill: #ffffff; opacity: 0.8; stroke: #cccccc; stroke-linejoin: miter"/>
    </g>
    <g id="line2d_19">
     <path d="M 562.5 205.546094 
L 587.5 205.546094 
L 612.5 205.546094 
" style="fill: none; stroke: #aa0000; stroke-width: 4; stroke-linecap: square"/>
    </g>
    <g id="text_20">
     <!-- Predicted Signature Curve (Transformed Curve #1) -->
     <g transform="translate(632.5 214.296094)scale(0.25 -0.25)">
      <use xlink:href="#DejaVuSans-50"/>
      <use xlink:href="#DejaVuSans-72" x="58.552734"/>
      <use xlink:href="#DejaVuSans-65" x="97.416016"/>
      <use xlink:href="#DejaVuSans-64" x="158.939453"/>
      <use xlink:href="#DejaVuSans-69" x="222.416016"/>
      <use xlink:href="#DejaVuSans-63" x="250.199219"/>
      <use xlink:href="#DejaVuSans-74" x="305.179688"/>
      <use xlink:href="#DejaVuSans-65" x="344.388672"/>
      <use xlink:href="#DejaVuSans-64" x="405.912109"/>
      <use xlink:href="#DejaVuSans-20" x="469.388672"/>
      <use xlink:href="#DejaVuSans-53" x="501.175781"/>
      <use xlink:href="#DejaVuSans-69" x="564.652344"/>
      <use xlink:href="#DejaVuSans-67" x="592.435547"/>
      <use xlink:href="#DejaVuSans-6e" x="655.912109"/>
      <use xlink:href="#DejaVuSans-61" x="719.291016"/>
      <use xlink:href="#DejaVuSans-74" x="780.570312"/>
      <use xlink:href="#DejaVuSans-75" x="819.779297"/>
      <use xlink:href="#DejaVuSans-72" x="883.158203"/>
      <use xlink:href="#DejaVuSans-65" x="922.021484"/>
      <use xlink:href="#DejaVuSans-20" x="983.544922"/>
      <use xlink:href="#DejaVuSans-43" x="1015.332031"/>
      <use xlink:href="#DejaVuSans-75" x="1085.15625"/>
      <use xlink:href="#DejaVuSans-72" x="1148.535156"/>
      <use xlink:href="#DejaVuSans-76" x="1189.648438"/>
      <use xlink:href="#DejaVuSans-65" x="1248.828125"/>
      <use xlink:href="#DejaVuSans-20" x="1310.351562"/>
      <use xlink:href="#DejaVuSans-28" x="1342.138672"/>
      <use xlink:href="#DejaVuSans-54" x="1381.152344"/>
      <use xlink:href="#DejaVuSans-72" x="1427.486328"/>
      <use xlink:href="#DejaVuSans-61" x="1468.599609"/>
      <use xlink:href="#DejaVuSans-6e" x="1529.878906"/>
      <use xlink:href="#DejaVuSans-73" x="1593.257812"/>
      <use xlink:href="#DejaVuSans-66" x="1645.357422"/>
      <use xlink:href="#DejaVuSans-6f" x="1680.5625"/>
      <use xlink:href="#DejaVuSans-72" x="1741.744141"/>
      <use xlink:href="#DejaVuSans-6d" x="1781.107422"/>
      <use xlink:href="#DejaVuSans-65" x="1878.519531"/>
      <use xlink:href="#DejaVuSans-64" x="1940.042969"/>
      <use xlink:href="#DejaVuSans-20" x="2003.519531"/>
      <use xlink:href="#DejaVuSans-43" x="2035.306641"/>
      <use xlink:href="#DejaVuSans-75" x="2105.130859"/>
      <use xlink:href="#DejaVuSans-72" x="2168.509766"/>
      <use xlink:href="#DejaVuSans-76" x="2209.623047"/>
      <use xlink:href="#DejaVuSans-65" x="2268.802734"/>
      <use xlink:href="#DejaVuSans-20" x="2330.326172"/>
      <use xlink:href="#DejaVuSans-23" x="2362.113281"/>
      <use xlink:href="#DejaVuSans-31" x="2445.902344"/>
      <use xlink:href="#DejaVuSans-29" x="2509.525391"/>
     </g>
    </g>
    <g id="line2d_20">
     <path d="M 562.5 242.241406 
L 587.5 242.241406 
L 612.5 242.241406 
" style="fill: none; stroke: #00aa00; stroke-width: 4; stroke-linecap: square"/>
    </g>
    <g id="text_21">
     <!-- Predicted Signature Curve (Transformed Curve #2) -->
     <g transform="translate(632.5 250.991406)scale(0.25 -0.25)">
      <use xlink:href="#DejaVuSans-50"/>
      <use xlink:href="#DejaVuSans-72" x="58.552734"/>
      <use xlink:href="#DejaVuSans-65" x="97.416016"/>
      <use xlink:href="#DejaVuSans-64" x="158.939453"/>
      <use xlink:href="#DejaVuSans-69" x="222.416016"/>
      <use xlink:href="#DejaVuSans-63" x="250.199219"/>
      <use xlink:href="#DejaVuSans-74" x="305.179688"/>
      <use xlink:href="#DejaVuSans-65" x="344.388672"/>
      <use xlink:href="#DejaVuSans-64" x="405.912109"/>
      <use xlink:href="#DejaVuSans-20" x="469.388672"/>
      <use xlink:href="#DejaVuSans-53" x="501.175781"/>
      <use xlink:href="#DejaVuSans-69" x="564.652344"/>
      <use xlink:href="#DejaVuSans-67" x="592.435547"/>
      <use xlink:href="#DejaVuSans-6e" x="655.912109"/>
      <use xlink:href="#DejaVuSans-61" x="719.291016"/>
      <use xlink:href="#DejaVuSans-74" x="780.570312"/>
      <use xlink:href="#DejaVuSans-75" x="819.779297"/>
      <use xlink:href="#DejaVuSans-72" x="883.158203"/>
      <use xlink:href="#DejaVuSans-65" x="922.021484"/>
      <use xlink:href="#DejaVuSans-20" x="983.544922"/>
      <use xlink:href="#DejaVuSans-43" x="1015.332031"/>
      <use xlink:href="#DejaVuSans-75" x="1085.15625"/>
      <use xlink:href="#DejaVuSans-72" x="1148.535156"/>
      <use xlink:href="#DejaVuSans-76" x="1189.648438"/>
      <use xlink:href="#DejaVuSans-65" x="1248.828125"/>
      <use xlink:href="#DejaVuSans-20" x="1310.351562"/>
      <use xlink:href="#DejaVuSans-28" x="1342.138672"/>
      <use xlink:href="#DejaVuSans-54" x="1381.152344"/>
      <use xlink:href="#DejaVuSans-72" x="1427.486328"/>
      <use xlink:href="#DejaVuSans-61" x="1468.599609"/>
      <use xlink:href="#DejaVuSans-6e" x="1529.878906"/>
      <use xlink:href="#DejaVuSans-73" x="1593.257812"/>
      <use xlink:href="#DejaVuSans-66" x="1645.357422"/>
      <use xlink:href="#DejaVuSans-6f" x="1680.5625"/>
      <use xlink:href="#DejaVuSans-72" x="1741.744141"/>
      <use xlink:href="#DejaVuSans-6d" x="1781.107422"/>
      <use xlink:href="#DejaVuSans-65" x="1878.519531"/>
      <use xlink:href="#DejaVuSans-64" x="1940.042969"/>
      <use xlink:href="#DejaVuSans-20" x="2003.519531"/>
      <use xlink:href="#DejaVuSans-43" x="2035.306641"/>
      <use xlink:href="#DejaVuSans-75" x="2105.130859"/>
      <use xlink:href="#DejaVuSans-72" x="2168.509766"/>
      <use xlink:href="#DejaVuSans-76" x="2209.623047"/>
      <use xlink:href="#DejaVuSans-65" x="2268.802734"/>
      <use xlink:href="#DejaVuSans-20" x="2330.326172"/>
      <use xlink:href="#DejaVuSans-23" x="2362.113281"/>
      <use xlink:href="#DejaVuSans-32" x="2445.902344"/>
      <use xlink:href="#DejaVuSans-29" x="2509.525391"/>
     </g>
    </g>
   </g>
   <g id="PathCollection_1">
    <defs>
     <path id="m4963999474" d="M 0 0.707107 
C 0.187527 0.707107 0.367398 0.632602 0.5 0.5 
C 0.632602 0.367398 0.707107 0.187527 0.707107 0 
C 0.707107 -0.187527 0.632602 -0.367398 0.5 -0.5 
C 0.367398 -0.632602 0.187527 -0.707107 0 -0.707107 
C -0.187527 -0.707107 -0.367398 -0.632602 -0.5 -0.5 
C -0.632602 -0.367398 -0.707107 -0.187527 -0.707107 0 
C -0.707107 0.187527 -0.632602 0.367398 -0.5 0.5 
C -0.367398 0.632602 -0.187527 0.707107 0 0.707107 
z
" style="stroke: #aa0000"/>
    </defs>
    <g clip-path="url(#pedf1386ab2)">
     <use xlink:href="#m4963999474" x="692.181818" y="293.206504" style="fill: #aa0000; stroke: #aa0000"/>
     <use xlink:href="#m4963999474" x="730.011134" y="596.775401" style="fill: #aa0000; stroke: #aa0000"/>
     <use xlink:href="#m4963999474" x="777.989017" y="1070.006163" style="fill: #aa0000; stroke: #aa0000"/>
     <use xlink:href="#m4963999474" x="832.737854" y="1084.431911" style="fill: #aa0000; stroke: #aa0000"/>
     <use xlink:href="#m4963999474" x="891.188009" y="918.181271" style="fill: #aa0000; stroke: #aa0000"/>
     <use xlink:href="#m4963999474" x="976.541678" y="790.614584" style="fill: #aa0000; stroke: #aa0000"/>
     <use xlink:href="#m4963999474" x="1084.529114" y="725.985694" style="fill: #aa0000; stroke: #aa0000"/>
     <use xlink:href="#m4963999474" x="1160.866003" y="695.428184" style="fill: #aa0000; stroke: #aa0000"/>
     <use xlink:href="#m4963999474" x="1259.964854" y="675.643231" style="fill: #aa0000; stroke: #aa0000"/>
     <use xlink:href="#m4963999474" x="1350.904548" y="594.181612" style="fill: #aa0000; stroke: #aa0000"/>
     <use xlink:href="#m4963999474" x="1394.656639" y="297.11742" style="fill: #aa0000; stroke: #aa0000"/>
     <use xlink:href="#m4963999474" x="1426.46217" y="222.218182" style="fill: #aa0000; stroke: #aa0000"/>
     <use xlink:href="#m4963999474" x="1478.159792" y="528.266843" style="fill: #aa0000; stroke: #aa0000"/>
     <use xlink:href="#m4963999474" x="1564.762299" y="698.735626" style="fill: #aa0000; stroke: #aa0000"/>
     <use xlink:href="#m4963999474" x="1630.955895" y="798.091239" style="fill: #aa0000; stroke: #aa0000"/>
     <use xlink:href="#m4963999474" x="1724.737879" y="888.032738" style="fill: #aa0000; stroke: #aa0000"/>
     <use xlink:href="#m4963999474" x="1778.220578" y="881.416608" style="fill: #aa0000; stroke: #aa0000"/>
     <use xlink:href="#m4963999474" x="1847.053014" y="775.269788" style="fill: #aa0000; stroke: #aa0000"/>
     <use xlink:href="#m4963999474" x="1913.162995" y="678.912493" style="fill: #aa0000; stroke: #aa0000"/>
     <use xlink:href="#m4963999474" x="1982.783433" y="643.569967" style="fill: #aa0000; stroke: #aa0000"/>
     <use xlink:href="#m4963999474" x="2043.78473" y="675.772746" style="fill: #aa0000; stroke: #aa0000"/>
     <use xlink:href="#m4963999474" x="2111.420114" y="774.232446" style="fill: #aa0000; stroke: #aa0000"/>
     <use xlink:href="#m4963999474" x="2160.39024" y="868.682714" style="fill: #aa0000; stroke: #aa0000"/>
     <use xlink:href="#m4963999474" x="2226.316785" y="926.846647" style="fill: #aa0000; stroke: #aa0000"/>
     <use xlink:href="#m4963999474" x="2309.734162" y="914.607339" style="fill: #aa0000; stroke: #aa0000"/>
     <use xlink:href="#m4963999474" x="2366.666007" y="851.381244" style="fill: #aa0000; stroke: #aa0000"/>
     <use xlink:href="#m4963999474" x="2443.863665" y="701.414129" style="fill: #aa0000; stroke: #aa0000"/>
     <use xlink:href="#m4963999474" x="2494.067287" y="462.457929" style="fill: #aa0000; stroke: #aa0000"/>
     <use xlink:href="#m4963999474" x="2532.836876" y="357.044133" style="fill: #aa0000; stroke: #aa0000"/>
     <use xlink:href="#m4963999474" x="2586.568699" y="407.033764" style="fill: #aa0000; stroke: #aa0000"/>
     <use xlink:href="#m4963999474" x="2644.192647" y="460.040358" style="fill: #aa0000; stroke: #aa0000"/>
     <use xlink:href="#m4963999474" x="2698.121632" y="468.440001" style="fill: #aa0000; stroke: #aa0000"/>
     <use xlink:href="#m4963999474" x="2767.774996" y="516.814811" style="fill: #aa0000; stroke: #aa0000"/>
     <use xlink:href="#m4963999474" x="2839.26367" y="609.756687" style="fill: #aa0000; stroke: #aa0000"/>
     <use xlink:href="#m4963999474" x="2919.274838" y="669.912075" style="fill: #aa0000; stroke: #aa0000"/>
     <use xlink:href="#m4963999474" x="3019.673738" y="656.208185" style="fill: #aa0000; stroke: #aa0000"/>
     <use xlink:href="#m4963999474" x="3090.230533" y="627.249131" style="fill: #aa0000; stroke: #aa0000"/>
     <use xlink:href="#m4963999474" x="3170.925988" y="666.649203" style="fill: #aa0000; stroke: #aa0000"/>
     <use xlink:href="#m4963999474" x="3240.753661" y="840.036897" style="fill: #aa0000; stroke: #aa0000"/>
     <use xlink:href="#m4963999474" x="3263.330199" y="1149.270939" style="fill: #aa0000; stroke: #aa0000"/>
     <use xlink:href="#m4963999474" x="3290.729439" y="1207.200236" style="fill: #aa0000; stroke: #aa0000"/>
     <use xlink:href="#m4963999474" x="3307.065645" y="704.632284" style="fill: #aa0000; stroke: #aa0000"/>
     <use xlink:href="#m4963999474" x="3339.85977" y="239.337119" style="fill: #aa0000; stroke: #aa0000"/>
     <use xlink:href="#m4963999474" x="3360.364147" y="250.910634" style="fill: #aa0000; stroke: #aa0000"/>
     <use xlink:href="#m4963999474" x="3390.052587" y="310.078431" style="fill: #aa0000; stroke: #aa0000"/>
     <use xlink:href="#m4963999474" x="3421.040815" y="322.311082" style="fill: #aa0000; stroke: #aa0000"/>
     <use xlink:href="#m4963999474" x="3458.67783" y="661.979851" style="fill: #aa0000; stroke: #aa0000"/>
     <use xlink:href="#m4963999474" x="3513.002338" y="979.180617" style="fill: #aa0000; stroke: #aa0000"/>
     <use xlink:href="#m4963999474" x="3559.749475" y="1147.669001" style="fill: #aa0000; stroke: #aa0000"/>
     <use xlink:href="#m4963999474" x="3597.108974" y="1203.998736" style="fill: #aa0000; stroke: #aa0000"/>
     <use xlink:href="#m4963999474" x="3638.327247" y="1020.711591" style="fill: #aa0000; stroke: #aa0000"/>
     <use xlink:href="#m4963999474" x="3676.009624" y="402.201862" style="fill: #aa0000; stroke: #aa0000"/>
     <use xlink:href="#m4963999474" x="3705.324698" y="242.794233" style="fill: #aa0000; stroke: #aa0000"/>
     <use xlink:href="#m4963999474" x="3735.818182" y="266.810809" style="fill: #aa0000; stroke: #aa0000"/>
    </g>
   </g>
   <g id="PathCollection_2">
    <defs>
     <path id="mba27309b06" d="M 0 0.707107 
C 0.187527 0.707107 0.367398 0.632602 0.5 0.5 
C 0.632602 0.367398 0.707107 0.187527 0.707107 0 
C 0.707107 -0.187527 0.632602 -0.367398 0.5 -0.5 
C 0.367398 -0.632602 0.187527 -0.707107 0 -0.707107 
C -0.187527 -0.707107 -0.367398 -0.632602 -0.5 -0.5 
C -0.632602 -0.367398 -0.707107 -0.187527 -0.707107 0 
C -0.707107 0.187527 -0.632602 0.367398 -0.5 0.5 
C -0.367398 0.632602 -0.187527 0.707107 0 0.707107 
z
" style="stroke: #00aa00"/>
    </defs>
    <g clip-path="url(#pedf1386ab2)">
     <use xlink:href="#mba27309b06" x="692.181818" y="292.834475" style="fill: #00aa00; stroke: #00aa00"/>
     <use xlink:href="#mba27309b06" x="722.809418" y="585.846856" style="fill: #00aa00; stroke: #00aa00"/>
     <use xlink:href="#mba27309b06" x="772.681728" y="1065.777208" style="fill: #00aa00; stroke: #00aa00"/>
     <use xlink:href="#mba27309b06" x="818.730882" y="1083.467046" style="fill: #00aa00; stroke: #00aa00"/>
     <use xlink:href="#mba27309b06" x="889.510473" y="918.625582" style="fill: #00aa00; stroke: #00aa00"/>
     <use xlink:href="#mba27309b06" x="962.355639" y="787.973135" style="fill: #00aa00; stroke: #00aa00"/>
     <use xlink:href="#mba27309b06" x="1064.55735" y="722.544985" style="fill: #00aa00; stroke: #00aa00"/>
     <use xlink:href="#mba27309b06" x="1163.226859" y="695.222289" style="fill: #00aa00; stroke: #00aa00"/>
     <use xlink:href="#mba27309b06" x="1266.982812" y="675.884812" style="fill: #00aa00; stroke: #00aa00"/>
     <use xlink:href="#mba27309b06" x="1334.574637" y="595.556489" style="fill: #00aa00; stroke: #00aa00"/>
     <use xlink:href="#mba27309b06" x="1395.400427" y="291.420573" style="fill: #00aa00; stroke: #00aa00"/>
     <use xlink:href="#mba27309b06" x="1422.255432" y="227.837652" style="fill: #00aa00; stroke: #00aa00"/>
     <use xlink:href="#mba27309b06" x="1468.927502" y="527.752462" style="fill: #00aa00; stroke: #00aa00"/>
     <use xlink:href="#mba27309b06" x="1543.033893" y="698.318469" style="fill: #00aa00; stroke: #00aa00"/>
     <use xlink:href="#mba27309b06" x="1617.579333" y="796.788485" style="fill: #00aa00; stroke: #00aa00"/>
     <use xlink:href="#mba27309b06" x="1692.842045" y="893.075565" style="fill: #00aa00; stroke: #00aa00"/>
     <use xlink:href="#mba27309b06" x="1770.639899" y="881.499909" style="fill: #00aa00; stroke: #00aa00"/>
     <use xlink:href="#mba27309b06" x="1839.871879" y="774.854113" style="fill: #00aa00; stroke: #00aa00"/>
     <use xlink:href="#mba27309b06" x="1906.087801" y="678.319409" style="fill: #00aa00; stroke: #00aa00"/>
     <use xlink:href="#mba27309b06" x="1966.55514" y="642.759956" style="fill: #00aa00; stroke: #00aa00"/>
     <use xlink:href="#mba27309b06" x="2031.106749" y="675.335656" style="fill: #00aa00; stroke: #00aa00"/>
     <use xlink:href="#mba27309b06" x="2098.554086" y="769.591145" style="fill: #00aa00; stroke: #00aa00"/>
     <use xlink:href="#mba27309b06" x="2155.16942" y="874.270825" style="fill: #00aa00; stroke: #00aa00"/>
     <use xlink:href="#mba27309b06" x="2216.539533" y="927.434216" style="fill: #00aa00; stroke: #00aa00"/>
     <use xlink:href="#mba27309b06" x="2303.586443" y="919.092786" style="fill: #00aa00; stroke: #00aa00"/>
     <use xlink:href="#mba27309b06" x="2376.612638" y="793.878887" style="fill: #00aa00; stroke: #00aa00"/>
     <use xlink:href="#mba27309b06" x="2461.671456" y="678.335345" style="fill: #00aa00; stroke: #00aa00"/>
     <use xlink:href="#mba27309b06" x="2516.313961" y="300.846357" style="fill: #00aa00; stroke: #00aa00"/>
     <use xlink:href="#mba27309b06" x="2538.218286" y="379.77801" style="fill: #00aa00; stroke: #00aa00"/>
     <use xlink:href="#mba27309b06" x="2575.666184" y="390.262132" style="fill: #00aa00; stroke: #00aa00"/>
     <use xlink:href="#mba27309b06" x="2616.911064" y="458.204186" style="fill: #00aa00; stroke: #00aa00"/>
     <use xlink:href="#mba27309b06" x="2690.915279" y="470.371737" style="fill: #00aa00; stroke: #00aa00"/>
     <use xlink:href="#mba27309b06" x="2773.875478" y="515.807129" style="fill: #00aa00; stroke: #00aa00"/>
     <use xlink:href="#mba27309b06" x="2840.604288" y="618.857144" style="fill: #00aa00; stroke: #00aa00"/>
     <use xlink:href="#mba27309b06" x="2911.510967" y="671.001831" style="fill: #00aa00; stroke: #00aa00"/>
     <use xlink:href="#mba27309b06" x="2973.44054" y="656.831239" style="fill: #00aa00; stroke: #00aa00"/>
     <use xlink:href="#mba27309b06" x="3053.530778" y="625.834836" style="fill: #00aa00; stroke: #00aa00"/>
     <use xlink:href="#mba27309b06" x="3138.046923" y="663.9926" style="fill: #00aa00; stroke: #00aa00"/>
     <use xlink:href="#mba27309b06" x="3187.968573" y="826.601719" style="fill: #00aa00; stroke: #00aa00"/>
     <use xlink:href="#mba27309b06" x="3244.820128" y="1144.060242" style="fill: #00aa00; stroke: #00aa00"/>
     <use xlink:href="#mba27309b06" x="3274.541786" y="1210.581818" style="fill: #00aa00; stroke: #00aa00"/>
     <use xlink:href="#mba27309b06" x="3299.343703" y="717.513479" style="fill: #00aa00; stroke: #00aa00"/>
     <use xlink:href="#mba27309b06" x="3322.569634" y="233.190963" style="fill: #00aa00; stroke: #00aa00"/>
     <use xlink:href="#mba27309b06" x="3343.819492" y="255.884238" style="fill: #00aa00; stroke: #00aa00"/>
     <use xlink:href="#mba27309b06" x="3374.607813" y="314.111969" style="fill: #00aa00; stroke: #00aa00"/>
     <use xlink:href="#mba27309b06" x="3414.048146" y="331.315603" style="fill: #00aa00; stroke: #00aa00"/>
     <use xlink:href="#mba27309b06" x="3467.619702" y="662.14583" style="fill: #00aa00; stroke: #00aa00"/>
     <use xlink:href="#mba27309b06" x="3494.189537" y="976.772523" style="fill: #00aa00; stroke: #00aa00"/>
     <use xlink:href="#mba27309b06" x="3541.566974" y="1145.100594" style="fill: #00aa00; stroke: #00aa00"/>
     <use xlink:href="#mba27309b06" x="3580.147851" y="1204.841041" style="fill: #00aa00; stroke: #00aa00"/>
     <use xlink:href="#mba27309b06" x="3604.816784" y="1022.294409" style="fill: #00aa00; stroke: #00aa00"/>
     <use xlink:href="#mba27309b06" x="3644.440434" y="399.523866" style="fill: #00aa00; stroke: #00aa00"/>
     <use xlink:href="#mba27309b06" x="3680.503226" y="240.479754" style="fill: #00aa00; stroke: #00aa00"/>
     <use xlink:href="#mba27309b06" x="3702.450472" y="265.071657" style="fill: #00aa00; stroke: #00aa00"/>
    </g>
   </g>
  </g>
 </g>
 <defs>
  <clipPath id="pedf1386ab2">
   <rect x="540" y="172.8" width="3348" height="1087.2"/>
  </clipPath>
 </defs>
</svg>
