<?xml version="1.0" encoding="utf-8" standalone="no"?>
<!DOCTYPE svg PUBLIC "-//W3C//DTD SVG 1.1//EN"
  "http://www.w3.org/Graphics/SVG/1.1/DTD/svg11.dtd">
<svg xmlns:xlink="http://www.w3.org/1999/xlink" width="4320pt" height="1440pt" viewBox="0 0 4320 1440" xmlns="http://www.w3.org/2000/svg" version="1.1">
 <metadata>
  <rdf:RDF xmlns:dc="http://purl.org/dc/elements/1.1/" xmlns:cc="http://creativecommons.org/ns#" xmlns:rdf="http://www.w3.org/1999/02/22-rdf-syntax-ns#">
   <cc:Work>
    <dc:type rdf:resource="http://purl.org/dc/dcmitype/StillImage"/>
    <dc:date>2021-11-03T13:25:48.499366</dc:date>
    <dc:format>image/svg+xml</dc:format>
    <dc:creator>
     <cc:Agent>
      <dc:title>Matplotlib v3.5.0rc1, https://matplotlib.org/</dc:title>
     </cc:Agent>
    </dc:creator>
   </cc:Work>
  </rdf:RDF>
 </metadata>
 <defs>
  <style type="text/css">*{stroke-linejoin: round; stroke-linecap: butt}</style>
 </defs>
 <g id="figure_1">
  <g id="patch_1">
   <path d="M 0 1440 
L 4320 1440 
L 4320 0 
L 0 0 
z
" style="fill: #ffffff"/>
  </g>
  <g id="axes_1">
   <g id="patch_2">
    <path d="M 540 1260 
L 3888 1260 
L 3888 172.8 
L 540 172.8 
z
" style="fill: #ffffff"/>
   </g>
   <g id="line2d_1">
    <path d="M 692.181818 345.382289 
L 711.893511 354.517351 
L 730.475583 364.514042 
L 747.583809 372.19901 
L 764.342373 377.901837 
L 780.925797 382.147966 
L 794.78497 385.494413 
L 808.931091 388.427304 
L 823.504789 391.312873 
L 838.362003 394.399251 
L 853.244439 397.841181 
L 868.189602 401.72403 
L 883.179624 406.079429 
L 898.13766 410.894793 
L 913.156918 416.120205 
L 928.220663 421.675098 
L 958.414147 433.348593 
L 988.447459 445.037356 
L 1003.367796 450.662232 
L 1018.218816 456.071125 
L 1032.997953 461.2563 
L 1062.565073 471.322143 
L 1077.351254 476.714211 
L 1092.140923 482.755782 
L 1106.927359 489.285499 
L 1121.717231 494.913351 
L 1136.515009 495.914193 
L 1151.323489 489.175489 
L 1166.145441 495.871737 
L 1180.985819 601.382009 
L 1195.847759 944.248786 
L 1210.726189 1172.160004 
L 1225.616597 1176.06476 
L 1240.520988 1161.854199 
L 1255.43798 1140.634192 
L 1270.365826 1119.185948 
L 1285.298836 1100.892144 
L 1300.238237 1085.410388 
L 1315.184356 1071.539882 
L 1330.125503 1058.359124 
L 1345.059154 1045.033737 
L 1359.985315 1029.657595 
L 1374.904251 1007.917179 
L 1389.816389 977.477087 
L 1404.722243 940.099104 
L 1419.622351 823.237063 
L 1434.517241 590.207286 
L 1449.407429 413.976075 
L 1464.293427 337.902919 
L 1479.175769 315.473306 
L 1494.055045 315.836719 
L 1508.931913 324.745424 
L 1523.807116 335.73168 
L 1538.681461 345.969043 
L 1553.555797 354.401994 
L 1568.42891 360.862367 
L 1583.298124 365.666688 
L 1598.164192 369.432172 
L 1613.02503 372.943598 
L 1627.888538 376.961478 
L 1642.755225 381.942153 
L 1672.494142 393.435622 
L 1687.362263 397.460456 
L 1702.228936 398.086101 
L 1717.093504 394.154115 
L 1731.955074 385.683264 
L 1746.812554 373.986404 
L 1761.664684 361.221629 
L 1776.509145 349.642648 
L 1791.339935 340.939607 
L 1806.156051 335.919592 
L 1820.954375 334.538183 
L 1835.725778 336.139613 
L 1850.468664 339.753901 
L 1865.226108 344.362891 
L 1879.731416 349.084067 
L 1893.686986 353.265125 
L 1907.528049 356.517009 
L 1921.138358 358.713208 
L 1934.418983 359.968766 
L 1947.953223 360.598155 
L 1962.011948 361.041715 
L 1976.821633 361.760064 
L 1992.901619 363.1279 
L 2009.861662 365.367976 
L 2026.811415 368.53002 
L 2043.74696 372.493117 
L 2060.664887 376.993148 
L 2077.562465 381.699552 
L 2136.000957 398.460634 
L 2149.6265 402.011903 
L 2177.640947 408.852004 
L 2191.844662 412.180963 
L 2206.630322 415.387704 
L 2221.404173 418.384141 
L 2236.175358 421.073087 
L 2250.967951 423.367451 
L 2265.778641 425.209468 
L 2280.588933 426.588816 
L 2295.404772 427.556391 
L 2310.228411 428.229426 
L 2339.91808 429.433685 
L 2354.792791 430.400377 
L 2369.684495 431.862537 
L 2384.584278 433.960641 
L 2399.478401 436.744848 
L 2414.366443 440.193583 
L 2429.248521 444.217547 
L 2444.1253 448.669323 
L 2458.997931 453.332685 
L 2473.867917 457.850337 
L 2488.736914 461.556704 
L 2503.606531 463.259631 
L 2518.478153 461.147114 
L 2533.352826 453.161092 
L 2548.231202 438.207374 
L 2563.113545 417.572901 
L 2577.999777 394.576307 
L 2592.88954 372.353908 
L 2607.782259 352.740835 
L 2622.677184 337.280606 
L 2637.573419 327.979593 
L 2652.469928 326.392468 
L 2667.365549 332.373028 
L 2682.25901 344.015009 
L 2697.148987 358.660789 
L 2712.034162 373.991546 
L 2726.913447 388.567905 
L 2741.786146 401.812762 
L 2756.652078 413.713671 
L 2771.51165 424.509176 
L 2786.366051 434.46977 
L 2801.217168 443.744355 
L 2816.067443 452.167728 
L 2830.919647 458.938301 
L 2845.776596 462.602804 
L 2860.640877 465.256055 
L 2875.509622 494.972575 
L 2890.384243 662.611516 
L 2905.266466 1096.386464 
L 2920.158319 1210.581818 
L 2935.062262 1203.217063 
L 2949.979685 1171.806926 
L 2964.908659 1142.316066 
L 2979.845474 1125.453531 
L 2994.784069 1115.331615 
L 3009.721735 1107.02246 
L 3024.656432 1098.390422 
L 3039.586673 1088.339607 
L 3054.511619 1075.862399 
L 3069.431084 1059.628544 
L 3084.345436 1038.107086 
L 3099.255421 1011.174634 
L 3114.161922 981.582072 
L 3129.065711 939.433719 
L 3143.967215 853.94298 
L 3158.866344 479.451305 
L 3173.76239 222.218182 
L 3188.654024 226.362135 
L 3203.539397 281.616028 
L 3218.416342 333.403887 
L 3233.282677 371.044095 
L 3248.136573 397.044126 
L 3262.969592 415.729841 
L 3277.781399 430.198926 
L 3292.576608 442.240466 
L 3307.328684 452.807121 
L 3322.038891 462.362477 
L 3336.718911 471.029285 
L 3350.667031 478.566315 
L 3364.095465 484.210694 
L 3377.193808 486.457582 
L 3391.62387 483.039753 
L 3408.73892 471.742256 
L 3425.847344 452.17382 
L 3444.0181 426.568068 
L 3463.312145 398.062457 
L 3483.517737 369.134125 
L 3504.211074 342.593211 
L 3525.215686 322.469273 
L 3546.374655 312.225894 
L 3567.561765 312.378475 
L 3588.650047 334.256212 
L 3622.143507 345.382289 
L 3622.143507 345.382289 
" clip-path="url(#p7a87ef1651)" style="fill: none; stroke: #aa0000; stroke-width: 4; stroke-linecap: square"/>
   </g>
   <g id="line2d_2">
    <path d="M 692.181818 337.980036 
L 709.989313 310.823085 
L 727.721567 322.948277 
L 745.289788 333.12967 
L 762.50248 340.993533 
L 779.281234 346.501361 
L 795.745222 349.769609 
L 811.716342 350.99615 
L 823.778001 350.489983 
L 844.981594 348.768163 
L 862.017651 346.660859 
L 877.284505 345.347407 
L 892.385931 346.241105 
L 907.544402 350.699767 
L 922.749974 359.642462 
L 938.381389 373.184173 
L 954.181611 390.431779 
L 969.722444 409.818227 
L 985.273614 430.100008 
L 1000.772693 450.553033 
L 1016.18942 469.850526 
L 1031.458695 486.012784 
L 1046.437116 497.879331 
L 1061.016121 505.70663 
L 1075.608935 510.739003 
L 1090.190572 514.379391 
L 1103.409886 517.343411 
L 1116.475536 519.008535 
L 1132.055629 516.653578 
L 1149.134704 506.561726 
L 1166.157733 494.479015 
L 1183.109831 514.948724 
L 1200.008792 635.966109 
L 1216.860663 928.971422 
L 1233.70885 1148.944283 
L 1250.545691 1173.556061 
L 1267.350032 1164.87613 
L 1282.198221 1152.472082 
L 1296.253745 1137.312966 
L 1310.466591 1121.491518 
L 1324.899962 1106.081378 
L 1354.34049 1075.703851 
L 1369.224057 1059.036741 
L 1384.133922 1039.039549 
L 1399.042044 1012.966876 
L 1413.94847 981.504796 
L 1428.85004 940.168654 
L 1443.743953 817.89368 
L 1458.627815 599.489185 
L 1473.499679 432.094767 
L 1488.35806 355.592004 
L 1503.201953 331.094038 
L 1518.020522 329.730252 
L 1532.816351 337.410157 
L 1547.583171 347.57773 
L 1562.318733 357.356705 
L 1577.075705 365.733515 
L 1591.444069 372.667941 
L 1605.414737 378.648432 
L 1619.291453 384.434245 
L 1632.998712 390.834287 
L 1646.517483 398.454082 
L 1659.916446 407.424447 
L 1673.58773 417.186617 
L 1687.537127 426.437216 
L 1701.920618 433.341342 
L 1716.81676 436.048604 
L 1732.686079 433.359913 
L 1749.565479 425.237123 
L 1766.534545 412.884239 
L 1800.509534 383.960784 
L 1817.506862 371.542578 
L 1835.093462 362.21854 
L 1853.697852 356.276342 
L 1873.300296 353.347389 
L 1893.863209 352.655021 
L 1915.152899 353.263842 
L 1937.114223 354.27528 
L 1956.922353 354.951724 
L 1965.643377 354.786833 
L 1979.243291 353.545231 
L 1994.715841 351.284294 
L 2026.617343 345.341943 
L 2042.752686 342.956797 
L 2059.011026 341.830686 
L 2075.371268 342.344786 
L 2091.842123 344.539255 
L 2108.397271 348.15542 
L 2125.00773 352.771662 
L 2141.642392 357.939881 
L 2158.268566 363.260732 
L 2174.852498 368.407478 
L 2191.359843 373.133528 
L 2207.760595 377.269666 
L 2224.056674 380.707057 
L 2240.157775 383.375935 
L 2256.086613 385.232113 
L 2271.400424 386.254663 
L 2283.154912 386.451128 
L 2305.111828 385.866562 
L 2325.900322 384.595006 
L 2344.143338 382.795628 
L 2360.749068 380.713741 
L 2375.218885 378.69974 
L 2389.739174 377.214118 
L 2404.686815 376.804068 
L 2419.729184 378.039301 
L 2434.849486 381.406632 
L 2450.082995 387.186666 
L 2465.637259 395.360508 
L 2481.323603 405.612154 
L 2496.915767 417.439801 
L 2512.494626 430.308448 
L 2543.600574 456.889192 
L 2559.108619 469.068828 
L 2574.600245 479.355724 
L 2590.006918 487.138673 
L 2605.33014 491.659535 
L 2620.502131 491.225933 
L 2635.506625 483.280012 
L 2650.44345 466.086846 
L 2665.337155 441.251893 
L 2680.184952 413.690569 
L 2695.016714 388.130169 
L 2709.858115 366.9235 
L 2724.705587 351.258493 
L 2739.555813 342.527565 
L 2754.401437 341.781721 
L 2769.238463 348.574599 
L 2784.070823 360.858343 
L 2798.888415 375.927324 
L 2813.669047 391.462496 
L 2828.415754 406.02375 
L 2843.116933 418.988283 
L 2857.670512 430.240965 
L 2871.477409 439.867498 
L 2884.910464 447.927684 
L 2898.140751 454.287926 
L 2912.356415 458.531633 
L 2929.057983 460.309288 
L 2946.107145 461.541283 
L 2963.133975 473.443013 
L 2980.279969 529.440725 
L 2997.739095 704.737917 
L 3015.333629 1043.197176 
L 3032.791406 1195.401547 
L 3049.861759 1199.591918 
L 3066.661013 1188.825054 
L 3083.485463 1169.093123 
L 3100.297092 1149.179464 
L 3116.353929 1133.795136 
L 3130.768557 1122.120726 
L 3144.797131 1111.829088 
L 3159.242339 1100.952711 
L 3173.642643 1087.974104 
L 3188.547101 1071.5646 
L 3203.432669 1050.638389 
L 3218.344978 1024.890919 
L 3233.261845 993.558451 
L 3248.171176 942.935878 
L 3263.069952 855.062633 
L 3277.953112 491.337379 
L 3292.815615 236.071484 
L 3307.645195 235.455092 
L 3322.431771 291.883902 
L 3337.161258 347.408231 
L 3351.871591 388.778767 
L 3365.606922 417.690219 
L 3378.590812 438.326719 
L 3392.750303 453.829272 
L 3410.018565 466.074258 
L 3429.406668 476.066057 
L 3450.750372 484.217921 
L 3466.357424 490.431128 
L 3479.630226 494.011998 
L 3495.376094 493.578652 
L 3511.426302 487.366577 
L 3527.726725 474.380158 
L 3544.353764 455.804084 
L 3578.526357 413.076145 
L 3596.145549 390.365983 
L 3613.998964 364.534643 
L 3631.948341 335.783112 
L 3649.89776 308.216348 
L 3667.815238 287.775694 
L 3685.707106 278.322576 
L 3703.575374 337.819453 
L 3735.818182 337.980036 
L 3735.818182 337.980036 
" clip-path="url(#p7a87ef1651)" style="fill: none; stroke: #00aa00; stroke-width: 4; stroke-linecap: square"/>
   </g>
   <g id="matplotlib.axis_1">
    <g id="xtick_1">
     <g id="line2d_3">
      <defs>
       <path id="m9731a81f29" d="M 0 0 
L 0 3.5 
" style="stroke: #000000; stroke-width: 0.8"/>
      </defs>
      <g>
       <use xlink:href="#m9731a81f29" x="692.181818" y="1260" style="stroke: #000000; stroke-width: 0.8"/>
      </g>
     </g>
     <g id="text_1">
      <!-- 0 -->
      <g transform="translate(684.228693 1285.996094)scale(0.25 -0.25)">
       <defs>
        <path id="DejaVuSans-30" d="M 2034 4250 
Q 1547 4250 1301 3770 
Q 1056 3291 1056 2328 
Q 1056 1369 1301 889 
Q 1547 409 2034 409 
Q 2525 409 2770 889 
Q 3016 1369 3016 2328 
Q 3016 3291 2770 3770 
Q 2525 4250 2034 4250 
z
M 2034 4750 
Q 2819 4750 3233 4129 
Q 3647 3509 3647 2328 
Q 3647 1150 3233 529 
Q 2819 -91 2034 -91 
Q 1250 -91 836 529 
Q 422 1150 422 2328 
Q 422 3509 836 4129 
Q 1250 4750 2034 4750 
z
" transform="scale(0.015625)"/>
       </defs>
       <use xlink:href="#DejaVuSans-30"/>
      </g>
     </g>
    </g>
    <g id="xtick_2">
     <g id="line2d_4">
      <g>
       <use xlink:href="#m9731a81f29" x="1184.425197" y="1260" style="stroke: #000000; stroke-width: 0.8"/>
      </g>
     </g>
     <g id="text_2">
      <!-- 20 -->
      <g transform="translate(1168.518947 1285.996094)scale(0.25 -0.25)">
       <defs>
        <path id="DejaVuSans-32" d="M 1228 531 
L 3431 531 
L 3431 0 
L 469 0 
L 469 531 
Q 828 903 1448 1529 
Q 2069 2156 2228 2338 
Q 2531 2678 2651 2914 
Q 2772 3150 2772 3378 
Q 2772 3750 2511 3984 
Q 2250 4219 1831 4219 
Q 1534 4219 1204 4116 
Q 875 4013 500 3803 
L 500 4441 
Q 881 4594 1212 4672 
Q 1544 4750 1819 4750 
Q 2544 4750 2975 4387 
Q 3406 4025 3406 3419 
Q 3406 3131 3298 2873 
Q 3191 2616 2906 2266 
Q 2828 2175 2409 1742 
Q 1991 1309 1228 531 
z
" transform="scale(0.015625)"/>
       </defs>
       <use xlink:href="#DejaVuSans-32"/>
       <use xlink:href="#DejaVuSans-30" x="63.623047"/>
      </g>
     </g>
    </g>
    <g id="xtick_3">
     <g id="line2d_5">
      <g>
       <use xlink:href="#m9731a81f29" x="1676.668577" y="1260" style="stroke: #000000; stroke-width: 0.8"/>
      </g>
     </g>
     <g id="text_3">
      <!-- 40 -->
      <g transform="translate(1660.762327 1285.996094)scale(0.25 -0.25)">
       <defs>
        <path id="DejaVuSans-34" d="M 2419 4116 
L 825 1625 
L 2419 1625 
L 2419 4116 
z
M 2253 4666 
L 3047 4666 
L 3047 1625 
L 3713 1625 
L 3713 1100 
L 3047 1100 
L 3047 0 
L 2419 0 
L 2419 1100 
L 313 1100 
L 313 1709 
L 2253 4666 
z
" transform="scale(0.015625)"/>
       </defs>
       <use xlink:href="#DejaVuSans-34"/>
       <use xlink:href="#DejaVuSans-30" x="63.623047"/>
      </g>
     </g>
    </g>
    <g id="xtick_4">
     <g id="line2d_6">
      <g>
       <use xlink:href="#m9731a81f29" x="2168.911956" y="1260" style="stroke: #000000; stroke-width: 0.8"/>
      </g>
     </g>
     <g id="text_4">
      <!-- 60 -->
      <g transform="translate(2153.005706 1285.996094)scale(0.25 -0.25)">
       <defs>
        <path id="DejaVuSans-36" d="M 2113 2584 
Q 1688 2584 1439 2293 
Q 1191 2003 1191 1497 
Q 1191 994 1439 701 
Q 1688 409 2113 409 
Q 2538 409 2786 701 
Q 3034 994 3034 1497 
Q 3034 2003 2786 2293 
Q 2538 2584 2113 2584 
z
M 3366 4563 
L 3366 3988 
Q 3128 4100 2886 4159 
Q 2644 4219 2406 4219 
Q 1781 4219 1451 3797 
Q 1122 3375 1075 2522 
Q 1259 2794 1537 2939 
Q 1816 3084 2150 3084 
Q 2853 3084 3261 2657 
Q 3669 2231 3669 1497 
Q 3669 778 3244 343 
Q 2819 -91 2113 -91 
Q 1303 -91 875 529 
Q 447 1150 447 2328 
Q 447 3434 972 4092 
Q 1497 4750 2381 4750 
Q 2619 4750 2861 4703 
Q 3103 4656 3366 4563 
z
" transform="scale(0.015625)"/>
       </defs>
       <use xlink:href="#DejaVuSans-36"/>
       <use xlink:href="#DejaVuSans-30" x="63.623047"/>
      </g>
     </g>
    </g>
    <g id="xtick_5">
     <g id="line2d_7">
      <g>
       <use xlink:href="#m9731a81f29" x="2661.155335" y="1260" style="stroke: #000000; stroke-width: 0.8"/>
      </g>
     </g>
     <g id="text_5">
      <!-- 80 -->
      <g transform="translate(2645.249085 1285.996094)scale(0.25 -0.25)">
       <defs>
        <path id="DejaVuSans-38" d="M 2034 2216 
Q 1584 2216 1326 1975 
Q 1069 1734 1069 1313 
Q 1069 891 1326 650 
Q 1584 409 2034 409 
Q 2484 409 2743 651 
Q 3003 894 3003 1313 
Q 3003 1734 2745 1975 
Q 2488 2216 2034 2216 
z
M 1403 2484 
Q 997 2584 770 2862 
Q 544 3141 544 3541 
Q 544 4100 942 4425 
Q 1341 4750 2034 4750 
Q 2731 4750 3128 4425 
Q 3525 4100 3525 3541 
Q 3525 3141 3298 2862 
Q 3072 2584 2669 2484 
Q 3125 2378 3379 2068 
Q 3634 1759 3634 1313 
Q 3634 634 3220 271 
Q 2806 -91 2034 -91 
Q 1263 -91 848 271 
Q 434 634 434 1313 
Q 434 1759 690 2068 
Q 947 2378 1403 2484 
z
M 1172 3481 
Q 1172 3119 1398 2916 
Q 1625 2713 2034 2713 
Q 2441 2713 2670 2916 
Q 2900 3119 2900 3481 
Q 2900 3844 2670 4047 
Q 2441 4250 2034 4250 
Q 1625 4250 1398 4047 
Q 1172 3844 1172 3481 
z
" transform="scale(0.015625)"/>
       </defs>
       <use xlink:href="#DejaVuSans-38"/>
       <use xlink:href="#DejaVuSans-30" x="63.623047"/>
      </g>
     </g>
    </g>
    <g id="xtick_6">
     <g id="line2d_8">
      <g>
       <use xlink:href="#m9731a81f29" x="3153.398714" y="1260" style="stroke: #000000; stroke-width: 0.8"/>
      </g>
     </g>
     <g id="text_6">
      <!-- 100 -->
      <g transform="translate(3129.539339 1285.996094)scale(0.25 -0.25)">
       <defs>
        <path id="DejaVuSans-31" d="M 794 531 
L 1825 531 
L 1825 4091 
L 703 3866 
L 703 4441 
L 1819 4666 
L 2450 4666 
L 2450 531 
L 3481 531 
L 3481 0 
L 794 0 
L 794 531 
z
" transform="scale(0.015625)"/>
       </defs>
       <use xlink:href="#DejaVuSans-31"/>
       <use xlink:href="#DejaVuSans-30" x="63.623047"/>
       <use xlink:href="#DejaVuSans-30" x="127.246094"/>
      </g>
     </g>
    </g>
    <g id="xtick_7">
     <g id="line2d_9">
      <g>
       <use xlink:href="#m9731a81f29" x="3645.642093" y="1260" style="stroke: #000000; stroke-width: 0.8"/>
      </g>
     </g>
     <g id="text_7">
      <!-- 120 -->
      <g transform="translate(3621.782718 1285.996094)scale(0.25 -0.25)">
       <use xlink:href="#DejaVuSans-31"/>
       <use xlink:href="#DejaVuSans-32" x="63.623047"/>
       <use xlink:href="#DejaVuSans-30" x="127.246094"/>
      </g>
     </g>
    </g>
    <g id="text_8">
     <!-- Predicted Arc-Length at Anchors -->
     <g transform="translate(1931.719531 1321.789844)scale(0.35 -0.35)">
      <defs>
       <path id="DejaVuSans-50" d="M 1259 4147 
L 1259 2394 
L 2053 2394 
Q 2494 2394 2734 2622 
Q 2975 2850 2975 3272 
Q 2975 3691 2734 3919 
Q 2494 4147 2053 4147 
L 1259 4147 
z
M 628 4666 
L 2053 4666 
Q 2838 4666 3239 4311 
Q 3641 3956 3641 3272 
Q 3641 2581 3239 2228 
Q 2838 1875 2053 1875 
L 1259 1875 
L 1259 0 
L 628 0 
L 628 4666 
z
" transform="scale(0.015625)"/>
       <path id="DejaVuSans-72" d="M 2631 2963 
Q 2534 3019 2420 3045 
Q 2306 3072 2169 3072 
Q 1681 3072 1420 2755 
Q 1159 2438 1159 1844 
L 1159 0 
L 581 0 
L 581 3500 
L 1159 3500 
L 1159 2956 
Q 1341 3275 1631 3429 
Q 1922 3584 2338 3584 
Q 2397 3584 2469 3576 
Q 2541 3569 2628 3553 
L 2631 2963 
z
" transform="scale(0.015625)"/>
       <path id="DejaVuSans-65" d="M 3597 1894 
L 3597 1613 
L 953 1613 
Q 991 1019 1311 708 
Q 1631 397 2203 397 
Q 2534 397 2845 478 
Q 3156 559 3463 722 
L 3463 178 
Q 3153 47 2828 -22 
Q 2503 -91 2169 -91 
Q 1331 -91 842 396 
Q 353 884 353 1716 
Q 353 2575 817 3079 
Q 1281 3584 2069 3584 
Q 2775 3584 3186 3129 
Q 3597 2675 3597 1894 
z
M 3022 2063 
Q 3016 2534 2758 2815 
Q 2500 3097 2075 3097 
Q 1594 3097 1305 2825 
Q 1016 2553 972 2059 
L 3022 2063 
z
" transform="scale(0.015625)"/>
       <path id="DejaVuSans-64" d="M 2906 2969 
L 2906 4863 
L 3481 4863 
L 3481 0 
L 2906 0 
L 2906 525 
Q 2725 213 2448 61 
Q 2172 -91 1784 -91 
Q 1150 -91 751 415 
Q 353 922 353 1747 
Q 353 2572 751 3078 
Q 1150 3584 1784 3584 
Q 2172 3584 2448 3432 
Q 2725 3281 2906 2969 
z
M 947 1747 
Q 947 1113 1208 752 
Q 1469 391 1925 391 
Q 2381 391 2643 752 
Q 2906 1113 2906 1747 
Q 2906 2381 2643 2742 
Q 2381 3103 1925 3103 
Q 1469 3103 1208 2742 
Q 947 2381 947 1747 
z
" transform="scale(0.015625)"/>
       <path id="DejaVuSans-69" d="M 603 3500 
L 1178 3500 
L 1178 0 
L 603 0 
L 603 3500 
z
M 603 4863 
L 1178 4863 
L 1178 4134 
L 603 4134 
L 603 4863 
z
" transform="scale(0.015625)"/>
       <path id="DejaVuSans-63" d="M 3122 3366 
L 3122 2828 
Q 2878 2963 2633 3030 
Q 2388 3097 2138 3097 
Q 1578 3097 1268 2742 
Q 959 2388 959 1747 
Q 959 1106 1268 751 
Q 1578 397 2138 397 
Q 2388 397 2633 464 
Q 2878 531 3122 666 
L 3122 134 
Q 2881 22 2623 -34 
Q 2366 -91 2075 -91 
Q 1284 -91 818 406 
Q 353 903 353 1747 
Q 353 2603 823 3093 
Q 1294 3584 2113 3584 
Q 2378 3584 2631 3529 
Q 2884 3475 3122 3366 
z
" transform="scale(0.015625)"/>
       <path id="DejaVuSans-74" d="M 1172 4494 
L 1172 3500 
L 2356 3500 
L 2356 3053 
L 1172 3053 
L 1172 1153 
Q 1172 725 1289 603 
Q 1406 481 1766 481 
L 2356 481 
L 2356 0 
L 1766 0 
Q 1100 0 847 248 
Q 594 497 594 1153 
L 594 3053 
L 172 3053 
L 172 3500 
L 594 3500 
L 594 4494 
L 1172 4494 
z
" transform="scale(0.015625)"/>
       <path id="DejaVuSans-20" transform="scale(0.015625)"/>
       <path id="DejaVuSans-41" d="M 2188 4044 
L 1331 1722 
L 3047 1722 
L 2188 4044 
z
M 1831 4666 
L 2547 4666 
L 4325 0 
L 3669 0 
L 3244 1197 
L 1141 1197 
L 716 0 
L 50 0 
L 1831 4666 
z
" transform="scale(0.015625)"/>
       <path id="DejaVuSans-2d" d="M 313 2009 
L 1997 2009 
L 1997 1497 
L 313 1497 
L 313 2009 
z
" transform="scale(0.015625)"/>
       <path id="DejaVuSans-4c" d="M 628 4666 
L 1259 4666 
L 1259 531 
L 3531 531 
L 3531 0 
L 628 0 
L 628 4666 
z
" transform="scale(0.015625)"/>
       <path id="DejaVuSans-6e" d="M 3513 2113 
L 3513 0 
L 2938 0 
L 2938 2094 
Q 2938 2591 2744 2837 
Q 2550 3084 2163 3084 
Q 1697 3084 1428 2787 
Q 1159 2491 1159 1978 
L 1159 0 
L 581 0 
L 581 3500 
L 1159 3500 
L 1159 2956 
Q 1366 3272 1645 3428 
Q 1925 3584 2291 3584 
Q 2894 3584 3203 3211 
Q 3513 2838 3513 2113 
z
" transform="scale(0.015625)"/>
       <path id="DejaVuSans-67" d="M 2906 1791 
Q 2906 2416 2648 2759 
Q 2391 3103 1925 3103 
Q 1463 3103 1205 2759 
Q 947 2416 947 1791 
Q 947 1169 1205 825 
Q 1463 481 1925 481 
Q 2391 481 2648 825 
Q 2906 1169 2906 1791 
z
M 3481 434 
Q 3481 -459 3084 -895 
Q 2688 -1331 1869 -1331 
Q 1566 -1331 1297 -1286 
Q 1028 -1241 775 -1147 
L 775 -588 
Q 1028 -725 1275 -790 
Q 1522 -856 1778 -856 
Q 2344 -856 2625 -561 
Q 2906 -266 2906 331 
L 2906 616 
Q 2728 306 2450 153 
Q 2172 0 1784 0 
Q 1141 0 747 490 
Q 353 981 353 1791 
Q 353 2603 747 3093 
Q 1141 3584 1784 3584 
Q 2172 3584 2450 3431 
Q 2728 3278 2906 2969 
L 2906 3500 
L 3481 3500 
L 3481 434 
z
" transform="scale(0.015625)"/>
       <path id="DejaVuSans-68" d="M 3513 2113 
L 3513 0 
L 2938 0 
L 2938 2094 
Q 2938 2591 2744 2837 
Q 2550 3084 2163 3084 
Q 1697 3084 1428 2787 
Q 1159 2491 1159 1978 
L 1159 0 
L 581 0 
L 581 4863 
L 1159 4863 
L 1159 2956 
Q 1366 3272 1645 3428 
Q 1925 3584 2291 3584 
Q 2894 3584 3203 3211 
Q 3513 2838 3513 2113 
z
" transform="scale(0.015625)"/>
       <path id="DejaVuSans-61" d="M 2194 1759 
Q 1497 1759 1228 1600 
Q 959 1441 959 1056 
Q 959 750 1161 570 
Q 1363 391 1709 391 
Q 2188 391 2477 730 
Q 2766 1069 2766 1631 
L 2766 1759 
L 2194 1759 
z
M 3341 1997 
L 3341 0 
L 2766 0 
L 2766 531 
Q 2569 213 2275 61 
Q 1981 -91 1556 -91 
Q 1019 -91 701 211 
Q 384 513 384 1019 
Q 384 1609 779 1909 
Q 1175 2209 1959 2209 
L 2766 2209 
L 2766 2266 
Q 2766 2663 2505 2880 
Q 2244 3097 1772 3097 
Q 1472 3097 1187 3025 
Q 903 2953 641 2809 
L 641 3341 
Q 956 3463 1253 3523 
Q 1550 3584 1831 3584 
Q 2591 3584 2966 3190 
Q 3341 2797 3341 1997 
z
" transform="scale(0.015625)"/>
       <path id="DejaVuSans-6f" d="M 1959 3097 
Q 1497 3097 1228 2736 
Q 959 2375 959 1747 
Q 959 1119 1226 758 
Q 1494 397 1959 397 
Q 2419 397 2687 759 
Q 2956 1122 2956 1747 
Q 2956 2369 2687 2733 
Q 2419 3097 1959 3097 
z
M 1959 3584 
Q 2709 3584 3137 3096 
Q 3566 2609 3566 1747 
Q 3566 888 3137 398 
Q 2709 -91 1959 -91 
Q 1206 -91 779 398 
Q 353 888 353 1747 
Q 353 2609 779 3096 
Q 1206 3584 1959 3584 
z
" transform="scale(0.015625)"/>
       <path id="DejaVuSans-73" d="M 2834 3397 
L 2834 2853 
Q 2591 2978 2328 3040 
Q 2066 3103 1784 3103 
Q 1356 3103 1142 2972 
Q 928 2841 928 2578 
Q 928 2378 1081 2264 
Q 1234 2150 1697 2047 
L 1894 2003 
Q 2506 1872 2764 1633 
Q 3022 1394 3022 966 
Q 3022 478 2636 193 
Q 2250 -91 1575 -91 
Q 1294 -91 989 -36 
Q 684 19 347 128 
L 347 722 
Q 666 556 975 473 
Q 1284 391 1588 391 
Q 1994 391 2212 530 
Q 2431 669 2431 922 
Q 2431 1156 2273 1281 
Q 2116 1406 1581 1522 
L 1381 1569 
Q 847 1681 609 1914 
Q 372 2147 372 2553 
Q 372 3047 722 3315 
Q 1072 3584 1716 3584 
Q 2034 3584 2315 3537 
Q 2597 3491 2834 3397 
z
" transform="scale(0.015625)"/>
      </defs>
      <use xlink:href="#DejaVuSans-50"/>
      <use xlink:href="#DejaVuSans-72" x="58.552734"/>
      <use xlink:href="#DejaVuSans-65" x="97.416016"/>
      <use xlink:href="#DejaVuSans-64" x="158.939453"/>
      <use xlink:href="#DejaVuSans-69" x="222.416016"/>
      <use xlink:href="#DejaVuSans-63" x="250.199219"/>
      <use xlink:href="#DejaVuSans-74" x="305.179688"/>
      <use xlink:href="#DejaVuSans-65" x="344.388672"/>
      <use xlink:href="#DejaVuSans-64" x="405.912109"/>
      <use xlink:href="#DejaVuSans-20" x="469.388672"/>
      <use xlink:href="#DejaVuSans-41" x="501.175781"/>
      <use xlink:href="#DejaVuSans-72" x="569.583984"/>
      <use xlink:href="#DejaVuSans-63" x="608.447266"/>
      <use xlink:href="#DejaVuSans-2d" x="663.427734"/>
      <use xlink:href="#DejaVuSans-4c" x="699.511719"/>
      <use xlink:href="#DejaVuSans-65" x="753.474609"/>
      <use xlink:href="#DejaVuSans-6e" x="814.998047"/>
      <use xlink:href="#DejaVuSans-67" x="878.376953"/>
      <use xlink:href="#DejaVuSans-74" x="941.853516"/>
      <use xlink:href="#DejaVuSans-68" x="981.0625"/>
      <use xlink:href="#DejaVuSans-20" x="1044.441406"/>
      <use xlink:href="#DejaVuSans-61" x="1076.228516"/>
      <use xlink:href="#DejaVuSans-74" x="1137.507812"/>
      <use xlink:href="#DejaVuSans-20" x="1176.716797"/>
      <use xlink:href="#DejaVuSans-41" x="1208.503906"/>
      <use xlink:href="#DejaVuSans-6e" x="1276.912109"/>
      <use xlink:href="#DejaVuSans-63" x="1340.291016"/>
      <use xlink:href="#DejaVuSans-68" x="1395.271484"/>
      <use xlink:href="#DejaVuSans-6f" x="1458.650391"/>
      <use xlink:href="#DejaVuSans-72" x="1519.832031"/>
      <use xlink:href="#DejaVuSans-73" x="1560.945312"/>
     </g>
    </g>
   </g>
   <g id="matplotlib.axis_2">
    <g id="ytick_1">
     <g id="line2d_10">
      <defs>
       <path id="m01e4450539" d="M 0 0 
L -3.5 0 
" style="stroke: #000000; stroke-width: 0.8"/>
      </defs>
      <g>
       <use xlink:href="#m01e4450539" x="540" y="1248.53956" style="stroke: #000000; stroke-width: 0.8"/>
      </g>
     </g>
     <g id="text_9">
      <!-- −10 -->
      <g transform="translate(480.238281 1258.037607)scale(0.25 -0.25)">
       <defs>
        <path id="DejaVuSans-2212" d="M 678 2272 
L 4684 2272 
L 4684 1741 
L 678 1741 
L 678 2272 
z
" transform="scale(0.015625)"/>
       </defs>
       <use xlink:href="#DejaVuSans-2212"/>
       <use xlink:href="#DejaVuSans-31" x="83.789062"/>
       <use xlink:href="#DejaVuSans-30" x="147.412109"/>
      </g>
     </g>
    </g>
    <g id="ytick_2">
     <g id="line2d_11">
      <g>
       <use xlink:href="#m01e4450539" x="540" y="1033.754895" style="stroke: #000000; stroke-width: 0.8"/>
      </g>
     </g>
     <g id="text_10">
      <!-- −5 -->
      <g transform="translate(496.144531 1043.252942)scale(0.25 -0.25)">
       <defs>
        <path id="DejaVuSans-35" d="M 691 4666 
L 3169 4666 
L 3169 4134 
L 1269 4134 
L 1269 2991 
Q 1406 3038 1543 3061 
Q 1681 3084 1819 3084 
Q 2600 3084 3056 2656 
Q 3513 2228 3513 1497 
Q 3513 744 3044 326 
Q 2575 -91 1722 -91 
Q 1428 -91 1123 -41 
Q 819 9 494 109 
L 494 744 
Q 775 591 1075 516 
Q 1375 441 1709 441 
Q 2250 441 2565 725 
Q 2881 1009 2881 1497 
Q 2881 1984 2565 2268 
Q 2250 2553 1709 2553 
Q 1456 2553 1204 2497 
Q 953 2441 691 2322 
L 691 4666 
z
" transform="scale(0.015625)"/>
       </defs>
       <use xlink:href="#DejaVuSans-2212"/>
       <use xlink:href="#DejaVuSans-35" x="83.789062"/>
      </g>
     </g>
    </g>
    <g id="ytick_3">
     <g id="line2d_12">
      <g>
       <use xlink:href="#m01e4450539" x="540" y="818.97023" style="stroke: #000000; stroke-width: 0.8"/>
      </g>
     </g>
     <g id="text_11">
      <!-- 0 -->
      <g transform="translate(517.09375 828.468277)scale(0.25 -0.25)">
       <use xlink:href="#DejaVuSans-30"/>
      </g>
     </g>
    </g>
    <g id="ytick_4">
     <g id="line2d_13">
      <g>
       <use xlink:href="#m01e4450539" x="540" y="604.185564" style="stroke: #000000; stroke-width: 0.8"/>
      </g>
     </g>
     <g id="text_12">
      <!-- 5 -->
      <g transform="translate(517.09375 613.683611)scale(0.25 -0.25)">
       <use xlink:href="#DejaVuSans-35"/>
      </g>
     </g>
    </g>
    <g id="ytick_5">
     <g id="line2d_14">
      <g>
       <use xlink:href="#m01e4450539" x="540" y="389.400899" style="stroke: #000000; stroke-width: 0.8"/>
      </g>
     </g>
     <g id="text_13">
      <!-- 10 -->
      <g transform="translate(501.1875 398.898946)scale(0.25 -0.25)">
       <use xlink:href="#DejaVuSans-31"/>
       <use xlink:href="#DejaVuSans-30" x="63.623047"/>
      </g>
     </g>
    </g>
    <g id="ytick_6">
     <g id="line2d_15">
      <g>
       <use xlink:href="#m01e4450539" x="540" y="174.616234" style="stroke: #000000; stroke-width: 0.8"/>
      </g>
     </g>
     <g id="text_14">
      <!-- 15 -->
      <g transform="translate(501.1875 184.114281)scale(0.25 -0.25)">
       <use xlink:href="#DejaVuSans-31"/>
       <use xlink:href="#DejaVuSans-35" x="63.623047"/>
      </g>
     </g>
    </g>
    <g id="text_15">
     <!-- Predicted Curvature at Anchors -->
     <g transform="translate(468.959375 990.715234)rotate(-90)scale(0.35 -0.35)">
      <defs>
       <path id="DejaVuSans-43" d="M 4122 4306 
L 4122 3641 
Q 3803 3938 3442 4084 
Q 3081 4231 2675 4231 
Q 1875 4231 1450 3742 
Q 1025 3253 1025 2328 
Q 1025 1406 1450 917 
Q 1875 428 2675 428 
Q 3081 428 3442 575 
Q 3803 722 4122 1019 
L 4122 359 
Q 3791 134 3420 21 
Q 3050 -91 2638 -91 
Q 1578 -91 968 557 
Q 359 1206 359 2328 
Q 359 3453 968 4101 
Q 1578 4750 2638 4750 
Q 3056 4750 3426 4639 
Q 3797 4528 4122 4306 
z
" transform="scale(0.015625)"/>
       <path id="DejaVuSans-75" d="M 544 1381 
L 544 3500 
L 1119 3500 
L 1119 1403 
Q 1119 906 1312 657 
Q 1506 409 1894 409 
Q 2359 409 2629 706 
Q 2900 1003 2900 1516 
L 2900 3500 
L 3475 3500 
L 3475 0 
L 2900 0 
L 2900 538 
Q 2691 219 2414 64 
Q 2138 -91 1772 -91 
Q 1169 -91 856 284 
Q 544 659 544 1381 
z
M 1991 3584 
L 1991 3584 
z
" transform="scale(0.015625)"/>
       <path id="DejaVuSans-76" d="M 191 3500 
L 800 3500 
L 1894 563 
L 2988 3500 
L 3597 3500 
L 2284 0 
L 1503 0 
L 191 3500 
z
" transform="scale(0.015625)"/>
      </defs>
      <use xlink:href="#DejaVuSans-50"/>
      <use xlink:href="#DejaVuSans-72" x="58.552734"/>
      <use xlink:href="#DejaVuSans-65" x="97.416016"/>
      <use xlink:href="#DejaVuSans-64" x="158.939453"/>
      <use xlink:href="#DejaVuSans-69" x="222.416016"/>
      <use xlink:href="#DejaVuSans-63" x="250.199219"/>
      <use xlink:href="#DejaVuSans-74" x="305.179688"/>
      <use xlink:href="#DejaVuSans-65" x="344.388672"/>
      <use xlink:href="#DejaVuSans-64" x="405.912109"/>
      <use xlink:href="#DejaVuSans-20" x="469.388672"/>
      <use xlink:href="#DejaVuSans-43" x="501.175781"/>
      <use xlink:href="#DejaVuSans-75" x="571"/>
      <use xlink:href="#DejaVuSans-72" x="634.378906"/>
      <use xlink:href="#DejaVuSans-76" x="675.492188"/>
      <use xlink:href="#DejaVuSans-61" x="734.671875"/>
      <use xlink:href="#DejaVuSans-74" x="795.951172"/>
      <use xlink:href="#DejaVuSans-75" x="835.160156"/>
      <use xlink:href="#DejaVuSans-72" x="898.539062"/>
      <use xlink:href="#DejaVuSans-65" x="937.402344"/>
      <use xlink:href="#DejaVuSans-20" x="998.925781"/>
      <use xlink:href="#DejaVuSans-61" x="1030.712891"/>
      <use xlink:href="#DejaVuSans-74" x="1091.992188"/>
      <use xlink:href="#DejaVuSans-20" x="1131.201172"/>
      <use xlink:href="#DejaVuSans-41" x="1162.988281"/>
      <use xlink:href="#DejaVuSans-6e" x="1231.396484"/>
      <use xlink:href="#DejaVuSans-63" x="1294.775391"/>
      <use xlink:href="#DejaVuSans-68" x="1349.755859"/>
      <use xlink:href="#DejaVuSans-6f" x="1413.134766"/>
      <use xlink:href="#DejaVuSans-72" x="1474.316406"/>
      <use xlink:href="#DejaVuSans-73" x="1515.429688"/>
     </g>
    </g>
   </g>
   <g id="patch_3">
    <path d="M 540 1260 
L 540 172.8 
" style="fill: none; stroke: #000000; stroke-width: 0.8; stroke-linejoin: miter; stroke-linecap: square"/>
   </g>
   <g id="patch_4">
    <path d="M 3888 1260 
L 3888 172.8 
" style="fill: none; stroke: #000000; stroke-width: 0.8; stroke-linejoin: miter; stroke-linecap: square"/>
   </g>
   <g id="patch_5">
    <path d="M 540 1260 
L 3888 1260 
" style="fill: none; stroke: #000000; stroke-width: 0.8; stroke-linejoin: miter; stroke-linecap: square"/>
   </g>
   <g id="patch_6">
    <path d="M 540 172.8 
L 3888 172.8 
" style="fill: none; stroke: #000000; stroke-width: 0.8; stroke-linejoin: miter; stroke-linecap: square"/>
   </g>
   <g id="text_16">
    <!-- Predicted Signature Curve at Anchors (Transformed Curve #1 vs. Transformed Curve #2) -->
    <g transform="translate(1434.875391 165.521094)scale(0.35 -0.35)">
     <defs>
      <path id="DejaVuSans-53" d="M 3425 4513 
L 3425 3897 
Q 3066 4069 2747 4153 
Q 2428 4238 2131 4238 
Q 1616 4238 1336 4038 
Q 1056 3838 1056 3469 
Q 1056 3159 1242 3001 
Q 1428 2844 1947 2747 
L 2328 2669 
Q 3034 2534 3370 2195 
Q 3706 1856 3706 1288 
Q 3706 609 3251 259 
Q 2797 -91 1919 -91 
Q 1588 -91 1214 -16 
Q 841 59 441 206 
L 441 856 
Q 825 641 1194 531 
Q 1563 422 1919 422 
Q 2459 422 2753 634 
Q 3047 847 3047 1241 
Q 3047 1584 2836 1778 
Q 2625 1972 2144 2069 
L 1759 2144 
Q 1053 2284 737 2584 
Q 422 2884 422 3419 
Q 422 4038 858 4394 
Q 1294 4750 2059 4750 
Q 2388 4750 2728 4690 
Q 3069 4631 3425 4513 
z
" transform="scale(0.015625)"/>
      <path id="DejaVuSans-28" d="M 1984 4856 
Q 1566 4138 1362 3434 
Q 1159 2731 1159 2009 
Q 1159 1288 1364 580 
Q 1569 -128 1984 -844 
L 1484 -844 
Q 1016 -109 783 600 
Q 550 1309 550 2009 
Q 550 2706 781 3412 
Q 1013 4119 1484 4856 
L 1984 4856 
z
" transform="scale(0.015625)"/>
      <path id="DejaVuSans-54" d="M -19 4666 
L 3928 4666 
L 3928 4134 
L 2272 4134 
L 2272 0 
L 1638 0 
L 1638 4134 
L -19 4134 
L -19 4666 
z
" transform="scale(0.015625)"/>
      <path id="DejaVuSans-66" d="M 2375 4863 
L 2375 4384 
L 1825 4384 
Q 1516 4384 1395 4259 
Q 1275 4134 1275 3809 
L 1275 3500 
L 2222 3500 
L 2222 3053 
L 1275 3053 
L 1275 0 
L 697 0 
L 697 3053 
L 147 3053 
L 147 3500 
L 697 3500 
L 697 3744 
Q 697 4328 969 4595 
Q 1241 4863 1831 4863 
L 2375 4863 
z
" transform="scale(0.015625)"/>
      <path id="DejaVuSans-6d" d="M 3328 2828 
Q 3544 3216 3844 3400 
Q 4144 3584 4550 3584 
Q 5097 3584 5394 3201 
Q 5691 2819 5691 2113 
L 5691 0 
L 5113 0 
L 5113 2094 
Q 5113 2597 4934 2840 
Q 4756 3084 4391 3084 
Q 3944 3084 3684 2787 
Q 3425 2491 3425 1978 
L 3425 0 
L 2847 0 
L 2847 2094 
Q 2847 2600 2669 2842 
Q 2491 3084 2119 3084 
Q 1678 3084 1418 2786 
Q 1159 2488 1159 1978 
L 1159 0 
L 581 0 
L 581 3500 
L 1159 3500 
L 1159 2956 
Q 1356 3278 1631 3431 
Q 1906 3584 2284 3584 
Q 2666 3584 2933 3390 
Q 3200 3197 3328 2828 
z
" transform="scale(0.015625)"/>
      <path id="DejaVuSans-23" d="M 3272 2816 
L 2363 2816 
L 2100 1772 
L 3016 1772 
L 3272 2816 
z
M 2803 4594 
L 2478 3297 
L 3391 3297 
L 3719 4594 
L 4219 4594 
L 3897 3297 
L 4872 3297 
L 4872 2816 
L 3775 2816 
L 3519 1772 
L 4513 1772 
L 4513 1294 
L 3397 1294 
L 3072 0 
L 2572 0 
L 2894 1294 
L 1978 1294 
L 1656 0 
L 1153 0 
L 1478 1294 
L 494 1294 
L 494 1772 
L 1594 1772 
L 1856 2816 
L 850 2816 
L 850 3297 
L 1978 3297 
L 2297 4594 
L 2803 4594 
z
" transform="scale(0.015625)"/>
      <path id="DejaVuSans-2e" d="M 684 794 
L 1344 794 
L 1344 0 
L 684 0 
L 684 794 
z
" transform="scale(0.015625)"/>
      <path id="DejaVuSans-29" d="M 513 4856 
L 1013 4856 
Q 1481 4119 1714 3412 
Q 1947 2706 1947 2009 
Q 1947 1309 1714 600 
Q 1481 -109 1013 -844 
L 513 -844 
Q 928 -128 1133 580 
Q 1338 1288 1338 2009 
Q 1338 2731 1133 3434 
Q 928 4138 513 4856 
z
" transform="scale(0.015625)"/>
     </defs>
     <use xlink:href="#DejaVuSans-50"/>
     <use xlink:href="#DejaVuSans-72" x="58.552734"/>
     <use xlink:href="#DejaVuSans-65" x="97.416016"/>
     <use xlink:href="#DejaVuSans-64" x="158.939453"/>
     <use xlink:href="#DejaVuSans-69" x="222.416016"/>
     <use xlink:href="#DejaVuSans-63" x="250.199219"/>
     <use xlink:href="#DejaVuSans-74" x="305.179688"/>
     <use xlink:href="#DejaVuSans-65" x="344.388672"/>
     <use xlink:href="#DejaVuSans-64" x="405.912109"/>
     <use xlink:href="#DejaVuSans-20" x="469.388672"/>
     <use xlink:href="#DejaVuSans-53" x="501.175781"/>
     <use xlink:href="#DejaVuSans-69" x="564.652344"/>
     <use xlink:href="#DejaVuSans-67" x="592.435547"/>
     <use xlink:href="#DejaVuSans-6e" x="655.912109"/>
     <use xlink:href="#DejaVuSans-61" x="719.291016"/>
     <use xlink:href="#DejaVuSans-74" x="780.570312"/>
     <use xlink:href="#DejaVuSans-75" x="819.779297"/>
     <use xlink:href="#DejaVuSans-72" x="883.158203"/>
     <use xlink:href="#DejaVuSans-65" x="922.021484"/>
     <use xlink:href="#DejaVuSans-20" x="983.544922"/>
     <use xlink:href="#DejaVuSans-43" x="1015.332031"/>
     <use xlink:href="#DejaVuSans-75" x="1085.15625"/>
     <use xlink:href="#DejaVuSans-72" x="1148.535156"/>
     <use xlink:href="#DejaVuSans-76" x="1189.648438"/>
     <use xlink:href="#DejaVuSans-65" x="1248.828125"/>
     <use xlink:href="#DejaVuSans-20" x="1310.351562"/>
     <use xlink:href="#DejaVuSans-61" x="1342.138672"/>
     <use xlink:href="#DejaVuSans-74" x="1403.417969"/>
     <use xlink:href="#DejaVuSans-20" x="1442.626953"/>
     <use xlink:href="#DejaVuSans-41" x="1474.414062"/>
     <use xlink:href="#DejaVuSans-6e" x="1542.822266"/>
     <use xlink:href="#DejaVuSans-63" x="1606.201172"/>
     <use xlink:href="#DejaVuSans-68" x="1661.181641"/>
     <use xlink:href="#DejaVuSans-6f" x="1724.560547"/>
     <use xlink:href="#DejaVuSans-72" x="1785.742188"/>
     <use xlink:href="#DejaVuSans-73" x="1826.855469"/>
     <use xlink:href="#DejaVuSans-20" x="1878.955078"/>
     <use xlink:href="#DejaVuSans-28" x="1910.742188"/>
     <use xlink:href="#DejaVuSans-54" x="1949.755859"/>
     <use xlink:href="#DejaVuSans-72" x="1996.089844"/>
     <use xlink:href="#DejaVuSans-61" x="2037.203125"/>
     <use xlink:href="#DejaVuSans-6e" x="2098.482422"/>
     <use xlink:href="#DejaVuSans-73" x="2161.861328"/>
     <use xlink:href="#DejaVuSans-66" x="2213.960938"/>
     <use xlink:href="#DejaVuSans-6f" x="2249.166016"/>
     <use xlink:href="#DejaVuSans-72" x="2310.347656"/>
     <use xlink:href="#DejaVuSans-6d" x="2349.710938"/>
     <use xlink:href="#DejaVuSans-65" x="2447.123047"/>
     <use xlink:href="#DejaVuSans-64" x="2508.646484"/>
     <use xlink:href="#DejaVuSans-20" x="2572.123047"/>
     <use xlink:href="#DejaVuSans-43" x="2603.910156"/>
     <use xlink:href="#DejaVuSans-75" x="2673.734375"/>
     <use xlink:href="#DejaVuSans-72" x="2737.113281"/>
     <use xlink:href="#DejaVuSans-76" x="2778.226562"/>
     <use xlink:href="#DejaVuSans-65" x="2837.40625"/>
     <use xlink:href="#DejaVuSans-20" x="2898.929688"/>
     <use xlink:href="#DejaVuSans-23" x="2930.716797"/>
     <use xlink:href="#DejaVuSans-31" x="3014.505859"/>
     <use xlink:href="#DejaVuSans-20" x="3078.128906"/>
     <use xlink:href="#DejaVuSans-76" x="3109.916016"/>
     <use xlink:href="#DejaVuSans-73" x="3169.095703"/>
     <use xlink:href="#DejaVuSans-2e" x="3221.195312"/>
     <use xlink:href="#DejaVuSans-20" x="3252.982422"/>
     <use xlink:href="#DejaVuSans-54" x="3284.769531"/>
     <use xlink:href="#DejaVuSans-72" x="3331.103516"/>
     <use xlink:href="#DejaVuSans-61" x="3372.216797"/>
     <use xlink:href="#DejaVuSans-6e" x="3433.496094"/>
     <use xlink:href="#DejaVuSans-73" x="3496.875"/>
     <use xlink:href="#DejaVuSans-66" x="3548.974609"/>
     <use xlink:href="#DejaVuSans-6f" x="3584.179688"/>
     <use xlink:href="#DejaVuSans-72" x="3645.361328"/>
     <use xlink:href="#DejaVuSans-6d" x="3684.724609"/>
     <use xlink:href="#DejaVuSans-65" x="3782.136719"/>
     <use xlink:href="#DejaVuSans-64" x="3843.660156"/>
     <use xlink:href="#DejaVuSans-20" x="3907.136719"/>
     <use xlink:href="#DejaVuSans-43" x="3938.923828"/>
     <use xlink:href="#DejaVuSans-75" x="4008.748047"/>
     <use xlink:href="#DejaVuSans-72" x="4072.126953"/>
     <use xlink:href="#DejaVuSans-76" x="4113.240234"/>
     <use xlink:href="#DejaVuSans-65" x="4172.419922"/>
     <use xlink:href="#DejaVuSans-20" x="4233.943359"/>
     <use xlink:href="#DejaVuSans-23" x="4265.730469"/>
     <use xlink:href="#DejaVuSans-32" x="4349.519531"/>
     <use xlink:href="#DejaVuSans-29" x="4413.142578"/>
    </g>
   </g>
   <g id="legend_1">
    <g id="patch_7">
     <path d="M 557.5 266.190625 
L 1274.640625 266.190625 
Q 1279.640625 266.190625 1279.640625 261.190625 
L 1279.640625 190.3 
Q 1279.640625 185.3 1274.640625 185.3 
L 557.5 185.3 
Q 552.5 185.3 552.5 190.3 
L 552.5 261.190625 
Q 552.5 266.190625 557.5 266.190625 
z
" style="fill: #ffffff; opacity: 0.8; stroke: #cccccc; stroke-linejoin: miter"/>
    </g>
    <g id="line2d_16">
     <path d="M 562.5 205.546094 
L 587.5 205.546094 
L 612.5 205.546094 
" style="fill: none; stroke: #aa0000; stroke-width: 4; stroke-linecap: square"/>
    </g>
    <g id="text_17">
     <!-- Predicted Signature Curve (Transformed Curve #1) -->
     <g transform="translate(632.5 214.296094)scale(0.25 -0.25)">
      <use xlink:href="#DejaVuSans-50"/>
      <use xlink:href="#DejaVuSans-72" x="58.552734"/>
      <use xlink:href="#DejaVuSans-65" x="97.416016"/>
      <use xlink:href="#DejaVuSans-64" x="158.939453"/>
      <use xlink:href="#DejaVuSans-69" x="222.416016"/>
      <use xlink:href="#DejaVuSans-63" x="250.199219"/>
      <use xlink:href="#DejaVuSans-74" x="305.179688"/>
      <use xlink:href="#DejaVuSans-65" x="344.388672"/>
      <use xlink:href="#DejaVuSans-64" x="405.912109"/>
      <use xlink:href="#DejaVuSans-20" x="469.388672"/>
      <use xlink:href="#DejaVuSans-53" x="501.175781"/>
      <use xlink:href="#DejaVuSans-69" x="564.652344"/>
      <use xlink:href="#DejaVuSans-67" x="592.435547"/>
      <use xlink:href="#DejaVuSans-6e" x="655.912109"/>
      <use xlink:href="#DejaVuSans-61" x="719.291016"/>
      <use xlink:href="#DejaVuSans-74" x="780.570312"/>
      <use xlink:href="#DejaVuSans-75" x="819.779297"/>
      <use xlink:href="#DejaVuSans-72" x="883.158203"/>
      <use xlink:href="#DejaVuSans-65" x="922.021484"/>
      <use xlink:href="#DejaVuSans-20" x="983.544922"/>
      <use xlink:href="#DejaVuSans-43" x="1015.332031"/>
      <use xlink:href="#DejaVuSans-75" x="1085.15625"/>
      <use xlink:href="#DejaVuSans-72" x="1148.535156"/>
      <use xlink:href="#DejaVuSans-76" x="1189.648438"/>
      <use xlink:href="#DejaVuSans-65" x="1248.828125"/>
      <use xlink:href="#DejaVuSans-20" x="1310.351562"/>
      <use xlink:href="#DejaVuSans-28" x="1342.138672"/>
      <use xlink:href="#DejaVuSans-54" x="1381.152344"/>
      <use xlink:href="#DejaVuSans-72" x="1427.486328"/>
      <use xlink:href="#DejaVuSans-61" x="1468.599609"/>
      <use xlink:href="#DejaVuSans-6e" x="1529.878906"/>
      <use xlink:href="#DejaVuSans-73" x="1593.257812"/>
      <use xlink:href="#DejaVuSans-66" x="1645.357422"/>
      <use xlink:href="#DejaVuSans-6f" x="1680.5625"/>
      <use xlink:href="#DejaVuSans-72" x="1741.744141"/>
      <use xlink:href="#DejaVuSans-6d" x="1781.107422"/>
      <use xlink:href="#DejaVuSans-65" x="1878.519531"/>
      <use xlink:href="#DejaVuSans-64" x="1940.042969"/>
      <use xlink:href="#DejaVuSans-20" x="2003.519531"/>
      <use xlink:href="#DejaVuSans-43" x="2035.306641"/>
      <use xlink:href="#DejaVuSans-75" x="2105.130859"/>
      <use xlink:href="#DejaVuSans-72" x="2168.509766"/>
      <use xlink:href="#DejaVuSans-76" x="2209.623047"/>
      <use xlink:href="#DejaVuSans-65" x="2268.802734"/>
      <use xlink:href="#DejaVuSans-20" x="2330.326172"/>
      <use xlink:href="#DejaVuSans-23" x="2362.113281"/>
      <use xlink:href="#DejaVuSans-31" x="2445.902344"/>
      <use xlink:href="#DejaVuSans-29" x="2509.525391"/>
     </g>
    </g>
    <g id="line2d_17">
     <path d="M 562.5 242.241406 
L 587.5 242.241406 
L 612.5 242.241406 
" style="fill: none; stroke: #00aa00; stroke-width: 4; stroke-linecap: square"/>
    </g>
    <g id="text_18">
     <!-- Predicted Signature Curve (Transformed Curve #2) -->
     <g transform="translate(632.5 250.991406)scale(0.25 -0.25)">
      <use xlink:href="#DejaVuSans-50"/>
      <use xlink:href="#DejaVuSans-72" x="58.552734"/>
      <use xlink:href="#DejaVuSans-65" x="97.416016"/>
      <use xlink:href="#DejaVuSans-64" x="158.939453"/>
      <use xlink:href="#DejaVuSans-69" x="222.416016"/>
      <use xlink:href="#DejaVuSans-63" x="250.199219"/>
      <use xlink:href="#DejaVuSans-74" x="305.179688"/>
      <use xlink:href="#DejaVuSans-65" x="344.388672"/>
      <use xlink:href="#DejaVuSans-64" x="405.912109"/>
      <use xlink:href="#DejaVuSans-20" x="469.388672"/>
      <use xlink:href="#DejaVuSans-53" x="501.175781"/>
      <use xlink:href="#DejaVuSans-69" x="564.652344"/>
      <use xlink:href="#DejaVuSans-67" x="592.435547"/>
      <use xlink:href="#DejaVuSans-6e" x="655.912109"/>
      <use xlink:href="#DejaVuSans-61" x="719.291016"/>
      <use xlink:href="#DejaVuSans-74" x="780.570312"/>
      <use xlink:href="#DejaVuSans-75" x="819.779297"/>
      <use xlink:href="#DejaVuSans-72" x="883.158203"/>
      <use xlink:href="#DejaVuSans-65" x="922.021484"/>
      <use xlink:href="#DejaVuSans-20" x="983.544922"/>
      <use xlink:href="#DejaVuSans-43" x="1015.332031"/>
      <use xlink:href="#DejaVuSans-75" x="1085.15625"/>
      <use xlink:href="#DejaVuSans-72" x="1148.535156"/>
      <use xlink:href="#DejaVuSans-76" x="1189.648438"/>
      <use xlink:href="#DejaVuSans-65" x="1248.828125"/>
      <use xlink:href="#DejaVuSans-20" x="1310.351562"/>
      <use xlink:href="#DejaVuSans-28" x="1342.138672"/>
      <use xlink:href="#DejaVuSans-54" x="1381.152344"/>
      <use xlink:href="#DejaVuSans-72" x="1427.486328"/>
      <use xlink:href="#DejaVuSans-61" x="1468.599609"/>
      <use xlink:href="#DejaVuSans-6e" x="1529.878906"/>
      <use xlink:href="#DejaVuSans-73" x="1593.257812"/>
      <use xlink:href="#DejaVuSans-66" x="1645.357422"/>
      <use xlink:href="#DejaVuSans-6f" x="1680.5625"/>
      <use xlink:href="#DejaVuSans-72" x="1741.744141"/>
      <use xlink:href="#DejaVuSans-6d" x="1781.107422"/>
      <use xlink:href="#DejaVuSans-65" x="1878.519531"/>
      <use xlink:href="#DejaVuSans-64" x="1940.042969"/>
      <use xlink:href="#DejaVuSans-20" x="2003.519531"/>
      <use xlink:href="#DejaVuSans-43" x="2035.306641"/>
      <use xlink:href="#DejaVuSans-75" x="2105.130859"/>
      <use xlink:href="#DejaVuSans-72" x="2168.509766"/>
      <use xlink:href="#DejaVuSans-76" x="2209.623047"/>
      <use xlink:href="#DejaVuSans-65" x="2268.802734"/>
      <use xlink:href="#DejaVuSans-20" x="2330.326172"/>
      <use xlink:href="#DejaVuSans-23" x="2362.113281"/>
      <use xlink:href="#DejaVuSans-32" x="2445.902344"/>
      <use xlink:href="#DejaVuSans-29" x="2509.525391"/>
     </g>
    </g>
   </g>
   <g id="PathCollection_1">
    <defs>
     <path id="mc9ffab6158" d="M 0 0.707107 
C 0.187527 0.707107 0.367398 0.632602 0.5 0.5 
C 0.632602 0.367398 0.707107 0.187527 0.707107 0 
C 0.707107 -0.187527 0.632602 -0.367398 0.5 -0.5 
C 0.367398 -0.632602 0.187527 -0.707107 0 -0.707107 
C -0.187527 -0.707107 -0.367398 -0.632602 -0.5 -0.5 
C -0.632602 -0.367398 -0.707107 -0.187527 -0.707107 0 
C -0.707107 0.187527 -0.632602 0.367398 -0.5 0.5 
C -0.367398 0.632602 -0.187527 0.707107 0 0.707107 
z
" style="stroke: #aa0000"/>
    </defs>
    <g clip-path="url(#p7a87ef1651)">
     <use xlink:href="#mc9ffab6158" x="692.181818" y="345.382289" style="fill: #aa0000; stroke: #aa0000"/>
     <use xlink:href="#mc9ffab6158" x="711.893511" y="354.517351" style="fill: #aa0000; stroke: #aa0000"/>
     <use xlink:href="#mc9ffab6158" x="730.475583" y="364.514042" style="fill: #aa0000; stroke: #aa0000"/>
     <use xlink:href="#mc9ffab6158" x="747.583809" y="372.19901" style="fill: #aa0000; stroke: #aa0000"/>
     <use xlink:href="#mc9ffab6158" x="764.342373" y="377.901837" style="fill: #aa0000; stroke: #aa0000"/>
     <use xlink:href="#mc9ffab6158" x="780.925797" y="382.147966" style="fill: #aa0000; stroke: #aa0000"/>
     <use xlink:href="#mc9ffab6158" x="794.78497" y="385.494413" style="fill: #aa0000; stroke: #aa0000"/>
     <use xlink:href="#mc9ffab6158" x="808.931091" y="388.427304" style="fill: #aa0000; stroke: #aa0000"/>
     <use xlink:href="#mc9ffab6158" x="823.504789" y="391.312873" style="fill: #aa0000; stroke: #aa0000"/>
     <use xlink:href="#mc9ffab6158" x="838.362003" y="394.399251" style="fill: #aa0000; stroke: #aa0000"/>
     <use xlink:href="#mc9ffab6158" x="853.244439" y="397.841181" style="fill: #aa0000; stroke: #aa0000"/>
     <use xlink:href="#mc9ffab6158" x="868.189602" y="401.72403" style="fill: #aa0000; stroke: #aa0000"/>
     <use xlink:href="#mc9ffab6158" x="883.179624" y="406.079429" style="fill: #aa0000; stroke: #aa0000"/>
     <use xlink:href="#mc9ffab6158" x="898.13766" y="410.894793" style="fill: #aa0000; stroke: #aa0000"/>
     <use xlink:href="#mc9ffab6158" x="913.156918" y="416.120205" style="fill: #aa0000; stroke: #aa0000"/>
     <use xlink:href="#mc9ffab6158" x="928.220663" y="421.675098" style="fill: #aa0000; stroke: #aa0000"/>
     <use xlink:href="#mc9ffab6158" x="943.319211" y="427.455629" style="fill: #aa0000; stroke: #aa0000"/>
     <use xlink:href="#mc9ffab6158" x="958.414147" y="433.348593" style="fill: #aa0000; stroke: #aa0000"/>
     <use xlink:href="#mc9ffab6158" x="973.465236" y="439.241595" style="fill: #aa0000; stroke: #aa0000"/>
     <use xlink:href="#mc9ffab6158" x="988.447459" y="445.037356" style="fill: #aa0000; stroke: #aa0000"/>
     <use xlink:href="#mc9ffab6158" x="1003.367796" y="450.662232" style="fill: #aa0000; stroke: #aa0000"/>
     <use xlink:href="#mc9ffab6158" x="1018.218816" y="456.071125" style="fill: #aa0000; stroke: #aa0000"/>
     <use xlink:href="#mc9ffab6158" x="1032.997953" y="461.2563" style="fill: #aa0000; stroke: #aa0000"/>
     <use xlink:href="#mc9ffab6158" x="1047.779911" y="466.278234" style="fill: #aa0000; stroke: #aa0000"/>
     <use xlink:href="#mc9ffab6158" x="1062.565073" y="471.322143" style="fill: #aa0000; stroke: #aa0000"/>
     <use xlink:href="#mc9ffab6158" x="1077.351254" y="476.714211" style="fill: #aa0000; stroke: #aa0000"/>
     <use xlink:href="#mc9ffab6158" x="1092.140923" y="482.755782" style="fill: #aa0000; stroke: #aa0000"/>
     <use xlink:href="#mc9ffab6158" x="1106.927359" y="489.285499" style="fill: #aa0000; stroke: #aa0000"/>
     <use xlink:href="#mc9ffab6158" x="1121.717231" y="494.913351" style="fill: #aa0000; stroke: #aa0000"/>
     <use xlink:href="#mc9ffab6158" x="1136.515009" y="495.914193" style="fill: #aa0000; stroke: #aa0000"/>
     <use xlink:href="#mc9ffab6158" x="1151.323489" y="489.175489" style="fill: #aa0000; stroke: #aa0000"/>
     <use xlink:href="#mc9ffab6158" x="1166.145441" y="495.871737" style="fill: #aa0000; stroke: #aa0000"/>
     <use xlink:href="#mc9ffab6158" x="1180.985819" y="601.382009" style="fill: #aa0000; stroke: #aa0000"/>
     <use xlink:href="#mc9ffab6158" x="1195.847759" y="944.248786" style="fill: #aa0000; stroke: #aa0000"/>
     <use xlink:href="#mc9ffab6158" x="1210.726189" y="1172.160004" style="fill: #aa0000; stroke: #aa0000"/>
     <use xlink:href="#mc9ffab6158" x="1225.616597" y="1176.06476" style="fill: #aa0000; stroke: #aa0000"/>
     <use xlink:href="#mc9ffab6158" x="1240.520988" y="1161.854199" style="fill: #aa0000; stroke: #aa0000"/>
     <use xlink:href="#mc9ffab6158" x="1255.43798" y="1140.634192" style="fill: #aa0000; stroke: #aa0000"/>
     <use xlink:href="#mc9ffab6158" x="1270.365826" y="1119.185948" style="fill: #aa0000; stroke: #aa0000"/>
     <use xlink:href="#mc9ffab6158" x="1285.298836" y="1100.892144" style="fill: #aa0000; stroke: #aa0000"/>
     <use xlink:href="#mc9ffab6158" x="1300.238237" y="1085.410388" style="fill: #aa0000; stroke: #aa0000"/>
     <use xlink:href="#mc9ffab6158" x="1315.184356" y="1071.539882" style="fill: #aa0000; stroke: #aa0000"/>
     <use xlink:href="#mc9ffab6158" x="1330.125503" y="1058.359124" style="fill: #aa0000; stroke: #aa0000"/>
     <use xlink:href="#mc9ffab6158" x="1345.059154" y="1045.033737" style="fill: #aa0000; stroke: #aa0000"/>
     <use xlink:href="#mc9ffab6158" x="1359.985315" y="1029.657595" style="fill: #aa0000; stroke: #aa0000"/>
     <use xlink:href="#mc9ffab6158" x="1374.904251" y="1007.917179" style="fill: #aa0000; stroke: #aa0000"/>
     <use xlink:href="#mc9ffab6158" x="1389.816389" y="977.477087" style="fill: #aa0000; stroke: #aa0000"/>
     <use xlink:href="#mc9ffab6158" x="1404.722243" y="940.099104" style="fill: #aa0000; stroke: #aa0000"/>
     <use xlink:href="#mc9ffab6158" x="1419.622351" y="823.237063" style="fill: #aa0000; stroke: #aa0000"/>
     <use xlink:href="#mc9ffab6158" x="1434.517241" y="590.207286" style="fill: #aa0000; stroke: #aa0000"/>
     <use xlink:href="#mc9ffab6158" x="1449.407429" y="413.976075" style="fill: #aa0000; stroke: #aa0000"/>
     <use xlink:href="#mc9ffab6158" x="1464.293427" y="337.902919" style="fill: #aa0000; stroke: #aa0000"/>
     <use xlink:href="#mc9ffab6158" x="1479.175769" y="315.473306" style="fill: #aa0000; stroke: #aa0000"/>
     <use xlink:href="#mc9ffab6158" x="1494.055045" y="315.836719" style="fill: #aa0000; stroke: #aa0000"/>
     <use xlink:href="#mc9ffab6158" x="1508.931913" y="324.745424" style="fill: #aa0000; stroke: #aa0000"/>
     <use xlink:href="#mc9ffab6158" x="1523.807116" y="335.73168" style="fill: #aa0000; stroke: #aa0000"/>
     <use xlink:href="#mc9ffab6158" x="1538.681461" y="345.969043" style="fill: #aa0000; stroke: #aa0000"/>
     <use xlink:href="#mc9ffab6158" x="1553.555797" y="354.401994" style="fill: #aa0000; stroke: #aa0000"/>
     <use xlink:href="#mc9ffab6158" x="1568.42891" y="360.862367" style="fill: #aa0000; stroke: #aa0000"/>
     <use xlink:href="#mc9ffab6158" x="1583.298124" y="365.666688" style="fill: #aa0000; stroke: #aa0000"/>
     <use xlink:href="#mc9ffab6158" x="1598.164192" y="369.432172" style="fill: #aa0000; stroke: #aa0000"/>
     <use xlink:href="#mc9ffab6158" x="1613.02503" y="372.943598" style="fill: #aa0000; stroke: #aa0000"/>
     <use xlink:href="#mc9ffab6158" x="1627.888538" y="376.961478" style="fill: #aa0000; stroke: #aa0000"/>
     <use xlink:href="#mc9ffab6158" x="1642.755225" y="381.942153" style="fill: #aa0000; stroke: #aa0000"/>
     <use xlink:href="#mc9ffab6158" x="1657.624989" y="387.739703" style="fill: #aa0000; stroke: #aa0000"/>
     <use xlink:href="#mc9ffab6158" x="1672.494142" y="393.435622" style="fill: #aa0000; stroke: #aa0000"/>
     <use xlink:href="#mc9ffab6158" x="1687.362263" y="397.460456" style="fill: #aa0000; stroke: #aa0000"/>
     <use xlink:href="#mc9ffab6158" x="1702.228936" y="398.086101" style="fill: #aa0000; stroke: #aa0000"/>
     <use xlink:href="#mc9ffab6158" x="1717.093504" y="394.154115" style="fill: #aa0000; stroke: #aa0000"/>
     <use xlink:href="#mc9ffab6158" x="1731.955074" y="385.683264" style="fill: #aa0000; stroke: #aa0000"/>
     <use xlink:href="#mc9ffab6158" x="1746.812554" y="373.986404" style="fill: #aa0000; stroke: #aa0000"/>
     <use xlink:href="#mc9ffab6158" x="1761.664684" y="361.221629" style="fill: #aa0000; stroke: #aa0000"/>
     <use xlink:href="#mc9ffab6158" x="1776.509145" y="349.642648" style="fill: #aa0000; stroke: #aa0000"/>
     <use xlink:href="#mc9ffab6158" x="1791.339935" y="340.939607" style="fill: #aa0000; stroke: #aa0000"/>
     <use xlink:href="#mc9ffab6158" x="1806.156051" y="335.919592" style="fill: #aa0000; stroke: #aa0000"/>
     <use xlink:href="#mc9ffab6158" x="1820.954375" y="334.538183" style="fill: #aa0000; stroke: #aa0000"/>
     <use xlink:href="#mc9ffab6158" x="1835.725778" y="336.139613" style="fill: #aa0000; stroke: #aa0000"/>
     <use xlink:href="#mc9ffab6158" x="1850.468664" y="339.753901" style="fill: #aa0000; stroke: #aa0000"/>
     <use xlink:href="#mc9ffab6158" x="1865.226108" y="344.362891" style="fill: #aa0000; stroke: #aa0000"/>
     <use xlink:href="#mc9ffab6158" x="1879.731416" y="349.084067" style="fill: #aa0000; stroke: #aa0000"/>
     <use xlink:href="#mc9ffab6158" x="1893.686986" y="353.265125" style="fill: #aa0000; stroke: #aa0000"/>
     <use xlink:href="#mc9ffab6158" x="1907.528049" y="356.517009" style="fill: #aa0000; stroke: #aa0000"/>
     <use xlink:href="#mc9ffab6158" x="1921.138358" y="358.713208" style="fill: #aa0000; stroke: #aa0000"/>
     <use xlink:href="#mc9ffab6158" x="1934.418983" y="359.968766" style="fill: #aa0000; stroke: #aa0000"/>
     <use xlink:href="#mc9ffab6158" x="1947.953223" y="360.598155" style="fill: #aa0000; stroke: #aa0000"/>
     <use xlink:href="#mc9ffab6158" x="1962.011948" y="361.041715" style="fill: #aa0000; stroke: #aa0000"/>
     <use xlink:href="#mc9ffab6158" x="1976.821633" y="361.760064" style="fill: #aa0000; stroke: #aa0000"/>
     <use xlink:href="#mc9ffab6158" x="1992.901619" y="363.1279" style="fill: #aa0000; stroke: #aa0000"/>
     <use xlink:href="#mc9ffab6158" x="2009.861662" y="365.367976" style="fill: #aa0000; stroke: #aa0000"/>
     <use xlink:href="#mc9ffab6158" x="2026.811415" y="368.53002" style="fill: #aa0000; stroke: #aa0000"/>
     <use xlink:href="#mc9ffab6158" x="2043.74696" y="372.493117" style="fill: #aa0000; stroke: #aa0000"/>
     <use xlink:href="#mc9ffab6158" x="2060.664887" y="376.993148" style="fill: #aa0000; stroke: #aa0000"/>
     <use xlink:href="#mc9ffab6158" x="2077.562465" y="381.699552" style="fill: #aa0000; stroke: #aa0000"/>
     <use xlink:href="#mc9ffab6158" x="2093.639997" y="386.321914" style="fill: #aa0000; stroke: #aa0000"/>
     <use xlink:href="#mc9ffab6158" x="2108.436367" y="390.679873" style="fill: #aa0000; stroke: #aa0000"/>
     <use xlink:href="#mc9ffab6158" x="2122.441391" y="394.713716" style="fill: #aa0000; stroke: #aa0000"/>
     <use xlink:href="#mc9ffab6158" x="2136.000957" y="398.460634" style="fill: #aa0000; stroke: #aa0000"/>
     <use xlink:href="#mc9ffab6158" x="2149.6265" y="402.011903" style="fill: #aa0000; stroke: #aa0000"/>
     <use xlink:href="#mc9ffab6158" x="2163.532598" y="405.459302" style="fill: #aa0000; stroke: #aa0000"/>
     <use xlink:href="#mc9ffab6158" x="2177.640947" y="408.852004" style="fill: #aa0000; stroke: #aa0000"/>
     <use xlink:href="#mc9ffab6158" x="2191.844662" y="412.180963" style="fill: #aa0000; stroke: #aa0000"/>
     <use xlink:href="#mc9ffab6158" x="2206.630322" y="415.387704" style="fill: #aa0000; stroke: #aa0000"/>
     <use xlink:href="#mc9ffab6158" x="2221.404173" y="418.384141" style="fill: #aa0000; stroke: #aa0000"/>
     <use xlink:href="#mc9ffab6158" x="2236.175358" y="421.073087" style="fill: #aa0000; stroke: #aa0000"/>
     <use xlink:href="#mc9ffab6158" x="2250.967951" y="423.367451" style="fill: #aa0000; stroke: #aa0000"/>
     <use xlink:href="#mc9ffab6158" x="2265.778641" y="425.209468" style="fill: #aa0000; stroke: #aa0000"/>
     <use xlink:href="#mc9ffab6158" x="2280.588933" y="426.588816" style="fill: #aa0000; stroke: #aa0000"/>
     <use xlink:href="#mc9ffab6158" x="2295.404772" y="427.556391" style="fill: #aa0000; stroke: #aa0000"/>
     <use xlink:href="#mc9ffab6158" x="2310.228411" y="428.229426" style="fill: #aa0000; stroke: #aa0000"/>
     <use xlink:href="#mc9ffab6158" x="2325.061914" y="428.784022" style="fill: #aa0000; stroke: #aa0000"/>
     <use xlink:href="#mc9ffab6158" x="2339.91808" y="429.433685" style="fill: #aa0000; stroke: #aa0000"/>
     <use xlink:href="#mc9ffab6158" x="2354.792791" y="430.400377" style="fill: #aa0000; stroke: #aa0000"/>
     <use xlink:href="#mc9ffab6158" x="2369.684495" y="431.862537" style="fill: #aa0000; stroke: #aa0000"/>
     <use xlink:href="#mc9ffab6158" x="2384.584278" y="433.960641" style="fill: #aa0000; stroke: #aa0000"/>
     <use xlink:href="#mc9ffab6158" x="2399.478401" y="436.744848" style="fill: #aa0000; stroke: #aa0000"/>
     <use xlink:href="#mc9ffab6158" x="2414.366443" y="440.193583" style="fill: #aa0000; stroke: #aa0000"/>
     <use xlink:href="#mc9ffab6158" x="2429.248521" y="444.217547" style="fill: #aa0000; stroke: #aa0000"/>
     <use xlink:href="#mc9ffab6158" x="2444.1253" y="448.669323" style="fill: #aa0000; stroke: #aa0000"/>
     <use xlink:href="#mc9ffab6158" x="2458.997931" y="453.332685" style="fill: #aa0000; stroke: #aa0000"/>
     <use xlink:href="#mc9ffab6158" x="2473.867917" y="457.850337" style="fill: #aa0000; stroke: #aa0000"/>
     <use xlink:href="#mc9ffab6158" x="2488.736914" y="461.556704" style="fill: #aa0000; stroke: #aa0000"/>
     <use xlink:href="#mc9ffab6158" x="2503.606531" y="463.259631" style="fill: #aa0000; stroke: #aa0000"/>
     <use xlink:href="#mc9ffab6158" x="2518.478153" y="461.147114" style="fill: #aa0000; stroke: #aa0000"/>
     <use xlink:href="#mc9ffab6158" x="2533.352826" y="453.161092" style="fill: #aa0000; stroke: #aa0000"/>
     <use xlink:href="#mc9ffab6158" x="2548.231202" y="438.207374" style="fill: #aa0000; stroke: #aa0000"/>
     <use xlink:href="#mc9ffab6158" x="2563.113545" y="417.572901" style="fill: #aa0000; stroke: #aa0000"/>
     <use xlink:href="#mc9ffab6158" x="2577.999777" y="394.576307" style="fill: #aa0000; stroke: #aa0000"/>
     <use xlink:href="#mc9ffab6158" x="2592.88954" y="372.353908" style="fill: #aa0000; stroke: #aa0000"/>
     <use xlink:href="#mc9ffab6158" x="2607.782259" y="352.740835" style="fill: #aa0000; stroke: #aa0000"/>
     <use xlink:href="#mc9ffab6158" x="2622.677184" y="337.280606" style="fill: #aa0000; stroke: #aa0000"/>
     <use xlink:href="#mc9ffab6158" x="2637.573419" y="327.979593" style="fill: #aa0000; stroke: #aa0000"/>
     <use xlink:href="#mc9ffab6158" x="2652.469928" y="326.392468" style="fill: #aa0000; stroke: #aa0000"/>
     <use xlink:href="#mc9ffab6158" x="2667.365549" y="332.373028" style="fill: #aa0000; stroke: #aa0000"/>
     <use xlink:href="#mc9ffab6158" x="2682.25901" y="344.015009" style="fill: #aa0000; stroke: #aa0000"/>
     <use xlink:href="#mc9ffab6158" x="2697.148987" y="358.660789" style="fill: #aa0000; stroke: #aa0000"/>
     <use xlink:href="#mc9ffab6158" x="2712.034162" y="373.991546" style="fill: #aa0000; stroke: #aa0000"/>
     <use xlink:href="#mc9ffab6158" x="2726.913447" y="388.567905" style="fill: #aa0000; stroke: #aa0000"/>
     <use xlink:href="#mc9ffab6158" x="2741.786146" y="401.812762" style="fill: #aa0000; stroke: #aa0000"/>
     <use xlink:href="#mc9ffab6158" x="2756.652078" y="413.713671" style="fill: #aa0000; stroke: #aa0000"/>
     <use xlink:href="#mc9ffab6158" x="2771.51165" y="424.509176" style="fill: #aa0000; stroke: #aa0000"/>
     <use xlink:href="#mc9ffab6158" x="2786.366051" y="434.46977" style="fill: #aa0000; stroke: #aa0000"/>
     <use xlink:href="#mc9ffab6158" x="2801.217168" y="443.744355" style="fill: #aa0000; stroke: #aa0000"/>
     <use xlink:href="#mc9ffab6158" x="2816.067443" y="452.167728" style="fill: #aa0000; stroke: #aa0000"/>
     <use xlink:href="#mc9ffab6158" x="2830.919647" y="458.938301" style="fill: #aa0000; stroke: #aa0000"/>
     <use xlink:href="#mc9ffab6158" x="2845.776596" y="462.602804" style="fill: #aa0000; stroke: #aa0000"/>
     <use xlink:href="#mc9ffab6158" x="2860.640877" y="465.256055" style="fill: #aa0000; stroke: #aa0000"/>
     <use xlink:href="#mc9ffab6158" x="2875.509622" y="494.972575" style="fill: #aa0000; stroke: #aa0000"/>
     <use xlink:href="#mc9ffab6158" x="2890.384243" y="662.611516" style="fill: #aa0000; stroke: #aa0000"/>
     <use xlink:href="#mc9ffab6158" x="2905.266466" y="1096.386464" style="fill: #aa0000; stroke: #aa0000"/>
     <use xlink:href="#mc9ffab6158" x="2920.158319" y="1210.581818" style="fill: #aa0000; stroke: #aa0000"/>
     <use xlink:href="#mc9ffab6158" x="2935.062262" y="1203.217063" style="fill: #aa0000; stroke: #aa0000"/>
     <use xlink:href="#mc9ffab6158" x="2949.979685" y="1171.806926" style="fill: #aa0000; stroke: #aa0000"/>
     <use xlink:href="#mc9ffab6158" x="2964.908659" y="1142.316066" style="fill: #aa0000; stroke: #aa0000"/>
     <use xlink:href="#mc9ffab6158" x="2979.845474" y="1125.453531" style="fill: #aa0000; stroke: #aa0000"/>
     <use xlink:href="#mc9ffab6158" x="2994.784069" y="1115.331615" style="fill: #aa0000; stroke: #aa0000"/>
     <use xlink:href="#mc9ffab6158" x="3009.721735" y="1107.02246" style="fill: #aa0000; stroke: #aa0000"/>
     <use xlink:href="#mc9ffab6158" x="3024.656432" y="1098.390422" style="fill: #aa0000; stroke: #aa0000"/>
     <use xlink:href="#mc9ffab6158" x="3039.586673" y="1088.339607" style="fill: #aa0000; stroke: #aa0000"/>
     <use xlink:href="#mc9ffab6158" x="3054.511619" y="1075.862399" style="fill: #aa0000; stroke: #aa0000"/>
     <use xlink:href="#mc9ffab6158" x="3069.431084" y="1059.628544" style="fill: #aa0000; stroke: #aa0000"/>
     <use xlink:href="#mc9ffab6158" x="3084.345436" y="1038.107086" style="fill: #aa0000; stroke: #aa0000"/>
     <use xlink:href="#mc9ffab6158" x="3099.255421" y="1011.174634" style="fill: #aa0000; stroke: #aa0000"/>
     <use xlink:href="#mc9ffab6158" x="3114.161922" y="981.582072" style="fill: #aa0000; stroke: #aa0000"/>
     <use xlink:href="#mc9ffab6158" x="3129.065711" y="939.433719" style="fill: #aa0000; stroke: #aa0000"/>
     <use xlink:href="#mc9ffab6158" x="3143.967215" y="853.94298" style="fill: #aa0000; stroke: #aa0000"/>
     <use xlink:href="#mc9ffab6158" x="3158.866344" y="479.451305" style="fill: #aa0000; stroke: #aa0000"/>
     <use xlink:href="#mc9ffab6158" x="3173.76239" y="222.218182" style="fill: #aa0000; stroke: #aa0000"/>
     <use xlink:href="#mc9ffab6158" x="3188.654024" y="226.362135" style="fill: #aa0000; stroke: #aa0000"/>
     <use xlink:href="#mc9ffab6158" x="3203.539397" y="281.616028" style="fill: #aa0000; stroke: #aa0000"/>
     <use xlink:href="#mc9ffab6158" x="3218.416342" y="333.403887" style="fill: #aa0000; stroke: #aa0000"/>
     <use xlink:href="#mc9ffab6158" x="3233.282677" y="371.044095" style="fill: #aa0000; stroke: #aa0000"/>
     <use xlink:href="#mc9ffab6158" x="3248.136573" y="397.044126" style="fill: #aa0000; stroke: #aa0000"/>
     <use xlink:href="#mc9ffab6158" x="3262.969592" y="415.729841" style="fill: #aa0000; stroke: #aa0000"/>
     <use xlink:href="#mc9ffab6158" x="3277.781399" y="430.198926" style="fill: #aa0000; stroke: #aa0000"/>
     <use xlink:href="#mc9ffab6158" x="3292.576608" y="442.240466" style="fill: #aa0000; stroke: #aa0000"/>
     <use xlink:href="#mc9ffab6158" x="3307.328684" y="452.807121" style="fill: #aa0000; stroke: #aa0000"/>
     <use xlink:href="#mc9ffab6158" x="3322.038891" y="462.362477" style="fill: #aa0000; stroke: #aa0000"/>
     <use xlink:href="#mc9ffab6158" x="3336.718911" y="471.029285" style="fill: #aa0000; stroke: #aa0000"/>
     <use xlink:href="#mc9ffab6158" x="3350.667031" y="478.566315" style="fill: #aa0000; stroke: #aa0000"/>
     <use xlink:href="#mc9ffab6158" x="3364.095465" y="484.210694" style="fill: #aa0000; stroke: #aa0000"/>
     <use xlink:href="#mc9ffab6158" x="3377.193808" y="486.457582" style="fill: #aa0000; stroke: #aa0000"/>
     <use xlink:href="#mc9ffab6158" x="3391.62387" y="483.039753" style="fill: #aa0000; stroke: #aa0000"/>
     <use xlink:href="#mc9ffab6158" x="3408.73892" y="471.742256" style="fill: #aa0000; stroke: #aa0000"/>
     <use xlink:href="#mc9ffab6158" x="3425.847344" y="452.17382" style="fill: #aa0000; stroke: #aa0000"/>
     <use xlink:href="#mc9ffab6158" x="3444.0181" y="426.568068" style="fill: #aa0000; stroke: #aa0000"/>
     <use xlink:href="#mc9ffab6158" x="3463.312145" y="398.062457" style="fill: #aa0000; stroke: #aa0000"/>
     <use xlink:href="#mc9ffab6158" x="3483.517737" y="369.134125" style="fill: #aa0000; stroke: #aa0000"/>
     <use xlink:href="#mc9ffab6158" x="3504.211074" y="342.593211" style="fill: #aa0000; stroke: #aa0000"/>
     <use xlink:href="#mc9ffab6158" x="3525.215686" y="322.469273" style="fill: #aa0000; stroke: #aa0000"/>
     <use xlink:href="#mc9ffab6158" x="3546.374655" y="312.225894" style="fill: #aa0000; stroke: #aa0000"/>
     <use xlink:href="#mc9ffab6158" x="3567.561765" y="312.378475" style="fill: #aa0000; stroke: #aa0000"/>
     <use xlink:href="#mc9ffab6158" x="3588.650047" y="334.256212" style="fill: #aa0000; stroke: #aa0000"/>
     <use xlink:href="#mc9ffab6158" x="3622.143507" y="345.382289" style="fill: #aa0000; stroke: #aa0000"/>
    </g>
   </g>
   <g id="PathCollection_2">
    <defs>
     <path id="m8b7a1c75ac" d="M 0 0.707107 
C 0.187527 0.707107 0.367398 0.632602 0.5 0.5 
C 0.632602 0.367398 0.707107 0.187527 0.707107 0 
C 0.707107 -0.187527 0.632602 -0.367398 0.5 -0.5 
C 0.367398 -0.632602 0.187527 -0.707107 0 -0.707107 
C -0.187527 -0.707107 -0.367398 -0.632602 -0.5 -0.5 
C -0.632602 -0.367398 -0.707107 -0.187527 -0.707107 0 
C -0.707107 0.187527 -0.632602 0.367398 -0.5 0.5 
C -0.367398 0.632602 -0.187527 0.707107 0 0.707107 
z
" style="stroke: #00aa00"/>
    </defs>
    <g clip-path="url(#p7a87ef1651)">
     <use xlink:href="#m8b7a1c75ac" x="692.181818" y="337.980036" style="fill: #00aa00; stroke: #00aa00"/>
     <use xlink:href="#m8b7a1c75ac" x="709.989313" y="310.823085" style="fill: #00aa00; stroke: #00aa00"/>
     <use xlink:href="#m8b7a1c75ac" x="727.721567" y="322.948277" style="fill: #00aa00; stroke: #00aa00"/>
     <use xlink:href="#m8b7a1c75ac" x="745.289788" y="333.12967" style="fill: #00aa00; stroke: #00aa00"/>
     <use xlink:href="#m8b7a1c75ac" x="762.50248" y="340.993533" style="fill: #00aa00; stroke: #00aa00"/>
     <use xlink:href="#m8b7a1c75ac" x="779.281234" y="346.501361" style="fill: #00aa00; stroke: #00aa00"/>
     <use xlink:href="#m8b7a1c75ac" x="795.745222" y="349.769609" style="fill: #00aa00; stroke: #00aa00"/>
     <use xlink:href="#m8b7a1c75ac" x="811.716342" y="350.99615" style="fill: #00aa00; stroke: #00aa00"/>
     <use xlink:href="#m8b7a1c75ac" x="823.778001" y="350.489983" style="fill: #00aa00; stroke: #00aa00"/>
     <use xlink:href="#m8b7a1c75ac" x="844.981594" y="348.768163" style="fill: #00aa00; stroke: #00aa00"/>
     <use xlink:href="#m8b7a1c75ac" x="862.017651" y="346.660859" style="fill: #00aa00; stroke: #00aa00"/>
     <use xlink:href="#m8b7a1c75ac" x="877.284505" y="345.347407" style="fill: #00aa00; stroke: #00aa00"/>
     <use xlink:href="#m8b7a1c75ac" x="892.385931" y="346.241105" style="fill: #00aa00; stroke: #00aa00"/>
     <use xlink:href="#m8b7a1c75ac" x="907.544402" y="350.699767" style="fill: #00aa00; stroke: #00aa00"/>
     <use xlink:href="#m8b7a1c75ac" x="922.749974" y="359.642462" style="fill: #00aa00; stroke: #00aa00"/>
     <use xlink:href="#m8b7a1c75ac" x="938.381389" y="373.184173" style="fill: #00aa00; stroke: #00aa00"/>
     <use xlink:href="#m8b7a1c75ac" x="954.181611" y="390.431779" style="fill: #00aa00; stroke: #00aa00"/>
     <use xlink:href="#m8b7a1c75ac" x="969.722444" y="409.818227" style="fill: #00aa00; stroke: #00aa00"/>
     <use xlink:href="#m8b7a1c75ac" x="985.273614" y="430.100008" style="fill: #00aa00; stroke: #00aa00"/>
     <use xlink:href="#m8b7a1c75ac" x="1000.772693" y="450.553033" style="fill: #00aa00; stroke: #00aa00"/>
     <use xlink:href="#m8b7a1c75ac" x="1016.18942" y="469.850526" style="fill: #00aa00; stroke: #00aa00"/>
     <use xlink:href="#m8b7a1c75ac" x="1031.458695" y="486.012784" style="fill: #00aa00; stroke: #00aa00"/>
     <use xlink:href="#m8b7a1c75ac" x="1046.437116" y="497.879331" style="fill: #00aa00; stroke: #00aa00"/>
     <use xlink:href="#m8b7a1c75ac" x="1061.016121" y="505.70663" style="fill: #00aa00; stroke: #00aa00"/>
     <use xlink:href="#m8b7a1c75ac" x="1075.608935" y="510.739003" style="fill: #00aa00; stroke: #00aa00"/>
     <use xlink:href="#m8b7a1c75ac" x="1090.190572" y="514.379391" style="fill: #00aa00; stroke: #00aa00"/>
     <use xlink:href="#m8b7a1c75ac" x="1103.409886" y="517.343411" style="fill: #00aa00; stroke: #00aa00"/>
     <use xlink:href="#m8b7a1c75ac" x="1116.475536" y="519.008535" style="fill: #00aa00; stroke: #00aa00"/>
     <use xlink:href="#m8b7a1c75ac" x="1132.055629" y="516.653578" style="fill: #00aa00; stroke: #00aa00"/>
     <use xlink:href="#m8b7a1c75ac" x="1149.134704" y="506.561726" style="fill: #00aa00; stroke: #00aa00"/>
     <use xlink:href="#m8b7a1c75ac" x="1166.157733" y="494.479015" style="fill: #00aa00; stroke: #00aa00"/>
     <use xlink:href="#m8b7a1c75ac" x="1183.109831" y="514.948724" style="fill: #00aa00; stroke: #00aa00"/>
     <use xlink:href="#m8b7a1c75ac" x="1200.008792" y="635.966109" style="fill: #00aa00; stroke: #00aa00"/>
     <use xlink:href="#m8b7a1c75ac" x="1216.860663" y="928.971422" style="fill: #00aa00; stroke: #00aa00"/>
     <use xlink:href="#m8b7a1c75ac" x="1233.70885" y="1148.944283" style="fill: #00aa00; stroke: #00aa00"/>
     <use xlink:href="#m8b7a1c75ac" x="1250.545691" y="1173.556061" style="fill: #00aa00; stroke: #00aa00"/>
     <use xlink:href="#m8b7a1c75ac" x="1267.350032" y="1164.87613" style="fill: #00aa00; stroke: #00aa00"/>
     <use xlink:href="#m8b7a1c75ac" x="1282.198221" y="1152.472082" style="fill: #00aa00; stroke: #00aa00"/>
     <use xlink:href="#m8b7a1c75ac" x="1296.253745" y="1137.312966" style="fill: #00aa00; stroke: #00aa00"/>
     <use xlink:href="#m8b7a1c75ac" x="1310.466591" y="1121.491518" style="fill: #00aa00; stroke: #00aa00"/>
     <use xlink:href="#m8b7a1c75ac" x="1324.899962" y="1106.081378" style="fill: #00aa00; stroke: #00aa00"/>
     <use xlink:href="#m8b7a1c75ac" x="1339.455275" y="1091.025497" style="fill: #00aa00; stroke: #00aa00"/>
     <use xlink:href="#m8b7a1c75ac" x="1354.34049" y="1075.703851" style="fill: #00aa00; stroke: #00aa00"/>
     <use xlink:href="#m8b7a1c75ac" x="1369.224057" y="1059.036741" style="fill: #00aa00; stroke: #00aa00"/>
     <use xlink:href="#m8b7a1c75ac" x="1384.133922" y="1039.039549" style="fill: #00aa00; stroke: #00aa00"/>
     <use xlink:href="#m8b7a1c75ac" x="1399.042044" y="1012.966876" style="fill: #00aa00; stroke: #00aa00"/>
     <use xlink:href="#m8b7a1c75ac" x="1413.94847" y="981.504796" style="fill: #00aa00; stroke: #00aa00"/>
     <use xlink:href="#m8b7a1c75ac" x="1428.85004" y="940.168654" style="fill: #00aa00; stroke: #00aa00"/>
     <use xlink:href="#m8b7a1c75ac" x="1443.743953" y="817.89368" style="fill: #00aa00; stroke: #00aa00"/>
     <use xlink:href="#m8b7a1c75ac" x="1458.627815" y="599.489185" style="fill: #00aa00; stroke: #00aa00"/>
     <use xlink:href="#m8b7a1c75ac" x="1473.499679" y="432.094767" style="fill: #00aa00; stroke: #00aa00"/>
     <use xlink:href="#m8b7a1c75ac" x="1488.35806" y="355.592004" style="fill: #00aa00; stroke: #00aa00"/>
     <use xlink:href="#m8b7a1c75ac" x="1503.201953" y="331.094038" style="fill: #00aa00; stroke: #00aa00"/>
     <use xlink:href="#m8b7a1c75ac" x="1518.020522" y="329.730252" style="fill: #00aa00; stroke: #00aa00"/>
     <use xlink:href="#m8b7a1c75ac" x="1532.816351" y="337.410157" style="fill: #00aa00; stroke: #00aa00"/>
     <use xlink:href="#m8b7a1c75ac" x="1547.583171" y="347.57773" style="fill: #00aa00; stroke: #00aa00"/>
     <use xlink:href="#m8b7a1c75ac" x="1562.318733" y="357.356705" style="fill: #00aa00; stroke: #00aa00"/>
     <use xlink:href="#m8b7a1c75ac" x="1577.075705" y="365.733515" style="fill: #00aa00; stroke: #00aa00"/>
     <use xlink:href="#m8b7a1c75ac" x="1591.444069" y="372.667941" style="fill: #00aa00; stroke: #00aa00"/>
     <use xlink:href="#m8b7a1c75ac" x="1605.414737" y="378.648432" style="fill: #00aa00; stroke: #00aa00"/>
     <use xlink:href="#m8b7a1c75ac" x="1619.291453" y="384.434245" style="fill: #00aa00; stroke: #00aa00"/>
     <use xlink:href="#m8b7a1c75ac" x="1632.998712" y="390.834287" style="fill: #00aa00; stroke: #00aa00"/>
     <use xlink:href="#m8b7a1c75ac" x="1646.517483" y="398.454082" style="fill: #00aa00; stroke: #00aa00"/>
     <use xlink:href="#m8b7a1c75ac" x="1659.916446" y="407.424447" style="fill: #00aa00; stroke: #00aa00"/>
     <use xlink:href="#m8b7a1c75ac" x="1673.58773" y="417.186617" style="fill: #00aa00; stroke: #00aa00"/>
     <use xlink:href="#m8b7a1c75ac" x="1687.537127" y="426.437216" style="fill: #00aa00; stroke: #00aa00"/>
     <use xlink:href="#m8b7a1c75ac" x="1701.920618" y="433.341342" style="fill: #00aa00; stroke: #00aa00"/>
     <use xlink:href="#m8b7a1c75ac" x="1716.81676" y="436.048604" style="fill: #00aa00; stroke: #00aa00"/>
     <use xlink:href="#m8b7a1c75ac" x="1732.686079" y="433.359913" style="fill: #00aa00; stroke: #00aa00"/>
     <use xlink:href="#m8b7a1c75ac" x="1749.565479" y="425.237123" style="fill: #00aa00; stroke: #00aa00"/>
     <use xlink:href="#m8b7a1c75ac" x="1766.534545" y="412.884239" style="fill: #00aa00; stroke: #00aa00"/>
     <use xlink:href="#m8b7a1c75ac" x="1783.514601" y="398.366034" style="fill: #00aa00; stroke: #00aa00"/>
     <use xlink:href="#m8b7a1c75ac" x="1800.509534" y="383.960784" style="fill: #00aa00; stroke: #00aa00"/>
     <use xlink:href="#m8b7a1c75ac" x="1817.506862" y="371.542578" style="fill: #00aa00; stroke: #00aa00"/>
     <use xlink:href="#m8b7a1c75ac" x="1835.093462" y="362.21854" style="fill: #00aa00; stroke: #00aa00"/>
     <use xlink:href="#m8b7a1c75ac" x="1853.697852" y="356.276342" style="fill: #00aa00; stroke: #00aa00"/>
     <use xlink:href="#m8b7a1c75ac" x="1873.300296" y="353.347389" style="fill: #00aa00; stroke: #00aa00"/>
     <use xlink:href="#m8b7a1c75ac" x="1893.863209" y="352.655021" style="fill: #00aa00; stroke: #00aa00"/>
     <use xlink:href="#m8b7a1c75ac" x="1915.152899" y="353.263842" style="fill: #00aa00; stroke: #00aa00"/>
     <use xlink:href="#m8b7a1c75ac" x="1937.114223" y="354.27528" style="fill: #00aa00; stroke: #00aa00"/>
     <use xlink:href="#m8b7a1c75ac" x="1956.922353" y="354.951724" style="fill: #00aa00; stroke: #00aa00"/>
     <use xlink:href="#m8b7a1c75ac" x="1965.643377" y="354.786833" style="fill: #00aa00; stroke: #00aa00"/>
     <use xlink:href="#m8b7a1c75ac" x="1979.243291" y="353.545231" style="fill: #00aa00; stroke: #00aa00"/>
     <use xlink:href="#m8b7a1c75ac" x="1994.715841" y="351.284294" style="fill: #00aa00; stroke: #00aa00"/>
     <use xlink:href="#m8b7a1c75ac" x="2010.643983" y="348.353004" style="fill: #00aa00; stroke: #00aa00"/>
     <use xlink:href="#m8b7a1c75ac" x="2026.617343" y="345.341943" style="fill: #00aa00; stroke: #00aa00"/>
     <use xlink:href="#m8b7a1c75ac" x="2042.752686" y="342.956797" style="fill: #00aa00; stroke: #00aa00"/>
     <use xlink:href="#m8b7a1c75ac" x="2059.011026" y="341.830686" style="fill: #00aa00; stroke: #00aa00"/>
     <use xlink:href="#m8b7a1c75ac" x="2075.371268" y="342.344786" style="fill: #00aa00; stroke: #00aa00"/>
     <use xlink:href="#m8b7a1c75ac" x="2091.842123" y="344.539255" style="fill: #00aa00; stroke: #00aa00"/>
     <use xlink:href="#m8b7a1c75ac" x="2108.397271" y="348.15542" style="fill: #00aa00; stroke: #00aa00"/>
     <use xlink:href="#m8b7a1c75ac" x="2125.00773" y="352.771662" style="fill: #00aa00; stroke: #00aa00"/>
     <use xlink:href="#m8b7a1c75ac" x="2141.642392" y="357.939881" style="fill: #00aa00; stroke: #00aa00"/>
     <use xlink:href="#m8b7a1c75ac" x="2158.268566" y="363.260732" style="fill: #00aa00; stroke: #00aa00"/>
     <use xlink:href="#m8b7a1c75ac" x="2174.852498" y="368.407478" style="fill: #00aa00; stroke: #00aa00"/>
     <use xlink:href="#m8b7a1c75ac" x="2191.359843" y="373.133528" style="fill: #00aa00; stroke: #00aa00"/>
     <use xlink:href="#m8b7a1c75ac" x="2207.760595" y="377.269666" style="fill: #00aa00; stroke: #00aa00"/>
     <use xlink:href="#m8b7a1c75ac" x="2224.056674" y="380.707057" style="fill: #00aa00; stroke: #00aa00"/>
     <use xlink:href="#m8b7a1c75ac" x="2240.157775" y="383.375935" style="fill: #00aa00; stroke: #00aa00"/>
     <use xlink:href="#m8b7a1c75ac" x="2256.086613" y="385.232113" style="fill: #00aa00; stroke: #00aa00"/>
     <use xlink:href="#m8b7a1c75ac" x="2271.400424" y="386.254663" style="fill: #00aa00; stroke: #00aa00"/>
     <use xlink:href="#m8b7a1c75ac" x="2283.154912" y="386.451128" style="fill: #00aa00; stroke: #00aa00"/>
     <use xlink:href="#m8b7a1c75ac" x="2305.111828" y="385.866562" style="fill: #00aa00; stroke: #00aa00"/>
     <use xlink:href="#m8b7a1c75ac" x="2325.900322" y="384.595006" style="fill: #00aa00; stroke: #00aa00"/>
     <use xlink:href="#m8b7a1c75ac" x="2344.143338" y="382.795628" style="fill: #00aa00; stroke: #00aa00"/>
     <use xlink:href="#m8b7a1c75ac" x="2360.749068" y="380.713741" style="fill: #00aa00; stroke: #00aa00"/>
     <use xlink:href="#m8b7a1c75ac" x="2375.218885" y="378.69974" style="fill: #00aa00; stroke: #00aa00"/>
     <use xlink:href="#m8b7a1c75ac" x="2389.739174" y="377.214118" style="fill: #00aa00; stroke: #00aa00"/>
     <use xlink:href="#m8b7a1c75ac" x="2404.686815" y="376.804068" style="fill: #00aa00; stroke: #00aa00"/>
     <use xlink:href="#m8b7a1c75ac" x="2419.729184" y="378.039301" style="fill: #00aa00; stroke: #00aa00"/>
     <use xlink:href="#m8b7a1c75ac" x="2434.849486" y="381.406632" style="fill: #00aa00; stroke: #00aa00"/>
     <use xlink:href="#m8b7a1c75ac" x="2450.082995" y="387.186666" style="fill: #00aa00; stroke: #00aa00"/>
     <use xlink:href="#m8b7a1c75ac" x="2465.637259" y="395.360508" style="fill: #00aa00; stroke: #00aa00"/>
     <use xlink:href="#m8b7a1c75ac" x="2481.323603" y="405.612154" style="fill: #00aa00; stroke: #00aa00"/>
     <use xlink:href="#m8b7a1c75ac" x="2496.915767" y="417.439801" style="fill: #00aa00; stroke: #00aa00"/>
     <use xlink:href="#m8b7a1c75ac" x="2512.494626" y="430.308448" style="fill: #00aa00; stroke: #00aa00"/>
     <use xlink:href="#m8b7a1c75ac" x="2528.060815" y="443.679929" style="fill: #00aa00; stroke: #00aa00"/>
     <use xlink:href="#m8b7a1c75ac" x="2543.600574" y="456.889192" style="fill: #00aa00; stroke: #00aa00"/>
     <use xlink:href="#m8b7a1c75ac" x="2559.108619" y="469.068828" style="fill: #00aa00; stroke: #00aa00"/>
     <use xlink:href="#m8b7a1c75ac" x="2574.600245" y="479.355724" style="fill: #00aa00; stroke: #00aa00"/>
     <use xlink:href="#m8b7a1c75ac" x="2590.006918" y="487.138673" style="fill: #00aa00; stroke: #00aa00"/>
     <use xlink:href="#m8b7a1c75ac" x="2605.33014" y="491.659535" style="fill: #00aa00; stroke: #00aa00"/>
     <use xlink:href="#m8b7a1c75ac" x="2620.502131" y="491.225933" style="fill: #00aa00; stroke: #00aa00"/>
     <use xlink:href="#m8b7a1c75ac" x="2635.506625" y="483.280012" style="fill: #00aa00; stroke: #00aa00"/>
     <use xlink:href="#m8b7a1c75ac" x="2650.44345" y="466.086846" style="fill: #00aa00; stroke: #00aa00"/>
     <use xlink:href="#m8b7a1c75ac" x="2665.337155" y="441.251893" style="fill: #00aa00; stroke: #00aa00"/>
     <use xlink:href="#m8b7a1c75ac" x="2680.184952" y="413.690569" style="fill: #00aa00; stroke: #00aa00"/>
     <use xlink:href="#m8b7a1c75ac" x="2695.016714" y="388.130169" style="fill: #00aa00; stroke: #00aa00"/>
     <use xlink:href="#m8b7a1c75ac" x="2709.858115" y="366.9235" style="fill: #00aa00; stroke: #00aa00"/>
     <use xlink:href="#m8b7a1c75ac" x="2724.705587" y="351.258493" style="fill: #00aa00; stroke: #00aa00"/>
     <use xlink:href="#m8b7a1c75ac" x="2739.555813" y="342.527565" style="fill: #00aa00; stroke: #00aa00"/>
     <use xlink:href="#m8b7a1c75ac" x="2754.401437" y="341.781721" style="fill: #00aa00; stroke: #00aa00"/>
     <use xlink:href="#m8b7a1c75ac" x="2769.238463" y="348.574599" style="fill: #00aa00; stroke: #00aa00"/>
     <use xlink:href="#m8b7a1c75ac" x="2784.070823" y="360.858343" style="fill: #00aa00; stroke: #00aa00"/>
     <use xlink:href="#m8b7a1c75ac" x="2798.888415" y="375.927324" style="fill: #00aa00; stroke: #00aa00"/>
     <use xlink:href="#m8b7a1c75ac" x="2813.669047" y="391.462496" style="fill: #00aa00; stroke: #00aa00"/>
     <use xlink:href="#m8b7a1c75ac" x="2828.415754" y="406.02375" style="fill: #00aa00; stroke: #00aa00"/>
     <use xlink:href="#m8b7a1c75ac" x="2843.116933" y="418.988283" style="fill: #00aa00; stroke: #00aa00"/>
     <use xlink:href="#m8b7a1c75ac" x="2857.670512" y="430.240965" style="fill: #00aa00; stroke: #00aa00"/>
     <use xlink:href="#m8b7a1c75ac" x="2871.477409" y="439.867498" style="fill: #00aa00; stroke: #00aa00"/>
     <use xlink:href="#m8b7a1c75ac" x="2884.910464" y="447.927684" style="fill: #00aa00; stroke: #00aa00"/>
     <use xlink:href="#m8b7a1c75ac" x="2898.140751" y="454.287926" style="fill: #00aa00; stroke: #00aa00"/>
     <use xlink:href="#m8b7a1c75ac" x="2912.356415" y="458.531633" style="fill: #00aa00; stroke: #00aa00"/>
     <use xlink:href="#m8b7a1c75ac" x="2929.057983" y="460.309288" style="fill: #00aa00; stroke: #00aa00"/>
     <use xlink:href="#m8b7a1c75ac" x="2946.107145" y="461.541283" style="fill: #00aa00; stroke: #00aa00"/>
     <use xlink:href="#m8b7a1c75ac" x="2963.133975" y="473.443013" style="fill: #00aa00; stroke: #00aa00"/>
     <use xlink:href="#m8b7a1c75ac" x="2980.279969" y="529.440725" style="fill: #00aa00; stroke: #00aa00"/>
     <use xlink:href="#m8b7a1c75ac" x="2997.739095" y="704.737917" style="fill: #00aa00; stroke: #00aa00"/>
     <use xlink:href="#m8b7a1c75ac" x="3015.333629" y="1043.197176" style="fill: #00aa00; stroke: #00aa00"/>
     <use xlink:href="#m8b7a1c75ac" x="3032.791406" y="1195.401547" style="fill: #00aa00; stroke: #00aa00"/>
     <use xlink:href="#m8b7a1c75ac" x="3049.861759" y="1199.591918" style="fill: #00aa00; stroke: #00aa00"/>
     <use xlink:href="#m8b7a1c75ac" x="3066.661013" y="1188.825054" style="fill: #00aa00; stroke: #00aa00"/>
     <use xlink:href="#m8b7a1c75ac" x="3083.485463" y="1169.093123" style="fill: #00aa00; stroke: #00aa00"/>
     <use xlink:href="#m8b7a1c75ac" x="3100.297092" y="1149.179464" style="fill: #00aa00; stroke: #00aa00"/>
     <use xlink:href="#m8b7a1c75ac" x="3116.353929" y="1133.795136" style="fill: #00aa00; stroke: #00aa00"/>
     <use xlink:href="#m8b7a1c75ac" x="3130.768557" y="1122.120726" style="fill: #00aa00; stroke: #00aa00"/>
     <use xlink:href="#m8b7a1c75ac" x="3144.797131" y="1111.829088" style="fill: #00aa00; stroke: #00aa00"/>
     <use xlink:href="#m8b7a1c75ac" x="3159.242339" y="1100.952711" style="fill: #00aa00; stroke: #00aa00"/>
     <use xlink:href="#m8b7a1c75ac" x="3173.642643" y="1087.974104" style="fill: #00aa00; stroke: #00aa00"/>
     <use xlink:href="#m8b7a1c75ac" x="3188.547101" y="1071.5646" style="fill: #00aa00; stroke: #00aa00"/>
     <use xlink:href="#m8b7a1c75ac" x="3203.432669" y="1050.638389" style="fill: #00aa00; stroke: #00aa00"/>
     <use xlink:href="#m8b7a1c75ac" x="3218.344978" y="1024.890919" style="fill: #00aa00; stroke: #00aa00"/>
     <use xlink:href="#m8b7a1c75ac" x="3233.261845" y="993.558451" style="fill: #00aa00; stroke: #00aa00"/>
     <use xlink:href="#m8b7a1c75ac" x="3248.171176" y="942.935878" style="fill: #00aa00; stroke: #00aa00"/>
     <use xlink:href="#m8b7a1c75ac" x="3263.069952" y="855.062633" style="fill: #00aa00; stroke: #00aa00"/>
     <use xlink:href="#m8b7a1c75ac" x="3277.953112" y="491.337379" style="fill: #00aa00; stroke: #00aa00"/>
     <use xlink:href="#m8b7a1c75ac" x="3292.815615" y="236.071484" style="fill: #00aa00; stroke: #00aa00"/>
     <use xlink:href="#m8b7a1c75ac" x="3307.645195" y="235.455092" style="fill: #00aa00; stroke: #00aa00"/>
     <use xlink:href="#m8b7a1c75ac" x="3322.431771" y="291.883902" style="fill: #00aa00; stroke: #00aa00"/>
     <use xlink:href="#m8b7a1c75ac" x="3337.161258" y="347.408231" style="fill: #00aa00; stroke: #00aa00"/>
     <use xlink:href="#m8b7a1c75ac" x="3351.871591" y="388.778767" style="fill: #00aa00; stroke: #00aa00"/>
     <use xlink:href="#m8b7a1c75ac" x="3365.606922" y="417.690219" style="fill: #00aa00; stroke: #00aa00"/>
     <use xlink:href="#m8b7a1c75ac" x="3378.590812" y="438.326719" style="fill: #00aa00; stroke: #00aa00"/>
     <use xlink:href="#m8b7a1c75ac" x="3392.750303" y="453.829272" style="fill: #00aa00; stroke: #00aa00"/>
     <use xlink:href="#m8b7a1c75ac" x="3410.018565" y="466.074258" style="fill: #00aa00; stroke: #00aa00"/>
     <use xlink:href="#m8b7a1c75ac" x="3429.406668" y="476.066057" style="fill: #00aa00; stroke: #00aa00"/>
     <use xlink:href="#m8b7a1c75ac" x="3450.750372" y="484.217921" style="fill: #00aa00; stroke: #00aa00"/>
     <use xlink:href="#m8b7a1c75ac" x="3466.357424" y="490.431128" style="fill: #00aa00; stroke: #00aa00"/>
     <use xlink:href="#m8b7a1c75ac" x="3479.630226" y="494.011998" style="fill: #00aa00; stroke: #00aa00"/>
     <use xlink:href="#m8b7a1c75ac" x="3495.376094" y="493.578652" style="fill: #00aa00; stroke: #00aa00"/>
     <use xlink:href="#m8b7a1c75ac" x="3511.426302" y="487.366577" style="fill: #00aa00; stroke: #00aa00"/>
     <use xlink:href="#m8b7a1c75ac" x="3527.726725" y="474.380158" style="fill: #00aa00; stroke: #00aa00"/>
     <use xlink:href="#m8b7a1c75ac" x="3544.353764" y="455.804084" style="fill: #00aa00; stroke: #00aa00"/>
     <use xlink:href="#m8b7a1c75ac" x="3561.216327" y="434.65578" style="fill: #00aa00; stroke: #00aa00"/>
     <use xlink:href="#m8b7a1c75ac" x="3578.526357" y="413.076145" style="fill: #00aa00; stroke: #00aa00"/>
     <use xlink:href="#m8b7a1c75ac" x="3596.145549" y="390.365983" style="fill: #00aa00; stroke: #00aa00"/>
     <use xlink:href="#m8b7a1c75ac" x="3613.998964" y="364.534643" style="fill: #00aa00; stroke: #00aa00"/>
     <use xlink:href="#m8b7a1c75ac" x="3631.948341" y="335.783112" style="fill: #00aa00; stroke: #00aa00"/>
     <use xlink:href="#m8b7a1c75ac" x="3649.89776" y="308.216348" style="fill: #00aa00; stroke: #00aa00"/>
     <use xlink:href="#m8b7a1c75ac" x="3667.815238" y="287.775694" style="fill: #00aa00; stroke: #00aa00"/>
     <use xlink:href="#m8b7a1c75ac" x="3685.707106" y="278.322576" style="fill: #00aa00; stroke: #00aa00"/>
     <use xlink:href="#m8b7a1c75ac" x="3703.575374" y="337.819453" style="fill: #00aa00; stroke: #00aa00"/>
     <use xlink:href="#m8b7a1c75ac" x="3735.818182" y="337.980036" style="fill: #00aa00; stroke: #00aa00"/>
    </g>
   </g>
  </g>
 </g>
 <defs>
  <clipPath id="p7a87ef1651">
   <rect x="540" y="172.8" width="3348" height="1087.2"/>
  </clipPath>
 </defs>
</svg>
