<svg class="main-svg" xmlns="http://www.w3.org/2000/svg" xmlns:xlink="http://www.w3.org/1999/xlink" width="3500" height="1000" style="" viewBox="0 0 3500 1000"><rect x="0" y="0" width="3500" height="1000" style="fill: rgb(255, 255, 255); fill-opacity: 1;"/><defs id="defs-dfe975"><g class="clips"><clipPath id="clipdfe975xyplot" class="plotclip"><rect width="2582" height="796"/></clipPath><clipPath class="axesclip" id="clipdfe975x"><rect x="160" y="0" width="2582" height="1000"/></clipPath><clipPath class="axesclip" id="clipdfe975y"><rect x="0" y="100" width="3500" height="796"/></clipPath><clipPath class="axesclip" id="clipdfe975xy"><rect x="160" y="100" width="2582" height="796"/></clipPath></g><g class="gradients"/><g class="patterns"/></defs><g class="bglayer"><rect class="bg" x="160" y="100" width="2582" height="796" style="fill: rgb(229, 236, 246); fill-opacity: 1; stroke-width: 0;"/></g><g class="layer-below"><g class="imagelayer"/><g class="shapelayer"/></g><g class="cartesianlayer"><g class="subplot xy"><g class="layer-subplot"><g class="shapelayer"/><g class="imagelayer"/></g><g class="gridlayer"><g class="x"><path class="xgrid crisp" transform="translate(642.62,0)" d="M0,100v796" style="stroke: rgb(255, 255, 255); stroke-opacity: 1; stroke-width: 1px;"/><path class="xgrid crisp" transform="translate(1125.23,0)" d="M0,100v796" style="stroke: rgb(255, 255, 255); stroke-opacity: 1; stroke-width: 1px;"/><path class="xgrid crisp" transform="translate(1607.85,0)" d="M0,100v796" style="stroke: rgb(255, 255, 255); stroke-opacity: 1; stroke-width: 1px;"/><path class="xgrid crisp" transform="translate(2090.4700000000003,0)" d="M0,100v796" style="stroke: rgb(255, 255, 255); stroke-opacity: 1; stroke-width: 1px;"/><path class="xgrid crisp" transform="translate(2573.08,0)" d="M0,100v796" style="stroke: rgb(255, 255, 255); stroke-opacity: 1; stroke-width: 1px;"/></g><g class="y"><path class="ygrid crisp" transform="translate(0,827.76)" d="M160,0h2582" style="stroke: rgb(255, 255, 255); stroke-opacity: 1; stroke-width: 1px;"/><path class="ygrid crisp" transform="translate(0,746.47)" d="M160,0h2582" style="stroke: rgb(255, 255, 255); stroke-opacity: 1; stroke-width: 1px;"/><path class="ygrid crisp" transform="translate(0,665.19)" d="M160,0h2582" style="stroke: rgb(255, 255, 255); stroke-opacity: 1; stroke-width: 1px;"/><path class="ygrid crisp" transform="translate(0,583.9100000000001)" d="M160,0h2582" style="stroke: rgb(255, 255, 255); stroke-opacity: 1; stroke-width: 1px;"/><path class="ygrid crisp" transform="translate(0,421.35)" d="M160,0h2582" style="stroke: rgb(255, 255, 255); stroke-opacity: 1; stroke-width: 1px;"/><path class="ygrid crisp" transform="translate(0,340.07)" d="M160,0h2582" style="stroke: rgb(255, 255, 255); stroke-opacity: 1; stroke-width: 1px;"/><path class="ygrid crisp" transform="translate(0,258.78999999999996)" d="M160,0h2582" style="stroke: rgb(255, 255, 255); stroke-opacity: 1; stroke-width: 1px;"/><path class="ygrid crisp" transform="translate(0,177.51)" d="M160,0h2582" style="stroke: rgb(255, 255, 255); stroke-opacity: 1; stroke-width: 1px;"/></g></g><g class="zerolinelayer"><path class="xzl zl crisp" transform="translate(160,0)" d="M0,100v796" style="stroke: rgb(255, 255, 255); stroke-opacity: 1; stroke-width: 2px;"/><path class="yzl zl crisp" transform="translate(0,502.63)" d="M160,0h2582" style="stroke: rgb(255, 255, 255); stroke-opacity: 1; stroke-width: 2px;"/></g><path class="xlines-below"/><path class="ylines-below"/><g class="overlines-below"/><g class="xaxislayer-below"/><g class="yaxislayer-below"/><g class="overaxes-below"/><g class="plot" transform="translate(160,100)" clip-path="url(#clipdfe975xyplot)"><g class="scatterlayer mlayer"><g class="trace scatter tracea956cc" style="stroke-miterlimit: 2; opacity: 1;"><g class="fills"/><g class="errorbars"/><g class="lines"><path class="js-line" d="M0,133.63L2.41,132.75L4.83,137.08L7.24,136.54L9.65,138.34L12.07,142.82L14.48,144.56L19.3,151.33L21.72,156.66L41.02,203.01L43.44,210.2L53.09,237.65L55.5,243.64L62.74,262.17L65.15,266.53L74.81,283.61L77.22,286.89L79.63,290.93L82.04,292.41L86.87,296.13L89.28,297.4L91.7,299.03L94.11,299.18L101.35,298.16L103.76,297.58L108.59,294.68L111,292.8L115.83,287.55L118.24,283.71L125.48,273.72L127.89,270.67L139.96,247.65L142.37,242.95L147.2,233.9L149.61,229.51L156.85,214.23L159.26,211.91L173.74,193.95L176.16,193.69L180.98,190.4L183.39,191.35L188.22,190.22L190.63,191.92L195.46,195.36L197.87,197.73L205.11,207.61L207.53,211.84L214.76,227.16L217.18,233.09L226.83,260.25L229.24,267.71L265.44,381.84L267.85,388.47L284.74,430.77L287.16,436.38L320.94,515.63L323.35,521.89L340.24,569.23L342.66,576.4L366.79,646.33L369.2,652.49L378.85,674.42L381.27,679.16L390.92,694.83L393.33,697.89L400.57,704.93L402.99,706.54L410.22,709.19L412.64,709.35L417.46,708.58L419.88,707.67L427.12,702.94L429.53,700.73L436.77,692.31L439.18,688.96L448.83,673.15L451.25,668.66L463.31,643.62L465.73,638.2L513.99,527.94L516.4,523.09L533.29,491.42L535.7,487.18L579.14,412.21L581.55,407.33L591.21,385.53L593.62,379.34L603.27,350.52L605.68,342.08L612.92,313.08L615.34,302.07L624.99,251.01L627.4,236.68L644.29,135.52L646.71,123.78L653.95,95.8L656.36,88.47L666.01,63.28L668.42,57.88L673.25,49.67L675.66,47.21L680.49,45.7L682.9,46.58L685.32,48.53L687.73,51.93L690.14,58.96L692.56,60.38L702.21,83.51L704.62,91.63L714.27,129.15L716.69,140.58L723.93,170.27L726.34,181.38L735.99,221.8L738.4,226.9L750.47,264.05L752.88,269.92L755.3,272.89L757.71,277.89L767.36,292.47L769.77,294.65L774.6,299.17L777.01,300.85L784.25,305.42L786.67,306.55L796.32,308.97L798.73,309.35L808.38,309.26L810.8,308.83L822.86,306.12L825.27,305.2L839.75,299.49L842.17,298.47L871.12,287.28L873.54,286.76L883.19,285.26L885.6,285.28L895.25,286.24L897.67,287.12L904.91,289.15L907.32,290.39L909.73,290.95L912.15,292.56L921.8,299.48L924.21,301.43L926.62,301.88L929.04,305.99L948.34,328.04L950.76,330.54L962.82,346.63L965.23,350.35L974.89,362.23L977.3,366L1013.5,422.95L1015.91,428.36L1032.8,464.16L1035.21,470.79L1037.63,474.47L1040.04,480.82L1044.87,493.51L1047.28,500.83L1078.65,594.67L1081.06,600.74L1093.13,629.85L1095.54,632.99L1102.78,643.65L1105.19,646.65L1112.43,650.3L1114.84,650.95L1117.26,651.55L1119.67,650L1124.5,647.98L1126.91,644.95L1131.74,639.37L1134.15,634.94L1138.98,628.04L1141.39,619.29L1143.8,610.86L1146.21,606.55L1155.87,576.63L1158.28,562.35L1163.11,541.55L1165.52,530.59L1172.76,500.63L1175.17,484.49L1180,459.44L1182.41,452.25L1187.24,421.96L1189.65,412.51L1192.06,404.83L1194.48,390.85L1199.3,368.89L1201.72,361.02L1208.96,329.57L1211.37,321.98L1218.61,294.58L1221.02,287.68L1230.67,257.55L1233.09,251.36L1235.5,242.03L1237.91,236.9L1242.74,225.22L1245.15,220.32L1247.56,212.57L1249.98,208.35L1254.8,198.99L1257.22,195.47L1259.63,189.39L1262.04,186.19L1266.87,179.31L1269.28,177.19L1271.7,172.88L1274.11,170.81L1278.93,166.21L1281.35,165.43L1283.76,162.93L1286.17,162.02L1293.41,159.45L1295.83,159.39L1300.65,158.11L1303.07,159.47L1307.89,159.42L1310.3,161.31L1315.13,162.21L1317.54,164.5L1322.37,166.09L1324.78,168.49L1327.2,170.36L1329.61,170.62L1339.26,178.13L1341.67,178.44L1346.5,181.4L1348.91,182.6L1356.15,186.41L1358.57,186.02L1360.98,187.42L1363.39,187.53L1368.22,187.85L1370.63,188.06L1382.7,184.64L1385.11,183.87L1406.83,169.53L1409.24,167.11L1414.07,162.71L1416.48,162.36L1423.72,157.73L1426.13,156.82L1433.37,154.12L1435.79,153.94L1440.61,153.83L1443.02,153.91L1452.68,157.96L1455.09,160.08L1462.33,166.2L1464.74,168.49L1481.63,204.17L1484.05,210.87L1491.29,233.69L1493.7,242.95L1500.94,271.52L1503.35,282.91L1513,328.26L1515.42,346.43L1520.24,373.06L1522.66,383.84L1539.55,474.74L1541.96,486.02L1551.61,526.85L1554.03,534.91L1566.09,575.28L1568.5,579.17L1575.74,594.98L1578.16,598.79L1582.98,605.97L1585.4,609.17L1595.05,617.04L1597.46,618.55L1604.7,616.97L1607.11,617.79L1616.77,611.67L1619.18,609.11L1628.83,598.66L1631.24,593.27L1636.07,582.02L1638.48,579.28L1648.14,559.59L1650.55,553.41L1655.38,544.89L1657.79,537.21L1665.03,518.47L1667.44,513.31L1684.33,475.59L1686.75,469.1L1691.57,459.05L1693.99,455.19L1713.29,422.1L1715.7,420.02L1720.53,413.56L1722.94,409.46L1735.01,396.97L1737.42,394.9L1747.07,387.94L1749.49,386.53L1759.14,382.08L1761.55,381.26L1773.62,378.7L1776.03,378.47L1788.1,378.67L1790.51,379.14L1802.57,380.52L1804.99,380.97L1841.18,385.78L1843.6,385.86L1860.49,385.23L1862.9,384.92L1877.38,382.26L1879.79,381.71L1896.68,375.97L1899.1,374.99L1913.58,367.31L1915.99,365.7L1925.64,358.69L1928.05,355.93L1942.53,339.74L1944.95,336.4L1949.77,327.57L1952.19,322.41L1959.42,308.98L1961.84,302.31L1971.49,272.06L1973.9,262.76L1976.32,254.93L1978.73,243.61L1990.79,188.34L1993.21,172.41L2000.45,140.57L2002.86,123.84L2005.27,120.12L2007.69,108.87L2010.1,95.3L2012.51,92.86L2017.34,73.24L2019.75,70.97L2022.16,66.26L2024.58,56.02L2026.99,51.57L2029.4,53.55L2031.82,46.26L2034.23,42.75L2036.64,39.8L2039.06,45.63L2041.47,41.96L2043.88,43.64L2046.3,50.78L2048.71,54.58L2055.95,69.88L2058.36,75.54L2065.6,94.34L2068.01,101.92L2075.25,130.43L2077.67,141.66L2099.38,246.65L2101.8,256.3L2111.45,289.05L2113.86,295.87L2123.51,318.62L2125.93,323.34L2135.58,339.31L2137.99,342.7L2150.06,357.13L2152.47,359.63L2166.95,373.04L2169.36,375.1L2200.73,402.61L2203.15,404.98L2207.97,408.86L2210.39,412.15L2220.04,423.81L2222.45,427.08L2232.1,440.88L2234.52,446.28L2244.17,463.83L2246.58,471.41L2256.23,495.13L2258.65,504.8L2263.47,521.27L2265.89,532.46L2275.54,569.94L2277.95,584.83L2297.26,677.81L2299.67,685.72L2304.5,706.27L2306.91,711.26L2311.73,726.91L2314.15,733.29L2316.56,736.26L2318.97,744.51L2321.39,745.5L2323.8,748.94L2328.63,755.84L2331.04,753.46L2333.45,753.13L2335.87,755.88L2338.28,756.2L2340.69,754.06L2343.1,747.06L2345.52,744.24L2350.34,742.25L2352.76,732.27L2357.58,718.34L2360,716.91L2362.41,707.49L2364.82,692.35L2369.65,674.59L2372.06,668.87L2374.47,656.91L2376.89,637.59L2381.71,617.22L2384.13,609.5L2388.95,581.24L2391.37,566.39L2396.19,548.4L2398.61,541.74L2410.67,495.51L2413.08,489.12L2420.32,474.68L2422.74,467.56L2432.39,449.62L2434.8,445.69L2449.28,424.94L2451.69,421.76L2475.82,389.27L2478.24,385.59L2490.3,364.67L2492.72,359.86L2502.37,337.99L2504.78,331.79L2514.43,303.88L2516.85,296.13L2531.33,244.81L2533.74,235.89L2548.22,186.32L2550.63,179.34L2557.87,161.4L2560.28,156.44L2567.52,144.62L2569.93,141.7L2572.35,139.28L2574.76,132.77L2577.17,133.9L2579.59,133.33L2582,133.48" style="vector-effect: non-scaling-stroke; fill: none; stroke: rgb(170, 0, 0); stroke-opacity: 1; stroke-width: 4px; opacity: 1;"/></g><g class="points"/><g class="text"/></g><g class="trace scatter trace333e96" style="stroke-miterlimit: 2; opacity: 1;"><g class="fills"/><g class="errorbars"/><g class="lines"><path class="js-line" d="M0,134.4L4.83,134.5L7.24,135.87L19.3,152.65L21.72,156.79L33.78,182.58L36.2,189.64L41.02,206.08L43.44,210.73L45.85,215.32L48.26,223.5L50.67,232.41L53.09,237.23L60.33,255.7L62.74,259.34L65.15,264.87L67.57,273.11L69.98,278.4L72.39,280.01L74.81,282.19L77.22,285.82L82.04,292.43L84.46,294.53L91.7,298.41L94.11,298.93L98.94,298.8L101.35,298.18L108.59,294.14L111,292.1L118.24,283.64L120.65,281.2L132.72,260.67L135.13,255.55L137.55,252.05L139.96,246.71L144.79,238.59L147.2,231.98L152.02,223.36L154.44,219.31L156.85,216.67L159.26,211.01L168.92,198.31L171.33,196.37L176.16,192.43L178.57,191.97L183.39,190.78L185.81,190.82L188.22,190.79L190.63,191.92L195.46,196.11L197.87,198.66L202.7,203.09L205.11,207.41L224.42,251.08L226.83,259.7L231.66,277.71L234.07,284.39L243.72,315.08L246.13,323.02L260.61,368.31L263.03,374.02L267.85,388.01L270.27,396.14L272.68,403.31L275.09,407.26L279.92,417.27L282.33,425.48L287.16,436.38L289.57,440.68L320.94,515.63L323.35,521.89L333.01,548.23L335.42,556.9L337.83,565.94L340.24,571.07L347.48,591.68L349.9,598.5L364.38,643.05L366.79,648.7L381.27,679.76L383.68,684.76L398.16,704.75L400.57,705.96L407.81,709.66L410.22,709.38L417.46,708.69L419.88,710.09L424.7,705.99L427.12,703.57L429.53,699.92L431.94,699.62L444.01,682.39L446.42,680.12L451.25,670.45L453.66,664.56L456.07,658.47L458.49,655.44L460.9,651.86L463.31,645.44L470.55,628.22L472.96,621.89L485.03,593.37L487.44,587.51L497.1,564.38L499.51,559.3L526.05,504.53L528.47,500.1L535.7,487.48L538.12,484.61L547.77,466.77L550.18,462.57L555.01,454.78L557.42,452.22L567.07,434.34L569.49,431.67L588.79,392.7L591.21,385.05L605.68,343.66L608.1,331.82L615.34,302.22L617.75,292.75L622.58,267.91L624.99,250.2L629.81,222.89L632.23,210.39L634.64,197.63L637.05,178.2L641.88,152.42L644.29,140.94L646.71,131.97L649.12,115.14L653.95,95.54L656.36,91.97L658.77,80.33L661.19,74.98L663.6,69.17L666.01,59.16L673.25,45.06L675.66,45.49L680.49,42.78L682.9,46.58L685.32,46.31L687.73,49.78L697.38,71.42L699.79,80.28L702.21,83.11L704.62,89.7L709.45,109.86L711.86,119.43L735.99,220.94L738.4,227.38L745.64,250.23L748.06,257.13L750.47,264.42L752.88,268.17L755.3,271.2L757.71,278.08L760.12,284.1L762.53,285.53L767.36,292.98L769.77,294.62L772.19,295.78L774.6,298.3L779.43,302.73L781.84,304.18L791.49,308.05L793.9,308.59L803.56,309.41L805.97,309.3L818.04,307.29L820.45,306.63L834.93,301.42L837.34,300.4L868.71,287.6L871.12,286.92L883.19,284.92L885.6,284.84L895.25,285.75L897.67,286.31L907.32,289.9L909.73,291.15L919.39,297.48L921.8,299.38L933.86,310.67L936.28,313.24L950.76,330.38L953.17,333.47L977.3,366.54L979.71,370.01L1001.43,403.08L1003.84,407.04L1008.67,416.75L1011.08,421.72L1018.32,433.23L1020.73,438.18L1030.39,458.65L1032.8,463.83L1052.1,514.62L1054.52,522.4L1061.76,543.77L1064.17,551.96L1078.65,593.47L1081.06,602.69L1088.3,619.17L1090.71,624.33L1097.95,637.45L1100.37,640.6L1105.19,645.97L1107.61,648.25L1114.84,650.97L1117.26,650.29L1124.5,647.47L1126.91,644.91L1134.15,636.61L1136.56,631.25L1141.39,616.53L1143.8,613.65L1146.21,608.97L1148.63,599.67L1153.45,578.02L1155.87,573.02L1158.28,566.51L1160.69,553.83L1165.52,526.98L1167.93,519.85L1170.35,512.01L1172.76,498.21L1187.24,424.34L1189.65,416.32L1201.72,359.02L1204.13,348.68L1213.78,311.03L1216.19,304.82L1225.85,271.34L1228.26,265.75L1233.09,250.08L1235.5,245.19L1240.33,230.74L1242.74,226.42L1247.56,213.46L1249.98,208.17L1254.8,198.5L1257.22,195.47L1266.87,178.74L1269.28,176.87L1274.11,170.15L1276.52,169.03L1281.35,163.94L1283.76,163.01L1288.59,159.98L1291,160.48L1295.83,159.33L1298.24,159.2L1300.65,158.11L1303.07,159.47L1307.89,159.42L1310.3,161.31L1315.13,162.21L1317.54,164.35L1319.96,165.97L1322.37,166.08L1332.02,172.8L1334.44,173.79L1339.26,178.13L1341.67,178.39L1348.91,183.56L1351.33,183.71L1358.57,187.1L1360.98,186.73L1368.22,188.07L1370.63,188.07L1375.46,187L1377.87,186.71L1392.35,180.11L1394.76,177.07L1402,172.65L1404.41,170.12L1409.24,167.71L1411.65,165.35L1416.48,161.17L1418.89,160.86L1428.55,154.89L1430.96,154.85L1433.37,154.6L1435.79,152.66L1445.44,155.37L1447.85,154.37L1455.09,160.05L1457.5,160.32L1464.74,171.8L1467.16,173.28L1469.57,175.47L1471.98,181.61L1474.39,187.72L1476.81,190.06L1486.46,217.97L1488.87,221.47L1503.35,286.02L1505.76,293.45L1508.18,301.71L1510.59,315.67L1515.42,347.75L1517.83,356.06L1520.24,366.39L1522.66,381.66L1527.48,414.88L1529.9,424.59L1532.31,433.61L1534.72,448.14L1539.55,477.49L1541.96,488.67L1546.79,507.6L1549.2,517.4L1563.68,568.83L1566.09,573.13L1573.33,590.34L1575.74,594.55L1582.98,606.26L1585.4,608.93L1590.22,613.59L1592.64,615.44L1599.87,618.09L1602.29,618.34L1609.53,616.47L1611.94,615.3L1619.18,609.11L1621.59,606.71L1631.24,593.08L1633.66,588.43L1650.55,555.62L1652.96,549.92L1657.79,537.07L1660.2,530.64L1669.85,507.59L1672.27,501.3L1679.51,484.73L1681.92,480.81L1701.22,441.39L1703.64,438.47L1718.12,415.73L1720.53,413.56L1732.59,399.39L1735.01,397.28L1742.25,391.88L1744.66,390.16L1751.9,385.74L1754.31,384.72L1763.96,380.97L1766.38,380.51L1776.03,378.94L1778.44,378.8L1785.68,378.82L1788.1,379.08L1800.16,379.91L1802.57,380.6L1841.18,385.49L1843.6,385.42L1848.42,385.82L1850.84,385.46L1860.49,385.03L1862.9,384.84L1879.79,381.14L1882.21,380.75L1903.92,372.34L1906.34,371.11L1918.4,363.73L1920.81,361.96L1930.47,353.62L1932.88,351.16L1942.53,339.36L1944.95,335.82L1952.19,323.44L1954.6,318.63L1961.84,301.69L1964.25,295.11L1971.49,272.06L1973.9,263.2L1983.56,221.63L1985.97,209.84L2005.27,113.3L2007.69,103.76L2014.93,81.56L2017.34,75.98L2026.99,57.5L2029.4,53.55L2034.23,47.64L2036.64,46.1L2039.06,45.63L2041.47,46.25L2046.3,50.78L2048.71,54.58L2055.95,69.88L2058.36,75.54L2065.6,94.34L2068.01,101.92L2075.25,130.43L2077.67,141.66L2099.38,246.65L2101.8,256.3L2111.45,289.05L2113.86,295.87L2123.51,318.62L2125.93,323.34L2135.58,339.31L2137.99,342.7L2150.06,357.13L2152.47,359.63L2166.95,373.04L2169.36,375.1L2203.15,404.47L2205.56,406.88L2217.62,420.31L2220.04,423.34L2229.69,437.08L2232.1,440.99L2241.76,459.11L2244.17,464.38L2253.82,489.16L2256.23,496.43L2265.89,530.53L2268.3,540.38L2275.54,574.7L2277.95,589.52L2280.36,598.16L2282.78,610.99L2287.6,631.99L2290.02,643.69L2297.26,675.75L2299.67,684.3L2304.5,702.31L2306.91,711.26L2316.56,736.26L2318.97,741.35L2323.8,749.5L2326.21,752.4L2331.04,755.71L2333.45,756.18L2338.28,754.82L2340.69,753L2345.52,746.97L2347.93,742.72L2355.17,725.41L2357.58,718.34L2372.06,665.74L2374.47,653.96L2396.19,551.16L2398.61,541.84L2405.84,510.03L2408.26,503.92L2422.74,468.15L2425.15,463.26L2434.8,446.27L2437.21,442.36L2456.52,415.85L2458.93,412.97L2483.06,378.36L2485.48,373.23L2499.96,345.71L2502.37,339.07L2519.26,288.67L2521.67,280.14L2526.5,261.2L2528.91,251.52L2553.04,172.93L2555.46,167.03L2562.7,151.63L2565.11,147.56L2572.35,138.67L2574.76,136.42L2579.59,133.73L2582,134.01" style="vector-effect: non-scaling-stroke; fill: none; stroke: rgb(0, 170, 0); stroke-opacity: 1; stroke-width: 4px; opacity: 1;"/></g><g class="points"/><g class="text"/></g></g></g><g class="overplot"/><path class="xlines-above crisp" d="M0,0" style="fill: none;"/><path class="ylines-above crisp" d="M0,0" style="fill: none;"/><g class="overlines-above"/><g class="xaxislayer-above"><g class="xtick"><text text-anchor="middle" x="0" y="934" transform="translate(160,0)" style="font-family: 'Open Sans', verdana, arial, sans-serif; font-size: 37px; fill: rgb(42, 63, 95); fill-opacity: 1; white-space: pre; opacity: 1;">0</text></g><g class="xtick"><text text-anchor="middle" x="0" y="934" style="font-family: 'Open Sans', verdana, arial, sans-serif; font-size: 37px; fill: rgb(42, 63, 95); fill-opacity: 1; white-space: pre; opacity: 1;" transform="translate(642.62,0)">200</text></g><g class="xtick"><text text-anchor="middle" x="0" y="934" style="font-family: 'Open Sans', verdana, arial, sans-serif; font-size: 37px; fill: rgb(42, 63, 95); fill-opacity: 1; white-space: pre; opacity: 1;" transform="translate(1125.23,0)">400</text></g><g class="xtick"><text text-anchor="middle" x="0" y="934" style="font-family: 'Open Sans', verdana, arial, sans-serif; font-size: 37px; fill: rgb(42, 63, 95); fill-opacity: 1; white-space: pre; opacity: 1;" transform="translate(1607.85,0)">600</text></g><g class="xtick"><text text-anchor="middle" x="0" y="934" style="font-family: 'Open Sans', verdana, arial, sans-serif; font-size: 37px; fill: rgb(42, 63, 95); fill-opacity: 1; white-space: pre; opacity: 1;" transform="translate(2090.4700000000003,0)">800</text></g><g class="xtick"><text text-anchor="middle" x="0" y="934" style="font-family: 'Open Sans', verdana, arial, sans-serif; font-size: 37px; fill: rgb(42, 63, 95); fill-opacity: 1; white-space: pre; opacity: 1;" transform="translate(2573.08,0)">1000</text></g></g><g class="yaxislayer-above"><g class="ytick"><text text-anchor="end" x="159" y="12.95" transform="translate(0,827.76)" style="font-family: 'Open Sans', verdana, arial, sans-serif; font-size: 37px; fill: rgb(42, 63, 95); fill-opacity: 1; white-space: pre; opacity: 1;">−200</text></g><g class="ytick"><text text-anchor="end" x="159" y="12.95" style="font-family: 'Open Sans', verdana, arial, sans-serif; font-size: 37px; fill: rgb(42, 63, 95); fill-opacity: 1; white-space: pre; opacity: 1;" transform="translate(0,746.47)">−150</text></g><g class="ytick"><text text-anchor="end" x="159" y="12.95" style="font-family: 'Open Sans', verdana, arial, sans-serif; font-size: 37px; fill: rgb(42, 63, 95); fill-opacity: 1; white-space: pre; opacity: 1;" transform="translate(0,665.19)">−100</text></g><g class="ytick"><text text-anchor="end" x="159" y="12.95" style="font-family: 'Open Sans', verdana, arial, sans-serif; font-size: 37px; fill: rgb(42, 63, 95); fill-opacity: 1; white-space: pre; opacity: 1;" transform="translate(0,583.9100000000001)">−50</text></g><g class="ytick"><text text-anchor="end" x="159" y="12.95" style="font-family: 'Open Sans', verdana, arial, sans-serif; font-size: 37px; fill: rgb(42, 63, 95); fill-opacity: 1; white-space: pre; opacity: 1;" transform="translate(0,502.63)">0</text></g><g class="ytick"><text text-anchor="end" x="159" y="12.95" style="font-family: 'Open Sans', verdana, arial, sans-serif; font-size: 37px; fill: rgb(42, 63, 95); fill-opacity: 1; white-space: pre; opacity: 1;" transform="translate(0,421.35)">50</text></g><g class="ytick"><text text-anchor="end" x="159" y="12.95" style="font-family: 'Open Sans', verdana, arial, sans-serif; font-size: 37px; fill: rgb(42, 63, 95); fill-opacity: 1; white-space: pre; opacity: 1;" transform="translate(0,340.07)">100</text></g><g class="ytick"><text text-anchor="end" x="159" y="12.95" style="font-family: 'Open Sans', verdana, arial, sans-serif; font-size: 37px; fill: rgb(42, 63, 95); fill-opacity: 1; white-space: pre; opacity: 1;" transform="translate(0,258.78999999999996)">150</text></g><g class="ytick"><text text-anchor="end" x="159" y="12.95" style="font-family: 'Open Sans', verdana, arial, sans-serif; font-size: 37px; fill: rgb(42, 63, 95); fill-opacity: 1; white-space: pre; opacity: 1;" transform="translate(0,177.51)">200</text></g></g><g class="overaxes-above"/></g></g><g class="polarlayer"/><g class="ternarylayer"/><g class="geolayer"/><g class="funnelarealayer"/><g class="pielayer"/><g class="iciclelayer"/><g class="treemaplayer"/><g class="sunburstlayer"/><g class="glimages"/><defs id="topdefs-dfe975"><g class="clips"/><clipPath id="legenddfe975"><rect width="694" height="113" x="0" y="0"/></clipPath></defs><g class="layer-above"><g class="imagelayer"/><g class="shapelayer"/></g><g class="infolayer"><g class="legend" pointer-events="all" transform="translate(2793.64,100)"><rect class="bg" shape-rendering="crispEdges" width="694" height="113" x="0" y="0" style="stroke: rgb(68, 68, 68); stroke-opacity: 1; fill: rgb(255, 255, 255); fill-opacity: 1; stroke-width: 0px;"/><g class="scrollbox" transform="" clip-path="url(#legenddfe975)"><g class="groups"><g class="traces" transform="translate(0,30.55)" style="opacity: 1;"><text class="legendtext" text-anchor="start" x="40" y="14.43" style="font-family: 'Open Sans', verdana, arial, sans-serif; font-size: 37px; fill: rgb(42, 63, 95); fill-opacity: 1; white-space: pre;">Predicted Curvature at Anchors #1</text><g class="layers" style="opacity: 1;"><g class="legendfill"/><g class="legendlines"><path class="js-line" d="M5,0h30" style="fill: none; stroke: rgb(170, 0, 0); stroke-opacity: 1; stroke-width: 4px;"/></g><g class="legendsymbols"><g class="legendpoints"/></g></g><rect class="legendtoggle" x="0" y="-25.55" width="688.125" height="51.1" style="fill: rgb(0, 0, 0); fill-opacity: 0;"/></g><g class="traces" transform="translate(0,81.65)" style="opacity: 1;"><text class="legendtext" text-anchor="start" x="40" y="14.43" style="font-family: 'Open Sans', verdana, arial, sans-serif; font-size: 37px; fill: rgb(42, 63, 95); fill-opacity: 1; white-space: pre;">Predicted Curvature at Anchors #2</text><g class="layers" style="opacity: 1;"><g class="legendfill"/><g class="legendlines"><path class="js-line" d="M5,0h30" style="fill: none; stroke: rgb(0, 170, 0); stroke-opacity: 1; stroke-width: 4px;"/></g><g class="legendsymbols"><g class="legendpoints"/></g></g><rect class="legendtoggle" x="0" y="-25.55" width="688.125" height="51.1" style="fill: rgb(0, 0, 0); fill-opacity: 0;"/></g></g></g><rect class="scrollbar" rx="20" ry="3" width="0" height="0" x="0" y="0" style="fill: rgb(128, 139, 164); fill-opacity: 1;"/></g><g class="g-gtitle"/><g class="g-xtitle"><text class="xtitle" x="1451" y="987.8" text-anchor="middle" style="font-family: 'Open Sans', verdana, arial, sans-serif; font-size: 44px; fill: rgb(42, 63, 95); opacity: 1; font-weight: normal; white-space: pre;">Anchor Point Index</text></g><g class="g-ytitle" transform="translate(31.6591796875,0)"><text class="ytitle" transform="rotate(-90,12.340624999999989,498)" x="12.340624999999989" y="498" text-anchor="middle" style="font-family: 'Open Sans', verdana, arial, sans-serif; font-size: 44px; fill: rgb(42, 63, 95); opacity: 1; font-weight: normal; white-space: pre;">Predicted Curvature</text></g><g class="annotation" data-index="0" style="opacity: 1;"><g class="annotation-text-g" transform="rotate(0,1451,66.49999999999993)"><g class="cursor-pointer" transform="translate(234,33)"><rect class="bg" x="0.5" y="0.5" width="2433" height="66" style="stroke-width: 1px; stroke: rgb(0, 0, 0); stroke-opacity: 0; fill: rgb(0, 0, 0); fill-opacity: 0;"/><text class="annotation-text" text-anchor="middle" x="1217.03125" y="54" style="font-family: 'Open Sans', verdana, arial, sans-serif; font-size: 52px; fill: rgb(42, 63, 95); fill-opacity: 1; white-space: pre;"><tspan style="font-weight:bold">Predicted Curvature at Anchors (Transformed Curve #1 vs. Transformed Curve #2)</tspan></text></g></g></g></g></svg>