<svg class="main-svg" xmlns="http://www.w3.org/2000/svg" xmlns:xlink="http://www.w3.org/1999/xlink" width="3500" height="1000" style="" viewBox="0 0 3500 1000"><rect x="0" y="0" width="3500" height="1000" style="fill: rgb(255, 255, 255); fill-opacity: 1;"/><defs id="defs-571079"><g class="clips"><clipPath id="clip571079xyplot" class="plotclip"><rect width="2582" height="796"/></clipPath><clipPath class="axesclip" id="clip571079x"><rect x="160" y="0" width="2582" height="1000"/></clipPath><clipPath class="axesclip" id="clip571079y"><rect x="0" y="100" width="3500" height="796"/></clipPath><clipPath class="axesclip" id="clip571079xy"><rect x="160" y="100" width="2582" height="796"/></clipPath></g><g class="gradients"/><g class="patterns"/></defs><g class="bglayer"><rect class="bg" x="160" y="100" width="2582" height="796" style="fill: rgb(229, 236, 246); fill-opacity: 1; stroke-width: 0;"/></g><g class="layer-below"><g class="imagelayer"/><g class="shapelayer"/></g><g class="cartesianlayer"><g class="subplot xy"><g class="layer-subplot"><g class="shapelayer"/><g class="imagelayer"/></g><g class="gridlayer"><g class="x"><path class="xgrid crisp" transform="translate(653.69,0)" d="M0,100v796" style="stroke: rgb(255, 255, 255); stroke-opacity: 1; stroke-width: 1px;"/><path class="xgrid crisp" transform="translate(1147.38,0)" d="M0,100v796" style="stroke: rgb(255, 255, 255); stroke-opacity: 1; stroke-width: 1px;"/><path class="xgrid crisp" transform="translate(1641.07,0)" d="M0,100v796" style="stroke: rgb(255, 255, 255); stroke-opacity: 1; stroke-width: 1px;"/><path class="xgrid crisp" transform="translate(2134.76,0)" d="M0,100v796" style="stroke: rgb(255, 255, 255); stroke-opacity: 1; stroke-width: 1px;"/><path class="xgrid crisp" transform="translate(2628.45,0)" d="M0,100v796" style="stroke: rgb(255, 255, 255); stroke-opacity: 1; stroke-width: 1px;"/></g><g class="y"><path class="ygrid crisp" transform="translate(0,871.44)" d="M160,0h2582" style="stroke: rgb(255, 255, 255); stroke-opacity: 1; stroke-width: 1px;"/><path class="ygrid crisp" transform="translate(0,771.45)" d="M160,0h2582" style="stroke: rgb(255, 255, 255); stroke-opacity: 1; stroke-width: 1px;"/><path class="ygrid crisp" transform="translate(0,671.45)" d="M160,0h2582" style="stroke: rgb(255, 255, 255); stroke-opacity: 1; stroke-width: 1px;"/><path class="ygrid crisp" transform="translate(0,571.46)" d="M160,0h2582" style="stroke: rgb(255, 255, 255); stroke-opacity: 1; stroke-width: 1px;"/><path class="ygrid crisp" transform="translate(0,371.47)" d="M160,0h2582" style="stroke: rgb(255, 255, 255); stroke-opacity: 1; stroke-width: 1px;"/><path class="ygrid crisp" transform="translate(0,271.48)" d="M160,0h2582" style="stroke: rgb(255, 255, 255); stroke-opacity: 1; stroke-width: 1px;"/><path class="ygrid crisp" transform="translate(0,171.49)" d="M160,0h2582" style="stroke: rgb(255, 255, 255); stroke-opacity: 1; stroke-width: 1px;"/></g></g><g class="zerolinelayer"><path class="xzl zl crisp" transform="translate(160,0)" d="M0,100v796" style="stroke: rgb(255, 255, 255); stroke-opacity: 1; stroke-width: 2px;"/><path class="yzl zl crisp" transform="translate(0,471.47)" d="M160,0h2582" style="stroke: rgb(255, 255, 255); stroke-opacity: 1; stroke-width: 2px;"/></g><path class="xlines-below"/><path class="ylines-below"/><g class="overlines-below"/><g class="xaxislayer-below"/><g class="yaxislayer-below"/><g class="overaxes-below"/><g class="plot" transform="translate(160,100)" clip-path="url(#clip571079xyplot)"><g class="scatterlayer mlayer"><g class="trace scatter trace7b1663" style="stroke-miterlimit: 2; opacity: 1;"><g class="fills"/><g class="errorbars"/><g class="lines"><path class="js-line" d="M0,203.75L9.87,198.49L12.34,197.76L22.22,193.2L24.68,192.62L27.15,192.86L29.62,190.12L32.09,189.32L34.56,190.16L39.5,186.15L41.96,186.02L44.43,185.02L46.9,185.53L51.84,182.25L54.31,182.25L64.18,179.64L66.65,179.14L81.46,177.27L83.93,177.19L96.27,177.95L98.74,178.36L111.08,181.81L113.55,182.79L125.89,189.1L128.36,190.63L143.17,201.47L145.64,203.5L167.85,223.44L170.32,225.72L195.01,247.22L197.48,249.14L212.29,259.43L214.76,260.93L229.57,268.59L232.03,269.66L249.31,275.6L251.78,276.26L274,281.01L276.47,281.47L301.15,287.16L303.62,287.95L315.96,292.96L318.43,294.21L323.37,297.66L325.84,298.59L333.24,304.97L335.71,305.43L338.18,307.39L340.65,310.78L345.58,316.9L348.05,317.84L350.52,320.42L352.99,324.66L365.33,342.73L367.8,347.29L380.14,370.28L382.61,376L397.42,409.8L399.89,415.88L407.29,433.56L409.76,441.44L412.23,445.26L414.7,451.57L427.04,480.86L429.51,484.19L439.38,502.07L441.85,505.63L446.79,512.47L449.26,515.88L461.6,525.09L464.07,524.33L466.54,525.27L469.01,525.06L471.47,525.93L473.94,523.49L481.35,521.07L483.82,517.09L488.75,512.21L491.22,510.96L496.16,501.59L498.63,498.49L501.1,496.38L503.56,492.06L506.03,484.33L508.5,480.26L513.44,473.45L515.91,466.71L520.84,456.12L523.31,450.95L530.72,436.61L533.19,430.05L538.12,418.78L540.59,415.03L548,397.88L550.46,393.13L575.15,346.73L577.62,342.8L587.49,326.67L589.96,323.13L597.37,311.64L599.83,309.7L624.52,279.83L626.99,277.9L631.92,272.15L634.39,270.75L641.8,264L644.27,262.82L649.2,257.84L651.67,257.1L659.08,251.41L661.54,251.05L671.42,245.75L673.89,244.87L676.36,244.61L678.82,243.02L681.29,241.68L683.76,241.54L688.7,240.87L691.17,241.18L696.1,238.9L698.57,239.22L718.32,241.2L720.79,241.78L733.13,245.89L735.6,246.94L750.41,254.69L752.88,256.2L772.63,269.85L775.09,271.68L789.9,283.46L792.37,283.67L797.31,287.87L799.78,290.11L812.12,297.22L814.59,298.12L819.53,300.03L821.99,300.67L836.8,303.99L839.27,303.76L849.15,302.56L851.62,302.1L856.55,300.3L859.02,299.19L868.89,293.05L871.36,291.15L881.24,281.56L883.71,278.8L893.58,265.53L896.05,261.87L908.39,240.26L910.86,235.29L925.67,203.28L928.14,195.86L935.54,178.63L938.01,174.09L955.29,132.32L957.76,127.25L965.16,113.4L967.63,107.99L972.57,99.35L975.04,97.67L984.91,88.2L987.38,86.45L989.85,83.59L992.32,84.18L994.79,83.57L997.25,81.66L999.72,82.91L1002.19,82.79L1007.13,85.18L1009.6,84.43L1019.47,94.23L1021.94,96.25L1024.41,96.74L1026.88,100.6L1034.28,110.71L1036.75,113.91L1061.43,145.69L1063.9,146.98L1066.37,147.75L1068.84,150.7L1073.78,155.07L1076.24,156.63L1083.65,160.17L1086.12,160.65L1088.59,162.47L1091.06,162.14L1093.52,161.48L1095.99,162.51L1100.93,162.72L1103.4,162.02L1105.87,162.99L1108.33,162.1L1110.8,160.92L1113.27,161.4L1118.21,160.09L1120.68,160.96L1125.61,158.99L1128.08,159.66L1130.55,159.22L1133.02,160.53L1137.96,159.38L1140.42,160.69L1145.36,162.49L1147.83,164.92L1152.77,165.53L1155.24,168.05L1160.17,173.67L1162.64,177.69L1167.58,180.62L1170.05,184.66L1179.92,205.87L1182.39,208.39L1184.86,211.96L1187.33,218.04L1199.67,257.55L1202.14,262.76L1204.6,268.47L1207.07,277.24L1214.48,309.15L1216.95,319.63L1221.88,345.12L1224.35,353.37L1229.29,374.43L1231.76,390.3L1244.1,456.99L1246.57,474.34L1251.5,498.24L1253.97,510.12L1273.72,609.68L1276.19,619.67L1286.06,653.16L1288.53,659.88L1295.94,676.12L1298.41,680.26L1303.34,686.69L1305.81,689L1308.28,691.68L1310.75,691.98L1313.22,692.38L1315.68,695.57L1318.15,693.85L1320.62,690.66L1325.56,686.81L1328.03,684.11L1335.43,673.17L1337.9,668.64L1347.77,646.86L1350.24,640.68L1362.59,607.48L1365.05,598.96L1369.99,587.44L1372.46,583.84L1384.8,550.76L1387.27,546.6L1394.67,536.31L1397.14,529.93L1404.55,523.63L1407.02,521.46L1409.49,517.9L1411.95,517.15L1414.42,515.99L1416.89,516.18L1419.36,515.28L1421.83,515.73L1426.76,516.71L1429.23,518.76L1431.7,519.86L1434.17,522.37L1436.64,524.73L1439.11,529.15L1441.58,531.54L1444.04,535.58L1451.45,551.81L1453.92,556.11L1456.39,562.24L1458.85,571.41L1463.79,586.61L1466.26,596.72L1476.13,630.14L1478.6,643.13L1495.88,706.79L1498.35,712.43L1508.22,737.53L1510.69,741.56L1513.16,746.87L1515.63,748L1518.1,751.42L1520.57,752.42L1523.03,756.2L1525.5,755.27L1530.44,753.61L1532.91,750.96L1535.38,750.54L1537.85,747.1L1540.31,744.29L1542.78,739.29L1550.19,723.65L1552.66,715.59L1555.12,707.27L1557.59,692.52L1562.53,670.7L1565,660.45L1572.4,617.39L1574.87,599.75L1584.75,531.15L1587.21,508.58L1592.15,455.97L1594.62,437.67L1599.56,400.99L1602.02,379.66L1616.84,268.67L1619.3,253.4L1626.71,211.8L1629.18,199.3L1634.11,168.92L1636.58,158.45L1641.52,140.51L1643.99,130.75L1653.86,98.01L1656.33,90.7L1666.2,67.9L1668.67,63.63L1676.08,52.31L1678.55,49.38L1685.95,43.3L1688.42,41.67L1695.83,40.36L1698.29,40.09L1708.17,43.9L1710.64,45.76L1718.04,52.02L1720.51,54.47L1735.32,72.21L1737.79,75.89L1745.2,85.39L1747.66,89.15L1755.07,98.51L1757.54,102.09L1769.88,117.01L1772.35,120.23L1787.16,137.45L1789.63,140.19L1799.5,152.29L1801.97,154.12L1809.37,166.89L1811.84,169.69L1819.25,179.61L1821.72,185.43L1824.19,191.86L1826.65,194.23L1834.06,209.5L1836.53,212.97L1839,218.86L1841.46,229.04L1843.93,236.13L1846.4,239.47L1848.87,243.76L1851.34,250.69L1856.28,267.89L1858.74,275.64L1871.09,318.08L1873.55,327.24L1893.3,405.45L1895.77,415.41L1913.05,480.85L1915.52,489.14L1925.39,518.37L1927.86,524.55L1935.27,540.06L1937.73,544.15L1940.2,549.62L1942.67,552.16L1950.08,556.47L1952.54,556.41L1957.48,555.5L1959.95,554L1962.42,552.58L1964.89,549.92L1972.29,539.65L1974.76,534.97L1982.17,513.82L1984.63,503.9L1987.1,497.82L1989.57,488.93L1996.98,460.87L1999.45,449.25L2009.32,412.02L2011.79,395.24L2016.72,360.62L2019.19,353.87L2024.13,334.35L2026.6,325.95L2031.54,304.11L2034,296.68L2038.94,278.37L2041.41,272.06L2046.35,256.17L2048.81,250.36L2056.22,236.59L2058.69,232.47L2066.09,222.61L2068.56,219.59L2080.9,210.34L2083.37,209.43L2093.25,208.1L2095.72,208.3L2100.65,208.71L2103.12,209.66L2110.53,210.3L2112.99,211.08L2122.87,213.14L2125.34,213.45L2132.74,214.15L2135.21,212.61L2140.15,212.67L2142.62,211.31L2152.49,207.78L2154.96,203.74L2159.89,201.28L2162.36,196.26L2167.3,192.29L2169.77,186.24L2177.17,174.97L2179.64,168.98L2187.05,154.78L2189.52,148.02L2194.45,138.6L2196.92,130.85L2206.8,109.16L2209.26,104.86L2214.2,93.87L2216.67,87.63L2226.54,73.51L2229.01,68.83L2236.42,63.83L2238.89,62.67L2241.35,59.64L2243.82,59.37L2248.76,62.39L2251.23,60.16L2256.16,65.79L2258.63,65.66L2263.57,75.54L2266.04,76.24L2273.44,98.66L2275.91,103.16L2278.38,106.19L2280.85,118.74L2285.79,143.2L2288.25,154.35L2293.19,174.98L2295.66,186.16L2312.94,323.42L2315.41,345.29L2330.22,471.66L2332.69,489.84L2340.09,534.67L2342.56,554.47L2347.5,577.91L2349.97,586.59L2352.43,594.57L2354.9,607.24L2362.31,628.93L2364.78,635.32L2374.65,651.31L2377.12,650.81L2384.52,655.95L2386.99,652.71L2389.46,650.8L2391.93,651.09L2394.4,650.57L2396.87,644.38L2399.33,639.38L2401.8,637.57L2406.74,625.23L2409.21,617.16L2411.68,614.61L2414.15,609.85L2424.02,571.64L2426.49,563.05L2433.89,533.71L2436.36,522.46L2446.24,478.53L2448.7,471.1L2458.58,427.35L2461.05,420.69L2465.98,401.02L2468.45,392.17L2470.92,381.81L2473.39,376.11L2478.33,359.33L2480.79,351.85L2483.26,343.31L2485.73,338.54L2490.67,324.68L2493.14,318.48L2498.07,307.65L2500.54,301.27L2512.88,277.75L2515.35,273.99L2527.69,253.24L2530.16,250.36L2537.57,242.02L2540.04,238.94L2549.91,228.22L2552.38,226.08L2562.25,217.81L2564.72,215.76L2582,204.86" style="vector-effect: non-scaling-stroke; fill: none; stroke: rgb(170, 0, 0); stroke-opacity: 1; stroke-width: 4px; opacity: 1;"/></g><g class="points"/><g class="text"/></g><g class="trace scatter traceff0800" style="stroke-miterlimit: 2; opacity: 1;"><g class="fills"/><g class="errorbars"/><g class="lines"><path class="js-line" d="M0,203.07L2.47,201.41L4.94,201.16L7.41,200.47L9.87,198.23L14.81,196.28L17.28,194.98L27.15,191.01L29.62,191.35L34.56,187.86L37.03,187.69L44.43,185.02L46.9,185.53L49.37,183.48L51.84,182.85L54.31,183.91L56.77,181.4L66.65,178.74L69.12,179.28L78.99,177.33L81.46,177.56L88.86,177.68L91.33,177.67L101.21,178.91L103.67,179.85L113.55,183.08L116.02,184.07L133.3,194.24L135.76,195.92L148.11,205.8L150.58,207.85L172.79,228.05L175.26,230.25L192.54,245.29L195.01,247.26L212.29,259.5L214.76,260.59L232.03,270.13L234.5,270.85L246.85,274.8L249.31,275.5L254.25,277.09L256.72,277.95L288.81,284.4L291.28,285.02L293.75,285.02L296.21,286.24L306.09,288.31L308.56,290.09L323.37,296.36L325.84,298.88L335.71,306.82L338.18,309.3L340.65,309.94L343.11,312.14L350.52,322.74L352.99,323.92L355.46,326.77L357.93,331.37L367.8,348.08L370.27,352.93L372.74,355.3L375.2,359.17L382.61,377.38L385.08,380.62L387.55,384.99L390.02,391.59L394.95,405.34L397.42,409.36L402.36,420.72L404.83,428.81L409.76,439.63L412.23,444.29L422.11,469.9L424.57,473.78L439.38,503.2L441.85,505.46L446.79,512.03L449.26,515.2L451.73,517.82L454.2,518.88L456.66,521.99L459.13,522.64L461.6,524.7L464.07,524.33L466.54,525.27L469.01,524.63L471.47,524.84L473.94,523.49L476.41,522.99L478.88,520.96L481.35,519.77L483.82,517.09L488.75,513.67L491.22,509.27L508.5,481.63L510.97,476.54L520.84,456.49L523.31,451.46L550.46,393.54L552.93,388.47L575.15,345.64L577.62,342.35L604.77,302.52L607.24,299.39L624.52,279.44L626.99,277.03L641.8,264.42L644.27,262.34L666.48,247.6L668.95,247.37L681.29,242.85L683.76,242.23L686.23,241.97L688.7,240.44L693.63,240.62L696.1,239.99L698.57,239.41L701.04,240L703.51,240.27L705.98,239.17L710.91,240.85L713.38,240.84L718.32,240.74L720.79,242.33L725.72,243.88L728.19,244.1L730.66,244.31L733.13,246.35L735.6,248.18L738.07,248.06L745.47,252.66L747.94,253.1L750.41,253.86L752.88,256.49L755.35,258.73L757.81,259.38L772.63,269.85L775.09,270.47L780.03,276.43L782.5,277.21L789.9,282.64L792.37,283.25L797.31,288.64L799.78,289.42L802.25,289.91L804.72,291.66L807.18,294.64L809.65,295.97L817.06,298.16L819.53,300.44L824.46,301.52L826.93,301.37L834.34,303.48L836.8,303.66L841.74,303.83L844.21,303.38L849.15,302.3L851.62,301.83L861.49,297.65L863.96,296.21L873.83,288.77L876.3,286.49L886.17,275.53L888.64,272.33L898.52,257.63L900.98,253.48L913.33,229.98L915.8,224.76L933.07,184.64L935.54,178.6L955.29,132.07L957.76,127.24L960.23,123.38L962.7,117.21L972.57,101.14L975.04,97.88L977.51,93.63L979.98,91.71L982.44,90.03L984.91,87.05L987.38,86.64L989.85,85.16L994.79,82.55L997.25,82.94L999.72,83.28L1002.19,81.84L1007.13,85.18L1009.6,85.78L1014.53,89.63L1017,89.55L1026.88,101.63L1029.34,102.43L1039.22,117.16L1041.69,118.41L1049.09,131.25L1051.56,133.22L1054.03,134.43L1056.5,138.2L1063.9,148.14L1066.37,149.28L1068.84,149.92L1071.31,152.69L1076.24,156.63L1078.71,157.99L1088.59,161.65L1091.06,162.14L1100.93,162.72L1103.4,162.59L1135.49,160.01L1137.96,160.39L1145.36,162.6L1147.83,163.75L1155.24,168.62L1157.7,170.75L1165.11,178.82L1167.58,182.1L1174.98,193.79L1177.45,198.33L1187.33,219.82L1189.79,228.14L1192.26,235.58L1194.73,239.62L1204.6,268.47L1207.07,280.35L1209.54,292.27L1212.01,299.08L1229.29,375.16L1231.76,387.1L1239.16,429.76L1241.63,443.32L1266.32,576.24L1268.78,587.93L1278.66,629.03L1281.13,637.74L1288.53,659.88L1291,665.94L1298.41,680.26L1300.87,683.78L1308.28,691.68L1310.75,692.95L1313.22,693.08L1315.68,694.46L1320.62,692.25L1323.09,691.34L1335.43,674.33L1337.9,670.17L1350.24,641.78L1352.71,635.73L1374.93,574.77L1377.4,570.09L1392.21,538.79L1394.67,535.5L1399.61,528.22L1402.08,525.11L1409.49,518.83L1411.95,517.91L1419.36,515.28L1421.83,516.21L1431.7,519.55L1434.17,522.39L1436.64,524.47L1439.11,528.71L1446.51,541.51L1448.98,544.23L1453.92,557.66L1456.39,564.03L1458.85,572.46L1461.32,576.78L1468.73,604.47L1471.2,616.6L1483.54,659.01L1486.01,670.7L1490.94,690.93L1493.41,697.71L1495.88,703.47L1498.35,711.82L1503.29,725.58L1505.76,733.02L1510.69,742.01L1513.16,744.08L1515.63,748.65L1518.1,750.47L1523.03,753.66L1525.5,755.15L1527.97,754.16L1530.44,754.33L1532.91,752.01L1535.38,752.77L1542.78,738.02L1545.25,731.23L1547.72,728.77L1550.19,722.86L1552.66,715.61L1555.12,704.83L1560.06,685.42L1562.53,673.8L1567.47,653.92L1569.93,632.07L1572.4,611.18L1574.87,599.34L1577.34,590.29L1579.81,563.86L1584.75,521.37L1587.21,511.71L1589.68,489.53L1592.15,455.97L1597.09,417.54L1599.56,405.86L1602.02,384.46L1604.49,353.67L1609.43,320.8L1611.9,307.36L1616.84,265.04L1619.3,253.37L1626.71,209.25L1629.18,195.77L1631.65,185.7L1634.11,170.7L1646.46,120.39L1648.93,110.92L1651.39,102.6L1653.86,98.01L1668.67,61.84L1671.14,60.29L1678.55,49.29L1681.02,45.73L1683.48,44.72L1685.95,42.53L1688.42,42.71L1690.89,40.82L1703.23,40.56L1705.7,42.93L1708.17,43.56L1710.64,45.51L1713.11,48.23L1715.57,48.54L1720.51,55.9L1722.98,56.01L1730.38,66.36L1732.85,69.17L1735.32,71.65L1737.79,76.16L1742.73,81.61L1745.2,86.23L1750.13,91.58L1752.6,96.21L1757.54,100.04L1760.01,105.23L1762.47,110.13L1764.94,110.63L1767.41,112.29L1769.88,117.31L1772.35,122.03L1774.82,122.37L1777.28,123.92L1779.75,128.85L1782.22,133.54L1784.69,133.77L1787.16,135.33L1789.63,140.36L1792.1,145.22L1794.56,145.46L1797.03,147.17L1799.5,150.94L1804.44,161.17L1806.91,161.59L1809.37,163.68L1811.84,167.88L1819.25,184.08L1821.72,185.06L1824.19,187.84L1826.65,192.84L1834.06,212.87L1836.53,215.03L1839,218.65L1841.46,224.73L1848.87,249.16L1851.34,253.17L1853.81,257.86L1856.28,265.22L1863.68,294.54L1866.15,300.39L1871.09,315.18L1873.55,327.24L1878.49,349.23L1880.96,355.8L1885.9,373.03L1888.37,385.47L1893.3,409.2L1895.77,415.41L1903.18,444.67L1905.64,456.99L1908.11,466.7L1910.58,472.22L1922.92,513.09L1925.39,520.4L1927.86,524.55L1930.33,531.22L1940.2,547.69L1942.67,550.17L1945.14,553.4L1947.61,554.84L1950.08,558.05L1952.54,557.68L1962.42,552.7L1964.89,548.28L1969.82,543.02L1972.29,542.44L1974.76,536.47L1977.23,527.44L1984.63,506.06L1987.1,497.71L1994.51,469.39L1996.98,464.86L2009.32,402.56L2011.79,388.67L2016.72,367.68L2019.19,360.2L2029.07,311.75L2031.54,304.32L2036.47,288.29L2038.94,278.38L2043.88,262.66L2046.35,256.97L2056.22,235.74L2058.69,231.08L2063.63,224.74L2066.09,221.95L2071.03,215.57L2073.5,214.84L2075.97,213.77L2078.44,210.78L2080.9,210.2L2083.37,211.05L2085.84,208.17L2088.31,207.13L2093.25,209.34L2095.72,207.51L2098.18,208.19L2100.65,210.14L2103.12,208.44L2105.59,209.33L2108.06,211.45L2110.53,209.97L2117.93,212.22L2120.4,212.64L2122.87,212.14L2125.34,213.41L2127.8,214.81L2130.27,212.99L2135.21,213.66L2137.68,212.73L2145.08,210.92L2147.55,209.67L2154.96,204.14L2157.43,202.73L2169.77,187.88L2172.24,183.16L2177.17,174.72L2179.64,170.37L2182.11,166.18L2184.58,159.72L2189.52,149.03L2191.98,144.25L2194.45,139.2L2196.92,131.69L2201.86,120.15L2204.33,115.8L2209.26,103.53L2211.73,97.99L2216.67,89.9L2219.14,85.81L2226.54,72.57L2229.01,70.08L2233.95,63.92L2236.42,63.74L2243.82,59.08L2246.29,59.8L2248.76,61.1L2251.23,60.16L2258.63,69.94L2261.1,70.3L2263.57,72.63L2266.04,78.93L2268.51,85.09L2270.98,86.62L2275.91,104.5L2278.38,108.22L2285.79,138.29L2288.25,145.31L2293.19,183.4L2295.66,193.1L2298.13,202.49L2300.6,218.93L2305.53,268.02L2308,283.51L2312.94,317.57L2315.41,345.23L2332.69,485.29L2335.15,502.79L2345.03,563.08L2347.5,575.57L2354.9,606.89L2357.37,615.36L2364.78,635.32L2367.24,640.29L2372.18,647.91L2374.65,650.63L2379.59,654L2382.06,654.68L2386.99,654.14L2389.46,652.93L2394.4,648.63L2396.87,645.56L2404.27,632.66L2406.74,627.15L2409.21,617.16L2411.68,611.55L2414.15,607.12L2416.61,598.73L2424.02,577.35L2426.49,563.05L2431.42,543.43L2433.89,532.83L2438.83,511.72L2441.3,501.09L2448.7,473.2L2451.17,459.06L2456.11,437.84L2458.58,428.49L2478.33,358.29L2480.79,351.1L2495.6,311.97L2498.07,306.03L2503.01,294.89L2505.48,291.71L2520.29,263.81L2522.76,260.36L2527.69,254.54L2530.16,250.36L2535.1,243.16L2537.57,241.49L2544.97,233.57L2547.44,230.5L2552.38,225.7L2554.85,223.69L2559.78,219.52L2562.25,216.95L2572.13,211.94L2574.59,208.7L2577.06,206.86L2579.53,206.38L2582,205.4" style="vector-effect: non-scaling-stroke; fill: none; stroke: rgb(0, 170, 0); stroke-opacity: 1; stroke-width: 4px; opacity: 1;"/></g><g class="points"/><g class="text"/></g></g></g><g class="overplot"/><path class="xlines-above crisp" d="M0,0" style="fill: none;"/><path class="ylines-above crisp" d="M0,0" style="fill: none;"/><g class="overlines-above"/><g class="xaxislayer-above"><g class="xtick"><text text-anchor="middle" x="0" y="934" transform="translate(160,0)" style="font-family: 'Open Sans', verdana, arial, sans-serif; font-size: 37px; fill: rgb(42, 63, 95); fill-opacity: 1; white-space: pre; opacity: 1;">0</text></g><g class="xtick"><text text-anchor="middle" x="0" y="934" style="font-family: 'Open Sans', verdana, arial, sans-serif; font-size: 37px; fill: rgb(42, 63, 95); fill-opacity: 1; white-space: pre; opacity: 1;" transform="translate(653.69,0)">200</text></g><g class="xtick"><text text-anchor="middle" x="0" y="934" style="font-family: 'Open Sans', verdana, arial, sans-serif; font-size: 37px; fill: rgb(42, 63, 95); fill-opacity: 1; white-space: pre; opacity: 1;" transform="translate(1147.38,0)">400</text></g><g class="xtick"><text text-anchor="middle" x="0" y="934" style="font-family: 'Open Sans', verdana, arial, sans-serif; font-size: 37px; fill: rgb(42, 63, 95); fill-opacity: 1; white-space: pre; opacity: 1;" transform="translate(1641.07,0)">600</text></g><g class="xtick"><text text-anchor="middle" x="0" y="934" style="font-family: 'Open Sans', verdana, arial, sans-serif; font-size: 37px; fill: rgb(42, 63, 95); fill-opacity: 1; white-space: pre; opacity: 1;" transform="translate(2134.76,0)">800</text></g><g class="xtick"><text text-anchor="middle" x="0" y="934" style="font-family: 'Open Sans', verdana, arial, sans-serif; font-size: 37px; fill: rgb(42, 63, 95); fill-opacity: 1; white-space: pre; opacity: 1;" transform="translate(2628.45,0)">1000</text></g></g><g class="yaxislayer-above"><g class="ytick"><text text-anchor="end" x="159" y="12.95" transform="translate(0,871.44)" style="font-family: 'Open Sans', verdana, arial, sans-serif; font-size: 37px; fill: rgb(42, 63, 95); fill-opacity: 1; white-space: pre; opacity: 1;">−200</text></g><g class="ytick"><text text-anchor="end" x="159" y="12.95" style="font-family: 'Open Sans', verdana, arial, sans-serif; font-size: 37px; fill: rgb(42, 63, 95); fill-opacity: 1; white-space: pre; opacity: 1;" transform="translate(0,771.45)">−150</text></g><g class="ytick"><text text-anchor="end" x="159" y="12.95" style="font-family: 'Open Sans', verdana, arial, sans-serif; font-size: 37px; fill: rgb(42, 63, 95); fill-opacity: 1; white-space: pre; opacity: 1;" transform="translate(0,671.45)">−100</text></g><g class="ytick"><text text-anchor="end" x="159" y="12.95" style="font-family: 'Open Sans', verdana, arial, sans-serif; font-size: 37px; fill: rgb(42, 63, 95); fill-opacity: 1; white-space: pre; opacity: 1;" transform="translate(0,571.46)">−50</text></g><g class="ytick"><text text-anchor="end" x="159" y="12.95" style="font-family: 'Open Sans', verdana, arial, sans-serif; font-size: 37px; fill: rgb(42, 63, 95); fill-opacity: 1; white-space: pre; opacity: 1;" transform="translate(0,471.47)">0</text></g><g class="ytick"><text text-anchor="end" x="159" y="12.95" style="font-family: 'Open Sans', verdana, arial, sans-serif; font-size: 37px; fill: rgb(42, 63, 95); fill-opacity: 1; white-space: pre; opacity: 1;" transform="translate(0,371.47)">50</text></g><g class="ytick"><text text-anchor="end" x="159" y="12.95" style="font-family: 'Open Sans', verdana, arial, sans-serif; font-size: 37px; fill: rgb(42, 63, 95); fill-opacity: 1; white-space: pre; opacity: 1;" transform="translate(0,271.48)">100</text></g><g class="ytick"><text text-anchor="end" x="159" y="12.95" style="font-family: 'Open Sans', verdana, arial, sans-serif; font-size: 37px; fill: rgb(42, 63, 95); fill-opacity: 1; white-space: pre; opacity: 1;" transform="translate(0,171.49)">150</text></g></g><g class="overaxes-above"/></g></g><g class="polarlayer"/><g class="ternarylayer"/><g class="geolayer"/><g class="funnelarealayer"/><g class="pielayer"/><g class="iciclelayer"/><g class="treemaplayer"/><g class="sunburstlayer"/><g class="glimages"/><defs id="topdefs-571079"><g class="clips"/><clipPath id="legend571079"><rect width="694" height="113" x="0" y="0"/></clipPath></defs><g class="layer-above"><g class="imagelayer"/><g class="shapelayer"/></g><g class="infolayer"><g class="legend" pointer-events="all" transform="translate(2793.64,100)"><rect class="bg" shape-rendering="crispEdges" width="694" height="113" x="0" y="0" style="stroke: rgb(68, 68, 68); stroke-opacity: 1; fill: rgb(255, 255, 255); fill-opacity: 1; stroke-width: 0px;"/><g class="scrollbox" transform="" clip-path="url(#legend571079)"><g class="groups"><g class="traces" transform="translate(0,30.55)" style="opacity: 1;"><text class="legendtext" text-anchor="start" x="40" y="14.43" style="font-family: 'Open Sans', verdana, arial, sans-serif; font-size: 37px; fill: rgb(42, 63, 95); fill-opacity: 1; white-space: pre;">Predicted Curvature at Anchors #1</text><g class="layers" style="opacity: 1;"><g class="legendfill"/><g class="legendlines"><path class="js-line" d="M5,0h30" style="fill: none; stroke: rgb(170, 0, 0); stroke-opacity: 1; stroke-width: 4px;"/></g><g class="legendsymbols"><g class="legendpoints"/></g></g><rect class="legendtoggle" x="0" y="-25.55" width="688.125" height="51.1" style="fill: rgb(0, 0, 0); fill-opacity: 0;"/></g><g class="traces" transform="translate(0,81.65)" style="opacity: 1;"><text class="legendtext" text-anchor="start" x="40" y="14.43" style="font-family: 'Open Sans', verdana, arial, sans-serif; font-size: 37px; fill: rgb(42, 63, 95); fill-opacity: 1; white-space: pre;">Predicted Curvature at Anchors #2</text><g class="layers" style="opacity: 1;"><g class="legendfill"/><g class="legendlines"><path class="js-line" d="M5,0h30" style="fill: none; stroke: rgb(0, 170, 0); stroke-opacity: 1; stroke-width: 4px;"/></g><g class="legendsymbols"><g class="legendpoints"/></g></g><rect class="legendtoggle" x="0" y="-25.55" width="688.125" height="51.1" style="fill: rgb(0, 0, 0); fill-opacity: 0;"/></g></g></g><rect class="scrollbar" rx="20" ry="3" width="0" height="0" x="0" y="0" style="fill: rgb(128, 139, 164); fill-opacity: 1;"/></g><g class="g-gtitle"/><g class="g-xtitle"><text class="xtitle" x="1451" y="987.8" text-anchor="middle" style="font-family: 'Open Sans', verdana, arial, sans-serif; font-size: 44px; fill: rgb(42, 63, 95); opacity: 1; font-weight: normal; white-space: pre;">Anchor Point Index</text></g><g class="g-ytitle" transform="translate(31.6591796875,0)"><text class="ytitle" transform="rotate(-90,12.340624999999989,498)" x="12.340624999999989" y="498" text-anchor="middle" style="font-family: 'Open Sans', verdana, arial, sans-serif; font-size: 44px; fill: rgb(42, 63, 95); opacity: 1; font-weight: normal; white-space: pre;">Predicted Curvature</text></g><g class="annotation" data-index="0" style="opacity: 1;"><g class="annotation-text-g" transform="rotate(0,1451,66.49999999999993)"><g class="cursor-pointer" transform="translate(234,33)"><rect class="bg" x="0.5" y="0.5" width="2433" height="66" style="stroke-width: 1px; stroke: rgb(0, 0, 0); stroke-opacity: 0; fill: rgb(0, 0, 0); fill-opacity: 0;"/><text class="annotation-text" text-anchor="middle" x="1217.03125" y="54" style="font-family: 'Open Sans', verdana, arial, sans-serif; font-size: 52px; fill: rgb(42, 63, 95); fill-opacity: 1; white-space: pre;"><tspan style="font-weight:bold">Predicted Curvature at Anchors (Transformed Curve #1 vs. Transformed Curve #2)</tspan></text></g></g></g></g></svg>