<svg class="main-svg" xmlns="http://www.w3.org/2000/svg" xmlns:xlink="http://www.w3.org/1999/xlink" width="3500" height="1000" style="" viewBox="0 0 3500 1000"><rect x="0" y="0" width="3500" height="1000" style="fill: rgb(255, 255, 255); fill-opacity: 1;"/><defs id="defs-9cf4fa"><g class="clips"><clipPath id="clip9cf4faxyplot" class="plotclip"><rect width="2628" height="796"/></clipPath><clipPath class="axesclip" id="clip9cf4fax"><rect x="113" y="0" width="2628" height="1000"/></clipPath><clipPath class="axesclip" id="clip9cf4fay"><rect x="0" y="100" width="3500" height="796"/></clipPath><clipPath class="axesclip" id="clip9cf4faxy"><rect x="113" y="100" width="2628" height="796"/></clipPath></g><g class="gradients"/><g class="patterns"/></defs><g class="bglayer"><rect class="bg" x="113" y="100" width="2628" height="796" style="fill: rgb(229, 236, 246); fill-opacity: 1; stroke-width: 0;"/></g><g class="layer-below"><g class="imagelayer"/><g class="shapelayer"/></g><g class="cartesianlayer"><g class="subplot xy"><g class="layer-subplot"><g class="shapelayer"/><g class="imagelayer"/></g><g class="gridlayer"><g class="x"><path class="xgrid crisp" transform="translate(572.44,0)" d="M0,100v796" style="stroke: rgb(255, 255, 255); stroke-opacity: 1; stroke-width: 1px;"/><path class="xgrid crisp" transform="translate(1031.88,0)" d="M0,100v796" style="stroke: rgb(255, 255, 255); stroke-opacity: 1; stroke-width: 1px;"/><path class="xgrid crisp" transform="translate(1491.32,0)" d="M0,100v796" style="stroke: rgb(255, 255, 255); stroke-opacity: 1; stroke-width: 1px;"/><path class="xgrid crisp" transform="translate(1950.76,0)" d="M0,100v796" style="stroke: rgb(255, 255, 255); stroke-opacity: 1; stroke-width: 1px;"/><path class="xgrid crisp" transform="translate(2410.2,0)" d="M0,100v796" style="stroke: rgb(255, 255, 255); stroke-opacity: 1; stroke-width: 1px;"/></g><g class="y"><path class="ygrid crisp" transform="translate(0,719.73)" d="M113,0h2628" style="stroke: rgb(255, 255, 255); stroke-opacity: 1; stroke-width: 1px;"/><path class="ygrid crisp" transform="translate(0,363.79)" d="M113,0h2628" style="stroke: rgb(255, 255, 255); stroke-opacity: 1; stroke-width: 1px;"/><path class="ygrid crisp" transform="translate(0,185.81)" d="M113,0h2628" style="stroke: rgb(255, 255, 255); stroke-opacity: 1; stroke-width: 1px;"/></g></g><g class="zerolinelayer"><path class="xzl zl crisp" transform="translate(113,0)" d="M0,100v796" style="stroke: rgb(255, 255, 255); stroke-opacity: 1; stroke-width: 2px;"/><path class="yzl zl crisp" transform="translate(0,541.76)" d="M113,0h2628" style="stroke: rgb(255, 255, 255); stroke-opacity: 1; stroke-width: 2px;"/></g><path class="xlines-below"/><path class="ylines-below"/><g class="overlines-below"/><g class="xaxislayer-below"/><g class="yaxislayer-below"/><g class="overaxes-below"/><g class="plot" transform="translate(113,100)" clip-path="url(#clip9cf4faxyplot)"><g class="scatterlayer mlayer"><g class="trace scatter trace94bc6e" style="stroke-miterlimit: 2; opacity: 1;"><g class="fills"/><g class="errorbars"/><g class="lines"><path class="js-line" d="M0,63.6L2.3,71.84L4.59,73.43L6.89,81.31L9.19,70.72L11.49,74.41L13.78,73.44L16.08,59.41L18.38,56.12L20.67,61.21L22.97,59.14L25.27,55.95L27.57,61.08L32.16,55.8L34.46,60.91L39.05,55.66L41.35,62.13L43.65,58.7L45.94,51.89L48.24,56.71L50.54,63.93L52.84,58.23L55.13,57.58L59.73,61.15L62.02,57.93L64.32,50.17L66.62,55.62L68.92,63.95L71.21,56.91L73.51,58.96L75.81,48.02L80.4,63.86L82.7,56.93L85,58.59L87.29,47.31L89.59,57.29L91.89,50.15L94.19,54.35L96.48,52.94L98.78,56.55L101.08,52.78L103.37,56.34L105.67,52.68L107.97,53.11L110.27,65.28L112.56,54.98L114.86,58.17L117.16,46.89L119.45,53.09L121.75,62.69L124.05,57.36L128.64,60.12L130.94,53.69L133.24,58.63L135.53,58.36L137.83,52.04L140.13,67.08L142.43,72.35L144.72,68.55L147.02,67.68L149.32,52.56L151.62,59.93L153.91,62.49L156.21,61.23L158.51,61.23L160.8,66.83L163.1,64.87L165.4,55.35L167.7,58.08L172.29,66.12L174.59,65.93L176.88,60.99L179.18,63.32L181.48,54.7L183.78,62.88L186.07,71.12L188.37,74.16L192.97,66.98L195.26,61.36L197.56,56.35L199.86,72.15L202.15,78.08L204.45,71.04L206.75,66.79L209.05,65.58L211.34,58.86L213.64,64.87L215.94,75.07L218.23,78.42L220.53,59.88L222.83,58.42L225.13,59.06L227.42,55.68L229.72,63.3L232.02,64.19L236.61,49.24L238.91,49.26L241.21,53.91L243.5,54.49L245.8,61.24L248.1,49.36L250.4,63.01L252.69,53.07L254.99,54.08L257.29,44.76L259.58,54L261.88,53.16L264.18,47.91L266.48,50.61L268.77,49.48L271.07,72.81L277.96,51.42L280.26,57L282.56,63.08L284.85,62.73L287.15,68.24L289.45,65.93L291.74,67.09L294.04,65.66L296.34,84.19L298.64,69.04L300.93,69.4L303.23,77.45L305.53,71.92L307.83,76.95L312.42,91.37L314.72,112.42L317.01,93.17L319.31,84.9L321.61,103.24L323.91,130.2L326.2,87.28L328.5,159.22L333.09,215.9L335.39,341.88L337.69,402.12L339.99,387.82L344.58,601.6L346.88,647.44L351.47,709.9L353.77,668.54L356.07,701.72L358.36,694.85L360.66,665.43L362.96,710.25L365.26,691.14L367.55,688.11L369.85,686.47L372.15,724.23L374.44,710.88L376.74,712.68L379.04,723.65L381.34,727.38L383.63,725.09L385.93,731.73L388.23,739.57L390.52,737.36L392.82,731.77L395.12,730.05L402.01,741L404.31,734.67L406.6,734.44L408.9,741.62L411.2,742.12L413.5,744.43L415.79,738.04L418.09,744.12L420.39,750.52L422.69,742.19L424.98,745.65L427.28,741.44L431.87,740.49L434.17,743.81L436.47,732.34L438.77,740.92L441.06,739.96L443.36,735.73L450.25,732.33L452.55,740.68L454.85,720.26L457.14,726.78L459.44,727.14L461.74,731.63L466.33,721.12L468.63,722.59L470.93,725.96L473.22,721.12L475.52,725.64L477.82,743.22L482.41,717.44L484.71,727.7L487.01,731.74L489.3,732.64L491.6,723.35L493.9,733.03L496.2,730.96L498.49,735.13L500.79,732.13L503.09,732.96L505.38,728.68L507.68,730.03L509.98,728.18L512.28,733.17L514.57,730.63L516.87,730.18L519.17,725.99L521.47,729.38L523.76,728.66L526.06,731.33L528.36,729.18L530.65,731.14L532.95,733.86L535.25,731.32L537.55,731.72L539.84,734.37L542.14,734.05L544.44,736.38L546.73,734.15L549.03,734.21L553.63,735.99L555.92,733.97L558.22,732.05L560.52,732.75L562.81,738.31L565.11,734.89L567.41,736.51L569.71,736.32L574.3,740.02L576.6,738.42L578.9,736.5L581.19,737.93L583.49,741.15L585.79,736.12L588.08,733.82L590.38,734.66L592.68,742.05L594.98,740.55L597.27,738.63L599.57,738.19L601.87,741.86L604.16,742.64L606.46,739.05L608.76,737.75L611.06,735.73L613.35,739.93L615.65,736.11L617.95,734.67L620.24,732.62L622.54,741.3L627.14,737.06L629.43,738L631.73,740.33L634.03,738.63L636.33,736.78L638.62,738.74L640.92,735.08L643.22,735.34L645.51,735.67L647.81,742.51L650.11,735.72L652.41,736.99L654.7,736.51L657,739.57L659.3,740.81L661.59,738.22L663.89,743.81L666.19,729.71L668.49,733.22L670.78,734.03L673.08,739.33L675.38,723.64L677.67,730.9L679.97,733.75L682.27,730.95L684.57,724.48L686.86,724L689.16,729.37L691.46,730.82L693.76,729.68L698.35,714.8L700.65,721.51L702.94,702.3L705.24,710.79L707.54,695.64L709.84,689.4L712.13,688.95L714.43,670.99L716.73,673.16L719.02,651.57L721.32,644.3L723.62,650.44L725.92,606.17L728.21,602.93L730.51,583.53L732.81,529.62L737.4,417.98L739.7,319.81L744.29,235.41L746.59,214.04L751.19,142.08L753.48,145.25L758.08,110.64L760.37,115.26L762.67,109.71L764.97,91.49L767.27,92.24L769.56,88.66L771.86,66.75L774.16,66.61L776.45,61.16L778.75,69.59L783.35,51.1L785.64,61.26L787.94,59.84L790.24,44.99L792.53,60.79L794.83,58.54L797.13,63.43L799.43,60.37L801.72,52.03L804.02,59.11L806.32,59.95L808.62,49.92L810.91,59.43L813.21,58.38L815.51,39.8L817.8,54.56L820.1,63.09L822.4,55.13L824.7,59.78L826.99,60.78L829.29,55.77L831.59,55.98L833.88,57.32L836.18,61.76L838.48,58.15L840.78,46.46L843.07,53.25L845.37,53.61L847.67,54.9L849.97,63.42L852.26,50.38L854.56,63.96L856.86,79.57L859.15,79.35L866.05,78.84L868.34,67.48L870.64,72.8L872.94,92.33L875.23,69.98L877.53,61.16L882.13,61.32L884.42,64.4L886.72,57.87L889.02,59.87L891.31,66.64L893.61,60.62L895.91,59.24L898.21,67.81L900.5,64.01L902.8,55.09L905.1,67.9L907.4,67.31L909.69,58.26L911.99,71.12L916.58,59.57L918.88,71.33L921.18,62.25L923.48,63.2L925.77,68.11L928.07,61.59L930.37,59.18L932.66,62.89L934.96,60.74L937.26,60.18L939.56,52.94L941.85,49.84L944.15,49.42L946.45,46.68L948.74,43.88L951.04,48.5L953.34,50.69L955.64,47.39L957.93,51.39L960.23,49.9L962.53,49.82L964.83,50.97L967.12,51.45L969.42,55.53L971.72,54.79L974.01,73.09L976.31,66.57L978.61,63.22L983.2,74.93L985.5,64.59L987.8,71.82L990.09,74.58L992.39,73.25L994.69,73.45L996.99,74.1L999.28,69.56L1001.58,67.36L1003.88,76.3L1006.17,73.08L1008.47,72.24L1010.77,66.3L1013.07,64.92L1015.36,72.52L1017.66,67.95L1019.96,65.39L1022.26,67.74L1024.55,69.7L1026.85,73.73L1029.15,71.7L1031.44,67.82L1033.74,73.36L1036.04,69.4L1038.34,71.6L1040.63,72.24L1042.93,71.3L1045.23,73.95L1047.52,72.61L1049.82,74.91L1052.12,72.57L1054.42,80.44L1056.71,77.45L1059.01,70.2L1061.31,75.4L1063.6,75.9L1065.9,68.67L1068.2,78.28L1070.5,73.52L1072.79,85.02L1075.09,74L1077.39,68.81L1079.69,78.74L1081.98,78.83L1084.28,71.16L1086.58,77.85L1088.87,72.67L1091.17,87.03L1095.77,75.04L1098.06,84.05L1100.36,86.66L1102.66,76.34L1104.95,91.99L1107.25,89L1109.55,118.87L1111.85,85.48L1114.14,125.37L1116.44,90.26L1118.74,133.03L1121.03,95.24L1123.33,142.09L1125.63,99.89L1127.93,152.24L1130.22,103.76L1132.52,162.81L1134.82,106.97L1137.12,172.97L1139.41,109.91L1141.71,182.06L1144.01,112.87L1146.3,189.56L1148.6,115.67L1150.9,195.13L1153.2,117.87L1155.49,198.58L1157.79,118.97L1160.09,199.82L1162.38,118.65L1164.68,198.88L1166.98,116.87L1169.28,195.91L1171.57,113.79L1173.87,191.12L1176.17,109.73L1178.47,184.82L1180.76,143.85L1183.06,230.26L1185.36,136.52L1187.65,126.75L1189.95,200.38L1192.25,117.14L1194.55,156.07L1196.84,87.14L1199.14,147.58L1201.44,82.33L1203.73,139.59L1206.03,77.91L1208.33,132.31L1210.63,73.92L1212.92,125.82L1215.22,70.31L1217.52,120.1L1219.81,67.01L1222.11,115.1L1224.41,63.96L1226.71,110.73L1229,48.17L1231.3,97L1233.6,55.03L1235.9,81.16L1238.19,72.84L1240.49,49.06L1242.79,79.81L1245.08,51.19L1247.38,96.95L1249.68,52.79L1251.98,94.91L1254.27,44.73L1256.57,80.53L1258.87,52.78L1261.16,68.65L1263.46,63.59L1265.76,50.94L1268.06,71.52L1270.35,50.92L1272.65,75.32L1274.95,53.35L1277.24,65.37L1279.54,61.78L1281.84,52.71L1284.14,58.65L1286.43,57.28L1288.73,64.73L1291.03,62.07L1293.33,54.56L1295.62,58.82L1297.92,57.49L1300.22,65.3L1302.51,63.57L1304.81,56.03L1307.11,60.15L1309.41,57.55L1311.7,67.08L1314,66.3L1316.3,57.06L1318.59,62.8L1320.89,57.32L1323.19,58.25L1325.49,55.41L1327.78,72.27L1330.08,59.8L1332.38,72.41L1334.67,57.74L1336.97,70.85L1339.27,57.36L1341.57,62.9L1343.86,64.87L1346.16,70.3L1348.46,58.41L1350.76,64.77L1355.35,60.48L1357.65,69.76L1359.94,63.38L1362.24,63.95L1364.54,75.19L1366.84,63.4L1369.13,69.02L1371.43,80.88L1373.73,62.96L1376.02,75.47L1378.32,86.79L1380.62,70.15L1382.92,93.62L1385.21,103.14L1387.51,63.12L1389.81,114.77L1392.1,66.9L1394.4,109.51L1396.7,108.32L1399,73.78L1403.59,101.01L1405.89,71.6L1408.19,89.07L1410.48,95.62L1412.78,99.69L1415.08,71.01L1417.37,105.13L1419.67,113.86L1421.97,61.85L1424.27,116.92L1426.56,123.43L1428.86,72.74L1431.16,119.39L1433.45,126.29L1435.75,71.37L1438.05,119.72L1440.35,126.15L1442.64,69.39L1444.94,117.4L1447.24,122.4L1449.53,68.01L1451.83,112.56L1454.13,115.39L1456.43,60.81L1458.72,98.58L1461.02,99.11L1463.32,70.31L1465.62,103.01L1467.91,75.8L1470.21,79.34L1472.51,60.1L1474.8,78.22L1477.1,76.98L1479.4,73.6L1483.99,79.32L1486.29,74.72L1488.59,81.94L1490.88,59.55L1495.48,59.65L1497.78,53.63L1500.07,52.79L1502.37,72.25L1504.67,61.2L1506.97,56.61L1509.26,71.64L1511.56,76.26L1516.15,50.95L1518.45,63.39L1523.05,54.4L1525.34,46.4L1529.94,65.85L1532.23,59.81L1534.53,63.21L1536.83,61.62L1539.13,59.78L1541.42,60.5L1546.02,57.42L1548.31,53.99L1552.91,55.52L1555.21,56.71L1557.5,59.19L1559.8,56.39L1562.1,60.77L1564.4,52.17L1566.69,58.45L1568.99,56.85L1571.29,53.91L1573.58,66.75L1575.88,53.46L1578.18,56.66L1580.48,55.73L1582.77,56.48L1585.07,66.73L1587.37,65.81L1589.66,65.04L1591.96,61.37L1594.26,67.14L1596.56,64.54L1598.85,59.52L1601.15,59.3L1603.45,57.08L1605.74,60.44L1608.04,64.58L1610.34,65.39L1614.93,60.68L1617.23,61.51L1619.53,69.2L1621.83,55.47L1624.12,59.02L1626.42,60.04L1628.72,58.11L1631.01,59.57L1633.31,61.26L1635.61,67.52L1637.91,66.5L1640.2,59.17L1642.5,59.76L1644.8,53.49L1647.09,73.47L1649.39,65.61L1651.69,69.22L1653.99,54.01L1656.28,60.21L1658.58,75.62L1660.88,88.35L1663.17,80.5L1665.47,67.1L1667.77,69.54L1670.07,48.27L1672.36,66.53L1674.66,79.16L1676.96,70.51L1679.26,63.13L1681.55,69.27L1683.85,66.28L1686.15,60.56L1688.44,60.96L1690.74,44.25L1693.04,59.58L1695.34,60.51L1697.63,65.53L1699.93,59.27L1702.23,58.08L1704.52,64.43L1706.82,63.72L1709.12,60.3L1711.42,54.99L1713.71,56.15L1716.01,58.25L1718.31,55.34L1720.6,58.15L1722.9,57.96L1725.2,50.53L1727.5,57.18L1729.79,56.23L1732.09,51.99L1734.39,56.54L1736.69,55.47L1738.98,52.71L1741.28,56.01L1743.58,56.4L1745.87,52.76L1748.17,57.87L1750.47,55.5L1752.77,62.7L1755.06,61.73L1757.36,62.38L1759.66,57.18L1761.95,52.16L1764.25,71.52L1766.55,62.45L1768.85,61.21L1771.14,64.19L1773.44,55.77L1775.74,70.43L1778.03,65.66L1780.33,66.95L1782.63,73.81L1784.93,100.03L1787.22,71.32L1789.52,75.23L1791.82,71.08L1798.71,81.03L1801.01,79L1803.3,76.72L1805.6,71.75L1810.2,69.65L1812.49,78.63L1814.79,66.55L1817.09,81.91L1819.38,79.59L1821.68,78.81L1823.98,78.18L1826.28,84.06L1828.57,110L1830.87,111.45L1833.17,93.88L1835.47,116.51L1837.76,121.68L1840.06,130.19L1842.36,145.05L1844.65,171.39L1846.95,185.28L1849.25,226.74L1851.55,223.44L1853.84,258.05L1856.14,216.39L1858.44,304.38L1867.63,512.46L1869.92,542.89L1872.22,561.33L1874.52,606.36L1876.81,634.87L1879.11,645.07L1883.71,665.04L1886,678.8L1890.6,699.25L1892.9,716.18L1895.19,708.58L1897.49,712.02L1899.79,714.98L1902.08,719.57L1911.27,736.59L1913.57,734.41L1920.46,735.83L1922.76,734.82L1925.06,734.59L1927.35,737.62L1929.65,737.25L1931.95,735.26L1938.84,739.67L1941.14,738.24L1943.43,739.2L1945.73,737.39L1948.03,736.1L1950.33,737.16L1954.92,740.93L1957.22,740.53L1959.51,739.18L1961.81,734.12L1964.11,736.52L1966.41,736.69L1971,740.89L1973.3,742.52L1975.59,740.25L1977.89,730.45L1980.19,737.04L1982.49,736.74L1984.78,736.8L1987.08,739.09L1989.38,742.34L1991.67,742.78L1993.97,731.23L1996.27,735.89L1998.57,736.95L2000.86,736.63L2003.16,737.12L2005.46,740.59L2007.76,743.33L2010.05,724.45L2014.65,733.28L2016.94,735.61L2019.24,737.77L2021.54,737.93L2023.84,740.84L2026.13,733.19L2028.43,728.12L2030.73,730.21L2033.02,744.87L2035.32,730.3L2037.62,730.24L2039.92,737.62L2042.21,739L2044.51,729.08L2046.81,731.08L2049.1,730.79L2051.4,730.98L2053.7,726.85L2056,736.72L2058.29,729.38L2060.59,734.93L2062.89,735.72L2065.19,740.07L2067.48,723.79L2069.78,729.24L2072.08,729.8L2074.37,735.65L2076.67,731.48L2081.27,730.67L2083.56,734.18L2085.86,744.7L2088.16,742.13L2090.45,747.23L2092.75,748.53L2095.05,741.42L2097.35,725.45L2099.64,728.02L2101.94,720.4L2104.24,732.78L2106.53,593.16L2108.83,732.12L2111.13,742.15L2113.43,738.15L2115.72,740.25L2118.02,741.4L2120.32,733.34L2122.62,719.76L2124.91,723.88L2127.21,733.57L2129.51,730.24L2131.8,734.2L2134.1,688.63L2136.4,734.18L2138.7,722.77L2140.99,736.82L2143.29,728.33L2145.59,731.93L2147.88,722.61L2152.48,688.4L2154.78,682.8L2157.07,663.56L2159.37,726.94L2161.67,734.48L2163.97,729.55L2166.26,714.29L2168.56,676.82L2170.86,679.26L2173.15,689.63L2175.45,728.88L2177.75,705.63L2180.05,692.67L2182.34,688.93L2184.64,651.6L2186.94,646.83L2189.23,658.65L2191.53,622.89L2193.83,634.64L2196.13,608.59L2200.72,555.33L2203.02,415.35L2205.31,328.55L2207.61,292.36L2212.21,226.91L2214.5,217.45L2219.1,188.05L2221.4,154.51L2223.69,152.85L2225.99,137.8L2230.58,101.14L2232.88,89.79L2237.48,79.9L2239.77,79.1L2242.07,80.83L2244.37,83.93L2246.66,69.32L2248.96,74.39L2253.56,67.25L2255.85,66.74L2258.15,58.43L2260.45,67.22L2262.74,66.04L2265.04,63.64L2267.34,68.68L2269.64,58.56L2271.93,67.12L2274.23,64L2278.83,52.64L2281.12,65.08L2288.01,54.68L2290.31,65.01L2292.61,59.54L2294.91,58.41L2297.2,59.51L2299.5,65.5L2301.8,58.54L2304.09,59.56L2306.39,55.89L2308.69,62.63L2310.99,63.15L2313.28,58.52L2315.58,54.65L2317.88,60.47L2320.17,58.37L2322.47,61.81L2324.77,64.17L2327.07,58.61L2329.36,58.69L2331.66,62.3L2336.26,58.94L2338.55,61.42L2340.85,64.23L2343.15,61.95L2345.44,58.89L2347.74,62.96L2350.04,65.62L2352.34,63.62L2354.63,59.25L2356.93,64.06L2361.52,62.74L2363.82,64.49L2366.12,58.81L2368.42,72.85L2370.71,61.71L2373.01,66.42L2375.31,65.09L2377.6,68.58L2379.9,63.64L2382.2,63.33L2386.79,69.42L2389.09,66.05L2393.69,61.98L2395.98,63L2398.28,64.07L2400.58,68.67L2405.17,68.01L2407.47,64.51L2409.77,66.28L2412.06,64.41L2414.36,66.55L2416.66,78.05L2421.25,66.89L2423.55,69.44L2425.85,68.56L2428.14,69.21L2430.44,68.43L2432.74,65.04L2435.03,60.36L2437.33,66.21L2439.63,68.7L2441.93,64.01L2444.22,70.47L2446.52,71.69L2448.82,65.01L2451.12,69.6L2453.41,65.84L2455.71,58.42L2458.01,71.62L2460.3,68.29L2462.6,71.59L2464.9,62.51L2469.49,67.74L2471.79,66.39L2474.09,75.74L2476.38,66.03L2478.68,74.44L2480.98,65.83L2483.28,73.25L2485.57,65.51L2487.87,72.22L2490.17,65.07L2492.47,71.39L2494.76,64.5L2497.06,70.75L2499.36,63.84L2501.65,70.31L2503.95,63.17L2506.25,70.06L2508.55,62.55L2510.84,69.97L2513.14,62L2515.44,70L2517.73,61.54L2520.03,70.12L2522.33,61.16L2524.63,70.28L2526.92,60.85L2529.22,70.45L2531.52,60.59L2533.81,70.61L2536.11,57.22L2538.41,69.81L2540.71,61.82L2543,67.69L2545.3,59.37L2547.6,54.11L2549.9,64.55L2554.49,63.84L2556.79,61.07L2563.68,62.07L2565.98,61.76L2570.57,63.95L2572.87,63.38L2575.16,59.57L2577.46,61.97L2582.06,58.17L2584.35,60.58L2586.65,63.23L2588.95,58.22L2591.24,57.33L2593.54,63.61L2595.84,61.74L2598.14,54.52L2600.43,62.79L2602.73,58.69L2605.03,58.62L2607.33,60.14L2609.62,60.29L2611.92,57.28L2614.22,79.84L2616.51,78.51L2618.81,78.48L2621.11,81.34L2623.41,54.14L2625.7,59.11L2628,55.03" style="vector-effect: non-scaling-stroke; fill: none; stroke: rgb(170, 0, 0); stroke-opacity: 1; stroke-width: 4px; opacity: 1;"/></g><g class="points"/><g class="text"/></g><g class="trace scatter tracec9c761" style="stroke-miterlimit: 2; opacity: 1;"><g class="fills"/><g class="errorbars"/><g class="lines"><path class="js-line" d="M0,64.64L2.3,67.75L4.59,67.28L6.89,67L9.19,70.67L11.49,57.62L13.78,68.84L16.08,69.31L18.38,64.18L20.67,71.21L22.97,72.59L25.27,76.27L27.57,68.99L29.86,75.33L32.16,66.63L34.46,65.83L36.76,70.56L41.35,66.64L43.65,66.97L45.94,71.11L48.24,67.21L50.54,73.09L52.84,73.54L55.13,77.12L57.43,66.5L59.73,68.18L62.02,63.04L66.62,67.59L68.92,64.07L71.21,71.02L73.51,71.63L75.81,71.83L78.1,74.56L80.4,62.65L82.7,62.17L85,61.27L87.29,64.02L89.59,63.18L91.89,69.8L94.19,70.04L96.48,65.55L98.78,71.64L101.08,58.21L103.37,60.46L105.67,60.62L107.97,60.9L110.27,72.97L114.86,62.35L117.16,60.53L119.45,66.2L121.75,64.41L126.35,59.55L128.64,64.8L130.94,54.22L133.24,57.8L135.53,59.72L137.83,57.07L140.13,74.25L142.43,64.92L147.02,59.79L149.32,62.37L151.62,52.42L153.91,56.87L156.21,58.72L158.51,55.78L160.8,64.99L163.1,62.06L165.4,60.42L167.7,55.7L169.99,68.02L172.29,61.16L176.88,58.2L179.18,62.96L181.48,52.39L183.78,55.98L186.07,57.7L188.37,56.25L190.67,67.98L192.97,60L197.56,56.97L199.86,64.76L202.15,57.62L204.45,58.05L206.75,54.78L209.05,70.01L211.34,62.89L213.64,61.38L215.94,60.2L218.23,57.08L220.53,54.58L222.83,55.74L225.13,56.45L227.42,59L229.72,68.31L232.02,58.77L234.31,57.05L236.61,59.58L238.91,62.21L241.21,58.08L243.5,57.67L245.8,58.95L248.1,63.5L250.4,58.45L252.69,57.48L254.99,59.64L257.29,62.28L259.58,58.63L261.88,57.42L264.18,60.12L266.48,62.06L268.77,58.67L271.07,57.57L273.37,60.32L275.66,59.01L277.96,60L280.26,58.96L282.56,66.52L284.85,60.87L287.15,60.61L289.45,55.14L291.74,54.04L294.04,62.4L296.34,60.7L298.64,55.35L300.93,61.5L307.83,64.86L310.12,68.95L312.42,65.55L314.72,71.71L317.01,82.73L319.31,111.29L321.61,111.91L323.91,126.24L326.2,158.07L328.5,168.57L330.8,193.47L333.09,239.06L337.69,351.04L339.99,452.12L344.58,574.98L346.88,601.64L351.47,682.21L353.77,692.4L356.07,692.46L358.36,708.19L362.96,733.9L365.26,735.7L367.55,735.81L369.85,742.04L372.15,740.32L374.44,746.97L379.04,740.01L381.34,741.24L383.63,736.48L385.93,743L390.52,737.78L392.82,737.92L395.12,736.58L397.42,737.4L406.6,735.97L408.9,736.36L411.2,734.65L413.5,735.48L415.79,736.05L418.09,733.87L422.69,735.98L424.98,733.52L429.58,736.11L431.87,733.6L436.47,737.15L438.77,737.68L441.06,737.34L443.36,738.07L445.66,736.78L447.95,732.51L450.25,737.66L452.55,736.87L454.85,733.55L457.14,733.85L459.44,736.49L461.74,734.09L466.33,738.92L468.63,737.69L470.93,737.47L473.22,740.46L475.52,738.67L477.82,735.43L480.12,736.76L482.41,735.17L487.01,733.87L489.3,739.94L491.6,740.57L493.9,738.31L498.49,743.83L500.79,740.39L505.38,739.83L507.68,738.01L512.28,732.35L514.57,740.7L519.17,736.85L521.47,743.27L523.76,747.85L526.06,741.07L528.36,741.58L530.65,741.04L532.95,742L535.25,738.25L539.84,740.82L542.14,737.8L546.73,736.88L549.03,740.62L551.33,740.2L553.63,737.89L558.22,748.01L560.52,742.32L562.81,743.23L565.11,742.68L567.41,743.33L569.71,739.41L572,740.12L574.3,743.72L576.6,747.41L578.9,741.5L581.19,741.74L583.49,744.08L585.79,745.4L588.08,741.66L590.38,741.19L592.68,737.97L594.98,741.88L597.27,738.27L601.87,736.65L604.16,741.57L606.46,741.65L608.76,739.72L613.35,742.28L615.65,741.47L617.95,739.68L620.24,741.61L622.54,742.04L624.84,741.45L627.14,739.6L629.43,742.05L634.03,741.4L636.33,739.48L638.62,742.62L640.92,741.29L643.22,741.08L645.51,739.31L647.81,743.29L650.11,740.68L652.41,740.41L654.7,739.06L657,743.93L659.3,739.84L663.89,738.66L666.19,744.13L668.49,738.6L670.78,738.13L673.08,737.92L675.38,743.08L677.67,736.27L679.97,736.29L682.27,736.09L684.57,739.47L686.86,732.23L689.16,733.06L691.46,730.73L693.76,731.68L696.05,720.34L698.35,723.81L700.65,722.38L702.94,710.07L705.24,716.3L707.54,706.92L709.84,694.99L712.13,697.42L716.73,666.05L719.02,660.95L721.32,633.5L723.62,627.58L728.21,606.64L730.51,563.71L735.1,512.3L737.4,385.32L742,271.04L744.29,234.5L746.59,199.65L748.89,191.03L751.19,164.13L753.48,157.78L755.78,147.88L758.08,115.24L760.37,101.73L762.67,80.6L764.97,82.1L767.27,69.02L769.56,77.79L771.86,62.83L774.16,56.65L776.45,65.33L781.05,46.73L783.35,61.73L785.64,56.09L787.94,43.73L790.24,59.34L792.53,57.59L794.83,44.99L797.13,56.88L799.43,58.3L801.72,47.42L804.02,54.76L806.32,58.08L808.62,49.81L810.91,59.59L813.21,55.81L815.51,40.35L817.8,53.46L820.1,59.48L824.7,57.23L826.99,41.22L829.29,55.5L831.59,62.13L833.88,56.71L836.18,57.92L838.48,42.99L840.78,55.09L843.07,47.29L845.37,52.8L847.67,62.49L849.97,54.89L852.26,58.23L854.56,44.99L856.86,55.32L859.15,48.85L861.45,53.38L863.75,52.27L866.05,56.11L868.34,52.61L870.64,55.98L872.94,52.94L875.23,55.79L877.53,53.29L879.83,55.55L882.13,53.65L884.42,55.29L886.72,54.03L889.02,55.06L891.31,54.45L900.5,55.42L902.8,54.8L905.1,56L907.4,54.86L909.69,56.65L911.99,59.89L914.29,59.78L916.58,54.28L918.88,56.93L921.18,62.82L923.48,66.74L925.77,59.41L928.07,55.31L930.37,60.28L932.66,55.63L934.96,61.12L937.26,56.19L939.56,61.89L941.85,55.8L944.15,63.52L946.45,58.23L948.74,56.92L951.04,71.53L953.34,72.14L955.64,63.67L957.93,60.99L960.23,63.98L962.53,62.22L964.83,64.25L967.12,73.03L969.42,65.11L971.72,61.7L976.31,71.25L978.61,83.72L980.91,67.82L983.2,70L985.5,83.42L987.8,64.45L990.09,68.16L992.39,68L994.69,75.74L996.99,63.55L999.28,66.14L1001.58,74.15L1003.88,66.15L1006.17,63.86L1008.47,68.81L1010.77,65.11L1013.07,61.23L1015.36,63.19L1017.66,61.1L1019.96,65.49L1024.55,55.75L1026.85,59.63L1029.15,55.09L1031.44,58.97L1033.74,54.75L1036.04,56.1L1038.34,54.66L1040.63,54.97L1042.93,58.62L1045.23,54.26L1047.52,56.45L1049.82,54.42L1054.42,61.87L1056.71,55.85L1059.01,55.44L1061.31,57.48L1063.6,64.59L1065.9,61.06L1068.2,62.16L1070.5,68.76L1072.79,70.68L1075.09,70.54L1077.39,68.3L1079.69,68.29L1081.98,73.87L1084.28,72.63L1086.58,67.15L1088.87,67.68L1091.17,71.41L1093.47,71.77L1095.77,75.01L1098.06,74.39L1100.36,76.7L1102.66,76.76L1104.95,76.53L1107.25,82.59L1109.55,74.98L1111.85,79.41L1114.14,83.26L1116.44,76.39L1118.74,81.68L1121.03,83.35L1123.33,89.94L1125.63,75.69L1127.93,73.84L1130.22,97.07L1132.52,82.15L1134.82,79.64L1137.12,90.51L1139.41,73.02L1144.01,81.28L1146.3,80.77L1148.6,66.34L1150.9,67.6L1153.2,69.91L1155.49,74.34L1157.79,59.01L1160.09,66.41L1162.38,65.5L1164.68,56.87L1166.98,66.4L1169.28,63.43L1171.57,55.47L1173.87,55.85L1176.17,63.98L1178.47,62L1180.76,54.06L1183.06,53.54L1185.36,62.74L1187.65,61.72L1189.95,55.38L1192.25,59.12L1194.55,61.18L1196.84,60.03L1199.14,61.59L1201.44,60.37L1206.03,54.56L1208.33,53.11L1210.63,57.72L1212.92,56.62L1215.22,60.14L1217.52,55.05L1219.81,52.81L1222.11,56.45L1224.41,61.88L1226.71,57.59L1231.3,49.91L1233.6,57.75L1235.9,61.63L1238.19,59.91L1240.49,54.9L1242.79,54.7L1245.08,63.33L1247.38,62.4L1251.98,53.49L1254.27,58.04L1256.57,60.72L1258.87,61.23L1261.16,59.65L1263.46,62.31L1265.76,63.63L1268.06,61.06L1270.35,62.41L1272.65,60.25L1274.95,59.74L1277.24,62.81L1279.54,63.11L1281.84,64.9L1284.14,65.9L1286.43,68.28L1288.73,62.66L1291.03,61.81L1297.92,62.44L1300.22,63.1L1304.81,65.34L1307.11,61.28L1309.41,63.98L1311.7,62.75L1314,64.62L1316.3,62.56L1318.59,60.18L1320.89,65.02L1323.19,70.42L1325.49,70.86L1327.78,55.76L1330.08,55.78L1332.38,58.24L1334.67,67.44L1336.97,74.4L1339.27,63.35L1341.57,76.63L1343.86,64.29L1348.46,66.4L1350.76,72.77L1353.05,56.95L1355.35,60.78L1357.65,67.17L1359.94,67.11L1362.24,64.11L1364.54,68.32L1366.84,68.1L1369.13,65.68L1371.43,66.42L1373.73,73.42L1376.02,71.75L1378.32,67.99L1380.62,64.48L1382.92,69.03L1385.21,72.72L1387.51,73.28L1394.4,68.77L1396.7,71.89L1401.29,74.17L1403.59,78.55L1405.89,70.68L1408.19,69.63L1412.78,76.59L1415.08,78.12L1417.37,69.66L1419.67,66.09L1424.27,70.23L1426.56,64.38L1428.86,64.29L1431.16,60.98L1435.75,55L1438.05,47.23L1440.35,59.79L1442.64,61.92L1447.24,46.41L1449.53,41.01L1451.83,60.9L1454.13,69.42L1458.72,50.65L1461.02,44.99L1463.32,63.8L1465.62,70.67L1472.51,51.75L1474.8,62.42L1477.1,64.32L1479.4,61.72L1481.7,62.51L1483.99,60.46L1486.29,60.64L1488.59,58.09L1495.48,55.55L1497.78,58.81L1500.07,58.36L1502.37,56.17L1504.67,59.34L1506.97,57.06L1511.56,55.94L1513.86,53.52L1516.15,52.67L1518.45,56.6L1520.75,57.54L1523.05,55.26L1525.34,50.65L1527.64,48.4L1529.94,58.6L1532.23,59.12L1534.53,58.77L1536.83,52.39L1539.13,65.88L1541.42,56.6L1543.72,58.86L1546.02,58.65L1548.31,56.11L1550.61,67.32L1552.91,62.13L1555.21,60.62L1557.5,59.13L1559.8,59.93L1562.1,61.68L1564.4,74.15L1566.69,68.68L1568.99,68.93L1571.29,68.34L1573.58,62.56L1575.88,62.02L1578.18,63.22L1580.48,61.73L1582.77,61.97L1585.07,65.7L1587.37,64.55L1589.66,61.02L1591.96,61.5L1596.56,58.9L1598.85,60.07L1601.15,69.44L1603.45,60.02L1605.74,61.48L1608.04,60.93L1610.34,59.24L1612.64,59.72L1614.93,70.31L1617.23,62.03L1621.83,63.56L1624.12,57.62L1626.42,56.66L1628.72,73.31L1631.01,61.3L1633.31,67.74L1635.61,63.37L1637.91,62.57L1640.2,59.42L1642.5,53.51L1644.8,103.03L1647.09,58.57L1649.39,65.79L1651.69,86.47L1653.99,90.49L1656.28,60.75L1658.58,134.99L1660.88,75.83L1663.17,60.67L1665.47,64.11L1667.77,85.65L1670.07,80.73L1674.66,84.68L1676.96,86.68L1679.26,60.71L1681.55,72.25L1683.85,64.81L1686.15,61.69L1688.44,62.16L1690.74,76.09L1693.04,81.24L1695.34,61.99L1697.63,55.58L1699.93,61.24L1702.23,62.44L1704.52,58.38L1706.82,57.99L1709.12,64.45L1711.42,55.49L1713.71,59.84L1716.01,57.45L1718.31,68.93L1720.6,72.96L1722.9,65.64L1725.2,60.92L1727.5,60.57L1729.79,57.86L1732.09,62.52L1734.39,64.54L1736.69,61.6L1738.98,63.97L1741.28,58.88L1743.58,57.89L1745.87,59.39L1748.17,60.77L1750.47,59.39L1752.77,63.85L1755.06,58.99L1757.36,55.75L1759.66,60.14L1761.95,58.83L1764.25,61.81L1766.55,64.45L1768.85,64.63L1771.14,62.62L1773.44,62.23L1775.74,63.58L1778.03,63.29L1780.33,57.85L1782.63,58.8L1784.93,59.47L1787.22,62.71L1789.52,67.74L1791.82,63.82L1794.12,60.28L1796.41,62.49L1801.01,65.43L1803.3,69.05L1805.6,64.13L1807.9,65.47L1810.2,68.15L1812.49,65.02L1817.09,73.19L1819.38,78.33L1821.68,79.43L1823.98,82.95L1826.28,85.72L1828.57,97.14L1830.87,102.22L1833.17,113.68L1835.47,134.14L1837.76,138.86L1842.36,160.29L1844.65,169.82L1846.95,181.89L1849.25,203.75L1851.55,210.84L1853.84,232.2L1860.73,376.75L1863.03,471.83L1867.63,532.49L1869.92,560.91L1874.52,613.57L1876.81,626.26L1879.11,626.92L1881.41,660.34L1886,703.11L1888.3,709.38L1890.6,723.65L1892.9,718.15L1897.49,740.43L1899.79,733.33L1902.08,735L1904.38,731.31L1908.98,749.31L1911.27,740.17L1913.57,734.12L1915.87,737.32L1920.46,756.2L1922.76,741.76L1925.06,732.34L1927.35,741.45L1929.65,752.49L1931.95,740.17L1934.24,733.46L1936.54,739.76L1938.84,751.51L1941.14,740.75L1943.43,734.11L1945.73,739.4L1948.03,750.56L1950.33,740.25L1952.62,734.62L1954.92,739.22L1957.22,749.9L1959.51,739.83L1961.81,735.06L1964.11,739.16L1966.41,749.48L1968.7,735.88L1971,730.06L1973.3,739.74L1975.59,747.66L1977.89,740.73L1980.19,734.94L1982.49,743.73L1987.08,728.57L1989.38,739.29L1991.67,750.62L1993.97,743.01L1996.27,735.43L1998.57,743.57L2003.16,729.46L2005.46,739.3L2007.76,751.35L2010.05,739.08L2012.35,734.83L2014.65,746.42L2016.94,736.18L2019.24,732.99L2021.54,742.82L2023.84,738.62L2026.13,733.16L2028.43,743.05L2033.02,733.33L2035.32,743.18L2037.62,730.51L2039.92,732.03L2042.21,727.31L2044.51,745.32L2046.81,728.18L2049.1,727.62L2051.4,721.21L2053.7,721.38L2056,745.19L2058.29,713.65L2060.59,738.57L2062.89,694.52L2065.19,739.11L2067.48,694.41L2069.78,738.91L2072.08,694.22L2074.37,738.62L2076.67,693.93L2078.97,738.24L2081.27,693.55L2083.56,715.6L2085.86,673.34L2088.16,718.89L2090.45,717.04L2092.75,663.82L2095.05,720.04L2097.35,691.26L2099.64,711.21L2101.94,666.37L2104.24,715.55L2106.53,712.01L2108.83,658.5L2111.13,707.35L2113.43,658.58L2115.72,711.87L2118.02,691.04L2120.32,610.39L2122.62,691.36L2124.91,703.64L2127.21,646.96L2129.51,698.75L2131.8,639.28L2134.1,702.9L2136.4,696.94L2138.7,634.83L2140.99,690.85L2143.29,621.94L2145.59,694.15L2147.88,688.21L2150.18,617.27L2152.48,697.08L2154.78,653.03L2157.07,685.23L2159.37,589.83L2161.67,670.72L2163.97,670.37L2166.26,581.97L2168.56,673.43L2170.86,612.45L2173.15,678.23L2175.45,596.45L2177.75,667.18L2180.05,578.23L2182.34,649.96L2184.64,556.91L2186.94,625.15L2189.23,530.88L2191.53,613.62L2193.83,518.06L2196.13,573.04L2198.42,485.91L2200.72,459.12L2203.02,478.92L2205.31,398.61L2209.91,300.84L2212.21,299.06L2214.5,222.45L2216.8,219.43L2219.1,209.29L2221.4,160.88L2223.69,161.95L2225.99,152.49L2228.29,145.13L2230.58,124.45L2232.88,112.26L2235.18,108.96L2237.48,114.07L2239.77,96.24L2242.07,92.9L2244.37,72.54L2246.66,96.14L2248.96,70.51L2251.26,57.59L2253.56,70.74L2255.85,71.19L2258.15,66.19L2260.45,70.45L2262.74,71.83L2265.04,54.59L2267.34,53.01L2269.64,63.58L2271.93,61.73L2274.23,52.51L2276.53,63.05L2278.83,64L2281.12,47.62L2283.42,44.14L2285.72,59.82L2288.01,62.98L2290.31,50L2292.61,61.03L2294.91,62.5L2299.5,40.16L2301.8,55.05L2304.09,56.78L2306.39,40.71L2308.69,53.84L2310.99,56.49L2313.28,44.49L2315.58,56.39L2317.88,60.61L2320.17,47.29L2322.47,51.63L2324.77,62.01L2327.07,57.51L2329.36,60.85L2331.66,52.31L2333.96,58.18L2336.26,59.65L2338.55,47.3L2340.85,52.28L2343.15,61L2345.44,60.59L2347.74,63.55L2350.04,58.22L2352.34,56.88L2354.63,61.18L2356.93,61.31L2359.23,64.22L2361.52,59.26L2363.82,56.5L2366.12,61.77L2368.42,58.35L2370.71,63.64L2373.01,54.06L2375.31,58.96L2377.6,61.31L2379.9,53.39L2382.2,52.62L2384.5,63.49L2386.79,59.09L2389.09,64.84L2391.39,56.03L2393.69,58.57L2395.98,61.29L2398.28,53.92L2400.58,55.37L2402.87,64.04L2405.17,59.11L2407.47,57.49L2409.77,62.7L2412.06,56.96L2414.36,43.44L2416.66,53.29L2418.95,64.2L2421.25,56.75L2423.55,56.68L2425.85,63L2428.14,56.42L2430.44,43.57L2435.03,66.25L2437.33,56.97L2439.63,53.26L2441.93,61.9L2444.22,61.53L2446.52,55.44L2451.12,65.18L2453.41,59.04L2455.71,44.25L2458.01,56.43L2460.3,69.84L2462.6,63.13L2464.9,59.39L2467.2,63.95L2469.49,63.22L2471.79,65.38L2474.09,66.16L2476.38,64.03L2478.68,59.39L2480.98,58.9L2483.28,67.08L2485.57,65.29L2487.87,62.58L2490.17,67.51L2492.47,65.75L2494.76,72.74L2497.06,61.31L2499.36,60.35L2501.65,74.5L2503.95,65.89L2508.55,60.78L2510.84,68.54L2513.14,65.11L2515.44,64L2517.73,58.73L2520.03,72.5L2522.33,63.66L2524.63,65.69L2526.92,61.1L2529.22,70.04L2531.52,66.67L2533.81,59.33L2538.41,67.94L2540.71,63.2L2543,60.34L2545.3,62.17L2547.6,63.71L2549.9,63.11L2554.49,56.34L2556.79,61.04L2559.08,61.19L2561.38,56.93L2563.68,50.73L2565.98,51.69L2568.27,58.12L2570.57,56L2572.87,51.64L2575.16,58.06L2577.46,59.59L2579.76,56.12L2582.06,53.64L2584.35,54.68L2586.65,61.89L2588.95,58.76L2591.24,54.14L2593.54,57.1L2595.84,64.74L2598.14,62.18L2600.43,59.78L2602.73,66.61L2607.33,64.27L2609.62,62.02L2611.92,77.35L2614.22,81.7L2616.51,80.69L2618.81,72.1L2621.11,95.11L2623.41,65.69L2628,71.27" style="vector-effect: non-scaling-stroke; fill: none; stroke: rgb(0, 170, 0); stroke-opacity: 1; stroke-width: 4px; opacity: 1;"/></g><g class="points"/><g class="text"/></g></g></g><g class="overplot"/><path class="xlines-above crisp" d="M0,0" style="fill: none;"/><path class="ylines-above crisp" d="M0,0" style="fill: none;"/><g class="overlines-above"/><g class="xaxislayer-above"><g class="xtick"><text text-anchor="middle" x="0" y="934" transform="translate(113,0)" style="font-family: 'Open Sans', verdana, arial, sans-serif; font-size: 37px; fill: rgb(42, 63, 95); fill-opacity: 1; white-space: pre; opacity: 1;">0</text></g><g class="xtick"><text text-anchor="middle" x="0" y="934" style="font-family: 'Open Sans', verdana, arial, sans-serif; font-size: 37px; fill: rgb(42, 63, 95); fill-opacity: 1; white-space: pre; opacity: 1;" transform="translate(572.44,0)">200</text></g><g class="xtick"><text text-anchor="middle" x="0" y="934" style="font-family: 'Open Sans', verdana, arial, sans-serif; font-size: 37px; fill: rgb(42, 63, 95); fill-opacity: 1; white-space: pre; opacity: 1;" transform="translate(1031.88,0)">400</text></g><g class="xtick"><text text-anchor="middle" x="0" y="934" style="font-family: 'Open Sans', verdana, arial, sans-serif; font-size: 37px; fill: rgb(42, 63, 95); fill-opacity: 1; white-space: pre; opacity: 1;" transform="translate(1491.32,0)">600</text></g><g class="xtick"><text text-anchor="middle" x="0" y="934" style="font-family: 'Open Sans', verdana, arial, sans-serif; font-size: 37px; fill: rgb(42, 63, 95); fill-opacity: 1; white-space: pre; opacity: 1;" transform="translate(1950.76,0)">800</text></g><g class="xtick"><text text-anchor="middle" x="0" y="934" style="font-family: 'Open Sans', verdana, arial, sans-serif; font-size: 37px; fill: rgb(42, 63, 95); fill-opacity: 1; white-space: pre; opacity: 1;" transform="translate(2410.2,0)">1000</text></g></g><g class="yaxislayer-above"><g class="ytick"><text text-anchor="end" x="112" y="12.95" transform="translate(0,719.73)" style="font-family: 'Open Sans', verdana, arial, sans-serif; font-size: 37px; fill: rgb(42, 63, 95); fill-opacity: 1; white-space: pre; opacity: 1;">−5</text></g><g class="ytick"><text text-anchor="end" x="112" y="12.95" style="font-family: 'Open Sans', verdana, arial, sans-serif; font-size: 37px; fill: rgb(42, 63, 95); fill-opacity: 1; white-space: pre; opacity: 1;" transform="translate(0,541.76)">0</text></g><g class="ytick"><text text-anchor="end" x="112" y="12.95" style="font-family: 'Open Sans', verdana, arial, sans-serif; font-size: 37px; fill: rgb(42, 63, 95); fill-opacity: 1; white-space: pre; opacity: 1;" transform="translate(0,363.79)">5</text></g><g class="ytick"><text text-anchor="end" x="112" y="12.95" style="font-family: 'Open Sans', verdana, arial, sans-serif; font-size: 37px; fill: rgb(42, 63, 95); fill-opacity: 1; white-space: pre; opacity: 1;" transform="translate(0,185.81)">10</text></g></g><g class="overaxes-above"/></g></g><g class="polarlayer"/><g class="ternarylayer"/><g class="geolayer"/><g class="funnelarealayer"/><g class="pielayer"/><g class="iciclelayer"/><g class="treemaplayer"/><g class="sunburstlayer"/><g class="glimages"/><defs id="topdefs-9cf4fa"><g class="clips"/><clipPath id="legend9cf4fa"><rect width="694" height="113" x="0" y="0"/></clipPath></defs><g class="layer-above"><g class="imagelayer"/><g class="shapelayer"/></g><g class="infolayer"><g class="legend" pointer-events="all" transform="translate(2793.56,100)"><rect class="bg" shape-rendering="crispEdges" width="694" height="113" x="0" y="0" style="stroke: rgb(68, 68, 68); stroke-opacity: 1; fill: rgb(255, 255, 255); fill-opacity: 1; stroke-width: 0px;"/><g class="scrollbox" transform="" clip-path="url(#legend9cf4fa)"><g class="groups"><g class="traces" transform="translate(0,30.55)" style="opacity: 1;"><text class="legendtext" text-anchor="start" x="40" y="14.43" style="font-family: 'Open Sans', verdana, arial, sans-serif; font-size: 37px; fill: rgb(42, 63, 95); fill-opacity: 1; white-space: pre;">Predicted Curvature at Anchors #1</text><g class="layers" style="opacity: 1;"><g class="legendfill"/><g class="legendlines"><path class="js-line" d="M5,0h30" style="fill: none; stroke: rgb(170, 0, 0); stroke-opacity: 1; stroke-width: 4px;"/></g><g class="legendsymbols"><g class="legendpoints"/></g></g><rect class="legendtoggle" x="0" y="-25.55" width="688.125" height="51.1" style="fill: rgb(0, 0, 0); fill-opacity: 0;"/></g><g class="traces" transform="translate(0,81.65)" style="opacity: 1;"><text class="legendtext" text-anchor="start" x="40" y="14.43" style="font-family: 'Open Sans', verdana, arial, sans-serif; font-size: 37px; fill: rgb(42, 63, 95); fill-opacity: 1; white-space: pre;">Predicted Curvature at Anchors #2</text><g class="layers" style="opacity: 1;"><g class="legendfill"/><g class="legendlines"><path class="js-line" d="M5,0h30" style="fill: none; stroke: rgb(0, 170, 0); stroke-opacity: 1; stroke-width: 4px;"/></g><g class="legendsymbols"><g class="legendpoints"/></g></g><rect class="legendtoggle" x="0" y="-25.55" width="688.125" height="51.1" style="fill: rgb(0, 0, 0); fill-opacity: 0;"/></g></g></g><rect class="scrollbar" rx="20" ry="3" width="0" height="0" x="0" y="0" style="fill: rgb(128, 139, 164); fill-opacity: 1;"/></g><g class="g-gtitle"/><g class="g-xtitle"><text class="xtitle" x="1427" y="987.8" text-anchor="middle" style="font-family: 'Open Sans', verdana, arial, sans-serif; font-size: 44px; fill: rgb(42, 63, 95); opacity: 1; font-weight: normal; white-space: pre;">Anchor Point Index</text></g><g class="g-ytitle" transform="translate(31.6123046875,0)"><text class="ytitle" transform="rotate(-90,12.387500000000003,498)" x="12.387500000000003" y="498" text-anchor="middle" style="font-family: 'Open Sans', verdana, arial, sans-serif; font-size: 44px; fill: rgb(42, 63, 95); opacity: 1; font-weight: normal; white-space: pre;">Predicted Curvature</text></g><g class="annotation" data-index="0" style="opacity: 1;"><g class="annotation-text-g" transform="rotate(0,1427,66.49999999999993)"><g class="cursor-pointer" transform="translate(210,33)"><rect class="bg" x="0.5" y="0.5" width="2433" height="66" style="stroke-width: 1px; stroke: rgb(0, 0, 0); stroke-opacity: 0; fill: rgb(0, 0, 0); fill-opacity: 0;"/><text class="annotation-text" text-anchor="middle" x="1217.03125" y="54" style="font-family: 'Open Sans', verdana, arial, sans-serif; font-size: 52px; fill: rgb(42, 63, 95); fill-opacity: 1; white-space: pre;"><tspan style="font-weight:bold">Predicted Curvature at Anchors (Transformed Curve #1 vs. Transformed Curve #2)</tspan></text></g></g></g></g></svg>