<svg class="main-svg" xmlns="http://www.w3.org/2000/svg" xmlns:xlink="http://www.w3.org/1999/xlink" width="3500" height="1000" style="" viewBox="0 0 3500 1000"><rect x="0" y="0" width="3500" height="1000" style="fill: rgb(255, 255, 255); fill-opacity: 1;"/><defs id="defs-96d57b"><g class="clips"><clipPath id="clip96d57bxyplot" class="plotclip"><rect width="2606" height="796"/></clipPath><clipPath class="axesclip" id="clip96d57bx"><rect x="136" y="0" width="2606" height="1000"/></clipPath><clipPath class="axesclip" id="clip96d57by"><rect x="0" y="100" width="3500" height="796"/></clipPath><clipPath class="axesclip" id="clip96d57bxy"><rect x="136" y="100" width="2606" height="796"/></clipPath></g><g class="gradients"/><g class="patterns"/></defs><g class="bglayer"><rect class="bg" x="136" y="100" width="2606" height="796" style="fill: rgb(229, 236, 246); fill-opacity: 1; stroke-width: 0;"/></g><g class="layer-below"><g class="imagelayer"/><g class="shapelayer"/></g><g class="cartesianlayer"><g class="subplot xy"><g class="layer-subplot"><g class="shapelayer"/><g class="imagelayer"/></g><g class="gridlayer"><g class="x"><path class="xgrid crisp" transform="translate(603.03,0)" d="M0,100v796" style="stroke: rgb(255, 255, 255); stroke-opacity: 1; stroke-width: 1px;"/><path class="xgrid crisp" transform="translate(1070.05,0)" d="M0,100v796" style="stroke: rgb(255, 255, 255); stroke-opacity: 1; stroke-width: 1px;"/><path class="xgrid crisp" transform="translate(1537.08,0)" d="M0,100v796" style="stroke: rgb(255, 255, 255); stroke-opacity: 1; stroke-width: 1px;"/><path class="xgrid crisp" transform="translate(2004.1,0)" d="M0,100v796" style="stroke: rgb(255, 255, 255); stroke-opacity: 1; stroke-width: 1px;"/><path class="xgrid crisp" transform="translate(2471.13,0)" d="M0,100v796" style="stroke: rgb(255, 255, 255); stroke-opacity: 1; stroke-width: 1px;"/></g><g class="y"><path class="ygrid crisp" transform="translate(0,863.12)" d="M136,0h2606" style="stroke: rgb(255, 255, 255); stroke-opacity: 1; stroke-width: 1px;"/><path class="ygrid crisp" transform="translate(0,704.88)" d="M136,0h2606" style="stroke: rgb(255, 255, 255); stroke-opacity: 1; stroke-width: 1px;"/><path class="ygrid crisp" transform="translate(0,388.4)" d="M136,0h2606" style="stroke: rgb(255, 255, 255); stroke-opacity: 1; stroke-width: 1px;"/><path class="ygrid crisp" transform="translate(0,230.17)" d="M136,0h2606" style="stroke: rgb(255, 255, 255); stroke-opacity: 1; stroke-width: 1px;"/></g></g><g class="zerolinelayer"><path class="xzl zl crisp" transform="translate(136,0)" d="M0,100v796" style="stroke: rgb(255, 255, 255); stroke-opacity: 1; stroke-width: 2px;"/><path class="yzl zl crisp" transform="translate(0,546.64)" d="M136,0h2606" style="stroke: rgb(255, 255, 255); stroke-opacity: 1; stroke-width: 2px;"/></g><path class="xlines-below"/><path class="ylines-below"/><g class="overlines-below"/><g class="xaxislayer-below"/><g class="yaxislayer-below"/><g class="overaxes-below"/><g class="plot" transform="translate(136,100)" clip-path="url(#clip96d57bxyplot)"><g class="scatterlayer mlayer"><g class="trace scatter trace737e4a" style="stroke-miterlimit: 2; opacity: 1;"><g class="fills"/><g class="errorbars"/><g class="lines"><path class="js-line" d="M0,100.46L2.34,105.73L4.67,99.96L7.01,105.37L9.34,99.51L11.68,105.04L14.01,99.09L16.35,104.77L18.68,98.7L21.02,112.24L23.35,117.19L25.69,92.1L28.02,102.95L30.36,111.57L32.69,100.25L35.03,97.48L37.36,104.14L39.7,97.19L42.03,104.12L44.37,96.93L46.7,104.12L49.04,96.7L51.37,104.15L53.71,96.5L56.04,104.2L58.38,96.34L60.71,105.56L65.38,106.64L67.72,103.28L70.05,91.81L72.39,106.51L74.72,108.49L77.06,102.44L79.39,107.05L81.73,103.15L86.4,105.46L88.73,104.19L91.07,102.68L93.41,105.3L98.08,102.86L100.41,105.12L105.08,103.05L107.42,104.9L112.09,103.25L114.42,104.64L121.43,104.33L123.76,104.39L128.43,103.97L130.77,104.14L137.77,103.77L140.11,104.41L142.44,103.1L144.78,103.26L147.11,104.82L149.45,102.6L151.78,102.59L154.12,107.42L156.45,103.77L158.79,95.2L161.12,101.18L163.46,111.4L165.79,104.51L168.13,103.01L170.46,107.26L172.8,105.8L175.13,103.7L177.47,98.24L179.8,101.98L182.14,109.94L186.81,103.67L189.15,106.43L191.48,107.03L193.82,104.58L196.15,104.34L198.49,105.24L200.82,109.73L203.16,106.94L207.83,109.1L210.16,112.68L214.83,107.28L217.17,112.48L219.5,116.89L221.84,115.71L224.17,114.07L226.51,118.62L228.84,120.15L231.18,123.82L233.51,115.38L235.85,120.25L238.18,130.73L240.52,128.31L242.85,125.15L245.19,103.48L247.52,129.02L249.86,114.7L252.19,100.09L254.53,110.58L256.86,105.42L259.2,92.66L261.53,95.93L263.87,87.58L266.2,88.45L268.54,88.24L270.87,86.98L273.21,87.36L275.54,86.43L277.88,96L280.22,97.02L282.55,96.91L284.89,103.3L287.22,98.75L289.56,106.28L291.89,110.26L294.23,111.48L296.56,114.24L301.23,121.85L303.57,116.3L305.9,127.66L308.24,124.65L310.57,119L312.91,118.46L315.24,125.5L317.58,123.66L319.91,121.19L322.25,120.37L324.58,117.48L326.92,123.06L329.25,114.85L331.59,125.41L333.92,114.84L336.26,112.17L338.59,120.07L340.93,121.79L345.6,111.52L347.93,118.7L354.94,116.72L357.27,118.96L359.61,114.06L361.94,115.02L366.61,118.13L368.95,113.32L371.28,110.27L373.62,111.4L375.96,114.48L378.29,114.34L382.96,111.75L385.3,116.32L387.63,114.09L389.97,116.04L392.3,113.84L394.64,117.97L396.97,123.33L399.31,136.55L401.64,129.12L403.98,140.26L406.31,154.59L408.65,158.32L410.98,139.64L413.32,206.43L415.65,194.63L417.99,230.82L420.32,249.46L422.66,296.61L424.99,313.85L427.33,413.33L432,527.89L434.33,562.24L441.34,599.03L443.67,634.94L448.34,685.05L450.68,699.45L455.35,707.48L457.68,704.46L460.02,722.6L462.35,719.25L464.69,714.89L467.03,703.68L469.36,701.74L471.7,705.07L474.03,712.28L476.37,710.54L478.7,693.98L481.04,709.29L483.37,720.42L485.71,712.31L490.38,705.25L492.71,708.56L495.05,705.26L497.38,705.95L502.05,714.57L504.39,707.92L506.72,725.54L509.06,708.39L511.39,717.77L513.73,714.64L516.06,706.77L518.4,707.13L520.73,710.8L523.07,704.16L527.74,707.58L530.07,699.05L532.41,694.46L534.74,708.9L537.08,703.16L539.41,705.79L541.75,701.61L544.08,701.92L546.42,703.45L548.75,650.19L551.09,717.24L553.42,718.41L555.76,711.16L558.09,712.58L560.43,711.53L562.77,719.69L565.1,685.99L567.44,696.5L569.77,725.69L572.11,718.82L574.44,741.96L576.78,712.51L579.11,741.61L581.45,730.03L583.78,722.85L586.12,730.36L588.45,720.92L590.79,724.88L593.12,730.76L595.46,730.42L597.79,715.17L600.13,708.93L602.46,693.68L604.8,694.29L607.13,716.98L609.47,706.02L611.8,694.46L614.14,694.69L616.47,704.1L618.81,703.88L621.14,706.45L623.48,705.66L625.81,698.54L628.15,710.23L630.48,698.02L632.82,709.79L635.15,694.93L637.49,701.39L639.82,709.36L642.16,704.97L644.49,700.99L646.83,703.95L649.16,701.32L651.5,708.99L653.84,712.16L656.17,710.26L658.51,700.39L660.84,699.76L665.51,711.54L667.85,711.71L677.19,698.41L679.52,697.7L681.86,706.09L684.19,704.7L686.53,703.09L688.86,704.08L691.2,704.05L693.53,702.65L700.54,706.08L702.87,706.77L707.54,704.15L709.88,706.51L712.21,705.27L714.55,709.42L716.88,716.14L719.22,702.48L723.89,701.59L726.22,699.57L728.56,709.19L730.89,703.23L733.23,702.42L735.56,702.99L737.9,711.63L740.23,698L742.57,697.63L744.91,700.95L747.24,699.22L749.58,693.65L756.58,674.06L758.92,682.75L763.59,674.24L765.92,661.41L768.26,659.79L770.59,655.92L777.6,625.36L779.93,618.56L782.27,628.17L784.6,600.48L786.94,566.54L789.27,556.26L791.61,521.17L793.94,455.16L798.61,328.26L800.95,296.03L805.62,222.51L807.95,215.35L810.29,200.7L812.62,178.82L814.96,172.3L817.29,155.98L819.63,155.42L821.96,145.77L824.3,133.91L826.63,142.42L831.3,117.59L833.64,131.16L835.97,121.95L838.31,108.13L840.65,120.85L842.98,115.09L845.32,109.88L847.65,124.26L849.99,118.68L852.32,98.04L854.66,127.01L856.99,110.72L859.33,127.95L861.66,117.78L864,98.34L866.33,123.33L868.67,100.83L871,136.13L873.34,123.52L875.67,159.85L878.01,107.99L880.34,130.76L882.68,185.12L885.01,136.41L887.35,127.64L889.68,178.24L894.35,123.74L896.69,136.92L899.02,170.31L901.36,133.91L903.69,122.54L906.03,165.2L910.7,103.67L913.03,141.58L915.37,115.76L917.7,133.72L920.04,93.38L922.37,102.28L924.71,136.73L927.04,103.31L929.38,108.37L931.72,99.04L934.05,106.77L936.39,99.54L938.72,105.32L941.06,103.92L943.39,103.08L945.73,106.83L948.06,102.45L950.4,89.94L952.73,101.55L955.07,95.05L957.4,101.57L959.74,100.93L962.07,101.91L964.41,100.41L966.74,102.26L969.08,100.04L971.41,102.58L973.75,99.8L976.08,102.85L978.42,99.67L980.75,103.08L983.09,99.64L985.42,103.26L987.76,99.7L990.09,103.4L992.43,99.84L994.76,103.49L997.1,100.05L999.43,103.56L1001.77,100.34L1004.1,103.62L1006.44,100.71L1008.77,103.69L1011.11,101.17L1013.44,103.8L1015.78,101.72L1018.11,103.94L1020.45,102.37L1022.78,104.14L1025.12,103.12L1027.46,104.38L1029.79,103.99L1034.46,104.96L1036.8,103.51L1039.13,116.27L1041.47,107.31L1043.8,109.26L1046.14,105.97L1048.47,115.22L1050.81,112.65L1053.14,109.59L1055.48,110.88L1057.81,107.32L1060.15,116.96L1062.48,111.37L1064.82,111.27L1067.15,114.41L1069.49,121.13L1074.16,114.76L1076.49,117.07L1078.83,111.21L1081.16,111.19L1083.5,109.37L1085.83,110.51L1088.17,118.52L1090.5,117.55L1099.84,113.75L1102.18,127.47L1104.51,122.56L1106.85,126.51L1109.18,112.57L1111.52,117.28L1116.19,98.07L1118.53,109.29L1120.86,100.62L1123.2,100.14L1125.53,105.09L1127.87,99.6L1130.2,103.35L1132.54,96.49L1134.87,98.03L1137.21,95.56L1141.88,101.2L1144.21,94.37L1146.55,94.46L1148.88,97.66L1151.22,98.39L1153.55,101.44L1155.89,101.07L1158.22,102.31L1160.56,107.59L1162.89,107.25L1165.23,113.99L1167.56,111.13L1169.9,111.48L1172.23,113.9L1174.57,116.98L1176.9,124.66L1181.57,107.15L1183.91,121.8L1188.58,111.1L1190.91,117.08L1193.25,119.34L1195.58,116.89L1197.92,115.53L1200.25,119.26L1202.59,128.81L1204.92,119.8L1207.26,110.87L1209.59,115.8L1211.93,115.15L1214.27,110.26L1216.6,114.73L1218.94,116.19L1221.27,117.25L1223.61,119.44L1225.94,114.76L1228.28,116.57L1230.61,111.78L1232.95,115.34L1235.28,120.5L1237.62,117.39L1239.95,111.55L1242.29,113.42L1244.62,117.3L1246.96,109.15L1249.29,113.34L1251.63,113.89L1253.96,111.78L1256.3,112.79L1258.63,113.8L1260.97,110.9L1263.3,113.03L1265.64,113.31L1267.97,110.55L1270.31,112.23L1272.64,112.7L1274.98,110.45L1277.31,110.66L1279.65,112.06L1284.32,109.03L1286.65,111.39L1291.32,107.75L1293.66,110.7L1298.33,106.8L1300.66,110L1305.34,106.03L1307.67,109.35L1312.34,105.33L1314.68,108.76L1317.01,106.7L1319.35,107.43L1321.68,107.86L1324.02,109.67L1326.35,103.9L1328.69,106.42L1331.02,105.33L1333.36,107.05L1335.69,110.13L1338.03,109.19L1342.7,104.92L1345.03,107.03L1347.37,108.71L1349.7,102.89L1352.04,105.58L1354.37,105.47L1356.71,102.12L1359.04,104.51L1361.38,107.59L1363.71,102.17L1366.05,108.99L1368.38,104.15L1370.72,105.5L1373.05,103.47L1375.39,101.44L1377.72,104.44L1380.06,105.03L1382.39,101.25L1387.06,103.79L1389.4,102.9L1391.73,98.66L1394.07,101.56L1396.41,103.74L1398.74,103.96L1401.08,113.31L1403.41,111.43L1405.75,101.3L1408.08,105.18L1410.42,101.26L1412.75,100.19L1415.09,107.75L1417.42,108.72L1422.09,103.95L1424.43,110.4L1426.76,100.22L1429.1,103.18L1431.43,104.59L1433.77,103.23L1436.1,115.73L1438.44,104.09L1443.11,104.41L1445.44,102.86L1447.78,109.84L1450.11,104.6L1457.12,103.41L1459.45,108.31L1461.79,113.72L1464.12,109.75L1468.79,106.18L1471.13,113.4L1473.46,110.48L1475.8,109.18L1480.47,105.72L1482.8,106.03L1485.14,113.78L1487.47,107.62L1494.48,107.89L1496.82,105.76L1499.15,111.95L1501.49,99.87L1503.82,108.51L1506.16,108.68L1508.49,102.77L1510.83,102.86L1513.16,118.88L1515.5,111.45L1517.83,116.62L1520.17,113.55L1524.84,120.61L1527.17,109.91L1529.51,103.03L1531.84,112.01L1534.18,111.85L1536.51,110.54L1538.85,120.72L1541.18,118.54L1543.52,135.76L1545.85,109.37L1548.19,123.46L1550.52,112.74L1552.86,100.82L1555.19,105.97L1557.53,98.42L1559.86,109.12L1562.2,92.99L1564.53,110.12L1569.2,95.26L1571.54,103.29L1573.87,88.05L1576.21,84.38L1578.54,101.75L1580.88,85.23L1585.55,39.8L1587.89,82.03L1590.22,72.9L1592.56,119.75L1594.89,103.49L1597.23,101.77L1599.56,106.38L1601.9,93.92L1604.23,113.35L1606.57,113.63L1608.9,118.43L1611.24,120.59L1613.57,123.96L1615.91,109.53L1618.24,125.28L1620.58,109.88L1622.91,114.74L1625.25,116.18L1629.92,115.44L1632.25,143.93L1634.59,114.96L1636.92,114.64L1639.26,114.47L1641.59,126.74L1643.93,120.43L1646.26,118.47L1648.6,108.42L1650.93,134.22L1653.27,107.73L1655.6,124.06L1660.27,116.87L1662.61,113.78L1664.94,126.76L1667.28,112.55L1669.61,113.04L1671.95,108.44L1674.28,119.05L1676.62,117.44L1678.96,117.34L1681.29,112.5L1683.63,120.2L1685.96,103.92L1688.3,125.53L1690.63,115.3L1692.97,112.33L1695.3,113.54L1697.64,117.42L1699.97,143.54L1702.31,138.41L1704.64,93.87L1706.98,128.55L1709.31,134.23L1716.32,180.94L1718.65,164.47L1720.99,206.77L1723.32,229.7L1725.66,282.19L1727.99,308.42L1732.66,466.14L1735,524.43L1737.33,578.96L1739.67,588.65L1744.34,631.39L1746.67,641.75L1749.01,680.96L1751.34,682L1753.68,678.47L1756.01,684.6L1760.68,702.16L1763.02,688.59L1774.7,706.26L1777.03,705.1L1779.37,703.12L1781.7,704.11L1784.04,698.1L1786.37,703.98L1791.04,707.81L1793.38,707.99L1795.71,695.21L1798.05,699.76L1800.38,702.71L1802.72,708.57L1805.05,696.81L1807.39,697.66L1809.72,700.32L1812.06,700.33L1814.39,693.76L1816.73,695.73L1821.4,706.9L1823.73,702.63L1826.07,696.54L1828.4,699.21L1830.74,700.54L1833.07,709.76L1835.41,708.29L1837.74,708.16L1840.08,701.22L1842.41,703.79L1844.75,711.97L1847.08,705.45L1849.42,712.13L1851.75,715.39L1854.09,710.62L1856.42,708.21L1858.76,732.77L1861.09,734.92L1863.43,735.25L1865.77,723.75L1868.1,735.68L1870.44,724.89L1872.77,723.48L1875.11,726.77L1877.44,729.18L1879.78,715.63L1882.11,692.72L1884.45,700.37L1886.78,703.05L1889.12,698.1L1891.45,726.96L1893.79,693.56L1896.12,704.37L1898.46,639.2L1900.79,702.78L1903.13,707.6L1905.46,705.81L1907.8,706.62L1910.13,700.18L1912.47,698.23L1914.8,701.84L1917.14,670.03L1919.47,716.21L1921.81,697.03L1924.14,712.1L1926.48,703.57L1928.81,709.14L1931.15,710.62L1933.48,705.36L1935.82,694.47L1938.15,692.68L1940.49,708.03L1942.82,704.57L1945.16,695.16L1947.49,711.26L1949.83,711.7L1952.16,705.75L1954.5,705.03L1956.84,709.93L1959.17,695.35L1963.84,709.91L1966.18,713.29L1968.51,702.08L1970.85,712.95L1973.18,703.9L1975.52,702.07L1980.19,711.68L1982.52,713.4L1984.86,705.62L1987.19,703.7L1989.53,705.29L1991.86,701.95L1996.53,712.26L1998.87,710.49L2001.2,700.47L2003.54,705.88L2005.87,699.12L2008.21,697.18L2012.88,699.17L2015.21,700.82L2017.55,681.68L2019.88,707.47L2024.55,703.28L2026.89,703.28L2029.22,701.24L2031.56,686.86L2033.89,713.2L2036.23,694.83L2043.23,684.73L2045.57,673.98L2047.91,684L2050.24,683.2L2054.91,660.32L2057.25,647.87L2059.58,656.89L2061.92,646.9L2066.59,622.78L2068.92,610.91L2071.26,588.27L2073.59,595.37L2075.93,572.82L2078.26,567.17L2082.93,492.18L2085.27,390.48L2092.27,277.43L2094.61,265.84L2096.94,265.28L2099.28,231.83L2103.95,182.73L2106.28,194.65L2108.62,153.11L2110.95,144.08L2113.29,148.99L2115.62,138.01L2117.96,145.55L2120.29,108.26L2122.63,105.59L2124.96,111.93L2127.3,134.93L2129.63,111.65L2131.97,101.75L2134.3,104.83L2136.64,118.2L2138.97,104.75L2141.31,97.12L2143.65,99.68L2145.98,108.55L2148.32,99.55L2150.65,96.47L2152.99,110.38L2155.32,103.56L2157.66,100.72L2162.33,118.05L2164.66,99.92L2167,94.53L2169.33,101.72L2176.34,111.37L2178.67,103.41L2181.01,98.95L2183.34,104.23L2185.68,107.59L2188.01,106.61L2190.35,98.82L2192.68,98.46L2195.02,104.72L2197.35,98.37L2199.69,116.02L2202.02,97.16L2204.36,113.85L2206.69,97.59L2209.03,111.79L2211.36,98.09L2213.7,109.88L2216.03,110.7L2218.37,128.52L2220.7,91.25L2223.04,101.95L2225.37,131.66L2227.71,103.59L2230.04,104.5L2232.38,109.92L2234.72,122.36L2237.05,89.95L2239.39,102.64L2241.72,125.74L2244.06,105.31L2246.39,101.3L2248.73,109.44L2251.06,117.31L2253.4,89.83L2258.07,120.95L2260.4,107.88L2262.74,99.97L2265.07,102.72L2267.41,99.84L2269.74,102.95L2272.08,99.81L2274.41,108.92L2276.75,112.28L2279.08,91.25L2283.75,115.76L2286.09,112.65L2288.42,100.28L2290.76,103.57L2293.09,100.56L2295.43,103.66L2297.76,100.92L2300.1,103.77L2302.43,101.36L2304.77,103.9L2307.1,101.9L2309.44,104.09L2311.77,102.55L2314.11,104.33L2316.44,103.31L2318.78,104.65L2321.11,104.2L2323.45,105.09L2330.46,106.41L2332.79,106.79L2335.13,107.74L2337.46,105.52L2339.8,117.14L2342.13,109.69L2349.14,112.11L2351.47,113.22L2353.81,108.35L2356.14,112.06L2358.48,110.35L2360.81,111.5L2363.15,113.52L2365.48,108.55L2367.82,109.01L2370.15,115.87L2372.49,110.22L2374.82,109.18L2377.16,116.4L2379.49,111.81L2381.83,111.45L2384.16,122.99L2386.5,109.03L2388.83,111.96L2391.17,106.28L2393.5,112.99L2395.84,112.2L2398.17,97.12L2400.51,110.59L2402.84,102.86L2405.18,98.15L2407.51,104.29L2409.85,98.8L2412.18,100.82L2414.52,100.33L2416.85,98.61L2421.53,95.98L2423.86,93.84L2426.2,94.59L2428.53,94L2435.54,96.42L2437.87,104.05L2440.21,103.15L2442.54,109.56L2447.21,104.75L2449.55,112.69L2451.88,120.83L2454.22,119.31L2456.55,111.21L2458.89,116.9L2461.22,116.55L2463.56,114L2470.56,114.14L2472.9,117.53L2475.23,117.37L2477.57,115.92L2479.9,111.75L2482.24,126.95L2486.91,117.12L2489.24,126.95L2491.58,117.31L2493.91,116.64L2496.25,117.91L2498.58,123.51L2500.92,117.55L2503.25,120.42L2505.59,114.88L2507.92,117.64L2510.26,120.66L2512.59,116.54L2514.93,116.33L2517.27,120.46L2519.6,120.18L2521.94,112.54L2524.27,120.09L2526.61,114.55L2528.94,118.04L2531.28,118.21L2535.95,115.82L2538.28,116.33L2540.62,118.76L2542.95,112.98L2545.29,116.49L2547.62,114.17L2549.96,112.8L2552.29,109L2554.63,111.64L2556.96,105.24L2559.3,113.6L2561.63,112.36L2563.97,110.26L2566.3,116.27L2568.64,112.16L2570.97,111.88L2575.64,109.35L2577.98,109.51L2582.65,109.92L2584.98,107.75L2587.32,108.54L2589.65,98.96L2591.99,112.22L2594.32,100.77L2596.66,107.44L2598.99,101.64L2601.33,106.59L2603.66,101.01L2606,106.14" style="vector-effect: non-scaling-stroke; fill: none; stroke: rgb(170, 0, 0); stroke-opacity: 1; stroke-width: 4px; opacity: 1;"/></g><g class="points"/><g class="text"/></g><g class="trace scatter trace1a4af4" style="stroke-miterlimit: 2; opacity: 1;"><g class="fills"/><g class="errorbars"/><g class="lines"><path class="js-line" d="M0,112.81L2.34,117.82L4.67,116.11L7.01,134.03L9.34,114.57L11.68,117.41L14.01,115.59L16.35,109.23L18.68,107.15L21.02,109.7L23.35,108.68L25.69,106.9L28.02,107.13L32.69,107.48L35.03,105.43L37.36,107.16L39.7,105.67L42.03,103.39L44.37,113.02L46.7,106.3L49.04,104.46L53.71,107.22L56.04,106.15L63.05,106.67L65.38,104.85L67.72,106.95L70.05,104.05L72.39,103.72L74.72,106.2L77.06,104.31L79.39,104.04L81.73,102.65L84.06,106.93L86.4,103.61L88.73,103.96L91.07,105.92L93.41,104.2L98.08,102.95L100.41,107.01L102.75,103.3L105.08,104.3L107.42,105.69L109.75,104.13L114.42,103.37L116.76,107.08L119.09,103L121.43,104.64L123.76,105.47L126.1,104.05L128.43,103.64L130.77,101.35L133.1,101.95L135.44,104.83L137.77,101.56L140.11,104.7L142.44,105.21L144.78,101.81L147.11,103.47L149.45,102.46L151.78,103.71L154.12,102.57L158.79,102.01L161.12,104.05L163.46,100.34L165.79,102.53L168.13,106.31L170.46,103.4L172.8,98.01L175.13,105.03L177.47,106.12L179.8,103.31L182.14,97.51L184.47,106.38L186.81,105.94L189.15,103.55L191.48,97.27L193.82,108.31L198.49,104.21L200.82,97.58L203.16,110.34L205.49,105.45L207.83,105.03L210.16,98.81L212.5,111.74L214.83,104.72L217.17,105.29L219.5,101.11L221.84,113.24L224.17,104.81L226.51,105.24L228.84,104.27L231.18,115.09L233.51,108.58L235.85,105.74L238.18,108.13L240.52,109.05L242.85,121.82L247.52,108.81L249.86,106L252.19,101L254.53,111.21L256.86,123.97L259.2,122.58L261.53,103.31L263.87,108.29L266.2,122.47L268.54,127.12L270.87,108.72L273.21,115.1L275.54,112.81L277.88,107.88L280.22,95.29L282.55,95.8L284.89,97.33L287.22,90.27L289.56,88.7L291.89,105.04L294.23,87.45L296.56,84.56L298.9,82.77L301.23,94.56L303.57,90.21L305.9,95.65L308.24,97.06L310.57,109.25L312.91,109.53L315.24,115.02L317.58,108.85L319.91,111.84L322.25,117.71L324.58,120.22L326.92,123.5L329.25,119.1L333.92,116.43L336.26,119.84L338.59,127.34L340.93,117.27L343.26,124.79L345.6,119.12L347.93,117.89L350.27,134.45L352.6,117.04L354.94,118.73L357.27,120.76L359.61,129.84L361.94,117.19L364.28,123.85L366.61,126.39L368.95,121.34L371.28,113.44L373.62,119.7L375.96,117.93L378.29,120.96L380.63,124.44L382.96,132.85L385.3,124.92L387.63,125.42L389.97,129.19L392.3,115.13L396.97,132.85L399.31,132.9L401.64,127.24L403.98,138.55L406.31,148.54L408.65,169.71L410.98,161.9L413.32,183.84L415.65,201.45L417.99,203.51L420.32,238.31L422.66,255.86L424.99,318.95L427.33,410.17L432,521.27L434.33,547.33L436.67,583.69L439,603.06L441.34,621.13L443.67,651.9L446.01,654.35L448.34,663.15L450.68,664.78L453.01,671.59L455.35,675.45L457.68,689.84L460.02,690.1L462.35,684.96L464.69,690.87L467.03,692.76L469.36,703.49L471.7,694.61L474.03,698.9L476.37,695.83L478.7,690.56L481.04,697.24L483.37,693.5L485.71,693.61L488.04,703.74L490.38,696.95L492.71,689.53L495.05,693.81L497.38,688.97L499.72,695.5L502.05,687.83L504.39,693.88L506.72,691.8L509.06,685.94L511.39,695.6L513.73,698.82L516.06,679.64L518.4,691.69L520.73,696.39L523.07,691.58L525.4,702.74L527.74,695.48L530.07,680.14L532.41,710.18L534.74,706.47L537.08,706.18L539.41,712.94L541.75,723.13L544.08,726.99L546.42,735.26L548.75,732.05L551.09,732.97L553.42,736.34L555.76,736.05L558.09,727.46L560.43,725.59L567.44,703L569.77,699L574.44,693.76L576.78,684.59L579.11,686.21L581.45,679.34L583.78,684.5L586.12,678.26L588.45,687.23L590.79,679.94L593.12,689.1L595.46,683.36L597.79,689.82L600.13,687.45L602.46,691.3L604.8,691.24L607.13,700.56L609.47,704.2L611.8,703.45L614.14,694.47L616.47,706.2L618.81,701.14L621.14,706.11L623.48,700.93L625.81,704.55L628.15,705.54L630.48,700.69L632.82,711.7L637.49,707.97L639.82,710.35L642.16,708.14L644.49,712.22L646.83,703.77L649.16,704.99L651.5,707.36L653.84,707.25L656.17,708.76L658.51,707.57L660.84,707.35L663.18,716.41L665.51,710.69L667.85,708.99L670.18,711.93L672.52,711.19L674.85,715.23L677.19,703.07L679.52,706.45L681.86,712.66L684.19,697.63L686.53,714.42L691.2,703.24L693.53,709.73L695.87,707.74L698.2,719.01L700.54,710.42L702.87,707.26L707.54,711.7L709.88,716.71L712.21,701.03L714.55,704.82L716.88,710.62L719.22,706.94L721.55,706.48L723.89,708.01L726.22,708.78L728.56,716.16L730.89,704.18L733.23,706.31L735.56,698.53L737.9,705.17L740.23,706.87L742.57,704.92L744.91,703.03L747.24,691.9L749.58,693.82L751.91,687.71L756.58,701.12L758.92,693.31L763.59,665.16L765.92,671.11L768.26,655.47L770.59,660.6L775.26,642.12L777.6,640.48L779.93,610L782.27,594.12L784.6,601.7L786.94,587.15L789.27,550.76L791.61,534.03L793.94,485.54L796.28,413.49L800.95,267.98L803.28,249.07L805.62,247.97L807.95,224.96L810.29,173.47L812.62,160L814.96,165.86L817.29,159.14L819.63,134.84L821.96,133.57L824.3,139.91L826.63,131.39L828.97,122.71L831.3,119.01L833.64,116.51L835.97,120.99L838.31,112.95L840.65,119.25L842.98,101.15L845.32,102.71L847.65,104.26L849.99,100.51L852.32,99.33L854.66,107.91L856.99,102.79L859.33,100.83L861.66,104.5L864,100.17L866.33,97.03L868.67,105.94L871,107.21L873.34,104.46L875.67,97.78L878.01,109.54L882.68,101.78L885.01,98.17L887.35,107.59L889.68,101.36L892.02,97.86L894.35,100.68L896.69,102.58L899.02,106.38L901.36,105.77L903.69,99.47L906.03,100.97L908.36,105.21L910.7,100.61L913.03,105.12L917.7,102.86L920.04,95.28L922.37,103.65L924.71,100.45L927.04,102.24L929.38,102.73L931.72,105.05L934.05,101.53L936.39,92.35L938.72,104.92L941.06,97.22L943.39,109.48L945.73,130.9L948.06,91L950.4,101.11L952.73,130.93L955.07,97.11L957.4,105.61L959.74,111.3L962.07,127.22L964.41,89.88L966.74,114.88L969.08,146.09L971.41,115.77L973.75,114.45L976.08,144.62L978.42,115.19L980.75,114.09L983.09,143.27L985.42,114.8L987.76,113.79L990.09,142.03L992.43,114.59L994.76,101.72L997.1,122.12L999.43,107.42L1001.77,119.83L1004.1,89L1008.77,120.63L1011.11,100.52L1013.44,99.07L1015.78,104.19L1018.11,103.33L1020.45,106.81L1022.78,102.59L1025.12,88.98L1027.46,103.73L1029.79,93.15L1032.13,102.86L1034.46,103.86L1036.8,106.95L1039.13,103.38L1041.47,89.24L1043.8,104.31L1048.47,107.18L1050.81,104.14L1053.14,89.74L1055.48,104.1L1057.81,107.81L1060.15,101.63L1062.48,105.87L1064.82,104.1L1067.15,102.38L1069.49,103.98L1074.16,103.27L1076.49,103.73L1081.16,103.86L1083.5,103.42L1088.17,104.65L1090.5,103.11L1092.84,103.74L1095.17,105.78L1097.51,103.01L1099.84,102.87L1102.18,107.22L1104.51,103.38L1106.85,102.14L1109.18,105.55L1111.52,109.68L1113.85,105.89L1118.53,108.89L1120.86,104L1123.2,109.33L1125.53,111.83L1127.87,115.64L1130.2,109.06L1132.54,107.12L1134.87,110.39L1137.21,111.25L1139.54,119.08L1141.88,114.02L1144.21,117.25L1148.88,108.28L1151.22,111.81L1153.55,112.69L1155.89,116.72L1158.22,104.73L1160.56,117.29L1162.89,116.13L1165.23,106.02L1167.56,118.07L1169.9,111.69L1172.23,104.95L1174.57,116.1L1179.24,100.26L1181.57,111.17L1183.91,101.83L1186.24,99.9L1188.58,105.44L1190.91,100.9L1193.25,103.7L1195.58,96.18L1197.92,97.87L1200.25,93.98L1202.59,91.45L1204.92,97L1207.26,95.7L1209.59,99.08L1211.93,96.49L1214.27,101.16L1216.6,105.53L1218.94,99.36L1221.27,108.66L1223.61,109.15L1225.94,103.3L1228.28,111.06L1230.61,112.26L1232.95,111.73L1235.28,114.04L1237.62,114.67L1239.95,114.81L1242.29,118.54L1246.96,113.61L1249.29,115.83L1251.63,114.03L1253.96,116.37L1256.3,113.98L1258.63,119.81L1263.3,117.49L1265.64,118.91L1267.97,122.4L1270.31,117.3L1272.64,122.32L1274.98,115.39L1277.31,115.99L1279.65,119.83L1281.98,114.93L1284.32,116.84L1286.65,118.99L1288.99,123.67L1291.32,114.39L1293.66,117.11L1295.99,113.24L1298.33,115.68L1300.66,116.33L1303,110.74L1305.34,118.23L1307.67,118.73L1310.01,117.76L1312.34,120.19L1314.68,110.83L1317.01,110.84L1319.35,110.58L1321.68,112.48L1328.69,118.29L1331.02,112.71L1333.36,113.67L1335.69,113.06L1342.7,109.47L1345.03,110.12L1349.7,108.93L1352.04,108.98L1354.37,107.99L1356.71,114.94L1359.04,113.07L1361.38,109.89L1363.71,106.86L1366.05,110.42L1368.38,106.91L1370.72,107.71L1375.39,104.74L1377.72,108.38L1382.39,107.44L1384.73,106.07L1387.06,104.67L1389.4,115.24L1391.73,107.25L1394.07,106.73L1398.74,104.27L1401.08,129.11L1403.41,111.85L1405.75,113.5L1408.08,108.34L1410.42,137.41L1412.75,108.39L1415.09,115.49L1417.42,102.49L1419.76,100.84L1422.09,111.62L1424.43,164.31L1426.76,127.8L1429.1,111.73L1431.43,104.65L1433.77,102.81L1436.1,104.33L1438.44,109.03L1440.77,109.11L1443.11,111.06L1445.44,110.25L1447.78,108.3L1450.11,106.38L1452.45,129.2L1454.78,110.19L1457.12,104.49L1459.45,102.65L1461.79,103.9L1464.12,109.11L1466.46,108.72L1468.79,111.21L1471.13,109.78L1475.8,105.94L1478.13,130.3L1480.47,108.87L1482.8,104.8L1487.47,102.96L1489.81,108.31L1492.15,113.7L1494.48,108.54L1496.82,107.46L1499.15,104.7L1501.49,106.04L1503.82,122.8L1506.16,106.33L1508.49,104.73L1510.83,103.87L1513.16,105.06L1515.5,112.82L1517.83,101.41L1524.84,106.21L1527.17,113.41L1529.51,105.17L1531.84,104.4L1534.18,105.65L1536.51,112.09L1541.18,105.96L1543.52,108.01L1548.19,114.66L1550.52,107.69L1552.86,112.9L1555.19,103.63L1557.53,118.78L1559.86,117.51L1562.2,115.18L1564.53,107.41L1569.2,123.96L1571.54,119.37L1573.87,107.25L1576.21,129.2L1578.54,121.62L1580.88,103.29L1583.22,111.72L1585.55,107.63L1587.89,103.71L1590.22,95.01L1592.56,96.49L1594.89,85.63L1597.23,79.75L1599.56,82.29L1601.9,95.24L1604.23,96.64L1606.57,89.29L1608.9,95.07L1611.24,97.92L1613.57,91.09L1618.24,111.43L1620.58,107.15L1622.91,111.11L1625.25,131.57L1627.58,120.62L1629.92,116.14L1632.25,120.75L1634.59,129.99L1636.92,123.19L1639.26,144.22L1641.59,118.48L1643.93,120.5L1646.26,129.21L1648.6,118.84L1650.93,123.53L1653.27,123.18L1655.6,121.32L1657.94,114.36L1662.61,129.11L1664.94,124.54L1667.28,113.95L1669.61,124.05L1671.95,128.53L1674.28,120.68L1676.62,113.8L1678.96,118.54L1681.29,117.34L1683.63,121.55L1685.96,126.91L1688.3,122.41L1690.63,118.55L1692.97,120.61L1695.3,124.47L1697.64,109.89L1699.97,116.19L1702.31,128.86L1704.64,140.79L1706.98,141.75L1709.31,134.1L1711.65,150.18L1713.98,172.92L1716.32,185.74L1720.99,232.94L1723.32,237.18L1727.99,318.87L1730.33,417.84L1735,539.56L1737.33,550.69L1744.34,608.34L1746.67,644.47L1749.01,649.49L1751.34,665.03L1753.68,679.82L1756.01,685.76L1758.35,677.56L1760.68,682.04L1763.02,686.92L1765.35,695.03L1767.69,700.32L1770.03,678.52L1772.36,681.65L1774.7,689.94L1777.03,696.58L1779.37,707.22L1781.7,703.11L1784.04,701.62L1788.71,692.68L1791.04,696.99L1793.38,701.48L1795.71,703.49L1798.05,702.11L1800.38,699.31L1802.72,697.69L1805.05,705.7L1807.39,702.86L1809.72,693.74L1814.39,701.31L1816.73,709.5L1819.06,698.24L1821.4,703.91L1823.73,706.94L1826.07,712.78L1828.4,716.98L1830.74,724.55L1833.07,725.31L1835.41,730.98L1837.74,739.04L1840.08,734.02L1842.41,745.59L1844.75,746.43L1847.08,736.67L1849.42,756.2L1851.75,723.53L1854.09,711.63L1856.42,714L1858.76,711.67L1861.09,692.69L1863.43,702.28L1865.77,703.46L1868.1,698.96L1870.44,700.11L1872.77,683.74L1875.11,698.95L1877.44,689.62L1879.78,704.36L1882.11,698.06L1884.45,692.37L1886.78,682.4L1889.12,700.4L1891.45,691.77L1893.79,685.26L1896.12,684.41L1898.46,694.04L1900.79,697.54L1903.13,700.35L1905.46,700.04L1907.8,702.1L1910.13,698.3L1912.47,703.47L1914.8,704.66L1917.14,700L1919.47,701.91L1921.81,706.78L1924.14,706.27L1926.48,707.15L1928.81,710.45L1931.15,709.35L1933.48,706.55L1938.15,706.18L1940.49,704.98L1942.82,703.69L1945.16,709.73L1947.49,707.47L1949.83,709.19L1952.16,709.9L1954.5,708.04L1956.84,710.06L1959.17,709.69L1961.51,708.45L1963.84,710.88L1968.51,708.71L1970.85,711.6L1973.18,709.44L1975.52,708.86L1977.85,712.09L1980.19,709L1982.52,708.88L1984.86,712.24L1987.19,712.15L1989.53,713.09L1991.86,708.91L1994.2,712.55L1996.53,710.6L1998.87,710.01L2001.2,714.57L2003.54,702.43L2008.21,706.65L2010.54,705.2L2012.88,705.71L2015.21,710.12L2017.55,706.23L2019.88,706.91L2022.22,699.77L2024.55,706.01L2026.89,707.54L2029.22,706.43L2031.56,704.81L2033.89,693.77L2036.23,695.79L2038.56,690.66L2043.23,701.26L2045.57,695.42L2047.91,690.23L2050.24,676.49L2052.58,678.2L2054.91,673.72L2059.58,651.39L2061.92,652.24L2064.25,638.14L2066.59,630.2L2068.92,621.52L2071.26,604.38L2075.93,591.35L2078.26,566.61L2080.6,494.01L2082.93,458.73L2092.27,283.01L2094.61,265.44L2099.28,241.47L2101.61,222.4L2103.95,208.48L2106.28,184.79L2110.95,166.31L2113.29,140.66L2115.62,133.28L2117.96,131.43L2122.63,110.77L2124.96,111.04L2127.3,140.52L2129.63,119.24L2136.64,106.62L2138.97,95.5L2141.31,102.5L2143.65,102.3L2145.98,104.37L2148.32,102.47L2150.65,103.26L2152.99,109.82L2155.32,97.59L2157.66,102.79L2159.99,104.43L2162.33,101.42L2164.66,100.37L2167,102.18L2171.67,102.1L2174,100.87L2178.67,94.35L2181.01,112.03L2183.34,103.08L2185.68,102.62L2190.35,96.31L2192.68,103.38L2195.02,103.28L2197.35,106.38L2199.69,104.38L2202.02,104.85L2204.36,98.34L2206.69,115.88L2209.03,100.82L2211.36,103.51L2213.7,101.23L2216.03,97.31L2218.37,97.71L2220.7,105.69L2223.04,111.62L2225.37,108.27L2230.04,96.21L2232.38,107.31L2234.72,104.59L2237.05,103.55L2239.39,101.59L2241.72,97.08L2244.06,107.97L2246.39,103.86L2248.73,102.43L2251.06,99.29L2253.4,106.8L2255.73,103.58L2258.07,105.75L2260.4,103.8L2262.74,103.14L2265.07,104.08L2267.41,105.65L2269.74,103.33L2272.08,103.89L2274.41,106.23L2281.42,99.94L2283.75,105.93L2286.09,104.98L2288.42,99.57L2293.09,105.51L2295.43,98.35L2297.76,108.39L2300.1,102.27L2302.43,90.07L2304.77,102.74L2307.1,103.12L2309.44,107.11L2311.77,102.28L2314.11,88.91L2316.44,104.27L2318.78,103.9L2321.11,107.25L2323.45,102.85L2325.78,89.06L2328.12,104.35L2330.46,105.14L2332.79,107.42L2335.13,103.66L2337.46,89.48L2339.8,104.44L2342.13,106.95L2344.47,107.46L2346.8,104.72L2349.14,90.36L2351.47,104.21L2353.81,109.3L2356.14,102.09L2358.48,106.09L2360.81,106.2L2365.48,105.61L2367.82,91.87L2372.49,113.07L2374.82,103.52L2379.49,109.91L2381.83,105.93L2384.16,103.22L2386.5,102.93L2388.83,107.61L2391.17,103.67L2393.5,102.23L2395.84,108.82L2400.51,102.35L2402.84,109.38L2407.51,103.2L2409.85,109.51L2412.18,108.35L2414.52,105.33L2416.85,109.73L2419.19,110.96L2421.53,107.92L2423.86,116.8L2426.2,114.41L2428.53,109.42L2433.2,118.34L2435.54,108.39L2437.87,119.79L2440.21,114.5L2442.54,112.06L2444.88,116.24L2447.21,114.15L2449.55,104.44L2451.88,117.25L2454.22,112.59L2456.55,104.9L2458.89,116.61L2461.22,107.36L2463.56,106.89L2465.89,112.13L2468.23,105.54L2470.56,100.67L2472.9,103.71L2477.57,95.04L2479.9,98.78L2482.24,101.66L2484.57,100.77L2486.91,94.11L2489.24,101.42L2491.58,100.7L2493.91,96.66L2496.25,102.32L2498.58,103.09L2500.92,99.31L2503.25,106.71L2505.59,107L2507.92,100.85L2512.59,111.12L2514.93,108.24L2517.27,112.75L2519.6,109.64L2521.94,115.24L2524.27,113.79L2526.61,118.15L2528.94,127.64L2531.28,114.88L2533.61,108.76L2535.95,119.91L2538.28,113.48L2540.62,112.42L2542.95,114.07L2545.29,114.15L2547.62,119L2549.96,117.14L2552.29,112.24L2554.63,118.08L2556.96,113.84L2561.63,116.95L2563.97,119.6L2566.3,114.49L2568.64,115.79L2570.97,115.74L2573.31,111.8L2575.64,114.66L2577.98,113.49L2580.31,111.12L2582.65,113.18L2584.98,111.82L2587.32,111.62L2589.65,111.48L2591.99,126.86L2594.32,124.58L2596.66,126.88L2598.99,124.34L2601.33,103.67L2603.66,106.79L2606,106.16" style="vector-effect: non-scaling-stroke; fill: none; stroke: rgb(0, 170, 0); stroke-opacity: 1; stroke-width: 4px; opacity: 1;"/></g><g class="points"/><g class="text"/></g></g></g><g class="overplot"/><path class="xlines-above crisp" d="M0,0" style="fill: none;"/><path class="ylines-above crisp" d="M0,0" style="fill: none;"/><g class="overlines-above"/><g class="xaxislayer-above"><g class="xtick"><text text-anchor="middle" x="0" y="934" transform="translate(136,0)" style="font-family: 'Open Sans', verdana, arial, sans-serif; font-size: 37px; fill: rgb(42, 63, 95); fill-opacity: 1; white-space: pre; opacity: 1;">0</text></g><g class="xtick"><text text-anchor="middle" x="0" y="934" style="font-family: 'Open Sans', verdana, arial, sans-serif; font-size: 37px; fill: rgb(42, 63, 95); fill-opacity: 1; white-space: pre; opacity: 1;" transform="translate(603.03,0)">200</text></g><g class="xtick"><text text-anchor="middle" x="0" y="934" style="font-family: 'Open Sans', verdana, arial, sans-serif; font-size: 37px; fill: rgb(42, 63, 95); fill-opacity: 1; white-space: pre; opacity: 1;" transform="translate(1070.05,0)">400</text></g><g class="xtick"><text text-anchor="middle" x="0" y="934" style="font-family: 'Open Sans', verdana, arial, sans-serif; font-size: 37px; fill: rgb(42, 63, 95); fill-opacity: 1; white-space: pre; opacity: 1;" transform="translate(1537.08,0)">600</text></g><g class="xtick"><text text-anchor="middle" x="0" y="934" style="font-family: 'Open Sans', verdana, arial, sans-serif; font-size: 37px; fill: rgb(42, 63, 95); fill-opacity: 1; white-space: pre; opacity: 1;" transform="translate(2004.1,0)">800</text></g><g class="xtick"><text text-anchor="middle" x="0" y="934" style="font-family: 'Open Sans', verdana, arial, sans-serif; font-size: 37px; fill: rgb(42, 63, 95); fill-opacity: 1; white-space: pre; opacity: 1;" transform="translate(2471.13,0)">1000</text></g></g><g class="yaxislayer-above"><g class="ytick"><text text-anchor="end" x="135" y="12.95" transform="translate(0,863.12)" style="font-family: 'Open Sans', verdana, arial, sans-serif; font-size: 37px; fill: rgb(42, 63, 95); fill-opacity: 1; white-space: pre; opacity: 1;">−10</text></g><g class="ytick"><text text-anchor="end" x="135" y="12.95" style="font-family: 'Open Sans', verdana, arial, sans-serif; font-size: 37px; fill: rgb(42, 63, 95); fill-opacity: 1; white-space: pre; opacity: 1;" transform="translate(0,704.88)">−5</text></g><g class="ytick"><text text-anchor="end" x="135" y="12.95" style="font-family: 'Open Sans', verdana, arial, sans-serif; font-size: 37px; fill: rgb(42, 63, 95); fill-opacity: 1; white-space: pre; opacity: 1;" transform="translate(0,546.64)">0</text></g><g class="ytick"><text text-anchor="end" x="135" y="12.95" style="font-family: 'Open Sans', verdana, arial, sans-serif; font-size: 37px; fill: rgb(42, 63, 95); fill-opacity: 1; white-space: pre; opacity: 1;" transform="translate(0,388.4)">5</text></g><g class="ytick"><text text-anchor="end" x="135" y="12.95" style="font-family: 'Open Sans', verdana, arial, sans-serif; font-size: 37px; fill: rgb(42, 63, 95); fill-opacity: 1; white-space: pre; opacity: 1;" transform="translate(0,230.17)">10</text></g></g><g class="overaxes-above"/></g></g><g class="polarlayer"/><g class="ternarylayer"/><g class="geolayer"/><g class="funnelarealayer"/><g class="pielayer"/><g class="iciclelayer"/><g class="treemaplayer"/><g class="sunburstlayer"/><g class="glimages"/><defs id="topdefs-96d57b"><g class="clips"/><clipPath id="legend96d57b"><rect width="694" height="113" x="0" y="0"/></clipPath></defs><g class="layer-above"><g class="imagelayer"/><g class="shapelayer"/></g><g class="infolayer"><g class="legend" pointer-events="all" transform="translate(2794.12,100)"><rect class="bg" shape-rendering="crispEdges" width="694" height="113" x="0" y="0" style="stroke: rgb(68, 68, 68); stroke-opacity: 1; fill: rgb(255, 255, 255); fill-opacity: 1; stroke-width: 0px;"/><g class="scrollbox" transform="" clip-path="url(#legend96d57b)"><g class="groups"><g class="traces" transform="translate(0,30.55)" style="opacity: 1;"><text class="legendtext" text-anchor="start" x="40" y="14.43" style="font-family: 'Open Sans', verdana, arial, sans-serif; font-size: 37px; fill: rgb(42, 63, 95); fill-opacity: 1; white-space: pre;">Predicted Curvature at Anchors #1</text><g class="layers" style="opacity: 1;"><g class="legendfill"/><g class="legendlines"><path class="js-line" d="M5,0h30" style="fill: none; stroke: rgb(170, 0, 0); stroke-opacity: 1; stroke-width: 4px;"/></g><g class="legendsymbols"><g class="legendpoints"/></g></g><rect class="legendtoggle" x="0" y="-25.55" width="688.125" height="51.1" style="fill: rgb(0, 0, 0); fill-opacity: 0;"/></g><g class="traces" transform="translate(0,81.65)" style="opacity: 1;"><text class="legendtext" text-anchor="start" x="40" y="14.43" style="font-family: 'Open Sans', verdana, arial, sans-serif; font-size: 37px; fill: rgb(42, 63, 95); fill-opacity: 1; white-space: pre;">Predicted Curvature at Anchors #2</text><g class="layers" style="opacity: 1;"><g class="legendfill"/><g class="legendlines"><path class="js-line" d="M5,0h30" style="fill: none; stroke: rgb(0, 170, 0); stroke-opacity: 1; stroke-width: 4px;"/></g><g class="legendsymbols"><g class="legendpoints"/></g></g><rect class="legendtoggle" x="0" y="-25.55" width="688.125" height="51.1" style="fill: rgb(0, 0, 0); fill-opacity: 0;"/></g></g></g><rect class="scrollbar" rx="20" ry="3" width="0" height="0" x="0" y="0" style="fill: rgb(128, 139, 164); fill-opacity: 1;"/></g><g class="g-gtitle"/><g class="g-xtitle"><text class="xtitle" x="1439" y="987.8" text-anchor="middle" style="font-family: 'Open Sans', verdana, arial, sans-serif; font-size: 44px; fill: rgb(42, 63, 95); opacity: 1; font-weight: normal; white-space: pre;">Anchor Point Index</text></g><g class="g-ytitle" transform="translate(32.1279296875,0)"><text class="ytitle" transform="rotate(-90,11.871875000000003,498)" x="11.871875000000003" y="498" text-anchor="middle" style="font-family: 'Open Sans', verdana, arial, sans-serif; font-size: 44px; fill: rgb(42, 63, 95); opacity: 1; font-weight: normal; white-space: pre;">Predicted Curvature</text></g><g class="annotation" data-index="0" style="opacity: 1;"><g class="annotation-text-g" transform="rotate(0,1439,66.49999999999993)"><g class="cursor-pointer" transform="translate(222,33)"><rect class="bg" x="0.5" y="0.5" width="2433" height="66" style="stroke-width: 1px; stroke: rgb(0, 0, 0); stroke-opacity: 0; fill: rgb(0, 0, 0); fill-opacity: 0;"/><text class="annotation-text" text-anchor="middle" x="1217.03125" y="54" style="font-family: 'Open Sans', verdana, arial, sans-serif; font-size: 52px; fill: rgb(42, 63, 95); fill-opacity: 1; white-space: pre;"><tspan style="font-weight:bold">Predicted Curvature at Anchors (Transformed Curve #1 vs. Transformed Curve #2)</tspan></text></g></g></g></g></svg>