<svg class="main-svg" xmlns="http://www.w3.org/2000/svg" xmlns:xlink="http://www.w3.org/1999/xlink" width="3500" height="1000" style="" viewBox="0 0 3500 1000"><rect x="0" y="0" width="3500" height="1000" style="fill: rgb(255, 255, 255); fill-opacity: 1;"/><defs id="defs-171931"><g class="clips"><clipPath id="clip171931xyplot" class="plotclip"><rect width="2582" height="796"/></clipPath><clipPath class="axesclip" id="clip171931x"><rect x="160" y="0" width="2582" height="1000"/></clipPath><clipPath class="axesclip" id="clip171931y"><rect x="0" y="100" width="3500" height="796"/></clipPath><clipPath class="axesclip" id="clip171931xy"><rect x="160" y="100" width="2582" height="796"/></clipPath></g><g class="gradients"/><g class="patterns"/></defs><g class="bglayer"><rect class="bg" x="160" y="100" width="2582" height="796" style="fill: rgb(229, 236, 246); fill-opacity: 1; stroke-width: 0;"/></g><g class="layer-below"><g class="imagelayer"/><g class="shapelayer"/></g><g class="cartesianlayer"><g class="subplot xy"><g class="layer-subplot"><g class="shapelayer"/><g class="imagelayer"/></g><g class="gridlayer"><g class="x"><path class="xgrid crisp" transform="translate(612.98,0)" d="M0,100v796" style="stroke: rgb(255, 255, 255); stroke-opacity: 1; stroke-width: 1px;"/><path class="xgrid crisp" transform="translate(1065.96,0)" d="M0,100v796" style="stroke: rgb(255, 255, 255); stroke-opacity: 1; stroke-width: 1px;"/><path class="xgrid crisp" transform="translate(1518.95,0)" d="M0,100v796" style="stroke: rgb(255, 255, 255); stroke-opacity: 1; stroke-width: 1px;"/><path class="xgrid crisp" transform="translate(1971.93,0)" d="M0,100v796" style="stroke: rgb(255, 255, 255); stroke-opacity: 1; stroke-width: 1px;"/><path class="xgrid crisp" transform="translate(2424.91,0)" d="M0,100v796" style="stroke: rgb(255, 255, 255); stroke-opacity: 1; stroke-width: 1px;"/></g><g class="y"><path class="ygrid crisp" transform="translate(0,828.01)" d="M160,0h2582" style="stroke: rgb(255, 255, 255); stroke-opacity: 1; stroke-width: 1px;"/><path class="ygrid crisp" transform="translate(0,748.21)" d="M160,0h2582" style="stroke: rgb(255, 255, 255); stroke-opacity: 1; stroke-width: 1px;"/><path class="ygrid crisp" transform="translate(0,668.41)" d="M160,0h2582" style="stroke: rgb(255, 255, 255); stroke-opacity: 1; stroke-width: 1px;"/><path class="ygrid crisp" transform="translate(0,588.61)" d="M160,0h2582" style="stroke: rgb(255, 255, 255); stroke-opacity: 1; stroke-width: 1px;"/><path class="ygrid crisp" transform="translate(0,429.01)" d="M160,0h2582" style="stroke: rgb(255, 255, 255); stroke-opacity: 1; stroke-width: 1px;"/><path class="ygrid crisp" transform="translate(0,349.21000000000004)" d="M160,0h2582" style="stroke: rgb(255, 255, 255); stroke-opacity: 1; stroke-width: 1px;"/><path class="ygrid crisp" transform="translate(0,269.40999999999997)" d="M160,0h2582" style="stroke: rgb(255, 255, 255); stroke-opacity: 1; stroke-width: 1px;"/><path class="ygrid crisp" transform="translate(0,189.61)" d="M160,0h2582" style="stroke: rgb(255, 255, 255); stroke-opacity: 1; stroke-width: 1px;"/><path class="ygrid crisp" transform="translate(0,109.81)" d="M160,0h2582" style="stroke: rgb(255, 255, 255); stroke-opacity: 1; stroke-width: 1px;"/></g></g><g class="zerolinelayer"><path class="xzl zl crisp" transform="translate(160,0)" d="M0,100v796" style="stroke: rgb(255, 255, 255); stroke-opacity: 1; stroke-width: 2px;"/><path class="yzl zl crisp" transform="translate(0,508.81)" d="M160,0h2582" style="stroke: rgb(255, 255, 255); stroke-opacity: 1; stroke-width: 2px;"/></g><path class="xlines-below"/><path class="ylines-below"/><g class="overlines-below"/><g class="xaxislayer-below"/><g class="yaxislayer-below"/><g class="overaxes-below"/><g class="plot" transform="translate(160,100)" clip-path="url(#clip171931xyplot)"><g class="scatterlayer mlayer"><g class="trace scatter trace97e6a9" style="stroke-miterlimit: 2; opacity: 1;"><g class="fills"/><g class="errorbars"/><g class="lines"><path class="js-line" d="M0,213.43L4.53,218.41L6.79,221.38L11.32,226.64L13.59,230L15.85,232.03L18.12,235.71L27.18,247.45L29.44,249.63L36.24,256.03L38.5,257.84L45.3,262.19L47.56,262.78L49.83,263.98L52.09,263.84L61.15,263.09L63.42,262.06L74.74,253.27L77.01,249.92L90.6,232.15L92.86,227.74L95.13,222.35L97.39,219.81L108.72,203.38L110.98,198.55L117.78,192.8L120.04,190L131.36,183.44L133.63,182.52L135.89,182.06L138.16,183.22L147.22,187.58L149.48,189.12L151.75,190.29L154.01,196.18L158.54,205.76L160.81,209.18L163.07,210.63L165.34,217.19L167.6,223.13L169.87,234.14L176.66,263.01L178.93,274.41L187.99,329.02L190.25,344.79L201.58,432.61L203.84,451.11L217.43,556.17L219.7,571.39L228.76,622.38L231.02,633.14L237.82,656.35L240.08,659.92L244.61,673.26L246.88,675.47L253.67,684.94L255.94,685.83L258.2,686.09L260.46,687.52L262.73,690.07L264.99,690.14L267.26,688.83L269.52,688.86L271.79,684.4L274.05,683.09L276.32,684.01L278.58,682.21L289.91,662.91L292.17,657.82L298.97,639.78L301.23,632.88L310.29,601.42L312.56,592.73L326.15,535.58L328.41,525.33L342,458.11L344.27,445.56L353.33,389.2L355.59,373.21L364.65,300.08L366.92,279.48L385.04,109.22L387.3,93.68L391.83,71.74L394.09,65.35L398.62,58.67L400.89,56.31L407.68,48.61L409.95,47.74L412.21,48.54L414.48,51.02L423.54,68.47L425.8,73.07L430.33,87.69L432.6,99.34L437.13,131.66L439.39,151.38L457.51,317.38L459.78,334.06L466.57,376.8L468.84,388.81L475.63,419.29L477.9,427.9L486.96,456.55L489.22,462.59L498.28,483.66L500.55,488.32L511.87,509.04L514.14,512.75L525.46,529.39L527.72,532.32L539.05,544.84L541.31,546.86L550.37,553.15L552.64,554.24L559.43,556.23L561.7,556.46L568.49,555.8L570.76,555.12L577.55,551.7L579.82,550.09L586.61,543.95L588.88,541.46L597.94,529.51L600.2,526.06L611.53,506.47L613.79,502.16L631.91,465.07L634.18,460.3L654.56,419.14L656.82,414.96L663.62,402.55L665.88,398.96L670.41,393.08L672.68,389.71L684,375.91L686.27,373.53L695.33,366.26L697.59,365.01L704.39,361.88L706.65,361.37L713.45,360.36L715.71,360.55L720.24,361.36L722.51,361.93L731.57,365L733.83,365.94L756.48,385.26L758.75,387.74L770.07,399.97L772.34,402.73L788.19,421.3L790.45,424.28L801.78,438.19L804.04,441.4L813.1,453.66L815.37,456.57L833.49,486.31L835.75,491.13L844.81,509.24L847.08,517.34L860.67,552.72L862.93,563.63L876.52,607.87L878.79,619.05L887.85,651.1L890.11,659.1L894.64,670.97L896.91,678.78L901.44,691.61L903.7,695.84L910.49,709.48L912.76,712.3L915.02,713.9L917.29,718.7L919.55,719.78L921.82,722.34L926.35,721.87L928.61,726.31L930.88,725.01L933.14,721.45L937.67,718.78L939.94,716.73L946.73,707.69L949,703.71L955.79,688.81L958.06,682.79L964.85,661.48L967.12,653.32L978.44,606.72L980.71,596.8L996.56,531.5L998.83,523.38L1007.89,494.73L1010.15,488.5L1019.21,466.88L1021.48,462.21L1030.54,445.92L1032.8,442.36L1044.12,426.72L1046.39,423.94L1064.51,403.68L1066.77,401.23L1082.63,383L1084.89,380.09L1096.22,363.45L1098.48,359.58L1107.54,341.54L1109.81,336.27L1118.87,311.26L1121.13,303.89L1130.19,269.31L1132.46,259.39L1148.31,181.85L1150.58,171.09L1159.64,133.86L1161.9,126.08L1170.96,99.05L1173.22,93.23L1180.02,79.68L1182.28,79.88L1184.55,74.64L1186.81,75.76L1193.61,73.39L1195.87,80.69L1198.14,86.37L1200.4,85L1202.67,84.99L1204.93,95.17L1207.2,104.1L1209.46,108.08L1211.73,109.55L1213.99,119.12L1218.52,136.71L1220.79,143.59L1229.85,181.07L1232.11,194.32L1236.64,205.35L1238.91,218.06L1241.17,230.48L1243.44,234.55L1245.7,240.06L1247.97,250.76L1250.23,260.82L1252.5,263.97L1254.76,268.06L1257.03,276.2L1259.29,283.58L1261.56,285.9L1268.35,297.97L1270.62,299.87L1275.15,308.26L1277.41,309.42L1284.21,315.25L1286.47,316.81L1291,319.23L1293.26,319.3L1297.79,322.26L1300.06,322.32L1306.85,323.37L1309.12,323.61L1311.38,324.14L1313.65,323.63L1322.71,322.87L1324.97,322.79L1329.5,322.75L1331.77,322.38L1336.3,321.62L1338.56,321.94L1349.89,321.59L1352.15,321.78L1358.95,322.61L1361.21,323.04L1368.01,324.32L1370.27,326.02L1386.13,336.5L1388.39,338.45L1401.98,353.07L1404.25,355.94L1424.63,382.17L1426.89,385.51L1438.22,398.36L1440.48,400.39L1445.01,404.83L1447.28,406L1451.81,408.12L1454.07,408.83L1460.87,410.47L1463.13,410.47L1469.93,408.78L1472.19,407.97L1478.99,403.51L1481.25,400.8L1497.11,380.09L1499.37,376.22L1510.7,352.38L1512.96,349.03L1531.08,309.21L1533.35,305.88L1546.94,281.71L1549.2,278.86L1555.99,270.76L1558.26,268.92L1565.05,264.28L1567.32,263.55L1571.85,262.66L1574.11,262.56L1576.38,263.28L1578.64,262.41L1587.7,268.78L1589.97,269.44L1594.5,276.54L1596.76,277.61L1612.62,300.33L1614.88,306.2L1617.15,311.63L1619.41,313.96L1621.68,316.46L1623.94,320.82L1628.47,331.85L1630.74,334.52L1633,336.95L1635.27,341.16L1642.06,355.07L1644.33,358.41L1651.12,366.34L1653.39,370.4L1664.71,384.11L1666.98,385.62L1669.24,386.7L1671.51,388.98L1676.04,392.69L1678.3,394.07L1682.83,396.69L1685.09,397.26L1689.62,398.52L1691.89,399.04L1698.68,399.47L1700.95,399.22L1712.27,395.72L1714.54,394.76L1723.6,388.61L1725.86,386.68L1734.92,377.45L1737.19,374.77L1748.51,359.36L1750.78,355.91L1766.63,329.34L1768.9,325.31L1798.34,274.29L1800.61,270.79L1814.19,251.86L1816.46,249.06L1830.05,234.12L1832.31,232.26L1836.84,228.08L1839.11,225.56L1841.37,224.69L1843.64,222.57L1859.49,207.73L1861.76,205.08L1870.82,194.44L1873.08,190.22L1875.35,188.65L1877.61,183.84L1893.47,155.45L1895.73,149.83L1904.79,130.2L1907.06,122.91L1909.32,121.54L1911.59,115.23L1918.38,102.01L1920.65,100.21L1922.91,93.9L1925.18,92.41L1927.44,85.93L1929.71,87.71L1931.97,83.87L1934.24,82.62L1936.5,83.39L1938.76,82.82L1941.03,79.12L1943.29,81.61L1945.56,80.36L1947.82,85.26L1950.09,83.59L1952.35,87.24L1954.62,92.58L1956.88,94.88L1961.41,103.26L1963.68,106.35L1968.21,125.77L1970.47,127.74L1972.74,133.88L1975,143.79L1979.53,168.26L1981.8,175.54L1984.06,180.27L1986.33,196.42L1990.86,229.08L1993.12,242.23L1997.65,267.86L1999.92,281.83L2004.45,306.41L2006.71,322.03L2011.24,355.25L2013.51,365.89L2029.36,434.61L2031.63,441.23L2042.95,478.37L2045.22,482.8L2054.28,504.73L2056.54,510.35L2070.13,538.33L2072.39,545.58L2083.72,568.82L2085.98,574.61L2095.04,594.43L2097.31,602.5L2106.37,624.99L2108.63,631.06L2115.43,649.25L2117.69,657.42L2131.28,694.79L2133.55,698.87L2142.61,724.67L2144.87,727.57L2147.14,732.98L2149.4,735.68L2153.93,742.66L2156.2,746.03L2162.99,751.03L2165.26,752.26L2167.52,753.58L2169.79,756.2L2174.32,750.96L2176.58,749.95L2181.11,750.6L2183.38,745.14L2187.91,735.92L2190.17,733.04L2192.44,728.38L2194.7,726.7L2201.49,703.13L2203.76,694L2210.55,674.49L2212.82,665.7L2217.35,642.06L2219.61,630.27L2228.67,597.8L2230.94,586.5L2235.47,563.02L2237.73,556.56L2253.59,505.14L2255.85,499.91L2260.38,490.57L2262.65,484.5L2267.18,473.01L2269.44,469.35L2289.83,438L2292.09,435.9L2305.68,420.94L2307.95,418.7L2323.8,405.29L2326.06,403.65L2337.39,396.63L2339.65,395.53L2348.71,391.82L2350.98,391.03L2362.3,389.13L2364.57,389.04L2373.63,388.96L2375.89,389.11L2382.69,390.53L2384.95,390.79L2391.75,392.31L2394.01,392.91L2412.13,394.14L2414.4,393.74L2421.19,392.31L2423.46,391.35L2430.25,388.04L2432.52,386.43L2441.58,379.05L2443.84,376.89L2450.64,367.08L2452.9,365.54L2457.43,357.94L2459.69,353.84L2475.55,325.08L2477.81,320.03L2493.67,286.05L2495.93,279.53L2500.46,268.13L2502.73,264.32L2523.11,223.23L2525.38,219.57L2534.44,207.21L2536.7,204.03L2538.97,201.03L2541.23,200.28L2550.29,195.16L2552.56,195.38L2557.09,194.73L2559.35,194.94L2561.62,195.01L2563.88,196.48L2568.41,198.16L2570.68,199.96L2577.47,205.29L2579.74,207.3L2582,210.5" style="vector-effect: non-scaling-stroke; fill: none; stroke: rgb(170, 0, 0); stroke-opacity: 1; stroke-width: 4px; opacity: 1;"/></g><g class="points"/><g class="text"/></g><g class="trace scatter traced83018" style="stroke-miterlimit: 2; opacity: 1;"><g class="fills"/><g class="errorbars"/><g class="lines"><path class="js-line" d="M0,213.9L13.59,229.04L15.85,232.32L22.65,241.45L24.91,245.59L38.5,257.75L40.77,259L47.56,263.35L49.83,263.4L56.62,263.83L58.89,263.88L65.68,260.62L67.95,259.31L81.54,245.45L83.8,241.01L88.33,235.84L90.6,229.79L95.13,225.07L97.39,218.83L101.92,214.16L104.19,208.03L113.25,197.67L115.51,192.55L120.04,190.17L122.31,188.66L124.57,184.13L126.84,183.28L131.36,184.23L133.63,180.37L135.89,180.57L138.16,183.3L140.42,185.31L142.69,182.11L147.22,188.75L149.48,187.65L154.01,197.25L156.28,197.54L160.81,210.26L163.07,212.67L172.13,242.67L174.4,255.32L181.19,280.62L183.46,295.1L197.05,398.34L199.31,417.34L201.58,432.61L203.84,457.52L212.9,531.09L215.17,540.09L219.7,576.55L221.96,585.68L226.49,612.77L228.76,622.38L235.55,649.69L237.82,654.75L242.35,668.56L244.61,671.22L251.41,682.39L253.67,683.88L260.46,689.64L262.73,689.92L267.26,686.81L269.52,688.5L274.05,685.63L276.32,681.23L278.58,677.51L280.85,677.78L283.11,675.47L285.38,670.93L289.91,657.8L292.17,654.5L298.97,642.39L301.23,632.91L305.76,614.67L308.03,611.28L310.29,606.83L312.56,595.91L314.82,587.49L317.09,574.56L319.35,570.15L321.62,561.87L323.88,545.63L326.15,543.16L328.41,534.33L330.68,514.86L332.94,513.58L335.21,504.02L337.47,481.85L339.74,480.01L342,468.93L344.27,445.56L346.53,441.61L348.8,423.93L353.33,389.2L355.59,378.65L357.86,359.12L360.12,326.03L362.39,300.14L364.65,300.08L369.18,253.8L371.45,209.25L373.71,181.59L375.98,191L380.51,140.63L382.77,127.3L387.3,91.39L389.56,86.03L391.83,71.74L394.09,69.57L396.36,65.77L398.62,58.67L400.89,56.31L403.15,45.83L405.42,39.8L407.68,48.61L409.95,43.44L412.21,43.91L414.48,51.02L416.74,49.37L419.01,53.47L421.27,64.2L423.54,67.27L425.8,74.5L430.33,100.09L432.6,99.34L439.39,151.38L441.66,156.69L448.45,238.72L450.72,246.74L455.25,299.43L457.51,310.67L462.04,352.03L464.31,361.33L468.84,386.94L471.1,403.68L475.63,423.23L477.9,429.8L484.69,452.15L486.96,458.21L493.75,475.07L496.02,479.73L502.81,493.61L505.08,497.4L511.87,509.49L514.14,512.65L520.93,523.37L523.19,526L532.25,538.79L534.52,541.01L543.58,548.23L545.84,550.29L554.9,555.37L557.17,555.51L561.7,556.96L563.96,556.69L573.02,554.69L575.29,553.64L582.08,548.06L584.35,546.53L597.94,529.19L600.2,525.42L613.79,503.64L616.06,497.85L627.38,475.2L629.65,470.24L661.35,406.98L663.62,404.33L672.68,389.71L674.94,386.81L686.27,372.73L688.53,371.44L699.86,363.57L702.12,362.45L713.45,360.57L715.71,360.54L717.98,359.68L720.24,360.41L731.57,365.15L733.83,366.53L738.36,368.69L740.63,371.09L745.16,374.48L747.42,375.87L754.22,382.76L756.48,384.52L758.75,386.62L761.01,390.72L770.07,399.97L772.34,403.38L776.86,407.24L779.13,410.47L781.39,414.02L783.66,415.42L801.78,438.36L804.04,441.46L806.31,443.56L808.57,447.31L826.69,473.5L828.96,479.14L842.55,504.06L844.81,511.79L856.14,540.42L858.4,547.79L865.2,569.22L867.46,577.61L876.52,610.07L878.79,617.86L890.11,659.95L892.38,665.8L896.91,677.87L899.17,683.96L908.23,705.47L910.49,709.76L917.29,718.77L919.55,720.74L926.35,725.12L928.61,724.8L930.88,724.83L933.14,723.68L935.41,723.26L937.67,720.96L939.94,719.63L942.2,716.33L944.47,713.99L946.73,709.68L949,706.22L951.26,700.95L955.79,690.06L958.06,683.99L969.38,647.4L971.65,637.51L976.18,612.59L978.44,605.32L987.5,568.19L989.77,557.96L1005.62,499.5L1007.89,494.19L1023.74,458.36L1026.01,454.18L1039.59,432.59L1041.86,429.43L1062.24,406.22L1064.51,404.48L1073.57,393.81L1075.83,391.96L1084.89,380.06L1087.16,377.88L1103.01,351.45L1105.28,346.57L1114.34,324.88L1116.6,318.21L1127.93,281.31L1130.19,270.39L1136.99,237.14L1139.25,224.94L1152.84,167.69L1155.11,151.37L1161.9,125.19L1164.16,117.2L1166.43,109.28L1168.69,105.48L1175.49,85.99L1177.75,82.31L1180.02,80.91L1182.28,75.8L1184.55,77.72L1186.81,75.46L1189.08,73.29L1191.34,76.27L1195.87,77.72L1198.14,82.97L1204.93,94.66L1207.2,101.43L1209.46,108.08L1211.73,109.55L1218.52,136.71L1220.79,141.94L1223.05,151.2L1225.32,165.82L1227.58,175.54L1229.85,179.91L1234.38,196.53L1236.64,211.8L1238.91,221.82L1241.17,226.08L1245.7,240.37L1247.97,250.21L1259.29,283.58L1261.56,285.9L1263.82,288.64L1266.09,293.03L1270.62,301.29L1272.88,304.29L1281.94,313.53L1284.21,315.25L1293.26,320.22L1295.53,321.05L1304.59,323.12L1306.85,323.37L1320.44,323.33L1322.71,323.15L1349.89,321.23L1352.15,321.34L1358.95,322.61L1361.21,323.32L1365.74,323.17L1368.01,324.32L1386.13,336.13L1388.39,338.16L1399.72,350.14L1401.98,352.86L1420.1,376.54L1422.36,380.63L1426.89,385.3L1429.16,387.43L1442.75,402.06L1445.01,403.82L1451.81,407.87L1454.07,408.79L1460.87,410.12L1463.13,410.4L1469.93,409.07L1472.19,407.81L1483.52,398.1L1485.78,395.49L1494.84,382.7L1497.11,378.19L1508.43,357.54L1510.7,352.84L1533.35,304.94L1535.61,300.93L1542.41,287.9L1544.67,284.24L1553.73,272.11L1555.99,269.95L1558.26,269.1L1560.52,265.91L1565.05,263.55L1567.32,262.39L1574.11,261.61L1576.38,261.95L1583.17,264.75L1585.44,267.27L1587.7,270.13L1589.97,270.05L1592.23,271.26L1594.5,274.09L1610.35,299.31L1612.62,303.75L1617.15,308.28L1619.41,312.59L1623.94,322.22L1626.21,326.35L1635.27,342.49L1637.53,344.82L1648.86,365.09L1651.12,367.35L1653.39,369.15L1655.65,372.42L1662.45,382.18L1664.71,384.11L1671.51,388.98L1673.77,392.01L1687.36,398.27L1689.62,398.6L1691.89,398.53L1694.15,399.81L1707.74,397.6L1710.01,396.88L1719.07,392L1721.33,390.28L1723.6,389.12L1725.86,386.27L1732.66,380.23L1734.92,377.45L1743.98,365.9L1746.25,362.81L1753.04,352.36L1755.31,348.89L1766.63,329.79L1768.9,324.75L1775.69,313.98L1777.96,308.28L1789.28,289.13L1791.55,284.71L1796.08,277.88L1798.34,274.62L1802.87,267.39L1805.14,263.75L1807.4,261.67L1809.66,257.77L1820.99,243.79L1823.25,242.42L1827.78,236.58L1830.05,234.94L1834.58,229.72L1836.84,227.58L1841.37,225.06L1843.64,221.31L1850.43,214.98L1852.7,212.8L1857.23,210.44L1859.49,205.8L1868.55,197.63L1870.82,191.76L1875.35,186.88L1877.61,181.36L1879.88,179.88L1882.14,177.15L1884.41,169.27L1886.67,166.76L1888.94,164.59L1891.2,159.81L1893.47,150.91L1895.73,148.7L1898,145.75L1900.26,139.77L1902.53,131.56L1904.79,129.89L1907.06,126.09L1909.32,120.18L1913.85,109.77L1916.12,107.57L1918.38,100.31L1920.65,97.17L1922.91,96.08L1925.18,91.87L1927.44,89.39L1929.71,83.41L1931.97,85.25L1934.24,84.66L1936.5,79.46L1938.76,79.31L1941.03,78.65L1943.29,83.45L1945.56,84.07L1947.82,80.69L1950.09,83.59L1952.35,90.31L1959.15,99.86L1961.41,105.58L1965.94,113.74L1968.21,120.47L1972.74,133.62L1975,141.67L1981.8,171.92L1984.06,183.99L1995.39,253.98L1997.65,268.78L2011.24,351.95L2013.51,364.14L2022.57,407.23L2024.83,416.63L2033.89,449.53L2036.16,456.74L2047.48,488.35L2049.75,494L2065.6,530.02L2067.86,534.91L2092.78,590.7L2095.04,596.26L2110.9,638.37L2113.16,644.75L2133.55,700.14L2135.81,705.51L2147.14,729.21L2149.4,733.35L2158.46,747.15L2160.73,749.62L2165.26,753.04L2167.52,753.94L2172.05,754.05L2174.32,753.25L2178.85,749.92L2181.11,747.37L2187.91,736.39L2190.17,731.72L2199.23,709.04L2201.49,702.43L2210.55,671.57L2212.82,662.73L2230.94,584.76L2233.2,575.33L2246.79,523.4L2249.06,515.91L2255.85,499.91L2258.12,495.55L2264.91,478.38L2267.18,473.01L2285.3,445.34L2287.56,442.04L2294.36,432.47L2296.62,430.56L2312.48,414.7L2314.74,412.84L2321.54,406.74L2323.8,405.2L2328.33,401.85L2330.59,400.52L2335.12,397.66L2337.39,396.56L2341.92,394.14L2344.18,393.42L2350.98,390.76L2353.24,390.42L2360.04,388.91L2362.3,388.94L2371.36,388.89L2373.63,389.2L2378.16,389.43L2380.42,389.97L2391.75,392.43L2394.01,392.27L2400.81,393.93L2403.07,393.59L2407.6,394.26L2409.87,393.81L2414.4,393.95L2416.66,393.32L2418.93,392.02L2421.19,392.12L2425.72,390.45L2427.99,388.99L2439.31,381.02L2441.58,378.72L2448.37,371.12L2450.64,368.11L2466.49,342.76L2468.75,338.1L2475.55,324.13L2477.81,320.11L2482.34,310.35L2484.61,305.33L2489.14,295.08L2491.4,289.95L2500.46,269.83L2502.73,263.35L2511.79,243.74L2514.05,240.14L2527.64,215.62L2529.91,212.97L2538.97,202.82L2541.23,200.71L2545.76,197.8L2548.03,196.62L2557.09,194.45L2559.35,195.18L2568.41,199L2570.68,199.9L2575.21,203.7L2577.47,205.85L2582,210.35" style="vector-effect: non-scaling-stroke; fill: none; stroke: rgb(0, 170, 0); stroke-opacity: 1; stroke-width: 4px; opacity: 1;"/></g><g class="points"/><g class="text"/></g></g></g><g class="overplot"/><path class="xlines-above crisp" d="M0,0" style="fill: none;"/><path class="ylines-above crisp" d="M0,0" style="fill: none;"/><g class="overlines-above"/><g class="xaxislayer-above"><g class="xtick"><text text-anchor="middle" x="0" y="934" transform="translate(160,0)" style="font-family: 'Open Sans', verdana, arial, sans-serif; font-size: 37px; fill: rgb(42, 63, 95); fill-opacity: 1; white-space: pre; opacity: 1;">0</text></g><g class="xtick"><text text-anchor="middle" x="0" y="934" style="font-family: 'Open Sans', verdana, arial, sans-serif; font-size: 37px; fill: rgb(42, 63, 95); fill-opacity: 1; white-space: pre; opacity: 1;" transform="translate(612.98,0)">200</text></g><g class="xtick"><text text-anchor="middle" x="0" y="934" style="font-family: 'Open Sans', verdana, arial, sans-serif; font-size: 37px; fill: rgb(42, 63, 95); fill-opacity: 1; white-space: pre; opacity: 1;" transform="translate(1065.96,0)">400</text></g><g class="xtick"><text text-anchor="middle" x="0" y="934" style="font-family: 'Open Sans', verdana, arial, sans-serif; font-size: 37px; fill: rgb(42, 63, 95); fill-opacity: 1; white-space: pre; opacity: 1;" transform="translate(1518.95,0)">600</text></g><g class="xtick"><text text-anchor="middle" x="0" y="934" style="font-family: 'Open Sans', verdana, arial, sans-serif; font-size: 37px; fill: rgb(42, 63, 95); fill-opacity: 1; white-space: pre; opacity: 1;" transform="translate(1971.93,0)">800</text></g><g class="xtick"><text text-anchor="middle" x="0" y="934" style="font-family: 'Open Sans', verdana, arial, sans-serif; font-size: 37px; fill: rgb(42, 63, 95); fill-opacity: 1; white-space: pre; opacity: 1;" transform="translate(2424.91,0)">1000</text></g></g><g class="yaxislayer-above"><g class="ytick"><text text-anchor="end" x="159" y="12.95" transform="translate(0,828.01)" style="font-family: 'Open Sans', verdana, arial, sans-serif; font-size: 37px; fill: rgb(42, 63, 95); fill-opacity: 1; white-space: pre; opacity: 1;">−200</text></g><g class="ytick"><text text-anchor="end" x="159" y="12.95" style="font-family: 'Open Sans', verdana, arial, sans-serif; font-size: 37px; fill: rgb(42, 63, 95); fill-opacity: 1; white-space: pre; opacity: 1;" transform="translate(0,748.21)">−150</text></g><g class="ytick"><text text-anchor="end" x="159" y="12.95" style="font-family: 'Open Sans', verdana, arial, sans-serif; font-size: 37px; fill: rgb(42, 63, 95); fill-opacity: 1; white-space: pre; opacity: 1;" transform="translate(0,668.41)">−100</text></g><g class="ytick"><text text-anchor="end" x="159" y="12.95" style="font-family: 'Open Sans', verdana, arial, sans-serif; font-size: 37px; fill: rgb(42, 63, 95); fill-opacity: 1; white-space: pre; opacity: 1;" transform="translate(0,588.61)">−50</text></g><g class="ytick"><text text-anchor="end" x="159" y="12.95" style="font-family: 'Open Sans', verdana, arial, sans-serif; font-size: 37px; fill: rgb(42, 63, 95); fill-opacity: 1; white-space: pre; opacity: 1;" transform="translate(0,508.81)">0</text></g><g class="ytick"><text text-anchor="end" x="159" y="12.95" style="font-family: 'Open Sans', verdana, arial, sans-serif; font-size: 37px; fill: rgb(42, 63, 95); fill-opacity: 1; white-space: pre; opacity: 1;" transform="translate(0,429.01)">50</text></g><g class="ytick"><text text-anchor="end" x="159" y="12.95" style="font-family: 'Open Sans', verdana, arial, sans-serif; font-size: 37px; fill: rgb(42, 63, 95); fill-opacity: 1; white-space: pre; opacity: 1;" transform="translate(0,349.21000000000004)">100</text></g><g class="ytick"><text text-anchor="end" x="159" y="12.95" style="font-family: 'Open Sans', verdana, arial, sans-serif; font-size: 37px; fill: rgb(42, 63, 95); fill-opacity: 1; white-space: pre; opacity: 1;" transform="translate(0,269.40999999999997)">150</text></g><g class="ytick"><text text-anchor="end" x="159" y="12.95" style="font-family: 'Open Sans', verdana, arial, sans-serif; font-size: 37px; fill: rgb(42, 63, 95); fill-opacity: 1; white-space: pre; opacity: 1;" transform="translate(0,189.61)">200</text></g><g class="ytick"><text text-anchor="end" x="159" y="12.95" style="font-family: 'Open Sans', verdana, arial, sans-serif; font-size: 37px; fill: rgb(42, 63, 95); fill-opacity: 1; white-space: pre; opacity: 1;" transform="translate(0,109.81)">250</text></g></g><g class="overaxes-above"/></g></g><g class="polarlayer"/><g class="ternarylayer"/><g class="geolayer"/><g class="funnelarealayer"/><g class="pielayer"/><g class="iciclelayer"/><g class="treemaplayer"/><g class="sunburstlayer"/><g class="glimages"/><defs id="topdefs-171931"><g class="clips"/><clipPath id="legend171931"><rect width="694" height="113" x="0" y="0"/></clipPath></defs><g class="layer-above"><g class="imagelayer"/><g class="shapelayer"/></g><g class="infolayer"><g class="legend" pointer-events="all" transform="translate(2793.64,100)"><rect class="bg" shape-rendering="crispEdges" style="stroke: rgb(68, 68, 68); stroke-opacity: 1; fill: rgb(255, 255, 255); fill-opacity: 1; stroke-width: 0px;" width="694" height="113" x="0" y="0"/><g class="scrollbox" transform="" clip-path="url(#legend171931)"><g class="groups"><g class="traces" transform="translate(0,30.55)" style="opacity: 1;"><text class="legendtext" text-anchor="start" x="40" y="14.43" style="font-family: 'Open Sans', verdana, arial, sans-serif; font-size: 37px; fill: rgb(42, 63, 95); fill-opacity: 1; white-space: pre;">Predicted Curvature at Anchors #1</text><g class="layers" style="opacity: 1;"><g class="legendfill"/><g class="legendlines"><path class="js-line" d="M5,0h30" style="fill: none; stroke: rgb(170, 0, 0); stroke-opacity: 1; stroke-width: 4px;"/></g><g class="legendsymbols"><g class="legendpoints"/></g></g><rect class="legendtoggle" x="0" y="-25.55" width="688.125" height="51.1" style="fill: rgb(0, 0, 0); fill-opacity: 0;"/></g><g class="traces" transform="translate(0,81.65)" style="opacity: 1;"><text class="legendtext" text-anchor="start" x="40" y="14.43" style="font-family: 'Open Sans', verdana, arial, sans-serif; font-size: 37px; fill: rgb(42, 63, 95); fill-opacity: 1; white-space: pre;">Predicted Curvature at Anchors #2</text><g class="layers" style="opacity: 1;"><g class="legendfill"/><g class="legendlines"><path class="js-line" d="M5,0h30" style="fill: none; stroke: rgb(0, 170, 0); stroke-opacity: 1; stroke-width: 4px;"/></g><g class="legendsymbols"><g class="legendpoints"/></g></g><rect class="legendtoggle" x="0" y="-25.55" width="688.125" height="51.1" style="fill: rgb(0, 0, 0); fill-opacity: 0;"/></g></g></g><rect class="scrollbar" rx="20" ry="3" width="0" height="0" style="fill: rgb(128, 139, 164); fill-opacity: 1;" x="0" y="0"/></g><g class="g-gtitle"/><g class="g-xtitle"><text class="xtitle" x="1451" y="987.8" text-anchor="middle" style="font-family: 'Open Sans', verdana, arial, sans-serif; font-size: 44px; fill: rgb(42, 63, 95); opacity: 1; font-weight: normal; white-space: pre;">Anchor Point Index</text></g><g class="g-ytitle" transform="translate(31.6591796875,0)"><text class="ytitle" transform="rotate(-90,12.340624999999989,498)" x="12.340624999999989" y="498" text-anchor="middle" style="font-family: 'Open Sans', verdana, arial, sans-serif; font-size: 44px; fill: rgb(42, 63, 95); opacity: 1; font-weight: normal; white-space: pre;">Predicted Curvature</text></g><g class="annotation" data-index="0" style="opacity: 1;"><g class="annotation-text-g" transform="rotate(0,1451,75.49999999999994)"><g class="cursor-pointer" transform="translate(585,51)"><rect class="bg" x="0.5" y="0.5" width="1732" height="48" style="stroke-width: 1px; stroke: rgb(0, 0, 0); stroke-opacity: 0; fill: rgb(0, 0, 0); fill-opacity: 0;"/><text class="annotation-text" text-anchor="middle" x="866.546875" y="39" style="font-family: 'Open Sans', verdana, arial, sans-serif; font-size: 37px; fill: rgb(42, 63, 95); fill-opacity: 1; white-space: pre;"><tspan style="font-weight:bold">Predicted Curvature at Anchors (Transformed Curve #1 vs. Transformed Curve #2)</tspan></text></g></g></g></g></svg>