<svg class="main-svg" xmlns="http://www.w3.org/2000/svg" xmlns:xlink="http://www.w3.org/1999/xlink" width="3500" height="1000" style="" viewBox="0 0 3500 1000"><rect x="0" y="0" width="3500" height="1000" style="fill: rgb(255, 255, 255); fill-opacity: 1;"/><defs id="defs-0f9d74"><g class="clips"><clipPath id="clip0f9d74xyplot" class="plotclip"><rect width="2606" height="796"/></clipPath><clipPath class="axesclip" id="clip0f9d74x"><rect x="136" y="0" width="2606" height="1000"/></clipPath><clipPath class="axesclip" id="clip0f9d74y"><rect x="0" y="100" width="3500" height="796"/></clipPath><clipPath class="axesclip" id="clip0f9d74xy"><rect x="136" y="100" width="2606" height="796"/></clipPath></g><g class="gradients"/><g class="patterns"/></defs><g class="bglayer"><rect class="bg" x="136" y="100" width="2606" height="796" style="fill: rgb(229, 236, 246); fill-opacity: 1; stroke-width: 0;"/></g><g class="layer-below"><g class="imagelayer"/><g class="shapelayer"/></g><g class="cartesianlayer"><g class="subplot xy"><g class="layer-subplot"><g class="shapelayer"/><g class="imagelayer"/></g><g class="gridlayer"><g class="x"><path class="xgrid crisp" transform="translate(605.55,0)" d="M0,100v796" style="stroke: rgb(255, 255, 255); stroke-opacity: 1; stroke-width: 1px;"/><path class="xgrid crisp" transform="translate(1075.1,0)" d="M0,100v796" style="stroke: rgb(255, 255, 255); stroke-opacity: 1; stroke-width: 1px;"/><path class="xgrid crisp" transform="translate(1544.65,0)" d="M0,100v796" style="stroke: rgb(255, 255, 255); stroke-opacity: 1; stroke-width: 1px;"/><path class="xgrid crisp" transform="translate(2014.2,0)" d="M0,100v796" style="stroke: rgb(255, 255, 255); stroke-opacity: 1; stroke-width: 1px;"/><path class="xgrid crisp" transform="translate(2483.75,0)" d="M0,100v796" style="stroke: rgb(255, 255, 255); stroke-opacity: 1; stroke-width: 1px;"/></g><g class="y"><path class="ygrid crisp" transform="translate(0,864.58)" d="M136,0h2606" style="stroke: rgb(255, 255, 255); stroke-opacity: 1; stroke-width: 1px;"/><path class="ygrid crisp" transform="translate(0,697.63)" d="M136,0h2606" style="stroke: rgb(255, 255, 255); stroke-opacity: 1; stroke-width: 1px;"/><path class="ygrid crisp" transform="translate(0,363.73)" d="M136,0h2606" style="stroke: rgb(255, 255, 255); stroke-opacity: 1; stroke-width: 1px;"/><path class="ygrid crisp" transform="translate(0,196.79000000000002)" d="M136,0h2606" style="stroke: rgb(255, 255, 255); stroke-opacity: 1; stroke-width: 1px;"/></g></g><g class="zerolinelayer"><path class="xzl zl crisp" transform="translate(136,0)" d="M0,100v796" style="stroke: rgb(255, 255, 255); stroke-opacity: 1; stroke-width: 2px;"/><path class="yzl zl crisp" transform="translate(0,530.6800000000001)" d="M136,0h2606" style="stroke: rgb(255, 255, 255); stroke-opacity: 1; stroke-width: 2px;"/></g><path class="xlines-below"/><path class="ylines-below"/><g class="overlines-below"/><g class="xaxislayer-below"/><g class="yaxislayer-below"/><g class="overaxes-below"/><g class="plot" transform="translate(136,100)" clip-path="url(#clip0f9d74xyplot)"><g class="scatterlayer mlayer"><g class="trace scatter trace385be7" style="stroke-miterlimit: 2; opacity: 1;"><g class="fills"/><g class="errorbars"/><g class="lines"><path class="js-line" d="M0,66.29L2.35,70.64L4.7,70.05L7.04,66.51L9.39,86.7L11.74,70.55L14.09,70.58L18.78,69.1L21.13,79.41L23.48,66.96L25.83,68.63L28.17,70.26L30.52,69.6L32.87,81.13L35.22,75.73L39.91,72.75L42.26,72.7L44.61,67.52L46.95,68.42L51.65,70.59L54,79.35L56.35,78.29L58.69,75.42L61.04,73.58L63.39,76.38L65.74,69.1L68.08,69.32L70.43,68.81L72.78,73.19L75.13,88.34L77.48,85.85L79.82,81.66L82.17,62.42L84.52,101.12L86.87,92.35L89.21,86.04L91.56,86.13L96.26,86.22L98.61,102.6L100.95,91.87L103.3,96.3L105.65,88.59L108,69.88L110.34,74.62L112.69,75.3L115.04,80.73L117.39,72.05L119.74,86.01L122.08,78.42L124.43,78.83L126.78,70.83L131.47,80.36L133.82,73.36L136.17,79.75L138.52,74.35L140.86,67.69L143.21,65.28L145.56,69.77L147.91,71.58L150.26,66.05L152.6,66.21L154.95,62.54L157.3,62.47L159.65,64.47L161.99,59.05L164.34,52.52L166.69,64.89L169.04,59.2L171.39,61.5L173.73,68.57L176.08,63.2L178.43,64.2L180.78,71.2L183.12,68.43L185.47,74.77L187.82,75.53L190.17,70.19L192.52,80.57L194.86,78.04L199.56,81.33L201.91,75.38L204.25,78.81L206.6,88.87L208.95,80.63L211.3,78.46L213.65,87.94L215.99,86.69L218.34,96.72L220.69,88.08L223.04,76.42L225.38,80.16L227.73,80.67L230.08,76.79L232.43,80.74L234.77,81.12L237.12,82.96L239.47,78.23L241.82,81L244.17,89.3L248.86,78.11L251.21,80.43L253.56,84.7L255.9,77.05L262.95,84.47L265.3,82.99L267.64,79.56L269.99,80.84L272.34,83.31L274.69,77.47L279.38,80.51L281.73,85.05L284.08,82.98L286.43,79.31L291.12,87.15L293.47,75.57L295.82,74.41L298.16,78.86L302.86,87.01L305.21,76.06L307.55,88.53L309.9,82.95L312.25,93.16L314.6,85.8L316.95,77.76L319.29,88.95L321.64,95.71L323.99,77.39L326.34,99.84L328.68,88.13L331.03,119.34L333.38,116.32L335.73,106.57L338.08,110.17L340.42,129.19L342.77,124.83L345.12,127.82L347.47,146.27L352.16,180.29L354.51,172.94L356.86,209.84L359.21,212.12L361.55,245.47L363.9,306.22L370.94,518.81L373.29,546.99L375.64,596.4L377.99,610.95L380.34,604.37L382.68,611.25L385.03,642.32L387.38,639.93L389.73,655.22L392.07,660.42L394.42,687.63L396.77,673.54L399.12,691.1L401.46,693.37L403.81,683.48L406.16,690.49L408.51,690.03L410.86,690.81L413.2,699.41L415.55,699.27L417.9,697.89L420.25,698.9L422.59,701.62L424.94,701.29L429.64,705.76L431.99,700.78L434.33,710.53L436.68,703.09L439.03,704.34L441.38,709.09L443.72,701.21L446.07,714.55L448.42,699.66L450.77,706.22L453.12,704.47L455.46,709.2L457.81,705.18L460.16,708.89L462.51,705.24L464.85,706.5L467.2,707.75L469.55,701.68L471.9,710.57L474.25,702.41L476.59,700.75L478.94,707.14L481.29,705.15L483.64,704.72L485.98,704.05L488.33,700.42L493.03,704.78L495.37,701.94L497.72,696.54L500.07,698.14L502.42,691.53L504.77,703.7L507.11,698.24L509.46,697.15L511.81,698.09L514.16,700.57L518.85,695.48L521.2,689.5L528.24,699.39L530.59,699.29L535.29,690.54L537.63,704.06L539.98,700.06L542.33,699.52L547.03,707.39L549.37,714.79L551.72,713.82L554.07,716.27L558.76,722.6L561.11,724.32L563.46,719.92L565.81,721.91L568.15,724.94L570.5,723.54L572.85,718.03L575.2,720.65L577.55,718.31L579.89,719.21L582.24,716.41L584.59,709.22L586.94,706.56L589.28,708.81L591.63,706.45L593.98,701.25L596.33,707.41L598.68,690.76L601.02,702.54L603.37,693.93L605.72,684.43L608.07,683.33L610.41,685.83L612.76,679.14L615.11,693.31L617.46,694.02L619.81,690.7L622.15,690.42L626.85,677.08L629.2,680.68L631.54,686.34L633.89,680.02L636.24,674.06L638.59,675.44L643.28,674.51L645.63,674.65L647.98,658.28L650.33,654.57L652.67,634.82L655.02,630.76L657.37,629.8L659.72,601.49L666.76,549.42L669.11,474.83L673.8,330.64L676.15,264.94L678.5,248.3L680.85,212.09L685.54,158.51L687.89,149.04L690.24,137.49L692.59,136.94L697.28,110.72L699.63,106.11L701.98,97.28L704.32,108.26L709.02,87.02L711.37,88.22L713.72,90.27L716.06,101.16L718.41,91.7L720.76,93.91L723.11,91.03L725.45,80.84L727.8,91.36L730.15,86.64L732.5,74.85L734.85,87.37L737.19,84.98L739.54,70.05L741.89,87.89L744.24,77.02L746.58,70.6L748.93,78.57L751.28,73.55L753.63,62.13L755.97,65.93L758.32,65.11L760.67,60.96L763.02,61.08L765.37,55.07L767.71,58.59L770.06,53.71L772.41,53.05L774.76,53.6L777.1,58.64L779.45,61.52L781.8,62.63L784.15,66.48L786.5,67.18L788.84,70.03L791.19,75.59L795.89,92.62L798.23,86.99L800.58,99.28L802.93,87.7L805.28,74.09L807.63,89.38L809.97,91.03L812.32,80.86L814.67,96.78L817.02,92.6L819.36,107.56L821.71,90.25L824.06,78.25L826.41,98.61L828.75,92.83L831.1,80L833.45,93.95L835.8,95.6L840.49,108.26L842.84,91.56L845.19,100.78L847.54,116.47L849.88,118.12L852.23,116.78L854.58,108.05L856.93,112L859.28,137.52L861.62,149.16L863.97,149L866.32,171.83L868.67,152.88L871.01,185.69L875.71,245.7L878.06,359.71L885.1,484.07L887.45,513.73L889.8,608.07L892.14,604.88L894.49,634.4L896.84,623.37L899.19,645.87L901.54,656.66L903.88,667.88L906.23,667.42L908.58,669.75L910.93,674.44L913.27,684.12L915.62,687.06L917.97,680.56L920.32,687.92L925.01,691.54L927.36,677.19L932.06,698.44L934.4,703.32L936.75,698.62L939.1,697.02L941.45,695.01L943.79,698.73L946.14,699.92L948.49,694.15L953.19,703.91L955.53,703.8L957.88,700.29L960.23,699.38L962.58,700.36L964.92,704.59L967.27,704.04L969.62,696.05L971.97,706.98L974.32,698.53L979.01,710.15L981.36,707.09L983.71,707.19L986.05,708.59L988.4,704.85L990.75,712.3L993.1,703.56L995.45,715.93L997.79,712.88L1000.14,720.56L1002.49,718.87L1004.84,720.9L1007.18,718.65L1009.53,723.46L1011.88,710.42L1014.23,713.47L1016.57,717.02L1018.92,713.03L1021.27,699.07L1023.62,726.06L1025.97,714.27L1028.31,716.15L1033.01,705.68L1035.36,709.43L1037.7,702.1L1040.05,711.65L1042.4,701.49L1044.75,703.65L1047.1,704.01L1049.44,695.23L1051.79,690L1054.14,679.81L1056.49,664.2L1058.83,662.7L1068.23,546.83L1070.57,510.04L1075.27,128.85L1077.62,146.16L1089.35,214.3L1091.7,77.81L1096.4,102.41L1098.75,82.3L1101.09,88.64L1103.44,74.68L1105.79,94.83L1108.14,101.63L1110.48,89.4L1112.83,44.78L1115.18,68.33L1117.53,70.47L1119.88,88.08L1122.22,92.01L1124.57,110.15L1126.92,78.07L1129.27,60.69L1131.61,82.73L1133.96,53.37L1136.31,119.02L1138.66,144.37L1141.01,56.61L1143.35,158.64L1145.7,99.94L1148.05,92.56L1150.4,72.82L1155.09,77.94L1157.44,154.78L1159.79,74.99L1162.14,51.29L1164.48,73.91L1166.83,78.9L1169.18,100.99L1171.53,85.1L1173.87,86.17L1176.22,84.67L1178.57,67.68L1180.92,99.55L1183.26,85.82L1185.61,85.92L1187.96,76.24L1190.31,81.72L1192.66,79.38L1195,80.98L1197.35,78.99L1199.7,73.98L1202.05,83.36L1204.39,72.85L1206.74,80.71L1209.09,81.87L1211.44,80.6L1213.79,83.44L1216.13,86.28L1218.48,75.87L1220.83,78L1223.18,72.63L1225.52,83.66L1227.87,83.57L1230.22,86.94L1232.57,80.98L1234.92,83.11L1237.26,60.44L1239.61,77.9L1241.96,85.02L1244.31,71.26L1246.65,83.2L1251.35,80.55L1253.7,71.76L1256.05,69.91L1258.39,85.92L1260.74,100.38L1263.09,80.26L1265.44,81.09L1267.78,76.01L1272.48,73.37L1274.83,70.11L1277.17,75.32L1279.52,92.49L1281.87,80.83L1284.22,74.83L1286.57,70.75L1288.91,73.89L1291.26,67.65L1293.61,67.3L1298.3,71.24L1300.65,77.86L1303,72.39L1305.35,73.7L1312.39,60.28L1314.74,58.09L1317.09,64.3L1319.43,62.59L1321.78,63.52L1324.13,58.89L1326.48,61.14L1328.83,66.14L1333.52,65.62L1335.87,63.71L1340.56,73.5L1342.91,74.45L1345.26,79.76L1347.61,81.79L1349.95,96.7L1352.3,120.61L1354.65,137.55L1357,173.17L1361.69,287.86L1364.04,394.21L1368.74,555.58L1371.08,585.93L1373.43,622.36L1375.78,678.6L1378.13,676.2L1380.48,682.65L1382.82,691.42L1385.17,704.96L1387.52,706.58L1389.87,710.8L1392.21,713.21L1394.56,712.3L1399.26,717.18L1401.61,711.73L1403.95,709.43L1406.3,714.47L1408.65,716.25L1411,710.62L1415.69,715.47L1418.04,707.02L1420.39,712.79L1422.74,714.21L1425.08,706.94L1427.43,711.39L1432.13,708.26L1434.47,710.07L1436.82,702.58L1439.17,706.55L1441.52,708.71L1443.86,695.91L1446.21,695.12L1448.56,696.65L1450.91,691.52L1453.26,700.73L1455.6,706.68L1457.95,697.17L1460.3,706.54L1462.65,701.16L1464.99,703.9L1467.34,698.08L1469.69,691.97L1472.04,700.52L1474.39,707.67L1476.73,699.21L1479.08,708.84L1481.43,705.74L1483.78,706.4L1486.12,705.21L1488.47,699.7L1490.82,703.63L1493.17,706.55L1495.52,702.58L1497.86,706.05L1500.21,701.05L1502.56,701.92L1504.91,707.12L1507.25,709.69L1509.6,706.03L1511.95,713.3L1514.3,711.11L1516.65,710.99L1518.99,708.35L1523.69,709.11L1526.04,710.76L1530.73,709.05L1533.08,707.61L1535.43,703.14L1537.77,710.45L1542.47,706.03L1544.82,706.92L1547.17,701.78L1549.51,700.01L1551.86,705.55L1554.21,696.84L1556.56,694.2L1558.9,696.84L1563.6,676.96L1565.95,672.49L1570.64,637.67L1572.99,610.34L1575.34,600.83L1577.69,571.94L1580.03,553.46L1582.38,519.38L1584.73,341.8L1587.08,310.75L1591.77,217.26L1594.12,194.03L1596.47,182.46L1598.82,162.73L1608.21,86.12L1610.55,88.61L1612.9,83.63L1615.25,82.74L1617.6,75.27L1619.95,78.54L1624.64,73.19L1626.99,71.84L1629.34,76.17L1631.68,75.51L1634.03,80.24L1636.38,77.22L1638.73,78.19L1641.08,72.53L1643.42,83.74L1645.77,75.01L1648.12,70.95L1650.47,73.9L1652.81,73.38L1655.16,78.48L1657.51,72.65L1659.86,73.97L1662.21,71.8L1664.55,79.83L1666.9,82.88L1669.25,76.02L1671.6,77.12L1673.94,67.18L1676.29,73.97L1678.64,77.53L1680.99,75.11L1683.34,74.79L1685.68,73.26L1688.03,74.07L1690.38,72.69L1692.73,78.54L1695.07,76.73L1697.42,68.74L1699.77,74.35L1702.12,74.92L1704.46,75.78L1706.81,70.17L1709.16,63.06L1711.51,67.23L1713.86,70.19L1716.2,70.26L1718.55,65.06L1720.9,65.07L1723.25,62.19L1725.59,61.41L1727.94,59.86L1730.29,65.88L1732.64,59.89L1734.99,59.11L1737.33,54.92L1739.68,59.77L1742.03,64.15L1744.38,64.83L1746.72,64.23L1749.07,67.83L1751.42,62.98L1753.77,67.17L1756.12,68.14L1758.46,71.53L1760.81,56.66L1763.16,71.39L1765.51,75.18L1767.85,71.91L1770.2,81.65L1772.55,73.41L1774.9,78.98L1777.25,80.15L1779.59,86.18L1781.94,96.38L1784.29,93.83L1786.64,81.87L1788.98,80.69L1791.33,94.54L1793.68,89.91L1796.03,106.15L1800.72,78.24L1803.07,99.03L1807.77,82.25L1810.11,111.74L1812.46,108.9L1814.81,114.51L1817.16,129.55L1819.5,151.32L1821.85,157.21L1824.2,172.96L1828.9,213.91L1831.24,274.06L1833.59,320.69L1835.94,401.58L1838.29,504.33L1840.63,562.58L1842.98,567.11L1845.33,589.69L1857.07,671.33L1859.42,676.39L1861.76,665.77L1864.11,681.23L1866.46,692.16L1868.81,693.85L1871.15,678.94L1873.5,689.7L1878.2,702.28L1880.55,699.56L1885.24,698.35L1887.59,701.25L1889.94,714.25L1892.28,705.64L1894.63,705.58L1896.98,706.72L1899.33,714.01L1901.68,707.72L1904.02,714.84L1906.37,715.16L1908.72,714.83L1911.07,717.89L1913.41,710.78L1915.76,712.22L1918.11,716.73L1920.46,717.44L1922.81,706.59L1925.15,716.14L1927.5,716.01L1929.85,707.95L1932.2,716.81L1934.54,713.5L1936.89,713.59L1939.24,710.89L1941.59,707.23L1943.94,705.44L1946.28,704.03L1948.63,689.99L1950.98,699.26L1953.33,688.56L1955.67,684.64L1958.02,678.2L1962.72,656.38L1965.06,634.08L1967.41,618.85L1969.76,588.94L1976.8,474.93L1979.15,339.55L1983.85,240.23L1986.19,186.61L1988.54,145.22L1990.89,137.77L1993.24,125.02L1995.59,104.11L2000.28,86.3L2002.63,83.54L2004.98,73.71L2007.32,86.29L2012.02,71.38L2014.37,72.35L2016.72,75L2019.06,74.09L2023.76,69.02L2026.11,71.12L2028.45,70.97L2030.8,65.9L2033.15,73.72L2035.5,70.72L2037.85,66.32L2040.19,70.78L2044.89,66.35L2047.24,67.83L2049.58,73.12L2051.93,71.19L2054.28,67.58L2056.63,74.14L2058.97,77.32L2061.32,67.97L2063.67,68.48L2066.02,75.97L2068.37,73.49L2070.71,75.66L2073.06,77.55L2075.41,71.09L2077.76,79.22L2080.1,81.38L2084.8,76.23L2087.15,73.53L2089.5,90.55L2091.84,76.55L2094.19,80.22L2096.54,78.23L2098.89,86.43L2101.23,80.8L2103.58,77.75L2105.93,87.62L2108.28,87.03L2110.63,82.76L2112.97,83.05L2115.32,89.74L2117.67,85.01L2120.02,82.94L2122.36,85.67L2124.71,92.21L2127.06,89.86L2129.41,81.91L2131.75,91.49L2134.1,95.59L2136.45,90.87L2138.8,95.35L2141.15,99.51L2143.49,105.98L2145.84,100.58L2148.19,105.16L2150.54,111.12L2152.88,129.11L2155.23,117.84L2157.58,119.32L2159.93,129.39L2162.28,145.3L2164.62,150.34L2166.97,161.93L2171.67,175.74L2174.01,194.53L2176.36,220.6L2178.71,228.17L2181.06,251.71L2183.41,308.05L2185.75,333.02L2188.1,439.26L2192.8,511.74L2195.14,521.47L2202.19,594.68L2204.54,612.01L2206.88,633.61L2209.23,643.87L2211.58,657.28L2213.93,662.47L2216.27,662.53L2218.62,667.97L2220.97,674.99L2223.32,685.3L2228.01,696.37L2230.36,690.05L2232.71,698.99L2235.06,700.25L2237.4,696.99L2239.75,696.69L2242.1,695.13L2244.45,703.04L2246.79,706.85L2249.14,705.52L2251.49,710.15L2253.84,707.08L2256.19,709.02L2258.53,705.41L2263.23,706.03L2265.58,709.07L2267.92,710.78L2270.27,709.03L2274.97,709.15L2277.32,713.81L2279.66,704.51L2282.01,703.07L2284.36,705.8L2286.71,710.35L2289.05,702.92L2291.4,699.94L2293.75,699.09L2296.1,683.62L2298.45,668.98L2300.79,664.72L2305.49,640.43L2307.84,610.41L2310.18,596.42L2312.53,595.82L2321.92,367.1L2324.27,240.67L2326.62,235.06L2328.97,213.58L2331.31,166.5L2333.66,141.55L2336.01,136.99L2338.36,135.73L2343.05,99.3L2345.4,82.85L2352.44,72.25L2354.79,72.29L2357.14,76.17L2359.49,73.32L2361.83,67.86L2364.18,88.52L2366.53,86.39L2368.88,74.07L2371.23,65.51L2373.57,74L2375.92,88.96L2378.27,88.41L2382.96,87.62L2385.31,85.97L2387.66,78.5L2390.01,96.96L2392.35,70.15L2394.7,81.08L2399.4,66.89L2401.75,71.48L2408.79,81.14L2411.14,82.49L2413.48,75.04L2415.83,79.01L2420.53,80.85L2422.88,78.16L2425.22,83.31L2427.57,81.55L2429.92,85.22L2432.27,79.7L2434.61,83.83L2436.96,81.05L2439.31,80.8L2441.66,82.98L2444.01,84.31L2446.35,77.36L2451.05,84.33L2453.4,84.79L2455.74,84.93L2458.09,82.19L2460.44,83.76L2462.79,83.64L2465.14,81.49L2467.48,77.54L2469.83,84.42L2472.18,81L2474.53,79.97L2476.87,74.32L2479.22,81.53L2481.57,80.51L2486.26,72.06L2488.61,78.34L2490.96,81.78L2493.31,77.74L2495.66,81.13L2498,81.63L2500.35,82.42L2502.7,80.61L2505.05,82.89L2507.39,79.56L2509.74,76.95L2512.09,79.68L2514.44,79.55L2516.79,70.68L2521.48,74.58L2523.83,73.34L2526.18,74L2528.52,69.62L2530.87,73.22L2533.22,71.76L2535.57,69.75L2537.92,65.24L2542.61,70.65L2544.96,71.33L2552,71.22L2554.35,70.51L2556.7,68.79L2559.05,70.11L2561.39,68.95L2563.74,66.57L2566.09,68.93L2568.44,65.47L2570.78,63.29L2573.13,70.73L2575.48,67.98L2577.83,68.21L2580.17,66.41L2582.52,61.62L2584.87,76.82L2587.22,68.74L2589.57,66.79L2591.91,63.27L2594.26,63.96L2596.61,71.82L2598.96,71.14L2601.3,68.74L2603.65,65.12L2606,73.21" style="vector-effect: non-scaling-stroke; fill: none; stroke: rgb(170, 0, 0); stroke-opacity: 1; stroke-width: 4px; opacity: 1;"/></g><g class="points"/><g class="text"/></g><g class="trace scatter tracea1ba27" style="stroke-miterlimit: 2; opacity: 1;"><g class="fills"/><g class="errorbars"/><g class="lines"><path class="js-line" d="M0,82.35L2.35,85.97L4.7,71.53L7.04,86.97L9.39,93.29L11.74,74.81L14.09,68.77L16.43,68.06L18.78,64.89L23.48,70.81L25.83,67.28L28.17,62.23L30.52,72.8L35.22,69.22L37.56,62.75L39.91,74.97L42.26,70.79L44.61,70.64L46.95,64.27L49.3,75.34L51.65,69.99L54,70.59L56.35,66.31L58.69,83.3L61.04,75.92L70.43,68.57L72.78,69.48L75.13,68.9L77.48,72.48L79.82,76.38L82.17,72.28L84.52,69.74L86.87,73.62L89.21,70.49L91.56,83.89L93.91,77.51L96.26,74.49L98.61,73.12L100.95,67.81L103.3,71.02L105.65,78.2L108,77.39L110.34,72.13L112.69,77.14L115.04,76.98L117.39,77.23L119.74,74.56L122.08,69.83L124.43,73.35L126.78,80.04L129.13,81.56L131.47,76.4L133.82,76.91L136.17,69.94L138.52,74.1L140.86,76.17L143.21,65.53L147.91,67.05L150.26,65.94L152.6,65.58L154.95,63.77L157.3,63.86L159.65,61.17L161.99,56.34L164.34,61.37L166.69,72.71L169.04,65.65L171.39,64.05L173.73,54.3L176.08,62.56L178.43,124.75L180.78,67L183.12,73.91L187.82,63.7L190.17,81.67L194.86,85.37L197.21,80.68L199.56,79.96L201.91,82.23L204.25,79.19L206.6,80.61L208.95,70.6L211.3,68.24L215.99,87.44L218.34,74.96L220.69,87L223.04,78.98L225.38,88.82L227.73,78.07L230.08,80.65L232.43,81.72L234.77,86.05L237.12,74.1L239.47,77.13L241.82,77L244.17,70.21L246.51,83.29L248.86,76.83L251.21,76.24L253.56,88.91L255.9,56.21L258.25,72.21L260.6,79.63L262.95,84.32L265.3,79.31L269.99,76.42L272.34,71.85L274.69,83.23L277.03,80.62L279.38,77.23L281.73,84.12L284.08,85.97L286.43,81.9L291.12,67.59L293.47,71.68L295.82,133.96L298.16,72.66L300.51,75.26L302.86,100.02L305.21,120.95L307.55,122.68L309.9,93.31L312.25,79.76L314.6,159.96L316.95,141.91L319.29,86.72L321.64,76.71L323.99,136.05L326.34,126.4L328.68,96.21L331.03,101.51L333.38,129.81L335.73,130.81L338.08,116.39L340.42,123.42L342.77,117.85L345.12,137.25L347.47,104.16L349.81,86.28L352.16,93.3L354.51,127.57L356.86,175.77L359.21,196.78L361.55,204.38L363.9,224.59L366.25,303.92L368.6,263.45L370.94,199.56L373.29,364.33L375.64,373.65L377.99,697.82L380.34,670.94L382.68,566.58L385.03,593.43L387.38,601.86L389.73,624.74L392.07,595.52L394.42,574.43L396.77,655.97L399.12,756.2L401.46,730.05L410.86,620.39L413.2,605.96L415.55,603.95L417.9,695.11L420.25,699.29L422.59,707.6L424.94,717.1L427.29,717.36L429.64,712.68L431.99,704.29L434.33,701.97L436.68,702.63L439.03,707.96L441.38,704.62L443.72,702.4L446.07,706.36L448.42,706.21L450.77,714.05L453.12,699.8L455.46,705.3L457.81,704.27L460.16,710.33L462.51,708.69L464.85,705.14L467.2,696.63L469.55,711.72L471.9,707.7L474.25,713.12L476.59,709.2L478.94,710.99L481.29,701.21L483.64,705.29L485.98,703.28L488.33,705.86L490.68,706.83L493.03,709.88L495.37,707.88L497.72,710.12L500.07,692.95L502.42,697.42L507.11,706.7L509.46,707.23L514.16,695.79L516.5,708.15L518.85,702.47L521.2,705.11L523.55,699.51L525.9,697.02L528.24,699.82L530.59,695.48L535.29,699.49L537.63,705.86L539.98,701.72L542.33,702.28L544.68,702.25L547.03,716.86L549.37,708.63L551.72,712.47L554.07,719.69L556.42,719.45L558.76,723.15L561.11,719.99L563.46,728.62L565.81,726.02L568.15,705.34L570.5,726.73L572.85,726.74L575.2,722.75L577.55,717.29L579.89,715.41L582.24,709.99L584.59,697.4L586.94,706.69L589.28,687.71L591.63,696.72L593.98,693.68L596.33,689.86L598.68,688.45L601.02,685.11L603.37,688.46L605.72,681.6L608.07,683.14L610.41,700.94L612.76,689.42L615.11,677.08L617.46,685.36L619.81,691.59L622.15,685.73L624.5,679.66L626.85,680.61L631.54,689.51L633.89,673.7L636.24,676.34L638.59,681.2L640.94,670.17L643.28,672.5L645.63,675.12L647.98,649.73L650.33,652.05L652.67,646.49L655.02,642.79L657.37,622.9L659.72,600.28L662.06,595.52L669.11,494.82L671.46,404.91L673.8,280.53L676.15,275.44L683.19,171.66L685.54,172.51L687.89,151.21L690.24,145.8L692.59,125.94L694.93,121.04L699.63,102.62L701.98,96.07L704.32,99.93L706.67,96.44L709.02,98.42L711.37,93.05L713.72,94.12L716.06,91.32L718.41,92.67L720.76,79.37L723.11,87.97L725.45,92.01L727.8,87.76L730.15,80.12L732.5,94.12L734.85,89.69L737.19,67.89L739.54,87.47L741.89,86.3L744.24,73.29L746.58,82.78L748.93,73.98L751.28,73.27L753.63,55.82L755.97,53.12L758.32,42.73L760.67,57.43L763.02,56.88L765.37,44.7L767.71,39.8L770.06,57.44L772.41,54.56L774.76,51.53L777.1,61.9L779.45,69.64L781.8,64.13L784.15,63.36L786.5,72.81L788.84,72.47L791.19,77L793.54,85.25L795.89,88.12L800.58,73.94L802.93,93.42L805.28,83.87L807.63,83.17L809.97,85.84L812.32,82.12L814.67,93.89L817.02,91.15L819.36,88.41L821.71,97.54L826.41,90.11L828.75,99.91L831.1,93.02L833.45,99.49L835.8,102.5L838.15,97.61L842.84,111.13L845.19,108.94L847.54,110.2L849.88,128.27L852.23,117.5L854.58,117.42L856.93,131.43L859.28,133.49L861.62,154.03L863.97,161.42L866.32,169.19L868.67,181.03L871.01,200.66L873.36,233.88L875.71,266.9L878.06,317.53L882.75,464.41L885.1,502.53L889.8,575.14L892.14,593.82L899.19,640.47L901.54,654.08L906.23,668.39L908.58,668.78L910.93,678.8L913.27,681.45L915.62,684.63L917.97,678.25L920.32,686.47L922.66,690.4L925.01,689.77L927.36,685.41L929.71,692.43L932.06,695.84L934.4,697.31L936.75,684.7L939.1,694.74L941.45,699.52L943.79,703.81L946.14,688.18L950.84,698.68L953.19,704.77L955.53,696.48L957.88,696.61L960.23,702.72L962.58,701.67L964.92,687.83L967.27,697.26L969.62,702.45L971.97,700.84L974.32,702.3L976.66,699.88L979.01,698.78L981.36,699.52L983.71,708.72L986.05,709.59L988.4,705.94L990.75,708.08L993.1,711.87L995.45,710.3L1000.14,716.32L1002.49,717.33L1004.84,716.26L1007.18,724.58L1009.53,720.36L1011.88,721.03L1016.57,719.11L1018.92,715.74L1021.27,715.58L1023.62,716.49L1025.97,713.86L1028.31,712.85L1030.66,706.65L1033.01,706.09L1035.36,706.77L1037.7,700.74L1040.05,689.02L1042.4,694.39L1044.75,688.33L1047.1,694.58L1049.44,692.62L1051.79,674.28L1054.14,676.37L1056.49,662.49L1061.18,624.6L1063.53,619.68L1068.23,582.02L1070.57,506.3L1072.92,384.45L1075.27,335.43L1079.96,213.29L1082.31,190.29L1084.66,158.36L1087.01,146.93L1091.7,113.76L1094.05,104.73L1096.4,101.18L1098.75,87.64L1101.09,90.74L1103.44,72.36L1105.79,66.96L1108.14,69.75L1110.48,73.23L1112.83,68.9L1115.18,56.55L1117.53,58.89L1119.88,59.08L1122.22,56.08L1124.57,57.73L1126.92,54.61L1129.27,55.02L1131.61,63.23L1136.31,55.65L1138.66,60.17L1141.01,70.06L1143.35,66.67L1145.7,71.36L1148.05,85.79L1150.4,76.52L1152.74,71.87L1155.09,84.25L1157.44,83.42L1159.79,89.6L1162.14,73.37L1164.48,81.44L1166.83,84.88L1169.18,81.38L1171.53,84.99L1173.87,82.63L1176.22,90.96L1180.92,82.43L1183.26,87.81L1185.61,96.76L1187.96,84.99L1192.66,81.94L1195,81.9L1197.35,84.91L1199.7,76.82L1202.05,80.1L1204.39,74.48L1209.09,79.27L1211.44,81.21L1213.79,78.9L1216.13,73.83L1220.83,66.62L1223.18,72.81L1225.52,72.53L1227.87,66.39L1232.57,72.32L1234.92,67.07L1237.26,62.97L1239.61,73.54L1241.96,74.29L1244.31,67.06L1246.65,67.24L1249,72.67L1251.35,74.29L1253.7,73.6L1256.05,73.24L1258.39,74.16L1260.74,76.11L1263.09,87.4L1265.44,81.11L1267.78,84.35L1270.13,80.23L1272.48,71.72L1274.83,80.25L1277.17,81.54L1279.52,85.67L1281.87,76.82L1284.22,92.38L1286.57,79.18L1288.91,79.3L1291.26,72.35L1293.61,81.34L1295.96,81.87L1298.3,72.86L1300.65,79.64L1303,75.09L1305.35,72.72L1310.04,62.86L1312.39,62.95L1317.09,59.16L1319.43,59.58L1321.78,62.67L1324.13,60.37L1326.48,58.66L1328.83,67.13L1331.17,59.25L1333.52,60.48L1335.87,61.28L1338.22,63.3L1340.56,70.15L1342.91,70.92L1345.26,77.26L1347.61,91.49L1349.95,94.73L1352.3,127.14L1354.65,133.98L1357,156.01L1361.69,292.15L1364.04,388.68L1366.39,494.65L1368.74,541.75L1371.08,634.47L1373.43,664.47L1375.78,667.51L1378.13,690.14L1380.48,687.95L1382.82,706.37L1385.17,697.73L1387.52,709.33L1389.87,693.79L1392.21,712.81L1396.91,716.72L1399.26,714.77L1401.61,716.03L1403.95,714.67L1406.3,713.4L1408.65,716.74L1411,714.41L1413.34,714.29L1415.69,714.46L1418.04,713.19L1420.39,712.12L1422.74,715.66L1425.08,702.2L1427.43,711.62L1429.78,697.59L1432.13,703.96L1434.47,708.9L1436.82,711.07L1439.17,696.02L1441.52,697.19L1443.86,697.3L1446.21,701.74L1450.91,692.01L1453.26,693.92L1455.6,697.96L1457.95,714.61L1460.3,699.5L1462.65,691.65L1464.99,700.1L1467.34,704.23L1469.69,705.72L1472.04,701.96L1474.39,693.64L1476.73,704.45L1479.08,707.75L1481.43,707.79L1483.78,703.59L1486.12,696.85L1488.47,708.31L1490.82,709.9L1493.17,708.76L1495.52,704.34L1497.86,712.35L1500.21,710.56L1504.91,703.11L1507.25,703.84L1509.6,707.3L1511.95,708.68L1514.3,707.61L1516.65,712.81L1521.34,711.6L1523.69,709.01L1526.04,710L1528.38,708.95L1530.73,707.89L1533.08,709.9L1537.77,705.88L1540.12,709.64L1542.47,705.12L1544.82,703.08L1547.17,708.73L1549.51,700.86L1551.86,699.1L1554.21,704.89L1556.56,694.99L1558.9,692.71L1561.25,687.68L1563.6,679.36L1565.95,670.45L1568.3,647.41L1570.64,635.55L1572.99,608.86L1575.34,604.05L1577.69,569.16L1584.73,406.87L1587.08,259.86L1589.43,273.5L1591.77,226.68L1594.12,189.47L1596.47,182.74L1603.51,112.8L1605.86,103.85L1608.21,112.36L1610.55,98.19L1617.6,75.42L1619.95,81.56L1622.29,74.91L1624.64,71.88L1626.99,76.76L1629.34,70.32L1631.68,70.67L1634.03,72.06L1636.38,78.2L1638.73,70.99L1641.08,69.28L1643.42,76.57L1645.77,74.24L1648.12,73.89L1650.47,73.42L1652.81,76.16L1655.16,70.76L1657.51,73.07L1659.86,75.47L1662.21,67.98L1664.55,68.28L1666.9,78.77L1671.6,68.69L1673.94,75.28L1676.29,76.34L1678.64,76L1680.99,71.83L1683.34,78.12L1688.03,69.51L1690.38,79.18L1692.73,72.76L1695.07,71.8L1697.42,79.07L1699.77,74.25L1702.12,76.01L1704.46,83.12L1706.81,70.95L1709.16,72.59L1711.51,71.59L1713.86,74.38L1718.55,66.97L1720.9,69.83L1723.25,68.31L1725.59,59.27L1727.94,59.97L1730.29,55.96L1732.64,54.04L1734.99,58.32L1739.68,54.98L1742.03,62.84L1744.38,62.99L1746.72,60.38L1749.07,66.95L1751.42,77.63L1753.77,63.15L1756.12,67.59L1758.46,66.08L1760.81,73.8L1763.16,78.09L1765.51,76.05L1767.85,71.79L1770.2,85.89L1772.55,78.59L1774.9,77.93L1777.25,79.06L1779.59,82.15L1781.94,79.71L1784.29,93.46L1786.64,84.76L1788.98,84.45L1796.03,91.98L1798.37,86.05L1800.72,96.97L1803.07,89.37L1807.77,104.12L1810.11,100.26L1812.46,107.73L1814.81,119.14L1817.16,130.85L1819.5,135.6L1821.85,155.16L1824.2,188.07L1826.55,196.16L1828.9,240.62L1831.24,223.88L1833.59,300.18L1835.94,358.56L1838.29,458.81L1840.63,512.72L1842.98,541.48L1845.33,574.64L1847.68,587.06L1852.37,661.94L1854.72,651.38L1857.07,660.34L1859.42,664.97L1861.76,670.79L1864.11,687.1L1866.46,696.11L1868.81,692.98L1871.15,694.06L1873.5,693.82L1875.85,694.15L1878.2,705.78L1880.55,697.6L1882.89,694.97L1887.59,701.43L1889.94,713.6L1892.28,703.06L1894.63,699.78L1896.98,704.17L1899.33,703.53L1901.68,701.76L1904.02,708.73L1906.37,713.13L1908.72,711.69L1911.07,716.89L1913.41,715.48L1915.76,718.6L1918.11,716.7L1920.46,718.64L1922.81,721.99L1925.15,721.55L1927.5,718.34L1929.85,720.08L1932.2,717.09L1936.89,713.67L1939.24,710.6L1941.59,712.15L1943.94,708.24L1946.28,674.79L1948.63,706.04L1950.98,678.94L1953.33,693.48L1955.67,709.08L1958.02,677.32L1962.72,655.52L1965.06,657.31L1972.11,589.39L1974.46,490.12L1976.8,382.29L1979.15,324.59L1981.5,279.46L1983.85,183.91L1986.19,181.47L1988.54,158.11L1993.24,125.3L1995.59,82.7L1997.93,95.94L2000.28,90.18L2002.63,82.67L2004.98,85.07L2007.32,69.68L2009.67,79.41L2012.02,73.23L2014.37,70.18L2016.72,67.79L2019.06,72.57L2021.41,77.07L2023.76,70.37L2028.45,61.84L2030.8,74.93L2035.5,64.62L2037.85,64.07L2040.19,70.3L2042.54,70.08L2044.89,67.55L2047.24,67L2049.58,69.48L2051.93,74.17L2054.28,78.41L2056.63,70.21L2058.97,70.34L2061.32,63.06L2063.67,76.85L2066.02,74.54L2068.37,72.12L2070.71,73.8L2073.06,79.44L2075.41,79.77L2077.76,85.77L2080.1,82.78L2082.45,76.04L2084.8,74.91L2087.15,86.82L2089.5,85.36L2091.84,82.27L2094.19,88.04L2096.54,90.82L2098.89,80.42L2103.58,92.61L2105.93,86.25L2108.28,89.53L2110.63,84.82L2112.97,81.86L2115.32,87.14L2117.67,85.57L2120.02,91.47L2124.71,94.7L2127.06,89.99L2129.41,86.99L2131.75,102.98L2136.45,99.59L2138.8,118.52L2141.15,102.37L2143.49,106.78L2145.84,122.38L2148.19,107.54L2150.54,113.63L2152.88,126.78L2155.23,119.68L2157.58,120L2159.93,140.97L2162.28,144.05L2164.62,140.55L2166.97,162.86L2174.01,183.04L2176.36,206.02L2178.71,222.67L2181.06,231.01L2183.41,313.19L2185.75,352.05L2188.1,404.72L2190.45,491.44L2195.14,551.94L2197.49,566.54L2202.19,623.61L2204.54,610.57L2206.88,623.07L2209.23,648.09L2211.58,647.03L2213.93,651.63L2216.27,666.64L2218.62,670.72L2220.97,667.62L2223.32,691.29L2225.66,684.7L2228.01,668.49L2230.36,686.7L2232.71,682.28L2235.06,684.67L2237.4,684.59L2239.75,685.19L2242.1,692.78L2244.45,688.22L2246.79,694.93L2249.14,691.23L2251.49,692.46L2253.84,699.63L2256.19,689.84L2258.53,702.73L2260.88,696.93L2263.23,696.02L2265.58,702.72L2267.92,690.19L2270.27,706.42L2274.97,697.8L2277.32,701.87L2279.66,689.07L2282.01,704.84L2284.36,706.3L2286.71,698.16L2289.05,696.81L2291.4,684.97L2293.75,690.76L2296.1,706.59L2300.79,681.06L2303.14,658.26L2307.84,635.38L2310.18,622.15L2312.53,573.76L2314.88,573.53L2317.23,545.88L2319.57,424.84L2324.27,285.61L2326.62,206.26L2328.97,179.36L2331.31,194.68L2333.66,167.52L2336.01,126.44L2338.36,106.64L2340.7,108.27L2343.05,118.3L2345.4,96.14L2347.75,77.8L2350.1,91.89L2352.44,76.6L2354.79,82.48L2357.14,73.37L2359.49,71.27L2361.83,81.82L2364.18,77.91L2366.53,80.53L2368.88,74.64L2371.23,70.22L2373.57,79.28L2375.92,78.61L2378.27,80.93L2382.96,72.55L2385.31,78.14L2387.66,78.79L2390.01,82.06L2394.7,71.27L2397.05,78.98L2401.75,81.27L2404.09,78.75L2406.44,84.47L2408.79,78.57L2411.14,72.84L2413.48,79.77L2415.83,83.74L2418.18,90.36L2420.53,79.65L2422.88,90.67L2425.22,80.32L2427.57,90.75L2429.92,80.96L2432.27,90.53L2434.61,81.53L2436.96,89.94L2439.31,81.9L2441.66,88.99L2444.01,82.03L2446.35,87.7L2448.7,79.6L2451.05,81.43L2453.4,80.71L2455.74,87.3L2458.09,79.87L2460.44,80.23L2462.79,76.85L2465.14,86.59L2469.83,78.87L2472.18,81.47L2474.53,81.44L2476.87,84.96L2479.22,74.44L2481.57,89.28L2483.92,80.84L2486.26,88.47L2490.96,75.13L2493.31,81.27L2495.66,82.4L2498,78.41L2500.35,84.45L2502.7,76.76L2505.05,82.67L2507.39,77.29L2509.74,83.8L2512.09,78.19L2514.44,80.77L2516.79,69.63L2519.13,77.31L2521.48,73.63L2523.83,70.16L2526.18,76.1L2533.22,68.52L2535.57,68.36L2537.92,72.52L2540.26,68.66L2542.61,63.79L2544.96,68.17L2547.31,72.61L2549.65,68.49L2552,62.26L2554.35,65.46L2556.7,76.32L2559.05,74.58L2563.74,72.61L2566.09,69.13L2568.44,70.69L2570.78,68.9L2573.13,68.13L2575.48,73.79L2580.17,66.99L2582.52,61.61L2584.87,70.24L2587.22,65.74L2589.57,53.39L2591.91,69.38L2594.26,72.12L2596.61,70.76L2598.96,85.52L2601.3,69.82L2603.65,70.66L2606,81.88" style="vector-effect: non-scaling-stroke; fill: none; stroke: rgb(0, 170, 0); stroke-opacity: 1; stroke-width: 4px; opacity: 1;"/></g><g class="points"/><g class="text"/></g></g></g><g class="overplot"/><path class="xlines-above crisp" d="M0,0" style="fill: none;"/><path class="ylines-above crisp" d="M0,0" style="fill: none;"/><g class="overlines-above"/><g class="xaxislayer-above"><g class="xtick"><text text-anchor="middle" x="0" y="934" transform="translate(136,0)" style="font-family: 'Open Sans', verdana, arial, sans-serif; font-size: 37px; fill: rgb(42, 63, 95); fill-opacity: 1; white-space: pre; opacity: 1;">0</text></g><g class="xtick"><text text-anchor="middle" x="0" y="934" style="font-family: 'Open Sans', verdana, arial, sans-serif; font-size: 37px; fill: rgb(42, 63, 95); fill-opacity: 1; white-space: pre; opacity: 1;" transform="translate(605.55,0)">200</text></g><g class="xtick"><text text-anchor="middle" x="0" y="934" style="font-family: 'Open Sans', verdana, arial, sans-serif; font-size: 37px; fill: rgb(42, 63, 95); fill-opacity: 1; white-space: pre; opacity: 1;" transform="translate(1075.1,0)">400</text></g><g class="xtick"><text text-anchor="middle" x="0" y="934" style="font-family: 'Open Sans', verdana, arial, sans-serif; font-size: 37px; fill: rgb(42, 63, 95); fill-opacity: 1; white-space: pre; opacity: 1;" transform="translate(1544.65,0)">600</text></g><g class="xtick"><text text-anchor="middle" x="0" y="934" style="font-family: 'Open Sans', verdana, arial, sans-serif; font-size: 37px; fill: rgb(42, 63, 95); fill-opacity: 1; white-space: pre; opacity: 1;" transform="translate(2014.2,0)">800</text></g><g class="xtick"><text text-anchor="middle" x="0" y="934" style="font-family: 'Open Sans', verdana, arial, sans-serif; font-size: 37px; fill: rgb(42, 63, 95); fill-opacity: 1; white-space: pre; opacity: 1;" transform="translate(2483.75,0)">1000</text></g></g><g class="yaxislayer-above"><g class="ytick"><text text-anchor="end" x="135" y="12.95" transform="translate(0,864.58)" style="font-family: 'Open Sans', verdana, arial, sans-serif; font-size: 37px; fill: rgb(42, 63, 95); fill-opacity: 1; white-space: pre; opacity: 1;">−10</text></g><g class="ytick"><text text-anchor="end" x="135" y="12.95" style="font-family: 'Open Sans', verdana, arial, sans-serif; font-size: 37px; fill: rgb(42, 63, 95); fill-opacity: 1; white-space: pre; opacity: 1;" transform="translate(0,697.63)">−5</text></g><g class="ytick"><text text-anchor="end" x="135" y="12.95" style="font-family: 'Open Sans', verdana, arial, sans-serif; font-size: 37px; fill: rgb(42, 63, 95); fill-opacity: 1; white-space: pre; opacity: 1;" transform="translate(0,530.6800000000001)">0</text></g><g class="ytick"><text text-anchor="end" x="135" y="12.95" style="font-family: 'Open Sans', verdana, arial, sans-serif; font-size: 37px; fill: rgb(42, 63, 95); fill-opacity: 1; white-space: pre; opacity: 1;" transform="translate(0,363.73)">5</text></g><g class="ytick"><text text-anchor="end" x="135" y="12.95" style="font-family: 'Open Sans', verdana, arial, sans-serif; font-size: 37px; fill: rgb(42, 63, 95); fill-opacity: 1; white-space: pre; opacity: 1;" transform="translate(0,196.79000000000002)">10</text></g></g><g class="overaxes-above"/></g></g><g class="polarlayer"/><g class="ternarylayer"/><g class="geolayer"/><g class="funnelarealayer"/><g class="pielayer"/><g class="iciclelayer"/><g class="treemaplayer"/><g class="sunburstlayer"/><g class="glimages"/><defs id="topdefs-0f9d74"><g class="clips"/><clipPath id="legend0f9d74"><rect width="694" height="113" x="0" y="0"/></clipPath></defs><g class="layer-above"><g class="imagelayer"/><g class="shapelayer"/></g><g class="infolayer"><g class="legend" pointer-events="all" transform="translate(2794.12,100)"><rect class="bg" shape-rendering="crispEdges" width="694" height="113" x="0" y="0" style="stroke: rgb(68, 68, 68); stroke-opacity: 1; fill: rgb(255, 255, 255); fill-opacity: 1; stroke-width: 0px;"/><g class="scrollbox" transform="" clip-path="url(#legend0f9d74)"><g class="groups"><g class="traces" transform="translate(0,30.55)" style="opacity: 1;"><text class="legendtext" text-anchor="start" x="40" y="14.43" style="font-family: 'Open Sans', verdana, arial, sans-serif; font-size: 37px; fill: rgb(42, 63, 95); fill-opacity: 1; white-space: pre;">Predicted Curvature at Anchors #1</text><g class="layers" style="opacity: 1;"><g class="legendfill"/><g class="legendlines"><path class="js-line" d="M5,0h30" style="fill: none; stroke: rgb(170, 0, 0); stroke-opacity: 1; stroke-width: 4px;"/></g><g class="legendsymbols"><g class="legendpoints"/></g></g><rect class="legendtoggle" x="0" y="-25.55" width="688.125" height="51.1" style="fill: rgb(0, 0, 0); fill-opacity: 0;"/></g><g class="traces" transform="translate(0,81.65)" style="opacity: 1;"><text class="legendtext" text-anchor="start" x="40" y="14.43" style="font-family: 'Open Sans', verdana, arial, sans-serif; font-size: 37px; fill: rgb(42, 63, 95); fill-opacity: 1; white-space: pre;">Predicted Curvature at Anchors #2</text><g class="layers" style="opacity: 1;"><g class="legendfill"/><g class="legendlines"><path class="js-line" d="M5,0h30" style="fill: none; stroke: rgb(0, 170, 0); stroke-opacity: 1; stroke-width: 4px;"/></g><g class="legendsymbols"><g class="legendpoints"/></g></g><rect class="legendtoggle" x="0" y="-25.55" width="688.125" height="51.1" style="fill: rgb(0, 0, 0); fill-opacity: 0;"/></g></g></g><rect class="scrollbar" rx="20" ry="3" width="0" height="0" x="0" y="0" style="fill: rgb(128, 139, 164); fill-opacity: 1;"/></g><g class="g-gtitle"/><g class="g-xtitle"><text class="xtitle" x="1439" y="987.8" text-anchor="middle" style="font-family: 'Open Sans', verdana, arial, sans-serif; font-size: 44px; fill: rgb(42, 63, 95); opacity: 1; font-weight: normal; white-space: pre;">Anchor Point Index</text></g><g class="g-ytitle" transform="translate(32.1279296875,0)"><text class="ytitle" transform="rotate(-90,11.871875000000003,498)" x="11.871875000000003" y="498" text-anchor="middle" style="font-family: 'Open Sans', verdana, arial, sans-serif; font-size: 44px; fill: rgb(42, 63, 95); opacity: 1; font-weight: normal; white-space: pre;">Predicted Curvature</text></g><g class="annotation" data-index="0" style="opacity: 1;"><g class="annotation-text-g" transform="rotate(0,1439,66.49999999999993)"><g class="cursor-pointer" transform="translate(222,33)"><rect class="bg" x="0.5" y="0.5" width="2433" height="66" style="stroke-width: 1px; stroke: rgb(0, 0, 0); stroke-opacity: 0; fill: rgb(0, 0, 0); fill-opacity: 0;"/><text class="annotation-text" text-anchor="middle" x="1217.03125" y="54" style="font-family: 'Open Sans', verdana, arial, sans-serif; font-size: 52px; fill: rgb(42, 63, 95); fill-opacity: 1; white-space: pre;"><tspan style="font-weight:bold">Predicted Curvature at Anchors (Transformed Curve #1 vs. Transformed Curve #2)</tspan></text></g></g></g></g></svg>