<svg class="main-svg" xmlns="http://www.w3.org/2000/svg" xmlns:xlink="http://www.w3.org/1999/xlink" width="3500" height="1000" style="" viewBox="0 0 3500 1000"><rect x="0" y="0" width="3500" height="1000" style="fill: rgb(255, 255, 255); fill-opacity: 1;"/><defs id="defs-67c780"><g class="clips"><clipPath id="clip67c780xyplot" class="plotclip"><rect width="2628" height="796"/></clipPath><clipPath class="axesclip" id="clip67c780x"><rect x="113" y="0" width="2628" height="1000"/></clipPath><clipPath class="axesclip" id="clip67c780y"><rect x="0" y="100" width="3500" height="796"/></clipPath><clipPath class="axesclip" id="clip67c780xy"><rect x="113" y="100" width="2628" height="796"/></clipPath></g><g class="gradients"/><g class="patterns"/></defs><g class="bglayer"><rect class="bg" x="113" y="100" width="2628" height="796" style="fill: rgb(229, 236, 246); fill-opacity: 1; stroke-width: 0;"/></g><g class="layer-below"><g class="imagelayer"/><g class="shapelayer"/></g><g class="cartesianlayer"><g class="subplot xy"><g class="layer-subplot"><g class="shapelayer"/><g class="imagelayer"/></g><g class="gridlayer"><g class="x"><path class="xgrid crisp" transform="translate(575.6800000000001,0)" d="M0,100v796" style="stroke: rgb(255, 255, 255); stroke-opacity: 1; stroke-width: 1px;"/><path class="xgrid crisp" transform="translate(1038.35,0)" d="M0,100v796" style="stroke: rgb(255, 255, 255); stroke-opacity: 1; stroke-width: 1px;"/><path class="xgrid crisp" transform="translate(1501.03,0)" d="M0,100v796" style="stroke: rgb(255, 255, 255); stroke-opacity: 1; stroke-width: 1px;"/><path class="xgrid crisp" transform="translate(1963.7,0)" d="M0,100v796" style="stroke: rgb(255, 255, 255); stroke-opacity: 1; stroke-width: 1px;"/><path class="xgrid crisp" transform="translate(2426.38,0)" d="M0,100v796" style="stroke: rgb(255, 255, 255); stroke-opacity: 1; stroke-width: 1px;"/></g><g class="y"><path class="ygrid crisp" transform="translate(0,725.25)" d="M113,0h2628" style="stroke: rgb(255, 255, 255); stroke-opacity: 1; stroke-width: 1px;"/><path class="ygrid crisp" transform="translate(0,361.94)" d="M113,0h2628" style="stroke: rgb(255, 255, 255); stroke-opacity: 1; stroke-width: 1px;"/><path class="ygrid crisp" transform="translate(0,180.29000000000002)" d="M113,0h2628" style="stroke: rgb(255, 255, 255); stroke-opacity: 1; stroke-width: 1px;"/></g></g><g class="zerolinelayer"><path class="xzl zl crisp" transform="translate(113,0)" d="M0,100v796" style="stroke: rgb(255, 255, 255); stroke-opacity: 1; stroke-width: 2px;"/><path class="yzl zl crisp" transform="translate(0,543.5899999999999)" d="M113,0h2628" style="stroke: rgb(255, 255, 255); stroke-opacity: 1; stroke-width: 2px;"/></g><path class="xlines-below"/><path class="ylines-below"/><g class="overlines-below"/><g class="xaxislayer-below"/><g class="yaxislayer-below"/><g class="overaxes-below"/><g class="plot" transform="translate(113,100)" clip-path="url(#clip67c780xyplot)"><g class="scatterlayer mlayer"><g class="trace scatter trace54b83a" style="stroke-miterlimit: 2; opacity: 1;"><g class="fills"/><g class="errorbars"/><g class="lines"><path class="js-line" d="M0,65.83L2.31,60.14L4.63,65.17L6.94,67.34L9.25,56L13.88,68.07L16.19,58.53L18.51,57.13L20.82,66.14L23.13,59.48L25.45,58.36L27.76,61.8L30.07,58.51L34.7,67.52L37.01,62.76L39.33,58.04L41.64,60.3L43.95,69.26L46.27,53.03L48.58,56.26L50.89,61.3L53.21,61.22L55.52,58.63L57.83,56.49L60.15,58.01L62.46,69.28L64.77,65.36L67.09,65.16L69.4,57.26L71.71,64.5L74.03,53.1L78.65,55.25L80.97,47.88L83.28,59.69L85.6,58.12L90.22,62.23L92.54,60.18L97.16,55.65L99.48,57.64L101.79,51.39L104.1,62.46L106.42,53.58L108.73,59.9L111.04,63.26L113.36,64.39L115.67,75.33L117.98,63.01L120.3,66.19L122.61,65.31L124.92,66.86L127.24,60.25L129.55,57.2L131.86,61.89L134.18,61.5L136.49,63.92L138.8,54.58L141.12,59.96L143.43,56.98L145.74,66.01L148.06,58.6L150.37,66.23L152.68,57.01L155,57.05L157.31,58.78L159.62,61.83L161.94,62.92L164.25,56.01L168.88,58.7L171.19,58.02L173.5,62.81L175.82,55.38L178.13,55.94L180.44,59.47L182.76,115.28L185.07,55.22L192.01,64.17L194.32,65.02L196.64,58.53L198.95,55.33L201.26,62.99L203.58,61.45L205.89,58.15L208.2,74.96L212.83,46.54L215.14,64.91L217.46,74.29L219.77,58.59L222.08,76.92L224.4,74.2L229.02,94.25L231.34,84.63L235.96,134.02L238.28,137.64L240.59,161.96L242.9,174.87L245.22,194.42L247.53,246.95L249.85,266.03L252.16,381.73L254.47,462.47L256.79,506.1L259.1,572.64L261.41,586.35L266.04,609.48L268.35,637.62L270.67,684.02L272.98,698.34L275.29,708.57L277.61,725.62L279.92,734.17L282.23,736.8L284.55,737.58L286.86,735.25L293.8,746.34L296.11,747.24L298.43,747.81L300.74,745.88L303.05,749.75L305.37,750.09L309.99,745.47L312.31,748.65L314.62,749.37L316.93,747.09L323.87,747.9L326.19,745.95L328.5,747.99L330.81,747.89L335.44,745.37L337.75,747.96L340.07,747.89L342.38,746.13L344.69,745.53L347.01,747.42L349.32,747.38L351.63,745.5L358.57,746.77L360.89,744.82L363.2,746.35L365.51,745.92L367.83,746.16L370.14,744.14L372.45,741.44L374.77,744.7L377.08,743.1L379.39,743.87L381.71,742.72L384.02,744.14L388.65,743.34L390.96,745.61L397.9,745.02L400.21,741.89L404.84,743.44L407.15,729.34L409.47,741.36L411.78,741.93L414.1,744.29L416.41,744.67L418.72,741.59L421.04,742.4L423.35,739.34L425.66,738.93L427.98,737.32L430.29,741.76L432.6,738.75L434.92,740.35L437.23,740.58L439.54,738.14L441.86,737.81L444.17,740.57L451.11,732.12L453.42,735.71L455.74,736.68L458.05,727.15L460.36,723.82L462.68,722.26L464.99,718.44L467.3,711.34L469.62,707.64L471.93,688.6L476.56,655.73L478.87,631.2L483.5,580.14L485.81,525.93L488.12,504.19L490.44,394.65L495.06,248.31L497.38,218.83L506.63,123.16L508.94,119.87L513.57,89.46L515.88,83.74L518.2,72.61L520.51,70.84L527.45,57.87L529.76,55.94L532.08,60.67L534.39,39.8L536.7,53.66L539.02,56.78L541.33,55.26L543.64,57.77L545.96,58.44L548.27,63.69L550.58,57.72L552.9,67.07L555.21,63.2L557.52,64.21L559.84,57.13L562.15,54.29L564.46,59.69L566.78,59.69L569.09,61.76L571.4,60.33L573.72,62.05L576.03,71.49L578.35,65.73L580.66,75.31L582.97,62.22L585.29,55.89L587.6,62.29L589.91,60.86L592.23,69.6L594.54,46.89L596.85,61.42L599.17,57.35L601.48,60.27L603.79,55.01L606.11,53.46L608.42,61.97L610.73,64.39L613.05,58.18L615.36,62.78L617.67,62.23L619.99,55.47L622.3,52.07L624.61,59.59L626.93,54.52L629.24,62.13L631.55,59.21L633.87,58.71L636.18,61.82L645.43,52.38L647.75,62.02L650.06,61.23L652.37,67.7L654.69,59.28L657,55.33L659.31,64.86L661.63,51.6L663.94,57.15L666.25,51.94L670.88,65.72L673.19,59.12L675.51,65.08L677.82,57.65L682.45,63L684.76,63.65L687.07,64.26L689.39,66.93L691.7,64.14L694.01,63.83L696.33,66.55L698.64,49.25L700.95,76.32L703.27,70.42L705.58,65.48L707.89,73.25L712.52,90.31L714.83,75.49L717.15,69.24L719.46,72.56L721.77,71.06L724.09,80.41L726.4,94.06L728.71,83.61L731.03,64.48L733.34,73.19L737.97,89.47L740.28,94.92L744.91,56.76L747.22,60.88L751.85,65.71L754.16,54.36L761.1,52.36L763.42,44.28L765.73,51.73L768.04,62.59L770.36,58.15L772.67,56.22L774.98,59.41L777.3,57.92L779.61,67.26L781.92,62.08L784.24,59.89L786.55,59.13L788.86,53.52L791.18,52.46L793.49,57.18L795.8,55.51L798.12,52.07L800.43,58.24L802.74,58.8L805.06,60.57L809.68,53.18L812,53.68L816.62,64.41L818.94,61.55L821.25,58.22L823.56,58.14L825.88,56.13L828.19,47.72L830.5,60.11L832.82,58.33L837.44,56.96L839.76,60.59L842.07,62.42L844.38,50.35L846.7,53.82L849.01,61.1L851.32,61.64L853.64,66.5L855.95,66.6L858.26,62.94L860.58,55.3L862.89,61.11L865.2,57.54L867.52,61.43L872.14,58.67L874.46,63.7L876.77,56.82L879.08,57.68L883.71,60.35L886.02,57.54L888.34,65.91L890.65,60.85L892.96,54.03L895.28,61.87L897.59,63.03L899.9,61.85L906.85,57.07L909.16,58.93L911.47,59.56L913.79,64.84L916.1,60.95L918.41,53.81L920.73,60.49L923.04,59.8L925.35,61.16L927.67,59.9L929.98,54.16L932.29,57.12L936.92,62.33L939.23,60.85L941.55,55.03L943.86,56.04L946.17,56.97L948.49,60.78L953.11,50.28L955.43,58.65L957.74,57.85L960.05,62.12L962.37,62.18L964.68,55.06L966.99,59.78L969.31,60.09L971.62,68.33L973.93,56.16L976.25,61.9L978.56,61.15L980.87,57.02L983.19,65.16L987.81,52.89L990.13,62.5L992.44,56.21L994.75,57.92L997.07,69.08L999.38,62.39L1001.69,57.23L1004.01,61.19L1006.32,51.41L1008.63,64.59L1010.95,77.62L1013.26,63.39L1015.57,54.75L1017.89,59.16L1020.2,62.76L1022.51,58.12L1024.83,68.03L1027.14,52.82L1029.45,60.68L1031.77,52.98L1034.08,48.07L1036.39,56.47L1038.71,71.13L1041.02,65.11L1045.65,74.11L1047.96,66.05L1050.27,60.97L1052.59,64.72L1054.9,71.97L1057.21,59L1061.84,70.5L1064.15,71.83L1068.78,97.8L1071.1,109.24L1075.72,117.17L1078.04,167.83L1080.35,193.74L1082.66,191.57L1087.29,300.7L1089.6,437.68L1094.23,531.86L1096.54,608.42L1098.86,670.52L1101.17,685.33L1103.48,722.36L1105.8,710.11L1108.11,691.33L1110.42,697.11L1115.05,705.22L1117.36,708.12L1119.68,710.54L1121.99,725.52L1124.3,738.72L1126.62,730.37L1128.93,728.49L1131.24,731.12L1133.56,744.7L1135.87,747.49L1138.18,749.37L1140.5,749.37L1142.81,743.9L1145.12,742.02L1149.75,746.2L1152.06,745.85L1154.38,746.04L1156.69,753.05L1159,749.45L1161.32,749.57L1165.94,747.55L1168.26,747.53L1170.57,748.5L1172.88,747.51L1175.2,747.63L1177.51,748.77L1179.82,747.57L1182.14,747.78L1184.45,749.1L1186.76,747.67L1189.08,747.92L1191.39,749.41L1193.7,747.77L1196.02,748.01L1198.33,749.63L1200.64,747.81L1202.96,747.17L1205.27,741.17L1207.58,748.45L1209.9,745L1212.21,748.64L1214.52,747.44L1216.84,749.29L1219.15,747L1221.46,748.15L1223.78,746.15L1226.09,745.47L1228.4,740.41L1230.72,746.43L1233.03,742.52L1235.35,747.93L1237.66,748.14L1239.97,748.51L1242.29,745.55L1244.6,748.73L1246.91,745.51L1249.23,745.18L1251.54,741.61L1253.85,745.31L1256.17,741.12L1260.79,748.23L1263.11,747.93L1265.42,744.03L1267.73,748.82L1270.05,744.78L1272.36,744.75L1274.67,742.32L1276.99,745.65L1279.3,740.34L1281.61,744.06L1283.93,747.29L1286.24,747.42L1288.55,742.73L1290.87,747.95L1295.49,740.49L1297.81,746.49L1300.12,744.19L1302.43,743.61L1304.75,746.15L1307.06,743.97L1309.37,743.54L1311.69,745.87L1314,743.87L1316.31,743.65L1318.63,745.74L1320.94,743.92L1323.25,744.06L1325.57,745.77L1327.88,744.16L1330.19,744.81L1332.51,745.98L1334.82,744.54L1339.45,746.36L1341.76,745.01L1344.07,745.37L1346.39,741.77L1348.7,741.5L1351.01,747.13L1353.33,747.85L1355.64,747.17L1357.95,753.04L1360.27,750.53L1362.58,745.27L1364.89,743.39L1367.21,742.58L1369.52,747.05L1374.15,748.8L1376.46,753.62L1378.77,750.94L1381.09,744.9L1383.4,745.3L1385.71,744.33L1388.03,747.8L1390.34,747.09L1392.65,743.68L1394.97,743.87L1397.28,752.74L1399.6,749.15L1404.22,744.02L1406.54,744.12L1408.85,752.1L1411.16,748.09L1415.79,744.25L1418.1,744.16L1420.42,750.69L1422.73,746.97L1429.67,744.01L1431.98,748.97L1434.3,746.84L1436.61,742.83L1438.92,748.23L1441.24,747.79L1445.86,743.5L1448.18,747.1L1450.49,745.58L1452.8,745.76L1457.43,742.81L1459.74,746.62L1464.37,745.95L1466.68,742.82L1469,741.68L1471.31,747.03L1475.94,745.82L1478.25,741.08L1480.56,739.74L1482.88,748.52L1485.19,747.39L1487.5,744.88L1489.82,737.87L1492.13,735.99L1494.44,749.2L1496.76,748.02L1499.07,741.82L1501.38,731.3L1503.7,725.6L1506.01,737.36L1508.32,738.51L1510.64,733.94L1512.95,707.06L1515.26,699.56L1517.58,677.95L1519.89,643.01L1524.52,599.53L1526.83,560.24L1531.46,329.49L1533.77,280.88L1538.4,188.54L1540.71,166.6L1543.02,133.59L1545.34,126.58L1547.65,99.1L1549.96,93.33L1552.28,77.13L1554.59,70.98L1556.9,75.59L1559.22,60.19L1561.53,61.82L1563.85,61.94L1566.16,65.92L1568.47,60.77L1570.79,56.88L1573.1,62.27L1575.41,55.36L1577.73,60.81L1580.04,56.19L1582.35,59.84L1584.67,57.13L1586.98,59.21L1589.29,54.17L1591.61,61.99L1593.92,55.52L1596.23,59.15L1598.55,51.41L1600.86,54.5L1603.17,54L1605.49,58.77L1607.8,59.69L1610.11,52.51L1612.43,54.17L1614.74,53.88L1617.05,56.7L1619.37,56.99L1621.68,53.86L1623.99,54.13L1626.31,58.04L1628.62,58.78L1630.93,59.09L1633.25,57.1L1635.56,59.05L1637.87,58.11L1640.19,56.12L1642.5,58.83L1647.13,55.41L1649.44,58.1L1651.75,54.76L1654.07,54.99L1656.38,57.02L1658.69,52.35L1661.01,54.93L1663.32,55.74L1665.63,59.33L1667.95,55.05L1670.26,51.72L1672.57,53.72L1674.89,50.07L1677.2,53.86L1679.51,54.47L1681.83,47.07L1684.14,53.22L1686.45,52.34L1688.77,47.48L1691.08,53L1693.39,49.41L1695.71,51.29L1698.02,51.72L1700.33,46.34L1704.96,54.55L1707.27,47.8L1711.9,54.39L1714.21,47.24L1716.53,49.83L1718.84,54.44L1721.15,47.07L1723.47,52.35L1725.78,54.22L1728.1,53.64L1730.41,54.14L1732.72,48.96L1737.35,53.34L1739.66,61.44L1741.98,59.72L1744.29,52.37L1746.6,61L1748.92,50L1751.23,52.22L1753.54,56.82L1755.86,55.56L1758.17,57.04L1760.48,57.45L1762.8,56.23L1765.11,58.2L1767.42,56.2L1769.74,51.97L1772.05,60.43L1774.36,61.81L1776.68,46.07L1783.62,65.95L1785.93,61.79L1788.24,65.81L1790.56,57.87L1792.87,64.99L1795.18,58.5L1797.5,49.26L1799.81,55.26L1802.12,56.57L1804.44,60.39L1809.06,55.49L1811.38,56.35L1813.69,57.19L1816,49.99L1818.32,53.7L1820.63,45.29L1822.94,48.79L1825.26,47.7L1829.88,47.8L1832.2,51.32L1834.51,45.36L1836.82,53.35L1839.14,47.93L1841.45,55.63L1843.76,54.05L1846.08,57.71L1848.39,60.71L1850.7,59.42L1853.02,62.2L1855.33,60.17L1857.64,63.73L1859.96,61.42L1862.27,67.64L1864.58,64.69L1866.9,69.94L1869.21,68.88L1871.52,72.48L1873.84,73.72L1876.15,74.32L1878.46,81.37L1880.78,81.77L1883.09,93.32L1885.4,91.26L1887.72,102.6L1892.35,134.04L1894.66,158.7L1896.97,169.73L1899.29,188.53L1901.6,226.64L1903.91,325.66L1908.54,480.57L1910.85,554.36L1915.48,620.31L1917.79,666.7L1920.11,689.69L1922.42,691.18L1924.73,684.63L1927.05,712.51L1929.36,730.11L1931.67,725.11L1933.99,735.98L1936.3,732.93L1938.61,737.35L1940.93,729.36L1943.24,732.25L1945.55,743.84L1947.87,738.87L1950.18,741.5L1952.49,738.46L1954.81,740.3L1959.43,742.85L1961.75,742.25L1964.06,738.08L1966.37,742.55L1968.69,744.28L1971,743.67L1975.63,743.57L1977.94,747L1980.25,745.54L1982.57,738.87L1984.88,743.67L1987.19,739.45L1989.51,733.04L1991.82,736.79L1998.76,710.53L2001.07,691.69L2005.7,629.47L2008.01,581.08L2012.64,465.44L2014.95,320.19L2021.89,206.87L2024.21,168.55L2026.52,137.49L2028.83,121.55L2031.15,88.97L2033.46,79.11L2038.09,61.69L2040.4,59.54L2042.71,48.85L2045.03,55.77L2047.34,59.66L2049.65,53.33L2051.97,58.73L2054.28,46.53L2056.6,49.54L2058.91,55.3L2061.22,50.27L2063.54,60.79L2068.16,50.64L2070.48,57.57L2072.79,61.01L2075.1,56.38L2077.42,65.66L2079.73,54.46L2082.04,61.87L2084.36,64.1L2086.67,60.1L2088.98,60.52L2091.3,65.45L2093.61,63.34L2095.92,61.77L2098.24,69.81L2100.55,60.27L2102.86,60.33L2105.18,62L2107.49,60.84L2109.8,66.11L2112.12,62.48L2114.43,73.82L2116.74,73.34L2119.06,75.33L2121.37,83.1L2126,70.61L2128.31,78.14L2130.62,78.84L2132.94,92.35L2135.25,103.82L2137.56,107.4L2139.88,99.53L2142.19,105.66L2153.76,187.72L2156.07,194.2L2158.38,264.65L2160.7,291.92L2165.32,453.22L2167.64,531.54L2169.95,594.48L2172.26,607.29L2174.58,623.39L2176.89,669.86L2179.2,708.9L2181.52,716.37L2186.14,722.47L2188.46,739.71L2190.77,738.93L2193.08,744.32L2197.71,743.33L2200.02,745.33L2202.34,742.86L2204.65,743.1L2206.96,746.07L2209.28,746.62L2211.59,749.5L2213.9,747.81L2218.53,750.52L2220.85,750.13L2227.79,746.14L2230.1,747.6L2239.35,747.31L2241.67,748.04L2250.92,747.16L2253.23,747.94L2260.17,747.18L2262.49,747.39L2264.8,748.16L2267.11,747.56L2269.43,747.28L2271.74,744.27L2274.05,748.77L2276.37,749.11L2278.68,747.77L2280.99,749.17L2283.31,749.34L2285.62,744.81L2287.93,746.35L2290.25,746.07L2294.87,749.21L2297.19,749.69L2299.5,748.06L2301.81,748.76L2306.44,742.95L2308.75,745.77L2311.07,745.81L2313.38,747.62L2318.01,747.53L2320.32,745.74L2322.63,745.67L2324.95,748.28L2327.26,745.81L2329.57,746.67L2331.89,745.63L2334.2,747.46L2336.51,741.86L2338.83,742.91L2341.14,742.53L2343.45,743.79L2345.77,742.76L2348.08,743.65L2350.39,743.13L2352.71,741.26L2355.02,744.61L2357.33,743.71L2359.65,742.88L2361.96,744L2364.27,735.84L2366.59,745.1L2368.9,739.92L2371.21,740.52L2373.53,740.33L2375.84,744.67L2378.15,742.23L2380.47,742.19L2382.78,744.73L2385.1,740.44L2387.41,740.13L2389.72,741.24L2392.04,745.46L2394.35,741.87L2396.66,732.52L2398.98,749.97L2403.6,743.27L2405.92,743.73L2408.23,748.36L2410.54,746.42L2412.86,751.46L2415.17,746.59L2417.48,746.88L2419.8,751L2422.11,748.67L2424.42,750.56L2426.74,749.91L2429.05,746.16L2431.36,750.08L2433.68,738.73L2435.99,740.96L2438.3,750.86L2440.62,736.54L2442.93,744.84L2445.24,744.59L2447.56,747.71L2449.87,743.28L2452.18,732.73L2454.5,731.33L2456.81,722.82L2459.12,738.72L2461.44,741.21L2463.75,720.29L2466.06,737.49L2468.38,728.82L2470.69,712.71L2473,719.31L2475.32,715.75L2477.63,704.55L2479.94,699.53L2482.26,690.2L2484.57,686L2489.2,645.28L2491.51,615.38L2493.82,577.47L2496.14,504.14L2498.45,484.01L2500.76,336.5L2505.39,220.76L2507.7,195.05L2512.33,138.32L2514.64,128.22L2519.27,94.84L2521.58,90.89L2523.9,62.9L2526.21,79.16L2528.52,65.45L2530.84,67.45L2533.15,55.53L2535.46,66.57L2537.78,63.11L2540.09,57.1L2542.4,62.53L2544.72,56.41L2547.03,61.4L2549.35,58.69L2551.66,58.48L2553.97,56.34L2558.6,58.96L2560.91,54.36L2563.23,55.11L2565.54,48.43L2567.85,51.35L2570.17,50.08L2572.48,52.17L2574.79,49.24L2577.11,46.23L2579.42,60.58L2581.73,48.24L2584.05,47.75L2586.36,46.04L2588.67,52.69L2593.3,46.01L2595.61,54.54L2597.93,53.12L2600.24,48.42L2602.55,54.15L2604.87,53.52L2607.18,59.82L2609.49,56.94L2611.81,52.58L2614.12,57.39L2616.43,60.19L2618.75,56.95L2621.06,58.12L2623.37,63.96L2625.69,62.38L2628,57.47" style="vector-effect: non-scaling-stroke; fill: none; stroke: rgb(170, 0, 0); stroke-opacity: 1; stroke-width: 4px; opacity: 1;"/></g><g class="points"/><g class="text"/></g><g class="trace scatter trace1a4486" style="stroke-miterlimit: 2; opacity: 1;"><g class="fills"/><g class="errorbars"/><g class="lines"><path class="js-line" d="M0,55.44L2.31,55.58L4.63,65.02L6.94,60.82L9.25,67.72L13.88,53.5L16.19,67.69L18.51,57.01L20.82,53.09L23.13,60.81L25.45,56.43L27.76,54.76L30.07,64.69L32.39,56.61L34.7,55.01L37.01,63.15L39.33,57.01L41.64,55.52L43.95,61.57L46.27,57.49L48.58,55.94L50.89,60.16L53.21,57.48L55.52,56.08L57.83,58.08L62.46,60.16L64.77,66.93L67.09,53.06L69.4,53.95L74.03,60.25L76.34,54.43L78.65,55.21L80.97,61.16L83.28,56.49L85.6,55.3L87.91,56.82L90.22,60L92.54,59.74L94.85,66.91L97.16,52.78L99.48,53.47L101.79,56.04L104.1,60.32L106.42,54.27L108.73,54.26L111.04,61.5L113.36,56.39L115.67,54.81L117.98,58.56L122.61,55.03L124.92,58.69L129.55,55.44L131.86,58.66L136.49,56.05L138.8,57.15L141.12,58.82L143.43,57.15L145.74,62.62L148.06,55.84L150.37,59.52L152.68,65.71L157.31,54.72L159.62,54.5L161.94,57.22L164.25,51.28L166.56,47.03L168.88,55.38L171.19,55.37L173.5,50.32L175.82,56.62L178.13,54.47L182.76,57.63L185.07,54.11L187.38,58.88L189.7,56.3L192.01,54.85L194.32,59.44L196.64,57.43L198.95,65.46L201.26,61.27L203.58,62.45L205.89,64.43L208.2,69.15L210.52,66.09L212.83,57.79L217.46,75.01L219.77,73.65L222.08,76.7L224.4,92.4L226.71,89.6L229.02,92.8L231.34,86.94L233.65,94.81L235.96,124.4L238.28,138.46L240.59,157.84L242.9,167.75L245.22,169.99L247.53,228.72L249.85,253.03L252.16,414.46L261.41,612.91L263.73,618.26L268.35,672.63L270.67,688.31L272.98,692.14L275.29,686.48L277.61,702.33L279.92,730.08L282.23,722.83L284.55,736.23L286.86,726.93L289.17,742.14L291.49,734.63L293.8,736.86L296.11,743.5L298.43,732.85L300.74,748.71L303.05,735.96L307.68,746.61L309.99,741.02L312.31,742.36L314.62,738.82L316.93,747.5L319.25,745.04L321.56,744.81L323.87,742.47L326.19,740.1L328.5,746.31L333.13,746.15L335.44,747.76L337.75,753.88L340.07,750.11L344.69,741.1L347.01,743.94L349.32,747.86L351.63,749.1L353.95,745.95L356.26,753.28L360.89,748.19L363.2,748.17L365.51,745.82L367.83,745.73L370.14,747.82L372.45,745.11L374.77,745.2L377.08,747.47L379.39,744.48L381.71,744.74L384.02,747.13L386.33,743.95L388.65,744.39L390.96,746.76L393.27,743.51L395.59,744.15L397.9,746.37L400.21,743.17L404.84,745.94L407.15,742.94L409.47,744.25L411.78,742.94L414.1,746.06L416.41,742.55L418.72,743.47L421.04,740.74L423.35,745.74L425.66,744.93L430.29,741.11L432.6,742.21L434.92,740.41L437.23,742.44L439.54,742.1L441.86,738.84L444.17,740.93L446.48,731.31L448.8,737.05L451.11,738.14L453.42,734.31L455.74,738.29L458.05,725.13L460.36,722.27L462.68,730.34L464.99,719.08L467.3,718.66L469.62,689.09L471.93,698.81L474.24,698.56L478.87,630.02L481.18,620.32L485.81,576.09L488.12,510.44L490.44,378.63L492.75,312.49L497.38,225.59L499.69,202.98L504.32,144.77L506.63,129.49L508.94,117.26L511.26,112.35L513.57,87.63L515.88,73.79L518.2,65.46L520.51,67.76L522.82,72.54L525.14,62.05L527.45,70.26L529.76,58.99L532.08,49.38L534.39,60.16L536.7,59.12L539.02,60.68L541.33,50.9L543.64,60.63L545.96,58.26L548.27,52.7L550.58,60.91L552.9,60.04L557.52,52.98L559.84,66.51L562.15,48.03L564.46,54.7L566.78,59L569.09,60.74L571.4,62.28L573.72,57.99L578.35,56.48L580.66,51.32L582.97,53.16L585.29,61.96L587.6,53.65L589.91,52.62L592.23,62L594.54,54.57L596.85,50.82L599.17,60.25L601.48,53.54L603.79,51.12L606.11,60.51L608.42,52.82L610.73,51.27L613.05,61.93L617.67,54.95L619.99,66.42L622.3,53.42L624.61,59.39L626.93,54.09L629.24,53.95L631.55,51.64L633.87,61.92L638.49,53.06L640.81,58.8L643.12,58.05L645.43,56L647.75,61.82L650.06,57.97L652.37,59.6L654.69,59.47L657,56.29L659.31,60.07L661.63,54.67L663.94,57.85L666.25,59.59L668.57,63.37L670.88,59.86L673.19,59.49L675.51,64.58L677.82,60.36L680.13,61.06L682.45,63.94L684.76,63.42L687.07,64.45L689.39,66.24L691.7,65.52L694.01,69.54L696.33,63.5L698.64,68.59L700.95,70.32L703.27,65.76L705.58,73.03L710.21,77.19L712.52,69.23L714.83,67.29L717.15,90.93L719.46,81.77L721.77,78.22L724.09,92.4L726.4,81.5L728.71,82.22L731.03,90.48L733.34,92.14L735.65,69.33L737.97,70.29L740.28,82.37L742.6,71.37L744.91,70.21L747.22,65.52L749.54,56.3L751.85,52.03L754.16,57.25L758.79,44.09L761.1,51.48L763.42,63.82L765.73,51.93L768.04,43.41L770.36,60.32L772.67,77.31L774.98,68.63L779.61,59.23L781.92,59.86L786.55,57.41L788.86,63.25L791.18,59.17L793.49,60.76L798.12,52.84L800.43,50.54L802.74,60.02L805.06,57.96L807.37,53.04L809.68,51.38L812,48.12L814.31,52.44L816.62,53.51L818.94,52.03L821.25,57.55L823.56,55.93L825.88,55.49L828.19,52.89L832.82,57.82L835.13,50.46L837.44,53.94L839.76,52.18L842.07,54.9L844.38,54.57L846.7,59.65L849.01,57.88L851.32,53.84L853.64,62.61L855.95,51.35L858.26,53.71L860.58,56.71L862.89,65.91L867.52,55.05L869.83,54.41L872.14,64.32L874.46,61.76L879.08,47.72L881.4,60.89L886.02,76.09L888.34,61.24L890.65,68.58L892.96,66.52L895.28,68.87L897.59,54.71L899.9,74.75L902.22,59.08L904.53,61.23L906.85,54.99L909.16,57.36L911.47,66.99L913.79,60.02L916.1,61.02L918.41,63.17L920.73,57.65L923.04,54L925.35,53.45L927.67,52.69L929.98,58.56L932.29,55.02L934.61,53.59L936.92,54.47L939.23,57.19L941.55,58.5L943.86,54.17L946.17,54.6L948.49,52L950.8,63.42L953.11,60.65L955.43,58.76L957.74,64.93L960.05,62.9L962.37,53.12L964.68,60.17L966.99,61.01L969.31,52.27L971.62,52.93L973.93,57.88L976.25,58.4L980.87,53.66L983.19,58.81L985.5,55.36L987.81,55.87L990.13,42.32L992.44,59.76L997.07,52.7L999.38,61.33L1001.69,60.47L1004.01,54.75L1006.32,58.93L1008.63,55.26L1010.95,60.28L1013.26,55.11L1015.57,57.43L1017.89,54.85L1020.2,43.93L1022.51,59.11L1024.83,56.7L1027.14,56.02L1029.45,70.05L1031.77,59.44L1036.39,62.61L1038.71,62.02L1043.33,58.49L1045.65,59.88L1047.96,59.72L1050.27,67.99L1052.59,61.52L1054.9,71.12L1057.21,76.51L1059.53,72.65L1061.84,71.53L1064.15,72.92L1066.47,93.99L1068.78,84.63L1071.1,101.99L1073.41,109.89L1075.72,133.17L1078.04,144.94L1084.98,265.39L1087.29,276.67L1091.92,477.45L1094.23,531.38L1096.54,557.21L1098.86,619.18L1101.17,679.15L1103.48,691.45L1105.8,701.4L1108.11,706.58L1110.42,732.76L1112.74,737.67L1115.05,743.34L1117.36,743.31L1121.99,745.7L1124.3,739.72L1128.93,746.61L1131.24,745.72L1135.87,746.98L1138.18,748.33L1140.5,748.17L1142.81,742.16L1149.75,748.45L1152.06,747.77L1154.38,745.24L1156.69,745.6L1161.32,746.59L1163.63,740.06L1165.94,744.18L1168.26,745.58L1172.88,749.24L1175.2,739.57L1184.45,749.15L1186.76,740.6L1189.08,740.64L1191.39,745.31L1193.7,746.47L1196.02,749.25L1198.33,737.07L1200.64,743.06L1207.58,748.7L1209.9,736.64L1212.21,747.42L1214.52,744.82L1219.15,747.55L1221.46,745.72L1223.78,746.79L1226.09,743.56L1228.4,743L1230.72,746.24L1233.03,741.28L1235.35,741.53L1237.66,745.73L1239.97,741.89L1242.29,746.15L1244.6,743.16L1246.91,737.08L1249.23,737.3L1253.85,744.86L1256.17,745.05L1258.48,741.5L1260.79,742.85L1263.11,738.89L1265.42,745.26L1267.73,744.56L1270.05,735.23L1272.36,746.22L1274.67,742.44L1276.99,746.13L1279.3,743.27L1281.61,736.91L1283.93,755.95L1286.24,733.18L1288.55,743.13L1290.87,743.26L1293.18,745.32L1295.49,731.3L1297.81,739.89L1300.12,738.74L1302.43,746.43L1304.75,745.19L1307.06,734.58L1309.37,754.7L1311.69,729.92L1314,739.51L1316.31,741.82L1318.63,745.79L1320.94,735.17L1323.25,745.99L1325.57,746.77L1327.88,743.43L1330.19,745.83L1332.51,736.67L1334.82,740.81L1337.13,740.84L1339.45,742.27L1341.76,745.39L1344.07,744.19L1346.39,740.57L1348.7,739.53L1351.01,750.65L1353.33,740.38L1355.64,746.53L1357.95,744.26L1360.27,745.34L1362.58,735.25L1364.89,743.16L1367.21,742.74L1369.52,746.93L1371.83,744.65L1374.15,743.34L1376.46,752.78L1378.77,741.11L1381.09,745.17L1383.4,746.5L1385.71,745.5L1388.03,740.99L1390.34,745.1L1392.65,742.27L1394.97,745.95L1399.6,746.14L1401.91,741.35L1404.22,749.36L1406.54,745.56L1408.85,743.12L1411.16,745.32L1413.48,745.28L1415.79,742.37L1418.1,741.16L1420.42,741.41L1422.73,747.35L1425.04,743.16L1427.36,742.63L1429.67,739.23L1431.98,740.38L1434.3,739.95L1436.61,734.96L1438.92,748.66L1441.24,744.52L1443.55,744.54L1445.86,739.33L1448.18,742.88L1450.49,741.68L1452.8,733.72L1455.12,747.6L1457.43,744.7L1459.74,746.2L1462.06,740.29L1464.37,744.05L1466.68,740.37L1469,738.77L1471.31,742.41L1473.62,745.72L1475.94,746.46L1478.25,742.69L1480.56,742.35L1482.88,737.19L1485.19,750.53L1487.5,739.47L1489.82,743.94L1492.13,746.21L1494.44,745.17L1496.76,746.64L1499.07,738.63L1503.7,717.98L1506.01,725.9L1508.32,729.82L1510.64,730.9L1512.95,724.2L1515.26,744.01L1517.58,641.13L1519.89,629.24L1524.52,561.24L1526.83,521.71L1529.14,450.19L1531.46,347.35L1536.08,182.4L1538.4,159.69L1540.71,115.34L1543.02,115.01L1545.34,109.94L1547.65,107.31L1552.28,56.28L1554.59,57.74L1556.9,66.94L1559.22,66.62L1561.53,47.07L1563.85,53.41L1566.16,66.44L1568.47,48.4L1570.79,60.08L1573.1,58.44L1575.41,62.77L1577.73,64.5L1580.04,62.29L1582.35,57.64L1584.67,71.97L1586.98,65.67L1589.29,68.49L1591.61,63.48L1593.92,59.14L1596.23,62.14L1598.55,64.38L1600.86,71.06L1603.17,42.6L1605.49,63.2L1607.8,72.48L1610.11,66.99L1612.43,63.98L1614.74,65.24L1617.05,59.56L1619.37,58.21L1621.68,52.52L1623.99,59.75L1626.31,63.9L1628.62,58.69L1630.93,64.71L1633.25,67.55L1635.56,69.67L1637.87,46.59L1640.19,64.74L1642.5,64.6L1644.81,59.23L1647.13,59.83L1649.44,67.47L1651.75,64.31L1654.07,52.07L1656.38,77.46L1658.69,66.45L1661.01,64.2L1665.63,68.16L1667.95,55.53L1672.57,56.75L1674.89,67.61L1677.2,60.34L1679.51,58.88L1681.83,58.16L1684.14,73.05L1688.77,59.3L1691.08,62.69L1693.39,46.89L1695.71,62.26L1698.02,69.37L1700.33,67.44L1704.96,57.64L1707.27,58.62L1709.59,59.34L1711.9,71.38L1714.21,56.25L1716.53,53.74L1718.84,57.19L1721.15,57.35L1723.47,63.65L1725.78,60.26L1728.1,55.16L1730.41,56.54L1732.72,56.39L1735.04,58.11L1737.35,55.02L1739.66,61.45L1741.98,54.18L1744.29,60.46L1746.6,64.99L1748.92,60.39L1751.23,56.48L1753.54,57.7L1755.86,56.36L1758.17,56.71L1760.48,66.67L1762.8,56.24L1765.11,59.38L1767.42,64.23L1769.74,62.58L1772.05,58.49L1774.36,55.14L1776.68,62.23L1778.99,59.24L1781.3,61L1783.62,63.18L1785.93,55.9L1788.24,53.45L1790.56,60.4L1792.87,50.32L1795.18,54.57L1797.5,57.75L1799.81,53.32L1804.44,60.02L1806.75,60.34L1809.06,59.12L1811.38,56.49L1818.32,61.71L1820.63,54.82L1822.94,55.76L1825.26,58.66L1827.57,54.53L1829.88,56.72L1832.2,61.67L1834.51,55.49L1839.14,58.54L1841.45,58.39L1843.76,69.24L1846.08,62.08L1850.7,59.19L1853.02,59.68L1855.33,58.66L1857.64,59.85L1859.96,57.19L1862.27,61.91L1864.58,56.97L1866.9,65.87L1869.21,59.19L1871.52,62.8L1873.84,63.75L1876.15,72.32L1878.46,69.32L1880.78,68.16L1883.09,82.71L1885.4,59.2L1887.72,87.29L1890.03,99.41L1894.66,130.36L1896.97,137.17L1899.29,155.8L1901.6,223.08L1903.91,273.05L1906.23,354.67L1908.54,480.16L1910.85,494.48L1913.17,534.13L1915.48,629.76L1920.11,660.99L1922.42,684.32L1924.73,729.36L1927.05,733.99L1933.99,731.32L1936.3,733.93L1940.93,745.15L1943.24,746.83L1947.87,747.9L1950.18,747.2L1952.49,744.18L1954.81,748.41L1957.12,749.6L1959.43,734.61L1961.75,744.06L1964.06,745.29L1966.37,745.16L1968.69,743.8L1971,743.98L1973.31,747.18L1975.63,744.76L1977.94,735.75L1980.25,734.56L1982.57,735.75L1984.88,732.23L1987.19,731.15L1989.51,740.87L1991.82,720.36L1994.13,721.69L1996.45,725.19L2001.07,696.11L2003.39,670.65L2005.7,634.96L2008.01,643.81L2010.33,573.9L2012.64,545.51L2014.95,355.88L2017.27,264.35L2019.58,152.37L2021.89,149.03L2024.21,187.99L2026.52,127.48L2028.83,146.85L2031.15,122.08L2033.46,95.27L2035.77,81.98L2038.09,82.24L2040.4,68.32L2042.71,73.72L2045.03,60.55L2047.34,65.23L2049.65,57.81L2051.97,58.94L2054.28,49.93L2056.6,56.01L2058.91,48.23L2061.22,56.38L2063.54,55.77L2065.85,50.27L2068.16,50.81L2070.48,59.2L2072.79,56.55L2075.1,49.42L2077.42,52.54L2079.73,62.66L2082.04,58.62L2084.36,50.72L2086.67,60.5L2088.98,62.9L2091.3,59.21L2093.61,58.09L2095.92,59.02L2100.55,67.41L2102.86,67.04L2105.18,60.91L2107.49,60.22L2109.8,61.54L2112.12,65.71L2114.43,62L2116.74,64.85L2119.06,66.99L2121.37,65.28L2123.68,75.79L2126,75.45L2128.31,76.01L2130.62,85.84L2132.94,81.93L2135.25,93.18L2137.56,103.8L2139.88,102.91L2142.19,113.51L2144.5,141.4L2146.82,145L2149.13,155.05L2151.44,168.76L2153.76,190.18L2156.07,196.18L2158.38,231.65L2160.7,286.61L2163.01,428.1L2165.32,490.86L2167.64,524.68L2172.26,627.37L2174.58,636.24L2179.2,711.31L2181.52,723.42L2183.83,730.57L2186.14,732.09L2188.46,738.43L2190.77,749.95L2193.08,743.85L2195.4,745.27L2197.71,751.03L2200.02,746.96L2202.34,741.83L2204.65,756.2L2206.96,748.59L2209.28,745.93L2211.59,751.07L2213.9,750.59L2216.22,751.64L2218.53,746.21L2220.85,745.11L2223.16,750.35L2227.79,746.95L2230.1,749.97L2234.73,751.61L2237.04,745.1L2239.35,745.06L2241.67,747.9L2243.98,748L2246.29,747.07L2248.61,742.65L2250.92,742.38L2253.23,754.97L2255.55,749.99L2260.17,742.62L2262.49,742.42L2264.8,755.32L2267.11,749.76L2271.74,742.95L2274.05,742.66L2276.37,755.69L2278.68,749.25L2283.31,743.57L2285.62,743.05L2287.93,755.53L2290.25,748.24L2294.87,744.25L2297.19,743.49L2299.5,754.01L2301.81,746.53L2304.13,745.17L2306.44,750.11L2311.07,748.85L2313.38,745.55L2315.69,744.68L2318.01,741.67L2320.32,747.42L2322.63,740.08L2324.95,747.46L2327.26,746.63L2331.89,743.44L2334.2,741.44L2336.51,738.68L2338.83,742.38L2341.14,743.12L2343.45,741.68L2345.77,741.69L2348.08,738.68L2350.39,739.27L2352.71,746.05L2357.33,741.99L2359.65,743.44L2361.96,741.93L2364.27,734.27L2368.9,744.84L2371.21,742.06L2373.53,744.26L2375.84,744.98L2378.15,744.79L2380.47,733.11L2382.78,742.42L2385.1,742.47L2392.04,742.83L2394.35,743.85L2398.98,743.22L2401.29,744.09L2403.6,746.23L2405.92,746.01L2408.23,749.04L2410.54,740.79L2412.86,748.65L2415.17,734.91L2417.48,746.93L2419.8,744.48L2422.11,746.7L2424.42,746.2L2426.74,749.55L2429.05,746.09L2431.36,743.28L2433.68,746.6L2435.99,734.04L2438.3,744.76L2440.62,728.86L2442.93,738.23L2445.24,745.01L2447.56,748.66L2449.87,733.85L2452.18,734.46L2454.5,734.3L2456.81,741.46L2459.12,739.91L2461.44,730.44L2463.75,724.17L2466.06,729.29L2468.38,732.1L2470.69,728.46L2473,723.64L2475.32,710.42L2477.63,719L2479.94,716.1L2482.26,706.41L2484.57,687.07L2489.2,637.6L2491.51,629.51L2493.82,616.77L2496.14,551.92L2498.45,485.61L2500.76,373.46L2505.39,237.8L2507.7,169.45L2510.02,151.13L2512.33,151.18L2514.64,132.65L2516.96,100.1L2519.27,80.74L2521.58,77.98L2526.21,85.34L2528.52,74.84L2530.84,62.64L2533.15,72.13L2535.46,59.7L2537.78,60.45L2540.09,61.32L2542.4,64.45L2544.72,60L2547.03,58.23L2549.35,57.06L2551.66,58.2L2553.97,55.9L2556.29,56.32L2558.6,56.33L2560.91,53.28L2563.23,57.51L2565.54,55.25L2567.85,48.22L2570.17,54.54L2572.48,44.97L2574.79,53.89L2577.11,45.95L2579.42,52.53L2581.73,45.49L2584.05,51.43L2586.36,57.17L2588.67,53.44L2590.99,57.58L2593.3,47.64L2597.93,51.61L2600.24,49.94L2602.55,53.91L2604.87,53.13L2607.18,58.97L2609.49,57.02L2611.81,62.44L2614.12,53.98L2616.43,57.86L2618.75,52.07L2621.06,56.74L2623.37,58.48L2625.69,54.11L2628,64.4" style="vector-effect: non-scaling-stroke; fill: none; stroke: rgb(0, 170, 0); stroke-opacity: 1; stroke-width: 4px; opacity: 1;"/></g><g class="points"/><g class="text"/></g></g></g><g class="overplot"/><path class="xlines-above crisp" d="M0,0" style="fill: none;"/><path class="ylines-above crisp" d="M0,0" style="fill: none;"/><g class="overlines-above"/><g class="xaxislayer-above"><g class="xtick"><text text-anchor="middle" x="0" y="934" transform="translate(113,0)" style="font-family: 'Open Sans', verdana, arial, sans-serif; font-size: 37px; fill: rgb(42, 63, 95); fill-opacity: 1; white-space: pre; opacity: 1;">0</text></g><g class="xtick"><text text-anchor="middle" x="0" y="934" style="font-family: 'Open Sans', verdana, arial, sans-serif; font-size: 37px; fill: rgb(42, 63, 95); fill-opacity: 1; white-space: pre; opacity: 1;" transform="translate(575.6800000000001,0)">200</text></g><g class="xtick"><text text-anchor="middle" x="0" y="934" style="font-family: 'Open Sans', verdana, arial, sans-serif; font-size: 37px; fill: rgb(42, 63, 95); fill-opacity: 1; white-space: pre; opacity: 1;" transform="translate(1038.35,0)">400</text></g><g class="xtick"><text text-anchor="middle" x="0" y="934" style="font-family: 'Open Sans', verdana, arial, sans-serif; font-size: 37px; fill: rgb(42, 63, 95); fill-opacity: 1; white-space: pre; opacity: 1;" transform="translate(1501.03,0)">600</text></g><g class="xtick"><text text-anchor="middle" x="0" y="934" style="font-family: 'Open Sans', verdana, arial, sans-serif; font-size: 37px; fill: rgb(42, 63, 95); fill-opacity: 1; white-space: pre; opacity: 1;" transform="translate(1963.7,0)">800</text></g><g class="xtick"><text text-anchor="middle" x="0" y="934" style="font-family: 'Open Sans', verdana, arial, sans-serif; font-size: 37px; fill: rgb(42, 63, 95); fill-opacity: 1; white-space: pre; opacity: 1;" transform="translate(2426.38,0)">1000</text></g></g><g class="yaxislayer-above"><g class="ytick"><text text-anchor="end" x="112" y="12.95" transform="translate(0,725.25)" style="font-family: 'Open Sans', verdana, arial, sans-serif; font-size: 37px; fill: rgb(42, 63, 95); fill-opacity: 1; white-space: pre; opacity: 1;">−5</text></g><g class="ytick"><text text-anchor="end" x="112" y="12.95" style="font-family: 'Open Sans', verdana, arial, sans-serif; font-size: 37px; fill: rgb(42, 63, 95); fill-opacity: 1; white-space: pre; opacity: 1;" transform="translate(0,543.5899999999999)">0</text></g><g class="ytick"><text text-anchor="end" x="112" y="12.95" style="font-family: 'Open Sans', verdana, arial, sans-serif; font-size: 37px; fill: rgb(42, 63, 95); fill-opacity: 1; white-space: pre; opacity: 1;" transform="translate(0,361.94)">5</text></g><g class="ytick"><text text-anchor="end" x="112" y="12.95" style="font-family: 'Open Sans', verdana, arial, sans-serif; font-size: 37px; fill: rgb(42, 63, 95); fill-opacity: 1; white-space: pre; opacity: 1;" transform="translate(0,180.29000000000002)">10</text></g></g><g class="overaxes-above"/></g></g><g class="polarlayer"/><g class="ternarylayer"/><g class="geolayer"/><g class="funnelarealayer"/><g class="pielayer"/><g class="iciclelayer"/><g class="treemaplayer"/><g class="sunburstlayer"/><g class="glimages"/><defs id="topdefs-67c780"><g class="clips"/><clipPath id="legend67c780"><rect width="694" height="113" x="0" y="0"/></clipPath></defs><g class="layer-above"><g class="imagelayer"/><g class="shapelayer"/></g><g class="infolayer"><g class="legend" pointer-events="all" transform="translate(2793.56,100)"><rect class="bg" shape-rendering="crispEdges" width="694" height="113" x="0" y="0" style="stroke: rgb(68, 68, 68); stroke-opacity: 1; fill: rgb(255, 255, 255); fill-opacity: 1; stroke-width: 0px;"/><g class="scrollbox" transform="" clip-path="url(#legend67c780)"><g class="groups"><g class="traces" transform="translate(0,30.55)" style="opacity: 1;"><text class="legendtext" text-anchor="start" x="40" y="14.43" style="font-family: 'Open Sans', verdana, arial, sans-serif; font-size: 37px; fill: rgb(42, 63, 95); fill-opacity: 1; white-space: pre;">Predicted Curvature at Anchors #1</text><g class="layers" style="opacity: 1;"><g class="legendfill"/><g class="legendlines"><path class="js-line" d="M5,0h30" style="fill: none; stroke: rgb(170, 0, 0); stroke-opacity: 1; stroke-width: 4px;"/></g><g class="legendsymbols"><g class="legendpoints"/></g></g><rect class="legendtoggle" x="0" y="-25.55" width="688.125" height="51.1" style="fill: rgb(0, 0, 0); fill-opacity: 0;"/></g><g class="traces" transform="translate(0,81.65)" style="opacity: 1;"><text class="legendtext" text-anchor="start" x="40" y="14.43" style="font-family: 'Open Sans', verdana, arial, sans-serif; font-size: 37px; fill: rgb(42, 63, 95); fill-opacity: 1; white-space: pre;">Predicted Curvature at Anchors #2</text><g class="layers" style="opacity: 1;"><g class="legendfill"/><g class="legendlines"><path class="js-line" d="M5,0h30" style="fill: none; stroke: rgb(0, 170, 0); stroke-opacity: 1; stroke-width: 4px;"/></g><g class="legendsymbols"><g class="legendpoints"/></g></g><rect class="legendtoggle" x="0" y="-25.55" width="688.125" height="51.1" style="fill: rgb(0, 0, 0); fill-opacity: 0;"/></g></g></g><rect class="scrollbar" rx="20" ry="3" width="0" height="0" x="0" y="0" style="fill: rgb(128, 139, 164); fill-opacity: 1;"/></g><g class="g-gtitle"/><g class="g-xtitle"><text class="xtitle" x="1427" y="987.8" text-anchor="middle" style="font-family: 'Open Sans', verdana, arial, sans-serif; font-size: 44px; fill: rgb(42, 63, 95); opacity: 1; font-weight: normal; white-space: pre;">Anchor Point Index</text></g><g class="g-ytitle" transform="translate(31.6123046875,0)"><text class="ytitle" transform="rotate(-90,12.387500000000003,498)" x="12.387500000000003" y="498" text-anchor="middle" style="font-family: 'Open Sans', verdana, arial, sans-serif; font-size: 44px; fill: rgb(42, 63, 95); opacity: 1; font-weight: normal; white-space: pre;">Predicted Curvature</text></g><g class="annotation" data-index="0" style="opacity: 1;"><g class="annotation-text-g" transform="rotate(0,1427,66.49999999999993)"><g class="cursor-pointer" transform="translate(210,33)"><rect class="bg" x="0.5" y="0.5" width="2433" height="66" style="stroke-width: 1px; stroke: rgb(0, 0, 0); stroke-opacity: 0; fill: rgb(0, 0, 0); fill-opacity: 0;"/><text class="annotation-text" text-anchor="middle" x="1217.03125" y="54" style="font-family: 'Open Sans', verdana, arial, sans-serif; font-size: 52px; fill: rgb(42, 63, 95); fill-opacity: 1; white-space: pre;"><tspan style="font-weight:bold">Predicted Curvature at Anchors (Transformed Curve #1 vs. Transformed Curve #2)</tspan></text></g></g></g></g></svg>