<svg class="main-svg" xmlns="http://www.w3.org/2000/svg" xmlns:xlink="http://www.w3.org/1999/xlink" width="3500" height="1000" style="" viewBox="0 0 3500 1000"><rect x="0" y="0" width="3500" height="1000" style="fill: rgb(255, 255, 255); fill-opacity: 1;"/><defs id="defs-c5488d"><g class="clips"><clipPath id="clipc5488dxyplot" class="plotclip"><rect width="2606" height="796"/></clipPath><clipPath class="axesclip" id="clipc5488dx"><rect x="136" y="0" width="2606" height="1000"/></clipPath><clipPath class="axesclip" id="clipc5488dy"><rect x="0" y="100" width="3500" height="796"/></clipPath><clipPath class="axesclip" id="clipc5488dxy"><rect x="136" y="100" width="2606" height="796"/></clipPath></g><g class="gradients"/><g class="patterns"/></defs><g class="bglayer"><rect class="bg" x="136" y="100" width="2606" height="796" style="fill: rgb(229, 236, 246); fill-opacity: 1; stroke-width: 0;"/></g><g class="layer-below"><g class="imagelayer"/><g class="shapelayer"/></g><g class="cartesianlayer"><g class="subplot xy"><g class="layer-subplot"><g class="shapelayer"/><g class="imagelayer"/></g><g class="gridlayer"><g class="x"><path class="xgrid crisp" transform="translate(443.31,0)" d="M0,100v796" style="stroke: rgb(255, 255, 255); stroke-opacity: 1; stroke-width: 1px;"/><path class="xgrid crisp" transform="translate(750.62,0)" d="M0,100v796" style="stroke: rgb(255, 255, 255); stroke-opacity: 1; stroke-width: 1px;"/><path class="xgrid crisp" transform="translate(1057.9299999999998,0)" d="M0,100v796" style="stroke: rgb(255, 255, 255); stroke-opacity: 1; stroke-width: 1px;"/><path class="xgrid crisp" transform="translate(1365.25,0)" d="M0,100v796" style="stroke: rgb(255, 255, 255); stroke-opacity: 1; stroke-width: 1px;"/><path class="xgrid crisp" transform="translate(1672.56,0)" d="M0,100v796" style="stroke: rgb(255, 255, 255); stroke-opacity: 1; stroke-width: 1px;"/><path class="xgrid crisp" transform="translate(1979.87,0)" d="M0,100v796" style="stroke: rgb(255, 255, 255); stroke-opacity: 1; stroke-width: 1px;"/><path class="xgrid crisp" transform="translate(2287.18,0)" d="M0,100v796" style="stroke: rgb(255, 255, 255); stroke-opacity: 1; stroke-width: 1px;"/><path class="xgrid crisp" transform="translate(2594.49,0)" d="M0,100v796" style="stroke: rgb(255, 255, 255); stroke-opacity: 1; stroke-width: 1px;"/></g><g class="y"><path class="ygrid crisp" transform="translate(0,826.18)" d="M136,0h2606" style="stroke: rgb(255, 255, 255); stroke-opacity: 1; stroke-width: 1px;"/><path class="ygrid crisp" transform="translate(0,721.42)" d="M136,0h2606" style="stroke: rgb(255, 255, 255); stroke-opacity: 1; stroke-width: 1px;"/><path class="ygrid crisp" transform="translate(0,616.66)" d="M136,0h2606" style="stroke: rgb(255, 255, 255); stroke-opacity: 1; stroke-width: 1px;"/><path class="ygrid crisp" transform="translate(0,407.14)" d="M136,0h2606" style="stroke: rgb(255, 255, 255); stroke-opacity: 1; stroke-width: 1px;"/><path class="ygrid crisp" transform="translate(0,302.38)" d="M136,0h2606" style="stroke: rgb(255, 255, 255); stroke-opacity: 1; stroke-width: 1px;"/><path class="ygrid crisp" transform="translate(0,197.62)" d="M136,0h2606" style="stroke: rgb(255, 255, 255); stroke-opacity: 1; stroke-width: 1px;"/></g></g><g class="zerolinelayer"><path class="xzl zl crisp" transform="translate(136,0)" d="M0,100v796" style="stroke: rgb(255, 255, 255); stroke-opacity: 1; stroke-width: 2px;"/><path class="yzl zl crisp" transform="translate(0,511.9)" d="M136,0h2606" style="stroke: rgb(255, 255, 255); stroke-opacity: 1; stroke-width: 2px;"/></g><path class="xlines-below"/><path class="ylines-below"/><g class="overlines-below"/><g class="xaxislayer-below"/><g class="yaxislayer-below"/><g class="overaxes-below"/><g class="plot" transform="translate(136,100)" clip-path="url(#clipc5488dxyplot)"><g class="scatterlayer mlayer"><g class="trace scatter traceebd9fa" style="stroke-miterlimit: 2; opacity: 1;"><g class="fills"/><g class="errorbars"/><g class="lines"><path class="js-line" d="M0,701.2L3.07,695.98L6.15,701.31L9.22,713.52L12.29,711.88L15.37,703.84L18.44,706.57L21.51,714.62L24.58,708.56L27.66,713.66L30.73,714.89L33.8,718.26L36.88,726.09L39.95,730.28L43.02,729.81L46.1,733.2L49.17,733.25L55.32,732.14L58.39,733.77L61.46,734.84L64.54,737.22L67.61,738.62L70.68,743.69L73.75,734.6L76.83,736.14L82.97,740.82L86.05,740.42L89.12,736.43L92.19,741.62L95.27,736.46L98.34,739.33L101.41,741.58L104.49,745.93L107.56,748.9L110.63,742.07L113.71,740.39L116.78,741.67L119.85,744.26L122.92,744.97L126,740.5L129.07,747.38L132.14,744.17L135.22,743.24L138.29,747.09L141.36,748.52L144.44,752.18L147.51,750.64L150.58,749.91L153.66,751.18L156.73,752.8L159.8,753.05L162.88,750.82L165.95,721.31L175.17,647.12L178.24,610.45L193.61,327.59L196.68,283.97L202.83,217.85L205.9,203.29L212.04,159.41L215.12,148.46L224.34,105.45L227.41,105.47L230.48,98.19L233.56,94.81L236.63,86.28L239.7,87.17L242.78,65.91L245.85,66.54L248.92,60.78L252,64.4L255.07,49.62L258.14,60.93L261.21,71.21L264.29,66.26L267.36,67.79L270.43,57.78L273.51,42.21L276.58,44.08L279.65,49.98L282.73,48.48L285.8,49.09L288.87,62.03L291.95,51L295.02,48.45L298.09,44.36L301.17,45.51L304.24,47.61L307.31,46.19L310.38,44.8L313.46,48.46L316.53,54.22L319.6,51.76L325.75,65.29L328.82,64.25L334.97,72.14L338.04,79.55L341.12,78.87L344.19,89.76L347.26,92.81L350.33,81.79L353.41,98.98L356.48,94.21L359.55,109.9L362.63,112.14L365.7,116.14L368.77,123.15L371.85,107.76L374.92,123.31L377.99,120.52L381.07,129.4L384.14,139.82L387.21,136.77L390.29,145.66L393.36,144.95L399.5,159.51L402.58,166.88L414.87,244.87L417.94,281.86L421.02,310.59L424.09,362.53L433.31,467.2L436.38,498.9L445.6,575.25L448.67,578.6L451.75,602.91L454.82,604.36L457.89,605.61L460.97,629.36L464.04,629.6L467.11,625.85L470.19,640.79L473.26,647.83L476.33,636.51L479.41,649.37L485.55,660.5L488.63,654.67L491.7,657.19L494.77,672.72L497.84,666.43L500.92,675.76L503.99,680.28L507.06,686.77L510.14,670.27L513.21,682.49L516.28,689.28L519.36,680.99L522.43,692.46L525.5,696.86L528.58,681.85L531.65,691.76L534.72,699.77L537.79,694.91L540.87,702.06L543.94,702.23L547.01,700.06L550.09,705.82L553.16,709.28L556.23,709.07L559.31,716.02L562.38,714.59L565.45,723.7L568.53,723.6L571.6,716.26L574.67,716.06L577.75,719.85L580.82,726L583.89,724.13L586.96,726.5L590.04,729.49L593.11,734.7L596.18,732.06L599.26,734.91L608.48,744.52L611.55,742.79L614.62,742.8L617.7,745.34L620.77,745.01L623.84,747.17L626.92,749.96L629.99,750.45L633.06,752.02L636.13,750.43L639.21,752.35L642.28,748.18L645.35,746.3L648.43,749.5L654.57,749.49L657.65,751.87L660.72,753.23L663.79,752.71L666.87,750.96L669.94,755.57L673.01,750.81L676.08,749.04L679.16,752.53L682.23,744.99L685.3,731.21L688.38,709.55L691.45,720.68L694.52,697.3L703.74,592.98L706.82,547.47L725.25,223.61L728.33,185.58L734.47,132.73L737.55,115.88L743.69,94.83L746.77,88.46L752.91,80.44L755.99,77.92L762.13,74.59L765.21,73.47L768.28,72.55L771.35,89.47L774.42,86.74L777.5,63.58L780.57,72.21L783.64,97.85L786.72,83.75L789.79,90L792.86,76.14L795.94,91.47L799.01,94.03L802.08,106.07L808.23,73.23L811.3,48.43L814.38,58.25L817.45,44.99L823.59,46.6L826.67,44.79L829.74,42.18L832.81,49L835.89,40.58L838.96,43.64L842.03,46.87L845.11,43.36L848.18,50.88L851.25,49.68L854.33,54.78L857.4,57.34L860.47,55.71L863.54,61.71L869.69,73.7L872.76,74.2L878.91,85.2L881.98,83.93L885.06,97.07L888.13,87.35L891.2,105.36L894.28,114.96L897.35,111.24L900.42,121.19L903.5,113.18L906.57,129.94L909.64,146.49L912.71,143.97L915.79,147.03L918.86,153.58L921.93,160.33L925.01,178.82L928.08,193.79L931.15,199.42L937.3,230.39L940.37,271.9L949.59,389.95L952.67,430.34L958.81,505.01L961.88,534.91L964.96,560.55L968.03,570.78L971.1,601.13L974.18,604.77L977.25,630.97L980.32,625.88L986.47,649.5L989.54,640.61L992.62,654.27L995.69,653.52L998.76,665.42L1001.83,658.08L1004.91,666.51L1007.98,660.86L1011.05,665.74L1014.13,673.95L1017.2,666.68L1020.27,664.35L1023.35,658.24L1026.42,672.25L1029.49,668.23L1032.57,654.91L1035.64,669.35L1038.71,666.09L1041.79,660.86L1044.86,674.14L1047.93,676.03L1051,662.08L1057.15,678.52L1060.22,668.08L1063.3,670.56L1066.37,681.31L1069.44,688.69L1072.52,687.16L1075.59,686.92L1078.66,688.74L1081.74,691.49L1084.81,690.66L1090.96,699.3L1094.03,707.24L1097.1,706.12L1100.17,711.78L1103.25,704.43L1106.32,707.81L1109.39,713.57L1112.47,717.06L1115.54,715.87L1118.61,719.24L1121.69,718.24L1124.76,715.72L1127.83,721.99L1130.91,724.94L1137.05,737.09L1140.13,736.62L1143.2,729.26L1146.27,732.96L1149.34,734.18L1152.42,739.13L1155.49,733.18L1158.56,733.57L1161.64,734.6L1164.71,734.14L1167.78,735.66L1170.86,739.94L1173.93,741.37L1177,741.62L1186.22,740.52L1189.29,732.54L1192.37,737.55L1195.44,729.75L1198.51,731.4L1201.59,736.67L1204.66,729.74L1207.73,730.46L1210.81,735.49L1213.88,723.46L1220.03,730.08L1223.1,729.93L1226.17,728.41L1229.25,731.64L1232.32,731.66L1235.39,726.26L1238.46,736.1L1241.54,728.25L1244.61,735.47L1247.68,735.03L1250.76,731.77L1253.83,739.3L1256.9,737.89L1259.98,739.07L1263.05,741.4L1266.12,740.1L1269.2,743.28L1272.27,744.62L1275.34,743.14L1278.42,747.2L1281.49,746.9L1284.56,750.81L1287.63,747.18L1290.71,747.99L1293.78,750.54L1296.85,749.72L1303,752L1306.07,755.06L1312.22,750.23L1315.29,753.72L1321.44,750.89L1324.51,752.01L1327.58,754.98L1330.66,751.74L1333.73,742.88L1336.8,745.47L1339.88,739.12L1342.95,723.12L1346.02,722.43L1349.1,725.04L1355.24,674.8L1358.32,681.2L1361.39,671.81L1364.46,655.47L1367.54,658.02L1370.61,653.85L1373.68,631.3L1376.75,636.7L1382.9,652.67L1385.97,632.46L1389.05,643.96L1392.12,650.03L1395.19,647.54L1398.27,650.05L1401.34,651L1404.41,653L1407.49,645L1410.56,652.89L1413.63,654.83L1416.71,658.38L1419.78,661.69L1422.85,662.93L1425.92,656.06L1429,659.15L1432.07,666.48L1435.14,667.75L1438.22,662.16L1441.29,666.62L1447.44,673.65L1450.51,672.16L1453.58,675.2L1456.66,676.72L1459.73,667.77L1462.8,668.71L1465.88,678.17L1468.95,673.46L1472.02,676.48L1475.09,688.38L1478.17,674.09L1481.24,677.81L1487.39,688.84L1490.46,672.79L1493.53,684.61L1496.61,689.73L1499.68,680.92L1502.75,691.64L1505.83,696.87L1508.9,682.01L1511.97,691.16L1515.04,695.34L1518.12,692.7L1521.19,687.01L1524.26,693.93L1527.34,697.38L1530.41,697.49L1533.48,702.48L1536.56,704.45L1539.63,699.18L1542.7,702.9L1545.78,702.71L1548.85,700.48L1551.92,703.48L1555,703.74L1558.07,707.03L1564.21,712.79L1567.29,713.06L1570.36,711.57L1573.43,713.03L1576.51,713.32L1579.58,710.06L1582.65,714.55L1585.73,713.71L1588.8,716.59L1591.87,720.86L1594.95,723.6L1598.02,721.03L1601.09,721.69L1604.17,724.01L1607.24,724.64L1610.31,720.14L1613.38,728L1616.46,730.03L1619.53,723.07L1622.6,728.66L1625.68,731.09L1628.75,730.67L1631.82,728.84L1634.9,731.55L1637.97,727.5L1641.04,731.04L1644.12,731.29L1647.19,729.12L1650.26,728.95L1653.33,734.39L1656.41,734.07L1659.48,731.68L1662.55,737.04L1665.63,736.97L1668.7,735.71L1671.77,736.01L1674.85,738.24L1677.92,736.59L1680.99,735.54L1684.07,741.43L1690.21,741.34L1693.29,739.58L1696.36,743.92L1699.43,743L1702.5,742.14L1705.58,749.08L1708.65,748.88L1711.72,751.27L1714.8,748.16L1717.87,752.76L1720.94,754.4L1724.02,753.63L1727.09,744.04L1730.16,724.25L1733.24,681.77L1736.31,658.62L1742.46,593.96L1745.53,539.99L1748.6,493.64L1751.67,431.02L1757.82,302.04L1760.89,267.48L1763.97,243.29L1767.04,210.57L1770.11,172.35L1773.19,170.64L1779.33,123.9L1782.41,118.6L1785.48,103.74L1788.55,81.7L1791.63,78.46L1794.7,88.75L1797.77,69.73L1800.84,60.51L1803.92,63.01L1806.99,46.67L1810.06,49.54L1813.14,63.9L1816.21,47.7L1819.28,45.03L1822.36,51.98L1825.43,43.05L1828.5,54.51L1831.58,40.99L1834.65,41.71L1837.72,48.37L1840.79,42.2L1843.87,44.96L1846.94,41.55L1850.01,48.65L1853.09,41.47L1856.16,46.62L1859.23,42.04L1862.31,45.32L1865.38,43.73L1868.45,45.05L1874.6,46.03L1877.67,48.44L1880.75,48.43L1883.82,51.72L1893.04,53.49L1896.11,57.91L1899.18,58.34L1902.26,65.27L1905.33,64.92L1908.4,69.65L1911.48,68.81L1914.55,71.2L1917.62,73.92L1920.7,75.12L1923.77,80.04L1926.84,81.66L1929.92,84.34L1932.99,91.34L1936.06,92.68L1939.13,99.39L1942.21,93.79L1945.28,105.85L1948.35,111.17L1951.43,122.07L1954.5,122.05L1957.57,138.05L1963.72,164.11L1966.79,169.05L1969.87,187.06L1972.94,215.87L1976.01,215.48L1979.08,235.37L1982.16,258.93L1985.23,299.37L1991.38,406.67L1994.45,434.82L2003.67,536.37L2006.74,554.85L2009.82,590.71L2012.89,593.67L2015.96,626.15L2019.04,627.52L2022.11,631.95L2025.18,646.38L2028.25,638.33L2031.33,652.15L2034.4,662.54L2037.47,651.35L2040.55,661.6L2043.62,654.04L2046.69,658.94L2049.77,671.76L2052.84,663.7L2055.91,671.65L2058.99,663.44L2062.06,665.32L2065.13,688.71L2068.21,681.41L2071.28,681.07L2074.35,671.57L2077.42,676.36L2080.5,669.74L2083.57,666.18L2086.64,677.94L2092.79,691.35L2095.86,682.68L2102.01,696.23L2105.08,687.51L2111.23,701.43L2114.3,692.11L2117.38,698.81L2120.45,696.48L2123.52,697.3L2126.59,703.45L2129.67,708.1L2132.74,700.02L2135.81,694.43L2138.89,710.02L2141.96,703.21L2145.03,709.83L2148.11,702.83L2151.18,706.21L2154.25,715.28L2157.33,720.31L2160.4,717.87L2163.47,722.49L2166.54,720.23L2169.62,724.44L2172.69,722.41L2175.76,726.14L2178.84,724.4L2181.91,727.58L2184.98,726.24L2188.06,728.77L2191.13,727.93L2194.2,729.71L2197.28,729.45L2200.35,730.44L2209.57,731.95L2212.64,736.69L2215.71,738.8L2218.79,738.55L2221.86,738.95L2224.93,735.02L2228.01,731.61L2231.08,724.32L2234.15,731.94L2237.23,727.95L2240.3,730.29L2243.37,738.79L2246.45,737.71L2249.52,738.52L2252.59,730.37L2255.67,736.2L2258.74,730.41L2261.81,730.02L2264.88,739.86L2267.96,730.45L2271.03,735.93L2274.1,731.6L2280.25,735.67L2283.32,730.88L2289.47,743.2L2292.54,743.93L2310.98,747.54L2314.05,747.79L2323.27,747.1L2326.35,746.17L2332.49,742.7L2335.57,739.97L2341.71,731.95L2344.79,726.48L2350.93,712.3L2354,703.58L2360.15,683.28L2363.22,704.08L2366.3,702.44L2369.37,697.24L2372.44,636.66L2375.52,731.14L2381.66,707.73L2384.74,596.88L2387.81,659.1L2390.88,669.79L2393.96,675.76L2397.03,625.42L2400.1,579.08L2403.17,657.8L2406.25,634.02L2409.32,639.86L2412.39,623.66L2415.47,599.5L2418.54,677.94L2421.61,614.21L2424.69,611.51L2427.76,635.01L2430.83,635.51L2433.91,679.98L2436.98,656.92L2440.05,610.84L2443.13,620.65L2446.2,641.17L2449.27,662.02L2452.34,618.62L2455.42,623.84L2458.49,633.59L2461.56,664.63L2464.64,640.45L2467.71,631.69L2470.78,638.75L2473.86,639.68L2476.93,631.21L2480,652.45L2483.08,656.75L2486.15,648.11L2489.22,658.82L2492.29,659.19L2495.37,651.66L2498.44,659.47L2501.51,660.37L2504.59,653.46L2507.66,660.65L2513.81,650.24L2516.88,663.88L2519.95,658.11L2523.03,665.83L2526.1,665.3L2529.17,668.24L2532.25,663.21L2535.32,651.07L2538.39,659.72L2541.46,653.59L2544.54,657.89L2547.61,665.18L2550.68,668.03L2553.76,665.9L2556.83,673.76L2559.9,674.48L2562.98,676.77L2566.05,677.22L2569.12,675.55L2572.2,679.56L2575.27,672.09L2578.34,687.9L2581.42,680.76L2584.49,679.95L2587.56,691.27L2590.63,694.07L2593.71,687.23L2596.78,690.92L2599.85,689.44L2602.93,697.29L2606,696.89" style="vector-effect: non-scaling-stroke; fill: none; stroke: rgb(170, 0, 0); stroke-opacity: 1; stroke-width: 4px; opacity: 1;"/></g><g class="points"/><g class="text"/></g><g class="trace scatter tracef906ce" style="stroke-miterlimit: 2; opacity: 1;"><g class="fills"/><g class="errorbars"/><g class="lines"><path class="js-line" d="M0,691.69L3.07,695.93L6.15,692.11L9.22,696.69L12.29,711.51L15.37,715L18.44,715.42L24.58,712.93L27.66,708.01L30.73,714.66L33.8,708.36L36.88,712.01L39.95,720.38L43.02,725.46L46.1,723.84L49.17,728.23L52.24,727.04L55.32,727.38L58.39,726.29L61.46,728.81L64.54,729.7L67.61,732.8L70.68,733.78L73.75,738.58L76.83,730.18L79.9,731.35L82.97,734.55L86.05,736.89L89.12,737.68L92.19,733.24L95.27,737.84L98.34,733.68L101.41,736.65L107.56,744.11L110.63,747.89L113.71,744.06L116.78,743.41L119.85,740.9L122.92,743.23L126,746.93L129.07,745.07L132.14,747.61L135.22,748.04L138.29,749.45L141.36,749.02L144.44,747.31L147.51,739.34L150.58,749.72L153.66,751.5L156.73,753.77L159.8,745.07L162.88,740.14L165.95,741.06L169.02,724.64L172.09,669.04L175.17,678.57L178.24,606.85L187.46,441.97L190.53,353.8L199.75,222.98L202.83,214.3L205.9,204.31L208.97,165.61L212.04,161.93L215.12,160.35L218.19,130.46L221.26,125.79L227.41,117L230.48,92.03L233.56,104.27L236.63,80.91L242.78,85.54L245.85,66.12L252,49.73L255.07,56.27L258.14,67.91L261.21,49.26L267.36,51.59L270.43,62.17L273.51,49.75L276.58,52.21L282.73,41.8L285.8,45.44L288.87,46.37L291.95,53.55L295.02,50.29L298.09,49.97L301.17,46.73L304.24,51.42L307.31,51.57L310.38,50.04L313.46,55.68L316.53,58.33L319.6,64L322.68,66.73L325.75,66.24L328.82,70.89L331.9,75.18L334.97,74.22L338.04,74.62L341.12,94.01L344.19,89.95L347.26,102.87L350.33,97.61L353.41,110.57L356.48,105.08L359.55,116.99L362.63,111.76L365.7,122.24L368.77,117.88L371.85,126.55L374.92,123.96L377.99,130.44L381.07,130.4L384.14,134.95L387.21,137.56L390.29,141.87L393.36,146.42L396.43,153.75L399.5,160.46L402.58,173.85L408.72,190.63L411.8,222.13L414.87,243.5L417.94,281.99L421.02,307.72L424.09,351.09L433.31,464.49L436.38,496.87L439.46,513.83L442.53,548.4L445.6,563.39L448.67,567.59L451.75,595.89L454.82,605.82L457.89,602.28L460.97,620.25L464.04,628.01L467.11,622.76L473.26,645.76L476.33,643.76L479.41,642.03L482.48,643.69L485.55,654.88L488.63,650.38L491.7,640.8L494.77,647.53L497.84,652.54L500.92,665.6L503.99,662.62L507.06,650.08L510.14,666.21L513.21,661.74L516.28,657.98L519.36,672.48L522.43,674.48L525.5,666.79L528.58,670.21L531.65,678.66L534.72,681.03L537.79,685.19L540.87,674.94L543.94,683.07L547.01,690.72L550.09,681.38L553.16,679.19L556.23,693.65L559.31,694.38L562.38,699.68L565.45,695.04L568.53,698.58L574.67,714.38L577.75,712.03L580.82,718.71L583.89,716.64L586.96,719.12L590.04,718.46L593.11,722.57L596.18,724.1L599.26,728L602.33,729.61L605.4,735.15L608.48,727.3L617.7,736.55L620.77,738.34L623.84,736.32L626.92,741.16L629.99,737.19L633.06,741.09L636.13,743.44L639.21,747.46L642.28,752.06L645.35,746.8L648.43,746.45L651.5,747.15L657.65,750.15L660.72,747.35L663.79,752.76L666.87,749.56L673.01,752.39L676.08,752.12L679.16,739.42L682.23,741.45L685.3,738.39L688.38,737.42L694.52,689.65L697.6,666.62L700.67,623.36L703.74,601.78L706.82,572.77L709.89,531.68L712.96,482.52L716.04,416.15L719.11,333.81L722.18,308.29L731.4,216.71L734.47,195.56L737.55,170.43L740.62,155.01L743.69,136.91L746.77,126.11L749.84,114.75L752.91,97.89L755.99,88.17L759.06,102.8L762.13,86.81L765.21,87.13L768.28,81.25L771.35,93.22L774.42,80.5L777.5,80.24L780.57,84.63L783.64,67.11L786.72,73.51L789.79,52.88L792.86,49.02L795.94,70.28L799.01,52.49L802.08,44.92L805.16,45.7L808.23,43.99L811.3,45.38L814.38,40.82L817.45,39.84L820.52,42.91L823.59,39.8L826.67,46.17L829.74,58.01L832.81,51.43L835.89,52.51L838.96,49.61L845.11,53.46L848.18,55.99L851.25,58.96L854.33,51.08L857.4,50.46L860.47,47.54L863.54,47.99L866.62,63.25L869.69,69.52L872.76,71.73L875.84,86.9L878.91,89.41L881.98,79.92L885.06,97.66L888.13,92.93L891.2,110.86L894.28,112.9L897.35,119.24L900.42,127.16L903.5,112.72L906.57,129.92L909.64,129.14L912.71,140.8L915.79,147.07L918.86,149.12L921.93,161.5L925.01,166.17L928.08,181.92L931.15,193.84L934.23,211.53L937.3,243.6L940.37,264.61L943.45,303.51L946.52,355.04L958.81,510.23L961.88,533.94L964.96,560.96L968.03,576.91L971.1,587.76L974.18,618.42L977.25,628.45L980.32,626.7L983.4,642.32L986.47,648.78L989.54,644.49L992.62,653.84L995.69,661.56L998.76,659.74L1001.83,659.74L1004.91,662.49L1014.13,671.59L1017.2,664.23L1020.27,674.71L1023.35,679.74L1026.42,678.86L1029.49,675.36L1032.57,685.67L1035.64,686.97L1038.71,686.62L1041.79,675.75L1044.86,683.63L1047.93,687.81L1051,687.04L1054.08,684.58L1057.15,684.82L1060.22,692.59L1063.3,693.41L1066.37,687.47L1069.44,692.56L1072.52,695.69L1075.59,696.83L1078.66,696.37L1081.74,698L1084.81,694.32L1087.88,700.47L1090.96,703.29L1094.03,704.84L1097.1,703.66L1100.17,708.22L1103.25,709.94L1106.32,709.79L1109.39,711.93L1112.47,708.76L1115.54,711.49L1118.61,711.86L1121.69,715.27L1124.76,714.62L1127.83,715.88L1130.91,715.76L1133.98,719.41L1137.05,718.15L1140.13,717.97L1143.2,716.78L1146.27,721.06L1149.34,722.41L1152.42,721.78L1155.49,720.61L1158.56,723.48L1161.64,725.44L1164.71,725.6L1167.78,724.5L1170.86,725.6L1177,728.79L1180.08,727.41L1186.22,729.12L1189.29,731.11L1192.37,729.33L1195.44,732.37L1201.59,736L1204.66,734.8L1207.73,730.96L1210.81,734.79L1213.88,735.85L1216.95,734.62L1220.03,731.63L1223.1,735.19L1226.17,735.55L1229.25,734.41L1232.32,736.66L1235.39,736.71L1241.54,733.32L1244.61,737.99L1247.68,736.51L1250.76,736.35L1253.83,735.87L1256.9,743.75L1259.98,742.84L1263.05,743.24L1266.12,740.47L1269.2,746.35L1272.27,746L1275.34,748.12L1278.42,743.32L1281.49,748.08L1284.56,748.62L1287.63,748L1290.71,750.73L1293.78,751L1296.85,753.51L1299.93,749.94L1306.07,751.84L1309.15,755.77L1315.29,751.76L1318.37,755.13L1324.51,750.46L1327.58,751.34L1330.66,754.56L1333.73,750.53L1336.8,738.05L1339.88,740.93L1342.95,732.41L1346.02,713.18L1349.1,712.85L1352.17,715.52L1355.24,697.21L1358.32,670.49L1361.39,676.43L1364.46,666.92L1367.54,654.81L1370.61,658.08L1373.68,652.4L1376.75,635.22L1382.9,649.79L1385.97,637.3L1392.12,650.89L1395.19,639.96L1401.34,653.93L1404.41,648.18L1407.49,657.01L1410.56,651.83L1416.71,661.88L1419.78,650.75L1422.85,662.43L1425.92,660.3L1429,667.61L1432.07,662.06L1435.14,668.54L1438.22,665L1441.29,670.62L1444.36,667.75L1447.44,672.38L1450.51,670.24L1453.58,673.9L1456.66,672.43L1459.73,675.28L1462.8,674.34L1465.88,676.62L1468.95,675.98L1472.02,678L1475.09,677.4L1478.17,679.39L1481.24,678.65L1484.31,684.04L1487.39,684.82L1490.46,687.33L1493.53,686.15L1499.68,682.72L1502.75,672.31L1505.83,679.93L1508.9,672.97L1511.97,677.86L1515.04,685.89L1518.12,694.34L1521.19,695.25L1524.26,697.66L1527.34,697.41L1530.41,693.14L1533.48,691.49L1536.56,683.87L1539.63,695.54L1542.7,687.67L1545.78,688.63L1548.85,705.26L1551.92,711.4L1555,716.55L1558.07,712.48L1561.14,718.87L1564.21,706.73L1567.29,716.53L1570.36,708.28L1607.24,723.76L1610.31,714.45L1616.46,716.58L1619.53,718.75L1622.6,709.08L1625.68,719.69L1628.75,727.87L1631.82,732.48L1634.9,722.69L1637.97,730.16L1641.04,734.45L1644.12,725.47L1650.26,736.19L1653.33,727.99L1659.48,737.71L1662.55,730.32L1668.7,739.07L1671.77,732.6L1674.85,735.18L1677.92,739.46L1680.99,732.41L1684.07,736.99L1687.14,743.15L1690.21,738.84L1696.36,743.56L1699.43,739.08L1702.5,744.69L1705.58,745.57L1708.65,747.39L1711.72,752.09L1714.8,753.75L1717.87,751.74L1720.94,750.67L1724.02,752.67L1730.16,731.94L1733.24,686.86L1736.31,657.98L1739.38,617.77L1742.46,586.1L1745.53,542.01L1751.67,421.25L1754.75,357.86L1757.82,289.43L1760.89,263.32L1767.04,213.86L1770.11,198.67L1773.19,166.09L1776.26,155.35L1782.41,120.16L1785.48,120.93L1794.7,88.16L1797.77,77.84L1800.84,76.79L1803.92,64.08L1806.99,56.9L1810.06,61.35L1816.21,63.2L1819.28,50.1L1822.36,65.15L1825.43,47.49L1828.5,55.96L1831.58,43.63L1834.65,41.76L1837.72,45.18L1840.79,40.94L1843.87,44.79L1846.94,42.85L1850.01,45.18L1853.09,43.24L1856.16,42.83L1859.23,42.9L1862.31,44.65L1868.45,48.47L1871.53,46.84L1874.6,53.22L1877.67,50.3L1880.75,54.91L1883.82,57.32L1889.96,59.04L1893.04,64.74L1896.11,66.17L1899.18,71.57L1905.33,77.13L1908.4,76.44L1911.48,84.21L1914.55,82.1L1917.62,92.05L1920.7,88.51L1923.77,100.21L1926.84,95.88L1929.92,108.27L1932.99,103.87L1936.06,115.98L1939.13,112.11L1942.21,123.24L1945.28,120.93L1948.35,130.19L1951.43,136.29L1954.5,138.87L1957.57,146.01L1960.65,150.95L1963.72,160.59L1966.79,166.74L1969.87,175.45L1972.94,194.01L1976.01,220.04L1979.08,235.45L1982.16,277.86L1988.3,345.89L1991.38,396.96L2000.6,510.9L2003.67,529.33L2006.74,563.79L2009.82,575.13L2012.89,606.68L2015.96,612.72L2019.04,629.48L2022.11,636.7L2025.18,647.84L2028.25,648.34L2031.33,654.85L2034.4,654.47L2037.47,646.52L2040.55,658.52L2043.62,657.71L2046.69,664.56L2052.84,672.61L2055.91,672.61L2058.99,678.43L2062.06,679.33L2065.13,683.03L2068.21,681.56L2071.28,681.14L2074.35,679.53L2077.42,669.69L2080.5,677.77L2083.57,671.51L2086.64,676.63L2089.72,684.24L2092.79,686.04L2095.86,686.28L2098.94,688.44L2102.01,688.35L2105.08,691.05L2108.16,690.43L2111.23,693.73L2114.3,692.51L2117.38,704.26L2120.45,703.26L2123.52,707.09L2126.59,705.71L2129.67,702.78L2132.74,706.88L2135.81,700.97L2138.89,705.8L2141.96,697.23L2145.03,691.69L2148.11,713.24L2151.18,707.08L2154.25,723.58L2160.4,704.95L2163.47,720.23L2166.54,721.78L2169.62,717.38L2172.69,700.96L2175.76,708.62L2178.84,725.77L2181.91,721.62L2184.98,710.18L2188.06,721.56L2191.13,730.32L2194.2,715.38L2197.28,716.41L2200.35,725.01L2203.42,727.19L2206.5,712.02L2209.57,724.48L2212.64,726.31L2215.71,722.46L2218.79,729.67L2221.86,730.29L2224.93,715.74L2228.01,723.64L2231.08,735.98L2234.15,731.91L2237.23,718.18L2240.3,725.66L2243.37,736.49L2246.45,733.5L2249.52,720.4L2252.59,727.45L2255.67,729.99L2258.74,731.8L2261.81,722.98L2264.88,729.31L2267.96,730.63L2271.03,736.26L2274.1,731.14L2277.18,731.63L2280.25,737.27L2283.32,733.31L2286.4,733.16L2289.47,738.66L2292.54,735.31L2298.69,741.84L2301.76,739.89L2304.83,735.42L2307.91,743.18L2310.98,741.84L2314.05,744.6L2317.13,743.79L2320.2,748.11L2323.27,744.91L2326.35,750.48L2329.42,746.32L2332.49,744.66L2338.64,751.82L2341.71,753.21L2347.86,754.27L2350.93,752.46L2354,755.07L2357.08,750.57L2360.15,754.7L2363.22,749.51L2366.3,754.79L2369.37,753.47L2372.44,754.9L2375.52,751.3L2378.59,753.39L2381.66,736.64L2384.74,756.2L2387.81,747.4L2390.88,713.84L2393.96,738.52L2397.03,720.01L2400.1,680.05L2403.17,692.54L2406.25,677.32L2409.32,649.07L2412.39,660.51L2415.47,657.28L2418.54,633.55L2427.76,652.81L2430.83,632.6L2433.91,642.72L2436.98,648.05L2440.05,653.17L2443.13,645.12L2446.2,649.98L2449.27,652.89L2452.34,653.27L2455.42,651.81L2458.49,654.24L2461.56,659.64L2464.64,662.32L2467.71,658.34L2470.78,659.29L2473.86,664.7L2476.93,669.53L2480,665.26L2483.08,666.7L2486.15,670.53L2489.22,672.97L2492.29,672.41L2495.37,672.19L2498.44,675.17L2504.59,671.65L2507.66,671.82L2510.73,676.46L2513.81,678.62L2516.88,676.43L2519.95,675.99L2523.03,685.06L2526.1,679.21L2529.17,678.92L2532.25,680.34L2535.32,684.19L2538.39,671.14L2541.46,684.35L2544.54,676.62L2547.61,678.66L2550.68,692.8L2553.76,673.97L2556.83,677.7L2559.9,683.6L2562.98,682.78L2566.05,691.64L2569.12,681.45L2572.2,688.72L2575.27,678.79L2587.56,684.98L2590.63,695.33L2593.71,695.59L2596.78,699.31L2599.85,699.28L2602.93,697.5L2606,693.75" style="vector-effect: non-scaling-stroke; fill: none; stroke: rgb(0, 170, 0); stroke-opacity: 1; stroke-width: 4px; opacity: 1;"/></g><g class="points"/><g class="text"/></g></g></g><g class="overplot"/><path class="xlines-above crisp" d="M0,0" style="fill: none;"/><path class="ylines-above crisp" d="M0,0" style="fill: none;"/><g class="overlines-above"/><g class="xaxislayer-above"><g class="xtick"><text text-anchor="middle" x="0" y="934" transform="translate(136,0)" style="font-family: 'Open Sans', verdana, arial, sans-serif; font-size: 37px; fill: rgb(42, 63, 95); fill-opacity: 1; white-space: pre; opacity: 1;">0</text></g><g class="xtick"><text text-anchor="middle" x="0" y="934" style="font-family: 'Open Sans', verdana, arial, sans-serif; font-size: 37px; fill: rgb(42, 63, 95); fill-opacity: 1; white-space: pre; opacity: 1;" transform="translate(443.31,0)">100</text></g><g class="xtick"><text text-anchor="middle" x="0" y="934" style="font-family: 'Open Sans', verdana, arial, sans-serif; font-size: 37px; fill: rgb(42, 63, 95); fill-opacity: 1; white-space: pre; opacity: 1;" transform="translate(750.62,0)">200</text></g><g class="xtick"><text text-anchor="middle" x="0" y="934" style="font-family: 'Open Sans', verdana, arial, sans-serif; font-size: 37px; fill: rgb(42, 63, 95); fill-opacity: 1; white-space: pre; opacity: 1;" transform="translate(1057.9299999999998,0)">300</text></g><g class="xtick"><text text-anchor="middle" x="0" y="934" style="font-family: 'Open Sans', verdana, arial, sans-serif; font-size: 37px; fill: rgb(42, 63, 95); fill-opacity: 1; white-space: pre; opacity: 1;" transform="translate(1365.25,0)">400</text></g><g class="xtick"><text text-anchor="middle" x="0" y="934" style="font-family: 'Open Sans', verdana, arial, sans-serif; font-size: 37px; fill: rgb(42, 63, 95); fill-opacity: 1; white-space: pre; opacity: 1;" transform="translate(1672.56,0)">500</text></g><g class="xtick"><text text-anchor="middle" x="0" y="934" style="font-family: 'Open Sans', verdana, arial, sans-serif; font-size: 37px; fill: rgb(42, 63, 95); fill-opacity: 1; white-space: pre; opacity: 1;" transform="translate(1979.87,0)">600</text></g><g class="xtick"><text text-anchor="middle" x="0" y="934" style="font-family: 'Open Sans', verdana, arial, sans-serif; font-size: 37px; fill: rgb(42, 63, 95); fill-opacity: 1; white-space: pre; opacity: 1;" transform="translate(2287.18,0)">700</text></g><g class="xtick"><text text-anchor="middle" x="0" y="934" style="font-family: 'Open Sans', verdana, arial, sans-serif; font-size: 37px; fill: rgb(42, 63, 95); fill-opacity: 1; white-space: pre; opacity: 1;" transform="translate(2594.49,0)">800</text></g></g><g class="yaxislayer-above"><g class="ytick"><text text-anchor="end" x="135" y="12.95" transform="translate(0,826.18)" style="font-family: 'Open Sans', verdana, arial, sans-serif; font-size: 37px; fill: rgb(42, 63, 95); fill-opacity: 1; white-space: pre; opacity: 1;">−15</text></g><g class="ytick"><text text-anchor="end" x="135" y="12.95" style="font-family: 'Open Sans', verdana, arial, sans-serif; font-size: 37px; fill: rgb(42, 63, 95); fill-opacity: 1; white-space: pre; opacity: 1;" transform="translate(0,721.42)">−10</text></g><g class="ytick"><text text-anchor="end" x="135" y="12.95" style="font-family: 'Open Sans', verdana, arial, sans-serif; font-size: 37px; fill: rgb(42, 63, 95); fill-opacity: 1; white-space: pre; opacity: 1;" transform="translate(0,616.66)">−5</text></g><g class="ytick"><text text-anchor="end" x="135" y="12.95" style="font-family: 'Open Sans', verdana, arial, sans-serif; font-size: 37px; fill: rgb(42, 63, 95); fill-opacity: 1; white-space: pre; opacity: 1;" transform="translate(0,511.9)">0</text></g><g class="ytick"><text text-anchor="end" x="135" y="12.95" style="font-family: 'Open Sans', verdana, arial, sans-serif; font-size: 37px; fill: rgb(42, 63, 95); fill-opacity: 1; white-space: pre; opacity: 1;" transform="translate(0,407.14)">5</text></g><g class="ytick"><text text-anchor="end" x="135" y="12.95" style="font-family: 'Open Sans', verdana, arial, sans-serif; font-size: 37px; fill: rgb(42, 63, 95); fill-opacity: 1; white-space: pre; opacity: 1;" transform="translate(0,302.38)">10</text></g><g class="ytick"><text text-anchor="end" x="135" y="12.95" style="font-family: 'Open Sans', verdana, arial, sans-serif; font-size: 37px; fill: rgb(42, 63, 95); fill-opacity: 1; white-space: pre; opacity: 1;" transform="translate(0,197.62)">15</text></g></g><g class="overaxes-above"/></g></g><g class="polarlayer"/><g class="ternarylayer"/><g class="geolayer"/><g class="funnelarealayer"/><g class="pielayer"/><g class="iciclelayer"/><g class="treemaplayer"/><g class="sunburstlayer"/><g class="glimages"/><defs id="topdefs-c5488d"><g class="clips"/><clipPath id="legendc5488d"><rect width="694" height="113" x="0" y="0"/></clipPath></defs><g class="layer-above"><g class="imagelayer"/><g class="shapelayer"/></g><g class="infolayer"><g class="legend" pointer-events="all" transform="translate(2794.12,100)"><rect class="bg" shape-rendering="crispEdges" style="stroke: rgb(68, 68, 68); stroke-opacity: 1; fill: rgb(255, 255, 255); fill-opacity: 1; stroke-width: 0px;" width="694" height="113" x="0" y="0"/><g class="scrollbox" transform="" clip-path="url(#legendc5488d)"><g class="groups"><g class="traces" transform="translate(0,30.55)" style="opacity: 1;"><text class="legendtext" text-anchor="start" x="40" y="14.43" style="font-family: 'Open Sans', verdana, arial, sans-serif; font-size: 37px; fill: rgb(42, 63, 95); fill-opacity: 1; white-space: pre;">Predicted Curvature at Anchors #1</text><g class="layers" style="opacity: 1;"><g class="legendfill"/><g class="legendlines"><path class="js-line" d="M5,0h30" style="fill: none; stroke: rgb(170, 0, 0); stroke-opacity: 1; stroke-width: 4px;"/></g><g class="legendsymbols"><g class="legendpoints"/></g></g><rect class="legendtoggle" x="0" y="-25.55" width="688.125" height="51.1" style="fill: rgb(0, 0, 0); fill-opacity: 0;"/></g><g class="traces" transform="translate(0,81.65)" style="opacity: 1;"><text class="legendtext" text-anchor="start" x="40" y="14.43" style="font-family: 'Open Sans', verdana, arial, sans-serif; font-size: 37px; fill: rgb(42, 63, 95); fill-opacity: 1; white-space: pre;">Predicted Curvature at Anchors #2</text><g class="layers" style="opacity: 1;"><g class="legendfill"/><g class="legendlines"><path class="js-line" d="M5,0h30" style="fill: none; stroke: rgb(0, 170, 0); stroke-opacity: 1; stroke-width: 4px;"/></g><g class="legendsymbols"><g class="legendpoints"/></g></g><rect class="legendtoggle" x="0" y="-25.55" width="688.125" height="51.1" style="fill: rgb(0, 0, 0); fill-opacity: 0;"/></g></g></g><rect class="scrollbar" rx="20" ry="3" width="0" height="0" style="fill: rgb(128, 139, 164); fill-opacity: 1;" x="0" y="0"/></g><g class="g-gtitle"/><g class="g-xtitle"><text class="xtitle" x="1439" y="987.8" text-anchor="middle" style="font-family: 'Open Sans', verdana, arial, sans-serif; font-size: 44px; fill: rgb(42, 63, 95); opacity: 1; font-weight: normal; white-space: pre;">Anchor Point Index</text></g><g class="g-ytitle" transform="translate(32.1279296875,0)"><text class="ytitle" transform="rotate(-90,11.871875000000003,498)" x="11.871875000000003" y="498" text-anchor="middle" style="font-family: 'Open Sans', verdana, arial, sans-serif; font-size: 44px; fill: rgb(42, 63, 95); opacity: 1; font-weight: normal; white-space: pre;">Predicted Curvature</text></g><g class="annotation" data-index="0" style="opacity: 1;"><g class="annotation-text-g" transform="rotate(0,1439,66.49999999999993)"><g class="cursor-pointer" transform="translate(222,33)"><rect class="bg" x="0.5" y="0.5" width="2433" height="66" style="stroke-width: 1px; stroke: rgb(0, 0, 0); stroke-opacity: 0; fill: rgb(0, 0, 0); fill-opacity: 0;"/><text class="annotation-text" text-anchor="middle" x="1217.03125" y="54" style="font-family: 'Open Sans', verdana, arial, sans-serif; font-size: 52px; fill: rgb(42, 63, 95); fill-opacity: 1; white-space: pre;"><tspan style="font-weight:bold">Predicted Curvature at Anchors (Transformed Curve #1 vs. Transformed Curve #2)</tspan></text></g></g></g></g></svg>