<svg class="main-svg" xmlns="http://www.w3.org/2000/svg" xmlns:xlink="http://www.w3.org/1999/xlink" width="3500" height="1000" style="" viewBox="0 0 3500 1000"><rect x="0" y="0" width="3500" height="1000" style="fill: rgb(255, 255, 255); fill-opacity: 1;"/><defs id="defs-a99367"><g class="clips"><clipPath id="clipa99367xyplot" class="plotclip"><rect width="2606" height="796"/></clipPath><clipPath class="axesclip" id="clipa99367x"><rect x="136" y="0" width="2606" height="1000"/></clipPath><clipPath class="axesclip" id="clipa99367y"><rect x="0" y="100" width="3500" height="796"/></clipPath><clipPath class="axesclip" id="clipa99367xy"><rect x="136" y="100" width="2606" height="796"/></clipPath></g><g class="gradients"/><g class="patterns"/></defs><g class="bglayer"><rect class="bg" x="136" y="100" width="2606" height="796" style="fill: rgb(229, 236, 246); fill-opacity: 1; stroke-width: 0;"/></g><g class="layer-below"><g class="imagelayer"/><g class="shapelayer"/></g><g class="cartesianlayer"><g class="subplot xy"><g class="layer-subplot"><g class="shapelayer"/><g class="imagelayer"/></g><g class="gridlayer"><g class="x"><path class="xgrid crisp" transform="translate(651.02,0)" d="M0,100v796" style="stroke: rgb(255, 255, 255); stroke-opacity: 1; stroke-width: 1px;"/><path class="xgrid crisp" transform="translate(1166.04,0)" d="M0,100v796" style="stroke: rgb(255, 255, 255); stroke-opacity: 1; stroke-width: 1px;"/><path class="xgrid crisp" transform="translate(1681.06,0)" d="M0,100v796" style="stroke: rgb(255, 255, 255); stroke-opacity: 1; stroke-width: 1px;"/><path class="xgrid crisp" transform="translate(2196.08,0)" d="M0,100v796" style="stroke: rgb(255, 255, 255); stroke-opacity: 1; stroke-width: 1px;"/><path class="xgrid crisp" transform="translate(2711.1,0)" d="M0,100v796" style="stroke: rgb(255, 255, 255); stroke-opacity: 1; stroke-width: 1px;"/></g><g class="y"><path class="ygrid crisp" transform="translate(0,870.29)" d="M136,0h2606" style="stroke: rgb(255, 255, 255); stroke-opacity: 1; stroke-width: 1px;"/><path class="ygrid crisp" transform="translate(0,703.65)" d="M136,0h2606" style="stroke: rgb(255, 255, 255); stroke-opacity: 1; stroke-width: 1px;"/><path class="ygrid crisp" transform="translate(0,370.38)" d="M136,0h2606" style="stroke: rgb(255, 255, 255); stroke-opacity: 1; stroke-width: 1px;"/><path class="ygrid crisp" transform="translate(0,203.74)" d="M136,0h2606" style="stroke: rgb(255, 255, 255); stroke-opacity: 1; stroke-width: 1px;"/></g></g><g class="zerolinelayer"><path class="xzl zl crisp" transform="translate(136,0)" d="M0,100v796" style="stroke: rgb(255, 255, 255); stroke-opacity: 1; stroke-width: 2px;"/><path class="yzl zl crisp" transform="translate(0,537.01)" d="M136,0h2606" style="stroke: rgb(255, 255, 255); stroke-opacity: 1; stroke-width: 2px;"/></g><path class="xlines-below"/><path class="ylines-below"/><g class="overlines-below"/><g class="xaxislayer-below"/><g class="yaxislayer-below"/><g class="overaxes-below"/><g class="plot" transform="translate(136,100)" clip-path="url(#clipa99367xyplot)"><g class="scatterlayer mlayer"><g class="trace scatter trace022a5d" style="stroke-miterlimit: 2; opacity: 1;"><g class="fills"/><g class="errorbars"/><g class="lines"><path class="js-line" d="M0,79.77L2.58,56.4L5.15,72.05L7.73,94.33L10.3,89.84L15.45,85.12L18.03,87.27L20.6,93.32L23.18,89.37L25.75,80.85L28.33,87.27L30.9,84.02L33.48,87.85L36.05,86.77L38.63,81.91L43.78,103.05L46.35,80.43L48.93,90.39L51.5,84.01L54.08,90.21L56.65,93.16L61.8,84.53L64.38,103.54L66.95,94.4L69.53,89.62L72.1,83.16L74.68,83.5L77.25,87.05L79.83,96.02L82.4,85.05L84.98,82.22L90.13,91.79L92.7,77.85L95.28,75.84L97.85,81.4L100.43,83.47L103,81.66L105.58,82.33L108.15,89.91L110.73,84.11L113.3,74.85L115.88,81.12L118.45,80.01L121.03,90.03L123.6,83.78L126.18,75.72L128.75,84.34L133.91,90.03L136.48,85.43L139.06,87.69L141.63,91.52L144.21,83.15L146.78,89.87L149.36,87.44L151.93,79.79L157.08,84.06L159.66,82.92L162.23,93.44L164.81,82.5L167.38,88.69L169.96,79.94L172.53,77.35L175.11,80.98L177.68,80.2L180.26,95.92L185.41,76.67L187.98,86.33L190.56,80.84L193.13,81.29L195.71,84.11L198.28,77.12L200.86,84.97L203.43,82.26L206.01,84.81L208.58,74.57L211.16,77.02L213.73,81.59L216.31,82.15L218.88,79.82L221.46,75.09L224.03,81.06L226.61,75.87L229.18,75.79L231.76,73.47L234.33,75.73L236.91,77.85L239.48,82.87L242.06,82.61L244.63,85.11L247.21,78.97L249.78,88.16L254.93,84.23L257.51,89.3L260.08,88.54L262.66,68.03L265.24,96.83L267.81,89.02L270.39,90.46L272.96,90.25L275.54,81.45L278.11,92.19L280.69,89.8L283.26,92.89L285.84,85.15L288.41,83.66L290.99,91.63L293.56,78.77L296.14,89.03L298.71,89.35L301.29,90.92L303.86,87.9L306.44,90.3L309.01,83.04L311.59,98.05L314.16,91.07L316.74,88.17L319.31,90.17L321.89,104.35L324.46,87.15L327.04,95.95L329.61,92.99L332.19,99.68L334.76,112.42L339.91,106.99L342.49,119.89L345.06,127.34L347.64,141.4L350.21,171.86L352.79,185.52L355.36,194.62L357.94,210.47L365.66,325.51L368.24,415.1L370.81,481.83L373.39,522L375.96,541.63L378.54,550.6L381.11,558.44L383.69,605.14L386.26,636.44L388.84,653.36L391.42,662.17L393.99,665.64L396.57,676.32L399.14,671.18L401.72,686.89L404.29,690.52L406.87,693.83L409.44,688.83L412.02,699.61L414.59,703.62L417.17,699.38L419.74,699.38L424.89,708.59L427.47,703.73L430.04,702.71L432.62,708.76L435.19,712.78L437.77,700.32L440.34,707.85L442.92,709.78L448.07,707.75L450.64,705.17L453.22,714.79L455.79,713.13L458.37,709.2L460.94,712.56L463.52,716.55L466.09,707.36L468.67,712.65L471.24,712.83L473.82,714.6L476.39,713.96L478.97,707.63L481.54,717.76L484.12,709.7L486.69,712.51L491.84,711.7L494.42,719.46L496.99,711.95L499.57,710.35L509.87,684.84L512.44,670.73L515.02,666.31L517.59,633.35L520.17,603.18L522.75,600.99L525.32,588.9L527.9,555.26L530.47,510.97L533.05,407.17L538.2,265.83L540.77,250.15L543.35,244.99L545.92,204.63L548.5,155.48L551.07,134.37L556.22,90.2L558.8,85.32L561.37,82.5L563.95,78.08L566.52,76.43L569.1,83.56L571.67,82.78L574.25,79.28L576.82,80.65L579.4,84.82L581.97,82.93L584.55,83.77L587.12,89.83L589.7,89.23L592.27,89.41L594.85,81.88L597.42,92.69L600,89.71L602.57,93.71L605.15,87.55L607.72,78.52L610.3,93.6L612.87,90.9L615.45,95.03L618.02,89.47L620.6,79.68L623.17,94.7L625.75,91.76L628.32,96.8L630.9,96.84L633.47,81.54L636.05,91.38L638.62,95.18L641.2,90.84L643.77,97.69L646.35,97.37L648.92,97.33L651.5,89.17L654.08,90.43L656.65,98.13L659.23,94.75L661.8,100.69L669.53,93.89L672.1,93.42L677.25,114.43L679.83,98.89L682.4,91.8L684.98,101.75L690.13,97.57L692.7,97.23L697.85,83.01L700.43,83.67L703,84.62L705.58,87.34L708.15,85.68L710.73,78.29L713.3,74.75L715.88,73.53L718.45,78.63L721.03,76.6L723.6,73.6L726.18,84.98L728.75,82.24L731.33,77.53L733.9,83.05L736.48,78.15L741.63,83.78L744.2,72.42L746.78,68.57L749.35,80.94L751.93,83.75L754.5,67.67L759.65,81.64L762.23,71.14L764.8,79.83L767.38,82.28L769.95,70.48L772.53,76.84L775.1,87.54L777.68,82.66L780.25,76.62L782.83,80.28L785.41,77.99L787.98,69.09L790.56,78.12L793.13,81.8L795.71,71.66L798.28,74.24L800.86,82.52L803.43,75.57L806.01,73.78L808.58,81.01L811.16,83.01L813.73,78.15L818.88,77.84L821.46,71.38L826.61,79.87L829.18,75.71L831.76,77.67L834.33,83.33L836.91,85.66L839.48,80.49L842.06,87L844.63,86.69L847.21,80.32L849.78,82.87L852.36,90.44L854.93,104.18L857.51,117.88L860.08,125.48L865.23,157.52L867.81,177.75L870.38,191.95L872.96,218.36L883.26,478.59L885.83,522.92L890.98,564.13L893.56,572.19L896.13,613.59L898.71,619.16L901.28,640L903.86,670.09L906.43,666.89L909.01,671.06L911.58,672.96L914.16,672L916.74,672.84L919.31,692.8L921.89,695.3L924.46,706.02L932.19,711.87L934.76,715.58L937.34,694.08L939.91,714.31L945.06,717.33L947.64,718.21L952.79,719.47L955.36,703.44L957.94,716.17L960.51,719.95L963.09,717.61L965.66,722.69L968.24,708.61L970.81,717.49L973.39,707.2L975.96,723.16L978.54,718.43L981.11,706.25L983.69,714.3L986.26,714.27L988.84,713.48L991.41,706.64L996.56,706.92L999.14,708.99L1001.71,687.4L1004.29,674.92L1006.86,661.91L1009.44,639.78L1012.01,605.04L1014.59,597.79L1017.16,547.1L1019.74,451.29L1022.31,396.77L1024.89,301.97L1027.46,226.74L1030.04,205.63L1032.61,174.77L1035.19,168.64L1037.76,118.58L1040.34,123.29L1042.92,119.9L1045.49,96.57L1048.07,94.84L1050.64,88.92L1055.79,83.95L1058.37,77.54L1060.94,76.13L1063.52,76.41L1066.09,67.09L1068.67,80.32L1071.24,73.54L1073.82,72.45L1076.39,79.24L1078.97,67.85L1081.54,69.71L1084.12,72.83L1086.69,68.1L1089.27,69.76L1094.42,71.84L1096.99,75.57L1099.57,72.03L1102.14,72.03L1104.72,72.06L1107.29,76.08L1112.44,76.62L1115.02,80.56L1120.17,76.62L1122.74,80.68L1125.32,86.4L1127.89,77.06L1130.47,78.96L1133.04,87.47L1135.62,83.39L1138.19,84.23L1140.77,83.47L1143.34,86.94L1145.92,81.71L1148.49,86.65L1151.07,89.79L1153.64,85.09L1158.79,91.31L1161.37,90.79L1163.94,83.21L1166.52,85.63L1169.09,91.31L1171.67,78.46L1176.82,86.01L1179.4,84.69L1181.97,82.31L1184.55,85.11L1187.12,84.66L1189.7,81.31L1192.27,81.5L1194.85,78.39L1197.42,81.27L1200,81.23L1202.57,78.42L1205.15,81.27L1207.72,81.26L1210.3,84.78L1212.87,85.34L1215.45,84.17L1218.02,80.83L1220.6,80.47L1223.17,76.38L1225.75,83.37L1228.32,79.43L1230.9,77.74L1233.47,82.67L1236.05,80.82L1238.62,80.73L1241.2,86.52L1243.77,84.6L1246.35,94.67L1248.92,85.42L1251.5,82.4L1256.65,83.24L1259.22,79.62L1261.8,75.78L1264.37,81.97L1266.95,74.75L1269.52,90.33L1274.67,83.54L1277.25,97.54L1279.82,79.73L1282.4,85.53L1284.97,81.68L1287.55,86.22L1292.7,81.41L1295.27,83.12L1297.85,81.61L1300.42,71.84L1303,84.49L1305.58,82.38L1308.15,81.48L1310.73,97L1313.3,84L1315.88,84.38L1318.45,84.56L1321.03,79.45L1323.6,79.85L1326.18,83.74L1328.75,85.1L1331.33,84.85L1333.9,85.1L1336.48,79.36L1341.63,87.42L1344.2,84.55L1346.78,81.96L1349.35,81.27L1351.93,88.48L1354.5,83.46L1357.08,85.07L1359.65,94.66L1362.23,86.17L1364.8,81.23L1372.53,88.41L1375.1,86.81L1377.68,83.45L1380.25,84.49L1382.83,81.72L1385.4,80.87L1387.98,87.86L1390.55,85.43L1393.13,84.98L1395.7,82.99L1398.28,84.43L1400.85,79.86L1403.43,85.82L1406,87.33L1408.58,87.38L1411.15,89.52L1413.73,83.21L1416.3,83.97L1418.88,86.22L1421.45,82.29L1426.6,81.71L1429.18,78.4L1431.75,76.96L1434.33,80.9L1436.91,80.15L1439.48,78.29L1442.06,84.64L1444.63,82.04L1447.21,75.31L1449.78,84.4L1452.36,81.04L1454.93,75.67L1457.51,84.31L1460.08,80.67L1462.66,76.49L1465.23,84.31L1470.38,77.58L1472.96,84.34L1478.11,78.82L1480.68,84.38L1483.26,81.49L1485.83,80.13L1488.41,84.47L1490.98,81.48L1493.56,81.56L1496.13,84.66L1498.71,81.05L1501.28,83.16L1503.86,85.05L1506.43,80.36L1509.01,84.8L1511.58,85.69L1514.16,79.64L1516.73,85.92L1519.31,86.41L1521.88,79.07L1524.46,86.04L1527.03,86.98L1529.61,78.74L1532.18,85.3L1534.76,87.18L1537.33,78.72L1539.91,84.07L1542.48,86.9L1545.06,78.53L1547.63,82.85L1550.21,86.1L1552.78,77.58L1555.36,82.36L1557.93,84.92L1560.51,75.92L1563.08,82.18L1565.66,83.33L1568.24,73.96L1570.81,80.65L1573.39,81.45L1575.96,71.96L1578.54,78.21L1581.11,79.75L1583.69,70.12L1586.26,77.19L1588.84,78.8L1591.41,68.62L1593.99,78.38L1596.56,78.98L1599.14,67.93L1601.71,78.62L1604.29,80.35L1606.86,69.68L1609.44,81.42L1612.01,84.99L1614.59,79.72L1617.16,93.91L1619.74,99.16L1622.31,99.86L1624.89,116.71L1627.46,126.02L1630.04,126.64L1632.61,193.17L1635.19,226.35L1645.49,545.22L1648.06,561.64L1650.64,573.62L1653.21,639.46L1655.79,670.12L1658.36,681.98L1660.94,709.07L1663.51,705.99L1666.09,710.67L1668.66,713.23L1671.24,717.24L1673.81,710.56L1676.39,716.27L1678.96,713.71L1681.54,717.39L1684.11,714.44L1686.69,714.35L1689.26,713.1L1691.84,714.74L1694.42,708.15L1696.99,705.65L1699.57,704.9L1702.14,710.01L1704.72,702.57L1707.29,698.78L1709.87,699.98L1712.44,704.32L1715.02,696.9L1717.59,691.8L1720.17,699.45L1722.74,695.54L1725.32,686.76L1727.89,676.81L1730.47,685.83L1733.04,692.06L1735.62,681.82L1738.19,669.64L1740.77,679.62L1743.34,641.7L1745.92,675.63L1748.49,669.2L1751.07,636L1753.64,635.59L1756.22,615.8L1758.79,600L1761.37,601.37L1763.94,563.08L1766.52,448.93L1771.67,290.45L1774.24,256.51L1779.39,217.48L1781.97,183.31L1784.54,179.38L1787.12,170.99L1792.27,145.61L1794.84,111.7L1797.42,137.99L1799.99,130.15L1805.14,106.28L1807.72,105.3L1810.29,81.8L1812.87,87.42L1815.44,91.27L1818.02,83.98L1820.59,78.25L1823.17,76.52L1825.75,76.26L1828.32,69.99L1830.9,79.2L1833.47,75.85L1836.05,73.73L1838.62,68.65L1841.2,72.08L1843.77,58.61L1846.35,65.16L1848.92,52.82L1851.5,62.66L1854.07,63.14L1856.65,73.51L1859.22,69.3L1861.8,72.07L1864.37,92.53L1866.95,96.51L1869.52,107.09L1872.1,101.89L1874.67,81.73L1877.25,89.69L1879.82,75.32L1882.4,75.52L1884.97,89.95L1887.55,100.04L1890.12,91.73L1892.7,90.5L1895.27,90.63L1897.85,98.14L1900.42,92.84L1903,90.51L1905.57,85.65L1908.15,100.35L1910.72,92.67L1913.3,89.61L1915.87,94.76L1921.02,98.21L1923.6,100.6L1926.17,123.94L1928.75,92.33L1931.32,137.21L1933.9,146.23L1936.47,142.31L1939.05,162.48L1944.2,207.56L1946.77,249.69L1949.35,251.66L1951.92,324.46L1954.5,369.62L1957.08,454.97L1962.23,567.31L1964.8,598.51L1967.38,586.74L1969.95,616.97L1975.1,640.55L1977.68,661.08L1980.25,679.05L1982.83,685.05L1985.4,679.57L1987.98,683.39L1990.55,685.85L1993.13,693.29L1995.7,694.61L1998.28,690.55L2000.85,674.29L2003.43,688.07L2006,700.35L2008.58,703.5L2011.15,678.54L2013.73,688.63L2016.3,699.59L2018.88,703.87L2021.45,697.73L2024.03,698.66L2026.6,709.36L2029.18,702.84L2031.75,692.72L2034.33,699.55L2036.9,717.65L2039.48,712.99L2042.05,716.99L2044.63,716.85L2047.2,728.03L2049.78,727.15L2052.35,728.03L2054.93,735.93L2057.5,737.59L2060.08,737.52L2062.65,716.77L2065.23,736.14L2070.38,738.2L2072.95,733.9L2075.53,725.66L2078.1,725.51L2083.25,719.47L2085.83,718.32L2088.41,706.62L2090.98,712.57L2093.56,718.09L2096.13,706.36L2098.71,709.76L2101.28,700.8L2103.86,689.58L2106.43,691.26L2109.01,691.04L2111.58,695.81L2114.16,682.73L2116.73,699.06L2119.31,709.29L2121.88,697.23L2124.46,699.04L2127.03,698.4L2129.61,689.63L2132.18,699.15L2134.76,704.24L2137.33,700.58L2139.91,698.78L2142.48,700.35L2145.06,715.75L2147.63,709.18L2150.21,708.95L2152.78,713.89L2155.36,710.11L2157.93,715.31L2160.51,714.67L2163.08,711.22L2165.66,708.71L2168.23,710.67L2173.38,720.07L2175.96,716.16L2178.53,716.23L2181.11,718.54L2183.68,715.27L2186.26,718.21L2188.83,718.18L2191.41,719.84L2193.98,716.97L2196.56,716.39L2199.13,720.1L2201.71,715.81L2206.86,716.43L2209.43,714.96L2212.01,716.77L2214.58,715.97L2217.16,717.91L2219.74,715.54L2222.31,715.1L2224.89,711.21L2230.04,716.28L2232.61,713.64L2237.76,717.69L2240.34,713.58L2245.49,717.24L2248.06,713.23L2250.64,714.2L2253.21,716.65L2255.79,705.08L2258.36,709.75L2263.51,713.49L2266.09,712.93L2268.66,710.02L2271.24,709.19L2273.81,712.28L2276.39,711.73L2278.96,713.48L2281.54,710.38L2284.11,709.91L2286.69,713.57L2289.26,709.41L2291.84,711.8L2294.41,712.87L2296.99,712.21L2299.56,713.81L2302.14,712.6L2304.71,714.14L2307.29,712.95L2309.86,714.36L2312.44,713.26L2315.01,714.5L2317.59,713.5L2320.16,714.6L2322.74,713.67L2325.31,714.66L2327.89,713.72L2330.46,716.9L2333.04,715.79L2335.61,710.84L2338.19,710.22L2340.76,715.7L2343.34,713.9L2345.92,714.86L2348.49,710.48L2351.07,712.05L2353.64,710.29L2356.22,711.02L2358.79,708.44L2361.37,709.46L2363.94,706.45L2366.52,707.44L2369.09,706.53L2371.67,706.72L2374.24,703.48L2376.82,698.28L2379.39,705.3L2384.54,703.29L2387.12,688.38L2389.69,690.14L2392.27,685.77L2394.84,669.97L2397.42,661.73L2399.99,677.57L2402.57,664.49L2405.14,637.35L2407.72,598.63L2410.29,589.23L2412.87,541.01L2415.44,523.03L2418.02,384.07L2420.59,298.31L2423.17,267.68L2425.74,219.34L2428.32,193.99L2430.89,155.78L2433.47,171.9L2438.62,121.64L2441.19,115.39L2443.77,110.42L2446.34,102.19L2448.92,102.08L2451.49,90.25L2454.07,84.48L2456.64,88.14L2459.22,83.15L2461.79,81.83L2464.37,83.03L2466.94,86.94L2469.52,80.15L2472.09,78.93L2474.67,87.28L2477.25,81.58L2479.82,77.84L2482.4,81.01L2484.97,83.18L2487.55,80.4L2490.12,76.3L2492.7,66.42L2495.27,82.09L2497.85,81.43L2500.42,82.89L2503,53.84L2505.57,79.69L2508.15,84.01L2513.3,84.08L2515.87,87.75L2518.45,89.28L2521.02,82.33L2523.6,81.28L2526.17,81.63L2528.75,85.08L2531.32,80.23L2533.9,78.5L2536.47,86.35L2541.62,79.63L2544.2,85.12L2546.77,83.5L2549.35,80.05L2551.92,85.94L2554.5,83.77L2557.07,80.6L2559.65,83.52L2562.22,84.02L2564.8,87.26L2567.37,91.65L2569.95,93.53L2572.52,89.47L2575.1,90.34L2577.67,84.34L2580.25,81.07L2582.82,84.68L2585.4,95.92L2590.55,83.06L2593.12,115.04L2595.7,86.35L2598.27,78.69L2600.85,83.28L2603.42,80.88L2606,90.5" style="vector-effect: non-scaling-stroke; fill: none; stroke: rgb(170, 0, 0); stroke-opacity: 1; stroke-width: 4px; opacity: 1;"/></g><g class="points"/><g class="text"/></g><g class="trace scatter traceca533c" style="stroke-miterlimit: 2; opacity: 1;"><g class="fills"/><g class="errorbars"/><g class="lines"><path class="js-line" d="M0,86.87L2.58,91.3L5.15,91.15L7.73,84.52L10.3,86.85L15.45,88.81L18.03,91.46L20.6,80.32L23.18,83.77L25.75,77.34L28.33,82.48L30.9,82.3L33.48,79.3L36.05,80.34L38.63,79.97L41.2,80.84L43.78,74.49L46.35,80.82L48.93,79.55L51.5,75.89L54.08,84.1L56.65,78.77L59.23,77.35L64.38,77.04L66.95,74.07L69.53,78.11L72.1,76.5L74.68,73.32L77.25,77.85L79.83,75.94L82.4,72.6L84.98,77.62L87.55,75.39L90.13,71.93L92.7,77.42L97.85,71.32L100.43,77.24L105.58,70.79L108.15,80.71L110.73,73.21L113.3,72.64L115.88,76.25L118.45,78.1L121.03,77.13L123.6,74.99L126.18,75.54L128.75,79.4L131.33,73.03L133.91,72.95L136.48,78L139.06,78.65L141.63,82.49L144.21,76.24L149.36,81.8L151.93,81.5L154.51,85L157.08,79.08L159.66,81.67L162.23,88.09L164.81,86.65L167.38,86.59L169.96,87.05L172.53,88.93L175.11,95.29L177.68,87.84L180.26,90.11L182.83,100.53L185.41,95.53L187.98,98.69L190.56,88.11L193.13,93.25L195.71,89.39L198.28,89.2L200.86,87.79L203.43,83.31L206.01,77.51L208.58,77.74L211.16,68.57L213.73,69.35L216.31,71.38L218.88,58.54L224.03,67.35L226.61,61.98L229.18,64.66L231.76,65.22L234.33,64.28L236.91,65.67L239.48,68.5L242.06,76.47L244.63,75.91L247.21,83.62L249.78,83.69L252.36,88.41L257.51,95.82L260.08,108.03L262.66,99.83L265.24,97.34L267.81,99.31L270.39,87.21L272.96,102.42L275.54,96.99L278.11,103.57L280.69,90.62L283.26,96.16L285.84,96.09L288.41,92.32L290.99,91.5L293.56,89.68L296.14,94.45L298.71,100.33L301.29,96.4L303.86,92.51L306.44,95.74L309.01,96.18L311.59,93.09L314.16,101.83L316.74,95.83L319.31,99.88L321.89,100.53L324.46,110.62L327.04,109.98L329.61,102.53L332.19,112.42L334.76,116.22L337.34,127.64L339.91,125.2L342.49,132.57L347.64,169.81L350.21,155.88L352.79,177.81L355.36,183.58L360.51,238.45L363.09,303.34L368.24,450.17L370.81,468.2L373.39,530.25L375.96,558.37L378.54,578.39L381.11,579.3L383.69,614.31L386.26,621.05L391.42,647.31L393.99,655.7L404.29,684.21L406.87,673.4L409.44,684.58L412.02,689.1L414.59,684.27L417.17,689.85L419.74,680.94L422.32,688.99L424.89,693.96L427.47,695.73L430.04,685.94L432.62,694.48L437.77,698.83L440.34,696.98L448.07,703.24L450.64,696.74L453.22,698.96L455.79,691.67L458.37,703.56L460.94,709.22L463.52,713.12L466.09,700.71L468.67,706.4L471.24,709.28L473.82,712.59L476.39,713.76L478.97,711.1L481.54,713.58L484.12,714.01L486.69,717.47L489.27,711.11L491.84,714.35L494.42,712.41L496.99,713.45L499.57,710L502.14,711.98L504.72,708.34L507.29,699.7L509.87,699.32L512.44,677.23L515.02,644.67L517.59,632.34L520.17,621.23L522.75,604.71L525.32,577.07L527.9,531.25L530.47,497.73L533.05,480.64L538.2,314.58L540.77,241.17L545.92,208.59L548.5,145.93L551.07,92.68L553.65,90.72L556.22,88.6L558.8,91.66L561.37,82.86L563.95,81.36L566.52,78.32L569.1,78.65L574.25,83.69L576.82,85.01L584.55,83.39L587.12,88.01L592.27,87.99L594.85,91.51L600,99.45L602.57,95.19L605.15,91.99L607.72,103.1L610.3,98.9L612.87,99.47L615.45,109.98L618.02,96.28L620.6,100.84L623.17,111.72L625.75,98.51L628.32,102.41L630.9,112.3L633.47,99.92L636.05,104.03L638.62,111.35L641.2,108.16L643.77,94.74L646.35,112.63L648.92,102.87L651.5,90.21L654.08,101.51L656.65,100.91L659.23,86.42L666.95,110.37L669.53,102.52L672.1,95.5L674.68,96.16L677.25,99.44L679.83,97.93L682.4,103.27L684.98,98.22L687.55,86.34L690.13,94.65L692.7,92.87L695.28,95.22L697.85,92.74L700.43,87.43L705.58,84.33L708.15,77.14L710.73,82.15L713.3,82.81L718.45,70.02L721.03,64.14L723.6,80.57L726.18,83.28L731.33,68.45L733.9,62.71L736.48,80.38L739.05,85.11L744.2,65.81L746.78,62.39L749.35,79.57L751.93,88.74L757.08,71.74L759.65,82.95L762.23,85.2L764.8,81.34L767.38,81.71L769.95,75.89L775.1,76.93L777.68,75.9L780.25,75.04L782.83,66.9L785.41,76.26L787.98,77L790.56,75.15L793.13,66.69L795.71,74.67L798.28,77.4L800.86,76.09L803.43,67.98L806.01,73.99L808.58,77.21L811.16,76.25L813.73,68.72L816.31,78.7L818.88,77.68L821.46,73.71L824.03,63.13L826.61,75.74L829.18,79.62L831.76,74.69L834.33,81.5L839.48,82.39L842.06,69.05L844.63,85.1L847.21,78.22L852.36,97.79L854.93,103.67L857.51,106.72L860.08,132.14L862.66,144.82L865.23,163.1L867.81,175.6L870.38,204.09L872.96,217.08L875.53,245.62L878.11,362.49L880.68,428.62L885.83,509L888.41,529.22L890.98,561.32L893.56,570.49L901.28,613.63L903.86,611.78L906.43,635.47L909.01,644.54L911.58,642.36L914.16,657.19L916.74,662.04L919.31,660.63L924.46,677.62L927.04,668.96L932.19,685.23L934.76,676.44L937.34,686.41L939.91,701.19L942.49,695.28L945.06,701.04L947.64,699.55L950.21,691.42L952.79,708.59L955.36,697.71L960.51,716.37L963.09,721.67L965.66,718.43L968.24,728.54L970.81,732.52L973.39,730.12L975.96,736.33L978.54,736.07L981.11,735.59L983.69,739.85L986.26,735.24L988.84,733.66L991.41,731.47L993.99,726.53L996.56,726.11L999.14,719.64L1004.29,709.92L1006.86,696.46L1009.44,684.5L1012.01,652.01L1014.59,597.36L1017.16,486.66L1019.74,453L1022.31,383.93L1024.89,324.49L1027.46,150.72L1030.04,128.43L1032.61,115.87L1040.34,81.52L1042.92,81.94L1045.49,77.46L1048.07,76.8L1053.22,68.78L1055.79,71.7L1058.37,66.42L1060.94,65L1063.52,54.95L1066.09,54.44L1068.67,64.51L1071.24,59.04L1073.82,59.44L1076.39,52.47L1078.97,111.87L1081.54,64.8L1084.12,71.26L1086.69,71.72L1089.27,72.44L1091.84,82.51L1094.42,126.66L1096.99,88.73L1099.57,84.58L1102.14,86.52L1104.72,88.89L1107.29,87.87L1109.87,91.49L1112.44,97.69L1115.02,80.77L1117.59,103.23L1122.74,77.35L1125.32,88.71L1127.89,87.63L1130.47,91L1133.04,86.48L1135.62,87.13L1138.19,95.82L1140.77,93.97L1143.34,91.74L1145.92,78.97L1151.07,100.16L1153.64,84.45L1156.22,88.1L1158.79,85.17L1161.37,88.19L1163.94,79.06L1169.09,96.64L1171.67,135.57L1174.25,79.59L1176.82,81.2L1179.4,87.35L1181.97,76.91L1184.55,88.04L1187.12,39.8L1189.7,98.94L1192.27,88.24L1194.85,95.65L1197.42,88.91L1200,111.09L1202.57,97.46L1205.15,96.92L1207.72,97.74L1210.3,84.09L1212.87,87.49L1218.02,88.36L1220.6,80.23L1225.75,99.16L1228.32,91.8L1230.9,83.26L1233.47,86.16L1238.62,87.07L1241.2,84.14L1243.77,97.12L1246.35,84.26L1248.92,93.1L1251.5,89.13L1254.07,79.29L1256.65,80.64L1259.22,81.2L1261.8,84.33L1264.37,81.62L1266.95,92.19L1269.52,98.29L1272.1,78.87L1274.67,75.76L1277.25,77.68L1279.82,79.33L1282.4,83.72L1284.97,76.66L1287.55,81.01L1290.12,78.71L1292.7,71.6L1297.85,75.78L1300.42,92.71L1303,81.35L1305.58,75.77L1308.15,82.83L1310.73,76.38L1313.3,83.06L1315.88,81.26L1321.03,76.58L1323.6,77.79L1326.18,82.44L1328.75,79.48L1333.9,94.63L1336.48,78.28L1339.05,84.49L1341.63,78.81L1344.2,85.87L1346.78,86.16L1349.35,87.15L1351.93,94.99L1354.5,90.01L1357.08,88.12L1359.65,101.82L1362.23,108.5L1364.8,88.99L1367.38,92.88L1369.95,112.01L1372.53,103.46L1375.1,85.91L1377.68,94.67L1380.25,94.88L1382.83,92.58L1385.4,95.66L1387.98,92.12L1390.55,93.49L1393.13,97.45L1395.7,90.46L1398.28,91.42L1400.85,99.28L1403.43,89.68L1406,93.5L1408.58,86.13L1411.15,85.12L1413.73,88.6L1416.3,83.13L1418.88,88.58L1421.45,88.02L1424.03,82.59L1426.6,79.94L1429.18,81.01L1431.75,84.84L1434.33,83.04L1436.91,81.23L1439.48,80.96L1442.06,79.56L1444.63,79.43L1447.21,75.93L1449.78,75.68L1454.93,77.11L1457.51,75.63L1460.08,74.85L1462.66,72.04L1467.81,79.09L1470.38,74.43L1472.96,71.12L1475.53,72.02L1478.11,75.89L1480.68,77.25L1483.26,74.71L1485.83,74.31L1488.41,75.12L1490.98,78.41L1496.13,71.17L1498.71,70.91L1501.28,78.45L1503.86,77.62L1506.43,71.29L1509.01,69.33L1511.58,78.24L1514.16,78.04L1516.73,72.78L1519.31,71.89L1521.88,82.9L1524.46,78.27L1527.03,76.44L1529.61,81.08L1532.18,81.33L1534.76,84.6L1537.33,76.74L1539.91,83.27L1545.06,79.74L1547.63,83.96L1550.21,84.12L1552.78,87.3L1555.36,77.7L1557.93,83.04L1560.51,83.62L1563.08,81.46L1565.66,82.07L1568.24,84.39L1570.81,87.91L1573.39,77.86L1578.54,85.15L1581.11,80.91L1583.69,78.37L1586.26,84.37L1588.84,85.17L1591.41,76.71L1593.99,83.52L1596.56,84.96L1599.14,80.73L1601.71,84.5L1604.29,85.41L1606.86,82.93L1609.44,87.08L1612.01,88.57L1614.59,90.62L1617.16,95.01L1619.74,99.11L1622.31,120.34L1627.46,145.29L1630.04,184.37L1635.19,233.72L1637.76,272.87L1640.34,350.98L1642.91,462.77L1645.49,486.89L1648.06,539.91L1650.64,616.14L1653.21,636.51L1658.36,661.98L1660.94,706.34L1663.51,695.41L1666.09,702.05L1668.66,710.35L1671.24,703.35L1673.81,708.89L1676.39,706.08L1678.96,699.8L1681.54,699.02L1684.11,707.12L1686.69,701.2L1689.26,694.2L1691.84,692.96L1696.99,705.27L1699.57,695.66L1702.14,682.93L1704.72,696.39L1707.29,693.74L1709.87,689.13L1712.44,678.83L1715.02,692.52L1717.59,706.34L1720.17,689.42L1722.74,679.54L1725.32,676.28L1730.47,693.6L1733.04,681.97L1735.62,652.06L1738.19,668.86L1740.77,679.94L1743.34,654.53L1745.92,653.79L1748.49,649.91L1751.07,637.66L1753.64,636.01L1756.22,599.51L1758.79,583.55L1761.37,587.81L1763.94,536.64L1766.52,526.8L1769.09,454.56L1771.67,324.2L1774.24,268.9L1779.39,227.78L1781.97,196.05L1787.12,182.82L1789.69,131.86L1792.27,168.18L1794.84,161.7L1797.42,154.52L1799.99,144.41L1802.57,142.39L1805.14,137.49L1807.72,143.69L1810.29,127.27L1815.44,142.28L1818.02,124.63L1820.59,145.34L1823.17,134.2L1825.75,127.19L1828.32,125.57L1830.9,121.31L1833.47,98.65L1836.05,107.96L1838.62,93.27L1841.2,68.81L1843.77,76.82L1846.35,76.85L1848.92,49.2L1851.5,48.87L1854.07,40.81L1856.65,48.77L1859.22,43.67L1861.8,45.93L1864.37,61.42L1866.95,62.16L1869.52,70.31L1872.1,79.33L1874.67,83.97L1877.25,86.25L1879.82,95.61L1882.4,94.92L1884.97,105.19L1887.55,95.8L1890.12,115.19L1892.7,122.22L1895.27,105.66L1897.85,127.83L1900.42,115.09L1905.57,132.79L1908.15,119.98L1910.72,128.04L1913.3,145.12L1915.87,134.58L1918.45,136.59L1921.02,156.78L1923.6,143.83L1926.17,150.91L1928.75,163.05L1931.32,161.06L1933.9,164.79L1941.62,204.22L1944.2,216.26L1951.92,326.63L1954.5,428.13L1957.08,493.63L1959.65,532.42L1962.23,564.53L1964.8,573.04L1967.38,604.29L1969.95,610.75L1972.53,627.21L1975.1,661.63L1977.68,638.77L1980.25,641.88L1982.83,663.81L1985.4,660.02L1987.98,663.66L1990.55,656.86L1993.13,662.28L1995.7,683.08L1998.28,669.69L2000.85,674.23L2003.43,657.1L2006,663.76L2011.15,673.47L2013.73,666.99L2016.3,668.91L2018.88,686.27L2021.45,674.18L2024.03,675.21L2026.6,687.45L2029.18,670.43L2031.75,702.13L2034.33,679.9L2036.9,703.88L2039.48,694.25L2042.05,712.39L2044.63,718.05L2047.2,727.11L2049.78,727.88L2052.35,744.22L2054.93,741.83L2057.5,756.2L2060.08,749.28L2062.65,752.27L2065.23,737.06L2070.38,722.39L2072.95,704.92L2075.53,702.35L2078.1,693.3L2080.68,701.31L2083.25,692.75L2085.83,679.46L2088.41,672L2090.98,670.37L2093.56,683.66L2096.13,676.48L2098.71,672.92L2101.28,678.92L2103.86,678.31L2106.43,689L2109.01,681.07L2111.58,670.16L2114.16,682.35L2116.73,690.84L2119.31,686.03L2121.88,685.85L2124.46,693.18L2127.03,706.91L2129.61,698.15L2132.18,692.75L2134.76,692.85L2137.33,708.83L2139.91,709.57L2142.48,713.7L2145.06,702.24L2147.63,704.59L2150.21,697.59L2152.78,689.02L2155.36,720.21L2160.51,670.51L2163.08,697.03L2165.66,691.37L2168.23,670.82L2170.81,685.02L2173.38,690.69L2175.96,671.86L2178.53,695.12L2181.11,710.56L2183.68,692.29L2186.26,674.35L2188.83,692.66L2191.41,701.23L2193.98,676.87L2199.13,709.78L2201.71,692.15L2204.28,702L2206.86,704.3L2209.43,723.95L2212.01,708.35L2214.58,696.17L2217.16,701.48L2219.74,715.68L2222.31,711.33L2224.89,715.1L2227.46,710.88L2230.04,714.26L2232.61,710.78L2235.19,713.27L2237.76,708.24L2242.91,711.37L2245.49,707.3L2248.06,710.87L2250.64,701.46L2253.21,704.37L2255.79,710.49L2258.36,703.6L2260.94,709.03L2263.51,700.05L2266.09,698.1L2268.66,710.98L2271.24,712.19L2273.81,706.94L2276.39,707.37L2278.96,708.41L2281.54,702.41L2284.11,700.36L2286.69,709.39L2289.26,711.18L2291.84,696.97L2294.41,707.18L2296.99,707.01L2302.14,710.51L2304.71,708.59L2307.29,712.35L2309.86,709.3L2312.44,711.85L2315.01,710.45L2317.59,706.23L2320.16,715.82L2325.31,708.61L2327.89,713.3L2330.46,719.27L2333.04,716.96L2335.61,717.62L2338.19,719.56L2348.49,723.45L2351.07,718.75L2353.64,715.81L2356.22,720.5L2358.79,722.56L2361.37,716.06L2363.94,715.5L2366.52,720.04L2371.67,714.18L2374.24,716.23L2376.82,718.02L2379.39,713.76L2381.97,711.07L2384.54,709.92L2392.27,689.09L2394.84,676.17L2397.42,683.16L2399.99,675.17L2405.14,632.71L2407.72,588.84L2412.87,555.52L2415.44,482.9L2420.59,296.33L2423.17,257.24L2430.89,152.71L2433.47,135.68L2438.62,100.89L2441.19,97.15L2443.77,77.73L2446.34,82.88L2448.92,86.65L2451.49,85.74L2456.64,81.65L2459.22,75.35L2461.79,78.84L2464.37,77.89L2466.94,76.86L2469.52,71.7L2472.09,68.75L2474.67,75.12L2477.25,77.65L2479.82,74.41L2482.4,75.69L2484.97,72.69L2487.55,64.94L2490.12,70.31L2492.7,82.06L2495.27,81.76L2497.85,76.47L2500.42,77.27L2503,84.13L2505.57,77.31L2508.15,77.93L2510.72,81.64L2513.3,81.47L2515.87,82.91L2518.45,86.44L2521.02,88.12L2523.6,72.05L2526.17,86.13L2528.75,86.54L2531.32,91.67L2533.9,91.03L2536.47,85.58L2539.05,88.17L2541.62,85.53L2544.2,90.22L2546.77,88.08L2549.35,89.28L2551.92,94.54L2554.5,100.24L2557.07,88.76L2559.65,84.78L2562.22,95.07L2564.8,82.54L2567.37,89.36L2569.95,89.9L2572.52,94.43L2575.1,89.31L2577.67,92.61L2580.25,86.51L2582.82,87.12L2587.97,91.74L2590.55,84.32L2593.12,103.81L2595.7,102.76L2598.27,80.65L2600.85,87.47L2603.42,88.86L2606,81.86" style="vector-effect: non-scaling-stroke; fill: none; stroke: rgb(0, 170, 0); stroke-opacity: 1; stroke-width: 4px; opacity: 1;"/></g><g class="points"/><g class="text"/></g></g></g><g class="overplot"/><path class="xlines-above crisp" d="M0,0" style="fill: none;"/><path class="ylines-above crisp" d="M0,0" style="fill: none;"/><g class="overlines-above"/><g class="xaxislayer-above"><g class="xtick"><text text-anchor="middle" x="0" y="934" transform="translate(136,0)" style="font-family: 'Open Sans', verdana, arial, sans-serif; font-size: 37px; fill: rgb(42, 63, 95); fill-opacity: 1; white-space: pre; opacity: 1;">0</text></g><g class="xtick"><text text-anchor="middle" x="0" y="934" style="font-family: 'Open Sans', verdana, arial, sans-serif; font-size: 37px; fill: rgb(42, 63, 95); fill-opacity: 1; white-space: pre; opacity: 1;" transform="translate(651.02,0)">200</text></g><g class="xtick"><text text-anchor="middle" x="0" y="934" style="font-family: 'Open Sans', verdana, arial, sans-serif; font-size: 37px; fill: rgb(42, 63, 95); fill-opacity: 1; white-space: pre; opacity: 1;" transform="translate(1166.04,0)">400</text></g><g class="xtick"><text text-anchor="middle" x="0" y="934" style="font-family: 'Open Sans', verdana, arial, sans-serif; font-size: 37px; fill: rgb(42, 63, 95); fill-opacity: 1; white-space: pre; opacity: 1;" transform="translate(1681.06,0)">600</text></g><g class="xtick"><text text-anchor="middle" x="0" y="934" style="font-family: 'Open Sans', verdana, arial, sans-serif; font-size: 37px; fill: rgb(42, 63, 95); fill-opacity: 1; white-space: pre; opacity: 1;" transform="translate(2196.08,0)">800</text></g><g class="xtick"><text text-anchor="middle" x="0" y="934" style="font-family: 'Open Sans', verdana, arial, sans-serif; font-size: 37px; fill: rgb(42, 63, 95); fill-opacity: 1; white-space: pre; opacity: 1;" transform="translate(2711.1,0)">1000</text></g></g><g class="yaxislayer-above"><g class="ytick"><text text-anchor="end" x="135" y="12.95" transform="translate(0,870.29)" style="font-family: 'Open Sans', verdana, arial, sans-serif; font-size: 37px; fill: rgb(42, 63, 95); fill-opacity: 1; white-space: pre; opacity: 1;">−10</text></g><g class="ytick"><text text-anchor="end" x="135" y="12.95" style="font-family: 'Open Sans', verdana, arial, sans-serif; font-size: 37px; fill: rgb(42, 63, 95); fill-opacity: 1; white-space: pre; opacity: 1;" transform="translate(0,703.65)">−5</text></g><g class="ytick"><text text-anchor="end" x="135" y="12.95" style="font-family: 'Open Sans', verdana, arial, sans-serif; font-size: 37px; fill: rgb(42, 63, 95); fill-opacity: 1; white-space: pre; opacity: 1;" transform="translate(0,537.01)">0</text></g><g class="ytick"><text text-anchor="end" x="135" y="12.95" style="font-family: 'Open Sans', verdana, arial, sans-serif; font-size: 37px; fill: rgb(42, 63, 95); fill-opacity: 1; white-space: pre; opacity: 1;" transform="translate(0,370.38)">5</text></g><g class="ytick"><text text-anchor="end" x="135" y="12.95" style="font-family: 'Open Sans', verdana, arial, sans-serif; font-size: 37px; fill: rgb(42, 63, 95); fill-opacity: 1; white-space: pre; opacity: 1;" transform="translate(0,203.74)">10</text></g></g><g class="overaxes-above"/></g></g><g class="polarlayer"/><g class="ternarylayer"/><g class="geolayer"/><g class="funnelarealayer"/><g class="pielayer"/><g class="iciclelayer"/><g class="treemaplayer"/><g class="sunburstlayer"/><g class="glimages"/><defs id="topdefs-a99367"><g class="clips"/><clipPath id="legenda99367"><rect width="694" height="113" x="0" y="0"/></clipPath></defs><g class="layer-above"><g class="imagelayer"/><g class="shapelayer"/></g><g class="infolayer"><g class="legend" pointer-events="all" transform="translate(2794.12,100)"><rect class="bg" shape-rendering="crispEdges" width="694" height="113" x="0" y="0" style="stroke: rgb(68, 68, 68); stroke-opacity: 1; fill: rgb(255, 255, 255); fill-opacity: 1; stroke-width: 0px;"/><g class="scrollbox" transform="" clip-path="url(#legenda99367)"><g class="groups"><g class="traces" transform="translate(0,30.55)" style="opacity: 1;"><text class="legendtext" text-anchor="start" x="40" y="14.43" style="font-family: 'Open Sans', verdana, arial, sans-serif; font-size: 37px; fill: rgb(42, 63, 95); fill-opacity: 1; white-space: pre;">Predicted Curvature at Anchors #1</text><g class="layers" style="opacity: 1;"><g class="legendfill"/><g class="legendlines"><path class="js-line" d="M5,0h30" style="fill: none; stroke: rgb(170, 0, 0); stroke-opacity: 1; stroke-width: 4px;"/></g><g class="legendsymbols"><g class="legendpoints"/></g></g><rect class="legendtoggle" x="0" y="-25.55" width="688.125" height="51.1" style="fill: rgb(0, 0, 0); fill-opacity: 0;"/></g><g class="traces" transform="translate(0,81.65)" style="opacity: 1;"><text class="legendtext" text-anchor="start" x="40" y="14.43" style="font-family: 'Open Sans', verdana, arial, sans-serif; font-size: 37px; fill: rgb(42, 63, 95); fill-opacity: 1; white-space: pre;">Predicted Curvature at Anchors #2</text><g class="layers" style="opacity: 1;"><g class="legendfill"/><g class="legendlines"><path class="js-line" d="M5,0h30" style="fill: none; stroke: rgb(0, 170, 0); stroke-opacity: 1; stroke-width: 4px;"/></g><g class="legendsymbols"><g class="legendpoints"/></g></g><rect class="legendtoggle" x="0" y="-25.55" width="688.125" height="51.1" style="fill: rgb(0, 0, 0); fill-opacity: 0;"/></g></g></g><rect class="scrollbar" rx="20" ry="3" width="0" height="0" x="0" y="0" style="fill: rgb(128, 139, 164); fill-opacity: 1;"/></g><g class="g-gtitle"/><g class="g-xtitle"><text class="xtitle" x="1439" y="987.8" text-anchor="middle" style="font-family: 'Open Sans', verdana, arial, sans-serif; font-size: 44px; fill: rgb(42, 63, 95); opacity: 1; font-weight: normal; white-space: pre;">Anchor Point Index</text></g><g class="g-ytitle" transform="translate(32.1279296875,0)"><text class="ytitle" transform="rotate(-90,11.871875000000003,498)" x="11.871875000000003" y="498" text-anchor="middle" style="font-family: 'Open Sans', verdana, arial, sans-serif; font-size: 44px; fill: rgb(42, 63, 95); opacity: 1; font-weight: normal; white-space: pre;">Predicted Curvature</text></g><g class="annotation" data-index="0" style="opacity: 1;"><g class="annotation-text-g" transform="rotate(0,1439,66.49999999999993)"><g class="cursor-pointer" transform="translate(222,33)"><rect class="bg" x="0.5" y="0.5" width="2433" height="66" style="stroke-width: 1px; stroke: rgb(0, 0, 0); stroke-opacity: 0; fill: rgb(0, 0, 0); fill-opacity: 0;"/><text class="annotation-text" text-anchor="middle" x="1217.03125" y="54" style="font-family: 'Open Sans', verdana, arial, sans-serif; font-size: 52px; fill: rgb(42, 63, 95); fill-opacity: 1; white-space: pre;"><tspan style="font-weight:bold">Predicted Curvature at Anchors (Transformed Curve #1 vs. Transformed Curve #2)</tspan></text></g></g></g></g></svg>