<svg class="main-svg" xmlns="http://www.w3.org/2000/svg" xmlns:xlink="http://www.w3.org/1999/xlink" width="3500" height="1000" style="" viewBox="0 0 3500 1000"><rect x="0" y="0" width="3500" height="1000" style="fill: rgb(255, 255, 255); fill-opacity: 1;"/><defs id="defs-1bdb30"><g class="clips"><clipPath id="clip1bdb30xyplot" class="plotclip"><rect width="2606" height="796"/></clipPath><clipPath class="axesclip" id="clip1bdb30x"><rect x="136" y="0" width="2606" height="1000"/></clipPath><clipPath class="axesclip" id="clip1bdb30y"><rect x="0" y="100" width="3500" height="796"/></clipPath><clipPath class="axesclip" id="clip1bdb30xy"><rect x="136" y="100" width="2606" height="796"/></clipPath></g><g class="gradients"/><g class="patterns"/></defs><g class="bglayer"><rect class="bg" x="136" y="100" width="2606" height="796" style="fill: rgb(229, 236, 246); fill-opacity: 1; stroke-width: 0;"/></g><g class="layer-below"><g class="imagelayer"/><g class="shapelayer"/></g><g class="cartesianlayer"><g class="subplot xy"><g class="layer-subplot"><g class="shapelayer"/><g class="imagelayer"/></g><g class="gridlayer"><g class="x"><path class="xgrid crisp" transform="translate(634.28,0)" d="M0,100v796" style="stroke: rgb(255, 255, 255); stroke-opacity: 1; stroke-width: 1px;"/><path class="xgrid crisp" transform="translate(1132.56,0)" d="M0,100v796" style="stroke: rgb(255, 255, 255); stroke-opacity: 1; stroke-width: 1px;"/><path class="xgrid crisp" transform="translate(1630.84,0)" d="M0,100v796" style="stroke: rgb(255, 255, 255); stroke-opacity: 1; stroke-width: 1px;"/><path class="xgrid crisp" transform="translate(2129.12,0)" d="M0,100v796" style="stroke: rgb(255, 255, 255); stroke-opacity: 1; stroke-width: 1px;"/><path class="xgrid crisp" transform="translate(2627.4,0)" d="M0,100v796" style="stroke: rgb(255, 255, 255); stroke-opacity: 1; stroke-width: 1px;"/></g><g class="y"><path class="ygrid crisp" transform="translate(0,883.61)" d="M136,0h2606" style="stroke: rgb(255, 255, 255); stroke-opacity: 1; stroke-width: 1px;"/><path class="ygrid crisp" transform="translate(0,750.71)" d="M136,0h2606" style="stroke: rgb(255, 255, 255); stroke-opacity: 1; stroke-width: 1px;"/><path class="ygrid crisp" transform="translate(0,617.81)" d="M136,0h2606" style="stroke: rgb(255, 255, 255); stroke-opacity: 1; stroke-width: 1px;"/><path class="ygrid crisp" transform="translate(0,352.01)" d="M136,0h2606" style="stroke: rgb(255, 255, 255); stroke-opacity: 1; stroke-width: 1px;"/><path class="ygrid crisp" transform="translate(0,219.11)" d="M136,0h2606" style="stroke: rgb(255, 255, 255); stroke-opacity: 1; stroke-width: 1px;"/></g></g><g class="zerolinelayer"><path class="xzl zl crisp" transform="translate(136,0)" d="M0,100v796" style="stroke: rgb(255, 255, 255); stroke-opacity: 1; stroke-width: 2px;"/><path class="yzl zl crisp" transform="translate(0,484.91)" d="M136,0h2606" style="stroke: rgb(255, 255, 255); stroke-opacity: 1; stroke-width: 2px;"/></g><path class="xlines-below"/><path class="ylines-below"/><g class="overlines-below"/><g class="xaxislayer-below"/><g class="yaxislayer-below"/><g class="overaxes-below"/><g class="plot" transform="translate(136,100)" clip-path="url(#clip1bdb30xyplot)"><g class="scatterlayer mlayer"><g class="trace scatter traceed020b" style="stroke-miterlimit: 2; opacity: 1;"><g class="fills"/><g class="errorbars"/><g class="lines"><path class="js-line" d="M0,554.49L2.49,561.31L4.98,555.85L7.47,557.17L9.97,551L12.46,549.01L14.95,556.11L17.44,561.08L19.93,549.66L22.42,546.64L24.91,551.28L27.41,549.21L29.9,549.16L32.39,550.75L34.88,548.01L39.86,551.43L42.35,548.47L44.85,551.43L47.34,552.17L49.83,550.16L52.32,553.31L54.81,555.48L57.3,550.59L59.79,552.34L62.28,551.97L64.78,557.36L67.27,558.48L69.76,558.89L72.25,557.38L77.23,567.66L79.72,553.75L82.22,556.12L84.71,560.25L124.57,561.45L127.06,564.14L132.04,568.62L134.54,566.91L137.03,571.98L139.52,569.7L142.01,567.77L144.5,562.98L146.99,562.53L149.48,559.38L151.98,561.69L154.47,562.62L156.96,563.37L159.45,561.55L164.43,567.17L166.92,572.69L169.41,573.55L171.91,561.95L176.89,567.93L179.38,573.38L181.87,579.61L184.36,562.45L186.85,568.7L189.35,567.49L191.84,564.62L194.33,569.45L196.82,568.25L199.31,565.48L204.29,573.06L206.79,564.4L214.26,577.1L216.75,583.53L219.24,566.72L221.73,573.38L226.72,569.58L229.21,574.68L231.7,572.53L234.19,568.22L236.68,568.75L239.17,576.15L241.67,579.73L244.16,573.02L246.65,572.03L249.14,589.38L251.63,570.56L254.12,571.19L256.61,578.29L259.11,582.07L261.6,565.42L264.09,571.67L266.58,591.63L269.07,584.78L271.56,577.81L274.05,561.03L276.54,572.26L279.04,592.64L284.02,573.43L286.51,572.19L303.95,570.57L306.44,572.81L308.93,573.35L311.42,558.81L313.92,568.51L316.41,590.68L321.39,569.51L323.88,565.35L338.83,559.25L341.32,558.84L343.81,544.59L346.3,552.57L348.8,576.87L351.29,557.68L353.78,549.99L356.27,532.14L361.25,549.9L363.74,534.76L366.24,519.53L368.73,511.36L371.22,515.9L373.71,498.46L381.18,427.44L383.67,392.39L386.17,349.83L388.66,256.25L391.15,87.83L393.64,87.74L396.13,110.09L398.62,112.21L401.11,143.31L403.61,134.74L411.08,198.67L413.57,207.39L416.06,184.86L418.55,205.5L421.05,211.93L423.54,221.6L426.03,211.6L428.52,235.77L431.01,235.92L433.5,233.65L435.99,233.8L438.49,251.45L440.98,252.2L443.47,233.49L445.96,242.71L448.45,261.04L450.94,259.58L453.43,241.59L460.91,263.16L463.4,246.07L465.89,264.31L468.38,267.44L470.87,265.89L473.37,259.53L475.86,276.83L478.35,273.76L480.84,258.93L483.33,265.02L485.82,273.51L488.31,278.12L490.8,262.48L493.3,277.92L495.79,277.73L498.28,281.72L500.77,276.53L503.26,282.95L505.75,288.49L508.24,276.05L513.23,293.72L515.72,293.69L518.21,294.02L520.7,299.66L523.19,303.64L525.68,303.65L528.18,305.5L530.67,318.43L533.16,306.49L535.65,302.65L538.14,334.51L540.63,326.88L543.12,340.89L545.62,344.13L548.11,338.78L550.6,369.67L553.09,393.23L555.58,398.68L558.07,442.52L560.56,509.32L563.06,672.6L565.55,692.15L568.04,755.16L570.53,725.78L573.02,711.81L575.51,662.64L580.5,642.31L582.99,634.93L587.97,623.72L590.46,619.31L597.93,608.63L600.43,605.65L607.9,598.24L610.39,596.28L617.87,591.73L620.36,590.6L630.32,587.55L632.81,587.06L652.75,584.7L655.24,584.47L715.03,577.81L717.52,577.43L754.89,570.5L757.38,569.99L794.76,563.33L797.25,563.03L817.18,561.82L819.67,561.84L837.11,563.21L839.6,563.59L842.09,564.01L844.58,571.97L847.07,570.72L849.57,560.22L852.06,565.97L854.55,585L857.04,580.85L859.53,573.28L862.02,562.18L864.51,568.62L867.01,587.46L869.5,583.55L874.48,563.53L876.97,570.75L879.46,592.08L881.95,580.81L884.45,567.15L886.94,571.86L889.43,592.29L891.92,580.6L896.9,579.88L899.39,586.38L901.89,570.12L904.38,568.51L906.87,571.61L909.36,578.67L911.85,581.06L914.34,580.18L916.83,583.89L919.33,568.69L921.82,566.2L924.31,572.05L929.29,579.73L931.78,577.53L934.27,582.02L936.76,567.43L939.26,562.44L941.75,571.54L944.24,574.82L946.73,563.96L949.22,565.61L951.71,582.17L956.7,562.79L959.19,563.76L961.68,580.52L964.17,571.35L966.66,561.26L969.15,562.05L971.64,573.18L974.14,573.01L979.12,556.94L981.61,560.25L984.1,571.82L986.59,562.92L989.08,554.21L991.58,565.75L994.07,564.04L996.56,554.51L999.05,558.56L1001.54,571.64L1006.52,553.2L1009.02,558.11L1028.95,558.77L1031.44,559.03L1048.88,562.14L1051.37,562.76L1068.81,568.3L1071.3,569.23L1103.69,580.85L1106.18,581.44L1118.64,583.31L1121.13,583.46L1133.59,583.19L1136.08,582.93L1148.53,580.44L1151.02,579.7L1165.97,573.97L1168.46,572.87L1203.34,556.76L1205.84,554.63L1213.31,545.63L1215.8,541.96L1223.28,529.23L1225.77,521.57L1230.75,498.77L1233.24,481.33L1238.22,388.56L1240.72,301.58L1243.21,92.47L1245.7,99.35L1253.17,175.76L1255.66,191.33L1260.65,211.38L1263.14,218.04L1270.61,233.47L1273.1,237.55L1280.58,246.75L1283.07,248.82L1300.51,259.7L1303,261.17L1325.42,272.87L1327.91,274.12L1340.37,279.21L1342.86,279.8L1377.74,285.31L1380.23,285.38L1390.2,284.26L1392.69,283.64L1402.66,279.94L1405.15,278.77L1420.1,270.1L1422.59,268.4L1440.03,254.91L1442.52,252.84L1462.45,237.26L1464.94,235.63L1474.91,230.25L1477.4,229.22L1489.85,225.68L1492.35,225.24L1502.31,224.46L1504.8,224.61L1512.28,226.4L1514.77,227.48L1524.73,233.76L1527.23,235.61L1539.68,244L1542.17,245.36L1554.63,252.89L1557.12,254.65L1572.07,266.67L1574.56,268.95L1582.04,274.35L1584.53,275.85L1587.02,277.85L1589.51,270.75L1592,275.79L1594.49,283.89L1596.98,287.08L1599.48,292.54L1601.97,305.35L1604.46,305.25L1606.95,344.45L1609.44,351.72L1614.42,441.61L1616.92,572.85L1619.41,754.7L1621.9,713.02L1624.39,704.24L1626.88,683.54L1629.37,646.03L1631.86,624.02L1634.36,622.33L1636.85,612.98L1639.34,613L1641.83,611.45L1644.32,610.75L1646.81,602.74L1649.3,604.18L1651.8,597.27L1654.29,593.96L1656.78,588.44L1659.27,593.34L1661.76,581.62L1664.25,586.6L1666.74,576.05L1669.24,579.11L1671.73,570.85L1674.22,574.13L1676.71,565.41L1679.2,573.88L1681.69,566.22L1684.18,562.53L1686.67,573.16L1689.17,564.79L1691.66,566.06L1694.15,561.24L1696.64,561.59L1699.13,557.2L1701.62,557.56L1709.1,546.66L1711.59,550.2L1714.08,552.82L1716.57,547.1L1719.06,540.57L1721.55,546.68L1724.05,553.06L1726.54,550.37L1731.52,542.28L1734.01,539.74L1736.5,544.73L1738.99,546.27L1741.49,550.77L1743.98,535.23L1748.96,541.48L1751.45,544.87L1753.94,541.65L1756.43,550.97L1758.93,543.54L1761.42,547.84L1763.91,553.23L1766.4,552L1768.89,555.09L1771.38,551.18L1773.87,546.91L1776.37,551.77L1778.86,552.11L1781.35,551.27L1786.33,560.4L1788.82,554.34L1791.31,564.42L1793.8,565.97L1796.3,565.07L1798.79,566.97L1801.28,569.6L1803.77,565.47L1806.26,566.75L1808.75,564.99L1811.24,564.34L1813.74,567.55L1816.23,562.55L1818.72,564.06L1821.21,567.45L1823.7,565.35L1826.19,569.13L1828.68,568.57L1831.18,561.92L1833.67,567.33L1836.16,569.25L1838.65,562.24L1841.14,566.01L1843.63,566.86L1846.12,560.57L1848.62,559.55L1851.11,558.04L1853.6,553.27L1856.09,553.81L1858.58,556.62L1861.07,545.02L1863.56,545.14L1866.06,537.26L1868.55,542.79L1871.04,535.3L1873.53,536.18L1876.02,531.56L1878.51,521.81L1881,511.29L1883.5,508.43L1885.99,499.98L1888.48,487.65L1890.97,470.74L1893.46,463.32L1895.95,447.99L1898.44,419.05L1900.93,394.01L1903.43,343.89L1905.92,152.81L1908.41,39.8L1910.9,90.93L1913.39,89.94L1918.37,134.08L1920.87,157.61L1925.85,175.19L1928.34,179.74L1930.83,191.96L1933.32,193.58L1943.29,232.25L1945.78,236.92L1948.27,233.41L1950.76,232.73L1953.25,242.63L1955.75,244.41L1958.24,254.41L1960.73,252.52L1963.22,257.48L1965.71,256.91L1970.69,268.13L1973.19,270.66L1978.17,266.55L1980.66,274.7L1983.15,276.18L1985.64,284.12L1988.13,286.93L1990.63,285.55L1995.61,292.32L1998.1,300.66L2005.57,306.28L2008.07,313.23L2013.05,334.88L2015.54,350.26L2020.52,353.51L2023.01,375.89L2025.5,397.44L2028,429.79L2030.49,436.74L2032.98,561.45L2035.47,709.32L2037.96,739.49L2042.94,720.22L2045.44,697.21L2047.93,690.44L2050.42,664.42L2052.91,659.42L2055.4,648.79L2057.89,640.89L2060.38,638.8L2062.88,629.7L2065.37,625.62L2067.86,618.04L2070.35,617.54L2072.84,619L2075.33,609.54L2080.32,600.38L2082.81,600.68L2085.3,601.96L2087.79,598.62L2090.28,597.73L2092.77,594.33L2095.26,589.22L2097.76,591.75L2100.25,592.12L2102.74,591.47L2105.23,591.38L2107.72,587.07L2110.21,586.06L2112.7,589.11L2115.2,589.48L2117.69,588.39L2122.67,582.23L2125.16,583.99L2127.65,589.51L2130.14,588.45L2135.13,587.19L2137.62,588.07L2140.11,583.6L2142.6,586.29L2145.09,586.22L2147.58,588.56L2150.07,583.48L2152.57,591.95L2155.06,594.78L2157.55,590.94L2160.04,594.53L2162.53,588.54L2165.02,592.18L2167.51,591.81L2170.01,592.65L2172.5,589.53L2177.48,591.54L2179.97,589.4L2182.46,594.1L2184.95,594.16L2187.45,595.19L2189.94,594.13L2192.43,595.62L2194.92,582.75L2202.39,585.13L2204.89,588.01L2207.38,591.59L2209.87,602.16L2212.36,590.95L2214.85,598.43L2217.34,589.55L2219.83,571.72L2222.33,576.93L2224.82,573.06L2229.8,584.11L2232.29,587.44L2234.78,569.71L2237.27,578.45L2239.76,580.51L2242.26,558.71L2244.75,565L2247.24,557.34L2249.73,565.41L2252.22,558.94L2254.71,575.08L2257.2,570.65L2259.7,551.92L2262.19,561.97L2264.68,540.83L2267.17,562.82L2269.66,556.1L2272.15,553.52L2274.64,555.64L2277.14,548.84L2279.63,541.61L2282.12,556.24L2284.61,558.83L2287.1,536.46L2289.59,540.33L2292.08,535.82L2294.58,546.6L2297.07,536.09L2299.56,528.74L2302.05,537.67L2304.54,526.78L2307.03,523.09L2309.52,528.39L2312.02,517.74L2314.51,514.3L2317,517.03L2319.49,509.01L2321.98,487.2L2324.47,497.64L2326.96,503.74L2329.46,461.91L2331.95,450.37L2334.44,416.08L2336.93,404.33L2339.42,334.55L2341.91,127.06L2344.4,94.86L2346.89,85.17L2351.88,125.67L2354.37,155.21L2356.86,162.23L2359.35,161.67L2361.84,183.15L2364.33,179.01L2366.83,189.44L2369.32,186.43L2371.81,197.15L2374.3,198.27L2376.79,195.09L2379.28,200.58L2381.77,211.86L2384.27,212.57L2386.76,222.79L2389.25,223.46L2391.74,221.48L2394.23,215.33L2396.72,219.75L2399.21,228.85L2401.71,229.53L2404.2,232.02L2406.69,227.17L2409.18,228.03L2414.16,235.17L2416.65,238.99L2419.15,235.9L2421.64,241.85L2424.13,244.48L2426.62,237.28L2429.11,248.95L2431.6,240.35L2434.09,250.69L2436.59,255.06L2439.08,247.71L2441.57,250.69L2444.06,255.05L2446.55,261.44L2449.04,268.6L2451.53,271.86L2454.02,276.78L2456.52,275.05L2459.01,283.46L2461.5,285.73L2463.99,286L2466.48,288.97L2468.97,299.61L2471.46,297.88L2473.96,308.36L2476.45,312.71L2478.94,330.9L2481.43,339.73L2483.92,362.04L2486.41,375L2488.9,396.98L2491.4,437.23L2493.89,527.94L2496.38,673.3L2498.87,748.13L2501.36,756.2L2506.34,688.68L2508.84,677.05L2511.33,670.54L2513.82,645.37L2516.31,639.18L2518.8,628.69L2521.29,625.97L2523.78,616.53L2526.28,611.11L2528.77,602.06L2531.26,591.18L2533.75,595.57L2536.24,588.84L2538.73,585.31L2543.72,580.34L2546.21,579.78L2548.7,573.16L2551.19,569.49L2553.68,567.76L2556.17,569.22L2558.66,563.72L2561.15,561.17L2563.65,564.62L2566.14,566.1L2568.63,557.16L2571.12,558.03L2573.61,553.67L2576.1,554.84L2578.59,559.83L2581.09,555.48L2583.58,565.08L2586.07,556.42L2588.56,573.74L2591.05,555L2593.54,557.2L2596.03,565.62L2598.53,546.33L2601.02,543.52L2603.51,557.64L2606,551.94" style="vector-effect: non-scaling-stroke; fill: none; stroke: rgb(170, 0, 0); stroke-opacity: 1; stroke-width: 4px; opacity: 1;"/></g><g class="points"/><g class="text"/></g><g class="trace scatter traced3ebb2" style="stroke-miterlimit: 2; opacity: 1;"><g class="fills"/><g class="errorbars"/><g class="lines"><path class="js-line" d="M0,573.71L2.49,595.21L4.98,577.66L7.47,570.77L9.97,547.21L17.44,548.5L19.93,546.06L22.42,546.25L24.91,534.38L27.41,550.42L29.9,577.68L32.39,563.88L34.88,557.2L37.37,550.3L39.86,550.39L42.35,537.67L44.85,554.06L47.34,580.3L49.83,561.15L52.32,555.13L54.81,540.19L57.3,556.63L59.79,582.14L62.28,564.47L64.78,558.16L67.27,549.5L69.76,558.17L72.25,576.82L74.74,553.76L77.23,566.99L79.72,560.69L82.22,565.64L84.71,557.35L87.2,561.42L89.69,579.89L92.18,560.08L94.67,565.99L99.66,561.02L102.15,567.14L107.13,561.84L109.62,568.14L114.6,562.55L117.1,569.04L122.08,563.18L124.57,569.86L129.55,563.75L132.04,570.64L137.03,564.29L139.52,571.43L144.5,564.85L146.99,572.25L151.98,565.44L154.47,573.16L159.45,566.12L161.94,574.18L164.43,573.73L166.92,564.05L169.41,572.74L171.91,569.47L174.4,579.92L176.89,585.43L179.38,564.05L181.87,577.72L186.85,569.82L189.35,579.41L194.33,571.26L196.82,581.31L201.8,572.9L204.29,583.4L209.28,574.72L211.77,585.67L214.26,583.64L216.75,573.04L219.24,584.14L221.73,579.72L226.72,600.14L229.21,575.34L231.7,592.22L234.19,586.07L236.68,582.49L239.17,594.68L241.67,588.21L244.16,584.68L246.65,597.04L249.14,590.2L251.63,586.78L254.12,599.2L256.61,596.58L259.11,584.85L261.6,595.63L264.09,591.93L269.07,614.28L271.56,586.93L274.05,603.41L276.54,595.09L279.04,592.57L281.53,604.21L284.02,595.48L286.51,593.3L289,604.48L291.49,601.37L293.98,589.91L296.48,598.45L298.97,594.91L301.46,604.63L303.95,617.2L306.44,587.41L308.93,602.18L311.42,592.21L313.92,590.89L316.41,599.99L318.9,589.77L321.39,588.33L323.88,596.93L326.37,586.49L328.86,584.61L331.36,592.83L336.34,575.08L338.83,578.36L341.32,578.21L343.81,579.38L346.3,572.4L348.8,572.78L351.29,585.93L353.78,559.85L356.27,541.58L358.76,549.89L361.25,552.21L363.74,537.04L366.24,542.73L368.73,538.47L373.71,481.08L376.2,454.88L378.69,475.53L381.18,441.34L383.67,447.77L386.17,400.33L388.66,319.78L391.15,167.35L393.64,83.76L396.13,142.34L398.62,161.24L401.11,121.15L403.61,142.38L406.1,174.21L408.59,200.88L411.08,191.54L416.06,238.53L418.55,234.31L421.05,211.44L423.54,229.62L426.03,250.36L428.52,251.99L438.49,263.17L440.98,265.45L453.43,274.85L455.93,276.43L473.37,285.79L475.86,287L508.24,302.16L510.74,302.71L515.72,302.85L518.21,302.33L523.19,299.97L525.68,298.15L535.65,290.41L538.14,290.3L540.63,292.19L543.12,296.9L545.62,305.26L548.11,317.96L553.09,357.61L555.58,384.09L570.53,560.16L573.02,580.03L578,606.67L580.5,614.18L582.99,618.64L585.48,620.71L587.97,621.05L590.46,620.19L597.93,614.48L600.43,612.37L610.39,605.68L612.88,604.57L620.36,602.46L622.85,602.1L632.81,601.86L635.31,602.01L662.71,603.49L665.2,603.35L677.66,601.6L680.15,601.06L700.08,595.23L702.57,594.41L747.42,579.24L749.91,578.06L764.86,569.64L767.35,568.08L777.32,561.8L779.81,589.95L782.3,590.33L784.79,577.59L787.28,587.6L789.77,582.06L792.26,583.35L794.76,571.35L797.25,560.06L799.74,555.42L802.23,552.82L804.72,542.81L807.21,550.94L809.7,542.13L812.2,546.86L814.69,537.31L817.18,538.52L819.67,543.64L822.16,541.41L824.65,541.86L829.63,540.79L832.13,542.01L834.62,540.26L837.11,542.41L839.6,540.1L842.09,547.44L844.58,549.24L847.07,545.51L849.57,548.42L852.06,541.35L854.55,545.3L857.04,538.64L859.53,549.71L862.02,539.68L864.51,549.76L867.01,549.03L869.5,542.45L871.99,551.19L874.48,544.73L876.97,548.94L879.46,545.69L881.95,556.07L884.45,545.95L886.94,553.84L889.43,554.42L891.92,547.12L894.41,553.86L896.9,547.42L899.39,551.02L901.89,550.15L904.38,559.07L906.87,549.31L909.36,555.23L911.85,556.02L914.34,548.85L916.83,554.09L919.33,547.97L921.82,550.3L924.31,551.31L926.8,558.5L929.29,553.69L931.78,554.33L934.27,553.32L936.76,545.01L941.75,550.9L944.24,557.39L946.73,551.77L949.22,553.25L951.71,551.15L954.2,544.71L956.7,546.74L959.19,550.19L961.68,555.55L964.17,548L966.66,551.02L969.15,545.44L971.64,546.83L974.14,550.29L976.63,549.34L979.12,549.59L981.61,545.65L984.1,545.38L989.08,555.47L991.58,548.48L994.07,552.02L996.56,545.9L1001.54,551.66L1004.03,550.36L1006.52,551.55L1009.02,547.75L1011.51,548.57L1014,553.62L1016.49,559.8L1018.98,553.71L1021.47,557.83L1023.96,551.9L1026.46,556L1028.95,555.72L1031.44,558.92L1033.93,557.87L1038.91,564L1041.4,564.56L1043.89,565.6L1046.39,563.37L1048.88,558.58L1051.37,568.63L1056.35,582.19L1058.84,585.25L1061.33,581.92L1063.83,582.38L1066.32,576.95L1068.81,578.57L1101.2,599.23L1103.69,600.5L1108.67,602.79L1111.16,619.18L1113.65,623.6L1116.15,606.54L1121.13,625.93L1123.62,627.66L1126.11,626.62L1128.6,618.03L1131.09,626.74L1133.59,612.55L1138.57,619.88L1141.06,606.54L1146.04,605.45L1148.53,607.59L1151.02,599.64L1153.52,597.3L1156.01,590.21L1158.5,593.42L1160.99,597.72L1163.48,583.38L1165.97,587.11L1168.46,584.11L1170.96,578.35L1173.45,566.37L1175.94,573.81L1178.43,569.71L1180.92,583.57L1183.41,574.42L1188.4,556.08L1190.89,554.63L1193.38,548.42L1195.87,535.08L1198.36,545.15L1200.85,541.05L1205.84,535.18L1208.33,533.08L1213.31,527.5L1215.8,523.26L1223.28,510.22L1225.77,502.13L1230.75,467.49L1233.24,447.48L1235.73,430.99L1238.22,404.91L1240.72,293.05L1243.21,127.51L1245.7,84.64L1248.19,107.69L1253.17,152.53L1255.66,169.48L1260.65,191.68L1263.14,199.11L1265.63,204.88L1268.12,184.75L1273.1,225.41L1275.59,220.73L1280.58,235.24L1283.07,232.06L1285.56,227.63L1288.05,243.4L1293.03,255.33L1295.53,241.13L1298.02,254.91L1300.51,256.14L1305.49,271.78L1307.98,261.83L1310.47,275.53L1312.97,276.8L1317.95,288.2L1320.44,280.37L1322.93,294.86L1325.42,292.53L1327.91,298.92L1330.41,293.46L1332.9,293.05L1335.39,305.77L1337.88,303.39L1340.37,305.08L1342.86,295.87L1345.35,302.41L1347.85,312.4L1350.34,303.3L1352.83,312.02L1355.32,306.53L1357.81,293.23L1360.3,300.71L1362.79,313.63L1365.28,306.49L1367.78,302.74L1370.27,312.1L1372.76,303.7L1375.25,289.7L1380.23,304.65L1382.72,300.84L1385.22,300.98L1387.71,296.52L1390.2,306.42L1392.69,297.5L1395.18,280.63L1397.67,285.71L1400.16,290.51L1402.66,292.28L1407.64,289.67L1410.13,285.66L1412.62,294.8L1415.11,282.07L1417.6,265.71L1420.1,267.41L1422.59,270.86L1425.08,271.74L1427.57,269.02L1430.06,268.76L1432.55,268.76L1435.04,278.16L1440.03,239.68L1442.52,239.66L1445.01,238.87L1447.5,253.88L1449.99,264.78L1452.48,242.63L1454.98,219.02L1457.47,220.47L1459.96,217.9L1462.45,238.35L1464.94,251.41L1467.43,229.21L1469.92,201.85L1472.41,210.93L1474.91,224.15L1477.4,221.45L1479.89,191.53L1482.38,202.42L1484.87,215.31L1487.36,214.8L1489.85,184.35L1492.35,196.36L1494.84,208.48L1497.33,209.69L1499.82,180.56L1502.31,192.9L1504.8,190.44L1507.29,192.01L1509.79,185.93L1512.28,192.08L1514.77,186.82L1517.26,200.33L1519.75,190.37L1522.24,189.5L1524.73,205.78L1527.23,190.2L1529.72,193.46L1532.21,210.38L1534.7,192.42L1537.19,198.32L1539.68,213.54L1542.17,197.24L1544.67,203.68L1547.16,217.08L1549.65,203.95L1552.14,209.47L1554.63,216.35L1557.12,219.78L1559.61,222.38L1562.11,232.38L1564.6,211.99L1567.09,224.76L1569.58,239.65L1572.07,230.2L1574.56,238.41L1577.05,236.51L1579.54,246.07L1582.04,251.38L1584.53,235.27L1587.02,250.72L1589.51,260.82L1592,255.04L1594.49,265.35L1596.98,259.99L1601.97,284.34L1604.46,282.38L1606.95,290.24L1609.44,322.98L1614.42,424.84L1616.92,731.52L1619.41,725.46L1621.9,708.87L1624.39,668.88L1626.88,663.09L1629.37,609.69L1631.86,604.49L1634.36,591.23L1636.85,612.48L1641.83,566.14L1644.32,573.61L1646.81,565.15L1649.3,563.83L1654.29,553.3L1656.78,568.52L1661.76,545.42L1664.25,547.43L1666.74,546.92L1669.24,548.4L1674.22,535.45L1676.71,548.56L1679.2,553.82L1681.69,527.48L1684.18,532.22L1686.67,528.79L1691.66,550.33L1694.15,521.84L1696.64,528.31L1699.13,523.7L1704.11,547.08L1706.61,518.2L1709.1,528.14L1711.59,519.92L1716.57,546.63L1719.06,517.65L1721.55,531.33L1724.05,521.84L1729.03,549.37L1731.52,526.68L1734.01,539.87L1736.5,527.76L1738.99,543.43L1741.49,551.01L1743.98,528.97L1746.47,534.05L1748.96,537.07L1751.45,551.75L1753.94,544.78L1756.43,552.33L1758.93,559.46L1761.42,545.97L1763.91,548.82L1766.4,550.14L1768.89,553.34L1771.38,554.35L1773.87,557.83L1776.37,558.52L1778.86,562.19L1781.35,562.55L1783.84,566.33L1786.33,566.35L1788.82,570.17L1791.31,569.86L1793.8,576.55L1796.3,576.63L1798.79,578.18L1801.28,578.54L1803.77,575.13L1806.26,576.23L1808.75,581.4L1811.24,590.04L1813.74,586.64L1816.23,585.96L1818.72,587.62L1821.21,584.89L1823.7,585.41L1826.19,587.63L1828.68,592.38L1831.18,588.43L1833.67,582.36L1836.16,584.55L1838.65,579.21L1841.14,584.33L1843.63,580.92L1846.12,583.59L1848.62,584.42L1851.11,574.77L1853.6,570.31L1856.09,574.7L1858.58,565.12L1861.07,563.14L1863.56,557.15L1866.06,557.92L1868.55,552.23L1871.04,537.28L1873.53,531.65L1876.02,530.93L1878.51,520.12L1881,520.48L1885.99,488.3L1888.48,480.74L1890.97,462.23L1893.46,434.31L1895.95,440.63L1898.44,402.73L1900.93,375.96L1903.43,211.06L1905.92,129.62L1908.41,123.92L1910.9,100.33L1913.39,87.06L1915.88,98.85L1918.37,117.63L1920.87,124L1923.36,138.68L1925.85,137.43L1928.34,155.53L1930.83,164.74L1933.32,180.07L1935.81,201.84L1938.31,204.53L1940.8,217.31L1943.29,239.65L1945.78,236.84L1948.27,235.8L1950.76,240.37L1953.25,255.96L1955.75,257.29L1958.24,262.56L1965.71,281L1968.2,282.88L1970.69,288.62L1973.19,290.34L1975.68,292.3L1978.17,298.7L1985.64,308.95L1988.13,310.45L1990.63,316.2L1993.12,318.08L1995.61,323.35L1998.1,322.62L2000.59,334.01L2003.08,328.71L2005.57,333.46L2008.07,342.25L2010.56,340.12L2013.05,350.85L2015.54,355.08L2018.03,367.14L2020.52,374.02L2023.01,408.53L2025.5,405.28L2028,443.29L2030.49,470.98L2032.98,594.04L2035.47,722.23L2037.96,730.34L2040.45,745.85L2042.94,730.41L2047.93,701.88L2050.42,690.3L2057.89,658.93L2060.38,659.82L2062.88,651.37L2065.37,652.39L2067.86,625.73L2070.35,631.91L2072.84,630.32L2075.33,627.21L2077.82,643.46L2080.32,608.98L2082.81,619.54L2085.3,616.34L2087.79,620.57L2090.28,632.95L2092.77,605.13L2095.26,618.75L2097.76,610.66L2100.25,596.75L2102.74,613.57L2105.23,612.48L2107.72,608.9L2110.21,610.97L2112.7,605.1L2115.2,620.96L2117.69,596.07L2120.18,610.29L2122.67,607.44L2125.16,609.52L2127.65,596.8L2130.14,597.55L2132.63,627.12L2135.13,611.29L2137.62,599.02L2140.11,598.25L2142.6,623.29L2145.09,619.81L2147.58,611.2L2150.07,591.16L2152.57,599.03L2155.06,627.01L2160.04,604.14L2162.53,599.42L2165.02,625.84L2167.51,617.26L2170.01,604.09L2172.5,599.47L2174.99,622.88L2177.48,614.44L2179.97,599.67L2182.46,598.82L2184.95,616.37L2187.45,606.79L2189.94,605.16L2192.43,622.07L2194.92,601.66L2197.41,600.83L2199.9,595.46L2202.39,581.91L2204.89,580.67L2207.38,568.94L2209.87,577.65L2212.36,581.06L2214.85,577.96L2217.34,584.54L2219.83,574.05L2222.33,569.91L2224.82,562.59L2227.31,562.63L2229.8,558.99L2232.29,548.53L2234.78,548L2237.27,550.94L2239.76,548.17L2242.26,540.02L2244.75,536.96L2247.24,526.51L2249.73,543.48L2252.22,528.12L2257.2,534.84L2259.7,524.15L2262.19,521.82L2264.68,531.94L2267.17,543.08L2269.66,514L2272.15,521.1L2274.64,511.24L2279.63,538.41L2282.12,505.59L2284.61,513.09L2287.1,510.48L2289.59,518.47L2292.08,513.76L2294.58,505.33L2297.07,511.44L2299.56,530.08L2302.05,496.45L2304.54,501.27L2307.03,494.69L2309.52,501.24L2312.02,494.17L2314.51,485.95L2317,484.23L2319.49,490.47L2321.98,458.83L2324.47,459.9L2326.96,423.33L2329.46,445.33L2331.95,445.71L2334.44,383.33L2336.93,404.11L2339.42,323.84L2341.91,182.69L2344.4,201.02L2346.89,87.4L2349.39,70.72L2351.88,105.6L2354.37,90.11L2356.86,136.52L2359.35,127.23L2361.84,131.67L2364.33,164.44L2366.83,150.93L2369.32,161.39L2371.81,180.56L2374.3,168.88L2376.79,179.98L2379.28,191.68L2381.77,181.64L2384.27,184.74L2386.76,210.68L2389.25,199.78L2391.74,200.31L2396.72,189.83L2399.21,213L2401.71,203.41L2404.2,209.74L2406.69,215.36L2409.18,209.87L2414.16,219.85L2416.65,216.11L2419.15,222.2L2421.64,224.56L2424.13,222.47L2426.62,228.57L2429.11,229.9L2431.6,229.33L2434.09,235.06L2436.59,236.22L2439.08,237.06L2441.57,242.08L2446.55,246.2L2449.04,250.52L2454.02,257.43L2456.52,262.01L2459.01,264.84L2461.5,271.66L2463.99,278.29L2466.48,279.91L2471.46,299.92L2473.96,302.88L2476.45,320.21L2478.94,330.4L2481.43,341.5L2483.92,378.75L2486.41,389.63L2488.9,423.64L2491.4,458.45L2493.89,561.82L2496.38,733.7L2498.87,752.38L2501.36,740.67L2503.85,689.68L2506.34,692.07L2508.84,675.74L2511.33,641.14L2513.82,639.34L2516.31,626.53L2518.8,595.22L2521.29,590.77L2523.78,594.55L2526.28,589.6L2528.77,578.49L2533.75,589.51L2536.24,562.1L2538.73,563.64L2541.22,557.66L2543.72,565.26L2546.21,551.36L2548.7,553.71L2551.19,574.26L2556.17,546.52L2558.66,548.94L2561.15,568L2563.65,555.15L2566.14,543.13L2568.63,546.14L2571.12,573.69L2573.61,557.54L2576.1,545.17L2578.59,542L2581.09,532.59L2583.58,544.43L2586.07,572.5L2588.56,556.79L2591.05,548.33L2593.54,544.47L2596.03,544.6L2598.53,533.17L2601.02,543.01L2603.51,518.56L2606,531.51" style="vector-effect: non-scaling-stroke; fill: none; stroke: rgb(0, 170, 0); stroke-opacity: 1; stroke-width: 4px; opacity: 1;"/></g><g class="points"/><g class="text"/></g></g></g><g class="overplot"/><path class="xlines-above crisp" d="M0,0" style="fill: none;"/><path class="ylines-above crisp" d="M0,0" style="fill: none;"/><g class="overlines-above"/><g class="xaxislayer-above"><g class="xtick"><text text-anchor="middle" x="0" y="934" transform="translate(136,0)" style="font-family: 'Open Sans', verdana, arial, sans-serif; font-size: 37px; fill: rgb(42, 63, 95); fill-opacity: 1; white-space: pre; opacity: 1;">0</text></g><g class="xtick"><text text-anchor="middle" x="0" y="934" style="font-family: 'Open Sans', verdana, arial, sans-serif; font-size: 37px; fill: rgb(42, 63, 95); fill-opacity: 1; white-space: pre; opacity: 1;" transform="translate(634.28,0)">200</text></g><g class="xtick"><text text-anchor="middle" x="0" y="934" style="font-family: 'Open Sans', verdana, arial, sans-serif; font-size: 37px; fill: rgb(42, 63, 95); fill-opacity: 1; white-space: pre; opacity: 1;" transform="translate(1132.56,0)">400</text></g><g class="xtick"><text text-anchor="middle" x="0" y="934" style="font-family: 'Open Sans', verdana, arial, sans-serif; font-size: 37px; fill: rgb(42, 63, 95); fill-opacity: 1; white-space: pre; opacity: 1;" transform="translate(1630.84,0)">600</text></g><g class="xtick"><text text-anchor="middle" x="0" y="934" style="font-family: 'Open Sans', verdana, arial, sans-serif; font-size: 37px; fill: rgb(42, 63, 95); fill-opacity: 1; white-space: pre; opacity: 1;" transform="translate(2129.12,0)">800</text></g><g class="xtick"><text text-anchor="middle" x="0" y="934" style="font-family: 'Open Sans', verdana, arial, sans-serif; font-size: 37px; fill: rgb(42, 63, 95); fill-opacity: 1; white-space: pre; opacity: 1;" transform="translate(2627.4,0)">1000</text></g></g><g class="yaxislayer-above"><g class="ytick"><text text-anchor="end" x="135" y="12.95" transform="translate(0,883.61)" style="font-family: 'Open Sans', verdana, arial, sans-serif; font-size: 37px; fill: rgb(42, 63, 95); fill-opacity: 1; white-space: pre; opacity: 1;">−15</text></g><g class="ytick"><text text-anchor="end" x="135" y="12.95" style="font-family: 'Open Sans', verdana, arial, sans-serif; font-size: 37px; fill: rgb(42, 63, 95); fill-opacity: 1; white-space: pre; opacity: 1;" transform="translate(0,750.71)">−10</text></g><g class="ytick"><text text-anchor="end" x="135" y="12.95" style="font-family: 'Open Sans', verdana, arial, sans-serif; font-size: 37px; fill: rgb(42, 63, 95); fill-opacity: 1; white-space: pre; opacity: 1;" transform="translate(0,617.81)">−5</text></g><g class="ytick"><text text-anchor="end" x="135" y="12.95" style="font-family: 'Open Sans', verdana, arial, sans-serif; font-size: 37px; fill: rgb(42, 63, 95); fill-opacity: 1; white-space: pre; opacity: 1;" transform="translate(0,484.91)">0</text></g><g class="ytick"><text text-anchor="end" x="135" y="12.95" style="font-family: 'Open Sans', verdana, arial, sans-serif; font-size: 37px; fill: rgb(42, 63, 95); fill-opacity: 1; white-space: pre; opacity: 1;" transform="translate(0,352.01)">5</text></g><g class="ytick"><text text-anchor="end" x="135" y="12.95" style="font-family: 'Open Sans', verdana, arial, sans-serif; font-size: 37px; fill: rgb(42, 63, 95); fill-opacity: 1; white-space: pre; opacity: 1;" transform="translate(0,219.11)">10</text></g></g><g class="overaxes-above"/></g></g><g class="polarlayer"/><g class="ternarylayer"/><g class="geolayer"/><g class="funnelarealayer"/><g class="pielayer"/><g class="iciclelayer"/><g class="treemaplayer"/><g class="sunburstlayer"/><g class="glimages"/><defs id="topdefs-1bdb30"><g class="clips"/><clipPath id="legend1bdb30"><rect width="694" height="113" x="0" y="0"/></clipPath></defs><g class="layer-above"><g class="imagelayer"/><g class="shapelayer"/></g><g class="infolayer"><g class="legend" pointer-events="all" transform="translate(2794.12,100)"><rect class="bg" shape-rendering="crispEdges" width="694" height="113" x="0" y="0" style="stroke: rgb(68, 68, 68); stroke-opacity: 1; fill: rgb(255, 255, 255); fill-opacity: 1; stroke-width: 0px;"/><g class="scrollbox" transform="" clip-path="url(#legend1bdb30)"><g class="groups"><g class="traces" transform="translate(0,30.55)" style="opacity: 1;"><text class="legendtext" text-anchor="start" x="40" y="14.43" style="font-family: 'Open Sans', verdana, arial, sans-serif; font-size: 37px; fill: rgb(42, 63, 95); fill-opacity: 1; white-space: pre;">Predicted Curvature at Anchors #1</text><g class="layers" style="opacity: 1;"><g class="legendfill"/><g class="legendlines"><path class="js-line" d="M5,0h30" style="fill: none; stroke: rgb(170, 0, 0); stroke-opacity: 1; stroke-width: 4px;"/></g><g class="legendsymbols"><g class="legendpoints"/></g></g><rect class="legendtoggle" x="0" y="-25.55" width="688.125" height="51.1" style="fill: rgb(0, 0, 0); fill-opacity: 0;"/></g><g class="traces" transform="translate(0,81.65)" style="opacity: 1;"><text class="legendtext" text-anchor="start" x="40" y="14.43" style="font-family: 'Open Sans', verdana, arial, sans-serif; font-size: 37px; fill: rgb(42, 63, 95); fill-opacity: 1; white-space: pre;">Predicted Curvature at Anchors #2</text><g class="layers" style="opacity: 1;"><g class="legendfill"/><g class="legendlines"><path class="js-line" d="M5,0h30" style="fill: none; stroke: rgb(0, 170, 0); stroke-opacity: 1; stroke-width: 4px;"/></g><g class="legendsymbols"><g class="legendpoints"/></g></g><rect class="legendtoggle" x="0" y="-25.55" width="688.125" height="51.1" style="fill: rgb(0, 0, 0); fill-opacity: 0;"/></g></g></g><rect class="scrollbar" rx="20" ry="3" width="0" height="0" x="0" y="0" style="fill: rgb(128, 139, 164); fill-opacity: 1;"/></g><g class="g-gtitle"/><g class="g-xtitle"><text class="xtitle" x="1439" y="987.8" text-anchor="middle" style="font-family: 'Open Sans', verdana, arial, sans-serif; font-size: 44px; fill: rgb(42, 63, 95); opacity: 1; font-weight: normal; white-space: pre;">Anchor Point Index</text></g><g class="g-ytitle" transform="translate(32.1279296875,0)"><text class="ytitle" transform="rotate(-90,11.871875000000003,498)" x="11.871875000000003" y="498" text-anchor="middle" style="font-family: 'Open Sans', verdana, arial, sans-serif; font-size: 44px; fill: rgb(42, 63, 95); opacity: 1; font-weight: normal; white-space: pre;">Predicted Curvature</text></g><g class="annotation" data-index="0" style="opacity: 1;"><g class="annotation-text-g" transform="rotate(0,1439,66.49999999999993)"><g class="cursor-pointer" transform="translate(222,33)"><rect class="bg" x="0.5" y="0.5" width="2433" height="66" style="stroke-width: 1px; stroke: rgb(0, 0, 0); stroke-opacity: 0; fill: rgb(0, 0, 0); fill-opacity: 0;"/><text class="annotation-text" text-anchor="middle" x="1217.03125" y="54" style="font-family: 'Open Sans', verdana, arial, sans-serif; font-size: 52px; fill: rgb(42, 63, 95); fill-opacity: 1; white-space: pre;"><tspan style="font-weight:bold">Predicted Curvature at Anchors (Transformed Curve #1 vs. Transformed Curve #2)</tspan></text></g></g></g></g></svg>