<svg class="main-svg" xmlns="http://www.w3.org/2000/svg" xmlns:xlink="http://www.w3.org/1999/xlink" width="3500" height="1000" style="" viewBox="0 0 3500 1000"><rect x="0" y="0" width="3500" height="1000" style="fill: rgb(255, 255, 255); fill-opacity: 1;"/><defs id="defs-4e0a4f"><g class="clips"><clipPath id="clip4e0a4fxyplot" class="plotclip"><rect width="2606" height="796"/></clipPath><clipPath class="axesclip" id="clip4e0a4fx"><rect x="136" y="0" width="2606" height="1000"/></clipPath><clipPath class="axesclip" id="clip4e0a4fy"><rect x="0" y="100" width="3500" height="796"/></clipPath><clipPath class="axesclip" id="clip4e0a4fxy"><rect x="136" y="100" width="2606" height="796"/></clipPath></g><g class="gradients"/><g class="patterns"/></defs><g class="bglayer"><rect class="bg" x="136" y="100" width="2606" height="796" style="fill: rgb(229, 236, 246); fill-opacity: 1; stroke-width: 0;"/></g><g class="layer-below"><g class="imagelayer"/><g class="shapelayer"/></g><g class="cartesianlayer"><g class="subplot xy"><g class="layer-subplot"><g class="shapelayer"/><g class="imagelayer"/></g><g class="gridlayer"><g class="x"><path class="xgrid crisp" transform="translate(405.21,0)" d="M0,100v796" style="stroke: rgb(255, 255, 255); stroke-opacity: 1; stroke-width: 1px;"/><path class="xgrid crisp" transform="translate(674.43,0)" d="M0,100v796" style="stroke: rgb(255, 255, 255); stroke-opacity: 1; stroke-width: 1px;"/><path class="xgrid crisp" transform="translate(943.64,0)" d="M0,100v796" style="stroke: rgb(255, 255, 255); stroke-opacity: 1; stroke-width: 1px;"/><path class="xgrid crisp" transform="translate(1212.86,0)" d="M0,100v796" style="stroke: rgb(255, 255, 255); stroke-opacity: 1; stroke-width: 1px;"/><path class="xgrid crisp" transform="translate(1482.07,0)" d="M0,100v796" style="stroke: rgb(255, 255, 255); stroke-opacity: 1; stroke-width: 1px;"/><path class="xgrid crisp" transform="translate(1751.29,0)" d="M0,100v796" style="stroke: rgb(255, 255, 255); stroke-opacity: 1; stroke-width: 1px;"/><path class="xgrid crisp" transform="translate(2020.5,0)" d="M0,100v796" style="stroke: rgb(255, 255, 255); stroke-opacity: 1; stroke-width: 1px;"/><path class="xgrid crisp" transform="translate(2289.72,0)" d="M0,100v796" style="stroke: rgb(255, 255, 255); stroke-opacity: 1; stroke-width: 1px;"/><path class="xgrid crisp" transform="translate(2558.93,0)" d="M0,100v796" style="stroke: rgb(255, 255, 255); stroke-opacity: 1; stroke-width: 1px;"/></g><g class="y"><path class="ygrid crisp" transform="translate(0,826.21)" d="M136,0h2606" style="stroke: rgb(255, 255, 255); stroke-opacity: 1; stroke-width: 1px;"/><path class="ygrid crisp" transform="translate(0,722.92)" d="M136,0h2606" style="stroke: rgb(255, 255, 255); stroke-opacity: 1; stroke-width: 1px;"/><path class="ygrid crisp" transform="translate(0,619.63)" d="M136,0h2606" style="stroke: rgb(255, 255, 255); stroke-opacity: 1; stroke-width: 1px;"/><path class="ygrid crisp" transform="translate(0,413.05)" d="M136,0h2606" style="stroke: rgb(255, 255, 255); stroke-opacity: 1; stroke-width: 1px;"/><path class="ygrid crisp" transform="translate(0,309.76)" d="M136,0h2606" style="stroke: rgb(255, 255, 255); stroke-opacity: 1; stroke-width: 1px;"/><path class="ygrid crisp" transform="translate(0,206.47)" d="M136,0h2606" style="stroke: rgb(255, 255, 255); stroke-opacity: 1; stroke-width: 1px;"/><path class="ygrid crisp" transform="translate(0,103.18)" d="M136,0h2606" style="stroke: rgb(255, 255, 255); stroke-opacity: 1; stroke-width: 1px;"/></g></g><g class="zerolinelayer"><path class="xzl zl crisp" transform="translate(136,0)" d="M0,100v796" style="stroke: rgb(255, 255, 255); stroke-opacity: 1; stroke-width: 2px;"/><path class="yzl zl crisp" transform="translate(0,516.3399999999999)" d="M136,0h2606" style="stroke: rgb(255, 255, 255); stroke-opacity: 1; stroke-width: 2px;"/></g><path class="xlines-below"/><path class="ylines-below"/><g class="overlines-below"/><g class="xaxislayer-below"/><g class="yaxislayer-below"/><g class="overaxes-below"/><g class="plot" transform="translate(136,100)" clip-path="url(#clip4e0a4fxyplot)"><g class="scatterlayer mlayer"><g class="trace scatter trace78e43c" style="stroke-miterlimit: 2; opacity: 1;"><g class="fills"/><g class="errorbars"/><g class="lines"><path class="js-line" d="M0,708.25L2.69,713.77L5.38,714.05L8.08,717.33L10.77,724.29L13.46,723.97L16.15,730.74L18.85,730.39L21.54,735.6L24.23,737.01L26.92,741.05L29.61,749.24L32.31,745.92L37.69,750.06L40.38,747.73L43.07,749.97L45.77,748.06L48.46,749.02L51.15,747.77L53.84,748.92L56.54,747.42L59.23,748.54L61.92,745.62L64.61,750.56L67.3,746.21L70,745.69L72.69,747.82L75.38,747.98L78.07,751.6L83.46,738.93L86.15,742.09L88.84,738.22L91.53,740L94.23,729.58L96.92,736.99L99.61,736.53L102.3,720.98L104.99,729.71L107.69,725.82L110.38,729.3L113.07,727.48L115.76,712.45L118.45,718.61L121.15,711.69L123.84,715.31L126.53,706.03L129.22,714.1L131.92,706.46L134.61,713.6L137.3,711.89L139.99,698.14L145.38,713.35L148.07,708.8L153.45,691.92L156.14,699.75L158.84,701L161.53,712.49L164.22,708.57L166.91,707.32L172.3,697.5L174.99,702.59L177.68,703.59L180.37,713.81L183.07,704.62L185.76,699.7L188.45,704.99L191.14,706.37L193.83,711.72L196.53,709.34L199.22,705.86L201.91,711.36L204.6,711.06L207.3,708.55L209.99,710.88L212.68,710.98L215.37,708.52L218.06,715.29L220.76,717.44L223.45,722.84L228.83,718.43L231.52,724.57L234.22,725.51L236.91,723.67L239.6,729.63L242.29,725.88L244.99,738.75L247.68,740.9L250.37,735.24L253.06,734.6L255.75,744.25L258.45,748.88L261.14,741.37L263.83,751.69L266.52,756.2L269.21,751.78L271.91,746.96L274.6,730.56L277.29,749.42L279.98,752.09L282.68,736.96L285.37,677.72L288.06,652.95L290.75,708.81L293.44,679.74L296.14,598.37L298.83,513.7L301.52,498.06L304.21,463.07L306.9,374.68L312.29,276.39L314.98,205.21L317.67,182.75L320.37,172.13L323.06,165.17L325.75,107.01L328.44,128.86L331.13,69.9L333.83,120.52L336.52,71.39L339.21,99.4L341.9,96.18L344.6,55.59L347.29,82.27L349.98,69.88L352.67,48.26L355.36,69.48L358.06,55.77L360.75,45.14L363.44,60.65L366.13,48.32L368.82,43.47L371.52,54.99L374.21,43.89L376.9,42.92L379.59,50.55L382.29,43.11L384.98,43.32L387.67,42.57L390.36,45.21L393.05,50.83L395.75,42.95L398.44,41.77L401.13,44.96L403.82,50.95L406.51,43.8L409.21,44.52L411.9,48.88L414.59,51.87L417.28,46.53L419.98,46.56L422.67,44.15L425.36,44.48L428.05,48.96L441.51,54.05L444.2,55.41L454.97,62.3L457.67,64.44L465.74,72.1L468.43,75.13L471.13,78.44L473.82,72.65L479.2,95.2L481.89,95.19L484.59,68.75L487.28,94.73L492.66,115.52L495.36,124.52L500.74,140.03L503.43,125.48L506.12,148.18L508.82,161.88L511.51,179.85L514.2,189.49L519.58,268.61L522.28,316.58L524.97,343.17L527.66,380.93L533.05,472.07L535.74,510.07L541.12,569.93L543.81,606.13L546.51,608.16L549.2,636.81L551.89,631.09L554.58,660.23L557.27,668.38L559.97,663.32L562.66,677.84L565.35,680.97L568.04,691.26L570.74,694.29L573.43,698.68L576.12,694.79L578.81,688.4L581.5,694.43L589.58,704.98L592.27,706.22L600.35,707.62L603.04,705.6L605.73,700.89L608.43,706.34L611.12,702.67L613.81,711.4L616.5,705.89L619.19,713.05L621.89,710.81L624.58,705.17L627.27,705.95L629.96,705.65L632.65,708.27L635.35,700.34L638.04,708.07L640.73,702.1L643.42,707.78L646.12,706.14L648.81,699.76L651.5,700.39L654.19,699.6L656.88,701.85L659.58,693.75L662.27,699.83L664.96,693.76L667.65,697.96L670.35,695.76L673.04,688.03L678.42,691.5L681.11,695.8L683.81,685.55L686.5,688.57L689.19,687.51L691.88,682.59L694.57,683.52L697.27,685.54L699.96,680.96L702.65,673.29L705.34,675.33L708.04,672.98L710.73,677.93L713.42,675.07L718.8,680.46L721.5,675.62L724.19,681.63L726.88,679.67L729.57,689.86L732.26,676.92L734.96,681.1L737.65,679.71L740.34,679.91L743.03,677.2L745.73,685.02L748.42,683.1L751.11,694.52L753.8,690.61L756.49,698.96L759.19,699.3L761.88,699.75L764.57,706.02L767.26,707.14L769.95,715.96L772.65,706.12L775.34,713.48L778.03,711.16L780.72,718.07L783.42,716.34L786.11,722.6L788.8,721.33L791.49,726.9L794.18,725.9L796.88,726.82L799.57,727.54L802.26,730.21L804.95,731.93L807.64,735.42L810.34,736.88L813.03,743.4L815.72,739.7L818.41,743.13L823.8,747.02L826.49,746.59L829.18,745.03L831.87,746.03L834.57,746.86L837.26,749.5L839.95,749.79L842.64,751.74L845.33,751.44L848.03,748.89L850.72,752.21L853.41,742.09L858.8,718.44L861.49,673.85L864.18,658.55L866.87,629.37L869.56,601.1L872.26,555.8L883.02,311.16L885.72,269.68L896.49,175.77L899.18,167.23L901.87,142.53L904.56,135.15L907.25,111.46L909.95,104.52L912.64,113.18L915.33,91.39L918.02,89.07L920.71,85.12L923.41,62.3L926.1,77.65L928.79,58.64L931.48,54.79L934.18,66.18L936.87,55.44L939.56,54.06L942.25,50.64L944.94,56.38L947.64,49.92L953.02,56.34L955.71,56.12L958.4,53.31L961.1,55.71L966.48,82.76L969.17,72.17L971.87,72.76L974.56,69.29L982.63,79.24L985.33,83.07L993.4,95.36L996.1,66.67L1001.48,92.07L1004.17,89.04L1006.86,86.2L1009.56,79.08L1012.25,93.78L1014.94,93.66L1017.63,117.52L1020.32,121.3L1023.02,123.53L1025.71,129.68L1028.4,122.68L1031.09,134.71L1033.79,133.29L1036.48,138.09L1041.86,136.74L1044.55,139.26L1047.25,141.51L1049.94,150.33L1052.63,149.57L1055.32,163.02L1060.71,171.15L1063.4,182.02L1066.09,190.57L1068.78,210.91L1071.48,223.31L1074.17,244.92L1084.94,375.65L1087.63,398.58L1093.01,479.41L1095.7,496.46L1098.4,535.96L1101.09,553.16L1103.78,576.93L1106.47,583.76L1109.17,607.16L1111.86,606.25L1114.55,626.63L1117.24,638.4L1119.93,633.12L1122.63,647.05L1125.32,640.62L1128.01,650.37L1130.7,657.75L1133.39,649.96L1136.09,661.66L1138.78,657.62L1141.47,664.23L1144.16,665.86L1146.86,658.07L1149.55,665.55L1152.24,671.64L1154.93,669.14L1157.62,672.06L1160.32,667.38L1163.01,672.48L1165.7,672.79L1168.39,664.9L1171.08,671.29L1176.47,674.97L1179.16,679.94L1181.85,674.59L1184.55,679.61L1187.24,678.71L1189.93,671.68L1192.62,675.82L1195.31,675.79L1198.01,680.97L1200.7,673.37L1203.39,676.42L1206.08,674.38L1208.77,677.51L1211.47,675.6L1214.16,684.07L1216.85,683.64L1219.54,687.46L1222.24,685.72L1224.93,685.43L1227.62,686.98L1230.31,679.31L1233,687.21L1235.7,677.2L1238.39,674.9L1241.08,693.29L1243.77,686.93L1246.46,693.95L1249.16,685.03L1251.85,682.87L1254.54,693.42L1257.23,686.8L1259.93,692.98L1262.62,685.79L1265.31,689.85L1268,701.75L1270.69,704.53L1273.39,704.37L1276.08,707.48L1278.77,706.95L1281.46,710.33L1286.85,708.73L1289.54,706.33L1292.23,712.34L1294.92,709.84L1297.62,715.36L1300.31,712.51L1303,714.99L1305.69,712.63L1308.38,713.12L1311.08,716.52L1313.77,715.96L1316.46,721.31L1321.85,716.14L1324.54,716.32L1327.23,715.36L1329.92,718.91L1332.61,724.71L1335.31,728.08L1338,721.56L1340.69,729.02L1343.38,725.73L1346.07,716.8L1348.77,726.13L1351.46,719.96L1354.15,709.49L1356.84,714.66L1359.54,701.06L1362.23,708.37L1364.92,707.82L1367.61,697.59L1373,702.36L1375.69,703.87L1378.38,711.47L1381.07,710.36L1383.76,699.07L1386.46,708.23L1389.15,713.95L1391.84,704.72L1394.53,718.42L1397.23,704.1L1399.92,713.79L1402.61,708.51L1405.3,702.04L1407.99,685.55L1410.69,706.75L1413.38,697.75L1418.76,717.41L1421.45,702L1424.15,711.28L1426.84,703.03L1429.53,682.71L1432.22,687.82L1434.92,705.51L1437.61,710.29L1440.3,689.65L1442.99,696.72L1445.68,696.92L1448.38,682.34L1453.76,708.25L1456.45,717.17L1461.84,740.33L1464.53,738.98L1469.91,749.4L1472.61,744.48L1475.3,702.8L1477.99,690.29L1486.07,586.24L1488.76,535.26L1494.14,456.38L1496.83,366.05L1499.53,306.06L1502.22,276.54L1504.91,251.15L1507.6,205.74L1512.99,135.16L1515.68,116.25L1521.06,61.9L1523.76,54L1526.45,51.27L1529.14,45.75L1534.52,54.46L1537.22,62.53L1539.91,60.75L1542.6,68.65L1545.29,64.05L1547.99,65.89L1550.68,71.96L1553.37,71.38L1556.06,72.63L1558.75,72.07L1561.45,76.67L1564.14,74.36L1566.83,81.18L1569.52,82.51L1572.21,84.61L1574.91,88.44L1577.6,81.89L1580.29,82.35L1585.68,83.39L1588.37,89.36L1591.06,88.04L1593.75,89.48L1596.44,80.4L1599.14,84.21L1601.83,84.44L1604.52,83.2L1609.9,82.44L1612.6,84.34L1615.29,81.21L1617.98,83.25L1620.67,85.06L1623.37,81.09L1626.06,84.29L1628.75,77.58L1631.44,75.61L1634.13,76.38L1636.83,69.56L1639.52,73.54L1642.21,70.09L1644.9,71.88L1647.6,61.57L1650.29,59.3L1652.98,61.31L1655.67,51.07L1658.36,56.55L1661.06,50.53L1663.75,52.94L1666.44,44.51L1669.13,41.07L1671.82,44.3L1674.52,39.8L1677.21,45.24L1679.9,41.65L1682.59,40.63L1687.98,45.62L1690.67,44.15L1693.36,48.46L1696.05,47.1L1698.75,51.27L1701.44,44.77L1706.82,57.54L1709.51,50.52L1712.21,56.24L1714.9,50.04L1717.59,67.03L1720.28,56.05L1722.98,50.28L1725.67,56.22L1728.36,47.58L1731.05,55.14L1733.74,49.93L1736.44,49.56L1739.13,53.99L1741.82,49.77L1744.51,51.99L1747.2,51.87L1752.59,56.12L1755.28,57.56L1757.97,56.76L1760.67,58.06L1763.36,63.14L1766.05,65.89L1768.74,68.31L1771.43,69.37L1776.82,76.67L1779.51,83.26L1782.2,86.16L1784.89,94.81L1787.59,106.73L1790.28,107.34L1801.05,204.82L1803.74,235.94L1809.12,303.35L1811.82,342.81L1822.58,521.66L1825.28,556.75L1827.97,597.28L1830.66,616.59L1838.74,677.1L1841.43,676.17L1844.12,686.22L1846.81,691.37L1852.2,695.72L1854.89,700.9L1857.58,703.36L1860.27,708.34L1862.97,708.45L1865.66,709.7L1868.35,714.87L1871.04,711.48L1873.74,711.79L1876.43,716.72L1879.12,712.84L1881.81,714.24L1884.5,719.99L1887.2,716.19L1892.58,722.96L1895.27,723.32L1897.96,715.82L1900.66,717.83L1903.35,721.65L1906.04,718.41L1911.43,726.38L1914.12,719.43L1916.81,718.2L1919.5,719.27L1922.19,719.68L1924.89,714.9L1927.58,715.81L1930.27,718.94L1932.96,713.88L1935.65,715.24L1941.04,717.63L1943.73,710.34L1946.42,702.94L1949.12,707.85L1951.81,705.96L1954.5,702.02L1959.88,705.32L1962.58,703.91L1965.27,695.75L1967.96,697.68L1970.65,701.6L1973.35,699.12L1976.04,695.57L1978.73,698.85L1981.42,701.35L1984.11,695.73L1986.81,688.51L1989.5,695.04L1992.19,693.49L1994.88,682.84L1997.57,691.49L2000.27,694.61L2002.96,689.49L2005.65,678.99L2008.34,688.98L2011.04,693.59L2013.73,692.11L2016.42,694.85L2019.11,700.05L2021.8,698.85L2024.5,695.75L2027.19,696.73L2029.88,699.99L2032.57,699.29L2037.96,700.12L2040.65,703.86L2043.34,704.34L2046.03,699.11L2048.73,703.78L2051.42,705.13L2054.11,706.43L2056.8,702.61L2059.49,709.05L2062.19,707.79L2064.88,710.15L2067.57,716.84L2070.26,719.51L2072.95,717.45L2075.65,718.54L2078.34,725.46L2081.03,726.96L2083.72,731.36L2086.42,737.63L2089.11,738.35L2091.8,744.11L2094.49,741.54L2097.18,745.09L2099.88,734.69L2102.57,709.46L2105.26,649.93L2116.03,424.12L2118.72,340.03L2126.8,230.81L2129.49,206.84L2134.87,140.85L2137.57,116.48L2140.26,91.38L2142.95,82.26L2145.64,62.65L2148.33,51.6L2151.03,50.93L2153.72,51.64L2156.41,56L2159.1,54.28L2164.49,59.58L2167.18,59.54L2169.87,60.71L2172.56,64.19L2175.26,65.37L2177.95,69.26L2180.64,67.04L2183.33,73.7L2186.02,73.16L2188.72,73.94L2191.41,78.09L2194.1,75.53L2196.79,88.49L2199.49,91.25L2202.18,85.04L2204.87,95.84L2207.56,97.15L2210.25,90.09L2212.95,100.36L2215.64,94.48L2218.33,96.68L2221.02,103.87L2223.71,104.59L2226.41,108.07L2229.1,111.32L2231.79,102.72L2234.48,119.66L2237.18,126.79L2239.87,116.83L2242.56,119.94L2245.25,122.6L2247.94,123.53L2250.64,131.76L2253.33,129.29L2256.02,132.86L2258.71,138.43L2261.4,137.5L2264.1,142.19L2266.79,149.64L2269.48,148.81L2274.87,174.32L2277.56,184.44L2280.25,208.48L2282.94,218.21L2288.33,255.94L2291.02,291.47L2296.4,370.69L2299.1,398.82L2301.79,443.9L2304.48,509.13L2307.17,527.32L2309.86,568.28L2312.56,599.09L2315.25,613.4L2320.63,647.3L2323.32,659.35L2328.71,676.7L2331.4,682.97L2336.79,692.44L2339.48,696.11L2342.17,672.27L2344.86,665.66L2347.55,675.38L2350.25,674.97L2352.94,696.34L2355.63,693.87L2358.32,705.57L2361.01,700.97L2371.78,707.73L2374.48,709.96L2377.17,710.76L2379.86,713.32L2382.55,713.61L2385.24,715.86L2387.94,717.52L2390.63,721.76L2396.01,725.44L2398.7,719.88L2401.4,714.66L2404.09,722.48L2406.78,724.9L2409.47,734.71L2414.86,714.66L2417.55,723.19L2420.24,726.73L2422.93,737.01L2428.32,734.52L2431.01,730.56L2433.7,727.42L2436.39,729.18L2439.09,725.44L2441.78,719.93L2444.47,728.54L2447.16,730.12L2449.86,735.39L2452.55,727.17L2455.24,722.15L2457.93,727.69L2460.62,718.22L2463.32,715.13L2466.01,714.55L2468.7,703.89L2471.39,694.21L2474.08,706.05L2476.78,696.56L2479.47,707.1L2482.16,695.4L2484.85,677.32L2487.55,688.24L2490.24,671.33L2492.93,660.33L2495.62,674.41L2501.01,646.83L2503.7,665.78L2506.39,641.08L2509.08,666.61L2511.77,655.91L2514.47,639.75L2517.16,651.4L2519.85,636.15L2522.54,651.97L2525.24,645.06L2527.93,634.48L2530.62,642.37L2533.31,632.47L2536,641.18L2538.7,640.43L2541.39,628.25L2544.08,640.3L2546.77,626.82L2549.46,634.83L2552.16,633.65L2554.85,617.72L2557.54,632.32L2560.23,621.02L2562.93,636.45L2568.31,660.05L2571,652.73L2573.69,663.19L2576.39,659.91L2579.08,648.2L2581.77,666.92L2584.46,658.47L2587.15,671.68L2592.54,698.99L2595.23,698.88L2597.92,703.24L2600.62,704.82L2606,708.1" style="vector-effect: non-scaling-stroke; fill: none; stroke: rgb(170, 0, 0); stroke-opacity: 1; stroke-width: 4px; opacity: 1;"/></g><g class="points"/><g class="text"/></g><g class="trace scatter trace025fae" style="stroke-miterlimit: 2; opacity: 1;"><g class="fills"/><g class="errorbars"/><g class="lines"><path class="js-line" d="M0,713.54L2.69,712.99L5.38,715.96L10.77,718.84L13.46,721.49L16.15,721.62L18.85,725.79L21.54,730.54L24.23,730.6L29.61,739.18L32.31,738.04L37.69,740.01L40.38,741.09L45.77,744.62L48.46,742.65L51.15,746.49L53.84,746.12L56.54,741.23L59.23,743.07L61.92,734.26L64.61,735.31L67.3,732.29L70,723.19L75.38,727.74L78.07,723.93L83.46,723.26L86.15,714.79L88.84,723.78L91.53,711.56L96.92,722.91L99.61,712.06L104.99,716.88L107.69,717.64L110.38,707.61L113.07,711.75L115.76,712.29L118.45,714.54L123.84,712.89L126.53,706.8L129.22,703.74L131.92,704.75L134.61,708.73L137.3,704.92L142.68,707.98L145.38,707.46L148.07,708.84L150.76,708.56L156.14,709.69L158.84,704.62L164.22,706.58L166.91,710.72L169.61,711.76L172.3,708.86L174.99,703.2L177.68,711.41L180.37,705.72L183.07,708.67L185.76,712.39L188.45,705.33L191.14,709.64L193.83,712.05L196.53,716.21L199.22,715.98L201.91,710.62L204.6,715.69L207.3,710.48L209.99,717.4L212.68,715.4L215.37,722.66L218.06,719.61L220.76,718.95L223.45,721.99L226.14,726.67L228.83,730.76L231.52,728.13L244.99,736.64L247.68,737.06L250.37,739.94L253.06,740.37L255.75,743.06L258.45,743.95L269.21,751.31L271.91,749.93L274.6,752.58L277.29,751.41L282.68,744.48L285.37,727.76L288.06,680.06L290.75,659.02L296.14,609.59L298.83,571.9L306.9,423.17L309.6,363.42L314.98,270.53L317.67,252.79L325.75,173.04L328.44,155.52L339.21,95.94L341.9,89.21L347.29,65.75L349.98,64.72L352.67,52.26L355.36,53.72L358.06,56.76L360.75,47.01L363.44,47.57L366.13,50.9L368.82,45.63L371.52,55.81L376.9,43.29L379.59,51.5L382.29,48.3L384.98,41.36L390.36,45.17L393.05,45.55L395.75,42.91L398.44,46.56L401.13,51.39L403.82,48.23L406.51,50.08L409.21,53.69L411.9,51.5L414.59,51.38L417.28,56.93L419.98,57.12L422.67,62.6L425.36,58.85L428.05,56.36L430.74,58.18L433.44,62.26L436.13,63.04L438.82,65.85L441.51,66.42L444.2,79.26L446.9,67.13L449.59,77.58L452.28,77.84L454.97,79.13L457.67,65.98L460.36,82.13L463.05,90.49L465.74,89.34L468.43,92.18L476.51,101.67L479.2,91.29L481.89,101.45L484.59,102.16L487.28,107.42L489.97,97.42L492.66,117.16L495.36,121.22L498.05,127.17L500.74,136.79L503.43,136.03L506.12,160.6L511.51,193.6L514.2,219.52L516.89,236.35L519.58,275.01L524.97,347.71L527.66,392.47L541.12,571.08L543.81,582.87L546.51,607.69L549.2,619.6L551.89,642.44L554.58,647.94L557.27,660.46L559.97,662.14L562.66,670.78L565.35,671.54L568.04,677.4L570.74,678.04L573.43,682L576.12,682.68L578.81,683.51L581.5,681.67L584.2,686.07L586.89,685.51L589.58,692.38L592.27,688.5L594.96,693.64L597.66,691.32L600.35,687.41L603.04,691.18L605.73,692.87L608.43,701.71L611.12,692.87L613.81,696.58L619.19,693.64L621.89,697.25L624.58,698.59L627.27,704.84L629.96,695.01L632.65,697.04L635.35,695.08L638.04,702.54L640.73,702L643.42,709.47L646.12,707.47L648.81,704.04L651.5,702.41L654.19,703.01L656.88,696.56L659.58,680.72L662.27,688.12L664.96,692L670.35,679.18L673.04,688.98L675.73,693.6L678.42,692.34L681.11,690.43L683.81,682.94L686.5,689.31L689.19,687.07L691.88,692.69L694.57,693.56L702.65,694L705.34,693.92L708.04,690.38L710.73,699.07L713.42,702.16L716.11,694.28L718.8,699.08L721.5,699.64L724.19,699.2L726.88,702.59L734.96,708.02L737.65,712.3L743.03,704.81L745.73,707.39L748.42,705.59L751.11,707.08L756.49,712.73L759.19,710.94L764.57,714.05L767.26,713.64L769.95,712.71L772.65,714.04L775.34,717.77L778.03,715.52L783.42,725.42L786.11,728.05L788.8,718.51L791.49,722.98L794.18,726.75L796.88,726.96L802.26,736.97L804.95,738.86L807.64,734.94L810.34,738.19L813.03,736.81L815.72,736.61L818.41,742.62L821.11,738.41L823.8,744.27L826.49,740.96L829.18,742.25L831.87,742L834.57,740.1L837.26,740.36L839.95,724.85L842.64,741.04L848.03,744.56L850.72,739.45L853.41,748.26L856.1,745.68L858.8,739.29L861.49,719.1L864.18,706.71L866.87,637.8L872.26,546.84L874.95,496.76L880.33,376.94L883.02,303.41L885.72,267.06L888.41,244.7L891.1,222.55L893.79,190.45L901.87,132.41L904.56,120.13L907.25,108.92L909.95,87.59L912.64,82.83L915.33,64.25L918.02,58.48L920.71,67.45L926.1,48.01L928.79,50.41L931.48,46.6L934.18,50.2L936.87,49.48L939.56,50.46L942.25,52.52L944.94,51.9L947.64,51.4L950.33,54.79L953.02,60.02L955.71,59.77L958.4,61.29L961.1,60.65L966.48,65.43L969.17,63.74L971.87,70.29L974.56,72.17L977.25,75.87L979.94,73.13L985.33,75.26L988.02,73.12L990.71,83.25L993.4,81.51L996.1,79.65L998.79,86.19L1001.48,82.84L1004.17,84.18L1006.86,87.72L1009.56,83.18L1012.25,93.96L1014.94,99.61L1017.63,97.16L1020.32,100.13L1023.02,106.28L1025.71,104.29L1028.4,107.7L1031.09,113.86L1033.79,105.87L1036.48,112.01L1039.17,116.06L1041.86,116.05L1044.55,125.05L1047.25,127.95L1049.94,129.49L1052.63,141.32L1055.32,146.77L1058.01,159.09L1060.71,163.33L1063.4,171.32L1066.09,176.41L1068.78,202.64L1071.48,218.2L1074.17,241.47L1090.32,446.76L1093.01,475.77L1095.7,508.48L1098.4,528.91L1103.78,577.64L1106.47,595.21L1109.17,614.48L1111.86,620.23L1114.55,637.98L1117.24,640.24L1119.93,652.07L1122.63,656.85L1125.32,659.18L1128.01,663.2L1130.7,663.6L1133.39,667.73L1136.09,670.02L1138.78,678.45L1141.47,675.3L1144.16,679.11L1146.86,681.35L1149.55,681.03L1154.93,686.42L1157.62,683.45L1160.32,683.95L1163.01,688.01L1165.7,688.23L1168.39,683.08L1171.08,687.6L1173.78,688.19L1179.16,692.92L1181.85,691.15L1184.55,686.58L1187.24,690.98L1192.62,687.57L1195.31,691.56L1198.01,692.46L1200.7,692.23L1203.39,694.33L1206.08,693.97L1208.77,691.22L1211.47,695.03L1216.85,689.14L1219.54,695.46L1222.24,689.02L1224.93,693.3L1227.62,692.4L1230.31,684.82L1233,690.16L1235.7,689.16L1238.39,692.7L1241.08,701.49L1243.77,692.39L1246.46,698.01L1249.16,694.25L1251.85,684.81L1254.54,688.12L1257.23,687.64L1259.93,699.04L1262.62,687.27L1265.31,693.56L1268,686.12L1270.69,684.51L1273.39,687.39L1276.08,687.42L1278.77,699.3L1281.46,687.22L1284.15,694.61L1286.85,690.26L1289.54,690.99L1292.23,693.26L1294.92,693.49L1297.62,692.74L1300.31,682.99L1303,686.93L1305.69,684.92L1308.38,692.33L1311.08,689.59L1313.77,698.22L1316.46,694.87L1319.15,695.31L1321.85,697.8L1327.23,697.34L1329.92,688.35L1332.61,691.66L1335.31,690.83L1338,697.63L1340.69,695.63L1343.38,704.48L1346.07,701.79L1348.77,702.11L1351.46,704.79L1354.15,705.33L1356.84,704.67L1359.54,696.92L1362.23,700.76L1364.92,699.33L1367.61,706.61L1370.3,703.7L1373,713.15L1375.69,703.48L1378.38,704.22L1381.07,709.65L1383.76,708.11L1386.46,721.56L1389.15,709.71L1391.84,719.83L1394.53,710.08L1397.23,710.52L1399.92,716.29L1402.61,715.07L1405.3,727.86L1407.99,717.23L1410.69,727.66L1413.38,717.76L1416.07,718.87L1418.76,723.58L1421.45,723.8L1424.15,734.71L1426.84,728.12L1429.53,737.34L1432.22,732.61L1437.61,738.23L1440.3,739.57L1442.99,741.7L1445.68,740.95L1451.07,744.66L1453.76,748.2L1459.14,747.96L1461.84,752.55L1464.53,739.75L1467.22,741.13L1472.61,691.67L1475.3,667.09L1477.99,654.54L1480.68,622.56L1483.37,604.95L1486.07,566.08L1494.14,439.36L1496.83,346.32L1502.22,250.63L1504.91,207.33L1507.6,216.19L1510.3,175.63L1515.68,91.74L1518.37,81.07L1523.76,66.9L1526.45,62.5L1531.83,57.48L1534.52,56.41L1539.91,56.2L1542.6,56.77L1553.37,61.26L1556.06,62.59L1572.21,69.74L1574.91,70.66L1588.37,73.79L1591.06,74.1L1601.83,74.26L1604.52,74.01L1609.9,73.14L1612.6,67.25L1615.29,76.07L1617.98,72.59L1620.67,64.6L1623.37,53.36L1626.06,67.04L1628.75,53.13L1634.13,62.63L1636.83,49.54L1642.21,57.13L1644.9,46.77L1647.6,48.53L1650.29,51.5L1652.98,45.91L1655.67,44.27L1658.36,47.52L1661.06,47.57L1663.75,42.08L1666.44,46.99L1669.13,51.33L1671.82,42.42L1677.21,55.86L1679.9,44.56L1682.59,56.88L1685.29,59.64L1687.98,47.07L1690.67,51.01L1696.05,46.27L1698.75,51.42L1701.44,49.77L1704.13,54.88L1722.98,55.43L1725.67,55.86L1733.74,58.35L1736.44,59.67L1744.51,65.48L1747.2,59.33L1749.9,61.79L1752.59,59.36L1755.28,60.67L1757.97,65.57L1760.67,69.04L1763.36,77.8L1766.05,94.95L1768.74,88.78L1771.43,109.46L1774.13,103.09L1776.82,110.47L1779.51,111.67L1784.89,124.37L1787.59,125.52L1790.28,158.73L1792.97,169.81L1801.05,225.66L1803.74,244.45L1809.12,307.8L1811.82,361.86L1822.58,523.11L1825.28,554.38L1830.66,604.25L1833.35,622.25L1836.05,638.39L1838.74,646.23L1841.43,657.79L1844.12,661.13L1846.81,668.82L1849.51,670.78L1852.2,675.86L1854.89,677.36L1857.58,680.94L1860.27,682.05L1862.97,684.89L1865.66,685.55L1868.35,688.08L1871.04,688.28L1873.74,690.69L1876.43,690.51L1879.12,692.87L1881.81,692.4L1884.5,694.78L1887.2,694.06L1889.89,696.52L1892.58,695.54L1895.27,698.15L1897.96,696.89L1900.66,706.7L1903.35,706.34L1906.04,709.2L1908.73,707.74L1911.43,711.34L1914.12,706.22L1916.81,699.53L1919.5,706.71L1922.19,694.64L1924.89,700.88L1927.58,708.06L1930.27,695.52L1935.65,709.06L1938.35,704.06L1941.04,713.56L1943.73,711.41L1946.42,696.48L1949.12,712.26L1951.81,706L1954.5,689.38L1957.19,696.81L1959.88,712.58L1962.58,706.3L1965.27,689.71L1967.96,697.1L1970.65,701.16L1976.04,687.99L1978.73,705.58L1981.42,715.66L1984.11,713.43L1986.81,698.33L1989.5,702.72L1994.88,689.79L1997.57,699.92L2002.96,714.38L2005.65,701.42L2008.34,708.84L2011.04,706.91L2013.73,703.14L2016.42,710.99L2019.11,715.32L2021.8,706.88L2024.5,704.37L2027.19,720.27L2029.88,715.16L2032.57,722.16L2035.26,710.48L2037.96,718.04L2040.65,724.99L2043.34,714.25L2048.73,728.12L2051.42,718.77L2056.8,731.51L2059.49,724.05L2062.19,727.76L2064.88,735.18L2067.57,732.83L2070.26,736.32L2072.95,740.05L2075.65,734.79L2078.34,739.67L2081.03,739.03L2083.72,733.54L2086.42,746.55L2089.11,745.02L2091.8,752.12L2094.49,746.84L2097.18,733.13L2099.88,719.7L2102.57,681.43L2105.26,644.19L2107.95,587.75L2110.64,549.42L2113.34,469.43L2124.11,220.95L2126.8,188.12L2132.18,147.14L2134.87,132.69L2142.95,98.25L2145.64,88.92L2151.03,73.65L2153.72,67.85L2159.1,59.84L2161.8,88.24L2164.49,98.67L2167.18,84.82L2169.87,93.03L2172.56,80.91L2175.26,71.85L2177.95,58.7L2183.33,53.95L2186.02,57.27L2188.72,56.55L2191.41,59.09L2194.1,59.66L2196.79,61.73L2204.87,66.79L2207.56,69.23L2210.25,70.66L2212.95,73.74L2215.64,74.69L2218.33,78.52L2221.02,78.93L2223.71,83.59L2226.41,80.53L2229.1,83.33L2231.79,86.42L2234.48,91.58L2237.18,93L2239.87,100.78L2242.56,105.32L2245.25,96.21L2247.94,115.37L2250.64,111.93L2253.33,124.67L2256.02,123.18L2258.71,128.28L2261.4,126.46L2264.1,138.71L2266.79,146.22L2269.48,151.75L2272.17,162.69L2274.87,166.13L2277.56,186.32L2280.25,193.33L2282.94,215.34L2288.33,272.89L2291.02,306.47L2296.4,376.78L2299.1,412.46L2304.48,488.19L2307.17,519.1L2309.86,544.58L2312.56,580.52L2315.25,592.68L2317.94,610.87L2320.63,633.34L2323.32,633.41L2328.71,663.19L2331.4,664.23L2334.09,672.78L2336.79,667.94L2339.48,679.77L2342.17,683.24L2344.86,678.56L2347.55,688.98L2352.94,694.64L2355.63,699.03L2358.32,700.47L2361.01,700.03L2363.71,705.8L2366.4,704.66L2369.09,703.47L2371.78,710.17L2374.48,701.94L2377.17,708.87L2379.86,712.95L2382.55,707.45L2385.24,713.83L2387.94,715.57L2393.32,723.55L2396.01,723.51L2401.4,727.45L2404.09,720.77L2406.78,729.05L2409.47,726.08L2412.17,722.98L2414.86,726.25L2417.55,725.7L2420.24,733.88L2425.63,726.34L2428.32,731.17L2433.7,736.89L2436.39,734.3L2439.09,726.76L2441.78,729.45L2444.47,729.22L2447.16,731.28L2449.86,720.03L2452.55,732.23L2455.24,728.1L2457.93,719.35L2460.62,721.32L2463.32,714.39L2466.01,722.49L2468.7,716.34L2471.39,703.07L2474.08,705.41L2476.78,694.43L2479.47,702.33L2482.16,696.9L2484.85,684.16L2487.55,692.79L2490.24,690.68L2492.93,678.79L2495.62,684.32L2498.31,681.69L2501.01,669.22L2503.7,676.4L2506.39,673.44L2509.08,660.37L2511.77,666.64L2514.47,671.28L2517.16,665.22L2519.85,658.47L2522.54,664.56L2527.93,665.55L2530.62,658.67L2533.31,664L2536,671.74L2538.7,673.7L2541.39,671.43L2544.08,659.84L2546.77,669.16L2549.46,676.47L2552.16,678.64L2554.85,671.78L2557.54,678.2L2560.23,683.83L2562.93,684.18L2568.31,676.29L2571,678.96L2576.39,685.74L2579.08,683.84L2581.77,689.39L2584.46,692.32L2589.85,700.8L2592.54,703.2L2595.23,700.05L2597.92,703.74L2600.62,707.01L2603.31,707.87L2606,706.42" style="vector-effect: non-scaling-stroke; fill: none; stroke: rgb(0, 170, 0); stroke-opacity: 1; stroke-width: 4px; opacity: 1;"/></g><g class="points"/><g class="text"/></g></g></g><g class="overplot"/><path class="xlines-above crisp" d="M0,0" style="fill: none;"/><path class="ylines-above crisp" d="M0,0" style="fill: none;"/><g class="overlines-above"/><g class="xaxislayer-above"><g class="xtick"><text text-anchor="middle" x="0" y="934" transform="translate(136,0)" style="font-family: 'Open Sans', verdana, arial, sans-serif; font-size: 37px; fill: rgb(42, 63, 95); fill-opacity: 1; white-space: pre; opacity: 1;">0</text></g><g class="xtick"><text text-anchor="middle" x="0" y="934" style="font-family: 'Open Sans', verdana, arial, sans-serif; font-size: 37px; fill: rgb(42, 63, 95); fill-opacity: 1; white-space: pre; opacity: 1;" transform="translate(405.21,0)">100</text></g><g class="xtick"><text text-anchor="middle" x="0" y="934" style="font-family: 'Open Sans', verdana, arial, sans-serif; font-size: 37px; fill: rgb(42, 63, 95); fill-opacity: 1; white-space: pre; opacity: 1;" transform="translate(674.43,0)">200</text></g><g class="xtick"><text text-anchor="middle" x="0" y="934" style="font-family: 'Open Sans', verdana, arial, sans-serif; font-size: 37px; fill: rgb(42, 63, 95); fill-opacity: 1; white-space: pre; opacity: 1;" transform="translate(943.64,0)">300</text></g><g class="xtick"><text text-anchor="middle" x="0" y="934" style="font-family: 'Open Sans', verdana, arial, sans-serif; font-size: 37px; fill: rgb(42, 63, 95); fill-opacity: 1; white-space: pre; opacity: 1;" transform="translate(1212.86,0)">400</text></g><g class="xtick"><text text-anchor="middle" x="0" y="934" style="font-family: 'Open Sans', verdana, arial, sans-serif; font-size: 37px; fill: rgb(42, 63, 95); fill-opacity: 1; white-space: pre; opacity: 1;" transform="translate(1482.07,0)">500</text></g><g class="xtick"><text text-anchor="middle" x="0" y="934" style="font-family: 'Open Sans', verdana, arial, sans-serif; font-size: 37px; fill: rgb(42, 63, 95); fill-opacity: 1; white-space: pre; opacity: 1;" transform="translate(1751.29,0)">600</text></g><g class="xtick"><text text-anchor="middle" x="0" y="934" style="font-family: 'Open Sans', verdana, arial, sans-serif; font-size: 37px; fill: rgb(42, 63, 95); fill-opacity: 1; white-space: pre; opacity: 1;" transform="translate(2020.5,0)">700</text></g><g class="xtick"><text text-anchor="middle" x="0" y="934" style="font-family: 'Open Sans', verdana, arial, sans-serif; font-size: 37px; fill: rgb(42, 63, 95); fill-opacity: 1; white-space: pre; opacity: 1;" transform="translate(2289.72,0)">800</text></g><g class="xtick"><text text-anchor="middle" x="0" y="934" style="font-family: 'Open Sans', verdana, arial, sans-serif; font-size: 37px; fill: rgb(42, 63, 95); fill-opacity: 1; white-space: pre; opacity: 1;" transform="translate(2558.93,0)">900</text></g></g><g class="yaxislayer-above"><g class="ytick"><text text-anchor="end" x="135" y="12.95" transform="translate(0,826.21)" style="font-family: 'Open Sans', verdana, arial, sans-serif; font-size: 37px; fill: rgb(42, 63, 95); fill-opacity: 1; white-space: pre; opacity: 1;">−15</text></g><g class="ytick"><text text-anchor="end" x="135" y="12.95" style="font-family: 'Open Sans', verdana, arial, sans-serif; font-size: 37px; fill: rgb(42, 63, 95); fill-opacity: 1; white-space: pre; opacity: 1;" transform="translate(0,722.92)">−10</text></g><g class="ytick"><text text-anchor="end" x="135" y="12.95" style="font-family: 'Open Sans', verdana, arial, sans-serif; font-size: 37px; fill: rgb(42, 63, 95); fill-opacity: 1; white-space: pre; opacity: 1;" transform="translate(0,619.63)">−5</text></g><g class="ytick"><text text-anchor="end" x="135" y="12.95" style="font-family: 'Open Sans', verdana, arial, sans-serif; font-size: 37px; fill: rgb(42, 63, 95); fill-opacity: 1; white-space: pre; opacity: 1;" transform="translate(0,516.3399999999999)">0</text></g><g class="ytick"><text text-anchor="end" x="135" y="12.95" style="font-family: 'Open Sans', verdana, arial, sans-serif; font-size: 37px; fill: rgb(42, 63, 95); fill-opacity: 1; white-space: pre; opacity: 1;" transform="translate(0,413.05)">5</text></g><g class="ytick"><text text-anchor="end" x="135" y="12.95" style="font-family: 'Open Sans', verdana, arial, sans-serif; font-size: 37px; fill: rgb(42, 63, 95); fill-opacity: 1; white-space: pre; opacity: 1;" transform="translate(0,309.76)">10</text></g><g class="ytick"><text text-anchor="end" x="135" y="12.95" style="font-family: 'Open Sans', verdana, arial, sans-serif; font-size: 37px; fill: rgb(42, 63, 95); fill-opacity: 1; white-space: pre; opacity: 1;" transform="translate(0,206.47)">15</text></g><g class="ytick"><text text-anchor="end" x="135" y="12.95" style="font-family: 'Open Sans', verdana, arial, sans-serif; font-size: 37px; fill: rgb(42, 63, 95); fill-opacity: 1; white-space: pre; opacity: 1;" transform="translate(0,103.18)">20</text></g></g><g class="overaxes-above"/></g></g><g class="polarlayer"/><g class="ternarylayer"/><g class="geolayer"/><g class="funnelarealayer"/><g class="pielayer"/><g class="iciclelayer"/><g class="treemaplayer"/><g class="sunburstlayer"/><g class="glimages"/><defs id="topdefs-4e0a4f"><g class="clips"/><clipPath id="legend4e0a4f"><rect width="694" height="113" x="0" y="0"/></clipPath></defs><g class="layer-above"><g class="imagelayer"/><g class="shapelayer"/></g><g class="infolayer"><g class="legend" pointer-events="all" transform="translate(2794.12,100)"><rect class="bg" shape-rendering="crispEdges" width="694" height="113" x="0" y="0" style="stroke: rgb(68, 68, 68); stroke-opacity: 1; fill: rgb(255, 255, 255); fill-opacity: 1; stroke-width: 0px;"/><g class="scrollbox" transform="" clip-path="url(#legend4e0a4f)"><g class="groups"><g class="traces" transform="translate(0,30.55)" style="opacity: 1;"><text class="legendtext" text-anchor="start" x="40" y="14.43" style="font-family: 'Open Sans', verdana, arial, sans-serif; font-size: 37px; fill: rgb(42, 63, 95); fill-opacity: 1; white-space: pre;">Predicted Curvature at Anchors #1</text><g class="layers" style="opacity: 1;"><g class="legendfill"/><g class="legendlines"><path class="js-line" d="M5,0h30" style="fill: none; stroke: rgb(170, 0, 0); stroke-opacity: 1; stroke-width: 4px;"/></g><g class="legendsymbols"><g class="legendpoints"/></g></g><rect class="legendtoggle" x="0" y="-25.55" width="688.125" height="51.1" style="fill: rgb(0, 0, 0); fill-opacity: 0;"/></g><g class="traces" transform="translate(0,81.65)" style="opacity: 1;"><text class="legendtext" text-anchor="start" x="40" y="14.43" style="font-family: 'Open Sans', verdana, arial, sans-serif; font-size: 37px; fill: rgb(42, 63, 95); fill-opacity: 1; white-space: pre;">Predicted Curvature at Anchors #2</text><g class="layers" style="opacity: 1;"><g class="legendfill"/><g class="legendlines"><path class="js-line" d="M5,0h30" style="fill: none; stroke: rgb(0, 170, 0); stroke-opacity: 1; stroke-width: 4px;"/></g><g class="legendsymbols"><g class="legendpoints"/></g></g><rect class="legendtoggle" x="0" y="-25.55" width="688.125" height="51.1" style="fill: rgb(0, 0, 0); fill-opacity: 0;"/></g></g></g><rect class="scrollbar" rx="20" ry="3" width="0" height="0" x="0" y="0" style="fill: rgb(128, 139, 164); fill-opacity: 1;"/></g><g class="g-gtitle"/><g class="g-xtitle"><text class="xtitle" x="1439" y="987.8" text-anchor="middle" style="font-family: 'Open Sans', verdana, arial, sans-serif; font-size: 44px; fill: rgb(42, 63, 95); opacity: 1; font-weight: normal; white-space: pre;">Anchor Point Index</text></g><g class="g-ytitle" transform="translate(32.1279296875,0)"><text class="ytitle" transform="rotate(-90,11.871875000000003,498)" x="11.871875000000003" y="498" text-anchor="middle" style="font-family: 'Open Sans', verdana, arial, sans-serif; font-size: 44px; fill: rgb(42, 63, 95); opacity: 1; font-weight: normal; white-space: pre;">Predicted Curvature</text></g><g class="annotation" data-index="0" style="opacity: 1;"><g class="annotation-text-g" transform="rotate(0,1439,66.49999999999993)"><g class="cursor-pointer" transform="translate(222,33)"><rect class="bg" x="0.5" y="0.5" width="2433" height="66" style="stroke-width: 1px; stroke: rgb(0, 0, 0); stroke-opacity: 0; fill: rgb(0, 0, 0); fill-opacity: 0;"/><text class="annotation-text" text-anchor="middle" x="1217.03125" y="54" style="font-family: 'Open Sans', verdana, arial, sans-serif; font-size: 52px; fill: rgb(42, 63, 95); fill-opacity: 1; white-space: pre;"><tspan style="font-weight:bold">Predicted Curvature at Anchors (Transformed Curve #1 vs. Transformed Curve #2)</tspan></text></g></g></g></g></svg>