<svg class="main-svg" xmlns="http://www.w3.org/2000/svg" xmlns:xlink="http://www.w3.org/1999/xlink" width="3500" height="1000" style="" viewBox="0 0 3500 1000"><rect x="0" y="0" width="3500" height="1000" style="fill: rgb(255, 255, 255); fill-opacity: 1;"/><defs id="defs-fe0035"><g class="clips"><clipPath id="clipfe0035xyplot" class="plotclip"><rect width="2606" height="796"/></clipPath><clipPath class="axesclip" id="clipfe0035x"><rect x="136" y="0" width="2606" height="1000"/></clipPath><clipPath class="axesclip" id="clipfe0035y"><rect x="0" y="100" width="3500" height="796"/></clipPath><clipPath class="axesclip" id="clipfe0035xy"><rect x="136" y="100" width="2606" height="796"/></clipPath></g><g class="gradients"/><g class="patterns"/></defs><g class="bglayer"><rect class="bg" x="136" y="100" width="2606" height="796" style="fill: rgb(229, 236, 246); fill-opacity: 1; stroke-width: 0;"/></g><g class="layer-below"><g class="imagelayer"/><g class="shapelayer"/></g><g class="cartesianlayer"><g class="subplot xy"><g class="layer-subplot"><g class="shapelayer"/><g class="imagelayer"/></g><g class="gridlayer"><g class="x"><path class="xgrid crisp" transform="translate(431.46,0)" d="M0,100v796" style="stroke: rgb(255, 255, 255); stroke-opacity: 1; stroke-width: 1px;"/><path class="xgrid crisp" transform="translate(726.93,0)" d="M0,100v796" style="stroke: rgb(255, 255, 255); stroke-opacity: 1; stroke-width: 1px;"/><path class="xgrid crisp" transform="translate(1022.39,0)" d="M0,100v796" style="stroke: rgb(255, 255, 255); stroke-opacity: 1; stroke-width: 1px;"/><path class="xgrid crisp" transform="translate(1317.86,0)" d="M0,100v796" style="stroke: rgb(255, 255, 255); stroke-opacity: 1; stroke-width: 1px;"/><path class="xgrid crisp" transform="translate(1613.32,0)" d="M0,100v796" style="stroke: rgb(255, 255, 255); stroke-opacity: 1; stroke-width: 1px;"/><path class="xgrid crisp" transform="translate(1908.79,0)" d="M0,100v796" style="stroke: rgb(255, 255, 255); stroke-opacity: 1; stroke-width: 1px;"/><path class="xgrid crisp" transform="translate(2204.25,0)" d="M0,100v796" style="stroke: rgb(255, 255, 255); stroke-opacity: 1; stroke-width: 1px;"/><path class="xgrid crisp" transform="translate(2499.72,0)" d="M0,100v796" style="stroke: rgb(255, 255, 255); stroke-opacity: 1; stroke-width: 1px;"/></g><g class="y"><path class="ygrid crisp" transform="translate(0,836.15)" d="M136,0h2606" style="stroke: rgb(255, 255, 255); stroke-opacity: 1; stroke-width: 1px;"/><path class="ygrid crisp" transform="translate(0,702.48)" d="M136,0h2606" style="stroke: rgb(255, 255, 255); stroke-opacity: 1; stroke-width: 1px;"/><path class="ygrid crisp" transform="translate(0,435.15)" d="M136,0h2606" style="stroke: rgb(255, 255, 255); stroke-opacity: 1; stroke-width: 1px;"/><path class="ygrid crisp" transform="translate(0,301.49)" d="M136,0h2606" style="stroke: rgb(255, 255, 255); stroke-opacity: 1; stroke-width: 1px;"/><path class="ygrid crisp" transform="translate(0,167.82)" d="M136,0h2606" style="stroke: rgb(255, 255, 255); stroke-opacity: 1; stroke-width: 1px;"/></g></g><g class="zerolinelayer"><path class="xzl zl crisp" transform="translate(136,0)" d="M0,100v796" style="stroke: rgb(255, 255, 255); stroke-opacity: 1; stroke-width: 2px;"/><path class="yzl zl crisp" transform="translate(0,568.8199999999999)" d="M136,0h2606" style="stroke: rgb(255, 255, 255); stroke-opacity: 1; stroke-width: 2px;"/></g><path class="xlines-below"/><path class="ylines-below"/><g class="overlines-below"/><g class="xaxislayer-below"/><g class="yaxislayer-below"/><g class="overaxes-below"/><g class="plot" transform="translate(136,100)" clip-path="url(#clipfe0035xyplot)"><g class="scatterlayer mlayer"><g class="trace scatter trace4493dd" style="stroke-miterlimit: 2; opacity: 1;"><g class="fills"/><g class="errorbars"/><g class="lines"><path class="js-line" d="M0,228.99L2.95,223.02L5.91,222.87L8.86,225.19L11.82,222.81L14.77,222.59L17.73,217.74L20.68,210.82L23.64,211.88L26.59,192.31L29.55,201.93L32.5,207.24L35.46,215.01L38.41,192.39L41.37,194.51L47.27,192.19L50.23,192.19L53.18,183.65L56.14,189.06L62.05,181.35L65,171.29L67.96,172.04L70.91,170.12L76.82,154.76L79.78,151.91L82.73,141.7L85.68,140.08L88.64,131.59L91.59,131.35L94.55,127.77L97.5,118.32L100.46,115.09L103.41,105.1L106.37,108.45L109.32,104.2L115.23,95.23L118.19,87.59L121.14,91.6L124.1,92.21L127.05,86.51L130,86.38L138.87,78.79L141.82,79.15L144.78,76.02L147.73,77.53L150.69,76.98L153.64,74.92L156.6,74.05L159.55,68.14L162.51,75.09L165.46,74.13L168.41,77.37L171.37,72.26L174.32,74.92L177.28,75.73L180.23,70.85L183.19,75.7L186.14,78.72L189.1,75.32L192.05,81.19L195.01,83.76L200.92,98.5L203.87,82.51L206.83,86.51L209.78,102.77L212.73,99.59L215.69,90.73L221.6,100.41L224.55,99.86L227.51,101.55L230.46,107.73L233.42,111.56L236.37,117.83L239.33,115.45L242.28,119L245.24,124.78L248.19,122.68L254.1,130.1L257.05,131.12L260.01,130L262.96,137.96L265.92,132.51L268.87,136.47L271.83,141.78L274.78,144.38L283.65,149.73L286.6,146.41L289.56,153.3L292.51,147.22L295.46,150.26L298.42,157.09L301.37,160.23L304.33,161.35L310.24,165.97L313.19,168.25L316.15,170.84L319.1,171.08L325.01,177.13L327.97,179.12L330.92,182.07L333.88,183.5L336.83,186.8L339.78,183.58L342.74,189.11L345.69,188.03L348.65,190.39L351.6,195.46L354.56,198.4L357.51,198.27L366.38,203.08L369.33,209.5L372.29,203.76L375.24,211.27L378.2,209.33L381.15,212.42L384.1,216.24L387.06,222.67L392.97,229.54L395.92,235.72L398.88,238.62L401.83,248.55L404.79,251.6L407.74,258.55L410.7,265.56L413.65,280.76L416.61,301.91L419.56,308.01L422.51,337.3L425.47,300.22L428.42,354.41L431.38,344.89L434.33,385.98L437.29,453.49L443.2,539.48L446.15,546.17L452.06,606.46L455.02,629.32L460.93,663.45L463.88,675.71L469.79,691.88L472.74,696.37L475.7,698.95L478.65,699.95L481.61,699.68L484.56,714.91L487.52,709.84L490.47,701.89L493.43,704.6L496.38,698.74L499.34,688.59L502.29,686.11L508.2,674.03L511.15,672.29L517.06,663.43L520.02,648.19L522.97,653.34L525.93,656.49L531.84,646.06L534.79,645.64L537.75,642.37L540.7,628.14L543.66,635.12L546.61,632.27L561.38,616.48L564.34,612.89L576.16,596.38L579.11,591.56L590.93,569.18L593.88,574.67L596.84,576.43L599.79,568.81L602.75,553.33L605.7,562.27L608.66,554.2L611.61,537.04L617.52,522.02L620.48,523.26L623.43,481.55L626.39,482.79L629.34,473.88L632.29,445.13L635.25,422.18L638.2,417.49L644.11,331.71L647.07,311.28L650.02,277.75L652.98,266.39L655.93,234.29L658.89,217.31L661.84,186.68L664.8,170.91L667.75,129.66L670.71,111.09L673.66,84.17L676.61,94.6L682.52,61.04L685.48,67.23L688.43,64.75L691.39,71.52L694.34,71.1L697.3,79.73L700.25,80.71L703.21,91.24L706.16,93.75L709.12,97.97L712.07,101.36L715.02,107.45L720.93,111.5L723.89,115.3L729.8,120.43L732.75,124.84L735.71,128.49L738.66,129.57L741.62,135.22L744.57,138.69L747.53,138.88L750.48,143.79L756.39,148.56L759.34,148.91L762.3,153.2L765.25,155.58L768.21,157.59L771.16,162.33L782.98,178.81L785.94,183.24L791.85,198.09L794.8,200.23L800.71,221L803.66,221.02L806.62,234.42L809.57,237.61L815.48,261.64L818.44,263.18L824.35,285.65L827.3,286.91L833.21,312.95L836.17,318.85L839.12,338.78L842.07,341.29L847.98,365.03L850.94,407.62L856.85,480.61L859.8,513.4L862.76,539.95L865.71,592.17L868.67,603.52L871.62,660.58L874.58,687.26L877.53,733.87L880.49,756.2L883.44,755.85L886.39,732.96L889.35,722.94L892.3,696.88L895.26,694.24L898.21,678.4L901.17,672.58L904.12,656.1L907.08,656.11L915.94,639.58L918.9,620.94L921.85,621.84L924.8,620.83L927.76,609.36L930.71,616.73L933.67,601.37L936.62,595.78L939.58,596.49L942.53,580.29L945.49,587.59L948.44,564.33L957.31,532.48L960.26,514.76L963.22,507.91L966.17,508.09L972.08,458.39L975.03,441.19L986.85,293.31L989.81,252.7L992.76,223.62L995.72,180.27L998.67,156.66L1001.63,151.83L1004.58,124.53L1007.54,81.33L1010.49,90.54L1013.44,68.75L1016.4,58.25L1019.35,66.77L1022.31,44.7L1025.26,41.3L1028.22,44.54L1031.17,76.75L1034.13,70.07L1037.08,54.29L1042.99,78.91L1045.95,85.86L1048.9,74.49L1051.85,83.77L1054.81,91.98L1057.76,94.58L1060.72,91.58L1063.67,100.79L1066.63,100.95L1069.58,109L1072.54,104.55L1075.49,105.25L1078.45,116.56L1081.4,118.38L1084.36,119.36L1087.31,117.23L1090.27,116.35L1093.22,125.33L1096.17,118.3L1099.13,120.21L1102.08,138.94L1105.04,132.02L1107.99,131.94L1110.95,125.69L1113.9,134.14L1116.86,124.94L1119.81,126.55L1122.77,136.5L1125.72,138.59L1128.68,137.73L1131.63,139.3L1134.59,138.56L1137.54,139.53L1140.49,138.96L1146.4,138.88L1149.36,137.51L1152.31,134.06L1155.27,137.26L1158.22,132.44L1161.18,136.67L1164.13,131.74L1167.09,137.15L1170.04,131.55L1173,128.97L1175.95,130.73L1178.9,124.23L1181.86,130.49L1184.81,124.62L1187.77,130.63L1190.72,126.46L1193.68,123.92L1196.63,127.78L1199.59,123.15L1202.54,128.39L1205.5,125.71L1208.45,127.15L1211.41,130.53L1214.36,129.41L1217.32,132.55L1220.27,131.46L1226.18,138.37L1229.13,136.55L1232.09,139.63L1235.04,138.99L1238,142.19L1240.95,147.47L1243.91,143.57L1246.86,147.88L1249.82,148.36L1252.77,151.18L1255.73,156.22L1258.68,154.08L1264.59,157.46L1267.54,164.28L1273.45,175.93L1276.41,183.08L1279.36,186.17L1282.32,202.38L1285.27,208.05L1288.23,207.59L1291.18,237.68L1294.14,250.49L1297.09,259L1300.05,292.61L1311.86,364.25L1314.82,389.34L1317.77,451.7L1320.73,490.85L1323.68,502.35L1326.64,554.2L1332.55,596.51L1335.5,663.84L1338.46,700.99L1341.41,722.56L1344.37,730.76L1347.32,720.59L1350.27,712.66L1353.23,698.86L1356.18,691.19L1359.14,687.19L1362.09,678.42L1365.05,674.63L1368,670.61L1370.96,664.36L1376.87,659.83L1379.82,655.43L1382.78,654.31L1385.73,654.91L1388.68,656.12L1391.64,653.04L1394.59,651.81L1397.55,649.45L1400.5,650.1L1403.46,646.08L1406.41,647.97L1409.37,647.32L1412.32,646.08L1415.28,646.18L1421.19,649.18L1424.14,647.31L1427.1,644.2L1430.05,650.29L1435.96,643.88L1438.91,652.24L1444.82,652.8L1447.78,656.28L1450.73,660.97L1453.69,650L1456.64,653.39L1459.6,648.8L1462.55,647.9L1465.51,657.9L1468.46,656.83L1471.41,659.59L1474.37,665.07L1477.32,664.43L1480.28,660.81L1483.23,668.94L1486.19,665.34L1489.14,667.65L1492.1,661.42L1495.05,662.89L1498.01,660.05L1500.96,659.8L1506.87,652.95L1509.83,651.54L1515.73,647.59L1518.69,647.88L1524.6,643.62L1527.55,641.78L1533.46,636.48L1536.42,632.92L1542.33,630.71L1545.28,626.11L1548.24,623.28L1551.19,624.92L1557.1,620.19L1560.05,616.18L1563.01,614.93L1565.96,610.77L1568.92,606.71L1571.87,607.89L1580.74,600.35L1583.69,599.83L1586.65,597.9L1589.6,591.89L1592.56,591.21L1595.51,587.52L1598.46,583.02L1601.42,583.86L1607.33,578.85L1610.28,577.6L1613.24,575.78L1616.19,571.97L1619.15,570.02L1622.1,571.04L1625.06,564.52L1628.01,561.07L1630.97,563.43L1633.92,557.47L1639.83,552.89L1642.78,546.01L1648.69,536.75L1651.65,528.95L1657.56,513.24L1660.51,501.55L1666.42,468.85L1669.38,441.84L1672.33,427.97L1675.29,389.96L1678.24,363.48L1681.2,311.57L1687.1,264.06L1690.06,245.72L1695.97,192.12L1698.92,164.41L1701.88,139.8L1704.83,134.45L1710.74,73.59L1713.7,78.77L1716.65,59.23L1719.61,57.7L1722.56,56.31L1725.51,62.49L1728.47,63.44L1731.42,71.12L1734.38,71.46L1737.33,83.04L1740.29,82.86L1743.24,87.46L1746.2,97.21L1749.15,96.88L1752.11,106.17L1755.06,107.16L1760.97,118.46L1763.93,119.48L1775.74,130.59L1778.7,136.47L1781.65,135.94L1784.61,141.26L1787.56,142.56L1790.52,146.21L1796.43,148.06L1799.38,150.66L1802.34,151.93L1805.29,154.51L1811.2,163.46L1814.15,169.04L1817.11,167.74L1820.06,179.12L1823.02,175.72L1825.97,189.08L1828.93,184.05L1831.88,197.31L1834.84,191.58L1837.79,202.81L1840.75,197.1L1843.7,207.98L1846.66,209.09L1849.61,225.99L1852.56,230.41L1855.52,222.36L1858.47,207.32L1861.43,164.49L1885.07,128.18L1888.02,124.49L1896.88,115.49L1899.84,113.27L1905.75,110.16L1908.7,109.29L1914.61,108.93L1917.57,109.43L1920.52,110.35L1923.48,97.11L1926.43,106.54L1929.39,119.37L1932.34,104.27L1935.29,108.38L1938.25,116.97L1941.2,130.23L1944.16,131.1L1947.11,125.14L1950.07,125.97L1953.02,136.08L1955.98,125.88L1958.93,128.72L1961.89,143.68L1964.84,145.91L1970.75,150.66L1973.71,151.73L1976.66,157.9L1979.61,157.73L1982.57,163.65L1985.52,164.94L1991.43,168.1L1994.39,171.91L2003.25,184.8L2006.21,186.51L2009.16,194.14L2012.12,192.95L2015.07,196.01L2018.02,207.14L2020.98,211.16L2023.93,212.69L2026.89,223.76L2029.84,228.28L2032.8,234.23L2035.75,235.27L2038.71,250.18L2041.66,258.14L2044.62,262.92L2047.57,280.76L2059.39,321.54L2062.34,335.85L2068.25,369.02L2071.21,403.35L2077.12,498.06L2080.07,487.15L2085.98,568.82L2088.94,597.35L2094.85,650.29L2097.8,694.99L2100.76,732.63L2103.71,752.05L2106.66,747.62L2109.62,748.58L2118.48,728.79L2121.44,726.28L2127.35,713.12L2130.3,707.31L2136.21,698.57L2139.17,700.98L2142.12,683.23L2145.07,680.46L2148.03,665.98L2150.98,665.62L2153.94,665.41L2156.89,677.48L2159.85,708.67L2162.8,710.4L2165.76,703.28L2168.71,699.93L2171.67,696.57L2174.62,691.58L2180.53,686.01L2183.49,687.52L2186.44,688.5L2189.39,684.35L2192.35,680.35L2195.3,679.08L2198.26,678.83L2201.21,673.75L2204.17,669.26L2207.12,673.65L2210.08,673.85L2213.03,669.16L2215.99,665.11L2218.94,668.43L2221.9,667.03L2224.85,662.8L2230.76,663.31L2233.71,658.14L2236.67,653.43L2239.62,655.01L2242.58,653.47L2245.53,648.92L2248.49,649.86L2251.44,646.69L2257.35,639.79L2260.31,640.88L2266.22,635.15L2269.17,635.59L2275.08,628.09L2278.03,626.48L2280.99,626.22L2283.94,621.44L2286.9,625.35L2289.85,618L2292.81,612.7L2295.76,614.18L2298.72,611.56L2301.67,612.81L2304.63,604.39L2307.58,601.02L2310.54,600.69L2313.49,595.54L2319.4,589.97L2322.35,583.73L2325.31,583.66L2328.26,580.84L2334.17,579.31L2337.13,568.12L2343.04,562.94L2345.99,554.2L2348.95,551.92L2351.9,545.59L2354.85,545.62L2357.81,536.6L2360.76,526.77L2363.72,522.6L2366.67,511.5L2369.63,506.78L2372.58,496.68L2375.54,480.06L2378.49,472.17L2381.45,450.68L2384.4,422.49L2387.36,411.6L2396.22,299.18L2399.17,275.69L2410.99,189.29L2413.95,154.58L2416.9,135.53L2419.86,132.47L2422.81,85.07L2425.77,75.84L2431.68,50.61L2434.63,55.1L2437.59,53.81L2440.54,53.88L2443.49,55.89L2446.45,64.05L2449.4,63.78L2452.36,69.04L2455.31,78.52L2458.27,77.08L2461.22,89.77L2464.18,87.8L2467.13,92.95L2470.09,101.09L2473.04,101.54L2476,109.68L2481.9,111.19L2484.86,115.1L2487.81,120.6L2490.77,123.93L2496.68,128.85L2499.63,133.68L2505.54,137.54L2508.5,141.85L2511.45,146.72L2514.41,146.64L2520.32,153.17L2523.27,154.97L2526.22,154.8L2529.18,159.03L2532.13,161.74L2535.09,167.76L2538.04,173.05L2541,172.56L2543.95,174.67L2546.91,183.99L2549.86,193.59L2552.82,196.56L2555.77,200.66L2558.73,196.87L2564.63,218.93L2567.59,216.77L2570.54,220.92L2573.5,219.31L2576.45,223.16L2579.41,231.74L2585.32,230.31L2588.27,225.48L2591.23,226.17L2594.18,228.72L2597.14,229.11L2600.09,227.23L2603.05,226.61L2606,227.27" style="vector-effect: non-scaling-stroke; fill: none; stroke: rgb(170, 0, 0); stroke-opacity: 1; stroke-width: 4px; opacity: 1;"/></g><g class="points"/><g class="text"/></g><g class="trace scatter trace01986b" style="stroke-miterlimit: 2; opacity: 1;"><g class="fills"/><g class="errorbars"/><g class="lines"><path class="js-line" d="M0,191.81L2.95,195.05L5.91,183.13L8.86,185.65L11.82,206.78L14.77,202.16L17.73,194.45L20.68,186.55L23.64,197.81L26.59,181.65L29.55,179.22L32.5,192.83L35.46,187.89L38.41,194.2L41.37,172.71L44.32,182.05L47.27,165L50.23,162.53L53.18,163.23L56.14,172.74L59.09,154.54L62.05,149.28L65,150.59L67.96,160.3L70.91,143.04L73.87,133.63L76.82,135.93L79.78,145.73L82.73,131.38L85.68,110.92L88.64,118.31L91.59,118.79L94.55,137.02L100.46,100.74L103.41,106.09L106.37,115.38L109.32,109.69L112.28,88.62L115.23,93.85L118.19,95.86L121.14,120.04L127.05,84.79L130,89.35L132.96,91.93L135.91,116.62L141.82,86.83L144.78,90.31L147.73,93.07L150.69,116.27L156.6,93.13L159.55,96.16L165.46,107.03L168.41,118.48L171.37,112.36L174.32,103.58L177.28,106.54L180.23,122.77L183.19,118.43L186.14,119.98L192.05,123.07L195.01,115.61L197.96,118.51L200.92,127.16L203.87,129.13L206.83,123.62L209.78,125.86L212.73,140.38L215.69,134.93L218.64,136.34L251.15,151.04L254.1,143.12L257.05,142.73L260.01,149.11L262.96,155.91L265.92,152.16L268.87,153.7L271.83,167.99L277.74,153.06L280.69,151.83L286.6,163.92L289.56,160.09L292.51,156.36L295.46,157.39L298.42,163.69L301.37,167.21L304.33,158.48L307.28,155.25L310.24,162.96L313.19,162.83L316.15,156.01L319.1,161.51L322.06,172.97L325.01,172.6L327.97,160.9L330.92,165.27L333.88,174.52L336.83,164.47L339.78,161.9L342.74,174.36L345.69,168.08L348.65,173.65L351.6,162.47L354.56,165.11L357.51,191.87L360.47,185.58L363.42,181.97L366.38,173.96L369.33,185.08L372.29,172.75L375.24,178.12L378.2,195.27L381.15,194.35L384.1,198.41L387.06,201.09L390.01,207.68L392.97,214.08L395.92,212.51L401.83,227.74L404.79,230.97L407.74,250.11L410.7,258.84L413.65,281.07L416.61,295.56L419.56,307.14L422.51,331.8L425.47,339.39L428.42,369.25L431.38,394.04L434.33,429.04L437.29,471.35L440.24,494.91L443.2,538.97L446.15,556.16L452.06,606.02L455.02,610.76L463.88,702.56L466.83,720.42L469.79,730.47L472.74,733.73L475.7,727.57L478.65,724.99L481.61,717.79L484.56,691.9L487.52,694.21L490.47,665.3L493.43,659.75L496.38,666.09L508.2,652.01L511.15,649.01L514.11,646.17L517.06,656.06L520.02,651.23L522.97,641.45L525.93,645.21L528.88,641.16L531.84,638.1L534.79,639.74L537.75,632.76L540.7,630.95L543.66,634.06L546.61,626.54L549.56,627.04L552.52,623.83L555.47,616.54L558.43,616.44L561.38,611.93L564.34,612L567.29,612.61L570.25,603.32L576.16,598.38L579.11,592.79L582.07,591.33L585.02,585.78L590.93,584.85L593.88,573.38L596.84,567.37L599.79,566.31L605.7,548.99L608.66,546.24L614.57,523.74L617.52,521.42L623.43,491.14L626.39,477.63L629.34,470.63L632.29,451.71L638.2,412.86L641.16,376.2L650.02,278.34L652.98,257.36L655.93,233.71L658.89,229.45L670.71,106.05L673.66,84.17L676.61,64.54L679.57,54.79L682.52,46.15L685.48,50.24L688.43,53.37L691.39,59.24L694.34,60.28L697.3,64.64L703.21,75.3L706.16,78.3L709.12,80.43L712.07,85.55L717.98,92.84L720.93,95.89L729.8,106.87L732.75,110.16L744.57,123.29L747.53,125.59L750.48,127.71L753.44,132.24L759.34,136.77L762.3,138.39L765.25,143.07L768.21,145.83L774.12,149.14L777.07,153.01L782.98,158.72L785.94,160.97L788.89,164.29L791.85,169.25L800.71,179.53L803.66,187.5L809.57,198.12L812.53,201.26L818.44,233.45L821.39,231.12L827.3,263.33L830.26,278.58L836.17,312.66L839.12,322.59L845.03,346.54L847.98,387.54L850.94,399.74L853.89,439.59L856.85,519.38L859.8,531.3L868.67,641.21L871.62,703.56L874.58,738.4L877.53,743.91L880.49,743.29L883.44,734.01L886.39,712.15L889.35,700.77L892.3,681.1L895.26,676.5L898.21,654.71L901.17,653.64L904.12,641.15L907.08,643.01L910.03,634.01L912.99,631.04L915.94,619.57L918.9,620.24L921.85,614.02L924.8,612.28L930.71,602.8L933.67,602.44L936.62,588.89L939.58,585.92L948.44,559.69L951.4,554.95L954.35,548.21L957.31,531.8L969.12,475.38L972.08,447.76L977.99,389.66L980.94,333.62L986.85,270.43L989.81,240.01L995.72,213.35L998.67,172.22L1001.63,129.41L1004.58,105.03L1013.44,39.8L1016.4,46.71L1019.35,48.52L1022.31,55.8L1028.22,62.81L1031.17,68.61L1037.08,79.19L1040.04,83.26L1045.95,93.1L1048.9,96.37L1054.81,104.04L1057.76,107.88L1060.72,109.82L1063.67,113.48L1075.49,128.15L1078.45,129.91L1084.36,135.14L1087.31,135.13L1093.22,141.76L1096.17,142.14L1099.13,143.95L1102.08,147.23L1110.95,153.55L1113.9,153.22L1119.81,159.54L1122.77,157.94L1128.68,163.19L1131.63,162.43L1134.59,163.14L1137.54,164.91L1140.49,162.87L1143.45,167.23L1146.4,167.03L1149.36,162.41L1152.31,163.34L1155.27,162.42L1158.22,162.12L1161.18,164.86L1164.13,151.97L1167.09,162.83L1175.95,144.16L1178.9,133.57L1181.86,137.78L1184.81,129.34L1187.77,138.8L1190.72,125.92L1193.68,126.76L1196.63,119.69L1202.54,116.78L1205.5,111.81L1208.45,112.21L1211.41,109.72L1214.36,112.32L1217.32,110.09L1220.27,114.23L1223.22,112.37L1226.18,117.45L1229.13,115.95L1232.09,121.5L1235.04,120.31L1238,125.93L1240.95,125.03L1243.91,130.38L1246.86,129.83L1249.82,134.36L1252.77,132.55L1255.73,139.31L1258.68,139.11L1261.63,143.24L1264.59,144.2L1267.54,146.84L1270.5,146.63L1276.41,152.11L1279.36,156.89L1282.32,161.74L1285.27,173.63L1288.23,185.37L1291.18,179.68L1294.14,206.5L1297.09,210.19L1303,270.45L1305.95,292.17L1308.91,327.51L1311.86,348.29L1314.82,382.99L1317.77,471.27L1320.73,502.36L1323.68,521.2L1326.64,581.39L1329.59,602.3L1332.55,636.53L1335.5,717.4L1338.46,720.05L1341.41,712.22L1344.37,691.24L1347.32,684.45L1350.27,678.86L1353.23,668.56L1359.14,663.99L1362.09,662.72L1365.05,654.16L1368,651.69L1370.96,650.1L1373.91,644.61L1376.87,639.11L1379.82,637.7L1385.73,635.4L1388.68,635.94L1391.64,630.11L1394.59,630.38L1400.5,627.51L1403.46,630.63L1406.41,623.9L1409.37,621.08L1412.32,621.1L1415.28,619.96L1418.23,620.34L1421.19,622.62L1424.14,617.89L1427.1,618.21L1433,620.31L1435.96,622.64L1438.91,618.16L1441.87,620.11L1444.82,624.51L1447.78,624.56L1450.73,629.97L1453.69,625.75L1456.64,629.26L1459.6,631.05L1462.55,637.39L1465.51,639.41L1468.46,639.73L1471.41,647.21L1474.37,643.38L1477.32,646.98L1480.28,649.19L1483.23,653.6L1486.19,654.44L1489.14,656.45L1492.1,660.86L1495.05,662.18L1500.96,656.68L1503.92,664.63L1506.87,658.39L1509.83,664.86L1512.78,651.3L1515.73,650.97L1518.69,660.23L1521.64,660.36L1524.6,661.5L1527.55,648.62L1530.51,648.78L1533.46,657.58L1536.42,652.59L1539.37,653.9L1542.33,648.06L1545.28,650.06L1548.24,647.72L1551.19,647.98L1554.15,646.05L1557.1,642.35L1560.05,646.78L1563.01,637.67L1565.96,637.53L1568.92,633.56L1571.87,633.73L1574.83,629.37L1577.78,629.93L1580.74,625.08L1583.69,625.98L1586.65,620.7L1589.6,620.52L1592.56,615.42L1595.51,615.57L1598.46,610.06L1601.42,610.56L1604.37,607.43L1610.28,597.23L1613.24,604.33L1616.19,593.64L1619.15,591.13L1628.01,580.53L1630.97,582.98L1633.92,583.62L1636.88,579.2L1639.83,560.39L1642.78,569.64L1648.69,548.27L1651.65,536.04L1654.6,526.67L1657.56,524.07L1660.51,505.77L1663.47,494.11L1666.42,482.25L1669.38,454.78L1687.1,249.59L1690.06,236.92L1693.01,202.25L1695.97,192.83L1701.88,131.87L1704.83,112.5L1707.79,86.04L1710.74,92.41L1713.7,70.59L1716.65,75.53L1719.61,76.66L1722.56,73.88L1728.47,93.84L1731.42,91.21L1734.38,106L1737.33,99.18L1740.29,111.17L1743.24,117.92L1746.2,122.14L1749.15,129.31L1752.11,128.11L1755.06,134.11L1758.02,130.99L1760.97,137.67L1763.93,132.3L1766.88,136.65L1769.83,145.67L1772.79,144.79L1775.74,149L1778.7,148.6L1781.65,147.97L1784.61,157.93L1793.47,170.49L1796.43,164.15L1799.38,178.09L1802.34,186.54L1805.29,191.94L1808.24,189.57L1811.2,185.22L1814.15,208.15L1817.11,212.26L1820.06,219.12L1823.02,205.17L1825.97,211.39L1828.93,220.93L1831.88,199.66L1834.84,204.92L1837.79,234.6L1840.75,234.34L1843.7,225.49L1846.66,205.43L1849.61,220.69L1852.56,188.01L1855.52,191.56L1858.47,207.15L1861.43,203.29L1864.38,190.24L1867.34,182.99L1870.29,168.13L1873.25,163.66L1876.2,149.87L1879.16,151.4L1885.07,117.2L1888.02,112.15L1890.98,90.89L1893.93,93.64L1896.88,85.56L1899.84,83.53L1902.79,79.96L1905.75,74.66L1908.7,76.92L1911.66,71.01L1914.61,77.62L1917.57,78.29L1920.52,76.15L1923.48,81.59L1926.43,80.62L1929.39,90.32L1932.34,87.82L1935.29,87.17L1938.25,92.3L1941.2,91.89L1944.16,100.44L1947.11,102.26L1950.07,107.14L1953.02,105.88L1955.98,108.4L1958.93,113.61L1961.89,113.31L1964.84,122.13L1967.8,123.18L1970.75,126.11L1976.66,129.2L1979.61,133.22L1982.57,132.83L1985.52,140.09L1988.48,140.31L1991.43,144.86L1994.39,145.55L1997.34,149.79L2000.3,151.23L2003.25,154.94L2009.16,160.64L2012.12,165.32L2015.07,167.33L2018.02,174.55L2020.98,175.62L2023.93,185.68L2026.89,186.16L2029.84,198.89L2032.8,199.5L2035.75,214.52L2038.71,216.24L2041.66,233.48L2044.62,237.55L2047.57,256.39L2050.53,264.72L2053.48,283.04L2056.44,293.5L2059.39,313.55L2062.34,327.9L2065.3,352.81L2068.25,361.79L2071.21,417.84L2074.16,447.3L2077.12,497.56L2085.98,594.77L2088.94,604.7L2091.89,664.89L2094.85,696.48L2097.8,735L2100.76,737.97L2103.71,730.01L2106.66,726.34L2109.62,712.33L2112.57,706.41L2118.48,691.08L2121.44,693.82L2127.35,683.13L2130.3,682.25L2136.21,673.14L2139.17,671.33L2142.12,672.25L2145.07,667.86L2150.98,667.92L2153.94,663.13L2156.89,663.59L2159.85,660.92L2165.76,661.95L2168.71,657.13L2171.67,659.21L2174.62,657.99L2177.58,658.02L2180.53,659.36L2183.49,654.53L2186.44,656.28L2198.26,653.76L2201.21,649.43L2207.12,652.32L2210.08,647.77L2215.99,650.97L2218.94,646.26L2224.85,649.57L2227.8,644.76L2233.71,649.36L2236.67,645.14L2239.62,645.09L2242.58,646.95L2245.53,643.38L2248.49,643.62L2251.44,644.77L2254.4,642.58L2257.35,639.29L2260.31,641.28L2263.26,640.66L2266.22,637.55L2272.12,639.4L2275.08,635.19L2278.03,630.89L2280.99,632.58L2283.94,633.98L2286.9,631.12L2289.85,630.89L2292.81,631.8L2298.72,623.15L2301.67,623.93L2304.63,625.47L2307.58,623.34L2310.54,619.36L2313.49,620.64L2322.35,610.49L2325.31,610.88L2334.17,605.13L2337.13,600.57L2345.99,591.21L2348.95,586.61L2351.9,582.26L2354.85,575.18L2357.81,570.8L2360.76,561.62L2369.63,532.64L2372.58,519.5L2378.49,493.83L2381.45,463.34L2387.36,411.61L2390.31,375L2396.22,293.87L2399.17,277.47L2402.13,250.74L2405.08,234L2408.04,206.93L2410.99,160.84L2413.95,123.07L2416.9,121.4L2422.81,74.5L2425.77,59.22L2428.72,86.67L2431.68,83.71L2437.59,81.64L2440.54,82.09L2443.49,72.66L2446.45,80.5L2449.4,98.55L2452.36,92.91L2455.31,105.82L2458.27,103.77L2461.22,99.47L2464.18,107.8L2467.13,113.3L2470.09,115.16L2473.04,116.62L2476,120.3L2481.9,124.69L2484.86,126.94L2496.68,136.45L2499.63,137.33L2505.54,142.75L2508.5,142.48L2514.41,148.01L2517.36,147.61L2523.27,152.97L2526.22,153.59L2529.18,155.04L2532.13,158.02L2535.09,158.96L2538.04,162.73L2541,164.68L2543.95,179.56L2549.86,170.28L2552.82,168.94L2555.77,174.84L2558.73,176.62L2561.68,177.67L2564.63,195.92L2567.59,180.23L2570.54,181.34L2576.45,183.27L2579.41,179.02L2582.36,181.82L2585.32,191.86L2591.23,179.89L2594.18,180.28L2597.14,181.45L2600.09,207.75L2603.05,200.42L2606,198.01" style="vector-effect: non-scaling-stroke; fill: none; stroke: rgb(0, 170, 0); stroke-opacity: 1; stroke-width: 4px; opacity: 1;"/></g><g class="points"/><g class="text"/></g></g></g><g class="overplot"/><path class="xlines-above crisp" d="M0,0" style="fill: none;"/><path class="ylines-above crisp" d="M0,0" style="fill: none;"/><g class="overlines-above"/><g class="xaxislayer-above"><g class="xtick"><text text-anchor="middle" x="0" y="934" transform="translate(136,0)" style="font-family: 'Open Sans', verdana, arial, sans-serif; font-size: 37px; fill: rgb(42, 63, 95); fill-opacity: 1; white-space: pre; opacity: 1;">0</text></g><g class="xtick"><text text-anchor="middle" x="0" y="934" style="font-family: 'Open Sans', verdana, arial, sans-serif; font-size: 37px; fill: rgb(42, 63, 95); fill-opacity: 1; white-space: pre; opacity: 1;" transform="translate(431.46,0)">100</text></g><g class="xtick"><text text-anchor="middle" x="0" y="934" style="font-family: 'Open Sans', verdana, arial, sans-serif; font-size: 37px; fill: rgb(42, 63, 95); fill-opacity: 1; white-space: pre; opacity: 1;" transform="translate(726.93,0)">200</text></g><g class="xtick"><text text-anchor="middle" x="0" y="934" style="font-family: 'Open Sans', verdana, arial, sans-serif; font-size: 37px; fill: rgb(42, 63, 95); fill-opacity: 1; white-space: pre; opacity: 1;" transform="translate(1022.39,0)">300</text></g><g class="xtick"><text text-anchor="middle" x="0" y="934" style="font-family: 'Open Sans', verdana, arial, sans-serif; font-size: 37px; fill: rgb(42, 63, 95); fill-opacity: 1; white-space: pre; opacity: 1;" transform="translate(1317.86,0)">400</text></g><g class="xtick"><text text-anchor="middle" x="0" y="934" style="font-family: 'Open Sans', verdana, arial, sans-serif; font-size: 37px; fill: rgb(42, 63, 95); fill-opacity: 1; white-space: pre; opacity: 1;" transform="translate(1613.32,0)">500</text></g><g class="xtick"><text text-anchor="middle" x="0" y="934" style="font-family: 'Open Sans', verdana, arial, sans-serif; font-size: 37px; fill: rgb(42, 63, 95); fill-opacity: 1; white-space: pre; opacity: 1;" transform="translate(1908.79,0)">600</text></g><g class="xtick"><text text-anchor="middle" x="0" y="934" style="font-family: 'Open Sans', verdana, arial, sans-serif; font-size: 37px; fill: rgb(42, 63, 95); fill-opacity: 1; white-space: pre; opacity: 1;" transform="translate(2204.25,0)">700</text></g><g class="xtick"><text text-anchor="middle" x="0" y="934" style="font-family: 'Open Sans', verdana, arial, sans-serif; font-size: 37px; fill: rgb(42, 63, 95); fill-opacity: 1; white-space: pre; opacity: 1;" transform="translate(2499.72,0)">800</text></g></g><g class="yaxislayer-above"><g class="ytick"><text text-anchor="end" x="135" y="12.95" transform="translate(0,836.15)" style="font-family: 'Open Sans', verdana, arial, sans-serif; font-size: 37px; fill: rgb(42, 63, 95); fill-opacity: 1; white-space: pre; opacity: 1;">−20</text></g><g class="ytick"><text text-anchor="end" x="135" y="12.95" style="font-family: 'Open Sans', verdana, arial, sans-serif; font-size: 37px; fill: rgb(42, 63, 95); fill-opacity: 1; white-space: pre; opacity: 1;" transform="translate(0,702.48)">−10</text></g><g class="ytick"><text text-anchor="end" x="135" y="12.95" style="font-family: 'Open Sans', verdana, arial, sans-serif; font-size: 37px; fill: rgb(42, 63, 95); fill-opacity: 1; white-space: pre; opacity: 1;" transform="translate(0,568.8199999999999)">0</text></g><g class="ytick"><text text-anchor="end" x="135" y="12.95" style="font-family: 'Open Sans', verdana, arial, sans-serif; font-size: 37px; fill: rgb(42, 63, 95); fill-opacity: 1; white-space: pre; opacity: 1;" transform="translate(0,435.15)">10</text></g><g class="ytick"><text text-anchor="end" x="135" y="12.95" style="font-family: 'Open Sans', verdana, arial, sans-serif; font-size: 37px; fill: rgb(42, 63, 95); fill-opacity: 1; white-space: pre; opacity: 1;" transform="translate(0,301.49)">20</text></g><g class="ytick"><text text-anchor="end" x="135" y="12.95" style="font-family: 'Open Sans', verdana, arial, sans-serif; font-size: 37px; fill: rgb(42, 63, 95); fill-opacity: 1; white-space: pre; opacity: 1;" transform="translate(0,167.82)">30</text></g></g><g class="overaxes-above"/></g></g><g class="polarlayer"/><g class="ternarylayer"/><g class="geolayer"/><g class="funnelarealayer"/><g class="pielayer"/><g class="iciclelayer"/><g class="treemaplayer"/><g class="sunburstlayer"/><g class="glimages"/><defs id="topdefs-fe0035"><g class="clips"/><clipPath id="legendfe0035"><rect width="694" height="113" x="0" y="0"/></clipPath></defs><g class="layer-above"><g class="imagelayer"/><g class="shapelayer"/></g><g class="infolayer"><g class="legend" pointer-events="all" transform="translate(2794.12,100)"><rect class="bg" shape-rendering="crispEdges" width="694" height="113" x="0" y="0" style="stroke: rgb(68, 68, 68); stroke-opacity: 1; fill: rgb(255, 255, 255); fill-opacity: 1; stroke-width: 0px;"/><g class="scrollbox" transform="" clip-path="url(#legendfe0035)"><g class="groups"><g class="traces" transform="translate(0,30.55)" style="opacity: 1;"><text class="legendtext" text-anchor="start" x="40" y="14.43" style="font-family: 'Open Sans', verdana, arial, sans-serif; font-size: 37px; fill: rgb(42, 63, 95); fill-opacity: 1; white-space: pre;">Predicted Curvature at Anchors #1</text><g class="layers" style="opacity: 1;"><g class="legendfill"/><g class="legendlines"><path class="js-line" d="M5,0h30" style="fill: none; stroke: rgb(170, 0, 0); stroke-opacity: 1; stroke-width: 4px;"/></g><g class="legendsymbols"><g class="legendpoints"/></g></g><rect class="legendtoggle" x="0" y="-25.55" width="688.125" height="51.1" style="fill: rgb(0, 0, 0); fill-opacity: 0;"/></g><g class="traces" transform="translate(0,81.65)" style="opacity: 1;"><text class="legendtext" text-anchor="start" x="40" y="14.43" style="font-family: 'Open Sans', verdana, arial, sans-serif; font-size: 37px; fill: rgb(42, 63, 95); fill-opacity: 1; white-space: pre;">Predicted Curvature at Anchors #2</text><g class="layers" style="opacity: 1;"><g class="legendfill"/><g class="legendlines"><path class="js-line" d="M5,0h30" style="fill: none; stroke: rgb(0, 170, 0); stroke-opacity: 1; stroke-width: 4px;"/></g><g class="legendsymbols"><g class="legendpoints"/></g></g><rect class="legendtoggle" x="0" y="-25.55" width="688.125" height="51.1" style="fill: rgb(0, 0, 0); fill-opacity: 0;"/></g></g></g><rect class="scrollbar" rx="20" ry="3" width="0" height="0" x="0" y="0" style="fill: rgb(128, 139, 164); fill-opacity: 1;"/></g><g class="g-gtitle"/><g class="g-xtitle"><text class="xtitle" x="1439" y="987.8" text-anchor="middle" style="font-family: 'Open Sans', verdana, arial, sans-serif; font-size: 44px; fill: rgb(42, 63, 95); opacity: 1; font-weight: normal; white-space: pre;">Anchor Point Index</text></g><g class="g-ytitle" transform="translate(32.1279296875,0)"><text class="ytitle" transform="rotate(-90,11.871875000000003,498)" x="11.871875000000003" y="498" text-anchor="middle" style="font-family: 'Open Sans', verdana, arial, sans-serif; font-size: 44px; fill: rgb(42, 63, 95); opacity: 1; font-weight: normal; white-space: pre;">Predicted Curvature</text></g><g class="annotation" data-index="0" style="opacity: 1;"><g class="annotation-text-g" transform="rotate(0,1439,66.49999999999993)"><g class="cursor-pointer" transform="translate(222,33)"><rect class="bg" x="0.5" y="0.5" width="2433" height="66" style="stroke-width: 1px; stroke: rgb(0, 0, 0); stroke-opacity: 0; fill: rgb(0, 0, 0); fill-opacity: 0;"/><text class="annotation-text" text-anchor="middle" x="1217.03125" y="54" style="font-family: 'Open Sans', verdana, arial, sans-serif; font-size: 52px; fill: rgb(42, 63, 95); fill-opacity: 1; white-space: pre;"><tspan style="font-weight:bold">Predicted Curvature at Anchors (Transformed Curve #1 vs. Transformed Curve #2)</tspan></text></g></g></g></g></svg>