<svg class="main-svg" xmlns="http://www.w3.org/2000/svg" xmlns:xlink="http://www.w3.org/1999/xlink" width="3500" height="1000" style="" viewBox="0 0 3500 1000"><rect x="0" y="0" width="3500" height="1000" style="fill: rgb(255, 255, 255); fill-opacity: 1;"/><defs id="defs-c0eeb3"><g class="clips"><clipPath id="clipc0eeb3xyplot" class="plotclip"><rect width="2628" height="796"/></clipPath><clipPath class="axesclip" id="clipc0eeb3x"><rect x="113" y="0" width="2628" height="1000"/></clipPath><clipPath class="axesclip" id="clipc0eeb3y"><rect x="0" y="100" width="3500" height="796"/></clipPath><clipPath class="axesclip" id="clipc0eeb3xy"><rect x="113" y="100" width="2628" height="796"/></clipPath></g><g class="gradients"/><g class="patterns"/></defs><g class="bglayer"><rect class="bg" x="113" y="100" width="2628" height="796" style="fill: rgb(229, 236, 246); fill-opacity: 1; stroke-width: 0;"/></g><g class="layer-below"><g class="imagelayer"/><g class="shapelayer"/></g><g class="cartesianlayer"><g class="subplot xy"><g class="layer-subplot"><g class="shapelayer"/><g class="imagelayer"/></g><g class="gridlayer"><g class="x"><path class="xgrid crisp" transform="translate(635.47,0)" d="M0,100v796" style="stroke: rgb(255, 255, 255); stroke-opacity: 1; stroke-width: 1px;"/><path class="xgrid crisp" transform="translate(1157.93,0)" d="M0,100v796" style="stroke: rgb(255, 255, 255); stroke-opacity: 1; stroke-width: 1px;"/><path class="xgrid crisp" transform="translate(1680.4,0)" d="M0,100v796" style="stroke: rgb(255, 255, 255); stroke-opacity: 1; stroke-width: 1px;"/><path class="xgrid crisp" transform="translate(2202.86,0)" d="M0,100v796" style="stroke: rgb(255, 255, 255); stroke-opacity: 1; stroke-width: 1px;"/><path class="xgrid crisp" transform="translate(2725.33,0)" d="M0,100v796" style="stroke: rgb(255, 255, 255); stroke-opacity: 1; stroke-width: 1px;"/></g><g class="y"><path class="ygrid crisp" transform="translate(0,723.81)" d="M113,0h2628" style="stroke: rgb(255, 255, 255); stroke-opacity: 1; stroke-width: 1px;"/><path class="ygrid crisp" transform="translate(0,378.22)" d="M113,0h2628" style="stroke: rgb(255, 255, 255); stroke-opacity: 1; stroke-width: 1px;"/><path class="ygrid crisp" transform="translate(0,205.43)" d="M113,0h2628" style="stroke: rgb(255, 255, 255); stroke-opacity: 1; stroke-width: 1px;"/></g></g><g class="zerolinelayer"><path class="xzl zl crisp" transform="translate(113,0)" d="M0,100v796" style="stroke: rgb(255, 255, 255); stroke-opacity: 1; stroke-width: 2px;"/><path class="yzl zl crisp" transform="translate(0,551.01)" d="M113,0h2628" style="stroke: rgb(255, 255, 255); stroke-opacity: 1; stroke-width: 2px;"/></g><path class="xlines-below"/><path class="ylines-below"/><g class="overlines-below"/><g class="xaxislayer-below"/><g class="yaxislayer-below"/><g class="overaxes-below"/><g class="plot" transform="translate(113,100)" clip-path="url(#clipc0eeb3xyplot)"><g class="scatterlayer mlayer"><g class="trace scatter trace6d7d51" style="stroke-miterlimit: 2; opacity: 1;"><g class="fills"/><g class="errorbars"/><g class="lines"><path class="js-line" d="M0,96.22L2.61,86.57L5.22,86.48L10.45,91.56L13.06,86.17L15.67,86.72L18.29,91.81L20.9,91.4L23.51,88.36L26.12,86.88L28.74,91.57L31.35,90.66L33.96,92.09L36.57,88.93L39.18,93.68L41.8,87.53L44.41,88.78L49.63,97.65L52.25,93.02L54.86,93.89L57.47,97.28L60.08,97L62.7,95.67L65.31,95.03L67.92,110.13L70.53,117.22L73.15,116.03L78.37,122.28L80.98,136.39L83.59,162.37L86.21,162.9L88.82,180.48L91.43,189.03L94.04,209.04L96.66,243.02L101.88,345.86L104.49,424.66L107.11,468.83L109.72,545.98L112.33,576.51L114.94,586.23L120.17,651.08L122.78,665.13L125.39,673.22L128,698.62L133.23,721.9L135.84,727.92L138.45,727.42L141.07,734.41L143.68,736.1L146.29,743.71L148.9,738.24L151.51,740.95L154.13,740.54L156.74,747.41L159.35,741.09L161.96,740.62L164.58,740.79L167.19,747.88L169.8,738.83L172.41,736.19L175.03,737.44L177.64,743.36L180.25,730.81L182.86,727.13L188.09,722.93L190.7,709.81L193.31,702.25L195.92,685.12L198.54,670.71L201.15,664.61L206.37,627.23L208.99,612.61L214.21,547.15L216.82,509.3L219.44,448.09L222.05,333.28L232.5,200.61L235.11,187.71L237.72,168.81L240.33,158.82L245.56,117.12L248.17,100.2L250.78,98.54L253.4,104.01L256.01,82.6L258.62,79.62L261.23,76.66L263.84,83.65L266.46,80.71L269.07,75.61L271.68,73.43L274.29,75.97L276.91,78.24L279.52,74.72L282.13,71.99L284.74,71.21L287.36,76.8L289.97,76.32L295.19,71.03L297.81,76.83L300.42,78.78L303.03,75.57L305.64,72.58L308.25,79.28L316.09,76.24L318.7,79.35L321.32,76.5L323.93,77.01L326.54,78.31L329.15,78.05L331.77,78.72L334.38,75.27L336.99,82.41L339.6,80.25L342.21,82.82L344.83,78.58L347.44,83.52L350.05,85.08L352.66,87.99L355.28,85.32L368.34,100.77L370.95,97.4L376.17,114.82L378.79,132.9L381.4,144.82L384.01,150.91L386.62,154.83L389.24,176.8L391.85,187.91L394.46,222.81L399.69,296.64L402.3,349.91L407.52,518.32L410.14,555.53L412.75,595.64L415.36,610.34L417.97,632.27L420.58,637.56L423.2,669.25L425.81,680.8L431.03,708.34L433.65,713.26L436.26,727.12L438.87,716.83L441.48,732.56L444.1,727.43L446.71,735.43L449.32,734.75L451.93,732.72L454.54,732.54L457.16,733.2L459.77,724.28L462.38,739.77L464.99,740.84L470.22,738.77L472.83,739.06L475.44,740.91L478.06,740.48L483.28,741.57L485.89,736.97L488.5,737.68L491.12,735.39L493.73,739.98L496.34,738.62L501.57,736.59L504.18,740.39L509.4,739.43L512.02,736.92L514.63,735.81L517.24,740.61L522.47,739.66L525.08,735.83L527.69,734.48L530.3,741.21L532.91,740.8L535.53,739.15L538.14,733.49L540.75,732.29L543.36,742.42L545.98,740.92L548.59,737.8L551.2,729.78L553.81,728.59L556.43,741.93L559.04,737.64L561.65,736.36L564.26,727.13L566.87,721.98L569.49,720.61L572.1,708.09L577.32,725.88L579.94,712.14L582.55,663.07L585.16,649.89L590.39,592.8L593,584.82L600.83,310.73L603.45,260.61L608.67,198.38L611.28,179.72L613.9,163.68L616.51,132.15L619.12,121.73L621.73,106.6L624.35,105.94L626.96,113.88L629.57,97.5L632.18,89.2L634.8,90.4L637.41,83.86L640.02,93.63L642.63,84.63L645.24,83.01L647.86,83.8L650.47,86.91L653.08,83.24L655.69,83.18L658.31,86.68L660.92,81.92L663.53,88.29L666.14,82.58L668.76,83.57L671.37,76.19L673.98,82.94L676.59,78.44L679.2,85.28L684.43,84.11L687.04,84.72L692.27,84.84L694.88,80.3L697.49,87.31L700.1,81.79L702.72,85L705.33,77.02L707.94,82.78L710.55,78.11L713.17,86.26L715.78,86.03L718.39,83.71L721,86.28L723.61,83.36L726.23,86.46L728.84,80.86L731.45,86.78L734.06,83.64L736.68,83.54L739.29,77.02L741.9,81.4L744.51,78.83L747.13,84.94L749.74,86.62L752.35,80.61L754.96,86.54L757.57,82.15L760.19,86.16L762.8,84.7L768.02,77.76L770.64,82.99L773.25,80.56L775.86,80.74L778.47,87.47L781.09,85.21L786.31,78.29L788.92,85.88L794.15,80.98L796.76,90.62L799.37,83.74L801.98,85.59L804.6,82.01L807.21,85.9L809.82,86.52L812.43,84.47L815.05,88.21L817.66,85.45L820.27,87.44L822.88,84.43L825.5,77.36L828.11,90.8L830.72,78.63L833.33,74.22L835.94,83.99L838.56,75.29L841.17,74.32L843.78,79.74L846.39,76.61L849.01,77.8L851.62,71.94L854.23,71.05L856.84,75.1L859.46,71.11L862.07,72.16L864.68,75.76L869.9,65.19L872.52,77.88L875.13,74.25L877.74,82.92L882.97,76.26L885.58,81.48L888.19,83.79L890.8,77.86L893.42,79.24L896.03,88.42L898.64,86.38L901.25,86.07L903.86,90.88L906.48,88.37L909.09,93.81L911.7,94.05L914.31,84.07L916.93,89.87L919.54,94.04L922.15,93.16L924.76,91.6L927.38,92.41L932.6,83.44L935.21,98.47L940.44,91.78L943.05,100.32L945.66,88.9L948.27,85.19L950.89,95.67L953.5,89.22L958.72,104.21L961.34,104.31L963.95,100.36L966.56,101.85L969.17,114.51L971.79,112.85L977.01,123.59L979.62,136.37L984.85,178.15L987.46,188.91L990.07,206.99L992.68,232.3L997.91,314.69L1000.52,442.79L1003.13,510.73L1005.75,539.94L1010.97,611.53L1013.58,640.71L1016.19,657.13L1018.81,683.9L1021.42,691.08L1024.03,710.13L1026.64,703.4L1029.26,715.51L1031.87,711.33L1034.48,712.99L1037.09,716.51L1039.71,724.15L1042.32,729.68L1044.93,729.63L1047.54,729.48L1050.16,727.66L1052.77,729.43L1055.38,717.34L1057.99,732.37L1060.6,734.91L1065.83,731.97L1068.44,732.47L1071.05,732.2L1073.67,725.1L1076.28,734.47L1078.89,731.76L1084.12,731.49L1086.73,736.3L1091.95,729.26L1094.56,730.95L1099.79,738.1L1102.4,729L1105.01,730.64L1107.63,736.17L1110.24,739.81L1112.85,738.7L1115.46,735.61L1118.08,740.06L1120.69,742.54L1123.3,741.05L1125.91,727.54L1128.52,719.87L1133.75,752.41L1136.36,748.73L1141.59,747.44L1144.2,739.11L1146.81,727.51L1149.42,732.57L1152.04,730.31L1154.65,737.32L1157.26,726.37L1159.87,744.12L1165.1,731.91L1167.71,731.2L1172.93,735.52L1175.55,732.07L1178.16,739.92L1180.77,736.22L1183.38,738.2L1186,730.75L1188.61,730.65L1191.22,731.9L1193.83,732.68L1196.45,737.33L1199.06,733.11L1201.67,736.65L1204.28,729.55L1206.89,731.25L1209.51,735.41L1212.12,733.71L1217.34,726.39L1219.96,732.12L1222.57,730.09L1225.18,732.93L1227.79,727.03L1230.41,728.56L1233.02,726.59L1235.63,720.51L1238.24,733.52L1240.85,722.36L1243.47,717.44L1246.08,715.83L1248.69,707.9L1251.3,727.08L1253.92,722.06L1256.53,695.78L1259.14,708.51L1261.75,712.17L1264.37,728.53L1266.98,636.36L1269.59,674.68L1272.2,625.16L1277.43,567.44L1280.04,427.91L1282.65,349.91L1285.26,314.72L1287.88,242.91L1290.49,235.2L1293.1,218.04L1295.71,193.04L1298.33,165.2L1300.94,153.94L1303.55,132.62L1306.16,122.88L1311.39,101.86L1314,102.76L1316.61,105.87L1319.22,97.44L1324.45,90.23L1327.06,89.04L1329.67,89.11L1332.29,86.04L1334.9,85.94L1337.51,90.91L1340.12,84.85L1342.74,82.32L1345.35,90.32L1347.96,86.15L1350.57,86.99L1353.18,90.77L1355.8,94.97L1358.41,85.98L1361.02,88.71L1363.63,75.48L1366.25,87.69L1368.86,85.83L1374.08,84.36L1376.7,82L1379.31,78.84L1381.92,77.27L1384.53,81L1387.15,76.34L1389.76,67.51L1392.37,73.3L1394.98,68.52L1397.59,70.9L1400.21,75.43L1402.82,70.82L1405.43,68.79L1408.04,72.52L1413.27,72.1L1415.88,74.99L1418.49,77.66L1421.11,76.71L1423.72,76.91L1426.33,74.12L1428.94,76.09L1431.55,79.8L1434.17,80.37L1436.78,87.09L1439.39,83.56L1442,85.55L1444.62,90.37L1447.23,85.09L1452.45,91.59L1455.07,82.6L1457.68,86.5L1460.29,93.16L1462.9,89.17L1465.51,89.56L1470.74,91.19L1473.35,87.31L1475.96,86.02L1478.58,91.98L1481.19,87.76L1483.8,90.71L1486.41,95.32L1489.03,89.66L1491.64,85.41L1494.25,89L1496.86,90.82L1499.48,86.89L1502.09,83.96L1504.7,89.25L1509.92,86.66L1512.54,84.08L1515.15,86.16L1517.76,95.05L1520.37,79.71L1522.99,82.12L1525.6,87.02L1528.21,84.44L1530.82,84.49L1533.44,81.29L1536.05,85.74L1538.66,83.21L1541.27,84.73L1543.88,81.74L1546.5,82.48L1549.11,90.6L1551.72,88.88L1554.33,91.11L1556.95,85.57L1559.56,84.59L1562.17,78.8L1564.78,81.75L1567.4,84.73L1570.01,84.16L1572.62,87.59L1575.23,87.03L1577.84,88.13L1580.46,86L1583.07,87.02L1585.68,83.76L1598.74,86.71L1601.36,88.98L1603.97,92.72L1606.58,86.77L1609.19,83.25L1611.81,83.68L1614.42,83.27L1617.03,86.12L1622.25,89.11L1624.87,88.79L1627.48,86.13L1630.09,89.4L1632.7,89.35L1635.32,90.33L1640.54,99.72L1643.15,98.86L1645.77,104.34L1648.38,102.76L1650.99,102.57L1653.6,117.57L1656.21,145.15L1658.83,148.53L1664.05,192.08L1666.66,200.08L1669.28,221.01L1671.89,277.65L1674.5,254.73L1677.11,349.45L1679.73,394.42L1682.34,516.64L1684.95,547.73L1687.56,607.88L1690.17,633.89L1692.79,644.73L1695.4,665.92L1698.01,678.87L1700.62,690.52L1703.24,711.33L1705.85,717.55L1708.46,717.86L1711.07,721.86L1713.69,727.95L1716.3,734.43L1718.91,737.12L1724.14,733.95L1726.75,733.61L1729.36,738.33L1731.97,739.63L1734.58,738.72L1737.2,740.89L1739.81,738.49L1742.42,741.26L1745.03,739.64L1747.65,740.47L1750.26,743.01L1752.87,740.35L1755.48,739.94L1758.1,741.43L1760.71,738.27L1763.32,739.57L1768.54,743.5L1771.16,741.47L1773.77,741.89L1776.38,741.01L1778.99,741.8L1781.61,740.86L1784.22,741.53L1786.83,744.35L1789.44,741.98L1792.06,742.25L1794.67,744.09L1797.28,741.8L1799.89,741.15L1802.5,734.4L1805.12,740.78L1807.73,739.89L1810.34,742.35L1812.95,741.34L1815.57,742.18L1818.18,740.54L1820.79,741.1L1823.4,740.55L1826.02,739.73L1828.63,732.33L1831.24,739.63L1833.85,739.28L1839.08,740.4L1841.69,739.74L1844.3,738.77L1846.91,739.53L1849.53,742.21L1852.14,741.97L1854.75,735.09L1857.36,737.67L1859.98,738.59L1862.59,741.08L1865.2,719.99L1867.81,742.57L1870.43,738.14L1873.04,738.23L1875.65,739.9L1878.26,735.35L1880.87,742.72L1883.49,736.28L1886.1,741.79L1888.71,733L1893.94,746.04L1896.55,739.01L1899.16,728.97L1901.77,730.61L1904.39,722.8L1907,734.76L1909.61,733.83L1912.22,743.92L1914.83,756.2L1917.45,737.9L1922.67,735.28L1925.28,732.66L1927.9,734.94L1930.51,735.2L1933.12,745.68L1935.73,741.99L1940.96,732.85L1943.57,736.44L1946.18,728.05L1948.8,727.13L1951.41,730.44L1954.02,730.93L1956.63,682.17L1959.24,725.49L1961.86,738.12L1964.47,735.49L1967.08,747.61L1969.69,720.16L1972.31,725.26L1974.92,737.07L1977.53,733.83L1980.14,720.78L1985.37,687.05L1987.98,729.51L1990.59,714.1L1993.2,719.96L1998.43,745.35L2001.04,731.51L2003.65,739.89L2006.27,723.24L2008.88,723.68L2011.49,732.72L2014.1,671.43L2016.72,742.77L2019.33,649.04L2021.94,259.56L2024.55,226.59L2027.17,173.41L2029.78,89.1L2032.39,39.8L2035,145.52L2037.61,136.84L2040.23,97.87L2042.84,83.85L2045.45,75.47L2048.06,94.94L2050.68,105.77L2053.29,107.61L2055.9,104.18L2058.51,107.82L2061.13,95.93L2063.74,148.39L2066.35,97.43L2068.96,90.11L2071.57,110.33L2074.19,116.28L2079.41,89.38L2082.02,84.71L2084.64,98.02L2087.25,75.09L2089.86,92.05L2092.47,90.77L2095.09,81.54L2097.7,98.36L2100.31,103.59L2102.92,94.6L2108.15,104.21L2110.76,99.17L2113.37,85.85L2115.98,81.68L2118.6,89.77L2121.21,74.56L2123.82,87.62L2126.43,86.28L2129.05,95.48L2131.66,71.56L2134.27,101.37L2136.88,87.45L2142.11,84.03L2144.72,87.29L2147.33,103.78L2149.94,87.88L2152.56,92.48L2155.17,88.76L2157.78,97.26L2160.39,94.18L2165.62,83.51L2168.23,87.15L2176.07,89.19L2178.68,85.56L2181.29,87.5L2183.9,95.89L2186.52,73.14L2189.13,76.98L2191.74,82.85L2194.35,85.78L2196.97,89.86L2199.58,81.12L2204.8,86.82L2207.42,74.84L2210.03,81.51L2212.64,83.05L2215.25,78.87L2217.86,82.78L2220.48,78.73L2223.09,82.53L2225.7,81.24L2228.31,81.89L2230.93,72.16L2233.54,79.27L2236.15,87.51L2238.76,78.34L2241.38,81.88L2243.99,78.78L2246.6,81.76L2249.21,78.89L2251.83,81.66L2254.44,79.03L2257.05,81.59L2259.66,79.19L2262.27,81.55L2264.89,79.35L2267.5,81.54L2270.11,79.52L2272.72,81.57L2275.34,78.91L2277.95,82.51L2280.56,78.37L2283.17,79.97L2285.79,73.12L2288.4,80.78L2291.01,75.23L2293.62,81.79L2296.23,82.14L2298.85,80.24L2301.46,82.37L2304.07,79.25L2306.68,83.38L2309.3,76.08L2311.91,83.15L2314.52,75.33L2317.13,81.59L2319.75,82L2322.36,78.25L2324.97,87.84L2327.58,82.74L2330.19,81.8L2332.81,79.38L2335.42,88.75L2338.03,82.28L2343.26,80.75L2345.87,87.17L2348.48,78.73L2351.09,80.86L2353.71,86.6L2356.32,85.14L2358.93,81.77L2361.54,80.91L2364.16,85.79L2366.77,79.79L2369.38,79.46L2371.99,82.33L2374.6,80.84L2377.22,81.42L2379.83,83.89L2382.44,90.28L2387.67,79.62L2390.28,77.74L2395.5,82.6L2398.12,76.06L2400.73,79.27L2403.34,84.62L2408.56,72.96L2411.18,80.92L2416.4,73.61L2419.01,81.54L2421.63,79.84L2424.24,76.02L2426.85,82.11L2429.46,80.43L2432.08,75.84L2434.69,82.06L2437.3,81.27L2439.91,75.66L2442.52,81.78L2445.14,82.24L2447.75,75.71L2450.36,81.26L2452.97,83.17L2455.59,76.07L2460.81,84.36L2463.42,76.42L2468.65,85.66L2471.26,77.05L2473.87,83.5L2476.49,85.03L2479.1,76.17L2481.71,81.87L2484.32,86.19L2486.93,74.64L2489.55,87.08L2492.16,81.08L2494.77,75.23L2497.38,83.78L2500,81.53L2502.61,80.94L2505.22,85.23L2507.83,78.94L2513.06,83.3L2515.67,77.07L2518.28,83.31L2520.89,81.31L2523.51,76.81L2526.12,86.66L2528.73,85.63L2531.34,81.36L2533.96,84.82L2536.57,80.77L2541.79,82.42L2544.41,82.31L2547.02,83.53L2549.63,82.54L2552.24,82.75L2554.85,86.9L2557.47,83.96L2560.08,83.24L2567.92,85.36L2570.53,73.82L2573.14,86.57L2575.75,83.93L2578.37,84.63L2580.98,88.92L2583.59,85.52L2586.2,83.85L2588.82,88.5L2591.43,88.84L2594.04,83.53L2596.65,91.56L2599.26,88.13L2601.88,87.89L2604.49,88.95L2607.1,78.07L2609.71,89.4L2612.33,85.16L2614.94,90.67L2617.55,88.58L2620.16,90.21L2622.78,90.44L2625.39,93.6L2628,87.42" style="vector-effect: non-scaling-stroke; fill: none; stroke: rgb(170, 0, 0); stroke-opacity: 1; stroke-width: 4px; opacity: 1;"/></g><g class="points"/><g class="text"/></g><g class="trace scatter trace98145f" style="stroke-miterlimit: 2; opacity: 1;"><g class="fills"/><g class="errorbars"/><g class="lines"><path class="js-line" d="M0,90.96L2.61,90.16L5.22,91.53L7.84,88.46L10.45,92.95L13.06,86.34L15.67,86.96L18.29,90.6L20.9,85.86L23.51,89.85L26.12,91.1L28.74,92.88L31.35,86.38L33.96,85.71L36.57,95.74L39.18,90.1L41.8,90.39L44.41,87.64L47.02,91.5L49.63,96.52L52.25,97.85L54.86,93.2L57.47,94.59L60.08,95.73L62.7,99.83L65.31,101.17L67.92,99.22L70.53,106.15L73.15,125.43L75.76,135.81L78.37,117.97L80.98,128.21L83.59,143.34L88.82,185.57L91.43,193.39L94.04,208.24L96.66,242.81L101.88,330L104.49,424.45L107.11,478.78L109.72,507.95L112.33,585.9L114.94,605.43L117.55,606.06L120.17,631.27L125.39,680.93L128,700.46L130.62,711.4L133.23,727.75L135.84,728.23L138.45,726.21L141.07,744.89L143.68,738.06L146.29,731.65L148.9,749.58L151.51,736.41L154.13,729.43L156.74,747.78L159.35,741.41L164.58,734.4L167.19,726.84L169.8,739.61L172.41,740.24L175.03,731.85L177.64,733.87L180.25,708.18L182.86,733.22L185.48,701.4L188.09,728.36L190.7,693.09L193.31,717.58L195.92,682.49L198.54,682.46L201.15,653.32L203.76,671.82L206.37,646.6L208.99,592.05L211.6,634.77L214.21,572.86L216.82,542.84L219.44,434.93L224.66,288.74L227.27,251.2L229.88,203.83L232.5,203.91L235.11,158.39L237.72,168.25L240.33,136.91L242.95,124.51L245.56,124.84L248.17,101.99L250.78,92.22L253.4,94.52L256.01,98.19L258.62,107.46L261.23,77.32L263.84,77.93L266.46,81.86L269.07,89.03L274.29,78.52L276.91,75.63L279.52,75.22L282.13,80.37L284.74,75.27L287.36,73.41L292.58,80.53L295.19,78.63L297.81,81.32L300.42,82.01L303.03,77.67L305.64,79.32L308.25,81.99L310.87,81.69L316.09,80.07L318.7,82.32L326.54,85.67L329.15,80.44L331.77,83.87L334.38,84.74L336.99,85.17L339.6,84.44L342.21,86.61L344.83,86.15L347.44,92.57L350.05,85.69L355.28,90.02L357.89,88.26L360.5,89.79L363.11,95.87L365.73,94.61L368.34,98.57L370.95,101.51L373.56,110.8L376.17,126.32L378.79,129.23L381.4,126.2L384.01,151.23L386.62,162.7L389.24,184.19L391.85,187.25L394.46,216.84L399.69,288.7L402.3,355.46L407.52,519.58L410.14,558.2L415.36,611L417.97,631.31L423.2,674.51L425.81,691.46L431.03,707.77L433.65,722.79L436.26,729.54L438.87,716.74L441.48,736.11L444.1,726.85L446.71,726.86L449.32,736.45L451.93,735.58L454.54,736.11L457.16,733.36L459.77,735.04L462.38,739.92L464.99,735.91L467.61,734.74L470.22,732.26L472.83,737.25L475.44,736.52L480.67,743.99L483.28,741.59L485.89,735.79L488.5,734.93L491.12,735.97L493.73,739.71L498.95,740.32L501.57,744.28L504.18,742.77L506.79,739.64L509.4,740.88L512.02,740.66L514.63,739.47L517.24,740.72L522.47,739.11L525.08,740.43L530.3,738.74L532.91,739.81L538.14,738.4L540.75,738.6L545.98,737.91L548.59,736L551.2,737L553.81,736.43L556.43,731.92L559.04,734.32L561.65,732.25L564.26,726.09L566.87,728.68L569.49,722.5L572.1,715.12L574.71,715.84L582.55,670.53L585.16,650.39L587.77,619.41L590.39,607.43L593,562.85L595.61,487.76L598.22,397.61L600.83,342.34L603.45,264.2L606.06,226.2L608.67,202.45L611.28,166.38L613.9,142.92L616.51,130.65L621.73,106.07L624.35,94.14L629.57,89.89L632.18,82.42L634.8,82.81L637.41,86.86L640.02,78.22L642.63,75.95L645.24,84.59L647.86,79.66L650.47,74.71L653.08,82.97L658.31,81.47L660.92,83.85L663.53,81.3L666.14,83.75L668.76,84.08L671.37,80.24L673.98,82.06L676.59,86.69L679.2,86.46L681.82,79.19L684.43,80.71L687.04,85.43L689.65,83.93L692.27,80.81L694.88,84.8L697.49,84.52L700.1,82.18L702.72,84.52L705.33,88.9L707.94,90.63L713.17,80.94L715.78,83.32L718.39,83.29L721,80.43L726.23,87.62L728.84,88.47L736.68,78.52L739.29,84.15L741.9,77.81L744.51,81.51L747.13,83.82L749.74,80.89L752.35,81.29L754.96,80.14L757.57,82.97L760.19,82.55L762.8,78.39L765.41,80.29L768.02,79.8L770.64,82.98L775.86,78.33L778.47,81.03L781.09,80.31L783.7,77.75L786.31,82.42L788.92,76.24L791.53,83.44L794.15,81.71L796.76,74.53L799.37,80.64L801.98,83.56L804.6,82.71L807.21,83.62L809.82,79.5L812.43,83.85L815.05,85.73L817.66,83.85L820.27,86.48L822.88,84.81L825.5,87.69L828.11,86.16L830.72,81.39L833.33,88.11L835.94,84.14L838.56,85.86L841.17,82.5L843.78,75.66L846.39,83.32L851.62,76.59L854.23,79.15L856.84,78.53L859.46,79.27L862.07,75.38L864.68,77.71L867.29,71.42L869.9,74.01L872.52,70.16L875.13,68.4L877.74,71.71L880.35,70.14L882.97,73.32L885.58,71.34L888.19,70.76L890.8,72.37L893.42,73.15L896.03,75.98L898.64,74.59L901.25,79.53L906.48,88.4L909.09,86.81L911.7,88.4L914.31,87.89L916.93,82.99L919.54,94.39L922.15,90.11L924.76,91.76L927.38,90.95L929.99,87.28L932.6,94.09L935.21,90.79L937.83,93.94L940.44,94.72L943.05,92.1L945.66,91.13L948.27,90.32L950.89,94.3L953.5,96.84L956.11,93.42L958.72,104.19L961.34,102.59L963.95,95.96L966.56,103.19L969.17,120.91L971.79,122.16L974.4,118.59L977.01,122.93L984.85,169.97L987.46,179.8L990.07,192.91L992.68,229.34L995.3,256.05L997.91,372.98L1005.75,594.76L1008.36,608.32L1010.97,641.33L1013.58,643.52L1016.19,669.92L1018.81,679.65L1021.42,697.12L1024.03,699.16L1026.64,713.57L1029.26,712.76L1031.87,721.42L1034.48,720.54L1037.09,724.84L1039.71,723.31L1042.32,726.11L1044.93,726.16L1063.22,731.09L1065.83,731.72L1071.05,732.49L1073.67,727.94L1076.28,734.37L1078.89,735.53L1081.5,736.73L1084.12,725.66L1086.73,734.06L1089.34,735.58L1091.95,726.09L1094.56,738.38L1097.18,741.73L1099.79,743.36L1102.4,738.85L1105.01,742.79L1107.63,740.95L1110.24,742.24L1112.85,749.27L1115.46,745.11L1118.08,748.39L1120.69,743.09L1123.3,749.92L1125.91,746.41L1128.52,743.99L1131.14,748.1L1133.75,743.25L1136.36,742.9L1138.97,739.09L1141.59,740L1144.2,746.42L1146.81,741.82L1149.42,735.38L1152.04,738.54L1157.26,741.72L1159.87,737.64L1162.49,740.62L1165.1,734.63L1172.93,721.95L1175.55,729.35L1178.16,736.97L1180.77,724.38L1186,729.02L1188.61,735.94L1191.22,736.2L1193.83,726.95L1196.45,735.01L1199.06,731.64L1201.67,736.35L1204.28,725.82L1206.89,723.15L1209.51,730.04L1212.12,735.87L1214.73,732.93L1217.34,723.03L1219.96,734.87L1222.57,736.58L1225.18,733.83L1230.41,721.8L1233.02,735.78L1235.63,734.24L1238.24,730.73L1243.47,718.82L1246.08,731.52L1248.69,720.97L1251.3,721.82L1253.92,709.14L1256.53,708.06L1259.14,707.24L1261.75,687.23L1264.37,669.29L1266.98,666.57L1269.59,655.35L1272.2,635.49L1277.43,563.34L1280.04,541.88L1285.26,325.59L1287.88,284.63L1293.1,218.65L1295.71,192.97L1300.94,145.27L1303.55,131.94L1306.16,126.44L1308.78,107.41L1319.22,87.24L1321.84,89.08L1324.45,86.89L1327.06,82.87L1329.67,83.98L1332.29,86.61L1334.9,80.86L1337.51,80.37L1340.12,87.79L1342.74,81L1345.35,76.01L1347.96,86.58L1350.57,83.52L1353.18,76.92L1355.8,85.98L1358.41,84.28L1361.02,78.73L1363.63,91.77L1366.25,84.96L1368.86,84L1371.47,80.69L1374.08,79.51L1379.31,86.05L1381.92,83.64L1384.53,83.69L1387.15,79.01L1389.76,83.8L1392.37,81.44L1394.98,78.49L1397.59,83.73L1400.21,77.76L1402.82,81.46L1405.43,82.03L1408.04,75.65L1410.66,76.1L1413.27,80.42L1415.88,75.02L1418.49,74.05L1421.11,73.16L1423.72,74.21L1426.33,77.61L1428.94,74.59L1434.17,82.72L1436.78,75.58L1439.39,80.6L1442,74.11L1444.62,81.34L1447.23,83.46L1449.84,81.6L1452.45,85.35L1455.07,84.31L1457.68,85.71L1460.29,86.29L1462.9,85.55L1465.51,89.78L1468.13,87.25L1473.35,86.36L1475.96,84.94L1481.19,81.09L1483.8,86.22L1486.41,88.38L1489.03,85.16L1491.64,84.8L1494.25,81.67L1496.86,82.88L1499.48,82.29L1502.09,82.85L1504.7,89.11L1507.31,82.64L1509.92,83.77L1512.54,78.91L1515.15,84.06L1517.76,83.68L1520.37,79.65L1522.99,83.17L1525.6,80.34L1533.44,88.69L1536.05,84.31L1538.66,78.59L1541.27,78.43L1543.88,83.63L1546.5,76.96L1549.11,75.36L1551.72,81.34L1554.33,82.25L1556.95,77.39L1559.56,81.87L1562.17,81.09L1564.78,78.74L1567.4,82.8L1570.01,80.08L1572.62,81.86L1575.23,83.13L1577.84,79.35L1580.46,82.88L1583.07,82.04L1585.68,79.04L1588.29,81.71L1593.52,79.12L1596.13,81.88L1598.74,83.92L1601.36,79.37L1603.97,80.6L1606.58,86.25L1609.19,84.39L1611.81,77.33L1614.42,84.36L1617.03,79.69L1624.87,85.19L1627.48,84.5L1630.09,85.54L1632.7,95.41L1635.32,95.19L1637.93,90.92L1640.54,94.64L1643.15,94.98L1648.38,106.69L1650.99,120.02L1656.21,149.96L1658.83,143.7L1666.66,204.62L1669.28,257.39L1671.89,277.82L1674.5,338.75L1679.73,459.27L1682.34,521.76L1690.17,633.3L1692.79,645.93L1695.4,657.61L1698.01,686.26L1700.62,700.2L1703.24,707.04L1708.46,711.92L1711.07,727.91L1713.69,729.87L1716.3,733.43L1721.52,731.25L1724.14,721.51L1726.75,734.31L1729.36,737.1L1731.97,725.57L1734.58,737.65L1737.2,722.4L1739.81,739.91L1742.42,736.34L1745.03,739.76L1747.65,736.27L1750.26,739.92L1752.87,736.26L1755.48,739.88L1758.1,736.29L1760.71,737.13L1765.93,735.66L1768.54,733.83L1773.77,726.34L1776.38,735.61L1778.99,732.77L1781.61,735.14L1784.22,741.72L1786.83,736.89L1789.44,709.42L1792.06,731.2L1794.67,733.76L1797.28,729.03L1799.89,726.45L1802.5,729.33L1805.12,740.09L1807.73,738.84L1810.34,726.14L1812.95,749.26L1815.57,736.88L1818.18,719.5L1820.79,728.78L1823.4,727.76L1826.02,727.2L1828.63,729.72L1831.24,736.73L1833.85,734.32L1836.47,724.82L1839.08,739.2L1841.69,730.1L1844.3,736.63L1846.91,728.1L1849.53,731.25L1852.14,731.92L1854.75,735.15L1857.36,730.76L1859.98,730.94L1862.59,733.25L1865.2,742.03L1870.43,726.91L1873.04,726.61L1875.65,726.78L1878.26,732.84L1880.87,734.44L1883.49,734.1L1886.1,732.82L1888.71,733.21L1891.32,732.05L1893.94,732.45L1896.55,731.47L1899.16,734.75L1901.77,733.26L1904.39,734.49L1909.61,730.81L1912.22,733.27L1917.45,728.12L1920.06,742.22L1925.28,732.6L1927.9,732.68L1930.51,733.52L1933.12,723.09L1935.73,731.13L1938.35,731.87L1940.96,728.64L1943.57,735.83L1946.18,734.87L1948.8,735.15L1954.02,731.21L1956.63,736.74L1959.24,729.6L1961.86,732.1L1967.08,713.01L1969.69,727.6L1972.31,742.33L1974.92,730.5L1980.14,734.91L1982.76,727.2L1985.37,705.48L1987.98,718.66L1990.59,719.55L1993.2,707.73L1995.82,700.69L1998.43,720.59L2001.04,654.67L2003.65,629.01L2008.88,566.52L2011.49,519.07L2016.72,371.55L2019.33,339.97L2024.55,189.52L2027.17,172.49L2032.39,121.83L2035,112.7L2037.61,110.9L2040.23,81.71L2042.84,90.67L2045.45,90.33L2048.06,85.64L2050.68,84.8L2053.29,84.61L2055.9,73.09L2058.51,84.25L2061.13,84.22L2063.74,82.41L2066.35,85.6L2068.96,76.68L2071.57,80.73L2074.19,85.44L2076.8,85.44L2079.41,81.16L2082.02,83.2L2087.25,77.27L2089.86,86.76L2092.47,92.23L2095.09,88.74L2097.7,87.83L2100.31,78.7L2102.92,87.08L2105.53,84.1L2108.15,85.32L2110.76,83.28L2113.37,86.06L2115.98,84.91L2118.6,83.74L2121.21,86.67L2123.82,66.45L2126.43,85.9L2129.05,91.4L2131.66,82.59L2134.27,86.91L2136.88,88.08L2139.5,87.28L2142.11,88.31L2147.33,91.74L2149.94,88.4L2152.56,88.93L2155.17,91.17L2157.78,84.09L2160.39,87.39L2163.01,85.3L2165.62,92.47L2170.84,85.93L2173.46,86.6L2176.07,84.65L2178.68,95.86L2181.29,84.93L2183.9,86.03L2189.13,86.01L2191.74,92.56L2194.35,91.58L2196.97,88.4L2199.58,85.09L2202.19,84.98L2204.8,91.19L2207.42,80.59L2210.03,83.46L2212.64,83.76L2215.25,85.68L2217.86,91L2220.48,86.25L2223.09,87.17L2225.7,87.82L2228.31,87.13L2230.93,95.58L2233.54,93.95L2236.15,79.78L2238.76,84.54L2243.99,81.85L2246.6,91.59L2249.21,88.2L2251.83,78.91L2254.44,86.37L2257.05,87.68L2259.66,96.11L2262.27,79.76L2264.89,86.61L2267.5,85.86L2270.11,83.72L2272.72,91.55L2275.34,80.27L2277.95,81.08L2280.56,84.26L2283.17,82.4L2285.79,83.86L2288.4,89.93L2293.62,83.46L2296.23,82.17L2298.85,83.83L2301.46,83L2304.07,86.64L2306.68,82.56L2309.3,82.09L2311.91,83.97L2314.52,74.2L2317.13,87.7L2319.75,80.34L2322.36,84.55L2330.19,86.36L2332.81,85.04L2335.42,88.17L2338.03,85.09L2340.64,85.04L2343.26,78.3L2348.48,85.28L2351.09,85.95L2353.71,81.08L2356.32,82L2358.93,85.63L2361.54,85.09L2364.16,81.4L2366.77,80.94L2369.38,83.71L2371.99,81.25L2377.22,82.31L2379.83,82.28L2382.44,84.16L2385.05,79.5L2387.67,80.12L2390.28,82.82L2392.89,84.5L2395.5,80.65L2398.12,79.06L2400.73,81.67L2403.34,83.06L2405.95,81.67L2408.56,80.9L2411.18,78.95L2413.79,79.37L2416.4,77.91L2419.01,77.05L2421.63,79.4L2424.24,79.03L2426.85,82.19L2432.08,81.23L2434.69,78.32L2437.3,80.77L2439.91,78.6L2442.52,90.53L2445.14,85.58L2447.75,83.87L2450.36,80.39L2452.97,84.61L2455.59,80.17L2460.81,79.3L2463.42,81.18L2466.04,80.1L2468.65,82.6L2471.26,86.2L2473.87,85.39L2476.49,83.6L2479.1,84.9L2481.71,89.11L2484.32,80.99L2486.93,87.86L2489.55,68.06L2492.16,84.83L2494.77,88.43L2497.38,84.42L2500,90.65L2502.61,86.27L2505.22,87.18L2507.83,73.89L2510.45,87.38L2513.06,94.97L2515.67,82.22L2518.28,87.79L2520.89,86.7L2523.51,90.22L2526.12,91.03L2531.34,96.32L2533.96,106.96L2536.57,94.9L2539.18,89.66L2541.79,85.33L2544.41,87L2547.02,94.49L2549.63,79.64L2552.24,88.33L2554.85,85.88L2557.47,86.51L2560.08,79.04L2562.69,80.51L2565.3,78.68L2567.92,87.14L2570.53,100.55L2573.14,87.34L2575.75,81.26L2578.37,83.17L2580.98,87L2583.59,76.1L2586.2,101.68L2588.82,81.97L2591.43,85.15L2594.04,84.81L2596.65,77.79L2599.26,101.95L2601.88,90.25L2607.1,84.93L2609.71,70.87L2612.33,84.29L2614.94,88.93L2617.55,82.37L2620.16,81.79L2622.78,91.43L2625.39,92L2628,87.15" style="vector-effect: non-scaling-stroke; fill: none; stroke: rgb(0, 170, 0); stroke-opacity: 1; stroke-width: 4px; opacity: 1;"/></g><g class="points"/><g class="text"/></g></g></g><g class="overplot"/><path class="xlines-above crisp" d="M0,0" style="fill: none;"/><path class="ylines-above crisp" d="M0,0" style="fill: none;"/><g class="overlines-above"/><g class="xaxislayer-above"><g class="xtick"><text text-anchor="middle" x="0" y="934" transform="translate(113,0)" style="font-family: 'Open Sans', verdana, arial, sans-serif; font-size: 37px; fill: rgb(42, 63, 95); fill-opacity: 1; white-space: pre; opacity: 1;">0</text></g><g class="xtick"><text text-anchor="middle" x="0" y="934" style="font-family: 'Open Sans', verdana, arial, sans-serif; font-size: 37px; fill: rgb(42, 63, 95); fill-opacity: 1; white-space: pre; opacity: 1;" transform="translate(635.47,0)">200</text></g><g class="xtick"><text text-anchor="middle" x="0" y="934" style="font-family: 'Open Sans', verdana, arial, sans-serif; font-size: 37px; fill: rgb(42, 63, 95); fill-opacity: 1; white-space: pre; opacity: 1;" transform="translate(1157.93,0)">400</text></g><g class="xtick"><text text-anchor="middle" x="0" y="934" style="font-family: 'Open Sans', verdana, arial, sans-serif; font-size: 37px; fill: rgb(42, 63, 95); fill-opacity: 1; white-space: pre; opacity: 1;" transform="translate(1680.4,0)">600</text></g><g class="xtick"><text text-anchor="middle" x="0" y="934" style="font-family: 'Open Sans', verdana, arial, sans-serif; font-size: 37px; fill: rgb(42, 63, 95); fill-opacity: 1; white-space: pre; opacity: 1;" transform="translate(2202.86,0)">800</text></g><g class="xtick"><text text-anchor="middle" x="0" y="934" style="font-family: 'Open Sans', verdana, arial, sans-serif; font-size: 37px; fill: rgb(42, 63, 95); fill-opacity: 1; white-space: pre; opacity: 1;" transform="translate(2725.33,0)">1000</text></g></g><g class="yaxislayer-above"><g class="ytick"><text text-anchor="end" x="112" y="12.95" transform="translate(0,723.81)" style="font-family: 'Open Sans', verdana, arial, sans-serif; font-size: 37px; fill: rgb(42, 63, 95); fill-opacity: 1; white-space: pre; opacity: 1;">−5</text></g><g class="ytick"><text text-anchor="end" x="112" y="12.95" style="font-family: 'Open Sans', verdana, arial, sans-serif; font-size: 37px; fill: rgb(42, 63, 95); fill-opacity: 1; white-space: pre; opacity: 1;" transform="translate(0,551.01)">0</text></g><g class="ytick"><text text-anchor="end" x="112" y="12.95" style="font-family: 'Open Sans', verdana, arial, sans-serif; font-size: 37px; fill: rgb(42, 63, 95); fill-opacity: 1; white-space: pre; opacity: 1;" transform="translate(0,378.22)">5</text></g><g class="ytick"><text text-anchor="end" x="112" y="12.95" style="font-family: 'Open Sans', verdana, arial, sans-serif; font-size: 37px; fill: rgb(42, 63, 95); fill-opacity: 1; white-space: pre; opacity: 1;" transform="translate(0,205.43)">10</text></g></g><g class="overaxes-above"/></g></g><g class="polarlayer"/><g class="ternarylayer"/><g class="geolayer"/><g class="funnelarealayer"/><g class="pielayer"/><g class="iciclelayer"/><g class="treemaplayer"/><g class="sunburstlayer"/><g class="glimages"/><defs id="topdefs-c0eeb3"><g class="clips"/><clipPath id="legendc0eeb3"><rect width="694" height="113" x="0" y="0"/></clipPath></defs><g class="layer-above"><g class="imagelayer"/><g class="shapelayer"/></g><g class="infolayer"><g class="legend" pointer-events="all" transform="translate(2793.56,100)"><rect class="bg" shape-rendering="crispEdges" width="694" height="113" x="0" y="0" style="stroke: rgb(68, 68, 68); stroke-opacity: 1; fill: rgb(255, 255, 255); fill-opacity: 1; stroke-width: 0px;"/><g class="scrollbox" transform="" clip-path="url(#legendc0eeb3)"><g class="groups"><g class="traces" transform="translate(0,30.55)" style="opacity: 1;"><text class="legendtext" text-anchor="start" x="40" y="14.43" style="font-family: 'Open Sans', verdana, arial, sans-serif; font-size: 37px; fill: rgb(42, 63, 95); fill-opacity: 1; white-space: pre;">Predicted Curvature at Anchors #1</text><g class="layers" style="opacity: 1;"><g class="legendfill"/><g class="legendlines"><path class="js-line" d="M5,0h30" style="fill: none; stroke: rgb(170, 0, 0); stroke-opacity: 1; stroke-width: 4px;"/></g><g class="legendsymbols"><g class="legendpoints"/></g></g><rect class="legendtoggle" x="0" y="-25.55" width="688.125" height="51.1" style="fill: rgb(0, 0, 0); fill-opacity: 0;"/></g><g class="traces" transform="translate(0,81.65)" style="opacity: 1;"><text class="legendtext" text-anchor="start" x="40" y="14.43" style="font-family: 'Open Sans', verdana, arial, sans-serif; font-size: 37px; fill: rgb(42, 63, 95); fill-opacity: 1; white-space: pre;">Predicted Curvature at Anchors #2</text><g class="layers" style="opacity: 1;"><g class="legendfill"/><g class="legendlines"><path class="js-line" d="M5,0h30" style="fill: none; stroke: rgb(0, 170, 0); stroke-opacity: 1; stroke-width: 4px;"/></g><g class="legendsymbols"><g class="legendpoints"/></g></g><rect class="legendtoggle" x="0" y="-25.55" width="688.125" height="51.1" style="fill: rgb(0, 0, 0); fill-opacity: 0;"/></g></g></g><rect class="scrollbar" rx="20" ry="3" width="0" height="0" x="0" y="0" style="fill: rgb(128, 139, 164); fill-opacity: 1;"/></g><g class="g-gtitle"/><g class="g-xtitle"><text class="xtitle" x="1427" y="987.8" text-anchor="middle" style="font-family: 'Open Sans', verdana, arial, sans-serif; font-size: 44px; fill: rgb(42, 63, 95); opacity: 1; font-weight: normal; white-space: pre;">Anchor Point Index</text></g><g class="g-ytitle" transform="translate(31.6123046875,0)"><text class="ytitle" transform="rotate(-90,12.387500000000003,498)" x="12.387500000000003" y="498" text-anchor="middle" style="font-family: 'Open Sans', verdana, arial, sans-serif; font-size: 44px; fill: rgb(42, 63, 95); opacity: 1; font-weight: normal; white-space: pre;">Predicted Curvature</text></g><g class="annotation" data-index="0" style="opacity: 1;"><g class="annotation-text-g" transform="rotate(0,1427,66.49999999999993)"><g class="cursor-pointer" transform="translate(210,33)"><rect class="bg" x="0.5" y="0.5" width="2433" height="66" style="stroke-width: 1px; stroke: rgb(0, 0, 0); stroke-opacity: 0; fill: rgb(0, 0, 0); fill-opacity: 0;"/><text class="annotation-text" text-anchor="middle" x="1217.03125" y="54" style="font-family: 'Open Sans', verdana, arial, sans-serif; font-size: 52px; fill: rgb(42, 63, 95); fill-opacity: 1; white-space: pre;"><tspan style="font-weight:bold">Predicted Curvature at Anchors (Transformed Curve #1 vs. Transformed Curve #2)</tspan></text></g></g></g></g></svg>