<svg class="main-svg" xmlns="http://www.w3.org/2000/svg" xmlns:xlink="http://www.w3.org/1999/xlink" width="3500" height="1000" style="" viewBox="0 0 3500 1000"><rect x="0" y="0" width="3500" height="1000" style="fill: rgb(255, 255, 255); fill-opacity: 1;"/><defs id="defs-9c3b18"><g class="clips"><clipPath id="clip9c3b18xyplot" class="plotclip"><rect width="2606" height="796"/></clipPath><clipPath class="axesclip" id="clip9c3b18x"><rect x="136" y="0" width="2606" height="1000"/></clipPath><clipPath class="axesclip" id="clip9c3b18y"><rect x="0" y="100" width="3500" height="796"/></clipPath><clipPath class="axesclip" id="clip9c3b18xy"><rect x="136" y="100" width="2606" height="796"/></clipPath></g><g class="gradients"/><g class="patterns"/></defs><g class="bglayer"><rect class="bg" x="136" y="100" width="2606" height="796" style="fill: rgb(229, 236, 246); fill-opacity: 1; stroke-width: 0;"/></g><g class="layer-below"><g class="imagelayer"/><g class="shapelayer"/></g><g class="cartesianlayer"><g class="subplot xy"><g class="layer-subplot"><g class="shapelayer"/><g class="imagelayer"/></g><g class="gridlayer"><g class="x"><path class="xgrid crisp" transform="translate(446.24,0)" d="M0,100v796" style="stroke: rgb(255, 255, 255); stroke-opacity: 1; stroke-width: 1px;"/><path class="xgrid crisp" transform="translate(756.48,0)" d="M0,100v796" style="stroke: rgb(255, 255, 255); stroke-opacity: 1; stroke-width: 1px;"/><path class="xgrid crisp" transform="translate(1066.71,0)" d="M0,100v796" style="stroke: rgb(255, 255, 255); stroke-opacity: 1; stroke-width: 1px;"/><path class="xgrid crisp" transform="translate(1376.95,0)" d="M0,100v796" style="stroke: rgb(255, 255, 255); stroke-opacity: 1; stroke-width: 1px;"/><path class="xgrid crisp" transform="translate(1687.19,0)" d="M0,100v796" style="stroke: rgb(255, 255, 255); stroke-opacity: 1; stroke-width: 1px;"/><path class="xgrid crisp" transform="translate(1997.43,0)" d="M0,100v796" style="stroke: rgb(255, 255, 255); stroke-opacity: 1; stroke-width: 1px;"/><path class="xgrid crisp" transform="translate(2307.67,0)" d="M0,100v796" style="stroke: rgb(255, 255, 255); stroke-opacity: 1; stroke-width: 1px;"/><path class="xgrid crisp" transform="translate(2617.9,0)" d="M0,100v796" style="stroke: rgb(255, 255, 255); stroke-opacity: 1; stroke-width: 1px;"/></g><g class="y"><path class="ygrid crisp" transform="translate(0,844.16)" d="M136,0h2606" style="stroke: rgb(255, 255, 255); stroke-opacity: 1; stroke-width: 1px;"/><path class="ygrid crisp" transform="translate(0,713.32)" d="M136,0h2606" style="stroke: rgb(255, 255, 255); stroke-opacity: 1; stroke-width: 1px;"/><path class="ygrid crisp" transform="translate(0,451.63)" d="M136,0h2606" style="stroke: rgb(255, 255, 255); stroke-opacity: 1; stroke-width: 1px;"/><path class="ygrid crisp" transform="translate(0,320.78)" d="M136,0h2606" style="stroke: rgb(255, 255, 255); stroke-opacity: 1; stroke-width: 1px;"/><path class="ygrid crisp" transform="translate(0,189.94)" d="M136,0h2606" style="stroke: rgb(255, 255, 255); stroke-opacity: 1; stroke-width: 1px;"/></g></g><g class="zerolinelayer"><path class="xzl zl crisp" transform="translate(136,0)" d="M0,100v796" style="stroke: rgb(255, 255, 255); stroke-opacity: 1; stroke-width: 2px;"/><path class="yzl zl crisp" transform="translate(0,582.47)" d="M136,0h2606" style="stroke: rgb(255, 255, 255); stroke-opacity: 1; stroke-width: 2px;"/></g><path class="xlines-below"/><path class="ylines-below"/><g class="overlines-below"/><g class="xaxislayer-below"/><g class="yaxislayer-below"/><g class="overaxes-below"/><g class="plot" transform="translate(136,100)" clip-path="url(#clip9c3b18xyplot)"><g class="scatterlayer mlayer"><g class="trace scatter tracee37ac6" style="stroke-miterlimit: 2; opacity: 1;"><g class="fills"/><g class="errorbars"/><g class="lines"><path class="js-line" d="M0,208.19L3.1,200.68L6.2,206.05L9.31,219.76L12.41,223.83L24.82,233.68L27.92,235.64L37.23,240.22L40.33,241.29L49.64,242.94L52.74,242.92L62.05,241.06L65.15,239.82L74.46,234.39L77.56,232.05L80.66,240.01L83.76,231.49L86.87,237.14L89.97,220.69L93.07,214.59L96.17,227.95L99.28,225.1L102.38,224.41L105.48,204.07L108.58,211.15L111.69,212.52L114.79,220.84L117.89,190.82L120.99,199.03L124.1,200.91L127.2,215L130.3,189.39L133.4,184.31L136.5,194.28L139.61,191.87L142.71,177.45L145.81,185.14L148.91,182.51L152.02,168.3L155.12,176.15L158.22,173.52L161.32,159.6L164.43,167.69L167.53,165.22L170.63,153.57L173.73,156.19L176.84,156.67L179.94,150.98L183.04,149.08L186.14,159.27L189.25,148.67L192.35,146.57L195.45,142.58L198.55,140.63L201.65,152.58L204.76,144.82L207.86,145.43L210.96,137.79L214.06,141.51L217.17,147.64L220.27,138.76L223.37,138.18L226.47,135.08L229.58,139.6L232.68,135.63L238.88,144.7L241.99,144.82L245.09,140.86L248.19,147.36L251.29,155.43L254.4,148.56L260.6,154L263.7,151.65L266.8,153.41L269.91,151.77L273.01,159.32L276.11,161.83L279.21,163.39L282.32,166.34L285.42,167.77L288.52,171.5L291.62,172.85L294.73,177.14L297.83,178.58L300.93,183.69L304.03,184.01L307.14,190.62L310.24,188.52L313.34,188.48L316.44,190.71L319.55,196.29L325.75,201.38L328.85,208.02L331.95,204.87L335.06,206.47L338.16,212.37L341.26,213.47L344.36,211.41L347.47,218.16L350.57,203.22L353.67,209.85L356.77,181L359.88,204.27L362.98,192.08L366.08,193.34L372.29,197.13L375.39,189.78L378.49,212.59L381.59,197.65L384.7,208.41L387.8,202.01L390.9,197.64L394,231.97L397.1,185.7L400.21,215.64L403.31,225.91L406.41,183.18L409.51,203.31L412.62,167.3L418.82,153.4L421.92,161.8L425.03,143.86L428.13,132.53L431.23,112.74L434.33,125.29L437.44,97.19L440.54,131.23L443.64,86.28L446.74,68.26L449.85,97.7L452.95,61.9L456.05,104.38L459.15,68.68L462.25,57.02L465.36,89.06L468.46,57.45L471.56,73.97L474.66,81.25L477.77,57.13L480.87,78.73L483.97,60.44L487.07,64.25L490.18,57.84L493.28,66.22L496.38,62.76L499.48,69.04L502.59,69.77L505.69,74.97L508.79,77.65L511.89,80.92L515,89.53L518.1,90.36L521.2,94.6L524.3,105.82L527.4,106.98L530.51,116.39L533.61,118L536.71,121.48L539.81,126.77L549.12,137.48L552.22,142.29L555.33,148.15L558.43,148.5L561.53,153.68L564.63,155.08L567.74,161.99L570.84,162.54L573.94,168.73L577.04,166.57L580.15,170.46L583.25,177.24L586.35,177.56L589.45,180.39L592.55,187.14L595.66,205.18L598.76,203.68L601.86,204.99L604.96,219.19L608.07,228.13L611.17,233.53L614.27,236.3L617.37,257.05L620.48,254.57L623.58,260.14L626.68,277.49L629.78,291.19L632.89,310.45L635.99,310.12L639.09,326.11L642.19,337.7L645.3,353.86L648.4,368.7L651.5,373.34L663.91,532.15L667.01,544.17L670.11,584.18L673.22,607.42L679.42,681.72L682.52,711.46L685.63,738.28L688.73,750.65L691.83,751.58L694.93,748.36L698.04,739.04L701.14,736.97L704.24,732.52L707.34,723.55L710.45,723.88L713.55,719.94L716.65,712.63L719.75,713.62L722.85,711.81L725.96,706.07L729.06,703.62L732.16,702.49L735.26,697.06L738.37,695.32L741.47,695.09L744.57,689.78L747.67,684.55L750.78,684.33L753.88,683.16L756.98,678.53L763.19,677.23L766.29,672.88L769.39,667.19L772.49,668.36L775.6,667.02L778.7,663.86L791.11,653.48L794.21,652.67L806.62,644.89L809.72,641.2L812.82,637.04L815.93,635.49L819.03,635.65L822.13,631.6L825.23,627.74L828.34,626.5L831.44,626.51L834.54,623.24L837.64,618.07L840.75,615.8L843.85,615.11L846.95,610.67L850.05,608.05L853.15,603.8L856.26,601.4L859.36,600.34L862.46,597.25L865.56,591.8L877.97,582.29L881.08,572.86L887.28,565.06L890.38,559.07L893.49,556.29L896.59,548.31L902.79,533.48L905.9,523.62L909,517.74L912.1,508.58L915.2,500.81L918.3,489L924.51,454.62L927.61,453.1L930.71,442.75L933.82,425.5L936.92,407.38L940.02,381.65L943.12,379.55L946.23,325.73L952.43,291.03L955.53,277.62L958.64,256L961.74,257.57L964.84,206.82L967.94,183.26L980.35,68.06L983.45,69.08L989.66,80.63L992.76,85.64L995.86,90.94L998.97,127.97L1002.07,196.74L1005.17,197.17L1008.27,223.03L1011.38,227.82L1014.48,224.24L1017.58,227.04L1020.68,202.88L1023.79,205.28L1026.89,199.67L1029.99,231.08L1033.09,230.94L1036.2,224.92L1039.3,216.81L1042.4,215.37L1045.5,200.7L1048.6,224.79L1051.71,254.72L1054.81,177.16L1061.01,141.75L1064.12,106.16L1067.22,118.84L1070.32,98.34L1073.42,87.5L1076.53,67L1079.63,45.06L1082.73,44.77L1088.94,44.16L1092.04,50.32L1095.14,44.6L1098.24,44.04L1104.45,44.5L1107.55,47.36L1110.65,47.84L1113.75,49.87L1116.86,52.83L1119.96,49.23L1126.16,55.4L1129.27,60.34L1132.37,64.82L1135.47,61.41L1138.57,62.88L1141.68,68.25L1144.78,74.41L1147.88,77.31L1150.98,75.4L1154.09,84.78L1157.19,93.78L1160.29,95.8L1163.39,93.44L1166.5,101.61L1169.6,105.9L1172.7,107.67L1178.9,119.99L1182.01,124.36L1191.31,134.56L1194.42,137.5L1200.62,140.24L1203.72,146.57L1216.13,162.02L1219.24,164.77L1225.44,172.82L1228.54,176.21L1231.65,178.48L1234.75,185.92L1240.95,194.2L1244.05,196.4L1247.16,206.13L1250.26,212.18L1253.36,217.12L1256.46,225.32L1262.67,241.08L1265.77,236.24L1275.08,249.83L1278.18,249.59L1284.39,262.96L1287.49,258.77L1290.59,254.21L1293.69,259.87L1296.8,264.92L1299.9,261.43L1303,254.69L1306.1,254.36L1309.2,239.97L1312.31,245.57L1315.41,247.61L1318.51,241.41L1321.61,241.19L1324.72,229.64L1330.92,224.05L1334.02,221.94L1337.13,219.09L1340.23,218.74L1343.33,215.56L1346.43,206.48L1349.54,210.73L1352.64,207.38L1355.74,199.06L1358.84,207.25L1361.95,197.92L1365.05,193.02L1368.15,184.96L1371.25,182.52L1377.46,179.06L1380.56,174.84L1383.66,171.3L1386.76,169.58L1389.87,165.35L1392.97,165.16L1396.07,159.6L1399.17,158.91L1411.58,149.05L1414.69,145.74L1417.79,145.7L1420.89,142.85L1423.99,139.36L1427.1,137.8L1430.2,137.59L1433.3,133.75L1436.4,128.88L1439.5,129.88L1442.61,124.04L1445.71,123.76L1451.91,122.81L1455.02,120.46L1458.12,116.05L1461.22,117.64L1464.32,111.51L1467.43,112.19L1470.53,114.19L1473.63,111.58L1476.73,108.92L1479.84,109.3L1482.94,105.12L1486.04,105.67L1489.14,107.08L1492.25,103.31L1498.45,106.59L1501.55,103.23L1504.65,105.6L1507.76,109.26L1510.86,106.74L1513.96,108.49L1517.06,111.35L1520.17,109.83L1523.27,111.41L1526.37,114.76L1529.47,113.81L1532.58,116.47L1535.68,114.9L1538.78,120.13L1541.88,123.29L1544.99,124.8L1548.09,129.07L1551.19,129.92L1566.7,145.06L1569.8,144.75L1576.01,151.42L1579.11,152.9L1591.52,164.13L1594.62,165.42L1597.73,168.53L1600.83,168.89L1603.93,174.27L1607.03,176.91L1610.14,178.21L1613.24,182.69L1616.34,184.28L1619.44,189.25L1622.55,189.79L1625.65,195.91L1628.75,201.24L1631.85,203.84L1638.06,212.3L1641.16,221.09L1644.26,232.26L1647.36,236.3L1653.57,253.35L1656.67,268.2L1662.88,304.33L1665.98,325.79L1669.08,343.62L1672.18,368.57L1678.39,455.17L1681.49,506.34L1684.59,528.26L1687.7,569.47L1690.8,596.2L1693.9,634.34L1700.1,707.38L1703.21,726.97L1706.31,734.57L1709.41,732.78L1712.51,719.35L1715.62,720.26L1718.72,710.45L1721.82,704.71L1724.92,699.2L1728.03,690.43L1731.13,686.78L1734.23,685.72L1740.44,678.63L1743.54,672.65L1749.74,669.37L1752.85,665.33L1755.95,662.39L1759.05,655.38L1762.15,654.78L1765.25,652.7L1768.36,651.58L1771.46,648.22L1774.56,643.16L1777.66,642.5L1780.77,641.9L1783.87,638.63L1786.97,637.42L1790.07,632.11L1793.18,628.23L1796.28,627.9L1802.48,625.67L1805.59,617.6L1808.69,616.25L1811.79,613.62L1814.89,612.02L1818,608.51L1827.3,605.95L1830.4,605.6L1833.51,605.5L1836.61,608.2L1845.92,614.44L1849.02,619.19L1852.12,617.57L1855.22,618.11L1858.33,617.75L1861.43,619.97L1864.53,622.44L1867.63,628.51L1870.74,624.21L1873.84,633.64L1876.94,631.38L1880.04,638.04L1886.25,643.69L1889.35,651.89L1892.45,645.94L1895.55,655.59L1898.66,653.79L1901.76,658.85L1904.86,661.95L1907.96,662.3L1911.07,668.47L1914.17,664.14L1917.27,669.83L1920.37,668.65L1923.48,671.23L1926.58,670.94L1929.68,672.53L1932.78,671.97L1935.89,672.93L1938.99,672.15L1942.09,672.52L1945.19,671.55L1951.4,670.22L1954.5,669.58L1973.11,660.66L1976.22,658.38L1988.63,650.51L1991.73,646.94L1994.83,645.37L1997.93,638.09L2001.04,639.72L2004.14,633.94L2007.24,630.74L2010.34,630.68L2013.45,618.99L2016.55,617.54L2019.65,609.53L2022.75,607.43L2025.85,594.85L2028.96,588.47L2032.06,588.1L2035.16,561.94L2041.37,534.11L2044.47,521.34L2053.78,422.6L2056.88,377.33L2059.98,357.76L2063.08,308.5L2069.29,254.99L2072.39,189.26L2078.6,124.6L2081.7,105.03L2084.8,94.29L2087.9,90.72L2091,92.38L2094.11,97.47L2112.72,139.83L2115.82,144.91L2125.13,156.52L2128.23,159.47L2137.54,166.47L2140.64,168.33L2153.05,174.14L2156.15,175.25L2165.46,177.86L2168.56,173.41L2171.67,172.31L2174.77,177.91L2177.87,174.84L2180.97,164.79L2187.18,174.14L2190.28,173.69L2193.38,169.54L2196.49,167.29L2199.59,172.52L2202.69,166.54L2205.79,162.87L2208.9,171.17L2212,171.83L2215.1,175.14L2221.3,166.45L2224.41,158.83L2227.51,162.48L2230.61,156.45L2233.71,155.5L2236.82,167.55L2246.12,151.44L2249.23,156.23L2255.43,148.61L2258.53,152.83L2261.64,147.65L2264.74,152.84L2270.94,145.23L2274.05,153.29L2277.15,163.08L2280.25,168.21L2283.35,152.28L2286.45,164.3L2289.56,160.54L2292.66,161.1L2308.17,165.38L2311.27,166.52L2323.68,171.9L2326.79,165.78L2329.89,165.82L2332.99,174.22L2336.09,171.32L2339.2,166.26L2342.3,169.95L2345.4,176.85L2348.5,186.79L2351.6,182.57L2354.71,180.03L2357.81,194.31L2360.91,195.54L2364.01,211.12L2367.12,201.79L2370.22,204.76L2373.32,230.37L2376.42,229.16L2379.53,246.54L2382.63,234.12L2385.73,248.68L2388.83,288.14L2398.14,342.8L2401.24,357.6L2404.35,374.57L2407.45,407.86L2410.55,441.28L2413.65,487.97L2416.75,496.52L2419.86,549.58L2422.96,584.43L2426.06,599.6L2432.27,700.41L2435.37,726.97L2438.47,727.78L2441.57,735.4L2444.68,723.06L2447.78,706.28L2450.88,704.01L2453.98,670.3L2457.09,662.9L2460.19,641.83L2466.39,585.42L2469.5,570.56L2472.6,559.33L2475.7,529.37L2481.9,478.48L2485.01,442.31L2497.42,265.28L2500.52,261.13L2503.62,244.09L2506.72,215.97L2516.03,129.7L2519.13,117.48L2522.24,110.71L2525.34,107.01L2528.44,112.03L2531.54,119.77L2534.65,120.88L2537.75,124.38L2540.85,129.66L2543.95,131.94L2547.05,136.78L2550.16,144.45L2553.26,146.15L2556.36,150.65L2562.57,157.2L2565.67,160.55L2578.08,172.08L2581.18,173.87L2584.28,173.99L2587.39,178.78L2590.49,185.3L2593.59,181.52L2599.8,193.31L2602.9,204.04L2606,202.58" style="vector-effect: non-scaling-stroke; fill: none; stroke: rgb(170, 0, 0); stroke-opacity: 1; stroke-width: 4px; opacity: 1;"/></g><g class="points"/><g class="text"/></g><g class="trace scatter trace80e72f" style="stroke-miterlimit: 2; opacity: 1;"><g class="fills"/><g class="errorbars"/><g class="lines"><path class="js-line" d="M0,188.46L3.1,190.07L6.2,194.63L9.31,196.43L12.41,201.62L15.51,209.23L18.61,209.62L21.72,209.96L24.82,208.44L34.13,222.02L37.23,221.8L40.33,226.05L43.43,225.06L46.54,222.36L49.64,227.02L52.74,226.47L55.84,222.95L58.95,226.13L62.05,227.33L65.15,225.8L68.25,226.59L80.66,224.01L83.76,222.34L89.97,219.27L93.07,218.68L96.17,217.36L99.28,214.77L102.38,211.26L105.48,210.48L108.58,208.77L111.69,205.67L114.79,201.51L117.89,200.3L120.99,197.92L124.1,193.47L130.3,187.62L133.4,184.52L136.5,183.25L139.61,178.57L142.71,177.2L145.81,174.34L148.91,171.49L152.02,166.77L155.12,165.89L158.22,163.49L164.43,158.81L167.53,153.85L173.73,151.03L176.84,151.27L186.14,144.52L189.25,143.46L192.35,140.56L195.45,140.63L201.65,137.91L204.76,140.15L207.86,134L210.96,133.89L214.06,132.72L217.17,137.75L220.27,139.84L223.37,135.61L226.47,132.5L229.58,135.08L232.68,137.87L235.78,121.58L238.88,133.85L241.99,135.02L248.19,135.69L251.29,144.1L254.4,151.73L257.5,150.85L260.6,149.76L263.7,150.05L266.8,148.12L269.91,153.53L273.01,155.96L276.11,156.19L285.42,165.86L288.52,164.6L291.62,163L294.73,171.07L300.93,173.96L304.03,180.58L307.14,187.1L310.24,184.18L313.34,188.99L316.44,190.49L319.55,197.36L322.65,192.32L325.75,201.42L328.85,196.14L331.95,186.76L335.06,204.91L338.16,186.12L341.26,176.55L344.36,179.06L347.47,207.59L350.57,192.6L353.67,219.42L356.77,193.09L359.88,209.14L362.98,219.88L366.08,218.26L369.18,233.52L372.29,214.64L378.49,235.32L381.59,237.05L384.7,235.2L387.8,238.44L394,232.6L397.1,227.88L400.21,226.47L403.31,221.67L406.41,216.44L409.51,208.61L412.62,194.14L415.72,195.31L418.82,168.47L421.92,166.35L425.03,138.03L428.13,139.19L431.23,128.13L434.33,107.35L437.44,92.37L440.54,102.78L443.64,82.05L446.74,107.81L449.85,69.92L452.95,63.13L456.05,85.4L459.15,60.32L462.25,92.63L465.36,64L468.46,59.58L471.56,77.47L474.66,59.93L477.77,83.78L480.87,67.22L483.97,66.42L487.07,74.77L490.18,71.59L493.28,77.99L496.38,79.82L499.48,79.02L502.59,85.72L505.69,86.88L508.79,96.59L511.89,97.19L515,108.13L518.1,108.06L521.2,112.08L524.3,118.93L527.4,122.29L530.51,127.02L533.61,129.25L539.81,135.24L542.92,140.74L558.43,155.9L561.53,157.27L567.74,165.43L570.84,167.4L573.94,168.58L577.04,172.82L580.15,175.16L583.25,174.37L592.55,189.26L595.66,191.9L598.76,193.47L601.86,196.6L604.96,200.73L608.07,216.34L611.17,220.86L614.27,231.63L617.37,245.17L620.48,247.49L623.58,262.43L626.68,266.39L632.89,301.74L635.99,309.17L642.19,329.93L645.3,348.11L651.5,388L654.6,418.96L670.11,605.6L673.22,612.76L682.52,743.1L685.63,753.08L688.73,746.57L691.83,747.16L701.14,691.58L704.24,688.07L713.55,679.46L716.65,677.23L722.85,673.5L725.96,681.81L729.06,683.89L732.16,675.26L735.26,675.35L738.37,682.43L741.47,679.11L744.57,680.38L747.67,679.34L750.78,680.99L756.98,671.81L760.08,673.05L763.19,670.46L766.29,670.99L769.39,667.14L772.49,667.77L775.6,663.81L778.7,664.47L781.8,660.45L784.9,660.37L788,657.09L791.11,656.61L794.21,652.54L797.31,653.4L800.41,651.08L803.52,652.71L806.62,648.37L809.72,646.06L812.82,649.33L815.93,641.39L819.03,641.11L822.13,637.77L825.23,637.26L828.34,634.05L831.44,633.32L834.54,630.19L837.64,629.26L840.75,626.12L843.85,625.06L846.95,621.72L850.05,620.68L853.15,616.88L856.26,616.02L859.36,611.42L862.46,611.12L865.56,606.2L868.67,604.71L871.77,599.59L874.87,597.41L877.97,591.72L881.08,587.18L884.18,589.77L887.28,577.98L890.38,576.57L896.59,560.08L899.69,548.67L902.79,539.65L905.9,538.17L909,524.99L912.1,517.3L915.2,507.19L918.3,486.82L921.41,482.46L924.51,468.52L927.61,455.04L930.71,431.36L933.82,400.83L936.92,393.32L940.02,352.72L943.12,335.65L946.23,322.03L949.33,297.19L952.43,272.54L955.53,267.58L958.64,247.84L961.74,214.96L964.84,162.29L967.94,135.18L971.05,84.03L974.15,58.21L977.25,73.91L980.35,127.07L983.45,134.33L986.56,157.97L989.66,184.28L992.76,195.37L995.86,204.92L998.97,223.09L1002.07,222.64L1005.17,229.53L1008.27,244.33L1011.38,242.8L1014.48,244.33L1017.58,252.75L1020.68,249.75L1023.79,254.44L1026.89,259.61L1029.99,253.52L1033.09,254.59L1036.2,253.36L1042.4,244.27L1045.5,235.34L1048.6,220.97L1051.71,197.16L1054.81,200.26L1057.91,182.59L1061.01,154.51L1064.12,142.53L1067.22,122.73L1070.32,90.37L1076.53,70.58L1079.63,55.75L1085.83,45.21L1088.94,43.06L1092.04,40.23L1095.14,39.8L1098.24,41.13L1101.35,45.38L1104.45,49.52L1107.55,42.46L1110.65,46.24L1113.75,48.04L1116.86,45.24L1119.96,51.62L1123.06,48.45L1126.16,55.8L1129.27,54.25L1132.37,54.55L1135.47,62.62L1138.57,61.11L1141.68,67.99L1144.78,68.06L1147.88,72.8L1150.98,79.89L1154.09,77.59L1157.19,84.94L1160.29,85.82L1163.39,94.99L1166.5,93.34L1169.6,102.22L1172.7,103.6L1175.8,111.25L1178.9,113.52L1182.01,118.78L1185.11,125.55L1188.21,120.69L1191.31,134.11L1194.42,127.49L1197.52,137.02L1200.62,142.57L1203.72,144.24L1206.83,150.81L1209.93,149.47L1213.03,154.9L1216.13,151.27L1219.24,156.24L1222.34,163.34L1225.44,163.16L1228.54,167.01L1231.65,164.55L1234.75,166.36L1237.85,174.24L1240.95,175.99L1244.05,179.88L1247.16,181.61L1250.26,179.82L1253.36,189.07L1256.46,193.28L1259.57,200.37L1262.67,202.66L1265.77,211.2L1268.87,214.82L1271.98,209.76L1275.08,219.36L1278.18,219.08L1281.28,227.21L1287.49,234.24L1290.59,236.34L1293.69,229.44L1296.8,235.52L1299.9,234.67L1303,232.64L1306.1,235.71L1309.2,233.34L1312.31,235.51L1315.41,231.01L1318.51,230.98L1321.61,229.45L1324.72,224.64L1327.82,225.15L1330.92,223.77L1334.02,219.21L1337.13,219L1340.23,214.29L1343.33,213.91L1346.43,207.47L1349.54,205.42L1352.64,205.3L1358.84,201.55L1361.95,196.53L1365.05,192.61L1368.15,185.71L1371.25,184.08L1374.35,187.32L1377.46,184.5L1380.56,183.13L1389.87,170.31L1392.97,172.23L1396.07,171.77L1399.17,166.9L1405.38,162.24L1408.48,158.53L1411.58,155.36L1414.69,155.18L1417.79,153.46L1420.89,149.58L1427.1,146.84L1430.2,144.52L1433.3,142.14L1436.4,141.04L1439.5,141.7L1442.61,139.11L1445.71,135.63L1448.81,133.81L1455.02,136.36L1458.12,134.53L1461.22,128.57L1464.32,126.72L1467.43,129.48L1470.53,128.58L1473.63,128.86L1476.73,126.6L1479.84,128.24L1482.94,125.88L1486.04,125.11L1489.14,127.32L1492.25,128.03L1495.35,127.66L1498.45,126.44L1501.55,126.86L1510.86,128.54L1513.96,130.39L1517.06,130.28L1520.17,133.03L1526.37,135.08L1529.47,138.75L1532.58,137.59L1535.68,139.75L1538.78,136.59L1541.88,141.27L1548.09,141.44L1551.19,149.13L1554.29,144.58L1557.4,150.62L1563.6,148.83L1566.7,157.48L1569.8,155.31L1572.91,159.37L1579.11,158.92L1582.21,166.51L1588.42,162.53L1591.52,173.46L1594.62,172.08L1597.73,176.5L1600.83,175.27L1603.93,175.78L1607.03,184.31L1610.14,183.82L1613.24,183.07L1616.34,193.3L1619.44,190.24L1622.55,199.8L1625.65,200.98L1628.75,198.12L1631.85,213.34L1634.95,219.27L1638.06,224.53L1641.16,224.35L1644.26,232.65L1647.36,247.12L1650.47,248.72L1653.57,254.07L1656.67,284.35L1659.77,293.74L1662.88,317.03L1665.98,326.34L1669.08,354.18L1672.18,372.33L1675.29,407.06L1678.39,453.91L1684.59,537.07L1687.7,572.75L1693.9,639.76L1697,661.14L1700.1,709.67L1703.21,740.45L1706.31,745.13L1709.41,746.99L1712.51,740.33L1715.62,729.76L1718.72,725.5L1721.82,718.8L1724.92,709.8L1728.03,704.18L1731.13,700.99L1734.23,696.28L1737.33,693.85L1740.44,684.19L1743.54,688.09L1746.64,682.52L1749.74,678.81L1752.85,677.23L1755.95,673.38L1759.05,671.86L1762.15,669.71L1765.25,664.28L1768.36,665.86L1771.46,662.25L1774.56,660.14L1777.66,662.04L1780.77,655.02L1783.87,653.98L1790.07,650.86L1793.18,649.96L1796.28,645.97L1799.38,646.43L1802.48,649.43L1805.59,640.56L1808.69,640.85L1811.79,638.7L1814.89,639.66L1818,639.18L1821.1,634.99L1824.2,637.58L1827.3,640.55L1830.4,632.01L1833.51,634.48L1836.61,632.32L1839.71,633.67L1842.81,636.45L1845.92,632.05L1849.02,636.27L1852.12,639.25L1855.22,632.63L1858.33,637.02L1861.43,635.57L1870.74,639.12L1873.84,640.57L1876.94,645.22L1880.04,635.12L1883.15,648.2L1886.25,644.62L1889.35,649.56L1892.45,638.61L1895.55,651.91L1898.66,647.98L1901.76,652.76L1904.86,641.13L1907.96,653.2L1911.07,651.13L1914.17,652.92L1917.27,645.07L1920.37,641.66L1923.48,642.11L1926.58,653.84L1929.68,651.16L1932.78,651.96L1935.89,643.26L1938.99,639.4L1942.09,639.45L1945.19,650.79L1948.3,647.52L1951.4,647L1954.5,637.99L1957.6,633.86L1960.7,633.45L1963.81,644.37L1966.91,640.39L1970.01,640.87L1973.11,626.94L1976.22,625.88L1979.32,636.27L1982.42,631.47L1985.52,631L1988.63,617.63L1991.73,615.2L1994.83,624.68L1997.93,618.09L2001.04,617.76L2004.14,602.84L2007.24,611.5L2010.34,604.48L2013.45,602.77L2016.55,583.69L2019.65,591.48L2022.75,583.31L2025.85,579.65L2028.96,551.4L2032.06,557.61L2035.16,546.23L2038.26,538.48L2041.37,504.84L2044.47,496.4L2047.57,476.3L2053.78,435.06L2056.88,372.64L2063.08,308.42L2066.19,273.89L2069.29,265.59L2072.39,238.26L2078.6,135.86L2081.7,131.84L2084.8,89.98L2087.9,63.52L2091,81.14L2094.11,65.9L2097.21,78.08L2100.31,83.4L2103.41,84.4L2106.52,92.46L2109.62,103.96L2112.72,107.73L2115.82,105.87L2118.93,116.83L2125.13,121.96L2128.23,125.51L2131.34,125.92L2134.44,132.46L2137.54,130.26L2140.64,130.64L2143.75,138.33L2146.85,134.86L2149.95,141.57L2153.05,138.24L2156.15,139.29L2159.26,146.55L2162.36,150.33L2165.46,149.14L2168.56,153.01L2171.67,151.39L2174.77,155.27L2177.87,153.36L2180.97,157.18L2184.08,155.06L2187.18,156.65L2190.28,154.45L2193.38,158.23L2196.49,158.36L2199.59,157.6L2202.69,158.75L2205.79,159.89L2208.9,158.4L2212,161.42L2215.1,160.62L2221.3,164.46L2224.41,162.93L2227.51,168.22L2230.61,164.34L2236.82,160.43L2239.92,168.32L2243.02,162.68L2246.12,163.63L2249.23,173.75L2252.33,170.05L2255.43,170.57L2258.53,163.03L2261.64,161.81L2264.74,173.95L2267.84,169.12L2270.94,168.78L2274.05,170.12L2277.15,164.49L2280.25,161.39L2283.35,169.12L2286.45,171.21L2289.56,171.24L2295.76,176.38L2298.86,177.01L2301.97,177.89L2305.07,180.18L2308.17,182.04L2311.27,181.2L2317.48,186.97L2320.58,186.43L2326.79,192.28L2329.89,192.47L2336.09,200.38L2339.2,200.41L2345.4,208.56L2348.5,210.07L2354.71,219.77L2357.81,222L2364.01,234.95L2367.12,237.46L2373.32,254.2L2376.42,260.01L2388.83,304.87L2391.94,319.79L2398.14,346.21L2401.24,365.95L2404.35,377.3L2407.45,397.86L2413.65,474.01L2416.75,497.11L2419.86,531.61L2422.96,544.78L2429.16,607.11L2432.27,617.78L2435.37,668.44L2438.47,695.73L2441.57,733.95L2444.68,756.2L2447.78,755.51L2450.88,740.51L2453.98,702.3L2457.09,689.26L2460.19,668.06L2463.29,626.45L2466.39,612.95L2469.5,589.65L2472.6,551.44L2475.7,536.24L2485.01,437.83L2488.11,402.27L2494.31,318.76L2497.42,287.94L2500.52,277.72L2503.62,263.56L2509.83,210.47L2512.93,183.72L2516.03,147.98L2519.13,124.07L2522.24,105.71L2525.34,97.12L2528.44,93.61L2531.54,95.57L2534.65,104.12L2537.75,108.77L2543.95,118.52L2547.05,125.4L2553.26,133.41L2556.36,139.89L2559.46,145.61L2562.57,148.38L2565.67,152.98L2568.77,155.33L2571.87,156.35L2574.98,161L2578.08,163.22L2581.18,168.82L2584.28,171.19L2587.39,171.44L2590.49,172.24L2593.59,174.29L2606,188.33" style="vector-effect: non-scaling-stroke; fill: none; stroke: rgb(0, 170, 0); stroke-opacity: 1; stroke-width: 4px; opacity: 1;"/></g><g class="points"/><g class="text"/></g></g></g><g class="overplot"/><path class="xlines-above crisp" d="M0,0" style="fill: none;"/><path class="ylines-above crisp" d="M0,0" style="fill: none;"/><g class="overlines-above"/><g class="xaxislayer-above"><g class="xtick"><text text-anchor="middle" x="0" y="934" transform="translate(136,0)" style="font-family: 'Open Sans', verdana, arial, sans-serif; font-size: 37px; fill: rgb(42, 63, 95); fill-opacity: 1; white-space: pre; opacity: 1;">0</text></g><g class="xtick"><text text-anchor="middle" x="0" y="934" style="font-family: 'Open Sans', verdana, arial, sans-serif; font-size: 37px; fill: rgb(42, 63, 95); fill-opacity: 1; white-space: pre; opacity: 1;" transform="translate(446.24,0)">100</text></g><g class="xtick"><text text-anchor="middle" x="0" y="934" style="font-family: 'Open Sans', verdana, arial, sans-serif; font-size: 37px; fill: rgb(42, 63, 95); fill-opacity: 1; white-space: pre; opacity: 1;" transform="translate(756.48,0)">200</text></g><g class="xtick"><text text-anchor="middle" x="0" y="934" style="font-family: 'Open Sans', verdana, arial, sans-serif; font-size: 37px; fill: rgb(42, 63, 95); fill-opacity: 1; white-space: pre; opacity: 1;" transform="translate(1066.71,0)">300</text></g><g class="xtick"><text text-anchor="middle" x="0" y="934" style="font-family: 'Open Sans', verdana, arial, sans-serif; font-size: 37px; fill: rgb(42, 63, 95); fill-opacity: 1; white-space: pre; opacity: 1;" transform="translate(1376.95,0)">400</text></g><g class="xtick"><text text-anchor="middle" x="0" y="934" style="font-family: 'Open Sans', verdana, arial, sans-serif; font-size: 37px; fill: rgb(42, 63, 95); fill-opacity: 1; white-space: pre; opacity: 1;" transform="translate(1687.19,0)">500</text></g><g class="xtick"><text text-anchor="middle" x="0" y="934" style="font-family: 'Open Sans', verdana, arial, sans-serif; font-size: 37px; fill: rgb(42, 63, 95); fill-opacity: 1; white-space: pre; opacity: 1;" transform="translate(1997.43,0)">600</text></g><g class="xtick"><text text-anchor="middle" x="0" y="934" style="font-family: 'Open Sans', verdana, arial, sans-serif; font-size: 37px; fill: rgb(42, 63, 95); fill-opacity: 1; white-space: pre; opacity: 1;" transform="translate(2307.67,0)">700</text></g><g class="xtick"><text text-anchor="middle" x="0" y="934" style="font-family: 'Open Sans', verdana, arial, sans-serif; font-size: 37px; fill: rgb(42, 63, 95); fill-opacity: 1; white-space: pre; opacity: 1;" transform="translate(2617.9,0)">800</text></g></g><g class="yaxislayer-above"><g class="ytick"><text text-anchor="end" x="135" y="12.95" transform="translate(0,844.16)" style="font-family: 'Open Sans', verdana, arial, sans-serif; font-size: 37px; fill: rgb(42, 63, 95); fill-opacity: 1; white-space: pre; opacity: 1;">−20</text></g><g class="ytick"><text text-anchor="end" x="135" y="12.95" style="font-family: 'Open Sans', verdana, arial, sans-serif; font-size: 37px; fill: rgb(42, 63, 95); fill-opacity: 1; white-space: pre; opacity: 1;" transform="translate(0,713.32)">−10</text></g><g class="ytick"><text text-anchor="end" x="135" y="12.95" style="font-family: 'Open Sans', verdana, arial, sans-serif; font-size: 37px; fill: rgb(42, 63, 95); fill-opacity: 1; white-space: pre; opacity: 1;" transform="translate(0,582.47)">0</text></g><g class="ytick"><text text-anchor="end" x="135" y="12.95" style="font-family: 'Open Sans', verdana, arial, sans-serif; font-size: 37px; fill: rgb(42, 63, 95); fill-opacity: 1; white-space: pre; opacity: 1;" transform="translate(0,451.63)">10</text></g><g class="ytick"><text text-anchor="end" x="135" y="12.95" style="font-family: 'Open Sans', verdana, arial, sans-serif; font-size: 37px; fill: rgb(42, 63, 95); fill-opacity: 1; white-space: pre; opacity: 1;" transform="translate(0,320.78)">20</text></g><g class="ytick"><text text-anchor="end" x="135" y="12.95" style="font-family: 'Open Sans', verdana, arial, sans-serif; font-size: 37px; fill: rgb(42, 63, 95); fill-opacity: 1; white-space: pre; opacity: 1;" transform="translate(0,189.94)">30</text></g></g><g class="overaxes-above"/></g></g><g class="polarlayer"/><g class="ternarylayer"/><g class="geolayer"/><g class="funnelarealayer"/><g class="pielayer"/><g class="iciclelayer"/><g class="treemaplayer"/><g class="sunburstlayer"/><g class="glimages"/><defs id="topdefs-9c3b18"><g class="clips"/><clipPath id="legend9c3b18"><rect width="694" height="113" x="0" y="0"/></clipPath></defs><g class="layer-above"><g class="imagelayer"/><g class="shapelayer"/></g><g class="infolayer"><g class="legend" pointer-events="all" transform="translate(2794.12,100)"><rect class="bg" shape-rendering="crispEdges" width="694" height="113" x="0" y="0" style="stroke: rgb(68, 68, 68); stroke-opacity: 1; fill: rgb(255, 255, 255); fill-opacity: 1; stroke-width: 0px;"/><g class="scrollbox" transform="" clip-path="url(#legend9c3b18)"><g class="groups"><g class="traces" transform="translate(0,30.55)" style="opacity: 1;"><text class="legendtext" text-anchor="start" x="40" y="14.43" style="font-family: 'Open Sans', verdana, arial, sans-serif; font-size: 37px; fill: rgb(42, 63, 95); fill-opacity: 1; white-space: pre;">Predicted Curvature at Anchors #1</text><g class="layers" style="opacity: 1;"><g class="legendfill"/><g class="legendlines"><path class="js-line" d="M5,0h30" style="fill: none; stroke: rgb(170, 0, 0); stroke-opacity: 1; stroke-width: 4px;"/></g><g class="legendsymbols"><g class="legendpoints"/></g></g><rect class="legendtoggle" x="0" y="-25.55" width="688.125" height="51.1" style="fill: rgb(0, 0, 0); fill-opacity: 0;"/></g><g class="traces" transform="translate(0,81.65)" style="opacity: 1;"><text class="legendtext" text-anchor="start" x="40" y="14.43" style="font-family: 'Open Sans', verdana, arial, sans-serif; font-size: 37px; fill: rgb(42, 63, 95); fill-opacity: 1; white-space: pre;">Predicted Curvature at Anchors #2</text><g class="layers" style="opacity: 1;"><g class="legendfill"/><g class="legendlines"><path class="js-line" d="M5,0h30" style="fill: none; stroke: rgb(0, 170, 0); stroke-opacity: 1; stroke-width: 4px;"/></g><g class="legendsymbols"><g class="legendpoints"/></g></g><rect class="legendtoggle" x="0" y="-25.55" width="688.125" height="51.1" style="fill: rgb(0, 0, 0); fill-opacity: 0;"/></g></g></g><rect class="scrollbar" rx="20" ry="3" width="0" height="0" x="0" y="0" style="fill: rgb(128, 139, 164); fill-opacity: 1;"/></g><g class="g-gtitle"/><g class="g-xtitle"><text class="xtitle" x="1439" y="987.8" text-anchor="middle" style="font-family: 'Open Sans', verdana, arial, sans-serif; font-size: 44px; fill: rgb(42, 63, 95); opacity: 1; font-weight: normal; white-space: pre;">Anchor Point Index</text></g><g class="g-ytitle" transform="translate(32.1279296875,0)"><text class="ytitle" transform="rotate(-90,11.871875000000003,498)" x="11.871875000000003" y="498" text-anchor="middle" style="font-family: 'Open Sans', verdana, arial, sans-serif; font-size: 44px; fill: rgb(42, 63, 95); opacity: 1; font-weight: normal; white-space: pre;">Predicted Curvature</text></g><g class="annotation" data-index="0" style="opacity: 1;"><g class="annotation-text-g" transform="rotate(0,1439,66.49999999999993)"><g class="cursor-pointer" transform="translate(222,33)"><rect class="bg" x="0.5" y="0.5" width="2433" height="66" style="stroke-width: 1px; stroke: rgb(0, 0, 0); stroke-opacity: 0; fill: rgb(0, 0, 0); fill-opacity: 0;"/><text class="annotation-text" text-anchor="middle" x="1217.03125" y="54" style="font-family: 'Open Sans', verdana, arial, sans-serif; font-size: 52px; fill: rgb(42, 63, 95); fill-opacity: 1; white-space: pre;"><tspan style="font-weight:bold">Predicted Curvature at Anchors (Transformed Curve #1 vs. Transformed Curve #2)</tspan></text></g></g></g></g></svg>