<svg class="main-svg" xmlns="http://www.w3.org/2000/svg" xmlns:xlink="http://www.w3.org/1999/xlink" width="3500" height="1000" style="" viewBox="0 0 3500 1000"><rect x="0" y="0" width="3500" height="1000" style="fill: rgb(255, 255, 255); fill-opacity: 1;"/><defs id="defs-d9cc24"><g class="clips"><clipPath id="clipd9cc24xyplot" class="plotclip"><rect width="2606" height="796"/></clipPath><clipPath class="axesclip" id="clipd9cc24x"><rect x="136" y="0" width="2606" height="1000"/></clipPath><clipPath class="axesclip" id="clipd9cc24y"><rect x="0" y="100" width="3500" height="796"/></clipPath><clipPath class="axesclip" id="clipd9cc24xy"><rect x="136" y="100" width="2606" height="796"/></clipPath></g><g class="gradients"/><g class="patterns"/></defs><g class="bglayer"><rect class="bg" x="136" y="100" width="2606" height="796" style="fill: rgb(229, 236, 246); fill-opacity: 1; stroke-width: 0;"/></g><g class="layer-below"><g class="imagelayer"/><g class="shapelayer"/></g><g class="cartesianlayer"><g class="subplot xy"><g class="layer-subplot"><g class="shapelayer"/><g class="imagelayer"/></g><g class="gridlayer"><g class="x"><path class="xgrid crisp" transform="translate(593.19,0)" d="M0,100v796" style="stroke: rgb(255, 255, 255); stroke-opacity: 1; stroke-width: 1px;"/><path class="xgrid crisp" transform="translate(1050.3899999999999,0)" d="M0,100v796" style="stroke: rgb(255, 255, 255); stroke-opacity: 1; stroke-width: 1px;"/><path class="xgrid crisp" transform="translate(1507.58,0)" d="M0,100v796" style="stroke: rgb(255, 255, 255); stroke-opacity: 1; stroke-width: 1px;"/><path class="xgrid crisp" transform="translate(1964.77,0)" d="M0,100v796" style="stroke: rgb(255, 255, 255); stroke-opacity: 1; stroke-width: 1px;"/><path class="xgrid crisp" transform="translate(2421.96,0)" d="M0,100v796" style="stroke: rgb(255, 255, 255); stroke-opacity: 1; stroke-width: 1px;"/></g><g class="y"><path class="ygrid crisp" transform="translate(0,872.42)" d="M136,0h2606" style="stroke: rgb(255, 255, 255); stroke-opacity: 1; stroke-width: 1px;"/><path class="ygrid crisp" transform="translate(0,732.89)" d="M136,0h2606" style="stroke: rgb(255, 255, 255); stroke-opacity: 1; stroke-width: 1px;"/><path class="ygrid crisp" transform="translate(0,593.36)" d="M136,0h2606" style="stroke: rgb(255, 255, 255); stroke-opacity: 1; stroke-width: 1px;"/><path class="ygrid crisp" transform="translate(0,314.3)" d="M136,0h2606" style="stroke: rgb(255, 255, 255); stroke-opacity: 1; stroke-width: 1px;"/><path class="ygrid crisp" transform="translate(0,174.76999999999998)" d="M136,0h2606" style="stroke: rgb(255, 255, 255); stroke-opacity: 1; stroke-width: 1px;"/></g></g><g class="zerolinelayer"><path class="xzl zl crisp" transform="translate(136,0)" d="M0,100v796" style="stroke: rgb(255, 255, 255); stroke-opacity: 1; stroke-width: 2px;"/><path class="yzl zl crisp" transform="translate(0,453.83)" d="M136,0h2606" style="stroke: rgb(255, 255, 255); stroke-opacity: 1; stroke-width: 2px;"/></g><path class="xlines-below"/><path class="ylines-below"/><g class="overlines-below"/><g class="xaxislayer-below"/><g class="yaxislayer-below"/><g class="overaxes-below"/><g class="plot" transform="translate(136,100)" clip-path="url(#clipd9cc24xyplot)"><g class="scatterlayer mlayer"><g class="trace scatter trace4f9c2f" style="stroke-miterlimit: 2; opacity: 1;"><g class="fills"/><g class="errorbars"/><g class="lines"><path class="js-line" d="M0,540.18L6.86,524.71L9.14,525.46L11.43,531.45L13.72,527.27L18.29,522.41L20.57,520.47L22.86,514.23L25.15,516.29L27.43,505.49L29.72,504.32L32,513.45L34.29,504.03L36.58,495.31L38.86,510.59L41.15,506.24L43.43,496.73L45.72,487.92L48.01,494.72L50.29,509.88L52.58,499.78L54.86,501.35L57.15,517.64L59.44,505.71L61.72,506.74L66.29,519.77L68.58,519.96L70.86,516.87L73.15,523.74L75.44,517L77.72,518.51L80.01,529.95L82.29,522.34L84.58,532.93L86.87,530.2L89.15,530.2L91.44,541.61L93.72,530.82L96.01,538.79L98.3,538L100.58,544.88L102.87,542.77L105.15,536.63L107.44,538.92L109.73,542.68L112.01,538.95L114.3,542.48L116.58,538.51L118.87,541.81L121.16,537.61L123.44,538.88L125.73,531.43L128.01,537.33L130.3,527.74L132.59,536.99L134.87,530.35L137.16,541.63L139.44,532.87L141.73,549.39L144.02,563.19L146.3,524.03L148.59,536.8L150.87,529.84L153.16,529.96L155.45,561.37L157.73,516.23L160.02,524.03L162.3,518.87L164.59,531.16L169.16,485.6L171.45,514.89L182.88,513.64L185.16,511.21L187.45,505.73L189.74,495.33L192.02,477.92L194.31,451.74L198.88,372.23L201.16,323.3L208.02,193.61L210.31,168.16L212.59,152.95L214.88,146.28L217.17,145.81L219.45,149.25L235.45,188.16L237.74,163.42L240.03,180.89L242.31,178.3L244.6,168.53L246.88,171.44L249.17,182.93L251.46,185.31L253.74,199.6L256.03,202.52L258.31,217.05L260.6,210.31L262.89,192.43L265.17,212.73L267.46,215.49L269.74,197.71L272.03,191.18L274.32,207.7L276.6,219.87L278.89,221.4L281.17,206.21L283.46,218.52L285.75,235.87L288.03,189.85L292.6,225.6L294.89,230.98L297.18,220.36L299.46,232.45L301.75,252.53L304.03,237.84L315.46,246.29L317.75,247.4L322.32,248.27L324.61,247.87L333.75,242.87L336.04,243.4L338.32,246.97L340.61,255.38L342.89,270.49L345.18,293.76L349.75,365.26L352.04,410.04L358.9,538.15L361.18,567.92L365.75,601.48L368.04,607.38L370.33,608.32L372.61,606.04L379.47,592.23L381.76,587.64L388.61,577.22L390.9,574.93L397.76,570.56L400.04,569.51L406.9,565.53L409.19,563.58L418.33,553.29L420.62,550.62L445.76,522.23L448.05,519.41L452.62,513.42L454.91,509.11L459.48,494.99L461.76,485.88L466.34,470.84L468.62,467.53L470.91,465.85L473.19,456.76L475.48,418.04L477.77,330.32L482.34,133.78L484.62,106.42L486.91,114.7L489.2,132.99L493.77,162.32L496.05,171.63L500.63,183.86L502.91,188.15L509.77,198.06L512.06,200.83L521.2,209.87L523.49,211.71L539.49,222.62L541.77,224.07L569.21,240.16L571.49,241.31L603.49,256.82L605.78,258.52L617.21,266.62L619.5,267.42L624.07,267.13L626.35,265.82L630.93,260.82L633.21,257.38L637.78,250.58L640.07,248.58L642.36,248.74L644.64,252.09L646.93,259.61L649.21,271.98L653.79,311.94L656.07,338.49L669.79,508.73L672.07,528.42L676.65,556.96L678.93,566.38L683.5,577.71L685.79,580.5L690.36,582.3L692.65,581.91L699.51,578.08L701.79,576.36L722.36,561.07L724.65,559.67L738.37,552.77L740.65,551.82L745.22,549.93L747.51,563.64L749.8,552.26L752.08,524.93L754.37,549.08L756.65,528.81L758.94,534.47L761.23,522.88L763.51,483.7L765.8,468.53L768.08,474.54L770.37,446.72L772.66,466.52L774.94,431.89L777.23,455.7L779.51,417.4L781.8,431.17L784.09,392.29L788.66,351.29L790.94,237.88L793.23,257.09L795.52,119.6L797.8,123.85L800.09,47.26L802.37,129.71L804.66,53.28L806.95,129.15L809.23,73.68L811.52,121.44L813.8,137L816.09,131.06L818.38,138.4L820.66,123.88L822.95,165.05L825.23,161.92L827.52,165.14L829.81,156.12L832.09,141.09L834.38,186.43L836.66,178.48L838.95,183.1L841.24,166.99L843.52,154.56L845.81,194.53L848.09,182.46L850.38,196.63L852.66,181.05L854.95,185.99L857.24,199.91L859.52,183.51L861.81,188.68L864.09,203.08L866.38,185.88L868.67,190.96L870.95,206.11L873.24,204.18L875.52,228.99L877.81,212.71L880.1,190.18L882.38,194.16L884.67,175.05L886.95,185.45L891.53,226.42L893.81,217.81L896.1,194.3L898.38,215.32L900.67,214.41L902.96,199.32L905.24,188.33L907.53,206.58L909.81,216.67L912.1,215.66L914.39,202.03L916.67,212.64L918.96,227.66L921.24,181.73L925.82,219.41L928.1,218.35L930.39,206.58L932.67,216.82L934.96,230.8L937.25,220.29L966.96,228.03L969.25,228.73L987.54,235.51L989.82,236.58L1001.25,243.1L1003.54,244.65L1021.83,257.22L1024.11,257.99L1028.68,258.05L1030.97,257.21L1035.54,253.8L1037.83,251.57L1042.4,248.32L1044.69,249L1046.97,252.8L1049.26,261.08L1051.54,275.11L1053.83,295.72L1058.4,356.21L1060.69,393.53L1069.83,535.08L1072.12,558.61L1076.69,587.47L1078.98,594.22L1081.26,597.2L1083.55,597.47L1088.12,593.26L1090.41,590.03L1101.84,574.42L1104.12,572.08L1110.98,566.82L1113.26,565.58L1122.41,562.61L1124.69,562.26L1136.12,561.9L1138.41,562.01L1142.98,562.3L1145.27,591.2L1147.55,573.75L1149.84,575.64L1152.13,593.4L1154.41,602.1L1156.7,584.35L1158.98,592.92L1161.27,570.26L1163.56,579.27L1165.84,592.9L1168.13,558.1L1170.41,573.66L1172.7,578.53L1174.99,595.33L1177.27,570.57L1181.84,591.38L1184.13,558.45L1186.42,572.7L1188.7,577.1L1190.99,596.28L1193.27,567.56L1195.56,581.1L1197.85,585.91L1200.13,556.61L1202.42,568.54L1204.7,574.15L1206.99,591.17L1209.28,573.15L1211.56,596.13L1216.13,552.01L1218.42,557.96L1220.71,550.31L1222.99,559.97L1225.28,563.54L1227.56,578L1229.85,561.79L1232.14,582.21L1238.99,545.14L1241.28,538.33L1243.56,543.88L1245.85,535.67L1250.42,550.82L1252.71,550.89L1254.99,548.23L1257.28,556.07L1259.57,552.22L1261.85,532.44L1266.42,519.6L1268.71,526.88L1271,514.7L1273.28,522.42L1277.85,541.08L1280.14,528.76L1282.43,547.7L1284.71,538.32L1289.28,513.96L1291.57,506.33L1293.86,514.79L1296.14,502.45L1298.43,518.33L1300.71,523.86L1303,535.21L1305.29,525.24L1307.57,541.13L1309.86,538.17L1312.14,507.64L1314.43,514.05L1316.72,505.82L1319,515.45L1321.29,523.02L1323.57,534.14L1325.86,524.98L1328.15,538.67L1330.43,541.5L1332.72,512.54L1335,513.38L1337.29,508.82L1341.86,522.14L1344.15,533.71L1346.43,524.47L1348.72,536.13L1351.01,542.35L1353.29,513.91L1355.58,514.58L1357.86,508.41L1360.15,516.75L1362.44,518.32L1364.72,531L1367.01,520.22L1371.58,540.53L1373.86,511.19L1376.15,514.03L1378.44,506.25L1380.72,512.47L1383.01,510.88L1385.29,524.51L1387.58,513.01L1392.15,533.21L1394.44,498.8L1396.72,503.8L1399.01,500.27L1401.3,516.75L1403.58,500.74L1408.15,525.02L1410.44,485.84L1412.73,494.94L1415.01,468.9L1417.3,483.23L1419.58,481.06L1421.87,503.64L1424.16,480.24L1426.44,505.8L1428.73,502.32L1431.01,458.86L1433.3,443.16L1435.59,454.6L1437.87,505.66L1440.16,459.96L1442.44,514.68L1444.73,500.37L1447.02,472.47L1449.3,442.13L1451.59,463.97L1453.87,501.32L1456.16,479.96L1458.45,476.78L1460.73,498.2L1463.02,444.64L1465.3,453.7L1467.59,477.99L1469.88,454.98L1472.16,472.05L1474.45,445.05L1476.73,496.06L1479.02,463.05L1483.59,558.29L1485.88,517.41L1488.16,579.52L1490.45,521.49L1492.74,612.62L1495.02,572.62L1497.31,657.34L1499.59,643.71L1501.88,620.31L1504.16,646.29L1506.45,606.29L1508.74,649.03L1511.02,630.72L1513.31,652.77L1515.59,623.23L1517.88,622.22L1520.17,620.04L1522.45,601.48L1524.74,628.08L1527.02,601.12L1529.31,619.95L1531.6,595.06L1533.88,600.11L1536.17,590.16L1538.45,584.3L1540.74,605.54L1543.03,575.4L1545.31,585.96L1547.6,560.44L1549.88,576.36L1552.17,567.41L1554.46,577.31L1556.74,596.13L1559.03,554.78L1561.31,571.33L1563.6,550.5L1565.89,559.47L1568.17,573.58L1570.46,542.09L1572.74,546L1575.03,533.42L1577.32,550.17L1579.6,537.46L1581.89,552.84L1584.17,567.91L1586.46,525.94L1588.75,542.14L1591.03,529.18L1595.6,558.48L1597.89,518.99L1600.18,535.61L1602.46,521.69L1607.03,550.05L1609.32,512.12L1611.61,530.06L1613.89,514.53L1616.18,529.63L1618.46,552.9L1620.75,503.73L1623.04,523.06L1627.61,510.53L1629.89,518.63L1632.18,509.91L1634.46,507.38L1636.75,514.12L1639.04,503.22L1641.32,504.5L1643.61,510.1L1645.89,495.34L1648.18,501.61L1650.47,507.49L1652.75,487.31L1657.32,507.19L1659.61,481.2L1664.18,518.06L1666.47,478.9L1668.75,509.33L1671.04,499.97L1673.33,529.74L1675.61,533.51L1677.9,509.13L1680.18,523.27L1682.47,498.97L1684.76,524.57L1687.04,518.08L1689.33,529.82L1691.61,548.96L1693.9,528.56L1696.19,508.8L1698.47,524.68L1703.04,541.96L1705.33,498.08L1707.62,555.7L1709.9,543.02L1712.19,551.75L1714.47,500.68L1716.76,540.94L1719.05,554.83L1721.33,567.8L1723.62,553.14L1725.9,520.48L1728.19,568.53L1730.48,556.93L1732.76,555.04L1735.05,544.96L1737.33,551.32L1746.48,573.65L1748.76,577.9L1753.34,584.33L1755.62,586.49L1760.19,588.88L1762.48,589.24L1767.05,588.66L1769.34,587.9L1796.77,576.27L1799.05,575.78L1812.77,574.38L1815.06,574.34L1858.49,573.44L1860.78,573.13L1869.92,571.35L1872.21,608.72L1874.49,618.63L1876.78,589.49L1881.35,598.59L1883.64,595.61L1888.21,575.14L1890.49,580.86L1892.78,579.18L1895.06,580.68L1899.64,568.12L1901.92,588.48L1904.21,571.55L1906.49,562.99L1908.78,568.53L1911.07,549.18L1913.35,570.89L1915.64,560.25L1917.92,543.36L1920.21,558.54L1922.5,549.82L1924.78,533.92L1927.07,549.07L1929.35,538.98L1931.64,524.86L1933.93,539.25L1938.5,515.87L1940.78,535.66L1945.36,506.5L1947.64,535.17L1952.21,498.71L1954.5,530.29L1959.07,495.48L1961.36,526.41L1965.93,495.66L1968.22,522.27L1972.79,496.59L1975.07,518.23L1977.36,504.31L1979.65,503.38L1981.93,514.11L1984.22,505.07L1986.5,498.8L1988.79,514.77L1991.08,523.22L1993.36,491.24L1995.65,497.81L1997.93,490.16L2000.22,498.34L2002.51,495.72L2004.79,487.95L2007.08,497.9L2009.36,499.7L2011.65,456.57L2013.94,468.59L2016.22,464.35L2018.51,469.21L2020.79,457.03L2023.08,465.56L2025.36,453.76L2027.65,410.53L2029.94,404.13L2032.22,393.62L2034.51,363.64L2036.79,376.15L2039.08,331.06L2041.37,294.72L2043.65,232.26L2045.94,68.27L2048.22,130.4L2050.51,49.75L2052.8,51.14L2055.08,49.18L2057.37,80.55L2059.65,85.85L2061.94,110.22L2064.23,116.48L2066.51,134.68L2068.8,138.36L2071.08,152.88L2073.37,154.73L2075.66,165.79L2077.94,166.92L2080.23,175.02L2082.51,175.74L2084.8,181.75L2087.09,181.95L2089.37,186.64L2091.66,186.18L2093.94,190.04L2096.23,188.87L2098.52,192.18L2100.8,190.31L2103.09,193.24L2105.37,190.72L2107.66,193.34L2109.95,190.25L2112.23,192.62L2114.52,189.04L2116.8,191.15L2119.09,187.21L2121.38,189.03L2123.66,184.89L2125.95,186.35L2128.23,182.21L2130.52,183.22L2132.81,179.33L2135.09,179.78L2137.38,176.37L2139.66,176.23L2141.95,173.51L2144.24,172.79L2148.81,169.73L2151.09,168.78L2153.38,167.3L2155.66,167.52L2157.95,165.69L2160.24,167.65L2162.52,164.96L2164.81,169.75L2167.09,165.09L2169.38,173.81L2171.67,166.29L2173.95,178.56L2176.24,169.27L2178.52,182.26L2180.81,174.93L2183.1,198.05L2185.38,190.56L2187.67,198.96L2189.95,192.77L2192.24,197.88L2194.53,196.56L2196.81,189.93L2199.1,203.56L2201.38,194L2208.24,218.63L2210.53,220.13L2215.1,232.26L2217.39,235.27L2219.67,244.89L2221.96,244.86L2228.82,272.46L2231.1,273.34L2233.39,281.89L2235.67,274.93L2237.96,268.28L2240.25,266.1L2242.53,271.36L2244.82,261.99L2247.1,259.1L2249.39,283.12L2251.68,281.51L2253.96,284.49L2258.53,285.21L2260.82,287.24L2263.11,286.07L2265.39,288.3L2269.96,290.7L2272.25,297.72L2276.82,287.72L2279.11,273.66L2281.39,287.79L2283.68,277.55L2285.96,272.69L2288.25,299.9L2290.54,297.99L2292.82,307.45L2295.11,302.43L2297.39,316.87L2299.68,308.68L2301.97,324.95L2304.25,319.72L2306.54,327.48L2308.82,336.92L2311.11,323.08L2313.4,354.89L2315.68,318.48L2317.97,380.69L2320.25,340.88L2322.54,388.83L2324.83,371.87L2327.11,436.28L2329.4,453L2331.68,515.02L2333.97,615.89L2336.26,576.56L2338.54,686.91L2340.83,615.27L2343.11,719.29L2345.4,620.26L2347.69,669.41L2349.97,623.87L2352.26,645.18L2354.54,617.74L2356.83,634.35L2359.12,650.05L2361.4,615.26L2363.69,621.76L2365.97,614.87L2368.26,607.14L2370.55,581.55L2375.12,599.12L2377.4,572.27L2379.69,574.81L2381.98,580.43L2384.26,568.32L2386.55,569.88L2388.83,550.43L2391.12,548.89L2393.41,559.57L2395.69,542.05L2397.98,540.13L2400.26,535.41L2402.55,541.04L2404.84,542.11L2407.12,527.06L2409.41,518.88L2411.69,545.32L2413.98,527.08L2416.26,520.54L2418.55,532.76L2420.84,540.77L2423.12,539.38L2425.41,537.19L2427.69,531.6L2429.98,567.7L2432.27,558.75L2434.55,558.22L2436.84,563.94L2439.12,574.86L2441.41,596.49L2443.7,593.61L2445.98,603.11L2448.27,590.39L2450.55,604.37L2452.84,617.25L2455.13,612.49L2457.41,629.96L2459.7,612.52L2461.98,630.64L2464.27,630.12L2466.56,635.62L2468.84,612.55L2471.13,627.78L2473.41,614.69L2475.7,628.13L2477.99,616.21L2480.27,626.87L2482.56,617.1L2484.84,624.67L2487.13,617.22L2489.42,631.15L2491.7,625.1L2493.99,623.76L2496.27,618.5L2498.56,614.33L2500.85,612.46L2503.13,618.89L2505.42,615.99L2509.99,610.62L2512.28,611.02L2514.56,613.06L2516.85,622.83L2519.13,613.7L2521.42,614.49L2523.71,610.12L2525.99,620.14L2530.56,600.16L2532.85,604.14L2535.14,601.26L2537.42,602.37L2539.71,590.28L2541.99,598.04L2544.28,613.84L2546.56,601.24L2548.85,605.27L2551.14,591.46L2553.42,583.55L2555.71,599.82L2557.99,596.17L2560.28,589.67L2564.85,575.24L2567.14,571.66L2569.42,565.44L2571.71,567.84L2574,570.14L2576.28,556.81L2578.57,562.99L2580.85,564.17L2583.14,561.15L2585.43,554.55L2587.71,555.44L2590,557.93L2596.86,541.61L2599.14,547.1L2601.43,543.81L2603.71,536.78L2606,541.31" style="vector-effect: non-scaling-stroke; fill: none; stroke: rgb(170, 0, 0); stroke-opacity: 1; stroke-width: 4px; opacity: 1;"/></g><g class="points"/><g class="text"/></g><g class="trace scatter traceb100f6" style="stroke-miterlimit: 2; opacity: 1;"><g class="fills"/><g class="errorbars"/><g class="lines"><path class="js-line" d="M0,510.42L2.29,505.75L4.57,510.19L9.14,506.49L11.43,506.4L13.72,508.84L16,507.9L18.29,501.89L20.57,508.55L22.86,504.19L25.15,504.13L27.43,511.73L29.72,507.36L32,512.26L34.29,514.42L36.58,515.55L38.86,524.33L41.15,523.34L43.43,524.72L48.01,532.06L50.29,535.17L52.58,534.34L54.86,536.76L57.15,540.92L59.44,540.75L61.72,543.48L64.01,542.53L66.29,545.87L68.58,551.49L70.86,556.41L73.15,554.2L75.44,561.74L77.72,565.71L80.01,565.42L82.29,566.95L84.58,563.99L86.87,565.51L91.44,575.46L93.72,571.65L96.01,573.94L98.3,571.92L100.58,562.68L102.87,565.02L105.15,571.89L107.44,568.14L109.73,575.96L112.01,573.49L114.3,591.31L116.58,578.17L118.87,582.04L121.16,580.86L123.44,564.61L125.73,570.35L128.01,565.32L130.3,572.14L132.59,559.18L134.87,572.92L137.16,566.37L139.44,576.97L141.73,585.26L144.02,557.12L146.3,568.03L148.59,559.78L153.16,562.11L155.45,554.08L157.73,555.37L160.02,554.7L162.3,546.33L164.59,547.93L166.88,545.15L169.16,535.8L171.45,535.52L173.73,533.07L176.02,520.24L178.31,526.6L182.88,500.75L185.16,506.02L189.74,474.69L192.02,438.63L194.31,415.45L196.59,374.18L198.88,317.47L201.16,123.69L205.74,48.64L208.02,64.27L212.59,120.59L214.88,100.73L221.74,193.04L224.02,187.18L226.31,171.25L228.6,176.08L233.17,218.47L235.45,212.26L237.74,191.75L240.03,204.42L242.31,224.68L244.6,222.51L246.88,205.57L249.17,214.12L251.46,222L253.74,222.45L256.03,212.33L258.31,224.72L262.89,237.73L265.17,228.83L269.74,241.36L272.03,232.48L274.32,241.08L276.6,244.5L278.89,236.06L281.17,244.76L283.46,244.52L285.75,240.55L288.03,244.65L290.32,251.57L294.89,231.24L297.18,259.59L299.46,248.36L301.75,259.13L306.32,238.97L308.61,262.43L310.89,251.91L313.18,265.68L315.46,248.44L317.75,250.25L320.04,278.92L322.32,275.38L324.61,281.19L326.89,266.53L329.18,282.85L331.46,270.99L333.75,275.9L336.04,313.37L338.32,311.7L340.61,323.83L342.89,348.58L345.18,361.71L347.47,341.65L349.75,417.21L356.61,756.2L358.9,727.07L363.47,709.94L365.75,700.21L368.04,668.21L370.33,685.51L372.61,652.25L374.9,644.62L377.18,652.65L379.47,630.31L381.76,647.22L384.04,630.29L386.33,616.39L388.61,629.28L390.9,613.42L393.19,618.56L395.47,613.74L397.76,595.69L400.04,604.11L402.33,598.26L404.62,580.69L406.9,589.4L409.19,583.66L411.47,569.62L413.76,570.22L416.05,552.53L418.33,559.31L420.62,558.41L422.9,551.96L425.19,550.25L427.48,537.67L429.76,535.46L432.05,511.12L434.33,498.1L436.62,514.1L438.91,491.12L441.19,478.45L443.48,500.99L445.76,476.06L448.05,467.59L450.34,483.45L452.62,462.72L454.91,459.93L457.19,468.53L459.48,457.26L461.76,438L464.05,433.71L466.34,445.97L473.19,366.69L475.48,375.86L477.77,316.45L480.05,98.68L482.34,39.8L484.62,43.44L486.91,78.62L489.2,77.88L491.48,74.91L493.77,101.82L496.05,104.75L498.34,120.64L500.63,134.61L502.91,131.56L505.2,143.01L507.48,148.77L509.77,145.39L512.06,159.39L514.34,161.13L516.63,164.83L525.77,172.86L528.06,173.08L530.34,176.38L532.63,175.49L534.92,179.56L537.2,178.66L539.49,182.37L541.77,181.6L544.06,184.67L546.35,184.01L548.63,186.46L550.92,186.87L555.49,190.06L557.78,190.12L560.06,192.92L562.35,192.69L564.63,195.35L566.92,195.62L571.49,198.64L573.78,209.93L576.06,220.69L578.35,209.69L580.64,219.52L582.92,207.6L585.21,205.42L587.49,196.42L589.78,206.82L592.06,195.11L594.35,199.48L596.64,215.45L598.92,214.55L601.21,218.81L603.49,217.98L605.78,222.33L608.07,221.74L610.35,225.96L612.64,225.98L614.92,229.85L617.21,230.73L619.5,234.69L621.78,235.58L624.07,240.51L626.35,240.95L628.64,245.73L633.21,251.01L635.5,258.05L637.78,259.75L640.07,268.75L644.64,277.82L646.93,285.33L649.21,297.52L651.5,325.1L653.79,333.12L656.07,362.86L658.36,393.05L660.64,458.32L662.93,676.25L665.22,719.87L667.5,706.65L669.79,703.33L674.36,633.74L676.65,630.7L681.22,608.54L683.5,606.84L685.79,599.03L688.08,605.31L690.36,576.91L692.65,582.4L694.93,590.55L697.22,554.68L699.51,556.06L701.79,555.29L704.08,561.36L706.36,548.23L708.65,561.88L710.94,554.38L713.22,541.62L715.51,556.14L717.79,548.54L720.08,535.93L722.36,543.03L724.65,527.62L726.94,519.58L729.22,551.44L733.79,531.39L736.08,528.95L738.37,539.76L740.65,542.22L745.22,523.08L747.51,522.71L749.8,534.39L752.08,521.98L754.37,514.19L756.65,513.96L763.51,501.68L765.8,519.48L770.37,489.36L772.66,484.28L774.94,471.49L777.23,451.16L779.51,424L781.8,477.57L784.09,466.9L786.37,439.19L788.66,386.49L790.94,310.85L797.8,88.23L800.09,103.46L802.37,127.34L804.66,128.54L806.95,103.16L809.23,126.07L811.52,158.13L813.8,165.65L816.09,139.1L818.38,160.23L820.66,185.02L822.95,181.48L825.23,165.7L827.52,179.37L829.81,172.28L832.09,174.64L834.38,195.84L836.66,193.85L838.95,167.36L841.24,180.64L843.52,202.86L845.81,198.32L848.09,173.15L850.38,186.02L852.66,209.34L854.95,201.18L857.24,179.99L859.52,193.51L861.81,195.99L864.09,175.61L866.38,196.97L868.67,193.65L870.95,204.74L873.24,223.28L875.52,198.07L877.81,209.14L880.1,224.49L882.38,202.55L884.67,212.89L886.95,213.9L889.24,212.87L891.53,222.02L893.81,221.65L896.1,206.78L900.67,225.71L902.96,223.53L905.24,224.54L907.53,214.12L909.81,218.61L912.1,232.42L914.39,223.45L916.67,221.36L918.96,244.12L921.24,236.72L925.82,229L928.1,243.75L930.39,231.13L932.67,228.76L934.96,255.35L937.25,245.84L939.53,242.76L941.82,237.78L944.1,252.06L946.39,237.49L948.68,233.93L950.96,260.95L953.25,253.37L955.53,260.68L957.82,252.16L960.11,258.96L964.68,233.46L966.96,265.9L969.25,258.16L971.54,257.57L973.82,251.45L976.11,258.4L978.39,264.14L980.68,252.96L982.96,240.8L985.25,269.63L987.54,263.45L989.82,266.43L992.11,258.75L994.39,264.56L996.68,267.75L998.97,263.19L1003.54,268.77L1005.82,267.4L1008.11,267.68L1010.4,273.34L1014.97,268.06L1017.25,281.26L1021.83,259.96L1024.11,288.43L1026.4,278.43L1028.68,283.86L1030.97,281.36L1033.26,283.88L1037.83,304.09L1040.11,292.03L1044.69,323.77L1046.97,327.4L1049.26,324.72L1051.54,355.74L1053.83,365.16L1056.12,385.88L1058.4,408.56L1060.69,459.75L1062.97,609.81L1065.26,620.81L1067.55,722.94L1069.83,725.18L1076.69,682.87L1078.98,670.48L1083.55,651.38L1085.83,651.32L1088.12,642.91L1090.41,641.69L1092.69,629.94L1094.98,628.62L1097.26,617.42L1099.55,620.63L1101.84,616.77L1104.12,615.3L1106.41,617.1L1108.69,611.68L1110.98,615.81L1113.26,611.87L1115.55,607.37L1117.84,606.71L1120.12,604.78L1122.41,606.59L1126.98,604.57L1129.27,601.13L1133.84,615.18L1136.12,607.23L1138.41,611.11L1140.7,603.62L1142.98,606.29L1145.27,604.65L1147.55,607.44L1149.84,604.34L1152.13,606.95L1154.41,602.39L1156.7,606.35L1158.98,606.26L1161.27,607.03L1163.56,603.79L1165.84,605.48L1168.13,601.37L1170.41,602.61L1172.7,599.3L1174.99,599.32L1177.27,597.4L1179.56,594.19L1181.84,594.28L1184.13,587.53L1186.42,588.22L1188.7,579.12L1190.99,580.78L1193.27,572.04L1195.56,574.33L1197.85,565.76L1200.13,567.58L1202.42,559.4L1204.7,561.5L1206.99,555.65L1209.28,557.31L1211.56,542.11L1213.85,539.05L1216.13,540.93L1218.42,528.78L1220.71,541.64L1222.99,537.3L1225.28,535.37L1227.56,527.89L1229.85,527.67L1232.14,530L1234.42,504.6L1236.71,512.19L1238.99,504.05L1241.28,502.99L1243.56,503.03L1245.85,516.27L1248.14,517.99L1250.42,494.71L1257.28,506.31L1259.57,501.04L1261.85,497.29L1264.14,512.58L1266.42,526.26L1268.71,494.31L1271,505.64L1273.28,500.1L1275.57,512.81L1277.85,510.37L1280.14,504.72L1282.43,516.3L1284.71,515.33L1287,510.16L1289.28,516.43L1291.57,518.66L1293.86,516.47L1296.14,529.46L1298.43,522.21L1300.71,521.03L1303,544.13L1305.29,524.57L1307.57,528.34L1309.86,528.12L1312.14,537.74L1314.43,529.07L1316.72,529.6L1319,551.79L1321.29,530.99L1323.57,536.08L1325.86,535.93L1328.15,543.41L1330.43,528.56L1332.72,535.96L1335,560.27L1337.29,545.96L1339.58,540.34L1341.86,523.38L1346.43,558.24L1348.72,546.13L1351.01,531.2L1353.29,538.53L1355.58,562.38L1357.86,546.7L1360.15,539.91L1362.44,521.99L1364.72,538L1367.01,562.04L1369.29,544.58L1371.58,537.1L1373.86,519.14L1376.15,535.84L1378.44,560.4L1380.72,547.6L1383.01,533.47L1385.29,529.15L1387.58,514.38L1389.87,530.15L1392.15,555.04L1394.44,540.71L1396.72,526.65L1399.01,522.54L1401.3,509.38L1403.58,520.45L1405.87,541.85L1408.15,525.22L1410.44,516.62L1412.73,514.38L1415.01,502.48L1417.3,511.98L1419.58,522.38L1421.87,505.23L1424.16,505.43L1426.44,503.09L1428.73,504.42L1431.01,491.77L1433.3,516.99L1435.59,517.46L1437.87,502.84L1440.16,515.15L1442.44,510.22L1444.73,514.84L1447.02,507.63L1449.3,507.99L1451.59,514.5L1453.87,493.71L1458.45,474.63L1460.73,489.3L1463.02,492.18L1465.3,485.72L1467.59,446.05L1469.88,463.12L1472.16,450.37L1474.45,444.87L1476.73,447.19L1479.02,481.67L1483.59,519.62L1485.88,484.33L1488.16,536.1L1490.45,538.7L1492.74,551.39L1495.02,544.53L1501.88,584.23L1504.16,593.27L1508.74,603.72L1511.02,605.5L1513.31,605.52L1515.59,604.27L1522.45,597.2L1524.74,594.7L1533.88,586.57L1536.17,584.98L1588.75,551.4L1591.03,550.22L1623.04,535.17L1625.32,534.14L1652.75,521.26L1655.04,519.73L1673.33,506.75L1675.61,506.26L1680.18,506.99L1682.47,508.28L1687.04,512.72L1689.33,515.77L1698.47,531.67L1700.76,536.12L1721.33,574.95L1723.62,578.33L1730.48,585.85L1732.76,587.49L1739.62,590.71L1741.91,591.45L1753.34,594.1L1755.62,594.26L1762.48,593.3L1764.76,592.46L1776.19,586.14L1778.48,584.86L1785.34,581.58L1787.62,598.82L1789.91,591.11L1792.2,574.33L1794.48,578.54L1796.77,605.67L1799.05,592.06L1801.34,589.68L1803.63,596.23L1805.91,591.46L1808.2,574.32L1810.48,570.96L1812.77,578.39L1815.06,581.02L1817.34,581.3L1819.63,588.76L1821.91,581.64L1824.2,578.37L1826.49,574.63L1828.77,565.68L1833.34,556.12L1835.63,563.93L1837.92,566.07L1840.2,570.51L1842.49,575.59L1844.77,564.99L1847.06,567.92L1849.35,556.68L1851.63,547.11L1853.92,562.76L1858.49,541.08L1860.78,557.87L1865.35,536.01L1867.63,543.7L1869.92,528.29L1872.21,533.79L1874.49,543.61L1876.78,546.27L1879.06,549.52L1881.35,542L1883.64,547.11L1885.92,531.08L1888.21,528.36L1890.49,543.95L1892.78,531.11L1895.06,526L1897.35,541.21L1899.64,532.16L1901.92,524.12L1904.21,530.58L1906.49,514.05L1908.78,524.64L1911.07,542.09L1913.35,536.05L1915.64,547.55L1917.92,550.02L1920.21,542.7L1922.5,539.03L1924.78,532.14L1927.07,539.92L1929.35,524.61L1931.64,535.93L1933.93,552.18L1936.21,537.6L1938.5,542.42L1940.78,565.12L1943.07,556L1945.36,541.08L1947.64,545.32L1949.93,568.41L1952.21,558.44L1954.5,543.08L1956.79,546.96L1959.07,558.11L1961.36,564.03L1963.64,551.73L1965.93,545.13L1968.22,546.83L1970.5,556.81L1972.79,548.41L1977.36,555.89L1979.65,542.67L1981.93,543.38L1984.22,552.07L1986.5,543.2L1988.79,525.93L1991.08,539.06L1993.36,537.67L2002.51,530.42L2004.79,528.03L2011.65,519.1L2013.94,515.57L2020.79,503.63L2023.08,498.17L2025.36,490.28L2027.65,478.69L2039.08,400.12L2041.37,347.19L2045.94,83.06L2048.22,57.51L2057.37,150.96L2059.65,165.4L2064.23,184.97L2066.51,191.93L2071.08,202.43L2073.37,206.36L2080.23,214.51L2082.51,216.38L2089.37,220.48L2091.66,221.48L2100.8,224.17L2103.09,224.58L2114.52,225.24L2116.8,225.12L2128.23,223.34L2130.52,222.76L2144.24,217.85L2146.52,216.84L2180.81,201.18L2183.1,200.56L2192.24,199.33L2194.53,199.4L2196.81,178.13L2199.1,190.02L2201.38,204.65L2203.67,201.82L2205.96,202.62L2208.24,188.25L2210.53,206.12L2212.81,208.22L2215.1,209.26L2217.39,213.94L2219.67,196.1L2221.96,212.98L2224.24,214.5L2226.53,217.8L2228.82,203.7L2231.1,212.22L2233.39,212.2L2235.67,200.93L2237.96,216.16L2240.25,213.39L2244.82,235.38L2247.1,218.73L2249.39,231.72L2251.68,229.92L2253.96,226.19L2256.25,240.35L2258.53,240.91L2260.82,229.56L2263.11,226.77L2265.39,249.71L2269.96,251.22L2272.25,238.04L2274.54,231.88L2276.82,251.51L2279.11,244.85L2281.39,253.75L2283.68,242.16L2285.96,245.26L2288.25,269.71L2290.54,273.27L2292.82,278.63L2295.11,274.77L2297.39,273.48L2299.68,267.67L2301.97,283.17L2304.25,267.04L2306.54,269.67L2308.82,303L2311.11,301.14L2313.4,305.61L2315.68,307.34L2317.97,320.67L2320.25,335.92L2322.54,341.37L2324.83,397.88L2327.11,414.35L2329.4,456.66L2331.68,555.57L2333.97,702.45L2336.26,712.67L2338.54,709.32L2340.83,724.95L2343.11,660.58L2345.4,670.07L2347.69,664L2349.97,622.9L2352.26,635.77L2354.54,630.3L2359.12,574.38L2361.4,610.09L2368.26,565.77L2370.55,607.92L2372.83,580.25L2375.12,567.87L2377.4,555.07L2379.69,596.12L2381.98,569.96L2384.26,557.55L2386.55,546.84L2388.83,566.94L2391.12,569.18L2393.41,558.2L2395.69,534.62L2397.98,539.38L2400.26,577.17L2402.55,553.65L2404.84,542.33L2407.12,536.7L2409.41,572.63L2411.69,550L2413.98,538.65L2416.26,538.22L2418.55,572.99L2420.84,550.97L2423.12,551.47L2425.41,569.51L2427.69,571.97L2429.98,555.7L2432.27,562.78L2434.55,561.31L2436.84,556.93L2439.12,569.73L2441.41,568.94L2443.7,591.43L2445.98,611.57L2448.27,583.42L2450.55,604.7L2452.84,594.69L2455.13,612.79L2457.41,612.96L2459.7,593.81L2461.98,597.63L2464.27,594.76L2466.56,597.87L2468.84,594.44L2471.13,602.18L2473.41,610.6L2475.7,592.39L2477.99,597.81L2480.27,591.14L2482.56,596.66L2484.84,592.83L2487.13,595.71L2489.42,592.12L2491.7,583.52L2493.99,584.3L2496.27,572.21L2498.56,577.3L2500.85,583.02L2503.13,577.29L2505.42,585.1L2507.7,581.55L2509.99,570.06L2512.28,575.7L2514.56,571.71L2516.85,563.38L2521.42,569.03L2523.71,567.77L2525.99,565.97L2528.28,554.28L2530.56,550.84L2532.85,554L2535.14,555.85L2537.42,548.03L2541.99,547.93L2544.28,545.79L2548.85,545.73L2551.14,544.68L2553.42,542.22L2555.71,538.12L2557.99,538.42L2560.28,536.25L2562.57,532.12L2564.85,530.52L2569.42,517.16L2571.71,522.41L2576.28,519.36L2578.57,522.16L2580.85,515.83L2583.14,514.12L2585.43,510.66L2587.71,521.07L2592.28,512.69L2594.57,510.78L2599.14,509.58L2601.43,511.13L2606,504.51" style="vector-effect: non-scaling-stroke; fill: none; stroke: rgb(0, 170, 0); stroke-opacity: 1; stroke-width: 4px; opacity: 1;"/></g><g class="points"/><g class="text"/></g></g></g><g class="overplot"/><path class="xlines-above crisp" d="M0,0" style="fill: none;"/><path class="ylines-above crisp" d="M0,0" style="fill: none;"/><g class="overlines-above"/><g class="xaxislayer-above"><g class="xtick"><text text-anchor="middle" x="0" y="934" transform="translate(136,0)" style="font-family: 'Open Sans', verdana, arial, sans-serif; font-size: 37px; fill: rgb(42, 63, 95); fill-opacity: 1; white-space: pre; opacity: 1;">0</text></g><g class="xtick"><text text-anchor="middle" x="0" y="934" style="font-family: 'Open Sans', verdana, arial, sans-serif; font-size: 37px; fill: rgb(42, 63, 95); fill-opacity: 1; white-space: pre; opacity: 1;" transform="translate(593.19,0)">200</text></g><g class="xtick"><text text-anchor="middle" x="0" y="934" style="font-family: 'Open Sans', verdana, arial, sans-serif; font-size: 37px; fill: rgb(42, 63, 95); fill-opacity: 1; white-space: pre; opacity: 1;" transform="translate(1050.3899999999999,0)">400</text></g><g class="xtick"><text text-anchor="middle" x="0" y="934" style="font-family: 'Open Sans', verdana, arial, sans-serif; font-size: 37px; fill: rgb(42, 63, 95); fill-opacity: 1; white-space: pre; opacity: 1;" transform="translate(1507.58,0)">600</text></g><g class="xtick"><text text-anchor="middle" x="0" y="934" style="font-family: 'Open Sans', verdana, arial, sans-serif; font-size: 37px; fill: rgb(42, 63, 95); fill-opacity: 1; white-space: pre; opacity: 1;" transform="translate(1964.77,0)">800</text></g><g class="xtick"><text text-anchor="middle" x="0" y="934" style="font-family: 'Open Sans', verdana, arial, sans-serif; font-size: 37px; fill: rgb(42, 63, 95); fill-opacity: 1; white-space: pre; opacity: 1;" transform="translate(2421.96,0)">1000</text></g></g><g class="yaxislayer-above"><g class="ytick"><text text-anchor="end" x="135" y="12.95" transform="translate(0,872.42)" style="font-family: 'Open Sans', verdana, arial, sans-serif; font-size: 37px; fill: rgb(42, 63, 95); fill-opacity: 1; white-space: pre; opacity: 1;">−15</text></g><g class="ytick"><text text-anchor="end" x="135" y="12.95" style="font-family: 'Open Sans', verdana, arial, sans-serif; font-size: 37px; fill: rgb(42, 63, 95); fill-opacity: 1; white-space: pre; opacity: 1;" transform="translate(0,732.89)">−10</text></g><g class="ytick"><text text-anchor="end" x="135" y="12.95" style="font-family: 'Open Sans', verdana, arial, sans-serif; font-size: 37px; fill: rgb(42, 63, 95); fill-opacity: 1; white-space: pre; opacity: 1;" transform="translate(0,593.36)">−5</text></g><g class="ytick"><text text-anchor="end" x="135" y="12.95" style="font-family: 'Open Sans', verdana, arial, sans-serif; font-size: 37px; fill: rgb(42, 63, 95); fill-opacity: 1; white-space: pre; opacity: 1;" transform="translate(0,453.83)">0</text></g><g class="ytick"><text text-anchor="end" x="135" y="12.95" style="font-family: 'Open Sans', verdana, arial, sans-serif; font-size: 37px; fill: rgb(42, 63, 95); fill-opacity: 1; white-space: pre; opacity: 1;" transform="translate(0,314.3)">5</text></g><g class="ytick"><text text-anchor="end" x="135" y="12.95" style="font-family: 'Open Sans', verdana, arial, sans-serif; font-size: 37px; fill: rgb(42, 63, 95); fill-opacity: 1; white-space: pre; opacity: 1;" transform="translate(0,174.76999999999998)">10</text></g></g><g class="overaxes-above"/></g></g><g class="polarlayer"/><g class="ternarylayer"/><g class="geolayer"/><g class="funnelarealayer"/><g class="pielayer"/><g class="iciclelayer"/><g class="treemaplayer"/><g class="sunburstlayer"/><g class="glimages"/><defs id="topdefs-d9cc24"><g class="clips"/><clipPath id="legendd9cc24"><rect width="694" height="113" x="0" y="0"/></clipPath></defs><g class="layer-above"><g class="imagelayer"/><g class="shapelayer"/></g><g class="infolayer"><g class="legend" pointer-events="all" transform="translate(2794.12,100)"><rect class="bg" shape-rendering="crispEdges" width="694" height="113" x="0" y="0" style="stroke: rgb(68, 68, 68); stroke-opacity: 1; fill: rgb(255, 255, 255); fill-opacity: 1; stroke-width: 0px;"/><g class="scrollbox" transform="" clip-path="url(#legendd9cc24)"><g class="groups"><g class="traces" transform="translate(0,30.55)" style="opacity: 1;"><text class="legendtext" text-anchor="start" x="40" y="14.43" style="font-family: 'Open Sans', verdana, arial, sans-serif; font-size: 37px; fill: rgb(42, 63, 95); fill-opacity: 1; white-space: pre;">Predicted Curvature at Anchors #1</text><g class="layers" style="opacity: 1;"><g class="legendfill"/><g class="legendlines"><path class="js-line" d="M5,0h30" style="fill: none; stroke: rgb(170, 0, 0); stroke-opacity: 1; stroke-width: 4px;"/></g><g class="legendsymbols"><g class="legendpoints"/></g></g><rect class="legendtoggle" x="0" y="-25.55" width="688.125" height="51.1" style="fill: rgb(0, 0, 0); fill-opacity: 0;"/></g><g class="traces" transform="translate(0,81.65)" style="opacity: 1;"><text class="legendtext" text-anchor="start" x="40" y="14.43" style="font-family: 'Open Sans', verdana, arial, sans-serif; font-size: 37px; fill: rgb(42, 63, 95); fill-opacity: 1; white-space: pre;">Predicted Curvature at Anchors #2</text><g class="layers" style="opacity: 1;"><g class="legendfill"/><g class="legendlines"><path class="js-line" d="M5,0h30" style="fill: none; stroke: rgb(0, 170, 0); stroke-opacity: 1; stroke-width: 4px;"/></g><g class="legendsymbols"><g class="legendpoints"/></g></g><rect class="legendtoggle" x="0" y="-25.55" width="688.125" height="51.1" style="fill: rgb(0, 0, 0); fill-opacity: 0;"/></g></g></g><rect class="scrollbar" rx="20" ry="3" width="0" height="0" x="0" y="0" style="fill: rgb(128, 139, 164); fill-opacity: 1;"/></g><g class="g-gtitle"/><g class="g-xtitle"><text class="xtitle" x="1439" y="987.8" text-anchor="middle" style="font-family: 'Open Sans', verdana, arial, sans-serif; font-size: 44px; fill: rgb(42, 63, 95); opacity: 1; font-weight: normal; white-space: pre;">Anchor Point Index</text></g><g class="g-ytitle" transform="translate(32.1279296875,0)"><text class="ytitle" transform="rotate(-90,11.871875000000003,498)" x="11.871875000000003" y="498" text-anchor="middle" style="font-family: 'Open Sans', verdana, arial, sans-serif; font-size: 44px; fill: rgb(42, 63, 95); opacity: 1; font-weight: normal; white-space: pre;">Predicted Curvature</text></g><g class="annotation" data-index="0" style="opacity: 1;"><g class="annotation-text-g" transform="rotate(0,1439,66.49999999999993)"><g class="cursor-pointer" transform="translate(222,33)"><rect class="bg" x="0.5" y="0.5" width="2433" height="66" style="stroke-width: 1px; stroke: rgb(0, 0, 0); stroke-opacity: 0; fill: rgb(0, 0, 0); fill-opacity: 0;"/><text class="annotation-text" text-anchor="middle" x="1217.03125" y="54" style="font-family: 'Open Sans', verdana, arial, sans-serif; font-size: 52px; fill: rgb(42, 63, 95); fill-opacity: 1; white-space: pre;"><tspan style="font-weight:bold">Predicted Curvature at Anchors (Transformed Curve #1 vs. Transformed Curve #2)</tspan></text></g></g></g></g></svg>