<svg class="main-svg" xmlns="http://www.w3.org/2000/svg" xmlns:xlink="http://www.w3.org/1999/xlink" width="3500" height="1000" style="" viewBox="0 0 3500 1000"><rect x="0" y="0" width="3500" height="1000" style="fill: rgb(255, 255, 255); fill-opacity: 1;"/><defs id="defs-78471c"><g class="clips"><clipPath id="clip78471cxyplot" class="plotclip"><rect width="2606" height="796"/></clipPath><clipPath class="axesclip" id="clip78471cx"><rect x="136" y="0" width="2606" height="1000"/></clipPath><clipPath class="axesclip" id="clip78471cy"><rect x="0" y="100" width="3500" height="796"/></clipPath><clipPath class="axesclip" id="clip78471cxy"><rect x="136" y="100" width="2606" height="796"/></clipPath></g><g class="gradients"/><g class="patterns"/></defs><g class="bglayer"><rect class="bg" x="136" y="100" width="2606" height="796" style="fill: rgb(229, 236, 246); fill-opacity: 1; stroke-width: 0;"/></g><g class="layer-below"><g class="imagelayer"/><g class="shapelayer"/></g><g class="cartesianlayer"><g class="subplot xy"><g class="layer-subplot"><g class="shapelayer"/><g class="imagelayer"/></g><g class="gridlayer"><g class="x"><path class="xgrid crisp" transform="translate(581.47,0)" d="M0,100v796" style="stroke: rgb(255, 255, 255); stroke-opacity: 1; stroke-width: 1px;"/><path class="xgrid crisp" transform="translate(1026.94,0)" d="M0,100v796" style="stroke: rgb(255, 255, 255); stroke-opacity: 1; stroke-width: 1px;"/><path class="xgrid crisp" transform="translate(1472.41,0)" d="M0,100v796" style="stroke: rgb(255, 255, 255); stroke-opacity: 1; stroke-width: 1px;"/><path class="xgrid crisp" transform="translate(1917.88,0)" d="M0,100v796" style="stroke: rgb(255, 255, 255); stroke-opacity: 1; stroke-width: 1px;"/><path class="xgrid crisp" transform="translate(2363.35,0)" d="M0,100v796" style="stroke: rgb(255, 255, 255); stroke-opacity: 1; stroke-width: 1px;"/></g><g class="y"><path class="ygrid crisp" transform="translate(0,857.07)" d="M136,0h2606" style="stroke: rgb(255, 255, 255); stroke-opacity: 1; stroke-width: 1px;"/><path class="ygrid crisp" transform="translate(0,694.78)" d="M136,0h2606" style="stroke: rgb(255, 255, 255); stroke-opacity: 1; stroke-width: 1px;"/><path class="ygrid crisp" transform="translate(0,370.2)" d="M136,0h2606" style="stroke: rgb(255, 255, 255); stroke-opacity: 1; stroke-width: 1px;"/><path class="ygrid crisp" transform="translate(0,207.91)" d="M136,0h2606" style="stroke: rgb(255, 255, 255); stroke-opacity: 1; stroke-width: 1px;"/></g></g><g class="zerolinelayer"><path class="xzl zl crisp" transform="translate(136,0)" d="M0,100v796" style="stroke: rgb(255, 255, 255); stroke-opacity: 1; stroke-width: 2px;"/><path class="yzl zl crisp" transform="translate(0,532.49)" d="M136,0h2606" style="stroke: rgb(255, 255, 255); stroke-opacity: 1; stroke-width: 2px;"/></g><path class="xlines-below"/><path class="ylines-below"/><g class="overlines-below"/><g class="xaxislayer-below"/><g class="yaxislayer-below"/><g class="overaxes-below"/><g class="plot" transform="translate(136,100)" clip-path="url(#clip78471cxyplot)"><g class="scatterlayer mlayer"><g class="trace scatter trace6908dc" style="stroke-miterlimit: 2; opacity: 1;"><g class="fills"/><g class="errorbars"/><g class="lines"><path class="js-line" d="M0,98.16L4.45,93.82L6.68,105.34L8.91,86.85L11.14,87.98L13.36,92.69L15.59,105.65L17.82,103.89L20.05,96.36L22.27,91.55L24.5,97.12L26.73,93.74L28.96,92.76L31.18,93.52L33.41,95.83L35.64,88.3L37.86,90.04L40.09,93.67L42.32,93.61L44.55,93.21L46.77,90.52L49,90.72L51.23,89.3L53.46,88.32L55.68,85.42L57.91,87.95L60.14,83.91L62.37,86.21L64.59,84.21L66.82,85.07L69.05,82.14L71.28,85.57L73.5,83.39L75.73,82.21L77.96,82.56L80.18,84.01L82.41,80.15L84.64,79.39L86.87,81.61L89.09,81.81L91.32,78.73L93.55,78.18L95.78,81.29L100.23,83.88L102.46,81.05L106.91,90.36L109.14,100.1L111.37,92.35L113.59,101.03L115.82,107.04L118.05,125.25L120.28,117.13L122.5,118.34L124.73,125.32L126.96,144.11L131.41,130.68L133.64,129.38L135.87,157.43L138.1,132.31L140.32,111.65L142.55,113.19L144.78,118.32L147.01,115.07L149.23,107.5L151.46,58.43L155.91,52.14L158.14,70.62L160.37,66.19L162.6,45.28L167.05,47.2L169.28,39.8L171.51,88.46L173.73,91.65L175.96,88.82L178.19,92.82L180.42,89.86L182.64,111.85L184.87,99L187.1,100.96L189.32,117.18L191.55,101.3L193.78,113.83L196.01,119.77L198.23,148.07L200.46,141.28L202.69,132.46L204.92,150.57L207.14,153.89L209.37,169.01L211.6,187.56L213.83,174.37L216.05,177.47L218.28,194.38L220.51,215.28L222.74,245.98L224.96,224.36L227.19,278.36L229.42,327.21L231.64,408.56L233.87,466.91L236.1,494.89L238.33,559.62L240.55,574.75L249.46,639.12L251.69,646.07L253.92,648.91L256.15,661.37L258.37,655.86L260.6,668.68L262.83,670.86L265.05,671.02L267.28,655.92L269.51,670.66L271.74,674.02L273.96,670.13L276.19,650.29L278.42,665.45L280.65,674.2L282.87,674.93L285.1,657.2L287.33,662.66L289.56,668.28L291.78,677.26L294.01,650.43L296.24,663.12L298.46,671.4L300.69,655.63L305.15,687.86L307.37,679.26L309.6,701.87L311.83,710.39L314.06,724.68L316.28,722.62L318.51,750.1L320.74,755.59L322.97,750.59L325.19,733.5L327.42,737.69L329.65,718.34L334.1,706.94L336.33,696.85L338.56,681.85L340.78,676.48L345.24,665.59L347.47,635.79L349.69,656.05L351.92,663.53L354.15,665.15L356.38,655.46L358.6,663.71L360.83,676.19L363.06,671.48L365.29,672L367.51,668.63L369.74,681.12L371.97,685.16L374.19,672.21L376.42,678.98L378.65,681.86L380.88,677.2L383.1,683.5L385.33,685.25L387.56,681.98L392.01,687.55L394.24,685.17L396.47,683.81L398.7,686.17L400.92,686.13L403.15,681.58L405.38,684.08L407.61,684.46L409.83,679.23L412.06,681.15L414.29,680.33L416.51,676.4L418.74,678.67L420.97,674.03L423.2,658.96L425.42,674.4L427.65,676.85L429.88,662.42L432.11,644.64L434.33,636.73L436.56,634.97L438.79,615.43L441.02,615.84L443.24,597.74L447.7,575.45L449.92,519.12L452.15,488.39L454.38,431.81L461.06,234.8L463.29,201.1L465.52,192.8L467.74,180.59L469.97,167.36L472.2,160.97L476.65,114.62L478.88,108.57L481.11,96.05L483.34,93.03L485.56,84.32L487.79,105.9L490.02,94.62L492.24,77.86L494.47,72.79L496.7,82.12L498.93,89.99L501.15,80.6L503.38,89.9L505.61,85.49L510.06,69.46L512.29,79.64L514.52,86.22L516.75,83.48L521.2,82.73L523.43,79.67L525.65,71.55L527.88,81.19L530.11,85.42L532.34,84.45L534.56,81.18L536.79,82.76L539.02,80.7L541.25,73.58L543.47,88.91L545.7,83.11L547.93,79.12L550.16,81.93L552.38,82.82L554.61,76.22L556.84,85.54L559.06,82.73L561.29,75.91L563.52,83.79L565.75,86.69L567.97,82.19L570.2,85.08L572.43,82.88L574.66,80.59L576.88,70.33L579.11,96.03L581.34,76.08L583.57,75.7L585.79,77.42L588.02,82.71L590.25,81.06L592.48,80.52L594.7,75.54L596.93,81.38L599.16,76.55L601.38,67.82L603.61,83.31L605.84,78.51L608.07,69.32L610.29,82.8L612.52,88.46L614.75,71.4L616.98,84.95L619.2,93.53L621.43,95.09L628.11,88.92L630.34,97.37L632.57,82.17L634.79,95.41L637.02,100.79L639.25,103.51L641.48,104.75L643.7,102.22L645.93,107.89L648.16,108.15L650.39,97.93L652.61,110.57L654.84,109.95L657.07,105.84L665.98,122.26L668.21,107.71L670.43,114.15L672.66,110.69L674.89,113.71L677.11,107.68L679.34,91.72L681.57,91L683.8,88.16L686.02,117.84L688.25,86.65L690.48,84.32L692.71,92L694.93,69.89L697.16,65.42L699.39,63.25L701.62,59.87L703.84,62.85L706.07,61.63L708.3,68.84L710.52,71.96L712.75,61.96L714.98,76.92L717.21,78.27L721.66,79.65L723.89,93.81L726.12,88.04L728.34,87.4L730.57,100.22L732.8,98.16L735.03,110.55L737.25,98.03L739.48,95.07L741.71,102.52L746.16,106.41L748.39,103.56L750.62,111.14L752.84,98.51L755.07,104.4L757.3,101.24L761.75,102.21L763.98,105.01L766.21,109.7L768.44,101.79L770.66,96.49L772.89,105.4L775.12,97.63L777.35,94L779.57,95.52L781.8,91.92L784.03,95.59L786.25,96.09L788.48,91.9L790.71,95.8L792.94,91.48L795.16,91.92L797.39,86.54L799.62,89.11L804.07,84.98L806.3,86.96L808.53,84.08L810.76,82.99L812.98,85.35L815.21,82.08L817.44,88.45L819.66,82.23L821.89,74.97L824.12,81.16L826.35,84.01L828.57,83.29L830.8,81.22L833.03,67.95L835.26,83.46L837.48,71.33L839.71,80.07L841.94,73.79L844.17,80.72L846.39,73.53L848.62,80.75L850.85,73.37L853.08,80.78L855.3,73.31L857.53,80.8L859.76,73.35L861.98,80.83L864.21,73.48L868.67,87.36L870.89,80.48L873.12,81.19L875.35,85.3L879.8,78.67L882.03,78.77L884.26,81.96L886.49,81.25L888.71,78.96L890.94,86.38L893.17,81.76L895.39,83.95L897.62,82.28L899.85,94.34L902.08,81.26L904.3,81.5L906.53,82.41L908.76,84.67L910.99,96.14L913.21,97.22L915.44,91.03L917.67,89.47L922.12,81.2L924.35,81.79L926.58,93.31L928.81,96.54L933.26,81.81L935.49,79.96L937.71,88.93L939.94,102.33L942.17,108.13L944.4,82.65L946.62,80.83L948.85,87.31L951.08,90.9L953.31,91.79L955.53,82.93L957.76,81.29L959.99,72.07L962.22,77.58L971.12,54.53L973.35,52.57L975.58,57.9L977.81,44.18L980.03,47.03L982.26,70.09L984.49,70.6L986.72,74.36L988.94,92.4L991.17,84.26L995.63,92.65L997.85,91.77L1000.08,90.39L1002.31,123.9L1004.54,99.58L1006.76,95.99L1008.99,92.06L1011.22,110.29L1015.67,97.61L1017.9,118.41L1020.13,94.64L1022.35,96.92L1024.58,101.1L1026.81,112.07L1029.04,94.81L1031.26,99.04L1033.49,97.76L1035.72,99.62L1037.95,102.97L1040.17,102.97L1042.4,98.58L1044.63,100.53L1046.85,106.26L1049.08,100.79L1051.31,96.2L1053.54,100.86L1055.76,101.38L1057.99,96.63L1060.22,89.44L1062.45,98.08L1064.67,98.27L1066.9,92.82L1069.13,101.11L1071.36,104.21L1073.58,103.71L1075.81,106.91L1078.04,113.37L1080.26,112.24L1082.49,119.47L1084.72,138.38L1086.95,123.61L1089.17,146.69L1093.63,175.41L1095.86,184.82L1098.08,206.02L1100.31,237.21L1102.54,259.58L1104.77,327.97L1109.22,453L1111.45,495.81L1113.68,516.94L1115.9,553.23L1122.58,599.83L1124.81,610.5L1127.04,594.84L1129.27,614.54L1131.49,630.15L1133.72,629.25L1135.95,602.27L1138.18,623.81L1140.4,643.99L1142.63,654.62L1147.09,614.83L1149.31,634.71L1151.54,664.89L1153.77,674.48L1155.99,611.38L1158.22,634.36L1164.9,701.77L1167.13,717.22L1171.59,728.34L1173.81,739.31L1176.04,743.78L1178.27,754.72L1180.5,754.03L1182.72,749.28L1184.95,740.55L1187.18,715.04L1189.41,709.72L1191.63,707.18L1193.86,711.06L1196.09,701.95L1198.31,697.28L1200.54,680.49L1202.77,655.93L1205,675.91L1207.22,673.72L1209.45,695.66L1211.68,680.03L1213.91,674.16L1216.13,669.44L1218.36,674.42L1220.59,688.81L1222.82,671.21L1225.04,659.73L1227.27,658.13L1229.5,660.22L1231.72,648.68L1236.18,671.92L1238.41,668.27L1242.86,656.32L1245.09,681.33L1247.32,683.8L1249.54,673.14L1251.77,663.54L1254,659.43L1256.23,648.9L1258.45,663.1L1260.68,687L1262.91,678.43L1265.14,662.25L1267.36,686.98L1269.59,697.78L1271.82,691.39L1274.04,689.72L1276.27,685.79L1278.5,695.47L1280.73,682.77L1282.95,692.09L1285.18,682.23L1287.41,707.36L1289.64,698.86L1291.86,693.32L1294.09,707.48L1296.32,697.88L1298.55,700.37L1300.77,692L1303,713.23L1305.23,701.18L1307.45,702.56L1309.68,702.35L1311.91,691.22L1314.14,700.6L1316.36,694.74L1318.59,712.23L1320.82,699.9L1323.05,708.09L1325.27,696.48L1327.5,688.19L1329.73,700.86L1331.96,706.76L1334.18,705.63L1336.41,693.42L1338.64,695.97L1340.86,703.13L1343.09,684.08L1345.32,692.87L1347.55,693.97L1349.77,697.6L1352,697.86L1354.23,692.35L1356.46,692.65L1358.68,690.93L1360.91,698.18L1363.14,687.54L1365.37,691.02L1367.59,688.8L1369.82,694.15L1372.05,689.72L1374.28,691.18L1376.5,699.9L1378.73,687.98L1380.96,693.88L1383.18,673.15L1385.41,675.7L1387.64,692.97L1389.87,692.8L1392.09,695.4L1394.32,681.05L1396.55,713.4L1398.78,676.1L1401,683.26L1403.23,676.25L1405.46,685.25L1407.69,682.56L1409.91,684.92L1412.14,676.15L1414.37,678.95L1416.59,683.98L1418.82,674.07L1421.05,683.43L1423.28,668.02L1425.5,661.78L1427.73,682.53L1429.96,688.53L1432.19,674.91L1434.41,674.75L1436.64,676.79L1438.87,680.05L1441.1,702.84L1443.32,695.87L1445.55,708.85L1447.78,704.9L1450.01,706.95L1452.23,720.26L1454.46,704.32L1456.69,703.97L1458.91,704.83L1463.37,730.93L1465.6,716.57L1467.82,735.96L1470.05,725.14L1472.28,735.42L1474.51,736.84L1476.73,734.14L1478.96,756.2L1481.19,706.75L1483.42,719.39L1485.64,711.28L1487.87,709.56L1490.1,709.58L1492.32,704.46L1494.55,700.03L1496.78,708.53L1499.01,693.28L1501.23,696.15L1503.46,695L1505.69,690.81L1510.14,681.93L1512.37,701.11L1514.6,667.75L1516.83,683.23L1519.05,686.39L1521.28,685.41L1523.51,657.76L1525.74,577.88L1527.96,670.72L1530.19,675.91L1532.42,691.77L1534.64,694.99L1541.33,706.7L1543.55,700.69L1550.24,667.06L1552.46,662.43L1554.69,661.09L1556.92,656.32L1559.15,644.48L1561.37,620.4L1563.6,633.28L1565.83,622.78L1572.51,557.98L1574.74,550.8L1581.42,357.68L1583.65,312.22L1588.1,241.54L1590.33,223.16L1592.56,213.37L1594.78,192.78L1597.01,165.95L1599.24,122.56L1601.46,168.58L1603.69,157.58L1608.15,116.45L1610.37,175.31L1612.6,126.86L1614.83,140.75L1619.28,128.44L1621.51,137.45L1623.74,114.06L1625.97,129.92L1628.19,101.16L1630.42,114.89L1632.65,84.23L1634.88,83.73L1637.1,56.98L1639.33,57.57L1643.78,44.44L1646.01,58.17L1648.24,57.43L1650.47,54.47L1652.69,83.48L1654.92,76.59L1657.15,86.03L1659.38,83.28L1661.6,87.25L1663.83,97.15L1666.06,92.42L1668.29,107.75L1670.51,105.06L1672.74,121.83L1674.97,117.77L1677.19,131.11L1679.42,126.29L1681.65,112.72L1683.88,140.09L1686.1,127.31L1690.56,143.62L1692.79,131.31L1695.01,136.19L1697.24,153.92L1699.47,142.58L1701.7,145.16L1703.92,159.73L1706.15,145.99L1710.61,164.19L1712.83,161.22L1715.06,164.93L1717.29,177.48L1719.51,183.88L1721.74,193.85L1723.97,205.59L1726.2,227.86L1728.42,223.77L1730.65,244.37L1737.33,470.57L1739.56,531.57L1741.79,539.88L1744.02,574.95L1746.24,621.65L1748.47,618.04L1750.7,645.46L1752.92,653.35L1755.15,685.11L1757.38,670.85L1761.83,695.37L1764.06,684.18L1766.29,689.22L1768.52,690.16L1770.74,689.85L1772.97,704.3L1775.2,700.9L1777.43,695.03L1779.65,699.81L1781.88,701.03L1784.11,705.83L1786.34,705.06L1790.79,705.62L1793.02,713.28L1795.24,701.24L1797.47,700.46L1799.7,714.3L1801.93,704.7L1804.15,705.98L1806.38,701.5L1808.61,701.41L1810.84,712.15L1813.06,701.75L1815.29,708.22L1821.97,686.04L1824.2,677.42L1826.43,686.29L1828.65,673.38L1830.88,647.6L1833.11,643.27L1835.34,637.86L1837.56,651.14L1839.79,647.64L1842.02,612.47L1844.25,669.57L1846.47,640.09L1848.7,607.39L1850.93,613.39L1853.16,598.58L1855.38,555.44L1857.61,545.9L1859.84,496.86L1862.06,350.71L1864.29,309.75L1868.75,238.75L1870.97,202.8L1873.2,178.2L1875.43,168.59L1877.66,126.84L1879.88,138.17L1886.57,95.45L1888.79,93.73L1891.02,91.7L1893.25,88.06L1895.48,79.23L1897.7,86.09L1899.93,84.22L1902.16,67.12L1906.61,89.06L1908.84,79.46L1911.07,81.65L1913.29,85.29L1917.75,79L1919.98,79.32L1922.2,83.2L1924.43,78.73L1926.66,77.87L1928.89,83.58L1931.11,78.74L1933.34,77.02L1935.57,83.47L1937.79,78.77L1940.02,76.5L1942.25,83.24L1946.7,76.11L1948.93,80.89L1951.16,82.43L1953.39,78.12L1955.61,78.46L1957.84,82.83L1962.3,74.19L1964.52,83.39L1968.98,74.89L1971.21,83.43L1975.66,75.82L1977.89,82.54L1980.11,89.05L1982.34,81.53L1984.57,89.78L1986.8,86.75L1989.02,83.39L1991.25,93.56L1993.48,90.82L1995.71,92.41L1997.93,92.5L2000.16,89.52L2002.39,105.11L2004.62,96.17L2006.84,80.21L2009.07,99.13L2011.3,100.67L2013.52,99.64L2015.75,85.79L2017.98,107.91L2020.21,101.26L2022.43,78.3L2024.66,103.21L2026.89,94L2029.12,75.08L2031.34,80.72L2033.57,79.53L2035.8,66.19L2038.03,63.88L2040.25,57.25L2042.48,65.4L2044.71,68.24L2046.94,63.7L2049.16,67.05L2051.39,75.43L2053.62,73.39L2055.84,74.66L2058.07,89.94L2060.3,85.05L2062.53,104.31L2064.75,92.47L2066.98,97.05L2071.44,94.62L2073.66,97.73L2075.89,97.3L2078.12,104.87L2080.35,105.03L2082.57,109.81L2087.03,99.2L2089.25,110.93L2091.48,99.97L2093.71,97.8L2095.94,105.27L2098.16,99.13L2100.39,109.56L2102.62,104.2L2104.85,105.11L2107.07,117.03L2109.3,100.63L2111.53,114.65L2113.76,121.92L2115.98,105.69L2118.21,104.41L2120.44,109.38L2122.66,103.93L2124.89,113.63L2129.35,114.07L2131.57,121.93L2133.8,123.36L2136.03,137.63L2138.26,161.41L2140.48,155.23L2144.94,185.53L2147.17,197.31L2151.62,274.51L2153.85,333.45L2156.08,389.26L2158.3,476.7L2162.76,556.4L2164.98,569.76L2169.44,618.29L2171.67,633.44L2178.35,668.02L2180.58,677.72L2182.8,677.63L2185.03,679.16L2189.49,688.05L2191.71,684.97L2193.94,680.28L2196.17,688.13L2198.39,690.19L2200.62,695.33L2202.85,694.17L2205.08,691.04L2207.3,693.94L2209.53,690.26L2211.76,693.46L2213.99,693.89L2216.21,694.68L2218.44,687.25L2220.67,697.78L2222.9,696.15L2225.12,690.28L2227.35,689.55L2229.58,690.68L2231.81,694.06L2234.03,700.11L2236.26,686.38L2238.49,694.16L2240.71,695.56L2242.94,699.63L2245.17,690.14L2251.85,702.08L2254.08,691.57L2260.76,700.22L2262.99,692.89L2267.44,696.94L2269.67,699.02L2271.9,694.36L2274.12,698.15L2276.35,698.08L2278.58,699.44L2280.81,696.17L2283.03,701.15L2287.49,699.73L2289.72,700.9L2291.94,701.83L2294.17,706.04L2298.63,697.89L2300.85,701.12L2305.31,706.03L2307.54,706.15L2311.99,703.35L2314.22,707.6L2316.44,707.44L2318.67,709.94L2320.9,684.09L2323.13,705.78L2325.35,708.52L2327.58,697.81L2334.26,707.55L2336.49,702.9L2338.72,700.27L2340.95,706.25L2345.4,697.12L2347.63,699.22L2352.08,690.66L2354.31,697.6L2358.76,680.91L2360.99,690.33L2363.22,693.64L2365.45,692.11L2367.67,687.69L2369.9,691.32L2372.13,694.11L2374.36,683.95L2376.58,687.27L2378.81,693.22L2381.04,687.77L2383.26,669.53L2385.49,699.46L2387.72,642.75L2389.95,692.35L2392.17,685.57L2394.4,678.47L2396.63,687.47L2398.86,655.12L2401.08,693.48L2403.31,690.29L2405.54,691.65L2407.77,691.75L2409.99,669.08L2412.22,695.98L2414.45,692.23L2416.68,699.84L2418.9,699.18L2421.13,696.11L2423.36,696.35L2425.58,683.99L2427.81,698.43L2430.04,671.17L2432.27,693.83L2434.49,690.52L2436.72,697.15L2441.18,696.19L2443.4,689.41L2445.63,682.65L2447.86,693.87L2450.09,677.18L2452.31,683.99L2454.54,674.72L2456.77,670.24L2458.99,684.75L2461.22,669.92L2463.45,642.93L2465.68,643.73L2467.9,628.85L2470.13,625.83L2472.36,578.41L2474.59,584.84L2476.81,567.54L2479.04,473.46L2485.72,253.84L2487.95,236.77L2490.18,188.78L2492.41,165.84L2494.63,132.06L2496.86,156.93L2499.09,159.77L2501.31,114.96L2503.54,125.81L2505.77,125.51L2508,99.34L2510.22,101.02L2512.45,94.93L2514.68,93.74L2521.36,77.15L2523.59,88.4L2525.82,79.29L2528.04,76.49L2530.27,77.79L2532.5,74.79L2534.72,74.96L2536.95,74.11L2539.18,77.52L2541.41,75.6L2545.86,73.02L2548.09,75.29L2550.32,72.79L2552.54,75.49L2554.77,82.51L2557,80.43L2559.23,76.96L2561.45,78.52L2563.68,78.73L2565.91,84.53L2568.14,83.31L2570.36,80.37L2572.59,93.38L2574.82,88.43L2577.04,85.43L2579.27,93.57L2581.5,90.25L2583.73,89.71L2585.95,92.94L2588.18,73.47L2590.41,93.67L2592.64,91.41L2594.86,103.21L2597.09,149.41L2599.32,89.42L2601.55,81.88L2603.77,85.36L2606,97.27" style="vector-effect: non-scaling-stroke; fill: none; stroke: rgb(170, 0, 0); stroke-opacity: 1; stroke-width: 4px; opacity: 1;"/></g><g class="points"/><g class="text"/></g><g class="trace scatter trace02e09a" style="stroke-miterlimit: 2; opacity: 1;"><g class="fills"/><g class="errorbars"/><g class="lines"><path class="js-line" d="M0,89.29L2.23,97.92L4.45,90.5L8.91,96.64L11.14,87.19L13.36,89.02L15.59,81.11L17.82,90.95L20.05,84.22L22.27,83.71L24.5,88.68L26.73,84.59L28.96,87.69L31.18,92.9L33.41,83.16L35.64,88.74L37.86,85.01L42.32,87L44.55,82.65L46.77,89.25L49,83.51L53.46,89.76L55.68,84.29L57.91,82.13L60.14,88.29L62.37,79.11L64.59,83.84L66.82,81.55L69.05,85.42L75.73,81.62L77.96,86.26L80.18,80.68L82.41,79.59L84.64,79.91L86.87,84.55L89.09,79.99L91.32,80.12L93.55,76.98L95.78,82.56L100.23,75.1L102.46,77.64L106.91,79.68L109.14,77.41L111.37,79.74L113.59,78.43L115.82,80.69L118.05,77.66L120.28,79.03L122.5,81.59L124.73,82.07L126.96,77.23L129.19,74.74L131.41,83.36L138.1,79.15L140.32,79.37L142.55,78.04L144.78,88.99L147.01,80.9L149.23,78.02L151.46,91.05L153.69,84.2L155.91,86.06L158.14,82.65L160.37,85.39L162.6,86.33L164.82,87.09L167.05,85.39L169.28,85.7L171.51,91.1L173.73,94.06L175.96,88.87L178.19,93.69L180.42,91.03L182.64,96.72L184.87,89.57L187.1,93.21L189.32,92.48L191.55,102.56L193.78,99.49L196.01,105.79L198.23,97.22L200.46,108.37L202.69,110.47L204.92,118.42L207.14,117.49L209.37,130.27L211.6,154.41L213.83,139.28L216.05,159.98L220.51,204.71L222.74,243.75L224.96,247.22L227.19,285.62L229.42,326.15L231.64,390.91L233.87,456.15L236.1,551.25L242.78,587.47L245.01,612.72L247.24,654.49L249.46,668.21L256.15,692.54L258.37,693.45L260.6,695.63L262.83,692.88L265.05,693.99L267.28,687.97L269.51,699.58L271.74,702.03L273.96,703.14L276.19,697.18L278.42,700.65L280.65,699.77L282.87,700.4L285.1,697.48L287.33,690.58L289.56,697.65L291.78,701.96L294.01,701.51L296.24,687.05L298.46,694.46L300.69,699.12L302.92,694.94L305.15,691.24L307.37,693.43L309.6,697.19L311.83,690.37L314.06,673.57L316.28,688.65L318.51,700.1L320.74,694.62L322.97,693.73L325.19,696.06L327.42,694.63L329.65,698.4L331.88,702.39L334.1,714.69L336.33,711.85L338.56,713.78L340.78,713.89L343.01,721.77L345.24,733.39L347.47,731.6L349.69,720.41L351.92,733.07L354.15,734.53L356.38,724.38L358.6,711.29L360.83,717.97L363.06,715.66L365.29,707.58L367.51,707.31L369.74,699.93L371.97,702L374.19,700.05L376.42,684.4L378.65,681.33L380.88,684.34L383.1,678.32L387.56,679.98L389.79,668.81L392.01,679.24L394.24,679.56L396.47,666.78L398.7,677.6L403.15,668.97L405.38,677.21L407.61,673.15L409.83,671.26L412.06,676.77L414.29,670.02L416.51,672.62L418.74,672.52L420.97,669.57L423.2,664.04L425.42,669.44L427.65,659.75L429.88,655.26L432.11,658.9L434.33,648L436.56,626.3L438.79,608.91L441.02,613.12L443.24,607.77L445.47,585.31L447.7,558.51L449.92,518.81L452.15,484.62L454.38,359.4L463.29,199.36L465.52,203.69L476.65,113.29L478.88,118.73L481.11,102.94L483.34,99.61L485.56,94.3L487.79,94.87L490.02,91.39L492.24,102.81L494.47,91.28L496.7,88.5L498.93,86.2L501.15,89.27L505.61,84.53L507.84,89L510.06,83.3L512.29,96.37L516.75,88.43L518.97,86.46L521.2,88.02L523.43,82.94L525.65,89.3L527.88,89.07L530.11,87.68L532.34,90.32L534.56,90.85L536.79,85.43L539.02,82.81L541.25,88.66L543.47,87.87L545.7,91.91L550.16,91.8L552.38,90.21L554.61,88.21L556.84,89.6L559.06,87.05L561.29,92.76L563.52,96.78L565.75,87.18L567.97,83.62L570.2,82.14L572.43,94.71L574.66,91.05L576.88,92.01L579.11,87.74L581.34,88.49L583.57,88.04L588.02,91.9L590.25,89.63L592.48,92.52L594.7,87.23L596.93,96.85L599.16,94.08L601.38,96.65L603.61,109.99L605.84,84.45L608.07,92.38L610.29,84.22L612.52,83.65L614.75,83.99L616.98,87.31L619.2,92.97L621.43,80.99L623.66,112.78L625.89,83.78L628.11,76.71L630.34,92.19L632.57,73.15L634.79,79.97L637.02,163.84L639.25,43.16L641.48,103.97L643.7,89.64L645.93,72.63L648.16,72.42L652.61,84.7L654.84,83.76L657.07,78.26L659.3,67.57L661.52,85.11L663.75,82.46L665.98,129.88L668.21,73.86L670.43,71.23L672.66,75.58L674.89,64.57L677.11,105.91L679.34,94.98L681.57,108L683.8,97.15L686.02,97.78L688.25,57.44L690.48,107.17L692.71,108.06L694.93,98.3L697.16,95.37L699.39,134.48L701.62,93.3L703.84,89.89L706.07,203.47L708.3,83.3L712.75,95.78L714.98,97.13L719.43,87.33L721.66,95.26L723.89,93.31L726.12,97.09L730.57,92.24L732.8,99.95L735.03,117.78L737.25,101.24L739.48,95.88L741.71,97.52L743.94,98.66L746.16,97.19L750.62,95.88L752.84,97.32L755.07,100.39L757.3,90.85L759.53,97.39L761.75,96.09L766.21,92.21L768.44,93.08L770.66,88.35L772.89,90.09L775.12,91.72L777.35,86.53L781.8,87.36L784.03,83.86L786.25,86.41L788.48,79.64L790.71,80.15L792.94,100.24L797.39,83.36L799.62,83.95L804.07,81.52L806.3,87.05L808.53,91.04L810.76,87.29L812.98,98.66L815.21,94.48L817.44,87.75L819.66,87.61L821.89,90.53L824.12,79.85L826.35,93.49L828.57,95.84L830.8,89.83L833.03,87.77L835.26,82.04L837.48,84.12L839.71,100.93L841.94,95.92L844.17,81.83L846.39,90.79L850.85,84.78L853.08,87.46L855.3,91.49L857.53,86.11L859.76,97.57L861.98,92.48L864.21,82.42L866.44,89.77L868.67,90.09L870.89,93.94L873.12,95.64L875.35,78.14L877.58,90.74L879.8,78.76L882.03,83.03L884.26,93.37L888.71,115.33L890.94,75.81L893.17,89.83L895.39,71.78L902.08,112.58L904.3,113.26L906.53,88.07L908.76,89.21L910.99,82.41L913.21,88.7L915.44,98.36L917.67,93.44L919.9,71.69L922.12,77.55L924.35,79.11L926.58,75.4L928.81,71.39L931.03,63.1L933.26,71.02L935.49,66.12L937.71,71.11L939.94,65.57L942.17,61.29L944.4,69.88L951.08,64.86L953.31,81.39L955.53,78.61L957.76,80.18L959.99,89.72L962.22,90.04L964.44,95.34L966.67,91.41L968.9,88.65L971.12,97.91L973.35,93.05L975.58,96.62L977.81,93.9L980.03,95.68L982.26,93.62L984.49,107.08L986.72,109.53L988.94,93.37L991.17,97.43L993.4,105.29L995.63,94.75L997.85,96.27L1000.08,91.25L1002.31,94.26L1004.54,93.46L1006.76,94.55L1011.22,95.05L1013.44,88.67L1015.67,93.66L1017.9,89.84L1022.35,87.21L1024.58,87.86L1026.81,87.79L1029.04,85.4L1031.26,83.64L1033.49,86.24L1035.72,89.08L1037.95,82.59L1040.17,91.43L1042.4,85.56L1046.85,87.09L1049.08,89.84L1051.31,88.17L1053.54,89.59L1055.76,87.96L1057.99,89.1L1060.22,88.74L1062.45,87.31L1066.9,95.28L1069.13,85.52L1073.58,97.89L1075.81,103.63L1078.04,101.81L1080.26,107.71L1084.72,118.36L1086.95,107.23L1089.17,148.07L1091.4,157.1L1093.63,148.97L1095.86,183.01L1098.08,213.48L1100.31,205.52L1102.54,263.31L1104.77,279.59L1106.99,343.4L1109.22,467.83L1113.68,541.79L1115.9,547.69L1118.13,578.9L1120.36,593.05L1122.58,601.28L1124.81,631.68L1127.04,619.75L1129.27,624.24L1131.49,647.28L1133.72,645.79L1135.95,649.62L1138.18,648.27L1140.4,653.75L1142.63,677.06L1144.86,663.11L1147.09,669.25L1149.31,655.03L1151.54,661.87L1153.77,672.12L1155.99,670.21L1158.22,683.1L1160.45,676.31L1164.9,672.35L1167.13,671.01L1169.36,690.13L1171.59,684.05L1173.81,683.9L1176.04,693.06L1178.27,685.01L1180.5,700.3L1182.72,690.19L1184.95,699.57L1187.18,688.17L1189.41,709.59L1196.09,717.6L1198.31,715.87L1200.54,724.03L1202.77,719.78L1205,726.35L1207.22,723.32L1209.45,724.34L1211.68,710.77L1213.91,720.65L1216.13,707.02L1218.36,711.61L1220.59,706.9L1222.82,707.73L1225.04,702.89L1227.27,702.46L1229.5,698.17L1231.72,696.99L1233.95,689.89L1236.18,692.35L1238.41,686.6L1240.63,676.24L1242.86,682.02L1245.09,683.34L1247.32,683.49L1249.54,667.96L1251.77,670.18L1254,679.37L1256.23,671.37L1258.45,682.07L1260.68,674.46L1262.91,683.59L1265.14,676.77L1267.36,682.82L1269.59,656.4L1271.82,682.87L1274.04,671.5L1276.27,657.05L1278.5,692.28L1280.73,674.9L1282.95,691.34L1285.18,674.3L1287.41,693.96L1289.64,674.34L1291.86,691.53L1294.09,663.62L1296.32,697.63L1298.55,686.71L1300.77,652.36L1303,685.34L1305.23,679.35L1307.45,694.2L1309.68,670.91L1311.91,703.22L1314.14,688.06L1316.36,660.55L1318.59,675.45L1320.82,677.9L1323.05,706.38L1327.5,669.67L1329.73,673.12L1331.96,684.4L1334.18,707.66L1338.64,678.34L1340.86,671.85L1345.32,707.28L1347.55,692.72L1352,671.36L1354.23,692.55L1356.46,705.99L1358.68,695.21L1360.91,686.16L1363.14,671.99L1365.37,695.14L1367.59,704.25L1372.05,687.19L1374.28,693.65L1376.5,695.73L1378.73,690.24L1383.18,702.29L1385.41,697.34L1387.64,688.21L1389.87,695.2L1392.09,696.22L1394.32,700.7L1396.55,696.31L1398.78,700.52L1403.23,692.04L1405.46,696.08L1407.69,701.59L1409.91,696.88L1412.14,688.72L1414.37,695.84L1416.59,696.34L1418.82,703.97L1425.5,696.4L1427.73,701.3L1429.96,700.42L1432.19,698.34L1434.41,698.39L1436.64,695.82L1438.87,699.43L1441.1,695.65L1443.32,702.85L1445.55,699.93L1447.78,698.93L1450.01,695.87L1452.23,700.44L1454.46,701.42L1456.69,700.74L1458.91,698.34L1461.14,695.6L1463.37,700.03L1465.6,700.77L1467.82,700.02L1470.05,702.34L1472.28,701.28L1474.51,704.03L1476.73,698.35L1478.96,696.58L1481.19,697.29L1483.42,702.1L1485.64,698.49L1487.87,702.27L1490.1,698.41L1492.32,702.9L1494.55,700.69L1496.78,698.43L1499.01,704.94L1503.46,697.75L1505.69,704.74L1510.14,697.18L1512.37,704.61L1514.6,698.17L1516.83,696.36L1521.28,702.33L1523.51,694.49L1525.74,702.21L1527.96,695.84L1530.19,700.54L1532.42,701.19L1534.64,697.09L1536.87,705.06L1539.1,702.68L1541.33,698.1L1543.55,704.82L1545.78,701.72L1548.01,698.67L1550.24,703.65L1552.46,698.65L1554.69,697.54L1556.92,701.14L1559.15,690L1561.37,691.8L1563.6,681.45L1565.83,661.83L1568.05,653.74L1576.96,520.41L1579.19,353.45L1581.42,289.71L1583.65,257.41L1585.87,195.91L1588.1,184.52L1590.33,176.87L1592.56,122.78L1597.01,115.24L1599.24,88.57L1601.46,90.94L1603.69,85.29L1605.92,82.68L1608.15,85.08L1610.37,74.9L1612.6,83.32L1614.83,82.97L1617.06,76.21L1621.51,82.58L1623.74,80.94L1625.97,78.36L1628.19,83.64L1630.42,85.42L1632.65,90.53L1634.88,88.64L1637.1,82.48L1639.33,95.53L1641.56,93.55L1643.78,89.36L1646.01,95.37L1650.47,90L1652.69,99.53L1657.15,88.45L1659.38,93.7L1661.6,96.75L1663.83,101.79L1666.06,102.85L1668.29,106.8L1672.74,94.29L1674.97,101.93L1677.19,106.72L1679.42,106.94L1681.65,115.43L1683.88,115.18L1686.1,104.17L1688.33,107.98L1690.56,111.82L1692.79,111.01L1695.01,128.87L1697.24,121.88L1699.47,117.38L1701.7,122.29L1703.92,128.27L1706.15,144.83L1708.38,167.51L1710.61,151.71L1712.83,148.62L1715.06,166.65L1717.29,161.31L1719.51,179.67L1721.74,181.73L1723.97,196.2L1726.2,210.27L1728.42,237.71L1730.65,266.73L1732.88,312.63L1739.56,514.61L1741.79,560.16L1744.02,590.44L1746.24,606.28L1748.47,615.34L1750.7,668.2L1757.38,692.5L1759.61,694.36L1761.83,694.25L1764.06,705.22L1766.29,709.95L1768.52,703.85L1770.74,703.69L1772.97,707.99L1775.2,702.6L1777.43,704.42L1779.65,707.59L1781.88,715.83L1784.11,706.14L1786.34,705.38L1788.56,705.33L1790.79,707.75L1793.02,711.75L1795.24,706.89L1797.47,709.79L1799.7,703.78L1801.93,701.1L1804.15,701.66L1806.38,707.9L1808.61,699.91L1810.84,699.36L1813.06,703.18L1817.52,701.66L1819.75,695.24L1821.97,699.93L1824.2,699.93L1826.43,696.73L1828.65,699.07L1830.88,681.15L1833.11,682.05L1835.34,675.79L1837.56,676.34L1842.02,650.52L1844.25,657.12L1846.47,642.81L1848.7,618.07L1857.61,546.7L1859.84,458.29L1864.29,321.98L1866.52,270.32L1870.97,197.94L1873.2,188.45L1875.43,178.68L1877.66,156.43L1879.88,143.49L1882.11,121.87L1884.34,112.02L1886.57,121.14L1888.79,115.44L1891.02,100.33L1895.48,86.53L1897.7,89.57L1899.93,82.14L1902.16,93.74L1906.61,84.82L1908.84,86.16L1911.07,85.79L1913.29,86.45L1917.75,83.77L1919.98,84.77L1922.2,85.51L1924.43,82.54L1926.66,81.58L1928.89,86.86L1933.34,80.54L1935.57,87.37L1940.02,81.3L1942.25,87.75L1946.7,84.24L1948.93,88.9L1951.16,89.92L1953.39,88.25L1957.84,94.83L1960.07,92.11L1962.3,90.91L1964.52,101.15L1966.75,95.04L1968.98,84.1L1971.21,99.86L1973.43,97.69L1975.66,98.25L1977.89,81.23L1980.11,103.77L1982.34,97.91L1984.57,79.78L1986.8,97.49L1991.25,75.77L1993.48,77.05L1995.71,77.06L1997.93,65.59L2000.16,68.17L2002.39,59.91L2004.62,60.31L2006.84,66.61L2009.07,67.92L2011.3,59.03L2013.52,70.78L2015.75,70.57L2017.98,72.74L2020.21,84.77L2022.43,92.82L2024.66,85.42L2026.89,81.07L2029.12,96.99L2031.34,94.26L2033.57,100.61L2035.8,92.18L2038.03,91.77L2040.25,102.16L2042.48,100.21L2044.71,100.14L2046.94,97.24L2049.16,97.67L2051.39,91.89L2053.62,90.24L2055.84,102.18L2058.07,100.41L2060.3,94.16L2062.53,100.99L2064.75,94.76L2066.98,90.69L2069.21,101.18L2071.44,100.7L2073.66,92.57L2075.89,96.03L2078.12,92.43L2080.35,95.41L2082.57,92.39L2084.8,89.49L2087.03,94.35L2089.25,96.4L2091.48,93.14L2093.71,96.98L2095.94,92.76L2098.16,95.99L2100.39,92.11L2102.62,97.43L2104.85,95.39L2107.07,94.84L2109.3,96.53L2111.53,97.03L2113.76,89.59L2115.98,100.8L2118.21,100.95L2120.44,101.32L2122.66,112.52L2124.89,105.57L2127.12,123.44L2129.35,112.57L2131.57,116.78L2133.8,133.45L2136.03,125.23L2142.71,176.79L2144.94,185.63L2147.17,194.97L2149.39,220.43L2151.62,255.05L2153.85,310.35L2160.53,518.05L2162.76,558.06L2164.98,590.35L2167.21,598.02L2171.67,639.51L2173.89,655.88L2176.12,663.19L2178.35,675.26L2182.8,692.41L2185.03,679L2189.49,697.66L2191.71,695.53L2193.94,699.21L2196.17,697.61L2198.39,700.62L2200.62,705.65L2205.08,697.2L2207.3,711.64L2209.53,690.13L2211.76,705.79L2213.99,703.56L2216.21,706.01L2218.44,704.2L2220.67,699.57L2222.9,713.61L2225.12,703.95L2227.35,701.36L2229.58,704.38L2231.81,706.76L2234.03,706.9L2238.49,699.55L2240.71,711.94L2242.94,703.65L2245.17,704.51L2249.62,706.53L2251.85,705.94L2254.08,701.02L2256.31,705.48L2258.53,701.99L2260.76,702.01L2265.22,707.4L2267.44,704.18L2269.67,705.54L2271.9,710.68L2274.12,709.07L2276.35,702.62L2280.81,708.74L2283.03,705.54L2285.26,704.96L2287.49,700.49L2289.72,706.43L2291.94,706.55L2294.17,702.85L2296.4,702.56L2298.63,706.06L2300.85,707.57L2303.08,703.46L2305.31,703.39L2309.76,703.5L2311.99,700.94L2314.22,696.95L2316.44,698.9L2318.67,698.12L2320.9,695.3L2325.35,690.29L2327.58,692.82L2329.81,692.47L2332.04,683.43L2334.26,684.23L2336.49,680.94L2338.72,675.32L2340.95,661.94L2343.17,665.84L2345.4,674.52L2352.08,636.76L2354.31,661.17L2356.54,675.73L2358.76,667.95L2363.22,644.47L2365.45,674.2L2367.67,693.56L2369.9,692.27L2374.36,679.86L2376.58,701.04L2378.81,672.09L2381.04,682.59L2383.26,688.1L2385.49,679.77L2387.72,694.31L2389.95,661.6L2392.17,672.6L2394.4,673.47L2396.63,683.33L2398.86,669.17L2401.08,681.46L2403.31,683.38L2405.54,673.66L2407.77,691.44L2409.99,687.92L2412.22,699.4L2414.45,700.93L2416.68,699.99L2418.9,693.89L2421.13,704L2423.36,712.85L2425.58,701.36L2427.81,704.08L2430.04,697.82L2432.27,710.06L2434.49,706.86L2438.95,696.07L2441.18,702.5L2443.4,696.42L2445.63,693.23L2447.86,688.11L2450.09,686.96L2454.54,668.35L2456.77,665.51L2461.22,638.89L2463.45,616.8L2465.68,622.81L2467.9,606.44L2470.13,600.32L2472.36,567.22L2476.81,549.58L2479.04,457.28L2481.27,387.27L2483.5,351.39L2492.41,194.18L2494.63,200.89L2501.31,158.2L2503.54,137.69L2505.77,128.41L2508,127.17L2510.22,110.28L2512.45,128.85L2514.68,83.34L2516.91,96.54L2519.13,104.26L2521.36,91.37L2523.59,91.62L2525.82,87.82L2528.04,90.23L2530.27,89.93L2532.5,74.6L2534.72,83.18L2536.95,90.02L2539.18,85.43L2541.41,87.83L2543.63,79.29L2545.86,88.45L2548.09,91.99L2550.32,83.85L2552.54,88.57L2554.77,78.61L2557,85.06L2559.23,84.76L2561.45,79.6L2563.68,86.57L2565.91,81.4L2568.14,94.73L2570.36,84.5L2572.59,87.73L2574.82,83.93L2577.04,92.98L2579.27,89.64L2581.5,85.06L2583.73,89.78L2585.95,82.87L2588.18,93.15L2590.41,87.18L2592.64,86.45L2597.09,89L2599.32,87.82L2601.55,94.13L2603.77,84.75L2606,84.71" style="vector-effect: non-scaling-stroke; fill: none; stroke: rgb(0, 170, 0); stroke-opacity: 1; stroke-width: 4px; opacity: 1;"/></g><g class="points"/><g class="text"/></g></g></g><g class="overplot"/><path class="xlines-above crisp" d="M0,0" style="fill: none;"/><path class="ylines-above crisp" d="M0,0" style="fill: none;"/><g class="overlines-above"/><g class="xaxislayer-above"><g class="xtick"><text text-anchor="middle" x="0" y="934" transform="translate(136,0)" style="font-family: 'Open Sans', verdana, arial, sans-serif; font-size: 37px; fill: rgb(42, 63, 95); fill-opacity: 1; white-space: pre; opacity: 1;">0</text></g><g class="xtick"><text text-anchor="middle" x="0" y="934" style="font-family: 'Open Sans', verdana, arial, sans-serif; font-size: 37px; fill: rgb(42, 63, 95); fill-opacity: 1; white-space: pre; opacity: 1;" transform="translate(581.47,0)">200</text></g><g class="xtick"><text text-anchor="middle" x="0" y="934" style="font-family: 'Open Sans', verdana, arial, sans-serif; font-size: 37px; fill: rgb(42, 63, 95); fill-opacity: 1; white-space: pre; opacity: 1;" transform="translate(1026.94,0)">400</text></g><g class="xtick"><text text-anchor="middle" x="0" y="934" style="font-family: 'Open Sans', verdana, arial, sans-serif; font-size: 37px; fill: rgb(42, 63, 95); fill-opacity: 1; white-space: pre; opacity: 1;" transform="translate(1472.41,0)">600</text></g><g class="xtick"><text text-anchor="middle" x="0" y="934" style="font-family: 'Open Sans', verdana, arial, sans-serif; font-size: 37px; fill: rgb(42, 63, 95); fill-opacity: 1; white-space: pre; opacity: 1;" transform="translate(1917.88,0)">800</text></g><g class="xtick"><text text-anchor="middle" x="0" y="934" style="font-family: 'Open Sans', verdana, arial, sans-serif; font-size: 37px; fill: rgb(42, 63, 95); fill-opacity: 1; white-space: pre; opacity: 1;" transform="translate(2363.35,0)">1000</text></g></g><g class="yaxislayer-above"><g class="ytick"><text text-anchor="end" x="135" y="12.95" transform="translate(0,857.07)" style="font-family: 'Open Sans', verdana, arial, sans-serif; font-size: 37px; fill: rgb(42, 63, 95); fill-opacity: 1; white-space: pre; opacity: 1;">−10</text></g><g class="ytick"><text text-anchor="end" x="135" y="12.95" style="font-family: 'Open Sans', verdana, arial, sans-serif; font-size: 37px; fill: rgb(42, 63, 95); fill-opacity: 1; white-space: pre; opacity: 1;" transform="translate(0,694.78)">−5</text></g><g class="ytick"><text text-anchor="end" x="135" y="12.95" style="font-family: 'Open Sans', verdana, arial, sans-serif; font-size: 37px; fill: rgb(42, 63, 95); fill-opacity: 1; white-space: pre; opacity: 1;" transform="translate(0,532.49)">0</text></g><g class="ytick"><text text-anchor="end" x="135" y="12.95" style="font-family: 'Open Sans', verdana, arial, sans-serif; font-size: 37px; fill: rgb(42, 63, 95); fill-opacity: 1; white-space: pre; opacity: 1;" transform="translate(0,370.2)">5</text></g><g class="ytick"><text text-anchor="end" x="135" y="12.95" style="font-family: 'Open Sans', verdana, arial, sans-serif; font-size: 37px; fill: rgb(42, 63, 95); fill-opacity: 1; white-space: pre; opacity: 1;" transform="translate(0,207.91)">10</text></g></g><g class="overaxes-above"/></g></g><g class="polarlayer"/><g class="ternarylayer"/><g class="geolayer"/><g class="funnelarealayer"/><g class="pielayer"/><g class="iciclelayer"/><g class="treemaplayer"/><g class="sunburstlayer"/><g class="glimages"/><defs id="topdefs-78471c"><g class="clips"/><clipPath id="legend78471c"><rect width="694" height="113" x="0" y="0"/></clipPath></defs><g class="layer-above"><g class="imagelayer"/><g class="shapelayer"/></g><g class="infolayer"><g class="legend" pointer-events="all" transform="translate(2794.12,100)"><rect class="bg" shape-rendering="crispEdges" width="694" height="113" x="0" y="0" style="stroke: rgb(68, 68, 68); stroke-opacity: 1; fill: rgb(255, 255, 255); fill-opacity: 1; stroke-width: 0px;"/><g class="scrollbox" transform="" clip-path="url(#legend78471c)"><g class="groups"><g class="traces" transform="translate(0,30.55)" style="opacity: 1;"><text class="legendtext" text-anchor="start" x="40" y="14.43" style="font-family: 'Open Sans', verdana, arial, sans-serif; font-size: 37px; fill: rgb(42, 63, 95); fill-opacity: 1; white-space: pre;">Predicted Curvature at Anchors #1</text><g class="layers" style="opacity: 1;"><g class="legendfill"/><g class="legendlines"><path class="js-line" d="M5,0h30" style="fill: none; stroke: rgb(170, 0, 0); stroke-opacity: 1; stroke-width: 4px;"/></g><g class="legendsymbols"><g class="legendpoints"/></g></g><rect class="legendtoggle" x="0" y="-25.55" width="688.125" height="51.1" style="fill: rgb(0, 0, 0); fill-opacity: 0;"/></g><g class="traces" transform="translate(0,81.65)" style="opacity: 1;"><text class="legendtext" text-anchor="start" x="40" y="14.43" style="font-family: 'Open Sans', verdana, arial, sans-serif; font-size: 37px; fill: rgb(42, 63, 95); fill-opacity: 1; white-space: pre;">Predicted Curvature at Anchors #2</text><g class="layers" style="opacity: 1;"><g class="legendfill"/><g class="legendlines"><path class="js-line" d="M5,0h30" style="fill: none; stroke: rgb(0, 170, 0); stroke-opacity: 1; stroke-width: 4px;"/></g><g class="legendsymbols"><g class="legendpoints"/></g></g><rect class="legendtoggle" x="0" y="-25.55" width="688.125" height="51.1" style="fill: rgb(0, 0, 0); fill-opacity: 0;"/></g></g></g><rect class="scrollbar" rx="20" ry="3" width="0" height="0" x="0" y="0" style="fill: rgb(128, 139, 164); fill-opacity: 1;"/></g><g class="g-gtitle"/><g class="g-xtitle"><text class="xtitle" x="1439" y="987.8" text-anchor="middle" style="font-family: 'Open Sans', verdana, arial, sans-serif; font-size: 44px; fill: rgb(42, 63, 95); opacity: 1; font-weight: normal; white-space: pre;">Anchor Point Index</text></g><g class="g-ytitle" transform="translate(32.1279296875,0)"><text class="ytitle" transform="rotate(-90,11.871875000000003,498)" x="11.871875000000003" y="498" text-anchor="middle" style="font-family: 'Open Sans', verdana, arial, sans-serif; font-size: 44px; fill: rgb(42, 63, 95); opacity: 1; font-weight: normal; white-space: pre;">Predicted Curvature</text></g><g class="annotation" data-index="0" style="opacity: 1;"><g class="annotation-text-g" transform="rotate(0,1439,66.49999999999993)"><g class="cursor-pointer" transform="translate(222,33)"><rect class="bg" x="0.5" y="0.5" width="2433" height="66" style="stroke-width: 1px; stroke: rgb(0, 0, 0); stroke-opacity: 0; fill: rgb(0, 0, 0); fill-opacity: 0;"/><text class="annotation-text" text-anchor="middle" x="1217.03125" y="54" style="font-family: 'Open Sans', verdana, arial, sans-serif; font-size: 52px; fill: rgb(42, 63, 95); fill-opacity: 1; white-space: pre;"><tspan style="font-weight:bold">Predicted Curvature at Anchors (Transformed Curve #1 vs. Transformed Curve #2)</tspan></text></g></g></g></g></svg>