<svg class="main-svg" xmlns="http://www.w3.org/2000/svg" xmlns:xlink="http://www.w3.org/1999/xlink" width="3500" height="1000" style="" viewBox="0 0 3500 1000"><rect x="0" y="0" width="3500" height="1000" style="fill: rgb(255, 255, 255); fill-opacity: 1;"/><defs id="defs-063991"><g class="clips"><clipPath id="clip063991xyplot" class="plotclip"><rect width="2606" height="796"/></clipPath><clipPath class="axesclip" id="clip063991x"><rect x="136" y="0" width="2606" height="1000"/></clipPath><clipPath class="axesclip" id="clip063991y"><rect x="0" y="100" width="3500" height="796"/></clipPath><clipPath class="axesclip" id="clip063991xy"><rect x="136" y="100" width="2606" height="796"/></clipPath></g><g class="gradients"/><g class="patterns"/></defs><g class="bglayer"><rect class="bg" x="136" y="100" width="2606" height="796" style="fill: rgb(229, 236, 246); fill-opacity: 1; stroke-width: 0;"/></g><g class="layer-below"><g class="imagelayer"/><g class="shapelayer"/></g><g class="cartesianlayer"><g class="subplot xy"><g class="layer-subplot"><g class="shapelayer"/><g class="imagelayer"/></g><g class="gridlayer"><g class="x"><path class="xgrid crisp" transform="translate(623.1,0)" d="M0,100v796" style="stroke: rgb(255, 255, 255); stroke-opacity: 1; stroke-width: 1px;"/><path class="xgrid crisp" transform="translate(1110.21,0)" d="M0,100v796" style="stroke: rgb(255, 255, 255); stroke-opacity: 1; stroke-width: 1px;"/><path class="xgrid crisp" transform="translate(1597.31,0)" d="M0,100v796" style="stroke: rgb(255, 255, 255); stroke-opacity: 1; stroke-width: 1px;"/><path class="xgrid crisp" transform="translate(2084.41,0)" d="M0,100v796" style="stroke: rgb(255, 255, 255); stroke-opacity: 1; stroke-width: 1px;"/><path class="xgrid crisp" transform="translate(2571.51,0)" d="M0,100v796" style="stroke: rgb(255, 255, 255); stroke-opacity: 1; stroke-width: 1px;"/></g><g class="y"><path class="ygrid crisp" transform="translate(0,876.03)" d="M136,0h2606" style="stroke: rgb(255, 255, 255); stroke-opacity: 1; stroke-width: 1px;"/><path class="ygrid crisp" transform="translate(0,740.8)" d="M136,0h2606" style="stroke: rgb(255, 255, 255); stroke-opacity: 1; stroke-width: 1px;"/><path class="ygrid crisp" transform="translate(0,605.5799999999999)" d="M136,0h2606" style="stroke: rgb(255, 255, 255); stroke-opacity: 1; stroke-width: 1px;"/><path class="ygrid crisp" transform="translate(0,335.12)" d="M136,0h2606" style="stroke: rgb(255, 255, 255); stroke-opacity: 1; stroke-width: 1px;"/><path class="ygrid crisp" transform="translate(0,199.9)" d="M136,0h2606" style="stroke: rgb(255, 255, 255); stroke-opacity: 1; stroke-width: 1px;"/></g></g><g class="zerolinelayer"><path class="xzl zl crisp" transform="translate(136,0)" d="M0,100v796" style="stroke: rgb(255, 255, 255); stroke-opacity: 1; stroke-width: 2px;"/><path class="yzl zl crisp" transform="translate(0,470.35)" d="M136,0h2606" style="stroke: rgb(255, 255, 255); stroke-opacity: 1; stroke-width: 2px;"/></g><path class="xlines-below"/><path class="ylines-below"/><g class="overlines-below"/><g class="xaxislayer-below"/><g class="yaxislayer-below"/><g class="overaxes-below"/><g class="plot" transform="translate(136,100)" clip-path="url(#clip063991xyplot)"><g class="scatterlayer mlayer"><g class="trace scatter traceb79e60" style="stroke-miterlimit: 2; opacity: 1;"><g class="fills"/><g class="errorbars"/><g class="lines"><path class="js-line" d="M0,517.44L2.44,516.99L4.87,511.78L7.31,513.58L9.74,502.67L12.18,501.33L14.61,505.28L17.05,507.57L19.48,504.92L21.92,518.29L24.36,508.28L29.23,533.09L31.66,504.38L34.1,516.59L36.53,510.11L38.97,519.38L41.4,533.17L43.84,506.88L46.27,519.24L48.71,511.25L51.15,523.4L53.58,535.3L56.02,509.05L58.45,526.53L60.89,514.69L65.76,542.54L68.19,519.25L70.63,537.85L73.07,528.79L77.94,548.29L80.37,532.13L85.24,537.88L87.68,544.82L90.11,547.33L92.55,570.71L94.99,564.32L97.42,571.69L99.86,583.7L102.29,572.41L107.16,581.38L109.6,595.19L114.47,602.43L116.9,601.79L119.34,601.51L121.78,603.19L126.65,613.77L129.08,611.24L131.52,614.85L133.95,612.92L136.39,613.34L138.82,615.13L141.26,620.48L143.7,616.6L146.13,620.95L148.57,617.51L151,619.98L153.44,617.99L158.31,618.01L160.74,614.79L163.18,617.42L165.61,611.87L168.05,615.98L170.49,609.52L172.92,613.52L175.36,602.2L177.79,599.4L180.23,602.14L182.66,597.87L185.1,600.32L187.53,592.03L189.97,601.41L192.41,589.77L194.84,589.32L197.28,594.92L199.71,569.01L202.15,572.1L204.58,580.47L216.76,572.05L219.2,570.05L233.81,556.12L236.24,553.52L250.86,536.25L253.29,532.33L258.16,521.51L260.6,514.89L265.47,500.46L267.91,484.45L275.21,402.52L277.65,326.32L280.08,115.84L282.52,69.04L287.39,133.39L289.83,157.95L294.7,188.36L297.13,197.85L302,210.32L304.44,214.55L311.75,223.99L314.18,226.6L326.36,237.35L328.79,239.26L355.59,258.85L358.02,260.28L367.76,264.58L370.2,265.31L379.94,267.08L382.38,267.28L394.55,267.14L396.99,266.9L409.17,264.53L411.6,263.83L426.21,258.43L428.65,257.38L465.18,242.15L467.62,241.4L482.23,238.07L484.67,237.73L499.28,236.98L501.72,237.08L513.89,238.59L516.33,239.11L528.51,243.09L530.94,244.25L538.25,248.83L540.68,250.85L547.99,258.95L550.43,262.47L560.17,279.91L562.6,284.18L567.47,290.07L569.91,291.33L572.35,292.49L574.78,296.6L577.22,309.37L579.65,338.12L584.52,454.47L586.96,526.12L591.83,626.31L594.27,644.4L596.7,646.97L599.14,641.15L608.88,607.28L611.31,601.24L616.19,592.05L618.62,588.56L625.93,580.88L628.36,578.9L638.1,572.53L640.54,571.24L652.72,566.43L655.15,565.77L667.33,563.76L669.77,563.58L686.81,563.69L689.25,563.84L728.22,566.24L730.65,565.92L740.4,563.07L742.83,561.97L755.01,554.72L757.44,553.08L774.49,542.69L776.93,541.55L793.98,535.28L796.41,534.49L811.03,530.75L813.46,530.35L828.07,529.29L830.51,529.3L857.3,530.9L859.74,531.05L867.04,531.36L869.48,533.17L874.35,527.87L876.79,530.64L879.22,534.26L881.66,545.17L884.09,547.67L886.53,544.65L888.96,555.62L891.4,547.86L893.83,519.58L896.27,515.91L898.7,516.35L901.14,521.89L903.58,516.57L906.01,519.04L908.45,518.39L910.88,514.58L913.32,515.84L915.75,511.67L918.19,511.62L920.62,517.87L923.06,516.37L925.5,509.95L927.93,508.86L930.37,511.93L935.24,502.87L937.67,505.03L940.11,504.67L942.54,502.25L944.98,501.66L947.41,507.13L952.29,498.32L954.72,502.12L957.16,501.18L959.59,497.82L962.03,490.27L964.46,491.99L966.9,491.81L969.33,489.94L971.77,488.04L974.21,509.47L976.64,487.48L979.08,483.18L981.51,496.27L983.95,493.84L986.38,484.08L988.82,467.29L991.25,456.18L993.69,452.65L996.13,436.22L998.56,408.74L1001,422.82L1003.43,393.74L1005.87,369.05L1008.3,368.37L1010.74,352.45L1013.17,316.3L1018.04,120.32L1020.48,63.49L1022.92,53.96L1025.35,39.8L1027.79,80.51L1030.22,68.31L1032.66,101.43L1035.09,91.42L1037.53,116.7L1039.96,117.98L1042.4,105.37L1044.84,127.9L1047.27,119.18L1049.71,138.98L1052.14,135.91L1054.58,149.71L1057.01,142.82L1059.45,149.79L1061.88,148.48L1064.32,155.36L1066.76,153.17L1069.19,160.24L1071.63,157.35L1074.06,164.33L1076.5,161.2L1078.93,167.26L1081.37,164.82L1083.8,169.08L1086.24,168.31L1088.67,170.51L1093.55,172.52L1095.98,174.81L1100.85,177.6L1103.29,180.61L1105.72,180.2L1108.16,185.79L1110.59,183.05L1113.03,176.19L1115.47,173.3L1117.9,184.97L1120.34,184.89L1122.77,193.73L1125.21,194.98L1127.64,205.05L1130.08,194.12L1132.51,195.8L1134.95,204.29L1137.39,205.4L1139.82,211.08L1142.26,200.62L1147.13,216.38L1149.56,216.07L1152,224.56L1154.43,227.59L1156.87,238.76L1159.3,234.46L1161.74,225.15L1164.18,231.54L1166.61,235.77L1169.05,237.87L1171.48,232.07L1173.92,242.97L1176.35,245.09L1178.79,251.74L1181.22,256.72L1183.66,267.09L1186.1,289.62L1188.53,295.75L1190.97,297.16L1193.4,309.52L1198.27,402.18L1200.71,509.92L1203.14,714.81L1205.58,708.33L1208.01,698.31L1210.45,673.54L1212.89,623.48L1215.32,617.52L1217.76,600.07L1220.19,611.68L1222.63,573.06L1225.06,589.49L1227.5,581.31L1229.93,560.35L1232.37,561.56L1234.81,552.72L1237.24,556.34L1239.68,552.18L1242.11,569.55L1244.55,554.42L1249.42,522.39L1251.85,533.86L1254.29,548.65L1256.73,530.52L1259.16,537.97L1261.6,551.94L1264.03,544.22L1266.47,526.22L1268.9,531.84L1271.34,531.76L1273.77,526.3L1276.21,507.62L1278.64,527.09L1281.08,525.99L1295.69,520.7L1298.13,520.19L1307.87,519.66L1310.31,519.91L1320.05,522.33L1322.48,523.23L1334.66,529L1337.1,530.36L1354.15,541.28L1356.58,543.05L1373.63,556.74L1376.07,558.86L1380.94,569.42L1383.37,554.39L1385.81,564.96L1388.24,587.3L1390.68,588.34L1393.11,605.89L1395.55,586.53L1397.99,603.11L1400.42,599.23L1402.86,602.28L1405.29,613.24L1407.73,598.33L1412.6,589.97L1415.03,600.47L1417.47,595.75L1419.9,599.76L1422.34,603.43L1424.78,611.47L1427.21,601.51L1429.65,599.1L1432.08,599.64L1434.52,604.02L1436.95,603.03L1439.39,594.88L1446.7,592.58L1449.13,591.55L1463.74,584.13L1466.18,582.67L1475.92,575.2L1478.36,572.77L1480.79,570.07L1483.23,595.99L1485.66,604.9L1488.1,577.11L1490.53,584.79L1492.97,560.94L1495.41,566.6L1497.84,565.17L1500.28,564.77L1502.71,552.06L1505.15,544.08L1507.58,540.12L1510.02,526.8L1512.45,532.08L1514.89,521.6L1517.33,528.23L1519.76,521.13L1522.2,517.44L1524.63,501.23L1527.07,496.05L1529.5,488.7L1531.94,467.35L1534.37,459.62L1536.81,409.54L1539.24,401.46L1541.68,262.72L1544.12,82L1546.55,59.06L1548.99,100.4L1551.42,107.79L1553.86,127.34L1556.29,167.14L1558.73,170.72L1561.16,177.96L1563.6,187.64L1566.04,186.47L1570.91,201.78L1573.34,205.57L1575.78,218.53L1578.21,216.41L1580.65,225.12L1583.08,224.73L1585.52,215.31L1587.96,223.48L1590.39,226.75L1592.83,225.61L1595.26,234.5L1597.7,226.86L1600.13,232L1602.57,247.88L1605,238.19L1607.44,244.47L1609.87,246.21L1612.31,250.04L1614.75,263.12L1617.18,257.19L1622.05,257.75L1624.49,259.81L1626.92,267.52L1629.36,266.16L1631.79,264.09L1634.23,269.54L1636.67,269.64L1639.1,282.77L1641.54,290.78L1643.97,286.29L1646.41,285.68L1648.84,299.46L1651.28,293.45L1653.71,301.19L1656.15,292.94L1658.59,291.3L1661.02,303.34L1663.46,306.97L1665.89,295.44L1668.33,295.71L1670.76,296.47L1673.2,312.27L1675.63,313.23L1678.07,301.8L1680.5,308.34L1682.94,310.24L1687.81,323.05L1690.25,311.86L1692.68,311.18L1695.12,315.71L1697.55,324.1L1699.99,322.17L1702.42,321.57L1704.86,332.74L1707.3,325.92L1709.73,337.02L1714.6,347.16L1717.04,366.65L1719.47,371.59L1721.91,319.99L1724.34,358.05L1726.78,311.68L1729.21,351.19L1731.65,410.01L1734.09,452.95L1736.52,467.33L1738.96,458.99L1741.39,561.92L1743.83,561.79L1746.26,538.85L1748.7,641.59L1751.13,564.68L1753.57,627.45L1756.01,639.39L1758.44,591.88L1760.88,627.08L1765.75,560.74L1768.18,622.06L1770.62,594.85L1773.05,602.89L1775.49,573.41L1777.93,610.41L1780.36,581.39L1782.8,596.84L1785.23,593.19L1787.67,574.43L1790.1,592.33L1792.54,584.07L1794.97,571.31L1797.41,567.17L1799.84,582.79L1802.28,574.61L1804.72,574.17L1807.15,568.91L1809.59,591.85L1812.02,563.44L1814.46,561.16L1816.89,571.9L1819.33,569.19L1821.76,568.33L1824.2,565.85L1826.64,588.28L1829.07,561.09L1831.51,556.71L1833.94,569.47L1836.38,568.51L1838.81,568.87L1841.25,564.91L1843.68,589.4L1846.12,563.38L1848.56,556.4L1850.99,574.38L1853.43,571.96L1855.86,574.69L1858.3,555.25L1860.73,599.87L1863.17,575.27L1865.6,578.35L1868.04,559.13L1870.47,604.15L1872.91,578.99L1875.35,582.03L1877.78,564.83L1880.22,602.05L1882.65,589.22L1885.09,592.3L1887.52,569.61L1889.96,573.25L1892.39,609.71L1894.83,594.17L1897.27,596.33L1899.7,570.37L1902.14,581.12L1904.57,615.51L1907.01,598.47L1909.44,599.66L1911.88,570.36L1914.31,586.72L1916.75,618.41L1919.19,597.67L1921.62,610.24L1924.06,582.62L1926.49,571.17L1928.93,589.88L1931.36,618.9L1933.8,598.44L1936.23,616.27L1938.67,586.83L1941.1,574.83L1943.54,590.7L1945.98,618.75L1948.41,599.73L1950.85,623.87L1953.28,594.26L1955.72,582.14L1958.15,592.03L1960.59,620.65L1963.02,604.04L1965.46,630.31L1967.9,604.86L1970.33,591.36L1972.77,596.3L1975.2,624.92L1977.64,632.16L1980.07,621.31L1982.51,597.86L1984.94,602.12L1987.38,624.8L1989.81,629.85L1992.25,614.12L1994.69,601.88L1997.12,604.12L1999.56,610.25L2001.99,621.06L2004.43,604.35L2006.86,600.94L2009.3,593.9L2011.73,610.08L2014.17,602.17L2016.61,582.8L2019.04,584.81L2021.48,597.16L2023.91,587.07L2026.35,567.07L2028.78,570.5L2031.22,577.17L2033.65,562.07L2036.09,560.47L2038.53,563.92L2040.96,543.77L2043.4,532.91L2045.83,504.68L2050.7,532.48L2053.14,525.1L2055.57,536.25L2058.01,524.7L2060.44,524.56L2062.88,505.56L2065.32,493.91L2067.75,517.65L2070.19,500.93L2072.62,493.45L2075.06,512.09L2077.49,498.75L2079.93,495.35L2082.36,509.14L2084.8,499.55L2087.24,497.88L2089.67,507.33L2092.11,502.59L2094.54,501.54L2096.98,507.17L2099.41,506.96L2101.85,501.31L2104.28,510.2L2106.72,515.13L2109.16,504.53L2111.59,522.55L2114.03,544.34L2116.46,502.21L2118.9,520.67L2121.33,515.48L2123.77,517.34L2126.2,525.59L2128.64,514.43L2131.07,520.01L2133.51,531.53L2135.95,518.16L2140.82,549.83L2143.25,515.14L2145.69,536.59L2148.12,523.53L2150.56,539.76L2152.99,563.34L2155.43,517.84L2157.87,539.58L2160.3,526.97L2162.74,528.15L2165.17,539.84L2167.61,525.26L2172.48,552.6L2174.91,516.72L2177.35,538.68L2179.79,518.71L2182.22,539.87L2184.66,544.72L2187.09,506.72L2189.53,535.65L2191.96,503.65L2194.4,537L2196.83,529.26L2199.27,487.67L2201.7,531.13L2204.14,481.89L2206.58,530.37L2209.01,508.5L2211.45,465.47L2213.88,509.67L2216.32,455.74L2218.75,485.9L2221.19,464.54L2223.62,392.14L2226.06,372.85L2228.5,280.4L2230.93,298L2233.37,170.42L2235.8,180.03L2238.24,53.14L2240.67,73.1L2243.11,116.72L2245.54,96.63L2247.98,131.87L2250.41,105.93L2252.85,113.43L2255.29,106.59L2257.72,139.62L2260.16,140.94L2262.59,147.09L2265.03,163.51L2267.46,152.81L2269.9,160.92L2272.33,163.95L2274.77,169.27L2277.21,171.55L2279.64,176.24L2282.08,177.95L2284.51,182.17L2286.95,183.24L2289.38,187.17L2291.82,187.45L2294.25,191.32L2296.69,190.7L2299.13,194.75L2301.56,193.24L2304,197.56L2306.43,195.33L2308.87,199.86L2311.3,197.18L2313.74,201.7L2316.17,198.94L2318.61,203.16L2321.04,200.7L2323.48,204.29L2325.92,202.47L2328.35,205.16L2330.79,194.96L2333.22,193.65L2335.66,199.48L2338.09,199.77L2340.53,207.3L2342.96,206.91L2345.4,208.98L2347.84,206.38L2350.27,210.39L2352.71,198.56L2355.14,201.9L2357.58,210.06L2360.01,203.38L2362.45,212.44L2364.88,210.26L2367.32,217.1L2369.76,201.85L2372.19,204.75L2374.63,210.18L2377.06,211.51L2379.5,222.79L2381.93,213.92L2384.37,225.42L2386.8,217.48L2389.24,226.69L2391.67,221.88L2394.11,233.14L2396.55,230.86L2398.98,225.59L2403.85,210.23L2406.29,223.55L2408.72,219.36L2411.16,229.33L2413.59,228.6L2416.03,238.32L2418.47,233.59L2420.9,239.94L2423.34,237.46L2425.77,246.3L2428.21,246.48L2430.64,241.49L2433.08,251.83L2435.51,255.33L2437.95,255.11L2440.39,256.21L2442.82,256.36L2445.26,248.51L2447.69,236.6L2450.13,254.39L2452.56,232.37L2455,243.37L2457.43,265.09L2459.87,274.98L2464.74,284.05L2467.18,307.2L2469.61,302.77L2472.05,308.61L2474.48,332.33L2476.92,366.07L2481.79,434.9L2484.22,674.02L2486.66,756.2L2489.1,692.16L2493.97,646.16L2496.4,635.55L2498.84,625.26L2501.27,585.82L2503.71,598.86L2506.14,590.92L2511.01,579.28L2513.45,575.17L2520.76,566.85L2523.19,564.8L2540.24,552.47L2542.68,550.86L2547.55,547.74L2549.98,566.46L2552.42,565.39L2554.85,558.31L2557.29,561.53L2559.73,558.45L2562.16,554.25L2564.6,556.09L2567.03,536.35L2569.47,539.58L2571.9,533.77L2574.34,536.39L2576.77,531.36L2579.21,532.87L2581.64,529.17L2584.08,529.18L2588.95,525.58L2591.39,524.5L2593.82,530.1L2596.26,530.38L2598.69,524.98L2601.13,524.71L2603.56,518.34L2606,517.18" style="vector-effect: non-scaling-stroke; fill: none; stroke: rgb(170, 0, 0); stroke-opacity: 1; stroke-width: 4px; opacity: 1;"/></g><g class="points"/><g class="text"/></g><g class="trace scatter trace78bfb7" style="stroke-miterlimit: 2; opacity: 1;"><g class="fills"/><g class="errorbars"/><g class="lines"><path class="js-line" d="M0,536.08L2.44,521.64L4.87,532.95L7.31,533.89L9.74,505.19L12.18,513.12L14.61,509.39L17.05,514.48L19.48,511.05L24.36,531.42L26.79,502.1L29.23,510.54L31.66,507.35L34.1,518.17L36.53,513.41L38.97,502.31L41.4,514.58L43.84,534.44L46.27,500.82L48.71,508.65L51.15,508.78L53.58,514.58L56.02,515.07L58.45,507.96L60.89,520.71L63.32,515.76L65.76,519.77L68.19,540.67L70.63,527.86L73.07,524.02L75.5,528.48L77.94,557.14L80.37,538.82L82.81,529.89L85.24,539.21L87.68,542.36L90.11,540.28L92.55,532.86L94.99,550.08L97.42,581.78L99.86,563.75L102.29,557.46L104.73,559.86L109.6,564.15L112.03,568.89L114.47,564.2L116.9,554.81L119.34,571.51L121.78,610.61L124.21,595L126.65,593.69L129.08,561.46L131.52,578.6L133.95,616.41L136.39,595.02L138.82,597.66L141.26,590.71L143.7,616L146.13,588.21L148.57,596.84L151,596.39L153.44,605.55L155.87,619.64L158.31,587.16L160.74,594.77L163.18,595.1L165.61,603.6L168.05,617.33L170.49,594.54L172.92,608.59L175.36,595.64L177.79,601.24L180.23,601.49L182.66,589.48L185.1,586.03L187.53,586.77L189.97,583.38L192.41,583.77L194.84,576.53L197.28,570.15L199.71,576.36L202.15,566.61L204.58,576.13L207.02,571.64L209.45,587.64L211.89,571.58L214.33,581.33L216.76,580.73L219.2,563L221.63,559.11L224.07,550.06L226.5,555.68L228.94,543.55L231.37,551.39L233.81,547.82L236.24,558.38L238.68,544.63L241.12,552.08L243.55,556.17L245.99,525.92L248.42,520.26L250.86,511.98L253.29,510.92L255.73,505.26L258.16,503.89L260.6,495.06L263.04,490L265.47,487.62L267.91,430.11L270.34,427.19L272.78,405.62L275.21,367.75L277.65,298.15L280.08,143.3L282.52,72.11L284.96,51.74L287.39,83.41L289.83,115.33L292.26,125.76L294.7,153.45L297.13,161.57L299.57,159.97L302,183.66L304.44,182.96L306.87,196.72L309.31,189.06L311.75,205.87L314.18,200.54L316.62,204.98L319.05,230.83L321.49,227.74L323.92,239.32L326.36,228.68L328.79,231.27L331.23,219.82L333.67,231.19L336.1,224.64L338.54,221.99L340.97,246.5L343.41,243.76L345.84,250.89L348.28,240.67L350.71,240.09L353.15,228.11L355.59,237.65L360.46,225.29L362.89,242.92L365.33,241.97L367.76,243.01L370.2,241.98L372.63,242.83L375.07,252.82L377.5,250.18L379.94,248.23L382.38,251.71L384.81,241.95L387.25,239.02L389.68,225.81L392.12,234.42L396.99,220.27L399.42,237.46L401.86,235.89L404.3,235.8L406.73,234.18L409.17,233.99L411.6,232.34L414.04,232.08L416.47,230.42L418.91,230.13L421.34,228.48L423.78,228.2L426.21,226.57L428.65,226.37L431.09,224.76L433.52,224.69L435.96,223.12L438.39,223.24L440.83,221.72L443.26,222.08L445.7,220.62L448.13,221.23L450.57,219.85L453.01,220.71L455.44,234.03L457.88,232.14L462.75,229.28L465.18,225.73L470.05,206.32L472.49,216.15L474.93,200.92L477.36,205.52L479.8,222.45L482.23,222.97L489.54,224.6L491.97,226.69L494.41,226.2L496.84,228.58L499.28,228.15L501.72,230.47L504.15,230.41L506.59,232.44L509.02,232.86L511.46,243.31L513.89,251.93L516.33,244.36L518.76,249.75L521.2,243.41L523.64,239.04L526.07,228.29L528.51,241.89L530.94,222.24L533.38,232.44L535.81,249.94L538.25,251.08L540.68,253.48L543.12,262.91L545.56,264.4L550.43,269.88L552.86,268.05L555.3,263.93L557.73,255.33L560.17,269.76L562.6,254.09L565.04,264.34L567.47,293.8L569.91,298.76L572.35,316.53L574.78,314.88L577.22,354.96L579.65,383.2L582.09,427.03L584.52,477.88L586.96,733.53L589.39,736.41L591.83,697.47L594.27,687.49L596.7,644.91L599.14,644.21L601.57,623.83L604.01,622.87L606.44,614.02L608.88,614.07L611.31,621.79L613.75,601.6L616.19,622.26L621.06,569.67L623.49,573.62L625.93,565.22L628.36,573.76L630.8,574.42L633.23,589.63L635.67,569.53L638.1,592.4L640.54,564.68L642.98,548.75L645.41,555.61L647.85,545.4L652.72,559.27L655.15,563.34L657.59,544.26L660.02,558.65L662.46,552.79L664.9,531.39L667.33,538.75L669.77,533.46L672.2,539.4L674.64,533.98L677.07,553.01L679.51,557.02L681.94,530.19L684.38,535.17L686.81,532.73L689.25,549.06L691.69,556.93L694.12,529.8L696.56,535.31L698.99,530.31L701.43,549.36L703.86,551.35L706.3,528.58L708.73,537.11L711.17,536.21L713.61,547.52L718.48,534.77L720.91,556.71L723.35,561.97L725.78,535.74L728.22,546.1L730.65,536.96L733.09,557.75L735.53,550.66L737.96,541.79L740.4,561.95L745.27,546.36L747.7,566.38L750.14,560.06L752.57,550.55L755.01,559.09L757.44,545.54L759.88,552.2L762.32,573.86L764.75,573.9L767.19,595.91L769.62,583.79L772.06,565.8L774.49,550.04L776.93,558.99L779.36,580.12L781.8,562.71L784.24,562.71L786.67,570.3L789.11,589.25L791.54,573.67L796.41,563.76L798.85,593.96L801.28,583.38L803.72,563.82L806.16,564.14L808.59,568.16L811.03,562.36L813.46,575.98L815.9,587.64L818.33,569.62L820.77,563.68L823.2,563.73L825.64,558.83L828.07,539.33L830.51,562.26L832.95,561.73L847.56,557.16L849.99,556.22L901.14,534.9L903.58,533.83L918.19,528.53L920.62,527.95L947.41,522.76L949.85,521.75L966.9,514.75L969.33,514.43L974.21,514.81L976.64,515.54L983.95,519.76L986.38,521.6L991.25,524.68L993.69,525.01L996.13,523.58L998.56,519.39L1001,511.26L1003.43,497.98L1008.3,452.3L1010.74,419.56L1022.92,225.79L1025.35,199.21L1030.22,168.94L1032.66,163.58L1035.09,162.72L1037.53,164.74L1052.14,185.58L1054.58,187.58L1061.88,191.73L1064.32,192.81L1078.93,200.08L1081.37,201.47L1095.98,208.36L1098.42,209.53L1105.72,214.05L1108.16,216L1117.9,225.83L1120.34,228.65L1132.51,241.28L1134.95,243.4L1142.26,250.52L1144.69,253.57L1159.3,271.41L1161.74,274.4L1176.35,294.91L1178.79,300.77L1183.66,318.46L1186.1,328.4L1188.53,335.64L1190.97,337.47L1193.4,336.31L1195.84,346.84L1198.27,394.25L1200.71,485.86L1205.58,693.91L1208.01,685.63L1210.45,671.16L1212.89,676.09L1217.76,650.37L1220.19,647.41L1225.06,622.16L1227.5,616.87L1229.93,614.11L1232.37,626.08L1237.24,603.14L1239.68,607.15L1244.55,596.55L1246.98,594.77L1249.42,588.12L1251.85,606.15L1256.73,580.43L1259.16,586.69L1266.47,571.18L1268.9,569.56L1271.34,581.21L1273.77,581.53L1276.21,558.29L1278.64,556.83L1281.08,556.39L1283.52,562.43L1285.95,559.74L1288.39,548.94L1290.82,544.14L1293.26,548.28L1295.69,550.46L1298.13,534.52L1300.56,537.66L1303,544.09L1305.44,538.66L1307.87,530.79L1312.74,529.42L1315.18,534.09L1320.05,519.59L1322.48,534.62L1324.92,540.43L1327.36,517.5L1329.79,520.7L1332.23,513.39L1334.66,531.5L1337.1,521.5L1339.53,512.49L1341.97,530.97L1346.84,515.44L1349.27,531.55L1354.15,520.79L1356.58,532.78L1361.45,526.87L1363.89,535.18L1366.32,534.88L1368.76,533.02L1373.63,542.53L1376.07,536.98L1378.5,550.59L1380.94,548.37L1383.37,554.98L1385.81,569.24L1388.24,549.87L1390.68,557.54L1393.11,553.01L1395.55,564.68L1397.99,555.06L1400.42,559.33L1402.86,589.19L1405.29,572.76L1407.73,562.29L1410.16,565.74L1412.6,596.78L1415.03,579.94L1417.47,568.57L1419.9,570.93L1422.34,602.32L1424.78,585.67L1427.21,573.46L1429.65,574.47L1432.08,605.63L1434.52,589.65L1436.95,576.65L1439.39,576.09L1441.82,606.8L1444.26,591.77L1446.7,578L1449.13,575.8L1451.57,606.1L1454,592.09L1456.44,577.44L1458.87,573.79L1461.31,603.81L1463.74,590.68L1466.18,574.98L1468.61,570.38L1471.05,600.12L1473.49,587.62L1475.92,570.74L1478.36,565.76L1480.79,594.96L1483.23,582.91L1485.66,581.77L1488.1,596.38L1490.53,583.54L1492.97,579.5L1497.84,550.71L1500.28,573.32L1505.15,541.01L1507.58,564.67L1512.45,530.26L1514.89,552.35L1519.76,517.01L1522.2,531.85L1527.07,493.52L1529.5,496.83L1531.94,458.15L1534.37,440.33L1539.24,366.83L1541.68,199.04L1544.12,59.1L1546.55,84.87L1548.99,99.3L1551.42,124.54L1553.86,150.72L1556.29,155.95L1558.73,192.22L1561.16,185.23L1563.6,186.86L1566.04,224.04L1568.47,217.65L1570.91,221.86L1573.34,208.44L1575.78,231.12L1578.21,208.32L1580.65,222.59L1585.52,255.86L1587.96,257.95L1590.39,257.86L1592.83,266.61L1595.26,258.14L1597.7,255.11L1600.13,245.14L1602.57,257.61L1605,244.12L1607.44,245.07L1609.87,266.63L1612.31,267.76L1614.75,269.96L1617.18,270.39L1624.49,278.55L1626.92,279.13L1629.36,286.84L1631.79,280.55L1634.23,275.79L1636.67,267.28L1639.1,277.2L1641.54,266.01L1643.97,263.8L1646.41,285.8L1648.84,287.39L1651.28,287.69L1656.15,296.82L1658.59,291.06L1661.02,290.58L1663.46,273.84L1665.89,290.67L1668.33,273.97L1670.76,275.55L1673.2,295.71L1678.07,296.81L1680.5,301.89L1682.94,309.17L1685.38,304.64L1687.81,303.47L1690.25,290.85L1692.68,304.99L1695.12,301.04L1697.55,293.98L1699.99,323.29L1702.42,316.81L1704.86,324.47L1707.3,331.59L1709.73,335.47L1712.17,352.18L1714.6,355.07L1717.04,312.25L1719.47,366.55L1721.91,310.95L1724.34,353.35L1726.78,354.77L1729.21,400.53L1731.65,393.76L1734.09,452L1736.52,463.11L1738.96,560.47L1741.39,537.14L1743.83,655.36L1746.26,590.83L1748.7,688.89L1751.13,617.77L1753.57,681.28L1756.01,624.83L1758.44,660.97L1760.88,621.09L1763.31,640.34L1765.75,610.54L1768.18,621.52L1770.62,601.09L1773.05,601.14L1775.49,590.74L1777.93,601.12L1780.36,605.93L1782.8,585.97L1785.23,586.5L1787.67,589.25L1790.1,575.52L1792.54,569.48L1794.97,565.55L1797.41,564.4L1802.28,556.54L1804.72,555.66L1807.15,553.66L1809.59,545.81L1812.02,549.15L1814.46,549.66L1816.89,551.45L1819.33,544.29L1821.76,540.73L1824.2,556.31L1826.64,535.93L1829.07,550.14L1831.51,540.35L1833.94,550.59L1836.38,540.8L1838.81,551.65L1841.25,542.15L1843.68,553.23L1846.12,544.32L1848.56,555.28L1850.99,550.18L1853.43,559.52L1855.86,553.21L1858.3,564.03L1860.73,559.26L1863.17,559.05L1865.6,581.11L1868.04,570.86L1870.47,570.39L1872.91,583.85L1875.35,571.15L1877.78,569.7L1880.22,577.01L1882.65,576.23L1885.09,570.27L1887.52,590.18L1889.96,584.26L1892.39,586.77L1894.83,602.1L1897.27,575.39L1899.7,595.11L1902.14,589.52L1904.57,591.67L1907.01,612.63L1909.44,582.15L1911.88,601.77L1914.31,599.19L1916.75,576.57L1919.19,599.89L1921.62,598.3L1924.06,597.56L1926.49,619.45L1928.93,591.93L1931.36,608.05L1933.8,609.46L1936.23,582.87L1938.67,604.75L1941.1,609.67L1943.54,604.84L1945.98,630.1L1948.41,604.63L1950.85,616.1L1953.28,621.75L1955.72,592.67L1958.15,614.14L1960.59,621.51L1963.02,617.14L1965.46,643.06L1967.9,616.78L1970.33,628.33L1972.77,631.74L1975.2,606.15L1977.64,627.06L1980.07,627.97L1982.51,632.49L1984.94,643.87L1987.38,616.77L1989.81,632.16L1992.25,627.1L1994.69,638.63L1997.12,638.64L1999.56,616.77L2001.99,629.73L2004.43,621.39L2006.86,637.19L2009.3,628.5L2011.73,618.25L2014.17,628.8L2016.61,607.6L2019.04,618.78L2021.48,608.65L2023.91,603.34L2026.35,593.12L2028.78,594.52L2031.22,603.75L2033.65,585.07L2036.09,596.44L2038.53,587.37L2045.83,557.11L2048.27,548.89L2050.7,551.58L2053.14,538.97L2055.57,523.85L2058.01,527.75L2065.32,514.2L2067.75,509.88L2072.62,504.04L2075.06,502.63L2084.8,499.89L2087.24,499.48L2094.54,499.86L2096.98,500.64L2104.28,504.83L2106.72,506.7L2121.33,519.93L2123.77,522.18L2126.2,525.18L2128.64,517.52L2131.07,507.41L2133.51,530.71L2135.95,545.51L2138.38,524.02L2140.82,521.39L2143.25,513.47L2148.12,555.46L2150.56,535.08L2152.99,525.68L2155.43,545.48L2167.61,550.47L2170.04,551.11L2177.35,552.03L2179.79,551.91L2184.66,550.83L2187.09,549.75L2191.96,546.19L2194.4,543.54L2199.27,535.96L2201.7,530.79L2206.58,517.04L2209.01,508.17L2213.88,485.83L2216.32,472.18L2223.62,421.13L2226.06,401.09L2245.54,235.25L2247.98,220.44L2252.85,197.99L2255.29,190.32L2257.72,183.88L2260.16,190.98L2262.59,180.06L2265.03,188.39L2267.46,154.87L2269.9,158.96L2272.33,147.34L2274.77,152.41L2279.64,158.14L2282.08,161.55L2284.51,162.79L2286.95,166.16L2289.38,166.71L2291.82,158.32L2294.25,157.66L2296.69,166.22L2299.13,167.86L2301.56,176.23L2304,175.27L2306.43,178.19L2308.87,174.52L2311.3,180.89L2313.74,178.86L2316.17,186.35L2318.61,198.83L2321.04,192.58L2323.48,197.93L2325.92,193.01L2328.35,183.87L2330.79,196.94L2333.22,196.75L2335.66,201.27L2357.58,207.1L2360.01,208.25L2367.32,213.55L2369.76,216.03L2377.06,225.65L2379.5,229.25L2381.93,232.72L2384.37,210.07L2386.8,210.77L2389.24,229.23L2391.67,229.62L2394.11,234.07L2396.55,237.23L2398.98,237.24L2401.42,247.49L2403.85,247.44L2406.29,262.31L2408.72,255.3L2411.16,256.31L2413.59,281.17L2416.03,274.85L2418.47,279.66L2420.9,275.05L2423.34,284.28L2428.21,264.5L2430.64,290L2433.08,283.83L2435.51,292.66L2440.39,271.91L2442.82,301.46L2445.26,296.73L2447.69,302.08L2450.13,288.17L2452.56,296.04L2455,309.83L2457.43,302.18L2459.87,290.16L2462.3,324.36L2464.74,333.43L2467.18,336.38L2469.61,335.21L2472.05,356.7L2474.48,380.42L2476.92,361.28L2479.35,413.17L2481.79,500.8L2484.22,590.96L2486.66,732.14L2489.1,722.21L2491.53,725.43L2493.97,705.29L2496.4,662.63L2498.84,675.54L2501.27,660.15L2503.71,663.73L2506.14,657.01L2508.58,637.12L2511.01,644.43L2513.45,630.97L2515.89,632.49L2518.32,630.33L2520.76,623.44L2525.63,612.34L2528.06,611.4L2530.5,622.3L2532.93,610.82L2535.37,601.36L2537.81,607.75L2542.68,597.03L2545.11,595.91L2547.55,590.06L2549.98,605.37L2554.85,582.04L2557.29,587.27L2564.6,571.96L2567.03,570.45L2569.47,580.32L2571.9,580.97L2574.34,559.23L2576.77,558.27L2579.21,557.08L2581.64,562.27L2584.08,564.81L2586.52,546.5L2591.39,543.01L2593.82,546.43L2596.26,545.49L2598.69,535.1L2601.13,531.47L2603.56,535.02L2606,548.53" style="vector-effect: non-scaling-stroke; fill: none; stroke: rgb(0, 170, 0); stroke-opacity: 1; stroke-width: 4px; opacity: 1;"/></g><g class="points"/><g class="text"/></g></g></g><g class="overplot"/><path class="xlines-above crisp" d="M0,0" style="fill: none;"/><path class="ylines-above crisp" d="M0,0" style="fill: none;"/><g class="overlines-above"/><g class="xaxislayer-above"><g class="xtick"><text text-anchor="middle" x="0" y="934" transform="translate(136,0)" style="font-family: 'Open Sans', verdana, arial, sans-serif; font-size: 37px; fill: rgb(42, 63, 95); fill-opacity: 1; white-space: pre; opacity: 1;">0</text></g><g class="xtick"><text text-anchor="middle" x="0" y="934" style="font-family: 'Open Sans', verdana, arial, sans-serif; font-size: 37px; fill: rgb(42, 63, 95); fill-opacity: 1; white-space: pre; opacity: 1;" transform="translate(623.1,0)">200</text></g><g class="xtick"><text text-anchor="middle" x="0" y="934" style="font-family: 'Open Sans', verdana, arial, sans-serif; font-size: 37px; fill: rgb(42, 63, 95); fill-opacity: 1; white-space: pre; opacity: 1;" transform="translate(1110.21,0)">400</text></g><g class="xtick"><text text-anchor="middle" x="0" y="934" style="font-family: 'Open Sans', verdana, arial, sans-serif; font-size: 37px; fill: rgb(42, 63, 95); fill-opacity: 1; white-space: pre; opacity: 1;" transform="translate(1597.31,0)">600</text></g><g class="xtick"><text text-anchor="middle" x="0" y="934" style="font-family: 'Open Sans', verdana, arial, sans-serif; font-size: 37px; fill: rgb(42, 63, 95); fill-opacity: 1; white-space: pre; opacity: 1;" transform="translate(2084.41,0)">800</text></g><g class="xtick"><text text-anchor="middle" x="0" y="934" style="font-family: 'Open Sans', verdana, arial, sans-serif; font-size: 37px; fill: rgb(42, 63, 95); fill-opacity: 1; white-space: pre; opacity: 1;" transform="translate(2571.51,0)">1000</text></g></g><g class="yaxislayer-above"><g class="ytick"><text text-anchor="end" x="135" y="12.95" transform="translate(0,876.03)" style="font-family: 'Open Sans', verdana, arial, sans-serif; font-size: 37px; fill: rgb(42, 63, 95); fill-opacity: 1; white-space: pre; opacity: 1;">−15</text></g><g class="ytick"><text text-anchor="end" x="135" y="12.95" style="font-family: 'Open Sans', verdana, arial, sans-serif; font-size: 37px; fill: rgb(42, 63, 95); fill-opacity: 1; white-space: pre; opacity: 1;" transform="translate(0,740.8)">−10</text></g><g class="ytick"><text text-anchor="end" x="135" y="12.95" style="font-family: 'Open Sans', verdana, arial, sans-serif; font-size: 37px; fill: rgb(42, 63, 95); fill-opacity: 1; white-space: pre; opacity: 1;" transform="translate(0,605.5799999999999)">−5</text></g><g class="ytick"><text text-anchor="end" x="135" y="12.95" style="font-family: 'Open Sans', verdana, arial, sans-serif; font-size: 37px; fill: rgb(42, 63, 95); fill-opacity: 1; white-space: pre; opacity: 1;" transform="translate(0,470.35)">0</text></g><g class="ytick"><text text-anchor="end" x="135" y="12.95" style="font-family: 'Open Sans', verdana, arial, sans-serif; font-size: 37px; fill: rgb(42, 63, 95); fill-opacity: 1; white-space: pre; opacity: 1;" transform="translate(0,335.12)">5</text></g><g class="ytick"><text text-anchor="end" x="135" y="12.95" style="font-family: 'Open Sans', verdana, arial, sans-serif; font-size: 37px; fill: rgb(42, 63, 95); fill-opacity: 1; white-space: pre; opacity: 1;" transform="translate(0,199.9)">10</text></g></g><g class="overaxes-above"/></g></g><g class="polarlayer"/><g class="ternarylayer"/><g class="geolayer"/><g class="funnelarealayer"/><g class="pielayer"/><g class="iciclelayer"/><g class="treemaplayer"/><g class="sunburstlayer"/><g class="glimages"/><defs id="topdefs-063991"><g class="clips"/><clipPath id="legend063991"><rect width="694" height="113" x="0" y="0"/></clipPath></defs><g class="layer-above"><g class="imagelayer"/><g class="shapelayer"/></g><g class="infolayer"><g class="legend" pointer-events="all" transform="translate(2794.12,100)"><rect class="bg" shape-rendering="crispEdges" width="694" height="113" x="0" y="0" style="stroke: rgb(68, 68, 68); stroke-opacity: 1; fill: rgb(255, 255, 255); fill-opacity: 1; stroke-width: 0px;"/><g class="scrollbox" transform="" clip-path="url(#legend063991)"><g class="groups"><g class="traces" transform="translate(0,30.55)" style="opacity: 1;"><text class="legendtext" text-anchor="start" x="40" y="14.43" style="font-family: 'Open Sans', verdana, arial, sans-serif; font-size: 37px; fill: rgb(42, 63, 95); fill-opacity: 1; white-space: pre;">Predicted Curvature at Anchors #1</text><g class="layers" style="opacity: 1;"><g class="legendfill"/><g class="legendlines"><path class="js-line" d="M5,0h30" style="fill: none; stroke: rgb(170, 0, 0); stroke-opacity: 1; stroke-width: 4px;"/></g><g class="legendsymbols"><g class="legendpoints"/></g></g><rect class="legendtoggle" x="0" y="-25.55" width="688.125" height="51.1" style="fill: rgb(0, 0, 0); fill-opacity: 0;"/></g><g class="traces" transform="translate(0,81.65)" style="opacity: 1;"><text class="legendtext" text-anchor="start" x="40" y="14.43" style="font-family: 'Open Sans', verdana, arial, sans-serif; font-size: 37px; fill: rgb(42, 63, 95); fill-opacity: 1; white-space: pre;">Predicted Curvature at Anchors #2</text><g class="layers" style="opacity: 1;"><g class="legendfill"/><g class="legendlines"><path class="js-line" d="M5,0h30" style="fill: none; stroke: rgb(0, 170, 0); stroke-opacity: 1; stroke-width: 4px;"/></g><g class="legendsymbols"><g class="legendpoints"/></g></g><rect class="legendtoggle" x="0" y="-25.55" width="688.125" height="51.1" style="fill: rgb(0, 0, 0); fill-opacity: 0;"/></g></g></g><rect class="scrollbar" rx="20" ry="3" width="0" height="0" x="0" y="0" style="fill: rgb(128, 139, 164); fill-opacity: 1;"/></g><g class="g-gtitle"/><g class="g-xtitle"><text class="xtitle" x="1439" y="987.8" text-anchor="middle" style="font-family: 'Open Sans', verdana, arial, sans-serif; font-size: 44px; fill: rgb(42, 63, 95); opacity: 1; font-weight: normal; white-space: pre;">Anchor Point Index</text></g><g class="g-ytitle" transform="translate(32.1279296875,0)"><text class="ytitle" transform="rotate(-90,11.871875000000003,498)" x="11.871875000000003" y="498" text-anchor="middle" style="font-family: 'Open Sans', verdana, arial, sans-serif; font-size: 44px; fill: rgb(42, 63, 95); opacity: 1; font-weight: normal; white-space: pre;">Predicted Curvature</text></g><g class="annotation" data-index="0" style="opacity: 1;"><g class="annotation-text-g" transform="rotate(0,1439,66.49999999999993)"><g class="cursor-pointer" transform="translate(222,33)"><rect class="bg" x="0.5" y="0.5" width="2433" height="66" style="stroke-width: 1px; stroke: rgb(0, 0, 0); stroke-opacity: 0; fill: rgb(0, 0, 0); fill-opacity: 0;"/><text class="annotation-text" text-anchor="middle" x="1217.03125" y="54" style="font-family: 'Open Sans', verdana, arial, sans-serif; font-size: 52px; fill: rgb(42, 63, 95); fill-opacity: 1; white-space: pre;"><tspan style="font-weight:bold">Predicted Curvature at Anchors (Transformed Curve #1 vs. Transformed Curve #2)</tspan></text></g></g></g></g></svg>