<svg class="main-svg" xmlns="http://www.w3.org/2000/svg" xmlns:xlink="http://www.w3.org/1999/xlink" width="3500" height="1000" style="" viewBox="0 0 3500 1000"><rect x="0" y="0" width="3500" height="1000" style="fill: rgb(255, 255, 255); fill-opacity: 1;"/><defs id="defs-da2c1d"><g class="clips"><clipPath id="clipda2c1dxyplot" class="plotclip"><rect width="2606" height="796"/></clipPath><clipPath class="axesclip" id="clipda2c1dx"><rect x="136" y="0" width="2606" height="1000"/></clipPath><clipPath class="axesclip" id="clipda2c1dy"><rect x="0" y="100" width="3500" height="796"/></clipPath><clipPath class="axesclip" id="clipda2c1dxy"><rect x="136" y="100" width="2606" height="796"/></clipPath></g><g class="gradients"/><g class="patterns"/></defs><g class="bglayer"><rect class="bg" x="136" y="100" width="2606" height="796" style="fill: rgb(229, 236, 246); fill-opacity: 1; stroke-width: 0;"/></g><g class="layer-below"><g class="imagelayer"/><g class="shapelayer"/></g><g class="cartesianlayer"><g class="subplot xy"><g class="layer-subplot"><g class="shapelayer"/><g class="imagelayer"/></g><g class="gridlayer"><g class="x"><path class="xgrid crisp" transform="translate(461.75,0)" d="M0,100v796" style="stroke: rgb(255, 255, 255); stroke-opacity: 1; stroke-width: 1px;"/><path class="xgrid crisp" transform="translate(787.5,0)" d="M0,100v796" style="stroke: rgb(255, 255, 255); stroke-opacity: 1; stroke-width: 1px;"/><path class="xgrid crisp" transform="translate(1113.25,0)" d="M0,100v796" style="stroke: rgb(255, 255, 255); stroke-opacity: 1; stroke-width: 1px;"/><path class="xgrid crisp" transform="translate(1439,0)" d="M0,100v796" style="stroke: rgb(255, 255, 255); stroke-opacity: 1; stroke-width: 1px;"/><path class="xgrid crisp" transform="translate(1764.75,0)" d="M0,100v796" style="stroke: rgb(255, 255, 255); stroke-opacity: 1; stroke-width: 1px;"/><path class="xgrid crisp" transform="translate(2090.5,0)" d="M0,100v796" style="stroke: rgb(255, 255, 255); stroke-opacity: 1; stroke-width: 1px;"/><path class="xgrid crisp" transform="translate(2416.25,0)" d="M0,100v796" style="stroke: rgb(255, 255, 255); stroke-opacity: 1; stroke-width: 1px;"/></g><g class="y"><path class="ygrid crisp" transform="translate(0,827.39)" d="M136,0h2606" style="stroke: rgb(255, 255, 255); stroke-opacity: 1; stroke-width: 1px;"/><path class="ygrid crisp" transform="translate(0,724.27)" d="M136,0h2606" style="stroke: rgb(255, 255, 255); stroke-opacity: 1; stroke-width: 1px;"/><path class="ygrid crisp" transform="translate(0,621.16)" d="M136,0h2606" style="stroke: rgb(255, 255, 255); stroke-opacity: 1; stroke-width: 1px;"/><path class="ygrid crisp" transform="translate(0,414.94)" d="M136,0h2606" style="stroke: rgb(255, 255, 255); stroke-opacity: 1; stroke-width: 1px;"/><path class="ygrid crisp" transform="translate(0,311.82)" d="M136,0h2606" style="stroke: rgb(255, 255, 255); stroke-opacity: 1; stroke-width: 1px;"/><path class="ygrid crisp" transform="translate(0,208.70999999999998)" d="M136,0h2606" style="stroke: rgb(255, 255, 255); stroke-opacity: 1; stroke-width: 1px;"/><path class="ygrid crisp" transform="translate(0,105.6)" d="M136,0h2606" style="stroke: rgb(255, 255, 255); stroke-opacity: 1; stroke-width: 1px;"/></g></g><g class="zerolinelayer"><path class="xzl zl crisp" transform="translate(136,0)" d="M0,100v796" style="stroke: rgb(255, 255, 255); stroke-opacity: 1; stroke-width: 2px;"/><path class="yzl zl crisp" transform="translate(0,518.05)" d="M136,0h2606" style="stroke: rgb(255, 255, 255); stroke-opacity: 1; stroke-width: 2px;"/></g><path class="xlines-below"/><path class="ylines-below"/><g class="overlines-below"/><g class="xaxislayer-below"/><g class="yaxislayer-below"/><g class="overaxes-below"/><g class="plot" transform="translate(136,100)" clip-path="url(#clipda2c1dxyplot)"><g class="scatterlayer mlayer"><g class="trace scatter trace0032a1" style="stroke-miterlimit: 2; opacity: 1;"><g class="fills"/><g class="errorbars"/><g class="lines"><path class="js-line" d="M0,716.5L3.26,720.75L6.52,719.96L19.54,738.53L22.8,735.27L29.32,740.64L32.57,742.07L35.83,744.52L39.09,741.66L42.35,742.98L45.61,742.54L55.38,745.3L58.64,751.06L61.89,744.99L65.15,747.24L68.41,746.29L71.66,747.74L74.92,748.27L78.18,744.78L84.7,742.87L87.95,741.51L100.98,737.76L104.24,736.38L107.5,736.08L110.76,734.52L114.01,734.71L117.27,733.04L120.53,733.73L123.79,732.02L127.04,733.2L130.3,731.55L133.56,733.18L136.82,731.67L140.07,733.7L143.33,732.42L146.59,734.8L149.85,733.88L153.1,736.5L156.36,736.11L159.62,738.81L162.88,739.2L169.39,743.23L172.65,743.8L175.91,748.26L179.16,750.27L182.42,755.18L185.68,755.92L188.94,754.89L192.19,750.93L195.45,750.14L198.71,735.95L201.97,697.84L205.22,646.95L214.99,521.53L218.25,460.79L224.77,320.92L228.02,261.01L231.28,257.66L234.54,229.18L237.8,210.5L241.05,181.12L244.31,150.66L247.57,143.67L250.83,100.92L254.08,84.66L257.34,71.37L260.6,72.46L263.86,66.75L267.12,54.61L273.63,41.65L276.89,47.31L280.15,42.14L283.4,46.69L286.66,42.51L289.92,47.38L296.43,43.2L299.69,53.45L302.95,51.42L306.21,56.19L309.46,47.16L312.72,59.43L315.98,57.04L319.23,61.95L322.49,44.85L325.75,60.25L329.01,56.17L332.27,80.8L335.52,69.86L338.78,46.44L342.04,68.14L345.29,64.09L348.55,83.1L351.81,79.6L355.07,64.76L358.33,85.33L361.58,70.74L364.84,78.86L368.1,96L371.35,84.98L374.61,88.02L377.87,102.86L381.13,103.66L384.39,116.34L387.64,123.94L390.9,125.6L394.16,156.5L397.42,159.16L410.45,284.55L413.7,335.05L426.73,484.89L429.99,507.08L433.25,526.54L436.51,539.74L439.76,547.81L443.02,570.5L446.28,583.64L449.54,586.87L452.79,607.37L456.05,609.48L462.57,619.57L465.82,627.77L469.08,627.3L472.34,636.48L475.6,649.93L478.85,657.28L482.11,673.03L485.37,672.74L488.63,661.8L491.88,676.82L495.14,663.42L498.4,678.61L501.66,690.55L504.91,695.9L508.17,707.82L511.43,701.93L514.68,708.24L517.94,716.86L521.2,708.73L524.46,718.38L527.71,726.25L530.97,715.67L534.23,729.14L537.49,728.83L540.75,723.45L544,736.39L547.26,739.51L550.52,738.53L553.78,737.04L557.03,743.83L560.29,743.55L563.55,748.58L566.8,742.63L570.06,744.67L573.32,748.04L576.58,744.14L579.83,751.05L583.09,741.81L586.35,744.05L589.61,749.02L592.87,742.19L596.12,748.73L599.38,736.77L602.64,733.17L605.9,745.66L609.15,732.02L612.41,739.07L615.67,731.4L618.92,727.18L622.18,732.07L625.44,717.87L628.7,710.72L631.95,729.1L635.21,709.4L638.47,716.48L641.73,713.17L644.99,701.59L648.24,709.85L651.5,706.45L654.76,699.41L658.02,707.2L661.27,692.59L664.53,697.13L667.79,707.31L671.05,692.73L674.3,701.31L677.56,687.48L680.82,692.68L684.08,698.16L687.33,685.21L690.59,692.62L693.85,689.7L697.11,692.76L700.36,698.37L703.62,700.67L706.88,697.86L710.14,700.26L713.39,697.58L716.65,700.06L719.91,697.5L723.17,700.04L726.42,697.61L729.68,696.48L732.94,693.23L736.2,695.56L739.45,695.47L742.71,696.66L745.97,691.22L749.22,700.64L752.48,696.31L755.74,696.12L759,699.9L762.26,695.66L765.51,705.16L768.77,701.46L772.03,695.73L775.29,701.09L778.54,695.12L781.8,704.84L785.06,708.13L788.32,700.51L791.57,707.31L794.83,707.85L798.09,710.4L801.34,716.65L804.6,714.74L807.86,711.87L811.12,715.13L814.38,702.4L817.63,715.78L820.89,717.66L824.15,711.48L827.41,721.49L830.66,724.21L837.18,736.39L840.44,738.42L843.69,738.04L846.95,741.61L853.46,748.52L856.72,750.03L863.24,751.62L866.5,736.19L869.75,699.93L873.01,687.62L886.04,555.93L889.3,510.33L892.56,477.09L895.81,424.25L902.33,294.44L905.58,271.76L908.84,257.92L912.1,222.51L915.36,199.78L918.62,188.53L921.87,130.09L925.13,145.96L928.39,82.18L931.65,85.45L934.9,77.88L938.16,79.11L941.42,77.41L944.68,53.23L947.93,60.54L951.19,50.01L954.45,56.75L957.71,59.07L964.22,51.72L967.48,53.92L970.73,49.03L973.99,54.69L977.25,65.69L980.51,68.63L987.02,63.77L990.28,56.81L996.8,66.92L1000.05,67.47L1003.31,61.44L1006.57,51.36L1009.83,50.06L1013.08,53.37L1016.34,60.36L1019.6,62.04L1022.85,59.55L1026.11,61.88L1029.37,65.34L1032.63,66.6L1039.14,56.96L1042.4,61.1L1045.66,59.95L1048.92,50.92L1052.17,53.72L1055.43,54.23L1058.69,48.89L1061.95,48.51L1065.2,49.27L1068.46,53.52L1071.72,47.39L1074.97,50.61L1078.23,63.26L1081.49,51.98L1084.75,55.79L1088,73.49L1091.26,58.25L1094.52,64.93L1097.78,89.36L1101.03,69.6L1104.29,62.58L1107.55,86.02L1110.81,66.76L1114.07,57.68L1117.32,68.01L1120.58,57.9L1123.84,55.98L1127.1,58.9L1130.35,53.61L1133.61,54.41L1136.87,57.58L1140.13,53.07L1146.64,53.44L1149.9,51.91L1156.41,58.26L1159.67,57.75L1162.93,61.68L1166.19,68.37L1169.44,68.52L1172.7,72.85L1175.96,79.81L1179.21,82.69L1182.47,83.31L1185.73,89.64L1188.99,89.41L1192.24,102.18L1198.76,116.73L1202.02,137.38L1205.27,143.75L1208.53,144.79L1211.79,136.98L1215.05,174.5L1218.3,183.97L1221.56,172.07L1224.82,200.12L1228.08,170.44L1231.34,172.09L1234.59,177.23L1237.85,184.72L1241.11,195.59L1244.37,210.9L1247.62,272.02L1250.88,293.53L1254.14,334.84L1257.4,355.34L1260.65,368.88L1263.91,414.83L1267.17,428.98L1270.43,488.12L1273.68,512.18L1280.2,567.61L1283.46,582.95L1286.71,611.6L1289.97,619.37L1293.23,635.74L1296.48,642.69L1299.74,660.55L1303,657.88L1306.26,668.37L1309.51,672.05L1312.77,666.09L1316.03,675.46L1319.29,674L1322.54,680.71L1325.8,678.31L1329.06,682.72L1332.32,680.49L1335.58,684.32L1338.83,681.81L1342.09,685.38L1345.35,682.56L1348.61,686.1L1351.86,684.42L1355.12,688.9L1358.38,684.37L1361.64,685.32L1364.89,681.87L1368.15,668.59L1371.41,680.02L1374.67,674.14L1381.18,684.14L1384.44,684.35L1387.7,689.94L1390.95,679.99L1394.21,679.24L1397.47,672.5L1400.73,680.96L1403.98,684.64L1407.24,659.53L1410.5,668.06L1413.76,671.61L1417.01,683.66L1420.27,684.02L1423.53,656.16L1430.04,672.38L1433.3,663.73L1436.56,661.71L1439.81,667.77L1443.07,662.49L1446.33,670.93L1449.59,657.95L1452.85,674.26L1456.1,665.55L1459.36,666.11L1462.62,660.62L1465.88,675.89L1469.13,679.7L1472.39,671.32L1475.65,683.73L1478.91,666.95L1482.16,680.33L1485.42,681.95L1488.68,678.94L1491.94,691.29L1495.19,687.56L1498.45,688.79L1501.71,701.44L1504.97,696.17L1508.22,687.27L1511.48,693.17L1514.74,679.24L1518,696.43L1521.25,693.73L1524.51,681.65L1527.77,694.64L1531.03,691.63L1534.28,691.81L1537.54,704.01L1540.8,701.26L1544.05,693.48L1547.31,705.73L1550.57,702.71L1553.83,695.13L1557.09,707.44L1560.34,704.17L1563.6,696.83L1566.86,709.28L1570.12,705.79L1573.37,698.72L1576.63,711.39L1579.89,707.78L1583.15,700.93L1586.4,713.95L1589.66,710.35L1592.92,703.64L1596.18,717.17L1599.43,713.7L1602.69,707.15L1605.95,721.22L1609.21,717.93L1612.46,711.82L1615.72,726.18L1622.24,715.7L1625.49,727.41L1628.75,726.91L1632.01,723.67L1635.27,733.78L1638.52,734.27L1641.78,733.19L1645.04,741.01L1648.29,746.11L1651.55,743L1654.81,743.13L1658.07,745.23L1661.32,749.69L1664.58,745.95L1667.84,728.76L1671.1,747.44L1674.36,740.04L1677.61,711.23L1680.87,739.99L1684.13,727.37L1687.39,693.84L1690.64,723.15L1693.9,713L1697.16,680.7L1700.42,701.02L1703.67,695.52L1706.93,664.78L1710.19,680.82L1713.45,680.22L1716.7,651.89L1719.96,670.54L1723.22,664.14L1726.48,688.11L1729.73,701.39L1732.99,660.08L1736.25,681.84L1739.51,704.91L1742.76,662.35L1746.02,674.3L1749.28,693.57L1752.54,651.71L1755.79,674.85L1759.05,720.02L1762.31,680.34L1765.56,691.35L1768.82,737.22L1772.08,717.99L1775.34,727.88L1778.59,744.54L1781.85,754.6L1785.11,756.2L1788.37,720.58L1791.63,715.04L1794.88,643.15L1798.14,703.73L1801.4,670.36L1804.66,610.03L1807.91,648.65L1811.17,658.65L1814.43,622.68L1817.69,649.17L1820.94,608.52L1824.2,636.77L1827.46,648.03L1830.72,619.34L1833.97,642.7L1837.23,657.9L1840.49,648.81L1843.75,652.19L1847,643.08L1850.26,657.99L1853.52,656.7L1856.78,647.45L1860.03,662.04L1863.29,666.68L1866.55,661.73L1869.8,664.33L1873.06,662.39L1876.32,670.55L1879.58,667.41L1882.83,660.09L1886.09,668.77L1889.35,666.46L1892.61,672.68L1895.87,666.09L1899.12,673.72L1902.38,676.08L1905.64,665.79L1908.9,673.34L1912.15,672.8L1915.41,677.68L1918.67,671.25L1921.93,676.38L1925.18,678.62L1928.44,670.42L1931.7,677.23L1934.96,677.1L1938.21,681.57L1941.47,675.52L1944.73,680.35L1947.99,677.59L1951.24,683.12L1954.5,677.89L1957.76,679.76L1961.02,681.02L1964.27,670.39L1967.53,678.34L1970.79,668.81L1974.04,671.97L1977.3,682.09L1980.56,671.69L1983.82,679.03L1987.07,669.18L1990.33,669.42L1993.59,683.43L1996.85,671.46L2000.1,679.73L2003.36,672.61L2006.62,673.35L2009.88,676.56L2013.14,672.47L2016.39,677.15L2019.65,683.74L2022.91,674.19L2026.17,671.59L2029.42,689.94L2032.68,682.65L2035.94,688.43L2039.2,680.17L2042.45,677.72L2045.71,689.08L2048.97,682.24L2052.23,687.55L2055.48,681.83L2058.74,685.54L2062,696.78L2065.26,708.75L2068.51,708.2L2071.77,711.39L2075.03,711.82L2078.29,719.59L2081.54,721.8L2084.8,721.83L2088.06,730.59L2091.32,717.66L2094.57,727.05L2097.83,719.46L2101.09,721.48L2114.12,729.26L2117.38,720.46L2120.63,717.8L2123.89,724.1L2130.4,720.07L2133.66,727.22L2136.92,725.99L2140.18,738.42L2143.44,738.93L2146.69,741.45L2149.95,741.32L2153.21,744.04L2156.46,743.73L2159.72,746.19L2162.98,746.05L2166.24,747.96L2169.5,748.14L2172.75,749.43L2176.01,747.33L2179.27,747.61L2182.53,749.05L2185.78,749.17L2189.04,751.94L2192.3,751.88L2195.55,752.05L2198.81,751.15L2205.33,744.39L2208.59,719.9L2218.36,644.73L2221.61,611.17L2228.13,525.73L2231.39,478.33L2241.16,291.43L2244.42,259.21L2247.67,239.11L2250.93,212.59L2257.45,164.24L2260.71,150.24L2267.22,130.64L2270.48,108.84L2273.73,107.43L2276.99,97.95L2280.25,98.82L2283.51,77.62L2286.77,70.68L2290.02,83.04L2293.28,60.05L2296.54,62.22L2299.8,50.97L2303.05,49.92L2306.31,50.34L2309.57,48.56L2316.08,51.77L2319.34,58.69L2329.11,57.3L2332.37,57.28L2335.63,57.53L2338.88,68.87L2342.14,75.99L2345.4,54.1L2348.66,58.92L2351.92,58.64L2355.17,53.8L2358.43,57.05L2364.94,69.72L2368.2,73.73L2371.46,75.67L2374.72,82.09L2377.98,80.35L2381.23,82.95L2384.49,81.18L2387.75,92.79L2391.01,90.61L2394.26,97.1L2397.52,98.23L2400.78,93.3L2404.04,109.44L2407.29,97.9L2410.55,110.95L2413.81,110.41L2417.07,113.02L2420.32,112.3L2423.58,121.26L2426.84,126.4L2430.09,120.55L2433.35,131.35L2436.61,130.36L2439.87,136.05L2443.13,142.98L2446.38,140.22L2449.64,145.28L2452.9,147.4L2459.41,161.39L2462.67,172.65L2469.19,205.06L2472.44,228.4L2475.7,248.4L2478.96,276.68L2488.73,414.8L2491.99,446.42L2498.5,513.82L2501.76,520.75L2505.02,554.82L2508.28,571.33L2511.53,573.6L2514.79,584.94L2518.05,601.59L2521.3,601.88L2524.56,609.54L2527.82,610.3L2531.08,612.33L2534.34,625.26L2537.59,619.63L2540.85,626.79L2544.11,626.04L2547.36,627.99L2550.62,637.41L2553.88,634.21L2557.14,640.57L2560.4,659.05L2563.65,644.85L2566.91,651.79L2570.17,671.67L2573.42,661.92L2576.68,678.61L2579.94,671.84L2586.46,694.93L2589.71,694.39L2599.48,707.91L2602.74,709.24L2606,712.8" style="vector-effect: non-scaling-stroke; fill: none; stroke: rgb(170, 0, 0); stroke-opacity: 1; stroke-width: 4px; opacity: 1;"/></g><g class="points"/><g class="text"/></g><g class="trace scatter trace3b419b" style="stroke-miterlimit: 2; opacity: 1;"><g class="fills"/><g class="errorbars"/><g class="lines"><path class="js-line" d="M0,711.19L6.52,722.53L9.77,724.63L13.03,723.82L16.29,727.17L19.54,734.55L22.8,726.92L29.32,740.19L32.57,738.5L35.83,739.35L39.09,745.96L42.35,743.54L45.61,744.08L52.12,749.15L55.38,740.91L58.64,745.7L61.89,748.68L65.15,742.16L68.41,746.3L71.66,748.55L74.92,744.29L81.44,747.12L84.7,743.37L87.95,745.78L91.21,746.71L97.73,739.56L100.98,738.98L104.24,736.11L107.5,735.25L110.76,736.44L114.01,730.25L117.27,737.73L120.53,737.55L127.04,737.54L130.3,726L133.56,721.65L136.82,733.25L140.07,727.02L143.33,733.03L146.59,728.23L149.85,719.55L153.1,731.11L156.36,735.38L159.62,737.96L162.88,739.12L169.39,741.75L172.65,745.25L175.91,746.9L179.16,747.32L188.94,755.88L192.19,750.48L195.45,754.96L198.71,738.19L201.97,700.82L205.22,639.76L208.48,618.35L211.74,583.8L218.25,436.97L221.51,370.04L228.02,249.93L231.28,203.12L234.54,131.03L237.8,99.7L241.05,105.92L244.31,96.21L247.57,124.81L250.83,127.99L254.08,91.49L257.34,72.73L263.86,62.56L267.12,48.94L270.37,46.84L273.63,40.68L276.89,42.84L280.15,40.43L286.66,41.27L289.92,39.8L293.18,44.31L296.43,43.9L299.69,47.62L302.95,49.22L306.21,52.04L309.46,53.07L312.72,55.81L315.98,56.84L319.23,59.49L322.49,60.48L325.75,63.11L329.01,64L332.27,64.37L335.52,66.66L345.29,75.68L348.55,76.38L351.81,78.03L355.07,75.23L358.33,76.51L361.58,82.35L364.84,81.32L368.1,88.29L371.35,94.68L374.61,96.71L377.87,103.81L381.13,107.65L390.9,132.92L394.16,143.94L397.42,162.31L400.67,186.73L407.19,240.98L410.45,290.48L416.96,391.32L420.22,419.22L423.48,462.03L426.73,473.07L433.25,531.4L436.51,531.84L439.76,559.13L443.02,557.89L446.28,583.43L449.54,567.8L456.05,603.64L459.31,596.56L462.57,611.47L465.82,610.42L469.08,635.31L472.34,642.03L475.6,625.05L478.85,655.12L482.11,655.54L485.37,674.06L488.63,680.07L491.88,676.37L495.14,685.35L498.4,687.12L501.66,692.08L504.91,700.29L508.17,699.56L511.43,703.3L517.94,708.95L521.2,708.12L524.46,709.77L527.71,714.82L530.97,719.79L534.23,718.38L540.75,730.12L544,725.72L550.52,738.95L553.78,740.3L557.03,740.39L560.29,745.21L563.55,746.91L566.8,746.15L570.06,740.81L573.32,750.23L576.58,745.86L579.83,750.62L583.09,749.57L586.35,738.98L589.61,752.96L592.87,748.87L596.12,752.45L599.38,748.98L602.64,753.59L605.9,748.18L609.15,751.03L612.41,745.97L615.67,747.73L618.92,740.96L622.18,729.34L625.44,734L628.7,721.9L631.95,715.58L635.21,730.56L638.47,711.99L641.73,719.55L644.99,714.09L648.24,707.09L651.5,714.25L654.76,701.35L658.02,706.86L661.27,707.79L664.53,693.22L667.79,699.97L671.05,699.13L677.56,705.47L680.82,702.12L684.08,698.91L687.33,699.39L690.59,698.76L693.85,701.45L697.11,697.76L700.36,703.38L703.62,702.7L706.88,694.77L710.14,701L713.39,698.13L716.65,704.52L719.91,698.91L723.17,701.69L726.42,699.75L729.68,704.46L732.94,699.6L736.2,701.41L739.45,696.8L742.71,685.54L745.97,693.02L749.22,691.59L752.48,694.84L755.74,700.19L759,703.21L762.26,700.94L765.51,704.12L768.77,701.87L772.03,705.23L775.29,702.99L778.54,706.57L781.8,704.34L785.06,708.16L788.32,705.94L791.57,710.05L794.83,707.85L798.09,712.29L801.34,710.11L804.6,714.94L807.86,712.8L811.12,715.06L814.38,713.29L817.63,717.07L820.89,719.55L824.15,724.77L827.41,724.61L830.66,728.93L833.92,729.05L837.18,726.68L840.44,736.65L843.69,732.02L846.95,745.46L850.21,745.33L853.46,751.58L856.72,747.03L859.98,754.77L863.24,737.7L866.5,739.52L869.75,706.05L876.27,650.17L879.53,619.45L889.3,513.16L892.56,463.02L902.33,303.53L905.58,273.07L908.84,235.62L912.1,229.54L915.36,189.99L918.62,179.89L921.87,142.51L925.13,123.5L931.65,80.46L934.9,68.29L938.16,59.16L941.42,57.43L944.68,44.96L947.93,52.2L951.19,45.02L954.45,53.86L957.71,50.66L960.96,45.06L964.22,53.03L967.48,52.61L970.73,50.55L973.99,57.06L977.25,69.06L980.51,65.66L983.77,69.86L987.02,69.98L990.28,60.72L993.54,66.23L996.8,67.12L1000.05,58.76L1003.31,64.13L1006.57,66.28L1009.83,71.44L1013.08,66.04L1016.34,68.26L1019.6,72L1022.85,65.32L1026.11,61.59L1029.37,68.72L1032.63,63.56L1035.89,56.38L1039.14,58.84L1042.4,46.95L1045.66,51.81L1052.17,47.41L1055.43,48.1L1058.69,46.44L1061.95,46.93L1065.2,44.46L1068.46,46.88L1071.72,50.81L1074.97,45.16L1078.23,50.81L1081.49,64.65L1084.75,52.8L1088,59.19L1091.26,79.19L1094.52,67.98L1097.78,92.78L1101.03,70.02L1104.29,71.56L1107.55,98.44L1110.81,77.04L1114.07,70.18L1117.32,69.09L1120.58,58.34L1123.84,68.33L1127.1,54.25L1130.35,56.72L1133.61,66.24L1136.87,53.8L1140.13,55.79L1143.38,53.45L1146.64,53.27L1149.9,54.52L1153.16,53.29L1156.41,51.73L1159.67,57.31L1162.93,58.28L1166.19,65.33L1169.44,69.17L1172.7,77.22L1175.96,76.01L1179.21,84.13L1182.47,89.94L1185.73,105.35L1188.99,106.2L1192.24,121.91L1195.5,135.59L1198.76,119.35L1202.02,142.29L1205.27,140.17L1208.53,157.59L1211.79,168.9L1215.05,165.69L1218.3,177.83L1221.56,167.27L1224.82,187.16L1228.08,183.53L1231.34,196.14L1237.85,217.33L1241.11,233.37L1244.37,237.61L1247.62,264.63L1250.88,261.31L1254.14,306.45L1260.65,364.89L1263.91,406.5L1267.17,442.83L1270.43,465.94L1273.68,509.4L1276.94,539.03L1280.2,570.73L1283.46,575.2L1286.71,614.89L1289.97,609.93L1293.23,640.75L1296.48,634.61L1299.74,656.23L1303,651.19L1306.26,665.63L1309.51,661.97L1312.77,671.58L1316.03,668.86L1319.29,675.49L1322.54,673.18L1325.8,678.1L1329.06,675.81L1332.32,679.61L1335.58,677.87L1338.83,683.62L1342.09,678.57L1345.35,681.12L1348.61,676.91L1351.86,663.23L1355.12,673.55L1358.38,669.71L1361.64,677.42L1364.89,677.76L1368.15,681.66L1371.41,677.18L1374.67,681.25L1377.92,676.49L1381.18,680.72L1384.44,675.73L1387.7,680.12L1390.95,674.95L1394.21,676.55L1397.47,669.87L1400.73,674.76L1403.98,671.49L1407.24,677.71L1410.5,672.88L1413.76,677.51L1417.01,674.25L1420.27,669.21L1423.53,674.73L1426.79,670.36L1430.04,678.76L1433.3,664.18L1436.56,675.22L1439.81,672.57L1443.07,670.66L1446.33,677.02L1449.59,669.48L1452.85,685.09L1456.1,682.5L1459.36,672.98L1462.62,679.93L1465.88,673.1L1469.13,689.68L1472.39,687.79L1475.65,677.2L1478.91,684.53L1482.16,678.57L1485.42,695.06L1488.68,694.21L1491.94,682.56L1495.19,690.07L1498.45,684.67L1501.71,700.68L1504.97,700.52L1508.22,688.07L1511.48,695.6L1514.74,690.28L1518,706.13L1521.25,706.08L1524.51,692.97L1527.77,705.01L1531.03,699.65L1534.28,718.43L1537.54,711.42L1540.8,697.39L1544.05,705.81L1547.31,698.77L1550.57,713.53L1553.83,698.12L1557.09,718.22L1563.6,702.09L1566.86,710.06L1570.12,703.31L1573.37,718.25L1576.63,702.55L1579.89,724.66L1586.4,715.97L1589.66,722.71L1592.92,719.23L1596.18,729.39L1599.43,714.74L1602.69,725.88L1605.95,718.49L1609.21,734.8L1612.46,733.36L1615.72,740.09L1618.98,737.06L1622.24,742.93L1625.49,735.92L1628.75,725.43L1632.01,741.73L1635.27,724L1638.52,728.44L1641.78,740.77L1645.04,734.05L1648.29,717.75L1651.55,732.4L1654.81,730.04L1658.07,732.55L1661.32,698.93L1664.58,731.32L1667.84,729.37L1671.1,726.62L1674.36,683.75L1677.61,733.97L1680.87,723.87L1684.13,725.94L1687.39,690.25L1690.64,742.94L1693.9,721.13L1697.16,708.28L1700.42,713.44L1703.67,701.73L1706.93,736.72L1710.19,695.75L1713.45,710.08L1716.7,705.83L1719.96,705.7L1723.22,721.54L1726.48,694.35L1729.73,669L1732.99,695.17L1736.25,670.22L1739.51,694.44L1742.76,675.47L1746.02,691.1L1749.28,684.37L1752.54,684.59L1755.79,696L1759.05,675.18L1762.31,708.8L1765.56,664.09L1768.82,720.46L1772.08,653.09L1775.34,728.28L1778.59,643.93L1781.85,730.01L1785.11,637.72L1788.37,724.31L1791.63,634.58L1794.88,710.8L1798.14,633.63L1801.4,690.6L1804.66,633.37L1807.91,692.19L1811.17,650.37L1814.43,693.75L1817.69,660.89L1820.94,694.5L1824.2,664.36L1827.46,632.7L1830.72,688.93L1833.97,638.88L1837.23,657.91L1840.49,617.22L1843.75,627.01L1853.52,652.03L1856.78,658.68L1860.03,664.44L1863.29,634.81L1866.55,613.56L1869.8,615.72L1873.06,618.21L1876.32,652.69L1879.58,639.3L1882.83,671.98L1886.09,663.88L1889.35,667.91L1892.61,666.32L1895.87,667.64L1899.12,663.23L1902.38,669.91L1905.64,665.52L1908.9,673.86L1912.15,666.91L1915.41,673.43L1918.67,674.16L1921.93,663.5L1928.44,681.14L1931.7,685.52L1938.21,665.81L1941.47,668.27L1957.76,667.78L1961.02,667.87L1964.27,660.16L1967.53,659.71L1970.79,658.76L1974.04,659.2L1977.3,659.91L1980.56,662.5L1983.82,666.65L1987.07,666.68L1990.33,671.66L1993.59,667.91L1996.85,675.95L2000.1,670.77L2003.36,676.76L2006.62,671.87L2009.88,670.13L2013.14,673.6L2016.39,675.75L2019.65,687.5L2022.91,677.18L2026.17,681.7L2029.42,686.13L2032.68,683.24L2035.94,695.41L2039.2,695.56L2042.45,709.41L2045.71,704.42L2048.97,709.21L2052.23,708.62L2055.48,705.26L2058.74,696.69L2075.03,708.46L2078.29,694.07L2081.54,708.45L2084.8,715.32L2088.06,722.48L2091.32,707.12L2094.57,705.31L2097.83,714.58L2101.09,714.67L2104.34,726.11L2107.6,731.45L2110.86,729.26L2114.12,729.19L2117.38,726.39L2123.89,739L2127.15,736.99L2130.4,735.44L2133.66,735.26L2136.92,738.71L2140.18,745.06L2143.44,741.78L2146.69,741.14L2149.95,741.09L2153.21,743.83L2156.46,749.9L2159.72,744.73L2166.24,747.31L2169.5,751.2L2172.75,754.17L2176.01,751.5L2189.04,754.2L2192.3,752.43L2195.55,752.47L2198.81,748.9L2202.07,746.64L2205.33,734.03L2208.59,725.35L2211.84,694.83L2218.36,623.49L2221.61,601.49L2228.13,532.4L2231.39,470.26L2234.65,384.08L2237.9,333.85L2244.42,233.67L2247.67,223.27L2250.93,214.64L2254.19,179.37L2257.45,185.05L2260.71,154.83L2263.96,124.92L2267.22,148.11L2270.48,112.13L2273.73,98.08L2276.99,116.93L2280.25,106.05L2283.51,80.78L2286.77,90.12L2290.02,87.06L2293.28,93.38L2296.54,95L2299.8,84.21L2303.05,98.21L2306.31,71.16L2309.57,79.87L2312.82,76.59L2316.08,59.19L2319.34,57.73L2322.6,63.42L2325.86,77.01L2329.11,57.49L2332.37,76.96L2335.63,55.86L2338.88,55.28L2342.14,57.19L2345.4,55.15L2348.66,58.83L2351.92,56.89L2355.17,61.9L2358.43,62.45L2364.94,65.01L2368.2,70.17L2374.72,73.5L2377.98,76.82L2381.23,78.68L2384.49,82.38L2387.75,98.76L2391.01,91.98L2394.26,108.56L2397.52,101.12L2400.78,115.76L2404.04,117.2L2407.29,113.17L2410.55,115.4L2413.81,105.61L2417.07,132.07L2420.32,126.5L2423.58,126.23L2426.84,125.85L2430.09,123.13L2433.35,139.35L2436.61,128.58L2439.87,132.89L2443.13,133.33L2446.38,131.32L2449.64,140.63L2456.15,146.91L2459.41,163.84L2462.67,180.09L2465.93,189.48L2469.19,203.82L2472.44,227.71L2482.21,334.56L2485.47,383.23L2491.99,448.97L2495.25,484.19L2505.02,557.48L2508.28,556.21L2511.53,584.61L2514.79,590.08L2518.05,594.89L2521.3,613.74L2524.56,612.82L2527.82,604.05L2534.34,627.61L2537.59,637.39L2540.85,625.4L2544.11,638.99L2547.36,647.03L2550.62,644.03L2557.14,667.45L2560.4,674.06L2563.65,659.13L2566.91,672.2L2579.94,697.45L2583.2,695.45L2586.46,698.48L2589.71,704.51L2592.97,708.65L2596.23,705.3L2599.48,699.95L2602.74,707.42L2606,714.17" style="vector-effect: non-scaling-stroke; fill: none; stroke: rgb(0, 170, 0); stroke-opacity: 1; stroke-width: 4px; opacity: 1;"/></g><g class="points"/><g class="text"/></g></g></g><g class="overplot"/><path class="xlines-above crisp" d="M0,0" style="fill: none;"/><path class="ylines-above crisp" d="M0,0" style="fill: none;"/><g class="overlines-above"/><g class="xaxislayer-above"><g class="xtick"><text text-anchor="middle" x="0" y="934" transform="translate(136,0)" style="font-family: 'Open Sans', verdana, arial, sans-serif; font-size: 37px; fill: rgb(42, 63, 95); fill-opacity: 1; white-space: pre; opacity: 1;">0</text></g><g class="xtick"><text text-anchor="middle" x="0" y="934" style="font-family: 'Open Sans', verdana, arial, sans-serif; font-size: 37px; fill: rgb(42, 63, 95); fill-opacity: 1; white-space: pre; opacity: 1;" transform="translate(461.75,0)">100</text></g><g class="xtick"><text text-anchor="middle" x="0" y="934" style="font-family: 'Open Sans', verdana, arial, sans-serif; font-size: 37px; fill: rgb(42, 63, 95); fill-opacity: 1; white-space: pre; opacity: 1;" transform="translate(787.5,0)">200</text></g><g class="xtick"><text text-anchor="middle" x="0" y="934" style="font-family: 'Open Sans', verdana, arial, sans-serif; font-size: 37px; fill: rgb(42, 63, 95); fill-opacity: 1; white-space: pre; opacity: 1;" transform="translate(1113.25,0)">300</text></g><g class="xtick"><text text-anchor="middle" x="0" y="934" style="font-family: 'Open Sans', verdana, arial, sans-serif; font-size: 37px; fill: rgb(42, 63, 95); fill-opacity: 1; white-space: pre; opacity: 1;" transform="translate(1439,0)">400</text></g><g class="xtick"><text text-anchor="middle" x="0" y="934" style="font-family: 'Open Sans', verdana, arial, sans-serif; font-size: 37px; fill: rgb(42, 63, 95); fill-opacity: 1; white-space: pre; opacity: 1;" transform="translate(1764.75,0)">500</text></g><g class="xtick"><text text-anchor="middle" x="0" y="934" style="font-family: 'Open Sans', verdana, arial, sans-serif; font-size: 37px; fill: rgb(42, 63, 95); fill-opacity: 1; white-space: pre; opacity: 1;" transform="translate(2090.5,0)">600</text></g><g class="xtick"><text text-anchor="middle" x="0" y="934" style="font-family: 'Open Sans', verdana, arial, sans-serif; font-size: 37px; fill: rgb(42, 63, 95); fill-opacity: 1; white-space: pre; opacity: 1;" transform="translate(2416.25,0)">700</text></g><g class="xtick"><text text-anchor="middle" x="0" y="934" style="font-family: 'Open Sans', verdana, arial, sans-serif; font-size: 37px; fill: rgb(42, 63, 95); fill-opacity: 1; white-space: pre; opacity: 1;" transform="translate(2742,0)">800</text></g></g><g class="yaxislayer-above"><g class="ytick"><text text-anchor="end" x="135" y="12.95" transform="translate(0,827.39)" style="font-family: 'Open Sans', verdana, arial, sans-serif; font-size: 37px; fill: rgb(42, 63, 95); fill-opacity: 1; white-space: pre; opacity: 1;">−15</text></g><g class="ytick"><text text-anchor="end" x="135" y="12.95" style="font-family: 'Open Sans', verdana, arial, sans-serif; font-size: 37px; fill: rgb(42, 63, 95); fill-opacity: 1; white-space: pre; opacity: 1;" transform="translate(0,724.27)">−10</text></g><g class="ytick"><text text-anchor="end" x="135" y="12.95" style="font-family: 'Open Sans', verdana, arial, sans-serif; font-size: 37px; fill: rgb(42, 63, 95); fill-opacity: 1; white-space: pre; opacity: 1;" transform="translate(0,621.16)">−5</text></g><g class="ytick"><text text-anchor="end" x="135" y="12.95" style="font-family: 'Open Sans', verdana, arial, sans-serif; font-size: 37px; fill: rgb(42, 63, 95); fill-opacity: 1; white-space: pre; opacity: 1;" transform="translate(0,518.05)">0</text></g><g class="ytick"><text text-anchor="end" x="135" y="12.95" style="font-family: 'Open Sans', verdana, arial, sans-serif; font-size: 37px; fill: rgb(42, 63, 95); fill-opacity: 1; white-space: pre; opacity: 1;" transform="translate(0,414.94)">5</text></g><g class="ytick"><text text-anchor="end" x="135" y="12.95" style="font-family: 'Open Sans', verdana, arial, sans-serif; font-size: 37px; fill: rgb(42, 63, 95); fill-opacity: 1; white-space: pre; opacity: 1;" transform="translate(0,311.82)">10</text></g><g class="ytick"><text text-anchor="end" x="135" y="12.95" style="font-family: 'Open Sans', verdana, arial, sans-serif; font-size: 37px; fill: rgb(42, 63, 95); fill-opacity: 1; white-space: pre; opacity: 1;" transform="translate(0,208.70999999999998)">15</text></g><g class="ytick"><text text-anchor="end" x="135" y="12.95" style="font-family: 'Open Sans', verdana, arial, sans-serif; font-size: 37px; fill: rgb(42, 63, 95); fill-opacity: 1; white-space: pre; opacity: 1;" transform="translate(0,105.6)">20</text></g></g><g class="overaxes-above"/></g></g><g class="polarlayer"/><g class="ternarylayer"/><g class="geolayer"/><g class="funnelarealayer"/><g class="pielayer"/><g class="iciclelayer"/><g class="treemaplayer"/><g class="sunburstlayer"/><g class="glimages"/><defs id="topdefs-da2c1d"><g class="clips"/><clipPath id="legendda2c1d"><rect width="694" height="113" x="0" y="0"/></clipPath></defs><g class="layer-above"><g class="imagelayer"/><g class="shapelayer"/></g><g class="infolayer"><g class="legend" pointer-events="all" transform="translate(2794.12,100)"><rect class="bg" shape-rendering="crispEdges" width="694" height="113" x="0" y="0" style="stroke: rgb(68, 68, 68); stroke-opacity: 1; fill: rgb(255, 255, 255); fill-opacity: 1; stroke-width: 0px;"/><g class="scrollbox" transform="" clip-path="url(#legendda2c1d)"><g class="groups"><g class="traces" transform="translate(0,30.55)" style="opacity: 1;"><text class="legendtext" text-anchor="start" x="40" y="14.43" style="font-family: 'Open Sans', verdana, arial, sans-serif; font-size: 37px; fill: rgb(42, 63, 95); fill-opacity: 1; white-space: pre;">Predicted Curvature at Anchors #1</text><g class="layers" style="opacity: 1;"><g class="legendfill"/><g class="legendlines"><path class="js-line" d="M5,0h30" style="fill: none; stroke: rgb(170, 0, 0); stroke-opacity: 1; stroke-width: 4px;"/></g><g class="legendsymbols"><g class="legendpoints"/></g></g><rect class="legendtoggle" x="0" y="-25.55" width="688.125" height="51.1" style="fill: rgb(0, 0, 0); fill-opacity: 0;"/></g><g class="traces" transform="translate(0,81.65)" style="opacity: 1;"><text class="legendtext" text-anchor="start" x="40" y="14.43" style="font-family: 'Open Sans', verdana, arial, sans-serif; font-size: 37px; fill: rgb(42, 63, 95); fill-opacity: 1; white-space: pre;">Predicted Curvature at Anchors #2</text><g class="layers" style="opacity: 1;"><g class="legendfill"/><g class="legendlines"><path class="js-line" d="M5,0h30" style="fill: none; stroke: rgb(0, 170, 0); stroke-opacity: 1; stroke-width: 4px;"/></g><g class="legendsymbols"><g class="legendpoints"/></g></g><rect class="legendtoggle" x="0" y="-25.55" width="688.125" height="51.1" style="fill: rgb(0, 0, 0); fill-opacity: 0;"/></g></g></g><rect class="scrollbar" rx="20" ry="3" width="0" height="0" x="0" y="0" style="fill: rgb(128, 139, 164); fill-opacity: 1;"/></g><g class="g-gtitle"/><g class="g-xtitle"><text class="xtitle" x="1439" y="987.8" text-anchor="middle" style="font-family: 'Open Sans', verdana, arial, sans-serif; font-size: 44px; fill: rgb(42, 63, 95); opacity: 1; font-weight: normal; white-space: pre;">Anchor Point Index</text></g><g class="g-ytitle" transform="translate(32.1279296875,0)"><text class="ytitle" transform="rotate(-90,11.871875000000003,498)" x="11.871875000000003" y="498" text-anchor="middle" style="font-family: 'Open Sans', verdana, arial, sans-serif; font-size: 44px; fill: rgb(42, 63, 95); opacity: 1; font-weight: normal; white-space: pre;">Predicted Curvature</text></g><g class="annotation" data-index="0" style="opacity: 1;"><g class="annotation-text-g" transform="rotate(0,1439,66.49999999999993)"><g class="cursor-pointer" transform="translate(222,33)"><rect class="bg" x="0.5" y="0.5" width="2433" height="66" style="stroke-width: 1px; stroke: rgb(0, 0, 0); stroke-opacity: 0; fill: rgb(0, 0, 0); fill-opacity: 0;"/><text class="annotation-text" text-anchor="middle" x="1217.03125" y="54" style="font-family: 'Open Sans', verdana, arial, sans-serif; font-size: 52px; fill: rgb(42, 63, 95); fill-opacity: 1; white-space: pre;"><tspan style="font-weight:bold">Predicted Curvature at Anchors (Transformed Curve #1 vs. Transformed Curve #2)</tspan></text></g></g></g></g></svg>