<svg class="main-svg" xmlns="http://www.w3.org/2000/svg" xmlns:xlink="http://www.w3.org/1999/xlink" width="3500" height="1000" style="" viewBox="0 0 3500 1000"><rect x="0" y="0" width="3500" height="1000" style="fill: rgb(255, 255, 255); fill-opacity: 1;"/><defs id="defs-c21b49"><g class="clips"><clipPath id="clipc21b49xyplot" class="plotclip"><rect width="2606" height="796"/></clipPath><clipPath class="axesclip" id="clipc21b49x"><rect x="136" y="0" width="2606" height="1000"/></clipPath><clipPath class="axesclip" id="clipc21b49y"><rect x="0" y="100" width="3500" height="796"/></clipPath><clipPath class="axesclip" id="clipc21b49xy"><rect x="136" y="100" width="2606" height="796"/></clipPath></g><g class="gradients"/><g class="patterns"/></defs><g class="bglayer"><rect class="bg" x="136" y="100" width="2606" height="796" style="fill: rgb(229, 236, 246); fill-opacity: 1; stroke-width: 0;"/></g><g class="layer-below"><g class="imagelayer"/><g class="shapelayer"/></g><g class="cartesianlayer"><g class="subplot xy"><g class="layer-subplot"><g class="shapelayer"/><g class="imagelayer"/></g><g class="gridlayer"><g class="x"><path class="xgrid crisp" transform="translate(397.12,0)" d="M0,100v796" style="stroke: rgb(255, 255, 255); stroke-opacity: 1; stroke-width: 1px;"/><path class="xgrid crisp" transform="translate(658.24,0)" d="M0,100v796" style="stroke: rgb(255, 255, 255); stroke-opacity: 1; stroke-width: 1px;"/><path class="xgrid crisp" transform="translate(919.37,0)" d="M0,100v796" style="stroke: rgb(255, 255, 255); stroke-opacity: 1; stroke-width: 1px;"/><path class="xgrid crisp" transform="translate(1180.49,0)" d="M0,100v796" style="stroke: rgb(255, 255, 255); stroke-opacity: 1; stroke-width: 1px;"/><path class="xgrid crisp" transform="translate(1441.61,0)" d="M0,100v796" style="stroke: rgb(255, 255, 255); stroke-opacity: 1; stroke-width: 1px;"/><path class="xgrid crisp" transform="translate(1702.73,0)" d="M0,100v796" style="stroke: rgb(255, 255, 255); stroke-opacity: 1; stroke-width: 1px;"/><path class="xgrid crisp" transform="translate(1963.86,0)" d="M0,100v796" style="stroke: rgb(255, 255, 255); stroke-opacity: 1; stroke-width: 1px;"/><path class="xgrid crisp" transform="translate(2224.98,0)" d="M0,100v796" style="stroke: rgb(255, 255, 255); stroke-opacity: 1; stroke-width: 1px;"/><path class="xgrid crisp" transform="translate(2486.1,0)" d="M0,100v796" style="stroke: rgb(255, 255, 255); stroke-opacity: 1; stroke-width: 1px;"/></g><g class="y"><path class="ygrid crisp" transform="translate(0,826.27)" d="M136,0h2606" style="stroke: rgb(255, 255, 255); stroke-opacity: 1; stroke-width: 1px;"/><path class="ygrid crisp" transform="translate(0,723.33)" d="M136,0h2606" style="stroke: rgb(255, 255, 255); stroke-opacity: 1; stroke-width: 1px;"/><path class="ygrid crisp" transform="translate(0,620.4)" d="M136,0h2606" style="stroke: rgb(255, 255, 255); stroke-opacity: 1; stroke-width: 1px;"/><path class="ygrid crisp" transform="translate(0,414.54)" d="M136,0h2606" style="stroke: rgb(255, 255, 255); stroke-opacity: 1; stroke-width: 1px;"/><path class="ygrid crisp" transform="translate(0,311.6)" d="M136,0h2606" style="stroke: rgb(255, 255, 255); stroke-opacity: 1; stroke-width: 1px;"/><path class="ygrid crisp" transform="translate(0,208.67000000000002)" d="M136,0h2606" style="stroke: rgb(255, 255, 255); stroke-opacity: 1; stroke-width: 1px;"/><path class="ygrid crisp" transform="translate(0,105.74)" d="M136,0h2606" style="stroke: rgb(255, 255, 255); stroke-opacity: 1; stroke-width: 1px;"/></g></g><g class="zerolinelayer"><path class="xzl zl crisp" transform="translate(136,0)" d="M0,100v796" style="stroke: rgb(255, 255, 255); stroke-opacity: 1; stroke-width: 2px;"/><path class="yzl zl crisp" transform="translate(0,517.47)" d="M136,0h2606" style="stroke: rgb(255, 255, 255); stroke-opacity: 1; stroke-width: 2px;"/></g><path class="xlines-below"/><path class="ylines-below"/><g class="overlines-below"/><g class="xaxislayer-below"/><g class="yaxislayer-below"/><g class="overaxes-below"/><g class="plot" transform="translate(136,100)" clip-path="url(#clipc21b49xyplot)"><g class="scatterlayer mlayer"><g class="trace scatter trace95bb71" style="stroke-miterlimit: 2; opacity: 1;"><g class="fills"/><g class="errorbars"/><g class="lines"><path class="js-line" d="M0,739.86L2.61,745.08L5.22,742.99L7.83,729.93L10.44,736.48L13.06,730.94L15.67,735.28L18.28,732.38L20.89,715.74L23.5,721.82L26.11,715.38L28.72,717.95L31.33,708.76L33.95,716.87L36.56,715.43L39.17,699.98L41.78,702.94L44.39,705.74L47,700.44L54.84,695.61L57.45,695.35L60.06,695.49L62.67,698.59L65.28,696.6L67.89,705.16L73.11,687.95L75.73,697.08L86.17,694.71L88.78,694.5L99.23,694.89L101.84,695.23L104.45,689.23L107.06,690.23L109.67,692.74L112.28,691.64L114.89,694.93L117.51,690.53L120.12,689.87L122.73,694.99L125.34,693.69L127.95,701.75L130.56,699.72L133.17,693.15L135.78,698.49L138.39,696.58L141.01,704.63L143.62,703.38L146.23,696.29L148.84,701.84L151.45,699.33L154.06,702.29L156.67,707.22L159.28,699.56L161.9,703.93L164.51,700.74L167.12,700.65L169.73,704.98L172.34,701.5L174.95,701.27L177.56,705.54L180.17,701.81L182.79,701.32L185.4,705.48L188.01,702.8L190.62,704.24L193.23,706.36L195.84,700.11L198.45,699.81L201.06,702.91L206.29,698.28L208.9,696.06L211.51,699.7L214.12,695.57L216.73,692.64L219.34,696.16L224.57,688.44L227.18,691.9L232.4,683.6L235.01,687.18L240.23,678.41L242.84,682.32L245.45,678.64L248.07,673.2L250.68,677.23L253.29,672.28L255.9,670.38L258.51,676.66L261.12,665.88L263.73,669.47L266.34,676.51L268.96,665.23L271.57,671.63L274.18,660.9L276.79,662.18L279.4,669.17L282.01,656.22L284.62,665.9L287.23,655.7L289.85,663.88L292.46,672.51L295.07,675.31L297.68,676.05L300.29,680.59L302.9,679.83L305.51,685.8L308.12,683.47L310.74,690.33L313.35,687.42L315.96,694.63L318.57,691.93L321.18,699.29L323.79,696.71L326.4,704.32L329.01,701.68L331.63,709.35L334.24,706.97L336.85,714.25L339.46,712.55L342.07,727.52L344.68,725.64L347.29,729.26L352.52,730.24L355.13,732.98L357.74,733.22L360.35,742.75L365.57,736.45L368.18,744.94L370.79,742.33L373.4,744.33L376.02,741.12L378.63,747.91L381.24,747.36L383.85,750.03L386.46,748.32L389.07,750.02L391.68,744.19L394.29,751.65L396.91,744.75L399.52,745.9L402.13,734.96L404.74,719.46L407.35,707.91L409.96,666.43L412.57,646.43L415.18,606.5L417.8,555.95L420.41,525.33L423.02,467.99L425.63,379.3L430.85,286.9L433.46,257.77L438.69,192.31L441.3,177.98L443.91,158.93L446.52,131.91L449.13,125.93L451.74,113.8L454.35,100.65L456.96,98.06L459.58,87.85L462.19,70.46L464.8,62.85L467.41,72.19L470.02,59.14L472.63,55.99L475.24,53.9L477.85,53.85L480.46,58.52L483.08,52.69L485.69,54.94L488.3,60.51L490.91,51.55L493.52,58.73L496.13,60.97L498.74,56.1L501.35,62.03L503.97,60.88L506.58,57.97L509.19,62.57L511.8,63.7L514.41,62.63L519.63,68.65L522.24,69.91L527.47,74.89L530.08,80.91L532.69,78.63L535.3,83.32L537.91,86.37L540.52,85.98L543.13,92.37L545.75,94.56L548.36,91.01L550.97,93.48L556.19,94.29L558.8,93.98L561.41,94.67L564.02,97.32L569.25,98.17L571.86,102.9L574.47,104.46L577.08,111.93L579.69,105.41L582.3,105.81L584.91,111.96L587.53,109.14L590.14,107.68L592.75,116.24L595.36,115.08L597.97,107.35L600.58,108.58L603.19,107.91L608.41,109.46L611.03,104.28L613.64,110.55L616.25,106.98L618.86,107.01L621.47,114.75L624.08,112.06L626.69,112.19L629.3,121.24L631.92,121.59L634.53,133.19L637.14,130.28L639.75,131.37L642.36,137.61L644.97,147.18L647.58,150.39L652.81,175L655.42,194.61L663.25,263.92L665.86,302.28L668.47,347.07L671.08,370.85L676.31,455.6L678.92,478.67L684.14,539.78L686.75,560.89L691.97,599.12L694.59,606.48L697.2,618.94L699.81,637.34L702.42,634.8L705.03,643.09L707.64,656.96L710.25,653.91L712.86,659.11L715.47,668.34L718.09,666.37L720.7,669.1L723.31,675.6L725.92,674.33L728.53,675.96L731.14,680.33L733.75,679.64L736.36,681.3L738.98,683.76L741.59,683.46L746.81,686.53L749.42,686.27L754.64,689.81L757.25,689.6L762.48,691.91L765.09,689.37L767.7,692.17L770.31,693.06L772.92,690.02L775.53,691.83L778.14,688.3L780.76,690.8L783.37,690.57L785.98,683.98L788.59,691.26L791.2,692.86L793.81,690.94L796.42,691.94L799.03,692.26L801.65,688.4L804.26,691.07L806.87,690.43L809.48,686.83L812.09,688.44L814.7,681.8L817.31,684.27L819.92,682.96L822.54,675.86L825.15,682.12L827.76,682.58L830.37,683.88L832.98,683.83L835.59,683.46L838.2,680.31L840.81,682.02L843.42,680.65L846.04,676.49L848.65,679.54L851.26,672.54L853.87,672.63L856.48,681.77L859.09,669.11L861.7,669.2L864.31,684.09L866.93,678.15L869.54,683.8L872.15,693.18L874.76,678.79L877.37,688.85L879.98,691.87L882.59,678.18L885.2,691.29L887.82,676.73L890.43,687.19L893.04,693.62L895.65,681.9L900.87,693.54L903.48,695.24L908.71,702.08L911.32,701.36L913.93,704.31L916.54,708.86L919.15,710.5L921.76,716.61L924.37,710.56L926.98,713.66L929.6,717.92L932.21,712.51L934.82,718.47L937.43,715.98L940.04,717.28L942.65,722.72L945.26,716.41L947.87,721.13L950.48,723.85L953.1,717.17L955.71,727.71L958.32,731.31L960.93,725.26L963.54,731.04L966.15,734.23L968.76,728.55L971.37,733.56L973.99,735.99L976.6,728.26L979.21,732.46L981.82,733.66L984.43,731.64L987.04,734.73L989.65,735.4L992.26,733.47L994.88,738.15L1000.1,735.25L1002.71,732.19L1005.32,737.12L1007.93,735.96L1010.54,733.65L1013.15,738.87L1015.77,738.5L1018.38,735.55L1020.99,736.73L1023.6,734.71L1026.21,731.38L1028.82,733.38L1031.43,731.39L1034.04,731.49L1036.66,736.08L1039.27,732.43L1041.88,731.9L1044.49,739.45L1047.1,735.16L1049.71,739.74L1052.32,733.28L1054.93,734.58L1057.55,735.43L1060.16,734.78L1062.77,741.79L1065.38,741.24L1067.99,740.01L1070.6,745.88L1073.21,744.36L1075.82,748.28L1078.43,744.71L1081.05,746.5L1083.66,748.97L1086.27,749.51L1091.49,755.09L1094.1,754.36L1096.71,752.79L1099.32,747.98L1101.94,737.7L1104.55,708.93L1117.6,522.98L1120.21,471.31L1122.83,430.48L1125.44,351.9L1128.05,289L1130.66,255.72L1135.88,208.38L1138.49,169.44L1141.1,180.86L1143.72,116.33L1146.33,137.76L1148.94,127.75L1151.55,81.65L1154.16,100.66L1156.77,99.73L1159.38,77.03L1161.99,68.3L1164.61,72.3L1169.83,82.07L1172.44,64.49L1175.05,61.23L1177.66,62.57L1182.88,65.28L1185.49,68.31L1188.11,62.89L1190.72,60.88L1193.33,69.09L1195.94,67.23L1201.16,50.4L1203.77,55.24L1206.38,51.72L1209,50.68L1211.61,51.08L1214.22,46.84L1219.44,53.74L1222.05,55.05L1224.66,48.58L1227.27,54.01L1229.89,56.45L1232.5,50.33L1237.72,60.79L1240.33,59.28L1242.94,53.42L1245.55,59.49L1248.16,63.4L1250.78,61.46L1253.39,60.27L1256,63.46L1258.61,63.44L1261.22,61.59L1263.83,61.18L1266.44,63.46L1269.05,64.96L1271.67,65.11L1274.28,67.17L1276.89,72.13L1279.5,73.96L1282.11,72.71L1289.94,87.48L1292.56,84.73L1297.78,94.19L1300.39,103.12L1308.22,121.77L1310.83,141.6L1316.06,160.8L1318.67,207.13L1323.89,240.47L1326.5,291.39L1329.11,327.95L1331.72,379.53L1342.17,532.74L1344.78,560.34L1347.39,575.04L1350,600.59L1352.61,632.15L1355.22,632.78L1357.84,651.65L1360.45,662.21L1363.06,661.92L1365.67,673.3L1368.28,669.15L1370.89,678.01L1373.5,685.19L1376.11,682.95L1378.73,694.18L1381.34,689.12L1383.95,692.82L1386.56,694.51L1389.17,695.16L1391.78,701.72L1394.39,702.98L1397,713.72L1399.62,703.69L1402.23,709.37L1404.84,707.89L1407.45,713.87L1410.06,712.22L1412.67,725.51L1415.28,724.62L1417.89,727.55L1420.51,728.4L1423.12,726.24L1425.73,730.33L1428.34,727.99L1430.95,730.73L1433.56,726.42L1436.17,718.54L1438.78,736.79L1441.39,735.66L1444.01,736.6L1449.23,729.39L1451.84,741.28L1454.45,739.25L1457.06,742.1L1459.67,738.77L1462.28,742.12L1464.9,743.59L1467.51,735.23L1470.12,743.25L1472.73,741.31L1475.34,733.24L1477.95,733.64L1480.56,740.79L1483.17,739.9L1485.79,732.12L1488.4,730.73L1491.01,737.01L1493.62,737.65L1496.23,730L1498.84,726.99L1501.45,732.41L1504.06,734.75L1506.68,719.38L1509.29,725.28L1511.9,721.01L1514.51,729.08L1517.12,730.58L1519.73,723.18L1522.34,717.66L1524.95,716.3L1527.57,722.01L1530.18,719.41L1532.79,714.31L1535.4,716.65L1538.01,719.73L1540.62,711.5L1543.23,710.18L1545.84,715.77L1548.45,714.79L1551.07,709.81L1553.68,708L1556.29,712.15L1558.9,708.51L1561.51,706.62L1564.12,708.53L1566.73,704.89L1569.34,703.66L1571.96,708.82L1574.57,707.73L1577.18,710.74L1579.79,711.12L1582.4,704.96L1585.01,707.45L1587.62,704.46L1590.23,703.07L1592.85,708.84L1595.46,707.85L1598.07,716.59L1603.29,699.35L1605.9,707.05L1608.51,708.12L1611.12,717.65L1616.35,715.86L1618.96,714.85L1621.57,707.64L1624.18,712.65L1629.4,706.43L1632.01,714.47L1634.63,712.72L1637.24,716.86L1639.85,718.29L1642.46,709.94L1645.07,717.64L1647.68,716.16L1650.29,710.39L1652.9,718.35L1655.52,716.39L1658.13,710.32L1660.74,718.49L1663.35,715.81L1665.96,709.44L1668.57,717.81L1671.18,711.41L1673.79,723.9L1676.4,719.93L1679.02,710.16L1681.63,705.85L1684.24,727.7L1686.85,704.12L1689.46,704.52L1692.07,699.72L1694.68,722.97L1697.29,711.58L1699.91,709.82L1702.52,688.23L1705.13,699.75L1707.74,704.59L1710.35,714.15L1712.96,695.95L1715.57,695.84L1718.18,698.35L1720.8,707.49L1723.41,705.74L1726.02,675.44L1728.63,679.87L1731.24,687.3L1733.85,698.41L1736.46,666.46L1741.69,675.43L1744.3,690.79L1762.58,678.64L1765.19,677.24L1775.63,672.94L1778.24,672.21L1788.69,670.68L1791.3,670.62L1804.35,671.83L1806.97,672.31L1809.58,661.33L1812.19,667.94L1814.8,680.83L1817.41,674.79L1820.02,661.09L1822.63,675.33L1825.24,681.73L1827.86,677.88L1830.47,665.87L1833.08,670.49L1835.69,683.56L1838.3,681.39L1840.91,669.52L1843.52,674.69L1848.75,686.19L1851.36,686.32L1853.97,669.89L1856.58,680.17L1859.19,695.91L1861.8,690.7L1864.41,675.62L1867.02,684.73L1869.64,689.57L1872.25,680.94L1874.86,679.94L1877.47,689.53L1882.69,706.7L1885.3,693.2L1890.53,710.74L1893.14,696.82L1895.75,705.67L1898.36,705.18L1900.97,700.27L1903.58,709.06L1906.19,714.12L1908.8,706.2L1911.41,699.61L1914.03,713.27L1916.64,706.84L1919.25,718.99L1921.86,711.54L1924.47,710.04L1927.08,729.42L1929.69,725.88L1934.92,716.55L1937.53,720.23L1940.14,716.32L1942.75,714.55L1945.36,729.77L1947.97,735.86L1953.19,738.79L1955.81,738.9L1958.42,737.25L1961.03,732.89L1963.64,729.03L1966.25,731.29L1968.86,730.08L1971.47,727.7L1974.08,740.27L1976.7,739.65L1979.31,741.55L1981.92,741.31L1984.53,742.72L1987.14,742.86L1989.75,743.82L1992.36,746.27L1994.97,746.08L1997.59,748.68L2000.2,747.38L2002.81,749.46L2008.03,742.33L2010.64,744.55L2013.25,748.34L2015.86,746.4L2018.47,752.01L2021.09,753.16L2023.7,751.27L2026.31,753.01L2028.92,752.64L2031.53,746.96L2034.14,749.69L2036.75,744.53L2039.36,734.41L2041.98,719.98L2044.59,714.9L2047.2,648.68L2049.81,684.25L2052.42,610.68L2055.03,569.78L2057.64,549.19L2070.7,231.17L2073.31,240.35L2075.92,210.81L2078.53,153.28L2081.14,189.99L2083.76,97.64L2086.37,107.95L2088.98,97.02L2091.59,83.43L2094.2,89.6L2096.81,56.74L2099.42,53.6L2102.03,47.91L2104.65,52.07L2109.87,45.35L2112.48,42.36L2115.09,42.8L2117.7,40.5L2120.31,41.65L2122.92,44.95L2125.54,40.3L2128.15,54.54L2130.76,46.08L2133.37,44.03L2135.98,45.24L2138.59,45.02L2141.2,46.52L2143.81,45.9L2146.42,47.55L2149.04,46.6L2151.65,48.33L2154.26,47.07L2156.87,51.96L2159.48,49.47L2162.09,50.56L2164.7,48.3L2167.31,50.9L2169.93,48.56L2172.54,43.75L2175.15,44.02L2177.76,51.74L2180.37,46.42L2182.98,45.77L2185.59,48.1L2188.2,45.17L2190.82,47.61L2193.43,44.71L2196.04,47.22L2198.65,44.54L2201.26,47.02L2203.87,44.81L2206.48,47.13L2209.09,45.63L2211.71,47.59L2214.32,47.03L2216.93,48.41L2222.15,49.49L2224.76,51.16L2227.37,50.64L2229.98,53.4L2232.6,51.57L2235.21,55.37L2237.82,52.06L2240.43,56.83L2243.04,52.09L2245.65,57.62L2248.26,52.01L2250.87,57.74L2253.48,52.42L2256.1,57.34L2258.71,53.67L2261.32,56.77L2263.93,55.59L2266.54,56.57L2269.15,57.74L2271.76,57.28L2274.37,58.86L2276.99,55.29L2279.6,62.55L2282.21,60.86L2284.82,66.09L2287.43,67.11L2290.04,69.25L2292.65,69.61L2295.26,75.29L2297.88,72.85L2300.49,79L2303.1,80.82L2305.71,84.05L2308.32,81.41L2310.93,90.31L2313.54,91.04L2316.15,81.83L2318.77,94.53L2321.38,89.66L2323.99,102.14L2326.6,96.76L2329.21,96.65L2331.82,99.76L2334.43,95.68L2337.04,104.79L2339.66,97.58L2344.88,113.16L2347.49,114.85L2352.71,103.14L2355.32,109.75L2357.93,115.61L2360.55,118.18L2363.16,112.96L2365.77,110.29L2370.99,119.77L2373.6,120.95L2376.21,119.7L2378.82,120.91L2384.05,129.67L2386.66,130.72L2389.27,132.1L2391.88,140.54L2394.49,142.04L2397.1,153.43L2402.32,180.5L2404.94,206.52L2410.16,250.06L2412.77,293.2L2420.6,429.59L2423.21,452.79L2428.44,518.53L2431.05,538.66L2436.27,581.11L2438.88,580.17L2441.49,601.04L2444.1,590.73L2446.72,612.19L2449.33,613.96L2451.94,603.55L2454.55,624.68L2457.16,621.69L2459.77,624.09L2462.38,633.11L2464.99,637.26L2467.61,626.71L2470.22,635.92L2472.83,647.81L2475.44,633.52L2480.66,654.72L2483.27,644.61L2485.88,658.01L2488.49,665.31L2491.11,656.7L2493.72,669.72L2496.33,678.9L2498.94,673.38L2501.55,685.6L2504.16,692.74L2506.77,691.81L2509.38,698.76L2517.22,706.55L2519.83,708.05L2522.44,706.73L2525.05,712.52L2527.66,716.69L2530.27,715.64L2532.89,720.21L2535.5,721.54L2540.72,732.5L2543.33,728.6L2548.55,743.83L2551.16,742.88L2553.78,743.27L2556.39,740.6L2559,746.92L2561.61,748.81L2564.22,738.98L2566.83,748.4L2569.44,750.27L2572.05,749.93L2574.67,751.06L2577.28,753.64L2579.89,749.3L2582.5,748.49L2585.11,753.03L2587.72,749.29L2590.33,751.46L2592.94,750.69L2595.56,746.94L2598.17,751.45L2600.78,747.69L2603.39,741.65L2606,745.02" style="vector-effect: non-scaling-stroke; fill: none; stroke: rgb(170, 0, 0); stroke-opacity: 1; stroke-width: 4px; opacity: 1;"/></g><g class="points"/><g class="text"/></g><g class="trace scatter trace61bf05" style="stroke-miterlimit: 2; opacity: 1;"><g class="fills"/><g class="errorbars"/><g class="lines"><path class="js-line" d="M0,740.75L2.61,747.18L5.22,744.23L7.83,731.11L10.44,736.41L13.06,729.38L15.67,732.69L18.28,722.96L20.89,731.1L23.5,729.89L26.11,710.18L28.72,716.68L31.33,711.03L33.95,712.88L36.56,704.5L39.17,712.12L41.78,710.62L44.39,696.19L47,699.83L49.61,696.84L52.22,697.97L54.84,691.25L57.45,697.17L60.06,690.88L62.67,696.53L65.28,698.07L67.89,684.48L70.5,690.77L73.11,694L78.34,688.82L80.95,690.98L83.56,691.06L86.17,692.88L88.78,694.46L91.39,692.71L94,688.96L96.62,679.86L99.23,688.25L101.84,688.44L104.45,698.05L107.06,695.53L109.67,695.88L112.28,694.23L114.89,688.6L117.51,693.33L120.12,692.84L122.73,700.97L125.34,697.76L127.95,691.69L130.56,696.67L133.17,695.59L138.39,701.88L141.01,695.87L143.62,700.01L146.23,697.81L148.84,697.55L151.45,701.75L154.06,699.18L156.67,699.03L159.28,702.26L161.9,698.43L164.51,699.25L167.12,706.6L169.73,697.63L172.34,704.32L174.95,707.33L177.56,701.59L180.17,705.97L182.79,704.19L185.4,701.5L188.01,700.72L190.62,704.68L193.23,700.76L195.84,699.53L198.45,703.34L201.06,699.3L203.68,697.51L206.29,701.15L208.9,697.04L211.51,694.61L214.12,698.1L219.34,690.83L221.95,694.23L227.18,686.29L229.79,689.69L235.01,681.17L237.62,684.76L242.84,675.76L245.45,679.8L248.07,676.09L250.68,670.44L253.29,675.26L255.9,671.2L258.51,665.71L261.12,671.65L266.34,662.19L268.96,669.48L276.79,669.89L279.4,659.72L282.01,662.18L284.62,654.45L287.23,652.84L289.85,661.63L292.46,666.9L295.07,677.35L297.68,676.02L300.29,684.22L302.9,685.1L305.51,674.37L308.12,683.03L310.74,672.43L313.35,678.56L315.96,694.07L318.57,704.87L321.18,703.35L323.79,695.72L326.4,699.79L329.01,695.45L331.63,697.06L339.46,722.59L342.07,712.61L347.29,729.91L349.9,725.1L352.52,738.17L355.13,737.58L357.74,725.85L360.35,734.5L362.96,736.16L365.57,731.65L368.18,741.69L370.79,740.46L373.4,747.84L376.02,747.42L378.63,751.22L381.24,747.37L383.85,748.64L386.46,752.43L389.07,747.89L391.68,748.81L394.29,751.8L396.91,746.12L399.52,746.65L402.13,700.45L404.74,688.01L407.35,690.2L415.18,603.34L417.8,574.73L430.85,274.68L433.46,239.15L438.69,190.73L441.3,160.26L443.91,149.64L446.52,131.48L449.13,123.49L451.74,110.26L454.35,104.44L456.96,110.03L459.58,88.73L462.19,83.24L464.8,87.92L467.41,70.35L470.02,66.26L472.63,77.62L475.24,90.37L477.85,64.29L480.46,73.41L483.08,69.64L485.69,55.65L488.3,54.55L490.91,55.64L493.52,59.64L496.13,54.3L498.74,62.4L501.35,56.08L503.97,58.03L506.58,58.74L509.19,56.54L511.8,58.81L514.41,57.5L517.02,62.89L519.63,60.97L522.24,69.45L524.86,70.92L527.47,67.97L530.08,77.22L535.3,82.98L537.91,83.23L543.13,86.15L545.75,83.37L548.36,101.45L550.97,95.69L553.58,107.04L556.19,100.08L558.8,111.15L561.41,103.75L564.02,113.75L566.64,106.9L569.25,115.2L571.86,109.49L574.47,115.86L577.08,111.41L579.69,116L582.3,112.66L584.91,115.84L587.53,113.4L590.14,115.58L592.75,113.86L595.36,115.41L597.97,114.25L600.58,115.4L603.19,114.66L605.8,115.57L608.41,115.2L618.86,117.82L621.47,117.4L624.08,120.8L626.69,119.09L629.3,125.06L631.92,122.11L634.53,130.2L637.14,127.44L639.75,136.61L642.36,136.52L644.97,146.58L647.58,150.46L650.19,164.03L652.81,170.51L655.42,192.53L658.03,202.42L668.47,323.4L671.08,366.96L673.7,394.53L676.31,442.89L678.92,462.21L681.53,510.79L684.14,520.65L686.75,557.8L689.36,565.89L691.97,594.28L694.59,600.73L697.2,576.83L699.81,624.45L702.42,610.71L705.03,652.29L707.64,643.13L710.25,661.89L712.86,661.59L715.47,641.29L718.09,666.64L720.7,663.15L723.31,654.41L725.92,675.91L728.53,673.17L731.14,664.15L733.75,681.81L736.36,676.98L738.98,679.72L741.59,688.23L744.2,679.23L746.81,683.03L749.42,697.52L752.03,682.34L754.64,681.45L757.25,679.81L759.87,693.61L762.48,697.22L765.09,683.13L767.7,678.6L770.31,682.61L772.92,685.22L775.53,694.56L778.14,694.5L780.76,681.91L783.37,679L785.98,684.86L788.59,691.35L791.2,690.43L825.15,677.1L827.76,670.53L832.98,664.31L835.59,665.75L840.81,667.41L843.42,672.23L846.04,669.95L848.65,672.75L851.26,666.39L853.87,670.83L856.48,663.85L859.09,669.45L861.7,668.26L864.31,662.45L866.93,666.43L869.54,673.49L872.15,669.61L874.76,681.51L877.37,684.35L879.98,673.66L882.59,684.12L885.2,690.13L887.82,686.96L890.43,687.58L893.04,694.82L895.65,690.86L900.87,701.02L903.48,700.86L906.09,697.64L908.71,697.16L911.32,702.05L913.93,703.02L916.54,705.47L919.15,709.85L924.37,712.89L926.98,709.83L929.6,711.3L932.21,710.88L934.82,716.31L937.43,717.02L940.04,717.03L942.65,720.29L945.26,720.56L947.87,721.9L950.48,720.08L953.1,727.76L955.71,726.91L958.32,727.34L960.93,726.36L963.54,728.01L966.15,732.49L968.76,732.41L971.37,732.02L973.99,734.61L979.21,738.38L981.82,737.89L984.43,738.11L987.04,739.43L989.65,738.75L992.26,736.84L994.88,737.93L997.49,737.04L1000.1,734.31L1002.71,739.7L1005.32,739.55L1007.93,736.34L1010.54,737.66L1013.15,735.71L1015.77,733.41L1018.38,737.17L1020.99,735.08L1023.6,735.34L1026.21,739.6L1028.82,738.13L1031.43,735.37L1034.04,738.13L1036.66,739.58L1039.27,737L1041.88,738.68L1044.49,738.68L1049.71,741.75L1052.32,738.95L1054.93,730.46L1057.55,738.21L1060.16,738.04L1062.77,742.36L1065.38,738.87L1067.99,745.17L1070.6,746.44L1073.21,738.01L1075.82,744.66L1078.43,747.39L1081.05,748L1083.66,751.59L1086.27,750.62L1088.88,755.34L1091.49,753.23L1094.1,756.2L1096.71,754.01L1099.32,746.7L1101.94,736.68L1104.55,705.85L1107.16,645.51L1109.77,631.54L1114.99,559.07L1117.6,519.04L1120.21,466.83L1122.83,379.81L1125.44,336.48L1128.05,262.07L1130.66,262.7L1133.27,240.48L1135.88,219.36L1138.49,182.17L1143.72,141.89L1146.33,139.42L1154.16,93.33L1156.77,89.52L1161.99,79.65L1164.61,70.53L1167.22,74.4L1169.83,74.52L1172.44,62.55L1175.05,60.24L1177.66,61.5L1180.27,52.72L1182.88,50.72L1185.49,57.43L1190.72,48.9L1193.33,49.6L1195.94,55.84L1198.55,50.55L1201.16,48.33L1203.77,53.49L1206.38,50.14L1209,49.4L1211.61,61.44L1214.22,53.83L1216.83,51.48L1219.44,59.6L1222.05,53.17L1224.66,53.4L1227.27,55.49L1229.89,52.83L1232.5,56.55L1235.11,51.95L1237.72,54.5L1240.33,60.26L1242.94,51.94L1245.55,57.06L1248.16,62.81L1250.78,54.92L1256,62.8L1258.61,59.51L1261.22,59.68L1263.83,63.24L1266.44,60.85L1269.05,62.26L1271.67,68.24L1274.28,67.02L1276.89,71.47L1279.5,71.78L1282.11,76.48L1284.72,76.33L1287.33,78.17L1289.94,82.17L1295.17,94.3L1297.78,105.53L1300.39,112.73L1303,98.02L1305.61,134.4L1308.22,129.27L1310.83,148.66L1313.44,150.48L1316.06,168.42L1318.67,175.12L1321.28,200.26L1323.89,247.95L1326.5,271.73L1329.11,328.86L1336.95,483.18L1339.56,521.65L1342.17,548.11L1344.78,596.28L1347.39,611.72L1350,612.29L1352.61,627.16L1355.22,651.56L1357.84,650.05L1360.45,634.99L1363.06,655.68L1365.67,663.51L1368.28,657.18L1370.89,658.36L1373.5,673.29L1376.11,681.98L1378.73,693.07L1381.34,683.51L1383.95,692L1386.56,691.99L1391.78,692.64L1394.39,703.87L1397,697.61L1399.62,698.05L1402.23,705.57L1404.84,709.72L1407.45,714.4L1410.06,712.52L1412.67,714.13L1415.28,711.61L1417.89,713.08L1420.51,713.21L1423.12,726.28L1425.73,722.59L1428.34,727.04L1430.95,726.94L1433.56,720.47L1436.17,728.34L1438.78,724.39L1441.39,729.6L1444.01,733.69L1446.62,727.38L1449.23,730.72L1451.84,732.14L1454.45,727.19L1457.06,736.34L1459.67,737.06L1462.28,732.66L1464.9,737.65L1467.51,737.25L1470.12,730.98L1472.73,735.04L1477.95,732.63L1480.56,736.27L1485.79,732.92L1488.4,737.64L1491.01,734.3L1493.62,734.89L1496.23,731.06L1498.84,731.92L1504.06,729.94L1506.68,732.58L1509.29,731.45L1511.9,729.08L1517.12,724.46L1519.73,723.69L1522.34,723.66L1524.95,721.4L1530.18,720.52L1532.79,718.54L1538.01,717.69L1540.62,716.01L1556.29,712.23L1558.9,712.38L1561.51,714.22L1564.12,712.45L1569.34,713.26L1571.96,712.04L1574.57,712.56L1577.18,711.77L1579.79,711.06L1582.4,713.37L1585.01,712.59L1587.62,708.11L1590.23,711.06L1592.85,708.52L1595.46,710.97L1598.07,710.78L1600.68,714.27L1603.29,714.64L1608.51,712.6L1611.12,706.4L1613.74,712.51L1616.35,711.18L1618.96,707.25L1621.57,713.84L1624.18,712.61L1626.79,708.18L1629.4,715.23L1632.01,713.99L1634.63,709.1L1637.24,714.81L1639.85,712.32L1642.46,703.43L1650.29,720.54L1652.9,718.74L1655.52,720.33L1658.13,719.63L1663.35,720.06L1665.96,700.22L1668.57,716.26L1671.18,714.03L1673.79,695.84L1676.4,714.29L1679.02,716.75L1681.63,710.46L1689.46,706.21L1692.07,708.51L1694.68,702.68L1697.29,712.55L1699.91,708.49L1702.52,697.21L1705.13,698.3L1707.74,701.05L1718.18,686.91L1720.8,687.05L1723.41,684.09L1726.02,687.31L1728.63,680.84L1731.24,689.09L1733.85,686.2L1736.46,676.02L1739.07,679.82L1741.69,680.19L1744.3,680.64L1746.91,676.47L1749.52,678.11L1752.13,675.8L1754.74,680.01L1757.35,675.3L1759.96,676.41L1762.58,670.67L1765.19,657.86L1767.8,667.67L1770.41,665.17L1773.02,673.23L1775.63,671.1L1778.24,675.39L1780.85,670.99L1783.46,675.35L1786.08,671.1L1788.69,676.73L1791.3,673.41L1793.91,679.16L1796.52,673.7L1799.13,674.83L1801.74,681.96L1804.35,673.06L1806.97,677.06L1809.58,670L1812.19,675.75L1814.8,672.8L1835.69,679.47L1838.3,680.43L1861.8,690.33L1864.41,691.58L1887.91,703.8L1890.53,690.88L1893.14,685.77L1895.75,694.47L1898.36,688.77L1900.97,692.92L1906.19,700.42L1908.8,712.4L1911.41,712.91L1914.03,709.93L1916.64,715.9L1919.25,714.42L1921.86,718.86L1924.47,718.01L1932.3,720.23L1934.92,723.71L1937.53,724.09L1940.14,731.44L1942.75,731.48L1945.36,725.26L1947.97,728.35L1950.58,728.39L1953.19,735.43L1955.81,730.09L1958.42,726L1961.03,731.99L1963.64,734.11L1966.25,739.19L1971.47,732.14L1974.08,737.55L1976.7,732.71L1979.31,737.01L1981.92,737.36L1984.53,730.46L1987.14,734.91L1989.75,736.51L1992.36,734.06L1994.97,737.27L1997.59,738.49L2000.2,745.63L2002.81,745.23L2005.42,747.14L2008.03,740.34L2010.64,745.66L2013.25,747.33L2015.86,745.5L2018.47,750.33L2021.09,751.66L2023.7,750.02L2026.31,752.89L2031.53,752.99L2034.14,751.82L2036.75,748.95L2039.36,742.87L2041.98,727.08L2044.59,699.98L2052.42,613.34L2055.03,587.72L2065.48,412.17L2068.09,346.65L2073.31,256.7L2075.92,232.86L2083.76,151.86L2086.37,139.73L2091.59,98.09L2094.2,87.33L2099.42,60.66L2102.03,54.38L2104.65,44.32L2107.26,53.74L2109.87,39.8L2112.48,47.3L2115.09,52.79L2117.7,53.11L2130.76,52.71L2133.37,51.2L2135.98,57.32L2138.59,51.8L2141.2,52.92L2143.81,51.57L2146.42,46.75L2149.04,47.25L2151.65,50.02L2154.26,50.7L2156.87,48.67L2159.48,48.49L2162.09,48.96L2164.7,47.01L2167.31,50.34L2169.93,47.25L2172.54,47.63L2175.15,46.97L2177.76,45.97L2180.37,46.58L2182.98,49.59L2185.59,46.67L2188.2,48.21L2190.82,46L2196.04,44.03L2198.65,44.91L2201.26,45.14L2203.87,47.16L2209.09,44.91L2211.71,49.73L2216.93,45.2L2219.54,48.62L2222.15,44.52L2224.76,54.34L2227.37,49.73L2229.98,48.07L2232.6,56.46L2235.21,52.12L2240.43,48.32L2243.04,52.06L2245.65,57.09L2248.26,49.36L2253.48,61.09L2256.1,52.14L2258.71,58.51L2261.32,60.52L2263.93,54.27L2266.54,62.19L2269.15,62.14L2271.76,58.57L2274.37,63.3L2276.99,63.08L2279.6,61.75L2282.21,63.24L2287.43,67.42L2290.04,67.54L2292.65,69.81L2295.26,73.54L2300.49,83.96L2303.1,85.91L2308.32,86.87L2310.93,88.75L2313.54,89.83L2316.15,88.14L2321.38,95.51L2323.99,93L2326.6,97.31L2329.21,97.72L2331.82,97.72L2334.43,104.22L2339.66,99.13L2342.27,103.85L2344.88,99.53L2347.49,108.96L2350.1,111.02L2352.71,116.1L2355.32,111.23L2357.93,111.76L2360.55,119.44L2363.16,111.57L2365.77,109.21L2368.38,112.62L2370.99,125.91L2373.6,123.02L2376.21,116.02L2378.82,117.42L2381.43,120.02L2384.05,124.92L2386.66,129.88L2389.27,146.9L2391.88,144.84L2394.49,144.83L2397.1,154.23L2399.71,168.87L2402.32,176.27L2404.94,201.5L2410.16,248.4L2412.77,291.82L2420.6,428.52L2423.21,459.51L2431.05,544.93L2433.66,555.66L2438.88,592.65L2441.49,589.76L2444.1,612.35L2446.72,602.29L2449.33,611.51L2451.94,625.86L2454.55,608.35L2457.16,625.93L2459.77,622.88L2462.38,632.85L2464.99,616.14L2467.61,629.21L2470.22,638.74L2472.83,628.72L2475.44,637.55L2478.05,637.76L2480.66,648.03L2483.27,631.15L2485.88,643.7L2488.49,639.44L2491.11,655.87L2493.72,652.18L2496.33,667.06L2498.94,669.34L2501.55,680.16L2504.16,684.5L2506.77,692.65L2509.38,694.03L2512,700.57L2514.61,701.74L2517.22,706.24L2519.83,707.06L2522.44,717.5L2525.05,718.63L2532.89,729.14L2535.5,730.72L2543.33,741.52L2545.94,740.84L2548.55,744.19L2551.16,749.63L2553.78,740.75L2556.39,751.03L2559,739.28L2561.61,750.65L2564.22,746.81L2566.83,750.8L2569.44,748.38L2572.05,751.5L2577.28,750L2579.89,750.09L2582.5,751.48L2585.11,751.73L2590.33,752.02L2592.94,750.95L2595.56,747.02L2598.17,746.36L2600.78,745.55L2603.39,742.99L2606,745.29" style="vector-effect: non-scaling-stroke; fill: none; stroke: rgb(0, 170, 0); stroke-opacity: 1; stroke-width: 4px; opacity: 1;"/></g><g class="points"/><g class="text"/></g></g></g><g class="overplot"/><path class="xlines-above crisp" d="M0,0" style="fill: none;"/><path class="ylines-above crisp" d="M0,0" style="fill: none;"/><g class="overlines-above"/><g class="xaxislayer-above"><g class="xtick"><text text-anchor="middle" x="0" y="934" transform="translate(136,0)" style="font-family: 'Open Sans', verdana, arial, sans-serif; font-size: 37px; fill: rgb(42, 63, 95); fill-opacity: 1; white-space: pre; opacity: 1;">0</text></g><g class="xtick"><text text-anchor="middle" x="0" y="934" style="font-family: 'Open Sans', verdana, arial, sans-serif; font-size: 37px; fill: rgb(42, 63, 95); fill-opacity: 1; white-space: pre; opacity: 1;" transform="translate(397.12,0)">100</text></g><g class="xtick"><text text-anchor="middle" x="0" y="934" style="font-family: 'Open Sans', verdana, arial, sans-serif; font-size: 37px; fill: rgb(42, 63, 95); fill-opacity: 1; white-space: pre; opacity: 1;" transform="translate(658.24,0)">200</text></g><g class="xtick"><text text-anchor="middle" x="0" y="934" style="font-family: 'Open Sans', verdana, arial, sans-serif; font-size: 37px; fill: rgb(42, 63, 95); fill-opacity: 1; white-space: pre; opacity: 1;" transform="translate(919.37,0)">300</text></g><g class="xtick"><text text-anchor="middle" x="0" y="934" style="font-family: 'Open Sans', verdana, arial, sans-serif; font-size: 37px; fill: rgb(42, 63, 95); fill-opacity: 1; white-space: pre; opacity: 1;" transform="translate(1180.49,0)">400</text></g><g class="xtick"><text text-anchor="middle" x="0" y="934" style="font-family: 'Open Sans', verdana, arial, sans-serif; font-size: 37px; fill: rgb(42, 63, 95); fill-opacity: 1; white-space: pre; opacity: 1;" transform="translate(1441.61,0)">500</text></g><g class="xtick"><text text-anchor="middle" x="0" y="934" style="font-family: 'Open Sans', verdana, arial, sans-serif; font-size: 37px; fill: rgb(42, 63, 95); fill-opacity: 1; white-space: pre; opacity: 1;" transform="translate(1702.73,0)">600</text></g><g class="xtick"><text text-anchor="middle" x="0" y="934" style="font-family: 'Open Sans', verdana, arial, sans-serif; font-size: 37px; fill: rgb(42, 63, 95); fill-opacity: 1; white-space: pre; opacity: 1;" transform="translate(1963.86,0)">700</text></g><g class="xtick"><text text-anchor="middle" x="0" y="934" style="font-family: 'Open Sans', verdana, arial, sans-serif; font-size: 37px; fill: rgb(42, 63, 95); fill-opacity: 1; white-space: pre; opacity: 1;" transform="translate(2224.98,0)">800</text></g><g class="xtick"><text text-anchor="middle" x="0" y="934" style="font-family: 'Open Sans', verdana, arial, sans-serif; font-size: 37px; fill: rgb(42, 63, 95); fill-opacity: 1; white-space: pre; opacity: 1;" transform="translate(2486.1,0)">900</text></g></g><g class="yaxislayer-above"><g class="ytick"><text text-anchor="end" x="135" y="12.95" transform="translate(0,826.27)" style="font-family: 'Open Sans', verdana, arial, sans-serif; font-size: 37px; fill: rgb(42, 63, 95); fill-opacity: 1; white-space: pre; opacity: 1;">−15</text></g><g class="ytick"><text text-anchor="end" x="135" y="12.95" style="font-family: 'Open Sans', verdana, arial, sans-serif; font-size: 37px; fill: rgb(42, 63, 95); fill-opacity: 1; white-space: pre; opacity: 1;" transform="translate(0,723.33)">−10</text></g><g class="ytick"><text text-anchor="end" x="135" y="12.95" style="font-family: 'Open Sans', verdana, arial, sans-serif; font-size: 37px; fill: rgb(42, 63, 95); fill-opacity: 1; white-space: pre; opacity: 1;" transform="translate(0,620.4)">−5</text></g><g class="ytick"><text text-anchor="end" x="135" y="12.95" style="font-family: 'Open Sans', verdana, arial, sans-serif; font-size: 37px; fill: rgb(42, 63, 95); fill-opacity: 1; white-space: pre; opacity: 1;" transform="translate(0,517.47)">0</text></g><g class="ytick"><text text-anchor="end" x="135" y="12.95" style="font-family: 'Open Sans', verdana, arial, sans-serif; font-size: 37px; fill: rgb(42, 63, 95); fill-opacity: 1; white-space: pre; opacity: 1;" transform="translate(0,414.54)">5</text></g><g class="ytick"><text text-anchor="end" x="135" y="12.95" style="font-family: 'Open Sans', verdana, arial, sans-serif; font-size: 37px; fill: rgb(42, 63, 95); fill-opacity: 1; white-space: pre; opacity: 1;" transform="translate(0,311.6)">10</text></g><g class="ytick"><text text-anchor="end" x="135" y="12.95" style="font-family: 'Open Sans', verdana, arial, sans-serif; font-size: 37px; fill: rgb(42, 63, 95); fill-opacity: 1; white-space: pre; opacity: 1;" transform="translate(0,208.67000000000002)">15</text></g><g class="ytick"><text text-anchor="end" x="135" y="12.95" style="font-family: 'Open Sans', verdana, arial, sans-serif; font-size: 37px; fill: rgb(42, 63, 95); fill-opacity: 1; white-space: pre; opacity: 1;" transform="translate(0,105.74)">20</text></g></g><g class="overaxes-above"/></g></g><g class="polarlayer"/><g class="ternarylayer"/><g class="geolayer"/><g class="funnelarealayer"/><g class="pielayer"/><g class="iciclelayer"/><g class="treemaplayer"/><g class="sunburstlayer"/><g class="glimages"/><defs id="topdefs-c21b49"><g class="clips"/><clipPath id="legendc21b49"><rect width="694" height="113" x="0" y="0"/></clipPath></defs><g class="layer-above"><g class="imagelayer"/><g class="shapelayer"/></g><g class="infolayer"><g class="legend" pointer-events="all" transform="translate(2794.12,100)"><rect class="bg" shape-rendering="crispEdges" width="694" height="113" x="0" y="0" style="stroke: rgb(68, 68, 68); stroke-opacity: 1; fill: rgb(255, 255, 255); fill-opacity: 1; stroke-width: 0px;"/><g class="scrollbox" transform="" clip-path="url(#legendc21b49)"><g class="groups"><g class="traces" transform="translate(0,30.55)" style="opacity: 1;"><text class="legendtext" text-anchor="start" x="40" y="14.43" style="font-family: 'Open Sans', verdana, arial, sans-serif; font-size: 37px; fill: rgb(42, 63, 95); fill-opacity: 1; white-space: pre;">Predicted Curvature at Anchors #1</text><g class="layers" style="opacity: 1;"><g class="legendfill"/><g class="legendlines"><path class="js-line" d="M5,0h30" style="fill: none; stroke: rgb(170, 0, 0); stroke-opacity: 1; stroke-width: 4px;"/></g><g class="legendsymbols"><g class="legendpoints"/></g></g><rect class="legendtoggle" x="0" y="-25.55" width="688.125" height="51.1" style="fill: rgb(0, 0, 0); fill-opacity: 0;"/></g><g class="traces" transform="translate(0,81.65)" style="opacity: 1;"><text class="legendtext" text-anchor="start" x="40" y="14.43" style="font-family: 'Open Sans', verdana, arial, sans-serif; font-size: 37px; fill: rgb(42, 63, 95); fill-opacity: 1; white-space: pre;">Predicted Curvature at Anchors #2</text><g class="layers" style="opacity: 1;"><g class="legendfill"/><g class="legendlines"><path class="js-line" d="M5,0h30" style="fill: none; stroke: rgb(0, 170, 0); stroke-opacity: 1; stroke-width: 4px;"/></g><g class="legendsymbols"><g class="legendpoints"/></g></g><rect class="legendtoggle" x="0" y="-25.55" width="688.125" height="51.1" style="fill: rgb(0, 0, 0); fill-opacity: 0;"/></g></g></g><rect class="scrollbar" rx="20" ry="3" width="0" height="0" x="0" y="0" style="fill: rgb(128, 139, 164); fill-opacity: 1;"/></g><g class="g-gtitle"/><g class="g-xtitle"><text class="xtitle" x="1439" y="987.8" text-anchor="middle" style="font-family: 'Open Sans', verdana, arial, sans-serif; font-size: 44px; fill: rgb(42, 63, 95); opacity: 1; font-weight: normal; white-space: pre;">Anchor Point Index</text></g><g class="g-ytitle" transform="translate(32.1279296875,0)"><text class="ytitle" transform="rotate(-90,11.871875000000003,498)" x="11.871875000000003" y="498" text-anchor="middle" style="font-family: 'Open Sans', verdana, arial, sans-serif; font-size: 44px; fill: rgb(42, 63, 95); opacity: 1; font-weight: normal; white-space: pre;">Predicted Curvature</text></g><g class="annotation" data-index="0" style="opacity: 1;"><g class="annotation-text-g" transform="rotate(0,1439,66.49999999999993)"><g class="cursor-pointer" transform="translate(222,33)"><rect class="bg" x="0.5" y="0.5" width="2433" height="66" style="stroke-width: 1px; stroke: rgb(0, 0, 0); stroke-opacity: 0; fill: rgb(0, 0, 0); fill-opacity: 0;"/><text class="annotation-text" text-anchor="middle" x="1217.03125" y="54" style="font-family: 'Open Sans', verdana, arial, sans-serif; font-size: 52px; fill: rgb(42, 63, 95); fill-opacity: 1; white-space: pre;"><tspan style="font-weight:bold">Predicted Curvature at Anchors (Transformed Curve #1 vs. Transformed Curve #2)</tspan></text></g></g></g></g></svg>