<?xml version="1.0" encoding="utf-8" standalone="no"?>
<!DOCTYPE svg PUBLIC "-//W3C//DTD SVG 1.1//EN"
  "http://www.w3.org/Graphics/SVG/1.1/DTD/svg11.dtd">
<svg xmlns:xlink="http://www.w3.org/1999/xlink" width="4320pt" height="1440pt" viewBox="0 0 4320 1440" xmlns="http://www.w3.org/2000/svg" version="1.1">
 <metadata>
  <rdf:RDF xmlns:dc="http://purl.org/dc/elements/1.1/" xmlns:cc="http://creativecommons.org/ns#" xmlns:rdf="http://www.w3.org/1999/02/22-rdf-syntax-ns#">
   <cc:Work>
    <dc:type rdf:resource="http://purl.org/dc/dcmitype/StillImage"/>
    <dc:date>2021-11-06T19:51:55.518431</dc:date>
    <dc:format>image/svg+xml</dc:format>
    <dc:creator>
     <cc:Agent>
      <dc:title>Matplotlib v3.5.0rc1, https://matplotlib.org/</dc:title>
     </cc:Agent>
    </dc:creator>
   </cc:Work>
  </rdf:RDF>
 </metadata>
 <defs>
  <style type="text/css">*{stroke-linejoin: round; stroke-linecap: butt}</style>
 </defs>
 <g id="figure_1">
  <g id="patch_1">
   <path d="M 0 1440 
L 4320 1440 
L 4320 0 
L 0 0 
z
" style="fill: #ffffff"/>
  </g>
  <g id="axes_1">
   <g id="patch_2">
    <path d="M 540 1260 
L 3888 1260 
L 3888 172.8 
L 540 172.8 
z
" style="fill: #ffffff"/>
   </g>
   <g id="matplotlib.axis_1">
    <g id="xtick_1">
     <g id="line2d_1">
      <defs>
       <path id="m9becb56d8e" d="M 0 0 
L 0 3.5 
" style="stroke: #000000; stroke-width: 0.8"/>
      </defs>
      <g>
       <use xlink:href="#m9becb56d8e" x="692.181818" y="1260" style="stroke: #000000; stroke-width: 0.8"/>
      </g>
     </g>
     <g id="text_1">
      <!-- 0 -->
      <g transform="translate(684.228693 1285.996094)scale(0.25 -0.25)">
       <defs>
        <path id="DejaVuSans-30" d="M 2034 4250 
Q 1547 4250 1301 3770 
Q 1056 3291 1056 2328 
Q 1056 1369 1301 889 
Q 1547 409 2034 409 
Q 2525 409 2770 889 
Q 3016 1369 3016 2328 
Q 3016 3291 2770 3770 
Q 2525 4250 2034 4250 
z
M 2034 4750 
Q 2819 4750 3233 4129 
Q 3647 3509 3647 2328 
Q 3647 1150 3233 529 
Q 2819 -91 2034 -91 
Q 1250 -91 836 529 
Q 422 1150 422 2328 
Q 422 3509 836 4129 
Q 1250 4750 2034 4750 
z
" transform="scale(0.015625)"/>
       </defs>
       <use xlink:href="#DejaVuSans-30"/>
      </g>
     </g>
    </g>
    <g id="xtick_2">
     <g id="line2d_2">
      <g>
       <use xlink:href="#m9becb56d8e" x="1036.744425" y="1260" style="stroke: #000000; stroke-width: 0.8"/>
      </g>
     </g>
     <g id="text_2">
      <!-- 6 -->
      <g transform="translate(1028.7913 1285.996094)scale(0.25 -0.25)">
       <defs>
        <path id="DejaVuSans-36" d="M 2113 2584 
Q 1688 2584 1439 2293 
Q 1191 2003 1191 1497 
Q 1191 994 1439 701 
Q 1688 409 2113 409 
Q 2538 409 2786 701 
Q 3034 994 3034 1497 
Q 3034 2003 2786 2293 
Q 2538 2584 2113 2584 
z
M 3366 4563 
L 3366 3988 
Q 3128 4100 2886 4159 
Q 2644 4219 2406 4219 
Q 1781 4219 1451 3797 
Q 1122 3375 1075 2522 
Q 1259 2794 1537 2939 
Q 1816 3084 2150 3084 
Q 2853 3084 3261 2657 
Q 3669 2231 3669 1497 
Q 3669 778 3244 343 
Q 2819 -91 2113 -91 
Q 1303 -91 875 529 
Q 447 1150 447 2328 
Q 447 3434 972 4092 
Q 1497 4750 2381 4750 
Q 2619 4750 2861 4703 
Q 3103 4656 3366 4563 
z
" transform="scale(0.015625)"/>
       </defs>
       <use xlink:href="#DejaVuSans-36"/>
      </g>
     </g>
    </g>
    <g id="xtick_3">
     <g id="line2d_3">
      <g>
       <use xlink:href="#m9becb56d8e" x="1381.307033" y="1260" style="stroke: #000000; stroke-width: 0.8"/>
      </g>
     </g>
     <g id="text_3">
      <!-- 12 -->
      <g transform="translate(1365.400783 1285.996094)scale(0.25 -0.25)">
       <defs>
        <path id="DejaVuSans-31" d="M 794 531 
L 1825 531 
L 1825 4091 
L 703 3866 
L 703 4441 
L 1819 4666 
L 2450 4666 
L 2450 531 
L 3481 531 
L 3481 0 
L 794 0 
L 794 531 
z
" transform="scale(0.015625)"/>
        <path id="DejaVuSans-32" d="M 1228 531 
L 3431 531 
L 3431 0 
L 469 0 
L 469 531 
Q 828 903 1448 1529 
Q 2069 2156 2228 2338 
Q 2531 2678 2651 2914 
Q 2772 3150 2772 3378 
Q 2772 3750 2511 3984 
Q 2250 4219 1831 4219 
Q 1534 4219 1204 4116 
Q 875 4013 500 3803 
L 500 4441 
Q 881 4594 1212 4672 
Q 1544 4750 1819 4750 
Q 2544 4750 2975 4387 
Q 3406 4025 3406 3419 
Q 3406 3131 3298 2873 
Q 3191 2616 2906 2266 
Q 2828 2175 2409 1742 
Q 1991 1309 1228 531 
z
" transform="scale(0.015625)"/>
       </defs>
       <use xlink:href="#DejaVuSans-31"/>
       <use xlink:href="#DejaVuSans-32" x="63.623047"/>
      </g>
     </g>
    </g>
    <g id="xtick_4">
     <g id="line2d_4">
      <g>
       <use xlink:href="#m9becb56d8e" x="1725.86964" y="1260" style="stroke: #000000; stroke-width: 0.8"/>
      </g>
     </g>
     <g id="text_4">
      <!-- 18 -->
      <g transform="translate(1709.96339 1285.996094)scale(0.25 -0.25)">
       <defs>
        <path id="DejaVuSans-38" d="M 2034 2216 
Q 1584 2216 1326 1975 
Q 1069 1734 1069 1313 
Q 1069 891 1326 650 
Q 1584 409 2034 409 
Q 2484 409 2743 651 
Q 3003 894 3003 1313 
Q 3003 1734 2745 1975 
Q 2488 2216 2034 2216 
z
M 1403 2484 
Q 997 2584 770 2862 
Q 544 3141 544 3541 
Q 544 4100 942 4425 
Q 1341 4750 2034 4750 
Q 2731 4750 3128 4425 
Q 3525 4100 3525 3541 
Q 3525 3141 3298 2862 
Q 3072 2584 2669 2484 
Q 3125 2378 3379 2068 
Q 3634 1759 3634 1313 
Q 3634 634 3220 271 
Q 2806 -91 2034 -91 
Q 1263 -91 848 271 
Q 434 634 434 1313 
Q 434 1759 690 2068 
Q 947 2378 1403 2484 
z
M 1172 3481 
Q 1172 3119 1398 2916 
Q 1625 2713 2034 2713 
Q 2441 2713 2670 2916 
Q 2900 3119 2900 3481 
Q 2900 3844 2670 4047 
Q 2441 4250 2034 4250 
Q 1625 4250 1398 4047 
Q 1172 3844 1172 3481 
z
" transform="scale(0.015625)"/>
       </defs>
       <use xlink:href="#DejaVuSans-31"/>
       <use xlink:href="#DejaVuSans-38" x="63.623047"/>
      </g>
     </g>
    </g>
    <g id="xtick_5">
     <g id="line2d_5">
      <g>
       <use xlink:href="#m9becb56d8e" x="2070.432247" y="1260" style="stroke: #000000; stroke-width: 0.8"/>
      </g>
     </g>
     <g id="text_5">
      <!-- 24 -->
      <g transform="translate(2054.525997 1285.996094)scale(0.25 -0.25)">
       <defs>
        <path id="DejaVuSans-34" d="M 2419 4116 
L 825 1625 
L 2419 1625 
L 2419 4116 
z
M 2253 4666 
L 3047 4666 
L 3047 1625 
L 3713 1625 
L 3713 1100 
L 3047 1100 
L 3047 0 
L 2419 0 
L 2419 1100 
L 313 1100 
L 313 1709 
L 2253 4666 
z
" transform="scale(0.015625)"/>
       </defs>
       <use xlink:href="#DejaVuSans-32"/>
       <use xlink:href="#DejaVuSans-34" x="63.623047"/>
      </g>
     </g>
    </g>
    <g id="xtick_6">
     <g id="line2d_6">
      <g>
       <use xlink:href="#m9becb56d8e" x="2414.994854" y="1260" style="stroke: #000000; stroke-width: 0.8"/>
      </g>
     </g>
     <g id="text_6">
      <!-- 30 -->
      <g transform="translate(2399.088604 1285.996094)scale(0.25 -0.25)">
       <defs>
        <path id="DejaVuSans-33" d="M 2597 2516 
Q 3050 2419 3304 2112 
Q 3559 1806 3559 1356 
Q 3559 666 3084 287 
Q 2609 -91 1734 -91 
Q 1441 -91 1130 -33 
Q 819 25 488 141 
L 488 750 
Q 750 597 1062 519 
Q 1375 441 1716 441 
Q 2309 441 2620 675 
Q 2931 909 2931 1356 
Q 2931 1769 2642 2001 
Q 2353 2234 1838 2234 
L 1294 2234 
L 1294 2753 
L 1863 2753 
Q 2328 2753 2575 2939 
Q 2822 3125 2822 3475 
Q 2822 3834 2567 4026 
Q 2313 4219 1838 4219 
Q 1578 4219 1281 4162 
Q 984 4106 628 3988 
L 628 4550 
Q 988 4650 1302 4700 
Q 1616 4750 1894 4750 
Q 2613 4750 3031 4423 
Q 3450 4097 3450 3541 
Q 3450 3153 3228 2886 
Q 3006 2619 2597 2516 
z
" transform="scale(0.015625)"/>
       </defs>
       <use xlink:href="#DejaVuSans-33"/>
       <use xlink:href="#DejaVuSans-30" x="63.623047"/>
      </g>
     </g>
    </g>
    <g id="xtick_7">
     <g id="line2d_7">
      <g>
       <use xlink:href="#m9becb56d8e" x="2759.557461" y="1260" style="stroke: #000000; stroke-width: 0.8"/>
      </g>
     </g>
     <g id="text_7">
      <!-- 36 -->
      <g transform="translate(2743.651211 1285.996094)scale(0.25 -0.25)">
       <use xlink:href="#DejaVuSans-33"/>
       <use xlink:href="#DejaVuSans-36" x="63.623047"/>
      </g>
     </g>
    </g>
    <g id="xtick_8">
     <g id="line2d_8">
      <g>
       <use xlink:href="#m9becb56d8e" x="3104.120069" y="1260" style="stroke: #000000; stroke-width: 0.8"/>
      </g>
     </g>
     <g id="text_8">
      <!-- 42 -->
      <g transform="translate(3088.213819 1285.996094)scale(0.25 -0.25)">
       <use xlink:href="#DejaVuSans-34"/>
       <use xlink:href="#DejaVuSans-32" x="63.623047"/>
      </g>
     </g>
    </g>
    <g id="xtick_9">
     <g id="line2d_9">
      <g>
       <use xlink:href="#m9becb56d8e" x="3448.682676" y="1260" style="stroke: #000000; stroke-width: 0.8"/>
      </g>
     </g>
     <g id="text_9">
      <!-- 48 -->
      <g transform="translate(3432.776426 1285.996094)scale(0.25 -0.25)">
       <use xlink:href="#DejaVuSans-34"/>
       <use xlink:href="#DejaVuSans-38" x="63.623047"/>
      </g>
     </g>
    </g>
    <g id="xtick_10">
     <g id="line2d_10">
      <g>
       <use xlink:href="#m9becb56d8e" x="3793.245283" y="1260" style="stroke: #000000; stroke-width: 0.8"/>
      </g>
     </g>
     <g id="text_10">
      <!-- 54 -->
      <g transform="translate(3777.339033 1285.996094)scale(0.25 -0.25)">
       <defs>
        <path id="DejaVuSans-35" d="M 691 4666 
L 3169 4666 
L 3169 4134 
L 1269 4134 
L 1269 2991 
Q 1406 3038 1543 3061 
Q 1681 3084 1819 3084 
Q 2600 3084 3056 2656 
Q 3513 2228 3513 1497 
Q 3513 744 3044 326 
Q 2575 -91 1722 -91 
Q 1428 -91 1123 -41 
Q 819 9 494 109 
L 494 744 
Q 775 591 1075 516 
Q 1375 441 1709 441 
Q 2250 441 2565 725 
Q 2881 1009 2881 1497 
Q 2881 1984 2565 2268 
Q 2250 2553 1709 2553 
Q 1456 2553 1204 2497 
Q 953 2441 691 2322 
L 691 4666 
z
" transform="scale(0.015625)"/>
       </defs>
       <use xlink:href="#DejaVuSans-35"/>
       <use xlink:href="#DejaVuSans-34" x="63.623047"/>
      </g>
     </g>
    </g>
    <g id="text_11">
     <!-- Anchor Point Index -->
     <g transform="translate(2049.579297 1321.789844)scale(0.35 -0.35)">
      <defs>
       <path id="DejaVuSans-41" d="M 2188 4044 
L 1331 1722 
L 3047 1722 
L 2188 4044 
z
M 1831 4666 
L 2547 4666 
L 4325 0 
L 3669 0 
L 3244 1197 
L 1141 1197 
L 716 0 
L 50 0 
L 1831 4666 
z
" transform="scale(0.015625)"/>
       <path id="DejaVuSans-6e" d="M 3513 2113 
L 3513 0 
L 2938 0 
L 2938 2094 
Q 2938 2591 2744 2837 
Q 2550 3084 2163 3084 
Q 1697 3084 1428 2787 
Q 1159 2491 1159 1978 
L 1159 0 
L 581 0 
L 581 3500 
L 1159 3500 
L 1159 2956 
Q 1366 3272 1645 3428 
Q 1925 3584 2291 3584 
Q 2894 3584 3203 3211 
Q 3513 2838 3513 2113 
z
" transform="scale(0.015625)"/>
       <path id="DejaVuSans-63" d="M 3122 3366 
L 3122 2828 
Q 2878 2963 2633 3030 
Q 2388 3097 2138 3097 
Q 1578 3097 1268 2742 
Q 959 2388 959 1747 
Q 959 1106 1268 751 
Q 1578 397 2138 397 
Q 2388 397 2633 464 
Q 2878 531 3122 666 
L 3122 134 
Q 2881 22 2623 -34 
Q 2366 -91 2075 -91 
Q 1284 -91 818 406 
Q 353 903 353 1747 
Q 353 2603 823 3093 
Q 1294 3584 2113 3584 
Q 2378 3584 2631 3529 
Q 2884 3475 3122 3366 
z
" transform="scale(0.015625)"/>
       <path id="DejaVuSans-68" d="M 3513 2113 
L 3513 0 
L 2938 0 
L 2938 2094 
Q 2938 2591 2744 2837 
Q 2550 3084 2163 3084 
Q 1697 3084 1428 2787 
Q 1159 2491 1159 1978 
L 1159 0 
L 581 0 
L 581 4863 
L 1159 4863 
L 1159 2956 
Q 1366 3272 1645 3428 
Q 1925 3584 2291 3584 
Q 2894 3584 3203 3211 
Q 3513 2838 3513 2113 
z
" transform="scale(0.015625)"/>
       <path id="DejaVuSans-6f" d="M 1959 3097 
Q 1497 3097 1228 2736 
Q 959 2375 959 1747 
Q 959 1119 1226 758 
Q 1494 397 1959 397 
Q 2419 397 2687 759 
Q 2956 1122 2956 1747 
Q 2956 2369 2687 2733 
Q 2419 3097 1959 3097 
z
M 1959 3584 
Q 2709 3584 3137 3096 
Q 3566 2609 3566 1747 
Q 3566 888 3137 398 
Q 2709 -91 1959 -91 
Q 1206 -91 779 398 
Q 353 888 353 1747 
Q 353 2609 779 3096 
Q 1206 3584 1959 3584 
z
" transform="scale(0.015625)"/>
       <path id="DejaVuSans-72" d="M 2631 2963 
Q 2534 3019 2420 3045 
Q 2306 3072 2169 3072 
Q 1681 3072 1420 2755 
Q 1159 2438 1159 1844 
L 1159 0 
L 581 0 
L 581 3500 
L 1159 3500 
L 1159 2956 
Q 1341 3275 1631 3429 
Q 1922 3584 2338 3584 
Q 2397 3584 2469 3576 
Q 2541 3569 2628 3553 
L 2631 2963 
z
" transform="scale(0.015625)"/>
       <path id="DejaVuSans-20" transform="scale(0.015625)"/>
       <path id="DejaVuSans-50" d="M 1259 4147 
L 1259 2394 
L 2053 2394 
Q 2494 2394 2734 2622 
Q 2975 2850 2975 3272 
Q 2975 3691 2734 3919 
Q 2494 4147 2053 4147 
L 1259 4147 
z
M 628 4666 
L 2053 4666 
Q 2838 4666 3239 4311 
Q 3641 3956 3641 3272 
Q 3641 2581 3239 2228 
Q 2838 1875 2053 1875 
L 1259 1875 
L 1259 0 
L 628 0 
L 628 4666 
z
" transform="scale(0.015625)"/>
       <path id="DejaVuSans-69" d="M 603 3500 
L 1178 3500 
L 1178 0 
L 603 0 
L 603 3500 
z
M 603 4863 
L 1178 4863 
L 1178 4134 
L 603 4134 
L 603 4863 
z
" transform="scale(0.015625)"/>
       <path id="DejaVuSans-74" d="M 1172 4494 
L 1172 3500 
L 2356 3500 
L 2356 3053 
L 1172 3053 
L 1172 1153 
Q 1172 725 1289 603 
Q 1406 481 1766 481 
L 2356 481 
L 2356 0 
L 1766 0 
Q 1100 0 847 248 
Q 594 497 594 1153 
L 594 3053 
L 172 3053 
L 172 3500 
L 594 3500 
L 594 4494 
L 1172 4494 
z
" transform="scale(0.015625)"/>
       <path id="DejaVuSans-49" d="M 628 4666 
L 1259 4666 
L 1259 0 
L 628 0 
L 628 4666 
z
" transform="scale(0.015625)"/>
       <path id="DejaVuSans-64" d="M 2906 2969 
L 2906 4863 
L 3481 4863 
L 3481 0 
L 2906 0 
L 2906 525 
Q 2725 213 2448 61 
Q 2172 -91 1784 -91 
Q 1150 -91 751 415 
Q 353 922 353 1747 
Q 353 2572 751 3078 
Q 1150 3584 1784 3584 
Q 2172 3584 2448 3432 
Q 2725 3281 2906 2969 
z
M 947 1747 
Q 947 1113 1208 752 
Q 1469 391 1925 391 
Q 2381 391 2643 752 
Q 2906 1113 2906 1747 
Q 2906 2381 2643 2742 
Q 2381 3103 1925 3103 
Q 1469 3103 1208 2742 
Q 947 2381 947 1747 
z
" transform="scale(0.015625)"/>
       <path id="DejaVuSans-65" d="M 3597 1894 
L 3597 1613 
L 953 1613 
Q 991 1019 1311 708 
Q 1631 397 2203 397 
Q 2534 397 2845 478 
Q 3156 559 3463 722 
L 3463 178 
Q 3153 47 2828 -22 
Q 2503 -91 2169 -91 
Q 1331 -91 842 396 
Q 353 884 353 1716 
Q 353 2575 817 3079 
Q 1281 3584 2069 3584 
Q 2775 3584 3186 3129 
Q 3597 2675 3597 1894 
z
M 3022 2063 
Q 3016 2534 2758 2815 
Q 2500 3097 2075 3097 
Q 1594 3097 1305 2825 
Q 1016 2553 972 2059 
L 3022 2063 
z
" transform="scale(0.015625)"/>
       <path id="DejaVuSans-78" d="M 3513 3500 
L 2247 1797 
L 3578 0 
L 2900 0 
L 1881 1375 
L 863 0 
L 184 0 
L 1544 1831 
L 300 3500 
L 978 3500 
L 1906 2253 
L 2834 3500 
L 3513 3500 
z
" transform="scale(0.015625)"/>
      </defs>
      <use xlink:href="#DejaVuSans-41"/>
      <use xlink:href="#DejaVuSans-6e" x="68.408203"/>
      <use xlink:href="#DejaVuSans-63" x="131.787109"/>
      <use xlink:href="#DejaVuSans-68" x="186.767578"/>
      <use xlink:href="#DejaVuSans-6f" x="250.146484"/>
      <use xlink:href="#DejaVuSans-72" x="311.328125"/>
      <use xlink:href="#DejaVuSans-20" x="352.441406"/>
      <use xlink:href="#DejaVuSans-50" x="384.228516"/>
      <use xlink:href="#DejaVuSans-6f" x="440.90625"/>
      <use xlink:href="#DejaVuSans-69" x="502.087891"/>
      <use xlink:href="#DejaVuSans-6e" x="529.871094"/>
      <use xlink:href="#DejaVuSans-74" x="593.25"/>
      <use xlink:href="#DejaVuSans-20" x="632.458984"/>
      <use xlink:href="#DejaVuSans-49" x="664.246094"/>
      <use xlink:href="#DejaVuSans-6e" x="693.738281"/>
      <use xlink:href="#DejaVuSans-64" x="757.117188"/>
      <use xlink:href="#DejaVuSans-65" x="820.59375"/>
      <use xlink:href="#DejaVuSans-78" x="880.367188"/>
     </g>
    </g>
   </g>
   <g id="matplotlib.axis_2">
    <g id="ytick_1">
     <g id="line2d_11">
      <defs>
       <path id="m27aa5a3faf" d="M 0 0 
L -3.5 0 
" style="stroke: #000000; stroke-width: 0.8"/>
      </defs>
      <g>
       <use xlink:href="#m27aa5a3faf" x="540" y="1210.581818" style="stroke: #000000; stroke-width: 0.8"/>
      </g>
     </g>
     <g id="text_12">
      <!-- 0 -->
      <g transform="translate(517.09375 1220.079865)scale(0.25 -0.25)">
       <use xlink:href="#DejaVuSans-30"/>
      </g>
     </g>
    </g>
    <g id="ytick_2">
     <g id="line2d_12">
      <g>
       <use xlink:href="#m27aa5a3faf" x="540" y="1064.11281" style="stroke: #000000; stroke-width: 0.8"/>
      </g>
     </g>
     <g id="text_13">
      <!-- 100 -->
      <g transform="translate(485.28125 1073.610857)scale(0.25 -0.25)">
       <use xlink:href="#DejaVuSans-31"/>
       <use xlink:href="#DejaVuSans-30" x="63.623047"/>
       <use xlink:href="#DejaVuSans-30" x="127.246094"/>
      </g>
     </g>
    </g>
    <g id="ytick_3">
     <g id="line2d_13">
      <g>
       <use xlink:href="#m27aa5a3faf" x="540" y="917.643802" style="stroke: #000000; stroke-width: 0.8"/>
      </g>
     </g>
     <g id="text_14">
      <!-- 200 -->
      <g transform="translate(485.28125 927.141849)scale(0.25 -0.25)">
       <use xlink:href="#DejaVuSans-32"/>
       <use xlink:href="#DejaVuSans-30" x="63.623047"/>
       <use xlink:href="#DejaVuSans-30" x="127.246094"/>
      </g>
     </g>
    </g>
    <g id="ytick_4">
     <g id="line2d_14">
      <g>
       <use xlink:href="#m27aa5a3faf" x="540" y="771.174793" style="stroke: #000000; stroke-width: 0.8"/>
      </g>
     </g>
     <g id="text_15">
      <!-- 300 -->
      <g transform="translate(485.28125 780.67284)scale(0.25 -0.25)">
       <use xlink:href="#DejaVuSans-33"/>
       <use xlink:href="#DejaVuSans-30" x="63.623047"/>
       <use xlink:href="#DejaVuSans-30" x="127.246094"/>
      </g>
     </g>
    </g>
    <g id="ytick_5">
     <g id="line2d_15">
      <g>
       <use xlink:href="#m27aa5a3faf" x="540" y="624.705785" style="stroke: #000000; stroke-width: 0.8"/>
      </g>
     </g>
     <g id="text_16">
      <!-- 400 -->
      <g transform="translate(485.28125 634.203832)scale(0.25 -0.25)">
       <use xlink:href="#DejaVuSans-34"/>
       <use xlink:href="#DejaVuSans-30" x="63.623047"/>
       <use xlink:href="#DejaVuSans-30" x="127.246094"/>
      </g>
     </g>
    </g>
    <g id="ytick_6">
     <g id="line2d_16">
      <g>
       <use xlink:href="#m27aa5a3faf" x="540" y="478.236777" style="stroke: #000000; stroke-width: 0.8"/>
      </g>
     </g>
     <g id="text_17">
      <!-- 500 -->
      <g transform="translate(485.28125 487.734824)scale(0.25 -0.25)">
       <use xlink:href="#DejaVuSans-35"/>
       <use xlink:href="#DejaVuSans-30" x="63.623047"/>
       <use xlink:href="#DejaVuSans-30" x="127.246094"/>
      </g>
     </g>
    </g>
    <g id="ytick_7">
     <g id="line2d_17">
      <g>
       <use xlink:href="#m27aa5a3faf" x="540" y="331.767769" style="stroke: #000000; stroke-width: 0.8"/>
      </g>
     </g>
     <g id="text_18">
      <!-- 600 -->
      <g transform="translate(485.28125 341.265815)scale(0.25 -0.25)">
       <use xlink:href="#DejaVuSans-36"/>
       <use xlink:href="#DejaVuSans-30" x="63.623047"/>
       <use xlink:href="#DejaVuSans-30" x="127.246094"/>
      </g>
     </g>
    </g>
    <g id="ytick_8">
     <g id="line2d_18">
      <g>
       <use xlink:href="#m27aa5a3faf" x="540" y="185.29876" style="stroke: #000000; stroke-width: 0.8"/>
      </g>
     </g>
     <g id="text_19">
      <!-- 700 -->
      <g transform="translate(485.28125 194.796807)scale(0.25 -0.25)">
       <defs>
        <path id="DejaVuSans-37" d="M 525 4666 
L 3525 4666 
L 3525 4397 
L 1831 0 
L 1172 0 
L 2766 4134 
L 525 4134 
L 525 4666 
z
" transform="scale(0.015625)"/>
       </defs>
       <use xlink:href="#DejaVuSans-37"/>
       <use xlink:href="#DejaVuSans-30" x="63.623047"/>
       <use xlink:href="#DejaVuSans-30" x="127.246094"/>
      </g>
     </g>
    </g>
    <g id="text_20">
     <!-- Predicted Arc-Length -->
     <g transform="translate(474.002344 899.179297)rotate(-90)scale(0.35 -0.35)">
      <defs>
       <path id="DejaVuSans-2d" d="M 313 2009 
L 1997 2009 
L 1997 1497 
L 313 1497 
L 313 2009 
z
" transform="scale(0.015625)"/>
       <path id="DejaVuSans-4c" d="M 628 4666 
L 1259 4666 
L 1259 531 
L 3531 531 
L 3531 0 
L 628 0 
L 628 4666 
z
" transform="scale(0.015625)"/>
       <path id="DejaVuSans-67" d="M 2906 1791 
Q 2906 2416 2648 2759 
Q 2391 3103 1925 3103 
Q 1463 3103 1205 2759 
Q 947 2416 947 1791 
Q 947 1169 1205 825 
Q 1463 481 1925 481 
Q 2391 481 2648 825 
Q 2906 1169 2906 1791 
z
M 3481 434 
Q 3481 -459 3084 -895 
Q 2688 -1331 1869 -1331 
Q 1566 -1331 1297 -1286 
Q 1028 -1241 775 -1147 
L 775 -588 
Q 1028 -725 1275 -790 
Q 1522 -856 1778 -856 
Q 2344 -856 2625 -561 
Q 2906 -266 2906 331 
L 2906 616 
Q 2728 306 2450 153 
Q 2172 0 1784 0 
Q 1141 0 747 490 
Q 353 981 353 1791 
Q 353 2603 747 3093 
Q 1141 3584 1784 3584 
Q 2172 3584 2450 3431 
Q 2728 3278 2906 2969 
L 2906 3500 
L 3481 3500 
L 3481 434 
z
" transform="scale(0.015625)"/>
      </defs>
      <use xlink:href="#DejaVuSans-50"/>
      <use xlink:href="#DejaVuSans-72" x="58.552734"/>
      <use xlink:href="#DejaVuSans-65" x="97.416016"/>
      <use xlink:href="#DejaVuSans-64" x="158.939453"/>
      <use xlink:href="#DejaVuSans-69" x="222.416016"/>
      <use xlink:href="#DejaVuSans-63" x="250.199219"/>
      <use xlink:href="#DejaVuSans-74" x="305.179688"/>
      <use xlink:href="#DejaVuSans-65" x="344.388672"/>
      <use xlink:href="#DejaVuSans-64" x="405.912109"/>
      <use xlink:href="#DejaVuSans-20" x="469.388672"/>
      <use xlink:href="#DejaVuSans-41" x="501.175781"/>
      <use xlink:href="#DejaVuSans-72" x="569.583984"/>
      <use xlink:href="#DejaVuSans-63" x="608.447266"/>
      <use xlink:href="#DejaVuSans-2d" x="663.427734"/>
      <use xlink:href="#DejaVuSans-4c" x="699.511719"/>
      <use xlink:href="#DejaVuSans-65" x="753.474609"/>
      <use xlink:href="#DejaVuSans-6e" x="814.998047"/>
      <use xlink:href="#DejaVuSans-67" x="878.376953"/>
      <use xlink:href="#DejaVuSans-74" x="941.853516"/>
      <use xlink:href="#DejaVuSans-68" x="981.0625"/>
     </g>
    </g>
   </g>
   <g id="patch_3">
    <path d="M 540 1260 
L 540 172.8 
" style="fill: none; stroke: #000000; stroke-width: 0.8; stroke-linejoin: miter; stroke-linecap: square"/>
   </g>
   <g id="patch_4">
    <path d="M 3888 1260 
L 3888 172.8 
" style="fill: none; stroke: #000000; stroke-width: 0.8; stroke-linejoin: miter; stroke-linecap: square"/>
   </g>
   <g id="patch_5">
    <path d="M 540 1260 
L 3888 1260 
" style="fill: none; stroke: #000000; stroke-width: 0.8; stroke-linejoin: miter; stroke-linecap: square"/>
   </g>
   <g id="patch_6">
    <path d="M 540 172.8 
L 3888 172.8 
" style="fill: none; stroke: #000000; stroke-width: 0.8; stroke-linejoin: miter; stroke-linecap: square"/>
   </g>
   <g id="text_21">
    <!-- Predicted Arc-Length vs. Ground Truth Arc-Length at Anchors -->
    <g transform="translate(1680.662891 165.521094)scale(0.35 -0.35)">
     <defs>
      <path id="DejaVuSans-76" d="M 191 3500 
L 800 3500 
L 1894 563 
L 2988 3500 
L 3597 3500 
L 2284 0 
L 1503 0 
L 191 3500 
z
" transform="scale(0.015625)"/>
      <path id="DejaVuSans-73" d="M 2834 3397 
L 2834 2853 
Q 2591 2978 2328 3040 
Q 2066 3103 1784 3103 
Q 1356 3103 1142 2972 
Q 928 2841 928 2578 
Q 928 2378 1081 2264 
Q 1234 2150 1697 2047 
L 1894 2003 
Q 2506 1872 2764 1633 
Q 3022 1394 3022 966 
Q 3022 478 2636 193 
Q 2250 -91 1575 -91 
Q 1294 -91 989 -36 
Q 684 19 347 128 
L 347 722 
Q 666 556 975 473 
Q 1284 391 1588 391 
Q 1994 391 2212 530 
Q 2431 669 2431 922 
Q 2431 1156 2273 1281 
Q 2116 1406 1581 1522 
L 1381 1569 
Q 847 1681 609 1914 
Q 372 2147 372 2553 
Q 372 3047 722 3315 
Q 1072 3584 1716 3584 
Q 2034 3584 2315 3537 
Q 2597 3491 2834 3397 
z
" transform="scale(0.015625)"/>
      <path id="DejaVuSans-2e" d="M 684 794 
L 1344 794 
L 1344 0 
L 684 0 
L 684 794 
z
" transform="scale(0.015625)"/>
      <path id="DejaVuSans-47" d="M 3809 666 
L 3809 1919 
L 2778 1919 
L 2778 2438 
L 4434 2438 
L 4434 434 
Q 4069 175 3628 42 
Q 3188 -91 2688 -91 
Q 1594 -91 976 548 
Q 359 1188 359 2328 
Q 359 3472 976 4111 
Q 1594 4750 2688 4750 
Q 3144 4750 3555 4637 
Q 3966 4525 4313 4306 
L 4313 3634 
Q 3963 3931 3569 4081 
Q 3175 4231 2741 4231 
Q 1884 4231 1454 3753 
Q 1025 3275 1025 2328 
Q 1025 1384 1454 906 
Q 1884 428 2741 428 
Q 3075 428 3337 486 
Q 3600 544 3809 666 
z
" transform="scale(0.015625)"/>
      <path id="DejaVuSans-75" d="M 544 1381 
L 544 3500 
L 1119 3500 
L 1119 1403 
Q 1119 906 1312 657 
Q 1506 409 1894 409 
Q 2359 409 2629 706 
Q 2900 1003 2900 1516 
L 2900 3500 
L 3475 3500 
L 3475 0 
L 2900 0 
L 2900 538 
Q 2691 219 2414 64 
Q 2138 -91 1772 -91 
Q 1169 -91 856 284 
Q 544 659 544 1381 
z
M 1991 3584 
L 1991 3584 
z
" transform="scale(0.015625)"/>
      <path id="DejaVuSans-54" d="M -19 4666 
L 3928 4666 
L 3928 4134 
L 2272 4134 
L 2272 0 
L 1638 0 
L 1638 4134 
L -19 4134 
L -19 4666 
z
" transform="scale(0.015625)"/>
      <path id="DejaVuSans-61" d="M 2194 1759 
Q 1497 1759 1228 1600 
Q 959 1441 959 1056 
Q 959 750 1161 570 
Q 1363 391 1709 391 
Q 2188 391 2477 730 
Q 2766 1069 2766 1631 
L 2766 1759 
L 2194 1759 
z
M 3341 1997 
L 3341 0 
L 2766 0 
L 2766 531 
Q 2569 213 2275 61 
Q 1981 -91 1556 -91 
Q 1019 -91 701 211 
Q 384 513 384 1019 
Q 384 1609 779 1909 
Q 1175 2209 1959 2209 
L 2766 2209 
L 2766 2266 
Q 2766 2663 2505 2880 
Q 2244 3097 1772 3097 
Q 1472 3097 1187 3025 
Q 903 2953 641 2809 
L 641 3341 
Q 956 3463 1253 3523 
Q 1550 3584 1831 3584 
Q 2591 3584 2966 3190 
Q 3341 2797 3341 1997 
z
" transform="scale(0.015625)"/>
     </defs>
     <use xlink:href="#DejaVuSans-50"/>
     <use xlink:href="#DejaVuSans-72" x="58.552734"/>
     <use xlink:href="#DejaVuSans-65" x="97.416016"/>
     <use xlink:href="#DejaVuSans-64" x="158.939453"/>
     <use xlink:href="#DejaVuSans-69" x="222.416016"/>
     <use xlink:href="#DejaVuSans-63" x="250.199219"/>
     <use xlink:href="#DejaVuSans-74" x="305.179688"/>
     <use xlink:href="#DejaVuSans-65" x="344.388672"/>
     <use xlink:href="#DejaVuSans-64" x="405.912109"/>
     <use xlink:href="#DejaVuSans-20" x="469.388672"/>
     <use xlink:href="#DejaVuSans-41" x="501.175781"/>
     <use xlink:href="#DejaVuSans-72" x="569.583984"/>
     <use xlink:href="#DejaVuSans-63" x="608.447266"/>
     <use xlink:href="#DejaVuSans-2d" x="663.427734"/>
     <use xlink:href="#DejaVuSans-4c" x="699.511719"/>
     <use xlink:href="#DejaVuSans-65" x="753.474609"/>
     <use xlink:href="#DejaVuSans-6e" x="814.998047"/>
     <use xlink:href="#DejaVuSans-67" x="878.376953"/>
     <use xlink:href="#DejaVuSans-74" x="941.853516"/>
     <use xlink:href="#DejaVuSans-68" x="981.0625"/>
     <use xlink:href="#DejaVuSans-20" x="1044.441406"/>
     <use xlink:href="#DejaVuSans-76" x="1076.228516"/>
     <use xlink:href="#DejaVuSans-73" x="1135.408203"/>
     <use xlink:href="#DejaVuSans-2e" x="1187.507812"/>
     <use xlink:href="#DejaVuSans-20" x="1219.294922"/>
     <use xlink:href="#DejaVuSans-47" x="1251.082031"/>
     <use xlink:href="#DejaVuSans-72" x="1328.572266"/>
     <use xlink:href="#DejaVuSans-6f" x="1367.435547"/>
     <use xlink:href="#DejaVuSans-75" x="1428.617188"/>
     <use xlink:href="#DejaVuSans-6e" x="1491.996094"/>
     <use xlink:href="#DejaVuSans-64" x="1555.375"/>
     <use xlink:href="#DejaVuSans-20" x="1618.851562"/>
     <use xlink:href="#DejaVuSans-54" x="1650.638672"/>
     <use xlink:href="#DejaVuSans-72" x="1696.972656"/>
     <use xlink:href="#DejaVuSans-75" x="1738.085938"/>
     <use xlink:href="#DejaVuSans-74" x="1801.464844"/>
     <use xlink:href="#DejaVuSans-68" x="1840.673828"/>
     <use xlink:href="#DejaVuSans-20" x="1904.052734"/>
     <use xlink:href="#DejaVuSans-41" x="1935.839844"/>
     <use xlink:href="#DejaVuSans-72" x="2004.248047"/>
     <use xlink:href="#DejaVuSans-63" x="2043.111328"/>
     <use xlink:href="#DejaVuSans-2d" x="2098.091797"/>
     <use xlink:href="#DejaVuSans-4c" x="2134.175781"/>
     <use xlink:href="#DejaVuSans-65" x="2188.138672"/>
     <use xlink:href="#DejaVuSans-6e" x="2249.662109"/>
     <use xlink:href="#DejaVuSans-67" x="2313.041016"/>
     <use xlink:href="#DejaVuSans-74" x="2376.517578"/>
     <use xlink:href="#DejaVuSans-68" x="2415.726562"/>
     <use xlink:href="#DejaVuSans-20" x="2479.105469"/>
     <use xlink:href="#DejaVuSans-61" x="2510.892578"/>
     <use xlink:href="#DejaVuSans-74" x="2572.171875"/>
     <use xlink:href="#DejaVuSans-20" x="2611.380859"/>
     <use xlink:href="#DejaVuSans-41" x="2643.167969"/>
     <use xlink:href="#DejaVuSans-6e" x="2711.576172"/>
     <use xlink:href="#DejaVuSans-63" x="2774.955078"/>
     <use xlink:href="#DejaVuSans-68" x="2829.935547"/>
     <use xlink:href="#DejaVuSans-6f" x="2893.314453"/>
     <use xlink:href="#DejaVuSans-72" x="2954.496094"/>
     <use xlink:href="#DejaVuSans-73" x="2995.609375"/>
    </g>
   </g>
   <g id="legend_1">
    <g id="patch_7">
     <path d="M 557.5 339.58125 
L 1192.59375 339.58125 
Q 1197.59375 339.58125 1197.59375 334.58125 
L 1197.59375 190.3 
Q 1197.59375 185.3 1192.59375 185.3 
L 557.5 185.3 
Q 552.5 185.3 552.5 190.3 
L 552.5 334.58125 
Q 552.5 339.58125 557.5 339.58125 
z
" style="fill: #ffffff; opacity: 0.8; stroke: #cccccc; stroke-linejoin: miter"/>
    </g>
    <g id="line2d_19">
     <path d="M 562.5 205.546094 
L 587.5 205.546094 
L 612.5 205.546094 
" style="fill: none; stroke: #ff8c00; stroke-width: 4; stroke-linecap: square"/>
    </g>
    <g id="text_22">
     <!-- True Arclength (Transformed Curve #1) -->
     <g transform="translate(632.5 214.296094)scale(0.25 -0.25)">
      <defs>
       <path id="DejaVuSans-6c" d="M 603 4863 
L 1178 4863 
L 1178 0 
L 603 0 
L 603 4863 
z
" transform="scale(0.015625)"/>
       <path id="DejaVuSans-28" d="M 1984 4856 
Q 1566 4138 1362 3434 
Q 1159 2731 1159 2009 
Q 1159 1288 1364 580 
Q 1569 -128 1984 -844 
L 1484 -844 
Q 1016 -109 783 600 
Q 550 1309 550 2009 
Q 550 2706 781 3412 
Q 1013 4119 1484 4856 
L 1984 4856 
z
" transform="scale(0.015625)"/>
       <path id="DejaVuSans-66" d="M 2375 4863 
L 2375 4384 
L 1825 4384 
Q 1516 4384 1395 4259 
Q 1275 4134 1275 3809 
L 1275 3500 
L 2222 3500 
L 2222 3053 
L 1275 3053 
L 1275 0 
L 697 0 
L 697 3053 
L 147 3053 
L 147 3500 
L 697 3500 
L 697 3744 
Q 697 4328 969 4595 
Q 1241 4863 1831 4863 
L 2375 4863 
z
" transform="scale(0.015625)"/>
       <path id="DejaVuSans-6d" d="M 3328 2828 
Q 3544 3216 3844 3400 
Q 4144 3584 4550 3584 
Q 5097 3584 5394 3201 
Q 5691 2819 5691 2113 
L 5691 0 
L 5113 0 
L 5113 2094 
Q 5113 2597 4934 2840 
Q 4756 3084 4391 3084 
Q 3944 3084 3684 2787 
Q 3425 2491 3425 1978 
L 3425 0 
L 2847 0 
L 2847 2094 
Q 2847 2600 2669 2842 
Q 2491 3084 2119 3084 
Q 1678 3084 1418 2786 
Q 1159 2488 1159 1978 
L 1159 0 
L 581 0 
L 581 3500 
L 1159 3500 
L 1159 2956 
Q 1356 3278 1631 3431 
Q 1906 3584 2284 3584 
Q 2666 3584 2933 3390 
Q 3200 3197 3328 2828 
z
" transform="scale(0.015625)"/>
       <path id="DejaVuSans-43" d="M 4122 4306 
L 4122 3641 
Q 3803 3938 3442 4084 
Q 3081 4231 2675 4231 
Q 1875 4231 1450 3742 
Q 1025 3253 1025 2328 
Q 1025 1406 1450 917 
Q 1875 428 2675 428 
Q 3081 428 3442 575 
Q 3803 722 4122 1019 
L 4122 359 
Q 3791 134 3420 21 
Q 3050 -91 2638 -91 
Q 1578 -91 968 557 
Q 359 1206 359 2328 
Q 359 3453 968 4101 
Q 1578 4750 2638 4750 
Q 3056 4750 3426 4639 
Q 3797 4528 4122 4306 
z
" transform="scale(0.015625)"/>
       <path id="DejaVuSans-23" d="M 3272 2816 
L 2363 2816 
L 2100 1772 
L 3016 1772 
L 3272 2816 
z
M 2803 4594 
L 2478 3297 
L 3391 3297 
L 3719 4594 
L 4219 4594 
L 3897 3297 
L 4872 3297 
L 4872 2816 
L 3775 2816 
L 3519 1772 
L 4513 1772 
L 4513 1294 
L 3397 1294 
L 3072 0 
L 2572 0 
L 2894 1294 
L 1978 1294 
L 1656 0 
L 1153 0 
L 1478 1294 
L 494 1294 
L 494 1772 
L 1594 1772 
L 1856 2816 
L 850 2816 
L 850 3297 
L 1978 3297 
L 2297 4594 
L 2803 4594 
z
" transform="scale(0.015625)"/>
       <path id="DejaVuSans-29" d="M 513 4856 
L 1013 4856 
Q 1481 4119 1714 3412 
Q 1947 2706 1947 2009 
Q 1947 1309 1714 600 
Q 1481 -109 1013 -844 
L 513 -844 
Q 928 -128 1133 580 
Q 1338 1288 1338 2009 
Q 1338 2731 1133 3434 
Q 928 4138 513 4856 
z
" transform="scale(0.015625)"/>
      </defs>
      <use xlink:href="#DejaVuSans-54"/>
      <use xlink:href="#DejaVuSans-72" x="46.333984"/>
      <use xlink:href="#DejaVuSans-75" x="87.447266"/>
      <use xlink:href="#DejaVuSans-65" x="150.826172"/>
      <use xlink:href="#DejaVuSans-20" x="212.349609"/>
      <use xlink:href="#DejaVuSans-41" x="244.136719"/>
      <use xlink:href="#DejaVuSans-72" x="312.544922"/>
      <use xlink:href="#DejaVuSans-63" x="351.408203"/>
      <use xlink:href="#DejaVuSans-6c" x="406.388672"/>
      <use xlink:href="#DejaVuSans-65" x="434.171875"/>
      <use xlink:href="#DejaVuSans-6e" x="495.695312"/>
      <use xlink:href="#DejaVuSans-67" x="559.074219"/>
      <use xlink:href="#DejaVuSans-74" x="622.550781"/>
      <use xlink:href="#DejaVuSans-68" x="661.759766"/>
      <use xlink:href="#DejaVuSans-20" x="725.138672"/>
      <use xlink:href="#DejaVuSans-28" x="756.925781"/>
      <use xlink:href="#DejaVuSans-54" x="795.939453"/>
      <use xlink:href="#DejaVuSans-72" x="842.273438"/>
      <use xlink:href="#DejaVuSans-61" x="883.386719"/>
      <use xlink:href="#DejaVuSans-6e" x="944.666016"/>
      <use xlink:href="#DejaVuSans-73" x="1008.044922"/>
      <use xlink:href="#DejaVuSans-66" x="1060.144531"/>
      <use xlink:href="#DejaVuSans-6f" x="1095.349609"/>
      <use xlink:href="#DejaVuSans-72" x="1156.53125"/>
      <use xlink:href="#DejaVuSans-6d" x="1195.894531"/>
      <use xlink:href="#DejaVuSans-65" x="1293.306641"/>
      <use xlink:href="#DejaVuSans-64" x="1354.830078"/>
      <use xlink:href="#DejaVuSans-20" x="1418.306641"/>
      <use xlink:href="#DejaVuSans-43" x="1450.09375"/>
      <use xlink:href="#DejaVuSans-75" x="1519.917969"/>
      <use xlink:href="#DejaVuSans-72" x="1583.296875"/>
      <use xlink:href="#DejaVuSans-76" x="1624.410156"/>
      <use xlink:href="#DejaVuSans-65" x="1683.589844"/>
      <use xlink:href="#DejaVuSans-20" x="1745.113281"/>
      <use xlink:href="#DejaVuSans-23" x="1776.900391"/>
      <use xlink:href="#DejaVuSans-31" x="1860.689453"/>
      <use xlink:href="#DejaVuSans-29" x="1924.3125"/>
     </g>
    </g>
    <g id="line2d_20">
     <path d="M 562.5 242.241406 
L 587.5 242.241406 
L 612.5 242.241406 
" style="fill: none; stroke: #444444; stroke-width: 4; stroke-linecap: square"/>
    </g>
    <g id="text_23">
     <!-- True Arclength (Transformed Curve #2) -->
     <g transform="translate(632.5 250.991406)scale(0.25 -0.25)">
      <use xlink:href="#DejaVuSans-54"/>
      <use xlink:href="#DejaVuSans-72" x="46.333984"/>
      <use xlink:href="#DejaVuSans-75" x="87.447266"/>
      <use xlink:href="#DejaVuSans-65" x="150.826172"/>
      <use xlink:href="#DejaVuSans-20" x="212.349609"/>
      <use xlink:href="#DejaVuSans-41" x="244.136719"/>
      <use xlink:href="#DejaVuSans-72" x="312.544922"/>
      <use xlink:href="#DejaVuSans-63" x="351.408203"/>
      <use xlink:href="#DejaVuSans-6c" x="406.388672"/>
      <use xlink:href="#DejaVuSans-65" x="434.171875"/>
      <use xlink:href="#DejaVuSans-6e" x="495.695312"/>
      <use xlink:href="#DejaVuSans-67" x="559.074219"/>
      <use xlink:href="#DejaVuSans-74" x="622.550781"/>
      <use xlink:href="#DejaVuSans-68" x="661.759766"/>
      <use xlink:href="#DejaVuSans-20" x="725.138672"/>
      <use xlink:href="#DejaVuSans-28" x="756.925781"/>
      <use xlink:href="#DejaVuSans-54" x="795.939453"/>
      <use xlink:href="#DejaVuSans-72" x="842.273438"/>
      <use xlink:href="#DejaVuSans-61" x="883.386719"/>
      <use xlink:href="#DejaVuSans-6e" x="944.666016"/>
      <use xlink:href="#DejaVuSans-73" x="1008.044922"/>
      <use xlink:href="#DejaVuSans-66" x="1060.144531"/>
      <use xlink:href="#DejaVuSans-6f" x="1095.349609"/>
      <use xlink:href="#DejaVuSans-72" x="1156.53125"/>
      <use xlink:href="#DejaVuSans-6d" x="1195.894531"/>
      <use xlink:href="#DejaVuSans-65" x="1293.306641"/>
      <use xlink:href="#DejaVuSans-64" x="1354.830078"/>
      <use xlink:href="#DejaVuSans-20" x="1418.306641"/>
      <use xlink:href="#DejaVuSans-43" x="1450.09375"/>
      <use xlink:href="#DejaVuSans-75" x="1519.917969"/>
      <use xlink:href="#DejaVuSans-72" x="1583.296875"/>
      <use xlink:href="#DejaVuSans-76" x="1624.410156"/>
      <use xlink:href="#DejaVuSans-65" x="1683.589844"/>
      <use xlink:href="#DejaVuSans-20" x="1745.113281"/>
      <use xlink:href="#DejaVuSans-23" x="1776.900391"/>
      <use xlink:href="#DejaVuSans-32" x="1860.689453"/>
      <use xlink:href="#DejaVuSans-29" x="1924.3125"/>
     </g>
    </g>
    <g id="line2d_21">
     <path d="M 562.5 278.936719 
L 587.5 278.936719 
L 612.5 278.936719 
" style="fill: none; stroke: #aa0000; stroke-width: 4; stroke-linecap: square"/>
    </g>
    <g id="text_24">
     <!-- Predicted Arclength (Transformed Curve #1) -->
     <g transform="translate(632.5 287.686719)scale(0.25 -0.25)">
      <use xlink:href="#DejaVuSans-50"/>
      <use xlink:href="#DejaVuSans-72" x="58.552734"/>
      <use xlink:href="#DejaVuSans-65" x="97.416016"/>
      <use xlink:href="#DejaVuSans-64" x="158.939453"/>
      <use xlink:href="#DejaVuSans-69" x="222.416016"/>
      <use xlink:href="#DejaVuSans-63" x="250.199219"/>
      <use xlink:href="#DejaVuSans-74" x="305.179688"/>
      <use xlink:href="#DejaVuSans-65" x="344.388672"/>
      <use xlink:href="#DejaVuSans-64" x="405.912109"/>
      <use xlink:href="#DejaVuSans-20" x="469.388672"/>
      <use xlink:href="#DejaVuSans-41" x="501.175781"/>
      <use xlink:href="#DejaVuSans-72" x="569.583984"/>
      <use xlink:href="#DejaVuSans-63" x="608.447266"/>
      <use xlink:href="#DejaVuSans-6c" x="663.427734"/>
      <use xlink:href="#DejaVuSans-65" x="691.210938"/>
      <use xlink:href="#DejaVuSans-6e" x="752.734375"/>
      <use xlink:href="#DejaVuSans-67" x="816.113281"/>
      <use xlink:href="#DejaVuSans-74" x="879.589844"/>
      <use xlink:href="#DejaVuSans-68" x="918.798828"/>
      <use xlink:href="#DejaVuSans-20" x="982.177734"/>
      <use xlink:href="#DejaVuSans-28" x="1013.964844"/>
      <use xlink:href="#DejaVuSans-54" x="1052.978516"/>
      <use xlink:href="#DejaVuSans-72" x="1099.3125"/>
      <use xlink:href="#DejaVuSans-61" x="1140.425781"/>
      <use xlink:href="#DejaVuSans-6e" x="1201.705078"/>
      <use xlink:href="#DejaVuSans-73" x="1265.083984"/>
      <use xlink:href="#DejaVuSans-66" x="1317.183594"/>
      <use xlink:href="#DejaVuSans-6f" x="1352.388672"/>
      <use xlink:href="#DejaVuSans-72" x="1413.570312"/>
      <use xlink:href="#DejaVuSans-6d" x="1452.933594"/>
      <use xlink:href="#DejaVuSans-65" x="1550.345703"/>
      <use xlink:href="#DejaVuSans-64" x="1611.869141"/>
      <use xlink:href="#DejaVuSans-20" x="1675.345703"/>
      <use xlink:href="#DejaVuSans-43" x="1707.132812"/>
      <use xlink:href="#DejaVuSans-75" x="1776.957031"/>
      <use xlink:href="#DejaVuSans-72" x="1840.335938"/>
      <use xlink:href="#DejaVuSans-76" x="1881.449219"/>
      <use xlink:href="#DejaVuSans-65" x="1940.628906"/>
      <use xlink:href="#DejaVuSans-20" x="2002.152344"/>
      <use xlink:href="#DejaVuSans-23" x="2033.939453"/>
      <use xlink:href="#DejaVuSans-31" x="2117.728516"/>
      <use xlink:href="#DejaVuSans-29" x="2181.351562"/>
     </g>
    </g>
    <g id="line2d_22">
     <path d="M 562.5 315.632031 
L 587.5 315.632031 
L 612.5 315.632031 
" style="fill: none; stroke: #00aa00; stroke-width: 4; stroke-linecap: square"/>
    </g>
    <g id="text_25">
     <!-- Predicted Arclength (Transformed Curve #2) -->
     <g transform="translate(632.5 324.382031)scale(0.25 -0.25)">
      <use xlink:href="#DejaVuSans-50"/>
      <use xlink:href="#DejaVuSans-72" x="58.552734"/>
      <use xlink:href="#DejaVuSans-65" x="97.416016"/>
      <use xlink:href="#DejaVuSans-64" x="158.939453"/>
      <use xlink:href="#DejaVuSans-69" x="222.416016"/>
      <use xlink:href="#DejaVuSans-63" x="250.199219"/>
      <use xlink:href="#DejaVuSans-74" x="305.179688"/>
      <use xlink:href="#DejaVuSans-65" x="344.388672"/>
      <use xlink:href="#DejaVuSans-64" x="405.912109"/>
      <use xlink:href="#DejaVuSans-20" x="469.388672"/>
      <use xlink:href="#DejaVuSans-41" x="501.175781"/>
      <use xlink:href="#DejaVuSans-72" x="569.583984"/>
      <use xlink:href="#DejaVuSans-63" x="608.447266"/>
      <use xlink:href="#DejaVuSans-6c" x="663.427734"/>
      <use xlink:href="#DejaVuSans-65" x="691.210938"/>
      <use xlink:href="#DejaVuSans-6e" x="752.734375"/>
      <use xlink:href="#DejaVuSans-67" x="816.113281"/>
      <use xlink:href="#DejaVuSans-74" x="879.589844"/>
      <use xlink:href="#DejaVuSans-68" x="918.798828"/>
      <use xlink:href="#DejaVuSans-20" x="982.177734"/>
      <use xlink:href="#DejaVuSans-28" x="1013.964844"/>
      <use xlink:href="#DejaVuSans-54" x="1052.978516"/>
      <use xlink:href="#DejaVuSans-72" x="1099.3125"/>
      <use xlink:href="#DejaVuSans-61" x="1140.425781"/>
      <use xlink:href="#DejaVuSans-6e" x="1201.705078"/>
      <use xlink:href="#DejaVuSans-73" x="1265.083984"/>
      <use xlink:href="#DejaVuSans-66" x="1317.183594"/>
      <use xlink:href="#DejaVuSans-6f" x="1352.388672"/>
      <use xlink:href="#DejaVuSans-72" x="1413.570312"/>
      <use xlink:href="#DejaVuSans-6d" x="1452.933594"/>
      <use xlink:href="#DejaVuSans-65" x="1550.345703"/>
      <use xlink:href="#DejaVuSans-64" x="1611.869141"/>
      <use xlink:href="#DejaVuSans-20" x="1675.345703"/>
      <use xlink:href="#DejaVuSans-43" x="1707.132812"/>
      <use xlink:href="#DejaVuSans-75" x="1776.957031"/>
      <use xlink:href="#DejaVuSans-72" x="1840.335938"/>
      <use xlink:href="#DejaVuSans-76" x="1881.449219"/>
      <use xlink:href="#DejaVuSans-65" x="1940.628906"/>
      <use xlink:href="#DejaVuSans-20" x="2002.152344"/>
      <use xlink:href="#DejaVuSans-23" x="2033.939453"/>
      <use xlink:href="#DejaVuSans-32" x="2117.728516"/>
      <use xlink:href="#DejaVuSans-29" x="2181.351562"/>
     </g>
    </g>
   </g>
   <g id="line2d_23">
    <path d="M 692.181818 1210.581818 
L 749.608919 1198.598476 
L 807.036021 1184.439057 
L 864.463122 1168.256373 
L 921.890223 1148.503703 
L 979.317324 1123.527145 
L 1036.744425 1094.118077 
L 1094.171527 1064.542157 
L 1151.598628 1034.312899 
L 1209.025729 1005.333002 
L 1266.45283 986.089261 
L 1323.879931 976.133032 
L 1381.307033 960.385585 
L 1438.734134 936.719468 
L 1496.161235 910.672508 
L 1553.588336 885.651925 
L 1611.015437 864.319492 
L 1668.442539 843.613785 
L 1725.86964 821.927066 
L 1783.296741 801.829002 
L 1840.723842 781.486545 
L 1898.150943 762.330901 
L 1955.578045 742.788094 
L 2013.005146 721.526967 
L 2070.432247 700.461763 
L 2127.859348 678.859106 
L 2185.286449 656.8554 
L 2242.713551 638.336964 
L 2300.140652 622.361921 
L 2357.567753 605.104799 
L 2414.994854 586.143098 
L 2472.421955 565.704251 
L 2529.849057 543.478631 
L 2587.276158 521.016159 
L 2644.703259 497.150315 
L 2702.13036 471.44304 
L 2759.557461 447.188271 
L 2816.984563 422.36069 
L 2874.411664 400.776987 
L 2931.838765 384.739046 
L 2989.265866 374.297269 
L 3046.692967 364.335881 
L 3104.120069 355.291546 
L 3161.54717 347.391299 
L 3218.974271 337.364596 
L 3276.401372 326.156394 
L 3333.828473 311.581558 
L 3391.255575 294.68233 
L 3448.682676 278.97868 
L 3506.109777 266.454791 
L 3563.536878 254.406571 
L 3620.963979 241.67937 
L 3678.391081 231.25701 
L 3735.818182 222.218182 
" clip-path="url(#p8e907cdb10)" style="fill: none; stroke: #ff8c00; stroke-width: 4; stroke-linecap: square"/>
   </g>
   <g id="line2d_24">
    <path d="M 692.181818 1210.581818 
L 749.608919 1198.721107 
L 807.036021 1183.678494 
L 864.463122 1166.512967 
L 921.890223 1148.186958 
L 979.317324 1121.42583 
L 1036.744425 1087.568286 
L 1094.171527 1063.634209 
L 1151.598628 1032.563522 
L 1209.025729 1004.050995 
L 1266.45283 990.333304 
L 1323.879931 980.361243 
L 1381.307033 964.152372 
L 1438.734134 936.999692 
L 1496.161235 916.245865 
L 1553.588336 886.842188 
L 1611.015437 870.073637 
L 1668.442539 848.492448 
L 1725.86964 827.764836 
L 1783.296741 805.936583 
L 1840.723842 786.810709 
L 1898.150943 765.604835 
L 1955.578045 750.25112 
L 2013.005146 729.581022 
L 2070.432247 703.426984 
L 2127.859348 685.577014 
L 2185.286449 661.373058 
L 2242.713551 645.632604 
L 2300.140652 633.477087 
L 2357.567753 616.630427 
L 2414.994854 598.563461 
L 2472.421955 581.654985 
L 2529.849057 559.816408 
L 2587.276158 537.402403 
L 2644.703259 512.316321 
L 2702.13036 480.838028 
L 2759.557461 458.716197 
L 2816.984563 433.415568 
L 2874.411664 411.522341 
L 2931.838765 404.443868 
L 2989.265866 395.853322 
L 3046.692967 390.731395 
L 3104.120069 380.449379 
L 3161.54717 374.020595 
L 3218.974271 364.712312 
L 3276.401372 354.996503 
L 3333.828473 343.196085 
L 3391.255575 326.163599 
L 3448.682676 311.506864 
L 3506.109777 299.793456 
L 3563.536878 286.870198 
L 3620.963979 275.055557 
L 3678.391081 265.864336 
L 3735.818182 256.303645 
" clip-path="url(#p8e907cdb10)" style="fill: none; stroke: #aa0000; stroke-width: 4; stroke-linecap: square"/>
   </g>
   <g id="line2d_25">
    <path d="M 692.181818 1210.581818 
L 749.608919 1198.598476 
L 807.036021 1184.439057 
L 864.463122 1168.256373 
L 921.890223 1148.503703 
L 979.317324 1123.527145 
L 1036.744425 1094.118077 
L 1094.171527 1064.542157 
L 1151.598628 1034.312899 
L 1209.025729 1005.333002 
L 1266.45283 986.089261 
L 1323.879931 976.133032 
L 1381.307033 960.385585 
L 1438.734134 936.719468 
L 1496.161235 910.672508 
L 1553.588336 885.651925 
L 1611.015437 864.319492 
L 1668.442539 843.613785 
L 1725.86964 821.927066 
L 1783.296741 801.829002 
L 1840.723842 781.486545 
L 1898.150943 762.330901 
L 1955.578045 742.788094 
L 2013.005146 721.526967 
L 2070.432247 700.461763 
L 2127.859348 678.859106 
L 2185.286449 656.8554 
L 2242.713551 638.336964 
L 2300.140652 622.361921 
L 2357.567753 605.104799 
L 2414.994854 586.143098 
L 2472.421955 565.704251 
L 2529.849057 543.478631 
L 2587.276158 521.016159 
L 2644.703259 497.150315 
L 2702.13036 471.44304 
L 2759.557461 447.188271 
L 2816.984563 422.36069 
L 2874.411664 400.776987 
L 2931.838765 384.739046 
L 2989.265866 374.297269 
L 3046.692967 364.335881 
L 3104.120069 355.291546 
L 3161.54717 347.391299 
L 3218.974271 337.364596 
L 3276.401372 326.156394 
L 3333.828473 311.581558 
L 3391.255575 294.68233 
L 3448.682676 278.97868 
L 3506.109777 266.454791 
L 3563.536878 254.406571 
L 3620.963979 241.67937 
L 3678.391081 231.25701 
L 3735.818182 222.218182 
" clip-path="url(#p8e907cdb10)" style="fill: none; stroke: #444444; stroke-width: 4; stroke-linecap: square"/>
   </g>
   <g id="line2d_26">
    <path d="M 692.181818 1210.581818 
L 749.608919 1200.979078 
L 807.036021 1185.3425 
L 864.463122 1170.904605 
L 921.890223 1148.71292 
L 979.317324 1125.873611 
L 1036.744425 1093.830078 
L 1094.171527 1062.894004 
L 1151.598628 1030.363166 
L 1209.025729 1009.170949 
L 1266.45283 990.100102 
L 1323.879931 981.680192 
L 1381.307033 967.046992 
L 1438.734134 943.812248 
L 1496.161235 920.439848 
L 1553.588336 896.84256 
L 1611.015437 872.450424 
L 1668.442539 850.743965 
L 1725.86964 829.983138 
L 1783.296741 811.024677 
L 1840.723842 790.785665 
L 1898.150943 769.638749 
L 1955.578045 751.888016 
L 2013.005146 732.646506 
L 2070.432247 705.354492 
L 2127.859348 682.458424 
L 2185.286449 655.789742 
L 2242.713551 638.657554 
L 2300.140652 631.789841 
L 2357.567753 620.048717 
L 2414.994854 607.117117 
L 2472.421955 583.914409 
L 2529.849057 557.90371 
L 2587.276158 536.982076 
L 2644.703259 514.750545 
L 2702.13036 495.333626 
L 2759.557461 470.222754 
L 2816.984563 443.724216 
L 2874.411664 428.072168 
L 2931.838765 410.247372 
L 2989.265866 400.928674 
L 3046.692967 393.152473 
L 3104.120069 385.870394 
L 3161.54717 379.207878 
L 3218.974271 369.554747 
L 3276.401372 357.18893 
L 3333.828473 340.392519 
L 3391.255575 332.062019 
L 3448.682676 317.207664 
L 3506.109777 305.111315 
L 3563.536878 297.376809 
L 3620.963979 284.953516 
L 3678.391081 273.646668 
L 3735.818182 266.765498 
" clip-path="url(#p8e907cdb10)" style="fill: none; stroke: #00aa00; stroke-width: 4; stroke-linecap: square"/>
   </g>
   <g id="PathCollection_1">
    <defs>
     <path id="m19c5dbdea5" d="M 0 0.707107 
C 0.187527 0.707107 0.367398 0.632602 0.5 0.5 
C 0.632602 0.367398 0.707107 0.187527 0.707107 0 
C 0.707107 -0.187527 0.632602 -0.367398 0.5 -0.5 
C 0.367398 -0.632602 0.187527 -0.707107 0 -0.707107 
C -0.187527 -0.707107 -0.367398 -0.632602 -0.5 -0.5 
C -0.632602 -0.367398 -0.707107 -0.187527 -0.707107 0 
C -0.707107 0.187527 -0.632602 0.367398 -0.5 0.5 
C -0.367398 0.632602 -0.187527 0.707107 0 0.707107 
z
" style="stroke: #ff8c00"/>
    </defs>
    <g clip-path="url(#p8e907cdb10)">
     <use xlink:href="#m19c5dbdea5" x="692.181818" y="1210.581818" style="fill: #ff8c00; stroke: #ff8c00"/>
     <use xlink:href="#m19c5dbdea5" x="749.608919" y="1198.598476" style="fill: #ff8c00; stroke: #ff8c00"/>
     <use xlink:href="#m19c5dbdea5" x="807.036021" y="1184.439057" style="fill: #ff8c00; stroke: #ff8c00"/>
     <use xlink:href="#m19c5dbdea5" x="864.463122" y="1168.256373" style="fill: #ff8c00; stroke: #ff8c00"/>
     <use xlink:href="#m19c5dbdea5" x="921.890223" y="1148.503703" style="fill: #ff8c00; stroke: #ff8c00"/>
     <use xlink:href="#m19c5dbdea5" x="979.317324" y="1123.527145" style="fill: #ff8c00; stroke: #ff8c00"/>
     <use xlink:href="#m19c5dbdea5" x="1036.744425" y="1094.118077" style="fill: #ff8c00; stroke: #ff8c00"/>
     <use xlink:href="#m19c5dbdea5" x="1094.171527" y="1064.542157" style="fill: #ff8c00; stroke: #ff8c00"/>
     <use xlink:href="#m19c5dbdea5" x="1151.598628" y="1034.312899" style="fill: #ff8c00; stroke: #ff8c00"/>
     <use xlink:href="#m19c5dbdea5" x="1209.025729" y="1005.333002" style="fill: #ff8c00; stroke: #ff8c00"/>
     <use xlink:href="#m19c5dbdea5" x="1266.45283" y="986.089261" style="fill: #ff8c00; stroke: #ff8c00"/>
     <use xlink:href="#m19c5dbdea5" x="1323.879931" y="976.133032" style="fill: #ff8c00; stroke: #ff8c00"/>
     <use xlink:href="#m19c5dbdea5" x="1381.307033" y="960.385585" style="fill: #ff8c00; stroke: #ff8c00"/>
     <use xlink:href="#m19c5dbdea5" x="1438.734134" y="936.719468" style="fill: #ff8c00; stroke: #ff8c00"/>
     <use xlink:href="#m19c5dbdea5" x="1496.161235" y="910.672508" style="fill: #ff8c00; stroke: #ff8c00"/>
     <use xlink:href="#m19c5dbdea5" x="1553.588336" y="885.651925" style="fill: #ff8c00; stroke: #ff8c00"/>
     <use xlink:href="#m19c5dbdea5" x="1611.015437" y="864.319492" style="fill: #ff8c00; stroke: #ff8c00"/>
     <use xlink:href="#m19c5dbdea5" x="1668.442539" y="843.613785" style="fill: #ff8c00; stroke: #ff8c00"/>
     <use xlink:href="#m19c5dbdea5" x="1725.86964" y="821.927066" style="fill: #ff8c00; stroke: #ff8c00"/>
     <use xlink:href="#m19c5dbdea5" x="1783.296741" y="801.829002" style="fill: #ff8c00; stroke: #ff8c00"/>
     <use xlink:href="#m19c5dbdea5" x="1840.723842" y="781.486545" style="fill: #ff8c00; stroke: #ff8c00"/>
     <use xlink:href="#m19c5dbdea5" x="1898.150943" y="762.330901" style="fill: #ff8c00; stroke: #ff8c00"/>
     <use xlink:href="#m19c5dbdea5" x="1955.578045" y="742.788094" style="fill: #ff8c00; stroke: #ff8c00"/>
     <use xlink:href="#m19c5dbdea5" x="2013.005146" y="721.526967" style="fill: #ff8c00; stroke: #ff8c00"/>
     <use xlink:href="#m19c5dbdea5" x="2070.432247" y="700.461763" style="fill: #ff8c00; stroke: #ff8c00"/>
     <use xlink:href="#m19c5dbdea5" x="2127.859348" y="678.859106" style="fill: #ff8c00; stroke: #ff8c00"/>
     <use xlink:href="#m19c5dbdea5" x="2185.286449" y="656.8554" style="fill: #ff8c00; stroke: #ff8c00"/>
     <use xlink:href="#m19c5dbdea5" x="2242.713551" y="638.336964" style="fill: #ff8c00; stroke: #ff8c00"/>
     <use xlink:href="#m19c5dbdea5" x="2300.140652" y="622.361921" style="fill: #ff8c00; stroke: #ff8c00"/>
     <use xlink:href="#m19c5dbdea5" x="2357.567753" y="605.104799" style="fill: #ff8c00; stroke: #ff8c00"/>
     <use xlink:href="#m19c5dbdea5" x="2414.994854" y="586.143098" style="fill: #ff8c00; stroke: #ff8c00"/>
     <use xlink:href="#m19c5dbdea5" x="2472.421955" y="565.704251" style="fill: #ff8c00; stroke: #ff8c00"/>
     <use xlink:href="#m19c5dbdea5" x="2529.849057" y="543.478631" style="fill: #ff8c00; stroke: #ff8c00"/>
     <use xlink:href="#m19c5dbdea5" x="2587.276158" y="521.016159" style="fill: #ff8c00; stroke: #ff8c00"/>
     <use xlink:href="#m19c5dbdea5" x="2644.703259" y="497.150315" style="fill: #ff8c00; stroke: #ff8c00"/>
     <use xlink:href="#m19c5dbdea5" x="2702.13036" y="471.44304" style="fill: #ff8c00; stroke: #ff8c00"/>
     <use xlink:href="#m19c5dbdea5" x="2759.557461" y="447.188271" style="fill: #ff8c00; stroke: #ff8c00"/>
     <use xlink:href="#m19c5dbdea5" x="2816.984563" y="422.36069" style="fill: #ff8c00; stroke: #ff8c00"/>
     <use xlink:href="#m19c5dbdea5" x="2874.411664" y="400.776987" style="fill: #ff8c00; stroke: #ff8c00"/>
     <use xlink:href="#m19c5dbdea5" x="2931.838765" y="384.739046" style="fill: #ff8c00; stroke: #ff8c00"/>
     <use xlink:href="#m19c5dbdea5" x="2989.265866" y="374.297269" style="fill: #ff8c00; stroke: #ff8c00"/>
     <use xlink:href="#m19c5dbdea5" x="3046.692967" y="364.335881" style="fill: #ff8c00; stroke: #ff8c00"/>
     <use xlink:href="#m19c5dbdea5" x="3104.120069" y="355.291546" style="fill: #ff8c00; stroke: #ff8c00"/>
     <use xlink:href="#m19c5dbdea5" x="3161.54717" y="347.391299" style="fill: #ff8c00; stroke: #ff8c00"/>
     <use xlink:href="#m19c5dbdea5" x="3218.974271" y="337.364596" style="fill: #ff8c00; stroke: #ff8c00"/>
     <use xlink:href="#m19c5dbdea5" x="3276.401372" y="326.156394" style="fill: #ff8c00; stroke: #ff8c00"/>
     <use xlink:href="#m19c5dbdea5" x="3333.828473" y="311.581558" style="fill: #ff8c00; stroke: #ff8c00"/>
     <use xlink:href="#m19c5dbdea5" x="3391.255575" y="294.68233" style="fill: #ff8c00; stroke: #ff8c00"/>
     <use xlink:href="#m19c5dbdea5" x="3448.682676" y="278.97868" style="fill: #ff8c00; stroke: #ff8c00"/>
     <use xlink:href="#m19c5dbdea5" x="3506.109777" y="266.454791" style="fill: #ff8c00; stroke: #ff8c00"/>
     <use xlink:href="#m19c5dbdea5" x="3563.536878" y="254.406571" style="fill: #ff8c00; stroke: #ff8c00"/>
     <use xlink:href="#m19c5dbdea5" x="3620.963979" y="241.67937" style="fill: #ff8c00; stroke: #ff8c00"/>
     <use xlink:href="#m19c5dbdea5" x="3678.391081" y="231.25701" style="fill: #ff8c00; stroke: #ff8c00"/>
     <use xlink:href="#m19c5dbdea5" x="3735.818182" y="222.218182" style="fill: #ff8c00; stroke: #ff8c00"/>
    </g>
   </g>
   <g id="PathCollection_2">
    <defs>
     <path id="mfd3e2f1810" d="M 0 0.707107 
C 0.187527 0.707107 0.367398 0.632602 0.5 0.5 
C 0.632602 0.367398 0.707107 0.187527 0.707107 0 
C 0.707107 -0.187527 0.632602 -0.367398 0.5 -0.5 
C 0.367398 -0.632602 0.187527 -0.707107 0 -0.707107 
C -0.187527 -0.707107 -0.367398 -0.632602 -0.5 -0.5 
C -0.632602 -0.367398 -0.707107 -0.187527 -0.707107 0 
C -0.707107 0.187527 -0.632602 0.367398 -0.5 0.5 
C -0.367398 0.632602 -0.187527 0.707107 0 0.707107 
z
" style="stroke: #aa0000"/>
    </defs>
    <g clip-path="url(#p8e907cdb10)">
     <use xlink:href="#mfd3e2f1810" x="692.181818" y="1210.581818" style="fill: #aa0000; stroke: #aa0000"/>
     <use xlink:href="#mfd3e2f1810" x="749.608919" y="1198.721107" style="fill: #aa0000; stroke: #aa0000"/>
     <use xlink:href="#mfd3e2f1810" x="807.036021" y="1183.678494" style="fill: #aa0000; stroke: #aa0000"/>
     <use xlink:href="#mfd3e2f1810" x="864.463122" y="1166.512967" style="fill: #aa0000; stroke: #aa0000"/>
     <use xlink:href="#mfd3e2f1810" x="921.890223" y="1148.186958" style="fill: #aa0000; stroke: #aa0000"/>
     <use xlink:href="#mfd3e2f1810" x="979.317324" y="1121.42583" style="fill: #aa0000; stroke: #aa0000"/>
     <use xlink:href="#mfd3e2f1810" x="1036.744425" y="1087.568286" style="fill: #aa0000; stroke: #aa0000"/>
     <use xlink:href="#mfd3e2f1810" x="1094.171527" y="1063.634209" style="fill: #aa0000; stroke: #aa0000"/>
     <use xlink:href="#mfd3e2f1810" x="1151.598628" y="1032.563522" style="fill: #aa0000; stroke: #aa0000"/>
     <use xlink:href="#mfd3e2f1810" x="1209.025729" y="1004.050995" style="fill: #aa0000; stroke: #aa0000"/>
     <use xlink:href="#mfd3e2f1810" x="1266.45283" y="990.333304" style="fill: #aa0000; stroke: #aa0000"/>
     <use xlink:href="#mfd3e2f1810" x="1323.879931" y="980.361243" style="fill: #aa0000; stroke: #aa0000"/>
     <use xlink:href="#mfd3e2f1810" x="1381.307033" y="964.152372" style="fill: #aa0000; stroke: #aa0000"/>
     <use xlink:href="#mfd3e2f1810" x="1438.734134" y="936.999692" style="fill: #aa0000; stroke: #aa0000"/>
     <use xlink:href="#mfd3e2f1810" x="1496.161235" y="916.245865" style="fill: #aa0000; stroke: #aa0000"/>
     <use xlink:href="#mfd3e2f1810" x="1553.588336" y="886.842188" style="fill: #aa0000; stroke: #aa0000"/>
     <use xlink:href="#mfd3e2f1810" x="1611.015437" y="870.073637" style="fill: #aa0000; stroke: #aa0000"/>
     <use xlink:href="#mfd3e2f1810" x="1668.442539" y="848.492448" style="fill: #aa0000; stroke: #aa0000"/>
     <use xlink:href="#mfd3e2f1810" x="1725.86964" y="827.764836" style="fill: #aa0000; stroke: #aa0000"/>
     <use xlink:href="#mfd3e2f1810" x="1783.296741" y="805.936583" style="fill: #aa0000; stroke: #aa0000"/>
     <use xlink:href="#mfd3e2f1810" x="1840.723842" y="786.810709" style="fill: #aa0000; stroke: #aa0000"/>
     <use xlink:href="#mfd3e2f1810" x="1898.150943" y="765.604835" style="fill: #aa0000; stroke: #aa0000"/>
     <use xlink:href="#mfd3e2f1810" x="1955.578045" y="750.25112" style="fill: #aa0000; stroke: #aa0000"/>
     <use xlink:href="#mfd3e2f1810" x="2013.005146" y="729.581022" style="fill: #aa0000; stroke: #aa0000"/>
     <use xlink:href="#mfd3e2f1810" x="2070.432247" y="703.426984" style="fill: #aa0000; stroke: #aa0000"/>
     <use xlink:href="#mfd3e2f1810" x="2127.859348" y="685.577014" style="fill: #aa0000; stroke: #aa0000"/>
     <use xlink:href="#mfd3e2f1810" x="2185.286449" y="661.373058" style="fill: #aa0000; stroke: #aa0000"/>
     <use xlink:href="#mfd3e2f1810" x="2242.713551" y="645.632604" style="fill: #aa0000; stroke: #aa0000"/>
     <use xlink:href="#mfd3e2f1810" x="2300.140652" y="633.477087" style="fill: #aa0000; stroke: #aa0000"/>
     <use xlink:href="#mfd3e2f1810" x="2357.567753" y="616.630427" style="fill: #aa0000; stroke: #aa0000"/>
     <use xlink:href="#mfd3e2f1810" x="2414.994854" y="598.563461" style="fill: #aa0000; stroke: #aa0000"/>
     <use xlink:href="#mfd3e2f1810" x="2472.421955" y="581.654985" style="fill: #aa0000; stroke: #aa0000"/>
     <use xlink:href="#mfd3e2f1810" x="2529.849057" y="559.816408" style="fill: #aa0000; stroke: #aa0000"/>
     <use xlink:href="#mfd3e2f1810" x="2587.276158" y="537.402403" style="fill: #aa0000; stroke: #aa0000"/>
     <use xlink:href="#mfd3e2f1810" x="2644.703259" y="512.316321" style="fill: #aa0000; stroke: #aa0000"/>
     <use xlink:href="#mfd3e2f1810" x="2702.13036" y="480.838028" style="fill: #aa0000; stroke: #aa0000"/>
     <use xlink:href="#mfd3e2f1810" x="2759.557461" y="458.716197" style="fill: #aa0000; stroke: #aa0000"/>
     <use xlink:href="#mfd3e2f1810" x="2816.984563" y="433.415568" style="fill: #aa0000; stroke: #aa0000"/>
     <use xlink:href="#mfd3e2f1810" x="2874.411664" y="411.522341" style="fill: #aa0000; stroke: #aa0000"/>
     <use xlink:href="#mfd3e2f1810" x="2931.838765" y="404.443868" style="fill: #aa0000; stroke: #aa0000"/>
     <use xlink:href="#mfd3e2f1810" x="2989.265866" y="395.853322" style="fill: #aa0000; stroke: #aa0000"/>
     <use xlink:href="#mfd3e2f1810" x="3046.692967" y="390.731395" style="fill: #aa0000; stroke: #aa0000"/>
     <use xlink:href="#mfd3e2f1810" x="3104.120069" y="380.449379" style="fill: #aa0000; stroke: #aa0000"/>
     <use xlink:href="#mfd3e2f1810" x="3161.54717" y="374.020595" style="fill: #aa0000; stroke: #aa0000"/>
     <use xlink:href="#mfd3e2f1810" x="3218.974271" y="364.712312" style="fill: #aa0000; stroke: #aa0000"/>
     <use xlink:href="#mfd3e2f1810" x="3276.401372" y="354.996503" style="fill: #aa0000; stroke: #aa0000"/>
     <use xlink:href="#mfd3e2f1810" x="3333.828473" y="343.196085" style="fill: #aa0000; stroke: #aa0000"/>
     <use xlink:href="#mfd3e2f1810" x="3391.255575" y="326.163599" style="fill: #aa0000; stroke: #aa0000"/>
     <use xlink:href="#mfd3e2f1810" x="3448.682676" y="311.506864" style="fill: #aa0000; stroke: #aa0000"/>
     <use xlink:href="#mfd3e2f1810" x="3506.109777" y="299.793456" style="fill: #aa0000; stroke: #aa0000"/>
     <use xlink:href="#mfd3e2f1810" x="3563.536878" y="286.870198" style="fill: #aa0000; stroke: #aa0000"/>
     <use xlink:href="#mfd3e2f1810" x="3620.963979" y="275.055557" style="fill: #aa0000; stroke: #aa0000"/>
     <use xlink:href="#mfd3e2f1810" x="3678.391081" y="265.864336" style="fill: #aa0000; stroke: #aa0000"/>
     <use xlink:href="#mfd3e2f1810" x="3735.818182" y="256.303645" style="fill: #aa0000; stroke: #aa0000"/>
    </g>
   </g>
   <g id="PathCollection_3">
    <defs>
     <path id="m36b24eae61" d="M 0 0.707107 
C 0.187527 0.707107 0.367398 0.632602 0.5 0.5 
C 0.632602 0.367398 0.707107 0.187527 0.707107 0 
C 0.707107 -0.187527 0.632602 -0.367398 0.5 -0.5 
C 0.367398 -0.632602 0.187527 -0.707107 0 -0.707107 
C -0.187527 -0.707107 -0.367398 -0.632602 -0.5 -0.5 
C -0.632602 -0.367398 -0.707107 -0.187527 -0.707107 0 
C -0.707107 0.187527 -0.632602 0.367398 -0.5 0.5 
C -0.367398 0.632602 -0.187527 0.707107 0 0.707107 
z
" style="stroke: #444444"/>
    </defs>
    <g clip-path="url(#p8e907cdb10)">
     <use xlink:href="#m36b24eae61" x="692.181818" y="1210.581818" style="fill: #444444; stroke: #444444"/>
     <use xlink:href="#m36b24eae61" x="749.608919" y="1198.598476" style="fill: #444444; stroke: #444444"/>
     <use xlink:href="#m36b24eae61" x="807.036021" y="1184.439057" style="fill: #444444; stroke: #444444"/>
     <use xlink:href="#m36b24eae61" x="864.463122" y="1168.256373" style="fill: #444444; stroke: #444444"/>
     <use xlink:href="#m36b24eae61" x="921.890223" y="1148.503703" style="fill: #444444; stroke: #444444"/>
     <use xlink:href="#m36b24eae61" x="979.317324" y="1123.527145" style="fill: #444444; stroke: #444444"/>
     <use xlink:href="#m36b24eae61" x="1036.744425" y="1094.118077" style="fill: #444444; stroke: #444444"/>
     <use xlink:href="#m36b24eae61" x="1094.171527" y="1064.542157" style="fill: #444444; stroke: #444444"/>
     <use xlink:href="#m36b24eae61" x="1151.598628" y="1034.312899" style="fill: #444444; stroke: #444444"/>
     <use xlink:href="#m36b24eae61" x="1209.025729" y="1005.333002" style="fill: #444444; stroke: #444444"/>
     <use xlink:href="#m36b24eae61" x="1266.45283" y="986.089261" style="fill: #444444; stroke: #444444"/>
     <use xlink:href="#m36b24eae61" x="1323.879931" y="976.133032" style="fill: #444444; stroke: #444444"/>
     <use xlink:href="#m36b24eae61" x="1381.307033" y="960.385585" style="fill: #444444; stroke: #444444"/>
     <use xlink:href="#m36b24eae61" x="1438.734134" y="936.719468" style="fill: #444444; stroke: #444444"/>
     <use xlink:href="#m36b24eae61" x="1496.161235" y="910.672508" style="fill: #444444; stroke: #444444"/>
     <use xlink:href="#m36b24eae61" x="1553.588336" y="885.651925" style="fill: #444444; stroke: #444444"/>
     <use xlink:href="#m36b24eae61" x="1611.015437" y="864.319492" style="fill: #444444; stroke: #444444"/>
     <use xlink:href="#m36b24eae61" x="1668.442539" y="843.613785" style="fill: #444444; stroke: #444444"/>
     <use xlink:href="#m36b24eae61" x="1725.86964" y="821.927066" style="fill: #444444; stroke: #444444"/>
     <use xlink:href="#m36b24eae61" x="1783.296741" y="801.829002" style="fill: #444444; stroke: #444444"/>
     <use xlink:href="#m36b24eae61" x="1840.723842" y="781.486545" style="fill: #444444; stroke: #444444"/>
     <use xlink:href="#m36b24eae61" x="1898.150943" y="762.330901" style="fill: #444444; stroke: #444444"/>
     <use xlink:href="#m36b24eae61" x="1955.578045" y="742.788094" style="fill: #444444; stroke: #444444"/>
     <use xlink:href="#m36b24eae61" x="2013.005146" y="721.526967" style="fill: #444444; stroke: #444444"/>
     <use xlink:href="#m36b24eae61" x="2070.432247" y="700.461763" style="fill: #444444; stroke: #444444"/>
     <use xlink:href="#m36b24eae61" x="2127.859348" y="678.859106" style="fill: #444444; stroke: #444444"/>
     <use xlink:href="#m36b24eae61" x="2185.286449" y="656.8554" style="fill: #444444; stroke: #444444"/>
     <use xlink:href="#m36b24eae61" x="2242.713551" y="638.336964" style="fill: #444444; stroke: #444444"/>
     <use xlink:href="#m36b24eae61" x="2300.140652" y="622.361921" style="fill: #444444; stroke: #444444"/>
     <use xlink:href="#m36b24eae61" x="2357.567753" y="605.104799" style="fill: #444444; stroke: #444444"/>
     <use xlink:href="#m36b24eae61" x="2414.994854" y="586.143098" style="fill: #444444; stroke: #444444"/>
     <use xlink:href="#m36b24eae61" x="2472.421955" y="565.704251" style="fill: #444444; stroke: #444444"/>
     <use xlink:href="#m36b24eae61" x="2529.849057" y="543.478631" style="fill: #444444; stroke: #444444"/>
     <use xlink:href="#m36b24eae61" x="2587.276158" y="521.016159" style="fill: #444444; stroke: #444444"/>
     <use xlink:href="#m36b24eae61" x="2644.703259" y="497.150315" style="fill: #444444; stroke: #444444"/>
     <use xlink:href="#m36b24eae61" x="2702.13036" y="471.44304" style="fill: #444444; stroke: #444444"/>
     <use xlink:href="#m36b24eae61" x="2759.557461" y="447.188271" style="fill: #444444; stroke: #444444"/>
     <use xlink:href="#m36b24eae61" x="2816.984563" y="422.36069" style="fill: #444444; stroke: #444444"/>
     <use xlink:href="#m36b24eae61" x="2874.411664" y="400.776987" style="fill: #444444; stroke: #444444"/>
     <use xlink:href="#m36b24eae61" x="2931.838765" y="384.739046" style="fill: #444444; stroke: #444444"/>
     <use xlink:href="#m36b24eae61" x="2989.265866" y="374.297269" style="fill: #444444; stroke: #444444"/>
     <use xlink:href="#m36b24eae61" x="3046.692967" y="364.335881" style="fill: #444444; stroke: #444444"/>
     <use xlink:href="#m36b24eae61" x="3104.120069" y="355.291546" style="fill: #444444; stroke: #444444"/>
     <use xlink:href="#m36b24eae61" x="3161.54717" y="347.391299" style="fill: #444444; stroke: #444444"/>
     <use xlink:href="#m36b24eae61" x="3218.974271" y="337.364596" style="fill: #444444; stroke: #444444"/>
     <use xlink:href="#m36b24eae61" x="3276.401372" y="326.156394" style="fill: #444444; stroke: #444444"/>
     <use xlink:href="#m36b24eae61" x="3333.828473" y="311.581558" style="fill: #444444; stroke: #444444"/>
     <use xlink:href="#m36b24eae61" x="3391.255575" y="294.68233" style="fill: #444444; stroke: #444444"/>
     <use xlink:href="#m36b24eae61" x="3448.682676" y="278.97868" style="fill: #444444; stroke: #444444"/>
     <use xlink:href="#m36b24eae61" x="3506.109777" y="266.454791" style="fill: #444444; stroke: #444444"/>
     <use xlink:href="#m36b24eae61" x="3563.536878" y="254.406571" style="fill: #444444; stroke: #444444"/>
     <use xlink:href="#m36b24eae61" x="3620.963979" y="241.67937" style="fill: #444444; stroke: #444444"/>
     <use xlink:href="#m36b24eae61" x="3678.391081" y="231.25701" style="fill: #444444; stroke: #444444"/>
     <use xlink:href="#m36b24eae61" x="3735.818182" y="222.218182" style="fill: #444444; stroke: #444444"/>
    </g>
   </g>
   <g id="PathCollection_4">
    <defs>
     <path id="m565a82b214" d="M 0 0.707107 
C 0.187527 0.707107 0.367398 0.632602 0.5 0.5 
C 0.632602 0.367398 0.707107 0.187527 0.707107 0 
C 0.707107 -0.187527 0.632602 -0.367398 0.5 -0.5 
C 0.367398 -0.632602 0.187527 -0.707107 0 -0.707107 
C -0.187527 -0.707107 -0.367398 -0.632602 -0.5 -0.5 
C -0.632602 -0.367398 -0.707107 -0.187527 -0.707107 0 
C -0.707107 0.187527 -0.632602 0.367398 -0.5 0.5 
C -0.367398 0.632602 -0.187527 0.707107 0 0.707107 
z
" style="stroke: #00aa00"/>
    </defs>
    <g clip-path="url(#p8e907cdb10)">
     <use xlink:href="#m565a82b214" x="692.181818" y="1210.581818" style="fill: #00aa00; stroke: #00aa00"/>
     <use xlink:href="#m565a82b214" x="749.608919" y="1200.979078" style="fill: #00aa00; stroke: #00aa00"/>
     <use xlink:href="#m565a82b214" x="807.036021" y="1185.3425" style="fill: #00aa00; stroke: #00aa00"/>
     <use xlink:href="#m565a82b214" x="864.463122" y="1170.904605" style="fill: #00aa00; stroke: #00aa00"/>
     <use xlink:href="#m565a82b214" x="921.890223" y="1148.71292" style="fill: #00aa00; stroke: #00aa00"/>
     <use xlink:href="#m565a82b214" x="979.317324" y="1125.873611" style="fill: #00aa00; stroke: #00aa00"/>
     <use xlink:href="#m565a82b214" x="1036.744425" y="1093.830078" style="fill: #00aa00; stroke: #00aa00"/>
     <use xlink:href="#m565a82b214" x="1094.171527" y="1062.894004" style="fill: #00aa00; stroke: #00aa00"/>
     <use xlink:href="#m565a82b214" x="1151.598628" y="1030.363166" style="fill: #00aa00; stroke: #00aa00"/>
     <use xlink:href="#m565a82b214" x="1209.025729" y="1009.170949" style="fill: #00aa00; stroke: #00aa00"/>
     <use xlink:href="#m565a82b214" x="1266.45283" y="990.100102" style="fill: #00aa00; stroke: #00aa00"/>
     <use xlink:href="#m565a82b214" x="1323.879931" y="981.680192" style="fill: #00aa00; stroke: #00aa00"/>
     <use xlink:href="#m565a82b214" x="1381.307033" y="967.046992" style="fill: #00aa00; stroke: #00aa00"/>
     <use xlink:href="#m565a82b214" x="1438.734134" y="943.812248" style="fill: #00aa00; stroke: #00aa00"/>
     <use xlink:href="#m565a82b214" x="1496.161235" y="920.439848" style="fill: #00aa00; stroke: #00aa00"/>
     <use xlink:href="#m565a82b214" x="1553.588336" y="896.84256" style="fill: #00aa00; stroke: #00aa00"/>
     <use xlink:href="#m565a82b214" x="1611.015437" y="872.450424" style="fill: #00aa00; stroke: #00aa00"/>
     <use xlink:href="#m565a82b214" x="1668.442539" y="850.743965" style="fill: #00aa00; stroke: #00aa00"/>
     <use xlink:href="#m565a82b214" x="1725.86964" y="829.983138" style="fill: #00aa00; stroke: #00aa00"/>
     <use xlink:href="#m565a82b214" x="1783.296741" y="811.024677" style="fill: #00aa00; stroke: #00aa00"/>
     <use xlink:href="#m565a82b214" x="1840.723842" y="790.785665" style="fill: #00aa00; stroke: #00aa00"/>
     <use xlink:href="#m565a82b214" x="1898.150943" y="769.638749" style="fill: #00aa00; stroke: #00aa00"/>
     <use xlink:href="#m565a82b214" x="1955.578045" y="751.888016" style="fill: #00aa00; stroke: #00aa00"/>
     <use xlink:href="#m565a82b214" x="2013.005146" y="732.646506" style="fill: #00aa00; stroke: #00aa00"/>
     <use xlink:href="#m565a82b214" x="2070.432247" y="705.354492" style="fill: #00aa00; stroke: #00aa00"/>
     <use xlink:href="#m565a82b214" x="2127.859348" y="682.458424" style="fill: #00aa00; stroke: #00aa00"/>
     <use xlink:href="#m565a82b214" x="2185.286449" y="655.789742" style="fill: #00aa00; stroke: #00aa00"/>
     <use xlink:href="#m565a82b214" x="2242.713551" y="638.657554" style="fill: #00aa00; stroke: #00aa00"/>
     <use xlink:href="#m565a82b214" x="2300.140652" y="631.789841" style="fill: #00aa00; stroke: #00aa00"/>
     <use xlink:href="#m565a82b214" x="2357.567753" y="620.048717" style="fill: #00aa00; stroke: #00aa00"/>
     <use xlink:href="#m565a82b214" x="2414.994854" y="607.117117" style="fill: #00aa00; stroke: #00aa00"/>
     <use xlink:href="#m565a82b214" x="2472.421955" y="583.914409" style="fill: #00aa00; stroke: #00aa00"/>
     <use xlink:href="#m565a82b214" x="2529.849057" y="557.90371" style="fill: #00aa00; stroke: #00aa00"/>
     <use xlink:href="#m565a82b214" x="2587.276158" y="536.982076" style="fill: #00aa00; stroke: #00aa00"/>
     <use xlink:href="#m565a82b214" x="2644.703259" y="514.750545" style="fill: #00aa00; stroke: #00aa00"/>
     <use xlink:href="#m565a82b214" x="2702.13036" y="495.333626" style="fill: #00aa00; stroke: #00aa00"/>
     <use xlink:href="#m565a82b214" x="2759.557461" y="470.222754" style="fill: #00aa00; stroke: #00aa00"/>
     <use xlink:href="#m565a82b214" x="2816.984563" y="443.724216" style="fill: #00aa00; stroke: #00aa00"/>
     <use xlink:href="#m565a82b214" x="2874.411664" y="428.072168" style="fill: #00aa00; stroke: #00aa00"/>
     <use xlink:href="#m565a82b214" x="2931.838765" y="410.247372" style="fill: #00aa00; stroke: #00aa00"/>
     <use xlink:href="#m565a82b214" x="2989.265866" y="400.928674" style="fill: #00aa00; stroke: #00aa00"/>
     <use xlink:href="#m565a82b214" x="3046.692967" y="393.152473" style="fill: #00aa00; stroke: #00aa00"/>
     <use xlink:href="#m565a82b214" x="3104.120069" y="385.870394" style="fill: #00aa00; stroke: #00aa00"/>
     <use xlink:href="#m565a82b214" x="3161.54717" y="379.207878" style="fill: #00aa00; stroke: #00aa00"/>
     <use xlink:href="#m565a82b214" x="3218.974271" y="369.554747" style="fill: #00aa00; stroke: #00aa00"/>
     <use xlink:href="#m565a82b214" x="3276.401372" y="357.18893" style="fill: #00aa00; stroke: #00aa00"/>
     <use xlink:href="#m565a82b214" x="3333.828473" y="340.392519" style="fill: #00aa00; stroke: #00aa00"/>
     <use xlink:href="#m565a82b214" x="3391.255575" y="332.062019" style="fill: #00aa00; stroke: #00aa00"/>
     <use xlink:href="#m565a82b214" x="3448.682676" y="317.207664" style="fill: #00aa00; stroke: #00aa00"/>
     <use xlink:href="#m565a82b214" x="3506.109777" y="305.111315" style="fill: #00aa00; stroke: #00aa00"/>
     <use xlink:href="#m565a82b214" x="3563.536878" y="297.376809" style="fill: #00aa00; stroke: #00aa00"/>
     <use xlink:href="#m565a82b214" x="3620.963979" y="284.953516" style="fill: #00aa00; stroke: #00aa00"/>
     <use xlink:href="#m565a82b214" x="3678.391081" y="273.646668" style="fill: #00aa00; stroke: #00aa00"/>
     <use xlink:href="#m565a82b214" x="3735.818182" y="266.765498" style="fill: #00aa00; stroke: #00aa00"/>
    </g>
   </g>
  </g>
 </g>
 <defs>
  <clipPath id="p8e907cdb10">
   <rect x="540" y="172.8" width="3348" height="1087.2"/>
  </clipPath>
 </defs>
</svg>
