<svg class="main-svg" xmlns="http://www.w3.org/2000/svg" xmlns:xlink="http://www.w3.org/1999/xlink" width="3500" height="1000" style="" viewBox="0 0 3500 1000"><rect x="0" y="0" width="3500" height="1000" style="fill: rgb(255, 255, 255); fill-opacity: 1;"/><defs id="defs-2daf8d"><g class="clips"><clipPath id="clip2daf8dxyplot" class="plotclip"><rect width="2582" height="796"/></clipPath><clipPath class="axesclip" id="clip2daf8dx"><rect x="160" y="0" width="2582" height="1000"/></clipPath><clipPath class="axesclip" id="clip2daf8dy"><rect x="0" y="100" width="3500" height="796"/></clipPath><clipPath class="axesclip" id="clip2daf8dxy"><rect x="160" y="100" width="2582" height="796"/></clipPath></g><g class="gradients"/><g class="patterns"/></defs><g class="bglayer"><rect class="bg" x="160" y="100" width="2582" height="796" style="fill: rgb(229, 236, 246); fill-opacity: 1; stroke-width: 0;"/></g><g class="layer-below"><g class="imagelayer"/><g class="shapelayer"/></g><g class="cartesianlayer"><g class="subplot xy"><g class="layer-subplot"><g class="shapelayer"/><g class="imagelayer"/></g><g class="gridlayer"><g class="x"><path class="xgrid crisp" transform="translate(642.62,0)" d="M0,100v796" style="stroke: rgb(255, 255, 255); stroke-opacity: 1; stroke-width: 1px;"/><path class="xgrid crisp" transform="translate(1125.23,0)" d="M0,100v796" style="stroke: rgb(255, 255, 255); stroke-opacity: 1; stroke-width: 1px;"/><path class="xgrid crisp" transform="translate(1607.85,0)" d="M0,100v796" style="stroke: rgb(255, 255, 255); stroke-opacity: 1; stroke-width: 1px;"/><path class="xgrid crisp" transform="translate(2090.4700000000003,0)" d="M0,100v796" style="stroke: rgb(255, 255, 255); stroke-opacity: 1; stroke-width: 1px;"/><path class="xgrid crisp" transform="translate(2573.08,0)" d="M0,100v796" style="stroke: rgb(255, 255, 255); stroke-opacity: 1; stroke-width: 1px;"/></g><g class="y"><path class="ygrid crisp" transform="translate(0,827.83)" d="M160,0h2582" style="stroke: rgb(255, 255, 255); stroke-opacity: 1; stroke-width: 1px;"/><path class="ygrid crisp" transform="translate(0,746.68)" d="M160,0h2582" style="stroke: rgb(255, 255, 255); stroke-opacity: 1; stroke-width: 1px;"/><path class="ygrid crisp" transform="translate(0,665.54)" d="M160,0h2582" style="stroke: rgb(255, 255, 255); stroke-opacity: 1; stroke-width: 1px;"/><path class="ygrid crisp" transform="translate(0,584.39)" d="M160,0h2582" style="stroke: rgb(255, 255, 255); stroke-opacity: 1; stroke-width: 1px;"/><path class="ygrid crisp" transform="translate(0,422.1)" d="M160,0h2582" style="stroke: rgb(255, 255, 255); stroke-opacity: 1; stroke-width: 1px;"/><path class="ygrid crisp" transform="translate(0,340.96000000000004)" d="M160,0h2582" style="stroke: rgb(255, 255, 255); stroke-opacity: 1; stroke-width: 1px;"/><path class="ygrid crisp" transform="translate(0,259.81)" d="M160,0h2582" style="stroke: rgb(255, 255, 255); stroke-opacity: 1; stroke-width: 1px;"/><path class="ygrid crisp" transform="translate(0,178.66)" d="M160,0h2582" style="stroke: rgb(255, 255, 255); stroke-opacity: 1; stroke-width: 1px;"/></g></g><g class="zerolinelayer"><path class="xzl zl crisp" transform="translate(160,0)" d="M0,100v796" style="stroke: rgb(255, 255, 255); stroke-opacity: 1; stroke-width: 2px;"/><path class="yzl zl crisp" transform="translate(0,503.25)" d="M160,0h2582" style="stroke: rgb(255, 255, 255); stroke-opacity: 1; stroke-width: 2px;"/></g><path class="xlines-below"/><path class="ylines-below"/><g class="overlines-below"/><g class="xaxislayer-below"/><g class="yaxislayer-below"/><g class="overaxes-below"/><g class="plot" transform="translate(160,100)" clip-path="url(#clip2daf8dxyplot)"><g class="scatterlayer mlayer"><g class="trace scatter tracec63156" style="stroke-miterlimit: 2; opacity: 1;"><g class="fills"/><g class="errorbars"/><g class="lines"><path class="js-line" d="M0,135.03L2.41,135.58L4.83,137.49L7.24,137.25L9.65,139.51L12.07,142.03L14.48,146.31L19.3,153.39L21.72,158.15L26.54,167.57L28.96,173.62L33.78,184.96L36.2,191.98L41.02,204.49L43.44,212.06L48.26,224.78L50.67,232.35L67.57,271.99L69.98,276.37L74.81,284.32L77.22,287.49L82.04,293.08L84.46,295L89.28,298.23L91.7,298.95L96.52,299.79L98.94,299.61L103.76,297.68L106.18,296.32L113.41,291.31L115.83,288.88L130.31,266.3L132.72,262.04L161.68,209.07L164.09,205.81L171.33,197.56L173.74,195.67L180.98,192.16L183.39,192.32L185.81,191.44L188.22,191.68L190.63,193.94L193.05,194.43L195.46,195.21L197.87,198.2L207.53,212.77L209.94,217.43L217.18,233.99L219.59,240.29L231.66,276.18L234.07,283.96L263.03,375.69L265.44,382.49L279.92,419.89L282.33,425.66L325.77,528.69L328.18,535.2L347.48,591.17L349.9,598.41L366.79,646.54L369.2,652.69L378.85,674.58L381.27,679.31L390.92,694.95L393.33,698.01L400.57,705.04L402.99,706.65L410.22,709.29L412.64,709.45L417.46,708.68L419.88,707.78L427.12,703.06L429.53,700.84L436.77,692.45L439.18,689.1L448.83,673.32L451.25,668.83L463.31,643.84L465.73,638.42L513.99,528.35L516.4,523.5L533.29,491.29L535.7,487.13L542.94,475.21L545.36,471.65L569.49,432.82L571.9,426.92L576.73,417.67L579.14,411.69L586.38,398.75L588.79,394.42L598.44,366.83L600.86,359.34L610.51,325.63L612.92,316.15L615.34,307.73L617.75,291.37L622.58,265.63L624.99,254.14L629.81,222.82L632.23,207.79L644.29,136.58L646.71,124.86L656.36,86.6L658.77,82.89L668.42,54.57L670.84,51.83L673.25,48.73L675.66,48.26L678.08,44.8L680.49,47.27L682.9,45.79L685.32,49.85L687.73,51.63L690.14,55.86L697.38,71.91L699.79,80.14L707.03,104.6L709.45,108.16L719.1,153.65L721.51,159.49L731.16,204.26L733.58,209.9L743.23,247.17L745.64,252.05L755.3,273.59L757.71,278.97L769.77,295.2L772.19,298.01L781.84,305.11L784.25,306.49L793.9,309.45L796.32,309.41L803.56,310.51L805.97,309.95L810.8,309.62L813.21,309.19L820.45,307.72L822.86,306.64L827.69,305.09L830.1,304.24L842.17,299.63L844.58,298.08L868.71,288.87L871.12,288.31L878.36,286.57L880.78,286.42L890.43,286.01L892.84,286.26L900.08,286.26L902.49,288.68L909.73,292.67L912.15,293L916.97,297.3L919.39,299.01L929.04,306.96L931.45,309.33L941.1,319.68L943.52,322.39L955.58,337.32L957.99,340.75L984.54,377.07L986.95,381L1001.43,404.11L1003.84,407.86L1013.5,424.23L1015.91,429.6L1025.56,448.38L1027.97,453.26L1035.21,469.82L1037.63,476.16L1049.69,508.47L1052.1,515.61L1054.52,523.97L1056.93,528.07L1071.41,573.84L1073.82,581.64L1088.3,619.46L1090.71,624.63L1100.37,641.1L1102.78,643.74L1107.61,648.01L1110.02,649.86L1114.84,650.69L1117.26,650.1L1119.67,650.43L1122.08,649.39L1126.91,646.41L1129.32,643.12L1134.15,632.84L1136.56,631.04L1138.98,627.58L1141.39,620.7L1146.21,603.12L1148.63,599.45L1151.04,594L1153.45,583.19L1158.28,559.22L1160.69,553.32L1163.11,546.23L1165.52,532.81L1180,460.86L1182.41,452.49L1194.48,391.65L1196.89,380.06L1206.54,338.71L1208.96,332.44L1223.43,279.42L1225.85,272.17L1228.26,266.59L1230.67,257.29L1247.56,214L1249.98,209.14L1252.39,205.61L1254.8,199.26L1264.46,183.12L1266.87,181L1271.7,173.75L1274.11,172.38L1278.93,166.76L1281.35,166.13L1286.17,162.08L1288.59,162.17L1293.41,159.6L1295.83,160.36L1300.65,159.13L1303.07,160.29L1312.72,162.56L1315.13,163.97L1319.96,166.66L1322.37,168.38L1324.78,168.73L1327.2,170.83L1334.44,175.23L1336.85,177.07L1356.15,187.15L1358.57,187.61L1373.04,188.75L1375.46,187.75L1377.87,186.44L1380.28,186.59L1389.94,182.33L1392.35,180.43L1394.76,177.66L1397.18,177L1411.65,166.76L1414.07,164.15L1416.48,161.95L1418.89,161.34L1430.96,156L1433.37,155.38L1438.2,153.9L1440.61,154.77L1450.26,157.15L1452.68,158.74L1462.33,168.47L1464.74,171.53L1476.81,191.53L1479.22,197.56L1498.53,258.96L1500.94,270.57L1527.48,408.68L1529.9,424.99L1534.72,454.94L1537.13,466.12L1541.96,484.37L1544.37,495.48L1561.27,562.72L1563.68,569.09L1566.09,575.18L1568.5,578.16L1573.33,589.34L1575.74,594.23L1580.57,603.21L1582.98,606.25L1587.81,613.46L1590.22,614.87L1599.87,619.01L1602.29,618.59L1609.53,616.73L1611.94,615.81L1616.77,611.89L1619.18,609.05L1624.01,604.77L1626.42,602.14L1638.48,580.31L1640.9,574.86L1645.72,564.61L1648.14,559.04L1655.38,542.04L1657.79,537.6L1665.03,521.57L1667.44,513.74L1696.4,450.6L1698.81,447.45L1710.88,427.47L1713.29,424.06L1720.53,412.99L1722.94,411.23L1732.59,399.81L1735.01,397.6L1744.66,390.12L1747.07,388.58L1756.73,383.66L1759.14,382.73L1768.79,380.21L1771.2,379.96L1776.03,379.49L1778.44,379.43L1788.1,379.54L1790.51,379.79L1802.57,381.17L1804.99,381.77L1814.64,383.23L1817.05,383.38L1836.36,386.16L1838.77,386.05L1853.25,386.48L1855.66,386.05L1865.31,385.2L1867.73,384.83L1877.38,382.88L1879.79,382.32L1896.68,376.54L1899.1,375.4L1908.75,371.04L1911.16,369.4L1928.05,357.36L1930.47,354.56L1940.12,343.52L1942.53,340.29L1952.19,324.41L1954.6,319.44L1961.84,302.83L1964.25,295.92L1969.08,282.3L1971.49,274.82L1981.14,234.04L1983.56,225.69L1995.62,164.53L1998.03,151.77L2000.45,145.53L2002.86,131.76L2005.27,114.4L2007.69,111.27L2012.51,89.08L2014.93,82.82L2017.34,78.79L2019.75,68.23L2022.16,64.1L2024.58,61.98L2029.4,47.5L2031.82,51.39L2034.23,43.36L2036.64,39.8L2039.06,46.84L2041.47,42.37L2043.88,42.81L2046.3,51.98L2048.71,49.62L2051.12,54.31L2053.53,65.57L2055.95,71.06L2065.6,95.47L2068.01,103.04L2075.25,131.5L2077.67,142.71L2099.38,247.52L2101.8,257.16L2111.45,289.85L2113.86,296.66L2123.51,319.37L2125.93,324.09L2135.58,340.03L2137.99,343.42L2152.47,361.3L2154.88,363.82L2174.19,380.02L2176.6,381.71L2186.25,390.28L2188.67,392.41L2198.32,401.24L2200.73,403L2207.97,410.03L2210.39,413.04L2222.45,427.65L2224.86,430.88L2236.93,450.65L2239.34,454.99L2248.99,476.57L2251.41,483.4L2258.65,504.45L2261.06,513.32L2270.71,548.53L2273.13,563.96L2282.78,605.69L2285.19,622.51L2299.67,688.74L2302.08,697.77L2304.5,702.43L2306.91,711.84L2309.32,721.13L2311.73,724.66L2316.56,738.86L2318.97,741.4L2323.8,749.27L2326.21,752.43L2331.04,753.55L2333.45,756.2L2338.28,752.61L2340.69,753.03L2352.76,733.83L2355.17,725.49L2360,713.7L2362.41,702.68L2364.82,696.37L2367.24,686.23L2388.95,581.98L2391.37,567.53L2398.61,539.75L2401.02,529.54L2403.43,523.51L2405.84,512.94L2410.67,497.64L2413.08,492.79L2417.91,478.75L2420.32,472.18L2425.15,463.21L2427.56,459.62L2429.98,455.84L2432.39,450.16L2444.45,432.02L2446.87,428.73L2478.24,386.24L2480.65,382.42L2490.3,365.35L2492.72,360.55L2502.37,338.71L2504.78,332.53L2514.43,304.66L2516.85,296.92L2531.33,245.69L2533.74,236.78L2540.98,208.95L2543.39,200.78L2548.22,187.58L2550.63,180.74L2555.46,165.73L2557.87,161.6L2565.11,148.58L2567.52,145.24L2572.35,138.23L2574.76,136.45L2582,134.93" style="vector-effect: non-scaling-stroke; fill: none; stroke: rgb(170, 0, 0); stroke-opacity: 1; stroke-width: 4px; opacity: 1;"/></g><g class="points"/><g class="text"/></g><g class="trace scatter trace69501e" style="stroke-miterlimit: 2; opacity: 1;"><g class="fills"/><g class="errorbars"/><g class="lines"><path class="js-line" d="M0,135.46L2.41,135.45L4.83,136.51L7.24,137.83L9.65,140.42L21.72,156.9L24.13,161.22L31.37,178.95L33.78,185.42L43.44,211.88L45.85,218.48L50.67,231.36L53.09,236.3L57.91,252.45L60.33,256.56L65.15,268.94L67.57,272.23L72.39,282.15L74.81,284.54L77.22,286.4L79.63,289.63L84.46,296.78L86.87,297.01L91.7,298.62L94.11,299.71L98.94,300.36L101.35,298.97L108.59,294.94L111,292.68L113.41,291L115.83,287.85L120.65,282.25L123.07,277.53L125.48,274.68L127.89,270.17L135.13,257.56L137.55,252.32L142.37,244.91L144.79,238.08L156.85,217.19L159.26,213.37L166.5,201.33L168.92,200.02L173.74,195.67L176.16,194.29L180.98,192.16L183.39,191.75L188.22,191.67L190.63,193.34L195.46,196.68L197.87,198.98L205.11,208.96L207.53,214.03L217.18,233.61L219.59,239.64L224.42,252.76L226.83,261.57L238.9,301.27L241.31,310.01L272.68,402.24L275.09,408.37L282.33,424.35L284.74,429.45L296.81,458.88L299.22,464.34L316.11,503.92L318.53,511.54L323.35,523.94L325.77,530.75L328.18,535.27L330.59,542.52L337.83,562.63L340.24,571.83L347.48,592.92L349.9,597.65L354.72,613.64L357.14,621.31L359.55,630.71L361.96,635.24L366.79,646.69L369.2,651.34L374.03,665.57L376.44,670.42L378.85,676.42L381.27,679.22L386.09,689.47L388.51,692.64L390.92,696.52L393.33,698.23L398.16,704.58L400.57,705.92L405.4,708.35L407.81,709.33L410.22,710.38L412.64,709.9L417.46,709.87L419.88,708.29L424.7,706.23L427.12,705.06L439.18,690.63L441.59,686.31L444.01,683.33L446.42,678.52L451.25,669.84L453.66,665.86L477.79,611.92L480.2,604.58L482.62,597.51L485.03,593.6L497.1,564.77L499.51,558.06L506.75,545.02L509.16,540.34L518.81,518.86L521.23,514.47L526.05,506.73L528.47,501.41L535.7,487.54L538.12,483.9L576.73,418.09L579.14,413.3L588.79,392.45L591.21,386.64L600.86,359.38L603.27,351.41L612.92,314.09L615.34,303L622.58,266.68L624.99,252.59L649.12,119.39L651.53,108.76L653.95,101.62L656.36,89.69L658.77,82.18L661.19,70.33L663.6,66.91L666.01,61.09L670.84,52.25L673.25,50.02L675.66,46.18L678.08,47.34L680.49,44.67L682.9,46.08L685.32,47.18L687.73,50.49L692.56,61.57L694.97,66.75L699.79,77.25L702.21,84.66L709.45,108.16L711.86,123.27L714.27,135.58L716.69,142.71L723.93,167.08L726.34,180.18L731.16,205.14L733.58,212.96L743.23,243.62L745.64,253.41L750.47,264.77L752.88,269.48L764.95,290.86L767.36,292.81L769.77,294.37L772.19,297.82L774.6,300.88L777.01,301.86L779.43,302.45L781.84,304.29L786.67,307.24L789.08,308.11L798.73,310.03L801.14,310.17L810.8,309.55L813.21,309.14L825.27,305.89L827.69,305.04L846.99,296.93L849.41,295.86L868.71,288.41L871.12,287.73L883.19,285.73L885.6,285.65L895.25,286.56L897.67,287.12L907.32,290.7L909.73,291.95L919.39,298.27L921.8,300.17L933.86,311.44L936.28,314.01L948.34,328.2L950.76,331.98L957.99,340.75L960.41,343.22L962.82,345.81L965.23,350.12L970.06,358.2L972.47,360.85L984.54,378.05L986.95,381.67L1003.84,408.06L1006.26,412.22L1011.08,421.45L1013.5,426.34L1025.56,446.99L1027.97,452.88L1040.04,483.36L1042.45,487.18L1049.69,508.61L1052.1,517.66L1064.17,549.93L1066.58,559.75L1071.41,576.14L1073.82,582.86L1076.24,586.87L1078.65,594.43L1095.54,635.64L1097.95,638.8L1107.61,648.47L1110.02,649.33L1112.43,650.85L1114.84,650.95L1117.26,651.18L1119.67,650.23L1122.08,649.39L1124.5,647.37L1129.32,642.31L1131.74,639.15L1138.98,625.36L1141.39,619.54L1148.63,599.01L1151.04,590.36L1158.28,563.42L1160.69,552.54L1167.93,520.44L1170.35,508.41L1182.41,451.34L1184.82,435.55L1189.65,411.52L1192.06,402.65L1206.54,339.92L1208.96,331.88L1221.02,286.03L1223.43,280.24L1242.74,224.45L1245.15,220.65L1252.39,205.74L1254.8,200.88L1264.46,182.36L1266.87,180.6L1274.11,172.24L1276.52,170.38L1283.76,163.94L1286.17,161.93L1291,160.91L1293.41,160.47L1298.24,160.22L1300.65,159.91L1307.89,160.61L1310.3,162.04L1317.54,164.97L1319.96,166.49L1329.61,172.06L1332.02,173.58L1336.85,177.61L1339.26,177.97L1344.09,181.2L1346.5,182.84L1360.98,188.4L1363.39,188.53L1373.04,188.72L1375.46,187.22L1377.87,187.68L1380.28,186.57L1385.11,184.51L1387.52,183.61L1426.13,156.73L1428.55,156.84L1433.37,155.38L1435.79,154.74L1445.44,155.52L1447.85,156.66L1455.09,159.99L1457.5,161.78L1471.98,183.07L1474.39,188.16L1481.63,205.08L1484.05,211.72L1488.87,222.39L1491.29,233.44L1496.11,255.42L1498.53,264.61L1500.94,272.36L1503.35,283.73L1510.59,318.38L1513,331.11L1544.37,497.45L1546.79,508.04L1556.44,544.95L1558.85,552.54L1563.68,569.63L1566.09,575.5L1568.5,581.12L1570.92,583.86L1575.74,594.18L1578.16,598.51L1585.4,611.05L1587.81,612.85L1597.46,618.68L1599.87,618.44L1609.53,617.82L1611.94,615.87L1616.77,611.89L1619.18,609.05L1624.01,604.41L1626.42,601.36L1640.9,575.44L1643.31,569.43L1648.14,559.97L1650.55,554.63L1684.33,475.39L1686.75,470.64L1703.64,436.98L1706.05,434.27L1713.29,424.04L1715.7,420.39L1730.18,401.97L1732.59,400.46L1737.42,396.07L1739.83,394.62L1744.66,390.64L1747.07,389.53L1751.9,386.55L1754.31,385.68L1761.55,382.5L1763.96,381.5L1788.1,379.51L1790.51,379.69L1843.6,386.51L1846.01,386.55L1860.49,385.95L1862.9,385.48L1874.97,383.3L1877.38,382.83L1903.92,373L1906.34,371.77L1920.81,362.94L1923.23,360.76L1932.88,351.44L1935.29,349.22L1940.12,343.85L1942.53,340.08L1949.77,328.63L1952.19,324.19L1959.42,308.56L1961.84,302.48L1969.08,281.14L1971.49,272.9L1981.14,233.81L1983.56,222.55L2007.69,104.87L2010.1,96.43L2017.34,77.14L2019.75,72.14L2022.16,61.57L2024.58,57.73L2026.99,58.69L2029.4,51.12L2036.64,41.02L2039.06,46.84L2041.47,43.18L2043.88,44.86L2046.3,51.98L2048.71,55.78L2055.95,71.06L2058.36,76.7L2065.6,95.47L2068.01,103.04L2075.25,131.5L2077.67,142.71L2099.38,247.52L2101.8,257.16L2111.45,289.85L2113.86,296.66L2123.51,319.37L2125.93,324.09L2135.58,340.03L2137.99,343.42L2150.06,357.82L2152.47,360.32L2157.3,365.78L2159.71,367.29L2162.12,368.52L2164.54,370.91L2166.95,374.65L2169.36,376.44L2176.6,381.24L2179.01,384.79L2188.67,391.41L2191.08,395.02L2198.32,399.76L2200.73,403.26L2220.04,423.92L2222.45,427.51L2239.34,455.29L2241.76,459.89L2251.41,482.88L2253.82,490.18L2261.06,512.61L2263.47,522.03L2270.71,550.45L2273.13,564.75L2280.36,598.63L2282.78,605.69L2287.6,633.22L2290.02,644.48L2294.84,664.93L2297.26,676.15L2309.32,718.47L2311.73,724.66L2318.97,741.4L2321.39,745.84L2326.21,752.43L2328.63,754.49L2333.45,756.2L2335.87,755.9L2340.69,753.03L2343.1,750.43L2345.52,747.01L2347.93,740.06L2352.76,730.25L2355.17,726.36L2360,711.81L2362.41,702.87L2364.82,695.51L2367.24,684.48L2369.65,678.34L2372.06,668.62L2376.89,645.73L2379.3,630.33L2388.95,580.42L2391.37,572.48L2405.84,511.24L2408.26,504.46L2413.08,492.22L2415.5,485.97L2420.32,474.98L2422.74,468.62L2429.98,454.13L2432.39,450.09L2439.63,440.49L2442.04,435.84L2446.87,428.58L2449.28,425.54L2456.52,417.5L2458.93,413.33L2466.17,403.51L2468.59,401.05L2478.24,386.14L2480.65,383.28L2497.54,351.96L2499.96,344.67L2507.19,325.44L2509.61,320.34L2519.26,288.3L2521.67,282.11L2531.33,245.21L2533.74,238.63L2538.56,219.75L2540.98,211.56L2545.8,196.31L2548.22,187.47L2555.46,167.04L2557.87,163.2L2562.7,152.75L2565.11,149.1L2567.52,144.77L2569.93,142.54L2574.76,138.12L2577.17,136.3L2579.59,134.8L2582,135.07" style="vector-effect: non-scaling-stroke; fill: none; stroke: rgb(0, 170, 0); stroke-opacity: 1; stroke-width: 4px; opacity: 1;"/></g><g class="points"/><g class="text"/></g></g></g><g class="overplot"/><path class="xlines-above crisp" d="M0,0" style="fill: none;"/><path class="ylines-above crisp" d="M0,0" style="fill: none;"/><g class="overlines-above"/><g class="xaxislayer-above"><g class="xtick"><text text-anchor="middle" x="0" y="934" transform="translate(160,0)" style="font-family: 'Open Sans', verdana, arial, sans-serif; font-size: 37px; fill: rgb(42, 63, 95); fill-opacity: 1; white-space: pre; opacity: 1;">0</text></g><g class="xtick"><text text-anchor="middle" x="0" y="934" style="font-family: 'Open Sans', verdana, arial, sans-serif; font-size: 37px; fill: rgb(42, 63, 95); fill-opacity: 1; white-space: pre; opacity: 1;" transform="translate(642.62,0)">200</text></g><g class="xtick"><text text-anchor="middle" x="0" y="934" style="font-family: 'Open Sans', verdana, arial, sans-serif; font-size: 37px; fill: rgb(42, 63, 95); fill-opacity: 1; white-space: pre; opacity: 1;" transform="translate(1125.23,0)">400</text></g><g class="xtick"><text text-anchor="middle" x="0" y="934" style="font-family: 'Open Sans', verdana, arial, sans-serif; font-size: 37px; fill: rgb(42, 63, 95); fill-opacity: 1; white-space: pre; opacity: 1;" transform="translate(1607.85,0)">600</text></g><g class="xtick"><text text-anchor="middle" x="0" y="934" style="font-family: 'Open Sans', verdana, arial, sans-serif; font-size: 37px; fill: rgb(42, 63, 95); fill-opacity: 1; white-space: pre; opacity: 1;" transform="translate(2090.4700000000003,0)">800</text></g><g class="xtick"><text text-anchor="middle" x="0" y="934" style="font-family: 'Open Sans', verdana, arial, sans-serif; font-size: 37px; fill: rgb(42, 63, 95); fill-opacity: 1; white-space: pre; opacity: 1;" transform="translate(2573.08,0)">1000</text></g></g><g class="yaxislayer-above"><g class="ytick"><text text-anchor="end" x="159" y="12.95" transform="translate(0,827.83)" style="font-family: 'Open Sans', verdana, arial, sans-serif; font-size: 37px; fill: rgb(42, 63, 95); fill-opacity: 1; white-space: pre; opacity: 1;">−200</text></g><g class="ytick"><text text-anchor="end" x="159" y="12.95" style="font-family: 'Open Sans', verdana, arial, sans-serif; font-size: 37px; fill: rgb(42, 63, 95); fill-opacity: 1; white-space: pre; opacity: 1;" transform="translate(0,746.68)">−150</text></g><g class="ytick"><text text-anchor="end" x="159" y="12.95" style="font-family: 'Open Sans', verdana, arial, sans-serif; font-size: 37px; fill: rgb(42, 63, 95); fill-opacity: 1; white-space: pre; opacity: 1;" transform="translate(0,665.54)">−100</text></g><g class="ytick"><text text-anchor="end" x="159" y="12.95" style="font-family: 'Open Sans', verdana, arial, sans-serif; font-size: 37px; fill: rgb(42, 63, 95); fill-opacity: 1; white-space: pre; opacity: 1;" transform="translate(0,584.39)">−50</text></g><g class="ytick"><text text-anchor="end" x="159" y="12.95" style="font-family: 'Open Sans', verdana, arial, sans-serif; font-size: 37px; fill: rgb(42, 63, 95); fill-opacity: 1; white-space: pre; opacity: 1;" transform="translate(0,503.25)">0</text></g><g class="ytick"><text text-anchor="end" x="159" y="12.95" style="font-family: 'Open Sans', verdana, arial, sans-serif; font-size: 37px; fill: rgb(42, 63, 95); fill-opacity: 1; white-space: pre; opacity: 1;" transform="translate(0,422.1)">50</text></g><g class="ytick"><text text-anchor="end" x="159" y="12.95" style="font-family: 'Open Sans', verdana, arial, sans-serif; font-size: 37px; fill: rgb(42, 63, 95); fill-opacity: 1; white-space: pre; opacity: 1;" transform="translate(0,340.96000000000004)">100</text></g><g class="ytick"><text text-anchor="end" x="159" y="12.95" style="font-family: 'Open Sans', verdana, arial, sans-serif; font-size: 37px; fill: rgb(42, 63, 95); fill-opacity: 1; white-space: pre; opacity: 1;" transform="translate(0,259.81)">150</text></g><g class="ytick"><text text-anchor="end" x="159" y="12.95" style="font-family: 'Open Sans', verdana, arial, sans-serif; font-size: 37px; fill: rgb(42, 63, 95); fill-opacity: 1; white-space: pre; opacity: 1;" transform="translate(0,178.66)">200</text></g></g><g class="overaxes-above"/></g></g><g class="polarlayer"/><g class="ternarylayer"/><g class="geolayer"/><g class="funnelarealayer"/><g class="pielayer"/><g class="iciclelayer"/><g class="treemaplayer"/><g class="sunburstlayer"/><g class="glimages"/><defs id="topdefs-2daf8d"><g class="clips"/><clipPath id="legend2daf8d"><rect width="694" height="113" x="0" y="0"/></clipPath></defs><g class="layer-above"><g class="imagelayer"/><g class="shapelayer"/></g><g class="infolayer"><g class="legend" pointer-events="all" transform="translate(2793.64,100)"><rect class="bg" shape-rendering="crispEdges" width="694" height="113" x="0" y="0" style="stroke: rgb(68, 68, 68); stroke-opacity: 1; fill: rgb(255, 255, 255); fill-opacity: 1; stroke-width: 0px;"/><g class="scrollbox" transform="" clip-path="url(#legend2daf8d)"><g class="groups"><g class="traces" transform="translate(0,30.55)" style="opacity: 1;"><text class="legendtext" text-anchor="start" x="40" y="14.43" style="font-family: 'Open Sans', verdana, arial, sans-serif; font-size: 37px; fill: rgb(42, 63, 95); fill-opacity: 1; white-space: pre;">Predicted Curvature at Anchors #1</text><g class="layers" style="opacity: 1;"><g class="legendfill"/><g class="legendlines"><path class="js-line" d="M5,0h30" style="fill: none; stroke: rgb(170, 0, 0); stroke-opacity: 1; stroke-width: 4px;"/></g><g class="legendsymbols"><g class="legendpoints"/></g></g><rect class="legendtoggle" x="0" y="-25.55" width="688.125" height="51.1" style="fill: rgb(0, 0, 0); fill-opacity: 0;"/></g><g class="traces" transform="translate(0,81.65)" style="opacity: 1;"><text class="legendtext" text-anchor="start" x="40" y="14.43" style="font-family: 'Open Sans', verdana, arial, sans-serif; font-size: 37px; fill: rgb(42, 63, 95); fill-opacity: 1; white-space: pre;">Predicted Curvature at Anchors #2</text><g class="layers" style="opacity: 1;"><g class="legendfill"/><g class="legendlines"><path class="js-line" d="M5,0h30" style="fill: none; stroke: rgb(0, 170, 0); stroke-opacity: 1; stroke-width: 4px;"/></g><g class="legendsymbols"><g class="legendpoints"/></g></g><rect class="legendtoggle" x="0" y="-25.55" width="688.125" height="51.1" style="fill: rgb(0, 0, 0); fill-opacity: 0;"/></g></g></g><rect class="scrollbar" rx="20" ry="3" width="0" height="0" x="0" y="0" style="fill: rgb(128, 139, 164); fill-opacity: 1;"/></g><g class="g-gtitle"/><g class="g-xtitle"><text class="xtitle" x="1451" y="987.8" text-anchor="middle" style="font-family: 'Open Sans', verdana, arial, sans-serif; font-size: 44px; fill: rgb(42, 63, 95); opacity: 1; font-weight: normal; white-space: pre;">Anchor Point Index</text></g><g class="g-ytitle" transform="translate(31.6591796875,0)"><text class="ytitle" transform="rotate(-90,12.340624999999989,498)" x="12.340624999999989" y="498" text-anchor="middle" style="font-family: 'Open Sans', verdana, arial, sans-serif; font-size: 44px; fill: rgb(42, 63, 95); opacity: 1; font-weight: normal; white-space: pre;">Predicted Curvature</text></g><g class="annotation" data-index="0" style="opacity: 1;"><g class="annotation-text-g" transform="rotate(0,1451,75.49999999999994)"><g class="cursor-pointer" transform="translate(585,51)"><rect class="bg" x="0.5" y="0.5" width="1732" height="48" style="stroke-width: 1px; stroke: rgb(0, 0, 0); stroke-opacity: 0; fill: rgb(0, 0, 0); fill-opacity: 0;"/><text class="annotation-text" text-anchor="middle" x="866.546875" y="39" style="font-family: 'Open Sans', verdana, arial, sans-serif; font-size: 37px; fill: rgb(42, 63, 95); fill-opacity: 1; white-space: pre;"><tspan style="font-weight:bold">Predicted Curvature at Anchors (Transformed Curve #1 vs. Transformed Curve #2)</tspan></text></g></g></g></g></svg>