<svg class="main-svg" xmlns="http://www.w3.org/2000/svg" xmlns:xlink="http://www.w3.org/1999/xlink" width="3500" height="1000" style="" viewBox="0 0 3500 1000"><rect x="0" y="0" width="3500" height="1000" style="fill: rgb(255, 255, 255); fill-opacity: 1;"/><defs id="defs-77f893"><g class="clips"><clipPath id="clip77f893xyplot" class="plotclip"><rect width="2582" height="796"/></clipPath><clipPath class="axesclip" id="clip77f893x"><rect x="160" y="0" width="2582" height="1000"/></clipPath><clipPath class="axesclip" id="clip77f893y"><rect x="0" y="100" width="3500" height="796"/></clipPath><clipPath class="axesclip" id="clip77f893xy"><rect x="160" y="100" width="2582" height="796"/></clipPath></g><g class="gradients"/><g class="patterns"/></defs><g class="bglayer"><rect class="bg" x="160" y="100" width="2582" height="796" style="fill: rgb(229, 236, 246); fill-opacity: 1; stroke-width: 0;"/></g><g class="layer-below"><g class="imagelayer"/><g class="shapelayer"/></g><g class="cartesianlayer"><g class="subplot xy"><g class="layer-subplot"><g class="shapelayer"/><g class="imagelayer"/></g><g class="gridlayer"><g class="x"><path class="xgrid crisp" transform="translate(653.69,0)" d="M0,100v796" style="stroke: rgb(255, 255, 255); stroke-opacity: 1; stroke-width: 1px;"/><path class="xgrid crisp" transform="translate(1147.38,0)" d="M0,100v796" style="stroke: rgb(255, 255, 255); stroke-opacity: 1; stroke-width: 1px;"/><path class="xgrid crisp" transform="translate(1641.07,0)" d="M0,100v796" style="stroke: rgb(255, 255, 255); stroke-opacity: 1; stroke-width: 1px;"/><path class="xgrid crisp" transform="translate(2134.76,0)" d="M0,100v796" style="stroke: rgb(255, 255, 255); stroke-opacity: 1; stroke-width: 1px;"/><path class="xgrid crisp" transform="translate(2628.45,0)" d="M0,100v796" style="stroke: rgb(255, 255, 255); stroke-opacity: 1; stroke-width: 1px;"/></g><g class="y"><path class="ygrid crisp" transform="translate(0,873.11)" d="M160,0h2582" style="stroke: rgb(255, 255, 255); stroke-opacity: 1; stroke-width: 1px;"/><path class="ygrid crisp" transform="translate(0,772.88)" d="M160,0h2582" style="stroke: rgb(255, 255, 255); stroke-opacity: 1; stroke-width: 1px;"/><path class="ygrid crisp" transform="translate(0,672.65)" d="M160,0h2582" style="stroke: rgb(255, 255, 255); stroke-opacity: 1; stroke-width: 1px;"/><path class="ygrid crisp" transform="translate(0,572.4200000000001)" d="M160,0h2582" style="stroke: rgb(255, 255, 255); stroke-opacity: 1; stroke-width: 1px;"/><path class="ygrid crisp" transform="translate(0,371.95)" d="M160,0h2582" style="stroke: rgb(255, 255, 255); stroke-opacity: 1; stroke-width: 1px;"/><path class="ygrid crisp" transform="translate(0,271.72)" d="M160,0h2582" style="stroke: rgb(255, 255, 255); stroke-opacity: 1; stroke-width: 1px;"/><path class="ygrid crisp" transform="translate(0,171.49)" d="M160,0h2582" style="stroke: rgb(255, 255, 255); stroke-opacity: 1; stroke-width: 1px;"/></g></g><g class="zerolinelayer"><path class="xzl zl crisp" transform="translate(160,0)" d="M0,100v796" style="stroke: rgb(255, 255, 255); stroke-opacity: 1; stroke-width: 2px;"/><path class="yzl zl crisp" transform="translate(0,472.18)" d="M160,0h2582" style="stroke: rgb(255, 255, 255); stroke-opacity: 1; stroke-width: 2px;"/></g><path class="xlines-below"/><path class="ylines-below"/><g class="overlines-below"/><g class="xaxislayer-below"/><g class="yaxislayer-below"/><g class="overaxes-below"/><g class="plot" transform="translate(160,100)" clip-path="url(#clip77f893xyplot)"><g class="scatterlayer mlayer"><g class="trace scatter trace1c2f38" style="stroke-miterlimit: 2; opacity: 1;"><g class="fills"/><g class="errorbars"/><g class="lines"><path class="js-line" d="M0,203.88L4.94,202.45L7.41,200.46L9.87,198.49L12.34,198.01L14.81,197.53L17.28,195.52L22.22,193.78L24.68,192.24L27.15,190.87L29.62,191L32.09,190.68L34.56,188.83L39.5,188.74L41.96,186.08L44.43,185.37L46.9,186.34L51.84,182.52L54.31,182.52L64.18,179.9L66.65,179.4L81.46,177.53L83.93,177.44L96.27,178.2L98.74,178.61L111.08,182.08L113.55,183.06L125.89,189.38L128.36,190.92L143.17,201.78L145.64,203.82L167.85,223.81L170.32,226.09L195.01,247.64L197.48,249.56L212.29,259.88L214.76,261.38L229.57,269.07L232.03,270.13L246.85,275.85L249.31,275.92L254.25,277.58L256.72,278.44L264.12,279.95L266.59,280.48L301.15,288L303.62,288.97L311.02,291.6L313.49,292.83L320.9,296.49L323.37,298.06L333.24,305.04L335.71,307.03L352.99,324.11L355.46,328.54L362.86,340.14L365.33,343.84L377.67,365.88L380.14,372.42L387.55,387.48L390.02,392.13L394.95,403.81L397.42,411.64L402.36,422.25L404.83,426.97L414.7,452.5L417.17,457.08L431.98,490.94L434.45,495.1L439.38,501.93L441.85,507.42L451.73,518.83L454.2,520.61L456.66,523.22L459.13,524.14L466.54,526.19L469.01,525.76L471.47,526.25L473.94,524.97L478.88,522.26L481.35,519.41L486.28,517.39L488.75,513.27L491.22,510.84L493.69,506.91L506.03,487.45L508.5,482.12L520.84,456.71L523.31,450.51L528.25,443.11L530.72,436.97L545.53,403.7L548,400.42L557.87,378.4L560.34,375.45L570.21,355.19L572.68,352.6L585.02,331.74L587.49,328.05L602.3,306.88L604.77,303.47L624.52,280.64L626.99,278.54L634.39,270.27L636.86,268.79L641.8,264.61L644.27,262.22L649.2,258.91L651.67,257.71L654.14,256.37L656.61,253.79L666.48,248.54L668.95,248.41L671.42,246.15L673.89,245.36L676.36,245.52L678.82,243.43L683.76,243.36L686.23,241.47L688.7,240.32L691.17,241.18L693.63,241.3L696.1,240.01L698.57,239.13L701.04,240.4L703.51,240.98L705.98,239.89L708.45,239.26L710.91,239.96L715.85,242.4L718.32,241.6L720.79,241.28L723.26,242.34L733.13,246.31L735.6,247.36L750.41,255.13L752.88,256.64L757.81,261.12L760.28,261.49L762.75,261.99L765.22,263.99L772.63,271.48L775.09,272.16L799.78,290.67L802.25,291.96L809.65,296.16L812.12,297.3L824.46,302.29L826.93,302.98L831.87,304.28L834.34,304.25L844.21,304.11L846.68,303.92L859.02,299.6L861.49,298.56L873.83,289.55L876.3,286.94L893.58,265.86L896.05,262.44L918.26,221.58L920.73,214.83L950.35,143.97L952.82,137.32L960.23,123.49L962.7,118.16L970.1,104.74L972.57,100.93L979.98,92.02L982.44,89.98L994.79,82.18L997.25,83.02L999.72,82.58L1002.19,83.54L1004.66,84.28L1007.13,83.58L1012.07,87.92L1014.53,87.63L1021.94,96.31L1024.41,96.8L1034.28,110.8L1036.75,111.94L1044.15,124.89L1046.62,127.06L1049.09,128.35L1051.56,132.37L1058.97,143.25L1061.43,144.69L1063.9,145.58L1066.37,148.72L1071.31,154.62L1073.78,155.27L1076.24,155.52L1078.71,158.07L1081.18,160.34L1083.65,160.39L1086.12,160.1L1088.59,161.78L1091.06,163.15L1093.52,162.7L1095.99,161.94L1098.46,162.91L1100.93,163.6L1103.4,162.81L1105.87,161.72L1108.33,162.27L1110.8,162.58L1113.27,161.64L1115.74,160.7L1118.21,161.99L1123.15,159.74L1125.61,161.17L1130.55,158.99L1133.02,160.01L1135.49,161.02L1137.96,160.6L1140.42,160.68L1142.89,163.06L1147.83,162.83L1150.3,165.48L1152.77,168.35L1155.24,168.85L1157.7,170.78L1160.17,174.81L1165.11,177.64L1167.58,182.73L1170.05,188.2L1172.51,189.86L1174.98,192.42L1177.45,199.13L1179.92,206.2L1182.39,208.72L1184.86,212.3L1187.33,220.72L1189.79,229.35L1192.26,233.05L1194.73,237.64L1197.2,247.8L1199.67,258L1202.14,263.22L1204.6,268.94L1207.07,280.85L1209.54,292.8L1212.01,299.62L1214.48,306.78L1216.95,320.39L1219.41,334.34L1221.88,342.39L1224.35,351.31L1226.82,366.37L1229.29,382.29L1231.76,391.06L1236.69,414.09L1239.16,434.59L1244.1,457.91L1246.57,469.85L1249.04,482.53L1251.5,502.46L1256.44,526.41L1258.91,537.98L1261.38,549.78L1263.85,567.35L1268.78,589.16L1271.25,599.06L1276.19,620.98L1278.66,631.88L1283.59,647.15L1286.06,654.69L1295.94,678.56L1298.41,681.71L1300.87,687.24L1303.34,689.02L1305.81,690.47L1308.28,693.16L1313.22,693.87L1315.68,697.06L1318.15,695.34L1320.62,692.13L1323.09,690.61L1325.56,687.58L1328.03,685.58L1330.5,686.16L1332.96,681.49L1335.43,674.61L1342.84,659.82L1345.31,657.96L1347.77,651.27L1350.24,640.7L1355.18,629.04L1357.65,625.81L1360.12,618.54L1362.59,607.03L1367.52,595.27L1369.99,591.63L1374.93,574.94L1377.4,569.91L1379.86,566.59L1382.33,559.05L1387.27,548.42L1389.74,545.79L1394.67,535.15L1397.14,532.02L1404.55,523.41L1407.02,521.31L1409.49,520.24L1411.95,518.08L1419.36,516.15L1421.83,516.3L1431.7,521.11L1434.17,522.76L1441.58,534.29L1444.04,536.58L1451.45,550.86L1453.92,559.74L1461.32,579.27L1463.79,588.2L1471.2,613.95L1473.67,623.88L1495.88,706.46L1498.35,713.94L1505.76,733L1508.22,738.72L1515.63,749.61L1518.1,753.05L1520.57,754.05L1523.03,756.2L1530.44,754.95L1532.91,753.67L1540.31,747.08L1542.78,742.69L1545.25,737.55L1547.72,729.87L1552.66,715.33L1555.12,706.51L1562.53,674.56L1565,660.11L1579.81,571.49L1582.28,551.94L1587.21,506.44L1589.68,485.11L1597.09,418.09L1599.56,397.6L1602.02,384.7L1604.49,364.35L1621.77,233.46L1624.24,221.37L1631.65,187.05L1634.11,175.88L1646.46,119.96L1648.93,112.01L1651.39,106.91L1653.86,98.59L1658.8,85.86L1661.27,78.79L1666.2,65.68L1668.67,62.58L1676.08,52.5L1678.55,49.9L1683.48,43.54L1685.95,43L1693.36,40.28L1695.83,39.8L1705.7,42.28L1708.17,44.35L1710.64,46.32L1713.11,46.98L1720.51,54.13L1722.98,57.12L1727.92,63.71L1730.38,65.48L1735.32,71.35L1737.79,75.32L1747.66,88.46L1750.13,91.29L1757.54,101.8L1760.01,105.84L1767.41,113.46L1769.88,116.22L1777.28,126.64L1779.75,129.5L1784.69,133.88L1787.16,136.44L1797.03,150.23L1799.5,152.22L1806.91,161.83L1809.37,166.32L1824.19,188.53L1826.65,194.83L1831.59,206.68L1834.06,210.7L1836.53,213.56L1839,221.08L1843.93,233.38L1846.4,237.5L1851.34,256.49L1853.81,260.86L1856.28,265.78L1858.74,273.38L1866.15,303.6L1868.62,309.69L1873.55,324.98L1876.02,337.23L1915.52,490.14L1917.99,498.09L1925.39,522.32L1927.86,526.51L1930.33,534.17L1932.8,537.92L1937.73,545.87L1940.2,547.11L1942.67,551.59L1945.14,553.94L1950.08,557.46L1952.54,557.25L1955.01,557.54L1957.48,556.54L1962.42,552.84L1964.89,550.43L1969.82,544.71L1972.29,539.99L1977.23,530.8L1979.7,522.34L1989.57,488.87L1992.04,482.24L1994.51,473.99L1996.98,461.07L2004.38,427.79L2006.85,412.31L2014.26,380.99L2016.72,370.61L2021.66,350.73L2024.13,336.7L2034,293.3L2036.47,286.15L2043.88,265.19L2046.35,259.95L2051.28,248.47L2053.75,243.99L2056.22,239.57L2058.69,232.94L2063.63,222.1L2066.09,220.51L2068.56,217.61L2071.03,217.06L2075.97,213.45L2078.44,211.87L2088.31,208.8L2090.78,208.61L2093.25,208.19L2095.72,208.93L2100.65,209.05L2103.12,209.32L2125.34,213.6L2127.8,213.58L2135.21,213.77L2137.68,213.41L2145.08,211.1L2147.55,209.94L2154.96,205.75L2157.43,202.33L2159.89,200.63L2162.36,197.39L2167.3,191.07L2169.77,187.49L2174.71,180.99L2177.17,173.94L2182.11,166.95L2184.58,159.09L2189.52,150.9L2191.98,142.55L2196.92,133.63L2199.39,125.18L2204.33,116.21L2206.8,108.1L2214.2,93.92L2216.67,87.68L2221.61,81.12L2224.07,75.31L2229.01,70.52L2231.48,66.16L2238.89,60.61L2241.35,60.22L2243.82,60.58L2246.29,58.95L2251.23,62.67L2253.7,65.03L2256.16,65.37L2258.63,68.65L2261.1,70.03L2263.57,72.64L2278.38,111.45L2280.85,120.17L2288.25,152.24L2290.72,163.86L2300.6,229.49L2303.07,239.44L2310.47,296.93L2312.94,324.03L2327.75,457.8L2330.22,469.1L2342.56,552.87L2345.03,565.66L2352.43,597.66L2354.9,607.5L2357.37,613.37L2359.84,624.16L2367.24,640.76L2369.71,643.06L2374.65,652.01L2377.12,653.01L2382.06,653.29L2384.52,655.78L2386.99,655.76L2389.46,653.36L2394.4,650.01L2396.87,646.34L2401.8,635.31L2404.27,632.54L2409.21,621.79L2411.68,614.7L2419.08,592.29L2421.55,582.83L2426.49,564.23L2428.96,553.38L2438.83,512.14L2441.3,502.89L2446.24,485.15L2448.7,472.05L2458.58,428.9L2461.05,418.95L2478.33,359.4L2480.79,353.1L2488.2,332.15L2490.67,325.14L2500.54,301.74L2503.01,297.1L2515.35,273.56L2517.82,269.02L2522.76,261.22L2525.23,257.56L2532.63,248.03L2535.1,244.76L2544.97,233.84L2547.44,231.56L2554.85,223.49L2557.32,221.89L2569.66,212.83L2572.13,210.33L2574.59,207.91L2577.06,207.63L2582,204.68" style="vector-effect: non-scaling-stroke; fill: none; stroke: rgb(170, 0, 0); stroke-opacity: 1; stroke-width: 4px; opacity: 1;"/></g><g class="points"/><g class="text"/></g><g class="trace scatter trace05d9a0" style="stroke-miterlimit: 2; opacity: 1;"><g class="fills"/><g class="errorbars"/><g class="lines"><path class="js-line" d="M0,203.26L4.94,201.15L7.41,199.93L12.34,198.55L14.81,196.33L17.28,194.85L19.75,194.85L22.22,194.45L24.68,192.28L27.15,190.88L29.62,190.63L32.09,189.48L34.56,189.86L37.03,187.74L39.5,187L41.96,187.92L44.43,185.27L46.9,184.59L49.37,185.59L51.84,183.02L54.31,182.42L59.24,181.1L61.71,180.03L64.18,180.5L66.65,179.55L71.59,178.26L74.05,178.46L86.4,177.69L88.86,177.9L98.74,178.95L101.21,179.42L106.14,180.96L108.61,182L113.55,183.22L116.02,184.46L135.76,196.52L138.23,198.18L160.45,216.7L162.92,219.04L177.73,233.05L180.2,235.2L197.48,249.59L199.94,250.56L207.35,256.74L209.82,258.38L224.63,266.84L227.1,268.03L241.91,274.01L244.38,274.41L261.66,279.59L264.12,279.87L301.15,288L303.62,288.97L311.02,291.6L313.49,292.83L320.9,296.49L323.37,298.06L333.24,305.04L335.71,307.03L348.05,318.09L350.52,322.16L357.93,332.57L360.39,336.03L372.74,357L375.2,361.59L392.48,398.03L394.95,405.73L404.83,428.73L407.29,434.43L419.64,464.19L422.11,469.34L431.98,491.67L434.45,495.81L436.92,499.89L439.38,501.93L446.79,513.1L449.26,515.89L454.2,520.48L456.66,522.87L466.54,526.38L469.01,526.31L473.94,524.93L476.41,523.45L481.35,521.19L483.82,519.27L496.16,503L498.63,499.84L506.03,488.27L508.5,482.23L518.37,461.91L520.84,458.07L528.25,441.74L530.72,435.02L545.53,404.59L548,398.17L557.87,380.08L560.34,376.99L570.21,355.19L572.68,352.6L577.62,343.7L580.09,338.11L587.49,328.18L589.96,323.57L607.24,299.39L609.71,296.89L619.58,285.47L622.05,282.91L634.39,271.08L636.86,269.04L646.73,261.06L649.2,259.14L664.01,249.69L666.48,248.87L683.76,242.64L686.23,242.06L698.57,240.47L701.04,240.44L713.38,241.28L715.85,241.79L725.72,244.3L728.19,245L747.94,252.87L750.41,255.44L755.35,259.06L757.81,260.01L762.75,263.28L765.22,263.99L772.63,271.2L775.09,271.62L777.56,273.03L780.03,275.95L784.97,280.37L787.44,280.66L789.9,282.19L792.37,284.97L799.78,289.96L802.25,291.88L814.59,297.34L817.06,299.66L821.99,301.28L824.46,302.1L829.4,303.29L831.87,302.96L834.34,304.34L836.8,304.5L849.15,303.05L851.62,301.83L856.55,300.68L859.02,299.43L868.89,293.36L871.36,291.22L881.24,282.24L883.71,279.04L893.58,265.82L896.05,262.09L900.98,253.92L903.45,249.57L910.86,235.42L913.33,230.78L915.8,226.34L918.26,219.74L935.54,180.55L938.01,172.79L942.95,160.78L945.42,154.77L950.35,144.88L952.82,136.31L962.7,118.69L965.16,111.51L975.04,98.77L977.51,93.69L982.44,90.08L984.91,86.63L987.38,86.56L989.85,85.19L992.32,82.83L994.79,82.95L999.72,83.31L1002.19,81.86L1009.6,86.43L1012.07,86.32L1017,91.67L1019.47,92.36L1024.41,98.92L1026.88,100.29L1031.81,107.67L1034.28,109.53L1039.22,117.27L1041.69,118.53L1046.62,128.17L1049.09,130.25L1051.56,132.42L1054.03,137.07L1058.97,140.37L1061.43,144.43L1063.9,148.33L1066.37,149.46L1068.84,150.11L1071.31,153.34L1073.78,156.33L1076.24,156.83L1078.71,156.95L1081.18,158.96L1086.12,161.21L1088.59,161.86L1098.46,162.98L1100.93,162.94L1115.74,161.28L1118.21,160.92L1128.08,159.42L1130.55,160.61L1135.49,159.25L1137.96,160.4L1145.36,162.71L1147.83,165.14L1152.77,165.76L1155.24,168.28L1160.17,175.13L1162.64,176.09L1165.11,179.04L1167.58,183.91L1170.05,185.96L1172.51,190.01L1174.98,195.72L1177.45,198.63L1187.33,220.57L1189.79,228.12L1194.73,240.27L1197.2,245.03L1214.48,309.03L1216.95,316.99L1226.82,365.81L1229.29,375.16L1234.23,400.85L1236.69,417.21L1268.78,589.16L1271.25,600.35L1281.13,639.09L1283.59,647.15L1288.53,664.3L1291,668.9L1293.47,675.16L1295.94,678.36L1303.34,689.29L1305.81,691.43L1310.75,694.3L1313.22,695.24L1318.15,694.7L1320.62,693.17L1323.09,692.15L1325.56,689.52L1332.96,680.27L1335.43,677.18L1340.37,667.65L1342.84,660.99L1360.12,617.36L1362.59,609.47L1369.99,589.92L1372.46,583.75L1379.86,565.39L1382.33,559.61L1392.21,540.43L1394.67,536.44L1404.55,523.95L1407.02,521.99L1414.42,517.62L1416.89,516.97L1426.76,518.42L1429.23,519.79L1436.64,526.72L1439.11,530.62L1446.51,541.46L1448.98,546.57L1451.45,550.41L1453.92,558.56L1458.85,573.45L1461.32,583.56L1463.79,589.13L1466.26,598.82L1478.6,639.58L1481.07,652.54L1488.48,685.11L1490.94,690.85L1495.88,705.7L1498.35,710.79L1503.29,727.83L1505.76,734.21L1508.22,740.3L1510.69,743.53L1515.63,750.46L1518.1,751.07L1523.03,755.63L1525.5,755.38L1527.97,755.94L1530.44,755.21L1537.85,750.48L1540.31,746.77L1542.78,742.5L1545.25,735.8L1547.72,732.11L1550.19,724.41L1552.66,717.15L1555.12,703.74L1560.06,683.81L1562.53,674.56L1567.47,654.5L1569.93,636.57L1584.75,526.24L1587.21,507.06L1592.15,464.27L1594.62,444.18L1599.56,401.03L1602.02,381.08L1609.43,321.82L1611.9,303.59L1621.77,237.41L1624.24,222.19L1629.18,194.22L1631.65,184.38L1634.11,175.44L1636.58,161.97L1639.05,152.82L1641.52,139.21L1646.46,119.05L1648.93,113.42L1656.33,90.74L1658.8,84.74L1666.2,67.9L1668.67,63.61L1676.08,52.27L1678.55,49.33L1685.95,43.24L1688.42,41.6L1695.83,40.29L1698.29,40.02L1708.17,43.84L1710.64,45.7L1718.04,51.98L1720.51,54.43L1735.32,71.87L1737.79,76.38L1740.26,80.48L1742.73,82.04L1747.66,88.2L1750.13,91.43L1757.54,103.17L1760.01,104.54L1764.94,110.84L1767.41,115.2L1769.88,116.68L1772.35,119.63L1774.82,124.1L1777.28,125.36L1782.22,132.81L1784.69,133.92L1789.63,141.58L1792.1,142.64L1797.03,150.72L1799.5,151.83L1804.44,160.54L1806.91,161.8L1809.37,163.91L1811.84,170.02L1814.31,176.12L1816.78,176.86L1821.72,187.66L1824.19,189.83L1826.65,192.75L1829.12,200.33L1831.59,207.92L1834.06,209.83L1841.46,227.14L1843.93,231.09L1848.87,249.59L1851.34,253.6L1861.21,281.55L1863.68,292.41L1866.15,303.6L1868.62,309.69L1880.96,356.72L1883.43,369.69L1885.9,376.23L1888.37,387.15L1905.64,456.01L1908.11,465.45L1915.52,490.21L1917.99,500.78L1920.46,505.64L1922.92,513.45L1925.39,519.07L1927.86,527.44L1930.33,531.34L1932.8,537.61L1935.27,540.5L1937.73,546.23L1940.2,548.83L1942.67,553.38L1945.14,553.37L1947.61,556.16L1950.08,557.19L1952.54,559.97L1955.01,556.95L1957.48,556.61L1959.95,555.78L1962.42,556.85L1967.36,547.12L1969.82,544.14L1972.29,543.56L1974.76,537.58L1977.23,526.47L1979.7,520.94L1982.17,514.87L1984.63,512.31L1989.57,488.84L1992.04,480.31L1994.51,476.17L1996.98,461.62L2001.91,438L2004.38,432.27L2011.79,391.63L2014.26,384.57L2019.19,354.97L2021.66,345.87L2024.13,338.16L2026.6,324.91L2031.54,304.88L2034,297.49L2038.94,277.39L2041.41,271.21L2048.81,251.28L2051.28,245.69L2053.75,242.01L2056.22,235.73L2066.09,221.61L2068.56,219.59L2071.03,216.37L2073.5,214.97L2075.97,212.72L2078.44,212.44L2080.9,212.26L2083.37,209.13L2090.78,208.48L2093.25,208.03L2098.18,209.45L2100.65,208.14L2105.59,210.44L2108.06,210.47L2110.53,210.51L2112.99,211.63L2120.4,213.53L2122.87,212.48L2127.8,214.26L2130.27,213.85L2132.74,213.28L2135.21,213.79L2142.62,212.07L2145.08,211.13L2152.49,206.82L2154.96,204.92L2162.36,197.52L2164.83,194.52L2174.71,179.63L2177.17,175.17L2187.05,156.06L2189.52,149.04L2194.45,136.31L2196.92,132.74L2209.26,104.28L2211.73,99.41L2219.14,84.83L2221.61,81.05L2229.01,70.31L2231.48,68.04L2241.35,60.18L2243.82,60.89L2246.29,60.64L2248.76,61.4L2251.23,62.09L2253.7,63.96L2256.16,64.43L2258.63,66.53L2275.91,98.79L2278.38,110.31L2283.32,132.61L2285.79,140.37L2288.25,145.65L2290.72,162.1L2295.66,197.07L2298.13,207.83L2300.6,219.28L2303.07,235.59L2310.47,304.28L2312.94,320.24L2317.88,366.91L2320.34,387.86L2335.15,503.82L2337.62,520.43L2347.5,576.78L2349.97,588.26L2357.37,616.66L2359.84,624.21L2367.24,641.65L2369.71,645.85L2372.18,646.98L2374.65,650.49L2377.12,654.04L2379.59,654.45L2384.52,653.25L2386.99,655.23L2389.46,654.75L2391.93,651.69L2396.87,646.93L2399.33,642.65L2404.27,630.29L2406.74,628.58L2409.21,624.62L2411.68,615.95L2416.61,596.56L2419.08,592.74L2421.55,586.92L2424.02,575.2L2428.96,550.94L2431.42,545.21L2433.89,538.26L2436.36,525.11L2441.3,498.82L2443.77,491.88L2446.24,484.63L2448.7,472.05L2453.64,446.47L2456.11,439.16L2458.58,432.37L2461.05,421.53L2465.98,398.6L2468.45,390.49L2475.86,369.09L2478.33,360.93L2483.26,343.01L2485.73,336.28L2490.67,325.07L2493.14,318.95L2507.95,285.35L2510.41,282.28L2522.76,261.63L2525.23,258.06L2537.57,241.78L2540.04,239.04L2549.91,228.76L2552.38,226.29L2572.13,210.4L2574.59,209.42L2582,205.18" style="vector-effect: non-scaling-stroke; fill: none; stroke: rgb(0, 170, 0); stroke-opacity: 1; stroke-width: 4px; opacity: 1;"/></g><g class="points"/><g class="text"/></g></g></g><g class="overplot"/><path class="xlines-above crisp" d="M0,0" style="fill: none;"/><path class="ylines-above crisp" d="M0,0" style="fill: none;"/><g class="overlines-above"/><g class="xaxislayer-above"><g class="xtick"><text text-anchor="middle" x="0" y="934" transform="translate(160,0)" style="font-family: 'Open Sans', verdana, arial, sans-serif; font-size: 37px; fill: rgb(42, 63, 95); fill-opacity: 1; white-space: pre; opacity: 1;">0</text></g><g class="xtick"><text text-anchor="middle" x="0" y="934" style="font-family: 'Open Sans', verdana, arial, sans-serif; font-size: 37px; fill: rgb(42, 63, 95); fill-opacity: 1; white-space: pre; opacity: 1;" transform="translate(653.69,0)">200</text></g><g class="xtick"><text text-anchor="middle" x="0" y="934" style="font-family: 'Open Sans', verdana, arial, sans-serif; font-size: 37px; fill: rgb(42, 63, 95); fill-opacity: 1; white-space: pre; opacity: 1;" transform="translate(1147.38,0)">400</text></g><g class="xtick"><text text-anchor="middle" x="0" y="934" style="font-family: 'Open Sans', verdana, arial, sans-serif; font-size: 37px; fill: rgb(42, 63, 95); fill-opacity: 1; white-space: pre; opacity: 1;" transform="translate(1641.07,0)">600</text></g><g class="xtick"><text text-anchor="middle" x="0" y="934" style="font-family: 'Open Sans', verdana, arial, sans-serif; font-size: 37px; fill: rgb(42, 63, 95); fill-opacity: 1; white-space: pre; opacity: 1;" transform="translate(2134.76,0)">800</text></g><g class="xtick"><text text-anchor="middle" x="0" y="934" style="font-family: 'Open Sans', verdana, arial, sans-serif; font-size: 37px; fill: rgb(42, 63, 95); fill-opacity: 1; white-space: pre; opacity: 1;" transform="translate(2628.45,0)">1000</text></g></g><g class="yaxislayer-above"><g class="ytick"><text text-anchor="end" x="159" y="12.95" transform="translate(0,873.11)" style="font-family: 'Open Sans', verdana, arial, sans-serif; font-size: 37px; fill: rgb(42, 63, 95); fill-opacity: 1; white-space: pre; opacity: 1;">−200</text></g><g class="ytick"><text text-anchor="end" x="159" y="12.95" style="font-family: 'Open Sans', verdana, arial, sans-serif; font-size: 37px; fill: rgb(42, 63, 95); fill-opacity: 1; white-space: pre; opacity: 1;" transform="translate(0,772.88)">−150</text></g><g class="ytick"><text text-anchor="end" x="159" y="12.95" style="font-family: 'Open Sans', verdana, arial, sans-serif; font-size: 37px; fill: rgb(42, 63, 95); fill-opacity: 1; white-space: pre; opacity: 1;" transform="translate(0,672.65)">−100</text></g><g class="ytick"><text text-anchor="end" x="159" y="12.95" style="font-family: 'Open Sans', verdana, arial, sans-serif; font-size: 37px; fill: rgb(42, 63, 95); fill-opacity: 1; white-space: pre; opacity: 1;" transform="translate(0,572.4200000000001)">−50</text></g><g class="ytick"><text text-anchor="end" x="159" y="12.95" style="font-family: 'Open Sans', verdana, arial, sans-serif; font-size: 37px; fill: rgb(42, 63, 95); fill-opacity: 1; white-space: pre; opacity: 1;" transform="translate(0,472.18)">0</text></g><g class="ytick"><text text-anchor="end" x="159" y="12.95" style="font-family: 'Open Sans', verdana, arial, sans-serif; font-size: 37px; fill: rgb(42, 63, 95); fill-opacity: 1; white-space: pre; opacity: 1;" transform="translate(0,371.95)">50</text></g><g class="ytick"><text text-anchor="end" x="159" y="12.95" style="font-family: 'Open Sans', verdana, arial, sans-serif; font-size: 37px; fill: rgb(42, 63, 95); fill-opacity: 1; white-space: pre; opacity: 1;" transform="translate(0,271.72)">100</text></g><g class="ytick"><text text-anchor="end" x="159" y="12.95" style="font-family: 'Open Sans', verdana, arial, sans-serif; font-size: 37px; fill: rgb(42, 63, 95); fill-opacity: 1; white-space: pre; opacity: 1;" transform="translate(0,171.49)">150</text></g></g><g class="overaxes-above"/></g></g><g class="polarlayer"/><g class="ternarylayer"/><g class="geolayer"/><g class="funnelarealayer"/><g class="pielayer"/><g class="iciclelayer"/><g class="treemaplayer"/><g class="sunburstlayer"/><g class="glimages"/><defs id="topdefs-77f893"><g class="clips"/><clipPath id="legend77f893"><rect width="694" height="113" x="0" y="0"/></clipPath></defs><g class="layer-above"><g class="imagelayer"/><g class="shapelayer"/></g><g class="infolayer"><g class="legend" pointer-events="all" transform="translate(2793.64,100)"><rect class="bg" shape-rendering="crispEdges" width="694" height="113" x="0" y="0" style="stroke: rgb(68, 68, 68); stroke-opacity: 1; fill: rgb(255, 255, 255); fill-opacity: 1; stroke-width: 0px;"/><g class="scrollbox" transform="" clip-path="url(#legend77f893)"><g class="groups"><g class="traces" transform="translate(0,30.55)" style="opacity: 1;"><text class="legendtext" text-anchor="start" x="40" y="14.43" style="font-family: 'Open Sans', verdana, arial, sans-serif; font-size: 37px; fill: rgb(42, 63, 95); fill-opacity: 1; white-space: pre;">Predicted Curvature at Anchors #1</text><g class="layers" style="opacity: 1;"><g class="legendfill"/><g class="legendlines"><path class="js-line" d="M5,0h30" style="fill: none; stroke: rgb(170, 0, 0); stroke-opacity: 1; stroke-width: 4px;"/></g><g class="legendsymbols"><g class="legendpoints"/></g></g><rect class="legendtoggle" x="0" y="-25.55" width="688.125" height="51.1" style="fill: rgb(0, 0, 0); fill-opacity: 0;"/></g><g class="traces" transform="translate(0,81.65)" style="opacity: 1;"><text class="legendtext" text-anchor="start" x="40" y="14.43" style="font-family: 'Open Sans', verdana, arial, sans-serif; font-size: 37px; fill: rgb(42, 63, 95); fill-opacity: 1; white-space: pre;">Predicted Curvature at Anchors #2</text><g class="layers" style="opacity: 1;"><g class="legendfill"/><g class="legendlines"><path class="js-line" d="M5,0h30" style="fill: none; stroke: rgb(0, 170, 0); stroke-opacity: 1; stroke-width: 4px;"/></g><g class="legendsymbols"><g class="legendpoints"/></g></g><rect class="legendtoggle" x="0" y="-25.55" width="688.125" height="51.1" style="fill: rgb(0, 0, 0); fill-opacity: 0;"/></g></g></g><rect class="scrollbar" rx="20" ry="3" width="0" height="0" x="0" y="0" style="fill: rgb(128, 139, 164); fill-opacity: 1;"/></g><g class="g-gtitle"/><g class="g-xtitle"><text class="xtitle" x="1451" y="987.8" text-anchor="middle" style="font-family: 'Open Sans', verdana, arial, sans-serif; font-size: 44px; fill: rgb(42, 63, 95); opacity: 1; font-weight: normal; white-space: pre;">Anchor Point Index</text></g><g class="g-ytitle" transform="translate(31.6591796875,0)"><text class="ytitle" transform="rotate(-90,12.340624999999989,498)" x="12.340624999999989" y="498" text-anchor="middle" style="font-family: 'Open Sans', verdana, arial, sans-serif; font-size: 44px; fill: rgb(42, 63, 95); opacity: 1; font-weight: normal; white-space: pre;">Predicted Curvature</text></g><g class="annotation" data-index="0" style="opacity: 1;"><g class="annotation-text-g" transform="rotate(0,1451,75.49999999999994)"><g class="cursor-pointer" transform="translate(585,51)"><rect class="bg" x="0.5" y="0.5" width="1732" height="48" style="stroke-width: 1px; stroke: rgb(0, 0, 0); stroke-opacity: 0; fill: rgb(0, 0, 0); fill-opacity: 0;"/><text class="annotation-text" text-anchor="middle" x="866.546875" y="39" style="font-family: 'Open Sans', verdana, arial, sans-serif; font-size: 37px; fill: rgb(42, 63, 95); fill-opacity: 1; white-space: pre;"><tspan style="font-weight:bold">Predicted Curvature at Anchors (Transformed Curve #1 vs. Transformed Curve #2)</tspan></text></g></g></g></g></svg>