<svg class="main-svg" xmlns="http://www.w3.org/2000/svg" xmlns:xlink="http://www.w3.org/1999/xlink" width="3500" height="1000" style="" viewBox="0 0 3500 1000"><rect x="0" y="0" width="3500" height="1000" style="fill: rgb(255, 255, 255); fill-opacity: 1;"/><defs id="defs-2f1a03"><g class="clips"><clipPath id="clip2f1a03xyplot" class="plotclip"><rect width="2582" height="796"/></clipPath><clipPath class="axesclip" id="clip2f1a03x"><rect x="160" y="0" width="2582" height="1000"/></clipPath><clipPath class="axesclip" id="clip2f1a03y"><rect x="0" y="100" width="3500" height="796"/></clipPath><clipPath class="axesclip" id="clip2f1a03xy"><rect x="160" y="100" width="2582" height="796"/></clipPath></g><g class="gradients"/><g class="patterns"/></defs><g class="bglayer"><rect class="bg" x="160" y="100" width="2582" height="796" style="fill: rgb(229, 236, 246); fill-opacity: 1; stroke-width: 0;"/></g><g class="layer-below"><g class="imagelayer"/><g class="shapelayer"/></g><g class="cartesianlayer"><g class="subplot xy"><g class="layer-subplot"><g class="shapelayer"/><g class="imagelayer"/></g><g class="gridlayer"><g class="x"><path class="xgrid crisp" transform="translate(612.98,0)" d="M0,100v796" style="stroke: rgb(255, 255, 255); stroke-opacity: 1; stroke-width: 1px;"/><path class="xgrid crisp" transform="translate(1065.96,0)" d="M0,100v796" style="stroke: rgb(255, 255, 255); stroke-opacity: 1; stroke-width: 1px;"/><path class="xgrid crisp" transform="translate(1518.95,0)" d="M0,100v796" style="stroke: rgb(255, 255, 255); stroke-opacity: 1; stroke-width: 1px;"/><path class="xgrid crisp" transform="translate(1971.93,0)" d="M0,100v796" style="stroke: rgb(255, 255, 255); stroke-opacity: 1; stroke-width: 1px;"/><path class="xgrid crisp" transform="translate(2424.91,0)" d="M0,100v796" style="stroke: rgb(255, 255, 255); stroke-opacity: 1; stroke-width: 1px;"/></g><g class="y"><path class="ygrid crisp" transform="translate(0,827.53)" d="M160,0h2582" style="stroke: rgb(255, 255, 255); stroke-opacity: 1; stroke-width: 1px;"/><path class="ygrid crisp" transform="translate(0,668.47)" d="M160,0h2582" style="stroke: rgb(255, 255, 255); stroke-opacity: 1; stroke-width: 1px;"/><path class="ygrid crisp" transform="translate(0,350.36)" d="M160,0h2582" style="stroke: rgb(255, 255, 255); stroke-opacity: 1; stroke-width: 1px;"/><path class="ygrid crisp" transform="translate(0,191.3)" d="M160,0h2582" style="stroke: rgb(255, 255, 255); stroke-opacity: 1; stroke-width: 1px;"/></g></g><g class="zerolinelayer"><path class="xzl zl crisp" transform="translate(160,0)" d="M0,100v796" style="stroke: rgb(255, 255, 255); stroke-opacity: 1; stroke-width: 2px;"/><path class="yzl zl crisp" transform="translate(0,509.41)" d="M160,0h2582" style="stroke: rgb(255, 255, 255); stroke-opacity: 1; stroke-width: 2px;"/></g><path class="xlines-below"/><path class="ylines-below"/><g class="overlines-below"/><g class="xaxislayer-below"/><g class="yaxislayer-below"/><g class="overaxes-below"/><g class="plot" transform="translate(160,100)" clip-path="url(#clip2f1a03xyplot)"><g class="scatterlayer mlayer"><g class="trace scatter trace2f85a1" style="stroke-miterlimit: 2; opacity: 1;"><g class="fills"/><g class="errorbars"/><g class="lines"><path class="js-line" d="M0,214.77L4.53,219.07L6.79,222.16L11.32,227.2L13.59,230.53L18.12,236.94L20.38,239.94L24.91,245.49L27.18,248.11L31.71,253.01L33.97,255.1L38.5,259L40.77,260.41L45.3,263.07L47.56,263.69L52.09,264.91L54.36,264.69L58.89,264.37L61.15,263.28L65.68,261.39L67.95,259.44L72.48,256.05L74.74,253.31L79.27,248.58L81.54,245.2L92.86,230.31L95.13,225.54L104.19,210.36L106.45,207.14L115.51,196.43L117.78,194.76L122.31,188.96L124.57,188.08L129.1,185.69L131.36,184.44L133.63,183.76L135.89,184.46L142.69,186.08L144.95,187.18L156.28,200.36L158.54,203.71L160.81,206.7L163.07,215.28L167.6,227.44L169.87,231.56L174.4,257.39L176.66,264.11L178.93,270.11L181.19,281.66L185.72,314.98L187.99,329.89L199.31,414.82L201.58,433.13L217.43,565.44L219.7,571.44L224.23,602.93L226.49,614.3L235.55,648.22L237.82,654.58L242.35,666.17L244.61,669.53L249.14,680.33L251.41,681.92L253.67,683.74L255.94,687.14L264.99,689.63L267.26,688.27L269.52,688.52L271.79,687.69L276.32,680.5L278.58,681.26L280.85,679.15L283.11,675.16L285.38,666.59L287.64,662.85L289.91,662.65L292.17,659.58L298.97,639.6L301.23,632.73L310.29,601.37L312.56,592.71L326.15,535.76L328.41,525.54L342,458.55L344.27,446.04L353.33,389.87L355.59,373.94L364.65,301.06L366.92,280.52L385.04,110.84L387.3,95.36L391.83,73.49L394.09,67.12L398.62,60.46L400.89,58.11L407.68,50.44L409.95,49.57L412.21,50.36L414.48,52.84L423.54,70.23L425.8,74.81L430.33,89.39L432.6,101L437.13,133.21L439.39,152.86L457.51,318.29L459.78,334.92L466.57,377.51L468.84,389.48L475.63,419.86L477.9,428.44L486.96,457L489.22,463.02L500.55,488.66L502.81,493.11L514.14,513L516.4,516.57L527.72,532.51L529.99,535.3L539.05,544.98L541.31,547L550.37,553.26L552.64,553.97L554.9,555.57L557.17,555.89L561.7,556.78L563.96,555.94L566.23,556.89L568.49,556.56L575.29,552.26L577.55,552.14L588.88,542.84L591.14,539.02L607,515.34L609.26,510.89L616.06,498.5L618.32,493.72L627.38,474.73L629.65,471.3L656.82,415.57L659.09,412.76L670.41,393.07L672.68,389.99L679.47,382.24L681.74,379.25L686.27,373.9L688.53,372.02L704.39,362.81L706.65,362.15L715.71,361.11L717.98,361.12L733.83,367.39L736.1,368.78L756.48,385.12L758.75,388.46L763.28,393.67L765.54,396.18L767.81,397.79L770.07,400.82L785.92,419.34L788.19,423L799.51,435.03L801.78,438.96L806.31,445.43L808.57,448.42L810.84,450.21L813.1,453.4L817.63,460.11L819.9,463.69L826.69,475.72L828.96,479.51L831.22,481.71L833.49,486.22L838.02,495.23L840.28,500.38L853.87,534.05L856.14,541.11L862.93,561.74L865.2,569.88L874.26,601.79L876.52,609.5L887.85,649.84L890.11,657.35L903.7,696.37L905.96,698.49L910.49,709.17L912.76,712.48L915.02,716.53L917.29,716.86L921.82,721.89L924.08,721.97L926.35,721.41L928.61,725.83L935.41,719.9L937.67,722.86L939.94,719.55L942.2,713.76L949,703.32L951.26,698.87L958.06,682.47L960.32,675.93L969.38,644.48L971.65,635.46L998.83,523.6L1001.09,515.89L1010.15,488.83L1012.42,482.97L1021.48,462.64L1023.74,458.24L1035.06,439.46L1037.33,436.22L1050.92,419.18L1053.18,416.61L1084.89,380.79L1087.16,377.88L1089.42,375.15L1091.69,370.57L1096.22,364.27L1098.48,360.66L1109.81,337.12L1112.07,331.42L1116.6,319.07L1118.87,312.19L1121.13,306.07L1123.4,297.01L1130.19,270.39L1132.46,261.07L1134.72,252.63L1136.99,239.39L1148.31,186.04L1150.58,172.51L1168.69,103.75L1170.96,96.29L1173.22,95.72L1175.49,88.17L1177.75,87.74L1180.02,83.49L1182.28,78.37L1184.55,78.51L1189.08,75.03L1191.34,78L1193.61,78.99L1195.87,82.27L1198.14,83.78L1200.4,83.43L1204.93,97.76L1207.2,103.22L1209.46,106.64L1211.73,115.67L1213.99,123.85L1216.26,128.29L1220.79,143.62L1223.05,154.71L1232.11,190.67L1234.38,200.68L1238.91,221.95L1241.17,228L1243.44,233.45L1245.7,243.07L1250.23,258.45L1252.5,265.34L1257.03,278.64L1259.29,282.5L1261.56,285.43L1263.82,290.99L1266.09,296.34L1268.35,298.95L1275.15,308.74L1277.41,310.24L1279.68,311.72L1281.94,314.45L1286.47,318.18L1288.74,318.75L1302.32,323.99L1304.59,324.23L1309.12,324.7L1311.38,324.76L1331.77,323.51L1334.03,323.26L1336.3,322.52L1338.56,322.84L1345.36,321.8L1347.62,322.48L1358.95,323.51L1361.21,323.94L1372.54,328.09L1374.8,329.52L1388.39,338.44L1390.66,341.41L1397.45,349.12L1399.72,350.86L1406.51,359.52L1408.78,363.41L1420.1,377.45L1422.36,380.36L1426.89,385.86L1429.16,389.07L1440.48,401.06L1442.75,403.03L1449.54,407.55L1451.81,408.78L1458.6,411.04L1460.87,411.38L1472.19,408.39L1474.46,406.84L1485.78,397.5L1488.05,393.82L1497.11,380.59L1499.37,375.75L1503.9,367.03L1506.17,361.44L1512.96,349.63L1515.23,345.87L1524.29,322.95L1526.55,319.35L1542.41,289.54L1544.67,286.78L1555.99,271.42L1558.26,269.86L1567.32,264.81L1569.58,263.92L1574.11,263.22L1576.38,264L1583.17,266.25L1585.44,266.21L1592.23,274.55L1594.5,276.55L1605.82,290.45L1608.09,295.2L1612.62,302.83L1614.88,307L1623.94,323.69L1626.21,327.23L1633,339.38L1635.27,341.75L1639.8,352.06L1642.06,354.61L1644.33,356.74L1646.59,361.92L1651.12,368.1L1653.39,369.89L1657.92,377.55L1660.18,379.4L1662.45,380.79L1664.71,383.5L1666.98,387.26L1669.24,388.86L1673.77,390.99L1676.04,393.8L1685.09,398.11L1687.36,398.65L1689.62,398.7L1691.89,400.16L1703.21,399.49L1705.48,399.01L1710.01,397.76L1712.27,396.54L1721.33,391.05L1723.6,389.21L1725.86,387.88L1728.13,385.16L1741.72,369.73L1743.98,366.65L1757.57,345.8L1759.84,341.99L1800.61,271.44L1802.87,269.14L1807.4,262.33L1809.66,260.78L1814.19,253.38L1816.46,252.15L1818.72,247.51L1820.99,245.33L1832.31,233.59L1834.58,230.75L1841.37,226.25L1843.64,223.88L1848.17,219.73L1850.43,216.33L1854.96,213.27L1857.23,211.74L1864.02,203.81L1866.29,199.68L1873.08,193.24L1875.35,189.15L1879.88,182.69L1882.14,178.47L1900.26,142.23L1902.53,136.15L1909.32,121.46L1911.59,116.57L1918.38,101.96L1920.65,99.81L1922.91,94.2L1925.18,92.78L1927.44,88.3L1929.71,87.06L1931.97,84.25L1934.24,83.1L1938.76,81.17L1941.03,81.45L1943.29,83.43L1945.56,81.72L1950.09,88.21L1952.35,88.8L1954.62,93.66L1956.88,94.75L1963.68,110L1965.94,116.01L1972.74,138.05L1975,147.91L1979.53,166.71L1981.8,176.44L1993.12,239.78L1995.39,254.55L2011.24,354.67L2013.51,362.19L2027.1,426.68L2029.36,435.33L2040.69,472.48L2042.95,476.14L2054.28,505.46L2056.54,510.13L2061.07,522.07L2063.34,526.63L2076.92,553.97L2079.19,559.57L2085.98,573.99L2088.25,579.83L2090.51,584.49L2092.78,592.04L2099.57,608.14L2101.84,611.63L2135.81,707.15L2138.08,712.24L2144.87,727.79L2147.14,731.36L2153.93,741.6L2156.2,744.67L2162.99,750.78L2165.26,751.13L2167.52,752.34L2169.79,752.26L2172.05,752.25L2174.32,751.22L2178.85,748.35L2181.11,746.36L2187.91,737.16L2190.17,732.59L2192.44,728.67L2194.7,722.71L2196.96,717.99L2199.23,710.79L2203.76,696.8L2206.02,689.6L2219.61,634.49L2221.88,624.19L2242.26,541.72L2244.53,533.29L2260.38,488.58L2262.65,483.13L2271.71,466.8L2273.97,463.69L2283.03,448.32L2285.3,445.18L2298.89,428.16L2301.15,425.72L2307.95,419.94L2310.21,417.65L2317.01,410.89L2319.27,409.09L2332.86,399.69L2335.12,398.33L2346.45,393.32L2348.71,392.39L2364.57,389.59L2366.83,389.6L2378.16,390.46L2380.42,390.8L2396.28,394.08L2398.54,393.92L2405.34,394.82L2407.6,394.64L2412.13,394.82L2414.4,394.36L2418.93,393.74L2421.19,392.83L2427.99,389.73L2430.25,388.3L2437.05,383.78L2439.31,382.02L2443.84,377.05L2446.11,374.59L2457.43,359.06L2459.69,355.55L2475.55,326.65L2477.81,322.21L2484.61,305.24L2486.87,301.46L2493.67,285.03L2495.93,278.95L2507.26,256.68L2509.52,251.85L2516.32,234.76L2518.58,231.63L2532.17,210.77L2534.44,208.94L2538.97,203.35L2541.23,201.92L2543.5,199.23L2545.76,198.28L2554.82,196.25L2557.09,196.07L2561.62,196.93L2563.88,197.6L2568.41,199.86L2570.68,201.33L2575.21,205.04L2577.47,207.87L2582,211.97" style="vector-effect: non-scaling-stroke; fill: none; stroke: rgb(170, 0, 0); stroke-opacity: 1; stroke-width: 4px; opacity: 1;"/></g><g class="points"/><g class="text"/></g><g class="trace scatter tracee5172a" style="stroke-miterlimit: 2; opacity: 1;"><g class="fills"/><g class="errorbars"/><g class="lines"><path class="js-line" d="M0,214.11L13.59,230.29L15.85,234.08L31.71,252.34L33.97,254.47L38.5,259.04L40.77,260.51L47.56,264.01L49.83,264.45L56.62,264.61L58.89,263.97L61.15,264.27L63.42,263.08L74.74,254.4L77.01,251.67L81.54,246.4L83.8,242.66L86.07,240.25L88.33,235.6L90.6,233.26L92.86,228.68L99.66,217.8L101.92,215.41L104.19,211.92L106.45,205.91L110.98,202.15L113.25,196.6L117.78,194.04L120.04,189.17L124.57,188.18L126.84,184.09L131.36,184.69L133.63,184.45L138.16,182.83L140.42,185.21L147.22,188.94L149.48,189.13L156.28,202.7L158.54,206.46L163.07,216.25L165.34,221.86L169.87,231.72L172.13,242.96L176.66,266.32L178.93,276.75L181.19,285.25L183.46,298.72L192.52,356.06L194.78,373.71L206.11,475.71L208.37,491.77L210.64,505.66L212.9,526.62L217.43,564.64L219.7,578.55L235.55,648.83L237.82,653.58L242.35,666.17L244.61,669.53L249.14,677.28L251.41,681.39L258.2,687.09L260.46,687.93L264.99,688.58L267.26,688.36L274.05,684.32L276.32,682.31L283.11,673.05L285.38,669.28L292.17,655.33L294.44,649.75L303.5,629.14L305.76,618.79L312.56,592.97L314.82,586.56L326.15,545.76L328.41,533.93L330.68,525.41L332.94,511.2L335.21,496.92L337.47,492.73L344.27,452.46L346.53,433.7L348.8,425.56L351.06,410.77L353.33,395.72L355.59,372.1L357.86,357.13L360.12,331.17L362.39,305.45L364.65,301.06L366.92,277.97L369.18,236.41L371.45,204.93L373.71,214.82L375.98,166.8L378.24,151.07L380.51,148.83L382.77,122.41L389.56,82.84L391.83,76.35L394.09,71.76L396.36,60.1L398.62,60.46L400.89,58.48L403.15,47.18L405.42,41.66L407.68,50.44L409.95,41.04L412.21,39.8L414.48,52.84L416.74,50.36L419.01,53.14L423.54,70.23L425.8,73.68L430.33,89.39L432.6,108.08L439.39,150.79L441.66,158.45L443.92,178.52L446.19,211.6L450.72,253.7L452.98,269.72L462.04,343.55L464.31,359.68L468.84,393.54L471.1,406.8L477.9,432.52L480.16,437.1L493.75,477.09L496.02,481.42L502.81,493.07L505.08,496.71L511.87,510.56L514.14,513.97L516.4,515.66L518.66,520.34L525.46,530.24L527.72,531.52L532.25,538.03L534.52,540.4L536.78,543.3L539.05,544.12L543.58,548.97L545.84,550.65L548.11,552.81L550.37,553.45L554.9,555.39L557.17,555.63L561.7,556.78L563.96,556.44L568.49,555.63L570.76,555.41L575.29,553.1L577.55,551.78L584.35,547.16L586.61,544.32L602.47,522.92L604.73,518.51L609.26,510.96L611.53,507.09L625.12,480.37L627.38,474.73L629.65,471.3L631.91,465.75L645.5,439.36L647.76,433.69L652.29,423.86L654.56,419.73L656.82,416.84L659.09,411.97L672.68,391.24L674.94,388.18L681.74,378.47L684,376.13L693.06,368.87L695.33,367.57L699.86,364.59L702.12,363.46L711.18,360.81L713.45,361.25L724.77,362.58L727.04,363.17L733.83,367.75L736.1,367.75L745.16,375.2L747.42,377.32L761.01,390.67L763.28,393.11L772.34,402.83L774.6,405.86L792.72,427.04L794.98,430.9L804.04,441.22L806.31,445.39L819.9,464.04L822.16,467.19L838.02,496.03L840.28,500.38L849.34,523.99L851.61,529.83L860.67,552.81L862.93,562.52L867.46,579.64L869.73,587.08L871.99,591.3L874.26,600.45L878.79,618.38L881.05,629.5L901.44,690.83L903.7,695.84L912.76,712.46L915.02,715.82L921.82,721.4L924.08,722.57L926.35,724.42L928.61,723.62L933.14,723.33L935.41,721.73L937.67,721.38L939.94,718.47L949,706.81L951.26,702.2L969.38,647.92L971.65,637.88L978.44,606.52L980.71,595.85L987.5,566.29L989.77,559.59L1005.62,502.33L1007.89,495.39L1014.68,477.18L1016.95,471.96L1023.74,460.16L1026.01,454.72L1030.54,446.36L1032.8,442.83L1035.06,440.42L1037.33,436.43L1050.92,420L1053.18,417.96L1057.71,412.1L1059.98,409.45L1066.77,401.88L1069.04,399.84L1084.89,381.15L1087.16,377.89L1096.22,364.36L1098.48,360.7L1112.07,333.28L1114.34,325.84L1118.87,311.46L1121.13,302.6L1127.93,281.92L1130.19,274.21L1139.25,228.4L1141.52,220.93L1152.84,162.32L1155.11,152.85L1157.37,146.77L1159.64,136.88L1170.96,98.87L1173.22,92.93L1175.49,90.11L1177.75,84.62L1180.02,83.54L1182.28,79.35L1184.55,79.26L1186.81,75.66L1189.08,74.35L1191.34,78L1193.61,78.99L1195.87,82.27L1198.14,83.68L1200.4,88.68L1202.67,88.94L1204.93,92.45L1211.73,116.47L1213.99,120.02L1238.91,218.49L1241.17,224.59L1245.7,247.74L1247.97,251.35L1250.23,256.14L1252.5,265.52L1254.76,274.19L1257.03,276.89L1261.56,285.43L1263.82,292.61L1266.09,297.18L1268.35,298.95L1270.62,300.85L1272.88,304.22L1277.41,311.51L1279.68,312.53L1281.94,313.34L1284.21,315.49L1291,320.79L1293.26,321.12L1295.53,321.08L1297.79,322.25L1304.59,324.27L1306.85,324.65L1313.65,324.31L1315.91,324.47L1324.97,323.84L1327.24,322.97L1336.3,323.03L1338.56,322.47L1340.83,321.67L1343.09,322L1358.95,322.76L1361.21,323.58L1368.01,325.69L1370.27,325.78L1377.07,330.96L1379.33,332.58L1383.86,334.07L1386.13,336.16L1392.92,344.37L1395.19,345.83L1397.45,347.21L1399.72,349.92L1406.51,360.32L1408.78,362.24L1413.31,367.14L1415.57,372.36L1420.1,377.25L1422.36,379.39L1426.89,385.98L1429.16,389.81L1433.69,393.96L1435.95,395.96L1438.22,398.05L1440.48,401.66L1445.01,404.44L1447.28,405.97L1454.07,410.08L1456.34,410.07L1460.87,410.86L1463.13,411L1469.93,409.67L1472.19,408.42L1483.52,399.49L1485.78,395.75L1494.84,384.3L1497.11,378.9L1506.17,363.84L1508.43,357.28L1517.49,340.02L1519.76,333.1L1537.88,297.17L1540.14,293.55L1542.41,288.54L1544.67,285.99L1549.2,278.85L1551.46,276.77L1560.52,267.42L1562.79,265.96L1565.05,266L1567.32,263.5L1569.58,262.56L1571.85,262.74L1576.38,264.98L1578.64,263.7L1580.91,263.9L1583.17,265.49L1587.7,271.21L1589.97,271.13L1592.23,272.33L1594.5,276.6L1596.76,280.8L1599.03,281.61L1601.29,283.45L1603.56,287.03L1608.09,297.2L1610.35,298.97L1612.62,301.3L1614.88,307.15L1617.15,312.56L1619.41,314.89L1621.68,317.38L1623.94,323.39L1626.21,328.69L1628.47,331.32L1630.74,333.77L1633,339.63L1637.53,347.18L1639.8,349.44L1644.33,359.18L1646.59,361.61L1648.86,363.57L1651.12,368.43L1655.65,374.04L1657.92,375.64L1662.45,382.53L1664.71,384.15L1671.51,390.14L1673.77,392.09L1682.83,397.2L1685.09,397.9L1687.36,398.07L1689.62,399.72L1700.95,400.34L1703.21,399.74L1714.54,395.62L1716.8,394.36L1725.86,387.28L1728.13,384.79L1732.66,381.42L1734.92,378.41L1748.51,359.99L1750.78,356.13L1766.63,330.84L1768.9,326.2L1793.81,282.84L1796.08,280.6L1800.61,272.19L1802.87,269.27L1809.66,259.25L1811.93,257.81L1816.46,250.42L1818.72,248.45L1827.78,238.66L1830.05,236.68L1834.58,231.08L1836.84,230L1839.11,228.3L1841.37,224.62L1848.17,220.26L1850.43,216.25L1857.23,211.72L1859.49,207.09L1864.02,204.59L1866.29,199.14L1870.82,196.1L1873.08,189.83L1879.88,182.4L1882.14,174.89L1884.41,173.66L1886.67,170.21L1888.94,161.8L1891.2,160.64L1893.47,156.27L1895.73,147.57L1898,146.27L1900.26,140.99L1902.53,133.11L1904.79,130.87L1911.59,115.2L1913.85,114.3L1916.12,107.25L1918.38,104.36L1920.65,100.83L1922.91,93.36L1925.18,95.15L1927.44,92.28L1931.97,84.25L1934.24,85.65L1936.5,85.2L1938.76,80.85L1941.03,84.32L1943.29,84.8L1945.56,82.24L1947.82,87.61L1950.09,89.41L1952.35,87.26L1954.62,91.3L1956.88,98.78L1961.41,104.18L1963.68,110.28L1968.21,126.24L1970.47,128.07L1975,142.96L1977.27,152.2L1981.8,182.44L1984.06,185.35L1986.33,193.37L1988.59,206.55L1993.12,240.41L1995.39,255.11L2011.24,352.74L2013.51,364.9L2022.57,407.84L2024.83,417.21L2033.89,449.99L2036.16,457.18L2047.48,488.69L2049.75,494.31L2065.6,530.22L2067.86,535.09L2092.78,590.69L2095.04,596.23L2110.9,637.9L2113.16,644.9L2124.49,676.34L2126.75,682.76L2133.55,699.86L2135.81,704.24L2142.61,722.37L2144.87,724.39L2147.14,732.04L2149.4,735.17L2151.67,736.76L2153.93,742.89L2158.46,746.6L2160.73,752.5L2162.99,753.3L2165.26,751.59L2167.52,751.96L2169.79,753.71L2172.05,756.2L2174.32,751.5L2176.58,749.35L2178.85,749.36L2181.11,750.86L2183.38,743.67L2187.91,735.88L2190.17,737.03L2194.7,719.98L2196.96,714.84L2199.23,711.4L2201.49,704.21L2203.76,695.02L2206.02,691.85L2212.82,659.1L2215.08,653.7L2217.35,646.84L2219.61,636.26L2224.14,610.29L2226.41,604.79L2228.67,597.76L2230.94,586.5L2235.47,563.1L2237.73,556.66L2253.59,506.15L2255.85,500.61L2262.65,484.18L2264.91,479.6L2273.97,461.85L2276.24,458.08L2283.03,449.38L2285.3,445.9L2292.09,436.41L2294.36,433.68L2307.95,419.27L2310.21,417.18L2326.06,403.77L2328.33,402.1L2332.86,399.82L2335.12,398.44L2348.71,392.18L2350.98,390.79L2357.77,390.15L2360.04,389.47L2375.89,389.95L2378.16,390.33L2382.69,391.02L2384.95,391.52L2389.48,392.36L2391.75,393.14L2400.81,394.41L2403.07,394.86L2418.93,393.66L2421.19,392.72L2434.78,385.59L2437.05,383.98L2441.58,379.42L2443.84,376.7L2459.69,355.94L2461.96,351.54L2473.28,331.09L2475.55,325.13L2484.61,305.48L2486.87,301.73L2495.93,280.66L2498.2,275.1L2502.73,264.49L2504.99,259.43L2518.58,232.51L2520.85,228.77L2527.64,217.24L2529.91,214.29L2534.44,208.52L2536.7,205.8L2548.03,198.28L2550.29,197.51L2554.82,196.49L2557.09,196.4L2563.88,197.82L2566.15,198.84L2572.94,203.43L2575.21,205.22L2582,212.32" style="vector-effect: non-scaling-stroke; fill: none; stroke: rgb(0, 170, 0); stroke-opacity: 1; stroke-width: 4px; opacity: 1;"/></g><g class="points"/><g class="text"/></g></g></g><g class="overplot"/><path class="xlines-above crisp" d="M0,0" style="fill: none;"/><path class="ylines-above crisp" d="M0,0" style="fill: none;"/><g class="overlines-above"/><g class="xaxislayer-above"><g class="xtick"><text text-anchor="middle" x="0" y="934" transform="translate(160,0)" style="font-family: 'Open Sans', verdana, arial, sans-serif; font-size: 37px; fill: rgb(42, 63, 95); fill-opacity: 1; white-space: pre; opacity: 1;">0</text></g><g class="xtick"><text text-anchor="middle" x="0" y="934" style="font-family: 'Open Sans', verdana, arial, sans-serif; font-size: 37px; fill: rgb(42, 63, 95); fill-opacity: 1; white-space: pre; opacity: 1;" transform="translate(612.98,0)">200</text></g><g class="xtick"><text text-anchor="middle" x="0" y="934" style="font-family: 'Open Sans', verdana, arial, sans-serif; font-size: 37px; fill: rgb(42, 63, 95); fill-opacity: 1; white-space: pre; opacity: 1;" transform="translate(1065.96,0)">400</text></g><g class="xtick"><text text-anchor="middle" x="0" y="934" style="font-family: 'Open Sans', verdana, arial, sans-serif; font-size: 37px; fill: rgb(42, 63, 95); fill-opacity: 1; white-space: pre; opacity: 1;" transform="translate(1518.95,0)">600</text></g><g class="xtick"><text text-anchor="middle" x="0" y="934" style="font-family: 'Open Sans', verdana, arial, sans-serif; font-size: 37px; fill: rgb(42, 63, 95); fill-opacity: 1; white-space: pre; opacity: 1;" transform="translate(1971.93,0)">800</text></g><g class="xtick"><text text-anchor="middle" x="0" y="934" style="font-family: 'Open Sans', verdana, arial, sans-serif; font-size: 37px; fill: rgb(42, 63, 95); fill-opacity: 1; white-space: pre; opacity: 1;" transform="translate(2424.91,0)">1000</text></g></g><g class="yaxislayer-above"><g class="ytick"><text text-anchor="end" x="159" y="12.95" transform="translate(0,827.53)" style="font-family: 'Open Sans', verdana, arial, sans-serif; font-size: 37px; fill: rgb(42, 63, 95); fill-opacity: 1; white-space: pre; opacity: 1;">−200</text></g><g class="ytick"><text text-anchor="end" x="159" y="12.95" style="font-family: 'Open Sans', verdana, arial, sans-serif; font-size: 37px; fill: rgb(42, 63, 95); fill-opacity: 1; white-space: pre; opacity: 1;" transform="translate(0,668.47)">−100</text></g><g class="ytick"><text text-anchor="end" x="159" y="12.95" style="font-family: 'Open Sans', verdana, arial, sans-serif; font-size: 37px; fill: rgb(42, 63, 95); fill-opacity: 1; white-space: pre; opacity: 1;" transform="translate(0,509.41)">0</text></g><g class="ytick"><text text-anchor="end" x="159" y="12.95" style="font-family: 'Open Sans', verdana, arial, sans-serif; font-size: 37px; fill: rgb(42, 63, 95); fill-opacity: 1; white-space: pre; opacity: 1;" transform="translate(0,350.36)">100</text></g><g class="ytick"><text text-anchor="end" x="159" y="12.95" style="font-family: 'Open Sans', verdana, arial, sans-serif; font-size: 37px; fill: rgb(42, 63, 95); fill-opacity: 1; white-space: pre; opacity: 1;" transform="translate(0,191.3)">200</text></g></g><g class="overaxes-above"/></g></g><g class="polarlayer"/><g class="ternarylayer"/><g class="geolayer"/><g class="funnelarealayer"/><g class="pielayer"/><g class="iciclelayer"/><g class="treemaplayer"/><g class="sunburstlayer"/><g class="glimages"/><defs id="topdefs-2f1a03"><g class="clips"/><clipPath id="legend2f1a03"><rect width="694" height="113" x="0" y="0"/></clipPath></defs><g class="layer-above"><g class="imagelayer"/><g class="shapelayer"/></g><g class="infolayer"><g class="legend" pointer-events="all" transform="translate(2793.64,100)"><rect class="bg" shape-rendering="crispEdges" style="stroke: rgb(68, 68, 68); stroke-opacity: 1; fill: rgb(255, 255, 255); fill-opacity: 1; stroke-width: 0px;" width="694" height="113" x="0" y="0"/><g class="scrollbox" transform="" clip-path="url(#legend2f1a03)"><g class="groups"><g class="traces" transform="translate(0,30.55)" style="opacity: 1;"><text class="legendtext" text-anchor="start" x="40" y="14.43" style="font-family: 'Open Sans', verdana, arial, sans-serif; font-size: 37px; fill: rgb(42, 63, 95); fill-opacity: 1; white-space: pre;">Predicted Curvature at Anchors #1</text><g class="layers" style="opacity: 1;"><g class="legendfill"/><g class="legendlines"><path class="js-line" d="M5,0h30" style="fill: none; stroke: rgb(170, 0, 0); stroke-opacity: 1; stroke-width: 4px;"/></g><g class="legendsymbols"><g class="legendpoints"/></g></g><rect class="legendtoggle" x="0" y="-25.55" width="688.125" height="51.1" style="fill: rgb(0, 0, 0); fill-opacity: 0;"/></g><g class="traces" transform="translate(0,81.65)" style="opacity: 1;"><text class="legendtext" text-anchor="start" x="40" y="14.43" style="font-family: 'Open Sans', verdana, arial, sans-serif; font-size: 37px; fill: rgb(42, 63, 95); fill-opacity: 1; white-space: pre;">Predicted Curvature at Anchors #2</text><g class="layers" style="opacity: 1;"><g class="legendfill"/><g class="legendlines"><path class="js-line" d="M5,0h30" style="fill: none; stroke: rgb(0, 170, 0); stroke-opacity: 1; stroke-width: 4px;"/></g><g class="legendsymbols"><g class="legendpoints"/></g></g><rect class="legendtoggle" x="0" y="-25.55" width="688.125" height="51.1" style="fill: rgb(0, 0, 0); fill-opacity: 0;"/></g></g></g><rect class="scrollbar" rx="20" ry="3" width="0" height="0" style="fill: rgb(128, 139, 164); fill-opacity: 1;" x="0" y="0"/></g><g class="g-gtitle"/><g class="g-xtitle"><text class="xtitle" x="1451" y="987.8" text-anchor="middle" style="font-family: 'Open Sans', verdana, arial, sans-serif; font-size: 44px; fill: rgb(42, 63, 95); opacity: 1; font-weight: normal; white-space: pre;">Anchor Point Index</text></g><g class="g-ytitle" transform="translate(31.6591796875,0)"><text class="ytitle" transform="rotate(-90,12.340624999999989,498)" x="12.340624999999989" y="498" text-anchor="middle" style="font-family: 'Open Sans', verdana, arial, sans-serif; font-size: 44px; fill: rgb(42, 63, 95); opacity: 1; font-weight: normal; white-space: pre;">Predicted Curvature</text></g><g class="annotation" data-index="0" style="opacity: 1;"><g class="annotation-text-g" transform="rotate(0,1451,75.49999999999994)"><g class="cursor-pointer" transform="translate(585,51)"><rect class="bg" x="0.5" y="0.5" width="1732" height="48" style="stroke-width: 1px; stroke: rgb(0, 0, 0); stroke-opacity: 0; fill: rgb(0, 0, 0); fill-opacity: 0;"/><text class="annotation-text" text-anchor="middle" x="866.546875" y="39" style="font-family: 'Open Sans', verdana, arial, sans-serif; font-size: 37px; fill: rgb(42, 63, 95); fill-opacity: 1; white-space: pre;"><tspan style="font-weight:bold">Predicted Curvature at Anchors (Transformed Curve #1 vs. Transformed Curve #2)</tspan></text></g></g></g></g></svg>