<svg class="main-svg" xmlns="http://www.w3.org/2000/svg" xmlns:xlink="http://www.w3.org/1999/xlink" width="3500" height="1000" style="" viewBox="0 0 3500 1000"><rect x="0" y="0" width="3500" height="1000" style="fill: rgb(255, 255, 255); fill-opacity: 1;"/><defs id="defs-a32b49"><g class="clips"><clipPath id="clipa32b49xyplot" class="plotclip"><rect width="2582" height="796"/></clipPath><clipPath class="axesclip" id="clipa32b49x"><rect x="160" y="0" width="2582" height="1000"/></clipPath><clipPath class="axesclip" id="clipa32b49y"><rect x="0" y="100" width="3500" height="796"/></clipPath><clipPath class="axesclip" id="clipa32b49xy"><rect x="160" y="100" width="2582" height="796"/></clipPath></g><g class="gradients"/><g class="patterns"/></defs><g class="bglayer"><rect class="bg" x="160" y="100" width="2582" height="796" style="fill: rgb(229, 236, 246); fill-opacity: 1; stroke-width: 0;"/></g><g class="layer-below"><g class="imagelayer"/><g class="shapelayer"/></g><g class="cartesianlayer"><g class="subplot xy"><g class="layer-subplot"><g class="shapelayer"/><g class="imagelayer"/></g><g class="gridlayer"><g class="x"><path class="xgrid crisp" transform="translate(653.69,0)" d="M0,100v796" style="stroke: rgb(255, 255, 255); stroke-opacity: 1; stroke-width: 1px;"/><path class="xgrid crisp" transform="translate(1147.38,0)" d="M0,100v796" style="stroke: rgb(255, 255, 255); stroke-opacity: 1; stroke-width: 1px;"/><path class="xgrid crisp" transform="translate(1641.07,0)" d="M0,100v796" style="stroke: rgb(255, 255, 255); stroke-opacity: 1; stroke-width: 1px;"/><path class="xgrid crisp" transform="translate(2134.76,0)" d="M0,100v796" style="stroke: rgb(255, 255, 255); stroke-opacity: 1; stroke-width: 1px;"/><path class="xgrid crisp" transform="translate(2628.45,0)" d="M0,100v796" style="stroke: rgb(255, 255, 255); stroke-opacity: 1; stroke-width: 1px;"/></g><g class="y"><path class="ygrid crisp" transform="translate(0,872.48)" d="M160,0h2582" style="stroke: rgb(255, 255, 255); stroke-opacity: 1; stroke-width: 1px;"/><path class="ygrid crisp" transform="translate(0,772.31)" d="M160,0h2582" style="stroke: rgb(255, 255, 255); stroke-opacity: 1; stroke-width: 1px;"/><path class="ygrid crisp" transform="translate(0,672.14)" d="M160,0h2582" style="stroke: rgb(255, 255, 255); stroke-opacity: 1; stroke-width: 1px;"/><path class="ygrid crisp" transform="translate(0,571.97)" d="M160,0h2582" style="stroke: rgb(255, 255, 255); stroke-opacity: 1; stroke-width: 1px;"/><path class="ygrid crisp" transform="translate(0,371.63)" d="M160,0h2582" style="stroke: rgb(255, 255, 255); stroke-opacity: 1; stroke-width: 1px;"/><path class="ygrid crisp" transform="translate(0,271.46000000000004)" d="M160,0h2582" style="stroke: rgb(255, 255, 255); stroke-opacity: 1; stroke-width: 1px;"/><path class="ygrid crisp" transform="translate(0,171.29000000000002)" d="M160,0h2582" style="stroke: rgb(255, 255, 255); stroke-opacity: 1; stroke-width: 1px;"/></g></g><g class="zerolinelayer"><path class="xzl zl crisp" transform="translate(160,0)" d="M0,100v796" style="stroke: rgb(255, 255, 255); stroke-opacity: 1; stroke-width: 2px;"/><path class="yzl zl crisp" transform="translate(0,471.8)" d="M160,0h2582" style="stroke: rgb(255, 255, 255); stroke-opacity: 1; stroke-width: 2px;"/></g><path class="xlines-below"/><path class="ylines-below"/><g class="overlines-below"/><g class="xaxislayer-below"/><g class="yaxislayer-below"/><g class="overaxes-below"/><g class="plot" transform="translate(160,100)" clip-path="url(#clipa32b49xyplot)"><g class="scatterlayer mlayer"><g class="trace scatter traceee44e8" style="stroke-miterlimit: 2; opacity: 1;"><g class="fills"/><g class="errorbars"/><g class="lines"><path class="js-line" d="M0,203.13L27.15,191.16L29.62,190.66L39.5,186.96L41.96,186.37L51.84,182.99L54.31,183.91L59.24,180.24L61.71,180.35L71.59,178.27L74.05,177.93L86.4,177.17L88.86,177.23L101.21,178.85L103.67,179.45L116.02,183.86L118.49,185.04L125.89,189.11L128.36,191.23L140.7,199.8L143.17,201.99L153.04,210.41L155.51,212.39L172.79,228.48L175.26,230.51L187.6,241.88L190.07,243.42L214.76,261.51L217.22,262.65L229.57,268.92L232.03,270L239.44,273.15L241.91,273.72L259.19,278.39L261.66,278.92L303.62,288.51L306.09,289.3L320.9,296.14L323.37,297.63L330.77,302.05L333.24,304.53L343.11,314.38L345.58,316.86L350.52,322.17L352.99,325.44L365.33,342.25L367.8,347.39L382.61,376.43L385.08,382.38L390.02,393.86L392.48,398.65L397.42,408.29L399.89,415.57L407.29,435.27L409.76,439.09L417.17,457.8L419.64,465.4L436.92,499.43L439.38,501.46L446.79,512.94L449.26,516.79L454.2,520.88L456.66,521.3L461.6,524.36L464.07,525.32L469.01,525.79L471.47,525.27L481.35,520.83L483.82,517.68L491.22,509.48L493.69,506.12L501.1,496.47L503.56,491.1L510.97,476.51L513.44,472.79L520.84,457.18L523.31,450.57L538.12,420.03L540.59,413.72L543.06,410.04L545.53,404.49L548,400.53L550.46,393.95L557.87,377.42L560.34,373.84L565.28,365.5L567.74,361.99L572.68,351.8L575.15,347.49L582.55,335.02L585.02,331.41L594.9,316.18L597.37,313.35L602.3,306.53L604.77,303.3L614.64,290.79L617.11,288.47L622.05,283.03L624.52,280.4L636.86,268.64L639.33,266.43L651.67,257.04L654.14,255.42L678.82,243.34L681.29,243.04L693.63,240.56L696.1,240.34L708.45,240.38L710.91,240.85L713.38,239.97L715.85,241.37L720.79,242.53L723.26,242.67L725.72,242.75L728.19,244.62L733.13,246.75L735.6,247.07L738.07,247.48L740.54,249.77L743,251.79L745.47,251.97L770.16,268.51L772.63,270.45L787.44,281.68L789.9,283.79L814.59,298.09L817.06,299.04L829.4,303.16L831.87,303.69L846.68,303.2L849.15,302.56L856.55,300.01L859.02,298.17L863.96,296.7L866.43,294.77L878.77,284.72L881.24,281.46L888.64,271.89L891.11,267.24L896.05,262.03L898.52,257.76L910.86,236.43L913.33,230.31L940.48,167.96L942.95,161.12L955.29,131.91L957.76,127.25L965.16,113.87L967.63,109.48L975.04,97.81L977.51,95.25L984.91,87.63L987.38,85.68L989.85,85.11L992.32,83.25L999.72,82.31L1002.19,82.8L1004.66,82.84L1007.13,84.93L1012.07,86.72L1014.53,88.27L1019.47,92.21L1021.94,95.39L1029.34,103.31L1031.81,107.33L1058.97,141.97L1061.43,144.49L1066.37,149L1068.84,150.85L1076.24,156.44L1078.71,157.49L1083.65,159.69L1086.12,160.86L1100.93,162.63L1103.4,162.16L1110.8,161.69L1113.27,161.02L1120.68,160.3L1123.15,159.79L1128.08,159.65L1130.55,159.68L1140.42,160.3L1142.89,161.69L1147.83,163.82L1150.3,164.97L1160.17,173.14L1162.64,176.12L1170.05,185.87L1172.51,190.02L1179.92,203.62L1182.39,208.97L1192.26,233.25L1194.73,240.25L1204.6,271.82L1207.07,280.52L1219.41,331.15L1221.88,342.25L1236.69,417.14L1239.16,430.96L1271.25,602.48L1273.72,609.87L1281.13,638.59L1283.59,646.74L1298.41,683.54L1300.87,685.57L1305.81,690.85L1308.28,692.57L1310.75,694.27L1313.22,694.02L1315.68,694.34L1318.15,693.1L1320.62,693.48L1323.09,690.94L1328.03,687.58L1330.5,683.27L1345.31,654.78L1347.77,649.16L1362.59,610.05L1365.05,601.43L1367.52,592.98L1369.99,588.72L1384.8,553.22L1387.27,547.88L1394.67,535.93L1397.14,532.92L1407.02,521.68L1409.49,519.27L1419.36,516.29L1421.83,515.86L1434.17,522.28L1436.64,526.19L1441.58,533.31L1444.04,538.65L1446.51,541.9L1448.98,547.08L1453.92,555.82L1456.39,564.67L1461.32,580.6L1463.79,591.31L1466.26,597.14L1468.73,607.23L1476.13,633.76L1478.6,644.12L1481.07,651.44L1483.54,662.76L1493.41,699.2L1495.88,704.92L1500.82,721.47L1503.29,726.13L1508.22,738.41L1510.69,742.01L1515.63,750.58L1518.1,752.38L1520.57,755.69L1523.03,755.85L1525.5,754.76L1527.97,756.09L1535.38,752.69L1537.85,748.35L1542.78,741.32L1545.25,734.65L1552.66,714.14L1555.12,704.87L1560.06,689.13L1562.53,677.22L1567.47,654.62L1569.93,637.75L1579.81,559.21L1582.28,543.69L1589.68,486.34L1592.15,469.61L1604.49,358.3L1606.96,343.35L1611.9,297.29L1614.37,282.64L1621.77,238.81L1624.24,226.33L1629.18,199.66L1631.65,188.27L1636.58,157.7L1639.05,147.89L1651.39,105.08L1653.86,97.84L1663.74,72.85L1666.2,68.57L1671.14,59.1L1673.61,55.72L1678.55,48.43L1681.02,46.75L1690.89,41.52L1693.36,40.22L1698.29,40.31L1700.76,40.48L1708.17,43.84L1710.64,45.48L1715.57,49.52L1718.04,51.39L1725.45,59.41L1727.92,62.43L1747.66,88.7L1750.13,92.16L1764.94,110.86L1767.41,112.95L1779.75,128.29L1782.22,132.84L1792.1,143.01L1794.56,145.79L1809.37,165.62L1811.84,169.39L1834.06,208.87L1836.53,213.91L1856.28,268.17L1858.74,276.12L1868.62,308.11L1871.09,320.23L1873.55,330.4L1876.02,336.11L1878.49,343.65L1880.96,354.98L1885.9,375.84L1888.37,384.49L1893.3,409.6L1895.77,415.82L1903.18,445.13L1905.64,454.45L1913.05,483.7L1915.52,491.95L1917.99,497.58L1920.46,507.03L1927.86,527.64L1930.33,531.06L1935.27,541.86L1937.73,545.14L1945.14,553.81L1947.61,555.32L1952.54,556.34L1955.01,555.96L1959.95,554.2L1962.42,551.45L1964.89,550.07L1967.36,546.74L1972.29,538.74L1974.76,532.56L1979.7,521.88L1982.17,514.66L1992.04,481.61L1994.51,471.43L2006.85,414.02L2009.32,400.76L2016.72,370.32L2019.19,358.72L2026.6,324.87L2029.07,318.33L2036.47,284.49L2038.94,279.72L2051.28,245.34L2053.75,241.53L2056.22,238.97L2058.69,234.42L2063.63,224.76L2066.09,222.5L2075.97,212.92L2078.44,212.17L2088.31,208.59L2090.78,208.77L2098.18,208.33L2100.65,208.94L2110.53,210.13L2112.99,210.53L2120.4,212.85L2122.87,212.86L2135.21,213.03L2137.68,212.33L2142.62,211.48L2145.08,210.34L2147.55,209.81L2150.02,208.2L2157.43,201.52L2159.89,198.74L2167.3,191.45L2169.77,188.08L2179.64,170.3L2182.11,164L2187.05,153.72L2189.52,148.79L2191.98,144.8L2194.45,138.62L2199.39,127.65L2201.86,121.02L2216.67,86.94L2219.14,83.97L2226.54,73.45L2229.01,70.99L2238.89,60.78L2241.35,60.97L2248.76,60.84L2251.23,61.57L2261.1,71.06L2263.57,74.4L2273.44,97.01L2275.91,104.11L2278.38,110.1L2280.85,119.73L2288.25,151.27L2290.72,165.97L2293.19,175.79L2295.66,194.24L2305.53,267.21L2308,280.92L2310.47,297.11L2312.94,320.31L2317.88,359.29L2320.34,389.55L2322.81,420.28L2325.28,436.6L2332.69,490.1L2335.15,502.78L2340.09,536.21L2342.56,546.62L2347.5,576.56L2349.97,582.42L2354.9,607.58L2357.37,614.8L2359.84,623.62L2362.31,627.04L2367.24,640.28L2369.71,643.34L2372.18,647.27L2374.65,649.15L2379.59,654.17L2382.06,653.96L2389.46,652.91L2391.93,652.21L2399.33,641.33L2401.8,636.2L2406.74,627.27L2409.21,621.07L2411.68,615.6L2414.15,607.59L2421.55,581.79L2424.02,571.32L2428.96,552.51L2431.42,540.83L2438.83,512.14L2441.3,502.15L2456.11,439.84L2458.58,428.72L2468.45,391.23L2470.92,383.03L2490.67,324.97L2493.14,318.42L2498.07,304.8L2500.54,301.18L2512.88,277.31L2515.35,274.85L2522.76,261.72L2525.23,258.04L2537.57,241.2L2540.04,239.01L2544.97,233.09L2547.44,230.73L2559.78,219.2L2562.25,217.49L2582,204.95" style="vector-effect: non-scaling-stroke; fill: none; stroke: rgb(170, 0, 0); stroke-opacity: 1; stroke-width: 4px; opacity: 1;"/></g><g class="points"/><g class="text"/></g><g class="trace scatter tracecc64d0" style="stroke-miterlimit: 2; opacity: 1;"><g class="fills"/><g class="errorbars"/><g class="lines"><path class="js-line" d="M0,203.58L34.56,188.71L37.03,188.07L49.37,183.61L51.84,183.34L69.12,178L71.59,178.49L83.93,177.91L86.4,177.27L98.74,179.11L101.21,179.34L108.61,181.32L111.08,182.29L120.95,186.9L123.42,187.78L128.36,191.1L130.83,192.6L135.76,195.94L138.23,198.65L140.7,201.13L143.17,201.33L165.39,222.02L167.85,224.35L170.32,224.92L172.79,226.97L182.67,236.78L185.13,238.53L195.01,247.13L197.48,248.62L207.35,256.21L209.82,257.39L219.69,263.94L222.16,264.51L232.03,269.55L234.5,270.46L241.91,273.64L244.38,274.2L261.66,278.87L264.12,279L271.53,281.13L274,281.24L278.93,282.5L281.4,282.73L306.09,289.33L308.56,290.31L318.43,294.77L320.9,296.16L333.24,304.63L335.71,306.71L350.52,321.18L352.99,325.08L367.8,347.87L370.27,352.07L385.08,381.68L387.55,387.34L427.04,480.2L429.51,484.4L436.92,498.14L439.38,502.58L444.32,509.45L446.79,512.89L451.73,517.94L454.2,520.39L459.13,523.76L461.6,524.51L466.54,525.66L469.01,525.52L476.41,523.62L478.88,521.49L488.75,512.4L491.22,509.96L501.1,496.42L503.56,490.78L510.97,476.44L513.44,471.56L518.37,462.82L520.84,456.5L525.78,446.38L528.25,440.94L538.12,419.3L540.59,414.96L550.46,393.95L552.93,389.27L557.87,380.32L560.34,375.6L565.28,365.5L567.74,361.99L577.62,343.33L580.09,339.09L604.77,302.02L607.24,300.2L609.71,297.46L612.18,293.19L617.11,286.69L619.58,285.25L624.52,280.38L626.99,277.89L636.86,268.19L639.33,266.36L656.61,253.8L659.08,252.44L676.36,244.11L678.82,243.72L681.29,242.5L683.76,242.42L688.7,241.05L691.17,240.7L705.98,240.1L708.45,240.15L723.26,242.86L725.72,243.82L728.19,244.11L730.66,245.51L738.07,249.14L740.54,250.14L747.94,253.76L750.41,254.98L762.75,263.14L765.22,265.56L767.69,266.55L770.16,268.69L775.09,272.03L777.56,274.54L780.03,275.62L782.5,277.81L799.78,289.8L802.25,291.89L821.99,301.22L824.46,302.01L834.34,304L836.8,304.14L844.21,303.93L846.68,303.49L854.08,301.58L856.55,300.53L866.43,295.4L868.89,293.14L883.71,279.48L886.17,275.69L893.58,265.96L896.05,262.74L903.45,249.24L905.92,243.86L910.86,235.76L913.33,231.79L928.14,197.46L930.61,192.89L942.95,159.12L945.42,155.24L955.29,132.43L957.76,128.05L970.1,102.8L972.57,100.86L979.98,91.65L982.44,89.45L987.38,85.75L989.85,84.25L997.25,81.65L999.72,82.9L1004.66,83.22L1007.13,83.92L1012.07,86.38L1014.53,88.73L1021.94,95.25L1024.41,98.02L1034.28,110.51L1036.75,112.73L1061.43,144.19L1063.9,146.42L1071.31,153.09L1073.78,154.55L1081.18,159.01L1083.65,160.18L1088.59,161.33L1091.06,163.15L1095.99,162.06L1098.46,163.78L1103.4,161.97L1105.87,163.41L1110.8,161.16L1113.27,162.45L1118.21,160.09L1120.68,161.41L1125.61,159.27L1128.08,159.69L1133.02,159.52L1135.49,159.81L1145.36,161.89L1147.83,163.82L1152.77,166.87L1155.24,168.52L1165.11,178.9L1167.58,182.46L1172.51,190.02L1174.98,194.74L1187.33,220.63L1189.79,226.39L1202.14,260.49L1204.6,271.5L1209.54,291.64L1212.01,301.24L1214.48,308.2L1216.95,320.7L1221.88,342.28L1224.35,356.12L1231.76,383.99L1234.23,396.7L1241.63,443.77L1244.1,457.47L1256.44,525.93L1258.91,547.15L1263.85,573.79L1266.32,581.09L1268.78,593.66L1271.25,600.9L1276.19,620.64L1278.66,631.01L1283.59,647.11L1286.06,655.44L1291,667.61L1293.47,673.94L1298.41,682.14L1300.87,686.57L1305.81,690.97L1308.28,693.57L1315.68,695.23L1318.15,694.11L1325.56,689.13L1328.03,686.42L1335.43,676.25L1337.9,670.56L1342.84,661.05L1345.31,654.84L1350.24,643.14L1352.71,637.51L1360.12,616.75L1362.59,609.43L1367.52,594.87L1369.99,588.56L1392.21,539.03L1394.67,535.59L1399.61,529.01L1402.08,526.82L1409.49,519.91L1411.95,518.89L1416.89,517.16L1419.36,516.61L1426.76,518.57L1429.23,519.69L1436.64,526.72L1439.11,529.73L1446.51,542.28L1448.98,548L1456.39,567.92L1458.85,574.3L1466.26,596.52L1468.73,605.95L1493.41,699.64L1495.88,706.1L1503.29,728.4L1505.76,732.52L1513.16,746.8L1515.63,748.13L1518.1,751.69L1520.57,752.58L1523.03,755.64L1525.5,755.48L1527.97,756.2L1530.44,755.12L1532.91,752.62L1535.38,752.25L1542.78,742.74L1545.25,736.07L1557.59,700.98L1560.06,690.52L1565,662.83L1567.47,644.9L1579.81,570.98L1582.28,551.44L1589.68,478.93L1592.15,459.87L1599.56,405.3L1602.02,386.47L1614.37,282.06L1616.84,266.49L1619.3,256.14L1621.77,237.81L1631.65,182.82L1634.11,170.09L1643.99,132.03L1646.46,125.43L1651.39,104.43L1653.86,96.03L1656.33,85.77L1658.8,80.76L1673.61,56.06L1676.08,53.48L1681.02,46.5L1683.48,45.21L1688.42,41.57L1690.89,41.22L1695.83,39.95L1698.29,40.48L1703.23,41.37L1705.7,42.66L1708.17,43.6L1710.64,45.67L1715.57,48.86L1718.04,51.51L1732.85,68.65L1735.32,71.73L1755.07,98.5L1757.54,101.16L1762.47,108.61L1764.94,110.62L1772.35,119.87L1774.82,122.7L1779.75,129.26L1782.22,131.1L1789.63,139.41L1792.1,143.25L1801.97,155.75L1804.44,159.54L1809.37,165.53L1811.84,168.94L1816.78,176.61L1819.25,181.72L1831.59,205.27L1834.06,210.37L1848.87,246.68L1851.34,255.1L1863.68,290.74L1866.15,297.66L1910.58,475.03L1913.05,479.94L1922.92,512.03L1925.39,519.12L1935.27,540.59L1937.73,544.06L1942.67,550.51L1945.14,553.48L1950.08,556.46L1952.54,556.46L1955.01,557.05L1957.48,555.83L1959.95,555.18L1962.42,552.73L1964.89,550.81L1967.36,547.11L1969.82,543.89L1972.29,538.94L1977.23,531.5L1979.7,522.68L1996.98,461.54L1999.45,450.46L2011.79,393.1L2014.26,380.83L2034,292.97L2036.47,285.31L2043.88,265.37L2046.35,259.12L2056.22,234.64L2058.69,231.35L2073.5,213.93L2075.97,212.9L2088.31,208.69L2090.78,208.83L2098.18,208.38L2100.65,208.53L2110.53,210.82L2112.99,210.78L2122.87,213.08L2125.34,213.34L2130.27,213.48L2132.74,213.39L2145.08,210.45L2147.55,209.33L2154.96,204.77L2157.43,202.12L2162.36,196.27L2164.83,192.77L2167.3,190.12L2169.77,185.94L2174.71,179.12L2177.17,174.12L2184.58,159.54L2187.05,154.39L2196.92,132.47L2199.39,126.31L2209.26,103.72L2211.73,99.27L2224.07,76.39L2226.54,73.06L2229.01,68.54L2231.48,66.84L2236.42,63.2L2238.89,62.32L2243.82,60.48L2246.29,60.72L2251.23,62.11L2253.7,63.33L2258.63,67.59L2261.1,71.64L2273.44,94.23L2275.91,102.29L2280.85,120.08L2283.32,132.52L2285.79,138.34L2288.25,151.72L2293.19,177.96L2295.66,196.58L2298.13,204.89L2300.6,221.11L2305.53,256.54L2308,281.19L2312.94,317.8L2315.41,341.99L2320.34,387.46L2322.81,407.42L2327.75,459.25L2330.22,467.44L2337.62,528.23L2340.09,535.58L2347.5,580.13L2349.97,587.74L2357.37,616.05L2359.84,624.24L2364.78,634.28L2367.24,638.97L2374.65,650.64L2377.12,653.41L2384.52,654.2L2386.99,654.2L2389.46,653.41L2391.93,650.74L2401.8,638.41L2404.27,632.7L2416.61,599.9L2419.08,590.04L2421.55,583.76L2424.02,574.06L2433.89,535.09L2436.36,523.55L2463.51,410.6L2465.98,401.47L2468.45,390.73L2470.92,384.83L2478.33,359L2480.79,349.35L2490.67,326.88L2493.14,319.06L2503.01,295.89L2505.48,290.66L2525.23,257.79L2527.69,254L2540.04,238.65L2542.5,235.66L2554.85,223.77L2557.32,221.63L2579.53,206.15L2582,204.74" style="vector-effect: non-scaling-stroke; fill: none; stroke: rgb(0, 170, 0); stroke-opacity: 1; stroke-width: 4px; opacity: 1;"/></g><g class="points"/><g class="text"/></g></g></g><g class="overplot"/><path class="xlines-above crisp" d="M0,0" style="fill: none;"/><path class="ylines-above crisp" d="M0,0" style="fill: none;"/><g class="overlines-above"/><g class="xaxislayer-above"><g class="xtick"><text text-anchor="middle" x="0" y="934" transform="translate(160,0)" style="font-family: 'Open Sans', verdana, arial, sans-serif; font-size: 37px; fill: rgb(42, 63, 95); fill-opacity: 1; white-space: pre; opacity: 1;">0</text></g><g class="xtick"><text text-anchor="middle" x="0" y="934" style="font-family: 'Open Sans', verdana, arial, sans-serif; font-size: 37px; fill: rgb(42, 63, 95); fill-opacity: 1; white-space: pre; opacity: 1;" transform="translate(653.69,0)">200</text></g><g class="xtick"><text text-anchor="middle" x="0" y="934" style="font-family: 'Open Sans', verdana, arial, sans-serif; font-size: 37px; fill: rgb(42, 63, 95); fill-opacity: 1; white-space: pre; opacity: 1;" transform="translate(1147.38,0)">400</text></g><g class="xtick"><text text-anchor="middle" x="0" y="934" style="font-family: 'Open Sans', verdana, arial, sans-serif; font-size: 37px; fill: rgb(42, 63, 95); fill-opacity: 1; white-space: pre; opacity: 1;" transform="translate(1641.07,0)">600</text></g><g class="xtick"><text text-anchor="middle" x="0" y="934" style="font-family: 'Open Sans', verdana, arial, sans-serif; font-size: 37px; fill: rgb(42, 63, 95); fill-opacity: 1; white-space: pre; opacity: 1;" transform="translate(2134.76,0)">800</text></g><g class="xtick"><text text-anchor="middle" x="0" y="934" style="font-family: 'Open Sans', verdana, arial, sans-serif; font-size: 37px; fill: rgb(42, 63, 95); fill-opacity: 1; white-space: pre; opacity: 1;" transform="translate(2628.45,0)">1000</text></g></g><g class="yaxislayer-above"><g class="ytick"><text text-anchor="end" x="159" y="12.95" transform="translate(0,872.48)" style="font-family: 'Open Sans', verdana, arial, sans-serif; font-size: 37px; fill: rgb(42, 63, 95); fill-opacity: 1; white-space: pre; opacity: 1;">−200</text></g><g class="ytick"><text text-anchor="end" x="159" y="12.95" style="font-family: 'Open Sans', verdana, arial, sans-serif; font-size: 37px; fill: rgb(42, 63, 95); fill-opacity: 1; white-space: pre; opacity: 1;" transform="translate(0,772.31)">−150</text></g><g class="ytick"><text text-anchor="end" x="159" y="12.95" style="font-family: 'Open Sans', verdana, arial, sans-serif; font-size: 37px; fill: rgb(42, 63, 95); fill-opacity: 1; white-space: pre; opacity: 1;" transform="translate(0,672.14)">−100</text></g><g class="ytick"><text text-anchor="end" x="159" y="12.95" style="font-family: 'Open Sans', verdana, arial, sans-serif; font-size: 37px; fill: rgb(42, 63, 95); fill-opacity: 1; white-space: pre; opacity: 1;" transform="translate(0,571.97)">−50</text></g><g class="ytick"><text text-anchor="end" x="159" y="12.95" style="font-family: 'Open Sans', verdana, arial, sans-serif; font-size: 37px; fill: rgb(42, 63, 95); fill-opacity: 1; white-space: pre; opacity: 1;" transform="translate(0,471.8)">0</text></g><g class="ytick"><text text-anchor="end" x="159" y="12.95" style="font-family: 'Open Sans', verdana, arial, sans-serif; font-size: 37px; fill: rgb(42, 63, 95); fill-opacity: 1; white-space: pre; opacity: 1;" transform="translate(0,371.63)">50</text></g><g class="ytick"><text text-anchor="end" x="159" y="12.95" style="font-family: 'Open Sans', verdana, arial, sans-serif; font-size: 37px; fill: rgb(42, 63, 95); fill-opacity: 1; white-space: pre; opacity: 1;" transform="translate(0,271.46000000000004)">100</text></g><g class="ytick"><text text-anchor="end" x="159" y="12.95" style="font-family: 'Open Sans', verdana, arial, sans-serif; font-size: 37px; fill: rgb(42, 63, 95); fill-opacity: 1; white-space: pre; opacity: 1;" transform="translate(0,171.29000000000002)">150</text></g></g><g class="overaxes-above"/></g></g><g class="polarlayer"/><g class="ternarylayer"/><g class="geolayer"/><g class="funnelarealayer"/><g class="pielayer"/><g class="iciclelayer"/><g class="treemaplayer"/><g class="sunburstlayer"/><g class="glimages"/><defs id="topdefs-a32b49"><g class="clips"/><clipPath id="legenda32b49"><rect width="694" height="113" x="0" y="0"/></clipPath></defs><g class="layer-above"><g class="imagelayer"/><g class="shapelayer"/></g><g class="infolayer"><g class="legend" pointer-events="all" transform="translate(2793.64,100)"><rect class="bg" shape-rendering="crispEdges" width="694" height="113" x="0" y="0" style="stroke: rgb(68, 68, 68); stroke-opacity: 1; fill: rgb(255, 255, 255); fill-opacity: 1; stroke-width: 0px;"/><g class="scrollbox" transform="" clip-path="url(#legenda32b49)"><g class="groups"><g class="traces" transform="translate(0,30.55)" style="opacity: 1;"><text class="legendtext" text-anchor="start" x="40" y="14.43" style="font-family: 'Open Sans', verdana, arial, sans-serif; font-size: 37px; fill: rgb(42, 63, 95); fill-opacity: 1; white-space: pre;">Predicted Curvature at Anchors #1</text><g class="layers" style="opacity: 1;"><g class="legendfill"/><g class="legendlines"><path class="js-line" d="M5,0h30" style="fill: none; stroke: rgb(170, 0, 0); stroke-opacity: 1; stroke-width: 4px;"/></g><g class="legendsymbols"><g class="legendpoints"/></g></g><rect class="legendtoggle" x="0" y="-25.55" width="688.125" height="51.1" style="fill: rgb(0, 0, 0); fill-opacity: 0;"/></g><g class="traces" transform="translate(0,81.65)" style="opacity: 1;"><text class="legendtext" text-anchor="start" x="40" y="14.43" style="font-family: 'Open Sans', verdana, arial, sans-serif; font-size: 37px; fill: rgb(42, 63, 95); fill-opacity: 1; white-space: pre;">Predicted Curvature at Anchors #2</text><g class="layers" style="opacity: 1;"><g class="legendfill"/><g class="legendlines"><path class="js-line" d="M5,0h30" style="fill: none; stroke: rgb(0, 170, 0); stroke-opacity: 1; stroke-width: 4px;"/></g><g class="legendsymbols"><g class="legendpoints"/></g></g><rect class="legendtoggle" x="0" y="-25.55" width="688.125" height="51.1" style="fill: rgb(0, 0, 0); fill-opacity: 0;"/></g></g></g><rect class="scrollbar" rx="20" ry="3" width="0" height="0" x="0" y="0" style="fill: rgb(128, 139, 164); fill-opacity: 1;"/></g><g class="g-gtitle"/><g class="g-xtitle"><text class="xtitle" x="1451" y="987.8" text-anchor="middle" style="font-family: 'Open Sans', verdana, arial, sans-serif; font-size: 44px; fill: rgb(42, 63, 95); opacity: 1; font-weight: normal; white-space: pre;">Anchor Point Index</text></g><g class="g-ytitle" transform="translate(31.6591796875,0)"><text class="ytitle" transform="rotate(-90,12.340624999999989,498)" x="12.340624999999989" y="498" text-anchor="middle" style="font-family: 'Open Sans', verdana, arial, sans-serif; font-size: 44px; fill: rgb(42, 63, 95); opacity: 1; font-weight: normal; white-space: pre;">Predicted Curvature</text></g><g class="annotation" data-index="0" style="opacity: 1;"><g class="annotation-text-g" transform="rotate(0,1451,75.49999999999994)"><g class="cursor-pointer" transform="translate(585,51)"><rect class="bg" x="0.5" y="0.5" width="1732" height="48" style="stroke-width: 1px; stroke: rgb(0, 0, 0); stroke-opacity: 0; fill: rgb(0, 0, 0); fill-opacity: 0;"/><text class="annotation-text" text-anchor="middle" x="866.546875" y="39" style="font-family: 'Open Sans', verdana, arial, sans-serif; font-size: 37px; fill: rgb(42, 63, 95); fill-opacity: 1; white-space: pre;"><tspan style="font-weight:bold">Predicted Curvature at Anchors (Transformed Curve #1 vs. Transformed Curve #2)</tspan></text></g></g></g></g></svg>