<svg class="main-svg" xmlns="http://www.w3.org/2000/svg" xmlns:xlink="http://www.w3.org/1999/xlink" width="3500" height="1000" style="" viewBox="0 0 3500 1000"><rect x="0" y="0" width="3500" height="1000" style="fill: rgb(255, 255, 255); fill-opacity: 1;"/><defs id="defs-362804"><g class="clips"><clipPath id="clip362804xyplot" class="plotclip"><rect width="2582" height="796"/></clipPath><clipPath class="axesclip" id="clip362804x"><rect x="160" y="0" width="2582" height="1000"/></clipPath><clipPath class="axesclip" id="clip362804y"><rect x="0" y="100" width="3500" height="796"/></clipPath><clipPath class="axesclip" id="clip362804xy"><rect x="160" y="100" width="2582" height="796"/></clipPath></g><g class="gradients"/><g class="patterns"/></defs><g class="bglayer"><rect class="bg" x="160" y="100" width="2582" height="796" style="fill: rgb(229, 236, 246); fill-opacity: 1; stroke-width: 0;"/></g><g class="layer-below"><g class="imagelayer"/><g class="shapelayer"/></g><g class="cartesianlayer"><g class="subplot xy"><g class="layer-subplot"><g class="shapelayer"/><g class="imagelayer"/></g><g class="gridlayer"><g class="x"><path class="xgrid crisp" transform="translate(612.98,0)" d="M0,100v796" style="stroke: rgb(255, 255, 255); stroke-opacity: 1; stroke-width: 1px;"/><path class="xgrid crisp" transform="translate(1065.96,0)" d="M0,100v796" style="stroke: rgb(255, 255, 255); stroke-opacity: 1; stroke-width: 1px;"/><path class="xgrid crisp" transform="translate(1518.95,0)" d="M0,100v796" style="stroke: rgb(255, 255, 255); stroke-opacity: 1; stroke-width: 1px;"/><path class="xgrid crisp" transform="translate(1971.93,0)" d="M0,100v796" style="stroke: rgb(255, 255, 255); stroke-opacity: 1; stroke-width: 1px;"/><path class="xgrid crisp" transform="translate(2424.91,0)" d="M0,100v796" style="stroke: rgb(255, 255, 255); stroke-opacity: 1; stroke-width: 1px;"/></g><g class="y"><path class="ygrid crisp" transform="translate(0,831.1)" d="M160,0h2582" style="stroke: rgb(255, 255, 255); stroke-opacity: 1; stroke-width: 1px;"/><path class="ygrid crisp" transform="translate(0,751.26)" d="M160,0h2582" style="stroke: rgb(255, 255, 255); stroke-opacity: 1; stroke-width: 1px;"/><path class="ygrid crisp" transform="translate(0,671.42)" d="M160,0h2582" style="stroke: rgb(255, 255, 255); stroke-opacity: 1; stroke-width: 1px;"/><path class="ygrid crisp" transform="translate(0,591.5799999999999)" d="M160,0h2582" style="stroke: rgb(255, 255, 255); stroke-opacity: 1; stroke-width: 1px;"/><path class="ygrid crisp" transform="translate(0,431.9)" d="M160,0h2582" style="stroke: rgb(255, 255, 255); stroke-opacity: 1; stroke-width: 1px;"/><path class="ygrid crisp" transform="translate(0,352.06)" d="M160,0h2582" style="stroke: rgb(255, 255, 255); stroke-opacity: 1; stroke-width: 1px;"/><path class="ygrid crisp" transform="translate(0,272.22)" d="M160,0h2582" style="stroke: rgb(255, 255, 255); stroke-opacity: 1; stroke-width: 1px;"/><path class="ygrid crisp" transform="translate(0,192.38)" d="M160,0h2582" style="stroke: rgb(255, 255, 255); stroke-opacity: 1; stroke-width: 1px;"/><path class="ygrid crisp" transform="translate(0,112.53999999999999)" d="M160,0h2582" style="stroke: rgb(255, 255, 255); stroke-opacity: 1; stroke-width: 1px;"/></g></g><g class="zerolinelayer"><path class="xzl zl crisp" transform="translate(160,0)" d="M0,100v796" style="stroke: rgb(255, 255, 255); stroke-opacity: 1; stroke-width: 2px;"/><path class="yzl zl crisp" transform="translate(0,511.74)" d="M160,0h2582" style="stroke: rgb(255, 255, 255); stroke-opacity: 1; stroke-width: 2px;"/></g><path class="xlines-below"/><path class="ylines-below"/><g class="overlines-below"/><g class="xaxislayer-below"/><g class="yaxislayer-below"/><g class="overaxes-below"/><g class="plot" transform="translate(160,100)" clip-path="url(#clip362804xyplot)"><g class="scatterlayer mlayer"><g class="trace scatter tracef8971d" style="stroke-miterlimit: 2; opacity: 1;"><g class="fills"/><g class="errorbars"/><g class="lines"><path class="js-line" d="M0,215.75L15.85,235.74L18.12,239.44L33.97,256.46L36.24,258.78L43.03,263.62L45.3,264.48L49.83,266.44L52.09,266.32L56.62,266.35L58.89,265.5L63.42,263.98L65.68,262.7L72.48,257.5L74.74,255.52L79.27,250.05L81.54,246.94L88.33,237.11L90.6,233.34L110.98,203.55L113.25,201.28L122.31,191.19L124.57,189.49L131.36,186.29L133.63,185.84L138.16,186.4L140.42,186.98L144.95,189.57L147.22,191.23L151.75,195.14L154.01,197.77L158.54,205L160.81,210.68L167.6,231.38L169.87,233.67L174.4,255.01L176.66,268.09L181.19,283.49L183.46,295.36L190.25,347.69L192.52,359.96L197.05,406.45L199.31,417.17L208.37,501.8L210.64,515.42L221.96,597.27L224.23,609.12L228.76,625.64L231.02,633.89L233.29,638.62L235.55,649.12L240.08,663.24L242.35,669.1L251.41,683.65L253.67,686.92L258.2,691.09L260.46,692.14L262.73,691.17L264.99,692.56L269.52,692.11L271.79,690.09L283.11,678.53L285.38,673.99L289.91,660.86L292.17,659.75L294.44,656.94L296.7,648.7L301.23,631.74L303.5,628.96L305.76,625.2L308.03,617.68L314.82,586.78L317.09,585.9L323.88,548.63L326.15,548.59L328.41,536.74L330.68,517.84L335.21,502.37L337.47,484.82L339.74,483.53L342,469.1L346.53,435.4L348.8,421.04L357.86,362.02L360.12,328.92L362.39,303.02L364.65,302.96L366.92,279.78L369.18,238.05L371.45,206.46L373.71,216.38L375.98,168.17L378.24,152.38L380.51,150.14L382.77,118.98L385.04,112.57L387.3,96.46L389.56,90.14L391.83,76.09L394.09,73.09L396.36,61.07L398.62,64.37L400.89,52.35L403.15,42.96L405.42,46.18L407.68,39.8L409.95,46.38L412.21,41.04L414.48,46.48L416.74,52.12L419.01,53.98L423.54,67.5L425.8,75.11L430.33,90.71L432.6,104.94L437.13,136.76L439.39,152.11L441.66,159.79L443.92,179.95L448.45,241.56L450.72,248.73L452.98,270.03L455.25,302.3L462.04,352.4L464.31,362.73L473.37,412.9L475.63,422.23L482.43,450.61L484.69,453.07L489.22,467.7L491.49,471.25L496.02,483.93L498.28,488.45L505.08,500.76L507.34,504.38L514.14,516.12L516.4,519.14L525.46,533.51L527.72,536.15L541.31,550.75L543.58,552.29L550.37,556.18L552.64,557.05L559.43,559.73L561.7,559.88L570.76,558.42L573.02,557.38L577.55,554.59L579.82,552.82L588.88,545.41L591.14,542.11L600.2,528.71L602.47,525.36L613.79,505.8L616.06,500.36L625.12,481.99L627.38,478.23L636.44,460.74L638.71,454.99L647.76,434.76L650.03,430.71L661.35,410.41L663.62,407.03L672.68,392.93L674.94,390.1L681.74,381.43L684,379.1L688.53,374.65L690.8,372.86L697.59,368.06L699.86,366.92L706.65,364.27L708.92,363.94L715.71,363.37L717.98,363.81L724.77,365.53L727.04,366.62L738.36,372.13L740.63,373.73L767.81,400.33L770.07,402.96L806.31,447.17L808.57,450.97L815.37,459.3L817.63,462.43L822.16,470.03L824.43,474.88L835.75,493.27L838.02,498.28L844.81,513.25L847.08,520.1L849.34,524.21L851.61,531.6L862.93,564.16L865.2,573.53L881.05,630.99L883.32,637.02L887.85,654.66L890.11,660.23L894.64,674.4L896.91,679.13L901.44,694L903.7,699.05L910.49,712.86L912.76,715.39L919.55,724.35L921.82,725.44L924.08,727.23L926.35,727.34L928.61,728.25L930.88,727.42L933.14,727.45L935.41,725.65L937.67,724.77L939.94,721.98L942.2,721.94L944.47,717.45L949,708.77L951.26,702.33L953.53,699.48L955.79,692.78L967.12,656.9L969.38,647.6L982.97,590.52L985.24,580.08L996.56,535.28L998.83,526.37L1005.62,504.3L1007.89,499.86L1012.42,484.44L1014.68,480.03L1016.95,476.3L1019.21,470.35L1023.74,460.76L1026.01,457.6L1032.8,445.3L1035.06,442.56L1044.12,429.9L1046.39,426.96L1050.92,421.33L1053.18,419.87L1087.16,380.52L1089.42,377.09L1096.22,366.84L1098.48,362.71L1103.01,353.42L1105.28,348.43L1116.6,323L1118.87,315.82L1127.93,280.38L1130.19,270.01L1141.52,223.56L1143.78,208.93L1148.31,184.57L1150.58,174.54L1152.84,168.09L1155.11,157.01L1159.64,139.17L1161.9,127.98L1168.69,105.5L1170.96,98.82L1173.22,97.02L1175.49,89.8L1180.02,82.83L1182.28,79.69L1184.55,80.48L1186.81,77.43L1189.08,78.86L1191.34,77.56L1195.87,82.07L1198.14,85.1L1202.67,90.78L1204.93,96.93L1207.2,101.88L1209.46,109.81L1213.99,124.3L1216.26,127.99L1225.32,166.88L1227.58,172.4L1234.38,201.49L1236.64,213.23L1243.44,236.63L1245.7,244.24L1250.23,259.91L1252.5,268.35L1261.56,288.83L1263.82,293.02L1270.62,303.97L1272.88,307.29L1281.94,316.41L1284.21,318.33L1295.53,324.2L1297.79,324.72L1306.85,326.56L1309.12,326.56L1327.24,325.71L1329.5,325.53L1347.62,324.34L1349.89,324.69L1356.68,324.98L1358.95,325.2L1372.54,330.14L1374.8,331.79L1381.6,335.95L1383.86,337.41L1392.92,345.78L1395.19,348.4L1411.04,367.68L1413.31,371.52L1440.48,403.1L1442.75,405.17L1451.81,411.27L1454.07,411.8L1458.6,412.87L1460.87,413.26L1469.93,411.54L1472.19,410.09L1476.72,407.47L1478.99,405.66L1488.05,395.65L1490.31,392.27L1497.11,381.81L1499.37,377.67L1506.17,364.82L1508.43,360.19L1522.02,331.67L1524.29,326.18L1546.94,284.2L1549.2,280.96L1560.52,270.02L1562.79,268.56L1569.58,266L1571.85,265.39L1576.38,266.07L1578.64,266.29L1580.91,266.27L1583.17,268.58L1585.44,269.31L1587.7,271.2L1592.23,276.15L1594.5,278.32L1608.09,296.58L1610.35,299.96L1619.41,317.89L1621.68,320.73L1646.59,363.94L1648.86,367.39L1662.45,384.47L1664.71,386.65L1671.51,392.83L1673.77,394.37L1680.56,398.68L1682.83,399.57L1689.62,402.01L1691.89,402.27L1698.68,402.83L1700.95,402.45L1707.74,401.13L1710.01,400.1L1716.8,396.89L1719.07,395.21L1725.86,390.11L1728.13,387.8L1737.19,378.45L1739.45,374.8L1757.57,348.29L1759.84,344.06L1773.43,320.92L1775.69,315.99L1798.34,276.65L1800.61,274.43L1816.46,252.17L1818.72,249.93L1823.25,244.84L1825.52,242.31L1834.58,232.8L1836.84,231.29L1850.43,219.44L1852.7,216.85L1861.76,207.94L1864.02,205.25L1873.08,194.06L1875.35,190.45L1879.88,184.39L1882.14,179.37L1900.26,143.55L1902.53,137.53L1911.59,117.16L1913.85,114.11L1918.38,103.73L1920.65,101.91L1925.18,93.14L1927.44,92.07L1931.97,86.23L1934.24,85.24L1938.76,82.41L1941.03,84.6L1943.29,82.4L1945.56,84.78L1947.82,85.88L1950.09,89.13L1952.35,90.68L1954.62,93.97L1956.88,98.38L1959.15,100.16L1968.21,123.64L1970.47,133.1L1972.74,137.91L1975,147.06L1979.53,165.42L1981.8,176.65L1990.86,229.32L1993.12,239.33L2006.71,329.2L2008.98,342.07L2013.51,366.04L2015.77,375.88L2022.57,407.1L2024.83,418.23L2029.36,436.95L2031.63,446.74L2036.16,461.99L2038.42,468.32L2042.95,479.97L2045.22,484.98L2058.81,519.41L2061.07,524.23L2065.6,533.17L2067.86,537.14L2090.51,589.32L2092.78,595.94L2104.1,621.32L2106.37,628.39L2113.16,646.79L2115.43,654.62L2117.69,659.28L2119.96,667.36L2129.02,693.32L2131.28,697.58L2135.81,711.17L2138.08,715.2L2142.61,726.54L2144.87,730.38L2149.4,739.43L2151.67,742.88L2156.2,748.66L2158.46,749.34L2162.99,753.5L2165.26,754.57L2167.52,755.66L2169.79,755.17L2172.05,754.54L2174.32,755.06L2181.11,750.39L2183.38,747.16L2185.64,743.03L2187.91,741.52L2196.96,721.66L2199.23,714.23L2201.49,709.53L2203.76,701.63L2224.14,618.67L2226.41,607.61L2230.94,589.06L2233.2,578.68L2244.53,537.03L2246.79,528.98L2262.65,486.05L2264.91,481.57L2273.97,465.01L2276.24,462.35L2289.83,441.58L2292.09,439.12L2298.89,430.42L2301.15,427.91L2326.06,406.47L2328.33,405.29L2335.12,400.76L2337.39,399.67L2350.98,393.99L2353.24,393.43L2364.57,391.86L2366.83,391.8L2387.22,394.28L2389.48,394.85L2407.6,397.17L2409.87,396.91L2416.66,396.55L2418.93,395.66L2423.46,394.72L2425.72,393.19L2439.31,384.33L2441.58,381.68L2446.11,377.58L2448.37,374.19L2461.96,353.64L2464.22,349.61L2471.02,337.82L2473.28,334.32L2486.87,301.52L2489.14,296.81L2518.58,233.36L2520.85,230.09L2532.17,212.53L2534.44,209.43L2543.5,201.63L2545.76,200.72L2552.56,198.32L2554.82,197.73L2566.15,200.23L2568.41,201.44L2577.47,208.54L2579.74,211.11L2582,213.54" style="vector-effect: non-scaling-stroke; fill: none; stroke: rgb(170, 0, 0); stroke-opacity: 1; stroke-width: 4px; opacity: 1;"/></g><g class="points"/><g class="text"/></g><g class="trace scatter trace132cf2" style="stroke-miterlimit: 2; opacity: 1;"><g class="fills"/><g class="errorbars"/><g class="lines"><path class="js-line" d="M0,215.24L13.59,233.17L15.85,233.67L22.65,243.22L24.91,247.96L29.44,251.29L31.71,253.93L38.5,260.72L40.77,262.4L47.56,265.32L49.83,267.02L54.36,265.74L56.62,266.06L58.89,266.34L61.15,264.64L65.68,262.93L67.95,261.1L72.48,257.6L74.74,255.69L90.6,235.45L92.86,230.73L99.66,219.39L101.92,216.98L108.72,206.82L110.98,203.19L115.51,195.93L117.78,194.58L124.57,189.12L126.84,188.18L131.36,185.12L133.63,185.64L142.69,187.18L144.95,189.41L154.01,198.84L156.28,203.74L167.6,228.11L169.87,237.02L174.4,256.68L176.66,270.1L178.93,276.84L181.19,289.81L187.99,326.81L190.25,343.88L192.52,355.67L194.78,378.17L203.84,461.55L206.11,479.37L212.9,529.94L215.17,549.18L219.7,581.08L221.96,588.66L226.49,615.56L228.76,626.86L231.02,638.27L233.29,644.09L237.82,656.58L240.08,660.68L244.61,674.38L246.88,678.69L253.67,688.22L255.94,689.37L262.73,692.29L264.99,692L269.52,691L271.79,689.74L276.32,685.69L278.58,683.56L285.38,673.63L287.64,669.34L292.17,660.08L294.44,654.94L303.5,629.28L305.76,620.79L308.03,610.41L310.29,605.38L319.35,573.74L321.62,563.19L326.15,548.08L328.41,537.62L330.68,530.15L332.94,518.44L346.53,447.55L348.8,428.87L355.59,370.08L357.86,359.34L375.98,169.05L378.24,155.9L380.51,133.29L382.77,124.32L387.3,97L389.56,90.63L391.83,78.43L394.09,72.76L396.36,60.66L398.62,56.97L400.89,46.84L403.15,48.09L405.42,47.2L407.68,40.26L409.95,44.22L412.21,44.39L414.48,42.7L416.74,50.48L419.01,50.61L421.27,58.81L425.8,77.39L428.07,85.94L437.13,140.64L439.39,145.8L446.19,207.93L448.45,239.02L450.72,249.89L452.98,270.16L466.57,388.58L468.84,397L475.63,424.07L477.9,430.94L482.43,447.02L484.69,452.65L491.49,474.03L493.75,478.95L498.28,487.68L500.55,491.24L505.08,500.72L507.34,504.59L514.14,516.77L516.4,519.87L529.99,538.13L532.25,540.66L541.31,550.06L543.58,551.85L550.37,556.32L552.64,556.98L557.17,558.61L559.43,559.42L568.49,559.48L570.76,557.98L575.29,556.02L577.55,554.35L588.88,545.01L591.14,542.6L593.41,540.2L595.67,535.81L602.47,525.12L604.73,520.63L618.32,498.07L620.59,492.03L627.38,477.68L629.65,471.83L643.24,446.48L645.5,440.52L661.35,410.11L663.62,407.3L681.74,380.91L684,378.71L690.8,372.86L693.06,371L702.12,365.74L704.39,365.17L711.18,363.54L713.45,363.52L720.24,364.33L722.51,364.91L727.04,365.99L729.3,366.73L736.1,371.06L738.36,373.02L749.69,380.81L751.95,383.51L772.34,405.67L774.6,409.17L785.92,420.68L788.19,424.45L792.72,430.52L794.98,433.31L797.25,435.04L799.51,438.49L817.63,463.21L819.9,466.88L824.43,473.83L826.69,477.88L831.22,485.64L833.49,490.18L835.75,493.55L838.02,498.97L844.81,515.07L847.08,521.5L851.61,532.65L853.87,539.32L858.4,549.27L860.67,558.89L867.46,580.9L869.73,591.3L874.26,603.26L876.52,614.54L883.32,639.55L885.58,650.58L890.11,662.02L892.38,670.56L899.17,688.02L901.44,694.05L905.96,702.76L908.23,707.06L912.76,716.33L915.02,719.12L919.55,725.02L921.82,725.02L926.35,728.47L928.61,728.16L930.88,726.81L933.14,727.47L935.41,724.85L937.67,724.58L942.2,720.41L944.47,716.33L949,710.45L951.26,704.46L955.79,694.43L958.06,688.13L962.59,673.48L964.85,667.14L973.91,631.82L976.18,619.58L978.44,611.64L980.71,599.58L985.24,579.55L987.5,570.19L992.03,553.04L994.3,545.13L1005.62,504.66L1007.89,498.88L1014.68,479.53L1016.95,474.66L1023.74,460.44L1026.01,456.62L1030.54,450.26L1032.8,446.44L1039.59,435.84L1041.86,432.97L1048.65,423.95L1050.92,421.72L1071.3,399.22L1073.57,398.26L1096.22,366.17L1098.48,362.13L1105.28,350.52L1107.54,344.49L1116.6,319.97L1118.87,313.03L1123.4,299.03L1125.66,289.46L1136.99,241.15L1139.25,231.88L1143.78,210.39L1146.05,196.74L1157.37,146.45L1159.64,139.08L1164.16,122.34L1166.43,116.17L1170.96,100.07L1173.22,95.28L1177.75,85.57L1180.02,82.69L1184.55,79.05L1186.81,79.21L1189.08,77.2L1191.34,77.13L1193.61,79.05L1195.87,82.72L1198.14,83.28L1200.4,87.53L1207.2,99.56L1209.46,107.18L1225.32,162.05L1227.58,171.51L1232.11,192.5L1234.38,202.6L1250.23,260.5L1252.5,267.28L1261.56,289.07L1263.82,293.32L1270.62,304.41L1272.88,307.26L1277.41,312.31L1279.68,313.67L1284.21,318.58L1286.47,320.15L1293.26,323.19L1295.53,324.24L1306.85,326.49L1309.12,326.16L1313.65,326.79L1315.91,326.27L1320.44,326.47L1322.71,326.19L1324.97,325.55L1327.24,325.97L1343.09,324.57L1345.36,324.48L1347.62,323.85L1349.89,324.48L1361.21,325.93L1363.48,326.57L1368.01,327.21L1370.27,328.91L1388.39,340.18L1390.66,343.24L1397.45,350.73L1399.72,353.27L1411.04,367.19L1413.31,371.2L1420.1,379.64L1422.36,382.7L1433.69,396.46L1435.95,398.25L1447.28,408.7L1449.54,409.98L1456.34,412.84L1458.6,413.2L1463.13,413.36L1465.4,412.96L1472.19,410.59L1474.46,408.9L1483.52,401.36L1485.78,398.81L1494.84,385.92L1497.11,382.09L1503.9,370.44L1506.17,364.6L1512.96,351.06L1515.23,346.32L1533.35,308.21L1535.61,303.57L1537.88,300.38L1540.14,295.42L1544.67,287.83L1546.94,283.52L1551.46,278.57L1553.73,276.2L1560.52,269.79L1562.79,268.5L1567.32,266.4L1569.58,265.67L1576.38,265.84L1578.64,266.35L1580.91,267.57L1583.17,267.25L1601.29,287.21L1603.56,290.47L1617.15,313.09L1619.41,317.14L1644.33,360.59L1646.59,363.94L1657.92,379.37L1660.18,381.85L1669.24,391.18L1671.51,393.31L1682.83,399.3L1685.09,400.25L1689.62,401.95L1691.89,402.52L1703.21,402.27L1705.48,401.62L1710.01,399.98L1712.27,399.01L1721.33,393.49L1723.6,391.88L1734.92,381.4L1737.19,377.9L1743.98,368.71L1746.25,366.4L1768.9,329.22L1771.16,324.61L1777.96,311.44L1780.22,307.9L1787.02,297.37L1789.28,293.23L1798.34,277.86L1800.61,274.43L1814.19,255.62L1816.46,252.8L1830.05,238L1832.31,235.86L1852.7,216.49L1854.96,213.57L1861.76,208.61L1864.02,205.46L1868.55,200.47L1870.82,197.2L1879.88,183.71L1882.14,178.25L1888.94,166.31L1891.2,163.69L1898,148.93L1900.26,143.51L1904.79,130.31L1907.06,126.89L1920.65,99.97L1922.91,96.98L1925.18,95.18L1927.44,90.98L1929.71,87.43L1931.97,87.48L1934.24,84.15L1936.5,83L1938.76,82.21L1941.03,82.49L1943.29,82.42L1945.56,83.87L1947.82,84.81L1950.09,87.15L1954.62,92.38L1956.88,96.38L1959.15,100L1961.41,105.65L1965.94,117.25L1968.21,124.42L1977.27,152.58L1979.53,165.75L1984.06,193L1986.33,201.92L1988.59,208.08L1990.86,225.19L1995.39,260.49L1997.65,270.63L1999.92,280.09L2002.18,296.65L2008.98,341.26L2011.24,354.07L2020.3,400.22L2022.57,411.07L2031.63,446L2033.89,452.48L2040.69,475.71L2042.95,479.44L2049.75,496.97L2052.01,502.75L2063.34,529.56L2065.6,533.01L2081.45,567.13L2083.72,573.35L2092.78,591.93L2095.04,599.32L2110.9,639.43L2113.16,647.69L2131.28,698.68L2133.55,705.9L2138.08,716.34L2140.34,721.04L2142.61,726.73L2144.87,729.31L2153.93,746.55L2156.2,748.36L2160.73,752.72L2162.99,754.13L2167.52,755.78L2169.79,756.2L2176.58,753.67L2178.85,752.22L2185.64,744.28L2187.91,740.39L2192.44,731.47L2194.7,727.18L2206.02,692.48L2208.29,683.39L2215.08,654.7L2217.35,649.36L2230.94,588.9L2233.2,579.56L2240,551.61L2242.26,543.97L2251.32,515.31L2253.59,509.8L2262.65,487.06L2264.91,482L2278.5,457.15L2280.77,454.22L2294.36,436.04L2296.62,433.76L2303.42,426.41L2305.68,423.74L2321.54,410.05L2323.8,408.23L2328.33,405.08L2330.59,403.31L2353.24,393.3L2355.51,392.86L2371.36,391.64L2373.63,392.25L2409.87,397.41L2412.13,396.78L2416.66,396.56L2418.93,395.94L2427.99,391.96L2430.25,390.45L2437.05,386.34L2439.31,383.68L2446.11,376.39L2448.37,372.99L2452.9,367.51L2455.16,363.61L2459.69,356.67L2461.96,352.12L2468.75,340.63L2471.02,336.09L2475.55,326.92L2477.81,323.6L2493.67,286.62L2495.93,279.63L2502.73,266.97L2504.99,261.55L2511.79,245.59L2514.05,243.89L2525.38,221.33L2527.64,219.5L2534.44,209.79L2536.7,206.03L2538.97,205.54L2541.23,203.65L2552.56,198.06L2554.82,198.41L2557.09,197.33L2559.35,198.22L2566.15,200.05L2568.41,202.67L2570.68,202.56L2572.94,204.74L2579.74,210.79L2582,214.85" style="vector-effect: non-scaling-stroke; fill: none; stroke: rgb(0, 170, 0); stroke-opacity: 1; stroke-width: 4px; opacity: 1;"/></g><g class="points"/><g class="text"/></g></g></g><g class="overplot"/><path class="xlines-above crisp" d="M0,0" style="fill: none;"/><path class="ylines-above crisp" d="M0,0" style="fill: none;"/><g class="overlines-above"/><g class="xaxislayer-above"><g class="xtick"><text text-anchor="middle" x="0" y="934" transform="translate(160,0)" style="font-family: 'Open Sans', verdana, arial, sans-serif; font-size: 37px; fill: rgb(42, 63, 95); fill-opacity: 1; white-space: pre; opacity: 1;">0</text></g><g class="xtick"><text text-anchor="middle" x="0" y="934" style="font-family: 'Open Sans', verdana, arial, sans-serif; font-size: 37px; fill: rgb(42, 63, 95); fill-opacity: 1; white-space: pre; opacity: 1;" transform="translate(612.98,0)">200</text></g><g class="xtick"><text text-anchor="middle" x="0" y="934" style="font-family: 'Open Sans', verdana, arial, sans-serif; font-size: 37px; fill: rgb(42, 63, 95); fill-opacity: 1; white-space: pre; opacity: 1;" transform="translate(1065.96,0)">400</text></g><g class="xtick"><text text-anchor="middle" x="0" y="934" style="font-family: 'Open Sans', verdana, arial, sans-serif; font-size: 37px; fill: rgb(42, 63, 95); fill-opacity: 1; white-space: pre; opacity: 1;" transform="translate(1518.95,0)">600</text></g><g class="xtick"><text text-anchor="middle" x="0" y="934" style="font-family: 'Open Sans', verdana, arial, sans-serif; font-size: 37px; fill: rgb(42, 63, 95); fill-opacity: 1; white-space: pre; opacity: 1;" transform="translate(1971.93,0)">800</text></g><g class="xtick"><text text-anchor="middle" x="0" y="934" style="font-family: 'Open Sans', verdana, arial, sans-serif; font-size: 37px; fill: rgb(42, 63, 95); fill-opacity: 1; white-space: pre; opacity: 1;" transform="translate(2424.91,0)">1000</text></g></g><g class="yaxislayer-above"><g class="ytick"><text text-anchor="end" x="159" y="12.95" transform="translate(0,831.1)" style="font-family: 'Open Sans', verdana, arial, sans-serif; font-size: 37px; fill: rgb(42, 63, 95); fill-opacity: 1; white-space: pre; opacity: 1;">−200</text></g><g class="ytick"><text text-anchor="end" x="159" y="12.95" style="font-family: 'Open Sans', verdana, arial, sans-serif; font-size: 37px; fill: rgb(42, 63, 95); fill-opacity: 1; white-space: pre; opacity: 1;" transform="translate(0,751.26)">−150</text></g><g class="ytick"><text text-anchor="end" x="159" y="12.95" style="font-family: 'Open Sans', verdana, arial, sans-serif; font-size: 37px; fill: rgb(42, 63, 95); fill-opacity: 1; white-space: pre; opacity: 1;" transform="translate(0,671.42)">−100</text></g><g class="ytick"><text text-anchor="end" x="159" y="12.95" style="font-family: 'Open Sans', verdana, arial, sans-serif; font-size: 37px; fill: rgb(42, 63, 95); fill-opacity: 1; white-space: pre; opacity: 1;" transform="translate(0,591.5799999999999)">−50</text></g><g class="ytick"><text text-anchor="end" x="159" y="12.95" style="font-family: 'Open Sans', verdana, arial, sans-serif; font-size: 37px; fill: rgb(42, 63, 95); fill-opacity: 1; white-space: pre; opacity: 1;" transform="translate(0,511.74)">0</text></g><g class="ytick"><text text-anchor="end" x="159" y="12.95" style="font-family: 'Open Sans', verdana, arial, sans-serif; font-size: 37px; fill: rgb(42, 63, 95); fill-opacity: 1; white-space: pre; opacity: 1;" transform="translate(0,431.9)">50</text></g><g class="ytick"><text text-anchor="end" x="159" y="12.95" style="font-family: 'Open Sans', verdana, arial, sans-serif; font-size: 37px; fill: rgb(42, 63, 95); fill-opacity: 1; white-space: pre; opacity: 1;" transform="translate(0,352.06)">100</text></g><g class="ytick"><text text-anchor="end" x="159" y="12.95" style="font-family: 'Open Sans', verdana, arial, sans-serif; font-size: 37px; fill: rgb(42, 63, 95); fill-opacity: 1; white-space: pre; opacity: 1;" transform="translate(0,272.22)">150</text></g><g class="ytick"><text text-anchor="end" x="159" y="12.95" style="font-family: 'Open Sans', verdana, arial, sans-serif; font-size: 37px; fill: rgb(42, 63, 95); fill-opacity: 1; white-space: pre; opacity: 1;" transform="translate(0,192.38)">200</text></g><g class="ytick"><text text-anchor="end" x="159" y="12.95" style="font-family: 'Open Sans', verdana, arial, sans-serif; font-size: 37px; fill: rgb(42, 63, 95); fill-opacity: 1; white-space: pre; opacity: 1;" transform="translate(0,112.53999999999999)">250</text></g></g><g class="overaxes-above"/></g></g><g class="polarlayer"/><g class="ternarylayer"/><g class="geolayer"/><g class="funnelarealayer"/><g class="pielayer"/><g class="iciclelayer"/><g class="treemaplayer"/><g class="sunburstlayer"/><g class="glimages"/><defs id="topdefs-362804"><g class="clips"/><clipPath id="legend362804"><rect width="694" height="113" x="0" y="0"/></clipPath></defs><g class="layer-above"><g class="imagelayer"/><g class="shapelayer"/></g><g class="infolayer"><g class="legend" pointer-events="all" transform="translate(2793.64,100)"><rect class="bg" shape-rendering="crispEdges" width="694" height="113" x="0" y="0" style="stroke: rgb(68, 68, 68); stroke-opacity: 1; fill: rgb(255, 255, 255); fill-opacity: 1; stroke-width: 0px;"/><g class="scrollbox" transform="" clip-path="url(#legend362804)"><g class="groups"><g class="traces" transform="translate(0,30.55)" style="opacity: 1;"><text class="legendtext" text-anchor="start" x="40" y="14.43" style="font-family: 'Open Sans', verdana, arial, sans-serif; font-size: 37px; fill: rgb(42, 63, 95); fill-opacity: 1; white-space: pre;">Predicted Curvature at Anchors #1</text><g class="layers" style="opacity: 1;"><g class="legendfill"/><g class="legendlines"><path class="js-line" d="M5,0h30" style="fill: none; stroke: rgb(170, 0, 0); stroke-opacity: 1; stroke-width: 4px;"/></g><g class="legendsymbols"><g class="legendpoints"/></g></g><rect class="legendtoggle" x="0" y="-25.55" width="688.125" height="51.1" style="fill: rgb(0, 0, 0); fill-opacity: 0;"/></g><g class="traces" transform="translate(0,81.65)" style="opacity: 1;"><text class="legendtext" text-anchor="start" x="40" y="14.43" style="font-family: 'Open Sans', verdana, arial, sans-serif; font-size: 37px; fill: rgb(42, 63, 95); fill-opacity: 1; white-space: pre;">Predicted Curvature at Anchors #2</text><g class="layers" style="opacity: 1;"><g class="legendfill"/><g class="legendlines"><path class="js-line" d="M5,0h30" style="fill: none; stroke: rgb(0, 170, 0); stroke-opacity: 1; stroke-width: 4px;"/></g><g class="legendsymbols"><g class="legendpoints"/></g></g><rect class="legendtoggle" x="0" y="-25.55" width="688.125" height="51.1" style="fill: rgb(0, 0, 0); fill-opacity: 0;"/></g></g></g><rect class="scrollbar" rx="20" ry="3" width="0" height="0" x="0" y="0" style="fill: rgb(128, 139, 164); fill-opacity: 1;"/></g><g class="g-gtitle"/><g class="g-xtitle"><text class="xtitle" x="1451" y="987.8" text-anchor="middle" style="font-family: 'Open Sans', verdana, arial, sans-serif; font-size: 44px; fill: rgb(42, 63, 95); opacity: 1; font-weight: normal; white-space: pre;">Anchor Point Index</text></g><g class="g-ytitle" transform="translate(31.6591796875,0)"><text class="ytitle" transform="rotate(-90,12.340624999999989,498)" x="12.340624999999989" y="498" text-anchor="middle" style="font-family: 'Open Sans', verdana, arial, sans-serif; font-size: 44px; fill: rgb(42, 63, 95); opacity: 1; font-weight: normal; white-space: pre;">Predicted Curvature</text></g><g class="annotation" data-index="0" style="opacity: 1;"><g class="annotation-text-g" transform="rotate(0,1451,75.49999999999994)"><g class="cursor-pointer" transform="translate(585,51)"><rect class="bg" x="0.5" y="0.5" width="1732" height="48" style="stroke-width: 1px; stroke: rgb(0, 0, 0); stroke-opacity: 0; fill: rgb(0, 0, 0); fill-opacity: 0;"/><text class="annotation-text" text-anchor="middle" x="866.546875" y="39" style="font-family: 'Open Sans', verdana, arial, sans-serif; font-size: 37px; fill: rgb(42, 63, 95); fill-opacity: 1; white-space: pre;"><tspan style="font-weight:bold">Predicted Curvature at Anchors (Transformed Curve #1 vs. Transformed Curve #2)</tspan></text></g></g></g></g></svg>