<svg class="main-svg" xmlns="http://www.w3.org/2000/svg" xmlns:xlink="http://www.w3.org/1999/xlink" width="3500" height="1000" style="" viewBox="0 0 3500 1000"><rect x="0" y="0" width="3500" height="1000" style="fill: rgb(255, 255, 255); fill-opacity: 1;"/><defs id="defs-fc03a9"><g class="clips"><clipPath id="clipfc03a9xyplot" class="plotclip"><rect width="2582" height="796"/></clipPath><clipPath class="axesclip" id="clipfc03a9x"><rect x="160" y="0" width="2582" height="1000"/></clipPath><clipPath class="axesclip" id="clipfc03a9y"><rect x="0" y="100" width="3500" height="796"/></clipPath><clipPath class="axesclip" id="clipfc03a9xy"><rect x="160" y="100" width="2582" height="796"/></clipPath></g><g class="gradients"/><g class="patterns"/></defs><g class="bglayer"><rect class="bg" x="160" y="100" width="2582" height="796" style="fill: rgb(229, 236, 246); fill-opacity: 1; stroke-width: 0;"/></g><g class="layer-below"><g class="imagelayer"/><g class="shapelayer"/></g><g class="cartesianlayer"><g class="subplot xy"><g class="layer-subplot"><g class="shapelayer"/><g class="imagelayer"/></g><g class="gridlayer"><g class="x"><path class="xgrid crisp" transform="translate(642.62,0)" d="M0,100v796" style="stroke: rgb(255, 255, 255); stroke-opacity: 1; stroke-width: 1px;"/><path class="xgrid crisp" transform="translate(1125.23,0)" d="M0,100v796" style="stroke: rgb(255, 255, 255); stroke-opacity: 1; stroke-width: 1px;"/><path class="xgrid crisp" transform="translate(1607.85,0)" d="M0,100v796" style="stroke: rgb(255, 255, 255); stroke-opacity: 1; stroke-width: 1px;"/><path class="xgrid crisp" transform="translate(2090.4700000000003,0)" d="M0,100v796" style="stroke: rgb(255, 255, 255); stroke-opacity: 1; stroke-width: 1px;"/><path class="xgrid crisp" transform="translate(2573.08,0)" d="M0,100v796" style="stroke: rgb(255, 255, 255); stroke-opacity: 1; stroke-width: 1px;"/></g><g class="y"><path class="ygrid crisp" transform="translate(0,829.83)" d="M160,0h2582" style="stroke: rgb(255, 255, 255); stroke-opacity: 1; stroke-width: 1px;"/><path class="ygrid crisp" transform="translate(0,748.35)" d="M160,0h2582" style="stroke: rgb(255, 255, 255); stroke-opacity: 1; stroke-width: 1px;"/><path class="ygrid crisp" transform="translate(0,666.86)" d="M160,0h2582" style="stroke: rgb(255, 255, 255); stroke-opacity: 1; stroke-width: 1px;"/><path class="ygrid crisp" transform="translate(0,585.38)" d="M160,0h2582" style="stroke: rgb(255, 255, 255); stroke-opacity: 1; stroke-width: 1px;"/><path class="ygrid crisp" transform="translate(0,422.41)" d="M160,0h2582" style="stroke: rgb(255, 255, 255); stroke-opacity: 1; stroke-width: 1px;"/><path class="ygrid crisp" transform="translate(0,340.93)" d="M160,0h2582" style="stroke: rgb(255, 255, 255); stroke-opacity: 1; stroke-width: 1px;"/><path class="ygrid crisp" transform="translate(0,259.45)" d="M160,0h2582" style="stroke: rgb(255, 255, 255); stroke-opacity: 1; stroke-width: 1px;"/><path class="ygrid crisp" transform="translate(0,177.95999999999998)" d="M160,0h2582" style="stroke: rgb(255, 255, 255); stroke-opacity: 1; stroke-width: 1px;"/></g></g><g class="zerolinelayer"><path class="xzl zl crisp" transform="translate(160,0)" d="M0,100v796" style="stroke: rgb(255, 255, 255); stroke-opacity: 1; stroke-width: 2px;"/><path class="yzl zl crisp" transform="translate(0,503.9)" d="M160,0h2582" style="stroke: rgb(255, 255, 255); stroke-opacity: 1; stroke-width: 2px;"/></g><path class="xlines-below"/><path class="ylines-below"/><g class="overlines-below"/><g class="xaxislayer-below"/><g class="yaxislayer-below"/><g class="overaxes-below"/><g class="plot" transform="translate(160,100)" clip-path="url(#clipfc03a9xyplot)"><g class="scatterlayer mlayer"><g class="trace scatter trace5bc58d" style="stroke-miterlimit: 2; opacity: 1;"><g class="fills"/><g class="errorbars"/><g class="lines"><path class="js-line" d="M0,135.39L2.41,135.74L4.83,137.78L7.24,139.36L9.65,138.18L12.07,139.25L14.48,142.57L36.2,190.7L38.61,198.7L45.85,217.21L48.26,225.38L62.74,261.76L65.15,265.96L72.39,280.68L74.81,284.54L84.46,294.9L86.87,296.03L91.7,298.88L94.11,298.82L96.52,299.85L98.94,299.37L101.35,298.08L103.76,298.43L111,293.31L113.41,290.84L120.65,282.58L123.07,278.36L130.31,265.55L132.72,261.94L144.79,239.75L147.2,235.13L154.44,220.88L156.85,216.56L164.09,205.77L166.5,202.57L173.74,195.82L176.16,194.26L180.98,191.71L183.39,192.1L188.22,192L190.63,192.25L195.46,195.19L197.87,197.99L207.53,212.63L209.94,217.31L217.18,233.94L219.59,240.26L231.66,276.3L234.07,284.12L265.44,385.23L267.85,391.52L275.09,407.14L277.5,414.7L299.22,465.24L301.64,470.74L320.94,517.18L323.35,523.45L340.24,570.91L342.66,578.62L366.79,648.38L369.2,654.38L374.03,666.48L376.44,671.3L381.27,682.16L383.68,685.54L388.51,695.08L390.92,697.65L393.33,702.17L395.75,702.86L398.16,706.83L400.57,708.13L402.99,708.97L405.4,710.9L410.22,713.37L412.64,711.92L419.88,711.29L422.29,709.25L431.94,701.45L434.36,698.11L439.18,692.95L441.59,689.25L448.83,677.08L451.25,672.82L468.14,635.15L470.55,629.1L487.44,590.21L489.86,584.1L501.92,555.48L504.33,551.12L521.23,515.5L523.64,511.54L540.53,480.47L542.94,477.01L571.9,427.06L574.31,425.08L593.62,382.27L596.03,376.22L612.92,316.98L615.34,306.14L624.99,254.86L627.4,241.55L639.47,162.9L641.88,153.52L644.29,141.52L646.71,124.35L649.12,117.67L651.53,105.68L661.19,70.74L663.6,66.45L666.01,57.86L668.42,54.5L675.66,46.02L678.08,45.89L682.9,45.81L685.32,47.36L692.56,57.17L694.97,64.33L697.38,72.85L699.79,77.16L702.21,84.39L704.62,95.25L709.45,106.82L711.86,118.01L723.93,172.39L726.34,181.28L745.64,252.27L748.06,257.78L755.3,273.57L757.71,278.94L772.19,298.15L774.6,299.93L779.43,304.04L781.84,305.05L791.49,308.88L793.9,309.43L798.73,309.9L801.14,310.06L810.8,309.61L813.21,309.12L822.86,306.89L825.27,305.95L837.34,301.35L839.75,300.16L846.99,297.43L849.41,295.96L854.23,293.9L856.64,293.83L863.88,290.39L866.3,290.08L880.78,286.53L883.19,286.85L890.43,286.53L892.84,287.39L904.91,290.29L907.32,291.76L914.56,295.54L916.97,297.51L931.45,309.6L933.86,312.38L945.93,325.73L948.34,329.12L957.99,340.38L960.41,344.44L965.23,351.34L967.65,353L974.89,364.04L977.3,368.35L979.71,370.62L982.13,370.51L989.36,384.2L991.78,389.9L994.19,392.59L996.6,400.19L1006.26,412.67L1008.67,416.48L1032.8,463.85L1035.21,470.72L1044.87,494.87L1047.28,502.72L1071.41,574.72L1073.82,583.93L1078.65,597.03L1081.06,604.32L1085.89,615.75L1088.3,622.01L1093.13,631.22L1095.54,636.17L1100.37,642.79L1102.78,646.27L1112.43,652.08L1114.84,652.88L1117.26,653.14L1119.67,651.98L1122.08,650.19L1124.5,649.66L1129.32,644.67L1131.74,640.7L1134.15,635.58L1136.56,633.08L1143.8,615L1146.21,606.47L1148.63,601.43L1151.04,592.54L1155.87,574.6L1158.28,562.68L1160.69,555.47L1163.11,543.74L1177.59,477.9L1180,462.87L1184.82,435.98L1187.24,424.57L1189.65,416.85L1192.06,405.29L1196.89,381.74L1199.3,367.56L1208.96,332.33L1211.37,324.15L1218.61,294.54L1221.02,287.26L1225.85,274.07L1228.26,267.45L1242.74,223.84L1245.15,219.36L1252.39,205.16L1254.8,201.13L1264.46,183.72L1266.87,179.51L1269.28,175.51L1271.7,173.97L1278.93,167.29L1281.35,165.87L1291,159.79L1293.41,160.17L1300.65,159.55L1303.07,159.61L1315.13,163.56L1317.54,164.45L1329.61,171.8L1332.02,173.56L1351.33,185.05L1353.74,185.82L1358.57,187.26L1360.98,187.76L1365.81,188.29L1368.22,188.36L1375.46,187.67L1377.87,187.08L1385.11,184.29L1387.52,183L1394.76,178.61L1397.18,176.79L1411.65,166.02L1414.07,163.99L1423.72,158.37L1426.13,157.45L1435.79,154.35L1438.2,154.19L1445.44,155.39L1447.85,155.99L1455.09,160L1457.5,161.99L1464.74,171.58L1467.16,175.39L1479.22,197.35L1481.63,202.53L1496.11,252.67L1498.53,260.45L1505.76,290.46L1508.18,305.86L1513,333.73L1515.42,346.62L1520.24,371.37L1522.66,382.4L1537.13,466.61L1539.55,478.4L1544.37,498.51L1546.79,506.51L1551.61,527.03L1554.03,534.09L1558.85,557.27L1561.27,563.22L1568.5,581.32L1570.92,585.66L1575.74,596.08L1578.16,599.53L1582.98,609.82L1585.4,611.97L1592.64,617.46L1595.05,618.43L1599.87,620.36L1602.29,620.33L1609.53,618.7L1611.94,616.97L1616.77,613.64L1619.18,610.59L1626.42,602.97L1628.83,599.08L1633.66,592.27L1636.07,586.87L1667.44,516.38L1669.85,509.21L1674.68,498.33L1677.09,492.3L1681.92,481.9L1684.33,476.23L1686.75,472.02L1689.16,465.81L1693.99,456.1L1696.4,451.62L1701.22,443.71L1703.64,440.07L1708.46,433.27L1710.88,430.12L1720.53,414.28L1722.94,411.71L1737.42,396.14L1739.83,394.2L1749.49,388L1751.9,386.45L1754.31,384.85L1756.73,384.55L1761.55,382.96L1763.96,382.55L1771.2,380.96L1773.62,380.45L1783.27,380.03L1785.68,380.11L1802.57,381.83L1804.99,382.11L1814.64,383.96L1817.05,384.24L1836.36,386.75L1838.77,386.83L1853.25,387.02L1855.66,386.75L1865.31,385.83L1867.73,385.41L1879.79,382.74L1882.21,382.19L1896.68,377.07L1899.1,376.05L1908.75,371.4L1911.16,369.72L1920.81,363.54L1923.23,361.43L1930.47,354.99L1932.88,352.33L1937.71,346.77L1940.12,343.69L1944.95,336.75L1947.36,332.93L1952.19,324.19L1954.6,319.4L1959.42,308.39L1961.84,302.32L1966.66,289.86L1969.08,282.82L1971.49,276.63L1973.9,265.25L1985.97,211.12L1988.38,199.8L2005.27,118.13L2007.69,113.42L2017.34,74.28L2019.75,67.31L2022.16,64.29L2024.58,58.33L2029.4,49.78L2031.82,46.65L2034.23,42.31L2036.64,42.87L2039.06,43.97L2041.47,41.16L2043.88,45.16L2046.3,45.22L2048.71,48.35L2051.12,53.5L2053.53,55.6L2055.95,65.14L2058.36,75.99L2060.77,81.84L2068.01,102.44L2070.43,111L2077.67,142.28L2080.08,154.13L2099.38,247.52L2101.8,257.2L2106.62,280.36L2109.04,287.17L2113.86,297.52L2116.27,303.58L2130.75,333.18L2133.17,336.61L2140.41,347.72L2142.82,350.59L2150.06,358.3L2152.47,360.78L2157.3,365.23L2159.71,367.76L2164.54,372.88L2166.95,374.83L2176.6,382.47L2179.01,384.09L2215.21,418.72L2217.62,422.22L2227.28,435.23L2229.69,439L2241.76,460.88L2244.17,466.52L2253.82,491.73L2256.23,497.78L2263.47,519.41L2265.89,531.87L2270.71,554.26L2273.13,568.13L2275.54,575.69L2277.95,587.26L2282.78,604.89L2285.19,621.42L2292.43,658.92L2294.84,666.67L2304.5,709.44L2306.91,717.01L2309.32,724L2311.73,727.64L2314.15,734.84L2316.56,738.83L2323.8,750.24L2326.21,752.56L2331.04,755.02L2333.45,756.2L2335.87,754.73L2338.28,754.61L2343.1,749.49L2345.52,746.83L2347.93,742.85L2350.34,741.02L2357.58,724.01L2360,714.56L2374.47,659L2376.89,648.26L2391.37,571.9L2393.78,561.72L2401.02,531.08L2403.43,522.86L2410.67,499.14L2413.08,492.67L2420.32,474.72L2422.74,470.3L2434.8,447.07L2437.21,444.67L2446.87,429.65L2449.28,426.59L2461.35,410.7L2463.76,407.65L2473.41,393.65L2475.82,389.65L2483.06,380.09L2485.48,374.81L2495.13,355.95L2497.54,350.62L2512.02,310.71L2514.43,301.95L2524.09,273.82L2526.5,261.92L2536.15,226.67L2538.56,219.58L2555.46,166.3L2557.87,160.5L2572.35,134.47L2574.76,138.74L2577.17,138.1L2579.59,135.79L2582,135.22" style="vector-effect: non-scaling-stroke; fill: none; stroke: rgb(170, 0, 0); stroke-opacity: 1; stroke-width: 4px; opacity: 1;"/></g><g class="points"/><g class="text"/></g><g class="trace scatter traced2e813" style="stroke-miterlimit: 2; opacity: 1;"><g class="fills"/><g class="errorbars"/><g class="lines"><path class="js-line" d="M0,134.58L4.83,136.45L7.24,138.33L9.65,139.98L12.07,143.03L19.3,152.97L21.72,157.1L31.37,177.48L33.78,185.34L38.61,197.62L41.02,205.09L50.67,229.49L53.09,237.61L60.33,258.41L62.74,261.93L74.81,285.06L77.22,288.34L84.46,295.83L86.87,297.51L89.28,298.79L91.7,298.84L96.52,300.57L98.94,300L106.18,297.64L108.59,295.31L111,293.84L113.41,291.03L127.89,271.03L130.31,266.82L139.96,248.57L142.37,242.6L147.2,233.28L149.61,229.1L152.02,225.81L154.44,220.58L164.09,204.94L166.5,202.21L176.16,194.18L178.57,192.94L183.39,191.36L185.81,192.04L190.63,193.13L193.05,194.93L200.29,201.99L202.7,205.46L207.53,213.66L209.94,219.66L219.59,240.46L222,246.89L231.66,275.06L234.07,284.54L238.9,300.57L241.31,310.04L255.79,354.21L258.2,359.86L270.27,396.45L272.68,402.9L284.74,430.55L287.16,435.2L294.4,454.29L296.81,460.06L306.46,482.06L308.87,490.21L316.11,503.88L318.53,512.18L323.35,528.21L325.77,532.43L330.59,543.97L333.01,550.05L342.66,580.7L345.07,588.15L374.03,667.67L376.44,672.83L383.68,687.85L386.09,691.42L390.92,698.61L393.33,701L400.57,708.46L402.99,708.99L405.4,710.49L407.81,710.52L410.22,712.88L412.64,712.2L415.05,711.12L417.46,711.95L422.29,709.44L424.7,708.63L429.53,704.9L431.94,701.81L439.18,692.75L441.59,689.25L448.83,677.08L451.25,672.82L475.38,619.28L477.79,613.38L485.03,594.89L487.44,589.5L492.27,580.24L494.68,572.98L506.75,545.35L509.16,541.12L511.57,536.96L513.99,530.45L526.05,506.28L528.47,502.12L538.12,484.46L540.53,480.76L564.66,440.68L567.07,435.93L579.14,414.39L581.55,408.78L591.21,386.82L593.62,381.48L608.1,334.94L610.51,323.73L617.75,290.58L620.16,278.16L622.58,267.43L624.99,251.58L641.88,152.23L644.29,143.23L649.12,118.61L651.53,112.47L656.36,89.33L658.77,78.83L661.19,69.55L663.6,67.56L666.01,59.24L668.42,55.51L675.66,46.02L678.08,45.89L682.9,47.38L685.32,46.75L687.73,49.5L690.14,54.45L692.56,59.89L694.97,68.47L697.38,70.68L699.79,76.8L707.03,99.01L709.45,109.76L714.27,134.43L716.69,140.2L726.34,179.06L728.75,190.83L733.58,214.5L735.99,220.68L748.06,257.59L750.47,263.69L752.88,270.86L755.3,273.84L760.12,282.71L762.53,286.45L764.95,290.96L767.36,292.82L774.6,299.8L777.01,301.28L786.67,307.49L789.08,308.37L798.73,310.3L801.14,310.43L810.8,309.94L813.21,309.09L818.04,308.57L820.45,308.05L842.17,300.04L844.58,298.31L849.41,297.13L851.82,295L856.64,294.09L859.06,291.97L863.88,291.37L866.3,289.33L868.71,288.15L871.12,288.45L873.54,288.21L875.95,286.8L878.36,285.9L880.78,286.65L883.19,286.96L885.6,285.81L888.01,285.25L890.43,286.58L892.84,287.52L895.25,286.73L907.32,290.37L909.73,292.5L914.56,295.84L916.97,297.01L936.28,313.59L938.69,317.17L945.93,326.33L948.34,328.32L957.99,341.74L960.41,343.97L972.47,361.81L974.89,365.08L984.54,378.74L986.95,382.19L1006.26,413.96L1008.67,418.11L1018.32,434.36L1020.73,438.87L1025.56,448.14L1027.97,454.55L1035.21,472.32L1037.63,478.43L1042.45,488.83L1044.87,496.56L1052.1,516.82L1054.52,525.51L1059.34,537.43L1061.76,546.63L1078.65,596.48L1081.06,602.28L1083.47,607.72L1085.89,615.69L1088.3,623.5L1090.71,627.67L1097.95,639.33L1100.37,642.09L1105.19,647.96L1107.61,649.4L1112.43,652.89L1114.84,652.69L1119.67,652.45L1122.08,651.01L1126.91,647.16L1129.32,644.46L1136.56,632.83L1138.98,627.12L1146.21,608.09L1148.63,600.04L1151.04,593.43L1153.45,583.77L1167.93,521.78L1170.35,508.97L1175.17,488.08L1177.59,476.01L1180,466.88L1182.41,451.97L1192.06,402.45L1194.48,390.55L1216.19,301.35L1218.61,295.16L1223.43,279.93L1225.85,273.3L1242.74,223.85L1245.15,219.42L1264.46,182.89L1266.87,180.42L1281.35,164.42L1283.76,163.47L1291,160.81L1293.41,160.36L1300.65,159.41L1303.07,159.61L1312.72,162.54L1315.13,163.58L1327.2,170.05L1329.61,171.57L1336.85,176.48L1339.26,178.22L1351.33,184.57L1353.74,185.67L1360.98,187.89L1363.39,188.41L1373.04,188.25L1375.46,187.22L1385.11,184.29L1387.52,183L1402,173.35L1404.41,171.34L1414.07,165.36L1416.48,162.73L1423.72,157.47L1426.13,156.81L1435.79,154.37L1438.2,154.13L1447.85,156.06L1450.26,157.08L1459.92,164.6L1462.33,168.21L1474.39,187.04L1476.81,192.85L1488.87,223.65L1491.29,233.63L1496.11,253.72L1498.53,266.89L1500.94,273.76L1503.35,285.07L1510.59,318.66L1513,333.1L1515.42,342.91L1517.83,357.82L1527.48,414.33L1529.9,424.4L1537.13,462.66L1539.55,476.33L1544.37,497.01L1546.79,509.34L1556.44,549.4L1558.85,555.75L1566.09,575.25L1568.5,579.92L1573.33,591.32L1575.74,595.12L1580.57,606.6L1582.98,609.11L1590.22,615.74L1592.64,617.04L1597.46,619.98L1599.87,620.27L1607.11,619.56L1609.53,618.59L1619.18,612.44L1621.59,608.68L1626.42,602.64L1628.83,598.34L1633.66,590.03L1636.07,586L1645.72,568.76L1648.14,561.56L1681.92,482.17L1684.33,476.8L1698.81,448.07L1701.22,442.98L1706.05,433.81L1708.46,430.06L1722.94,411.39L1725.36,409.91L1735.01,399.14L1737.42,396.95L1744.66,391.56L1747.07,389.88L1756.73,384.75L1759.14,383.46L1776.03,380.45L1778.44,380.01L1790.51,380.19L1792.92,380.43L1814.64,383.84L1817.05,384.18L1838.77,386.85L1841.18,387.17L1865.31,385.78L1867.73,385.57L1879.79,382.86L1882.21,382.26L1906.34,372.88L1908.75,371.16L1915.99,366.83L1918.4,365.5L1928.05,357.42L1930.47,355.41L1940.12,344.25L1942.53,341.83L1957.01,314.46L1959.42,308.82L1966.66,288.97L1969.08,281.28L1985.97,210.58L1988.38,202.74L2002.86,128.88L2005.27,123.8L2010.1,103.48L2012.51,95.3L2014.93,83.14L2017.34,78.96L2019.75,67.47L2022.16,64.76L2024.58,56.42L2026.99,53.22L2029.4,48.58L2031.82,46.65L2036.64,39.8L2039.06,42.46L2041.47,41.16L2043.88,41.96L2046.3,51.17L2048.71,50.29L2051.12,55.48L2053.53,64.82L2055.95,64.56L2058.36,71.27L2060.77,83L2063.19,88.04L2068.01,103.02L2070.43,111L2075.25,131.02L2077.67,150.55L2080.08,164.14L2082.49,166.35L2084.9,174.07L2087.32,186.51L2092.14,221.01L2094.56,226.41L2106.62,276.89L2109.04,284.93L2123.51,319.58L2125.93,324.42L2135.58,340.5L2137.99,343.92L2145.23,352.36L2147.64,354.66L2154.88,364.17L2157.3,365.83L2174.19,380.81L2176.6,382.75L2193.49,397.47L2195.91,399.96L2207.97,410.87L2210.39,413.11L2215.21,418.74L2217.62,422.1L2239.34,456.22L2241.76,461.36L2246.58,472.18L2248.99,478.39L2253.82,491.51L2256.23,499.07L2258.65,505.43L2261.06,514.94L2265.89,531.42L2268.3,544.63L2277.95,589.58L2280.36,598.26L2282.78,608.11L2285.19,624.44L2297.26,676.97L2299.67,684.55L2302.08,696.48L2304.5,702.4L2306.91,707.93L2309.32,720.43L2318.97,743.46L2321.39,747.92L2323.8,751.63L2326.21,752.69L2328.63,753.75L2331.04,753.66L2333.45,755.7L2335.87,755.51L2340.69,751.9L2343.1,749.32L2345.52,747.13L2347.93,743.44L2350.34,740.71L2352.76,735.69L2357.58,725.52L2360,715.87L2364.82,697.86L2367.24,689.46L2372.06,668.68L2374.47,659.27L2386.54,593.72L2388.95,584.91L2405.84,512.97L2408.26,506.05L2415.5,486.71L2417.91,480.21L2434.8,447.18L2437.21,444.31L2444.45,432.86L2446.87,429.9L2468.59,400.7L2471,398.48L2478.24,386.55L2480.65,382.46L2485.48,374.11L2487.89,371.67L2497.54,351.51L2499.96,344.51L2507.19,325.16L2509.61,317.77L2516.85,298.56L2519.26,289.59L2538.56,218.02L2540.98,211.48L2550.63,181.56L2553.04,175.1L2557.87,162.18L2560.28,157.35L2567.52,144.1L2569.93,141.75L2577.17,135.87L2579.59,135.37L2582,134.97" style="vector-effect: non-scaling-stroke; fill: none; stroke: rgb(0, 170, 0); stroke-opacity: 1; stroke-width: 4px; opacity: 1;"/></g><g class="points"/><g class="text"/></g></g></g><g class="overplot"/><path class="xlines-above crisp" d="M0,0" style="fill: none;"/><path class="ylines-above crisp" d="M0,0" style="fill: none;"/><g class="overlines-above"/><g class="xaxislayer-above"><g class="xtick"><text text-anchor="middle" x="0" y="934" transform="translate(160,0)" style="font-family: 'Open Sans', verdana, arial, sans-serif; font-size: 37px; fill: rgb(42, 63, 95); fill-opacity: 1; white-space: pre; opacity: 1;">0</text></g><g class="xtick"><text text-anchor="middle" x="0" y="934" style="font-family: 'Open Sans', verdana, arial, sans-serif; font-size: 37px; fill: rgb(42, 63, 95); fill-opacity: 1; white-space: pre; opacity: 1;" transform="translate(642.62,0)">200</text></g><g class="xtick"><text text-anchor="middle" x="0" y="934" style="font-family: 'Open Sans', verdana, arial, sans-serif; font-size: 37px; fill: rgb(42, 63, 95); fill-opacity: 1; white-space: pre; opacity: 1;" transform="translate(1125.23,0)">400</text></g><g class="xtick"><text text-anchor="middle" x="0" y="934" style="font-family: 'Open Sans', verdana, arial, sans-serif; font-size: 37px; fill: rgb(42, 63, 95); fill-opacity: 1; white-space: pre; opacity: 1;" transform="translate(1607.85,0)">600</text></g><g class="xtick"><text text-anchor="middle" x="0" y="934" style="font-family: 'Open Sans', verdana, arial, sans-serif; font-size: 37px; fill: rgb(42, 63, 95); fill-opacity: 1; white-space: pre; opacity: 1;" transform="translate(2090.4700000000003,0)">800</text></g><g class="xtick"><text text-anchor="middle" x="0" y="934" style="font-family: 'Open Sans', verdana, arial, sans-serif; font-size: 37px; fill: rgb(42, 63, 95); fill-opacity: 1; white-space: pre; opacity: 1;" transform="translate(2573.08,0)">1000</text></g></g><g class="yaxislayer-above"><g class="ytick"><text text-anchor="end" x="159" y="12.95" transform="translate(0,829.83)" style="font-family: 'Open Sans', verdana, arial, sans-serif; font-size: 37px; fill: rgb(42, 63, 95); fill-opacity: 1; white-space: pre; opacity: 1;">−200</text></g><g class="ytick"><text text-anchor="end" x="159" y="12.95" style="font-family: 'Open Sans', verdana, arial, sans-serif; font-size: 37px; fill: rgb(42, 63, 95); fill-opacity: 1; white-space: pre; opacity: 1;" transform="translate(0,748.35)">−150</text></g><g class="ytick"><text text-anchor="end" x="159" y="12.95" style="font-family: 'Open Sans', verdana, arial, sans-serif; font-size: 37px; fill: rgb(42, 63, 95); fill-opacity: 1; white-space: pre; opacity: 1;" transform="translate(0,666.86)">−100</text></g><g class="ytick"><text text-anchor="end" x="159" y="12.95" style="font-family: 'Open Sans', verdana, arial, sans-serif; font-size: 37px; fill: rgb(42, 63, 95); fill-opacity: 1; white-space: pre; opacity: 1;" transform="translate(0,585.38)">−50</text></g><g class="ytick"><text text-anchor="end" x="159" y="12.95" style="font-family: 'Open Sans', verdana, arial, sans-serif; font-size: 37px; fill: rgb(42, 63, 95); fill-opacity: 1; white-space: pre; opacity: 1;" transform="translate(0,503.9)">0</text></g><g class="ytick"><text text-anchor="end" x="159" y="12.95" style="font-family: 'Open Sans', verdana, arial, sans-serif; font-size: 37px; fill: rgb(42, 63, 95); fill-opacity: 1; white-space: pre; opacity: 1;" transform="translate(0,422.41)">50</text></g><g class="ytick"><text text-anchor="end" x="159" y="12.95" style="font-family: 'Open Sans', verdana, arial, sans-serif; font-size: 37px; fill: rgb(42, 63, 95); fill-opacity: 1; white-space: pre; opacity: 1;" transform="translate(0,340.93)">100</text></g><g class="ytick"><text text-anchor="end" x="159" y="12.95" style="font-family: 'Open Sans', verdana, arial, sans-serif; font-size: 37px; fill: rgb(42, 63, 95); fill-opacity: 1; white-space: pre; opacity: 1;" transform="translate(0,259.45)">150</text></g><g class="ytick"><text text-anchor="end" x="159" y="12.95" style="font-family: 'Open Sans', verdana, arial, sans-serif; font-size: 37px; fill: rgb(42, 63, 95); fill-opacity: 1; white-space: pre; opacity: 1;" transform="translate(0,177.95999999999998)">200</text></g></g><g class="overaxes-above"/></g></g><g class="polarlayer"/><g class="ternarylayer"/><g class="geolayer"/><g class="funnelarealayer"/><g class="pielayer"/><g class="iciclelayer"/><g class="treemaplayer"/><g class="sunburstlayer"/><g class="glimages"/><defs id="topdefs-fc03a9"><g class="clips"/><clipPath id="legendfc03a9"><rect width="694" height="113" x="0" y="0"/></clipPath></defs><g class="layer-above"><g class="imagelayer"/><g class="shapelayer"/></g><g class="infolayer"><g class="legend" pointer-events="all" transform="translate(2793.64,100)"><rect class="bg" shape-rendering="crispEdges" width="694" height="113" x="0" y="0" style="stroke: rgb(68, 68, 68); stroke-opacity: 1; fill: rgb(255, 255, 255); fill-opacity: 1; stroke-width: 0px;"/><g class="scrollbox" transform="" clip-path="url(#legendfc03a9)"><g class="groups"><g class="traces" transform="translate(0,30.55)" style="opacity: 1;"><text class="legendtext" text-anchor="start" x="40" y="14.43" style="font-family: 'Open Sans', verdana, arial, sans-serif; font-size: 37px; fill: rgb(42, 63, 95); fill-opacity: 1; white-space: pre;">Predicted Curvature at Anchors #1</text><g class="layers" style="opacity: 1;"><g class="legendfill"/><g class="legendlines"><path class="js-line" d="M5,0h30" style="fill: none; stroke: rgb(170, 0, 0); stroke-opacity: 1; stroke-width: 4px;"/></g><g class="legendsymbols"><g class="legendpoints"/></g></g><rect class="legendtoggle" x="0" y="-25.55" width="688.125" height="51.1" style="fill: rgb(0, 0, 0); fill-opacity: 0;"/></g><g class="traces" transform="translate(0,81.65)" style="opacity: 1;"><text class="legendtext" text-anchor="start" x="40" y="14.43" style="font-family: 'Open Sans', verdana, arial, sans-serif; font-size: 37px; fill: rgb(42, 63, 95); fill-opacity: 1; white-space: pre;">Predicted Curvature at Anchors #2</text><g class="layers" style="opacity: 1;"><g class="legendfill"/><g class="legendlines"><path class="js-line" d="M5,0h30" style="fill: none; stroke: rgb(0, 170, 0); stroke-opacity: 1; stroke-width: 4px;"/></g><g class="legendsymbols"><g class="legendpoints"/></g></g><rect class="legendtoggle" x="0" y="-25.55" width="688.125" height="51.1" style="fill: rgb(0, 0, 0); fill-opacity: 0;"/></g></g></g><rect class="scrollbar" rx="20" ry="3" width="0" height="0" x="0" y="0" style="fill: rgb(128, 139, 164); fill-opacity: 1;"/></g><g class="g-gtitle"/><g class="g-xtitle"><text class="xtitle" x="1451" y="987.8" text-anchor="middle" style="font-family: 'Open Sans', verdana, arial, sans-serif; font-size: 44px; fill: rgb(42, 63, 95); opacity: 1; font-weight: normal; white-space: pre;">Anchor Point Index</text></g><g class="g-ytitle" transform="translate(31.6591796875,0)"><text class="ytitle" transform="rotate(-90,12.340624999999989,498)" x="12.340624999999989" y="498" text-anchor="middle" style="font-family: 'Open Sans', verdana, arial, sans-serif; font-size: 44px; fill: rgb(42, 63, 95); opacity: 1; font-weight: normal; white-space: pre;">Predicted Curvature</text></g><g class="annotation" data-index="0" style="opacity: 1;"><g class="annotation-text-g" transform="rotate(0,1451,75.49999999999994)"><g class="cursor-pointer" transform="translate(585,51)"><rect class="bg" x="0.5" y="0.5" width="1732" height="48" style="stroke-width: 1px; stroke: rgb(0, 0, 0); stroke-opacity: 0; fill: rgb(0, 0, 0); fill-opacity: 0;"/><text class="annotation-text" text-anchor="middle" x="866.546875" y="39" style="font-family: 'Open Sans', verdana, arial, sans-serif; font-size: 37px; fill: rgb(42, 63, 95); fill-opacity: 1; white-space: pre;"><tspan style="font-weight:bold">Predicted Curvature at Anchors (Transformed Curve #1 vs. Transformed Curve #2)</tspan></text></g></g></g></g></svg>