<svg class="main-svg" xmlns="http://www.w3.org/2000/svg" xmlns:xlink="http://www.w3.org/1999/xlink" width="3500" height="1000" style="" viewBox="0 0 3500 1000"><rect x="0" y="0" width="3500" height="1000" style="fill: rgb(255, 255, 255); fill-opacity: 1;"/><defs id="defs-29c595"><g class="clips"><clipPath id="clip29c595xyplot" class="plotclip"><rect width="2582" height="796"/></clipPath><clipPath class="axesclip" id="clip29c595x"><rect x="160" y="0" width="2582" height="1000"/></clipPath><clipPath class="axesclip" id="clip29c595y"><rect x="0" y="100" width="3500" height="796"/></clipPath><clipPath class="axesclip" id="clip29c595xy"><rect x="160" y="100" width="2582" height="796"/></clipPath></g><g class="gradients"/><g class="patterns"/></defs><g class="bglayer"><rect class="bg" x="160" y="100" width="2582" height="796" style="fill: rgb(229, 236, 246); fill-opacity: 1; stroke-width: 0;"/></g><g class="layer-below"><g class="imagelayer"/><g class="shapelayer"/></g><g class="cartesianlayer"><g class="subplot xy"><g class="layer-subplot"><g class="shapelayer"/><g class="imagelayer"/></g><g class="gridlayer"><g class="x"><path class="xgrid crisp" transform="translate(612.98,0)" d="M0,100v796" style="stroke: rgb(255, 255, 255); stroke-opacity: 1; stroke-width: 1px;"/><path class="xgrid crisp" transform="translate(1065.96,0)" d="M0,100v796" style="stroke: rgb(255, 255, 255); stroke-opacity: 1; stroke-width: 1px;"/><path class="xgrid crisp" transform="translate(1518.95,0)" d="M0,100v796" style="stroke: rgb(255, 255, 255); stroke-opacity: 1; stroke-width: 1px;"/><path class="xgrid crisp" transform="translate(1971.93,0)" d="M0,100v796" style="stroke: rgb(255, 255, 255); stroke-opacity: 1; stroke-width: 1px;"/><path class="xgrid crisp" transform="translate(2424.91,0)" d="M0,100v796" style="stroke: rgb(255, 255, 255); stroke-opacity: 1; stroke-width: 1px;"/></g><g class="y"><path class="ygrid crisp" transform="translate(0,816.42)" d="M160,0h2582" style="stroke: rgb(255, 255, 255); stroke-opacity: 1; stroke-width: 1px;"/><path class="ygrid crisp" transform="translate(0,660.4)" d="M160,0h2582" style="stroke: rgb(255, 255, 255); stroke-opacity: 1; stroke-width: 1px;"/><path class="ygrid crisp" transform="translate(0,348.38)" d="M160,0h2582" style="stroke: rgb(255, 255, 255); stroke-opacity: 1; stroke-width: 1px;"/><path class="ygrid crisp" transform="translate(0,192.36)" d="M160,0h2582" style="stroke: rgb(255, 255, 255); stroke-opacity: 1; stroke-width: 1px;"/></g></g><g class="zerolinelayer"><path class="xzl zl crisp" transform="translate(160,0)" d="M0,100v796" style="stroke: rgb(255, 255, 255); stroke-opacity: 1; stroke-width: 2px;"/><path class="yzl zl crisp" transform="translate(0,504.39)" d="M160,0h2582" style="stroke: rgb(255, 255, 255); stroke-opacity: 1; stroke-width: 2px;"/></g><path class="xlines-below"/><path class="ylines-below"/><g class="overlines-below"/><g class="xaxislayer-below"/><g class="yaxislayer-below"/><g class="overaxes-below"/><g class="plot" transform="translate(160,100)" clip-path="url(#clip29c595xyplot)"><g class="scatterlayer mlayer"><g class="trace scatter traced13f44" style="stroke-miterlimit: 2; opacity: 1;"><g class="fills"/><g class="errorbars"/><g class="lines"><path class="js-line" d="M0,267.14L2.26,287.53L4.53,340.14L6.79,191.06L9.06,186.7L11.32,181.84L13.59,195.41L15.85,225.02L18.12,237.35L20.38,245.14L22.65,246.93L27.18,237.27L29.44,235.19L31.71,237.25L33.97,250.75L38.5,270.6L40.77,238.99L45.3,273.55L47.56,277.57L52.09,252.53L54.36,244.94L56.62,243.62L58.89,243.88L63.42,243.01L65.68,240.99L67.95,235.92L70.21,235.35L74.74,250.43L77.01,250.59L79.27,244.7L81.54,181.07L83.8,263.55L86.07,245.03L90.6,227.62L92.86,223.77L99.66,214.5L101.92,210.99L106.45,201.03L108.72,199.61L110.98,203.27L113.25,204.25L115.51,196.54L117.78,195.38L120.04,209.97L122.31,199.89L126.84,197.07L129.1,189.17L133.63,180.34L135.89,178.96L138.16,179.75L140.42,181.71L144.95,189.09L147.22,193.5L149.48,199.34L151.75,210.15L154.01,183.04L156.28,196.45L158.54,197.54L160.81,200.87L165.34,214.6L167.6,222.71L174.4,252.37L176.66,251.26L181.19,273.64L183.46,289.78L185.72,310.6L187.99,320.69L215.17,556.89L217.43,561.68L221.96,582.3L224.23,593.73L233.29,633.34L235.55,641L237.82,646.98L240.08,647.16L255.94,674.18L258.2,676.47L260.46,674.59L262.73,677.5L267.26,677.07L269.52,676.31L274.05,673.39L276.32,671.12L278.58,667.96L280.85,667.73L283.11,666.52L285.38,663.28L292.17,648.53L294.44,641.78L301.23,627.22L303.5,620.72L319.35,565.56L321.62,555.64L326.15,536.57L328.41,528.01L332.94,506.94L335.21,495.17L342,464.24L344.27,448.1L353.33,388.33L355.59,362.28L360.12,321.55L362.39,302.43L364.65,279.96L366.92,242.63L371.45,199.67L373.71,182.4L375.98,164.95L378.24,136.98L382.77,110.16L385.04,100.72L389.56,82.7L391.83,64.13L394.09,58.02L396.36,54.98L400.89,49.78L403.15,46.44L405.42,46.1L407.68,43.56L409.95,47.26L412.21,47.06L416.74,47.01L419.01,50.45L421.27,59.95L423.54,64.88L425.8,80.05L428.07,82.07L430.33,87.3L432.6,95.13L437.13,123.73L439.39,128.05L441.66,155.21L443.92,168.21L448.45,204.59L450.72,230.7L452.98,245.02L455.25,278.45L462.04,330.26L464.31,347.86L466.57,369.26L468.84,380.25L477.9,428.67L480.16,436.53L493.75,473.25L496.02,474L505.08,492.46L507.34,497.43L511.87,504.98L514.14,506.81L516.4,507.96L518.66,511.83L529.99,528.05L532.25,529.35L534.52,529.37L536.78,532.52L541.31,538.02L543.58,539.26L552.64,545.36L554.9,544.78L557.17,543.1L559.43,546.1L561.7,547.27L563.96,546.65L568.49,544.09L570.76,543.72L575.29,543.17L577.55,539.68L579.82,535.24L582.08,535.46L584.35,535.49L586.61,533.51L593.41,523.13L595.67,522.05L597.94,520.91L600.2,518.53L602.47,516.16L604.73,498.01L607,503.56L609.26,505.71L613.79,497.35L616.06,491.2L620.59,478.13L622.85,474.73L627.38,467.4L629.65,461.73L631.91,462.07L634.18,442.65L643.24,438.45L645.5,434.95L652.29,419.16L654.56,417.27L659.09,411.87L661.35,404.96L670.41,393.17L672.68,389.85L684,373.3L686.27,372.31L693.06,373.56L695.33,364.7L702.12,368.7L704.39,367.52L708.92,363.44L711.18,362.35L717.98,360.64L720.24,361.4L722.51,363.13L724.77,367.73L727.04,364.48L729.3,365.96L733.83,370.9L736.1,370.51L740.63,370.49L742.89,372.44L747.42,376.07L749.69,376.79L756.48,380.53L758.75,385.55L761.01,390.52L763.28,390.22L767.81,389.96L770.07,391.87L776.86,405.77L779.13,408.3L783.66,411.17L785.92,411.65L788.19,411.37L790.45,412.56L792.72,423.75L794.98,422.64L797.25,423.21L799.51,426.16L808.57,441.95L810.84,444.91L815.37,448.69L817.63,448.96L819.9,448.09L822.16,466.62L824.43,464.02L826.69,466.19L831.22,473.45L833.49,478.4L842.55,501.38L844.81,504.76L849.34,508.89L851.61,519.51L853.87,520.03L856.14,527.85L869.73,581.83L871.99,591.37L878.79,614.17L881.05,613.21L887.85,635.67L890.11,644.5L896.91,668.75L899.17,674.47L901.44,678.47L903.7,690.26L905.96,688.08L908.23,691.3L915.02,702.22L917.29,704.43L921.82,708.13L924.08,708.51L926.35,712.79L928.61,713.13L933.14,711.83L935.41,709.99L939.94,707.19L942.2,706.44L944.47,705.85L946.73,702.03L955.79,683.55L958.06,674.2L962.59,660.64L964.85,652.06L969.38,637.11L971.65,628.16L978.44,598.73L980.71,587.68L985.24,572.76L987.5,563.04L996.56,526.45L998.83,520.17L1010.15,483.16L1012.42,479.99L1019.21,460.86L1021.48,457.31L1028.27,445.2L1030.54,441.09L1035.06,433.46L1037.33,432.62L1044.12,421.37L1046.39,419.81L1055.45,407.85L1057.71,405.24L1062.24,401.05L1064.51,398.37L1066.77,397.89L1069.04,395.28L1073.57,388.78L1075.83,386.51L1078.1,384.95L1080.36,379.29L1082.63,380.13L1084.89,377.82L1093.95,362.06L1096.22,359.5L1098.48,353.95L1100.75,353.6L1107.54,336.86L1109.81,330.58L1116.6,313.94L1118.87,300.29L1121.13,305.34L1123.4,295.97L1136.99,233.88L1139.25,212.6L1141.52,215.75L1143.78,202.63L1152.84,157.55L1155.11,148.35L1161.9,116.1L1164.16,111.54L1175.49,91.37L1177.75,87.89L1180.02,68.96L1182.28,83.35L1189.08,74.17L1191.34,77.71L1193.61,81.37L1195.87,87.06L1198.14,93.67L1200.4,92.91L1202.67,85.65L1204.93,100.52L1207.2,103.42L1209.46,103.25L1213.99,110.34L1216.26,116.65L1218.52,126.8L1220.79,148.92L1223.05,128.64L1225.32,165.14L1229.85,174.94L1232.11,182.41L1236.64,199.99L1238.91,212.13L1243.44,233.02L1245.7,233.3L1247.97,244.31L1250.23,249.97L1254.76,261.32L1257.03,268.69L1261.56,281.44L1263.82,284.66L1266.09,283.09L1268.35,291.98L1281.94,310.05L1284.21,311.36L1286.47,313.06L1288.74,309.05L1291,313.58L1293.26,312.87L1304.59,319.58L1306.85,320.01L1309.12,319.6L1311.38,320.45L1313.65,323.48L1315.91,320.7L1318.18,319.3L1320.44,319.41L1327.24,320.3L1329.5,319.89L1334.03,320.8L1336.3,322.53L1338.56,321.23L1340.83,326.66L1345.36,320.83L1347.62,319.45L1349.89,319.52L1352.15,320.8L1356.68,322.84L1358.95,322.2L1363.48,320.38L1365.74,311.6L1368.01,333.51L1370.27,330.35L1372.54,327.99L1374.8,327.71L1379.33,331.96L1381.6,334.47L1390.66,342.19L1392.92,342.98L1395.19,344.02L1397.45,349.74L1399.72,354.17L1401.98,355.52L1404.25,354.5L1406.51,357.66L1408.78,363.1L1411.04,364.62L1415.57,369.58L1417.84,372.14L1424.63,377.25L1426.89,379.18L1429.16,373.88L1431.42,387.93L1433.69,389.85L1435.95,389.56L1440.48,390.29L1442.75,391.14L1445.01,393.46L1447.28,397.58L1449.54,401.37L1451.81,402.15L1458.6,398.81L1460.87,396.67L1463.13,395.69L1465.4,401.39L1467.66,401.69L1469.93,399.31L1476.72,393.92L1478.99,392.28L1485.78,386.28L1488.05,382.72L1492.58,376.64L1494.84,375.1L1497.11,373.16L1499.37,363.26L1501.64,362.29L1503.9,359.54L1515.23,341.36L1517.49,336.52L1531.08,311.06L1533.35,312.39L1535.61,312.65L1537.88,302.55L1542.41,296.02L1544.67,292.41L1549.2,281.25L1551.46,284.83L1553.73,282.35L1555.99,276.99L1560.52,268.14L1562.79,265.48L1565.05,265.96L1567.32,263.23L1569.58,268.06L1571.85,267.75L1574.11,267.05L1576.38,263.63L1578.64,264.28L1580.91,267.36L1583.17,268.2L1585.44,267.48L1587.7,266.67L1589.97,267.64L1594.5,275.41L1596.76,276.36L1601.29,280.59L1603.56,283.45L1610.35,293.7L1612.62,295.85L1614.88,298.9L1617.15,306.65L1621.68,312.83L1623.94,315.94L1630.74,329.58L1633,332.14L1635.27,334.38L1637.53,343.18L1642.06,347.41L1644.33,350.97L1651.12,362.64L1653.39,364.4L1655.65,369.08L1657.92,370.55L1669.24,382.88L1671.51,383.97L1673.77,383.81L1676.04,386.45L1680.56,389.88L1682.83,390.93L1687.36,392.79L1689.62,393.13L1691.89,390.87L1694.15,393.44L1696.42,394.56L1698.68,394.39L1707.74,392.68L1710.01,389.39L1712.27,392.31L1714.54,391.05L1725.86,382.73L1728.13,381.29L1732.66,377.12L1734.92,374.75L1748.51,357.69L1750.78,353.84L1757.57,341.25L1759.84,339.64L1771.16,317.9L1773.43,316.66L1784.75,294.06L1787.02,292.58L1793.81,279.19L1796.08,274.34L1798.34,271.42L1800.61,266.38L1807.4,257.46L1809.66,254.71L1816.46,245.12L1818.72,229.46L1820.99,231.19L1823.25,234.27L1827.78,234.92L1830.05,234.87L1832.31,233.71L1834.58,231.13L1839.11,225.33L1841.37,224.49L1843.64,221.05L1845.9,211.85L1848.17,210.71L1850.43,206.33L1852.7,203.79L1854.96,203.63L1859.49,202.48L1861.76,201.07L1870.82,195.14L1873.08,195.07L1875.35,169.66L1877.61,175.32L1882.14,169.04L1884.41,165.01L1900.26,137.71L1902.53,117.14L1904.79,121.79L1907.06,117.65L1916.12,104.47L1918.38,102.36L1922.91,98.03L1925.18,98.12L1927.44,94.52L1929.71,108.68L1931.97,83.09L1934.24,83.14L1936.5,83.1L1938.76,86.21L1941.03,85.27L1943.29,82.16L1945.56,84.21L1947.82,90.52L1950.09,99.03L1952.35,103.07L1954.62,89.29L1956.88,99.3L1959.15,101.73L1961.41,115.88L1965.94,111.49L1968.21,115.49L1972.74,126.51L1975,135L1977.27,145.37L1979.53,170.08L1981.8,156.4L1984.06,196.29L1986.33,200.12L1988.59,207.23L1993.12,225.94L1995.39,237.64L2004.45,302.3L2006.71,312.36L2008.98,313.77L2011.24,347.73L2015.77,360.13L2018.04,369.13L2029.36,430.62L2031.63,436.92L2036.16,444.21L2038.42,447.72L2040.69,468.12L2042.95,469.24L2045.22,471.87L2047.48,476.28L2054.28,496.2L2056.54,503.4L2061.07,514.19L2063.34,517.08L2067.86,519.88L2070.13,543.13L2072.39,535.25L2074.66,537.96L2076.92,541.36L2079.19,546.61L2092.78,586.01L2095.04,591.72L2099.57,609.85L2101.84,612.52L2106.37,619.61L2108.63,625.05L2115.43,646.71L2117.69,654.91L2122.22,667.86L2124.49,670.25L2126.75,695.58L2129.02,690.58L2133.55,699.87L2135.81,706.68L2147.14,721.15L2149.4,720.3L2151.67,718.93L2153.93,723.24L2156.2,745.83L2158.46,743.37L2160.73,743.19L2162.99,744.84L2165.26,742.89L2167.52,756.2L2169.79,749.41L2172.05,721.65L2174.32,748.5L2176.58,730.67L2178.85,729.87L2181.11,722.49L2183.38,704.63L2185.64,730.24L2187.91,729.56L2190.17,720.55L2192.44,720L2194.7,717.1L2196.96,716.97L2199.23,703.24L2201.49,683.23L2203.76,695.08L2206.02,697.23L2208.29,676.14L2210.55,646.95L2212.82,651.4L2215.08,639.58L2217.35,639.65L2219.61,638.25L2221.88,626.38L2228.67,595.28L2230.94,580.37L2235.47,554.2L2237.73,574.55L2240,539.3L2242.26,534.01L2246.79,526.27L2249.06,518.42L2255.85,492.74L2258.12,488.83L2262.65,481.18L2264.91,476.15L2267.18,471.88L2269.44,465.46L2276.24,452.95L2278.5,451.78L2280.77,448.5L2283.03,443.04L2285.3,438.5L2287.56,436.44L2289.83,434.67L2292.09,430.53L2294.36,426.19L2296.62,425.22L2298.89,425.13L2301.15,423.36L2305.68,416.12L2307.95,414.8L2310.21,413.94L2312.48,411.47L2317.01,404.08L2319.27,402.78L2321.54,401.63L2323.8,398.17L2326.06,396.12L2328.33,401.82L2337.39,393.21L2339.65,392.33L2344.18,392.57L2346.45,391.47L2355.51,386.08L2357.77,387.35L2360.04,391.36L2362.3,390.2L2369.1,386.32L2371.36,385.41L2373.63,385.72L2375.89,387.36L2378.16,388.49L2380.42,388.03L2389.48,385.74L2391.75,382.89L2394.01,391.29L2396.28,390.07L2403.07,386.38L2405.34,386.8L2409.87,389.97L2412.13,389.44L2421.19,386.5L2423.46,384.94L2425.72,378.23L2427.99,385.25L2434.78,380.3L2437.05,379.03L2450.64,366.02L2452.9,365.07L2455.16,354.81L2457.43,354.44L2461.96,347.34L2464.22,342.57L2475.55,317.9L2477.81,315.11L2482.34,297.47L2484.61,295.39L2493.67,279.51L2495.93,275.4L2504.99,255.71L2507.26,253.83L2509.52,238.37L2511.79,240.95L2518.58,218.41L2520.85,214.74L2523.11,216.53L2525.38,219.84L2527.64,220.66L2529.91,218.21L2534.44,211.64L2536.7,210.88L2538.97,210.72L2541.23,209.09L2543.5,323.89L2545.76,213.87L2548.03,173.33L2550.29,160.66L2552.56,238.22L2554.82,193.71L2557.09,191.05L2559.35,203.84L2563.88,224.99L2566.15,225.74L2568.41,223.08L2570.68,223.64L2572.94,224.08L2575.21,227.55L2579.74,237.25L2582,184.85" style="vector-effect: non-scaling-stroke; fill: none; stroke: rgb(170, 0, 0); stroke-opacity: 1; stroke-width: 4px; opacity: 1;"/></g><g class="points"/><g class="text"/></g><g class="trace scatter traceda1c0a" style="stroke-miterlimit: 2; opacity: 1;"><g class="fills"/><g class="errorbars"/><g class="lines"><path class="js-line" d="M0,398.6L2.26,259.4L4.53,264.53L6.79,256.79L9.06,233.44L11.32,209.44L13.59,215.49L15.85,211.59L18.12,211.28L20.38,192.67L22.65,208.23L24.91,223.01L27.18,208.3L29.44,218.97L31.71,223.46L33.97,221.95L36.24,262.16L38.5,262.18L40.77,251.49L43.03,255.47L45.3,250.01L47.56,245.45L49.83,231.87L52.09,257.56L54.36,270.47L56.62,271.01L58.89,267.06L63.42,242.35L65.68,239.28L70.21,242.87L72.48,244.87L74.74,240.48L77.01,238.7L79.27,241.12L81.54,246.08L83.8,258.43L86.07,222.22L88.33,232.63L90.6,230.61L95.13,226.19L97.39,223.09L106.45,211.04L108.72,195.94L110.98,200.92L113.25,199.57L124.57,188.2L126.84,187.06L129.1,182.68L131.36,184.91L135.89,186.94L138.16,187.03L142.69,187.8L144.95,189.44L151.75,197.2L154.01,201.66L163.07,217.47L165.34,223.76L172.13,246.25L174.4,260.42L176.66,259.16L178.93,267.82L183.46,292.84L185.72,308.34L197.05,394.12L199.31,424.07L201.58,420.44L203.84,437.38L217.43,555.54L219.7,569.63L224.23,591.02L226.49,595.05L237.82,641.45L240.08,649.59L244.61,662.97L246.88,657.02L249.14,668.81L251.41,669.86L262.73,674.52L264.99,674.79L267.26,674.3L269.52,672.6L271.79,669.88L274.05,657.12L276.32,670.1L278.58,669.36L280.85,667.88L283.11,665.01L287.64,656.22L289.91,650.71L298.97,624.64L301.23,633.43L303.5,620.36L305.76,616.85L310.29,603.92L312.56,595.38L326.15,536.5L328.41,536.35L332.94,517.62L335.21,506.08L342,462.92L344.27,446.86L348.8,408.54L351.06,409.09L355.59,371.12L357.86,347.36L364.65,261.58L366.92,226.66L369.18,201.4L371.45,202.14L382.77,111.85L385.04,97.19L389.56,71.31L391.83,65.17L398.62,51.74L400.89,48.15L405.42,39.8L407.68,40.77L409.95,59.76L412.21,61.72L414.48,43.5L416.74,50.86L423.54,67.2L425.8,59.21L428.07,89.26L430.33,93.28L432.6,97.61L434.86,104.89L437.13,117.93L439.39,138.78L443.92,176.51L446.19,179.22L448.45,228.78L450.72,239.27L455.25,274.16L457.51,296.33L464.31,358.7L466.57,374.88L468.84,387.97L471.1,384.1L473.37,412.82L475.63,415.68L480.16,427.04L482.43,434.69L491.49,465.55L493.75,471.43L498.28,477.59L500.55,478.44L502.81,485.31L505.08,504.02L507.34,496.91L509.61,494.36L514.14,500.75L516.4,502.15L520.93,510.81L523.19,516.25L527.72,526.1L529.99,529.24L532.25,533.7L534.52,529.04L536.78,540.04L539.05,534.79L541.31,535.8L543.58,542.58L548.11,534.8L550.37,535.29L552.64,537.09L554.9,537.29L557.17,537.1L559.43,540.98L561.7,545.21L563.96,546.53L568.49,556.77L570.76,535.45L573.02,535.42L575.29,531.87L577.55,540.82L579.82,544.73L582.08,535.12L584.35,534.17L586.61,536.46L588.88,531.66L591.14,523.25L593.41,522.05L597.94,528.65L600.2,528.54L602.47,526.17L604.73,487.27L607,506.6L609.26,503.26L611.53,490.87L613.79,491.44L616.06,492.32L618.32,487.99L625.12,471.76L627.38,469.81L629.65,467.98L631.91,463.95L634.18,456.86L636.44,460.3L638.71,438.72L640.97,435.63L647.76,428.26L650.03,426.87L652.29,423.96L654.56,418.6L659.09,408.85L661.35,407.19L663.62,405.62L665.88,402.3L668.15,396.38L670.41,384.99L672.68,392.68L674.94,389.32L681.74,379.74L684,377.98L690.8,370.51L693.06,369.27L697.59,368L699.86,360.42L702.12,364.85L704.39,363.25L708.92,360.61L711.18,359.79L715.71,358.98L717.98,359.09L731.57,361.97L733.83,362.96L742.89,368.95L745.16,369.81L747.42,374.27L749.69,374.18L754.22,377.59L756.48,380.4L763.28,387.9L765.54,389.38L767.81,393.99L770.07,394.07L785.92,413.96L788.19,418.84L790.45,417.26L792.72,420.72L808.57,443.92L810.84,445.72L822.16,462.51L824.43,467.27L831.22,479.93L833.49,482.01L835.75,483.17L838.02,490.67L840.28,498.09L842.55,500.28L844.81,504.22L847.08,510.4L867.46,582.5L869.73,599.11L874.26,607.13L876.52,610.28L881.05,622.6L883.32,631.07L890.11,655.59L892.38,661.82L896.91,674.14L899.17,678.1L901.44,683.5L903.7,686.25L905.96,695.68L908.23,700.61L910.49,702.87L912.76,703.6L915.02,703.89L917.29,708.11L919.55,698.46L921.82,695.18L924.08,698.94L926.35,698.23L928.61,713.3L930.88,697.81L933.14,693.16L935.41,628.9L937.67,703.66L939.94,703.27L942.2,701.32L944.47,697.66L946.73,695.83L949,692.44L953.53,681.47L955.79,681.75L958.06,683.24L960.32,683L962.59,679.31L964.85,645.75L967.12,605.07L969.38,629.1L973.91,623.78L976.18,616.4L978.44,614.29L980.71,602.58L989.77,554.07L992.03,543.55L994.3,534.66L996.56,551.13L998.83,501.19L1001.09,512.69L1003.36,516.09L1005.62,498.01L1010.15,484.16L1012.42,477.89L1014.68,474.5L1016.95,468.02L1023.74,460.2L1026.01,472.57L1028.27,442.06L1030.54,433.97L1032.8,432.17L1035.06,426.56L1037.33,424.88L1039.59,425.11L1044.12,418.88L1046.39,415.7L1048.65,412.12L1050.92,405.81L1055.45,388.63L1057.71,390.94L1059.98,385.39L1062.24,389.3L1064.51,376.07L1066.77,370.48L1069.04,374.84L1071.3,382.14L1073.57,386.57L1075.83,387.4L1078.1,387.45L1080.36,384.28L1084.89,369.58L1087.16,366.43L1091.69,369.09L1093.95,368.35L1096.22,362.34L1098.48,353.05L1100.75,390.87L1103.01,338.65L1109.81,327.25L1112.07,319.64L1114.34,311.32L1116.6,310.4L1121.13,292.01L1123.4,279.9L1127.93,262.05L1130.19,257.73L1134.72,247.33L1136.99,200.68L1139.25,200.43L1141.52,191L1150.58,158.91L1152.84,152.19L1159.64,135.09L1161.9,130.46L1166.43,124.28L1168.69,65.64L1170.96,98.56L1173.22,94.46L1175.49,91.11L1177.75,84.95L1180.02,83.61L1182.28,83.95L1189.08,79.07L1191.34,77.61L1193.61,73.87L1195.87,86.34L1198.14,79.71L1200.4,84.72L1202.67,90.37L1204.93,103.45L1207.2,94.75L1209.46,101.38L1211.73,115.56L1213.99,117.53L1216.26,112.23L1218.52,139.27L1223.05,144.14L1225.32,150.04L1227.58,158.92L1229.85,177.39L1232.11,195.76L1234.38,205.33L1236.64,185.36L1238.91,211.87L1243.44,225.96L1245.7,234.78L1254.76,267.81L1257.03,270.74L1261.56,280.13L1263.82,285.77L1268.35,293.66L1270.62,295.97L1272.88,301.09L1275.15,302.28L1284.21,311.48L1286.47,311.98L1291,315.95L1293.26,316.75L1297.79,319.12L1300.06,319.22L1302.32,318.88L1304.59,320.01L1311.38,321.14L1313.65,321.27L1318.18,319.8L1320.44,320.51L1327.24,320.63L1329.5,320.43L1334.03,318.59L1336.3,319.17L1345.36,319.89L1347.62,319.18L1349.89,318.23L1352.15,319.75L1358.95,320.14L1361.21,321L1368.01,321.78L1370.27,324.26L1372.54,324.13L1374.8,325.4L1381.6,330.17L1383.86,330.87L1386.13,334.33L1388.39,334.61L1399.72,347.32L1401.98,350.75L1404.25,351.18L1406.51,354.45L1417.84,371.34L1420.1,371.87L1435.95,391.83L1438.22,391.87L1449.54,401.48L1451.81,403.27L1456.34,404.55L1458.6,404.71L1467.66,404.31L1469.93,402.86L1472.19,403.08L1474.46,401.46L1490.31,386.28L1492.58,382.61L1503.9,361.04L1506.17,360.59L1512.96,344.9L1515.23,339.2L1519.76,328.77L1522.02,327.07L1528.82,312.33L1531.08,307.35L1537.88,294.32L1540.14,293.62L1553.73,272.07L1555.99,270.56L1565.05,264.24L1567.32,263.31L1569.58,262.59L1571.85,264.15L1574.11,262.36L1576.38,263.22L1583.17,265.97L1585.44,266.39L1587.7,270.56L1589.97,269.89L1592.23,271.58L1594.5,274.81L1599.03,281.7L1601.29,284.06L1603.56,285.98L1605.82,291.37L1608.09,292.36L1610.35,294.88L1619.41,311.59L1621.68,313.91L1623.94,320.5L1626.21,322.86L1628.47,325.48L1630.74,329.8L1637.53,342.79L1639.8,345.31L1642.06,350.92L1644.33,353.14L1648.86,359.14L1651.12,362.86L1655.65,369.77L1657.92,371.83L1660.18,375.69L1662.45,375.73L1664.71,377.23L1666.98,380.25L1671.51,384.62L1673.77,386.24L1678.3,388.79L1680.56,386.47L1682.83,389.42L1685.09,390.42L1689.62,393.83L1691.89,393.84L1698.68,394.61L1700.95,387.9L1703.21,392.23L1705.48,392.48L1707.74,393.29L1710.01,392.5L1714.54,389.64L1716.8,388.94L1719.07,388.38L1721.33,382.44L1723.6,383.63L1725.86,382.2L1728.13,381.07L1730.39,378.6L1734.92,371.72L1737.19,370.02L1739.45,369.19L1741.72,366.04L1746.25,361L1748.51,357.27L1757.57,340.49L1759.84,338.22L1762.1,338.15L1764.37,330.1L1766.63,330.16L1768.9,325.79L1780.22,302.85L1782.49,300.09L1789.28,290.72L1791.55,286.61L1800.61,269.66L1802.87,267.86L1807.4,261.8L1809.66,258.52L1818.72,246.11L1820.99,244.77L1839.11,226.28L1841.37,224.25L1854.96,210.34L1857.23,206.05L1859.49,206.86L1861.76,204.18L1875.35,185.66L1877.61,177.4L1879.88,179.1L1882.14,174.81L1893.47,151.97L1895.73,146.45L1898,138.31L1900.26,137.41L1907.06,124.31L1909.32,119.42L1916.12,104.29L1918.38,96.71L1920.65,97.22L1922.91,95L1936.5,82.53L1938.76,74.86L1941.03,85.34L1943.29,83.89L1947.82,84.66L1950.09,87.41L1954.62,93.6L1956.88,93.21L1959.15,103.53L1961.41,105.92L1965.94,113.55L1968.21,119.61L1972.74,139.15L1975,139.1L1979.53,157.78L1981.8,167.02L1986.33,192.03L1988.59,210.9L1995.39,242.96L1997.65,257.92L2002.18,294.58L2004.45,303.12L2015.77,373.38L2018.04,380.84L2031.63,436.91L2033.89,442.78L2045.22,476.85L2047.48,480.69L2061.07,512.13L2063.34,517.23L2072.39,538.05L2074.66,543.02L2083.72,562.99L2085.98,566.26L2095.04,589.17L2097.31,594.83L2106.37,617.12L2108.63,624.83L2113.16,637.51L2115.43,642.7L2129.02,684.03L2131.28,684.54L2144.87,720.02L2147.14,720.82L2149.4,719.73L2151.67,724.98L2156.2,733.23L2158.46,736.12L2160.73,739.08L2162.99,740.21L2165.26,730.32L2167.52,732.11L2172.05,738.09L2174.32,738.87L2181.11,734.81L2183.38,727.85L2187.91,726.25L2190.17,725.42L2192.44,721L2194.7,711.3L2196.96,699.18L2199.23,697.35L2210.55,665.47L2212.82,652.28L2217.35,629.76L2219.61,642.45L2221.88,606.51L2224.14,604.99L2226.41,600.92L2228.67,592.7L2237.73,546.33L2240,540.02L2242.26,538.35L2244.53,520.63L2246.79,516.29L2249.06,516.3L2251.32,511.92L2253.59,503.75L2260.38,479.85L2262.65,476.66L2267.18,468.75L2269.44,469.83L2271.71,458.81L2273.97,454.31L2278.5,448.74L2280.77,448.38L2283.03,446.39L2285.3,441.55L2289.83,434.44L2292.09,432.85L2294.36,430.24L2296.62,425.83L2298.89,424.79L2301.15,421L2305.68,419L2307.95,417.76L2314.74,411.04L2317.01,409.82L2321.54,407.45L2323.8,398.69L2326.06,399.83L2328.33,399.67L2330.59,398.94L2332.86,397.02L2337.39,393.9L2339.65,393.12L2344.18,392.2L2346.45,385.12L2348.71,389.03L2350.98,388.68L2357.77,386.22L2360.04,386.04L2371.36,385.46L2373.63,385.39L2378.16,385.63L2380.42,386.18L2387.22,386.78L2389.48,385.96L2391.75,385.62L2394.01,387.37L2398.54,388.73L2400.81,388.58L2412.13,389.6L2414.4,387.26L2421.19,385.69L2423.46,385.49L2425.72,384.37L2427.99,381.58L2432.52,375.07L2434.78,374.02L2437.05,374.07L2439.31,361.4L2441.58,348.72L2443.84,353.69L2446.11,355.68L2448.37,351.82L2452.9,350.41L2455.16,350L2457.43,348.37L2459.69,344.53L2475.55,306.28L2477.81,321.07L2480.08,323.81L2482.34,293.67L2484.61,233.37L2486.87,240.86L2489.14,241.21L2491.4,246.64L2495.93,250.7L2498.2,246.22L2502.73,262.1L2504.99,262.31L2511.79,240.66L2514.05,231.72L2516.32,227.64L2518.58,232.26L2523.11,258.61L2525.38,179.27L2527.64,188.58L2529.91,291.58L2532.17,343.7L2534.44,425.54L2536.7,361.53L2538.97,164.39L2543.5,187.94L2545.76,230.08L2548.03,257.99L2550.29,229.14L2552.56,217.98L2554.82,382.12L2557.09,211.49L2559.35,191.26L2561.62,202.73L2563.88,158.56L2566.15,231.47L2568.41,336.69L2572.94,511.05L2575.21,223.26L2577.47,249.88L2579.74,220.94L2582,240.54" style="vector-effect: non-scaling-stroke; fill: none; stroke: rgb(0, 170, 0); stroke-opacity: 1; stroke-width: 4px; opacity: 1;"/></g><g class="points"/><g class="text"/></g></g></g><g class="overplot"/><path class="xlines-above crisp" d="M0,0" style="fill: none;"/><path class="ylines-above crisp" d="M0,0" style="fill: none;"/><g class="overlines-above"/><g class="xaxislayer-above"><g class="xtick"><text text-anchor="middle" x="0" y="934" transform="translate(160,0)" style="font-family: 'Open Sans', verdana, arial, sans-serif; font-size: 37px; fill: rgb(42, 63, 95); fill-opacity: 1; white-space: pre; opacity: 1;">0</text></g><g class="xtick"><text text-anchor="middle" x="0" y="934" style="font-family: 'Open Sans', verdana, arial, sans-serif; font-size: 37px; fill: rgb(42, 63, 95); fill-opacity: 1; white-space: pre; opacity: 1;" transform="translate(612.98,0)">200</text></g><g class="xtick"><text text-anchor="middle" x="0" y="934" style="font-family: 'Open Sans', verdana, arial, sans-serif; font-size: 37px; fill: rgb(42, 63, 95); fill-opacity: 1; white-space: pre; opacity: 1;" transform="translate(1065.96,0)">400</text></g><g class="xtick"><text text-anchor="middle" x="0" y="934" style="font-family: 'Open Sans', verdana, arial, sans-serif; font-size: 37px; fill: rgb(42, 63, 95); fill-opacity: 1; white-space: pre; opacity: 1;" transform="translate(1518.95,0)">600</text></g><g class="xtick"><text text-anchor="middle" x="0" y="934" style="font-family: 'Open Sans', verdana, arial, sans-serif; font-size: 37px; fill: rgb(42, 63, 95); fill-opacity: 1; white-space: pre; opacity: 1;" transform="translate(1971.93,0)">800</text></g><g class="xtick"><text text-anchor="middle" x="0" y="934" style="font-family: 'Open Sans', verdana, arial, sans-serif; font-size: 37px; fill: rgb(42, 63, 95); fill-opacity: 1; white-space: pre; opacity: 1;" transform="translate(2424.91,0)">1000</text></g></g><g class="yaxislayer-above"><g class="ytick"><text text-anchor="end" x="159" y="12.95" transform="translate(0,816.42)" style="font-family: 'Open Sans', verdana, arial, sans-serif; font-size: 37px; fill: rgb(42, 63, 95); fill-opacity: 1; white-space: pre; opacity: 1;">−200</text></g><g class="ytick"><text text-anchor="end" x="159" y="12.95" style="font-family: 'Open Sans', verdana, arial, sans-serif; font-size: 37px; fill: rgb(42, 63, 95); fill-opacity: 1; white-space: pre; opacity: 1;" transform="translate(0,660.4)">−100</text></g><g class="ytick"><text text-anchor="end" x="159" y="12.95" style="font-family: 'Open Sans', verdana, arial, sans-serif; font-size: 37px; fill: rgb(42, 63, 95); fill-opacity: 1; white-space: pre; opacity: 1;" transform="translate(0,504.39)">0</text></g><g class="ytick"><text text-anchor="end" x="159" y="12.95" style="font-family: 'Open Sans', verdana, arial, sans-serif; font-size: 37px; fill: rgb(42, 63, 95); fill-opacity: 1; white-space: pre; opacity: 1;" transform="translate(0,348.38)">100</text></g><g class="ytick"><text text-anchor="end" x="159" y="12.95" style="font-family: 'Open Sans', verdana, arial, sans-serif; font-size: 37px; fill: rgb(42, 63, 95); fill-opacity: 1; white-space: pre; opacity: 1;" transform="translate(0,192.36)">200</text></g></g><g class="overaxes-above"/></g></g><g class="polarlayer"/><g class="ternarylayer"/><g class="geolayer"/><g class="funnelarealayer"/><g class="pielayer"/><g class="iciclelayer"/><g class="treemaplayer"/><g class="sunburstlayer"/><g class="glimages"/><defs id="topdefs-29c595"><g class="clips"/><clipPath id="legend29c595"><rect width="694" height="113" x="0" y="0"/></clipPath></defs><g class="layer-above"><g class="imagelayer"/><g class="shapelayer"/></g><g class="infolayer"><g class="legend" pointer-events="all" transform="translate(2793.64,100)"><rect class="bg" shape-rendering="crispEdges" width="694" height="113" x="0" y="0" style="stroke: rgb(68, 68, 68); stroke-opacity: 1; fill: rgb(255, 255, 255); fill-opacity: 1; stroke-width: 0px;"/><g class="scrollbox" transform="" clip-path="url(#legend29c595)"><g class="groups"><g class="traces" transform="translate(0,30.55)" style="opacity: 1;"><text class="legendtext" text-anchor="start" x="40" y="14.43" style="font-family: 'Open Sans', verdana, arial, sans-serif; font-size: 37px; fill: rgb(42, 63, 95); fill-opacity: 1; white-space: pre;">Predicted Curvature at Anchors #1</text><g class="layers" style="opacity: 1;"><g class="legendfill"/><g class="legendlines"><path class="js-line" d="M5,0h30" style="fill: none; stroke: rgb(170, 0, 0); stroke-opacity: 1; stroke-width: 4px;"/></g><g class="legendsymbols"><g class="legendpoints"/></g></g><rect class="legendtoggle" x="0" y="-25.55" width="688.125" height="51.1" style="fill: rgb(0, 0, 0); fill-opacity: 0;"/></g><g class="traces" transform="translate(0,81.65)" style="opacity: 1;"><text class="legendtext" text-anchor="start" x="40" y="14.43" style="font-family: 'Open Sans', verdana, arial, sans-serif; font-size: 37px; fill: rgb(42, 63, 95); fill-opacity: 1; white-space: pre;">Predicted Curvature at Anchors #2</text><g class="layers" style="opacity: 1;"><g class="legendfill"/><g class="legendlines"><path class="js-line" d="M5,0h30" style="fill: none; stroke: rgb(0, 170, 0); stroke-opacity: 1; stroke-width: 4px;"/></g><g class="legendsymbols"><g class="legendpoints"/></g></g><rect class="legendtoggle" x="0" y="-25.55" width="688.125" height="51.1" style="fill: rgb(0, 0, 0); fill-opacity: 0;"/></g></g></g><rect class="scrollbar" rx="20" ry="3" width="0" height="0" x="0" y="0" style="fill: rgb(128, 139, 164); fill-opacity: 1;"/></g><g class="g-gtitle"/><g class="g-xtitle"><text class="xtitle" x="1451" y="987.8" text-anchor="middle" style="font-family: 'Open Sans', verdana, arial, sans-serif; font-size: 44px; fill: rgb(42, 63, 95); opacity: 1; font-weight: normal; white-space: pre;">Anchor Point Index</text></g><g class="g-ytitle" transform="translate(31.6591796875,0)"><text class="ytitle" transform="rotate(-90,12.340624999999989,498)" x="12.340624999999989" y="498" text-anchor="middle" style="font-family: 'Open Sans', verdana, arial, sans-serif; font-size: 44px; fill: rgb(42, 63, 95); opacity: 1; font-weight: normal; white-space: pre;">Predicted Curvature</text></g><g class="annotation" data-index="0" style="opacity: 1;"><g class="annotation-text-g" transform="rotate(0,1451,75.49999999999994)"><g class="cursor-pointer" transform="translate(585,51)"><rect class="bg" x="0.5" y="0.5" width="1732" height="48" style="stroke-width: 1px; stroke: rgb(0, 0, 0); stroke-opacity: 0; fill: rgb(0, 0, 0); fill-opacity: 0;"/><text class="annotation-text" text-anchor="middle" x="866.546875" y="39" style="font-family: 'Open Sans', verdana, arial, sans-serif; font-size: 37px; fill: rgb(42, 63, 95); fill-opacity: 1; white-space: pre;"><tspan style="font-weight:bold">Predicted Curvature at Anchors (Transformed Curve #1 vs. Transformed Curve #2)</tspan></text></g></g></g></g></svg>