<svg class="main-svg" xmlns="http://www.w3.org/2000/svg" xmlns:xlink="http://www.w3.org/1999/xlink" width="3500" height="1000" style="" viewBox="0 0 3500 1000"><rect x="0" y="0" width="3500" height="1000" style="fill: rgb(255, 255, 255); fill-opacity: 1;"/><defs id="defs-a19ea6"><g class="clips"><clipPath id="clipa19ea6xyplot" class="plotclip"><rect width="2582" height="796"/></clipPath><clipPath class="axesclip" id="clipa19ea6x"><rect x="160" y="0" width="2582" height="1000"/></clipPath><clipPath class="axesclip" id="clipa19ea6y"><rect x="0" y="100" width="3500" height="796"/></clipPath><clipPath class="axesclip" id="clipa19ea6xy"><rect x="160" y="100" width="2582" height="796"/></clipPath></g><g class="gradients"/><g class="patterns"/></defs><g class="bglayer"><rect class="bg" x="160" y="100" width="2582" height="796" style="fill: rgb(229, 236, 246); fill-opacity: 1; stroke-width: 0;"/></g><g class="layer-below"><g class="imagelayer"/><g class="shapelayer"/></g><g class="cartesianlayer"><g class="subplot xy"><g class="layer-subplot"><g class="shapelayer"/><g class="imagelayer"/></g><g class="gridlayer"><g class="x"><path class="xgrid crisp" transform="translate(642.62,0)" d="M0,100v796" style="stroke: rgb(255, 255, 255); stroke-opacity: 1; stroke-width: 1px;"/><path class="xgrid crisp" transform="translate(1125.23,0)" d="M0,100v796" style="stroke: rgb(255, 255, 255); stroke-opacity: 1; stroke-width: 1px;"/><path class="xgrid crisp" transform="translate(1607.85,0)" d="M0,100v796" style="stroke: rgb(255, 255, 255); stroke-opacity: 1; stroke-width: 1px;"/><path class="xgrid crisp" transform="translate(2090.4700000000003,0)" d="M0,100v796" style="stroke: rgb(255, 255, 255); stroke-opacity: 1; stroke-width: 1px;"/><path class="xgrid crisp" transform="translate(2573.08,0)" d="M0,100v796" style="stroke: rgb(255, 255, 255); stroke-opacity: 1; stroke-width: 1px;"/></g><g class="y"><path class="ygrid crisp" transform="translate(0,820.83)" d="M160,0h2582" style="stroke: rgb(255, 255, 255); stroke-opacity: 1; stroke-width: 1px;"/><path class="ygrid crisp" transform="translate(0,740.65)" d="M160,0h2582" style="stroke: rgb(255, 255, 255); stroke-opacity: 1; stroke-width: 1px;"/><path class="ygrid crisp" transform="translate(0,660.48)" d="M160,0h2582" style="stroke: rgb(255, 255, 255); stroke-opacity: 1; stroke-width: 1px;"/><path class="ygrid crisp" transform="translate(0,580.3)" d="M160,0h2582" style="stroke: rgb(255, 255, 255); stroke-opacity: 1; stroke-width: 1px;"/><path class="ygrid crisp" transform="translate(0,419.94)" d="M160,0h2582" style="stroke: rgb(255, 255, 255); stroke-opacity: 1; stroke-width: 1px;"/><path class="ygrid crisp" transform="translate(0,339.76)" d="M160,0h2582" style="stroke: rgb(255, 255, 255); stroke-opacity: 1; stroke-width: 1px;"/><path class="ygrid crisp" transform="translate(0,259.58000000000004)" d="M160,0h2582" style="stroke: rgb(255, 255, 255); stroke-opacity: 1; stroke-width: 1px;"/><path class="ygrid crisp" transform="translate(0,179.4)" d="M160,0h2582" style="stroke: rgb(255, 255, 255); stroke-opacity: 1; stroke-width: 1px;"/></g></g><g class="zerolinelayer"><path class="xzl zl crisp" transform="translate(160,0)" d="M0,100v796" style="stroke: rgb(255, 255, 255); stroke-opacity: 1; stroke-width: 2px;"/><path class="yzl zl crisp" transform="translate(0,500.12)" d="M160,0h2582" style="stroke: rgb(255, 255, 255); stroke-opacity: 1; stroke-width: 2px;"/></g><path class="xlines-below"/><path class="ylines-below"/><g class="overlines-below"/><g class="xaxislayer-below"/><g class="yaxislayer-below"/><g class="overaxes-below"/><g class="plot" transform="translate(160,100)" clip-path="url(#clipa19ea6xyplot)"><g class="scatterlayer mlayer"><g class="trace scatter trace4e6207" style="stroke-miterlimit: 2; opacity: 1;"><g class="fills"/><g class="errorbars"/><g class="lines"><path class="js-line" d="M0,114.03L2.41,151.29L4.83,171.49L7.24,207.35L9.65,152.1L12.07,133.8L14.48,160.31L16.89,177.24L19.3,175.62L21.72,121.69L24.13,168.76L28.96,648.34L31.37,609.6L33.78,196.82L36.2,216.74L38.61,294.75L41.02,120.08L43.44,155.96L45.85,438.43L48.26,230.68L50.67,201.9L53.09,221.76L55.5,224.92L57.91,190.37L60.33,178.76L62.74,196.59L65.15,250.89L67.57,291.55L69.98,237.27L72.39,243.06L74.81,245.67L77.22,206.66L79.63,193.92L82.04,209.94L84.46,278.23L86.87,291.31L89.28,295.84L91.7,293.91L94.11,288.3L96.52,281.95L98.94,283.52L103.76,276.98L106.18,279.59L108.59,287.05L111,283.44L113.41,276.57L115.83,273.69L118.24,272.43L120.65,273.88L123.07,279.75L125.48,278.21L130.31,261.18L132.72,253.02L137.55,247.55L139.96,250.08L142.37,247.82L144.79,236.73L149.61,227.46L152.02,225.66L154.44,224.8L156.85,210.35L164.09,205.06L166.5,204.29L171.33,202.09L173.74,200.12L178.57,197.3L180.98,198.94L183.39,186.44L185.81,190.3L190.63,190.68L193.05,192.61L195.46,199.33L197.87,209.02L200.29,201.85L202.7,199.5L207.53,217.11L209.94,219.39L219.59,241.91L222,248.59L226.83,256.04L229.24,262.89L243.72,314.37L246.13,321.34L258.2,358.88L260.61,364.18L267.85,386.13L270.27,392.46L279.92,415.98L282.33,419.93L294.4,448.71L296.81,455.14L308.87,486.17L311.29,492.79L316.11,500.61L318.53,507.03L328.18,532.87L330.59,535.54L342.66,573.46L345.07,577.68L357.14,615.67L359.55,620.84L369.2,650.63L371.61,654.4L376.44,664.67L378.85,670.7L383.68,682.39L386.09,683.95L390.92,689.79L393.33,692.14L400.57,700.31L402.99,701.4L405.4,703.3L407.81,703.8L417.46,705.01L419.88,702.32L422.29,701.06L424.7,693.22L427.12,692.42L429.53,687.83L431.94,684.02L434.36,683.58L436.77,683.52L439.18,676.1L444.01,679.22L446.42,635.38L448.83,667.86L451.25,661.07L453.66,655.16L456.07,652.28L460.9,638.34L463.31,623.81L465.73,604.31L468.14,608.42L472.96,618.68L475.38,614.9L477.79,600.93L480.2,600.81L482.62,609.26L485.03,605.55L487.44,592.69L489.86,586.08L492.27,584L494.68,578.44L497.1,574.32L499.51,575.45L504.33,547.22L506.75,542.42L509.16,544.01L511.57,549.01L513.99,493.4L516.4,499.66L518.81,533.87L521.23,534L523.64,513.8L526.05,506.76L528.47,496.51L530.88,511.05L535.7,460.33L538.12,459.33L542.94,494.55L545.36,493.63L547.77,489.42L550.18,493.39L552.6,455.78L555.01,455.67L564.66,433.25L567.07,432.73L569.49,429.33L571.9,422.17L574.31,416.05L576.73,413.21L579.14,410.98L581.55,405.84L583.97,395.38L586.38,378.2L588.79,359.84L591.21,362.9L593.62,388.99L596.03,383.14L612.92,328.16L615.34,319.93L617.75,288.84L620.16,288.12L627.4,247.04L629.81,231.82L632.23,213.96L634.64,185.8L637.05,180.38L639.47,166.02L646.71,119.44L649.12,99.53L651.53,96.11L653.95,85.51L661.19,63.38L663.6,57.29L666.01,44.96L668.42,43.97L670.84,49.3L673.25,46.62L675.66,48.17L678.08,54.83L680.49,58.95L682.9,59.28L685.32,54.38L687.73,46.8L690.14,49.32L692.56,55.26L694.97,105.43L697.38,372.85L699.79,59.01L702.21,77.01L704.62,74.28L707.03,89.75L709.45,99.52L711.86,102.36L716.69,123.47L719.1,137.32L723.93,177.22L726.34,170.61L728.75,119.19L731.16,175.82L735.99,174.94L738.4,193.45L740.82,339.69L743.23,414.51L745.64,284.01L748.06,238.06L750.47,243.47L752.88,236.22L755.3,240.42L757.71,263.8L760.12,289.11L762.53,291.4L767.36,302.83L769.77,269.33L772.19,255.5L774.6,262.2L777.01,266.75L779.43,257.85L781.84,241.57L784.25,257.4L789.08,294.72L791.49,301.51L793.9,295.93L796.32,287.44L798.73,282.97L801.14,280.99L803.56,284.28L805.97,295.81L813.21,335.61L815.62,344.7L818.04,453.13L820.45,270.3L822.86,265.01L825.27,253.94L827.69,273.21L830.1,353.55L832.51,261.2L834.93,271.1L837.34,247.14L839.75,261.47L842.17,277.28L844.58,283.12L846.99,287.47L849.41,284.67L851.82,283.94L854.23,279.41L856.64,278.09L859.06,282.8L861.47,299.12L863.88,324.85L866.3,337.75L868.71,395.73L871.12,366.05L873.54,389.11L875.95,300.18L878.36,282.85L880.78,281.47L883.19,288.61L885.6,292.29L888.01,281.99L892.84,285.25L895.25,283.33L897.67,288.99L900.08,278.07L902.49,276.44L904.91,277.73L907.32,280.27L909.73,285.07L912.15,297.45L914.56,320.73L916.97,351.98L919.39,509.69L921.8,348.25L924.21,333.67L926.62,383.93L929.04,398.08L931.45,407.1L933.86,399.05L943.52,327.99L945.93,324.36L950.76,337.3L953.17,343.92L955.58,349.27L957.99,351.55L960.41,346.93L962.82,345.05L965.23,342.17L967.65,337.06L970.06,334.09L972.47,336.09L977.3,351.45L979.71,379.74L982.13,343.6L984.54,346.06L986.95,350.33L989.36,359.44L994.19,376.82L996.6,381.74L1001.43,382.07L1003.84,387.58L1008.67,417.27L1011.08,423.49L1013.5,418.06L1015.91,419.14L1018.32,422.37L1020.73,421.86L1025.56,416.37L1027.97,467.51L1032.8,457.99L1035.21,456.98L1037.63,462.77L1040.04,472.96L1049.69,507.24L1052.1,514.14L1059.34,532.22L1061.76,535.34L1064.17,547.06L1066.58,551.86L1071.41,558.7L1073.82,564.05L1088.3,608.98L1090.71,614.28L1093.13,602.39L1095.54,621.53L1102.78,630.71L1105.19,632.89L1114.84,641.95L1117.26,641.59L1119.67,630.07L1122.08,636.22L1124.5,637.22L1126.91,636L1131.74,628.75L1134.15,623.71L1141.39,610.2L1143.8,601.42L1146.21,597.45L1148.63,595.87L1151.04,590.08L1153.45,580.62L1165.52,525.75L1167.93,517.28L1172.76,502.39L1175.17,491.17L1187.24,424.34L1189.65,415.73L1192.06,401.09L1194.48,399.84L1213.78,307.66L1216.19,307.03L1230.67,256.41L1233.09,250.26L1245.15,220.24L1247.56,214.18L1252.39,204.01L1254.8,200.15L1257.22,191.04L1259.63,187.67L1262.04,186.67L1264.46,184.53L1274.11,171.94L1276.52,169.99L1278.93,169.24L1281.35,163.2L1286.17,162.51L1288.59,161.72L1295.83,159.43L1298.24,160.66L1300.65,155.38L1303.07,167.79L1307.89,160.75L1310.3,159.65L1315.13,161.14L1317.54,163.1L1322.37,168.36L1324.78,172.23L1327.2,176.57L1329.61,172.44L1332.02,170.37L1334.44,173.27L1336.85,175.39L1339.26,174.03L1341.67,173.15L1344.09,174.46L1348.91,181.22L1351.33,185.11L1353.74,188.53L1356.15,186.91L1360.98,181.45L1363.39,178.06L1365.81,178.12L1368.22,180.15L1373.04,177.12L1375.46,177.49L1377.87,179.24L1380.28,182.37L1385.11,187.76L1387.52,185.08L1389.94,181.86L1392.35,176.39L1394.76,170.41L1397.18,167.62L1402,168.97L1404.41,164.93L1406.83,161.51L1409.24,160.33L1411.65,161.3L1414.07,164.12L1416.48,166.28L1418.89,183.16L1423.72,161.03L1426.13,154.09L1428.55,150.88L1430.96,152.13L1433.37,156.44L1435.79,155.59L1438.2,151.79L1440.61,149.91L1443.02,150.74L1445.44,154.27L1450.26,165.95L1452.68,180.06L1455.09,177.84L1457.5,173.19L1459.92,170.12L1462.33,170.69L1464.74,172.98L1467.16,172.27L1469.57,173.66L1471.98,178.02L1479.22,198.73L1481.63,207.99L1484.05,205.89L1486.46,226.46L1491.29,234.27L1493.7,240.77L1500.94,268.33L1503.35,280.17L1510.59,311.36L1513,320.72L1515.42,342.55L1517.83,352.69L1520.24,359.27L1522.66,368.79L1527.48,396.78L1529.9,413.25L1537.13,457.53L1539.55,467.6L1544.37,478.89L1546.79,482.79L1549.2,506.46L1551.61,513.26L1556.44,526.64L1558.85,535.46L1568.5,568.98L1570.92,574.99L1578.16,589.64L1580.57,572.47L1582.98,593.76L1585.4,597.2L1590.22,598.93L1592.64,601.51L1599.87,609.08L1602.29,609.16L1604.7,607.41L1607.11,607.23L1609.53,608.38L1611.94,599.64L1614.35,596.21L1616.77,599.13L1619.18,599.06L1621.59,595.05L1624.01,592.4L1626.42,591.69L1628.83,590.08L1631.24,586.81L1638.48,572.67L1640.9,570.13L1645.72,552L1648.14,550.27L1652.96,545.56L1655.38,540.95L1662.61,518.91L1665.03,514.53L1669.85,506.96L1672.27,501.23L1679.51,485.3L1681.92,482.31L1684.33,479.01L1686.75,473.9L1696.4,450.93L1698.81,448.13L1703.64,443.45L1706.05,425.97L1708.46,432.96L1710.88,430.12L1715.7,422.93L1718.12,418.31L1722.94,410.28L1725.36,408.7L1737.42,394.06L1739.83,389.98L1749.49,383.18L1751.9,377.55L1759.14,380.99L1761.55,380.01L1766.38,376.52L1768.79,377.13L1771.2,377.99L1773.62,385.16L1776.03,380.7L1778.44,380.24L1788.1,378.64L1790.51,379.3L1792.92,379.02L1795.33,377.17L1797.75,375.85L1800.16,376.77L1802.57,378.96L1804.99,383.54L1807.4,382.16L1809.81,383.92L1821.88,381.62L1824.29,382.93L1826.7,383.71L1829.12,382.48L1831.53,381.3L1833.94,381.48L1836.36,381.78L1838.77,379.71L1841.18,384.63L1843.6,386.48L1853.25,382.76L1855.66,382.52L1860.49,384.06L1862.9,382.7L1867.73,380.6L1870.14,379.7L1872.55,376.32L1874.97,383.55L1877.38,384.49L1879.79,382.42L1882.21,379.76L1884.62,378.61L1889.44,375.68L1891.86,375.93L1894.27,375.15L1896.68,373.29L1906.34,368.05L1908.75,374.36L1911.16,372.41L1913.58,368.51L1920.81,360.17L1923.23,358.09L1930.47,348.67L1932.88,347.45L1935.29,347.45L1937.71,341.06L1940.12,343.84L1942.53,340.16L1954.6,314.44L1957.01,308.54L1961.84,298.96L1964.25,297.91L1966.66,274.51L1969.08,284.34L1978.73,239.88L1981.14,227.7L1988.38,191.8L1990.79,166.54L1993.21,172.38L1995.62,159.6L2005.27,114.93L2007.69,104.92L2014.93,75.86L2017.34,71.8L2024.58,59.54L2026.99,56.16L2034.23,46.38L2036.64,50.85L2039.06,52.94L2041.47,50.34L2046.3,45.36L2048.71,47.04L2051.12,51.75L2053.53,60.13L2055.95,55.94L2058.36,63.79L2063.19,74.67L2065.6,84.31L2068.01,104.62L2070.43,110.52L2072.84,121.18L2075.25,137.42L2077.67,144.28L2080.08,160.93L2082.49,178.33L2084.9,187.31L2092.14,226.87L2094.56,236.21L2099.38,251.68L2101.8,267.68L2104.21,276.99L2106.62,282.02L2111.45,291.49L2113.86,297.64L2123.51,320.58L2125.93,324.54L2128.34,333.63L2130.75,325.68L2137.99,337.8L2140.41,343.63L2150.06,354.91L2152.47,356.25L2154.88,359.02L2157.3,363.57L2159.71,371.5L2162.12,368.28L2164.54,373.21L2166.95,375.84L2169.36,375.47L2171.78,376.33L2174.19,377.1L2176.6,380.06L2179.01,384.4L2181.43,385.97L2186.25,386.53L2188.67,387.14L2191.08,384.88L2193.49,397.6L2200.73,395L2203.15,398.21L2207.97,409.78L2210.39,412.55L2215.21,414.57L2217.62,414.4L2220.04,412.66L2222.45,425.1L2227.28,426.8L2229.69,430.55L2244.17,460.71L2246.58,462.55L2248.99,463.04L2251.41,487.18L2253.82,479.09L2256.23,485.99L2263.47,518.31L2265.89,529.33L2273.13,560.47L2275.54,567.62L2277.95,584.78L2280.36,584.27L2290.02,639.22L2292.43,653.4L2297.26,676.37L2299.67,684.16L2302.08,702.6L2304.5,695.7L2309.32,710.2L2311.73,718.81L2316.56,732.29L2318.97,736.33L2321.39,739.39L2323.8,740.61L2326.21,736.54L2328.63,734.81L2331.04,736.73L2333.45,737.21L2335.87,737.83L2338.28,741.74L2340.69,744.49L2343.1,745.33L2347.93,724.65L2350.34,724.42L2352.76,728.15L2355.17,723L2360,713.78L2362.41,704.51L2364.82,685.58L2367.24,683.35L2372.06,666.7L2374.47,658.64L2379.3,633.65L2381.71,619.27L2386.54,587.59L2388.95,593.87L2391.37,575.88L2393.78,568.36L2403.43,519.76L2405.84,511.36L2422.74,466.61L2425.15,462.31L2427.56,454.58L2429.98,454.99L2442.04,433.27L2444.45,430.7L2454.11,415.75L2456.52,412.97L2458.93,411.62L2461.35,408.24L2471,393.42L2473.41,392.43L2478.24,384.56L2480.65,380.06L2487.89,368.5L2490.3,362.64L2499.96,336.13L2502.37,327.7L2504.78,326.27L2507.19,318.93L2514.43,289.33L2516.85,280.56L2521.67,149.87L2524.09,206.85L2526.5,417.77L2528.91,179.77L2531.33,199.98L2533.74,380.25L2536.15,390.23L2538.56,304.41L2540.98,238.59L2543.39,215.35L2545.8,205.91L2548.22,218.38L2550.63,164.27L2553.04,147.71L2555.46,136.77L2557.87,163.49L2560.28,279.51L2562.7,244.23L2565.11,169.93L2567.52,195.38L2569.93,154.73L2572.35,148.34L2574.76,141.35L2577.17,121.12L2579.59,126.53L2582,126.81" style="vector-effect: non-scaling-stroke; fill: none; stroke: rgb(170, 0, 0); stroke-opacity: 1; stroke-width: 4px; opacity: 1;"/></g><g class="points"/><g class="text"/></g><g class="trace scatter traceb32790" style="stroke-miterlimit: 2; opacity: 1;"><g class="fills"/><g class="errorbars"/><g class="lines"><path class="js-line" d="M0,149.03L2.41,144.25L4.83,142.68L7.24,135.09L9.65,136.23L12.07,133.56L14.48,142.61L16.89,149.05L19.3,145.63L21.72,146.33L24.13,152.82L28.96,174.41L31.37,170.12L33.78,189L36.2,188.3L38.61,186.43L41.02,187.95L48.26,209.88L50.67,217.66L55.5,238.18L57.91,218.7L60.33,248.78L62.74,252.51L67.57,262.98L69.98,268.93L74.81,276.36L77.22,278.11L79.63,285.5L82.04,287.74L91.7,294.62L94.11,294.67L96.52,294.63L98.94,296.78L103.76,295L106.18,293.15L113.41,285.08L115.83,285.94L127.89,266.26L130.31,262.04L149.61,225.66L152.02,222.18L154.44,222.26L156.85,204.54L164.09,205.43L166.5,204.97L171.33,202.13L173.74,200.02L176.16,198.13L178.57,197.53L180.98,195.02L183.39,204.21L185.81,199.41L188.22,198.95L190.63,203.4L193.05,204.16L195.46,203.25L197.87,204.67L205.11,213.28L207.53,201.26L209.94,245.26L212.35,245.2L214.76,243.83L217.18,240.67L219.59,253.44L222,249.54L224.42,253.21L226.83,260.46L231.66,276.4L234.07,281.47L236.48,289.49L238.9,276.81L241.31,310.22L243.72,310.65L246.13,314.48L248.55,321.59L260.61,358.36L263.03,362.14L267.85,372.63L270.27,393.89L272.68,389.36L275.09,393.42L277.5,398.68L279.92,406.42L284.74,421.2L287.16,424.22L289.57,426.02L291.98,441.79L294.4,443.06L296.81,449.01L304.05,467.93L306.46,480.88L311.29,494.15L313.7,504.59L320.94,540.51L323.35,559.94L325.77,554.96L328.18,555.55L330.59,555.01L333.01,555.7L335.42,560.01L337.83,567.4L345.07,591.19L347.48,598.7L349.9,593.13L352.31,616.78L354.72,636.04L357.14,643.36L359.55,647.61L361.96,645.25L364.38,650.38L366.79,652.49L371.61,657.89L374.03,655.41L376.44,656.88L378.85,663.43L381.27,665.35L383.68,663.66L386.09,668.29L388.51,650.38L390.92,700.75L393.33,702.62L395.75,703.26L398.16,708.31L400.57,710.99L402.99,709.31L407.81,701.57L410.22,701.36L412.64,605.9L415.05,686.94L417.46,707.75L419.88,714.59L422.29,694.42L424.7,591.06L427.12,697.04L429.53,697.3L431.94,699.36L434.36,697.04L439.18,687.01L441.59,687.64L444.01,686.7L446.42,688.01L453.66,654.25L456.07,659.65L458.49,642.37L460.9,640L463.31,641.24L465.73,635.03L468.14,623.95L470.55,621.31L472.96,621.76L475.38,619.21L477.79,612.54L480.2,613.81L482.62,586.92L485.03,588.19L489.86,579.95L492.27,576.54L501.92,548.31L504.33,544.53L509.16,532.08L511.57,528.21L513.99,525.38L516.4,520.2L521.23,508.02L523.64,506.14L526.05,505.2L528.47,502.23L530.88,514.84L533.29,484.01L535.7,483.06L538.12,478.5L542.94,472.08L545.36,467.5L550.18,458.94L552.6,455.49L555.01,451.05L557.42,444.33L559.84,441.56L562.25,434.25L567.07,429.73L569.49,428.63L571.9,425.39L574.31,419.46L579.14,409.47L581.55,406.3L586.38,398.65L588.79,375.2L591.21,385.97L593.62,381.01L598.44,365.1L600.86,354.56L610.51,313.5L612.92,307.07L615.34,303.44L617.75,263.01L620.16,279.99L622.58,262.82L632.23,194.07L634.64,180.28L644.29,134.49L646.71,106.98L653.95,87.25L656.36,81.75L663.6,67.3L666.01,63.9L673.25,46.73L675.66,44.81L678.08,42.17L680.49,43.85L682.9,44.32L685.32,42.07L687.73,39.8L690.14,40.46L692.56,53.26L694.97,83.67L697.38,88.28L699.79,62.05L702.21,87.92L704.62,98.81L709.45,96.12L711.86,101.08L716.69,116.38L719.1,129.54L723.93,214.72L726.34,137.93L728.75,184.43L731.16,191.36L738.4,215.35L740.82,225.4L745.64,245.28L748.06,251.74L750.47,270.71L752.88,264.66L757.71,271.14L760.12,275.92L764.95,285.96L767.36,288.49L769.77,290.43L772.19,297.15L774.6,296.78L777.01,288.76L779.43,297.59L781.84,311.82L784.25,302.58L786.67,305.74L789.08,306.91L791.49,309.59L793.9,307.85L796.32,307.74L801.14,307.2L803.56,306.02L805.97,308.37L808.38,307.53L815.62,306.94L818.04,305.78L822.86,304.85L825.27,304.9L832.51,301.57L834.93,300.38L839.75,297.27L842.17,297.47L844.58,297.44L846.99,296.15L856.64,291.16L859.06,291.15L866.3,287.62L868.71,287.23L878.36,285.14L880.78,284.33L897.67,286.37L900.08,286.81L904.91,290.67L907.32,291.2L909.73,290.87L912.15,294.34L919.39,297.17L921.8,299.86L926.62,305.13L929.04,306.42L931.45,308L933.86,311.86L936.28,311.63L938.69,314.22L943.52,320.14L945.93,324.28L950.76,330.34L953.17,332.73L955.58,339.66L957.99,338.59L960.41,343.94L962.82,346.57L967.65,352.44L970.06,356.44L979.71,369.65L982.13,380.09L989.36,382.93L991.78,385.41L1001.43,406.44L1003.84,409.05L1008.67,412.67L1011.08,421.37L1013.5,430.47L1015.91,429.65L1018.32,429.88L1020.73,433.21L1025.56,447.75L1027.97,455.44L1032.8,467.39L1035.21,471.37L1037.63,473.04L1040.04,472.81L1042.45,471.69L1044.87,493.53L1047.28,502.54L1049.69,502.78L1052.1,506.05L1054.52,511.39L1059.34,527.88L1061.76,538.87L1066.58,558.78L1069,563.29L1076.24,582.83L1078.65,569.04L1081.06,589.64L1083.47,595.1L1093.13,614.08L1095.54,620.49L1100.37,629.58L1102.78,633.47L1107.61,639.84L1110.02,616.93L1112.43,629.25L1114.84,633.86L1117.26,638.09L1119.67,636.68L1122.08,634.01L1124.5,632.96L1129.32,631.91L1131.74,629.35L1136.56,623.38L1138.98,617.54L1141.39,596.88L1143.8,598.25L1146.21,598.81L1148.63,596.55L1151.04,590.03L1153.45,579.45L1160.69,545.32L1163.11,536.3L1165.52,527.44L1167.93,522.8L1170.35,509.79L1172.76,503.88L1177.59,480.88L1180,465.88L1187.24,424.11L1189.65,414.59L1192.06,407.29L1194.48,393.17L1204.13,353.11L1206.54,340.21L1213.78,309.55L1216.19,302.79L1218.61,298.72L1221.02,286.21L1228.26,263.6L1230.67,257.07L1242.74,225.78L1245.15,222.6L1247.56,215.04L1249.98,200.95L1254.8,195.26L1257.22,193.32L1264.46,185.17L1266.87,182.42L1271.7,177.5L1274.11,168.83L1276.52,172.41L1278.93,170.15L1286.17,160.91L1288.59,159.41L1291,158.66L1293.41,159.22L1298.24,164.34L1300.65,167.67L1305.48,163.99L1307.89,163.59L1312.72,158.85L1315.13,158.72L1317.54,159.88L1319.96,162.6L1327.2,175.11L1329.61,176.26L1334.44,172.18L1336.85,170.63L1341.67,173.3L1344.09,175.71L1351.33,185.88L1353.74,173.13L1356.15,185.48L1358.57,183.55L1360.98,181.04L1363.39,180.48L1375.46,185.38L1377.87,186.84L1380.28,170.38L1382.7,179.56L1387.52,174.46L1389.94,173.63L1399.59,172.48L1402,172.24L1406.83,172.72L1409.24,157.82L1411.65,167.07L1414.07,164.02L1421.31,157.59L1423.72,156.2L1428.55,155.79L1430.96,156.59L1433.37,158.76L1435.79,152.48L1438.2,163.97L1440.61,160.91L1445.44,156.99L1447.85,156.69L1450.26,157.26L1452.68,158.98L1457.5,164.3L1459.92,169.51L1462.33,162.79L1464.74,178.24L1467.16,177.89L1469.57,180L1474.39,188.73L1476.81,193.91L1484.05,211.06L1486.46,219.29L1488.87,226.73L1491.29,228.78L1493.7,242.57L1496.11,248.44L1500.94,264.68L1503.35,276.91L1510.59,314.69L1513,324.69L1515.42,333.56L1517.83,355.42L1520.24,361.71L1522.66,372.31L1529.9,416.89L1532.31,433.59L1539.55,474.49L1541.96,482.44L1544.37,488.25L1546.79,498.48L1549.2,511.29L1551.61,516.71L1556.44,532.32L1558.85,541.47L1566.09,566.21L1568.5,572.12L1575.74,586.86L1578.16,580.33L1580.57,596.13L1582.98,597.73L1587.81,602.97L1590.22,601.73L1592.64,598.89L1595.05,599.21L1602.29,611.08L1604.7,610.24L1609.53,612.34L1611.94,598L1614.35,598.94L1616.77,597.14L1621.59,595.41L1624.01,596.72L1626.42,597.93L1628.83,591.94L1631.24,583.26L1633.66,579.6L1638.48,577.08L1640.9,572.74L1643.31,566.9L1645.72,564.62L1648.14,566.55L1650.55,530.39L1652.96,529.14L1655.38,522.63L1660.2,535.02L1662.61,531.2L1669.85,496.1L1672.27,495.39L1677.09,494.7L1679.51,492.95L1684.33,484.41L1686.75,460.84L1689.16,463.32L1691.57,456.85L1701.22,440.57L1703.64,438.06L1713.29,418.53L1715.7,417.28L1718.12,415.38L1720.53,411.01L1722.94,402.36L1725.36,404.72L1732.59,402.1L1735.01,399.1L1739.83,395.25L1742.25,393.77L1747.07,389.89L1749.49,387.06L1754.31,381.79L1756.73,382.18L1759.14,382.41L1761.55,372.47L1763.96,381.4L1766.38,386.14L1768.79,387.47L1771.2,387.37L1773.62,384.38L1776.03,379.16L1778.44,379.38L1780.86,378.54L1783.27,377.78L1785.68,378.25L1788.1,379.45L1790.51,379.28L1797.75,376.38L1800.16,373.55L1802.57,375.16L1804.99,384.73L1809.81,380.53L1812.23,378.99L1814.64,377.56L1817.05,377.69L1821.88,383.33L1824.29,383.5L1829.12,381.49L1831.53,379.06L1833.94,375.25L1836.36,374.14L1838.77,383.05L1841.18,381.94L1843.6,381.96L1846.01,383.16L1853.25,384L1855.66,384.17L1860.49,383.41L1862.9,379.63L1865.31,383.7L1867.73,382.42L1872.55,380.65L1874.97,380.63L1879.79,379.08L1882.21,378.28L1884.62,379.67L1887.03,377.31L1896.68,373.59L1899.1,371.92L1901.51,372.12L1903.92,370.56L1908.75,368.21L1911.16,366.68L1925.64,357.02L1928.05,354.32L1930.47,352.09L1932.88,347.73L1935.29,345.56L1937.71,345.01L1940.12,343.94L1942.53,338.33L1947.36,328.76L1949.77,320.5L1954.6,304.86L1957.01,310.22L1961.84,298.17L1964.25,289.57L1973.9,255.9L1976.32,248.08L1978.73,228.49L1981.14,233.95L2000.45,126.5L2002.86,125.98L2012.51,90.57L2014.93,82.88L2019.75,65.8L2022.16,63.97L2031.82,49.2L2034.23,46.93L2036.64,45.47L2039.06,45.73L2041.47,43.11L2043.88,50.4L2046.3,47.58L2048.71,49.45L2051.12,53.61L2053.53,62.26L2055.95,59.62L2058.36,70.21L2063.19,82.66L2065.6,89.89L2068.01,98.33L2070.43,114.49L2075.25,133.5L2077.67,144.02L2080.08,161.89L2082.49,171.59L2101.8,257.2L2104.21,263.71L2118.69,307.05L2121.1,310.82L2125.93,318.95L2128.34,323.82L2135.58,337.02L2137.99,340.53L2140.41,343.35L2142.82,344.53L2154.88,360.18L2157.3,362.69L2164.54,368.15L2166.95,370.8L2171.78,375.22L2174.19,376.73L2176.6,380.12L2179.01,379.61L2191.08,391.83L2193.49,392.18L2195.91,392.21L2198.32,395.83L2203.15,402.92L2205.56,405.69L2212.8,413.34L2215.21,418.31L2217.62,417.04L2220.04,419.89L2234.52,446.15L2236.93,447.94L2241.76,462.82L2244.17,464.6L2246.58,468.79L2248.99,475.51L2253.82,495.94L2256.23,507.26L2261.06,524.59L2263.47,531.4L2268.3,545L2270.71,546.44L2277.95,583.61L2280.36,594.49L2292.43,646.98L2294.84,652.25L2297.26,653.9L2299.67,659.74L2302.08,671.56L2304.5,663.4L2309.32,681.39L2311.73,713.54L2314.15,736.05L2316.56,742.43L2318.97,756.2L2321.39,751.61L2326.21,741.94L2328.63,741.11L2331.04,745.53L2333.45,744.19L2335.87,746.93L2338.28,744.31L2340.69,742.48L2343.1,728.63L2347.93,711.54L2350.34,719.48L2352.76,721.38L2355.17,713.36L2360,705.94L2362.41,697.26L2367.24,683.77L2369.65,680.28L2372.06,679.47L2374.47,657.2L2379.3,625.41L2381.71,615.41L2384.13,612.95L2386.54,608.3L2391.37,592.21L2393.78,578.41L2401.02,521.06L2403.43,514.64L2405.84,514.89L2408.26,528.44L2410.67,467.53L2413.08,482.32L2415.5,481.82L2417.91,479.29L2427.56,459.24L2429.98,454.74L2432.39,450.63L2434.8,449.39L2439.63,440.1L2442.04,451.69L2444.45,421.13L2446.87,418.53L2449.28,417.77L2451.69,418.25L2454.11,417.33L2456.52,414.57L2458.93,410.94L2461.35,405.17L2468.59,381.52L2471,382.05L2473.41,385.63L2475.82,337.84L2478.24,362.59L2480.65,368.81L2483.06,371.5L2485.48,369.51L2492.72,354.31L2495.13,347.85L2499.96,337.57L2502.37,333.64L2509.61,317.22L2512.02,314.22L2514.43,297.31L2516.85,292.13L2526.5,254.48L2528.91,248.96L2531.33,240.73L2533.74,228.85L2538.56,201.49L2540.98,194.5L2543.39,190.09L2545.8,189.65L2548.22,206.02L2550.63,178.91L2553.04,180.29L2555.46,168.17L2557.87,161.11L2560.28,157.55L2562.7,157.94L2565.11,161.41L2567.52,163.04L2569.93,159.72L2574.76,148.64L2577.17,148.61L2579.59,152.5L2582,154.04" style="vector-effect: non-scaling-stroke; fill: none; stroke: rgb(0, 170, 0); stroke-opacity: 1; stroke-width: 4px; opacity: 1;"/></g><g class="points"/><g class="text"/></g></g></g><g class="overplot"/><path class="xlines-above crisp" d="M0,0" style="fill: none;"/><path class="ylines-above crisp" d="M0,0" style="fill: none;"/><g class="overlines-above"/><g class="xaxislayer-above"><g class="xtick"><text text-anchor="middle" x="0" y="934" transform="translate(160,0)" style="font-family: 'Open Sans', verdana, arial, sans-serif; font-size: 37px; fill: rgb(42, 63, 95); fill-opacity: 1; white-space: pre; opacity: 1;">0</text></g><g class="xtick"><text text-anchor="middle" x="0" y="934" style="font-family: 'Open Sans', verdana, arial, sans-serif; font-size: 37px; fill: rgb(42, 63, 95); fill-opacity: 1; white-space: pre; opacity: 1;" transform="translate(642.62,0)">200</text></g><g class="xtick"><text text-anchor="middle" x="0" y="934" style="font-family: 'Open Sans', verdana, arial, sans-serif; font-size: 37px; fill: rgb(42, 63, 95); fill-opacity: 1; white-space: pre; opacity: 1;" transform="translate(1125.23,0)">400</text></g><g class="xtick"><text text-anchor="middle" x="0" y="934" style="font-family: 'Open Sans', verdana, arial, sans-serif; font-size: 37px; fill: rgb(42, 63, 95); fill-opacity: 1; white-space: pre; opacity: 1;" transform="translate(1607.85,0)">600</text></g><g class="xtick"><text text-anchor="middle" x="0" y="934" style="font-family: 'Open Sans', verdana, arial, sans-serif; font-size: 37px; fill: rgb(42, 63, 95); fill-opacity: 1; white-space: pre; opacity: 1;" transform="translate(2090.4700000000003,0)">800</text></g><g class="xtick"><text text-anchor="middle" x="0" y="934" style="font-family: 'Open Sans', verdana, arial, sans-serif; font-size: 37px; fill: rgb(42, 63, 95); fill-opacity: 1; white-space: pre; opacity: 1;" transform="translate(2573.08,0)">1000</text></g></g><g class="yaxislayer-above"><g class="ytick"><text text-anchor="end" x="159" y="12.95" transform="translate(0,820.83)" style="font-family: 'Open Sans', verdana, arial, sans-serif; font-size: 37px; fill: rgb(42, 63, 95); fill-opacity: 1; white-space: pre; opacity: 1;">−200</text></g><g class="ytick"><text text-anchor="end" x="159" y="12.95" style="font-family: 'Open Sans', verdana, arial, sans-serif; font-size: 37px; fill: rgb(42, 63, 95); fill-opacity: 1; white-space: pre; opacity: 1;" transform="translate(0,740.65)">−150</text></g><g class="ytick"><text text-anchor="end" x="159" y="12.95" style="font-family: 'Open Sans', verdana, arial, sans-serif; font-size: 37px; fill: rgb(42, 63, 95); fill-opacity: 1; white-space: pre; opacity: 1;" transform="translate(0,660.48)">−100</text></g><g class="ytick"><text text-anchor="end" x="159" y="12.95" style="font-family: 'Open Sans', verdana, arial, sans-serif; font-size: 37px; fill: rgb(42, 63, 95); fill-opacity: 1; white-space: pre; opacity: 1;" transform="translate(0,580.3)">−50</text></g><g class="ytick"><text text-anchor="end" x="159" y="12.95" style="font-family: 'Open Sans', verdana, arial, sans-serif; font-size: 37px; fill: rgb(42, 63, 95); fill-opacity: 1; white-space: pre; opacity: 1;" transform="translate(0,500.12)">0</text></g><g class="ytick"><text text-anchor="end" x="159" y="12.95" style="font-family: 'Open Sans', verdana, arial, sans-serif; font-size: 37px; fill: rgb(42, 63, 95); fill-opacity: 1; white-space: pre; opacity: 1;" transform="translate(0,419.94)">50</text></g><g class="ytick"><text text-anchor="end" x="159" y="12.95" style="font-family: 'Open Sans', verdana, arial, sans-serif; font-size: 37px; fill: rgb(42, 63, 95); fill-opacity: 1; white-space: pre; opacity: 1;" transform="translate(0,339.76)">100</text></g><g class="ytick"><text text-anchor="end" x="159" y="12.95" style="font-family: 'Open Sans', verdana, arial, sans-serif; font-size: 37px; fill: rgb(42, 63, 95); fill-opacity: 1; white-space: pre; opacity: 1;" transform="translate(0,259.58000000000004)">150</text></g><g class="ytick"><text text-anchor="end" x="159" y="12.95" style="font-family: 'Open Sans', verdana, arial, sans-serif; font-size: 37px; fill: rgb(42, 63, 95); fill-opacity: 1; white-space: pre; opacity: 1;" transform="translate(0,179.4)">200</text></g></g><g class="overaxes-above"/></g></g><g class="polarlayer"/><g class="ternarylayer"/><g class="geolayer"/><g class="funnelarealayer"/><g class="pielayer"/><g class="iciclelayer"/><g class="treemaplayer"/><g class="sunburstlayer"/><g class="glimages"/><defs id="topdefs-a19ea6"><g class="clips"/><clipPath id="legenda19ea6"><rect width="694" height="113" x="0" y="0"/></clipPath></defs><g class="layer-above"><g class="imagelayer"/><g class="shapelayer"/></g><g class="infolayer"><g class="legend" pointer-events="all" transform="translate(2793.64,100)"><rect class="bg" shape-rendering="crispEdges" width="694" height="113" x="0" y="0" style="stroke: rgb(68, 68, 68); stroke-opacity: 1; fill: rgb(255, 255, 255); fill-opacity: 1; stroke-width: 0px;"/><g class="scrollbox" transform="" clip-path="url(#legenda19ea6)"><g class="groups"><g class="traces" transform="translate(0,30.55)" style="opacity: 1;"><text class="legendtext" text-anchor="start" x="40" y="14.43" style="font-family: 'Open Sans', verdana, arial, sans-serif; font-size: 37px; fill: rgb(42, 63, 95); fill-opacity: 1; white-space: pre;">Predicted Curvature at Anchors #1</text><g class="layers" style="opacity: 1;"><g class="legendfill"/><g class="legendlines"><path class="js-line" d="M5,0h30" style="fill: none; stroke: rgb(170, 0, 0); stroke-opacity: 1; stroke-width: 4px;"/></g><g class="legendsymbols"><g class="legendpoints"/></g></g><rect class="legendtoggle" x="0" y="-25.55" width="688.125" height="51.1" style="fill: rgb(0, 0, 0); fill-opacity: 0;"/></g><g class="traces" transform="translate(0,81.65)" style="opacity: 1;"><text class="legendtext" text-anchor="start" x="40" y="14.43" style="font-family: 'Open Sans', verdana, arial, sans-serif; font-size: 37px; fill: rgb(42, 63, 95); fill-opacity: 1; white-space: pre;">Predicted Curvature at Anchors #2</text><g class="layers" style="opacity: 1;"><g class="legendfill"/><g class="legendlines"><path class="js-line" d="M5,0h30" style="fill: none; stroke: rgb(0, 170, 0); stroke-opacity: 1; stroke-width: 4px;"/></g><g class="legendsymbols"><g class="legendpoints"/></g></g><rect class="legendtoggle" x="0" y="-25.55" width="688.125" height="51.1" style="fill: rgb(0, 0, 0); fill-opacity: 0;"/></g></g></g><rect class="scrollbar" rx="20" ry="3" width="0" height="0" x="0" y="0" style="fill: rgb(128, 139, 164); fill-opacity: 1;"/></g><g class="g-gtitle"/><g class="g-xtitle"><text class="xtitle" x="1451" y="987.8" text-anchor="middle" style="font-family: 'Open Sans', verdana, arial, sans-serif; font-size: 44px; fill: rgb(42, 63, 95); opacity: 1; font-weight: normal; white-space: pre;">Anchor Point Index</text></g><g class="g-ytitle" transform="translate(31.6591796875,0)"><text class="ytitle" transform="rotate(-90,12.340624999999989,498)" x="12.340624999999989" y="498" text-anchor="middle" style="font-family: 'Open Sans', verdana, arial, sans-serif; font-size: 44px; fill: rgb(42, 63, 95); opacity: 1; font-weight: normal; white-space: pre;">Predicted Curvature</text></g><g class="annotation" data-index="0" style="opacity: 1;"><g class="annotation-text-g" transform="rotate(0,1451,75.49999999999994)"><g class="cursor-pointer" transform="translate(585,51)"><rect class="bg" x="0.5" y="0.5" width="1732" height="48" style="stroke-width: 1px; stroke: rgb(0, 0, 0); stroke-opacity: 0; fill: rgb(0, 0, 0); fill-opacity: 0;"/><text class="annotation-text" text-anchor="middle" x="866.546875" y="39" style="font-family: 'Open Sans', verdana, arial, sans-serif; font-size: 37px; fill: rgb(42, 63, 95); fill-opacity: 1; white-space: pre;"><tspan style="font-weight:bold">Predicted Curvature at Anchors (Transformed Curve #1 vs. Transformed Curve #2)</tspan></text></g></g></g></g></svg>