<svg class="main-svg" xmlns="http://www.w3.org/2000/svg" xmlns:xlink="http://www.w3.org/1999/xlink" width="3500" height="1000" style="" viewBox="0 0 3500 1000"><rect x="0" y="0" width="3500" height="1000" style="fill: rgb(255, 255, 255); fill-opacity: 1;"/><defs id="defs-84f1ce"><g class="clips"><clipPath id="clip84f1cexyplot" class="plotclip"><rect width="2582" height="796"/></clipPath><clipPath class="axesclip" id="clip84f1cex"><rect x="160" y="0" width="2582" height="1000"/></clipPath><clipPath class="axesclip" id="clip84f1cey"><rect x="0" y="100" width="3500" height="796"/></clipPath><clipPath class="axesclip" id="clip84f1cexy"><rect x="160" y="100" width="2582" height="796"/></clipPath></g><g class="gradients"/><g class="patterns"/></defs><g class="bglayer"><rect class="bg" x="160" y="100" width="2582" height="796" style="fill: rgb(229, 236, 246); fill-opacity: 1; stroke-width: 0;"/></g><g class="layer-below"><g class="imagelayer"/><g class="shapelayer"/></g><g class="cartesianlayer"><g class="subplot xy"><g class="layer-subplot"><g class="shapelayer"/><g class="imagelayer"/></g><g class="gridlayer"><g class="x"><path class="xgrid crisp" transform="translate(653.69,0)" d="M0,100v796" style="stroke: rgb(255, 255, 255); stroke-opacity: 1; stroke-width: 1px;"/><path class="xgrid crisp" transform="translate(1147.38,0)" d="M0,100v796" style="stroke: rgb(255, 255, 255); stroke-opacity: 1; stroke-width: 1px;"/><path class="xgrid crisp" transform="translate(1641.07,0)" d="M0,100v796" style="stroke: rgb(255, 255, 255); stroke-opacity: 1; stroke-width: 1px;"/><path class="xgrid crisp" transform="translate(2134.76,0)" d="M0,100v796" style="stroke: rgb(255, 255, 255); stroke-opacity: 1; stroke-width: 1px;"/><path class="xgrid crisp" transform="translate(2628.45,0)" d="M0,100v796" style="stroke: rgb(255, 255, 255); stroke-opacity: 1; stroke-width: 1px;"/></g><g class="y"><path class="ygrid crisp" transform="translate(0,878.17)" d="M160,0h2582" style="stroke: rgb(255, 255, 255); stroke-opacity: 1; stroke-width: 1px;"/><path class="ygrid crisp" transform="translate(0,778.65)" d="M160,0h2582" style="stroke: rgb(255, 255, 255); stroke-opacity: 1; stroke-width: 1px;"/><path class="ygrid crisp" transform="translate(0,679.14)" d="M160,0h2582" style="stroke: rgb(255, 255, 255); stroke-opacity: 1; stroke-width: 1px;"/><path class="ygrid crisp" transform="translate(0,579.62)" d="M160,0h2582" style="stroke: rgb(255, 255, 255); stroke-opacity: 1; stroke-width: 1px;"/><path class="ygrid crisp" transform="translate(0,380.6)" d="M160,0h2582" style="stroke: rgb(255, 255, 255); stroke-opacity: 1; stroke-width: 1px;"/><path class="ygrid crisp" transform="translate(0,281.08000000000004)" d="M160,0h2582" style="stroke: rgb(255, 255, 255); stroke-opacity: 1; stroke-width: 1px;"/><path class="ygrid crisp" transform="translate(0,181.57)" d="M160,0h2582" style="stroke: rgb(255, 255, 255); stroke-opacity: 1; stroke-width: 1px;"/></g></g><g class="zerolinelayer"><path class="xzl zl crisp" transform="translate(160,0)" d="M0,100v796" style="stroke: rgb(255, 255, 255); stroke-opacity: 1; stroke-width: 2px;"/><path class="yzl zl crisp" transform="translate(0,480.11)" d="M160,0h2582" style="stroke: rgb(255, 255, 255); stroke-opacity: 1; stroke-width: 2px;"/></g><path class="xlines-below"/><path class="ylines-below"/><g class="overlines-below"/><g class="xaxislayer-below"/><g class="yaxislayer-below"/><g class="overaxes-below"/><g class="plot" transform="translate(160,100)" clip-path="url(#clip84f1cexyplot)"><g class="scatterlayer mlayer"><g class="trace scatter traceee39f1" style="stroke-miterlimit: 2; opacity: 1;"><g class="fills"/><g class="errorbars"/><g class="lines"><path class="js-line" d="M0,193.21L2.47,194.07L4.94,204.65L7.41,215.63L9.87,200.55L14.81,168.4L17.28,153.03L19.75,155.24L22.22,183.34L24.68,224.57L27.15,190.75L32.09,178.38L34.56,177.77L37.03,184.03L39.5,195.55L41.96,204.39L44.43,209.4L46.9,214.5L49.37,236.25L51.84,189.46L54.31,189.09L56.77,190.2L59.24,192.68L61.71,199.36L64.18,190.58L66.65,188.66L69.12,188.12L71.59,188.26L74.05,187.15L96.27,188.05L98.74,188.6L103.67,189.45L106.14,191.31L108.61,191.32L111.08,192.9L116.02,192.5L118.49,196.4L120.95,196.23L123.42,197.11L138.23,209.32L140.7,208.15L143.17,210.09L145.64,213.64L148.11,217.07L150.58,218.64L153.04,218.83L155.51,227.87L157.98,225.92L160.45,226.33L162.92,227.13L165.39,230.04L170.32,236.62L172.79,237.37L175.26,238.41L177.73,240.8L180.2,240.54L182.67,243.02L187.6,249.09L190.07,252.91L192.54,254.24L195.01,254.23L197.48,258.02L199.94,255.36L207.35,263.34L209.82,264.81L219.69,274.65L222.16,269.45L224.63,274.05L227.1,272.25L236.97,280.53L239.44,281.81L241.91,282.49L244.38,281.93L246.85,286.89L249.31,288.61L254.25,283.28L256.72,284.42L261.66,288.7L264.12,288.51L266.59,288.18L269.06,289.69L271.53,291.47L274,294.73L276.47,289.73L278.93,298.25L283.87,291.23L286.34,291.59L291.28,295.23L293.75,296.03L298.68,297.68L301.15,296.11L303.62,297.6L306.09,296.91L308.56,302.42L311.02,300.42L313.49,301.59L315.96,305.5L320.9,305.78L323.37,307.24L325.84,308.01L328.3,307.32L330.77,308.1L333.24,313.32L335.71,317.04L338.18,325.21L343.11,323.83L345.58,324.84L352.99,334.53L355.46,337.04L360.39,342.05L362.86,346.13L370.27,358.34L372.74,364.46L380.14,381.59L382.61,385.48L387.55,390.74L390.02,399.87L397.42,414.73L399.89,421.28L407.29,439.2L409.76,442.39L412.23,444.62L414.7,461.13L417.17,457.94L419.64,463.16L431.98,493.86L434.45,496.65L446.79,517.79L449.26,520.68L454.2,525.47L456.66,526.07L459.13,525.36L461.6,523.59L464.07,528.27L466.54,530.31L469.01,530.8L471.47,529.81L481.35,524.63L483.82,515.71L486.28,521.57L488.75,520.12L493.69,512.15L496.16,507.45L503.56,496.51L506.03,489.33L510.97,485.32L513.44,481.47L523.31,457.58L525.78,453.67L528.25,450.02L530.72,441.87L533.19,435.62L535.65,434.29L538.12,430.02L540.59,422.85L545.53,410.59L548,406.5L550.46,403.06L552.93,394.14L560.34,381.07L562.81,379.34L565.28,375.42L567.74,368.6L570.21,362.37L572.68,359L577.62,356.89L580.09,348.97L582.55,347.88L585.02,344.21L592.43,331.03L594.9,325.43L597.37,321.1L599.83,318.85L602.3,318.78L604.77,315.87L607.24,303.25L609.71,304.98L612.18,305.52L614.64,301.6L619.58,293.34L622.05,290.36L624.52,287.77L626.99,286.93L629.46,290.46L631.92,284.01L634.39,279.09L636.86,279.83L651.67,263.62L654.14,264.88L656.61,266.45L659.08,263.82L666.48,258.35L668.95,257.17L676.36,251.5L678.82,254.86L686.23,251.86L688.7,251.68L693.63,248.83L696.1,247.02L701.04,250.22L703.51,249.49L715.85,249.13L718.32,251.57L723.26,252.47L725.72,253.32L735.6,256.57L738.07,257.78L743,259.71L745.47,261.42L750.41,264.34L752.88,265.67L757.81,270.66L760.28,271.76L762.75,272.07L765.22,274.79L775.09,282.79L777.56,284.69L784.97,290.86L787.44,305.2L789.9,281.65L792.37,282.69L797.31,296.06L799.78,303.31L802.25,306.28L804.72,306.47L807.18,305.36L809.65,303.14L812.12,302.14L814.59,304.12L817.06,320.82L819.53,311.41L821.99,306.41L824.46,306.66L829.4,309.36L831.87,315.45L836.8,313.11L839.27,313.7L841.74,315L844.21,314.28L849.15,309.88L851.62,312.58L854.08,318.42L856.55,319.07L859.02,319.97L861.49,291.41L863.96,278.75L866.43,282.66L868.89,291.35L871.36,289.38L876.3,282.12L878.77,278.37L883.71,265.73L886.17,268.92L888.64,276.27L891.11,268.56L896.05,255.23L898.52,253.26L900.98,256.19L903.45,241.95L905.92,259.87L908.39,254.5L910.86,247.63L913.33,237.64L918.26,222.35L920.73,218.17L923.2,219.81L925.67,213.98L928.14,204.61L930.61,189.21L933.07,178.51L935.54,174.27L938.01,168.68L940.48,173.13L942.95,150.25L945.42,180.37L960.23,129.39L962.7,127.99L965.16,126.7L967.63,118.05L970.1,110.82L972.57,114.05L975.04,126.51L977.51,113.47L984.91,95.34L987.38,91.9L989.85,90.59L992.32,91.18L997.25,97.25L999.72,101.64L1002.19,82.86L1004.66,95.37L1009.6,94.61L1012.07,95.3L1014.53,96.44L1017,99.42L1019.47,104.44L1021.94,92.71L1024.41,107.1L1026.88,111.07L1034.28,118.5L1036.75,122.62L1039.22,126.56L1041.69,122.74L1044.15,132.03L1046.62,135.64L1054.03,143.68L1056.5,147.1L1058.97,144.14L1061.43,152.96L1076.24,165.49L1078.71,163.87L1083.65,167.82L1086.12,169.16L1093.52,170.74L1095.99,171.19L1100.93,169.92L1103.4,170.52L1108.33,171.72L1110.8,170.81L1115.74,169.89L1118.21,169.81L1120.68,170.04L1123.15,169.12L1130.55,170.48L1133.02,170.13L1137.96,171.62L1140.42,169.98L1145.36,172.77L1147.83,174.69L1157.7,180.33L1160.17,182.39L1165.11,189.2L1167.58,192.56L1174.98,205.88L1177.45,208.98L1179.92,221.74L1182.39,220.29L1184.86,222.85L1187.33,227.79L1194.73,248.46L1197.2,252.71L1199.67,257.24L1202.14,274.73L1204.6,273.7L1207.07,283.02L1216.95,327.17L1219.41,343.75L1221.88,347.68L1224.35,359.04L1239.16,443.92L1241.63,445.35L1246.57,473.41L1249.04,490.06L1258.91,550.41L1261.38,551.7L1273.72,621.86L1276.19,627.2L1281.13,642.45L1283.59,650.8L1293.47,680.29L1295.94,681.03L1303.34,691.06L1305.81,694.49L1310.75,699.8L1313.22,701.37L1315.68,698.46L1318.15,697.98L1323.09,695.87L1325.56,693.93L1328.03,691.23L1330.5,693.07L1332.96,683.74L1335.43,680.11L1340.37,671.1L1342.84,665.34L1345.31,659.2L1347.77,658.51L1350.24,648.09L1352.71,644.54L1357.65,631.73L1360.12,623.51L1365.05,607.24L1367.52,607.75L1369.99,598.8L1372.46,595.47L1382.33,566.68L1384.8,561.17L1394.67,546.62L1397.14,541.1L1399.61,537.22L1402.08,535.45L1404.55,533.88L1407.02,528.45L1409.49,526.74L1411.95,528.26L1416.89,527.57L1419.36,527.01L1424.3,527.85L1426.76,528.18L1429.23,527.27L1431.7,536.17L1434.17,529.91L1436.64,534.49L1444.04,548.94L1446.51,555.11L1458.85,589.65L1461.32,594.51L1466.26,607.95L1468.73,616.96L1483.54,673.21L1486.01,681.18L1488.48,701.31L1490.94,704.71L1493.41,706.54L1495.88,710.87L1505.76,738.51L1508.22,742.38L1513.16,749.74L1515.63,742.64L1518.1,744.25L1520.57,750.12L1523.03,753.16L1525.5,751.6L1527.97,746.97L1530.44,745.98L1532.91,744.32L1535.38,746.01L1537.85,751.15L1540.31,734.57L1542.78,736.14L1545.25,736.03L1550.19,694.74L1552.66,700.71L1557.59,703.46L1560.06,697.83L1567.47,662.44L1569.93,646.13L1577.34,579.91L1579.81,609.28L1582.28,561.54L1584.75,544.82L1587.21,536.17L1589.68,519.27L1604.49,365.61L1606.96,349.47L1609.43,337.25L1611.9,316.88L1614.37,285.25L1616.84,274.73L1624.24,230.96L1626.71,216.81L1636.58,168.42L1639.05,159.03L1643.99,146.59L1646.46,135.62L1648.93,112.73L1651.39,106.82L1656.33,97.09L1658.8,94.76L1661.27,90.62L1663.74,83.9L1671.14,65.8L1673.61,62.4L1676.08,61.31L1678.55,61.75L1681.02,89.22L1683.48,53.63L1685.95,56.94L1688.42,48.75L1690.89,42.1L1693.36,39.8L1695.83,43.49L1698.29,52.27L1700.76,53.24L1703.23,52.68L1708.17,51.43L1710.64,53.98L1713.11,62.07L1715.57,55.59L1718.04,58.6L1720.51,67.5L1722.98,68.86L1725.45,63.86L1727.92,65.03L1730.38,63.63L1732.85,66.22L1735.32,76.22L1737.79,80.88L1740.26,82.33L1742.73,84.81L1745.2,89.63L1750.13,111.55L1752.6,108.14L1755.07,108.6L1757.54,107.56L1762.47,102.81L1764.94,105.28L1769.88,118.7L1772.35,119.99L1774.82,124.89L1777.28,133.7L1779.75,142.4L1782.22,147.43L1784.69,150.32L1787.16,158.15L1792.1,154.98L1794.56,155.48L1797.03,150.4L1799.5,153.31L1804.44,165.34L1806.91,168.97L1811.84,176.43L1814.31,185.35L1816.78,164.14L1819.25,187.39L1821.72,189.9L1824.19,194.3L1836.53,217.57L1839,221.31L1841.46,233.5L1843.93,238.06L1848.87,250.16L1851.34,258.21L1856.28,273.15L1858.74,279.01L1861.21,295.04L1863.68,295.19L1868.62,312.86L1871.09,323.69L1878.49,356.48L1880.96,359.04L1888.37,391.42L1890.83,405.1L1900.71,445.58L1903.18,457.55L1910.58,488.01L1913.05,499.28L1920.46,530.7L1922.92,536.27L1927.86,551.89L1930.33,559.15L1932.8,561.91L1935.27,557.05L1940.2,540.72L1942.67,538.86L1947.61,544.16L1950.08,547.47L1955.01,554.06L1957.48,542.55L1959.95,531.35L1962.42,534.23L1967.36,542.1L1969.82,542.85L1972.29,543.97L1974.76,539.68L1987.1,506.3L1989.57,502.26L1992.04,500.33L1994.51,501.2L1996.98,505.23L1999.45,513.99L2001.91,534.18L2004.38,517.98L2006.85,421.74L2009.32,375.09L2011.79,349.68L2014.26,339.4L2019.19,326.07L2021.66,316.05L2024.13,311.1L2026.6,309.39L2029.07,312.22L2031.54,305.94L2036.47,283.16L2038.94,276.27L2056.22,234.89L2058.69,226.17L2061.16,213.32L2063.63,228.27L2066.09,246.51L2068.56,311.06L2071.03,248.65L2073.5,255.53L2078.44,223.7L2080.9,216.6L2083.37,218.58L2085.84,217.74L2088.31,214.68L2090.78,219.95L2093.25,218.36L2095.72,210.88L2098.18,204.76L2100.65,204.52L2103.12,201.71L2105.59,212.02L2108.06,197.08L2110.53,252.66L2112.99,242.27L2115.46,224.94L2120.4,211.13L2122.87,210.84L2125.34,213.4L2127.8,224.88L2130.27,217.25L2132.74,213.39L2135.21,210.92L2137.68,210.94L2140.15,216.63L2142.62,198.85L2145.08,217.28L2147.55,214.31L2150.02,211.8L2152.49,211.58L2154.96,210.6L2157.43,207.98L2162.36,201.43L2164.83,199.58L2167.3,200.25L2169.77,195.02L2174.71,188.65L2177.17,184.28L2189.52,157.75L2191.98,149.3L2196.92,141.61L2199.39,135.94L2209.26,113.24L2211.73,108.94L2214.2,96.54L2216.67,98.19L2221.61,91.63L2224.07,87.56L2229.01,80.98L2231.48,78.52L2233.95,76.69L2236.42,77.48L2238.89,74.79L2241.35,74.26L2248.76,73.61L2251.23,73.98L2256.16,79.75L2258.63,84.11L2261.1,95.44L2263.57,96.53L2266.04,99.36L2268.51,103.77L2278.38,129.42L2280.85,139.54L2290.72,183.14L2293.19,191.34L2298.13,213.68L2300.6,230.7L2310.47,307.6L2312.94,322.47L2317.88,347.9L2320.34,406.64L2322.81,392.88L2325.28,409.49L2332.69,475.22L2335.15,498.54L2340.09,536.52L2342.56,550.01L2357.37,608.6L2359.84,616.55L2369.71,645.53L2372.18,650.86L2374.65,653.85L2377.12,645.49L2379.59,651.99L2382.06,653.15L2384.52,652.42L2386.99,650.3L2391.93,645.74L2394.4,645.24L2396.87,645.3L2399.33,635.32L2401.8,619.05L2404.27,625.71L2406.74,625.73L2409.21,619.96L2414.15,600.64L2416.61,588.33L2421.55,566.93L2424.02,561.49L2426.49,558.6L2428.96,568.75L2431.42,496.73L2433.89,519.88L2436.36,529.08L2438.83,514.02L2441.3,500.64L2443.77,495.81L2446.24,488.09L2448.7,474.92L2451.17,464.65L2453.64,449.95L2461.05,422.59L2463.51,414.54L2465.98,407.05L2468.45,405.56L2470.92,376.48L2473.39,377.16L2475.86,378.64L2478.33,375.34L2480.79,374.01L2483.26,368.55L2488.2,355.21L2490.67,346.18L2498.07,310.16L2500.54,306.84L2505.48,314.87L2507.95,314.14L2510.41,360.55L2512.88,246.77L2515.35,250.95L2517.82,245.73L2520.29,234.88L2522.76,236.51L2527.69,285.61L2530.16,261.99L2532.63,252.68L2535.1,248.69L2540.04,244.5L2542.5,246.57L2547.44,281.02L2549.91,264.37L2552.38,299.6L2554.85,287.46L2557.32,348.5L2559.78,272.23L2562.25,283.14L2564.72,232.14L2567.19,237.2L2569.66,247.9L2572.13,241.9L2574.59,220.32L2577.06,205.04L2579.53,208.78L2582,208.45" style="vector-effect: non-scaling-stroke; fill: none; stroke: rgb(170, 0, 0); stroke-opacity: 1; stroke-width: 4px; opacity: 1;"/></g><g class="points"/><g class="text"/></g><g class="trace scatter tracebb271d" style="stroke-miterlimit: 2; opacity: 1;"><g class="fills"/><g class="errorbars"/><g class="lines"><path class="js-line" d="M0,213.3L19.75,202.81L22.22,202.11L34.56,197.59L37.03,196.1L39.5,178.19L41.96,193.93L44.43,190.58L46.9,190.45L49.37,190.07L51.84,191.02L54.31,192.34L56.77,188.61L59.24,181.59L61.71,270.84L64.18,119.69L66.65,109.36L69.12,116.98L71.59,136.11L74.05,146.02L76.52,216.72L78.99,251.44L81.46,177.77L83.93,201.36L86.4,203.22L88.86,206.03L91.33,206.16L93.8,206.78L96.27,212.72L98.74,226.38L101.21,247.37L103.67,390.72L106.14,197.1L108.61,162.38L111.08,155.71L116.02,293L118.49,292.74L120.95,234.51L123.42,218.78L125.89,195.09L128.36,189.81L130.83,190.2L133.3,206.62L135.76,235.79L138.23,230.41L140.7,264.94L143.17,263.88L145.64,275.87L148.11,269.91L150.58,271.77L153.04,282.58L155.51,434.65L157.98,237.84L160.45,224.18L162.92,220.52L165.39,258.51L167.85,327.12L172.79,227.91L175.26,204.23L177.73,276.46L180.2,209.08L182.67,207.7L185.13,243.96L187.6,246.15L190.07,251.85L192.54,256.58L195.01,247.79L197.48,239.98L199.94,264.34L204.88,312.05L207.35,289.41L217.22,232.82L219.69,235L222.16,244.85L224.63,227.13L227.1,213.09L229.57,222.25L234.5,248.57L236.97,255.92L239.44,266.56L241.91,266.95L244.38,282.45L246.85,280.35L249.31,292.89L251.78,252.8L254.25,288.13L256.72,303.16L259.19,287.59L261.66,279.38L264.12,279.53L266.59,276.01L269.06,272.44L271.53,283.39L274,286.88L276.47,294.07L278.93,293.79L281.4,290.79L283.87,288.86L286.34,340.89L288.81,304.1L291.28,299.27L293.75,295.86L296.21,294.6L301.15,296.73L303.62,298.9L306.09,301.08L308.56,301.42L311.02,298.95L313.49,294.99L315.96,300.43L318.43,288.17L320.9,307.18L323.37,307.71L325.84,311.92L328.3,312.32L330.77,312.85L333.24,315.58L335.71,318.06L338.18,318.59L340.65,318.32L343.11,320.41L348.05,337.56L350.52,336.67L355.46,337.52L357.93,341.27L362.86,351.25L365.33,354.5L372.74,362.88L375.2,359.11L377.67,370.88L380.14,373.85L385.08,387.5L387.55,394.97L394.95,412.8L397.42,416.16L399.89,418.08L402.36,421.72L404.83,438.3L407.29,440.6L412.23,452.14L414.7,459.24L422.11,477.28L424.57,480.76L427.04,482.12L429.51,481.81L434.45,501.68L436.92,498.56L439.38,501.15L441.85,505.6L456.66,529.1L459.13,531.55L461.6,532.69L464.07,512.09L466.54,523.11L469.01,522.52L471.47,522.04L473.94,523.38L476.41,521.43L478.88,517.2L481.35,513.33L483.82,512.25L486.28,513.08L488.75,515.46L491.22,517.78L493.69,518.7L496.16,517.29L498.63,497.36L503.56,483.29L506.03,486.44L508.5,490.18L510.97,489.45L515.91,476.77L518.37,467.38L520.84,461.53L523.31,459.88L525.78,457.64L528.25,452.64L530.72,443.98L533.19,445.23L535.65,429.72L538.12,426.35L545.53,418.89L548,413.37L552.93,402.14L555.4,398.15L560.34,393.26L562.81,389.13L565.28,370.58L567.74,378.94L575.15,362.75L577.62,358.47L582.55,349.96L585.02,342.99L602.3,314.7L604.77,312.42L609.71,305.27L612.18,301.43L617.11,294.7L619.58,300.4L622.05,277.22L624.52,276.08L629.46,280.17L631.92,279.94L639.33,272.58L641.8,273.86L644.27,275.24L646.73,279.74L651.67,269.87L654.14,266.44L659.08,261.95L661.54,260.56L666.48,261.44L668.95,259.69L673.89,254.55L676.36,255.65L678.82,261.1L681.29,262.46L683.76,262.41L686.23,259.28L691.17,248.68L693.63,249.66L696.1,252.39L698.57,252.52L701.04,250.46L703.51,246.67L705.98,243.94L708.45,244.46L710.91,251.98L713.38,252.15L718.32,250.04L720.79,250.43L728.19,252.95L730.66,252.96L735.6,252.82L738.07,256.97L740.54,256.99L743,258.46L747.94,261.7L750.41,262.19L757.81,266.87L760.28,266.74L762.75,267.12L765.22,270.49L767.69,275.42L770.16,277.57L775.09,278.68L777.56,280.46L782.5,284.93L784.97,285.82L789.9,287.78L792.37,294.45L799.78,296.28L802.25,298.37L807.18,301.83L809.65,302.16L812.12,302.28L814.59,306.55L821.99,308.28L824.46,309.71L829.4,310.77L831.87,310.32L834.34,312.58L836.8,312.35L841.74,311.79L844.21,311.92L849.15,310.78L851.62,309.81L861.49,306.49L863.96,304.9L871.36,298.38L873.83,297.98L883.71,287.36L886.17,284.19L888.64,281.92L891.11,276.4L893.58,276.79L896.05,272.78L903.45,256.59L905.92,250.41L908.39,249.81L910.86,244.42L923.2,214.26L925.67,213.65L940.48,176.57L942.95,171.3L950.35,153.51L952.82,147.01L962.7,124.53L965.16,122.25L975.04,107.03L977.51,105.07L979.98,97.77L982.44,98.21L984.91,98.48L987.38,97.41L992.32,93.65L994.79,93.35L997.25,93.54L999.72,95.86L1002.19,91.66L1004.66,93.46L1009.6,96.71L1012.07,97.15L1014.53,98.52L1017,102.21L1019.47,101.9L1021.94,103.58L1026.88,109.88L1029.34,113.97L1034.28,119.97L1036.75,123.01L1039.22,128.08L1041.69,124.24L1046.62,132.6L1049.09,137.25L1058.97,149.73L1061.43,152.41L1063.9,149.15L1066.37,156.4L1076.24,164.02L1078.71,165.25L1081.18,165.74L1083.65,168.55L1095.99,171.11L1098.46,172.73L1103.4,171.1L1105.87,171L1110.8,170.3L1113.27,171.85L1115.74,169.84L1118.21,169.98L1125.61,168.84L1128.08,171.3L1130.55,168.3L1133.02,168.84L1140.42,171.52L1142.89,172.31L1145.36,176.38L1147.83,174.71L1152.77,177.75L1155.24,180.36L1162.64,187.8L1165.11,194.84L1167.58,193.87L1170.05,196.82L1174.98,204.28L1177.45,210.15L1182.39,219.76L1184.86,223.35L1187.33,236.57L1189.79,236.51L1194.73,247.16L1197.2,256.13L1202.14,274.86L1204.6,281.41L1207.07,287.66L1209.54,300.42L1212.01,310.23L1214.48,314.19L1216.95,321.62L1219.41,333.54L1229.29,383.86L1231.76,394.95L1234.23,391.69L1236.69,426.22L1239.16,491.41L1241.63,483.33L1246.57,489.31L1249.04,495.86L1253.97,524.41L1256.44,541.87L1261.38,571.14L1263.85,581.45L1273.72,622.06L1276.19,626.11L1278.66,630.66L1281.13,638.26L1291,672.85L1293.47,679.43L1295.94,683.89L1298.41,666.82L1300.87,675.5L1303.34,707.02L1305.81,691.3L1308.28,685.33L1310.75,684.78L1313.22,686.43L1318.15,671.27L1320.62,674.49L1323.09,679.31L1325.56,691.43L1328.03,698.11L1330.5,614.98L1332.96,688.56L1335.43,682.39L1337.9,676.69L1340.37,667.61L1345.31,658.55L1347.77,650.76L1352.71,610.88L1355.18,610.7L1360.12,618.66L1362.59,631.86L1365.05,637.35L1367.52,623.37L1369.99,613.24L1372.46,593.26L1374.93,587.71L1377.4,591.96L1379.86,589.57L1382.33,585.45L1387.27,597.39L1389.74,574.89L1392.21,557.9L1394.67,553.14L1397.14,553.8L1399.61,555.99L1402.08,545.63L1404.55,568.95L1407.02,562.01L1409.49,543.58L1411.95,536.5L1414.42,539.2L1416.89,565.69L1419.36,556.04L1421.83,532.21L1424.3,534.64L1426.76,540.58L1429.23,539.69L1431.7,540.09L1434.17,550.71L1436.64,554.27L1439.11,560.16L1441.58,586.14L1444.04,562.55L1446.51,563.6L1448.98,568.6L1453.92,586.83L1456.39,600.34L1458.85,609.52L1461.32,613.14L1463.79,617.67L1466.26,627.84L1471.2,648L1473.67,655.46L1478.6,666L1481.07,647.16L1483.54,686.35L1486.01,682.81L1490.94,699.95L1493.41,706.76L1498.35,722.62L1500.82,727.41L1505.76,732L1508.22,729.11L1510.69,729.77L1513.16,737.56L1515.63,743.96L1518.1,746.77L1520.57,756.2L1523.03,746.38L1527.97,754.35L1530.44,753.39L1532.91,753.54L1535.38,751.01L1537.85,753.47L1540.31,750.37L1545.25,738.71L1547.72,733.38L1550.19,731.26L1552.66,738.82L1555.12,719.3L1557.59,715.72L1560.06,708.32L1562.53,697.44L1569.93,651.26L1572.4,632.83L1574.87,612.89L1577.34,617.43L1582.28,575.02L1584.75,553.42L1599.56,413.39L1602.02,403.99L1616.84,268.18L1619.3,252.06L1621.77,236.29L1624.24,231.05L1634.11,175.77L1636.58,164.37L1643.99,136.37L1646.46,130.43L1648.93,120.17L1651.39,98.91L1671.14,71.16L1673.61,68.97L1676.08,67.22L1678.55,59.33L1681.02,54.63L1683.48,53.72L1685.95,59.45L1688.42,59.99L1693.36,48.77L1695.83,45.98L1698.29,46.01L1700.76,47.96L1703.23,51.77L1705.7,58.6L1708.17,52.52L1710.64,61.19L1713.11,57.87L1715.57,61.33L1718.04,63.31L1720.51,60.72L1722.98,59.14L1725.45,59.8L1727.92,62.9L1730.38,68.34L1732.85,75.13L1735.32,85.09L1737.79,63.73L1740.26,89.39L1742.73,88.32L1745.2,89.4L1750.13,94.37L1752.6,97.87L1755.07,101.76L1757.54,108.49L1760.01,116.34L1762.47,101.62L1764.94,117.11L1767.41,121.44L1772.35,128.55L1774.82,130.72L1779.75,137.45L1782.22,141.22L1784.69,138.45L1787.16,146.21L1801.97,165.55L1804.44,168.76L1806.91,173.86L1809.37,175.66L1814.31,181.7L1816.78,186.07L1824.19,199.15L1826.65,202.01L1829.12,211.4L1831.59,212.28L1836.53,223.06L1839,229.91L1843.93,241.65L1846.4,246.03L1848.87,257.65L1851.34,259.71L1856.28,276.06L1858.74,285.68L1868.62,322.15L1871.09,324.11L1876.02,341.7L1878.49,352.91L1885.9,383.84L1888.37,391.82L1890.83,407.89L1893.3,407.28L1900.71,440.38L1903.18,452.45L1910.58,481.27L1913.05,484.86L1927.86,530.54L1930.33,534.96L1932.8,541.32L1935.27,542.33L1945.14,556.17L1947.61,558.69L1950.08,560.67L1952.54,560.08L1955.01,562.21L1957.48,561.09L1964.89,555.34L1967.36,552.47L1969.82,549.04L1972.29,542.49L1974.76,542.65L1977.23,535.76L1984.63,511.36L1987.1,502.45L1994.51,480.94L1996.98,469.29L2009.32,410.65L2011.79,407.61L2026.6,330.91L2029.07,323.75L2031.54,317.85L2034,309.04L2043.88,274.63L2046.35,267.78L2053.75,253.57L2056.22,248.96L2061.16,241.32L2063.63,238.19L2071.03,227.51L2073.5,229.98L2075.97,221.41L2078.44,221.24L2085.84,219.04L2088.31,219.58L2095.72,219.3L2098.18,218.21L2100.65,216.37L2103.12,216.67L2108.06,217.85L2110.53,218.84L2120.4,220.43L2122.87,222.52L2125.34,231.08L2127.8,220.24L2130.27,220.04L2132.74,217.69L2135.21,217.19L2137.68,218.75L2140.15,219.06L2142.62,217.29L2147.55,212.74L2150.02,213.56L2154.96,200.77L2157.43,205.31L2159.89,204.88L2162.36,199.83L2167.3,197.04L2169.77,193.68L2177.17,179.87L2179.64,179.51L2184.58,148.9L2187.05,149.38L2191.98,146.84L2194.45,144.43L2199.39,136.26L2201.86,131.41L2206.8,122.32L2209.26,119.36L2211.73,98.87L2214.2,101L2221.61,91.2L2224.07,87.9L2229.01,82.69L2231.48,80.81L2236.42,79.25L2238.89,67.66L2241.35,79.58L2243.82,77.9L2251.23,75.56L2253.7,76.34L2258.63,79.93L2261.1,84.58L2263.57,91.58L2266.04,85.3L2268.51,97.65L2270.98,102.7L2278.38,118.15L2280.85,126.99L2290.72,169.51L2293.19,194.92L2295.66,182.83L2298.13,195.13L2303.07,229.63L2305.53,252.36L2310.47,312.85L2312.94,327.46L2315.41,336.88L2317.88,357.3L2330.22,478.19L2332.69,495.38L2342.56,565.54L2345.03,577.16L2352.43,611.74L2354.9,614.62L2364.78,640.49L2367.24,645.3L2372.18,654.12L2374.65,652.08L2379.59,655.89L2382.06,656.34L2386.99,655.58L2389.46,654.38L2394.4,650.88L2396.87,642.65L2401.8,641.16L2404.27,637.78L2409.21,625.38L2411.68,617.8L2424.02,578.9L2426.49,575.82L2428.96,567.7L2431.42,555.39L2438.83,516.76L2441.3,507.47L2446.24,489.36L2448.7,474.95L2451.17,470.71L2453.64,464.14L2461.05,429.19L2463.51,418.41L2468.45,403.43L2470.92,398.81L2475.86,376.48L2478.33,371.41L2480.79,366.56L2483.26,359.45L2490.67,330.98L2493.14,326.59L2495.6,324.46L2498.07,326.5L2500.54,301.82L2503.01,298.22L2505.48,296.14L2507.95,295.49L2512.88,285.54L2515.35,279.84L2517.82,275.96L2520.29,274.39L2522.76,273.37L2525.23,275.25L2527.69,265.59L2530.16,260.68L2532.63,258.51L2535.1,254.85L2540.04,249.47L2542.5,247.48L2547.44,239.88L2549.91,235.97L2552.38,234.75L2554.85,237.84L2557.32,223.59L2559.78,229.85L2564.72,224.95L2567.19,224.04L2572.13,219.57L2574.59,216.34L2577.06,214.53L2579.53,215.49L2582,211.81" style="vector-effect: non-scaling-stroke; fill: none; stroke: rgb(0, 170, 0); stroke-opacity: 1; stroke-width: 4px; opacity: 1;"/></g><g class="points"/><g class="text"/></g></g></g><g class="overplot"/><path class="xlines-above crisp" d="M0,0" style="fill: none;"/><path class="ylines-above crisp" d="M0,0" style="fill: none;"/><g class="overlines-above"/><g class="xaxislayer-above"><g class="xtick"><text text-anchor="middle" x="0" y="934" transform="translate(160,0)" style="font-family: 'Open Sans', verdana, arial, sans-serif; font-size: 37px; fill: rgb(42, 63, 95); fill-opacity: 1; white-space: pre; opacity: 1;">0</text></g><g class="xtick"><text text-anchor="middle" x="0" y="934" style="font-family: 'Open Sans', verdana, arial, sans-serif; font-size: 37px; fill: rgb(42, 63, 95); fill-opacity: 1; white-space: pre; opacity: 1;" transform="translate(653.69,0)">200</text></g><g class="xtick"><text text-anchor="middle" x="0" y="934" style="font-family: 'Open Sans', verdana, arial, sans-serif; font-size: 37px; fill: rgb(42, 63, 95); fill-opacity: 1; white-space: pre; opacity: 1;" transform="translate(1147.38,0)">400</text></g><g class="xtick"><text text-anchor="middle" x="0" y="934" style="font-family: 'Open Sans', verdana, arial, sans-serif; font-size: 37px; fill: rgb(42, 63, 95); fill-opacity: 1; white-space: pre; opacity: 1;" transform="translate(1641.07,0)">600</text></g><g class="xtick"><text text-anchor="middle" x="0" y="934" style="font-family: 'Open Sans', verdana, arial, sans-serif; font-size: 37px; fill: rgb(42, 63, 95); fill-opacity: 1; white-space: pre; opacity: 1;" transform="translate(2134.76,0)">800</text></g><g class="xtick"><text text-anchor="middle" x="0" y="934" style="font-family: 'Open Sans', verdana, arial, sans-serif; font-size: 37px; fill: rgb(42, 63, 95); fill-opacity: 1; white-space: pre; opacity: 1;" transform="translate(2628.45,0)">1000</text></g></g><g class="yaxislayer-above"><g class="ytick"><text text-anchor="end" x="159" y="12.95" transform="translate(0,878.17)" style="font-family: 'Open Sans', verdana, arial, sans-serif; font-size: 37px; fill: rgb(42, 63, 95); fill-opacity: 1; white-space: pre; opacity: 1;">−200</text></g><g class="ytick"><text text-anchor="end" x="159" y="12.95" style="font-family: 'Open Sans', verdana, arial, sans-serif; font-size: 37px; fill: rgb(42, 63, 95); fill-opacity: 1; white-space: pre; opacity: 1;" transform="translate(0,778.65)">−150</text></g><g class="ytick"><text text-anchor="end" x="159" y="12.95" style="font-family: 'Open Sans', verdana, arial, sans-serif; font-size: 37px; fill: rgb(42, 63, 95); fill-opacity: 1; white-space: pre; opacity: 1;" transform="translate(0,679.14)">−100</text></g><g class="ytick"><text text-anchor="end" x="159" y="12.95" style="font-family: 'Open Sans', verdana, arial, sans-serif; font-size: 37px; fill: rgb(42, 63, 95); fill-opacity: 1; white-space: pre; opacity: 1;" transform="translate(0,579.62)">−50</text></g><g class="ytick"><text text-anchor="end" x="159" y="12.95" style="font-family: 'Open Sans', verdana, arial, sans-serif; font-size: 37px; fill: rgb(42, 63, 95); fill-opacity: 1; white-space: pre; opacity: 1;" transform="translate(0,480.11)">0</text></g><g class="ytick"><text text-anchor="end" x="159" y="12.95" style="font-family: 'Open Sans', verdana, arial, sans-serif; font-size: 37px; fill: rgb(42, 63, 95); fill-opacity: 1; white-space: pre; opacity: 1;" transform="translate(0,380.6)">50</text></g><g class="ytick"><text text-anchor="end" x="159" y="12.95" style="font-family: 'Open Sans', verdana, arial, sans-serif; font-size: 37px; fill: rgb(42, 63, 95); fill-opacity: 1; white-space: pre; opacity: 1;" transform="translate(0,281.08000000000004)">100</text></g><g class="ytick"><text text-anchor="end" x="159" y="12.95" style="font-family: 'Open Sans', verdana, arial, sans-serif; font-size: 37px; fill: rgb(42, 63, 95); fill-opacity: 1; white-space: pre; opacity: 1;" transform="translate(0,181.57)">150</text></g></g><g class="overaxes-above"/></g></g><g class="polarlayer"/><g class="ternarylayer"/><g class="geolayer"/><g class="funnelarealayer"/><g class="pielayer"/><g class="iciclelayer"/><g class="treemaplayer"/><g class="sunburstlayer"/><g class="glimages"/><defs id="topdefs-84f1ce"><g class="clips"/><clipPath id="legend84f1ce"><rect width="694" height="113" x="0" y="0"/></clipPath></defs><g class="layer-above"><g class="imagelayer"/><g class="shapelayer"/></g><g class="infolayer"><g class="legend" pointer-events="all" transform="translate(2793.64,100)"><rect class="bg" shape-rendering="crispEdges" width="694" height="113" x="0" y="0" style="stroke: rgb(68, 68, 68); stroke-opacity: 1; fill: rgb(255, 255, 255); fill-opacity: 1; stroke-width: 0px;"/><g class="scrollbox" transform="" clip-path="url(#legend84f1ce)"><g class="groups"><g class="traces" transform="translate(0,30.55)" style="opacity: 1;"><text class="legendtext" text-anchor="start" x="40" y="14.43" style="font-family: 'Open Sans', verdana, arial, sans-serif; font-size: 37px; fill: rgb(42, 63, 95); fill-opacity: 1; white-space: pre;">Predicted Curvature at Anchors #1</text><g class="layers" style="opacity: 1;"><g class="legendfill"/><g class="legendlines"><path class="js-line" d="M5,0h30" style="fill: none; stroke: rgb(170, 0, 0); stroke-opacity: 1; stroke-width: 4px;"/></g><g class="legendsymbols"><g class="legendpoints"/></g></g><rect class="legendtoggle" x="0" y="-25.55" width="688.125" height="51.1" style="fill: rgb(0, 0, 0); fill-opacity: 0;"/></g><g class="traces" transform="translate(0,81.65)" style="opacity: 1;"><text class="legendtext" text-anchor="start" x="40" y="14.43" style="font-family: 'Open Sans', verdana, arial, sans-serif; font-size: 37px; fill: rgb(42, 63, 95); fill-opacity: 1; white-space: pre;">Predicted Curvature at Anchors #2</text><g class="layers" style="opacity: 1;"><g class="legendfill"/><g class="legendlines"><path class="js-line" d="M5,0h30" style="fill: none; stroke: rgb(0, 170, 0); stroke-opacity: 1; stroke-width: 4px;"/></g><g class="legendsymbols"><g class="legendpoints"/></g></g><rect class="legendtoggle" x="0" y="-25.55" width="688.125" height="51.1" style="fill: rgb(0, 0, 0); fill-opacity: 0;"/></g></g></g><rect class="scrollbar" rx="20" ry="3" width="0" height="0" x="0" y="0" style="fill: rgb(128, 139, 164); fill-opacity: 1;"/></g><g class="g-gtitle"/><g class="g-xtitle"><text class="xtitle" x="1451" y="987.8" text-anchor="middle" style="font-family: 'Open Sans', verdana, arial, sans-serif; font-size: 44px; fill: rgb(42, 63, 95); opacity: 1; font-weight: normal; white-space: pre;">Anchor Point Index</text></g><g class="g-ytitle" transform="translate(31.6591796875,0)"><text class="ytitle" transform="rotate(-90,12.340624999999989,498)" x="12.340624999999989" y="498" text-anchor="middle" style="font-family: 'Open Sans', verdana, arial, sans-serif; font-size: 44px; fill: rgb(42, 63, 95); opacity: 1; font-weight: normal; white-space: pre;">Predicted Curvature</text></g><g class="annotation" data-index="0" style="opacity: 1;"><g class="annotation-text-g" transform="rotate(0,1451,75.49999999999994)"><g class="cursor-pointer" transform="translate(585,51)"><rect class="bg" x="0.5" y="0.5" width="1732" height="48" style="stroke-width: 1px; stroke: rgb(0, 0, 0); stroke-opacity: 0; fill: rgb(0, 0, 0); fill-opacity: 0;"/><text class="annotation-text" text-anchor="middle" x="866.546875" y="39" style="font-family: 'Open Sans', verdana, arial, sans-serif; font-size: 37px; fill: rgb(42, 63, 95); fill-opacity: 1; white-space: pre;"><tspan style="font-weight:bold">Predicted Curvature at Anchors (Transformed Curve #1 vs. Transformed Curve #2)</tspan></text></g></g></g></g></svg>