<?xml version="1.0" encoding="utf-8" standalone="no"?>
<!DOCTYPE svg PUBLIC "-//W3C//DTD SVG 1.1//EN"
  "http://www.w3.org/Graphics/SVG/1.1/DTD/svg11.dtd">
<svg xmlns:xlink="http://www.w3.org/1999/xlink" width="2160pt" height="2160pt" viewBox="0 0 2160 2160" xmlns="http://www.w3.org/2000/svg" version="1.1">
 <metadata>
  <rdf:RDF xmlns:dc="http://purl.org/dc/elements/1.1/" xmlns:cc="http://creativecommons.org/ns#" xmlns:rdf="http://www.w3.org/1999/02/22-rdf-syntax-ns#">
   <cc:Work>
    <dc:type rdf:resource="http://purl.org/dc/dcmitype/StillImage"/>
    <dc:date>2022-03-09T01:03:21.076229</dc:date>
    <dc:format>image/svg+xml</dc:format>
    <dc:creator>
     <cc:Agent>
      <dc:title>Matplotlib v3.5.1, https://matplotlib.org/</dc:title>
     </cc:Agent>
    </dc:creator>
   </cc:Work>
  </rdf:RDF>
 </metadata>
 <defs>
  <style type="text/css">*{stroke-linejoin: round; stroke-linecap: butt}</style>
 </defs>
 <g id="figure_1">
  <g id="patch_1">
   <path d="M 0 2160 
L 2160 2160 
L 2160 0 
L 0 0 
L 0 2160 
z
" style="fill: none"/>
  </g>
  <g id="axes_1">
   <g id="line2d_1">
    <path d="M 1257.636748 1371.868297 
L 1255.340905 1371.540585 
L 1253.138416 1371.06427 
L 1251.034339 1370.43824 
L 1249.033353 1369.662054 
L 1247.139704 1368.735935 
L 1245.357144 1367.660749 
L 1243.68889 1366.437982 
L 1242.137566 1365.069724 
L 1240.705168 1363.558632 
L 1239.393022 1361.907906 
L 1238.201754 1360.121256 
L 1237.131261 1358.202864 
L 1236.180693 1356.157351 
L 1235.348441 1353.98974 
L 1234.316492 1350.521251 
L 1233.533973 1346.809702 
L 1232.985834 1342.875897 
L 1232.653373 1338.741655 
L 1232.514466 1334.429522 
L 1232.586292 1328.443058 
L 1232.889706 1322.236104 
L 1233.615312 1312.630981 
L 1234.774959 1297.907102 
L 1235.107597 1291.365851 
L 1235.216435 1284.888656 
L 1235.107636 1280.096815 
L 1234.804605 1275.378941 
L 1234.282372 1270.74954 
L 1233.519036 1266.22215 
L 1232.496045 1261.809412 
L 1231.198411 1257.523158 
L 1229.614869 1253.374505 
L 1227.737975 1249.373959 
L 1226.321808 1246.794168 
L 1224.77347 1244.287516 
L 1223.093595 1241.856799 
L 1221.283547 1239.504755 
L 1219.345404 1237.23408 
L 1217.281933 1235.047435 
L 1213.959407 1231.930782 
L 1210.376932 1229.017927 
L 1206.551573 1226.317592 
L 1202.502954 1223.838419 
L 1198.252898 1221.588936 
L 1193.825025 1219.577507 
L 1189.244337 1217.812251 
L 1184.536771 1216.300927 
L 1179.728752 1215.050805 
L 1174.846731 1214.068506 
L 1169.91673 1213.359819 
L 1164.963895 1212.929506 
L 1160.012071 1212.781089 
L 1155.083403 1212.91663 
L 1150.197977 1213.336505 
L 1145.373497 1214.039181 
L 1140.625029 1215.021011 
L 1135.964793 1216.27603 
L 1131.402027 1217.795797 
L 1126.942924 1219.569247 
L 1122.590641 1221.582603 
L 1118.345383 1223.81932 
L 1114.204568 1226.260082 
L 1110.163062 1228.882863 
L 1106.213481 1231.663031 
L 1101.074144 1235.567635 
L 1094.816851 1240.666389 
L 1075.42612 1256.882001 
L 1070.604637 1260.482807 
L 1066.977112 1262.963406 
L 1063.338855 1265.220985 
L 1059.692139 1267.226939 
L 1056.042211 1268.955295 
L 1052.397283 1270.383065 
L 1048.76843 1271.490548 
L 1045.169395 1272.261562 
L 1042.794486 1272.582322 
L 1040.445265 1272.745145 
L 1038.12739 1272.748021 
L 1035.846811 1272.589691 
L 1033.609712 1272.269644 
L 1031.422443 1271.788101 
L 1029.291454 1271.145991 
L 1027.223222 1270.34493 
L 1025.224187 1269.387186 
L 1023.300675 1268.275645 
L 1021.458839 1267.013768 
L 1019.704586 1265.605544 
L 1018.043514 1264.055446 
L 1016.480858 1262.368374 
L 1015.021432 1260.549606 
L 1013.669579 1258.604738 
L 1012.429127 1256.53963 
L 1011.303352 1254.36035 
L 1010.294948 1252.073111 
L 1009.006799 1248.453642 
L 1007.991656 1244.626861 
L 1007.250661 1240.61395 
L 1006.781725 1236.435515 
L 1006.579599 1232.111251 
L 1006.636022 1227.659654 
L 1006.939911 1223.097782 
L 1007.477616 1218.441077 
L 1008.233201 1213.703235 
L 1009.18876 1208.89615 
L 1010.739925 1202.396163 
L 1012.561898 1195.809896 
L 1015.139992 1187.476743 
L 1018.535188 1177.352894 
L 1027.329707 1151.551684 
L 1030.022524 1142.824844 
L 1031.989917 1135.815395 
L 1033.748066 1128.796012 
L 1035.260285 1121.785159 
L 1036.492843 1114.805937 
L 1037.21511 1109.608743 
L 1037.750817 1104.458024 
L 1038.089047 1099.368157 
L 1038.21987 1094.354478 
L 1038.134376 1089.433022 
L 1037.824705 1084.620237 
L 1037.284094 1079.932656 
L 1036.506912 1075.386562 
L 1035.4887 1070.997628 
L 1034.226202 1066.780566 
L 1032.717395 1062.748789 
L 1030.961499 1058.914096 
L 1028.958988 1055.286388 
L 1026.711581 1051.873434 
L 1024.22222 1048.680688 
L 1021.495041 1045.711166 
L 1018.535328 1042.96539 
L 1015.349464 1040.441399 
L 1011.944867 1038.134838 
L 1008.329929 1036.039105 
L 1004.51395 1034.145582 
L 1000.507072 1032.44391 
L 996.320222 1030.922334 
L 991.965057 1029.568089 
L 987.453916 1028.367816 
L 981.218978 1026.983667 
L 974.762421 1025.818343 
L 968.118647 1024.843764 
L 959.606057 1023.858575 
L 950.932502 1023.10311 
L 942.17697 1022.56356 
L 933.422181 1022.246192 
L 924.753667 1022.177331 
L 917.939364 1022.330551 
L 911.280154 1022.700751 
L 904.819134 1023.322077 
L 900.128156 1023.974898 
L 895.58783 1024.805339 
L 891.212909 1025.828778 
L 887.016522 1027.059732 
L 883.009883 1028.51136 
L 879.202018 1030.195011 
L 875.599516 1032.119812 
L 872.206309 1034.292311 
L 869.023494 1036.716184 
L 866.049211 1039.39202 
L 863.27857 1042.317175 
L 860.703649 1045.485712 
L 858.313549 1048.888413 
L 856.094529 1052.512875 
L 854.030195 1056.34367 
L 852.101766 1060.362571 
L 849.705645 1065.977539 
L 847.459944 1071.834723 
L 844.247142 1080.941351 
L 838.818722 1096.430226 
L 836.45963 1102.541154 
L 833.920492 1108.507305 
L 831.87411 1112.850688 
L 829.690702 1117.055146 
L 827.359486 1121.09862 
L 824.872519 1124.960825 
L 822.224701 1128.623383 
L 819.413707 1132.069926 
L 816.439851 1135.286179 
L 813.305883 1138.260017 
L 810.016738 1140.981507 
L 806.579232 1143.442931 
L 803.001729 1145.638797 
L 799.293789 1147.565832 
L 795.465803 1149.222967 
L 791.528634 1150.611297 
L 787.493269 1151.73404 
L 783.370499 1152.596463 
L 779.170641 1153.2058 
L 774.903286 1153.571143 
L 770.577117 1153.703307 
L 766.199765 1153.614678 
L 761.777726 1153.319021 
L 757.31634 1152.83127 
L 751.313741 1151.909637 
L 745.255683 1150.714062 
L 739.14656 1149.284672 
L 731.441919 1147.229351 
L 722.099675 1144.4644 
L 709.490365 1140.444704 
L 691.945338 1134.573123 
L 677.577834 1129.538765 
L 668.118897 1126.001932 
L 660.387627 1122.877912 
L 654.345448 1120.221061 
L 648.466162 1117.38867 
L 642.783762 1114.347584 
L 638.671638 1111.910608 
L 634.703514 1109.325988 
L 630.893145 1106.582759 
L 627.253792 1103.671665 
L 623.798124 1100.585465 
L 620.538132 1097.319184 
L 617.485073 1093.870321 
L 614.649431 1090.238989 
L 612.040902 1086.428003 
L 609.668389 1082.4429 
L 607.540014 1078.291914 
L 605.663134 1073.985882 
L 604.044363 1069.538113 
L 602.689592 1064.96421 
L 601.603998 1060.281852 
L 600.792049 1055.510556 
L 600.257491 1050.671407 
L 600.003325 1045.786784 
L 600.031767 1040.880077 
L 600.34419 1035.975395 
L 600.941053 1031.097299 
L 601.821823 1026.270522 
L 602.984883 1021.519724 
L 604.427443 1016.869246 
L 606.14545 1012.342897 
L 608.133504 1007.963748 
L 610.384797 1003.753952 
L 612.891057 999.734572 
L 615.642531 995.925435 
L 618.627981 992.344985 
L 621.834731 989.010159 
L 625.248728 985.936263 
L 627.632349 984.03873 
L 630.096476 982.266793 
L 632.636092 980.623632 
L 635.246003 979.112033 
L 637.920877 977.734369 
L 642.043053 975.923154 
L 646.280442 974.422314 
L 650.614243 973.23427 
L 655.025816 972.359054 
L 659.496976 971.794222 
L 664.010279 971.534806 
L 668.549305 971.573267 
L 673.098917 971.899481 
L 677.645495 972.500756 
L 682.177137 973.361878 
L 686.683815 974.465189 
L 691.157491 975.790715 
L 695.592176 977.316321 
L 699.983945 979.017911 
L 705.769864 981.515616 
L 711.477059 984.21506 
L 719.904987 988.492506 
L 736.443566 997.002776 
L 741.922389 999.57803 
L 747.411716 1001.919508 
L 751.544005 1003.489782 
L 755.694596 1004.878319 
L 759.866753 1006.067465 
L 764.06223 1007.042037 
L 768.281135 1007.789373 
L 772.521823 1008.299324 
L 776.780846 1008.56419 
L 781.052949 1008.578604 
L 785.331109 1008.339382 
L 789.606617 1007.845316 
L 793.869206 1007.096951 
L 798.107209 1006.096335 
L 802.307761 1004.846754 
L 806.457016 1003.352473 
L 810.540399 1001.618472 
L 814.542867 999.65021 
L 818.449186 997.453403 
L 822.244213 995.033838 
L 825.913181 992.397226 
L 829.441975 989.549089 
L 832.81741 986.4947 
L 836.027482 983.239063 
L 839.061617 979.786941 
L 841.910895 976.142926 
L 844.568246 972.311547 
L 847.028637 968.297413 
L 849.289216 964.105388 
L 851.349437 959.740775 
L 853.211151 955.209518 
L 854.878665 950.518405 
L 856.358771 945.675262 
L 857.660733 940.689127 
L 858.796244 935.570403 
L 860.075933 928.559954 
L 861.124335 921.367605 
L 862.179885 912.178984 
L 863.207922 900.974025 
L 865.042757 880.458041 
L 865.895017 873.182147 
L 866.942082 866.091023 
L 867.889768 860.925664 
L 869.00187 855.914885 
L 870.299299 851.078338 
L 871.801013 846.434009 
L 873.523768 841.997953 
L 875.48191 837.784065 
L 876.924031 835.104037 
L 878.47888 832.530748 
L 880.148733 830.066506 
L 881.935319 827.71311 
L 883.839809 825.471845 
L 885.862825 823.343481 
L 888.004442 821.328284 
L 890.264201 819.426025 
L 892.64112 817.635994 
L 895.133721 815.957019 
L 897.740041 814.387489 
L 901.857344 812.233871 
L 906.215068 810.31344 
L 910.801384 808.616065 
L 915.602811 807.130163 
L 920.604502 805.842965 
L 925.790522 804.740787 
L 931.144151 803.809293 
L 936.648163 803.033748 
L 944.190607 802.216536 
L 951.928189 801.615009 
L 961.813615 801.114484 
L 971.867284 800.834336 
L 984.058937 800.706968 
L 1002.39851 800.756758 
L 1032.46304 800.852902 
L 1046.070938 800.662797 
L 1057.450138 800.279828 
L 1066.705718 799.761384 
L 1075.735466 799.026872 
L 1082.7853 798.26244 
L 1089.671817 797.32413 
L 1096.387798 796.197568 
L 1102.92702 794.869661 
L 1109.284549 793.32888 
L 1115.457062 791.565548 
L 1121.443166 789.572099 
L 1127.243689 787.343311 
L 1132.861927 784.876519 
L 1138.303803 782.171798 
L 1143.577943 779.232122 
L 1148.695638 776.063511 
L 1153.670696 772.675171 
L 1158.51918 769.079637 
L 1163.259032 765.292917 
L 1169.060659 760.32096 
L 1174.76237 755.128056 
L 1182.652218 747.596449 
L 1198.466455 732.365312 
L 1204.213318 727.162959 
L 1208.865045 723.20281 
L 1213.566554 719.482663 
L 1218.315003 716.0597 
L 1221.90313 713.721885 
L 1225.509433 711.607005 
L 1229.128256 709.737924 
L 1232.752752 708.136395 
L 1236.374936 706.82271 
L 1239.985765 705.815353 
L 1243.575211 705.130662 
L 1245.950939 704.86042 
L 1248.308891 704.743249 
L 1250.645487 704.782006 
L 1252.957016 704.978941 
L 1255.239651 705.335662 
L 1257.489462 705.853117 
L 1259.702431 706.531573 
L 1261.874471 707.370605 
L 1264.001433 708.369091 
L 1266.079131 709.525205 
L 1268.103351 710.836425 
L 1270.069871 712.299543 
L 1271.974475 713.910682 
L 1273.81297 715.665315 
L 1276.437696 718.554897 
L 1278.890606 721.735816 
L 1281.158388 725.185595 
L 1283.228301 728.879442 
L 1285.088324 732.790648 
L 1286.727307 736.89102 
L 1288.135118 741.151347 
L 1289.302799 745.541885 
L 1290.222716 750.032844 
L 1290.888698 754.594884 
L 1291.296173 759.199592 
L 1291.44229 763.819942 
L 1291.326019 768.430722 
L 1290.94823 773.00893 
L 1290.311753 777.534116 
L 1289.421398 781.988677 
L 1288.283953 786.35809 
L 1286.908146 790.631086 
L 1285.304571 794.799757 
L 1283.485583 798.859598 
L 1281.465162 802.809479 
L 1279.25874 806.651557 
L 1276.883016 810.391118 
L 1274.355733 814.036371 
L 1270.782431 818.769123 
L 1267.018224 823.38586 
L 1262.114962 829.051862 
L 1244.929069 848.546392 
L 1241.001535 853.429345 
L 1237.192301 858.501398 
L 1233.531646 863.788047 
L 1230.047409 869.306424 
L 1227.565664 873.602356 
L 1225.208226 878.032891 
L 1222.985315 882.594452 
L 1220.907084 887.280214 
L 1218.983764 892.080164 
L 1217.225791 896.981211 
L 1215.643914 901.967372 
L 1214.249249 907.020013 
L 1213.053304 912.118157 
L 1212.06796 917.23883 
L 1211.305392 922.357475 
L 1210.777955 927.448394 
L 1210.498019 932.485223 
L 1210.477754 937.441441 
L 1210.728893 942.290885 
L 1211.26245 947.008271 
L 1212.088423 951.569718 
L 1212.805874 954.513099 
L 1213.659355 957.371408 
L 1214.650679 960.139224 
L 1215.781259 962.81171 
L 1217.052064 965.38466 
L 1218.463589 967.854543 
L 1220.015825 970.218544 
L 1221.708226 972.474594 
L 1223.539693 974.621398 
L 1225.508549 976.658451 
L 1227.612529 978.586057 
L 1229.84877 980.405324 
L 1232.21381 982.118168 
L 1234.703589 983.7273 
L 1238.661813 985.954372 
L 1242.872003 987.971017 
L 1247.313305 989.795673 
L 1251.962322 991.449971 
L 1256.793369 992.958329 
L 1263.469864 994.788944 
L 1272.094159 996.883625 
L 1293.22212 1001.83237 
L 1300.13461 1003.700032 
L 1306.859771 1005.779674 
L 1311.73945 1007.508993 
L 1316.448174 1009.40338 
L 1320.960595 1011.476865 
L 1325.253243 1013.739868 
L 1329.304647 1016.199121 
L 1333.095423 1018.857667 
L 1336.608345 1021.71496 
L 1338.788416 1023.728414 
L 1340.834364 1025.826541 
L 1342.742728 1028.006791 
L 1344.510488 1030.26608 
L 1346.135066 1032.60084 
L 1347.614334 1035.007075 
L 1348.946603 1037.48042 
L 1350.130637 1040.016207 
L 1351.165642 1042.609522 
L 1352.051276 1045.255277 
L 1352.787647 1047.948269 
L 1353.375317 1050.683249 
L 1353.815304 1053.454979 
L 1354.201736 1057.670221 
L 1354.266251 1061.939739 
L 1354.018149 1066.247749 
L 1353.469107 1070.579837 
L 1352.633184 1074.923227 
L 1351.52681 1079.266974 
L 1350.168758 1083.602084 
L 1348.580085 1087.921547 
L 1346.784047 1092.220297 
L 1344.110829 1097.914387 
L 1341.179496 1103.562825 
L 1337.260164 1110.560685 
L 1323.038568 1135.289505 
L 1320.336918 1140.696726 
L 1318.521408 1144.724782 
L 1316.917331 1148.723211 
L 1315.54997 1152.684596 
L 1314.442013 1156.599869 
L 1313.613279 1160.458461 
L 1313.080491 1164.24852 
L 1312.857093 1167.957197 
L 1312.953125 1171.570995 
L 1313.197992 1173.920684 
L 1313.588897 1176.218027 
L 1314.126237 1178.459054 
L 1314.809727 1180.639937 
L 1315.638424 1182.757049 
L 1316.610736 1184.807015 
L 1317.724451 1186.786769 
L 1318.976763 1188.693592 
L 1320.364301 1190.525167 
L 1321.883165 1192.279606 
L 1324.397968 1194.763659 
L 1327.181594 1197.068361 
L 1330.215419 1199.19359 
L 1333.479224 1201.14184 
L 1336.951561 1202.918162 
L 1340.610132 1204.530006 
L 1344.432165 1205.986989 
L 1348.394787 1207.300572 
L 1353.85799 1208.85145 
L 1359.479277 1210.203775 
L 1366.654802 1211.667548 
L 1375.374034 1213.177066 
L 1386.995285 1214.924791 
L 1404.081648 1217.241531 
L 1416.549502 1218.753339 
L 1426.111292 1219.697632 
L 1434.291084 1220.266469 
L 1441.148545 1220.530027 
L 1448.082972 1220.582201 
L 1455.123735 1220.421224 
L 1463.735987 1219.973422 
L 1474.002407 1219.193962 
L 1493.385172 1217.658049 
L 1500.749699 1217.310098 
L 1506.506143 1217.23215 
L 1512.080367 1217.383997 
L 1516.105063 1217.674797 
L 1519.967215 1218.135209 
L 1523.64109 1218.779055 
L 1527.101758 1219.617756 
L 1530.325628 1220.660197 
L 1533.290975 1221.912685 
L 1535.978419 1223.378966 
L 1537.607334 1224.475997 
L 1539.10114 1225.668479 
L 1540.456348 1226.955797 
L 1541.670166 1228.336938 
L 1542.740526 1229.810533 
L 1543.6661 1231.37489 
L 1544.446311 1233.028031 
L 1545.081334 1234.767735 
L 1545.572084 1236.591573 
L 1545.920205 1238.496948 
L 1546.180267 1241.501891 
L 1546.135525 1244.674519 
L 1545.799711 1248.004934 
L 1545.1892 1251.483119 
L 1544.322547 1255.099058 
L 1543.219966 1258.842802 
L 1541.4198 1264.016208 
L 1539.289944 1269.375903 
L 1536.2416 1276.301275 
L 1532.850631 1283.431875 
L 1528.440644 1292.183594 
L 1522.954008 1302.525715 
L 1518.026486 1311.355632 
L 1513.775439 1318.573128 
L 1509.38213 1325.555722 
L 1505.749177 1330.899669 
L 1501.993445 1335.965642 
L 1499.085154 1339.547603 
L 1496.089842 1342.916307 
L 1493.000177 1346.048654 
L 1489.809595 1348.923029 
L 1486.512609 1351.519804 
L 1483.105076 1353.821824 
L 1479.584399 1355.814877 
L 1477.1739 1356.966422 
L 1474.712832 1357.973441 
L 1472.201707 1358.834406 
L 1469.641382 1359.548605 
L 1467.033053 1360.116166 
L 1464.378236 1360.538082 
L 1460.312917 1360.9022 
L 1456.15449 1360.953048 
L 1451.911492 1360.705058 
L 1447.593439 1360.176939 
L 1443.210564 1359.391454 
L 1438.773539 1358.375106 
L 1434.293192 1357.157738 
L 1428.270476 1355.278784 
L 1420.69723 1352.637808 
L 1398.042887 1344.444374 
L 1392.08017 1342.605164 
L 1387.637056 1341.415075 
L 1383.218506 1340.417108 
L 1378.823014 1339.634015 
L 1374.448 1339.084362 
L 1370.089954 1338.782245 
L 1365.744608 1338.737091 
L 1361.407128 1338.95354 
L 1357.072318 1339.43141 
L 1352.734849 1340.165752 
L 1348.389481 1341.146978 
L 1344.031308 1342.361063 
L 1339.655995 1343.789824 
L 1333.78963 1345.990235 
L 1327.881248 1348.471312 
L 1320.435278 1351.859393 
L 1296.348624 1363.081116 
L 1290.367715 1365.542162 
L 1284.464516 1367.705469 
L 1280.112143 1369.089587 
L 1275.844553 1370.239021 
L 1271.681289 1371.129412 
L 1267.642559 1371.739424 
L 1263.748861 1372.05094 
L 1260.020567 1372.049206 
L 1258.818007 1371.976963 
L 1258.818007 1371.976963 
" clip-path="url(#p0339216aef)" style="fill: none; stroke: #4169e1; stroke-width: 3; stroke-linecap: square"/>
   </g>
   <g id="line2d_2">
    <path d="M 1218.058807 1477.80557 
L 1216.366168 1477.361071 
L 1214.742356 1476.715013 
L 1213.191099 1475.865884 
L 1211.715848 1474.81309 
L 1210.319731 1473.556931 
L 1209.005517 1472.098581 
L 1207.775576 1470.440058 
L 1206.631843 1468.584195 
L 1205.57579 1466.534596 
L 1204.608394 1464.295602 
L 1203.324396 1460.593178 
L 1202.240065 1456.495727 
L 1201.351867 1452.025764 
L 1200.653411 1447.208287 
L 1200.135458 1442.070358 
L 1199.786 1436.640698 
L 1199.55648 1428.999276 
L 1199.558766 1420.96582 
L 1199.813744 1410.485991 
L 1200.449404 1395.254332 
L 1201.277379 1375.263764 
L 1201.513087 1364.207461 
L 1201.490619 1355.485921 
L 1201.225527 1346.930376 
L 1200.840504 1340.651199 
L 1200.277726 1334.510387 
L 1199.523513 1328.525086 
L 1198.566816 1322.711343 
L 1197.39933 1317.084237 
L 1196.015567 1311.65802 
L 1194.412878 1306.446258 
L 1192.59144 1301.461975 
L 1190.554189 1296.717775 
L 1188.30672 1292.225963 
L 1185.857147 1287.998631 
L 1183.215923 1284.047723 
L 1180.395629 1280.385073 
L 1177.410735 1277.022398 
L 1174.277329 1273.971269 
L 1171.012825 1271.243029 
L 1168.772727 1269.609041 
L 1166.488187 1268.126613 
L 1164.164944 1266.798777 
L 1161.808785 1265.628419 
L 1159.425501 1264.618254 
L 1157.020843 1263.770789 
L 1154.600476 1263.088296 
L 1152.169938 1262.572767 
L 1149.734599 1262.225885 
L 1147.299617 1262.048979 
L 1144.869903 1262.042988 
L 1142.450084 1262.208421 
L 1140.04447 1262.545311 
L 1137.657024 1263.053184 
L 1135.291336 1263.731014 
L 1132.950597 1264.577191 
L 1130.637587 1265.589483 
L 1128.354652 1266.765007 
L 1126.103702 1268.100202 
L 1122.790329 1270.392852 
L 1119.555181 1273.017547 
L 1116.399123 1275.9531 
L 1113.320921 1279.174562 
L 1110.317393 1282.653268 
L 1107.383621 1286.356965 
L 1103.569198 1291.583154 
L 1099.848987 1297.052676 
L 1094.400001 1305.490071 
L 1086.382986 1317.938091 
L 1082.834054 1323.100449 
L 1079.276482 1327.878339 
L 1076.599355 1331.146625 
L 1073.914632 1334.099116 
L 1071.224718 1336.698145 
L 1068.534213 1338.909784 
L 1066.743471 1340.154124 
L 1064.957956 1341.205287 
L 1063.18058 1342.056523 
L 1061.414621 1342.70206 
L 1059.66369 1343.137129 
L 1057.931698 1343.357977 
L 1056.222816 1343.361877 
L 1054.541431 1343.147124 
L 1052.892102 1342.713023 
L 1051.279511 1342.059872 
L 1049.708413 1341.188933 
L 1048.183583 1340.102399 
L 1046.709769 1338.803345 
L 1045.291637 1337.295685 
L 1043.933721 1335.584114 
L 1042.640375 1333.674042 
L 1041.415729 1331.571536 
L 1040.263642 1329.283244 
L 1038.679228 1325.518233 
L 1037.276453 1321.377315 
L 1036.063809 1316.888007 
L 1035.047614 1312.078851 
L 1034.231883 1306.978836 
L 1033.618257 1301.616847 
L 1033.205984 1296.021146 
L 1032.991965 1290.218905 
L 1032.970833 1284.235792 
L 1033.135092 1278.095628 
L 1033.625891 1269.70161 
L 1034.402095 1261.111663 
L 1035.431949 1252.363051 
L 1036.680133 1243.485364 
L 1038.489566 1232.240224 
L 1040.924399 1218.566881 
L 1049.473358 1171.880556 
L 1051.348625 1160.009634 
L 1052.994105 1148.109803 
L 1054.109007 1138.600498 
L 1055.017726 1129.134095 
L 1055.697573 1119.748086 
L 1056.12807 1110.48558 
L 1056.290998 1101.394366 
L 1056.17049 1092.525596 
L 1055.885941 1086.051806 
L 1055.42965 1079.755262 
L 1054.79775 1073.657828 
L 1053.987249 1067.780381 
L 1052.996046 1062.142337 
L 1051.822954 1056.761207 
L 1050.467707 1051.652175 
L 1048.930961 1046.827738 
L 1047.214286 1042.297413 
L 1045.320148 1038.067507 
L 1043.251882 1034.140989 
L 1041.013658 1030.517436 
L 1038.610441 1027.193089 
L 1036.047946 1024.160998 
L 1033.332588 1021.411259 
L 1030.471436 1018.931347 
L 1027.472165 1016.706528 
L 1024.343013 1014.720339 
L 1021.092747 1012.955132 
L 1017.730626 1011.392657 
L 1014.266385 1010.014672 
L 1010.710207 1008.803561 
L 1005.844056 1007.420259 
L 1000.859797 1006.271091 
L 995.785163 1005.330267 
L 990.6492 1004.581536 
L 985.482181 1004.019375 
L 980.315472 1003.649556 
L 975.181297 1003.48906 
L 970.112405 1003.565317 
L 965.141606 1003.91482 
L 961.497344 1004.382304 
L 957.939654 1005.048204 
L 954.481172 1005.93367 
L 951.133761 1007.060054 
L 947.908296 1008.448216 
L 944.814458 1010.117843 
L 942.829172 1011.396208 
L 940.908154 1012.812358 
L 939.053118 1014.370439 
L 937.265415 1016.073965 
L 935.546005 1017.925758 
L 933.895445 1019.927891 
L 931.548875 1023.215558 
L 929.356048 1026.844979 
L 927.313359 1030.81257 
L 925.414967 1035.110275 
L 923.652836 1039.725595 
L 922.016836 1044.641704 
L 920.49488 1049.837676 
L 918.618851 1057.157752 
L 916.883859 1064.863179 
L 914.851449 1074.919319 
L 907.540764 1112.498521 
L 905.668753 1120.590826 
L 903.635111 1128.40545 
L 901.416988 1135.867161 
L 899.622239 1141.190594 
L 897.709922 1146.251243 
L 895.67765 1151.025987 
L 893.525022 1155.494506 
L 891.253485 1159.639374 
L 888.866163 1163.446124 
L 886.367645 1166.903282 
L 883.763746 1170.002394 
L 881.061251 1172.738018 
L 878.267645 1175.107711 
L 876.358526 1176.484346 
L 874.414831 1177.699385 
L 872.438963 1178.754262 
L 870.433295 1179.650961 
L 868.400145 1180.392003 
L 866.341745 1180.980424 
L 863.211426 1181.58476 
L 860.035693 1181.867683 
L 856.82044 1181.845307 
L 853.57074 1181.53571 
L 850.290813 1180.958654 
L 846.984035 1180.135273 
L 843.652984 1179.087716 
L 840.299525 1177.838772 
L 835.795498 1175.89999 
L 831.255608 1173.697826 
L 825.531825 1170.652384 
L 818.594385 1166.685379 
L 809.242028 1161.061318 
L 797.457243 1153.705596 
L 789.233577 1148.334805 
L 783.429474 1144.319999 
L 777.7295 1140.082674 
L 773.274829 1136.479003 
L 768.940252 1132.637236 
L 765.783204 1129.572556 
L 762.718403 1126.330232 
L 759.756324 1122.89304 
L 756.907207 1119.245438 
L 754.180961 1115.37405 
L 751.587077 1111.2681 
L 749.13457 1106.919783 
L 746.831922 1102.324562 
L 744.687056 1097.481392 
L 742.707314 1092.392861 
L 740.899454 1087.065251 
L 739.269655 1081.508519 
L 737.823527 1075.736204 
L 736.566128 1069.765267 
L 735.501978 1063.615861 
L 734.635067 1057.311065 
L 733.968864 1050.876557 
L 733.506311 1044.340268 
L 733.249806 1037.732011 
L 733.201179 1031.083095 
L 733.361655 1024.425941 
L 733.731804 1017.793699 
L 734.311483 1011.219876 
L 735.099774 1004.737992 
L 736.094916 998.381239 
L 737.294237 992.182186 
L 738.694095 986.172485 
L 740.28982 980.382627 
L 742.075677 974.841698 
L 744.04484 969.57717 
L 746.189386 964.614706 
L 748.500319 959.977979 
L 750.967609 955.688505 
L 753.580266 951.76548 
L 755.396974 949.362079 
L 757.269337 947.133347 
L 759.193527 945.08306 
L 761.16561 943.214439 
L 763.181572 941.530133 
L 765.237338 940.032195 
L 767.328803 938.722069 
L 769.451857 937.600574 
L 771.602414 936.667886 
L 773.776439 935.923527 
L 775.969977 935.366347 
L 778.179182 934.994523 
L 780.400345 934.805543 
L 782.629917 934.796204 
L 784.864537 934.962611 
L 787.101056 935.300177 
L 789.336554 935.803628 
L 791.568365 936.467016 
L 794.903989 937.747334 
L 798.219067 939.347461 
L 801.508173 941.239297 
L 804.7674 943.391902 
L 807.994355 945.771776 
L 812.245368 949.236472 
L 816.439126 952.951976 
L 822.635199 958.790443 
L 832.792694 968.43602 
L 836.831895 971.995963 
L 840.876 975.258286 
L 843.91879 977.464444 
L 846.974048 979.432803 
L 850.044521 981.138329 
L 853.131887 982.5593 
L 856.23664 983.6774 
L 859.358002 984.477731 
L 862.493879 984.948756 
L 864.590886 985.075593 
L 866.691502 985.050611 
L 868.794129 984.872673 
L 870.896921 984.541175 
L 872.9978 984.056001 
L 875.094467 983.417487 
L 878.226043 982.17391 
L 881.333257 980.590996 
L 884.406125 978.674123 
L 887.434057 976.429764 
L 890.406057 973.865139 
L 893.310916 970.987915 
L 896.137425 967.805936 
L 898.87458 964.327002 
L 901.511794 960.558699 
L 904.039094 956.508299 
L 906.447319 952.18271 
L 908.728305 947.588493 
L 910.875049 942.731939 
L 912.88187 937.619201 
L 914.744542 932.25647 
L 916.460417 926.650201 
L 918.028516 920.807357 
L 919.449608 914.735682 
L 920.726264 908.443971 
L 921.862877 901.942341 
L 923.171539 892.967412 
L 924.262236 883.673001 
L 925.160156 874.098165 
L 926.058033 861.805671 
L 926.898573 846.719248 
L 929.07352 803.849583 
L 930.014328 791.784841 
L 930.972068 782.488562 
L 932.154554 773.580996 
L 933.210051 767.192109 
L 934.424585 761.07877 
L 935.809343 755.260833 
L 937.373644 749.755047 
L 939.124848 744.574848 
L 941.068278 739.730221 
L 943.207198 735.227633 
L 944.74243 732.417531 
L 946.36498 729.760853 
L 948.074318 727.256959 
L 949.869534 724.904569 
L 951.749358 722.701792 
L 953.712172 720.646158 
L 955.756038 718.734657 
L 957.878712 716.963776 
L 960.077672 715.329543 
L 963.513013 713.12472 
L 967.1034 711.201121 
L 970.837596 709.540971 
L 974.703637 708.125374 
L 978.689047 706.93467 
L 982.781049 705.948766 
L 986.96676 705.147452 
L 992.671388 704.33156 
L 998.4903 703.761865 
L 1004.395284 703.394043 
L 1011.857592 703.154826 
L 1020.870409 703.092974 
L 1037.346801 703.258901 
L 1050.594364 703.310973 
L 1059.238085 703.147051 
L 1066.30007 702.820199 
L 1073.217414 702.271638 
L 1078.637731 701.642947 
L 1083.949835 700.821091 
L 1089.147413 699.784237 
L 1094.224583 698.511543 
L 1099.176023 696.98351 
L 1102.804299 695.659158 
L 1106.357657 694.174418 
L 1109.834857 692.523329 
L 1113.235074 690.70078 
L 1116.557951 688.702596 
L 1119.803652 686.525608 
L 1122.972902 684.167723 
L 1126.067026 681.627987 
L 1129.08797 678.90664 
L 1132.038312 676.005168 
L 1134.921258 672.926347 
L 1138.667029 668.552689 
L 1142.310453 663.884817 
L 1145.863747 658.94089 
L 1149.340437 653.743837 
L 1153.60067 646.934597 
L 1158.62607 638.393507 
L 1166.089613 625.126032 
L 1173.593488 611.848765 
L 1177.820032 604.731836 
L 1182.101265 597.975665 
L 1185.567511 592.929772 
L 1189.068364 588.286972 
L 1191.713755 585.11603 
L 1194.372546 582.247472 
L 1197.040569 579.712309 
L 1199.712773 577.540044 
L 1202.383273 575.758202 
L 1204.159397 574.799705 
L 1205.929659 574.032659 
L 1207.691765 573.46316 
L 1209.4433 573.096613 
L 1211.181729 572.937685 
L 1212.904413 572.990254 
L 1214.608617 573.25737 
L 1216.291518 573.741216 
L 1217.950218 574.443075 
L 1219.581758 575.363312 
L 1221.18312 576.501351 
L 1222.75125 577.855666 
L 1224.283058 579.423783 
L 1225.77544 581.202281 
L 1227.225281 583.18681 
L 1228.629473 585.372109 
L 1230.643419 589.012842 
L 1232.537419 593.067075 
L 1234.301433 597.506686 
L 1235.925775 602.300085 
L 1237.401218 607.412717 
L 1238.719101 612.807612 
L 1239.871439 618.446002 
L 1240.85104 624.287949 
L 1241.651613 630.293015 
L 1242.267877 636.420925 
L 1242.695665 642.632228 
L 1242.93202 648.888947 
L 1242.975279 655.155182 
L 1242.825146 661.397681 
L 1242.482739 667.586348 
L 1241.95063 673.694692 
L 1241.232854 679.700199 
L 1240.334896 685.584619 
L 1239.263657 691.334176 
L 1238.027389 696.93968 
L 1236.635614 702.396555 
L 1235.099009 707.704772 
L 1232.845276 714.559302 
L 1230.385086 721.179512 
L 1227.750625 727.598872 
L 1224.263616 735.407672 
L 1219.88263 744.598793 
L 1210.16289 764.758975 
L 1206.510936 772.93269 
L 1203.678556 779.744493 
L 1200.950319 786.839726 
L 1198.347165 794.2446 
L 1195.888528 801.972981 
L 1193.592798 810.02543 
L 1191.477827 818.388699 
L 1189.561416 827.035711 
L 1187.861752 835.926049 
L 1186.397727 845.006924 
L 1185.189111 854.214628 
L 1184.256552 863.47641 
L 1183.751108 870.410579 
L 1183.422064 877.295287 
L 1183.278508 884.094629 
L 1183.329327 890.772714 
L 1183.583017 897.294374 
L 1184.047476 903.625874 
L 1184.729774 909.735603 
L 1185.635929 915.594745 
L 1186.770677 921.177905 
L 1188.137246 926.463674 
L 1189.737161 931.435128 
L 1191.57006 936.080243 
L 1192.920331 938.992101 
L 1194.371895 941.755098 
L 1195.92308 944.369642 
L 1197.571777 946.83724 
L 1199.315432 949.160489 
L 1201.151051 951.343066 
L 1203.075209 953.389701 
L 1206.118912 956.217605 
L 1209.338349 958.776258 
L 1212.716872 961.093614 
L 1216.236086 963.201599 
L 1219.876054 965.135508 
L 1224.880326 967.509209 
L 1231.3032 970.281553 
L 1243.005086 975.302746 
L 1248.127715 977.776124 
L 1251.890472 979.803365 
L 1255.561088 982.012586 
L 1259.118837 984.430404 
L 1262.544169 987.07899 
L 1265.818849 989.975762 
L 1268.926054 993.133193 
L 1271.850462 996.558738 
L 1274.578307 1000.254883 
L 1277.097424 1004.219311 
L 1279.397279 1008.445181 
L 1281.46898 1012.921507 
L 1283.305288 1017.633632 
L 1284.900624 1022.563768 
L 1286.251071 1027.691607 
L 1287.354382 1032.994958 
L 1288.209985 1038.450412 
L 1288.818995 1044.03401 
L 1289.184231 1049.721878 
L 1289.310233 1055.490841 
L 1289.203274 1061.318962 
L 1288.871378 1067.186028 
L 1288.324325 1073.073934 
L 1287.573649 1078.966986 
L 1286.632616 1084.852091 
L 1285.516197 1090.718843 
L 1283.783757 1098.499629 
L 1281.812893 1106.222917 
L 1279.087724 1115.789983 
L 1275.569875 1127.148113 
L 1267.34723 1153.232567 
L 1264.762624 1162.422862 
L 1262.946776 1169.715097 
L 1261.407857 1176.935622 
L 1260.461745 1182.289346 
L 1259.711996 1187.575961 
L 1259.172479 1192.780513 
L 1258.854729 1197.886428 
L 1258.767831 1202.87593 
L 1258.918335 1207.730529 
L 1259.310222 1212.431565 
L 1259.944901 1216.960778 
L 1260.821261 1221.300892 
L 1261.935748 1225.436189 
L 1263.282492 1229.353037 
L 1264.853464 1233.040376 
L 1266.638659 1236.49011 
L 1268.626317 1239.69742 
L 1270.803158 1242.660958 
L 1273.154638 1245.382928 
L 1275.665216 1247.869041 
L 1278.318629 1250.128349 
L 1281.098174 1252.172959 
L 1283.986983 1254.017635 
L 1286.968295 1255.679311 
L 1290.025717 1257.176524 
L 1294.193522 1258.950764 
L 1298.433716 1260.514204 
L 1303.788237 1262.240409 
L 1310.226139 1264.078258 
L 1319.778066 1266.552205 
L 1330.136693 1269.028194 
L 1337.238981 1270.525889 
L 1343.273077 1271.557965 
L 1348.299403 1272.177516 
L 1352.340276 1272.485934 
L 1356.414283 1272.612579 
L 1360.533648 1272.552389 
L 1365.760039 1272.223624 
L 1371.079268 1271.647778 
L 1378.670173 1270.553694 
L 1390.770837 1268.768624 
L 1396.21989 1268.235267 
L 1400.490734 1268.061501 
L 1403.615232 1268.122061 
L 1406.651732 1268.375019 
L 1409.581171 1268.843863 
L 1412.384408 1269.549359 
L 1415.042623 1270.509196 
L 1417.537721 1271.737733 
L 1419.102059 1272.711557 
L 1420.581651 1273.812074 
L 1421.972163 1275.040958 
L 1423.269649 1276.399211 
L 1424.470587 1277.88719 
L 1425.571914 1279.504636 
L 1426.571058 1281.250714 
L 1427.46596 1283.124051 
L 1428.609674 1286.168484 
L 1429.512707 1289.486906 
L 1430.175024 1293.069436 
L 1430.599354 1296.904776 
L 1430.791088 1300.980589 
L 1430.758101 1305.283844 
L 1430.510518 1309.801116 
L 1430.060411 1314.518819 
L 1429.16906 1321.097403 
L 1427.977749 1327.976222 
L 1426.52424 1335.123584 
L 1424.396631 1344.386843 
L 1421.480867 1355.899878 
L 1417.712331 1369.723691 
L 1413.667241 1383.751425 
L 1409.415377 1397.70471 
L 1405.618017 1409.352336 
L 1402.332498 1418.654976 
L 1399.610425 1425.724738 
L 1396.791208 1432.377835 
L 1394.604884 1437.047021 
L 1392.350748 1441.405874 
L 1390.023746 1445.424328 
L 1387.619543 1449.074787 
L 1385.134737 1452.332793 
L 1383.43223 1454.276384 
L 1381.69246 1456.031205 
L 1379.915289 1457.593125 
L 1378.100837 1458.959014 
L 1376.249479 1460.126802 
L 1374.361848 1461.095519 
L 1372.438824 1461.865341 
L 1370.481528 1462.437615 
L 1368.491304 1462.814875 
L 1366.469704 1463.000851 
L 1364.418469 1463.000462 
L 1362.339508 1462.819805 
L 1360.234872 1462.466123 
L 1358.106729 1461.947771 
L 1354.8754 1460.882364 
L 1351.604148 1459.50382 
L 1348.300957 1457.85262 
L 1344.973726 1455.973143 
L 1340.513129 1453.194617 
L 1333.803442 1448.686129 
L 1324.892218 1442.682816 
L 1320.472965 1439.952698 
L 1317.178884 1438.113957 
L 1313.903143 1436.499757 
L 1310.645512 1435.146145 
L 1307.404882 1434.083982 
L 1304.179349 1433.338449 
L 1302.036127 1433.027034 
L 1299.897567 1432.869081 
L 1297.762665 1432.867422 
L 1295.630346 1433.0236 
L 1293.499481 1433.337863 
L 1291.368912 1433.809174 
L 1288.171059 1434.805214 
L 1284.967382 1436.136118 
L 1281.754266 1437.782866 
L 1278.528512 1439.720793 
L 1275.287521 1441.920047 
L 1270.939453 1445.198657 
L 1266.559407 1448.787314 
L 1259.934387 1454.524804 
L 1249.9286 1463.181075 
L 1245.493357 1466.753685 
L 1241.095595 1470.000338 
L 1237.837911 1472.159238 
L 1234.62907 1474.036614 
L 1231.482737 1475.59567 
L 1228.413319 1476.803369 
L 1226.417116 1477.398835 
L 1224.466195 1477.817683 
L 1222.565038 1478.053301 
L 1220.718087 1478.099986 
L 1218.929705 1477.952961 
L 1218.929705 1477.952961 
" clip-path="url(#p0339216aef)" style="fill: none; stroke: #ff8c00; stroke-width: 3; stroke-linecap: square"/>
   </g>
  </g>
 </g>
 <defs>
  <clipPath id="p0339216aef">
   <rect x="270" y="259.2" width="1674" height="1630.8"/>
  </clipPath>
 </defs>
</svg>
