<?xml version="1.0" encoding="utf-8" standalone="no"?>
<!DOCTYPE svg PUBLIC "-//W3C//DTD SVG 1.1//EN"
  "http://www.w3.org/Graphics/SVG/1.1/DTD/svg11.dtd">
<svg xmlns:xlink="http://www.w3.org/1999/xlink" width="2160pt" height="2160pt" viewBox="0 0 2160 2160" xmlns="http://www.w3.org/2000/svg" version="1.1">
 <metadata>
  <rdf:RDF xmlns:dc="http://purl.org/dc/elements/1.1/" xmlns:cc="http://creativecommons.org/ns#" xmlns:rdf="http://www.w3.org/1999/02/22-rdf-syntax-ns#">
   <cc:Work>
    <dc:type rdf:resource="http://purl.org/dc/dcmitype/StillImage"/>
    <dc:date>2022-03-06T19:20:59.906852</dc:date>
    <dc:format>image/svg+xml</dc:format>
    <dc:creator>
     <cc:Agent>
      <dc:title>Matplotlib v3.5.1, https://matplotlib.org/</dc:title>
     </cc:Agent>
    </dc:creator>
   </cc:Work>
  </rdf:RDF>
 </metadata>
 <defs>
  <style type="text/css">*{stroke-linejoin: round; stroke-linecap: butt}</style>
 </defs>
 <g id="figure_1">
  <g id="patch_1">
   <path d="M 0 2160 
L 2160 2160 
L 2160 0 
L 0 0 
L 0 2160 
z
" style="fill: none"/>
  </g>
  <g id="axes_1">
   <g id="line2d_1">
    <path d="M 1257.636748 1371.868297 
L 1255.340905 1371.540585 
L 1253.138416 1371.06427 
L 1251.034339 1370.43824 
L 1249.033353 1369.662054 
L 1247.139704 1368.735935 
L 1245.357144 1367.660749 
L 1243.68889 1366.437982 
L 1242.137566 1365.069724 
L 1240.705168 1363.558632 
L 1239.393022 1361.907906 
L 1238.201754 1360.121256 
L 1237.131261 1358.202864 
L 1236.180693 1356.157351 
L 1235.348441 1353.98974 
L 1234.316492 1350.521251 
L 1233.533973 1346.809702 
L 1232.985834 1342.875897 
L 1232.653373 1338.741655 
L 1232.514466 1334.429522 
L 1232.586292 1328.443058 
L 1232.889706 1322.236104 
L 1233.615312 1312.630981 
L 1234.774959 1297.907102 
L 1235.107597 1291.365851 
L 1235.216435 1284.888656 
L 1235.107636 1280.096815 
L 1234.804605 1275.378941 
L 1234.282372 1270.74954 
L 1233.519036 1266.22215 
L 1232.496045 1261.809412 
L 1231.198411 1257.523158 
L 1229.614869 1253.374505 
L 1227.737975 1249.373959 
L 1226.321808 1246.794168 
L 1224.77347 1244.287516 
L 1223.093595 1241.856799 
L 1221.283547 1239.504755 
L 1219.345404 1237.23408 
L 1217.281933 1235.047435 
L 1213.959407 1231.930782 
L 1210.376932 1229.017927 
L 1206.551573 1226.317592 
L 1202.502954 1223.838419 
L 1198.252898 1221.588936 
L 1193.825025 1219.577507 
L 1189.244337 1217.812251 
L 1184.536771 1216.300927 
L 1179.728752 1215.050805 
L 1174.846731 1214.068506 
L 1169.91673 1213.359819 
L 1164.963895 1212.929506 
L 1160.012071 1212.781089 
L 1155.083403 1212.91663 
L 1150.197977 1213.336505 
L 1145.373497 1214.039181 
L 1140.625029 1215.021011 
L 1135.964793 1216.27603 
L 1131.402027 1217.795797 
L 1126.942924 1219.569247 
L 1122.590641 1221.582603 
L 1118.345383 1223.81932 
L 1114.204568 1226.260082 
L 1110.163062 1228.882863 
L 1106.213481 1231.663031 
L 1101.074144 1235.567635 
L 1094.816851 1240.666389 
L 1075.42612 1256.882001 
L 1070.604637 1260.482807 
L 1066.977112 1262.963406 
L 1063.338855 1265.220985 
L 1059.692139 1267.226939 
L 1056.042211 1268.955295 
L 1052.397283 1270.383065 
L 1048.76843 1271.490548 
L 1045.169395 1272.261562 
L 1042.794486 1272.582322 
L 1040.445265 1272.745145 
L 1038.12739 1272.748021 
L 1035.846811 1272.589691 
L 1033.609712 1272.269644 
L 1031.422443 1271.788101 
L 1029.291454 1271.145991 
L 1027.223222 1270.34493 
L 1025.224187 1269.387186 
L 1023.300675 1268.275645 
L 1021.458839 1267.013768 
L 1019.704586 1265.605544 
L 1018.043514 1264.055446 
L 1016.480858 1262.368374 
L 1015.021432 1260.549606 
L 1013.669579 1258.604738 
L 1012.429127 1256.53963 
L 1011.303352 1254.36035 
L 1010.294948 1252.073111 
L 1009.006799 1248.453642 
L 1007.991656 1244.626861 
L 1007.250661 1240.61395 
L 1006.781725 1236.435515 
L 1006.579599 1232.111251 
L 1006.636022 1227.659654 
L 1006.939911 1223.097782 
L 1007.477616 1218.441077 
L 1008.233201 1213.703235 
L 1009.18876 1208.89615 
L 1010.739925 1202.396163 
L 1012.561898 1195.809896 
L 1015.139992 1187.476743 
L 1018.535188 1177.352894 
L 1027.329707 1151.551684 
L 1030.022524 1142.824844 
L 1031.989917 1135.815395 
L 1033.748066 1128.796012 
L 1035.260285 1121.785159 
L 1036.492843 1114.805937 
L 1037.21511 1109.608743 
L 1037.750817 1104.458024 
L 1038.089047 1099.368157 
L 1038.21987 1094.354478 
L 1038.134376 1089.433022 
L 1037.824705 1084.620237 
L 1037.284094 1079.932656 
L 1036.506912 1075.386562 
L 1035.4887 1070.997628 
L 1034.226202 1066.780566 
L 1032.717395 1062.748789 
L 1030.961499 1058.914096 
L 1028.958988 1055.286388 
L 1026.711581 1051.873434 
L 1024.22222 1048.680688 
L 1021.495041 1045.711166 
L 1018.535328 1042.96539 
L 1015.349464 1040.441399 
L 1011.944867 1038.134838 
L 1008.329929 1036.039105 
L 1004.51395 1034.145582 
L 1000.507072 1032.44391 
L 996.320222 1030.922334 
L 991.965057 1029.568089 
L 987.453916 1028.367816 
L 981.218978 1026.983667 
L 974.762421 1025.818343 
L 968.118647 1024.843764 
L 959.606057 1023.858575 
L 950.932502 1023.10311 
L 942.17697 1022.56356 
L 933.422181 1022.246192 
L 924.753667 1022.177331 
L 917.939364 1022.330551 
L 911.280154 1022.700751 
L 904.819134 1023.322077 
L 900.128156 1023.974898 
L 895.58783 1024.805339 
L 891.212909 1025.828778 
L 887.016522 1027.059732 
L 883.009883 1028.51136 
L 879.202018 1030.195011 
L 875.599516 1032.119812 
L 872.206309 1034.292311 
L 869.023494 1036.716184 
L 866.049211 1039.39202 
L 863.27857 1042.317175 
L 860.703649 1045.485712 
L 858.313549 1048.888413 
L 856.094529 1052.512875 
L 854.030195 1056.34367 
L 852.101766 1060.362571 
L 849.705645 1065.977539 
L 847.459944 1071.834723 
L 844.247142 1080.941351 
L 838.818722 1096.430226 
L 836.45963 1102.541154 
L 833.920492 1108.507305 
L 831.87411 1112.850688 
L 829.690702 1117.055146 
L 827.359486 1121.09862 
L 824.872519 1124.960825 
L 822.224701 1128.623383 
L 819.413707 1132.069926 
L 816.439851 1135.286179 
L 813.305883 1138.260017 
L 810.016738 1140.981507 
L 806.579232 1143.442931 
L 803.001729 1145.638797 
L 799.293789 1147.565832 
L 795.465803 1149.222967 
L 791.528634 1150.611297 
L 787.493269 1151.73404 
L 783.370499 1152.596463 
L 779.170641 1153.2058 
L 774.903286 1153.571143 
L 770.577117 1153.703307 
L 766.199765 1153.614678 
L 761.777726 1153.319021 
L 757.31634 1152.83127 
L 751.313741 1151.909637 
L 745.255683 1150.714062 
L 739.14656 1149.284672 
L 731.441919 1147.229351 
L 722.099675 1144.4644 
L 709.490365 1140.444704 
L 691.945338 1134.573123 
L 677.577834 1129.538765 
L 668.118897 1126.001932 
L 660.387627 1122.877912 
L 654.345448 1120.221061 
L 648.466162 1117.38867 
L 642.783762 1114.347584 
L 638.671638 1111.910608 
L 634.703514 1109.325988 
L 630.893145 1106.582759 
L 627.253792 1103.671665 
L 623.798124 1100.585465 
L 620.538132 1097.319184 
L 617.485073 1093.870321 
L 614.649431 1090.238989 
L 612.040902 1086.428003 
L 609.668389 1082.4429 
L 607.540014 1078.291914 
L 605.663134 1073.985882 
L 604.044363 1069.538113 
L 602.689592 1064.96421 
L 601.603998 1060.281852 
L 600.792049 1055.510556 
L 600.257491 1050.671407 
L 600.003325 1045.786784 
L 600.031767 1040.880077 
L 600.34419 1035.975395 
L 600.941053 1031.097299 
L 601.821823 1026.270522 
L 602.984883 1021.519724 
L 604.427443 1016.869246 
L 606.14545 1012.342897 
L 608.133504 1007.963748 
L 610.384797 1003.753952 
L 612.891057 999.734572 
L 615.642531 995.925435 
L 618.627981 992.344985 
L 621.834731 989.010159 
L 625.248728 985.936263 
L 627.632349 984.03873 
L 630.096476 982.266793 
L 632.636092 980.623632 
L 635.246003 979.112033 
L 637.920877 977.734369 
L 642.043053 975.923154 
L 646.280442 974.422314 
L 650.614243 973.23427 
L 655.025816 972.359054 
L 659.496976 971.794222 
L 664.010279 971.534806 
L 668.549305 971.573267 
L 673.098917 971.899481 
L 677.645495 972.500756 
L 682.177137 973.361878 
L 686.683815 974.465189 
L 691.157491 975.790715 
L 695.592176 977.316321 
L 699.983945 979.017911 
L 705.769864 981.515616 
L 711.477059 984.21506 
L 719.904987 988.492506 
L 736.443566 997.002776 
L 741.922389 999.57803 
L 747.411716 1001.919508 
L 751.544005 1003.489782 
L 755.694596 1004.878319 
L 759.866753 1006.067465 
L 764.06223 1007.042037 
L 768.281135 1007.789373 
L 772.521823 1008.299324 
L 776.780846 1008.56419 
L 781.052949 1008.578604 
L 785.331109 1008.339382 
L 789.606617 1007.845316 
L 793.869206 1007.096951 
L 798.107209 1006.096335 
L 802.307761 1004.846754 
L 806.457016 1003.352473 
L 810.540399 1001.618472 
L 814.542867 999.65021 
L 818.449186 997.453403 
L 822.244213 995.033838 
L 825.913181 992.397226 
L 829.441975 989.549089 
L 832.81741 986.4947 
L 836.027482 983.239063 
L 839.061617 979.786941 
L 841.910895 976.142926 
L 844.568246 972.311547 
L 847.028637 968.297413 
L 849.289216 964.105388 
L 851.349437 959.740775 
L 853.211151 955.209518 
L 854.878665 950.518405 
L 856.358771 945.675262 
L 857.660733 940.689127 
L 858.796244 935.570403 
L 860.075933 928.559954 
L 861.124335 921.367605 
L 862.179885 912.178984 
L 863.207922 900.974025 
L 865.042757 880.458041 
L 865.895017 873.182147 
L 866.942082 866.091023 
L 867.889768 860.925664 
L 869.00187 855.914885 
L 870.299299 851.078338 
L 871.801013 846.434009 
L 873.523768 841.997953 
L 875.48191 837.784065 
L 876.924031 835.104037 
L 878.47888 832.530748 
L 880.148733 830.066506 
L 881.935319 827.71311 
L 883.839809 825.471845 
L 885.862825 823.343481 
L 888.004442 821.328284 
L 890.264201 819.426025 
L 892.64112 817.635994 
L 895.133721 815.957019 
L 897.740041 814.387489 
L 901.857344 812.233871 
L 906.215068 810.31344 
L 910.801384 808.616065 
L 915.602811 807.130163 
L 920.604502 805.842965 
L 925.790522 804.740787 
L 931.144151 803.809293 
L 936.648163 803.033748 
L 944.190607 802.216536 
L 951.928189 801.615009 
L 961.813615 801.114484 
L 971.867284 800.834336 
L 984.058937 800.706968 
L 1002.39851 800.756758 
L 1032.46304 800.852902 
L 1046.070938 800.662797 
L 1057.450138 800.279828 
L 1066.705718 799.761384 
L 1075.735466 799.026872 
L 1082.7853 798.26244 
L 1089.671817 797.32413 
L 1096.387798 796.197568 
L 1102.92702 794.869661 
L 1109.284549 793.32888 
L 1115.457062 791.565548 
L 1121.443166 789.572099 
L 1127.243689 787.343311 
L 1132.861927 784.876519 
L 1138.303803 782.171798 
L 1143.577943 779.232122 
L 1148.695638 776.063511 
L 1153.670696 772.675171 
L 1158.51918 769.079637 
L 1163.259032 765.292917 
L 1169.060659 760.32096 
L 1174.76237 755.128056 
L 1182.652218 747.596449 
L 1198.466455 732.365312 
L 1204.213318 727.162959 
L 1208.865045 723.20281 
L 1213.566554 719.482663 
L 1218.315003 716.0597 
L 1221.90313 713.721885 
L 1225.509433 711.607005 
L 1229.128256 709.737924 
L 1232.752752 708.136395 
L 1236.374936 706.82271 
L 1239.985765 705.815353 
L 1243.575211 705.130662 
L 1245.950939 704.86042 
L 1248.308891 704.743249 
L 1250.645487 704.782006 
L 1252.957016 704.978941 
L 1255.239651 705.335662 
L 1257.489462 705.853117 
L 1259.702431 706.531573 
L 1261.874471 707.370605 
L 1264.001433 708.369091 
L 1266.079131 709.525205 
L 1268.103351 710.836425 
L 1270.069871 712.299543 
L 1271.974475 713.910682 
L 1273.81297 715.665315 
L 1276.437696 718.554897 
L 1278.890606 721.735816 
L 1281.158388 725.185595 
L 1283.228301 728.879442 
L 1285.088324 732.790648 
L 1286.727307 736.89102 
L 1288.135118 741.151347 
L 1289.302799 745.541885 
L 1290.222716 750.032844 
L 1290.888698 754.594884 
L 1291.296173 759.199592 
L 1291.44229 763.819942 
L 1291.326019 768.430722 
L 1290.94823 773.00893 
L 1290.311753 777.534116 
L 1289.421398 781.988677 
L 1288.283953 786.35809 
L 1286.908146 790.631086 
L 1285.304571 794.799757 
L 1283.485583 798.859598 
L 1281.465162 802.809479 
L 1279.25874 806.651557 
L 1276.883016 810.391118 
L 1274.355733 814.036371 
L 1270.782431 818.769123 
L 1267.018224 823.38586 
L 1262.114962 829.051862 
L 1244.929069 848.546392 
L 1241.001535 853.429345 
L 1237.192301 858.501398 
L 1233.531646 863.788047 
L 1230.047409 869.306424 
L 1227.565664 873.602356 
L 1225.208226 878.032891 
L 1222.985315 882.594452 
L 1220.907084 887.280214 
L 1218.983764 892.080164 
L 1217.225791 896.981211 
L 1215.643914 901.967372 
L 1214.249249 907.020013 
L 1213.053304 912.118157 
L 1212.06796 917.23883 
L 1211.305392 922.357475 
L 1210.777955 927.448394 
L 1210.498019 932.485223 
L 1210.477754 937.441441 
L 1210.728893 942.290885 
L 1211.26245 947.008271 
L 1212.088423 951.569718 
L 1212.805874 954.513099 
L 1213.659355 957.371408 
L 1214.650679 960.139224 
L 1215.781259 962.81171 
L 1217.052064 965.38466 
L 1218.463589 967.854543 
L 1220.015825 970.218544 
L 1221.708226 972.474594 
L 1223.539693 974.621398 
L 1225.508549 976.658451 
L 1227.612529 978.586057 
L 1229.84877 980.405324 
L 1232.21381 982.118168 
L 1234.703589 983.7273 
L 1238.661813 985.954372 
L 1242.872003 987.971017 
L 1247.313305 989.795673 
L 1251.962322 991.449971 
L 1256.793369 992.958329 
L 1263.469864 994.788944 
L 1272.094159 996.883625 
L 1293.22212 1001.83237 
L 1300.13461 1003.700032 
L 1306.859771 1005.779674 
L 1311.73945 1007.508993 
L 1316.448174 1009.40338 
L 1320.960595 1011.476865 
L 1325.253243 1013.739868 
L 1329.304647 1016.199121 
L 1333.095423 1018.857667 
L 1336.608345 1021.71496 
L 1338.788416 1023.728414 
L 1340.834364 1025.826541 
L 1342.742728 1028.006791 
L 1344.510488 1030.26608 
L 1346.135066 1032.60084 
L 1347.614334 1035.007075 
L 1348.946603 1037.48042 
L 1350.130637 1040.016207 
L 1351.165642 1042.609522 
L 1352.051276 1045.255277 
L 1352.787647 1047.948269 
L 1353.375317 1050.683249 
L 1353.815304 1053.454979 
L 1354.201736 1057.670221 
L 1354.266251 1061.939739 
L 1354.018149 1066.247749 
L 1353.469107 1070.579837 
L 1352.633184 1074.923227 
L 1351.52681 1079.266974 
L 1350.168758 1083.602084 
L 1348.580085 1087.921547 
L 1346.784047 1092.220297 
L 1344.110829 1097.914387 
L 1341.179496 1103.562825 
L 1337.260164 1110.560685 
L 1323.038568 1135.289505 
L 1320.336918 1140.696726 
L 1318.521408 1144.724782 
L 1316.917331 1148.723211 
L 1315.54997 1152.684596 
L 1314.442013 1156.599869 
L 1313.613279 1160.458461 
L 1313.080491 1164.24852 
L 1312.857093 1167.957197 
L 1312.953125 1171.570995 
L 1313.197992 1173.920684 
L 1313.588897 1176.218027 
L 1314.126237 1178.459054 
L 1314.809727 1180.639937 
L 1315.638424 1182.757049 
L 1316.610736 1184.807015 
L 1317.724451 1186.786769 
L 1318.976763 1188.693592 
L 1320.364301 1190.525167 
L 1321.883165 1192.279606 
L 1324.397968 1194.763659 
L 1327.181594 1197.068361 
L 1330.215419 1199.19359 
L 1333.479224 1201.14184 
L 1336.951561 1202.918162 
L 1340.610132 1204.530006 
L 1344.432165 1205.986989 
L 1348.394787 1207.300572 
L 1353.85799 1208.85145 
L 1359.479277 1210.203775 
L 1366.654802 1211.667548 
L 1375.374034 1213.177066 
L 1386.995285 1214.924791 
L 1404.081648 1217.241531 
L 1416.549502 1218.753339 
L 1426.111292 1219.697632 
L 1434.291084 1220.266469 
L 1441.148545 1220.530027 
L 1448.082972 1220.582201 
L 1455.123735 1220.421224 
L 1463.735987 1219.973422 
L 1474.002407 1219.193962 
L 1493.385172 1217.658049 
L 1500.749699 1217.310098 
L 1506.506143 1217.23215 
L 1512.080367 1217.383997 
L 1516.105063 1217.674797 
L 1519.967215 1218.135209 
L 1523.64109 1218.779055 
L 1527.101758 1219.617756 
L 1530.325628 1220.660197 
L 1533.290975 1221.912685 
L 1535.978419 1223.378966 
L 1537.607334 1224.475997 
L 1539.10114 1225.668479 
L 1540.456348 1226.955797 
L 1541.670166 1228.336938 
L 1542.740526 1229.810533 
L 1543.6661 1231.37489 
L 1544.446311 1233.028031 
L 1545.081334 1234.767735 
L 1545.572084 1236.591573 
L 1545.920205 1238.496948 
L 1546.180267 1241.501891 
L 1546.135525 1244.674519 
L 1545.799711 1248.004934 
L 1545.1892 1251.483119 
L 1544.322547 1255.099058 
L 1543.219966 1258.842802 
L 1541.4198 1264.016208 
L 1539.289944 1269.375903 
L 1536.2416 1276.301275 
L 1532.850631 1283.431875 
L 1528.440644 1292.183594 
L 1522.954008 1302.525715 
L 1518.026486 1311.355632 
L 1513.775439 1318.573128 
L 1509.38213 1325.555722 
L 1505.749177 1330.899669 
L 1501.993445 1335.965642 
L 1499.085154 1339.547603 
L 1496.089842 1342.916307 
L 1493.000177 1346.048654 
L 1489.809595 1348.923029 
L 1486.512609 1351.519804 
L 1483.105076 1353.821824 
L 1479.584399 1355.814877 
L 1477.1739 1356.966422 
L 1474.712832 1357.973441 
L 1472.201707 1358.834406 
L 1469.641382 1359.548605 
L 1467.033053 1360.116166 
L 1464.378236 1360.538082 
L 1460.312917 1360.9022 
L 1456.15449 1360.953048 
L 1451.911492 1360.705058 
L 1447.593439 1360.176939 
L 1443.210564 1359.391454 
L 1438.773539 1358.375106 
L 1434.293192 1357.157738 
L 1428.270476 1355.278784 
L 1420.69723 1352.637808 
L 1398.042887 1344.444374 
L 1392.08017 1342.605164 
L 1387.637056 1341.415075 
L 1383.218506 1340.417108 
L 1378.823014 1339.634015 
L 1374.448 1339.084362 
L 1370.089954 1338.782245 
L 1365.744608 1338.737091 
L 1361.407128 1338.95354 
L 1357.072318 1339.43141 
L 1352.734849 1340.165752 
L 1348.389481 1341.146978 
L 1344.031308 1342.361063 
L 1339.655995 1343.789824 
L 1333.78963 1345.990235 
L 1327.881248 1348.471312 
L 1320.435278 1351.859393 
L 1296.348624 1363.081116 
L 1290.367715 1365.542162 
L 1284.464516 1367.705469 
L 1280.112143 1369.089587 
L 1275.844553 1370.239021 
L 1271.681289 1371.129412 
L 1267.642559 1371.739424 
L 1263.748861 1372.05094 
L 1260.020567 1372.049206 
L 1258.818007 1371.976963 
L 1258.818007 1371.976963 
" clip-path="url(#p9ae023c5a4)" style="fill: none; stroke: #4169e1; stroke-width: 3; stroke-linecap: square"/>
   </g>
   <g id="line2d_2">
    <path d="M 1224.920627 1454.342973 
L 1223.123408 1453.924339 
L 1221.399268 1453.315875 
L 1219.752166 1452.516157 
L 1218.185766 1451.524625 
L 1216.703389 1450.341562 
L 1215.307976 1448.968074 
L 1214.002042 1447.406061 
L 1212.787643 1445.65819 
L 1211.666342 1443.727858 
L 1210.639175 1441.619152 
L 1209.706633 1439.33681 
L 1208.484906 1435.599573 
L 1207.473018 1431.504155 
L 1206.665193 1427.073361 
L 1206.052626 1422.332074 
L 1205.623535 1417.306866 
L 1205.36328 1412.025612 
L 1205.248614 1404.635515 
L 1205.35534 1396.911169 
L 1205.71704 1386.892378 
L 1207.324493 1349.42749 
L 1207.356888 1341.181801 
L 1207.144515 1333.080695 
L 1206.79493 1327.127251 
L 1206.26204 1321.298487 
L 1205.530427 1315.610923 
L 1204.58741 1310.080003 
L 1203.423191 1304.720221 
L 1202.03094 1299.545241 
L 1200.406839 1294.568042 
L 1198.55008 1289.801045 
L 1196.462815 1285.25624 
L 1194.150059 1280.9453 
L 1191.619554 1276.879671 
L 1188.881593 1273.070644 
L 1185.948811 1269.529398 
L 1182.835931 1266.267006 
L 1179.559497 1263.294417 
L 1176.137565 1260.622397 
L 1172.589384 1258.261434 
L 1168.935053 1256.22161 
L 1166.450023 1255.044868 
L 1163.93312 1254.017741 
L 1161.390478 1253.142692 
L 1158.828162 1252.421976 
L 1156.252127 1251.857604 
L 1153.668169 1251.451312 
L 1151.081882 1251.204523 
L 1148.498617 1251.11831 
L 1145.923441 1251.193359 
L 1143.361104 1251.429931 
L 1140.816002 1251.827821 
L 1138.292147 1252.386329 
L 1135.793142 1253.104217 
L 1133.32216 1253.97968 
L 1130.881923 1255.010312 
L 1128.474693 1256.193082 
L 1124.929523 1258.244257 
L 1121.466587 1260.614022 
L 1118.087577 1263.283601 
L 1114.791909 1266.230676 
L 1111.576871 1269.429409 
L 1108.437829 1272.850532 
L 1104.359558 1277.701301 
L 1100.386466 1282.803916 
L 1094.576824 1290.723679 
L 1085.109154 1303.778208 
L 1081.34095 1308.640168 
L 1077.563572 1313.140032 
L 1074.721037 1316.218135 
L 1071.870438 1318.99882 
L 1069.014325 1321.446611 
L 1066.157586 1323.529554 
L 1064.256203 1324.701487 
L 1062.360369 1325.691482 
L 1060.473177 1326.493185 
L 1058.598107 1327.101158 
L 1056.738994 1327.51091 
L 1054.89999 1327.718907 
L 1053.085523 1327.72258 
L 1051.300253 1327.520323 
L 1049.54902 1327.111482 
L 1047.836794 1326.496338 
L 1046.168625 1325.67608 
L 1044.549583 1324.652771 
L 1042.984709 1323.429309 
L 1041.478957 1322.009381 
L 1040.037141 1320.397406 
L 1038.663886 1318.598482 
L 1037.363575 1316.618321 
L 1036.140305 1314.463185 
L 1034.997845 1312.139814 
L 1033.443002 1308.355051 
L 1032.087279 1304.233399 
L 1030.938172 1299.801477 
L 1030.000772 1295.086506 
L 1029.277665 1290.115779 
L 1028.768899 1284.91616 
L 1028.472006 1279.51363 
L 1028.382076 1273.932873 
L 1028.491885 1268.196937 
L 1028.792066 1262.326945 
L 1029.468644 1254.324268 
L 1030.431945 1246.155526 
L 1031.646219 1237.85217 
L 1033.45739 1227.320217 
L 1035.519067 1216.649367 
L 1039.132253 1199.33676 
L 1044.192153 1175.122897 
L 1046.740917 1161.753273 
L 1048.641615 1150.557764 
L 1049.972392 1141.591193 
L 1051.103833 1132.64234 
L 1052.010112 1123.742189 
L 1052.667721 1114.927436 
L 1053.055508 1106.239881 
L 1053.154746 1097.725452 
L 1053.029965 1091.482503 
L 1052.727835 1085.385423 
L 1052.243351 1079.455277 
L 1051.57241 1073.712654 
L 1050.711831 1068.177215 
L 1049.659386 1062.867251 
L 1048.413814 1057.799249 
L 1046.974833 1052.987512 
L 1045.343139 1048.443811 
L 1043.520398 1044.177106 
L 1041.509229 1040.193339 
L 1039.313174 1036.495305 
L 1036.93666 1033.082607 
L 1034.38496 1029.951705 
L 1031.66414 1027.096052 
L 1028.781013 1024.50632 
L 1025.743083 1022.170715 
L 1022.5585 1020.075358 
L 1019.236012 1018.204746 
L 1015.784927 1016.542257 
L 1012.215076 1015.070702 
L 1008.536795 1013.772903 
L 1004.760897 1012.632267 
L 999.594089 1011.329459 
L 994.301874 1010.247161 
L 988.913703 1009.361084 
L 983.460411 1008.655922 
L 976.601307 1008.021967 
L 971.12077 1007.721053 
L 965.683435 1007.622859 
L 960.324142 1007.755496 
L 955.077652 1008.155202 
L 951.237336 1008.655597 
L 947.49349 1009.349442 
L 943.859283 1010.256791 
L 940.346986 1011.39767 
L 936.967748 1012.79143 
L 933.731373 1014.456103 
L 930.646091 1016.407791 
L 928.676442 1017.875207 
L 926.778284 1019.479605 
L 924.95264 1021.223641 
L 923.200099 1023.10927 
L 921.520805 1025.137698 
L 919.138387 1028.448802 
L 916.916923 1032.079989 
L 914.851001 1036.025078 
L 912.932858 1040.273684 
L 911.152463 1044.811299 
L 909.497655 1049.619475 
L 907.954329 1054.676082 
L 906.042436 1061.760219 
L 903.828286 1071.067519 
L 900.899023 1084.6709 
L 897.063813 1102.486845 
L 894.734678 1112.21897 
L 892.706736 1119.781976 
L 890.500485 1127.065167 
L 888.714946 1132.302015 
L 886.809306 1137.315676 
L 884.778836 1142.081846 
L 882.621 1146.578746 
L 880.33537 1150.787241 
L 877.923485 1154.690919 
L 875.388662 1158.276153 
L 872.735772 1161.532139 
L 869.97099 1164.450913 
L 867.101519 1167.027351 
L 864.135309 1169.259151 
L 861.08077 1171.146799 
L 858.999585 1172.215512 
L 856.885504 1173.134253 
L 853.658141 1174.235949 
L 850.370431 1175.014341 
L 847.029884 1175.481045 
L 843.643296 1175.649877 
L 840.216641 1175.536658 
L 836.755005 1175.158974 
L 833.262568 1174.5359 
L 829.742624 1173.687699 
L 826.197646 1172.635474 
L 821.435006 1170.952445 
L 816.633489 1168.996233 
L 810.57898 1166.242167 
L 803.238999 1162.600864 
L 793.337347 1157.378815 
L 780.836568 1150.512114 
L 770.842111 1144.781079 
L 763.437518 1140.262981 
L 757.385367 1136.272226 
L 752.655463 1132.878254 
L 748.053073 1129.26004 
L 744.700964 1126.373694 
L 741.446803 1123.320041 
L 738.301711 1120.08286 
L 735.27656 1116.647513 
L 732.381871 1113.001401 
L 729.627723 1109.134377 
L 727.023686 1105.03909 
L 724.578769 1100.711265 
L 722.301381 1096.14992 
L 720.199319 1091.357492 
L 718.27976 1086.339896 
L 716.549263 1081.106511 
L 715.013785 1075.670088 
L 713.678698 1070.0466 
L 712.548798 1064.25503 
L 711.628325 1058.317111 
L 710.920961 1052.257028 
L 710.429828 1046.101086 
L 710.157475 1039.877365 
L 710.105844 1033.615351 
L 710.276235 1027.345578 
L 710.669253 1021.099266 
L 711.284748 1014.907976 
L 712.121744 1008.803273 
L 713.178371 1002.816421 
L 714.451793 996.978092 
L 715.938142 991.318097 
L 717.63246 985.865152 
L 719.528657 980.64665 
L 721.619485 975.688465 
L 723.896533 971.014768 
L 726.350248 966.647853 
L 728.969981 962.607984 
L 731.744062 958.913241 
L 733.673016 956.649694 
L 735.661064 954.550652 
L 737.704141 952.619671 
L 739.798071 950.859786 
L 741.938589 949.27349 
L 744.121372 947.862717 
L 746.342059 946.628828 
L 748.596287 945.572593 
L 750.879717 944.694179 
L 753.188065 943.993133 
L 755.517132 943.468376 
L 757.862834 943.118189 
L 760.221232 942.940205 
L 762.588559 942.93141 
L 764.961246 943.088133 
L 767.335949 943.406056 
L 769.709569 943.880212 
L 773.261849 944.871953 
L 776.797033 946.180934 
L 780.308303 947.782605 
L 783.790434 949.649582 
L 787.239815 951.75189 
L 790.654435 954.057246 
L 795.152571 957.387465 
L 800.691989 961.841508 
L 810.477294 970.147551 
L 816.923058 975.474057 
L 821.21196 978.763794 
L 825.509085 981.754895 
L 828.7439 983.76083 
L 831.993043 985.534605 
L 835.259068 987.053669 
L 838.543349 988.298628 
L 841.845968 989.253308 
L 845.16564 989.90474 
L 848.499665 990.24309 
L 851.843929 990.261504 
L 855.192935 989.955912 
L 858.539864 989.324771 
L 861.87668 988.368779 
L 865.194251 987.090549 
L 868.482503 985.494283 
L 871.730601 983.585425 
L 874.927132 981.37034 
L 878.060322 978.855999 
L 881.118245 976.049705 
L 884.089047 972.958852 
L 886.961168 969.590733 
L 889.723559 965.952404 
L 892.365898 962.050599 
L 894.878789 957.891713 
L 897.253955 953.481828 
L 899.48441 948.82681 
L 901.564623 943.932446 
L 903.490653 938.804624 
L 905.260267 933.449555 
L 906.873038 927.874015 
L 908.330414 922.085598 
L 909.635769 916.092974 
L 910.794417 909.90614 
L 912.123882 901.375128 
L 913.228069 892.551841 
L 914.135119 883.474625 
L 915.043072 871.839763 
L 915.902184 857.590535 
L 917.909787 821.922473 
L 918.857477 810.480667 
L 919.821048 801.643454 
L 921.013281 793.157094 
L 922.080665 787.058098 
L 923.312539 781.211775 
L 924.721407 775.637746 
L 926.317841 770.352783 
L 928.110358 765.370599 
L 930.105336 760.701693 
L 932.306972 756.353261 
L 933.890618 753.634399 
L 935.567107 751.060103 
L 937.336078 748.630078 
L 939.196765 746.343417 
L 941.148009 744.198624 
L 943.188274 742.193641 
L 945.31567 740.325882 
L 947.527972 738.592272 
L 949.822648 736.98928 
L 953.412882 734.820982 
L 957.171509 732.922828 
L 961.086905 731.278508 
L 965.146597 729.87054 
L 969.337495 728.68061 
L 973.646116 727.689897 
L 978.058795 726.879373 
L 984.080686 726.046229 
L 990.23166 725.455716 
L 996.481348 725.065554 
L 1004.389027 724.798969 
L 1013.952214 724.709026 
L 1029.879824 724.833616 
L 1047.109315 724.916341 
L 1056.287092 724.761958 
L 1063.785406 724.454126 
L 1071.130141 723.937485 
L 1076.885355 723.345378 
L 1082.52567 722.571346 
L 1088.044382 721.594827 
L 1093.435248 720.396191 
L 1098.692615 718.957074 
L 1103.811613 717.260749 
L 1107.557687 715.810769 
L 1111.222555 714.202423 
L 1114.805499 712.431182 
L 1118.306319 710.493422 
L 1121.725382 708.38649 
L 1125.063668 706.108767 
L 1128.322801 703.659722 
L 1131.50507 701.039968 
L 1134.613436 698.251305 
L 1138.64932 694.275761 
L 1142.570668 690.016195 
L 1146.389637 685.487537 
L 1150.119937 680.709112 
L 1153.776481 675.704838 
L 1158.267393 669.176143 
L 1163.58068 661.031169 
L 1181.293714 633.391277 
L 1185.827402 626.949319 
L 1189.498152 622.113581 
L 1193.206505 617.639169 
L 1196.009783 614.564488 
L 1198.82855 611.76462 
L 1201.658701 609.269147 
L 1204.49518 607.106378 
L 1207.332029 605.302907 
L 1209.220136 604.31237 
L 1211.103182 603.499047 
L 1212.978803 602.868983 
L 1214.844498 602.427601 
L 1216.697638 602.179648 
L 1218.535475 602.129154 
L 1220.355154 602.279387 
L 1222.153723 602.632814 
L 1223.928144 603.191071 
L 1225.675306 603.954936 
L 1227.392033 604.924312 
L 1229.075102 606.098209 
L 1230.721247 607.474744 
L 1232.327181 609.051139 
L 1233.889599 610.823734 
L 1235.405196 612.787998 
L 1237.583609 616.081802 
L 1239.638282 619.773074 
L 1241.558456 623.836513 
L 1243.333708 628.243405 
L 1244.954065 632.962081 
L 1246.410119 637.958419 
L 1247.693138 643.196405 
L 1248.795193 648.638726 
L 1249.709271 654.247383 
L 1250.429395 659.984322 
L 1250.950735 665.812063 
L 1251.269713 671.69431 
L 1251.384096 677.596538 
L 1251.293076 683.486541 
L 1250.997338 689.334936 
L 1250.499094 695.115599 
L 1249.802111 700.806042 
L 1248.911703 706.387713 
L 1247.834702 711.846217 
L 1246.5794 717.171452 
L 1245.15547 722.357663 
L 1243.573855 727.403406 
L 1241.846636 732.311437 
L 1239.339896 738.653475 
L 1236.630804 744.789301 
L 1233.754343 750.755378 
L 1229.978284 758.043423 
L 1223.685289 769.556409 
L 1217.32404 781.285126 
L 1213.425597 788.920715 
L 1210.394274 795.274504 
L 1207.467671 801.887388 
L 1204.668488 808.786768 
L 1202.017717 815.988712 
L 1199.535111 823.496943 
L 1197.239717 831.302255 
L 1195.150405 839.382378 
L 1193.286346 847.70232 
L 1191.667385 856.215166 
L 1190.314276 864.863334 
L 1189.486932 871.3985 
L 1188.830781 877.941723 
L 1188.355464 884.460595 
L 1188.070673 890.921652 
L 1187.98601 897.291008 
L 1188.110795 903.535014 
L 1188.453863 909.620924 
L 1189.023334 915.517561 
L 1189.82637 921.195964 
L 1190.868934 926.630003 
L 1192.155544 931.796957 
L 1193.689051 936.678021 
L 1194.849116 939.765915 
L 1196.11917 942.717108 
L 1197.498574 945.529447 
L 1198.98624 948.20178 
L 1200.580628 950.733978 
L 1202.279732 953.126943 
L 1204.081075 955.382606 
L 1205.981712 957.503926 
L 1207.978234 959.494865 
L 1210.066773 961.360362 
L 1213.362571 963.936509 
L 1216.839287 966.267401 
L 1220.478604 968.38067 
L 1224.260418 970.307511 
L 1229.486875 972.646014 
L 1234.873234 974.801091 
L 1254.140874 982.218581 
L 1259.520602 984.665479 
L 1263.453122 986.686034 
L 1267.273006 988.895139 
L 1270.959063 991.315107 
L 1274.491452 993.963863 
L 1277.851799 996.854719 
L 1281.023296 999.996272 
L 1283.990771 1003.39241 
L 1286.740737 1007.042435 
L 1289.261429 1010.941289 
L 1291.542821 1015.079883 
L 1293.576644 1019.44551 
L 1295.356384 1024.022339 
L 1296.877296 1028.79197 
L 1298.1364 1033.734023 
L 1299.132494 1038.826768 
L 1299.866165 1044.04774 
L 1300.339802 1049.374365 
L 1300.557611 1054.784536 
L 1300.52564 1060.257149 
L 1300.251788 1065.772583 
L 1299.745817 1071.313088 
L 1299.019353 1076.8631 
L 1298.085873 1082.409459 
L 1296.960674 1087.941518 
L 1295.191924 1095.281679 
L 1293.157963 1102.569712 
L 1290.90876 1109.799922 
L 1287.877539 1118.756591 
L 1282.789862 1132.920824 
L 1277.839034 1146.917974 
L 1275.032062 1155.586982 
L 1273.038398 1162.468932 
L 1271.326326 1169.288095 
L 1270.255936 1174.348533 
L 1269.388611 1179.350067 
L 1268.739866 1184.279194 
L 1268.322792 1189.120774 
L 1268.147913 1193.858394 
L 1268.223088 1198.47481 
L 1268.553455 1202.952442 
L 1269.141417 1207.273905 
L 1269.986679 1211.422561 
L 1271.086319 1215.383057 
L 1272.434909 1219.141848 
L 1274.024664 1222.687663 
L 1275.845639 1226.011911 
L 1277.88594 1229.108998 
L 1280.131977 1231.976551 
L 1282.568722 1234.615529 
L 1285.179994 1237.030223 
L 1287.948749 1239.228132 
L 1290.857376 1241.219737 
L 1293.887988 1243.018156 
L 1297.022721 1244.638713 
L 1300.244009 1246.098424 
L 1304.644434 1247.825941 
L 1309.130686 1249.343947 
L 1314.807183 1251.01224 
L 1321.645295 1252.776599 
L 1331.808161 1255.134751 
L 1343.923298 1257.714386 
L 1351.464405 1259.12493 
L 1357.871319 1260.096949 
L 1363.208199 1260.680448 
L 1368.576319 1261.017128 
L 1374.004689 1261.083777 
L 1379.5163 1260.878139 
L 1385.12454 1260.423119 
L 1391.981885 1259.619841 
L 1410.629167 1257.236307 
L 1415.232966 1256.903856 
L 1419.739193 1256.804282 
L 1423.027822 1256.919119 
L 1426.216304 1257.222792 
L 1429.284323 1257.736612 
L 1432.211622 1258.479202 
L 1434.978429 1259.466198 
L 1437.565881 1260.710043 
L 1439.18248 1261.686623 
L 1440.706748 1262.783393 
L 1442.134283 1264.001609 
L 1443.461116 1265.341909 
L 1444.683746 1266.804334 
L 1445.799179 1268.388365 
L 1446.804952 1270.092956 
L 1447.699162 1271.916582 
L 1448.480478 1273.85728 
L 1449.439306 1276.982602 
L 1450.142544 1280.356664 
L 1450.593092 1283.968825 
L 1450.796672 1287.807466 
L 1450.761648 1291.860314 
L 1450.498767 1296.114725 
L 1450.02085 1300.557904 
L 1449.342422 1305.177056 
L 1448.153426 1311.587709 
L 1446.675899 1318.258732 
L 1444.484974 1326.918056 
L 1441.98315 1335.877424 
L 1438.667179 1346.933671 
L 1434.485324 1360.091879 
L 1430.059737 1373.298827 
L 1426.103726 1384.437218 
L 1422.688081 1393.427945 
L 1419.866085 1400.331658 
L 1416.951377 1406.898923 
L 1413.929936 1413.055164 
L 1411.585162 1417.358487 
L 1409.166528 1421.359879 
L 1406.668894 1425.031726 
L 1404.087965 1428.348955 
L 1401.420499 1431.289652 
L 1399.593055 1433.031795 
L 1397.725938 1434.594093 
L 1395.819138 1435.973121 
L 1393.872919 1437.166421 
L 1391.887816 1438.172559 
L 1389.864635 1438.991157 
L 1387.804437 1439.622928 
L 1385.708535 1440.0697 
L 1383.578467 1440.334421 
L 1381.415986 1440.421166 
L 1379.223032 1440.335125 
L 1377.00171 1440.082583 
L 1373.621476 1439.407942 
L 1370.190498 1438.404531 
L 1366.71713 1437.106204 
L 1363.20985 1435.551088 
L 1358.49518 1433.150833 
L 1353.754071 1430.475697 
L 1345.444147 1425.47493 
L 1338.354791 1421.264018 
L 1333.662492 1418.692765 
L 1329.003335 1416.428996 
L 1325.531685 1414.986993 
L 1322.078972 1413.800671 
L 1318.643724 1412.897357 
L 1315.223665 1412.298901 
L 1311.815833 1412.021345 
L 1309.549026 1412.019783 
L 1307.28496 1412.166873 
L 1303.891374 1412.666411 
L 1300.497097 1413.496354 
L 1297.097984 1414.646404 
L 1293.690088 1416.100499 
L 1290.269844 1417.837138 
L 1286.83426 1419.829783 
L 1282.225878 1422.830535 
L 1277.583676 1426.146117 
L 1270.560074 1431.500586 
L 1258.759511 1440.569479 
L 1254.050234 1443.934199 
L 1249.380755 1446.991928 
L 1245.921792 1449.025201 
L 1242.514692 1450.793332 
L 1239.173961 1452.261667 
L 1235.914898 1453.39909 
L 1232.753321 1454.178345 
L 1230.707687 1454.487261 
L 1228.717259 1454.620816 
L 1226.786715 1454.574073 
L 1225.845334 1454.481787 
L 1225.845334 1454.481787 
" clip-path="url(#p9ae023c5a4)" style="fill: none; stroke: #ff8c00; stroke-width: 3; stroke-linecap: square"/>
   </g>
  </g>
 </g>
 <defs>
  <clipPath id="p9ae023c5a4">
   <rect x="270" y="259.2" width="1674" height="1630.8"/>
  </clipPath>
 </defs>
</svg>
