<?xml version="1.0" encoding="utf-8" standalone="no"?>
<!DOCTYPE svg PUBLIC "-//W3C//DTD SVG 1.1//EN"
  "http://www.w3.org/Graphics/SVG/1.1/DTD/svg11.dtd">
<svg xmlns:xlink="http://www.w3.org/1999/xlink" width="2160pt" height="2160pt" viewBox="0 0 2160 2160" xmlns="http://www.w3.org/2000/svg" version="1.1">
 <metadata>
  <rdf:RDF xmlns:dc="http://purl.org/dc/elements/1.1/" xmlns:cc="http://creativecommons.org/ns#" xmlns:rdf="http://www.w3.org/1999/02/22-rdf-syntax-ns#">
   <cc:Work>
    <dc:type rdf:resource="http://purl.org/dc/dcmitype/StillImage"/>
    <dc:date>2022-03-09T01:03:21.278296</dc:date>
    <dc:format>image/svg+xml</dc:format>
    <dc:creator>
     <cc:Agent>
      <dc:title>Matplotlib v3.5.1, https://matplotlib.org/</dc:title>
     </cc:Agent>
    </dc:creator>
   </cc:Work>
  </rdf:RDF>
 </metadata>
 <defs>
  <style type="text/css">*{stroke-linejoin: round; stroke-linecap: butt}</style>
 </defs>
 <g id="figure_1">
  <g id="patch_1">
   <path d="M 0 2160 
L 2160 2160 
L 2160 0 
L 0 0 
L 0 2160 
z
" style="fill: none"/>
  </g>
  <g id="axes_1">
   <g id="line2d_1">
    <path d="M 1257.636748 1371.868297 
L 1255.340905 1371.540585 
L 1253.138416 1371.06427 
L 1251.034339 1370.43824 
L 1249.033353 1369.662054 
L 1247.139704 1368.735935 
L 1245.357144 1367.660749 
L 1243.68889 1366.437982 
L 1242.137566 1365.069724 
L 1240.705168 1363.558632 
L 1239.393022 1361.907906 
L 1238.201754 1360.121256 
L 1237.131261 1358.202864 
L 1236.180693 1356.157351 
L 1235.348441 1353.98974 
L 1234.316492 1350.521251 
L 1233.533973 1346.809702 
L 1232.985834 1342.875897 
L 1232.653373 1338.741655 
L 1232.514466 1334.429522 
L 1232.586292 1328.443058 
L 1232.889706 1322.236104 
L 1233.615312 1312.630981 
L 1234.774959 1297.907102 
L 1235.107597 1291.365851 
L 1235.216435 1284.888656 
L 1235.107636 1280.096815 
L 1234.804605 1275.378941 
L 1234.282372 1270.74954 
L 1233.519036 1266.22215 
L 1232.496045 1261.809412 
L 1231.198411 1257.523158 
L 1229.614869 1253.374505 
L 1227.737975 1249.373959 
L 1226.321808 1246.794168 
L 1224.77347 1244.287516 
L 1223.093595 1241.856799 
L 1221.283547 1239.504755 
L 1219.345404 1237.23408 
L 1217.281933 1235.047435 
L 1213.959407 1231.930782 
L 1210.376932 1229.017927 
L 1206.551573 1226.317592 
L 1202.502954 1223.838419 
L 1198.252898 1221.588936 
L 1193.825025 1219.577507 
L 1189.244337 1217.812251 
L 1184.536771 1216.300927 
L 1179.728752 1215.050805 
L 1174.846731 1214.068506 
L 1169.91673 1213.359819 
L 1164.963895 1212.929506 
L 1160.012071 1212.781089 
L 1155.083403 1212.91663 
L 1150.197977 1213.336505 
L 1145.373497 1214.039181 
L 1140.625029 1215.021011 
L 1135.964793 1216.27603 
L 1131.402027 1217.795797 
L 1126.942924 1219.569247 
L 1122.590641 1221.582603 
L 1118.345383 1223.81932 
L 1114.204568 1226.260082 
L 1110.163062 1228.882863 
L 1106.213481 1231.663031 
L 1101.074144 1235.567635 
L 1094.816851 1240.666389 
L 1075.42612 1256.882001 
L 1070.604637 1260.482807 
L 1066.977112 1262.963406 
L 1063.338855 1265.220985 
L 1059.692139 1267.226939 
L 1056.042211 1268.955295 
L 1052.397283 1270.383065 
L 1048.76843 1271.490548 
L 1045.169395 1272.261562 
L 1042.794486 1272.582322 
L 1040.445265 1272.745145 
L 1038.12739 1272.748021 
L 1035.846811 1272.589691 
L 1033.609712 1272.269644 
L 1031.422443 1271.788101 
L 1029.291454 1271.145991 
L 1027.223222 1270.34493 
L 1025.224187 1269.387186 
L 1023.300675 1268.275645 
L 1021.458839 1267.013768 
L 1019.704586 1265.605544 
L 1018.043514 1264.055446 
L 1016.480858 1262.368374 
L 1015.021432 1260.549606 
L 1013.669579 1258.604738 
L 1012.429127 1256.53963 
L 1011.303352 1254.36035 
L 1010.294948 1252.073111 
L 1009.006799 1248.453642 
L 1007.991656 1244.626861 
L 1007.250661 1240.61395 
L 1006.781725 1236.435515 
L 1006.579599 1232.111251 
L 1006.636022 1227.659654 
L 1006.939911 1223.097782 
L 1007.477616 1218.441077 
L 1008.233201 1213.703235 
L 1009.18876 1208.89615 
L 1010.739925 1202.396163 
L 1012.561898 1195.809896 
L 1015.139992 1187.476743 
L 1018.535188 1177.352894 
L 1027.329707 1151.551684 
L 1030.022524 1142.824844 
L 1031.989917 1135.815395 
L 1033.748066 1128.796012 
L 1035.260285 1121.785159 
L 1036.492843 1114.805937 
L 1037.21511 1109.608743 
L 1037.750817 1104.458024 
L 1038.089047 1099.368157 
L 1038.21987 1094.354478 
L 1038.134376 1089.433022 
L 1037.824705 1084.620237 
L 1037.284094 1079.932656 
L 1036.506912 1075.386562 
L 1035.4887 1070.997628 
L 1034.226202 1066.780566 
L 1032.717395 1062.748789 
L 1030.961499 1058.914096 
L 1028.958988 1055.286388 
L 1026.711581 1051.873434 
L 1024.22222 1048.680688 
L 1021.495041 1045.711166 
L 1018.535328 1042.96539 
L 1015.349464 1040.441399 
L 1011.944867 1038.134838 
L 1008.329929 1036.039105 
L 1004.51395 1034.145582 
L 1000.507072 1032.44391 
L 996.320222 1030.922334 
L 991.965057 1029.568089 
L 987.453916 1028.367816 
L 981.218978 1026.983667 
L 974.762421 1025.818343 
L 968.118647 1024.843764 
L 959.606057 1023.858575 
L 950.932502 1023.10311 
L 942.17697 1022.56356 
L 933.422181 1022.246192 
L 924.753667 1022.177331 
L 917.939364 1022.330551 
L 911.280154 1022.700751 
L 904.819134 1023.322077 
L 900.128156 1023.974898 
L 895.58783 1024.805339 
L 891.212909 1025.828778 
L 887.016522 1027.059732 
L 883.009883 1028.51136 
L 879.202018 1030.195011 
L 875.599516 1032.119812 
L 872.206309 1034.292311 
L 869.023494 1036.716184 
L 866.049211 1039.39202 
L 863.27857 1042.317175 
L 860.703649 1045.485712 
L 858.313549 1048.888413 
L 856.094529 1052.512875 
L 854.030195 1056.34367 
L 852.101766 1060.362571 
L 849.705645 1065.977539 
L 847.459944 1071.834723 
L 844.247142 1080.941351 
L 838.818722 1096.430226 
L 836.45963 1102.541154 
L 833.920492 1108.507305 
L 831.87411 1112.850688 
L 829.690702 1117.055146 
L 827.359486 1121.09862 
L 824.872519 1124.960825 
L 822.224701 1128.623383 
L 819.413707 1132.069926 
L 816.439851 1135.286179 
L 813.305883 1138.260017 
L 810.016738 1140.981507 
L 806.579232 1143.442931 
L 803.001729 1145.638797 
L 799.293789 1147.565832 
L 795.465803 1149.222967 
L 791.528634 1150.611297 
L 787.493269 1151.73404 
L 783.370499 1152.596463 
L 779.170641 1153.2058 
L 774.903286 1153.571143 
L 770.577117 1153.703307 
L 766.199765 1153.614678 
L 761.777726 1153.319021 
L 757.31634 1152.83127 
L 751.313741 1151.909637 
L 745.255683 1150.714062 
L 739.14656 1149.284672 
L 731.441919 1147.229351 
L 722.099675 1144.4644 
L 709.490365 1140.444704 
L 691.945338 1134.573123 
L 677.577834 1129.538765 
L 668.118897 1126.001932 
L 660.387627 1122.877912 
L 654.345448 1120.221061 
L 648.466162 1117.38867 
L 642.783762 1114.347584 
L 638.671638 1111.910608 
L 634.703514 1109.325988 
L 630.893145 1106.582759 
L 627.253792 1103.671665 
L 623.798124 1100.585465 
L 620.538132 1097.319184 
L 617.485073 1093.870321 
L 614.649431 1090.238989 
L 612.040902 1086.428003 
L 609.668389 1082.4429 
L 607.540014 1078.291914 
L 605.663134 1073.985882 
L 604.044363 1069.538113 
L 602.689592 1064.96421 
L 601.603998 1060.281852 
L 600.792049 1055.510556 
L 600.257491 1050.671407 
L 600.003325 1045.786784 
L 600.031767 1040.880077 
L 600.34419 1035.975395 
L 600.941053 1031.097299 
L 601.821823 1026.270522 
L 602.984883 1021.519724 
L 604.427443 1016.869246 
L 606.14545 1012.342897 
L 608.133504 1007.963748 
L 610.384797 1003.753952 
L 612.891057 999.734572 
L 615.642531 995.925435 
L 618.627981 992.344985 
L 621.834731 989.010159 
L 625.248728 985.936263 
L 627.632349 984.03873 
L 630.096476 982.266793 
L 632.636092 980.623632 
L 635.246003 979.112033 
L 637.920877 977.734369 
L 642.043053 975.923154 
L 646.280442 974.422314 
L 650.614243 973.23427 
L 655.025816 972.359054 
L 659.496976 971.794222 
L 664.010279 971.534806 
L 668.549305 971.573267 
L 673.098917 971.899481 
L 677.645495 972.500756 
L 682.177137 973.361878 
L 686.683815 974.465189 
L 691.157491 975.790715 
L 695.592176 977.316321 
L 699.983945 979.017911 
L 705.769864 981.515616 
L 711.477059 984.21506 
L 719.904987 988.492506 
L 736.443566 997.002776 
L 741.922389 999.57803 
L 747.411716 1001.919508 
L 751.544005 1003.489782 
L 755.694596 1004.878319 
L 759.866753 1006.067465 
L 764.06223 1007.042037 
L 768.281135 1007.789373 
L 772.521823 1008.299324 
L 776.780846 1008.56419 
L 781.052949 1008.578604 
L 785.331109 1008.339382 
L 789.606617 1007.845316 
L 793.869206 1007.096951 
L 798.107209 1006.096335 
L 802.307761 1004.846754 
L 806.457016 1003.352473 
L 810.540399 1001.618472 
L 814.542867 999.65021 
L 818.449186 997.453403 
L 822.244213 995.033838 
L 825.913181 992.397226 
L 829.441975 989.549089 
L 832.81741 986.4947 
L 836.027482 983.239063 
L 839.061617 979.786941 
L 841.910895 976.142926 
L 844.568246 972.311547 
L 847.028637 968.297413 
L 849.289216 964.105388 
L 851.349437 959.740775 
L 853.211151 955.209518 
L 854.878665 950.518405 
L 856.358771 945.675262 
L 857.660733 940.689127 
L 858.796244 935.570403 
L 860.075933 928.559954 
L 861.124335 921.367605 
L 862.179885 912.178984 
L 863.207922 900.974025 
L 865.042757 880.458041 
L 865.895017 873.182147 
L 866.942082 866.091023 
L 867.889768 860.925664 
L 869.00187 855.914885 
L 870.299299 851.078338 
L 871.801013 846.434009 
L 873.523768 841.997953 
L 875.48191 837.784065 
L 876.924031 835.104037 
L 878.47888 832.530748 
L 880.148733 830.066506 
L 881.935319 827.71311 
L 883.839809 825.471845 
L 885.862825 823.343481 
L 888.004442 821.328284 
L 890.264201 819.426025 
L 892.64112 817.635994 
L 895.133721 815.957019 
L 897.740041 814.387489 
L 901.857344 812.233871 
L 906.215068 810.31344 
L 910.801384 808.616065 
L 915.602811 807.130163 
L 920.604502 805.842965 
L 925.790522 804.740787 
L 931.144151 803.809293 
L 936.648163 803.033748 
L 944.190607 802.216536 
L 951.928189 801.615009 
L 961.813615 801.114484 
L 971.867284 800.834336 
L 984.058937 800.706968 
L 1002.39851 800.756758 
L 1032.46304 800.852902 
L 1046.070938 800.662797 
L 1057.450138 800.279828 
L 1066.705718 799.761384 
L 1075.735466 799.026872 
L 1082.7853 798.26244 
L 1089.671817 797.32413 
L 1096.387798 796.197568 
L 1102.92702 794.869661 
L 1109.284549 793.32888 
L 1115.457062 791.565548 
L 1121.443166 789.572099 
L 1127.243689 787.343311 
L 1132.861927 784.876519 
L 1138.303803 782.171798 
L 1143.577943 779.232122 
L 1148.695638 776.063511 
L 1153.670696 772.675171 
L 1158.51918 769.079637 
L 1163.259032 765.292917 
L 1169.060659 760.32096 
L 1174.76237 755.128056 
L 1182.652218 747.596449 
L 1198.466455 732.365312 
L 1204.213318 727.162959 
L 1208.865045 723.20281 
L 1213.566554 719.482663 
L 1218.315003 716.0597 
L 1221.90313 713.721885 
L 1225.509433 711.607005 
L 1229.128256 709.737924 
L 1232.752752 708.136395 
L 1236.374936 706.82271 
L 1239.985765 705.815353 
L 1243.575211 705.130662 
L 1245.950939 704.86042 
L 1248.308891 704.743249 
L 1250.645487 704.782006 
L 1252.957016 704.978941 
L 1255.239651 705.335662 
L 1257.489462 705.853117 
L 1259.702431 706.531573 
L 1261.874471 707.370605 
L 1264.001433 708.369091 
L 1266.079131 709.525205 
L 1268.103351 710.836425 
L 1270.069871 712.299543 
L 1271.974475 713.910682 
L 1273.81297 715.665315 
L 1276.437696 718.554897 
L 1278.890606 721.735816 
L 1281.158388 725.185595 
L 1283.228301 728.879442 
L 1285.088324 732.790648 
L 1286.727307 736.89102 
L 1288.135118 741.151347 
L 1289.302799 745.541885 
L 1290.222716 750.032844 
L 1290.888698 754.594884 
L 1291.296173 759.199592 
L 1291.44229 763.819942 
L 1291.326019 768.430722 
L 1290.94823 773.00893 
L 1290.311753 777.534116 
L 1289.421398 781.988677 
L 1288.283953 786.35809 
L 1286.908146 790.631086 
L 1285.304571 794.799757 
L 1283.485583 798.859598 
L 1281.465162 802.809479 
L 1279.25874 806.651557 
L 1276.883016 810.391118 
L 1274.355733 814.036371 
L 1270.782431 818.769123 
L 1267.018224 823.38586 
L 1262.114962 829.051862 
L 1244.929069 848.546392 
L 1241.001535 853.429345 
L 1237.192301 858.501398 
L 1233.531646 863.788047 
L 1230.047409 869.306424 
L 1227.565664 873.602356 
L 1225.208226 878.032891 
L 1222.985315 882.594452 
L 1220.907084 887.280214 
L 1218.983764 892.080164 
L 1217.225791 896.981211 
L 1215.643914 901.967372 
L 1214.249249 907.020013 
L 1213.053304 912.118157 
L 1212.06796 917.23883 
L 1211.305392 922.357475 
L 1210.777955 927.448394 
L 1210.498019 932.485223 
L 1210.477754 937.441441 
L 1210.728893 942.290885 
L 1211.26245 947.008271 
L 1212.088423 951.569718 
L 1212.805874 954.513099 
L 1213.659355 957.371408 
L 1214.650679 960.139224 
L 1215.781259 962.81171 
L 1217.052064 965.38466 
L 1218.463589 967.854543 
L 1220.015825 970.218544 
L 1221.708226 972.474594 
L 1223.539693 974.621398 
L 1225.508549 976.658451 
L 1227.612529 978.586057 
L 1229.84877 980.405324 
L 1232.21381 982.118168 
L 1234.703589 983.7273 
L 1238.661813 985.954372 
L 1242.872003 987.971017 
L 1247.313305 989.795673 
L 1251.962322 991.449971 
L 1256.793369 992.958329 
L 1263.469864 994.788944 
L 1272.094159 996.883625 
L 1293.22212 1001.83237 
L 1300.13461 1003.700032 
L 1306.859771 1005.779674 
L 1311.73945 1007.508993 
L 1316.448174 1009.40338 
L 1320.960595 1011.476865 
L 1325.253243 1013.739868 
L 1329.304647 1016.199121 
L 1333.095423 1018.857667 
L 1336.608345 1021.71496 
L 1338.788416 1023.728414 
L 1340.834364 1025.826541 
L 1342.742728 1028.006791 
L 1344.510488 1030.26608 
L 1346.135066 1032.60084 
L 1347.614334 1035.007075 
L 1348.946603 1037.48042 
L 1350.130637 1040.016207 
L 1351.165642 1042.609522 
L 1352.051276 1045.255277 
L 1352.787647 1047.948269 
L 1353.375317 1050.683249 
L 1353.815304 1053.454979 
L 1354.201736 1057.670221 
L 1354.266251 1061.939739 
L 1354.018149 1066.247749 
L 1353.469107 1070.579837 
L 1352.633184 1074.923227 
L 1351.52681 1079.266974 
L 1350.168758 1083.602084 
L 1348.580085 1087.921547 
L 1346.784047 1092.220297 
L 1344.110829 1097.914387 
L 1341.179496 1103.562825 
L 1337.260164 1110.560685 
L 1323.038568 1135.289505 
L 1320.336918 1140.696726 
L 1318.521408 1144.724782 
L 1316.917331 1148.723211 
L 1315.54997 1152.684596 
L 1314.442013 1156.599869 
L 1313.613279 1160.458461 
L 1313.080491 1164.24852 
L 1312.857093 1167.957197 
L 1312.953125 1171.570995 
L 1313.197992 1173.920684 
L 1313.588897 1176.218027 
L 1314.126237 1178.459054 
L 1314.809727 1180.639937 
L 1315.638424 1182.757049 
L 1316.610736 1184.807015 
L 1317.724451 1186.786769 
L 1318.976763 1188.693592 
L 1320.364301 1190.525167 
L 1321.883165 1192.279606 
L 1324.397968 1194.763659 
L 1327.181594 1197.068361 
L 1330.215419 1199.19359 
L 1333.479224 1201.14184 
L 1336.951561 1202.918162 
L 1340.610132 1204.530006 
L 1344.432165 1205.986989 
L 1348.394787 1207.300572 
L 1353.85799 1208.85145 
L 1359.479277 1210.203775 
L 1366.654802 1211.667548 
L 1375.374034 1213.177066 
L 1386.995285 1214.924791 
L 1404.081648 1217.241531 
L 1416.549502 1218.753339 
L 1426.111292 1219.697632 
L 1434.291084 1220.266469 
L 1441.148545 1220.530027 
L 1448.082972 1220.582201 
L 1455.123735 1220.421224 
L 1463.735987 1219.973422 
L 1474.002407 1219.193962 
L 1493.385172 1217.658049 
L 1500.749699 1217.310098 
L 1506.506143 1217.23215 
L 1512.080367 1217.383997 
L 1516.105063 1217.674797 
L 1519.967215 1218.135209 
L 1523.64109 1218.779055 
L 1527.101758 1219.617756 
L 1530.325628 1220.660197 
L 1533.290975 1221.912685 
L 1535.978419 1223.378966 
L 1537.607334 1224.475997 
L 1539.10114 1225.668479 
L 1540.456348 1226.955797 
L 1541.670166 1228.336938 
L 1542.740526 1229.810533 
L 1543.6661 1231.37489 
L 1544.446311 1233.028031 
L 1545.081334 1234.767735 
L 1545.572084 1236.591573 
L 1545.920205 1238.496948 
L 1546.180267 1241.501891 
L 1546.135525 1244.674519 
L 1545.799711 1248.004934 
L 1545.1892 1251.483119 
L 1544.322547 1255.099058 
L 1543.219966 1258.842802 
L 1541.4198 1264.016208 
L 1539.289944 1269.375903 
L 1536.2416 1276.301275 
L 1532.850631 1283.431875 
L 1528.440644 1292.183594 
L 1522.954008 1302.525715 
L 1518.026486 1311.355632 
L 1513.775439 1318.573128 
L 1509.38213 1325.555722 
L 1505.749177 1330.899669 
L 1501.993445 1335.965642 
L 1499.085154 1339.547603 
L 1496.089842 1342.916307 
L 1493.000177 1346.048654 
L 1489.809595 1348.923029 
L 1486.512609 1351.519804 
L 1483.105076 1353.821824 
L 1479.584399 1355.814877 
L 1477.1739 1356.966422 
L 1474.712832 1357.973441 
L 1472.201707 1358.834406 
L 1469.641382 1359.548605 
L 1467.033053 1360.116166 
L 1464.378236 1360.538082 
L 1460.312917 1360.9022 
L 1456.15449 1360.953048 
L 1451.911492 1360.705058 
L 1447.593439 1360.176939 
L 1443.210564 1359.391454 
L 1438.773539 1358.375106 
L 1434.293192 1357.157738 
L 1428.270476 1355.278784 
L 1420.69723 1352.637808 
L 1398.042887 1344.444374 
L 1392.08017 1342.605164 
L 1387.637056 1341.415075 
L 1383.218506 1340.417108 
L 1378.823014 1339.634015 
L 1374.448 1339.084362 
L 1370.089954 1338.782245 
L 1365.744608 1338.737091 
L 1361.407128 1338.95354 
L 1357.072318 1339.43141 
L 1352.734849 1340.165752 
L 1348.389481 1341.146978 
L 1344.031308 1342.361063 
L 1339.655995 1343.789824 
L 1333.78963 1345.990235 
L 1327.881248 1348.471312 
L 1320.435278 1351.859393 
L 1296.348624 1363.081116 
L 1290.367715 1365.542162 
L 1284.464516 1367.705469 
L 1280.112143 1369.089587 
L 1275.844553 1370.239021 
L 1271.681289 1371.129412 
L 1267.642559 1371.739424 
L 1263.748861 1372.05094 
L 1260.020567 1372.049206 
L 1258.818007 1371.976963 
L 1258.818007 1371.976963 
" clip-path="url(#p19dd5e02c9)" style="fill: none; stroke: #4169e1; stroke-width: 3; stroke-linecap: square"/>
   </g>
   <g id="line2d_2">
    <path d="M 1229.918978 1438.901186 
L 1228.04558 1438.499576 
L 1226.248358 1437.915854 
L 1224.531439 1437.148656 
L 1222.898643 1436.197443 
L 1221.353433 1435.062488 
L 1219.898871 1433.744851 
L 1218.537582 1432.246355 
L 1217.271708 1430.56956 
L 1216.102878 1428.717722 
L 1215.032172 1426.694764 
L 1214.060102 1424.50523 
L 1213.186584 1422.154248 
L 1212.059405 1418.337582 
L 1211.147299 1414.191646 
L 1210.442136 1409.739686 
L 1209.932658 1405.006697 
L 1209.604579 1400.019044 
L 1209.419298 1393.020107 
L 1209.477907 1385.683718 
L 1209.809919 1376.141094 
L 1210.65351 1360.317139 
L 1211.345432 1346.253405 
L 1211.606311 1336.263899 
L 1211.581444 1328.38388 
L 1211.288042 1320.65384 
L 1210.861902 1314.980527 
L 1210.239023 1309.432227 
L 1209.404266 1304.024434 
L 1208.345402 1298.771646 
L 1207.053239 1293.687487 
L 1205.521701 1288.784833 
L 1203.747858 1284.075943 
L 1201.731905 1279.572581 
L 1199.477092 1275.286139 
L 1196.989612 1271.227731 
L 1194.278445 1267.408285 
L 1191.355159 1263.838591 
L 1188.233681 1260.529341 
L 1184.930025 1257.491124 
L 1181.461997 1254.734391 
L 1177.84887 1252.269393 
L 1174.111047 1250.106078 
L 1170.269692 1248.253956 
L 1166.346368 1246.721936 
L 1162.362659 1245.518132 
L 1159.683817 1244.901491 
L 1156.993718 1244.435704 
L 1154.298304 1244.122292 
L 1151.603286 1243.962455 
L 1148.914099 1243.957043 
L 1146.235863 1244.106513 
L 1143.573349 1244.410897 
L 1140.930944 1244.869767 
L 1138.312619 1245.482195 
L 1135.721909 1246.246726 
L 1133.161887 1247.161344 
L 1129.384949 1248.80882 
L 1125.689509 1250.776586 
L 1122.079788 1253.049987 
L 1118.557551 1255.611011 
L 1115.122188 1258.438248 
L 1111.770873 1261.506908 
L 1108.498775 1264.788915 
L 1104.247637 1269.442433 
L 1100.106135 1274.337557 
L 1094.050237 1281.935272 
L 1084.181257 1294.458954 
L 1080.253329 1299.123209 
L 1076.315838 1303.440091 
L 1073.352815 1306.393027 
L 1070.381386 1309.060639 
L 1067.404211 1311.408894 
L 1064.426382 1313.407136 
L 1061.455392 1315.028502 
L 1059.483274 1315.88863 
L 1057.521929 1316.565402 
L 1055.575175 1317.054053 
L 1053.64718 1317.350734 
L 1051.742421 1317.452516 
L 1049.865641 1317.357396 
L 1048.021797 1317.064294 
L 1046.21601 1316.573033 
L 1044.453509 1315.88432 
L 1042.739575 1314.999721 
L 1041.079485 1313.921621 
L 1039.478456 1312.653184 
L 1037.941586 1311.198304 
L 1036.473801 1309.561555 
L 1035.079801 1307.748129 
L 1033.764014 1305.763778 
L 1032.530543 1303.614746 
L 1031.383129 1301.307706 
L 1029.830549 1297.566336 
L 1028.488405 1293.510191 
L 1027.363689 1289.16506 
L 1026.460844 1284.557133 
L 1025.781687 1279.71251 
L 1025.325388 1274.656725 
L 1025.088513 1269.414329 
L 1025.065123 1264.008514 
L 1025.246924 1258.4608 
L 1025.623449 1252.790791 
L 1026.406691 1245.070494 
L 1027.479871 1237.199082 
L 1028.804776 1229.204998 
L 1030.751779 1219.072505 
L 1033.402598 1206.745902 
L 1038.681511 1183.757628 
L 1041.989362 1168.904 
L 1044.18669 1158.209291 
L 1046.167954 1147.469034 
L 1047.555139 1138.867078 
L 1048.734539 1130.282119 
L 1049.679233 1121.743881 
L 1050.364716 1113.28757 
L 1050.76894 1104.953284 
L 1050.875692 1098.809039 
L 1050.805928 1092.777813 
L 1050.553238 1086.879762 
L 1050.112102 1081.13515 
L 1049.477925 1075.563929 
L 1048.647068 1070.185306 
L 1047.616875 1065.017312 
L 1046.385694 1060.076385 
L 1044.95289 1055.376983 
L 1043.31885 1050.93124 
L 1041.484974 1046.748678 
L 1039.453666 1042.83598 
L 1037.228298 1039.196842 
L 1034.813185 1035.831904 
L 1032.213532 1032.738763 
L 1029.435395 1029.91208 
L 1026.48562 1027.343768 
L 1023.371797 1025.023262 
L 1020.102201 1022.937869 
L 1016.685748 1021.073184 
L 1013.13195 1019.413561 
L 1009.450878 1017.942632 
L 1005.653131 1016.643851 
L 1001.749818 1015.50105 
L 996.401305 1014.193825 
L 990.914628 1013.105142 
L 985.320113 1012.209771 
L 978.223887 1011.337458 
L 971.074043 1010.729282 
L 965.3612 1010.440604 
L 959.693391 1010.346403 
L 954.106931 1010.473646 
L 948.638056 1010.857099 
L 944.634959 1011.337146 
L 940.732421 1012.002777 
L 936.944169 1012.87323 
L 933.282995 1013.967716 
L 929.76052 1015.304801 
L 926.386963 1016.901782 
L 923.170904 1018.774107 
L 921.117766 1020.181852 
L 919.139151 1021.721009 
L 917.236122 1023.394126 
L 915.409296 1025.203078 
L 913.658821 1027.149022 
L 911.175418 1030.325485 
L 908.859793 1033.809014 
L 906.706302 1037.59368 
L 904.706853 1041.669522 
L 902.850991 1046.02262 
L 901.12604 1050.635277 
L 899.517297 1055.486264 
L 897.524364 1062.282333 
L 895.665506 1069.392803 
L 893.026732 1080.487712 
L 887.695702 1103.237531 
L 885.224699 1112.524413 
L 883.066921 1119.719331 
L 880.716732 1126.628622 
L 878.814469 1131.583885 
L 876.785114 1136.317003 
L 874.624505 1140.805453 
L 872.330745 1145.029179 
L 869.904091 1148.970685 
L 867.346786 1152.615113 
L 864.662857 1155.950288 
L 861.857866 1158.966754 
L 858.938638 1161.65778 
L 855.912974 1164.019354 
L 852.789353 1166.050167 
L 849.576639 1167.751561 
L 846.283797 1169.127478 
L 842.919634 1170.184374 
L 839.492566 1170.931114 
L 836.010422 1171.37884 
L 832.480285 1171.540807 
L 828.908383 1171.432192 
L 825.300018 1171.069865 
L 821.659545 1170.472128 
L 817.9904 1169.658419 
L 814.29516 1168.648981 
L 809.330644 1167.03439 
L 804.325603 1165.157725 
L 798.014458 1162.51565 
L 790.363354 1159.022416 
L 780.041996 1154.012715 
L 767.011342 1147.42524 
L 756.593246 1141.92725 
L 748.874791 1137.592876 
L 742.566106 1133.7644 
L 737.635712 1130.50844 
L 732.838239 1127.037356 
L 729.344043 1124.26838 
L 725.951947 1121.3389 
L 722.673542 1118.233355 
L 719.520163 1114.937702 
L 716.502776 1111.439855 
L 713.631887 1107.730079 
L 710.917472 1103.801321 
L 708.36892 1099.649483 
L 705.995 1095.273619 
L 703.803837 1090.676069 
L 701.802913 1085.862508 
L 699.999064 1080.841932 
L 698.398502 1075.626575 
L 697.006823 1070.231759 
L 695.82903 1064.675696 
L 694.86954 1058.979235 
L 694.132193 1053.165578 
L 693.620243 1047.25996 
L 693.336345 1041.289319 
L 693.282525 1035.281942 
L 693.460139 1029.267122 
L 693.869816 1023.274809 
L 694.5114 1017.33528 
L 695.383874 1011.478817 
L 696.485289 1005.735414 
L 697.812688 1000.134492 
L 699.362039 994.704654 
L 701.128175 989.473446 
L 703.104747 984.467149 
L 705.2842 979.710583 
L 707.657766 975.226935 
L 710.215488 971.037596 
L 712.946264 967.162003 
L 715.837931 963.617503 
L 717.848649 961.446 
L 719.920965 959.432313 
L 722.050643 957.579853 
L 724.233329 955.891532 
L 726.464579 954.36974 
L 728.739884 953.016335 
L 731.0547 951.83262 
L 733.404479 950.819336 
L 735.784698 949.976641 
L 738.19089 949.304103 
L 740.61868 948.800685 
L 743.063811 948.464737 
L 745.522175 948.293991 
L 747.989847 948.285553 
L 750.463107 948.435904 
L 752.938467 948.740898 
L 756.648457 949.477759 
L 760.346259 950.53306 
L 764.02369 951.885164 
L 767.674191 953.509591 
L 771.292876 955.379215 
L 774.876542 957.464507 
L 779.597828 960.525435 
L 784.254877 963.833594 
L 789.993873 968.188677 
L 804.627446 979.504893 
L 809.098143 982.660857 
L 813.577412 985.530328 
L 816.949342 987.454694 
L 820.336208 989.156341 
L 823.740671 990.613634 
L 827.164164 991.807969 
L 830.606773 992.723827 
L 834.067157 993.34877 
L 837.542503 993.673361 
L 841.028522 993.691027 
L 844.519483 993.397861 
L 848.008281 992.792385 
L 851.486536 991.875267 
L 854.944729 990.649015 
L 858.372363 989.117658 
L 861.758138 987.286422 
L 865.090162 985.161411 
L 868.35616 982.749313 
L 871.5437 980.057134 
L 874.640427 977.091966 
L 877.63429 973.860808 
L 880.513772 970.370426 
L 883.268113 966.627284 
L 885.887519 962.637514 
L 888.363361 958.406952 
L 890.68836 953.941224 
L 892.856748 949.245883 
L 894.864417 944.326578 
L 896.709041 939.189267 
L 898.390172 933.840449 
L 899.909323 928.287411 
L 901.270008 922.53847 
L 902.477769 916.603216 
L 903.540164 910.492726 
L 904.747339 902.095111 
L 905.741149 893.444129 
L 906.555107 884.581146 
L 907.378808 873.277202 
L 908.45235 854.924754 
L 909.563867 836.679756 
L 910.456132 825.566841 
L 911.357682 816.943497 
L 912.476005 808.626533 
L 913.482492 802.625632 
L 914.650707 796.853194 
L 915.994944 791.329717 
L 917.527582 786.07314 
L 919.258938 781.098594 
L 921.197156 776.418221 
L 923.348129 772.04104 
L 924.902185 769.294378 
L 926.552958 766.686076 
L 928.300509 764.21646 
L 930.144462 761.885249 
L 932.084019 759.691572 
L 934.117971 757.633994 
L 936.244718 755.710541 
L 938.462288 753.918733 
L 940.768365 752.255618 
L 943.160306 750.71781 
L 946.902721 748.637683 
L 950.820667 746.816716 
L 954.902026 745.23926 
L 959.133797 743.888545 
L 963.502337 742.747002 
L 967.993589 741.796575 
L 972.59331 741.019009 
L 978.870454 740.219744 
L 985.282152 739.653244 
L 991.796747 739.278947 
L 1000.039613 739.023203 
L 1010.008158 738.936918 
L 1026.610899 739.056441 
L 1044.570704 739.135803 
L 1055.712755 738.942689 
L 1063.498182 738.610591 
L 1071.120331 738.070001 
L 1077.09023 737.460226 
L 1082.938572 736.670926 
L 1088.658481 735.682568 
L 1094.243586 734.476594 
L 1099.68818 733.035746 
L 1104.987424 731.344422 
L 1108.864183 729.903295 
L 1112.655987 728.308701 
L 1116.362263 726.556578 
L 1119.982993 724.643752 
L 1123.518769 722.568003 
L 1126.970831 720.328118 
L 1130.341103 717.923951 
L 1133.632204 715.356464 
L 1136.847454 712.627771 
L 1141.023472 708.74465 
L 1145.083099 704.592253 
L 1149.039443 700.185938 
L 1152.907143 695.545327 
L 1157.641247 689.452213 
L 1162.293821 683.088328 
L 1168.731904 673.858372 
L 1181.636258 655.192671 
L 1186.325675 648.817206 
L 1190.121465 643.964058 
L 1193.957878 639.405032 
L 1197.832593 635.210205 
L 1200.76049 632.34522 
L 1203.703219 629.753443 
L 1206.656164 627.462891 
L 1209.613738 625.500224 
L 1212.569426 623.890308 
L 1214.535226 623.024293 
L 1216.494536 622.331258 
L 1218.444821 621.816709 
L 1220.383405 621.485529 
L 1222.307485 621.341935 
L 1224.214138 621.389433 
L 1226.100336 621.630775 
L 1227.962957 622.067936 
L 1229.798793 622.702074 
L 1231.604568 623.53352 
L 1233.376943 624.561751 
L 1235.112536 625.785392 
L 1236.807929 627.202205 
L 1238.459684 628.8091 
L 1240.064357 630.602146 
L 1241.618505 632.576591 
L 1243.847524 635.866037 
L 1245.943787 639.529087 
L 1247.896184 643.54033 
L 1249.693993 647.871225 
L 1251.327001 652.49055 
L 1252.785622 657.364905 
L 1254.061021 662.459259 
L 1255.145235 667.73753 
L 1256.031303 673.163181 
L 1256.713379 678.699822 
L 1257.186851 684.311812 
L 1257.448446 689.964834 
L 1257.496326 695.626454 
L 1257.330159 701.266628 
L 1256.951186 706.858165 
L 1256.362253 712.377129 
L 1255.567824 717.803179 
L 1254.573971 723.119825 
L 1253.388332 728.31462 
L 1252.020042 733.379261 
L 1250.479636 738.309615 
L 1248.778935 743.105654 
L 1246.930894 747.771325 
L 1244.261838 753.803249 
L 1241.390824 759.645227 
L 1238.354663 765.334454 
L 1234.384611 772.300127 
L 1226.138326 786.132348 
L 1221.179842 794.654828 
L 1217.137889 802.03988 
L 1214.003034 808.194427 
L 1210.983444 814.605058 
L 1208.102295 821.295452 
L 1205.381095 828.278139 
L 1202.8402 835.553626 
L 1200.499367 843.109942 
L 1198.378299 850.922624 
L 1196.497125 858.955153 
L 1194.876754 867.159836 
L 1193.845753 873.392021 
L 1192.98334 879.661442 
L 1192.299377 885.938593 
L 1191.803912 892.192383 
L 1191.50705 898.390709 
L 1191.418797 904.501063 
L 1191.548872 910.491164 
L 1191.906482 916.329598 
L 1192.500091 921.986455 
L 1193.337166 927.433952 
L 1194.423921 932.647023 
L 1195.765068 937.603869 
L 1197.363576 942.286451 
L 1198.572813 945.24878 
L 1199.896702 948.079966 
L 1201.334574 950.777944 
L 1202.885299 953.34161 
L 1204.54727 955.77084 
L 1206.318394 958.066497 
L 1208.196091 960.230437 
L 1210.177291 962.265496 
L 1212.25844 964.175476 
L 1214.435508 965.965114 
L 1217.871006 968.436506 
L 1221.495091 970.672615 
L 1225.288669 972.69995 
L 1229.230785 974.548438 
L 1234.678777 976.791849 
L 1241.716167 979.358873 
L 1258.956498 985.423541 
L 1264.597062 987.712354 
L 1268.73028 989.595893 
L 1272.753736 991.652294 
L 1276.644905 993.904304 
L 1280.382622 996.37055 
L 1283.947213 999.065294 
L 1287.320603 1001.998295 
L 1290.486401 1005.174783 
L 1293.429959 1008.595535 
L 1295.262437 1011.010183 
L 1296.98702 1013.529894 
L 1298.600702 1016.151893 
L 1300.807599 1020.268947 
L 1302.751703 1024.593978 
L 1304.427452 1029.110094 
L 1305.831125 1033.798313 
L 1306.960852 1038.638151 
L 1307.81662 1043.608228 
L 1308.400292 1048.686856 
L 1308.715619 1053.852619 
L 1308.768263 1059.084898 
L 1308.565813 1064.364348 
L 1308.117797 1069.673305 
L 1307.435686 1074.996113 
L 1306.53289 1080.31936 
L 1305.424725 1085.632021 
L 1304.128375 1090.925506 
L 1302.140219 1097.943255 
L 1299.901056 1104.907508 
L 1296.832395 1113.534081 
L 1292.907241 1123.777566 
L 1285.08046 1143.977251 
L 1282.154507 1152.293745 
L 1280.076337 1158.895848 
L 1278.291695 1165.437718 
L 1277.175934 1170.29238 
L 1276.271845 1175.090533 
L 1275.595602 1179.819223 
L 1275.160849 1184.463926 
L 1274.978557 1189.008896 
L 1275.056919 1193.437591 
L 1275.401289 1197.733146 
L 1276.014173 1201.878882 
L 1276.895263 1205.858838 
L 1278.041515 1209.658285 
L 1279.447267 1213.264229 
L 1281.104408 1216.665858 
L 1283.002569 1219.854929 
L 1285.129354 1222.826077 
L 1287.470594 1225.577025 
L 1290.010626 1228.108692 
L 1292.732584 1230.425195 
L 1295.6187 1232.533729 
L 1298.650615 1234.444348 
L 1301.809688 1236.169636 
L 1305.077294 1237.724295 
L 1309.571365 1239.560132 
L 1314.184257 1241.16318 
L 1318.87727 1242.575767 
L 1324.80361 1244.135414 
L 1333.112934 1246.056658 
L 1344.819283 1248.499429 
L 1356.223162 1250.677828 
L 1364.056179 1251.959794 
L 1370.728516 1252.804171 
L 1376.300772 1253.272957 
L 1381.918188 1253.493989 
L 1387.608966 1253.452415 
L 1393.393492 1253.155372 
L 1399.280772 1252.635088 
L 1407.682323 1251.64657 
L 1421.07524 1250.033737 
L 1427.106206 1249.551842 
L 1431.833141 1249.394843 
L 1436.423425 1249.505333 
L 1439.747059 1249.796658 
L 1442.945123 1250.289584 
L 1445.996504 1251.001978 
L 1448.880588 1251.948839 
L 1451.577715 1253.142104 
L 1454.069604 1254.590556 
L 1455.608611 1255.700868 
L 1457.044658 1256.928066 
L 1458.373847 1258.272474 
L 1459.592786 1259.733856 
L 1460.698631 1261.311458 
L 1461.689101 1263.004042 
L 1462.56251 1264.809927 
L 1463.317775 1266.727041 
L 1464.228289 1269.80588 
L 1464.873051 1273.120066 
L 1465.25608 1276.659042 
L 1465.384286 1280.411419 
L 1465.267247 1284.365277 
L 1464.916926 1288.508418 
L 1464.347323 1292.828553 
L 1463.574078 1297.313431 
L 1462.255545 1303.52853 
L 1460.646813 1309.986258 
L 1458.291993 1318.355727 
L 1455.628292 1327.001122 
L 1452.121798 1337.650755 
L 1447.721473 1350.295806 
L 1443.076798 1362.950674 
L 1438.927117 1373.588155 
L 1435.342194 1382.145298 
L 1432.377719 1388.694285 
L 1429.313057 1394.902616 
L 1426.939903 1399.292296 
L 1424.49574 1403.42063 
L 1421.974587 1407.25931 
L 1419.371084 1410.781846 
L 1416.680757 1413.964183 
L 1413.900224 1416.7853 
L 1411.995319 1418.456601 
L 1410.04906 1419.955371 
L 1408.061436 1421.278322 
L 1406.032722 1422.423098 
L 1403.963475 1423.388323 
L 1401.854536 1424.173633 
L 1399.707012 1424.779714 
L 1397.52227 1425.208319 
L 1395.301914 1425.462275 
L 1393.047771 1425.545493 
L 1390.761863 1425.46295 
L 1388.446385 1425.220678 
L 1384.922872 1424.57347 
L 1381.346464 1423.610861 
L 1377.725869 1422.36533 
L 1374.069924 1420.873451 
L 1369.155412 1418.570799 
L 1364.213339 1416.004444 
L 1355.551178 1411.207028 
L 1348.161324 1407.167346 
L 1343.27013 1404.700651 
L 1338.413483 1402.528935 
L 1334.794679 1401.14557 
L 1331.195614 1400.007487 
L 1327.614755 1399.140906 
L 1324.049728 1398.566785 
L 1320.497448 1398.300516 
L 1316.954259 1398.351704 
L 1313.416099 1398.724067 
L 1309.878672 1399.415422 
L 1306.337632 1400.417788 
L 1302.788772 1401.717568 
L 1299.228223 1403.295836 
L 1295.652646 1405.128696 
L 1292.059423 1407.187718 
L 1287.238207 1410.228268 
L 1281.162326 1414.380348 
L 1261.507713 1428.132528 
L 1256.627315 1431.148531 
L 1253.0069 1433.175987 
L 1249.435729 1434.960858 
L 1245.928595 1436.468844 
L 1242.501201 1437.668927 
L 1239.169887 1438.533695 
L 1237.010623 1438.91213 
L 1234.906438 1439.125014 
L 1232.862248 1439.167194 
L 1230.882881 1439.034355 
L 1230.882881 1439.034355 
" clip-path="url(#p19dd5e02c9)" style="fill: none; stroke: #ff8c00; stroke-width: 3; stroke-linecap: square"/>
   </g>
  </g>
 </g>
 <defs>
  <clipPath id="p19dd5e02c9">
   <rect x="270" y="259.2" width="1674" height="1630.8"/>
  </clipPath>
 </defs>
</svg>
