<?xml version="1.0" encoding="utf-8" standalone="no"?>
<!DOCTYPE svg PUBLIC "-//W3C//DTD SVG 1.1//EN"
  "http://www.w3.org/Graphics/SVG/1.1/DTD/svg11.dtd">
<svg xmlns:xlink="http://www.w3.org/1999/xlink" width="2160pt" height="2160pt" viewBox="0 0 2160 2160" xmlns="http://www.w3.org/2000/svg" version="1.1">
 <metadata>
  <rdf:RDF xmlns:dc="http://purl.org/dc/elements/1.1/" xmlns:cc="http://creativecommons.org/ns#" xmlns:rdf="http://www.w3.org/1999/02/22-rdf-syntax-ns#">
   <cc:Work>
    <dc:type rdf:resource="http://purl.org/dc/dcmitype/StillImage"/>
    <dc:date>2022-03-06T19:21:00.051972</dc:date>
    <dc:format>image/svg+xml</dc:format>
    <dc:creator>
     <cc:Agent>
      <dc:title>Matplotlib v3.5.1, https://matplotlib.org/</dc:title>
     </cc:Agent>
    </dc:creator>
   </cc:Work>
  </rdf:RDF>
 </metadata>
 <defs>
  <style type="text/css">*{stroke-linejoin: round; stroke-linecap: butt}</style>
 </defs>
 <g id="figure_1">
  <g id="patch_1">
   <path d="M 0 2160 
L 2160 2160 
L 2160 0 
L 0 0 
L 0 2160 
z
" style="fill: none"/>
  </g>
  <g id="axes_1">
   <g id="line2d_1">
    <path d="M 1257.636748 1371.868297 
L 1255.340905 1371.540585 
L 1253.138416 1371.06427 
L 1251.034339 1370.43824 
L 1249.033353 1369.662054 
L 1247.139704 1368.735935 
L 1245.357144 1367.660749 
L 1243.68889 1366.437982 
L 1242.137566 1365.069724 
L 1240.705168 1363.558632 
L 1239.393022 1361.907906 
L 1238.201754 1360.121256 
L 1237.131261 1358.202864 
L 1236.180693 1356.157351 
L 1235.348441 1353.98974 
L 1234.316492 1350.521251 
L 1233.533973 1346.809702 
L 1232.985834 1342.875897 
L 1232.653373 1338.741655 
L 1232.514466 1334.429522 
L 1232.586292 1328.443058 
L 1232.889706 1322.236104 
L 1233.615312 1312.630981 
L 1234.774959 1297.907102 
L 1235.107597 1291.365851 
L 1235.216435 1284.888656 
L 1235.107636 1280.096815 
L 1234.804605 1275.378941 
L 1234.282372 1270.74954 
L 1233.519036 1266.22215 
L 1232.496045 1261.809412 
L 1231.198411 1257.523158 
L 1229.614869 1253.374505 
L 1227.737975 1249.373959 
L 1226.321808 1246.794168 
L 1224.77347 1244.287516 
L 1223.093595 1241.856799 
L 1221.283547 1239.504755 
L 1219.345404 1237.23408 
L 1217.281933 1235.047435 
L 1213.959407 1231.930782 
L 1210.376932 1229.017927 
L 1206.551573 1226.317592 
L 1202.502954 1223.838419 
L 1198.252898 1221.588936 
L 1193.825025 1219.577507 
L 1189.244337 1217.812251 
L 1184.536771 1216.300927 
L 1179.728752 1215.050805 
L 1174.846731 1214.068506 
L 1169.91673 1213.359819 
L 1164.963895 1212.929506 
L 1160.012071 1212.781089 
L 1155.083403 1212.91663 
L 1150.197977 1213.336505 
L 1145.373497 1214.039181 
L 1140.625029 1215.021011 
L 1135.964793 1216.27603 
L 1131.402027 1217.795797 
L 1126.942924 1219.569247 
L 1122.590641 1221.582603 
L 1118.345383 1223.81932 
L 1114.204568 1226.260082 
L 1110.163062 1228.882863 
L 1106.213481 1231.663031 
L 1101.074144 1235.567635 
L 1094.816851 1240.666389 
L 1075.42612 1256.882001 
L 1070.604637 1260.482807 
L 1066.977112 1262.963406 
L 1063.338855 1265.220985 
L 1059.692139 1267.226939 
L 1056.042211 1268.955295 
L 1052.397283 1270.383065 
L 1048.76843 1271.490548 
L 1045.169395 1272.261562 
L 1042.794486 1272.582322 
L 1040.445265 1272.745145 
L 1038.12739 1272.748021 
L 1035.846811 1272.589691 
L 1033.609712 1272.269644 
L 1031.422443 1271.788101 
L 1029.291454 1271.145991 
L 1027.223222 1270.34493 
L 1025.224187 1269.387186 
L 1023.300675 1268.275645 
L 1021.458839 1267.013768 
L 1019.704586 1265.605544 
L 1018.043514 1264.055446 
L 1016.480858 1262.368374 
L 1015.021432 1260.549606 
L 1013.669579 1258.604738 
L 1012.429127 1256.53963 
L 1011.303352 1254.36035 
L 1010.294948 1252.073111 
L 1009.006799 1248.453642 
L 1007.991656 1244.626861 
L 1007.250661 1240.61395 
L 1006.781725 1236.435515 
L 1006.579599 1232.111251 
L 1006.636022 1227.659654 
L 1006.939911 1223.097782 
L 1007.477616 1218.441077 
L 1008.233201 1213.703235 
L 1009.18876 1208.89615 
L 1010.739925 1202.396163 
L 1012.561898 1195.809896 
L 1015.139992 1187.476743 
L 1018.535188 1177.352894 
L 1027.329707 1151.551684 
L 1030.022524 1142.824844 
L 1031.989917 1135.815395 
L 1033.748066 1128.796012 
L 1035.260285 1121.785159 
L 1036.492843 1114.805937 
L 1037.21511 1109.608743 
L 1037.750817 1104.458024 
L 1038.089047 1099.368157 
L 1038.21987 1094.354478 
L 1038.134376 1089.433022 
L 1037.824705 1084.620237 
L 1037.284094 1079.932656 
L 1036.506912 1075.386562 
L 1035.4887 1070.997628 
L 1034.226202 1066.780566 
L 1032.717395 1062.748789 
L 1030.961499 1058.914096 
L 1028.958988 1055.286388 
L 1026.711581 1051.873434 
L 1024.22222 1048.680688 
L 1021.495041 1045.711166 
L 1018.535328 1042.96539 
L 1015.349464 1040.441399 
L 1011.944867 1038.134838 
L 1008.329929 1036.039105 
L 1004.51395 1034.145582 
L 1000.507072 1032.44391 
L 996.320222 1030.922334 
L 991.965057 1029.568089 
L 987.453916 1028.367816 
L 981.218978 1026.983667 
L 974.762421 1025.818343 
L 968.118647 1024.843764 
L 959.606057 1023.858575 
L 950.932502 1023.10311 
L 942.17697 1022.56356 
L 933.422181 1022.246192 
L 924.753667 1022.177331 
L 917.939364 1022.330551 
L 911.280154 1022.700751 
L 904.819134 1023.322077 
L 900.128156 1023.974898 
L 895.58783 1024.805339 
L 891.212909 1025.828778 
L 887.016522 1027.059732 
L 883.009883 1028.51136 
L 879.202018 1030.195011 
L 875.599516 1032.119812 
L 872.206309 1034.292311 
L 869.023494 1036.716184 
L 866.049211 1039.39202 
L 863.27857 1042.317175 
L 860.703649 1045.485712 
L 858.313549 1048.888413 
L 856.094529 1052.512875 
L 854.030195 1056.34367 
L 852.101766 1060.362571 
L 849.705645 1065.977539 
L 847.459944 1071.834723 
L 844.247142 1080.941351 
L 838.818722 1096.430226 
L 836.45963 1102.541154 
L 833.920492 1108.507305 
L 831.87411 1112.850688 
L 829.690702 1117.055146 
L 827.359486 1121.09862 
L 824.872519 1124.960825 
L 822.224701 1128.623383 
L 819.413707 1132.069926 
L 816.439851 1135.286179 
L 813.305883 1138.260017 
L 810.016738 1140.981507 
L 806.579232 1143.442931 
L 803.001729 1145.638797 
L 799.293789 1147.565832 
L 795.465803 1149.222967 
L 791.528634 1150.611297 
L 787.493269 1151.73404 
L 783.370499 1152.596463 
L 779.170641 1153.2058 
L 774.903286 1153.571143 
L 770.577117 1153.703307 
L 766.199765 1153.614678 
L 761.777726 1153.319021 
L 757.31634 1152.83127 
L 751.313741 1151.909637 
L 745.255683 1150.714062 
L 739.14656 1149.284672 
L 731.441919 1147.229351 
L 722.099675 1144.4644 
L 709.490365 1140.444704 
L 691.945338 1134.573123 
L 677.577834 1129.538765 
L 668.118897 1126.001932 
L 660.387627 1122.877912 
L 654.345448 1120.221061 
L 648.466162 1117.38867 
L 642.783762 1114.347584 
L 638.671638 1111.910608 
L 634.703514 1109.325988 
L 630.893145 1106.582759 
L 627.253792 1103.671665 
L 623.798124 1100.585465 
L 620.538132 1097.319184 
L 617.485073 1093.870321 
L 614.649431 1090.238989 
L 612.040902 1086.428003 
L 609.668389 1082.4429 
L 607.540014 1078.291914 
L 605.663134 1073.985882 
L 604.044363 1069.538113 
L 602.689592 1064.96421 
L 601.603998 1060.281852 
L 600.792049 1055.510556 
L 600.257491 1050.671407 
L 600.003325 1045.786784 
L 600.031767 1040.880077 
L 600.34419 1035.975395 
L 600.941053 1031.097299 
L 601.821823 1026.270522 
L 602.984883 1021.519724 
L 604.427443 1016.869246 
L 606.14545 1012.342897 
L 608.133504 1007.963748 
L 610.384797 1003.753952 
L 612.891057 999.734572 
L 615.642531 995.925435 
L 618.627981 992.344985 
L 621.834731 989.010159 
L 625.248728 985.936263 
L 627.632349 984.03873 
L 630.096476 982.266793 
L 632.636092 980.623632 
L 635.246003 979.112033 
L 637.920877 977.734369 
L 642.043053 975.923154 
L 646.280442 974.422314 
L 650.614243 973.23427 
L 655.025816 972.359054 
L 659.496976 971.794222 
L 664.010279 971.534806 
L 668.549305 971.573267 
L 673.098917 971.899481 
L 677.645495 972.500756 
L 682.177137 973.361878 
L 686.683815 974.465189 
L 691.157491 975.790715 
L 695.592176 977.316321 
L 699.983945 979.017911 
L 705.769864 981.515616 
L 711.477059 984.21506 
L 719.904987 988.492506 
L 736.443566 997.002776 
L 741.922389 999.57803 
L 747.411716 1001.919508 
L 751.544005 1003.489782 
L 755.694596 1004.878319 
L 759.866753 1006.067465 
L 764.06223 1007.042037 
L 768.281135 1007.789373 
L 772.521823 1008.299324 
L 776.780846 1008.56419 
L 781.052949 1008.578604 
L 785.331109 1008.339382 
L 789.606617 1007.845316 
L 793.869206 1007.096951 
L 798.107209 1006.096335 
L 802.307761 1004.846754 
L 806.457016 1003.352473 
L 810.540399 1001.618472 
L 814.542867 999.65021 
L 818.449186 997.453403 
L 822.244213 995.033838 
L 825.913181 992.397226 
L 829.441975 989.549089 
L 832.81741 986.4947 
L 836.027482 983.239063 
L 839.061617 979.786941 
L 841.910895 976.142926 
L 844.568246 972.311547 
L 847.028637 968.297413 
L 849.289216 964.105388 
L 851.349437 959.740775 
L 853.211151 955.209518 
L 854.878665 950.518405 
L 856.358771 945.675262 
L 857.660733 940.689127 
L 858.796244 935.570403 
L 860.075933 928.559954 
L 861.124335 921.367605 
L 862.179885 912.178984 
L 863.207922 900.974025 
L 865.042757 880.458041 
L 865.895017 873.182147 
L 866.942082 866.091023 
L 867.889768 860.925664 
L 869.00187 855.914885 
L 870.299299 851.078338 
L 871.801013 846.434009 
L 873.523768 841.997953 
L 875.48191 837.784065 
L 876.924031 835.104037 
L 878.47888 832.530748 
L 880.148733 830.066506 
L 881.935319 827.71311 
L 883.839809 825.471845 
L 885.862825 823.343481 
L 888.004442 821.328284 
L 890.264201 819.426025 
L 892.64112 817.635994 
L 895.133721 815.957019 
L 897.740041 814.387489 
L 901.857344 812.233871 
L 906.215068 810.31344 
L 910.801384 808.616065 
L 915.602811 807.130163 
L 920.604502 805.842965 
L 925.790522 804.740787 
L 931.144151 803.809293 
L 936.648163 803.033748 
L 944.190607 802.216536 
L 951.928189 801.615009 
L 961.813615 801.114484 
L 971.867284 800.834336 
L 984.058937 800.706968 
L 1002.39851 800.756758 
L 1032.46304 800.852902 
L 1046.070938 800.662797 
L 1057.450138 800.279828 
L 1066.705718 799.761384 
L 1075.735466 799.026872 
L 1082.7853 798.26244 
L 1089.671817 797.32413 
L 1096.387798 796.197568 
L 1102.92702 794.869661 
L 1109.284549 793.32888 
L 1115.457062 791.565548 
L 1121.443166 789.572099 
L 1127.243689 787.343311 
L 1132.861927 784.876519 
L 1138.303803 782.171798 
L 1143.577943 779.232122 
L 1148.695638 776.063511 
L 1153.670696 772.675171 
L 1158.51918 769.079637 
L 1163.259032 765.292917 
L 1169.060659 760.32096 
L 1174.76237 755.128056 
L 1182.652218 747.596449 
L 1198.466455 732.365312 
L 1204.213318 727.162959 
L 1208.865045 723.20281 
L 1213.566554 719.482663 
L 1218.315003 716.0597 
L 1221.90313 713.721885 
L 1225.509433 711.607005 
L 1229.128256 709.737924 
L 1232.752752 708.136395 
L 1236.374936 706.82271 
L 1239.985765 705.815353 
L 1243.575211 705.130662 
L 1245.950939 704.86042 
L 1248.308891 704.743249 
L 1250.645487 704.782006 
L 1252.957016 704.978941 
L 1255.239651 705.335662 
L 1257.489462 705.853117 
L 1259.702431 706.531573 
L 1261.874471 707.370605 
L 1264.001433 708.369091 
L 1266.079131 709.525205 
L 1268.103351 710.836425 
L 1270.069871 712.299543 
L 1271.974475 713.910682 
L 1273.81297 715.665315 
L 1276.437696 718.554897 
L 1278.890606 721.735816 
L 1281.158388 725.185595 
L 1283.228301 728.879442 
L 1285.088324 732.790648 
L 1286.727307 736.89102 
L 1288.135118 741.151347 
L 1289.302799 745.541885 
L 1290.222716 750.032844 
L 1290.888698 754.594884 
L 1291.296173 759.199592 
L 1291.44229 763.819942 
L 1291.326019 768.430722 
L 1290.94823 773.00893 
L 1290.311753 777.534116 
L 1289.421398 781.988677 
L 1288.283953 786.35809 
L 1286.908146 790.631086 
L 1285.304571 794.799757 
L 1283.485583 798.859598 
L 1281.465162 802.809479 
L 1279.25874 806.651557 
L 1276.883016 810.391118 
L 1274.355733 814.036371 
L 1270.782431 818.769123 
L 1267.018224 823.38586 
L 1262.114962 829.051862 
L 1244.929069 848.546392 
L 1241.001535 853.429345 
L 1237.192301 858.501398 
L 1233.531646 863.788047 
L 1230.047409 869.306424 
L 1227.565664 873.602356 
L 1225.208226 878.032891 
L 1222.985315 882.594452 
L 1220.907084 887.280214 
L 1218.983764 892.080164 
L 1217.225791 896.981211 
L 1215.643914 901.967372 
L 1214.249249 907.020013 
L 1213.053304 912.118157 
L 1212.06796 917.23883 
L 1211.305392 922.357475 
L 1210.777955 927.448394 
L 1210.498019 932.485223 
L 1210.477754 937.441441 
L 1210.728893 942.290885 
L 1211.26245 947.008271 
L 1212.088423 951.569718 
L 1212.805874 954.513099 
L 1213.659355 957.371408 
L 1214.650679 960.139224 
L 1215.781259 962.81171 
L 1217.052064 965.38466 
L 1218.463589 967.854543 
L 1220.015825 970.218544 
L 1221.708226 972.474594 
L 1223.539693 974.621398 
L 1225.508549 976.658451 
L 1227.612529 978.586057 
L 1229.84877 980.405324 
L 1232.21381 982.118168 
L 1234.703589 983.7273 
L 1238.661813 985.954372 
L 1242.872003 987.971017 
L 1247.313305 989.795673 
L 1251.962322 991.449971 
L 1256.793369 992.958329 
L 1263.469864 994.788944 
L 1272.094159 996.883625 
L 1293.22212 1001.83237 
L 1300.13461 1003.700032 
L 1306.859771 1005.779674 
L 1311.73945 1007.508993 
L 1316.448174 1009.40338 
L 1320.960595 1011.476865 
L 1325.253243 1013.739868 
L 1329.304647 1016.199121 
L 1333.095423 1018.857667 
L 1336.608345 1021.71496 
L 1338.788416 1023.728414 
L 1340.834364 1025.826541 
L 1342.742728 1028.006791 
L 1344.510488 1030.26608 
L 1346.135066 1032.60084 
L 1347.614334 1035.007075 
L 1348.946603 1037.48042 
L 1350.130637 1040.016207 
L 1351.165642 1042.609522 
L 1352.051276 1045.255277 
L 1352.787647 1047.948269 
L 1353.375317 1050.683249 
L 1353.815304 1053.454979 
L 1354.201736 1057.670221 
L 1354.266251 1061.939739 
L 1354.018149 1066.247749 
L 1353.469107 1070.579837 
L 1352.633184 1074.923227 
L 1351.52681 1079.266974 
L 1350.168758 1083.602084 
L 1348.580085 1087.921547 
L 1346.784047 1092.220297 
L 1344.110829 1097.914387 
L 1341.179496 1103.562825 
L 1337.260164 1110.560685 
L 1323.038568 1135.289505 
L 1320.336918 1140.696726 
L 1318.521408 1144.724782 
L 1316.917331 1148.723211 
L 1315.54997 1152.684596 
L 1314.442013 1156.599869 
L 1313.613279 1160.458461 
L 1313.080491 1164.24852 
L 1312.857093 1167.957197 
L 1312.953125 1171.570995 
L 1313.197992 1173.920684 
L 1313.588897 1176.218027 
L 1314.126237 1178.459054 
L 1314.809727 1180.639937 
L 1315.638424 1182.757049 
L 1316.610736 1184.807015 
L 1317.724451 1186.786769 
L 1318.976763 1188.693592 
L 1320.364301 1190.525167 
L 1321.883165 1192.279606 
L 1324.397968 1194.763659 
L 1327.181594 1197.068361 
L 1330.215419 1199.19359 
L 1333.479224 1201.14184 
L 1336.951561 1202.918162 
L 1340.610132 1204.530006 
L 1344.432165 1205.986989 
L 1348.394787 1207.300572 
L 1353.85799 1208.85145 
L 1359.479277 1210.203775 
L 1366.654802 1211.667548 
L 1375.374034 1213.177066 
L 1386.995285 1214.924791 
L 1404.081648 1217.241531 
L 1416.549502 1218.753339 
L 1426.111292 1219.697632 
L 1434.291084 1220.266469 
L 1441.148545 1220.530027 
L 1448.082972 1220.582201 
L 1455.123735 1220.421224 
L 1463.735987 1219.973422 
L 1474.002407 1219.193962 
L 1493.385172 1217.658049 
L 1500.749699 1217.310098 
L 1506.506143 1217.23215 
L 1512.080367 1217.383997 
L 1516.105063 1217.674797 
L 1519.967215 1218.135209 
L 1523.64109 1218.779055 
L 1527.101758 1219.617756 
L 1530.325628 1220.660197 
L 1533.290975 1221.912685 
L 1535.978419 1223.378966 
L 1537.607334 1224.475997 
L 1539.10114 1225.668479 
L 1540.456348 1226.955797 
L 1541.670166 1228.336938 
L 1542.740526 1229.810533 
L 1543.6661 1231.37489 
L 1544.446311 1233.028031 
L 1545.081334 1234.767735 
L 1545.572084 1236.591573 
L 1545.920205 1238.496948 
L 1546.180267 1241.501891 
L 1546.135525 1244.674519 
L 1545.799711 1248.004934 
L 1545.1892 1251.483119 
L 1544.322547 1255.099058 
L 1543.219966 1258.842802 
L 1541.4198 1264.016208 
L 1539.289944 1269.375903 
L 1536.2416 1276.301275 
L 1532.850631 1283.431875 
L 1528.440644 1292.183594 
L 1522.954008 1302.525715 
L 1518.026486 1311.355632 
L 1513.775439 1318.573128 
L 1509.38213 1325.555722 
L 1505.749177 1330.899669 
L 1501.993445 1335.965642 
L 1499.085154 1339.547603 
L 1496.089842 1342.916307 
L 1493.000177 1346.048654 
L 1489.809595 1348.923029 
L 1486.512609 1351.519804 
L 1483.105076 1353.821824 
L 1479.584399 1355.814877 
L 1477.1739 1356.966422 
L 1474.712832 1357.973441 
L 1472.201707 1358.834406 
L 1469.641382 1359.548605 
L 1467.033053 1360.116166 
L 1464.378236 1360.538082 
L 1460.312917 1360.9022 
L 1456.15449 1360.953048 
L 1451.911492 1360.705058 
L 1447.593439 1360.176939 
L 1443.210564 1359.391454 
L 1438.773539 1358.375106 
L 1434.293192 1357.157738 
L 1428.270476 1355.278784 
L 1420.69723 1352.637808 
L 1398.042887 1344.444374 
L 1392.08017 1342.605164 
L 1387.637056 1341.415075 
L 1383.218506 1340.417108 
L 1378.823014 1339.634015 
L 1374.448 1339.084362 
L 1370.089954 1338.782245 
L 1365.744608 1338.737091 
L 1361.407128 1338.95354 
L 1357.072318 1339.43141 
L 1352.734849 1340.165752 
L 1348.389481 1341.146978 
L 1344.031308 1342.361063 
L 1339.655995 1343.789824 
L 1333.78963 1345.990235 
L 1327.881248 1348.471312 
L 1320.435278 1351.859393 
L 1296.348624 1363.081116 
L 1290.367715 1365.542162 
L 1284.464516 1367.705469 
L 1280.112143 1369.089587 
L 1275.844553 1370.239021 
L 1271.681289 1371.129412 
L 1267.642559 1371.739424 
L 1263.748861 1372.05094 
L 1260.020567 1372.049206 
L 1258.818007 1371.976963 
L 1258.818007 1371.976963 
" clip-path="url(#pcaedbf8713)" style="fill: none; stroke: #4169e1; stroke-width: 3; stroke-linecap: square"/>
   </g>
   <g id="line2d_2">
    <path d="M 1216.434931 1483.788632 
L 1214.767042 1483.337537 
L 1213.166972 1482.681892 
L 1211.638398 1481.820164 
L 1210.184717 1480.751747 
L 1208.809014 1479.476948 
L 1207.514016 1477.996958 
L 1206.302059 1476.313825 
L 1205.175049 1474.430423 
L 1204.134438 1472.35041 
L 1203.181187 1470.078193 
L 1201.915963 1466.32083 
L 1200.847487 1462.162577 
L 1199.972276 1457.626286 
L 1199.284032 1452.737323 
L 1198.773652 1447.523154 
L 1198.429304 1442.012925 
L 1198.20314 1434.258113 
L 1198.205393 1426.105452 
L 1198.456643 1415.470115 
L 1199.083009 1400.012438 
L 1199.898877 1379.725235 
L 1200.131138 1368.50487 
L 1200.108999 1359.653913 
L 1199.847783 1350.971415 
L 1199.46839 1344.599063 
L 1198.91384 1338.367129 
L 1198.170655 1332.293013 
L 1197.227947 1326.393002 
L 1196.077532 1320.682397 
L 1194.714002 1315.175662 
L 1193.134747 1309.886564 
L 1191.339942 1304.82832 
L 1189.332479 1300.013723 
L 1187.117872 1295.455258 
L 1184.704116 1291.165197 
L 1182.101511 1287.155663 
L 1179.322455 1283.438664 
L 1176.381206 1280.026091 
L 1173.293615 1276.929687 
L 1170.076844 1274.160964 
L 1167.8695 1272.502729 
L 1165.618364 1270.998304 
L 1163.329091 1269.650764 
L 1161.007384 1268.463039 
L 1158.658947 1267.437885 
L 1156.289449 1266.577845 
L 1153.904472 1265.885224 
L 1151.509474 1265.362046 
L 1149.109744 1265.010016 
L 1146.710365 1264.830485 
L 1144.316178 1264.824406 
L 1141.931741 1264.992293 
L 1139.561302 1265.334182 
L 1137.208765 1265.849591 
L 1134.877666 1266.53748 
L 1132.571154 1267.396213 
L 1130.291963 1268.423526 
L 1128.042409 1269.616494 
L 1125.824372 1270.971501 
L 1122.559447 1273.298171 
L 1119.371602 1275.961813 
L 1116.261692 1278.940926 
L 1113.228498 1282.21019 
L 1110.268887 1285.740516 
L 1107.378012 1289.499171 
L 1103.619362 1294.80291 
L 1099.953547 1300.353593 
L 1094.584235 1308.916188 
L 1086.684443 1321.548921 
L 1083.187403 1326.787882 
L 1079.681849 1331.63667 
L 1077.043866 1334.953453 
L 1074.398399 1337.949755 
L 1071.747816 1340.58735 
L 1069.096651 1342.831807 
L 1067.332093 1344.094612 
L 1065.572685 1345.161373 
L 1063.821298 1346.02524 
L 1062.08116 1346.680356 
L 1060.35583 1347.121881 
L 1058.649163 1347.346006 
L 1056.965268 1347.349964 
L 1055.308468 1347.132024 
L 1053.683255 1346.691481 
L 1052.094243 1346.028638 
L 1050.546117 1345.144776 
L 1049.043583 1344.042119 
L 1047.591319 1342.723789 
L 1046.193922 1341.193758 
L 1044.855861 1339.456788 
L 1043.581427 1337.518374 
L 1042.374687 1335.384669 
L 1041.239446 1333.062422 
L 1039.678198 1329.241543 
L 1038.295935 1325.039179 
L 1037.101022 1320.483256 
L 1036.099686 1315.602738 
L 1035.295882 1310.427045 
L 1034.691227 1304.98549 
L 1034.284983 1299.306756 
L 1034.074093 1293.418417 
L 1034.05327 1287.346523 
L 1034.215127 1281.115247 
L 1034.69875 1272.596671 
L 1035.463605 1263.879261 
L 1036.478401 1255.00083 
L 1037.708333 1245.99141 
L 1039.49131 1234.579406 
L 1041.890541 1220.703168 
L 1050.3145 1173.324077 
L 1052.162347 1161.277005 
L 1053.783767 1149.200595 
L 1054.882367 1139.550184 
L 1055.777799 1129.943312 
L 1056.447705 1120.418026 
L 1056.871907 1111.018077 
L 1057.032453 1101.79196 
L 1056.913708 1092.79159 
L 1056.633319 1086.221736 
L 1056.183699 1079.83176 
L 1055.56104 1073.643848 
L 1054.762389 1067.679186 
L 1053.785679 1061.957481 
L 1052.62974 1056.496502 
L 1051.294309 1051.311658 
L 1049.780033 1046.415633 
L 1048.088459 1041.818083 
L 1046.222017 1037.525411 
L 1044.183992 1033.540628 
L 1041.978495 1029.863306 
L 1039.610417 1026.48963 
L 1037.085391 1023.412547 
L 1034.409736 1020.622005 
L 1031.590419 1018.105294 
L 1028.635002 1015.847462 
L 1025.551604 1013.8318 
L 1022.348863 1012.0404 
L 1019.035903 1010.45474 
L 1015.622314 1009.056307 
L 1012.118134 1007.827225 
L 1007.323135 1006.423396 
L 1002.411754 1005.257176 
L 997.411321 1004.302392 
L 992.350455 1003.542551 
L 987.258987 1002.972047 
L 982.167823 1002.596741 
L 977.108719 1002.433863 
L 972.113944 1002.511252 
L 968.429539 1002.748953 
L 964.812997 1003.160889 
L 961.277476 1003.767195 
L 957.835637 1004.589114 
L 954.499445 1005.648323 
L 951.279966 1006.966236 
L 948.187153 1008.563307 
L 946.199972 1009.792484 
L 944.275145 1011.15917 
L 942.414535 1012.667865 
L 940.619655 1014.322464 
L 938.891645 1016.12619 
L 937.231254 1018.081532 
L 935.638826 1020.1902 
L 933.377324 1023.642387 
L 931.266378 1027.440688 
L 929.3017 1031.579956 
L 927.476805 1036.050507 
L 925.783077 1040.838171 
L 924.20987 1045.924458 
L 922.744675 1051.286808 
L 920.934391 1058.820113 
L 919.253381 1066.725788 
L 916.884785 1079.1062 
L 911.328486 1108.8746 
L 909.087648 1119.243467 
L 907.125911 1127.25192 
L 904.987434 1134.920668 
L 903.256668 1140.406298 
L 901.41129 1145.63368 
L 899.448272 1150.578425 
L 897.36658 1155.218952 
L 895.167049 1159.53659 
L 892.852229 1163.51565 
L 890.426185 1167.143473 
L 887.894272 1170.410456 
L 885.262886 1173.310058 
L 882.539202 1175.838791 
L 880.675921 1177.318218 
L 878.777385 1178.633137 
L 876.845964 1179.784719 
L 874.884016 1180.7747 
L 872.893853 1181.605369 
L 870.877722 1182.279547 
L 868.837774 1182.800572 
L 865.737616 1183.303464 
L 862.594731 1183.485388 
L 859.414662 1183.36339 
L 856.202129 1182.95642 
L 852.961011 1182.285033 
L 849.694366 1181.371061 
L 846.404489 1180.237245 
L 841.984574 1178.423713 
L 837.528579 1176.315813 
L 831.909759 1173.348195 
L 825.097971 1169.424542 
L 817.063325 1164.518393 
L 805.470135 1157.152766 
L 796.187084 1151.011252 
L 789.29765 1146.185093 
L 783.657041 1141.936222 
L 779.241728 1138.332358 
L 774.938643 1134.498292 
L 771.799774 1131.444127 
L 768.748331 1128.215796 
L 765.794688 1124.795367 
L 762.949024 1121.166443 
L 760.221221 1117.314665 
L 757.620778 1113.228171 
L 755.156739 1108.897999 
L 752.837642 1104.31841 
L 750.67148 1099.487142 
L 748.665681 1094.405582 
L 746.827094 1089.078852 
L 745.161998 1083.515822 
L 743.676106 1077.729036 
L 742.374582 1071.734569 
L 741.262055 1065.551825 
L 740.342629 1059.203267 
L 739.619895 1052.714113 
L 739.096926 1046.111989 
L 738.776264 1039.426555 
L 738.659904 1032.689124 
L 738.749257 1025.932264 
L 739.045104 1019.189412 
L 739.547546 1012.494494 
L 740.25594 1005.88156 
L 741.168836 999.384442 
L 742.283907 993.036435 
L 743.597889 986.870003 
L 745.106523 980.916508 
L 746.804511 975.205968 
L 748.685486 969.766831 
L 750.742003 964.625776 
L 752.965544 959.807518 
L 755.346559 955.334641 
L 757.874525 951.227428 
L 760.538032 947.503707 
L 762.383018 945.241903 
L 764.279073 943.161192 
L 766.222321 941.264844 
L 768.208806 939.555544 
L 770.234513 938.035378 
L 772.295397 936.705812 
L 774.387408 935.567676 
L 776.50652 934.621148 
L 778.648757 933.865743 
L 780.810221 933.300296 
L 782.987124 932.922954 
L 785.17581 932.73117 
L 787.372781 932.721692 
L 789.574727 932.890568 
L 791.778544 933.233143 
L 793.981356 933.744065 
L 796.180533 934.417297 
L 799.467385 935.716614 
L 802.733991 937.340484 
L 805.975004 939.260392 
L 809.186575 941.444939 
L 812.366346 943.860128 
L 816.555203 947.376236 
L 820.68764 951.146873 
L 826.793115 957.071975 
L 836.80209 966.860681 
L 840.782231 970.473449 
L 844.767203 973.78418 
L 847.765502 976.023075 
L 850.776088 978.020642 
L 853.801665 979.751476 
L 856.843888 981.193532 
L 859.903244 982.328223 
L 862.978966 983.14043 
L 865.037575 983.496825 
L 867.10163 983.701969 
L 869.169935 983.753831 
L 871.241039 983.650976 
L 873.313245 983.392523 
L 875.384618 982.978112 
L 877.453 982.407862 
L 879.516021 981.682322 
L 882.594856 980.304977 
L 885.646482 978.584934 
L 888.660843 976.528062 
L 891.627348 974.141216 
L 894.53507 971.431911 
L 897.372942 968.408015 
L 900.129962 965.077494 
L 902.795402 961.448207 
L 905.359009 957.527758 
L 907.811202 953.323404 
L 910.143262 948.842033 
L 912.347508 944.090201 
L 914.417458 939.074228 
L 916.347977 933.80035 
L 918.135407 928.274911 
L 919.777678 922.504605 
L 921.274392 916.496732 
L 922.626894 910.259475 
L 923.838314 903.802177 
L 925.242865 894.869014 
L 926.422229 885.594257 
L 927.398573 876.01426 
L 928.199278 866.172043 
L 929.002565 853.577226 
L 929.889371 835.604534 
L 931.366229 804.840783 
L 932.201486 792.432275 
L 933.048672 782.825908 
L 934.098572 773.580807 
L 935.041131 766.923319 
L 936.132099 760.530419 
L 937.38365 754.424206 
L 938.806206 748.623806 
L 940.408317 743.145116 
L 942.196571 738.000616 
L 944.175538 733.199253 
L 946.347757 728.746398 
L 947.903604 725.972488 
L 949.545278 723.354036 
L 951.272069 720.890065 
L 953.082899 718.578962 
L 954.976344 716.418511 
L 956.95065 714.405925 
L 959.003753 712.537888 
L 961.133301 710.810599 
L 963.336683 709.219811 
L 966.773897 707.079322 
L 970.360292 705.218366 
L 974.084533 703.618485 
L 977.934638 702.260205 
L 981.898193 701.12339 
L 985.962552 700.187576 
L 990.115029 699.432275 
L 995.767088 698.671081 
L 1001.524662 698.148272 
L 1008.828474 697.76265 
L 1016.205314 697.599762 
L 1026.573387 697.607606 
L 1054.276887 697.769638 
L 1062.736115 697.526527 
L 1069.639553 697.110347 
L 1076.394832 696.450834 
L 1081.683381 695.717617 
L 1086.862139 694.777187 
L 1091.925089 693.607845 
L 1096.866691 692.189075 
L 1100.490277 690.949835 
L 1104.041052 689.552298 
L 1107.517556 687.989885 
L 1110.918696 686.256825 
L 1114.243807 684.348241 
L 1117.492704 682.260225 
L 1120.665728 679.98992 
L 1123.763787 677.535579 
L 1126.788389 674.896633 
L 1129.741659 672.073741 
L 1132.626343 669.068842 
L 1136.3718 664.78503 
L 1140.010964 660.195172 
L 1143.555116 655.315358 
L 1147.01698 650.166409 
L 1151.249751 643.391506 
L 1155.404137 636.29853 
L 1161.143521 625.979699 
L 1174.279648 602.058514 
L 1178.465212 594.964801 
L 1181.853682 589.588937 
L 1185.27808 584.563035 
L 1188.735599 579.96593 
L 1191.347112 576.846655 
L 1193.970559 574.04488 
L 1196.601539 571.591622 
L 1199.234795 569.516205 
L 1200.988601 568.35602 
L 1202.738755 567.383299 
L 1204.483132 566.604872 
L 1206.219473 566.026922 
L 1207.945397 565.654936 
L 1209.658408 565.493649 
L 1211.355903 565.546999 
L 1213.035188 565.818079 
L 1214.693482 566.309104 
L 1216.32793 567.021378 
L 1217.935613 567.95527 
L 1219.513561 569.110195 
L 1221.058762 570.484607 
L 1222.568173 572.075993 
L 1224.038733 573.880882 
L 1225.467374 575.894859 
L 1227.525045 579.295941 
L 1229.471262 583.133511 
L 1231.295958 587.381624 
L 1232.989343 592.010514 
L 1234.542012 596.987061 
L 1235.945047 602.275313 
L 1237.190123 607.837075 
L 1238.26962 613.632533 
L 1239.176736 619.620913 
L 1239.905592 625.761156 
L 1240.451337 632.012594 
L 1240.810254 638.335619 
L 1240.979846 644.692326 
L 1240.958916 651.047116 
L 1240.747631 657.367256 
L 1240.347569 663.623379 
L 1239.761743 669.789906 
L 1238.994609 675.845403 
L 1238.052042 681.772844 
L 1236.941294 687.559791 
L 1235.670924 693.198481 
L 1234.250706 698.68582 
L 1232.691516 704.023287 
L 1230.417004 710.917522 
L 1227.946818 717.581396 
L 1225.313073 724.051596 
L 1221.841582 731.938375 
L 1216.764156 742.799084 
L 1209.385002 758.54119 
L 1205.767095 766.76885 
L 1202.953909 773.615319 
L 1200.237908 780.740973 
L 1197.640157 788.175338 
L 1195.180138 795.935728 
L 1192.876184 804.026155 
L 1190.745969 812.436698 
L 1188.807006 821.143363 
L 1187.077086 830.108441 
L 1185.574628 839.281382 
L 1184.31889 848.600138 
L 1183.330013 857.992974 
L 1182.628871 867.380666 
L 1182.304638 874.367534 
L 1182.163181 881.26777 
L 1182.213257 888.044949 
L 1182.463238 894.663383 
L 1182.920905 901.088834 
L 1183.593227 907.289223 
L 1184.486133 913.235308 
L 1185.604288 918.901315 
L 1186.950876 924.265518 
L 1188.527398 929.310742 
L 1190.333496 934.024784 
L 1191.664024 936.97985 
L 1193.094363 939.783847 
L 1194.622867 942.437188 
L 1196.247457 944.941402 
L 1197.965617 947.299125 
L 1199.774397 949.514089 
L 1201.670419 951.591093 
L 1204.669619 954.46096 
L 1207.841981 957.05758 
L 1211.171104 959.409322 
L 1214.638861 961.548588 
L 1218.225606 963.511194 
L 1223.156707 965.920117 
L 1229.485667 968.733599 
L 1239.74143 973.234832 
L 1244.811766 975.68938 
L 1248.545053 977.691864 
L 1252.194586 979.869095 
L 1255.739586 982.249496 
L 1259.160391 984.857111 
L 1262.438585 987.711255 
L 1265.557117 990.82627 
L 1268.50039 994.211422 
L 1271.254323 997.8709 
L 1273.806398 1001.803952 
L 1276.145698 1006.005128 
L 1278.262919 1010.464632 
L 1280.150385 1015.168774 
L 1281.802054 1020.100495 
L 1283.213519 1025.239968 
L 1284.382016 1030.565234 
L 1285.306431 1036.052875 
L 1285.987306 1041.678687 
L 1286.426859 1047.418344 
L 1286.628995 1053.248024 
L 1286.599325 1059.14499 
L 1286.345179 1065.088096 
L 1285.875618 1071.058217 
L 1285.201431 1077.038584 
L 1284.335125 1083.015013 
L 1283.290897 1088.976033 
L 1281.649428 1096.885357 
L 1279.761833 1104.738512 
L 1277.674486 1112.52936 
L 1274.861394 1122.180538 
L 1269.549133 1139.337479 
L 1265.545272 1152.525583 
L 1262.940292 1161.866796 
L 1261.090094 1169.282379 
L 1259.501225 1176.630306 
L 1258.507861 1182.083136 
L 1257.70295 1187.472495 
L 1257.100889 1192.783832 
L 1256.713828 1198.000832 
L 1256.551534 1203.105812 
L 1256.621299 1208.080189 
L 1256.927892 1212.905022 
L 1257.473544 1217.561576 
L 1258.25798 1222.031922 
L 1259.278489 1226.299519 
L 1260.530033 1230.349771 
L 1262.005388 1234.170532 
L 1263.695323 1237.752545 
L 1265.588802 1241.089784 
L 1267.673211 1244.17969 
L 1269.934605 1247.023297 
L 1272.357968 1249.625229 
L 1274.927481 1251.993566 
L 1277.626799 1254.139602 
L 1280.439325 1256.077473 
L 1283.348479 1257.823689 
L 1286.33796 1259.396588 
L 1290.421725 1261.258058 
L 1294.585142 1262.893772 
L 1299.853152 1264.691426 
L 1306.199186 1266.592596 
L 1314.59187 1268.863986 
L 1325.865593 1271.676866 
L 1332.878114 1273.232974 
L 1338.828705 1274.326315 
L 1343.779213 1275.003716 
L 1348.752968 1275.422311 
L 1352.767405 1275.550835 
L 1356.826538 1275.489753 
L 1361.976509 1275.15611 
L 1367.217962 1274.571718 
L 1374.697874 1273.4614 
L 1386.621606 1271.649841 
L 1391.990983 1271.10857 
L 1396.19938 1270.932226 
L 1399.278192 1270.993684 
L 1402.270294 1271.250395 
L 1405.156899 1271.726196 
L 1407.919148 1272.442161 
L 1410.538495 1273.416241 
L 1412.99711 1274.663008 
L 1414.538575 1275.651282 
L 1415.996532 1276.76813 
L 1417.366713 1278.015249 
L 1418.645227 1279.393657 
L 1419.828605 1280.903715 
L 1420.913829 1282.545163 
L 1421.898364 1284.317149 
L 1422.780181 1286.218285 
L 1423.907172 1289.307893 
L 1424.797001 1292.675556 
L 1425.449634 1296.311247 
L 1425.867759 1300.203499 
L 1426.056689 1304.339791 
L 1426.024185 1308.706901 
L 1425.780222 1313.291204 
L 1425.336697 1318.078911 
L 1424.458378 1324.755113 
L 1423.284487 1331.736006 
L 1421.852231 1338.989425 
L 1419.755731 1348.390139 
L 1416.8826 1360.074013 
L 1413.169167 1374.102954 
L 1409.183223 1388.338842 
L 1404.99353 1402.499176 
L 1401.251694 1414.319638 
L 1398.014214 1423.760318 
L 1395.331943 1430.934986 
L 1392.553948 1437.686807 
L 1390.399591 1442.425277 
L 1388.178416 1446.84881 
L 1385.885438 1450.926893 
L 1383.516389 1454.63152 
L 1381.067915 1457.937871 
L 1379.390302 1459.910302 
L 1377.67597 1461.691162 
L 1375.924785 1463.276259 
L 1374.136863 1464.662417 
L 1372.312575 1465.847533 
L 1370.452545 1466.830624 
L 1368.557639 1467.61187 
L 1366.628962 1468.192636 
L 1364.667838 1468.575494 
L 1362.675798 1468.764229 
L 1360.654556 1468.763835 
L 1358.605993 1468.580497 
L 1356.53213 1468.221567 
L 1354.435104 1467.695523 
L 1351.251023 1466.614307 
L 1348.027603 1465.215307 
L 1344.77271 1463.539606 
L 1341.494129 1461.632239 
L 1337.098754 1458.812483 
L 1330.487174 1454.237095 
L 1321.706249 1448.144701 
L 1317.351612 1445.374071 
L 1314.105697 1443.508045 
L 1310.877853 1441.869893 
L 1307.667855 1440.496195 
L 1304.474608 1439.41827 
L 1301.296238 1438.661675 
L 1299.184354 1438.345638 
L 1297.077063 1438.185341 
L 1294.973377 1438.183658 
L 1292.872237 1438.342154 
L 1290.772529 1438.66108 
L 1288.673112 1439.139385 
L 1286.572835 1439.774725 
L 1283.418326 1441.01395 
L 1280.255666 1442.580798 
L 1277.081547 1444.452098 
L 1273.893191 1446.599254 
L 1270.688521 1448.988758 
L 1266.388283 1452.48581 
L 1260.969604 1457.21526 
L 1246.74397 1469.878558 
L 1242.380543 1473.431682 
L 1238.06031 1476.627186 
L 1234.86486 1478.727256 
L 1231.721932 1480.528777 
L 1228.645261 1481.995638 
L 1225.649233 1483.09566 
L 1223.703975 1483.611238 
L 1221.805548 1483.944109 
L 1219.958352 1484.08802 
L 1218.166733 1484.037652 
L 1217.293095 1483.93821 
L 1217.293095 1483.93821 
" clip-path="url(#pcaedbf8713)" style="fill: none; stroke: #ff8c00; stroke-width: 3; stroke-linecap: square"/>
   </g>
  </g>
 </g>
 <defs>
  <clipPath id="pcaedbf8713">
   <rect x="270" y="259.2" width="1674" height="1630.8"/>
  </clipPath>
 </defs>
</svg>
