<?xml version="1.0" encoding="utf-8" standalone="no"?>
<!DOCTYPE svg PUBLIC "-//W3C//DTD SVG 1.1//EN"
  "http://www.w3.org/Graphics/SVG/1.1/DTD/svg11.dtd">
<svg xmlns:xlink="http://www.w3.org/1999/xlink" width="2160pt" height="2160pt" viewBox="0 0 2160 2160" xmlns="http://www.w3.org/2000/svg" version="1.1">
 <metadata>
  <rdf:RDF xmlns:dc="http://purl.org/dc/elements/1.1/" xmlns:cc="http://creativecommons.org/ns#" xmlns:rdf="http://www.w3.org/1999/02/22-rdf-syntax-ns#">
   <cc:Work>
    <dc:type rdf:resource="http://purl.org/dc/dcmitype/StillImage"/>
    <dc:date>2022-03-09T01:03:28.648208</dc:date>
    <dc:format>image/svg+xml</dc:format>
    <dc:creator>
     <cc:Agent>
      <dc:title>Matplotlib v3.5.1, https://matplotlib.org/</dc:title>
     </cc:Agent>
    </dc:creator>
   </cc:Work>
  </rdf:RDF>
 </metadata>
 <defs>
  <style type="text/css">*{stroke-linejoin: round; stroke-linecap: butt}</style>
 </defs>
 <g id="figure_1">
  <g id="patch_1">
   <path d="M 0 2160 
L 2160 2160 
L 2160 0 
L 0 0 
L 0 2160 
z
" style="fill: none"/>
  </g>
  <g id="axes_1">
   <g id="line2d_1">
    <path d="M 1257.636748 1371.868297 
L 1255.340905 1371.540585 
L 1253.138416 1371.06427 
L 1251.034339 1370.43824 
L 1249.033353 1369.662054 
L 1247.139704 1368.735935 
L 1245.357144 1367.660749 
L 1243.68889 1366.437982 
L 1242.137566 1365.069724 
L 1240.705168 1363.558632 
L 1239.393022 1361.907906 
L 1238.201754 1360.121256 
L 1237.131261 1358.202864 
L 1236.180693 1356.157351 
L 1235.348441 1353.98974 
L 1234.316492 1350.521251 
L 1233.533973 1346.809702 
L 1232.985834 1342.875897 
L 1232.653373 1338.741655 
L 1232.514466 1334.429522 
L 1232.586292 1328.443058 
L 1232.889706 1322.236104 
L 1233.615312 1312.630981 
L 1234.774959 1297.907102 
L 1235.107597 1291.365851 
L 1235.216435 1284.888656 
L 1235.107636 1280.096815 
L 1234.804605 1275.378941 
L 1234.282372 1270.74954 
L 1233.519036 1266.22215 
L 1232.496045 1261.809412 
L 1231.198411 1257.523158 
L 1229.614869 1253.374505 
L 1227.737975 1249.373959 
L 1226.321808 1246.794168 
L 1224.77347 1244.287516 
L 1223.093595 1241.856799 
L 1221.283547 1239.504755 
L 1219.345404 1237.23408 
L 1217.281933 1235.047435 
L 1213.959407 1231.930782 
L 1210.376932 1229.017927 
L 1206.551573 1226.317592 
L 1202.502954 1223.838419 
L 1198.252898 1221.588936 
L 1193.825025 1219.577507 
L 1189.244337 1217.812251 
L 1184.536771 1216.300927 
L 1179.728752 1215.050805 
L 1174.846731 1214.068506 
L 1169.91673 1213.359819 
L 1164.963895 1212.929506 
L 1160.012071 1212.781089 
L 1155.083403 1212.91663 
L 1150.197977 1213.336505 
L 1145.373497 1214.039181 
L 1140.625029 1215.021011 
L 1135.964793 1216.27603 
L 1131.402027 1217.795797 
L 1126.942924 1219.569247 
L 1122.590641 1221.582603 
L 1118.345383 1223.81932 
L 1114.204568 1226.260082 
L 1110.163062 1228.882863 
L 1106.213481 1231.663031 
L 1101.074144 1235.567635 
L 1094.816851 1240.666389 
L 1075.42612 1256.882001 
L 1070.604637 1260.482807 
L 1066.977112 1262.963406 
L 1063.338855 1265.220985 
L 1059.692139 1267.226939 
L 1056.042211 1268.955295 
L 1052.397283 1270.383065 
L 1048.76843 1271.490548 
L 1045.169395 1272.261562 
L 1042.794486 1272.582322 
L 1040.445265 1272.745145 
L 1038.12739 1272.748021 
L 1035.846811 1272.589691 
L 1033.609712 1272.269644 
L 1031.422443 1271.788101 
L 1029.291454 1271.145991 
L 1027.223222 1270.34493 
L 1025.224187 1269.387186 
L 1023.300675 1268.275645 
L 1021.458839 1267.013768 
L 1019.704586 1265.605544 
L 1018.043514 1264.055446 
L 1016.480858 1262.368374 
L 1015.021432 1260.549606 
L 1013.669579 1258.604738 
L 1012.429127 1256.53963 
L 1011.303352 1254.36035 
L 1010.294948 1252.073111 
L 1009.006799 1248.453642 
L 1007.991656 1244.626861 
L 1007.250661 1240.61395 
L 1006.781725 1236.435515 
L 1006.579599 1232.111251 
L 1006.636022 1227.659654 
L 1006.939911 1223.097782 
L 1007.477616 1218.441077 
L 1008.233201 1213.703235 
L 1009.18876 1208.89615 
L 1010.739925 1202.396163 
L 1012.561898 1195.809896 
L 1015.139992 1187.476743 
L 1018.535188 1177.352894 
L 1027.329707 1151.551684 
L 1030.022524 1142.824844 
L 1031.989917 1135.815395 
L 1033.748066 1128.796012 
L 1035.260285 1121.785159 
L 1036.492843 1114.805937 
L 1037.21511 1109.608743 
L 1037.750817 1104.458024 
L 1038.089047 1099.368157 
L 1038.21987 1094.354478 
L 1038.134376 1089.433022 
L 1037.824705 1084.620237 
L 1037.284094 1079.932656 
L 1036.506912 1075.386562 
L 1035.4887 1070.997628 
L 1034.226202 1066.780566 
L 1032.717395 1062.748789 
L 1030.961499 1058.914096 
L 1028.958988 1055.286388 
L 1026.711581 1051.873434 
L 1024.22222 1048.680688 
L 1021.495041 1045.711166 
L 1018.535328 1042.96539 
L 1015.349464 1040.441399 
L 1011.944867 1038.134838 
L 1008.329929 1036.039105 
L 1004.51395 1034.145582 
L 1000.507072 1032.44391 
L 996.320222 1030.922334 
L 991.965057 1029.568089 
L 987.453916 1028.367816 
L 981.218978 1026.983667 
L 974.762421 1025.818343 
L 968.118647 1024.843764 
L 959.606057 1023.858575 
L 950.932502 1023.10311 
L 942.17697 1022.56356 
L 933.422181 1022.246192 
L 924.753667 1022.177331 
L 917.939364 1022.330551 
L 911.280154 1022.700751 
L 904.819134 1023.322077 
L 900.128156 1023.974898 
L 895.58783 1024.805339 
L 891.212909 1025.828778 
L 887.016522 1027.059732 
L 883.009883 1028.51136 
L 879.202018 1030.195011 
L 875.599516 1032.119812 
L 872.206309 1034.292311 
L 869.023494 1036.716184 
L 866.049211 1039.39202 
L 863.27857 1042.317175 
L 860.703649 1045.485712 
L 858.313549 1048.888413 
L 856.094529 1052.512875 
L 854.030195 1056.34367 
L 852.101766 1060.362571 
L 849.705645 1065.977539 
L 847.459944 1071.834723 
L 844.247142 1080.941351 
L 838.818722 1096.430226 
L 836.45963 1102.541154 
L 833.920492 1108.507305 
L 831.87411 1112.850688 
L 829.690702 1117.055146 
L 827.359486 1121.09862 
L 824.872519 1124.960825 
L 822.224701 1128.623383 
L 819.413707 1132.069926 
L 816.439851 1135.286179 
L 813.305883 1138.260017 
L 810.016738 1140.981507 
L 806.579232 1143.442931 
L 803.001729 1145.638797 
L 799.293789 1147.565832 
L 795.465803 1149.222967 
L 791.528634 1150.611297 
L 787.493269 1151.73404 
L 783.370499 1152.596463 
L 779.170641 1153.2058 
L 774.903286 1153.571143 
L 770.577117 1153.703307 
L 766.199765 1153.614678 
L 761.777726 1153.319021 
L 757.31634 1152.83127 
L 751.313741 1151.909637 
L 745.255683 1150.714062 
L 739.14656 1149.284672 
L 731.441919 1147.229351 
L 722.099675 1144.4644 
L 709.490365 1140.444704 
L 691.945338 1134.573123 
L 677.577834 1129.538765 
L 668.118897 1126.001932 
L 660.387627 1122.877912 
L 654.345448 1120.221061 
L 648.466162 1117.38867 
L 642.783762 1114.347584 
L 638.671638 1111.910608 
L 634.703514 1109.325988 
L 630.893145 1106.582759 
L 627.253792 1103.671665 
L 623.798124 1100.585465 
L 620.538132 1097.319184 
L 617.485073 1093.870321 
L 614.649431 1090.238989 
L 612.040902 1086.428003 
L 609.668389 1082.4429 
L 607.540014 1078.291914 
L 605.663134 1073.985882 
L 604.044363 1069.538113 
L 602.689592 1064.96421 
L 601.603998 1060.281852 
L 600.792049 1055.510556 
L 600.257491 1050.671407 
L 600.003325 1045.786784 
L 600.031767 1040.880077 
L 600.34419 1035.975395 
L 600.941053 1031.097299 
L 601.821823 1026.270522 
L 602.984883 1021.519724 
L 604.427443 1016.869246 
L 606.14545 1012.342897 
L 608.133504 1007.963748 
L 610.384797 1003.753952 
L 612.891057 999.734572 
L 615.642531 995.925435 
L 618.627981 992.344985 
L 621.834731 989.010159 
L 625.248728 985.936263 
L 627.632349 984.03873 
L 630.096476 982.266793 
L 632.636092 980.623632 
L 635.246003 979.112033 
L 637.920877 977.734369 
L 642.043053 975.923154 
L 646.280442 974.422314 
L 650.614243 973.23427 
L 655.025816 972.359054 
L 659.496976 971.794222 
L 664.010279 971.534806 
L 668.549305 971.573267 
L 673.098917 971.899481 
L 677.645495 972.500756 
L 682.177137 973.361878 
L 686.683815 974.465189 
L 691.157491 975.790715 
L 695.592176 977.316321 
L 699.983945 979.017911 
L 705.769864 981.515616 
L 711.477059 984.21506 
L 719.904987 988.492506 
L 736.443566 997.002776 
L 741.922389 999.57803 
L 747.411716 1001.919508 
L 751.544005 1003.489782 
L 755.694596 1004.878319 
L 759.866753 1006.067465 
L 764.06223 1007.042037 
L 768.281135 1007.789373 
L 772.521823 1008.299324 
L 776.780846 1008.56419 
L 781.052949 1008.578604 
L 785.331109 1008.339382 
L 789.606617 1007.845316 
L 793.869206 1007.096951 
L 798.107209 1006.096335 
L 802.307761 1004.846754 
L 806.457016 1003.352473 
L 810.540399 1001.618472 
L 814.542867 999.65021 
L 818.449186 997.453403 
L 822.244213 995.033838 
L 825.913181 992.397226 
L 829.441975 989.549089 
L 832.81741 986.4947 
L 836.027482 983.239063 
L 839.061617 979.786941 
L 841.910895 976.142926 
L 844.568246 972.311547 
L 847.028637 968.297413 
L 849.289216 964.105388 
L 851.349437 959.740775 
L 853.211151 955.209518 
L 854.878665 950.518405 
L 856.358771 945.675262 
L 857.660733 940.689127 
L 858.796244 935.570403 
L 860.075933 928.559954 
L 861.124335 921.367605 
L 862.179885 912.178984 
L 863.207922 900.974025 
L 865.042757 880.458041 
L 865.895017 873.182147 
L 866.942082 866.091023 
L 867.889768 860.925664 
L 869.00187 855.914885 
L 870.299299 851.078338 
L 871.801013 846.434009 
L 873.523768 841.997953 
L 875.48191 837.784065 
L 876.924031 835.104037 
L 878.47888 832.530748 
L 880.148733 830.066506 
L 881.935319 827.71311 
L 883.839809 825.471845 
L 885.862825 823.343481 
L 888.004442 821.328284 
L 890.264201 819.426025 
L 892.64112 817.635994 
L 895.133721 815.957019 
L 897.740041 814.387489 
L 901.857344 812.233871 
L 906.215068 810.31344 
L 910.801384 808.616065 
L 915.602811 807.130163 
L 920.604502 805.842965 
L 925.790522 804.740787 
L 931.144151 803.809293 
L 936.648163 803.033748 
L 944.190607 802.216536 
L 951.928189 801.615009 
L 961.813615 801.114484 
L 971.867284 800.834336 
L 984.058937 800.706968 
L 1002.39851 800.756758 
L 1032.46304 800.852902 
L 1046.070938 800.662797 
L 1057.450138 800.279828 
L 1066.705718 799.761384 
L 1075.735466 799.026872 
L 1082.7853 798.26244 
L 1089.671817 797.32413 
L 1096.387798 796.197568 
L 1102.92702 794.869661 
L 1109.284549 793.32888 
L 1115.457062 791.565548 
L 1121.443166 789.572099 
L 1127.243689 787.343311 
L 1132.861927 784.876519 
L 1138.303803 782.171798 
L 1143.577943 779.232122 
L 1148.695638 776.063511 
L 1153.670696 772.675171 
L 1158.51918 769.079637 
L 1163.259032 765.292917 
L 1169.060659 760.32096 
L 1174.76237 755.128056 
L 1182.652218 747.596449 
L 1198.466455 732.365312 
L 1204.213318 727.162959 
L 1208.865045 723.20281 
L 1213.566554 719.482663 
L 1218.315003 716.0597 
L 1221.90313 713.721885 
L 1225.509433 711.607005 
L 1229.128256 709.737924 
L 1232.752752 708.136395 
L 1236.374936 706.82271 
L 1239.985765 705.815353 
L 1243.575211 705.130662 
L 1245.950939 704.86042 
L 1248.308891 704.743249 
L 1250.645487 704.782006 
L 1252.957016 704.978941 
L 1255.239651 705.335662 
L 1257.489462 705.853117 
L 1259.702431 706.531573 
L 1261.874471 707.370605 
L 1264.001433 708.369091 
L 1266.079131 709.525205 
L 1268.103351 710.836425 
L 1270.069871 712.299543 
L 1271.974475 713.910682 
L 1273.81297 715.665315 
L 1276.437696 718.554897 
L 1278.890606 721.735816 
L 1281.158388 725.185595 
L 1283.228301 728.879442 
L 1285.088324 732.790648 
L 1286.727307 736.89102 
L 1288.135118 741.151347 
L 1289.302799 745.541885 
L 1290.222716 750.032844 
L 1290.888698 754.594884 
L 1291.296173 759.199592 
L 1291.44229 763.819942 
L 1291.326019 768.430722 
L 1290.94823 773.00893 
L 1290.311753 777.534116 
L 1289.421398 781.988677 
L 1288.283953 786.35809 
L 1286.908146 790.631086 
L 1285.304571 794.799757 
L 1283.485583 798.859598 
L 1281.465162 802.809479 
L 1279.25874 806.651557 
L 1276.883016 810.391118 
L 1274.355733 814.036371 
L 1270.782431 818.769123 
L 1267.018224 823.38586 
L 1262.114962 829.051862 
L 1244.929069 848.546392 
L 1241.001535 853.429345 
L 1237.192301 858.501398 
L 1233.531646 863.788047 
L 1230.047409 869.306424 
L 1227.565664 873.602356 
L 1225.208226 878.032891 
L 1222.985315 882.594452 
L 1220.907084 887.280214 
L 1218.983764 892.080164 
L 1217.225791 896.981211 
L 1215.643914 901.967372 
L 1214.249249 907.020013 
L 1213.053304 912.118157 
L 1212.06796 917.23883 
L 1211.305392 922.357475 
L 1210.777955 927.448394 
L 1210.498019 932.485223 
L 1210.477754 937.441441 
L 1210.728893 942.290885 
L 1211.26245 947.008271 
L 1212.088423 951.569718 
L 1212.805874 954.513099 
L 1213.659355 957.371408 
L 1214.650679 960.139224 
L 1215.781259 962.81171 
L 1217.052064 965.38466 
L 1218.463589 967.854543 
L 1220.015825 970.218544 
L 1221.708226 972.474594 
L 1223.539693 974.621398 
L 1225.508549 976.658451 
L 1227.612529 978.586057 
L 1229.84877 980.405324 
L 1232.21381 982.118168 
L 1234.703589 983.7273 
L 1238.661813 985.954372 
L 1242.872003 987.971017 
L 1247.313305 989.795673 
L 1251.962322 991.449971 
L 1256.793369 992.958329 
L 1263.469864 994.788944 
L 1272.094159 996.883625 
L 1293.22212 1001.83237 
L 1300.13461 1003.700032 
L 1306.859771 1005.779674 
L 1311.73945 1007.508993 
L 1316.448174 1009.40338 
L 1320.960595 1011.476865 
L 1325.253243 1013.739868 
L 1329.304647 1016.199121 
L 1333.095423 1018.857667 
L 1336.608345 1021.71496 
L 1338.788416 1023.728414 
L 1340.834364 1025.826541 
L 1342.742728 1028.006791 
L 1344.510488 1030.26608 
L 1346.135066 1032.60084 
L 1347.614334 1035.007075 
L 1348.946603 1037.48042 
L 1350.130637 1040.016207 
L 1351.165642 1042.609522 
L 1352.051276 1045.255277 
L 1352.787647 1047.948269 
L 1353.375317 1050.683249 
L 1353.815304 1053.454979 
L 1354.201736 1057.670221 
L 1354.266251 1061.939739 
L 1354.018149 1066.247749 
L 1353.469107 1070.579837 
L 1352.633184 1074.923227 
L 1351.52681 1079.266974 
L 1350.168758 1083.602084 
L 1348.580085 1087.921547 
L 1346.784047 1092.220297 
L 1344.110829 1097.914387 
L 1341.179496 1103.562825 
L 1337.260164 1110.560685 
L 1323.038568 1135.289505 
L 1320.336918 1140.696726 
L 1318.521408 1144.724782 
L 1316.917331 1148.723211 
L 1315.54997 1152.684596 
L 1314.442013 1156.599869 
L 1313.613279 1160.458461 
L 1313.080491 1164.24852 
L 1312.857093 1167.957197 
L 1312.953125 1171.570995 
L 1313.197992 1173.920684 
L 1313.588897 1176.218027 
L 1314.126237 1178.459054 
L 1314.809727 1180.639937 
L 1315.638424 1182.757049 
L 1316.610736 1184.807015 
L 1317.724451 1186.786769 
L 1318.976763 1188.693592 
L 1320.364301 1190.525167 
L 1321.883165 1192.279606 
L 1324.397968 1194.763659 
L 1327.181594 1197.068361 
L 1330.215419 1199.19359 
L 1333.479224 1201.14184 
L 1336.951561 1202.918162 
L 1340.610132 1204.530006 
L 1344.432165 1205.986989 
L 1348.394787 1207.300572 
L 1353.85799 1208.85145 
L 1359.479277 1210.203775 
L 1366.654802 1211.667548 
L 1375.374034 1213.177066 
L 1386.995285 1214.924791 
L 1404.081648 1217.241531 
L 1416.549502 1218.753339 
L 1426.111292 1219.697632 
L 1434.291084 1220.266469 
L 1441.148545 1220.530027 
L 1448.082972 1220.582201 
L 1455.123735 1220.421224 
L 1463.735987 1219.973422 
L 1474.002407 1219.193962 
L 1493.385172 1217.658049 
L 1500.749699 1217.310098 
L 1506.506143 1217.23215 
L 1512.080367 1217.383997 
L 1516.105063 1217.674797 
L 1519.967215 1218.135209 
L 1523.64109 1218.779055 
L 1527.101758 1219.617756 
L 1530.325628 1220.660197 
L 1533.290975 1221.912685 
L 1535.978419 1223.378966 
L 1537.607334 1224.475997 
L 1539.10114 1225.668479 
L 1540.456348 1226.955797 
L 1541.670166 1228.336938 
L 1542.740526 1229.810533 
L 1543.6661 1231.37489 
L 1544.446311 1233.028031 
L 1545.081334 1234.767735 
L 1545.572084 1236.591573 
L 1545.920205 1238.496948 
L 1546.180267 1241.501891 
L 1546.135525 1244.674519 
L 1545.799711 1248.004934 
L 1545.1892 1251.483119 
L 1544.322547 1255.099058 
L 1543.219966 1258.842802 
L 1541.4198 1264.016208 
L 1539.289944 1269.375903 
L 1536.2416 1276.301275 
L 1532.850631 1283.431875 
L 1528.440644 1292.183594 
L 1522.954008 1302.525715 
L 1518.026486 1311.355632 
L 1513.775439 1318.573128 
L 1509.38213 1325.555722 
L 1505.749177 1330.899669 
L 1501.993445 1335.965642 
L 1499.085154 1339.547603 
L 1496.089842 1342.916307 
L 1493.000177 1346.048654 
L 1489.809595 1348.923029 
L 1486.512609 1351.519804 
L 1483.105076 1353.821824 
L 1479.584399 1355.814877 
L 1477.1739 1356.966422 
L 1474.712832 1357.973441 
L 1472.201707 1358.834406 
L 1469.641382 1359.548605 
L 1467.033053 1360.116166 
L 1464.378236 1360.538082 
L 1460.312917 1360.9022 
L 1456.15449 1360.953048 
L 1451.911492 1360.705058 
L 1447.593439 1360.176939 
L 1443.210564 1359.391454 
L 1438.773539 1358.375106 
L 1434.293192 1357.157738 
L 1428.270476 1355.278784 
L 1420.69723 1352.637808 
L 1398.042887 1344.444374 
L 1392.08017 1342.605164 
L 1387.637056 1341.415075 
L 1383.218506 1340.417108 
L 1378.823014 1339.634015 
L 1374.448 1339.084362 
L 1370.089954 1338.782245 
L 1365.744608 1338.737091 
L 1361.407128 1338.95354 
L 1357.072318 1339.43141 
L 1352.734849 1340.165752 
L 1348.389481 1341.146978 
L 1344.031308 1342.361063 
L 1339.655995 1343.789824 
L 1333.78963 1345.990235 
L 1327.881248 1348.471312 
L 1320.435278 1351.859393 
L 1296.348624 1363.081116 
L 1290.367715 1365.542162 
L 1284.464516 1367.705469 
L 1280.112143 1369.089587 
L 1275.844553 1370.239021 
L 1271.681289 1371.129412 
L 1267.642559 1371.739424 
L 1263.748861 1372.05094 
L 1260.020567 1372.049206 
L 1258.818007 1371.976963 
L 1258.818007 1371.976963 
" clip-path="url(#p93c8b5f8ae)" style="fill: none; stroke: #4169e1; stroke-width: 3; stroke-linecap: square"/>
   </g>
   <g id="line2d_2">
    <path d="M 1217.462261 1479.983064 
L 1215.778714 1479.536164 
L 1214.163624 1478.886616 
L 1212.6207 1478.032902 
L 1211.153372 1476.974423 
L 1209.764755 1475.71148 
L 1208.4576 1474.245254 
L 1207.234265 1472.577774 
L 1206.096676 1470.711888 
L 1205.046296 1468.651221 
L 1204.084096 1466.400135 
L 1202.806994 1462.677717 
L 1201.728488 1458.558137 
L 1200.845062 1454.064035 
L 1200.150356 1449.220541 
L 1199.635186 1444.054865 
L 1199.287605 1438.595882 
L 1199.059317 1430.913193 
L 1199.061592 1422.836353 
L 1199.3152 1412.299928 
L 1199.947446 1396.986011 
L 1200.770974 1376.887485 
L 1201.005415 1365.771473 
L 1200.983068 1357.002832 
L 1200.719399 1348.401084 
L 1200.336445 1342.087997 
L 1199.776689 1335.914021 
L 1199.026528 1329.896397 
L 1198.07497 1324.051257 
L 1196.913755 1318.393762 
L 1195.537425 1312.938241 
L 1193.943345 1307.698333 
L 1192.13169 1302.687133 
L 1190.105382 1297.917312 
L 1187.869985 1293.401242 
L 1185.43357 1289.15108 
L 1182.806533 1285.178836 
L 1180.001389 1281.496406 
L 1177.032528 1278.115571 
L 1173.915952 1275.047964 
L 1170.668983 1272.304991 
L 1168.440918 1270.662179 
L 1166.168649 1269.171745 
L 1163.857886 1267.836737 
L 1161.514382 1266.660059 
L 1159.1439 1265.644438 
L 1156.752158 1264.792398 
L 1154.344792 1264.106218 
L 1151.92731 1263.587905 
L 1149.505052 1263.23915 
L 1147.08315 1263.061288 
L 1144.666487 1263.055266 
L 1142.259666 1263.221591 
L 1139.866974 1263.560301 
L 1137.492352 1264.070917 
L 1135.13937 1264.752408 
L 1132.811205 1265.603154 
L 1130.510619 1266.620913 
L 1128.239947 1267.802786 
L 1126.001087 1269.145191 
L 1122.705512 1271.450222 
L 1119.487741 1274.089092 
L 1116.348636 1277.040498 
L 1113.286969 1280.279357 
L 1110.299574 1283.776851 
L 1107.38156 1287.500549 
L 1103.587626 1292.754961 
L 1099.887398 1298.254022 
L 1094.467681 1306.736982 
L 1086.493729 1319.252227 
L 1082.96386 1324.442465 
L 1079.425398 1329.246158 
L 1076.76265 1332.532093 
L 1074.092349 1335.500529 
L 1071.416883 1338.113594 
L 1068.74083 1340.337177 
L 1066.959707 1341.588237 
L 1065.183783 1342.645077 
L 1063.415954 1343.50091 
L 1061.65948 1344.149933 
L 1059.917954 1344.587351 
L 1058.195266 1344.809392 
L 1056.495562 1344.813313 
L 1054.823209 1344.5974 
L 1053.182739 1344.160955 
L 1051.578811 1343.504276 
L 1050.016151 1342.628635 
L 1048.499512 1341.536232 
L 1047.033615 1340.230163 
L 1045.6231 1338.714361 
L 1044.272478 1336.993546 
L 1042.986079 1335.07316 
L 1041.768012 1332.959299 
L 1040.622113 1330.658649 
L 1039.046209 1326.873306 
L 1037.650969 1322.710025 
L 1036.444839 1318.196473 
L 1035.434103 1313.361345 
L 1034.622753 1308.233788 
L 1034.012423 1302.842841 
L 1033.602365 1297.21692 
L 1033.389495 1291.383345 
L 1033.368476 1285.367921 
L 1033.531853 1279.194597 
L 1034.020016 1270.755247 
L 1034.792051 1262.118911 
L 1035.816373 1253.323052 
L 1037.057852 1244.397422 
L 1038.857566 1233.091553 
L 1041.279321 1219.344368 
L 1049.78236 1172.405916 
L 1051.647553 1160.470885 
L 1053.284195 1148.506789 
L 1054.393109 1138.946129 
L 1055.296946 1129.428604 
L 1055.973141 1119.991906 
L 1056.401325 1110.679379 
L 1056.563379 1101.539068 
L 1056.443518 1092.622403 
L 1056.160497 1086.113651 
L 1055.706657 1079.783103 
L 1055.078152 1073.65274 
L 1054.272004 1067.743552 
L 1053.286125 1062.07506 
L 1052.119334 1056.66487 
L 1050.771367 1051.528246 
L 1049.242876 1046.677756 
L 1047.535422 1042.122964 
L 1045.651458 1037.870215 
L 1043.594301 1033.922492 
L 1041.3681 1030.27937 
L 1038.977792 1026.93707 
L 1036.429061 1023.888604 
L 1033.728289 1021.124015 
L 1030.882505 1018.630711 
L 1027.899344 1016.393877 
L 1024.787 1014.396961 
L 1021.554193 1012.622222 
L 1018.210132 1011.051308 
L 1014.764498 1009.665882 
L 1011.227422 1008.448231 
L 1006.38741 1007.057458 
L 1001.429923 1005.902084 
L 996.382548 1004.956179 
L 991.274172 1004.203405 
L 986.134908 1003.638207 
L 980.995951 1003.266391 
L 975.889354 1003.105028 
L 970.847689 1003.181697 
L 967.128697 1003.417188 
L 963.478204 1003.825293 
L 959.909493 1004.42596 
L 956.435344 1005.240235 
L 953.067833 1006.289593 
L 949.818131 1007.595249 
L 946.696284 1009.177467 
L 943.711007 1011.054879 
L 941.800307 1012.478677 
L 939.955236 1014.045172 
L 938.177135 1015.757898 
L 936.466961 1017.619691 
L 934.825267 1019.632636 
L 932.491302 1022.938058 
L 930.310253 1026.58708 
L 928.278536 1030.576098 
L 926.390341 1034.897013 
L 924.637676 1039.537257 
L 923.010463 1044.479916 
L 921.496682 1049.703948 
L 919.63073 1057.063556 
L 917.905058 1064.810596 
L 915.883564 1074.921044 
L 908.612148 1112.70319 
L 906.750193 1120.839197 
L 904.727474 1128.696024 
L 902.521267 1136.198031 
L 900.736157 1141.550213 
L 898.834112 1146.638193 
L 896.812757 1151.438722 
L 894.671691 1155.931373 
L 892.412356 1160.098626 
L 890.037857 1163.925933 
L 887.55276 1167.401762 
L 884.962848 1170.51761 
L 882.274868 1173.268008 
L 879.496268 1175.650498 
L 877.597404 1177.034567 
L 875.664149 1178.256168 
L 873.698895 1179.316742 
L 871.704 1180.218284 
L 869.681771 1180.963327 
L 867.634428 1181.554927 
L 865.564089 1181.996637 
L 862.419781 1182.387108 
L 859.234299 1182.465 
L 856.012967 1182.247858 
L 852.760265 1181.755021 
L 849.479828 1181.007313 
L 846.174479 1180.026706 
L 842.846296 1178.83594 
L 838.375612 1176.961277 
L 833.868913 1174.808461 
L 828.186577 1171.805639 
L 821.298533 1167.866008 
L 812.009473 1162.249967 
L 800.292832 1154.886991 
L 792.103776 1149.519677 
L 785.167516 1144.696519 
L 779.498158 1140.43631 
L 775.067415 1136.813178 
L 770.756122 1132.950663 
L 767.616031 1129.869433 
L 764.567693 1126.609599 
L 761.621525 1123.153844 
L 758.787712 1119.486544 
L 756.076109 1115.594248 
L 753.496159 1111.466125 
L 751.056825 1107.094325 
L 748.766545 1102.474287 
L 746.6332 1097.604962 
L 744.664092 1092.488951 
L 742.865943 1087.132569 
L 741.244898 1081.545828 
L 739.806538 1075.74234 
L 738.555894 1069.739157 
L 737.497459 1063.556542 
L 736.635205 1057.217697 
L 735.972581 1050.748439 
L 735.512512 1044.176851 
L 735.257385 1037.532907 
L 735.209019 1030.848084 
L 735.368633 1024.154979 
L 735.736794 1017.486919 
L 736.313359 1010.877595 
L 737.097416 1004.360705 
L 738.087212 997.969624 
L 739.280091 991.737092 
L 740.67243 985.694937 
L 742.259584 979.873811 
L 744.035848 974.302958 
L 745.994434 969.009999 
L 748.127461 964.020735 
L 750.425981 959.358968 
L 752.880018 955.046329 
L 755.478641 951.102118 
L 757.285591 948.685738 
L 759.147896 946.444969 
L 761.061751 944.383609 
L 763.023241 942.504898 
L 765.028374 940.811495 
L 767.073098 939.305467 
L 769.153329 937.988266 
L 771.264979 936.860715 
L 773.403984 935.92299 
L 775.566331 935.174611 
L 777.748087 934.614423 
L 779.945426 934.24059 
L 782.154657 934.05059 
L 784.372253 934.0412 
L 786.59487 934.208506 
L 788.819376 934.547894 
L 791.042866 935.054065 
L 793.262689 935.721035 
L 796.580396 937.008268 
L 799.877668 938.617035 
L 803.149106 940.519089 
L 806.390826 942.683318 
L 809.600448 945.076045 
L 813.828627 948.559452 
L 817.999858 952.295021 
L 824.162649 958.165018 
L 834.265584 967.862687 
L 838.283088 971.441855 
L 842.30547 974.721795 
L 845.331916 976.939868 
L 848.370764 978.918857 
L 851.424744 980.633594 
L 854.495526 982.062238 
L 857.583602 983.186376 
L 860.688198 983.99103 
L 863.80723 984.464598 
L 865.892974 984.59212 
L 867.982306 984.567003 
L 870.073639 984.388105 
L 872.165136 984.054816 
L 874.25473 983.567023 
L 876.340135 982.92506 
L 879.45489 981.674768 
L 882.545414 980.083304 
L 885.601776 978.15608 
L 888.613444 975.8996 
L 891.56948 973.321125 
L 894.458735 970.428363 
L 897.270062 967.2292 
L 899.992515 963.731477 
L 902.615563 959.942824 
L 905.129287 955.87055 
L 907.524577 951.521601 
L 909.793311 946.902573 
L 911.928523 942.019792 
L 913.924565 936.879442 
L 915.777232 931.48775 
L 917.48389 925.851205 
L 919.043566 919.976807 
L 920.457025 913.872342 
L 921.726823 907.546653 
L 922.857332 901.009912 
L 924.158964 891.986514 
L 925.243802 882.641909 
L 926.136899 873.015364 
L 927.029953 860.656484 
L 927.865978 845.488588 
L 930.029243 802.387408 
L 930.964997 790.257511 
L 931.917592 780.911028 
L 933.093727 771.955357 
L 934.143554 765.531967 
L 935.351565 759.385613 
L 936.728884 753.536257 
L 938.284783 748.000737 
L 940.02658 742.792562 
L 941.959571 737.921772 
L 944.087002 733.394868 
L 945.613987 730.56959 
L 947.227823 727.898565 
L 948.927979 725.381149 
L 950.713552 723.016055 
L 952.583278 720.801381 
L 954.53555 718.734647 
L 956.568437 716.812823 
L 958.679709 715.032378 
L 960.866857 713.38932 
L 964.283745 711.17259 
L 967.854847 709.238602 
L 971.568985 707.569486 
L 975.41426 706.146245 
L 979.378263 704.94911 
L 983.448284 703.957882 
L 987.611512 703.15224 
L 993.285498 702.331942 
L 999.073154 701.759171 
L 1004.94642 701.389363 
L 1012.368644 701.148853 
L 1021.333049 701.086668 
L 1037.720939 701.253491 
L 1050.897344 701.305843 
L 1059.494635 701.141036 
L 1066.518688 700.812419 
L 1073.398875 700.260895 
L 1078.790078 699.628809 
L 1084.073648 698.802515 
L 1089.243307 697.760062 
L 1094.293205 696.480494 
L 1099.218049 694.944209 
L 1102.826836 693.612705 
L 1106.361107 692.119947 
L 1109.81963 690.459941 
L 1113.201583 688.62755 
L 1116.506611 686.618575 
L 1119.734877 684.42983 
L 1122.887104 682.059211 
L 1125.964608 679.50576 
L 1128.969325 676.769717 
L 1131.90382 673.852575 
L 1134.77128 670.757127 
L 1138.496931 666.359849 
L 1142.120784 661.666768 
L 1145.654993 656.696142 
L 1149.113008 651.471023 
L 1153.350357 644.62501 
L 1158.348763 636.037794 
L 1165.772216 622.698668 
L 1173.235785 609.349698 
L 1177.439626 602.194335 
L 1181.697863 595.401677 
L 1185.14549 590.328534 
L 1188.627538 585.66066 
L 1191.258719 582.472595 
L 1193.903229 579.588545 
L 1196.55692 577.03969 
L 1199.214771 574.855695 
L 1201.870927 573.06423 
L 1203.637511 572.100556 
L 1205.398263 571.329368 
L 1207.150905 570.756793 
L 1208.893031 570.388267 
L 1210.622122 570.22848 
L 1212.335553 570.281334 
L 1214.030603 570.549892 
L 1215.704464 571.036351 
L 1217.354255 571.742001 
L 1218.977031 572.667207 
L 1220.569792 573.811392 
L 1222.129498 575.173021 
L 1223.653079 576.749606 
L 1225.137444 578.53771 
L 1226.579497 580.532956 
L 1227.976147 582.730057 
L 1229.979275 586.390451 
L 1231.863101 590.466578 
L 1233.61764 594.930165 
L 1235.233258 599.749451 
L 1236.700775 604.889693 
L 1238.011579 610.313724 
L 1239.157727 615.982563 
L 1240.132066 621.85606 
L 1240.928339 627.893556 
L 1241.541293 634.054559 
L 1241.966783 640.299406 
L 1242.201868 646.589914 
L 1242.244895 652.88999 
L 1242.095568 659.1662 
L 1241.755001 665.388289 
L 1241.22575 671.529622 
L 1240.51183 677.567561 
L 1239.618695 683.483759 
L 1238.55321 689.264366 
L 1237.323583 694.900143 
L 1235.939283 700.386487 
L 1234.410932 705.723371 
L 1232.169305 712.614919 
L 1229.722329 719.270881 
L 1227.102019 725.724908 
L 1223.633741 733.575879 
L 1219.276287 742.816637 
L 1209.608756 763.085693 
L 1205.976418 771.30355 
L 1203.159252 778.152139 
L 1200.44567 785.28569 
L 1197.856499 792.730554 
L 1195.411068 800.500671 
L 1193.12767 808.596607 
L 1191.024059 817.005041 
L 1189.117942 825.698752 
L 1187.427408 834.637101 
L 1185.971246 843.767017 
L 1184.769122 853.024447 
L 1183.841572 862.336247 
L 1183.338844 869.307863 
L 1183.011567 876.229752 
L 1182.868782 883.065813 
L 1182.919328 889.779963 
L 1183.171656 896.336844 
L 1183.633619 902.702536 
L 1184.312252 908.84526 
L 1185.213541 914.736044 
L 1186.342193 920.349356 
L 1187.701422 925.66367 
L 1189.292743 930.661973 
L 1191.115796 935.332173 
L 1192.458815 938.259756 
L 1193.902582 941.037675 
L 1195.445435 943.666339 
L 1197.085275 946.147263 
L 1198.819564 948.483059 
L 1200.645324 950.677423 
L 1202.559146 952.73511 
L 1205.586501 955.578286 
L 1208.788644 958.150758 
L 1212.149019 960.480628 
L 1215.64933 962.599997 
L 1219.269746 964.54435 
L 1224.247138 966.93087 
L 1230.635512 969.718186 
L 1242.274542 974.766495 
L 1247.369655 977.253232 
L 1251.112201 979.29142 
L 1254.763101 981.512572 
L 1258.301739 983.943447 
L 1261.708672 986.606336 
L 1264.965762 989.518752 
L 1268.056277 992.693235 
L 1270.964976 996.13728 
L 1273.678169 999.853386 
L 1276.183755 1003.839224 
L 1278.471257 1008.087915 
L 1280.531829 1012.588415 
L 1282.358273 1017.325987 
L 1283.94504 1022.282749 
L 1285.288234 1027.43828 
L 1286.385619 1032.770271 
L 1287.236625 1038.255188 
L 1287.842364 1043.868939 
L 1288.205638 1049.587525 
L 1288.330963 1055.387642 
L 1288.224579 1061.247238 
L 1287.894466 1067.145989 
L 1287.350352 1073.065693 
L 1286.603707 1078.99057 
L 1285.667729 1084.907457 
L 1284.557307 1090.805892 
L 1282.834172 1098.628698 
L 1280.873895 1106.393695 
L 1278.163365 1116.012428 
L 1274.664411 1127.431897 
L 1266.485933 1153.657218 
L 1263.915211 1162.897146 
L 1262.109116 1170.228762 
L 1260.578464 1177.488281 
L 1259.637433 1182.870917 
L 1258.891712 1188.186083 
L 1258.355093 1193.418742 
L 1258.03905 1198.552231 
L 1257.952618 1203.568678 
L 1258.102314 1208.449494 
L 1258.492095 1213.175918 
L 1259.123366 1217.729591 
L 1259.995018 1222.093144 
L 1261.103519 1226.250773 
L 1262.443029 1230.188774 
L 1264.005562 1233.896026 
L 1265.781168 1237.36439 
L 1267.75815 1240.589021 
L 1269.923299 1243.568563 
L 1272.262148 1246.305233 
L 1274.75924 1248.804772 
L 1277.3984 1251.076282 
L 1280.163015 1253.131933 
L 1283.036307 1254.986571 
L 1286.001605 1256.657222 
L 1289.042604 1258.16252 
L 1293.188022 1259.946341 
L 1297.40544 1261.518225 
L 1302.7312 1263.253752 
L 1309.13452 1265.101526 
L 1318.63514 1267.588834 
L 1328.938127 1270.078195 
L 1336.002265 1271.583978 
L 1342.003948 1272.621628 
L 1347.003276 1273.244524 
L 1351.022444 1273.554607 
L 1355.074567 1273.681936 
L 1359.171806 1273.621422 
L 1364.370123 1273.290882 
L 1369.660781 1272.711925 
L 1377.210911 1271.611933 
L 1389.246578 1269.817222 
L 1394.666361 1269.280985 
L 1398.914264 1269.106281 
L 1402.021979 1269.167168 
L 1405.042169 1269.421492 
L 1407.955873 1269.892868 
L 1410.744052 1270.602174 
L 1413.387988 1271.567195 
L 1415.869684 1272.802366 
L 1417.42562 1273.781449 
L 1418.897264 1274.88791 
L 1420.280307 1276.12343 
L 1421.570824 1277.489018 
L 1422.765311 1278.985033 
L 1423.860722 1280.611214 
L 1424.854499 1282.366721 
L 1425.744594 1284.250176 
L 1426.882165 1287.31105 
L 1427.780348 1290.647393 
L 1428.439107 1294.24927 
L 1428.861158 1298.105323 
L 1429.051862 1302.203147 
L 1429.019052 1306.529642 
L 1428.772799 1311.071309 
L 1428.32511 1315.814489 
L 1427.438546 1322.4286 
L 1426.253635 1329.344569 
L 1424.807933 1336.530529 
L 1422.691752 1345.843814 
L 1419.79165 1357.419025 
L 1416.043357 1371.317493 
L 1412.019994 1385.420983 
L 1407.79097 1399.449623 
L 1404.014007 1411.160151 
L 1400.746135 1420.513029 
L 1398.038684 1427.620971 
L 1395.23461 1434.309998 
L 1393.06003 1439.004399 
L 1390.818002 1443.386792 
L 1388.503499 1447.426948 
L 1386.112211 1451.097121 
L 1383.640751 1454.372722 
L 1381.947389 1456.326809 
L 1380.216964 1458.091106 
L 1378.44934 1459.661462 
L 1376.644633 1461.034728 
L 1374.80322 1462.208821 
L 1372.925728 1463.18277 
L 1371.013034 1463.95675 
L 1369.066251 1464.532114 
L 1367.086717 1464.911412 
L 1365.075976 1465.098392 
L 1363.03576 1465.098001 
L 1360.967966 1464.916368 
L 1358.874634 1464.560777 
L 1356.757923 1464.039625 
L 1353.543951 1462.968464 
L 1350.29027 1461.582475 
L 1347.004822 1459.922359 
L 1343.695463 1458.032731 
L 1339.258826 1455.2392 
L 1332.58518 1450.706364 
L 1323.721822 1444.670631 
L 1319.326306 1441.925769 
L 1316.049919 1440.077097 
L 1312.791774 1438.45418 
L 1309.551641 1437.093258 
L 1306.328418 1436.025359 
L 1303.12021 1435.2758 
L 1300.988501 1434.962702 
L 1298.861428 1434.803896 
L 1296.737994 1434.802229 
L 1294.617128 1434.95925 
L 1292.49771 1435.275211 
L 1290.378584 1435.749067 
L 1287.197908 1436.750486 
L 1284.01144 1438.088577 
L 1280.815582 1439.744219 
L 1277.607156 1441.692611 
L 1274.383574 1443.903742 
L 1270.058861 1447.200058 
L 1265.702343 1450.808096 
L 1259.112908 1456.57657 
L 1249.160867 1465.279589 
L 1244.749448 1468.871493 
L 1240.375308 1472.13568 
L 1237.135122 1474.306238 
L 1233.943517 1476.193753 
L 1230.814085 1477.761229 
L 1227.761154 1478.97545 
L 1225.775674 1479.574131 
L 1223.835232 1479.995242 
L 1221.944287 1480.232132 
L 1220.107257 1480.279069 
L 1218.328481 1480.13125 
L 1218.328481 1480.13125 
" clip-path="url(#p93c8b5f8ae)" style="fill: none; stroke: #ff8c00; stroke-width: 3; stroke-linecap: square"/>
   </g>
  </g>
 </g>
 <defs>
  <clipPath id="p93c8b5f8ae">
   <rect x="270" y="259.2" width="1674" height="1630.8"/>
  </clipPath>
 </defs>
</svg>
