<?xml version="1.0" encoding="utf-8" standalone="no"?>
<!DOCTYPE svg PUBLIC "-//W3C//DTD SVG 1.1//EN"
  "http://www.w3.org/Graphics/SVG/1.1/DTD/svg11.dtd">
<svg xmlns:xlink="http://www.w3.org/1999/xlink" width="2160pt" height="2160pt" viewBox="0 0 2160 2160" xmlns="http://www.w3.org/2000/svg" version="1.1">
 <metadata>
  <rdf:RDF xmlns:dc="http://purl.org/dc/elements/1.1/" xmlns:cc="http://creativecommons.org/ns#" xmlns:rdf="http://www.w3.org/1999/02/22-rdf-syntax-ns#">
   <cc:Work>
    <dc:type rdf:resource="http://purl.org/dc/dcmitype/StillImage"/>
    <dc:date>2022-03-06T19:21:06.094852</dc:date>
    <dc:format>image/svg+xml</dc:format>
    <dc:creator>
     <cc:Agent>
      <dc:title>Matplotlib v3.5.1, https://matplotlib.org/</dc:title>
     </cc:Agent>
    </dc:creator>
   </cc:Work>
  </rdf:RDF>
 </metadata>
 <defs>
  <style type="text/css">*{stroke-linejoin: round; stroke-linecap: butt}</style>
 </defs>
 <g id="figure_1">
  <g id="patch_1">
   <path d="M 0 2160 
L 2160 2160 
L 2160 0 
L 0 0 
L 0 2160 
z
" style="fill: none"/>
  </g>
  <g id="axes_1">
   <g id="line2d_1">
    <path d="M 1257.636748 1371.868297 
L 1255.340905 1371.540585 
L 1253.138416 1371.06427 
L 1251.034339 1370.43824 
L 1249.033353 1369.662054 
L 1247.139704 1368.735935 
L 1245.357144 1367.660749 
L 1243.68889 1366.437982 
L 1242.137566 1365.069724 
L 1240.705168 1363.558632 
L 1239.393022 1361.907906 
L 1238.201754 1360.121256 
L 1237.131261 1358.202864 
L 1236.180693 1356.157351 
L 1235.348441 1353.98974 
L 1234.316492 1350.521251 
L 1233.533973 1346.809702 
L 1232.985834 1342.875897 
L 1232.653373 1338.741655 
L 1232.514466 1334.429522 
L 1232.586292 1328.443058 
L 1232.889706 1322.236104 
L 1233.615312 1312.630981 
L 1234.774959 1297.907102 
L 1235.107597 1291.365851 
L 1235.216435 1284.888656 
L 1235.107636 1280.096815 
L 1234.804605 1275.378941 
L 1234.282372 1270.74954 
L 1233.519036 1266.22215 
L 1232.496045 1261.809412 
L 1231.198411 1257.523158 
L 1229.614869 1253.374505 
L 1227.737975 1249.373959 
L 1226.321808 1246.794168 
L 1224.77347 1244.287516 
L 1223.093595 1241.856799 
L 1221.283547 1239.504755 
L 1219.345404 1237.23408 
L 1217.281933 1235.047435 
L 1213.959407 1231.930782 
L 1210.376932 1229.017927 
L 1206.551573 1226.317592 
L 1202.502954 1223.838419 
L 1198.252898 1221.588936 
L 1193.825025 1219.577507 
L 1189.244337 1217.812251 
L 1184.536771 1216.300927 
L 1179.728752 1215.050805 
L 1174.846731 1214.068506 
L 1169.91673 1213.359819 
L 1164.963895 1212.929506 
L 1160.012071 1212.781089 
L 1155.083403 1212.91663 
L 1150.197977 1213.336505 
L 1145.373497 1214.039181 
L 1140.625029 1215.021011 
L 1135.964793 1216.27603 
L 1131.402027 1217.795797 
L 1126.942924 1219.569247 
L 1122.590641 1221.582603 
L 1118.345383 1223.81932 
L 1114.204568 1226.260082 
L 1110.163062 1228.882863 
L 1106.213481 1231.663031 
L 1101.074144 1235.567635 
L 1094.816851 1240.666389 
L 1075.42612 1256.882001 
L 1070.604637 1260.482807 
L 1066.977112 1262.963406 
L 1063.338855 1265.220985 
L 1059.692139 1267.226939 
L 1056.042211 1268.955295 
L 1052.397283 1270.383065 
L 1048.76843 1271.490548 
L 1045.169395 1272.261562 
L 1042.794486 1272.582322 
L 1040.445265 1272.745145 
L 1038.12739 1272.748021 
L 1035.846811 1272.589691 
L 1033.609712 1272.269644 
L 1031.422443 1271.788101 
L 1029.291454 1271.145991 
L 1027.223222 1270.34493 
L 1025.224187 1269.387186 
L 1023.300675 1268.275645 
L 1021.458839 1267.013768 
L 1019.704586 1265.605544 
L 1018.043514 1264.055446 
L 1016.480858 1262.368374 
L 1015.021432 1260.549606 
L 1013.669579 1258.604738 
L 1012.429127 1256.53963 
L 1011.303352 1254.36035 
L 1010.294948 1252.073111 
L 1009.006799 1248.453642 
L 1007.991656 1244.626861 
L 1007.250661 1240.61395 
L 1006.781725 1236.435515 
L 1006.579599 1232.111251 
L 1006.636022 1227.659654 
L 1006.939911 1223.097782 
L 1007.477616 1218.441077 
L 1008.233201 1213.703235 
L 1009.18876 1208.89615 
L 1010.739925 1202.396163 
L 1012.561898 1195.809896 
L 1015.139992 1187.476743 
L 1018.535188 1177.352894 
L 1027.329707 1151.551684 
L 1030.022524 1142.824844 
L 1031.989917 1135.815395 
L 1033.748066 1128.796012 
L 1035.260285 1121.785159 
L 1036.492843 1114.805937 
L 1037.21511 1109.608743 
L 1037.750817 1104.458024 
L 1038.089047 1099.368157 
L 1038.21987 1094.354478 
L 1038.134376 1089.433022 
L 1037.824705 1084.620237 
L 1037.284094 1079.932656 
L 1036.506912 1075.386562 
L 1035.4887 1070.997628 
L 1034.226202 1066.780566 
L 1032.717395 1062.748789 
L 1030.961499 1058.914096 
L 1028.958988 1055.286388 
L 1026.711581 1051.873434 
L 1024.22222 1048.680688 
L 1021.495041 1045.711166 
L 1018.535328 1042.96539 
L 1015.349464 1040.441399 
L 1011.944867 1038.134838 
L 1008.329929 1036.039105 
L 1004.51395 1034.145582 
L 1000.507072 1032.44391 
L 996.320222 1030.922334 
L 991.965057 1029.568089 
L 987.453916 1028.367816 
L 981.218978 1026.983667 
L 974.762421 1025.818343 
L 968.118647 1024.843764 
L 959.606057 1023.858575 
L 950.932502 1023.10311 
L 942.17697 1022.56356 
L 933.422181 1022.246192 
L 924.753667 1022.177331 
L 917.939364 1022.330551 
L 911.280154 1022.700751 
L 904.819134 1023.322077 
L 900.128156 1023.974898 
L 895.58783 1024.805339 
L 891.212909 1025.828778 
L 887.016522 1027.059732 
L 883.009883 1028.51136 
L 879.202018 1030.195011 
L 875.599516 1032.119812 
L 872.206309 1034.292311 
L 869.023494 1036.716184 
L 866.049211 1039.39202 
L 863.27857 1042.317175 
L 860.703649 1045.485712 
L 858.313549 1048.888413 
L 856.094529 1052.512875 
L 854.030195 1056.34367 
L 852.101766 1060.362571 
L 849.705645 1065.977539 
L 847.459944 1071.834723 
L 844.247142 1080.941351 
L 838.818722 1096.430226 
L 836.45963 1102.541154 
L 833.920492 1108.507305 
L 831.87411 1112.850688 
L 829.690702 1117.055146 
L 827.359486 1121.09862 
L 824.872519 1124.960825 
L 822.224701 1128.623383 
L 819.413707 1132.069926 
L 816.439851 1135.286179 
L 813.305883 1138.260017 
L 810.016738 1140.981507 
L 806.579232 1143.442931 
L 803.001729 1145.638797 
L 799.293789 1147.565832 
L 795.465803 1149.222967 
L 791.528634 1150.611297 
L 787.493269 1151.73404 
L 783.370499 1152.596463 
L 779.170641 1153.2058 
L 774.903286 1153.571143 
L 770.577117 1153.703307 
L 766.199765 1153.614678 
L 761.777726 1153.319021 
L 757.31634 1152.83127 
L 751.313741 1151.909637 
L 745.255683 1150.714062 
L 739.14656 1149.284672 
L 731.441919 1147.229351 
L 722.099675 1144.4644 
L 709.490365 1140.444704 
L 691.945338 1134.573123 
L 677.577834 1129.538765 
L 668.118897 1126.001932 
L 660.387627 1122.877912 
L 654.345448 1120.221061 
L 648.466162 1117.38867 
L 642.783762 1114.347584 
L 638.671638 1111.910608 
L 634.703514 1109.325988 
L 630.893145 1106.582759 
L 627.253792 1103.671665 
L 623.798124 1100.585465 
L 620.538132 1097.319184 
L 617.485073 1093.870321 
L 614.649431 1090.238989 
L 612.040902 1086.428003 
L 609.668389 1082.4429 
L 607.540014 1078.291914 
L 605.663134 1073.985882 
L 604.044363 1069.538113 
L 602.689592 1064.96421 
L 601.603998 1060.281852 
L 600.792049 1055.510556 
L 600.257491 1050.671407 
L 600.003325 1045.786784 
L 600.031767 1040.880077 
L 600.34419 1035.975395 
L 600.941053 1031.097299 
L 601.821823 1026.270522 
L 602.984883 1021.519724 
L 604.427443 1016.869246 
L 606.14545 1012.342897 
L 608.133504 1007.963748 
L 610.384797 1003.753952 
L 612.891057 999.734572 
L 615.642531 995.925435 
L 618.627981 992.344985 
L 621.834731 989.010159 
L 625.248728 985.936263 
L 627.632349 984.03873 
L 630.096476 982.266793 
L 632.636092 980.623632 
L 635.246003 979.112033 
L 637.920877 977.734369 
L 642.043053 975.923154 
L 646.280442 974.422314 
L 650.614243 973.23427 
L 655.025816 972.359054 
L 659.496976 971.794222 
L 664.010279 971.534806 
L 668.549305 971.573267 
L 673.098917 971.899481 
L 677.645495 972.500756 
L 682.177137 973.361878 
L 686.683815 974.465189 
L 691.157491 975.790715 
L 695.592176 977.316321 
L 699.983945 979.017911 
L 705.769864 981.515616 
L 711.477059 984.21506 
L 719.904987 988.492506 
L 736.443566 997.002776 
L 741.922389 999.57803 
L 747.411716 1001.919508 
L 751.544005 1003.489782 
L 755.694596 1004.878319 
L 759.866753 1006.067465 
L 764.06223 1007.042037 
L 768.281135 1007.789373 
L 772.521823 1008.299324 
L 776.780846 1008.56419 
L 781.052949 1008.578604 
L 785.331109 1008.339382 
L 789.606617 1007.845316 
L 793.869206 1007.096951 
L 798.107209 1006.096335 
L 802.307761 1004.846754 
L 806.457016 1003.352473 
L 810.540399 1001.618472 
L 814.542867 999.65021 
L 818.449186 997.453403 
L 822.244213 995.033838 
L 825.913181 992.397226 
L 829.441975 989.549089 
L 832.81741 986.4947 
L 836.027482 983.239063 
L 839.061617 979.786941 
L 841.910895 976.142926 
L 844.568246 972.311547 
L 847.028637 968.297413 
L 849.289216 964.105388 
L 851.349437 959.740775 
L 853.211151 955.209518 
L 854.878665 950.518405 
L 856.358771 945.675262 
L 857.660733 940.689127 
L 858.796244 935.570403 
L 860.075933 928.559954 
L 861.124335 921.367605 
L 862.179885 912.178984 
L 863.207922 900.974025 
L 865.042757 880.458041 
L 865.895017 873.182147 
L 866.942082 866.091023 
L 867.889768 860.925664 
L 869.00187 855.914885 
L 870.299299 851.078338 
L 871.801013 846.434009 
L 873.523768 841.997953 
L 875.48191 837.784065 
L 876.924031 835.104037 
L 878.47888 832.530748 
L 880.148733 830.066506 
L 881.935319 827.71311 
L 883.839809 825.471845 
L 885.862825 823.343481 
L 888.004442 821.328284 
L 890.264201 819.426025 
L 892.64112 817.635994 
L 895.133721 815.957019 
L 897.740041 814.387489 
L 901.857344 812.233871 
L 906.215068 810.31344 
L 910.801384 808.616065 
L 915.602811 807.130163 
L 920.604502 805.842965 
L 925.790522 804.740787 
L 931.144151 803.809293 
L 936.648163 803.033748 
L 944.190607 802.216536 
L 951.928189 801.615009 
L 961.813615 801.114484 
L 971.867284 800.834336 
L 984.058937 800.706968 
L 1002.39851 800.756758 
L 1032.46304 800.852902 
L 1046.070938 800.662797 
L 1057.450138 800.279828 
L 1066.705718 799.761384 
L 1075.735466 799.026872 
L 1082.7853 798.26244 
L 1089.671817 797.32413 
L 1096.387798 796.197568 
L 1102.92702 794.869661 
L 1109.284549 793.32888 
L 1115.457062 791.565548 
L 1121.443166 789.572099 
L 1127.243689 787.343311 
L 1132.861927 784.876519 
L 1138.303803 782.171798 
L 1143.577943 779.232122 
L 1148.695638 776.063511 
L 1153.670696 772.675171 
L 1158.51918 769.079637 
L 1163.259032 765.292917 
L 1169.060659 760.32096 
L 1174.76237 755.128056 
L 1182.652218 747.596449 
L 1198.466455 732.365312 
L 1204.213318 727.162959 
L 1208.865045 723.20281 
L 1213.566554 719.482663 
L 1218.315003 716.0597 
L 1221.90313 713.721885 
L 1225.509433 711.607005 
L 1229.128256 709.737924 
L 1232.752752 708.136395 
L 1236.374936 706.82271 
L 1239.985765 705.815353 
L 1243.575211 705.130662 
L 1245.950939 704.86042 
L 1248.308891 704.743249 
L 1250.645487 704.782006 
L 1252.957016 704.978941 
L 1255.239651 705.335662 
L 1257.489462 705.853117 
L 1259.702431 706.531573 
L 1261.874471 707.370605 
L 1264.001433 708.369091 
L 1266.079131 709.525205 
L 1268.103351 710.836425 
L 1270.069871 712.299543 
L 1271.974475 713.910682 
L 1273.81297 715.665315 
L 1276.437696 718.554897 
L 1278.890606 721.735816 
L 1281.158388 725.185595 
L 1283.228301 728.879442 
L 1285.088324 732.790648 
L 1286.727307 736.89102 
L 1288.135118 741.151347 
L 1289.302799 745.541885 
L 1290.222716 750.032844 
L 1290.888698 754.594884 
L 1291.296173 759.199592 
L 1291.44229 763.819942 
L 1291.326019 768.430722 
L 1290.94823 773.00893 
L 1290.311753 777.534116 
L 1289.421398 781.988677 
L 1288.283953 786.35809 
L 1286.908146 790.631086 
L 1285.304571 794.799757 
L 1283.485583 798.859598 
L 1281.465162 802.809479 
L 1279.25874 806.651557 
L 1276.883016 810.391118 
L 1274.355733 814.036371 
L 1270.782431 818.769123 
L 1267.018224 823.38586 
L 1262.114962 829.051862 
L 1244.929069 848.546392 
L 1241.001535 853.429345 
L 1237.192301 858.501398 
L 1233.531646 863.788047 
L 1230.047409 869.306424 
L 1227.565664 873.602356 
L 1225.208226 878.032891 
L 1222.985315 882.594452 
L 1220.907084 887.280214 
L 1218.983764 892.080164 
L 1217.225791 896.981211 
L 1215.643914 901.967372 
L 1214.249249 907.020013 
L 1213.053304 912.118157 
L 1212.06796 917.23883 
L 1211.305392 922.357475 
L 1210.777955 927.448394 
L 1210.498019 932.485223 
L 1210.477754 937.441441 
L 1210.728893 942.290885 
L 1211.26245 947.008271 
L 1212.088423 951.569718 
L 1212.805874 954.513099 
L 1213.659355 957.371408 
L 1214.650679 960.139224 
L 1215.781259 962.81171 
L 1217.052064 965.38466 
L 1218.463589 967.854543 
L 1220.015825 970.218544 
L 1221.708226 972.474594 
L 1223.539693 974.621398 
L 1225.508549 976.658451 
L 1227.612529 978.586057 
L 1229.84877 980.405324 
L 1232.21381 982.118168 
L 1234.703589 983.7273 
L 1238.661813 985.954372 
L 1242.872003 987.971017 
L 1247.313305 989.795673 
L 1251.962322 991.449971 
L 1256.793369 992.958329 
L 1263.469864 994.788944 
L 1272.094159 996.883625 
L 1293.22212 1001.83237 
L 1300.13461 1003.700032 
L 1306.859771 1005.779674 
L 1311.73945 1007.508993 
L 1316.448174 1009.40338 
L 1320.960595 1011.476865 
L 1325.253243 1013.739868 
L 1329.304647 1016.199121 
L 1333.095423 1018.857667 
L 1336.608345 1021.71496 
L 1338.788416 1023.728414 
L 1340.834364 1025.826541 
L 1342.742728 1028.006791 
L 1344.510488 1030.26608 
L 1346.135066 1032.60084 
L 1347.614334 1035.007075 
L 1348.946603 1037.48042 
L 1350.130637 1040.016207 
L 1351.165642 1042.609522 
L 1352.051276 1045.255277 
L 1352.787647 1047.948269 
L 1353.375317 1050.683249 
L 1353.815304 1053.454979 
L 1354.201736 1057.670221 
L 1354.266251 1061.939739 
L 1354.018149 1066.247749 
L 1353.469107 1070.579837 
L 1352.633184 1074.923227 
L 1351.52681 1079.266974 
L 1350.168758 1083.602084 
L 1348.580085 1087.921547 
L 1346.784047 1092.220297 
L 1344.110829 1097.914387 
L 1341.179496 1103.562825 
L 1337.260164 1110.560685 
L 1323.038568 1135.289505 
L 1320.336918 1140.696726 
L 1318.521408 1144.724782 
L 1316.917331 1148.723211 
L 1315.54997 1152.684596 
L 1314.442013 1156.599869 
L 1313.613279 1160.458461 
L 1313.080491 1164.24852 
L 1312.857093 1167.957197 
L 1312.953125 1171.570995 
L 1313.197992 1173.920684 
L 1313.588897 1176.218027 
L 1314.126237 1178.459054 
L 1314.809727 1180.639937 
L 1315.638424 1182.757049 
L 1316.610736 1184.807015 
L 1317.724451 1186.786769 
L 1318.976763 1188.693592 
L 1320.364301 1190.525167 
L 1321.883165 1192.279606 
L 1324.397968 1194.763659 
L 1327.181594 1197.068361 
L 1330.215419 1199.19359 
L 1333.479224 1201.14184 
L 1336.951561 1202.918162 
L 1340.610132 1204.530006 
L 1344.432165 1205.986989 
L 1348.394787 1207.300572 
L 1353.85799 1208.85145 
L 1359.479277 1210.203775 
L 1366.654802 1211.667548 
L 1375.374034 1213.177066 
L 1386.995285 1214.924791 
L 1404.081648 1217.241531 
L 1416.549502 1218.753339 
L 1426.111292 1219.697632 
L 1434.291084 1220.266469 
L 1441.148545 1220.530027 
L 1448.082972 1220.582201 
L 1455.123735 1220.421224 
L 1463.735987 1219.973422 
L 1474.002407 1219.193962 
L 1493.385172 1217.658049 
L 1500.749699 1217.310098 
L 1506.506143 1217.23215 
L 1512.080367 1217.383997 
L 1516.105063 1217.674797 
L 1519.967215 1218.135209 
L 1523.64109 1218.779055 
L 1527.101758 1219.617756 
L 1530.325628 1220.660197 
L 1533.290975 1221.912685 
L 1535.978419 1223.378966 
L 1537.607334 1224.475997 
L 1539.10114 1225.668479 
L 1540.456348 1226.955797 
L 1541.670166 1228.336938 
L 1542.740526 1229.810533 
L 1543.6661 1231.37489 
L 1544.446311 1233.028031 
L 1545.081334 1234.767735 
L 1545.572084 1236.591573 
L 1545.920205 1238.496948 
L 1546.180267 1241.501891 
L 1546.135525 1244.674519 
L 1545.799711 1248.004934 
L 1545.1892 1251.483119 
L 1544.322547 1255.099058 
L 1543.219966 1258.842802 
L 1541.4198 1264.016208 
L 1539.289944 1269.375903 
L 1536.2416 1276.301275 
L 1532.850631 1283.431875 
L 1528.440644 1292.183594 
L 1522.954008 1302.525715 
L 1518.026486 1311.355632 
L 1513.775439 1318.573128 
L 1509.38213 1325.555722 
L 1505.749177 1330.899669 
L 1501.993445 1335.965642 
L 1499.085154 1339.547603 
L 1496.089842 1342.916307 
L 1493.000177 1346.048654 
L 1489.809595 1348.923029 
L 1486.512609 1351.519804 
L 1483.105076 1353.821824 
L 1479.584399 1355.814877 
L 1477.1739 1356.966422 
L 1474.712832 1357.973441 
L 1472.201707 1358.834406 
L 1469.641382 1359.548605 
L 1467.033053 1360.116166 
L 1464.378236 1360.538082 
L 1460.312917 1360.9022 
L 1456.15449 1360.953048 
L 1451.911492 1360.705058 
L 1447.593439 1360.176939 
L 1443.210564 1359.391454 
L 1438.773539 1358.375106 
L 1434.293192 1357.157738 
L 1428.270476 1355.278784 
L 1420.69723 1352.637808 
L 1398.042887 1344.444374 
L 1392.08017 1342.605164 
L 1387.637056 1341.415075 
L 1383.218506 1340.417108 
L 1378.823014 1339.634015 
L 1374.448 1339.084362 
L 1370.089954 1338.782245 
L 1365.744608 1338.737091 
L 1361.407128 1338.95354 
L 1357.072318 1339.43141 
L 1352.734849 1340.165752 
L 1348.389481 1341.146978 
L 1344.031308 1342.361063 
L 1339.655995 1343.789824 
L 1333.78963 1345.990235 
L 1327.881248 1348.471312 
L 1320.435278 1351.859393 
L 1296.348624 1363.081116 
L 1290.367715 1365.542162 
L 1284.464516 1367.705469 
L 1280.112143 1369.089587 
L 1275.844553 1370.239021 
L 1271.681289 1371.129412 
L 1267.642559 1371.739424 
L 1263.748861 1372.05094 
L 1260.020567 1372.049206 
L 1258.818007 1371.976963 
L 1258.818007 1371.976963 
" clip-path="url(#pea3f23cd6a)" style="fill: none; stroke: #4169e1; stroke-width: 3; stroke-linecap: square"/>
   </g>
   <g id="line2d_2">
    <path d="M 1222.660753 1461.762701 
L 1220.897977 1461.335888 
L 1219.206878 1460.715535 
L 1217.591342 1459.900192 
L 1216.054961 1458.889287 
L 1214.600993 1457.683108 
L 1213.232322 1456.282783 
L 1211.951416 1454.69025 
L 1210.76029 1452.908229 
L 1209.660477 1450.94018 
L 1208.652996 1448.790272 
L 1207.738325 1446.463335 
L 1206.540012 1442.653078 
L 1205.547516 1438.47764 
L 1204.755173 1433.960274 
L 1204.154345 1429.126347 
L 1203.733478 1424.002953 
L 1203.47821 1418.61851 
L 1203.365742 1411.084018 
L 1203.470422 1403.208748 
L 1203.825191 1392.994201 
L 1205.401838 1354.797294 
L 1205.433612 1346.390494 
L 1205.225309 1338.131102 
L 1204.882424 1332.061334 
L 1204.359746 1326.118683 
L 1203.642153 1320.319991 
L 1202.717209 1314.681004 
L 1201.575302 1309.216497 
L 1200.209732 1303.940405 
L 1198.616756 1298.865957 
L 1196.795581 1294.005818 
L 1194.748317 1289.372214 
L 1192.479883 1284.977043 
L 1189.997873 1280.831976 
L 1187.312384 1276.948526 
L 1184.435807 1273.338088 
L 1181.382583 1270.011952 
L 1178.16894 1266.981283 
L 1174.812587 1264.257055 
L 1171.332405 1261.849961 
L 1167.748107 1259.770282 
L 1165.310701 1258.570547 
L 1162.842033 1257.523351 
L 1160.348119 1256.631205 
L 1157.834908 1255.896407 
L 1155.308242 1255.321008 
L 1152.773803 1254.906777 
L 1150.237081 1254.655167 
L 1147.703322 1254.567269 
L 1145.177498 1254.643785 
L 1142.664267 1254.884978 
L 1140.167939 1255.290643 
L 1137.692452 1255.860064 
L 1135.241339 1256.591979 
L 1132.817712 1257.484547 
L 1130.424241 1258.535316 
L 1128.063144 1259.741196 
L 1124.585915 1261.832449 
L 1121.189344 1264.248515 
L 1117.875091 1266.970255 
L 1114.642582 1269.974913 
L 1111.489158 1273.236146 
L 1108.410274 1276.724113 
L 1104.410161 1281.66966 
L 1100.51321 1286.871974 
L 1094.814906 1294.94648 
L 1085.528678 1308.256079 
L 1081.832689 1313.213036 
L 1078.127702 1317.800822 
L 1075.339643 1320.939068 
L 1072.543673 1323.774084 
L 1069.742297 1326.269702 
L 1066.940305 1328.393344 
L 1065.075361 1329.588174 
L 1063.215859 1330.597513 
L 1061.364834 1331.41488 
L 1059.525699 1332.034732 
L 1057.702214 1332.45249 
L 1055.898454 1332.664551 
L 1054.11876 1332.668296 
L 1052.367704 1332.462087 
L 1050.650032 1332.045258 
L 1048.97062 1331.418095 
L 1047.33442 1330.58181 
L 1045.746406 1329.538506 
L 1044.211522 1328.29114 
L 1042.734626 1326.843467 
L 1041.320442 1325.199996 
L 1039.973504 1323.365923 
L 1038.698113 1321.347073 
L 1037.498286 1319.149827 
L 1035.848219 1315.53462 
L 1034.387317 1311.558462 
L 1033.124425 1307.247777 
L 1032.066122 1302.629969 
L 1031.216589 1297.732875 
L 1030.577536 1292.58423 
L 1030.14818 1287.211172 
L 1029.925292 1281.639792 
L 1029.903284 1275.894738 
L 1030.07435 1269.998881 
L 1030.428642 1263.973054 
L 1031.165634 1255.768274 
L 1032.175444 1247.402895 
L 1033.422115 1238.907147 
L 1035.254149 1228.138796 
L 1037.74844 1215.038644 
L 1043.169762 1188.363075 
L 1046.254934 1172.55404 
L 1048.286828 1161.176172 
L 1050.103194 1149.756254 
L 1051.362087 1140.616372 
L 1052.41892 1131.501886 
L 1053.248926 1122.445879 
L 1053.829623 1113.487137 
L 1054.140852 1104.669438 
L 1054.16485 1096.040461 
L 1053.985075 1089.722708 
L 1053.629617 1083.560858 
L 1053.09386 1077.576277 
L 1052.374077 1071.789694 
L 1051.467457 1066.220736 
L 1050.37213 1060.887486 
L 1049.087178 1055.806053 
L 1047.612644 1050.990194 
L 1045.94953 1046.450983 
L 1044.099785 1042.196551 
L 1042.066281 1038.231895 
L 1039.852788 1034.558782 
L 1037.463928 1031.175727 
L 1034.905138 1028.07808 
L 1032.182618 1025.258191 
L 1029.303282 1022.705673 
L 1026.274707 1020.407745 
L 1023.105086 1018.34965 
L 1019.803187 1016.515141 
L 1016.378313 1014.887016 
L 1012.840276 1013.447688 
L 1009.199369 1012.179775 
L 1004.203476 1010.727393 
L 999.070662 1009.515148 
L 993.829113 1008.514287 
L 988.508403 1007.704449 
L 983.139433 1007.075072 
L 977.754323 1006.626248 
L 972.386223 1006.368951 
L 967.069017 1006.324633 
L 961.836911 1006.524186 
L 957.989148 1006.856949 
L 954.222429 1007.367122 
L 950.550332 1008.074524 
L 946.985772 1008.999601 
L 943.540785 1010.162772 
L 940.226309 1011.583764 
L 937.051957 1013.280962 
L 935.017625 1014.574082 
L 933.051164 1016.001567 
L 931.154172 1017.567102 
L 929.327854 1019.273736 
L 927.573003 1021.123826 
L 925.88998 1023.118987 
L 923.49982 1026.385349 
L 921.268781 1029.979194 
L 919.192331 1033.895652 
L 917.263618 1038.12556 
L 915.473532 1042.655513 
L 913.810824 1047.468014 
L 912.262273 1052.541717 
L 910.349001 1059.669518 
L 908.572357 1067.149644 
L 906.06901 1078.863639 
L 900.64537 1105.034664 
L 898.320277 1114.904338 
L 896.289913 1122.550769 
L 894.0785 1129.893649 
L 892.288564 1135.159876 
L 890.37904 1140.190018 
L 888.346013 1144.960139 
L 886.187697 1149.448923 
L 883.904333 1153.637776 
L 881.498035 1157.510907 
L 878.972589 1161.05538 
L 876.333229 1164.261142 
L 873.586378 1167.121041 
L 870.739376 1169.630816 
L 867.800201 1171.78907 
L 865.793656 1173.033209 
L 863.752356 1174.122804 
L 861.678791 1175.059496 
L 859.575407 1175.845451 
L 856.369584 1176.747726 
L 853.109554 1177.328017 
L 849.802228 1177.599683 
L 846.453744 1177.578197 
L 843.069386 1177.280919 
L 839.653549 1176.726823 
L 836.209748 1175.936202 
L 832.740668 1174.930326 
L 828.079169 1173.292173 
L 823.379042 1171.362532 
L 818.641873 1169.192582 
L 812.669786 1166.215371 
L 805.432392 1162.362936 
L 794.454149 1156.232799 
L 783.403238 1149.834276 
L 774.850813 1144.64379 
L 768.824312 1140.751623 
L 764.085511 1137.477229 
L 759.446252 1134.016942 
L 754.932064 1130.328032 
L 751.644196 1127.385291 
L 748.452399 1124.271973 
L 745.36758 1120.971542 
L 742.400405 1117.469071 
L 739.561191 1113.751719 
L 736.859824 1109.809138 
L 734.305692 1105.633833 
L 731.90763 1101.221449 
L 729.673887 1096.57098 
L 727.61211 1091.684913 
L 725.729338 1086.56928 
L 724.032004 1081.233641 
L 722.525953 1075.690997 
L 721.216452 1069.957632 
L 720.108206 1064.052902 
L 719.205373 1057.998963 
L 718.511565 1051.820472 
L 718.029845 1045.544251 
L 717.762711 1039.198926 
L 717.71207 1032.814559 
L 717.879195 1026.422282 
L 718.264682 1020.053925 
L 718.868381 1013.741664 
L 719.689336 1007.517683 
L 720.725714 1001.413855 
L 721.974731 995.461451 
L 723.432595 989.690867 
L 725.094443 984.131378 
L 726.9543 978.810912 
L 729.005059 973.755851 
L 731.238469 968.990835 
L 733.64516 964.538596 
L 736.214687 960.419792 
L 738.935605 956.652859 
L 740.827592 954.345085 
L 742.77754 952.20503 
L 744.781463 950.23632 
L 746.835264 948.442049 
L 748.934761 946.824758 
L 751.075712 945.38642 
L 753.253841 944.128423 
L 755.464868 943.05155 
L 757.704537 942.155972 
L 759.968647 941.441229 
L 762.253079 940.906219 
L 764.553827 940.54919 
L 766.867028 940.367729 
L 769.188987 940.358761 
L 771.516203 940.518547 
L 773.845396 940.842681 
L 776.173527 941.326102 
L 779.657729 942.33722 
L 783.125164 943.671777 
L 786.569143 945.304743 
L 789.984541 947.208199 
L 793.367817 949.351584 
L 796.716998 951.701984 
L 801.12893 955.09727 
L 806.562188 959.638341 
L 816.159964 968.106674 
L 822.4822 973.537253 
L 826.688907 976.891268 
L 830.90368 979.940812 
L 834.076502 981.98594 
L 837.263378 983.794372 
L 840.466811 985.343118 
L 843.688151 986.612402 
L 846.927478 987.585734 
L 850.18353 988.249895 
L 853.45366 988.594856 
L 856.733834 988.61363 
L 860.018658 988.302067 
L 863.301446 987.658594 
L 866.574314 986.683923 
L 869.828305 985.380718 
L 873.053541 983.753262 
L 876.23939 981.807108 
L 879.374662 979.548742 
L 882.447806 976.985275 
L 885.447126 974.124149 
L 888.360995 970.972904 
L 891.178073 967.538976 
L 893.887525 963.829558 
L 896.479225 959.851517 
L 898.943958 955.611371 
L 901.273605 951.115322 
L 903.461315 946.369351 
L 905.501663 941.379356 
L 907.390781 936.151343 
L 909.126482 930.691642 
L 910.708344 925.007163 
L 912.137791 919.105647 
L 913.418129 912.995934 
L 914.554573 906.688217 
L 915.858559 897.990519 
L 916.941586 888.994835 
L 917.831253 879.740262 
L 918.721805 867.878068 
L 919.564453 853.350427 
L 921.533581 816.985453 
L 922.46311 805.320088 
L 923.408214 796.310206 
L 924.577599 787.658033 
L 925.624527 781.439869 
L 926.832793 775.479316 
L 928.214661 769.796377 
L 929.780501 764.408152 
L 931.538665 759.328623 
L 933.495411 754.568491 
L 935.654853 750.135096 
L 937.20815 747.363111 
L 938.85251 744.738516 
L 940.58758 742.261011 
L 942.412608 739.929672 
L 944.326458 737.742972 
L 946.327622 735.698814 
L 948.414248 733.794561 
L 950.584153 732.027078 
L 952.834853 730.392766 
L 956.356282 728.182102 
L 960.042878 726.246861 
L 963.883237 724.570412 
L 967.865128 723.134934 
L 971.97571 721.921754 
L 976.201759 720.911684 
L 980.529871 720.085323 
L 986.436357 719.2359 
L 992.469452 718.633849 
L 998.599368 718.236064 
L 1006.355502 717.964271 
L 1015.735416 717.87257 
L 1031.357784 717.999594 
L 1048.257083 718.083936 
L 1057.258973 717.926537 
L 1064.613587 717.61269 
L 1071.817564 717.085955 
L 1077.462483 716.482278 
L 1082.994705 715.693122 
L 1088.407655 714.697524 
L 1093.695208 713.475467 
L 1098.851821 712.008232 
L 1102.630442 710.736574 
L 1106.33104 709.31091 
L 1109.952325 707.725514 
L 1113.493437 705.975482 
L 1116.954004 704.056803 
L 1120.334197 701.966433 
L 1123.634771 699.702364 
L 1126.857106 697.26368 
L 1130.003229 694.650611 
L 1133.075825 691.864583 
L 1136.078232 688.908264 
L 1139.979216 684.708626 
L 1143.773613 680.226481 
L 1147.474145 675.479264 
L 1151.094899 670.488993 
L 1155.531662 663.950682 
L 1160.765301 655.749427 
L 1168.53811 643.009842 
L 1176.352924 630.260856 
L 1180.754603 623.427097 
L 1185.213238 616.939743 
L 1188.823114 612.094617 
L 1192.469032 607.636546 
L 1195.22404 604.591771 
L 1197.993004 601.837348 
L 1200.771581 599.403055 
L 1203.554514 597.317221 
L 1206.335672 595.606275 
L 1208.185393 594.685915 
L 1210.029009 593.949389 
L 1211.864132 593.402549 
L 1213.688245 593.050586 
L 1215.498709 592.897981 
L 1217.292777 592.948459 
L 1219.067597 593.204947 
L 1220.820232 593.669541 
L 1222.547665 594.343475 
L 1224.24681 595.227097 
L 1225.914529 596.319855 
L 1227.547637 597.620285 
L 1229.142919 599.126009 
L 1230.69714 600.833744 
L 1232.207058 602.739311 
L 1233.669437 604.837661 
L 1235.766834 608.333535 
L 1237.739315 612.226457 
L 1239.576425 616.489423 
L 1241.268076 621.092102 
L 1242.804656 626.00131 
L 1244.177148 631.181552 
L 1245.377235 636.595599 
L 1246.397428 642.205106 
L 1247.231175 647.97124 
L 1247.872975 653.85533 
L 1248.318489 659.819497 
L 1248.564638 665.827271 
L 1248.60969 671.844183 
L 1248.453335 677.838303 
L 1248.09674 683.780734 
L 1247.542582 689.646038 
L 1246.795064 695.412596 
L 1245.859897 701.062885 
L 1244.744269 706.583676 
L 1243.456774 711.966146 
L 1242.007327 717.205901 
L 1240.407051 722.302913 
L 1238.668134 727.261376 
L 1236.156683 733.67183 
L 1233.455199 739.880418 
L 1230.59832 745.926669 
L 1226.862696 753.329469 
L 1212.142574 781.756407 
L 1209.147378 788.173893 
L 1206.249022 794.846903 
L 1203.47025 801.806057 
L 1200.832032 809.070739 
L 1198.353999 816.647963 
L 1196.054956 824.53167 
L 1193.953407 832.702472 
L 1192.068043 841.127878 
L 1190.418137 849.762991 
L 1189.023811 858.551681 
L 1187.906122 867.428183 
L 1187.262546 874.099253 
L 1186.796338 880.745496 
L 1186.517005 887.332794 
L 1186.433964 893.8266 
L 1186.556358 900.192606 
L 1186.892851 906.397428 
L 1187.451409 912.409279 
L 1188.239055 918.19863 
L 1189.261639 923.738844 
L 1190.523592 929.006754 
L 1192.02771 933.983189 
L 1193.774944 938.653427 
L 1195.074391 941.59171 
L 1196.480614 944.38771 
L 1197.992326 947.040772 
L 1199.607788 949.551288 
L 1201.324801 951.920705 
L 1203.140708 954.151516 
L 1205.052391 956.247252 
L 1207.056279 958.212454 
L 1210.226105 960.927841 
L 1213.578945 963.38469 
L 1217.097464 965.609841 
L 1220.762504 967.633954 
L 1224.553301 969.490916 
L 1229.764935 971.770171 
L 1237.806047 974.95437 
L 1247.293174 978.691147 
L 1252.651965 981.013571 
L 1256.597641 982.908265 
L 1260.454797 984.968299 
L 1264.201475 987.220567 
L 1267.816891 989.687819 
L 1271.281584 992.388329 
L 1274.577532 995.335668 
L 1277.68825 998.538603 
L 1280.598855 1002.001098 
L 1283.296119 1005.72244 
L 1285.768503 1009.697473 
L 1288.006175 1013.91693 
L 1290.00102 1018.367856 
L 1291.746653 1023.034111 
L 1293.238417 1027.896935 
L 1294.473391 1032.935551 
L 1295.450396 1038.127801 
L 1296.170007 1043.450785 
L 1296.634566 1048.881486 
L 1296.848202 1054.397365 
L 1296.816844 1059.976907 
L 1296.54824 1065.600105 
L 1296.051965 1071.248865 
L 1295.339423 1076.907319 
L 1294.423833 1082.562047 
L 1293.320198 1088.202195 
L 1291.585344 1095.685774 
L 1289.590363 1103.116207 
L 1287.384265 1110.487687 
L 1284.411135 1119.619358 
L 1279.420961 1134.060344 
L 1274.565012 1148.330981 
L 1271.811834 1157.169372 
L 1269.856377 1164.185787 
L 1268.177116 1171.138188 
L 1267.127239 1176.297501 
L 1266.276536 1181.396759 
L 1265.640224 1186.422196 
L 1265.231143 1191.358375 
L 1265.059615 1196.188562 
L 1265.13335 1200.895177 
L 1265.457385 1205.460297 
L 1266.034079 1209.866196 
L 1266.863142 1214.095912 
L 1267.941709 1218.133791 
L 1269.264453 1221.966025 
L 1270.823742 1225.581121 
L 1272.609819 1228.97032 
L 1274.611019 1232.127921 
L 1276.814012 1235.051503 
L 1279.204058 1237.742043 
L 1281.765287 1240.203917 
L 1284.480981 1242.444771 
L 1287.333865 1244.47529 
L 1290.306398 1246.308848 
L 1293.381056 1247.961068 
L 1296.540609 1249.449301 
L 1300.856703 1251.210571 
L 1305.256979 1252.758237 
L 1310.824689 1254.459127 
L 1317.531753 1256.257959 
L 1327.499855 1258.662186 
L 1339.382813 1261.292224 
L 1346.779399 1262.730329 
L 1353.063529 1263.72134 
L 1358.298131 1264.31624 
L 1363.563374 1264.659498 
L 1367.81692 1264.736343 
L 1373.205177 1264.581204 
L 1378.686492 1264.164964 
L 1385.390659 1263.38646 
L 1405.945881 1260.701344 
L 1410.441488 1260.415725 
L 1414.83064 1260.383415 
L 1418.025702 1260.562104 
L 1421.115914 1260.940842 
L 1424.081321 1261.540484 
L 1426.902168 1262.37903 
L 1429.559311 1263.471354 
L 1432.034639 1264.829032 
L 1433.57554 1265.885762 
L 1435.023671 1267.065751 
L 1436.374921 1268.369961 
L 1437.625622 1269.798736 
L 1438.772585 1271.351827 
L 1439.81313 1273.028431 
L 1440.745115 1274.827231 
L 1441.56695 1276.746444 
L 1442.591102 1279.846111 
L 1443.364251 1283.202711 
L 1443.888291 1286.805807 
L 1444.167926 1290.643846 
L 1444.210522 1294.704503 
L 1444.025872 1298.974986 
L 1443.625911 1303.442279 
L 1443.02437 1308.093325 
L 1441.93507 1314.558117 
L 1440.55288 1321.295969 
L 1438.917551 1328.276445 
L 1436.576995 1337.29606 
L 1433.426694 1348.46643 
L 1429.408764 1361.820373 
L 1425.129771 1375.299202 
L 1421.297911 1386.738974 
L 1417.991858 1396.033106 
L 1414.570197 1404.965609 
L 1411.735329 1411.754077 
L 1408.799292 1418.142459 
L 1406.522373 1422.625866 
L 1404.174833 1426.811287 
L 1401.751407 1430.669854 
L 1399.247581 1434.175068 
L 1396.659811 1437.303443 
L 1394.886758 1439.169702 
L 1393.074897 1440.854701 
L 1391.224086 1442.354475 
L 1389.334448 1443.666018 
L 1387.406375 1444.787341 
L 1385.440526 1445.717514 
L 1383.437819 1446.456707 
L 1381.399418 1447.006211 
L 1379.326724 1447.36846 
L 1377.221355 1447.547036 
L 1375.085124 1447.546664 
L 1372.920017 1447.373194 
L 1370.728171 1447.033585 
L 1367.395232 1446.230487 
L 1364.015227 1445.103183 
L 1360.596413 1443.687702 
L 1357.147098 1442.024236 
L 1352.514607 1439.496488 
L 1346.695713 1435.996204 
L 1331.615984 1426.693657 
L 1327.029491 1424.216763 
L 1323.611625 1422.590844 
L 1320.212806 1421.204135 
L 1316.832173 1420.087984 
L 1313.468009 1419.268437 
L 1310.117843 1418.765827 
L 1307.890667 1418.614159 
L 1305.667302 1418.612566 
L 1303.446626 1418.76253 
L 1301.227464 1419.064289 
L 1297.898918 1419.799031 
L 1294.566972 1420.864299 
L 1291.227668 1422.245646 
L 1287.877366 1423.922958 
L 1284.512922 1425.870838 
L 1281.131875 1428.059072 
L 1276.595346 1431.29043 
L 1270.878239 1435.703072 
L 1252.384209 1450.318262 
L 1247.791993 1453.523533 
L 1244.385359 1455.678221 
L 1241.025061 1457.5751 
L 1237.725021 1459.177719 
L 1234.50001 1460.453113 
L 1231.365406 1461.372149 
L 1229.333645 1461.774332 
L 1227.353709 1462.000575 
L 1225.430226 1462.045402 
L 1223.567739 1461.904227 
L 1223.567739 1461.904227 
" clip-path="url(#pea3f23cd6a)" style="fill: none; stroke: #ff8c00; stroke-width: 3; stroke-linecap: square"/>
   </g>
  </g>
 </g>
 <defs>
  <clipPath id="pea3f23cd6a">
   <rect x="270" y="259.2" width="1674" height="1630.8"/>
  </clipPath>
 </defs>
</svg>
