<?xml version="1.0" encoding="utf-8" standalone="no"?>
<!DOCTYPE svg PUBLIC "-//W3C//DTD SVG 1.1//EN"
  "http://www.w3.org/Graphics/SVG/1.1/DTD/svg11.dtd">
<svg xmlns:xlink="http://www.w3.org/1999/xlink" width="2160pt" height="2160pt" viewBox="0 0 2160 2160" xmlns="http://www.w3.org/2000/svg" version="1.1">
 <metadata>
  <rdf:RDF xmlns:dc="http://purl.org/dc/elements/1.1/" xmlns:cc="http://creativecommons.org/ns#" xmlns:rdf="http://www.w3.org/1999/02/22-rdf-syntax-ns#">
   <cc:Work>
    <dc:type rdf:resource="http://purl.org/dc/dcmitype/StillImage"/>
    <dc:date>2022-03-06T19:21:04.947368</dc:date>
    <dc:format>image/svg+xml</dc:format>
    <dc:creator>
     <cc:Agent>
      <dc:title>Matplotlib v3.5.1, https://matplotlib.org/</dc:title>
     </cc:Agent>
    </dc:creator>
   </cc:Work>
  </rdf:RDF>
 </metadata>
 <defs>
  <style type="text/css">*{stroke-linejoin: round; stroke-linecap: butt}</style>
 </defs>
 <g id="figure_1">
  <g id="patch_1">
   <path d="M 0 2160 
L 2160 2160 
L 2160 0 
L 0 0 
L 0 2160 
z
" style="fill: none"/>
  </g>
  <g id="axes_1">
   <g id="line2d_1">
    <path d="M 1257.636748 1371.868297 
L 1255.340905 1371.540585 
L 1253.138416 1371.06427 
L 1251.034339 1370.43824 
L 1249.033353 1369.662054 
L 1247.139704 1368.735935 
L 1245.357144 1367.660749 
L 1243.68889 1366.437982 
L 1242.137566 1365.069724 
L 1240.705168 1363.558632 
L 1239.393022 1361.907906 
L 1238.201754 1360.121256 
L 1237.131261 1358.202864 
L 1236.180693 1356.157351 
L 1235.348441 1353.98974 
L 1234.316492 1350.521251 
L 1233.533973 1346.809702 
L 1232.985834 1342.875897 
L 1232.653373 1338.741655 
L 1232.514466 1334.429522 
L 1232.586292 1328.443058 
L 1232.889706 1322.236104 
L 1233.615312 1312.630981 
L 1234.774959 1297.907102 
L 1235.107597 1291.365851 
L 1235.216435 1284.888656 
L 1235.107636 1280.096815 
L 1234.804605 1275.378941 
L 1234.282372 1270.74954 
L 1233.519036 1266.22215 
L 1232.496045 1261.809412 
L 1231.198411 1257.523158 
L 1229.614869 1253.374505 
L 1227.737975 1249.373959 
L 1226.321808 1246.794168 
L 1224.77347 1244.287516 
L 1223.093595 1241.856799 
L 1221.283547 1239.504755 
L 1219.345404 1237.23408 
L 1217.281933 1235.047435 
L 1213.959407 1231.930782 
L 1210.376932 1229.017927 
L 1206.551573 1226.317592 
L 1202.502954 1223.838419 
L 1198.252898 1221.588936 
L 1193.825025 1219.577507 
L 1189.244337 1217.812251 
L 1184.536771 1216.300927 
L 1179.728752 1215.050805 
L 1174.846731 1214.068506 
L 1169.91673 1213.359819 
L 1164.963895 1212.929506 
L 1160.012071 1212.781089 
L 1155.083403 1212.91663 
L 1150.197977 1213.336505 
L 1145.373497 1214.039181 
L 1140.625029 1215.021011 
L 1135.964793 1216.27603 
L 1131.402027 1217.795797 
L 1126.942924 1219.569247 
L 1122.590641 1221.582603 
L 1118.345383 1223.81932 
L 1114.204568 1226.260082 
L 1110.163062 1228.882863 
L 1106.213481 1231.663031 
L 1101.074144 1235.567635 
L 1094.816851 1240.666389 
L 1075.42612 1256.882001 
L 1070.604637 1260.482807 
L 1066.977112 1262.963406 
L 1063.338855 1265.220985 
L 1059.692139 1267.226939 
L 1056.042211 1268.955295 
L 1052.397283 1270.383065 
L 1048.76843 1271.490548 
L 1045.169395 1272.261562 
L 1042.794486 1272.582322 
L 1040.445265 1272.745145 
L 1038.12739 1272.748021 
L 1035.846811 1272.589691 
L 1033.609712 1272.269644 
L 1031.422443 1271.788101 
L 1029.291454 1271.145991 
L 1027.223222 1270.34493 
L 1025.224187 1269.387186 
L 1023.300675 1268.275645 
L 1021.458839 1267.013768 
L 1019.704586 1265.605544 
L 1018.043514 1264.055446 
L 1016.480858 1262.368374 
L 1015.021432 1260.549606 
L 1013.669579 1258.604738 
L 1012.429127 1256.53963 
L 1011.303352 1254.36035 
L 1010.294948 1252.073111 
L 1009.006799 1248.453642 
L 1007.991656 1244.626861 
L 1007.250661 1240.61395 
L 1006.781725 1236.435515 
L 1006.579599 1232.111251 
L 1006.636022 1227.659654 
L 1006.939911 1223.097782 
L 1007.477616 1218.441077 
L 1008.233201 1213.703235 
L 1009.18876 1208.89615 
L 1010.739925 1202.396163 
L 1012.561898 1195.809896 
L 1015.139992 1187.476743 
L 1018.535188 1177.352894 
L 1027.329707 1151.551684 
L 1030.022524 1142.824844 
L 1031.989917 1135.815395 
L 1033.748066 1128.796012 
L 1035.260285 1121.785159 
L 1036.492843 1114.805937 
L 1037.21511 1109.608743 
L 1037.750817 1104.458024 
L 1038.089047 1099.368157 
L 1038.21987 1094.354478 
L 1038.134376 1089.433022 
L 1037.824705 1084.620237 
L 1037.284094 1079.932656 
L 1036.506912 1075.386562 
L 1035.4887 1070.997628 
L 1034.226202 1066.780566 
L 1032.717395 1062.748789 
L 1030.961499 1058.914096 
L 1028.958988 1055.286388 
L 1026.711581 1051.873434 
L 1024.22222 1048.680688 
L 1021.495041 1045.711166 
L 1018.535328 1042.96539 
L 1015.349464 1040.441399 
L 1011.944867 1038.134838 
L 1008.329929 1036.039105 
L 1004.51395 1034.145582 
L 1000.507072 1032.44391 
L 996.320222 1030.922334 
L 991.965057 1029.568089 
L 987.453916 1028.367816 
L 981.218978 1026.983667 
L 974.762421 1025.818343 
L 968.118647 1024.843764 
L 959.606057 1023.858575 
L 950.932502 1023.10311 
L 942.17697 1022.56356 
L 933.422181 1022.246192 
L 924.753667 1022.177331 
L 917.939364 1022.330551 
L 911.280154 1022.700751 
L 904.819134 1023.322077 
L 900.128156 1023.974898 
L 895.58783 1024.805339 
L 891.212909 1025.828778 
L 887.016522 1027.059732 
L 883.009883 1028.51136 
L 879.202018 1030.195011 
L 875.599516 1032.119812 
L 872.206309 1034.292311 
L 869.023494 1036.716184 
L 866.049211 1039.39202 
L 863.27857 1042.317175 
L 860.703649 1045.485712 
L 858.313549 1048.888413 
L 856.094529 1052.512875 
L 854.030195 1056.34367 
L 852.101766 1060.362571 
L 849.705645 1065.977539 
L 847.459944 1071.834723 
L 844.247142 1080.941351 
L 838.818722 1096.430226 
L 836.45963 1102.541154 
L 833.920492 1108.507305 
L 831.87411 1112.850688 
L 829.690702 1117.055146 
L 827.359486 1121.09862 
L 824.872519 1124.960825 
L 822.224701 1128.623383 
L 819.413707 1132.069926 
L 816.439851 1135.286179 
L 813.305883 1138.260017 
L 810.016738 1140.981507 
L 806.579232 1143.442931 
L 803.001729 1145.638797 
L 799.293789 1147.565832 
L 795.465803 1149.222967 
L 791.528634 1150.611297 
L 787.493269 1151.73404 
L 783.370499 1152.596463 
L 779.170641 1153.2058 
L 774.903286 1153.571143 
L 770.577117 1153.703307 
L 766.199765 1153.614678 
L 761.777726 1153.319021 
L 757.31634 1152.83127 
L 751.313741 1151.909637 
L 745.255683 1150.714062 
L 739.14656 1149.284672 
L 731.441919 1147.229351 
L 722.099675 1144.4644 
L 709.490365 1140.444704 
L 691.945338 1134.573123 
L 677.577834 1129.538765 
L 668.118897 1126.001932 
L 660.387627 1122.877912 
L 654.345448 1120.221061 
L 648.466162 1117.38867 
L 642.783762 1114.347584 
L 638.671638 1111.910608 
L 634.703514 1109.325988 
L 630.893145 1106.582759 
L 627.253792 1103.671665 
L 623.798124 1100.585465 
L 620.538132 1097.319184 
L 617.485073 1093.870321 
L 614.649431 1090.238989 
L 612.040902 1086.428003 
L 609.668389 1082.4429 
L 607.540014 1078.291914 
L 605.663134 1073.985882 
L 604.044363 1069.538113 
L 602.689592 1064.96421 
L 601.603998 1060.281852 
L 600.792049 1055.510556 
L 600.257491 1050.671407 
L 600.003325 1045.786784 
L 600.031767 1040.880077 
L 600.34419 1035.975395 
L 600.941053 1031.097299 
L 601.821823 1026.270522 
L 602.984883 1021.519724 
L 604.427443 1016.869246 
L 606.14545 1012.342897 
L 608.133504 1007.963748 
L 610.384797 1003.753952 
L 612.891057 999.734572 
L 615.642531 995.925435 
L 618.627981 992.344985 
L 621.834731 989.010159 
L 625.248728 985.936263 
L 627.632349 984.03873 
L 630.096476 982.266793 
L 632.636092 980.623632 
L 635.246003 979.112033 
L 637.920877 977.734369 
L 642.043053 975.923154 
L 646.280442 974.422314 
L 650.614243 973.23427 
L 655.025816 972.359054 
L 659.496976 971.794222 
L 664.010279 971.534806 
L 668.549305 971.573267 
L 673.098917 971.899481 
L 677.645495 972.500756 
L 682.177137 973.361878 
L 686.683815 974.465189 
L 691.157491 975.790715 
L 695.592176 977.316321 
L 699.983945 979.017911 
L 705.769864 981.515616 
L 711.477059 984.21506 
L 719.904987 988.492506 
L 736.443566 997.002776 
L 741.922389 999.57803 
L 747.411716 1001.919508 
L 751.544005 1003.489782 
L 755.694596 1004.878319 
L 759.866753 1006.067465 
L 764.06223 1007.042037 
L 768.281135 1007.789373 
L 772.521823 1008.299324 
L 776.780846 1008.56419 
L 781.052949 1008.578604 
L 785.331109 1008.339382 
L 789.606617 1007.845316 
L 793.869206 1007.096951 
L 798.107209 1006.096335 
L 802.307761 1004.846754 
L 806.457016 1003.352473 
L 810.540399 1001.618472 
L 814.542867 999.65021 
L 818.449186 997.453403 
L 822.244213 995.033838 
L 825.913181 992.397226 
L 829.441975 989.549089 
L 832.81741 986.4947 
L 836.027482 983.239063 
L 839.061617 979.786941 
L 841.910895 976.142926 
L 844.568246 972.311547 
L 847.028637 968.297413 
L 849.289216 964.105388 
L 851.349437 959.740775 
L 853.211151 955.209518 
L 854.878665 950.518405 
L 856.358771 945.675262 
L 857.660733 940.689127 
L 858.796244 935.570403 
L 860.075933 928.559954 
L 861.124335 921.367605 
L 862.179885 912.178984 
L 863.207922 900.974025 
L 865.042757 880.458041 
L 865.895017 873.182147 
L 866.942082 866.091023 
L 867.889768 860.925664 
L 869.00187 855.914885 
L 870.299299 851.078338 
L 871.801013 846.434009 
L 873.523768 841.997953 
L 875.48191 837.784065 
L 876.924031 835.104037 
L 878.47888 832.530748 
L 880.148733 830.066506 
L 881.935319 827.71311 
L 883.839809 825.471845 
L 885.862825 823.343481 
L 888.004442 821.328284 
L 890.264201 819.426025 
L 892.64112 817.635994 
L 895.133721 815.957019 
L 897.740041 814.387489 
L 901.857344 812.233871 
L 906.215068 810.31344 
L 910.801384 808.616065 
L 915.602811 807.130163 
L 920.604502 805.842965 
L 925.790522 804.740787 
L 931.144151 803.809293 
L 936.648163 803.033748 
L 944.190607 802.216536 
L 951.928189 801.615009 
L 961.813615 801.114484 
L 971.867284 800.834336 
L 984.058937 800.706968 
L 1002.39851 800.756758 
L 1032.46304 800.852902 
L 1046.070938 800.662797 
L 1057.450138 800.279828 
L 1066.705718 799.761384 
L 1075.735466 799.026872 
L 1082.7853 798.26244 
L 1089.671817 797.32413 
L 1096.387798 796.197568 
L 1102.92702 794.869661 
L 1109.284549 793.32888 
L 1115.457062 791.565548 
L 1121.443166 789.572099 
L 1127.243689 787.343311 
L 1132.861927 784.876519 
L 1138.303803 782.171798 
L 1143.577943 779.232122 
L 1148.695638 776.063511 
L 1153.670696 772.675171 
L 1158.51918 769.079637 
L 1163.259032 765.292917 
L 1169.060659 760.32096 
L 1174.76237 755.128056 
L 1182.652218 747.596449 
L 1198.466455 732.365312 
L 1204.213318 727.162959 
L 1208.865045 723.20281 
L 1213.566554 719.482663 
L 1218.315003 716.0597 
L 1221.90313 713.721885 
L 1225.509433 711.607005 
L 1229.128256 709.737924 
L 1232.752752 708.136395 
L 1236.374936 706.82271 
L 1239.985765 705.815353 
L 1243.575211 705.130662 
L 1245.950939 704.86042 
L 1248.308891 704.743249 
L 1250.645487 704.782006 
L 1252.957016 704.978941 
L 1255.239651 705.335662 
L 1257.489462 705.853117 
L 1259.702431 706.531573 
L 1261.874471 707.370605 
L 1264.001433 708.369091 
L 1266.079131 709.525205 
L 1268.103351 710.836425 
L 1270.069871 712.299543 
L 1271.974475 713.910682 
L 1273.81297 715.665315 
L 1276.437696 718.554897 
L 1278.890606 721.735816 
L 1281.158388 725.185595 
L 1283.228301 728.879442 
L 1285.088324 732.790648 
L 1286.727307 736.89102 
L 1288.135118 741.151347 
L 1289.302799 745.541885 
L 1290.222716 750.032844 
L 1290.888698 754.594884 
L 1291.296173 759.199592 
L 1291.44229 763.819942 
L 1291.326019 768.430722 
L 1290.94823 773.00893 
L 1290.311753 777.534116 
L 1289.421398 781.988677 
L 1288.283953 786.35809 
L 1286.908146 790.631086 
L 1285.304571 794.799757 
L 1283.485583 798.859598 
L 1281.465162 802.809479 
L 1279.25874 806.651557 
L 1276.883016 810.391118 
L 1274.355733 814.036371 
L 1270.782431 818.769123 
L 1267.018224 823.38586 
L 1262.114962 829.051862 
L 1244.929069 848.546392 
L 1241.001535 853.429345 
L 1237.192301 858.501398 
L 1233.531646 863.788047 
L 1230.047409 869.306424 
L 1227.565664 873.602356 
L 1225.208226 878.032891 
L 1222.985315 882.594452 
L 1220.907084 887.280214 
L 1218.983764 892.080164 
L 1217.225791 896.981211 
L 1215.643914 901.967372 
L 1214.249249 907.020013 
L 1213.053304 912.118157 
L 1212.06796 917.23883 
L 1211.305392 922.357475 
L 1210.777955 927.448394 
L 1210.498019 932.485223 
L 1210.477754 937.441441 
L 1210.728893 942.290885 
L 1211.26245 947.008271 
L 1212.088423 951.569718 
L 1212.805874 954.513099 
L 1213.659355 957.371408 
L 1214.650679 960.139224 
L 1215.781259 962.81171 
L 1217.052064 965.38466 
L 1218.463589 967.854543 
L 1220.015825 970.218544 
L 1221.708226 972.474594 
L 1223.539693 974.621398 
L 1225.508549 976.658451 
L 1227.612529 978.586057 
L 1229.84877 980.405324 
L 1232.21381 982.118168 
L 1234.703589 983.7273 
L 1238.661813 985.954372 
L 1242.872003 987.971017 
L 1247.313305 989.795673 
L 1251.962322 991.449971 
L 1256.793369 992.958329 
L 1263.469864 994.788944 
L 1272.094159 996.883625 
L 1293.22212 1001.83237 
L 1300.13461 1003.700032 
L 1306.859771 1005.779674 
L 1311.73945 1007.508993 
L 1316.448174 1009.40338 
L 1320.960595 1011.476865 
L 1325.253243 1013.739868 
L 1329.304647 1016.199121 
L 1333.095423 1018.857667 
L 1336.608345 1021.71496 
L 1338.788416 1023.728414 
L 1340.834364 1025.826541 
L 1342.742728 1028.006791 
L 1344.510488 1030.26608 
L 1346.135066 1032.60084 
L 1347.614334 1035.007075 
L 1348.946603 1037.48042 
L 1350.130637 1040.016207 
L 1351.165642 1042.609522 
L 1352.051276 1045.255277 
L 1352.787647 1047.948269 
L 1353.375317 1050.683249 
L 1353.815304 1053.454979 
L 1354.201736 1057.670221 
L 1354.266251 1061.939739 
L 1354.018149 1066.247749 
L 1353.469107 1070.579837 
L 1352.633184 1074.923227 
L 1351.52681 1079.266974 
L 1350.168758 1083.602084 
L 1348.580085 1087.921547 
L 1346.784047 1092.220297 
L 1344.110829 1097.914387 
L 1341.179496 1103.562825 
L 1337.260164 1110.560685 
L 1323.038568 1135.289505 
L 1320.336918 1140.696726 
L 1318.521408 1144.724782 
L 1316.917331 1148.723211 
L 1315.54997 1152.684596 
L 1314.442013 1156.599869 
L 1313.613279 1160.458461 
L 1313.080491 1164.24852 
L 1312.857093 1167.957197 
L 1312.953125 1171.570995 
L 1313.197992 1173.920684 
L 1313.588897 1176.218027 
L 1314.126237 1178.459054 
L 1314.809727 1180.639937 
L 1315.638424 1182.757049 
L 1316.610736 1184.807015 
L 1317.724451 1186.786769 
L 1318.976763 1188.693592 
L 1320.364301 1190.525167 
L 1321.883165 1192.279606 
L 1324.397968 1194.763659 
L 1327.181594 1197.068361 
L 1330.215419 1199.19359 
L 1333.479224 1201.14184 
L 1336.951561 1202.918162 
L 1340.610132 1204.530006 
L 1344.432165 1205.986989 
L 1348.394787 1207.300572 
L 1353.85799 1208.85145 
L 1359.479277 1210.203775 
L 1366.654802 1211.667548 
L 1375.374034 1213.177066 
L 1386.995285 1214.924791 
L 1404.081648 1217.241531 
L 1416.549502 1218.753339 
L 1426.111292 1219.697632 
L 1434.291084 1220.266469 
L 1441.148545 1220.530027 
L 1448.082972 1220.582201 
L 1455.123735 1220.421224 
L 1463.735987 1219.973422 
L 1474.002407 1219.193962 
L 1493.385172 1217.658049 
L 1500.749699 1217.310098 
L 1506.506143 1217.23215 
L 1512.080367 1217.383997 
L 1516.105063 1217.674797 
L 1519.967215 1218.135209 
L 1523.64109 1218.779055 
L 1527.101758 1219.617756 
L 1530.325628 1220.660197 
L 1533.290975 1221.912685 
L 1535.978419 1223.378966 
L 1537.607334 1224.475997 
L 1539.10114 1225.668479 
L 1540.456348 1226.955797 
L 1541.670166 1228.336938 
L 1542.740526 1229.810533 
L 1543.6661 1231.37489 
L 1544.446311 1233.028031 
L 1545.081334 1234.767735 
L 1545.572084 1236.591573 
L 1545.920205 1238.496948 
L 1546.180267 1241.501891 
L 1546.135525 1244.674519 
L 1545.799711 1248.004934 
L 1545.1892 1251.483119 
L 1544.322547 1255.099058 
L 1543.219966 1258.842802 
L 1541.4198 1264.016208 
L 1539.289944 1269.375903 
L 1536.2416 1276.301275 
L 1532.850631 1283.431875 
L 1528.440644 1292.183594 
L 1522.954008 1302.525715 
L 1518.026486 1311.355632 
L 1513.775439 1318.573128 
L 1509.38213 1325.555722 
L 1505.749177 1330.899669 
L 1501.993445 1335.965642 
L 1499.085154 1339.547603 
L 1496.089842 1342.916307 
L 1493.000177 1346.048654 
L 1489.809595 1348.923029 
L 1486.512609 1351.519804 
L 1483.105076 1353.821824 
L 1479.584399 1355.814877 
L 1477.1739 1356.966422 
L 1474.712832 1357.973441 
L 1472.201707 1358.834406 
L 1469.641382 1359.548605 
L 1467.033053 1360.116166 
L 1464.378236 1360.538082 
L 1460.312917 1360.9022 
L 1456.15449 1360.953048 
L 1451.911492 1360.705058 
L 1447.593439 1360.176939 
L 1443.210564 1359.391454 
L 1438.773539 1358.375106 
L 1434.293192 1357.157738 
L 1428.270476 1355.278784 
L 1420.69723 1352.637808 
L 1398.042887 1344.444374 
L 1392.08017 1342.605164 
L 1387.637056 1341.415075 
L 1383.218506 1340.417108 
L 1378.823014 1339.634015 
L 1374.448 1339.084362 
L 1370.089954 1338.782245 
L 1365.744608 1338.737091 
L 1361.407128 1338.95354 
L 1357.072318 1339.43141 
L 1352.734849 1340.165752 
L 1348.389481 1341.146978 
L 1344.031308 1342.361063 
L 1339.655995 1343.789824 
L 1333.78963 1345.990235 
L 1327.881248 1348.471312 
L 1320.435278 1351.859393 
L 1296.348624 1363.081116 
L 1290.367715 1365.542162 
L 1284.464516 1367.705469 
L 1280.112143 1369.089587 
L 1275.844553 1370.239021 
L 1271.681289 1371.129412 
L 1267.642559 1371.739424 
L 1263.748861 1372.05094 
L 1260.020567 1372.049206 
L 1258.818007 1371.976963 
L 1258.818007 1371.976963 
" clip-path="url(#p7772b8288d)" style="fill: none; stroke: #4169e1; stroke-width: 3; stroke-linecap: square"/>
   </g>
   <g id="line2d_2">
    <path d="M 1238.427249 1415.317241 
L 1236.424176 1414.94163 
L 1234.502553 1414.395697 
L 1232.666792 1413.678166 
L 1230.920976 1412.788532 
L 1229.268808 1411.727051 
L 1227.713565 1410.494714 
L 1226.258049 1409.093228 
L 1224.904553 1407.524984 
L 1223.654818 1405.793029 
L 1222.509999 1403.901032 
L 1221.470644 1401.853244 
L 1220.536662 1399.654458 
L 1219.331462 1396.084874 
L 1218.356222 1392.207335 
L 1217.602248 1388.043584 
L 1217.057504 1383.616997 
L 1216.706717 1378.952231 
L 1216.531552 1374.074889 
L 1216.534258 1367.28645 
L 1216.75433 1360.229575 
L 1217.351964 1349.27759 
L 1218.568069 1328.667245 
L 1218.847005 1319.324435 
L 1218.820417 1311.954549 
L 1218.615062 1306.516943 
L 1218.225436 1301.175327 
L 1217.631508 1295.945578 
L 1216.816095 1290.842518 
L 1215.765066 1285.880005 
L 1214.467498 1281.071041 
L 1212.915778 1276.427887 
L 1211.105652 1271.962189 
L 1209.036221 1267.68509 
L 1206.709881 1263.60735 
L 1204.132221 1259.73944 
L 1201.311872 1256.091631 
L 1198.260306 1252.674053 
L 1194.991602 1249.496737 
L 1191.522174 1246.569617 
L 1187.870457 1243.902517 
L 1184.056577 1241.505098 
L 1180.101988 1239.386768 
L 1176.02909 1237.556575 
L 1171.860843 1236.023057 
L 1167.62036 1234.794073 
L 1163.330513 1233.8766 
L 1159.013539 1233.276514 
L 1154.69066 1232.998355 
L 1150.381729 1233.045071 
L 1146.104903 1233.417766 
L 1141.876347 1234.115441 
L 1137.709997 1235.134748 
L 1133.617357 1236.46976 
L 1129.607365 1238.111767 
L 1125.686312 1240.049104 
L 1121.85783 1242.267027 
L 1118.122944 1244.747631 
L 1114.480193 1247.469835 
L 1110.92581 1250.409416 
L 1107.453978 1253.539118 
L 1102.939981 1257.955358 
L 1098.537475 1262.57722 
L 1092.089132 1269.706997 
L 1082.601778 1280.225837 
L 1078.401964 1284.58814 
L 1074.191925 1288.625558 
L 1071.023807 1291.387328 
L 1067.8467 1293.882245 
L 1064.663448 1296.07848 
L 1061.479499 1297.947362 
L 1058.302862 1299.463764 
L 1056.194236 1300.268209 
L 1054.09713 1300.901169 
L 1052.015625 1301.358186 
L 1049.954176 1301.63566 
L 1047.917573 1301.730853 
L 1045.910885 1301.641892 
L 1043.939413 1301.367764 
L 1042.008632 1300.908306 
L 1040.124133 1300.264179 
L 1038.291563 1299.436846 
L 1036.516565 1298.42854 
L 1034.804715 1297.242218 
L 1033.161465 1295.881524 
L 1031.592081 1294.350734 
L 1030.101591 1292.654704 
L 1028.694727 1290.798815 
L 1027.375877 1288.788906 
L 1026.149041 1286.631218 
L 1025.017788 1284.332324 
L 1023.50678 1280.634249 
L 1022.226055 1276.65779 
L 1021.181285 1272.427371 
L 1020.375353 1267.96748 
L 1019.808314 1263.30222 
L 1019.477414 1258.454901 
L 1019.377183 1253.447672 
L 1019.49957 1248.301211 
L 1019.834134 1243.034472 
L 1020.368271 1237.664497 
L 1021.365584 1230.369596 
L 1022.652965 1222.947469 
L 1024.187752 1215.421548 
L 1026.384899 1205.894333 
L 1029.308927 1194.315109 
L 1037.974365 1160.803114 
L 1040.28324 1150.790176 
L 1042.347207 1140.740234 
L 1043.777709 1132.696805 
L 1044.978606 1124.675726 
L 1045.921756 1116.706111 
L 1046.581611 1108.822093 
L 1046.87671 1102.988288 
L 1046.99085 1097.241806 
L 1046.916258 1091.601027 
L 1046.646077 1086.084801 
L 1046.174406 1080.712081 
L 1045.496332 1075.501527 
L 1044.607964 1070.471103 
L 1043.506463 1065.637671 
L 1042.190061 1061.016607 
L 1040.658081 1056.621433 
L 1038.910934 1052.463496 
L 1036.950121 1048.551703 
L 1034.778208 1044.892303 
L 1032.398804 1041.488754 
L 1029.81652 1038.341653 
L 1027.036924 1035.448754 
L 1024.066488 1032.805064 
L 1020.912534 1030.403018 
L 1017.583176 1028.232736 
L 1014.087263 1026.282346 
L 1010.434329 1024.538376 
L 1006.634543 1022.986193 
L 1002.698672 1021.610488 
L 998.638051 1020.395786 
L 993.050436 1019.000617 
L 987.291823 1017.831697 
L 981.393438 1016.860626 
L 975.388106 1016.065609 
L 967.783545 1015.29935 
L 960.135975 1014.780629 
L 952.518668 1014.525947 
L 946.497167 1014.537754 
L 940.582072 1014.772115 
L 934.811821 1015.26456 
L 930.601642 1015.82726 
L 926.508867 1016.575498 
L 922.547532 1017.527316 
L 918.730511 1018.700342 
L 915.069255 1020.111213 
L 911.573551 1021.775012 
L 908.251272 1023.704747 
L 906.1357 1025.144262 
L 904.100947 1026.709066 
L 902.14767 1028.40091 
L 900.27603 1030.22088 
L 897.620729 1033.191706 
L 895.14482 1036.44972 
L 892.842267 1039.989377 
L 890.70442 1043.801358 
L 888.720098 1047.872648 
L 886.875748 1052.186693 
L 885.15565 1056.723639 
L 883.02477 1063.079748 
L 881.037244 1069.729904 
L 878.215818 1080.106556 
L 873.017735 1099.620947 
L 870.421821 1108.352913 
L 868.161599 1115.138679 
L 865.702645 1121.673385 
L 863.712589 1126.372048 
L 861.588678 1130.870461 
L 859.325638 1135.146817 
L 856.920643 1139.181577 
L 854.373218 1142.95757 
L 851.685076 1146.460071 
L 848.859913 1149.676855 
L 845.903162 1152.598227 
L 842.821702 1155.217042 
L 839.623562 1157.528702 
L 836.317602 1159.531143 
L 832.913197 1161.2248 
L 829.419927 1162.612556 
L 825.847295 1163.699675 
L 822.204466 1164.49371 
L 818.500038 1165.004387 
L 814.741869 1165.243462 
L 810.936931 1165.224554 
L 807.091228 1164.962938 
L 803.209755 1164.475314 
L 799.296506 1163.779539 
L 795.354533 1162.894332 
L 790.057594 1161.452697 
L 784.716761 1159.754543 
L 777.98166 1157.339516 
L 769.815781 1154.119751 
L 760.181588 1150.068612 
L 746.269974 1143.964255 
L 733.725342 1138.22501 
L 725.45139 1134.206434 
L 718.67723 1130.668547 
L 713.374604 1127.667733 
L 708.20676 1124.475239 
L 704.437096 1121.932141 
L 700.772428 1119.244021 
L 697.225213 1116.395949 
L 693.807678 1113.374269 
L 690.531689 1110.167026 
L 687.408654 1106.764344 
L 684.449435 1103.158759 
L 681.664287 1099.345494 
L 679.062808 1095.322664 
L 676.653918 1091.091424 
L 674.445844 1086.65604 
L 672.446126 1082.023897 
L 670.661626 1077.20544 
L 669.098544 1072.214055 
L 667.762441 1067.065897 
L 666.658245 1061.779672 
L 665.790269 1056.376378 
L 665.162202 1050.879017 
L 664.777099 1045.312287 
L 664.637355 1039.702261 
L 664.744664 1034.076057 
L 665.099966 1028.461517 
L 665.70338 1022.88689 
L 666.554135 1017.380529 
L 667.650489 1011.970603 
L 668.989647 1006.684837 
L 670.56769 1001.550262 
L 672.379503 996.592992 
L 674.418723 991.838022 
L 676.677704 987.309041 
L 679.147503 983.028262 
L 681.817892 979.016265 
L 684.677402 975.291855 
L 687.713394 971.871921 
L 689.828709 969.768536 
L 692.012094 967.810983 
L 694.259093 966.002682 
L 696.565111 964.346592 
L 698.925441 962.845194 
L 701.335293 961.500477 
L 703.789822 960.31392 
L 706.284165 959.286482 
L 708.813467 958.418584 
L 711.372919 957.710099 
L 713.957788 957.160342 
L 716.563456 956.768057 
L 719.185448 956.531413 
L 721.819464 956.447996 
L 725.784149 956.603451 
L 729.753953 957.084193 
L 733.717474 957.874705 
L 737.66486 958.956601 
L 741.587931 960.308741 
L 745.480267 961.907383 
L 749.337243 963.72638 
L 753.156029 965.737424 
L 758.186688 968.665165 
L 763.14959 971.804845 
L 770.482038 976.738473 
L 782.502441 984.88919 
L 787.282441 987.897417 
L 792.068244 990.654149 
L 795.669088 992.518399 
L 799.284688 994.181705 
L 802.918293 995.62291 
L 806.571889 996.82366 
L 810.24606 997.768478 
L 813.939888 998.444775 
L 817.650891 998.842801 
L 821.375009 998.955533 
L 825.106622 998.77851 
L 828.838611 998.309619 
L 832.562457 997.548846 
L 836.268371 996.497998 
L 839.945456 995.160401 
L 843.581894 993.540604 
L 847.165156 991.644072 
L 850.682228 989.47691 
L 854.119845 987.045595 
L 857.464742 984.356756 
L 860.703898 981.416982 
L 863.824782 978.232687 
L 866.815595 974.810013 
L 869.665495 971.154799 
L 872.364818 967.272588 
L 874.90528 963.168697 
L 877.280156 958.848325 
L 879.484448 954.316704 
L 881.515018 949.579288 
L 883.370709 944.641962 
L 885.052434 939.511268 
L 886.56323 934.194639 
L 887.908302 928.700624 
L 889.095013 923.039098 
L 890.132868 917.221446 
L 891.30542 909.244513 
L 892.267037 901.049239 
L 893.231755 890.561969 
L 894.156658 877.745635 
L 896.070426 849.980816 
L 897.073539 839.648681 
L 898.090978 831.649791 
L 899.011341 825.844988 
L 900.087495 820.23257 
L 901.336573 814.833826 
L 902.773856 809.667925 
L 904.412581 804.751645 
L 906.263779 800.099139 
L 908.336157 795.721761 
L 909.843833 792.960646 
L 911.453926 790.327389 
L 913.16722 787.823166 
L 914.984017 785.448571 
L 916.904147 783.203622 
L 918.926981 781.087778 
L 921.051444 779.099959 
L 923.276031 777.238565 
L 925.598831 775.501512 
L 928.017546 773.886253 
L 931.819564 771.68513 
L 935.821023 769.739665 
L 940.010164 768.036583 
L 944.374028 766.561248 
L 948.898717 765.297974 
L 953.569641 764.230332 
L 958.37177 763.341434 
L 963.289877 762.614206 
L 970.001515 761.866683 
L 976.857022 761.336857 
L 985.577343 760.92311 
L 996.182729 760.700231 
L 1008.632443 760.681394 
L 1045.389399 760.806213 
L 1055.512311 760.569012 
L 1063.768835 760.184998 
L 1071.844125 759.590778 
L 1078.163215 758.938855 
L 1084.348597 758.1098 
L 1090.393174 757.085763 
L 1096.290464 755.849955 
L 1102.034798 754.386967 
L 1107.621565 752.68311 
L 1113.047487 750.726731 
L 1117.010305 749.088036 
L 1120.881657 747.299042 
L 1124.662173 745.357671 
L 1128.353183 743.262791 
L 1131.95674 741.014264 
L 1135.475646 738.612989 
L 1138.91345 736.060945 
L 1143.378526 732.429207 
L 1147.719155 728.545626 
L 1151.949351 724.424565 
L 1156.084767 720.084375 
L 1161.14656 714.385714 
L 1166.121177 708.433811 
L 1173.004896 699.801379 
L 1186.80247 682.344049 
L 1191.816482 676.381316 
L 1195.87501 671.842349 
L 1199.976974 667.578462 
L 1204.119891 663.655197 
L 1207.250453 660.975685 
L 1210.396873 658.551693 
L 1213.554217 656.409426 
L 1216.716509 654.573816 
L 1219.876786 653.068122 
L 1223.027154 651.913529 
L 1225.117609 651.348216 
L 1227.197001 650.952194 
L 1229.262399 650.729723 
L 1231.310742 650.684418 
L 1233.338847 650.819212 
L 1235.343424 651.136318 
L 1237.321087 651.637203 
L 1239.268368 652.322567 
L 1241.181729 653.192321 
L 1243.057576 654.245578 
L 1244.892271 655.480648 
L 1246.682148 656.895039 
L 1248.423525 658.485466 
L 1250.112719 660.247865 
L 1251.74606 662.177417 
L 1254.083394 665.372829 
L 1256.274785 668.910086 
L 1258.308477 672.764403 
L 1260.173175 676.908202 
L 1261.858166 681.311547 
L 1263.353456 685.942634 
L 1264.649892 690.768311 
L 1265.739305 695.754628 
L 1266.614632 700.867396 
L 1267.270052 706.072753 
L 1267.701098 711.337718 
L 1267.904772 716.630728 
L 1267.879635 721.922142 
L 1267.62589 727.184705 
L 1267.14543 732.393962 
L 1266.441876 737.528616 
L 1265.520577 742.570819 
L 1264.388589 747.506394 
L 1263.054622 752.324986 
L 1261.528955 757.020128 
L 1259.823327 761.589246 
L 1257.950798 766.03357 
L 1255.92559 770.35799 
L 1253.014195 775.952207 
L 1249.896568 781.376702 
L 1246.61238 786.668225 
L 1242.334392 793.162373 
L 1227.340079 815.506237 
L 1223.913392 821.102886 
L 1220.589919 826.916274 
L 1217.396078 832.975623 
L 1214.356157 839.30057 
L 1211.492792 845.900084 
L 1208.827528 852.771745 
L 1206.971255 858.096027 
L 1205.247147 863.555412 
L 1203.66424 869.136051 
L 1202.231813 874.820704 
L 1200.959453 880.588991 
L 1199.857088 886.417721 
L 1198.93498 892.281275 
L 1198.203674 898.152059 
L 1197.673913 904.000995 
L 1197.356503 909.798056 
L 1197.262142 915.512841 
L 1197.40122 921.115158 
L 1197.783584 926.575627 
L 1198.418281 931.866273 
L 1199.313297 936.961113 
L 1200.475276 941.836703 
L 1201.909255 946.472655 
L 1203.018004 949.421669 
L 1204.249529 952.252552 
L 1205.603821 954.962077 
L 1207.080404 957.547873 
L 1208.678319 960.008455 
L 1210.396102 962.343246 
L 1212.231778 964.552591 
L 1214.18285 966.637764 
L 1216.246295 968.600958 
L 1218.418572 970.445282 
L 1220.695624 972.174732 
L 1224.29755 974.564371 
L 1228.107438 976.726487 
L 1232.10559 978.684701 
L 1236.270236 980.465993 
L 1240.577783 982.100188 
L 1246.49985 984.106015 
L 1255.6371 986.908225 
L 1267.948733 990.691718 
L 1274.010863 992.781776 
L 1278.463719 994.494837 
L 1282.807535 996.361676 
L 1287.017783 998.404783 
L 1291.071329 1000.642894 
L 1294.946593 1003.090727 
L 1298.623667 1005.758824 
L 1302.084417 1008.653482 
L 1305.312555 1011.776803 
L 1307.32823 1013.985245 
L 1309.230293 1016.292987 
L 1311.015339 1018.697777 
L 1312.680344 1021.196694 
L 1314.222675 1023.786203 
L 1315.640085 1026.462213 
L 1316.930713 1029.220145 
L 1318.625829 1033.499606 
L 1320.029151 1037.933771 
L 1321.139338 1042.50314 
L 1321.957044 1047.18756 
L 1322.48493 1051.966774 
L 1322.727688 1056.820947 
L 1322.692055 1061.731147 
L 1322.386836 1066.679766 
L 1321.822911 1071.65088 
L 1321.013237 1076.630524 
L 1319.972837 1081.60689 
L 1318.718758 1086.570426 
L 1317.270022 1091.513849 
L 1315.071969 1098.065296 
L 1312.619623 1104.565618 
L 1309.287382 1112.617651 
L 1304.349705 1123.765497 
L 1298.0695 1137.923539 
L 1294.876183 1145.713248 
L 1292.58472 1151.899733 
L 1290.592858 1158.033756 
L 1289.328706 1162.589356 
L 1288.284547 1167.095771 
L 1287.478531 1171.541436 
L 1286.926169 1175.913223 
L 1286.640159 1180.196746 
L 1286.63026 1184.376735 
L 1286.903211 1188.437465 
L 1287.462708 1192.363226 
L 1288.309415 1196.138809 
L 1289.441041 1199.750003 
L 1290.852448 1203.184066 
L 1292.535815 1206.43016 
L 1294.480834 1209.47974 
L 1296.674944 1212.326864 
L 1299.103596 1214.968423 
L 1301.750542 1217.404277 
L 1304.59814 1219.637285 
L 1307.627678 1221.673235 
L 1310.819701 1223.520668 
L 1314.15434 1225.190604 
L 1317.611641 1226.696181 
L 1322.378165 1228.473736 
L 1327.282615 1230.023719 
L 1332.282722 1231.385721 
L 1338.609404 1232.882565 
L 1347.498282 1234.713138 
L 1360.043111 1237.023744 
L 1373.474021 1239.278991 
L 1381.849228 1240.477966 
L 1388.983415 1241.26768 
L 1394.941374 1241.706118 
L 1400.94762 1241.912841 
L 1407.032305 1241.873959 
L 1413.217227 1241.596146 
L 1420.783954 1240.991526 
L 1431.090086 1239.894764 
L 1442.815064 1238.676597 
L 1449.263486 1238.225899 
L 1454.317612 1238.079063 
L 1459.225629 1238.182401 
L 1462.779319 1238.454866 
L 1466.198749 1238.915882 
L 1469.461341 1239.582157 
L 1472.545058 1240.46772 
L 1475.428876 1241.583736 
L 1478.09325 1242.938419 
L 1479.738785 1243.976852 
L 1481.274233 1245.124605 
L 1482.695426 1246.381979 
L 1483.998739 1247.748755 
L 1485.181128 1249.224227 
L 1486.240157 1250.807237 
L 1487.174022 1252.496214 
L 1487.981565 1254.289218 
L 1488.662283 1256.183984 
L 1489.216326 1258.177964 
L 1489.8118 1261.348819 
L 1490.129555 1264.726432 
L 1490.177957 1268.299958 
L 1489.968136 1272.058138 
L 1489.513654 1275.989518 
L 1488.830113 1280.082608 
L 1487.93472 1284.325973 
L 1486.443106 1290.19796 
L 1484.652528 1296.290175 
L 1482.062151 1304.173891 
L 1479.157384 1312.304351 
L 1475.357616 1322.301539 
L 1470.610733 1334.143952 
L 1466.339538 1344.283575 
L 1461.902622 1354.232412 
L 1458.069556 1362.235588 
L 1454.899885 1368.360609 
L 1451.623091 1374.167028 
L 1449.085671 1378.272531 
L 1446.472327 1382.133607 
L 1443.776663 1385.723781 
L 1440.99295 1389.018277 
L 1438.116402 1391.994598 
L 1435.143405 1394.633083 
L 1433.106645 1396.196188 
L 1431.025669 1397.597931 
L 1428.900464 1398.835237 
L 1426.731325 1399.905904 
L 1424.518849 1400.808642 
L 1422.263932 1401.543113 
L 1419.96776 1402.109958 
L 1417.631793 1402.510816 
L 1415.257747 1402.748332 
L 1412.847576 1402.826162 
L 1410.403441 1402.748963 
L 1406.678732 1402.355084 
L 1402.891459 1401.648328 
L 1399.050702 1400.65626 
L 1395.165846 1399.410586 
L 1391.246332 1397.946675 
L 1385.982356 1395.722165 
L 1379.370249 1392.641788 
L 1362.2349 1384.455209 
L 1357.023191 1382.275452 
L 1353.139413 1380.844584 
L 1349.277278 1379.624229 
L 1345.435809 1378.641977 
L 1341.613053 1377.920745 
L 1337.806203 1377.47843 
L 1334.011739 1377.32764 
L 1330.225587 1377.475529 
L 1326.443299 1377.92373 
L 1322.660242 1378.668381 
L 1318.871795 1379.700241 
L 1315.073559 1381.004901 
L 1311.26156 1382.563068 
L 1307.432465 1384.350931 
L 1302.296239 1387.043299 
L 1297.122319 1390.018143 
L 1289.294235 1394.822339 
L 1276.142035 1402.959233 
L 1270.893359 1405.978165 
L 1265.689037 1408.721655 
L 1261.833886 1410.545971 
L 1258.036536 1412.132393 
L 1254.313158 1413.449829 
L 1250.680802 1414.47036 
L 1247.157099 1415.169532 
L 1243.759933 1415.526579 
L 1241.574247 1415.566029 
L 1239.457871 1415.441789 
L 1239.457871 1415.441789 
" clip-path="url(#p7772b8288d)" style="fill: none; stroke: #ff8c00; stroke-width: 3; stroke-linecap: square"/>
   </g>
  </g>
 </g>
 <defs>
  <clipPath id="p7772b8288d">
   <rect x="270" y="259.2" width="1674" height="1630.8"/>
  </clipPath>
 </defs>
</svg>
