<?xml version="1.0" encoding="utf-8" standalone="no"?>
<!DOCTYPE svg PUBLIC "-//W3C//DTD SVG 1.1//EN"
  "http://www.w3.org/Graphics/SVG/1.1/DTD/svg11.dtd">
<svg xmlns:xlink="http://www.w3.org/1999/xlink" width="2160pt" height="2160pt" viewBox="0 0 2160 2160" xmlns="http://www.w3.org/2000/svg" version="1.1">
 <metadata>
  <rdf:RDF xmlns:dc="http://purl.org/dc/elements/1.1/" xmlns:cc="http://creativecommons.org/ns#" xmlns:rdf="http://www.w3.org/1999/02/22-rdf-syntax-ns#">
   <cc:Work>
    <dc:type rdf:resource="http://purl.org/dc/dcmitype/StillImage"/>
    <dc:date>2022-03-06T19:21:01.856431</dc:date>
    <dc:format>image/svg+xml</dc:format>
    <dc:creator>
     <cc:Agent>
      <dc:title>Matplotlib v3.5.1, https://matplotlib.org/</dc:title>
     </cc:Agent>
    </dc:creator>
   </cc:Work>
  </rdf:RDF>
 </metadata>
 <defs>
  <style type="text/css">*{stroke-linejoin: round; stroke-linecap: butt}</style>
 </defs>
 <g id="figure_1">
  <g id="patch_1">
   <path d="M 0 2160 
L 2160 2160 
L 2160 0 
L 0 0 
L 0 2160 
z
" style="fill: none"/>
  </g>
  <g id="axes_1">
   <g id="line2d_1">
    <path d="M 1257.636748 1371.868297 
L 1255.340905 1371.540585 
L 1253.138416 1371.06427 
L 1251.034339 1370.43824 
L 1249.033353 1369.662054 
L 1247.139704 1368.735935 
L 1245.357144 1367.660749 
L 1243.68889 1366.437982 
L 1242.137566 1365.069724 
L 1240.705168 1363.558632 
L 1239.393022 1361.907906 
L 1238.201754 1360.121256 
L 1237.131261 1358.202864 
L 1236.180693 1356.157351 
L 1235.348441 1353.98974 
L 1234.316492 1350.521251 
L 1233.533973 1346.809702 
L 1232.985834 1342.875897 
L 1232.653373 1338.741655 
L 1232.514466 1334.429522 
L 1232.586292 1328.443058 
L 1232.889706 1322.236104 
L 1233.615312 1312.630981 
L 1234.774959 1297.907102 
L 1235.107597 1291.365851 
L 1235.216435 1284.888656 
L 1235.107636 1280.096815 
L 1234.804605 1275.378941 
L 1234.282372 1270.74954 
L 1233.519036 1266.22215 
L 1232.496045 1261.809412 
L 1231.198411 1257.523158 
L 1229.614869 1253.374505 
L 1227.737975 1249.373959 
L 1226.321808 1246.794168 
L 1224.77347 1244.287516 
L 1223.093595 1241.856799 
L 1221.283547 1239.504755 
L 1219.345404 1237.23408 
L 1217.281933 1235.047435 
L 1213.959407 1231.930782 
L 1210.376932 1229.017927 
L 1206.551573 1226.317592 
L 1202.502954 1223.838419 
L 1198.252898 1221.588936 
L 1193.825025 1219.577507 
L 1189.244337 1217.812251 
L 1184.536771 1216.300927 
L 1179.728752 1215.050805 
L 1174.846731 1214.068506 
L 1169.91673 1213.359819 
L 1164.963895 1212.929506 
L 1160.012071 1212.781089 
L 1155.083403 1212.91663 
L 1150.197977 1213.336505 
L 1145.373497 1214.039181 
L 1140.625029 1215.021011 
L 1135.964793 1216.27603 
L 1131.402027 1217.795797 
L 1126.942924 1219.569247 
L 1122.590641 1221.582603 
L 1118.345383 1223.81932 
L 1114.204568 1226.260082 
L 1110.163062 1228.882863 
L 1106.213481 1231.663031 
L 1101.074144 1235.567635 
L 1094.816851 1240.666389 
L 1075.42612 1256.882001 
L 1070.604637 1260.482807 
L 1066.977112 1262.963406 
L 1063.338855 1265.220985 
L 1059.692139 1267.226939 
L 1056.042211 1268.955295 
L 1052.397283 1270.383065 
L 1048.76843 1271.490548 
L 1045.169395 1272.261562 
L 1042.794486 1272.582322 
L 1040.445265 1272.745145 
L 1038.12739 1272.748021 
L 1035.846811 1272.589691 
L 1033.609712 1272.269644 
L 1031.422443 1271.788101 
L 1029.291454 1271.145991 
L 1027.223222 1270.34493 
L 1025.224187 1269.387186 
L 1023.300675 1268.275645 
L 1021.458839 1267.013768 
L 1019.704586 1265.605544 
L 1018.043514 1264.055446 
L 1016.480858 1262.368374 
L 1015.021432 1260.549606 
L 1013.669579 1258.604738 
L 1012.429127 1256.53963 
L 1011.303352 1254.36035 
L 1010.294948 1252.073111 
L 1009.006799 1248.453642 
L 1007.991656 1244.626861 
L 1007.250661 1240.61395 
L 1006.781725 1236.435515 
L 1006.579599 1232.111251 
L 1006.636022 1227.659654 
L 1006.939911 1223.097782 
L 1007.477616 1218.441077 
L 1008.233201 1213.703235 
L 1009.18876 1208.89615 
L 1010.739925 1202.396163 
L 1012.561898 1195.809896 
L 1015.139992 1187.476743 
L 1018.535188 1177.352894 
L 1027.329707 1151.551684 
L 1030.022524 1142.824844 
L 1031.989917 1135.815395 
L 1033.748066 1128.796012 
L 1035.260285 1121.785159 
L 1036.492843 1114.805937 
L 1037.21511 1109.608743 
L 1037.750817 1104.458024 
L 1038.089047 1099.368157 
L 1038.21987 1094.354478 
L 1038.134376 1089.433022 
L 1037.824705 1084.620237 
L 1037.284094 1079.932656 
L 1036.506912 1075.386562 
L 1035.4887 1070.997628 
L 1034.226202 1066.780566 
L 1032.717395 1062.748789 
L 1030.961499 1058.914096 
L 1028.958988 1055.286388 
L 1026.711581 1051.873434 
L 1024.22222 1048.680688 
L 1021.495041 1045.711166 
L 1018.535328 1042.96539 
L 1015.349464 1040.441399 
L 1011.944867 1038.134838 
L 1008.329929 1036.039105 
L 1004.51395 1034.145582 
L 1000.507072 1032.44391 
L 996.320222 1030.922334 
L 991.965057 1029.568089 
L 987.453916 1028.367816 
L 981.218978 1026.983667 
L 974.762421 1025.818343 
L 968.118647 1024.843764 
L 959.606057 1023.858575 
L 950.932502 1023.10311 
L 942.17697 1022.56356 
L 933.422181 1022.246192 
L 924.753667 1022.177331 
L 917.939364 1022.330551 
L 911.280154 1022.700751 
L 904.819134 1023.322077 
L 900.128156 1023.974898 
L 895.58783 1024.805339 
L 891.212909 1025.828778 
L 887.016522 1027.059732 
L 883.009883 1028.51136 
L 879.202018 1030.195011 
L 875.599516 1032.119812 
L 872.206309 1034.292311 
L 869.023494 1036.716184 
L 866.049211 1039.39202 
L 863.27857 1042.317175 
L 860.703649 1045.485712 
L 858.313549 1048.888413 
L 856.094529 1052.512875 
L 854.030195 1056.34367 
L 852.101766 1060.362571 
L 849.705645 1065.977539 
L 847.459944 1071.834723 
L 844.247142 1080.941351 
L 838.818722 1096.430226 
L 836.45963 1102.541154 
L 833.920492 1108.507305 
L 831.87411 1112.850688 
L 829.690702 1117.055146 
L 827.359486 1121.09862 
L 824.872519 1124.960825 
L 822.224701 1128.623383 
L 819.413707 1132.069926 
L 816.439851 1135.286179 
L 813.305883 1138.260017 
L 810.016738 1140.981507 
L 806.579232 1143.442931 
L 803.001729 1145.638797 
L 799.293789 1147.565832 
L 795.465803 1149.222967 
L 791.528634 1150.611297 
L 787.493269 1151.73404 
L 783.370499 1152.596463 
L 779.170641 1153.2058 
L 774.903286 1153.571143 
L 770.577117 1153.703307 
L 766.199765 1153.614678 
L 761.777726 1153.319021 
L 757.31634 1152.83127 
L 751.313741 1151.909637 
L 745.255683 1150.714062 
L 739.14656 1149.284672 
L 731.441919 1147.229351 
L 722.099675 1144.4644 
L 709.490365 1140.444704 
L 691.945338 1134.573123 
L 677.577834 1129.538765 
L 668.118897 1126.001932 
L 660.387627 1122.877912 
L 654.345448 1120.221061 
L 648.466162 1117.38867 
L 642.783762 1114.347584 
L 638.671638 1111.910608 
L 634.703514 1109.325988 
L 630.893145 1106.582759 
L 627.253792 1103.671665 
L 623.798124 1100.585465 
L 620.538132 1097.319184 
L 617.485073 1093.870321 
L 614.649431 1090.238989 
L 612.040902 1086.428003 
L 609.668389 1082.4429 
L 607.540014 1078.291914 
L 605.663134 1073.985882 
L 604.044363 1069.538113 
L 602.689592 1064.96421 
L 601.603998 1060.281852 
L 600.792049 1055.510556 
L 600.257491 1050.671407 
L 600.003325 1045.786784 
L 600.031767 1040.880077 
L 600.34419 1035.975395 
L 600.941053 1031.097299 
L 601.821823 1026.270522 
L 602.984883 1021.519724 
L 604.427443 1016.869246 
L 606.14545 1012.342897 
L 608.133504 1007.963748 
L 610.384797 1003.753952 
L 612.891057 999.734572 
L 615.642531 995.925435 
L 618.627981 992.344985 
L 621.834731 989.010159 
L 625.248728 985.936263 
L 627.632349 984.03873 
L 630.096476 982.266793 
L 632.636092 980.623632 
L 635.246003 979.112033 
L 637.920877 977.734369 
L 642.043053 975.923154 
L 646.280442 974.422314 
L 650.614243 973.23427 
L 655.025816 972.359054 
L 659.496976 971.794222 
L 664.010279 971.534806 
L 668.549305 971.573267 
L 673.098917 971.899481 
L 677.645495 972.500756 
L 682.177137 973.361878 
L 686.683815 974.465189 
L 691.157491 975.790715 
L 695.592176 977.316321 
L 699.983945 979.017911 
L 705.769864 981.515616 
L 711.477059 984.21506 
L 719.904987 988.492506 
L 736.443566 997.002776 
L 741.922389 999.57803 
L 747.411716 1001.919508 
L 751.544005 1003.489782 
L 755.694596 1004.878319 
L 759.866753 1006.067465 
L 764.06223 1007.042037 
L 768.281135 1007.789373 
L 772.521823 1008.299324 
L 776.780846 1008.56419 
L 781.052949 1008.578604 
L 785.331109 1008.339382 
L 789.606617 1007.845316 
L 793.869206 1007.096951 
L 798.107209 1006.096335 
L 802.307761 1004.846754 
L 806.457016 1003.352473 
L 810.540399 1001.618472 
L 814.542867 999.65021 
L 818.449186 997.453403 
L 822.244213 995.033838 
L 825.913181 992.397226 
L 829.441975 989.549089 
L 832.81741 986.4947 
L 836.027482 983.239063 
L 839.061617 979.786941 
L 841.910895 976.142926 
L 844.568246 972.311547 
L 847.028637 968.297413 
L 849.289216 964.105388 
L 851.349437 959.740775 
L 853.211151 955.209518 
L 854.878665 950.518405 
L 856.358771 945.675262 
L 857.660733 940.689127 
L 858.796244 935.570403 
L 860.075933 928.559954 
L 861.124335 921.367605 
L 862.179885 912.178984 
L 863.207922 900.974025 
L 865.042757 880.458041 
L 865.895017 873.182147 
L 866.942082 866.091023 
L 867.889768 860.925664 
L 869.00187 855.914885 
L 870.299299 851.078338 
L 871.801013 846.434009 
L 873.523768 841.997953 
L 875.48191 837.784065 
L 876.924031 835.104037 
L 878.47888 832.530748 
L 880.148733 830.066506 
L 881.935319 827.71311 
L 883.839809 825.471845 
L 885.862825 823.343481 
L 888.004442 821.328284 
L 890.264201 819.426025 
L 892.64112 817.635994 
L 895.133721 815.957019 
L 897.740041 814.387489 
L 901.857344 812.233871 
L 906.215068 810.31344 
L 910.801384 808.616065 
L 915.602811 807.130163 
L 920.604502 805.842965 
L 925.790522 804.740787 
L 931.144151 803.809293 
L 936.648163 803.033748 
L 944.190607 802.216536 
L 951.928189 801.615009 
L 961.813615 801.114484 
L 971.867284 800.834336 
L 984.058937 800.706968 
L 1002.39851 800.756758 
L 1032.46304 800.852902 
L 1046.070938 800.662797 
L 1057.450138 800.279828 
L 1066.705718 799.761384 
L 1075.735466 799.026872 
L 1082.7853 798.26244 
L 1089.671817 797.32413 
L 1096.387798 796.197568 
L 1102.92702 794.869661 
L 1109.284549 793.32888 
L 1115.457062 791.565548 
L 1121.443166 789.572099 
L 1127.243689 787.343311 
L 1132.861927 784.876519 
L 1138.303803 782.171798 
L 1143.577943 779.232122 
L 1148.695638 776.063511 
L 1153.670696 772.675171 
L 1158.51918 769.079637 
L 1163.259032 765.292917 
L 1169.060659 760.32096 
L 1174.76237 755.128056 
L 1182.652218 747.596449 
L 1198.466455 732.365312 
L 1204.213318 727.162959 
L 1208.865045 723.20281 
L 1213.566554 719.482663 
L 1218.315003 716.0597 
L 1221.90313 713.721885 
L 1225.509433 711.607005 
L 1229.128256 709.737924 
L 1232.752752 708.136395 
L 1236.374936 706.82271 
L 1239.985765 705.815353 
L 1243.575211 705.130662 
L 1245.950939 704.86042 
L 1248.308891 704.743249 
L 1250.645487 704.782006 
L 1252.957016 704.978941 
L 1255.239651 705.335662 
L 1257.489462 705.853117 
L 1259.702431 706.531573 
L 1261.874471 707.370605 
L 1264.001433 708.369091 
L 1266.079131 709.525205 
L 1268.103351 710.836425 
L 1270.069871 712.299543 
L 1271.974475 713.910682 
L 1273.81297 715.665315 
L 1276.437696 718.554897 
L 1278.890606 721.735816 
L 1281.158388 725.185595 
L 1283.228301 728.879442 
L 1285.088324 732.790648 
L 1286.727307 736.89102 
L 1288.135118 741.151347 
L 1289.302799 745.541885 
L 1290.222716 750.032844 
L 1290.888698 754.594884 
L 1291.296173 759.199592 
L 1291.44229 763.819942 
L 1291.326019 768.430722 
L 1290.94823 773.00893 
L 1290.311753 777.534116 
L 1289.421398 781.988677 
L 1288.283953 786.35809 
L 1286.908146 790.631086 
L 1285.304571 794.799757 
L 1283.485583 798.859598 
L 1281.465162 802.809479 
L 1279.25874 806.651557 
L 1276.883016 810.391118 
L 1274.355733 814.036371 
L 1270.782431 818.769123 
L 1267.018224 823.38586 
L 1262.114962 829.051862 
L 1244.929069 848.546392 
L 1241.001535 853.429345 
L 1237.192301 858.501398 
L 1233.531646 863.788047 
L 1230.047409 869.306424 
L 1227.565664 873.602356 
L 1225.208226 878.032891 
L 1222.985315 882.594452 
L 1220.907084 887.280214 
L 1218.983764 892.080164 
L 1217.225791 896.981211 
L 1215.643914 901.967372 
L 1214.249249 907.020013 
L 1213.053304 912.118157 
L 1212.06796 917.23883 
L 1211.305392 922.357475 
L 1210.777955 927.448394 
L 1210.498019 932.485223 
L 1210.477754 937.441441 
L 1210.728893 942.290885 
L 1211.26245 947.008271 
L 1212.088423 951.569718 
L 1212.805874 954.513099 
L 1213.659355 957.371408 
L 1214.650679 960.139224 
L 1215.781259 962.81171 
L 1217.052064 965.38466 
L 1218.463589 967.854543 
L 1220.015825 970.218544 
L 1221.708226 972.474594 
L 1223.539693 974.621398 
L 1225.508549 976.658451 
L 1227.612529 978.586057 
L 1229.84877 980.405324 
L 1232.21381 982.118168 
L 1234.703589 983.7273 
L 1238.661813 985.954372 
L 1242.872003 987.971017 
L 1247.313305 989.795673 
L 1251.962322 991.449971 
L 1256.793369 992.958329 
L 1263.469864 994.788944 
L 1272.094159 996.883625 
L 1293.22212 1001.83237 
L 1300.13461 1003.700032 
L 1306.859771 1005.779674 
L 1311.73945 1007.508993 
L 1316.448174 1009.40338 
L 1320.960595 1011.476865 
L 1325.253243 1013.739868 
L 1329.304647 1016.199121 
L 1333.095423 1018.857667 
L 1336.608345 1021.71496 
L 1338.788416 1023.728414 
L 1340.834364 1025.826541 
L 1342.742728 1028.006791 
L 1344.510488 1030.26608 
L 1346.135066 1032.60084 
L 1347.614334 1035.007075 
L 1348.946603 1037.48042 
L 1350.130637 1040.016207 
L 1351.165642 1042.609522 
L 1352.051276 1045.255277 
L 1352.787647 1047.948269 
L 1353.375317 1050.683249 
L 1353.815304 1053.454979 
L 1354.201736 1057.670221 
L 1354.266251 1061.939739 
L 1354.018149 1066.247749 
L 1353.469107 1070.579837 
L 1352.633184 1074.923227 
L 1351.52681 1079.266974 
L 1350.168758 1083.602084 
L 1348.580085 1087.921547 
L 1346.784047 1092.220297 
L 1344.110829 1097.914387 
L 1341.179496 1103.562825 
L 1337.260164 1110.560685 
L 1323.038568 1135.289505 
L 1320.336918 1140.696726 
L 1318.521408 1144.724782 
L 1316.917331 1148.723211 
L 1315.54997 1152.684596 
L 1314.442013 1156.599869 
L 1313.613279 1160.458461 
L 1313.080491 1164.24852 
L 1312.857093 1167.957197 
L 1312.953125 1171.570995 
L 1313.197992 1173.920684 
L 1313.588897 1176.218027 
L 1314.126237 1178.459054 
L 1314.809727 1180.639937 
L 1315.638424 1182.757049 
L 1316.610736 1184.807015 
L 1317.724451 1186.786769 
L 1318.976763 1188.693592 
L 1320.364301 1190.525167 
L 1321.883165 1192.279606 
L 1324.397968 1194.763659 
L 1327.181594 1197.068361 
L 1330.215419 1199.19359 
L 1333.479224 1201.14184 
L 1336.951561 1202.918162 
L 1340.610132 1204.530006 
L 1344.432165 1205.986989 
L 1348.394787 1207.300572 
L 1353.85799 1208.85145 
L 1359.479277 1210.203775 
L 1366.654802 1211.667548 
L 1375.374034 1213.177066 
L 1386.995285 1214.924791 
L 1404.081648 1217.241531 
L 1416.549502 1218.753339 
L 1426.111292 1219.697632 
L 1434.291084 1220.266469 
L 1441.148545 1220.530027 
L 1448.082972 1220.582201 
L 1455.123735 1220.421224 
L 1463.735987 1219.973422 
L 1474.002407 1219.193962 
L 1493.385172 1217.658049 
L 1500.749699 1217.310098 
L 1506.506143 1217.23215 
L 1512.080367 1217.383997 
L 1516.105063 1217.674797 
L 1519.967215 1218.135209 
L 1523.64109 1218.779055 
L 1527.101758 1219.617756 
L 1530.325628 1220.660197 
L 1533.290975 1221.912685 
L 1535.978419 1223.378966 
L 1537.607334 1224.475997 
L 1539.10114 1225.668479 
L 1540.456348 1226.955797 
L 1541.670166 1228.336938 
L 1542.740526 1229.810533 
L 1543.6661 1231.37489 
L 1544.446311 1233.028031 
L 1545.081334 1234.767735 
L 1545.572084 1236.591573 
L 1545.920205 1238.496948 
L 1546.180267 1241.501891 
L 1546.135525 1244.674519 
L 1545.799711 1248.004934 
L 1545.1892 1251.483119 
L 1544.322547 1255.099058 
L 1543.219966 1258.842802 
L 1541.4198 1264.016208 
L 1539.289944 1269.375903 
L 1536.2416 1276.301275 
L 1532.850631 1283.431875 
L 1528.440644 1292.183594 
L 1522.954008 1302.525715 
L 1518.026486 1311.355632 
L 1513.775439 1318.573128 
L 1509.38213 1325.555722 
L 1505.749177 1330.899669 
L 1501.993445 1335.965642 
L 1499.085154 1339.547603 
L 1496.089842 1342.916307 
L 1493.000177 1346.048654 
L 1489.809595 1348.923029 
L 1486.512609 1351.519804 
L 1483.105076 1353.821824 
L 1479.584399 1355.814877 
L 1477.1739 1356.966422 
L 1474.712832 1357.973441 
L 1472.201707 1358.834406 
L 1469.641382 1359.548605 
L 1467.033053 1360.116166 
L 1464.378236 1360.538082 
L 1460.312917 1360.9022 
L 1456.15449 1360.953048 
L 1451.911492 1360.705058 
L 1447.593439 1360.176939 
L 1443.210564 1359.391454 
L 1438.773539 1358.375106 
L 1434.293192 1357.157738 
L 1428.270476 1355.278784 
L 1420.69723 1352.637808 
L 1398.042887 1344.444374 
L 1392.08017 1342.605164 
L 1387.637056 1341.415075 
L 1383.218506 1340.417108 
L 1378.823014 1339.634015 
L 1374.448 1339.084362 
L 1370.089954 1338.782245 
L 1365.744608 1338.737091 
L 1361.407128 1338.95354 
L 1357.072318 1339.43141 
L 1352.734849 1340.165752 
L 1348.389481 1341.146978 
L 1344.031308 1342.361063 
L 1339.655995 1343.789824 
L 1333.78963 1345.990235 
L 1327.881248 1348.471312 
L 1320.435278 1351.859393 
L 1296.348624 1363.081116 
L 1290.367715 1365.542162 
L 1284.464516 1367.705469 
L 1280.112143 1369.089587 
L 1275.844553 1370.239021 
L 1271.681289 1371.129412 
L 1267.642559 1371.739424 
L 1263.748861 1372.05094 
L 1260.020567 1372.049206 
L 1258.818007 1371.976963 
L 1258.818007 1371.976963 
" clip-path="url(#pc22c43eae9)" style="fill: none; stroke: #4169e1; stroke-width: 3; stroke-linecap: square"/>
   </g>
   <g id="line2d_2">
    <path d="M 1236.028307 1421.651983 
L 1234.061796 1421.269388 
L 1232.175249 1420.713305 
L 1230.372996 1419.982432 
L 1228.659046 1419.076259 
L 1227.037035 1417.995042 
L 1225.51018 1416.739793 
L 1224.081232 1415.31225 
L 1222.752441 1413.714848 
L 1221.525517 1411.950693 
L 1220.401595 1410.023519 
L 1219.381211 1407.937657 
L 1218.464277 1405.697991 
L 1217.281076 1402.06204 
L 1216.323636 1398.112408 
L 1215.583425 1393.871243 
L 1215.048624 1389.362355 
L 1214.70424 1384.610861 
L 1214.532272 1379.642837 
L 1214.534929 1372.728184 
L 1214.750984 1365.540106 
L 1215.337709 1354.384497 
L 1216.531616 1333.390957 
L 1216.805461 1323.874442 
L 1216.779358 1316.367532 
L 1216.577752 1310.828829 
L 1216.195237 1305.387899 
L 1215.612151 1300.060917 
L 1214.811622 1294.862979 
L 1213.779777 1289.808201 
L 1212.505893 1284.909827 
L 1210.982497 1280.180346 
L 1209.205411 1275.63162 
L 1207.173753 1271.275 
L 1204.889876 1267.121445 
L 1202.359266 1263.181621 
L 1199.590397 1259.465991 
L 1196.594531 1255.984872 
L 1193.385491 1252.748481 
L 1189.97939 1249.766939 
L 1186.394328 1247.050252 
L 1182.650063 1244.608259 
L 1178.767657 1242.450544 
L 1174.769102 1240.586324 
L 1170.676937 1239.024295 
L 1166.513856 1237.772461 
L 1162.302312 1236.837929 
L 1158.064135 1236.226687 
L 1153.820162 1235.943356 
L 1149.589883 1235.99094 
L 1146.786183 1236.207146 
L 1144.001342 1236.570783 
L 1141.239749 1237.081211 
L 1137.149447 1238.119469 
L 1133.13151 1239.479302 
L 1129.194713 1241.151838 
L 1125.345231 1243.125195 
L 1121.58663 1245.384354 
L 1117.919917 1247.911079 
L 1114.343657 1250.683895 
L 1110.854153 1253.678129 
L 1107.445691 1256.86602 
L 1103.014089 1261.364369 
L 1098.691941 1266.072162 
L 1092.3613 1273.334498 
L 1083.047119 1284.048909 
L 1078.923964 1288.492317 
L 1074.790771 1292.6048 
L 1071.68048 1295.417918 
L 1068.561365 1297.959222 
L 1065.436218 1300.19629 
L 1062.310385 1302.099919 
L 1059.191731 1303.644514 
L 1057.121594 1304.463916 
L 1055.062766 1305.108644 
L 1053.019255 1305.574159 
L 1050.995434 1305.856792 
L 1048.996004 1305.953754 
L 1047.025944 1305.863139 
L 1045.090458 1305.583915 
L 1043.194919 1305.115914 
L 1041.344818 1304.459811 
L 1039.545698 1303.617096 
L 1037.803099 1302.590043 
L 1036.122496 1301.381665 
L 1034.50924 1299.995672 
L 1032.968502 1298.436421 
L 1031.505218 1296.708858 
L 1030.124033 1294.818464 
L 1028.829256 1292.771186 
L 1027.624813 1290.573381 
L 1025.995067 1287.00916 
L 1024.586216 1283.145069 
L 1023.405599 1279.005673 
L 1022.457881 1274.615927 
L 1021.744968 1270.00069 
L 1021.26599 1265.18429 
L 1021.017342 1260.190115 
L 1020.99279 1255.040259 
L 1021.183627 1249.755222 
L 1021.578866 1244.353681 
L 1022.165482 1238.852318 
L 1023.219522 1231.3868 
L 1024.548177 1223.798256 
L 1026.108793 1216.108984 
L 1028.317066 1206.380273 
L 1031.727164 1192.577232 
L 1038.27589 1166.469167 
L 1041.064738 1154.250496 
L 1043.144475 1144.018777 
L 1044.600606 1135.824112 
L 1045.838625 1127.64564 
L 1046.830271 1119.511678 
L 1047.549824 1111.455762 
L 1047.97414 1103.516094 
L 1048.086197 1097.662771 
L 1048.012966 1091.917117 
L 1047.747717 1086.298331 
L 1047.284655 1080.825719 
L 1046.618958 1075.518288 
L 1045.746806 1070.394337 
L 1044.66541 1065.471041 
L 1043.373037 1060.76406 
L 1041.86902 1056.287169 
L 1040.153764 1052.051926 
L 1038.228742 1048.067403 
L 1036.096473 1044.339967 
L 1033.7605 1040.873137 
L 1031.22535 1037.667524 
L 1028.49649 1034.72084 
L 1025.580273 1032.027997 
L 1022.483889 1029.581291 
L 1019.215302 1027.370658 
L 1015.7832 1025.384006 
L 1012.196943 1023.607612 
L 1008.466514 1022.02657 
L 1004.602484 1020.625287 
L 1000.615982 1019.388001 
L 995.130358 1017.966892 
L 989.476856 1016.776239 
L 983.686135 1015.787114 
L 977.790418 1014.977316 
L 970.324664 1014.196811 
L 962.816685 1013.668445 
L 955.338416 1013.409028 
L 949.426826 1013.421055 
L 943.619699 1013.659773 
L 937.954772 1014.161374 
L 933.821442 1014.734536 
L 929.803373 1015.496685 
L 925.914344 1016.466199 
L 922.166994 1017.661035 
L 918.572568 1019.098137 
L 915.14067 1020.79287 
L 911.879034 1022.758483 
L 909.802077 1024.224763 
L 907.804464 1025.81866 
L 905.88684 1027.54196 
L 904.049363 1029.395767 
L 901.44253 1032.421827 
L 899.011813 1035.740416 
L 896.751289 1039.345883 
L 894.652464 1043.228738 
L 892.704362 1047.375723 
L 890.893677 1051.769977 
L 889.204976 1056.391275 
L 887.11299 1062.865559 
L 885.161743 1069.639357 
L 882.391816 1080.208936 
L 877.288614 1100.086146 
L 874.740083 1108.98046 
L 872.521117 1115.892389 
L 870.107046 1122.54859 
L 868.153315 1127.334613 
L 866.068172 1131.916662 
L 863.846439 1136.272526 
L 861.485343 1140.382301 
L 858.984416 1144.228499 
L 856.34534 1147.79612 
L 853.571745 1151.072712 
L 850.668963 1154.048399 
L 847.643749 1156.715904 
L 844.503985 1159.070543 
L 841.258369 1161.110215 
L 837.916104 1162.83536 
L 834.486597 1164.248918 
L 830.979177 1165.356249 
L 827.40284 1166.165047 
L 823.766029 1166.685218 
L 820.076458 1166.928739 
L 816.340971 1166.90948 
L 812.565464 1166.643 
L 808.754839 1166.146309 
L 804.913019 1165.437598 
L 801.042999 1164.535933 
L 795.842745 1163.067495 
L 790.599398 1161.337768 
L 783.987233 1158.877839 
L 775.970406 1155.598211 
L 766.512066 1151.471753 
L 752.854381 1145.253901 
L 740.538725 1139.40795 
L 732.415798 1135.314659 
L 725.765286 1131.710994 
L 720.55945 1128.654388 
L 715.485935 1125.402538 
L 711.785078 1122.812158 
L 708.187301 1120.074059 
L 704.704834 1117.173034 
L 701.349679 1114.095175 
L 698.133487 1110.828301 
L 695.067456 1107.362355 
L 692.162252 1103.689734 
L 689.427941 1099.805571 
L 686.873947 1095.707947 
L 684.509026 1091.398039 
L 682.341257 1086.880191 
L 680.37804 1082.161925 
L 678.626112 1077.253882 
L 677.091561 1072.169695 
L 675.779845 1066.92582 
L 674.695805 1061.541312 
L 673.843672 1056.037558 
L 673.227069 1050.437988 
L 672.848995 1044.767759 
L 672.711802 1039.053429 
L 672.817153 1033.322621 
L 673.165969 1027.603694 
L 673.758369 1021.925421 
L 674.593595 1016.316683 
L 675.669937 1010.806174 
L 676.984652 1005.422133 
L 678.533891 1000.192094 
L 680.312632 995.142657 
L 682.31463 990.299281 
L 684.532378 985.686095 
L 686.957096 981.325726 
L 689.578743 977.239137 
L 692.386058 973.445481 
L 695.366634 969.961962 
L 697.443338 967.819471 
L 699.58687 965.825522 
L 701.792854 963.9836 
L 704.056781 962.29672 
L 706.374027 960.767407 
L 708.739892 959.397689 
L 711.149619 958.189071 
L 713.598433 957.14253 
L 716.081567 956.258496 
L 718.594301 955.536839 
L 721.131989 954.97686 
L 723.690096 954.577282 
L 726.264228 954.336238 
L 728.850166 954.25127 
L 731.443892 954.319323 
L 735.340875 954.700169 
L 739.235258 955.40214 
L 743.116848 956.407474 
L 746.977056 957.695558 
L 750.808994 959.24307 
L 754.607535 961.024169 
L 758.369317 963.010726 
L 763.325261 965.926723 
L 768.213774 969.078244 
L 774.238011 973.227119 
L 789.598902 984.007527 
L 794.291803 987.01406 
L 798.9937 989.747666 
L 802.533223 991.580915 
L 806.088423 993.201991 
L 809.662095 994.590283 
L 813.255743 995.728068 
L 816.869457 996.600561 
L 820.501829 997.195914 
L 824.149906 997.505136 
L 827.809188 997.521965 
L 831.473657 997.24268 
L 835.135855 996.665873 
L 838.786986 995.792179 
L 842.417059 994.623989 
L 846.015053 993.16514 
L 849.569109 991.42061 
L 853.066741 989.396215 
L 856.495066 987.098327 
L 859.841034 984.533619 
L 863.091674 981.708849 
L 866.234338 978.630682 
L 869.256937 975.305566 
L 872.148174 971.739657 
L 874.89777 967.938797 
L 877.496667 963.908546 
L 879.937223 959.654266 
L 882.213384 955.181243 
L 884.320839 950.49486 
L 886.257144 945.600795 
L 888.021831 940.505237 
L 889.616487 935.215128 
L 891.044801 929.738392 
L 892.31259 924.084165 
L 893.427789 918.262999 
L 894.694962 910.263001 
L 895.738167 902.021632 
L 896.59258 893.5783 
L 897.457221 882.809584 
L 898.58412 865.326101 
L 899.750881 847.944981 
L 900.687494 837.358248 
L 901.633853 829.143209 
L 902.807759 821.220042 
L 903.86427 815.503277 
L 905.090548 810.004157 
L 906.501596 804.742209 
L 908.11041 799.734524 
L 909.927818 794.995517 
L 911.962369 790.536753 
L 913.442525 787.724303 
L 915.02323 785.042087 
L 916.705251 782.491305 
L 918.488885 780.07256 
L 920.373967 777.785873 
L 922.359879 775.63069 
L 924.445564 773.605913 
L 926.629546 771.709912 
L 928.909947 769.940562 
L 931.284513 768.295271 
L 933.750639 766.771017 
L 937.615011 764.704003 
L 941.667629 762.888554 
L 945.896137 761.310191 
L 950.28717 759.953257 
L 954.826603 758.801236 
L 959.499799 757.83705 
L 964.291846 757.043343 
L 970.84029 756.220247 
L 977.538535 755.628829 
L 984.35293 755.229993 
L 992.986092 754.945987 
L 1003.440679 754.831986 
L 1019.142994 754.911792 
L 1041.467838 755.019611 
L 1053.163672 754.835641 
L 1062.950488 754.433401 
L 1070.915242 753.874038 
L 1078.689573 753.069966 
L 1084.762053 752.225497 
L 1090.696298 751.182421 
L 1096.485945 749.923636 
L 1102.125428 748.433448 
L 1107.610219 746.697912 
L 1111.620304 745.228023 
L 1115.540748 743.609263 
L 1119.371332 741.83832 
L 1123.112458 739.912768 
L 1126.765198 737.831127 
L 1130.331329 735.592914 
L 1133.813356 733.198687 
L 1137.214518 730.650092 
L 1141.630566 727.016791 
L 1145.921291 723.123918 
L 1150.099992 718.98512 
L 1154.181673 714.618056 
L 1158.18265 710.044586 
L 1163.096589 704.077927 
L 1168.910367 696.634131 
L 1188.291902 671.373678 
L 1193.252646 665.486291 
L 1197.269168 661.066847 
L 1201.326833 656.977624 
L 1204.394169 654.167634 
L 1207.478454 651.608799 
L 1210.575195 649.328154 
L 1213.678859 647.351572 
L 1216.782928 645.703356 
L 1219.879949 644.405836 
L 1221.936642 643.745615 
L 1223.98386 643.255429 
L 1226.018796 642.93993 
L 1228.038506 642.803135 
L 1230.039923 642.848384 
L 1232.01987 643.078299 
L 1233.975067 643.49476 
L 1235.902148 644.098873 
L 1237.797673 644.890951 
L 1239.658139 645.870497 
L 1241.479994 647.0362 
L 1243.259652 648.385928 
L 1244.993503 649.916739 
L 1246.677931 651.624887 
L 1248.309324 653.505844 
L 1250.64913 656.639539 
L 1252.849582 660.129148 
L 1254.899016 663.950464 
L 1256.78618 668.076297 
L 1258.500352 672.476902 
L 1260.03147 677.120462 
L 1261.370259 681.973605 
L 1262.508361 687.001957 
L 1263.438468 692.17071 
L 1264.154444 697.445199 
L 1264.651449 702.791467 
L 1264.926046 708.176826 
L 1264.976306 713.570376 
L 1264.80188 718.943494 
L 1264.404071 724.270279 
L 1263.785867 729.527927 
L 1262.951953 734.69706 
L 1261.908704 739.761969 
L 1260.664136 744.710797 
L 1259.227839 749.535635 
L 1257.610872 754.232542 
L 1255.825642 758.801495 
L 1253.885749 763.246252 
L 1251.084036 768.992572 
L 1248.070327 774.55794 
L 1244.883262 779.977789 
L 1240.715891 786.613646 
L 1232.059748 799.790929 
L 1226.854817 807.90988 
L 1222.611971 814.945259 
L 1219.321307 820.808396 
L 1216.151637 826.915492 
L 1213.127289 833.289104 
L 1210.27084 839.94117 
L 1207.603657 846.872172 
L 1205.146479 854.070705 
L 1203.453842 859.631593 
L 1201.899828 865.31599 
L 1200.493547 871.106334 
L 1199.244411 876.981867 
L 1198.162168 882.918966 
L 1197.25689 888.891538 
L 1196.538933 894.871474 
L 1196.018842 900.829155 
L 1195.707225 906.733997 
L 1195.614587 912.555034 
L 1195.751126 918.261511 
L 1196.126511 923.823503 
L 1196.749623 929.212515 
L 1197.628302 934.40208 
L 1198.769071 939.368318 
L 1200.176876 944.090464 
L 1201.265387 947.094307 
L 1202.474433 949.977823 
L 1203.804005 952.737725 
L 1205.253636 955.371596 
L 1206.822384 957.877926 
L 1208.508813 960.256126 
L 1210.310982 962.506549 
L 1212.226441 964.63049 
L 1214.252222 966.630185 
L 1216.384848 968.508799 
L 1218.620337 970.270403 
L 1222.156517 972.704471 
L 1225.896863 974.906786 
L 1229.822038 976.901408 
L 1233.910666 978.715819 
L 1238.139587 980.380397 
L 1243.953558 982.423517 
L 1252.924026 985.277828 
L 1265.010935 989.131664 
L 1270.962413 991.260581 
L 1275.333991 993.005492 
L 1279.59852 994.90704 
L 1283.731918 996.988133 
L 1287.711475 999.267856 
L 1291.516003 1001.761201 
L 1295.125959 1004.478903 
L 1298.523541 1007.42738 
L 1301.692755 1010.608771 
L 1303.671638 1012.858273 
L 1305.538983 1015.208922 
L 1307.291446 1017.658423 
L 1308.92606 1020.2038 
L 1310.440239 1022.841454 
L 1311.831776 1025.567217 
L 1313.68524 1029.810744 
L 1315.254193 1034.22444 
L 1316.536021 1038.789204 
L 1317.530062 1043.484889 
L 1318.23761 1048.290871 
L 1318.661943 1053.186602 
L 1318.808332 1058.152133 
L 1318.684066 1063.168584 
L 1318.298469 1068.218556 
L 1317.662903 1073.286466 
L 1316.790765 1078.358805 
L 1315.697472 1083.424304 
L 1314.400415 1088.474006 
L 1312.918894 1093.501252 
L 1310.693342 1100.161879 
L 1308.232273 1106.769661 
L 1304.915522 1114.955276 
L 1299.348606 1127.90015 
L 1294.581908 1139.100873 
L 1291.446878 1147.035411 
L 1289.197242 1153.336918 
L 1287.241737 1159.584987 
L 1286.000659 1164.225287 
L 1284.975559 1168.815486 
L 1284.184256 1173.343807 
L 1283.641976 1177.796876 
L 1283.361187 1182.16004 
L 1283.351468 1186.417745 
L 1283.619437 1190.553973 
L 1284.168721 1194.552723 
L 1284.999974 1198.398504 
L 1286.110944 1202.076839 
L 1287.496589 1205.574748 
L 1289.149229 1208.881195 
L 1291.058746 1211.987474 
L 1293.212807 1214.887533 
L 1295.597129 1217.578205 
L 1298.19576 1220.059347 
L 1300.991381 1222.333872 
L 1303.96562 1224.407675 
L 1307.099379 1226.289456 
L 1310.373151 1227.99044 
L 1313.767346 1229.52401 
L 1317.262601 1230.905256 
L 1322.047696 1232.538243 
L 1326.936755 1233.969665 
L 1333.135742 1235.536009 
L 1340.618342 1237.181656 
L 1351.759395 1239.364356 
L 1365.051581 1241.750091 
L 1374.492031 1243.239705 
L 1381.502453 1244.128045 
L 1387.342047 1244.661312 
L 1393.215823 1244.969009 
L 1399.155525 1245.02992 
L 1405.18631 1244.841985 
L 1411.322825 1244.426136 
L 1418.826106 1243.69201 
L 1439.229891 1241.513668 
L 1445.5119 1241.164898 
L 1450.408331 1241.135935 
L 1453.972664 1241.296112 
L 1457.420029 1241.635612 
L 1460.728165 1242.173129 
L 1463.875033 1242.924801 
L 1466.839276 1243.903959 
L 1469.600691 1245.120979 
L 1472.140667 1246.583221 
L 1473.702671 1247.696564 
L 1475.154486 1248.921481 
L 1476.492284 1250.258011 
L 1477.712786 1251.705677 
L 1478.8133 1253.263525 
L 1479.791741 1254.93016 
L 1480.646654 1256.703788 
L 1481.377223 1258.582263 
L 1481.983276 1260.563127 
L 1482.660084 1263.720391 
L 1483.062151 1267.0918 
L 1483.196729 1270.666507 
L 1483.073872 1274.433155 
L 1482.706139 1278.380123 
L 1482.108226 1282.495706 
L 1481.29655 1286.76823 
L 1479.912483 1292.689051 
L 1478.223794 1298.841015 
L 1475.751934 1306.814199 
L 1472.955841 1315.050246 
L 1469.275068 1325.195633 
L 1464.656037 1337.241956 
L 1459.780512 1349.297632 
L 1455.424583 1359.431441 
L 1451.661482 1367.583415 
L 1448.549667 1373.822315 
L 1445.332685 1379.736689 
L 1442.84158 1383.918524 
L 1440.275937 1387.851386 
L 1437.629477 1391.508309 
L 1434.896575 1394.864058 
L 1432.072533 1397.895715 
L 1429.153802 1400.583256 
L 1427.154219 1402.175423 
L 1425.111227 1403.603228 
L 1423.024814 1404.863539 
L 1420.895268 1405.954111 
L 1418.723176 1406.873634 
L 1416.509418 1407.621761 
L 1414.255158 1408.199145 
L 1411.961829 1408.607455 
L 1409.631117 1408.849387 
L 1407.264939 1408.928665 
L 1404.865417 1408.85003 
L 1401.208695 1408.448828 
L 1397.490551 1407.728932 
L 1393.719899 1406.718419 
L 1389.905954 1405.449584 
L 1386.057983 1403.958456 
L 1380.89009 1401.692587 
L 1374.398674 1398.554939 
L 1357.576097 1390.216152 
L 1352.459517 1387.995868 
L 1348.64663 1386.538397 
L 1344.85499 1385.295353 
L 1341.083639 1384.294837 
L 1337.33066 1383.560197 
L 1333.593297 1383.109658 
L 1329.868093 1382.956064 
L 1326.15105 1383.106703 
L 1322.4378 1383.563237 
L 1318.723795 1384.321733 
L 1315.004499 1385.372778 
L 1311.275591 1386.701694 
L 1307.533173 1388.288831 
L 1303.773971 1390.109935 
L 1298.731496 1392.85236 
L 1293.652016 1395.882514 
L 1285.966818 1400.776031 
L 1273.054685 1409.064209 
L 1267.901813 1412.13927 
L 1262.792486 1414.933769 
L 1259.007702 1416.792003 
L 1255.279666 1418.40792 
L 1251.624251 1419.749851 
L 1248.058196 1420.789356 
L 1244.598811 1421.501527 
L 1242.360486 1421.78385 
L 1240.182566 1421.905907 
L 1238.070173 1421.863188 
L 1237.040117 1421.778846 
L 1237.040117 1421.778846 
" clip-path="url(#pc22c43eae9)" style="fill: none; stroke: #ff8c00; stroke-width: 3; stroke-linecap: square"/>
   </g>
  </g>
 </g>
 <defs>
  <clipPath id="pc22c43eae9">
   <rect x="270" y="259.2" width="1674" height="1630.8"/>
  </clipPath>
 </defs>
</svg>
