<?xml version="1.0" encoding="utf-8" standalone="no"?>
<!DOCTYPE svg PUBLIC "-//W3C//DTD SVG 1.1//EN"
  "http://www.w3.org/Graphics/SVG/1.1/DTD/svg11.dtd">
<svg xmlns:xlink="http://www.w3.org/1999/xlink" width="2160pt" height="2160pt" viewBox="0 0 2160 2160" xmlns="http://www.w3.org/2000/svg" version="1.1">
 <metadata>
  <rdf:RDF xmlns:dc="http://purl.org/dc/elements/1.1/" xmlns:cc="http://creativecommons.org/ns#" xmlns:rdf="http://www.w3.org/1999/02/22-rdf-syntax-ns#">
   <cc:Work>
    <dc:type rdf:resource="http://purl.org/dc/dcmitype/StillImage"/>
    <dc:date>2022-03-09T01:03:23.876059</dc:date>
    <dc:format>image/svg+xml</dc:format>
    <dc:creator>
     <cc:Agent>
      <dc:title>Matplotlib v3.5.1, https://matplotlib.org/</dc:title>
     </cc:Agent>
    </dc:creator>
   </cc:Work>
  </rdf:RDF>
 </metadata>
 <defs>
  <style type="text/css">*{stroke-linejoin: round; stroke-linecap: butt}</style>
 </defs>
 <g id="figure_1">
  <g id="patch_1">
   <path d="M 0 2160 
L 2160 2160 
L 2160 0 
L 0 0 
L 0 2160 
z
" style="fill: none"/>
  </g>
  <g id="axes_1">
   <g id="line2d_1">
    <path d="M 1257.636748 1371.868297 
L 1255.340905 1371.540585 
L 1253.138416 1371.06427 
L 1251.034339 1370.43824 
L 1249.033353 1369.662054 
L 1247.139704 1368.735935 
L 1245.357144 1367.660749 
L 1243.68889 1366.437982 
L 1242.137566 1365.069724 
L 1240.705168 1363.558632 
L 1239.393022 1361.907906 
L 1238.201754 1360.121256 
L 1237.131261 1358.202864 
L 1236.180693 1356.157351 
L 1235.348441 1353.98974 
L 1234.316492 1350.521251 
L 1233.533973 1346.809702 
L 1232.985834 1342.875897 
L 1232.653373 1338.741655 
L 1232.514466 1334.429522 
L 1232.586292 1328.443058 
L 1232.889706 1322.236104 
L 1233.615312 1312.630981 
L 1234.774959 1297.907102 
L 1235.107597 1291.365851 
L 1235.216435 1284.888656 
L 1235.107636 1280.096815 
L 1234.804605 1275.378941 
L 1234.282372 1270.74954 
L 1233.519036 1266.22215 
L 1232.496045 1261.809412 
L 1231.198411 1257.523158 
L 1229.614869 1253.374505 
L 1227.737975 1249.373959 
L 1226.321808 1246.794168 
L 1224.77347 1244.287516 
L 1223.093595 1241.856799 
L 1221.283547 1239.504755 
L 1219.345404 1237.23408 
L 1217.281933 1235.047435 
L 1213.959407 1231.930782 
L 1210.376932 1229.017927 
L 1206.551573 1226.317592 
L 1202.502954 1223.838419 
L 1198.252898 1221.588936 
L 1193.825025 1219.577507 
L 1189.244337 1217.812251 
L 1184.536771 1216.300927 
L 1179.728752 1215.050805 
L 1174.846731 1214.068506 
L 1169.91673 1213.359819 
L 1164.963895 1212.929506 
L 1160.012071 1212.781089 
L 1155.083403 1212.91663 
L 1150.197977 1213.336505 
L 1145.373497 1214.039181 
L 1140.625029 1215.021011 
L 1135.964793 1216.27603 
L 1131.402027 1217.795797 
L 1126.942924 1219.569247 
L 1122.590641 1221.582603 
L 1118.345383 1223.81932 
L 1114.204568 1226.260082 
L 1110.163062 1228.882863 
L 1106.213481 1231.663031 
L 1101.074144 1235.567635 
L 1094.816851 1240.666389 
L 1075.42612 1256.882001 
L 1070.604637 1260.482807 
L 1066.977112 1262.963406 
L 1063.338855 1265.220985 
L 1059.692139 1267.226939 
L 1056.042211 1268.955295 
L 1052.397283 1270.383065 
L 1048.76843 1271.490548 
L 1045.169395 1272.261562 
L 1042.794486 1272.582322 
L 1040.445265 1272.745145 
L 1038.12739 1272.748021 
L 1035.846811 1272.589691 
L 1033.609712 1272.269644 
L 1031.422443 1271.788101 
L 1029.291454 1271.145991 
L 1027.223222 1270.34493 
L 1025.224187 1269.387186 
L 1023.300675 1268.275645 
L 1021.458839 1267.013768 
L 1019.704586 1265.605544 
L 1018.043514 1264.055446 
L 1016.480858 1262.368374 
L 1015.021432 1260.549606 
L 1013.669579 1258.604738 
L 1012.429127 1256.53963 
L 1011.303352 1254.36035 
L 1010.294948 1252.073111 
L 1009.006799 1248.453642 
L 1007.991656 1244.626861 
L 1007.250661 1240.61395 
L 1006.781725 1236.435515 
L 1006.579599 1232.111251 
L 1006.636022 1227.659654 
L 1006.939911 1223.097782 
L 1007.477616 1218.441077 
L 1008.233201 1213.703235 
L 1009.18876 1208.89615 
L 1010.739925 1202.396163 
L 1012.561898 1195.809896 
L 1015.139992 1187.476743 
L 1018.535188 1177.352894 
L 1027.329707 1151.551684 
L 1030.022524 1142.824844 
L 1031.989917 1135.815395 
L 1033.748066 1128.796012 
L 1035.260285 1121.785159 
L 1036.492843 1114.805937 
L 1037.21511 1109.608743 
L 1037.750817 1104.458024 
L 1038.089047 1099.368157 
L 1038.21987 1094.354478 
L 1038.134376 1089.433022 
L 1037.824705 1084.620237 
L 1037.284094 1079.932656 
L 1036.506912 1075.386562 
L 1035.4887 1070.997628 
L 1034.226202 1066.780566 
L 1032.717395 1062.748789 
L 1030.961499 1058.914096 
L 1028.958988 1055.286388 
L 1026.711581 1051.873434 
L 1024.22222 1048.680688 
L 1021.495041 1045.711166 
L 1018.535328 1042.96539 
L 1015.349464 1040.441399 
L 1011.944867 1038.134838 
L 1008.329929 1036.039105 
L 1004.51395 1034.145582 
L 1000.507072 1032.44391 
L 996.320222 1030.922334 
L 991.965057 1029.568089 
L 987.453916 1028.367816 
L 981.218978 1026.983667 
L 974.762421 1025.818343 
L 968.118647 1024.843764 
L 959.606057 1023.858575 
L 950.932502 1023.10311 
L 942.17697 1022.56356 
L 933.422181 1022.246192 
L 924.753667 1022.177331 
L 917.939364 1022.330551 
L 911.280154 1022.700751 
L 904.819134 1023.322077 
L 900.128156 1023.974898 
L 895.58783 1024.805339 
L 891.212909 1025.828778 
L 887.016522 1027.059732 
L 883.009883 1028.51136 
L 879.202018 1030.195011 
L 875.599516 1032.119812 
L 872.206309 1034.292311 
L 869.023494 1036.716184 
L 866.049211 1039.39202 
L 863.27857 1042.317175 
L 860.703649 1045.485712 
L 858.313549 1048.888413 
L 856.094529 1052.512875 
L 854.030195 1056.34367 
L 852.101766 1060.362571 
L 849.705645 1065.977539 
L 847.459944 1071.834723 
L 844.247142 1080.941351 
L 838.818722 1096.430226 
L 836.45963 1102.541154 
L 833.920492 1108.507305 
L 831.87411 1112.850688 
L 829.690702 1117.055146 
L 827.359486 1121.09862 
L 824.872519 1124.960825 
L 822.224701 1128.623383 
L 819.413707 1132.069926 
L 816.439851 1135.286179 
L 813.305883 1138.260017 
L 810.016738 1140.981507 
L 806.579232 1143.442931 
L 803.001729 1145.638797 
L 799.293789 1147.565832 
L 795.465803 1149.222967 
L 791.528634 1150.611297 
L 787.493269 1151.73404 
L 783.370499 1152.596463 
L 779.170641 1153.2058 
L 774.903286 1153.571143 
L 770.577117 1153.703307 
L 766.199765 1153.614678 
L 761.777726 1153.319021 
L 757.31634 1152.83127 
L 751.313741 1151.909637 
L 745.255683 1150.714062 
L 739.14656 1149.284672 
L 731.441919 1147.229351 
L 722.099675 1144.4644 
L 709.490365 1140.444704 
L 691.945338 1134.573123 
L 677.577834 1129.538765 
L 668.118897 1126.001932 
L 660.387627 1122.877912 
L 654.345448 1120.221061 
L 648.466162 1117.38867 
L 642.783762 1114.347584 
L 638.671638 1111.910608 
L 634.703514 1109.325988 
L 630.893145 1106.582759 
L 627.253792 1103.671665 
L 623.798124 1100.585465 
L 620.538132 1097.319184 
L 617.485073 1093.870321 
L 614.649431 1090.238989 
L 612.040902 1086.428003 
L 609.668389 1082.4429 
L 607.540014 1078.291914 
L 605.663134 1073.985882 
L 604.044363 1069.538113 
L 602.689592 1064.96421 
L 601.603998 1060.281852 
L 600.792049 1055.510556 
L 600.257491 1050.671407 
L 600.003325 1045.786784 
L 600.031767 1040.880077 
L 600.34419 1035.975395 
L 600.941053 1031.097299 
L 601.821823 1026.270522 
L 602.984883 1021.519724 
L 604.427443 1016.869246 
L 606.14545 1012.342897 
L 608.133504 1007.963748 
L 610.384797 1003.753952 
L 612.891057 999.734572 
L 615.642531 995.925435 
L 618.627981 992.344985 
L 621.834731 989.010159 
L 625.248728 985.936263 
L 627.632349 984.03873 
L 630.096476 982.266793 
L 632.636092 980.623632 
L 635.246003 979.112033 
L 637.920877 977.734369 
L 642.043053 975.923154 
L 646.280442 974.422314 
L 650.614243 973.23427 
L 655.025816 972.359054 
L 659.496976 971.794222 
L 664.010279 971.534806 
L 668.549305 971.573267 
L 673.098917 971.899481 
L 677.645495 972.500756 
L 682.177137 973.361878 
L 686.683815 974.465189 
L 691.157491 975.790715 
L 695.592176 977.316321 
L 699.983945 979.017911 
L 705.769864 981.515616 
L 711.477059 984.21506 
L 719.904987 988.492506 
L 736.443566 997.002776 
L 741.922389 999.57803 
L 747.411716 1001.919508 
L 751.544005 1003.489782 
L 755.694596 1004.878319 
L 759.866753 1006.067465 
L 764.06223 1007.042037 
L 768.281135 1007.789373 
L 772.521823 1008.299324 
L 776.780846 1008.56419 
L 781.052949 1008.578604 
L 785.331109 1008.339382 
L 789.606617 1007.845316 
L 793.869206 1007.096951 
L 798.107209 1006.096335 
L 802.307761 1004.846754 
L 806.457016 1003.352473 
L 810.540399 1001.618472 
L 814.542867 999.65021 
L 818.449186 997.453403 
L 822.244213 995.033838 
L 825.913181 992.397226 
L 829.441975 989.549089 
L 832.81741 986.4947 
L 836.027482 983.239063 
L 839.061617 979.786941 
L 841.910895 976.142926 
L 844.568246 972.311547 
L 847.028637 968.297413 
L 849.289216 964.105388 
L 851.349437 959.740775 
L 853.211151 955.209518 
L 854.878665 950.518405 
L 856.358771 945.675262 
L 857.660733 940.689127 
L 858.796244 935.570403 
L 860.075933 928.559954 
L 861.124335 921.367605 
L 862.179885 912.178984 
L 863.207922 900.974025 
L 865.042757 880.458041 
L 865.895017 873.182147 
L 866.942082 866.091023 
L 867.889768 860.925664 
L 869.00187 855.914885 
L 870.299299 851.078338 
L 871.801013 846.434009 
L 873.523768 841.997953 
L 875.48191 837.784065 
L 876.924031 835.104037 
L 878.47888 832.530748 
L 880.148733 830.066506 
L 881.935319 827.71311 
L 883.839809 825.471845 
L 885.862825 823.343481 
L 888.004442 821.328284 
L 890.264201 819.426025 
L 892.64112 817.635994 
L 895.133721 815.957019 
L 897.740041 814.387489 
L 901.857344 812.233871 
L 906.215068 810.31344 
L 910.801384 808.616065 
L 915.602811 807.130163 
L 920.604502 805.842965 
L 925.790522 804.740787 
L 931.144151 803.809293 
L 936.648163 803.033748 
L 944.190607 802.216536 
L 951.928189 801.615009 
L 961.813615 801.114484 
L 971.867284 800.834336 
L 984.058937 800.706968 
L 1002.39851 800.756758 
L 1032.46304 800.852902 
L 1046.070938 800.662797 
L 1057.450138 800.279828 
L 1066.705718 799.761384 
L 1075.735466 799.026872 
L 1082.7853 798.26244 
L 1089.671817 797.32413 
L 1096.387798 796.197568 
L 1102.92702 794.869661 
L 1109.284549 793.32888 
L 1115.457062 791.565548 
L 1121.443166 789.572099 
L 1127.243689 787.343311 
L 1132.861927 784.876519 
L 1138.303803 782.171798 
L 1143.577943 779.232122 
L 1148.695638 776.063511 
L 1153.670696 772.675171 
L 1158.51918 769.079637 
L 1163.259032 765.292917 
L 1169.060659 760.32096 
L 1174.76237 755.128056 
L 1182.652218 747.596449 
L 1198.466455 732.365312 
L 1204.213318 727.162959 
L 1208.865045 723.20281 
L 1213.566554 719.482663 
L 1218.315003 716.0597 
L 1221.90313 713.721885 
L 1225.509433 711.607005 
L 1229.128256 709.737924 
L 1232.752752 708.136395 
L 1236.374936 706.82271 
L 1239.985765 705.815353 
L 1243.575211 705.130662 
L 1245.950939 704.86042 
L 1248.308891 704.743249 
L 1250.645487 704.782006 
L 1252.957016 704.978941 
L 1255.239651 705.335662 
L 1257.489462 705.853117 
L 1259.702431 706.531573 
L 1261.874471 707.370605 
L 1264.001433 708.369091 
L 1266.079131 709.525205 
L 1268.103351 710.836425 
L 1270.069871 712.299543 
L 1271.974475 713.910682 
L 1273.81297 715.665315 
L 1276.437696 718.554897 
L 1278.890606 721.735816 
L 1281.158388 725.185595 
L 1283.228301 728.879442 
L 1285.088324 732.790648 
L 1286.727307 736.89102 
L 1288.135118 741.151347 
L 1289.302799 745.541885 
L 1290.222716 750.032844 
L 1290.888698 754.594884 
L 1291.296173 759.199592 
L 1291.44229 763.819942 
L 1291.326019 768.430722 
L 1290.94823 773.00893 
L 1290.311753 777.534116 
L 1289.421398 781.988677 
L 1288.283953 786.35809 
L 1286.908146 790.631086 
L 1285.304571 794.799757 
L 1283.485583 798.859598 
L 1281.465162 802.809479 
L 1279.25874 806.651557 
L 1276.883016 810.391118 
L 1274.355733 814.036371 
L 1270.782431 818.769123 
L 1267.018224 823.38586 
L 1262.114962 829.051862 
L 1244.929069 848.546392 
L 1241.001535 853.429345 
L 1237.192301 858.501398 
L 1233.531646 863.788047 
L 1230.047409 869.306424 
L 1227.565664 873.602356 
L 1225.208226 878.032891 
L 1222.985315 882.594452 
L 1220.907084 887.280214 
L 1218.983764 892.080164 
L 1217.225791 896.981211 
L 1215.643914 901.967372 
L 1214.249249 907.020013 
L 1213.053304 912.118157 
L 1212.06796 917.23883 
L 1211.305392 922.357475 
L 1210.777955 927.448394 
L 1210.498019 932.485223 
L 1210.477754 937.441441 
L 1210.728893 942.290885 
L 1211.26245 947.008271 
L 1212.088423 951.569718 
L 1212.805874 954.513099 
L 1213.659355 957.371408 
L 1214.650679 960.139224 
L 1215.781259 962.81171 
L 1217.052064 965.38466 
L 1218.463589 967.854543 
L 1220.015825 970.218544 
L 1221.708226 972.474594 
L 1223.539693 974.621398 
L 1225.508549 976.658451 
L 1227.612529 978.586057 
L 1229.84877 980.405324 
L 1232.21381 982.118168 
L 1234.703589 983.7273 
L 1238.661813 985.954372 
L 1242.872003 987.971017 
L 1247.313305 989.795673 
L 1251.962322 991.449971 
L 1256.793369 992.958329 
L 1263.469864 994.788944 
L 1272.094159 996.883625 
L 1293.22212 1001.83237 
L 1300.13461 1003.700032 
L 1306.859771 1005.779674 
L 1311.73945 1007.508993 
L 1316.448174 1009.40338 
L 1320.960595 1011.476865 
L 1325.253243 1013.739868 
L 1329.304647 1016.199121 
L 1333.095423 1018.857667 
L 1336.608345 1021.71496 
L 1338.788416 1023.728414 
L 1340.834364 1025.826541 
L 1342.742728 1028.006791 
L 1344.510488 1030.26608 
L 1346.135066 1032.60084 
L 1347.614334 1035.007075 
L 1348.946603 1037.48042 
L 1350.130637 1040.016207 
L 1351.165642 1042.609522 
L 1352.051276 1045.255277 
L 1352.787647 1047.948269 
L 1353.375317 1050.683249 
L 1353.815304 1053.454979 
L 1354.201736 1057.670221 
L 1354.266251 1061.939739 
L 1354.018149 1066.247749 
L 1353.469107 1070.579837 
L 1352.633184 1074.923227 
L 1351.52681 1079.266974 
L 1350.168758 1083.602084 
L 1348.580085 1087.921547 
L 1346.784047 1092.220297 
L 1344.110829 1097.914387 
L 1341.179496 1103.562825 
L 1337.260164 1110.560685 
L 1323.038568 1135.289505 
L 1320.336918 1140.696726 
L 1318.521408 1144.724782 
L 1316.917331 1148.723211 
L 1315.54997 1152.684596 
L 1314.442013 1156.599869 
L 1313.613279 1160.458461 
L 1313.080491 1164.24852 
L 1312.857093 1167.957197 
L 1312.953125 1171.570995 
L 1313.197992 1173.920684 
L 1313.588897 1176.218027 
L 1314.126237 1178.459054 
L 1314.809727 1180.639937 
L 1315.638424 1182.757049 
L 1316.610736 1184.807015 
L 1317.724451 1186.786769 
L 1318.976763 1188.693592 
L 1320.364301 1190.525167 
L 1321.883165 1192.279606 
L 1324.397968 1194.763659 
L 1327.181594 1197.068361 
L 1330.215419 1199.19359 
L 1333.479224 1201.14184 
L 1336.951561 1202.918162 
L 1340.610132 1204.530006 
L 1344.432165 1205.986989 
L 1348.394787 1207.300572 
L 1353.85799 1208.85145 
L 1359.479277 1210.203775 
L 1366.654802 1211.667548 
L 1375.374034 1213.177066 
L 1386.995285 1214.924791 
L 1404.081648 1217.241531 
L 1416.549502 1218.753339 
L 1426.111292 1219.697632 
L 1434.291084 1220.266469 
L 1441.148545 1220.530027 
L 1448.082972 1220.582201 
L 1455.123735 1220.421224 
L 1463.735987 1219.973422 
L 1474.002407 1219.193962 
L 1493.385172 1217.658049 
L 1500.749699 1217.310098 
L 1506.506143 1217.23215 
L 1512.080367 1217.383997 
L 1516.105063 1217.674797 
L 1519.967215 1218.135209 
L 1523.64109 1218.779055 
L 1527.101758 1219.617756 
L 1530.325628 1220.660197 
L 1533.290975 1221.912685 
L 1535.978419 1223.378966 
L 1537.607334 1224.475997 
L 1539.10114 1225.668479 
L 1540.456348 1226.955797 
L 1541.670166 1228.336938 
L 1542.740526 1229.810533 
L 1543.6661 1231.37489 
L 1544.446311 1233.028031 
L 1545.081334 1234.767735 
L 1545.572084 1236.591573 
L 1545.920205 1238.496948 
L 1546.180267 1241.501891 
L 1546.135525 1244.674519 
L 1545.799711 1248.004934 
L 1545.1892 1251.483119 
L 1544.322547 1255.099058 
L 1543.219966 1258.842802 
L 1541.4198 1264.016208 
L 1539.289944 1269.375903 
L 1536.2416 1276.301275 
L 1532.850631 1283.431875 
L 1528.440644 1292.183594 
L 1522.954008 1302.525715 
L 1518.026486 1311.355632 
L 1513.775439 1318.573128 
L 1509.38213 1325.555722 
L 1505.749177 1330.899669 
L 1501.993445 1335.965642 
L 1499.085154 1339.547603 
L 1496.089842 1342.916307 
L 1493.000177 1346.048654 
L 1489.809595 1348.923029 
L 1486.512609 1351.519804 
L 1483.105076 1353.821824 
L 1479.584399 1355.814877 
L 1477.1739 1356.966422 
L 1474.712832 1357.973441 
L 1472.201707 1358.834406 
L 1469.641382 1359.548605 
L 1467.033053 1360.116166 
L 1464.378236 1360.538082 
L 1460.312917 1360.9022 
L 1456.15449 1360.953048 
L 1451.911492 1360.705058 
L 1447.593439 1360.176939 
L 1443.210564 1359.391454 
L 1438.773539 1358.375106 
L 1434.293192 1357.157738 
L 1428.270476 1355.278784 
L 1420.69723 1352.637808 
L 1398.042887 1344.444374 
L 1392.08017 1342.605164 
L 1387.637056 1341.415075 
L 1383.218506 1340.417108 
L 1378.823014 1339.634015 
L 1374.448 1339.084362 
L 1370.089954 1338.782245 
L 1365.744608 1338.737091 
L 1361.407128 1338.95354 
L 1357.072318 1339.43141 
L 1352.734849 1340.165752 
L 1348.389481 1341.146978 
L 1344.031308 1342.361063 
L 1339.655995 1343.789824 
L 1333.78963 1345.990235 
L 1327.881248 1348.471312 
L 1320.435278 1351.859393 
L 1296.348624 1363.081116 
L 1290.367715 1365.542162 
L 1284.464516 1367.705469 
L 1280.112143 1369.089587 
L 1275.844553 1370.239021 
L 1271.681289 1371.129412 
L 1267.642559 1371.739424 
L 1263.748861 1372.05094 
L 1260.020567 1372.049206 
L 1258.818007 1371.976963 
L 1258.818007 1371.976963 
" clip-path="url(#p1243e0f89d)" style="fill: none; stroke: #4169e1; stroke-width: 3; stroke-linecap: square"/>
   </g>
   <g id="line2d_2">
    <path d="M 1237.802044 1416.945793 
L 1235.8085 1416.568387 
L 1233.896019 1416.019844 
L 1232.06899 1415.298883 
L 1230.331479 1414.404998 
L 1228.687171 1413.338443 
L 1227.139326 1412.100216 
L 1225.690734 1410.69203 
L 1224.343677 1409.11629 
L 1223.099886 1407.376058 
L 1221.960514 1405.475017 
L 1220.926103 1403.417441 
L 1219.996564 1401.208146 
L 1218.797097 1397.621499 
L 1217.826496 1393.725427 
L 1217.076109 1389.541774 
L 1216.533956 1385.094029 
L 1216.184838 1380.406967 
L 1216.010506 1375.506312 
L 1216.013199 1368.685425 
L 1216.232224 1361.594821 
L 1216.827015 1350.590487 
L 1218.037335 1329.881629 
L 1218.314945 1320.494163 
L 1218.288483 1313.08905 
L 1218.084105 1307.625454 
L 1217.696332 1302.258306 
L 1217.10523 1297.00356 
L 1216.293696 1291.876109 
L 1215.247666 1286.889876 
L 1213.956271 1282.057926 
L 1212.411932 1277.392579 
L 1210.610418 1272.905536 
L 1208.550831 1268.607994 
L 1206.235557 1264.510763 
L 1203.67016 1260.624365 
L 1200.863227 1256.95912 
L 1197.826177 1253.525207 
L 1194.573023 1250.332704 
L 1191.120099 1247.391593 
L 1187.485753 1244.711745 
L 1183.690016 1242.302867 
L 1179.754239 1240.174411 
L 1175.700716 1238.335471 
L 1171.552297 1236.794623 
L 1167.331986 1235.559765 
L 1163.062546 1234.637906 
L 1158.766108 1234.034952 
L 1154.463794 1233.755463 
L 1150.175361 1233.802403 
L 1145.918879 1234.176879 
L 1141.710439 1234.877889 
L 1137.563908 1235.902068 
L 1133.490737 1237.243461 
L 1129.499821 1238.893316 
L 1125.597421 1240.839914 
L 1121.787151 1243.068438 
L 1118.070032 1245.560899 
L 1114.444609 1248.296114 
L 1110.907135 1251.249745 
L 1107.451818 1254.394407 
L 1102.959295 1258.831755 
L 1098.577731 1263.475709 
L 1092.160064 1270.639564 
L 1082.717841 1281.208683 
L 1078.538006 1285.591836 
L 1074.347994 1289.648552 
L 1071.194947 1292.423523 
L 1068.032953 1294.930365 
L 1064.864845 1297.137097 
L 1061.696041 1299.014912 
L 1058.534516 1300.538562 
L 1056.435921 1301.346853 
L 1054.348791 1301.982838 
L 1052.277187 1302.44204 
L 1050.225545 1302.72084 
L 1048.19863 1302.816488 
L 1046.201488 1302.727101 
L 1044.239394 1302.451663 
L 1042.317798 1301.990009 
L 1040.442264 1301.342803 
L 1038.618412 1300.511516 
L 1036.851857 1299.49839 
L 1035.148151 1298.306398 
L 1033.512718 1296.9392 
L 1031.9508 1295.401093 
L 1030.4674 1293.696957 
L 1029.067228 1291.832197 
L 1027.754652 1289.812681 
L 1026.533652 1287.64468 
L 1025.40778 1285.334798 
L 1023.903961 1281.619047 
L 1022.629328 1277.623581 
L 1021.589528 1273.372942 
L 1020.78743 1268.891733 
L 1020.223088 1264.204174 
L 1019.893763 1259.333686 
L 1019.794009 1254.302524 
L 1019.915813 1249.131464 
L 1020.248785 1243.839551 
L 1020.780381 1238.443909 
L 1021.77295 1231.11414 
L 1023.054207 1223.656537 
L 1024.581693 1216.094643 
L 1026.768388 1206.521891 
L 1029.678506 1194.887321 
L 1038.302722 1161.215145 
L 1040.600614 1151.154348 
L 1042.654763 1141.056369 
L 1044.07846 1132.974495 
L 1045.273644 1124.915077 
L 1046.212307 1116.907369 
L 1046.869024 1108.985667 
L 1047.162718 1103.123978 
L 1047.276316 1097.350029 
L 1047.202078 1091.682288 
L 1046.933183 1086.139696 
L 1046.463755 1080.741296 
L 1045.788907 1075.505836 
L 1044.904765 1070.451367 
L 1043.808504 1065.594834 
L 1042.498364 1060.951682 
L 1040.973672 1056.535499 
L 1039.234837 1052.357689 
L 1037.283351 1048.427198 
L 1035.12177 1044.750307 
L 1032.753685 1041.33049 
L 1030.183685 1038.168346 
L 1027.417311 1035.26162 
L 1024.461006 1032.605293 
L 1021.322055 1030.191766 
L 1018.008535 1028.011111 
L 1014.529253 1026.051399 
L 1010.893696 1024.299093 
L 1007.111985 1022.73949 
L 1003.194837 1021.35721 
L 999.153533 1020.136702 
L 993.592499 1018.734864 
L 987.861279 1017.560357 
L 981.990953 1016.584644 
L 976.014188 1015.785828 
L 968.445803 1015.015907 
L 960.834613 1014.494706 
L 953.253541 1014.238807 
L 947.260686 1014.25067 
L 941.373729 1014.486151 
L 935.630926 1014.98095 
L 931.440776 1015.54634 
L 927.367471 1016.298154 
L 923.42498 1017.254521 
L 919.626116 1018.433154 
L 915.982277 1019.850769 
L 912.503202 1021.52252 
L 909.196728 1023.461479 
L 907.09122 1024.907875 
L 905.066145 1026.480158 
L 903.12216 1028.180089 
L 901.259423 1030.008757 
L 898.616755 1032.993783 
L 896.152623 1036.26737 
L 893.861024 1039.823946 
L 891.733346 1043.654148 
L 889.758464 1047.744898 
L 887.922888 1052.079563 
L 886.210972 1056.638194 
L 884.090228 1063.024684 
L 882.112158 1069.706626 
L 879.304153 1080.132876 
L 874.130798 1099.740541 
L 871.547233 1108.514244 
L 869.297762 1115.332444 
L 866.850505 1121.898385 
L 864.869917 1126.619506 
L 862.756109 1131.139421 
L 860.503834 1135.436217 
L 858.11028 1139.490262 
L 855.574973 1143.284304 
L 852.899619 1146.803546 
L 850.087896 1150.035706 
L 847.145209 1152.971041 
L 844.078408 1155.602373 
L 840.895482 1157.925083 
L 837.605249 1159.937095 
L 834.217038 1161.638847 
L 830.740386 1163.033236 
L 827.18475 1164.125551 
L 823.559249 1164.923382 
L 819.872444 1165.436499 
L 816.132152 1165.676718 
L 812.345314 1165.657719 
L 808.517906 1165.394853 
L 804.654897 1164.904898 
L 800.760263 1164.205797 
L 796.837043 1163.316359 
L 791.565301 1161.867834 
L 786.249874 1160.161562 
L 779.546813 1157.734992 
L 771.419779 1154.499837 
L 761.831417 1150.429335 
L 747.985981 1144.2958 
L 735.501023 1138.529123 
L 727.266431 1134.49134 
L 720.524496 1130.936542 
L 715.247095 1127.921385 
L 710.103835 1124.713631 
L 706.352103 1122.158378 
L 702.704868 1119.45741 
L 699.174528 1116.595724 
L 695.77325 1113.559601 
L 692.512845 1110.337028 
L 689.404666 1106.918082 
L 686.459524 1103.295264 
L 683.687625 1099.463772 
L 681.098521 1095.421713 
L 678.701091 1091.170249 
L 676.503521 1086.713665 
L 674.513316 1082.059382 
L 672.737304 1077.217894 
L 671.181658 1072.202651 
L 669.85191 1067.029886 
L 668.752968 1061.718394 
L 667.889121 1056.289273 
L 667.264041 1050.765636 
L 666.88077 1045.172299 
L 666.741691 1039.535458 
L 666.84849 1033.882362 
L 667.202101 1028.240986 
L 667.802645 1022.639713 
L 668.649353 1017.107032 
L 669.740491 1011.671248 
L 671.073279 1006.360218 
L 672.643815 1001.2011 
L 674.447009 996.220136 
L 676.476528 991.442439 
L 678.724764 986.89181 
L 681.182814 982.590569 
L 683.8405 978.559396 
L 686.686407 974.817184 
L 689.707957 971.380903 
L 691.813208 969.267465 
L 693.986207 967.300555 
L 696.222517 965.483611 
L 698.517565 963.819605 
L 700.866667 962.311031 
L 703.265055 960.959886 
L 705.707909 959.767658 
L 708.190386 958.735309 
L 710.707656 957.863263 
L 713.254932 957.151392 
L 715.827505 956.599007 
L 718.420778 956.204847 
L 721.030297 955.967072 
L 723.651783 955.883256 
L 726.281165 955.950386 
L 730.231718 956.326067 
L 734.179638 957.018519 
L 738.114588 958.010221 
L 742.027861 959.280837 
L 745.912477 960.807365 
L 749.763236 962.564311 
L 753.57673 964.523929 
L 758.600803 967.400384 
L 763.556518 970.509169 
L 769.66357 974.601783 
L 785.235625 985.236003 
L 789.993038 988.201766 
L 794.759572 990.898303 
L 798.347753 992.706693 
L 801.951826 994.305786 
L 805.574624 995.675253 
L 809.217673 996.797608 
L 812.881065 997.65827 
L 816.563371 998.24555 
L 820.261598 998.550579 
L 823.971183 998.56718 
L 827.686027 998.291682 
L 831.398569 997.722696 
L 835.099892 996.86085 
L 838.779867 995.708501 
L 842.427322 994.269435 
L 846.030235 992.548562 
L 849.57595 990.551619 
L 853.051403 988.284891 
L 856.443367 985.754962 
L 859.738694 982.968497 
L 862.92456 979.932071 
L 865.98871 976.652045 
L 868.919692 973.134492 
L 871.707087 969.385173 
L 874.34171 965.409575 
L 876.815816 961.212984 
L 879.123268 956.800618 
L 881.259693 952.177785 
L 883.222616 947.350085 
L 885.011563 942.323625 
L 886.62814 937.105253 
L 888.076089 931.702784 
L 889.361306 926.125231 
L 890.491835 920.383003 
L 891.776428 912.491488 
L 892.833974 904.361876 
L 893.700133 896.03304 
L 894.57666 885.410353 
L 895.719051 868.163954 
L 896.901851 851.01853 
L 897.851339 840.575359 
L 898.810708 832.471719 
L 900.000751 824.655994 
L 901.071786 819.016751 
L 902.314922 813.592201 
L 903.745367 808.401609 
L 905.376297 803.46183 
L 907.218689 798.787086 
L 909.281209 794.388785 
L 910.781712 791.614474 
L 912.384147 788.96863 
L 914.08929 786.452437 
L 915.897444 784.066492 
L 917.80844 781.810813 
L 919.821652 779.684856 
L 921.936009 777.687535 
L 924.150013 775.817244 
L 926.461763 774.071888 
L 928.868972 772.448908 
L 932.652904 770.237265 
L 936.635328 768.282501 
L 940.804541 766.571279 
L 945.147646 765.088891 
L 949.650811 763.81958 
L 954.299515 762.746835 
L 959.0788 761.853687 
L 963.973512 761.122984 
L 970.653222 760.371888 
L 977.476117 759.839529 
L 986.154955 759.423804 
L 996.709891 759.199861 
L 1009.100382 759.180933 
L 1045.682483 759.306349 
L 1055.75724 759.068014 
L 1063.974488 758.682165 
L 1072.011363 758.085104 
L 1078.300393 757.430066 
L 1084.456351 756.597048 
L 1090.472173 755.568117 
L 1096.34141 754.326401 
L 1102.058418 752.856421 
L 1107.618608 751.144419 
L 1111.683819 749.694463 
L 1115.658157 748.097654 
L 1119.541399 746.350726 
L 1123.333954 744.451285 
L 1127.036908 742.397872 
L 1130.652062 740.19001 
L 1134.181956 737.82825 
L 1137.629874 735.314215 
L 1142.106629 731.730183 
L 1146.456337 727.8901 
L 1150.692483 723.807426 
L 1154.830274 719.499581 
L 1158.886252 714.988129 
L 1163.867742 709.102382 
L 1169.761441 701.759527 
L 1189.409413 676.841618 
L 1194.438352 671.034066 
L 1198.510088 666.674553 
L 1202.623533 662.640781 
L 1205.733036 659.868896 
L 1208.85972 657.34476 
L 1211.999031 655.095041 
L 1215.145362 653.145262 
L 1218.292102 651.519398 
L 1221.431697 650.239472 
L 1223.516663 649.588204 
L 1225.592024 649.104665 
L 1227.654934 648.793445 
L 1229.702409 648.658505 
L 1231.731339 648.70314 
L 1233.738504 648.929938 
L 1235.720579 649.340751 
L 1237.674152 649.936672 
L 1239.595734 650.718009 
L 1241.481776 651.684272 
L 1243.328676 652.834167 
L 1245.132798 654.165593 
L 1246.890484 655.675645 
L 1248.598068 657.360629 
L 1250.251888 659.21608 
L 1251.848304 661.236784 
L 1254.127426 664.564539 
L 1256.257356 668.227809 
L 1258.226533 672.20071 
L 1260.023896 676.454689 
L 1261.639005 680.958987 
L 1263.062179 685.681135 
L 1264.28462 690.587495 
L 1265.29855 695.64381 
L 1266.09734 700.815774 
L 1266.67563 706.069598 
L 1267.029452 711.37256 
L 1267.156329 716.693534 
L 1267.055368 722.003489 
L 1266.727323 727.275932 
L 1266.174652 732.487314 
L 1265.401532 737.617361 
L 1264.413858 742.649347 
L 1263.219207 747.570297 
L 1261.826778 752.371101 
L 1260.247301 757.046573 
L 1258.492913 761.59541 
L 1256.577016 766.020097 
L 1254.51411 770.326722 
L 1251.561621 775.902021 
L 1248.413639 781.315284 
L 1244.264341 787.913722 
L 1238.19555 797.000284 
L 1229.375621 810.170845 
L 1225.051319 817.05448 
L 1221.688861 822.782546 
L 1218.442561 828.744192 
L 1215.337601 834.964119 
L 1212.397265 841.456814 
L 1209.643464 848.225633 
L 1207.097326 855.262275 
L 1205.336584 860.703876 
L 1203.713352 866.27234 
L 1202.236774 871.951453 
L 1200.916284 877.721757 
L 1199.761648 883.560851 
L 1198.782973 889.44376 
L 1197.990667 895.343367 
L 1197.395369 901.230894 
L 1197.00783 907.076425 
L 1196.838753 912.849476 
L 1196.898606 918.519572 
L 1197.197396 924.056854 
L 1197.744423 929.432678 
L 1198.548015 934.620205 
L 1199.61526 939.59497 
L 1200.951735 944.335408 
L 1201.994249 947.356391 
L 1203.158792 950.260611 
L 1204.44558 953.044409 
L 1205.854373 955.704967 
L 1207.384459 958.240346 
L 1209.034636 960.649507 
L 1210.803192 962.932334 
L 1212.687902 965.089639 
L 1214.68602 967.123164 
L 1216.794279 969.035576 
L 1219.008897 970.830447 
L 1222.520729 973.312336 
L 1226.245572 975.558533 
L 1230.164559 977.591544 
L 1234.256685 979.437407 
L 1238.499043 981.125196 
L 1244.346614 983.184511 
L 1251.875848 985.564364 
L 1267.183093 990.290656 
L 1273.216386 992.390703 
L 1277.64806 994.111952 
L 1281.971212 995.987714 
L 1286.161431 998.040587 
L 1290.195695 1000.289395 
L 1294.052524 1002.748929 
L 1297.712105 1005.429778 
L 1301.156393 1008.338273 
L 1304.369175 1011.476522 
L 1306.375261 1013.69552 
L 1308.268276 1016.014293 
L 1310.04483 1018.430577 
L 1311.701915 1020.941438 
L 1313.236909 1023.543324 
L 1314.647576 1026.232125 
L 1315.932064 1029.003239 
L 1317.619117 1033.303155 
L 1319.015763 1037.758515 
L 1320.120669 1042.349724 
L 1320.934485 1047.056534 
L 1321.45986 1051.858592 
L 1321.701463 1056.735967 
L 1321.666 1061.669637 
L 1321.362233 1066.641909 
L 1320.80099 1071.636783 
L 1319.995168 1076.64023 
L 1318.959717 1081.640382 
L 1317.711604 1086.627642 
L 1316.26976 1091.594693 
L 1314.082163 1098.177454 
L 1311.641482 1104.708847 
L 1308.325093 1112.799367 
L 1303.410905 1124.000497 
L 1297.160576 1138.226211 
L 1293.982449 1146.053153 
L 1291.701887 1152.269208 
L 1289.7195 1158.432551 
L 1288.461361 1163.009925 
L 1287.422169 1167.53788 
L 1286.619988 1172.004794 
L 1286.070254 1176.397478 
L 1285.785604 1180.701475 
L 1285.775752 1184.901443 
L 1286.047405 1188.981583 
L 1286.60424 1192.926107 
L 1287.44692 1196.719737 
L 1288.573162 1200.348192 
L 1289.977855 1203.798669 
L 1291.653214 1207.060278 
L 1293.58898 1210.124435 
L 1295.772653 1212.985167 
L 1298.189752 1215.639353 
L 1300.824106 1218.086849 
L 1303.658158 1220.330531 
L 1306.673285 1222.376212 
L 1309.850123 1224.232475 
L 1313.168899 1225.910393 
L 1316.609754 1227.423167 
L 1321.353603 1229.209218 
L 1326.234722 1230.766609 
L 1331.211043 1232.135121 
L 1337.507629 1233.639121 
L 1346.354222 1235.478443 
L 1358.839376 1237.800093 
L 1372.206394 1240.06612 
L 1380.54176 1241.270826 
L 1387.642009 1242.064314 
L 1393.571625 1242.504848 
L 1399.5493 1242.712558 
L 1405.60504 1242.673491 
L 1411.76054 1242.39435 
L 1419.291272 1241.78684 
L 1429.548377 1240.684836 
L 1441.217579 1239.460846 
L 1447.635325 1239.007994 
L 1452.665409 1238.860457 
L 1457.550078 1238.964288 
L 1461.086863 1239.238056 
L 1464.490027 1239.701275 
L 1467.737099 1240.370734 
L 1470.806146 1241.26053 
L 1473.676246 1242.381881 
L 1476.327945 1243.743039 
L 1477.965652 1244.786435 
L 1479.493796 1245.939674 
L 1480.908228 1247.203058 
L 1482.205341 1248.576367 
L 1483.382106 1250.058892 
L 1484.436097 1251.649468 
L 1485.36552 1253.346518 
L 1486.169221 1255.148092 
L 1486.846701 1257.051914 
L 1487.398108 1259.055425 
L 1487.99075 1262.241437 
L 1488.306993 1265.635194 
L 1488.355165 1269.2258 
L 1488.146342 1273.001944 
L 1487.694022 1276.952115 
L 1487.013733 1281.064769 
L 1486.122599 1285.328416 
L 1484.638081 1291.22847 
L 1482.856021 1297.349804 
L 1480.277966 1305.271203 
L 1477.387017 1313.440525 
L 1473.605325 1323.485497 
L 1468.881023 1335.384514 
L 1464.630146 1345.572602 
L 1460.214336 1355.568992 
L 1456.399505 1363.610421 
L 1453.244912 1369.764719 
L 1449.983706 1375.598892 
L 1447.458357 1379.724018 
L 1444.857444 1383.603549 
L 1442.174603 1387.210883 
L 1439.404132 1390.521126 
L 1436.541269 1393.511673 
L 1433.582414 1396.162769 
L 1431.555343 1397.733346 
L 1429.484266 1399.141788 
L 1427.369171 1400.385009 
L 1425.210351 1401.460793 
L 1423.0084 1402.367846 
L 1420.764209 1403.105828 
L 1418.47896 1403.675383 
L 1416.154105 1404.078156 
L 1413.791353 1404.316807 
L 1411.392647 1404.39501 
L 1408.960139 1404.317442 
L 1405.253149 1403.92168 
L 1401.483892 1403.211546 
L 1397.661406 1402.214736 
L 1393.79503 1400.963108 
L 1389.894162 1399.4922 
L 1384.655226 1397.257057 
L 1378.074573 1394.161956 
L 1361.020738 1385.936247 
L 1355.833821 1383.746071 
L 1351.968519 1382.308365 
L 1348.124756 1381.082177 
L 1344.301561 1380.095229 
L 1340.49699 1379.37055 
L 1336.708249 1378.926121 
L 1332.931835 1378.77461 
L 1329.163694 1378.923206 
L 1325.399399 1379.373549 
L 1321.634338 1380.12176 
L 1317.863913 1381.158552 
L 1314.083745 1382.469448 
L 1310.28988 1384.035062 
L 1306.479 1385.831471 
L 1301.367208 1388.536708 
L 1296.2179 1391.525771 
L 1288.427054 1396.35293 
L 1275.33742 1404.528717 
L 1270.113712 1407.562078 
L 1264.934147 1410.318682 
L 1261.097335 1412.151717 
L 1257.31805 1413.745722 
L 1253.612384 1415.069455 
L 1249.997307 1416.094864 
L 1246.490366 1416.797378 
L 1243.109361 1417.156132 
L 1240.934072 1417.19577 
L 1238.827764 1417.070937 
L 1238.827764 1417.070937 
" clip-path="url(#p1243e0f89d)" style="fill: none; stroke: #ff8c00; stroke-width: 3; stroke-linecap: square"/>
   </g>
  </g>
 </g>
 <defs>
  <clipPath id="p1243e0f89d">
   <rect x="270" y="259.2" width="1674" height="1630.8"/>
  </clipPath>
 </defs>
</svg>
