<?xml version="1.0" encoding="utf-8" standalone="no"?>
<!DOCTYPE svg PUBLIC "-//W3C//DTD SVG 1.1//EN"
  "http://www.w3.org/Graphics/SVG/1.1/DTD/svg11.dtd">
<svg xmlns:xlink="http://www.w3.org/1999/xlink" width="2160pt" height="2160pt" viewBox="0 0 2160 2160" xmlns="http://www.w3.org/2000/svg" version="1.1">
 <metadata>
  <rdf:RDF xmlns:dc="http://purl.org/dc/elements/1.1/" xmlns:cc="http://creativecommons.org/ns#" xmlns:rdf="http://www.w3.org/1999/02/22-rdf-syntax-ns#">
   <cc:Work>
    <dc:type rdf:resource="http://purl.org/dc/dcmitype/StillImage"/>
    <dc:date>2022-03-09T01:03:26.329122</dc:date>
    <dc:format>image/svg+xml</dc:format>
    <dc:creator>
     <cc:Agent>
      <dc:title>Matplotlib v3.5.1, https://matplotlib.org/</dc:title>
     </cc:Agent>
    </dc:creator>
   </cc:Work>
  </rdf:RDF>
 </metadata>
 <defs>
  <style type="text/css">*{stroke-linejoin: round; stroke-linecap: butt}</style>
 </defs>
 <g id="figure_1">
  <g id="patch_1">
   <path d="M 0 2160 
L 2160 2160 
L 2160 0 
L 0 0 
L 0 2160 
z
" style="fill: none"/>
  </g>
  <g id="axes_1">
   <g id="line2d_1">
    <path d="M 1257.636748 1371.868297 
L 1255.340905 1371.540585 
L 1253.138416 1371.06427 
L 1251.034339 1370.43824 
L 1249.033353 1369.662054 
L 1247.139704 1368.735935 
L 1245.357144 1367.660749 
L 1243.68889 1366.437982 
L 1242.137566 1365.069724 
L 1240.705168 1363.558632 
L 1239.393022 1361.907906 
L 1238.201754 1360.121256 
L 1237.131261 1358.202864 
L 1236.180693 1356.157351 
L 1235.348441 1353.98974 
L 1234.316492 1350.521251 
L 1233.533973 1346.809702 
L 1232.985834 1342.875897 
L 1232.653373 1338.741655 
L 1232.514466 1334.429522 
L 1232.586292 1328.443058 
L 1232.889706 1322.236104 
L 1233.615312 1312.630981 
L 1234.774959 1297.907102 
L 1235.107597 1291.365851 
L 1235.216435 1284.888656 
L 1235.107636 1280.096815 
L 1234.804605 1275.378941 
L 1234.282372 1270.74954 
L 1233.519036 1266.22215 
L 1232.496045 1261.809412 
L 1231.198411 1257.523158 
L 1229.614869 1253.374505 
L 1227.737975 1249.373959 
L 1226.321808 1246.794168 
L 1224.77347 1244.287516 
L 1223.093595 1241.856799 
L 1221.283547 1239.504755 
L 1219.345404 1237.23408 
L 1217.281933 1235.047435 
L 1213.959407 1231.930782 
L 1210.376932 1229.017927 
L 1206.551573 1226.317592 
L 1202.502954 1223.838419 
L 1198.252898 1221.588936 
L 1193.825025 1219.577507 
L 1189.244337 1217.812251 
L 1184.536771 1216.300927 
L 1179.728752 1215.050805 
L 1174.846731 1214.068506 
L 1169.91673 1213.359819 
L 1164.963895 1212.929506 
L 1160.012071 1212.781089 
L 1155.083403 1212.91663 
L 1150.197977 1213.336505 
L 1145.373497 1214.039181 
L 1140.625029 1215.021011 
L 1135.964793 1216.27603 
L 1131.402027 1217.795797 
L 1126.942924 1219.569247 
L 1122.590641 1221.582603 
L 1118.345383 1223.81932 
L 1114.204568 1226.260082 
L 1110.163062 1228.882863 
L 1106.213481 1231.663031 
L 1101.074144 1235.567635 
L 1094.816851 1240.666389 
L 1075.42612 1256.882001 
L 1070.604637 1260.482807 
L 1066.977112 1262.963406 
L 1063.338855 1265.220985 
L 1059.692139 1267.226939 
L 1056.042211 1268.955295 
L 1052.397283 1270.383065 
L 1048.76843 1271.490548 
L 1045.169395 1272.261562 
L 1042.794486 1272.582322 
L 1040.445265 1272.745145 
L 1038.12739 1272.748021 
L 1035.846811 1272.589691 
L 1033.609712 1272.269644 
L 1031.422443 1271.788101 
L 1029.291454 1271.145991 
L 1027.223222 1270.34493 
L 1025.224187 1269.387186 
L 1023.300675 1268.275645 
L 1021.458839 1267.013768 
L 1019.704586 1265.605544 
L 1018.043514 1264.055446 
L 1016.480858 1262.368374 
L 1015.021432 1260.549606 
L 1013.669579 1258.604738 
L 1012.429127 1256.53963 
L 1011.303352 1254.36035 
L 1010.294948 1252.073111 
L 1009.006799 1248.453642 
L 1007.991656 1244.626861 
L 1007.250661 1240.61395 
L 1006.781725 1236.435515 
L 1006.579599 1232.111251 
L 1006.636022 1227.659654 
L 1006.939911 1223.097782 
L 1007.477616 1218.441077 
L 1008.233201 1213.703235 
L 1009.18876 1208.89615 
L 1010.739925 1202.396163 
L 1012.561898 1195.809896 
L 1015.139992 1187.476743 
L 1018.535188 1177.352894 
L 1027.329707 1151.551684 
L 1030.022524 1142.824844 
L 1031.989917 1135.815395 
L 1033.748066 1128.796012 
L 1035.260285 1121.785159 
L 1036.492843 1114.805937 
L 1037.21511 1109.608743 
L 1037.750817 1104.458024 
L 1038.089047 1099.368157 
L 1038.21987 1094.354478 
L 1038.134376 1089.433022 
L 1037.824705 1084.620237 
L 1037.284094 1079.932656 
L 1036.506912 1075.386562 
L 1035.4887 1070.997628 
L 1034.226202 1066.780566 
L 1032.717395 1062.748789 
L 1030.961499 1058.914096 
L 1028.958988 1055.286388 
L 1026.711581 1051.873434 
L 1024.22222 1048.680688 
L 1021.495041 1045.711166 
L 1018.535328 1042.96539 
L 1015.349464 1040.441399 
L 1011.944867 1038.134838 
L 1008.329929 1036.039105 
L 1004.51395 1034.145582 
L 1000.507072 1032.44391 
L 996.320222 1030.922334 
L 991.965057 1029.568089 
L 987.453916 1028.367816 
L 981.218978 1026.983667 
L 974.762421 1025.818343 
L 968.118647 1024.843764 
L 959.606057 1023.858575 
L 950.932502 1023.10311 
L 942.17697 1022.56356 
L 933.422181 1022.246192 
L 924.753667 1022.177331 
L 917.939364 1022.330551 
L 911.280154 1022.700751 
L 904.819134 1023.322077 
L 900.128156 1023.974898 
L 895.58783 1024.805339 
L 891.212909 1025.828778 
L 887.016522 1027.059732 
L 883.009883 1028.51136 
L 879.202018 1030.195011 
L 875.599516 1032.119812 
L 872.206309 1034.292311 
L 869.023494 1036.716184 
L 866.049211 1039.39202 
L 863.27857 1042.317175 
L 860.703649 1045.485712 
L 858.313549 1048.888413 
L 856.094529 1052.512875 
L 854.030195 1056.34367 
L 852.101766 1060.362571 
L 849.705645 1065.977539 
L 847.459944 1071.834723 
L 844.247142 1080.941351 
L 838.818722 1096.430226 
L 836.45963 1102.541154 
L 833.920492 1108.507305 
L 831.87411 1112.850688 
L 829.690702 1117.055146 
L 827.359486 1121.09862 
L 824.872519 1124.960825 
L 822.224701 1128.623383 
L 819.413707 1132.069926 
L 816.439851 1135.286179 
L 813.305883 1138.260017 
L 810.016738 1140.981507 
L 806.579232 1143.442931 
L 803.001729 1145.638797 
L 799.293789 1147.565832 
L 795.465803 1149.222967 
L 791.528634 1150.611297 
L 787.493269 1151.73404 
L 783.370499 1152.596463 
L 779.170641 1153.2058 
L 774.903286 1153.571143 
L 770.577117 1153.703307 
L 766.199765 1153.614678 
L 761.777726 1153.319021 
L 757.31634 1152.83127 
L 751.313741 1151.909637 
L 745.255683 1150.714062 
L 739.14656 1149.284672 
L 731.441919 1147.229351 
L 722.099675 1144.4644 
L 709.490365 1140.444704 
L 691.945338 1134.573123 
L 677.577834 1129.538765 
L 668.118897 1126.001932 
L 660.387627 1122.877912 
L 654.345448 1120.221061 
L 648.466162 1117.38867 
L 642.783762 1114.347584 
L 638.671638 1111.910608 
L 634.703514 1109.325988 
L 630.893145 1106.582759 
L 627.253792 1103.671665 
L 623.798124 1100.585465 
L 620.538132 1097.319184 
L 617.485073 1093.870321 
L 614.649431 1090.238989 
L 612.040902 1086.428003 
L 609.668389 1082.4429 
L 607.540014 1078.291914 
L 605.663134 1073.985882 
L 604.044363 1069.538113 
L 602.689592 1064.96421 
L 601.603998 1060.281852 
L 600.792049 1055.510556 
L 600.257491 1050.671407 
L 600.003325 1045.786784 
L 600.031767 1040.880077 
L 600.34419 1035.975395 
L 600.941053 1031.097299 
L 601.821823 1026.270522 
L 602.984883 1021.519724 
L 604.427443 1016.869246 
L 606.14545 1012.342897 
L 608.133504 1007.963748 
L 610.384797 1003.753952 
L 612.891057 999.734572 
L 615.642531 995.925435 
L 618.627981 992.344985 
L 621.834731 989.010159 
L 625.248728 985.936263 
L 627.632349 984.03873 
L 630.096476 982.266793 
L 632.636092 980.623632 
L 635.246003 979.112033 
L 637.920877 977.734369 
L 642.043053 975.923154 
L 646.280442 974.422314 
L 650.614243 973.23427 
L 655.025816 972.359054 
L 659.496976 971.794222 
L 664.010279 971.534806 
L 668.549305 971.573267 
L 673.098917 971.899481 
L 677.645495 972.500756 
L 682.177137 973.361878 
L 686.683815 974.465189 
L 691.157491 975.790715 
L 695.592176 977.316321 
L 699.983945 979.017911 
L 705.769864 981.515616 
L 711.477059 984.21506 
L 719.904987 988.492506 
L 736.443566 997.002776 
L 741.922389 999.57803 
L 747.411716 1001.919508 
L 751.544005 1003.489782 
L 755.694596 1004.878319 
L 759.866753 1006.067465 
L 764.06223 1007.042037 
L 768.281135 1007.789373 
L 772.521823 1008.299324 
L 776.780846 1008.56419 
L 781.052949 1008.578604 
L 785.331109 1008.339382 
L 789.606617 1007.845316 
L 793.869206 1007.096951 
L 798.107209 1006.096335 
L 802.307761 1004.846754 
L 806.457016 1003.352473 
L 810.540399 1001.618472 
L 814.542867 999.65021 
L 818.449186 997.453403 
L 822.244213 995.033838 
L 825.913181 992.397226 
L 829.441975 989.549089 
L 832.81741 986.4947 
L 836.027482 983.239063 
L 839.061617 979.786941 
L 841.910895 976.142926 
L 844.568246 972.311547 
L 847.028637 968.297413 
L 849.289216 964.105388 
L 851.349437 959.740775 
L 853.211151 955.209518 
L 854.878665 950.518405 
L 856.358771 945.675262 
L 857.660733 940.689127 
L 858.796244 935.570403 
L 860.075933 928.559954 
L 861.124335 921.367605 
L 862.179885 912.178984 
L 863.207922 900.974025 
L 865.042757 880.458041 
L 865.895017 873.182147 
L 866.942082 866.091023 
L 867.889768 860.925664 
L 869.00187 855.914885 
L 870.299299 851.078338 
L 871.801013 846.434009 
L 873.523768 841.997953 
L 875.48191 837.784065 
L 876.924031 835.104037 
L 878.47888 832.530748 
L 880.148733 830.066506 
L 881.935319 827.71311 
L 883.839809 825.471845 
L 885.862825 823.343481 
L 888.004442 821.328284 
L 890.264201 819.426025 
L 892.64112 817.635994 
L 895.133721 815.957019 
L 897.740041 814.387489 
L 901.857344 812.233871 
L 906.215068 810.31344 
L 910.801384 808.616065 
L 915.602811 807.130163 
L 920.604502 805.842965 
L 925.790522 804.740787 
L 931.144151 803.809293 
L 936.648163 803.033748 
L 944.190607 802.216536 
L 951.928189 801.615009 
L 961.813615 801.114484 
L 971.867284 800.834336 
L 984.058937 800.706968 
L 1002.39851 800.756758 
L 1032.46304 800.852902 
L 1046.070938 800.662797 
L 1057.450138 800.279828 
L 1066.705718 799.761384 
L 1075.735466 799.026872 
L 1082.7853 798.26244 
L 1089.671817 797.32413 
L 1096.387798 796.197568 
L 1102.92702 794.869661 
L 1109.284549 793.32888 
L 1115.457062 791.565548 
L 1121.443166 789.572099 
L 1127.243689 787.343311 
L 1132.861927 784.876519 
L 1138.303803 782.171798 
L 1143.577943 779.232122 
L 1148.695638 776.063511 
L 1153.670696 772.675171 
L 1158.51918 769.079637 
L 1163.259032 765.292917 
L 1169.060659 760.32096 
L 1174.76237 755.128056 
L 1182.652218 747.596449 
L 1198.466455 732.365312 
L 1204.213318 727.162959 
L 1208.865045 723.20281 
L 1213.566554 719.482663 
L 1218.315003 716.0597 
L 1221.90313 713.721885 
L 1225.509433 711.607005 
L 1229.128256 709.737924 
L 1232.752752 708.136395 
L 1236.374936 706.82271 
L 1239.985765 705.815353 
L 1243.575211 705.130662 
L 1245.950939 704.86042 
L 1248.308891 704.743249 
L 1250.645487 704.782006 
L 1252.957016 704.978941 
L 1255.239651 705.335662 
L 1257.489462 705.853117 
L 1259.702431 706.531573 
L 1261.874471 707.370605 
L 1264.001433 708.369091 
L 1266.079131 709.525205 
L 1268.103351 710.836425 
L 1270.069871 712.299543 
L 1271.974475 713.910682 
L 1273.81297 715.665315 
L 1276.437696 718.554897 
L 1278.890606 721.735816 
L 1281.158388 725.185595 
L 1283.228301 728.879442 
L 1285.088324 732.790648 
L 1286.727307 736.89102 
L 1288.135118 741.151347 
L 1289.302799 745.541885 
L 1290.222716 750.032844 
L 1290.888698 754.594884 
L 1291.296173 759.199592 
L 1291.44229 763.819942 
L 1291.326019 768.430722 
L 1290.94823 773.00893 
L 1290.311753 777.534116 
L 1289.421398 781.988677 
L 1288.283953 786.35809 
L 1286.908146 790.631086 
L 1285.304571 794.799757 
L 1283.485583 798.859598 
L 1281.465162 802.809479 
L 1279.25874 806.651557 
L 1276.883016 810.391118 
L 1274.355733 814.036371 
L 1270.782431 818.769123 
L 1267.018224 823.38586 
L 1262.114962 829.051862 
L 1244.929069 848.546392 
L 1241.001535 853.429345 
L 1237.192301 858.501398 
L 1233.531646 863.788047 
L 1230.047409 869.306424 
L 1227.565664 873.602356 
L 1225.208226 878.032891 
L 1222.985315 882.594452 
L 1220.907084 887.280214 
L 1218.983764 892.080164 
L 1217.225791 896.981211 
L 1215.643914 901.967372 
L 1214.249249 907.020013 
L 1213.053304 912.118157 
L 1212.06796 917.23883 
L 1211.305392 922.357475 
L 1210.777955 927.448394 
L 1210.498019 932.485223 
L 1210.477754 937.441441 
L 1210.728893 942.290885 
L 1211.26245 947.008271 
L 1212.088423 951.569718 
L 1212.805874 954.513099 
L 1213.659355 957.371408 
L 1214.650679 960.139224 
L 1215.781259 962.81171 
L 1217.052064 965.38466 
L 1218.463589 967.854543 
L 1220.015825 970.218544 
L 1221.708226 972.474594 
L 1223.539693 974.621398 
L 1225.508549 976.658451 
L 1227.612529 978.586057 
L 1229.84877 980.405324 
L 1232.21381 982.118168 
L 1234.703589 983.7273 
L 1238.661813 985.954372 
L 1242.872003 987.971017 
L 1247.313305 989.795673 
L 1251.962322 991.449971 
L 1256.793369 992.958329 
L 1263.469864 994.788944 
L 1272.094159 996.883625 
L 1293.22212 1001.83237 
L 1300.13461 1003.700032 
L 1306.859771 1005.779674 
L 1311.73945 1007.508993 
L 1316.448174 1009.40338 
L 1320.960595 1011.476865 
L 1325.253243 1013.739868 
L 1329.304647 1016.199121 
L 1333.095423 1018.857667 
L 1336.608345 1021.71496 
L 1338.788416 1023.728414 
L 1340.834364 1025.826541 
L 1342.742728 1028.006791 
L 1344.510488 1030.26608 
L 1346.135066 1032.60084 
L 1347.614334 1035.007075 
L 1348.946603 1037.48042 
L 1350.130637 1040.016207 
L 1351.165642 1042.609522 
L 1352.051276 1045.255277 
L 1352.787647 1047.948269 
L 1353.375317 1050.683249 
L 1353.815304 1053.454979 
L 1354.201736 1057.670221 
L 1354.266251 1061.939739 
L 1354.018149 1066.247749 
L 1353.469107 1070.579837 
L 1352.633184 1074.923227 
L 1351.52681 1079.266974 
L 1350.168758 1083.602084 
L 1348.580085 1087.921547 
L 1346.784047 1092.220297 
L 1344.110829 1097.914387 
L 1341.179496 1103.562825 
L 1337.260164 1110.560685 
L 1323.038568 1135.289505 
L 1320.336918 1140.696726 
L 1318.521408 1144.724782 
L 1316.917331 1148.723211 
L 1315.54997 1152.684596 
L 1314.442013 1156.599869 
L 1313.613279 1160.458461 
L 1313.080491 1164.24852 
L 1312.857093 1167.957197 
L 1312.953125 1171.570995 
L 1313.197992 1173.920684 
L 1313.588897 1176.218027 
L 1314.126237 1178.459054 
L 1314.809727 1180.639937 
L 1315.638424 1182.757049 
L 1316.610736 1184.807015 
L 1317.724451 1186.786769 
L 1318.976763 1188.693592 
L 1320.364301 1190.525167 
L 1321.883165 1192.279606 
L 1324.397968 1194.763659 
L 1327.181594 1197.068361 
L 1330.215419 1199.19359 
L 1333.479224 1201.14184 
L 1336.951561 1202.918162 
L 1340.610132 1204.530006 
L 1344.432165 1205.986989 
L 1348.394787 1207.300572 
L 1353.85799 1208.85145 
L 1359.479277 1210.203775 
L 1366.654802 1211.667548 
L 1375.374034 1213.177066 
L 1386.995285 1214.924791 
L 1404.081648 1217.241531 
L 1416.549502 1218.753339 
L 1426.111292 1219.697632 
L 1434.291084 1220.266469 
L 1441.148545 1220.530027 
L 1448.082972 1220.582201 
L 1455.123735 1220.421224 
L 1463.735987 1219.973422 
L 1474.002407 1219.193962 
L 1493.385172 1217.658049 
L 1500.749699 1217.310098 
L 1506.506143 1217.23215 
L 1512.080367 1217.383997 
L 1516.105063 1217.674797 
L 1519.967215 1218.135209 
L 1523.64109 1218.779055 
L 1527.101758 1219.617756 
L 1530.325628 1220.660197 
L 1533.290975 1221.912685 
L 1535.978419 1223.378966 
L 1537.607334 1224.475997 
L 1539.10114 1225.668479 
L 1540.456348 1226.955797 
L 1541.670166 1228.336938 
L 1542.740526 1229.810533 
L 1543.6661 1231.37489 
L 1544.446311 1233.028031 
L 1545.081334 1234.767735 
L 1545.572084 1236.591573 
L 1545.920205 1238.496948 
L 1546.180267 1241.501891 
L 1546.135525 1244.674519 
L 1545.799711 1248.004934 
L 1545.1892 1251.483119 
L 1544.322547 1255.099058 
L 1543.219966 1258.842802 
L 1541.4198 1264.016208 
L 1539.289944 1269.375903 
L 1536.2416 1276.301275 
L 1532.850631 1283.431875 
L 1528.440644 1292.183594 
L 1522.954008 1302.525715 
L 1518.026486 1311.355632 
L 1513.775439 1318.573128 
L 1509.38213 1325.555722 
L 1505.749177 1330.899669 
L 1501.993445 1335.965642 
L 1499.085154 1339.547603 
L 1496.089842 1342.916307 
L 1493.000177 1346.048654 
L 1489.809595 1348.923029 
L 1486.512609 1351.519804 
L 1483.105076 1353.821824 
L 1479.584399 1355.814877 
L 1477.1739 1356.966422 
L 1474.712832 1357.973441 
L 1472.201707 1358.834406 
L 1469.641382 1359.548605 
L 1467.033053 1360.116166 
L 1464.378236 1360.538082 
L 1460.312917 1360.9022 
L 1456.15449 1360.953048 
L 1451.911492 1360.705058 
L 1447.593439 1360.176939 
L 1443.210564 1359.391454 
L 1438.773539 1358.375106 
L 1434.293192 1357.157738 
L 1428.270476 1355.278784 
L 1420.69723 1352.637808 
L 1398.042887 1344.444374 
L 1392.08017 1342.605164 
L 1387.637056 1341.415075 
L 1383.218506 1340.417108 
L 1378.823014 1339.634015 
L 1374.448 1339.084362 
L 1370.089954 1338.782245 
L 1365.744608 1338.737091 
L 1361.407128 1338.95354 
L 1357.072318 1339.43141 
L 1352.734849 1340.165752 
L 1348.389481 1341.146978 
L 1344.031308 1342.361063 
L 1339.655995 1343.789824 
L 1333.78963 1345.990235 
L 1327.881248 1348.471312 
L 1320.435278 1351.859393 
L 1296.348624 1363.081116 
L 1290.367715 1365.542162 
L 1284.464516 1367.705469 
L 1280.112143 1369.089587 
L 1275.844553 1370.239021 
L 1271.681289 1371.129412 
L 1267.642559 1371.739424 
L 1263.748861 1372.05094 
L 1260.020567 1372.049206 
L 1258.818007 1371.976963 
L 1258.818007 1371.976963 
" clip-path="url(#p40a3670676)" style="fill: none; stroke: #4169e1; stroke-width: 3; stroke-linecap: square"/>
   </g>
   <g id="line2d_2">
    <path d="M 1225.562697 1452.286495 
L 1223.755692 1451.870129 
L 1222.022164 1451.26496 
L 1220.366094 1450.469573 
L 1218.791165 1449.483411 
L 1217.300717 1448.306754 
L 1215.897706 1446.940704 
L 1214.584661 1445.38715 
L 1213.36365 1443.648745 
L 1212.236243 1441.728866 
L 1211.203483 1439.631579 
L 1210.265863 1437.361597 
L 1209.037484 1433.644599 
L 1208.020086 1429.57136 
L 1207.207864 1425.164561 
L 1206.591961 1420.44895 
L 1206.160534 1415.450956 
L 1205.898861 1410.198302 
L 1205.783571 1402.848225 
L 1205.890878 1395.16571 
L 1206.254548 1385.201175 
L 1207.870753 1347.939176 
L 1207.903325 1339.738142 
L 1207.689795 1331.680907 
L 1207.338307 1325.759703 
L 1206.802515 1319.962504 
L 1206.066918 1314.305741 
L 1205.118767 1308.804774 
L 1203.948209 1303.474017 
L 1202.548377 1298.327062 
L 1200.915433 1293.376817 
L 1199.048564 1288.635635 
L 1196.949934 1284.115443 
L 1194.624585 1279.827848 
L 1192.080301 1275.784236 
L 1189.327433 1271.995837 
L 1186.378682 1268.473768 
L 1183.248853 1265.229043 
L 1179.954578 1262.272553 
L 1176.514014 1259.615003 
L 1172.946513 1257.266825 
L 1169.272285 1255.238049 
L 1165.51204 1253.538138 
L 1162.967725 1252.591907 
L 1160.400592 1251.798079 
L 1157.816688 1251.158781 
L 1155.221927 1250.67588 
L 1152.62204 1250.350952 
L 1150.022534 1250.185243 
L 1147.428652 1250.179631 
L 1144.845334 1250.334593 
L 1142.27718 1250.650162 
L 1139.728422 1251.125891 
L 1137.202891 1251.760821 
L 1134.703997 1252.553443 
L 1132.234703 1253.501667 
L 1129.797518 1254.602791 
L 1126.20627 1256.533691 
L 1122.696614 1258.786902 
L 1119.271032 1261.344919 
L 1115.929688 1264.186721 
L 1112.670549 1267.287769 
L 1109.489573 1270.620075 
L 1106.380949 1274.152344 
L 1102.335896 1279.113238 
L 1097.410925 1285.591327 
L 1082.14893 1306.19365 
L 1078.354052 1310.768561 
L 1075.498911 1313.920221 
L 1072.635324 1316.788529 
L 1069.765078 1319.337142 
L 1066.892304 1321.533059 
L 1064.023466 1323.347076 
L 1062.117309 1324.33171 
L 1060.219841 1325.129071 
L 1058.334562 1325.733751 
L 1056.465326 1326.141284 
L 1054.616309 1326.348155 
L 1052.791963 1326.351808 
L 1050.996972 1326.150647 
L 1049.236203 1325.74402 
L 1047.514655 1325.132207 
L 1045.837402 1324.316391 
L 1044.209545 1323.298624 
L 1042.63615 1322.081788 
L 1041.122199 1320.669549 
L 1039.672533 1319.066303 
L 1038.2918 1317.277121 
L 1036.984409 1315.307684 
L 1035.754479 1313.164219 
L 1034.605799 1310.85343 
L 1033.042489 1307.089164 
L 1031.679384 1302.989832 
L 1030.524021 1298.58191 
L 1029.581516 1293.892473 
L 1028.854472 1288.948665 
L 1028.342936 1283.777204 
L 1028.044426 1278.403931 
L 1027.954006 1272.853397 
L 1028.064414 1267.148523 
L 1028.366229 1261.31032 
L 1029.046491 1253.350981 
L 1030.015037 1245.226476 
L 1031.235923 1236.968087 
L 1033.056955 1226.493169 
L 1035.129858 1215.880106 
L 1038.762718 1198.661254 
L 1043.850168 1174.57852 
L 1046.412811 1161.281299 
L 1048.323857 1150.146419 
L 1049.66188 1141.228406 
L 1050.799483 1132.328015 
L 1051.710696 1123.476062 
L 1052.371885 1114.709045 
L 1052.761784 1106.068537 
L 1052.861562 1097.600218 
L 1052.736102 1091.391077 
L 1052.432326 1085.327015 
L 1051.945205 1079.428983 
L 1051.27061 1073.717459 
L 1050.405346 1068.211998 
L 1049.34717 1062.930789 
L 1048.094816 1057.890233 
L 1046.648 1053.104554 
L 1045.007421 1048.585458 
L 1043.174756 1044.341859 
L 1041.152637 1040.379666 
L 1038.944624 1036.701659 
L 1036.55517 1033.307442 
L 1033.989576 1030.193495 
L 1031.253942 1027.353307 
L 1028.355116 1024.7776 
L 1025.300645 1022.454643 
L 1022.098722 1020.370633 
L 1018.758143 1018.510151 
L 1015.288267 1016.856665 
L 1011.698979 1015.39308 
L 1008.000669 1014.102308 
L 1004.204212 1012.96785 
L 999.009271 1011.672097 
L 993.688241 1010.595661 
L 988.270731 1009.714382 
L 982.787747 1009.013039 
L 975.891295 1008.382517 
L 970.380917 1008.083232 
L 964.913976 1007.98557 
L 959.525501 1008.117488 
L 954.250445 1008.51503 
L 950.389219 1009.012716 
L 946.624988 1009.702803 
L 942.970993 1010.605238 
L 939.439571 1011.739939 
L 936.041934 1013.126151 
L 932.787937 1014.781809 
L 929.685856 1016.722928 
L 927.705482 1018.182397 
L 925.796989 1019.778106 
L 923.961404 1021.512698 
L 922.199321 1023.388115 
L 920.510883 1025.405558 
L 918.115493 1028.698732 
L 915.881934 1032.310254 
L 913.804763 1036.233978 
L 911.876175 1040.459576 
L 910.086086 1044.972618 
L 908.422268 1049.754755 
L 906.870539 1054.783979 
L 904.948236 1061.829752 
L 902.72203 1071.086649 
L 899.776817 1084.616361 
L 895.920725 1102.335825 
L 893.578907 1112.015246 
L 891.539923 1119.537296 
L 889.32166 1126.781045 
L 887.526398 1131.989533 
L 885.610383 1136.976043 
L 883.568857 1141.716402 
L 881.399271 1146.188949 
L 879.101197 1150.374654 
L 876.676179 1154.257191 
L 874.127553 1157.82301 
L 871.460219 1161.061363 
L 868.680383 1163.96433 
L 865.795288 1166.526815 
L 862.812927 1168.74653 
L 859.741756 1170.623955 
L 857.649239 1171.68688 
L 854.449236 1173.002235 
L 851.183197 1173.989639 
L 847.859071 1174.659087 
L 844.484184 1175.022881 
L 841.065104 1175.095451 
L 837.607544 1174.893145 
L 834.116315 1174.433979 
L 830.595317 1173.737356 
L 827.047579 1172.823746 
L 823.475333 1171.714336 
L 818.676804 1169.967753 
L 813.83962 1167.962022 
L 807.740585 1165.164359 
L 800.347426 1161.493891 
L 790.377179 1156.261549 
L 777.801332 1149.401626 
L 769.011754 1144.401017 
L 761.566843 1139.907387 
L 755.481739 1135.938244 
L 750.72608 1132.562651 
L 746.098631 1128.964031 
L 742.72827 1126.093317 
L 739.45639 1123.056201 
L 736.294173 1119.83655 
L 733.252551 1116.419807 
L 730.342101 1112.793441 
L 727.572957 1108.947358 
L 724.954741 1104.874248 
L 722.496511 1100.569861 
L 720.206723 1096.033218 
L 718.093216 1091.266743 
L 716.163205 1086.276319 
L 714.423285 1081.071275 
L 712.879447 1075.664293 
L 711.53709 1070.071259 
L 710.401038 1064.311053 
L 709.475553 1058.40529 
L 708.764337 1052.378025 
L 708.270531 1046.255421 
L 707.996694 1040.065403 
L 707.944782 1033.837301 
L 708.116101 1027.601482 
L 708.511259 1021.388997 
L 709.130105 1015.231235 
L 709.971659 1009.159592 
L 711.034039 1003.205162 
L 712.314395 997.398449 
L 713.808836 991.769106 
L 715.51238 986.34569 
L 717.418902 981.155449 
L 719.521114 976.224115 
L 721.810561 971.575728 
L 724.277636 967.232462 
L 726.911633 963.214471 
L 729.700818 959.539736 
L 731.640276 957.288448 
L 733.639149 955.200773 
L 735.69335 953.280249 
L 737.798681 951.529895 
L 739.950855 949.952189 
L 742.145522 948.549056 
L 744.378301 947.321849 
L 746.644803 946.271334 
L 748.940666 945.397676 
L 751.261583 944.700428 
L 753.603331 944.178513 
L 755.961806 943.830221 
L 758.333045 943.653202 
L 760.713262 943.644454 
L 763.098869 943.800329 
L 765.486502 944.11653 
L 767.873046 944.588118 
L 771.444667 945.574488 
L 774.9991 946.87638 
L 778.529489 948.469377 
L 782.03058 950.326245 
L 785.498743 952.417168 
L 788.931955 954.710039 
L 793.454583 958.022223 
L 799.024163 962.452146 
L 808.862747 970.713208 
L 815.343609 976.010868 
L 819.655864 979.282789 
L 823.976386 982.257693 
L 827.228814 984.252764 
L 830.495649 986.016934 
L 833.779457 987.527772 
L 837.08162 988.765989 
L 840.402222 989.715498 
L 843.739969 990.363403 
L 847.092148 990.69992 
L 850.454622 990.718235 
L 853.821862 990.414297 
L 857.187016 989.786575 
L 860.542 988.835759 
L 863.877635 987.564452 
L 867.183792 985.97683 
L 870.449575 984.078309 
L 873.663511 981.87522 
L 876.813761 979.374496 
L 879.888334 976.583399 
L 882.875312 973.509284 
L 885.763071 970.159405 
L 888.540504 966.540779 
L 891.19723 962.660105 
L 893.723804 958.52374 
L 896.111902 954.137737 
L 898.354502 949.507928 
L 900.446042 944.640069 
L 902.382559 939.540016 
L 904.161808 934.213948 
L 905.78336 928.668602 
L 907.248672 922.911531 
L 908.561134 916.95136 
L 909.726091 910.798031 
L 911.062794 902.313218 
L 912.172994 893.537713 
L 913.084983 884.509654 
L 913.997879 872.937801 
L 914.86167 858.765738 
L 916.880203 823.290834 
L 917.833054 811.910991 
L 918.801871 803.121635 
L 920.000596 794.681233 
L 921.073792 788.615265 
L 922.312373 782.800603 
L 923.728913 777.25676 
L 925.334039 772.000417 
L 927.136316 767.045214 
L 929.142157 762.401592 
L 931.35578 758.076709 
L 932.948049 755.372571 
L 934.633666 752.812216 
L 936.412269 750.39535 
L 938.283088 748.121073 
L 940.244956 745.987894 
L 942.29633 743.993769 
L 944.435309 742.136126 
L 946.659658 740.411903 
L 948.966828 738.817592 
L 952.576611 736.661037 
L 956.355703 734.773163 
L 960.292418 733.137747 
L 964.374215 731.737404 
L 968.587932 730.553918 
L 972.920013 729.56857 
L 977.356718 728.762435 
L 983.411399 727.933803 
L 989.595865 727.346488 
L 995.879581 726.958438 
L 1003.830317 726.693298 
L 1013.445575 726.603842 
L 1029.45991 726.727757 
L 1046.783215 726.810034 
L 1056.010964 726.656487 
L 1063.550106 726.350322 
L 1070.934832 725.836479 
L 1076.721383 725.247579 
L 1082.392409 724.477738 
L 1087.94117 723.506508 
L 1093.361388 722.314362 
L 1098.647382 720.883039 
L 1103.794252 719.195901 
L 1107.560724 717.753773 
L 1111.245547 716.154136 
L 1114.848 714.392488 
L 1118.367881 712.465222 
L 1121.805561 710.3697 
L 1125.162024 708.104311 
L 1128.438902 705.668529 
L 1131.638499 703.062962 
L 1134.76379 700.289401 
L 1138.821648 696.335386 
L 1142.764347 692.098887 
L 1146.604111 687.594755 
L 1150.354722 682.842206 
L 1154.031176 677.865033 
L 1158.546541 671.371694 
L 1163.888758 663.270829 
L 1181.698238 635.780619 
L 1186.256612 629.373547 
L 1189.947349 624.563997 
L 1193.675893 620.113815 
L 1196.494435 617.055786 
L 1199.328551 614.27108 
L 1202.174111 611.789121 
L 1205.026035 609.638064 
L 1207.87833 607.84436 
L 1209.776718 606.859187 
L 1211.670017 606.050269 
L 1213.555851 605.423617 
L 1215.431704 604.984625 
L 1217.294935 604.738015 
L 1219.142779 604.687795 
L 1220.972366 604.837214 
L 1222.780728 605.188727 
L 1224.56481 605.74396 
L 1226.321485 606.503689 
L 1228.04756 607.467815 
L 1229.739792 608.635355 
L 1231.394901 610.004435 
L 1233.009579 611.572294 
L 1234.580504 613.335289 
L 1236.104354 615.288916 
L 1238.294627 618.564882 
L 1240.360488 622.236165 
L 1242.291117 626.277598 
L 1244.076036 630.660625 
L 1245.705216 635.353747 
L 1247.169197 640.323028 
L 1248.459202 645.532648 
L 1249.567258 650.945496 
L 1250.486313 656.523779 
L 1251.210359 662.229651 
L 1251.734537 668.025832 
L 1252.055252 673.876224 
L 1252.170257 679.746489 
L 1252.078743 685.604595 
L 1251.781394 691.421318 
L 1251.280437 697.170676 
L 1250.579659 702.830303 
L 1249.684403 708.381746 
L 1248.601537 713.81069 
L 1247.3394 719.107087 
L 1245.907717 724.265212 
L 1244.31749 729.283631 
L 1242.580867 734.165082 
L 1240.060478 740.472776 
L 1237.336635 746.575373 
L 1234.444512 752.509141 
L 1230.647892 759.757718 
L 1224.320633 771.208356 
L 1217.924747 782.873557 
L 1214.005077 790.467796 
L 1210.957249 796.787176 
L 1208.01471 803.364248 
L 1205.200286 810.226265 
L 1202.535082 817.389208 
L 1200.038958 824.856778 
L 1197.731066 832.61982 
L 1195.630378 840.656186 
L 1193.756169 848.931072 
L 1192.128394 857.397817 
L 1190.767917 865.999152 
L 1189.936067 872.498926 
L 1189.276345 879.006715 
L 1188.798439 885.490285 
L 1188.512097 891.916352 
L 1188.426973 898.251215 
L 1188.552438 904.461407 
L 1188.897374 910.514359 
L 1189.469945 916.379064 
L 1190.277354 922.026715 
L 1191.325594 927.431326 
L 1192.619211 932.570299 
L 1194.161067 937.42493 
L 1195.327448 940.496102 
L 1196.604418 943.431313 
L 1197.991332 946.228421 
L 1199.487099 948.886283 
L 1201.090169 951.404768 
L 1202.798523 953.784773 
L 1204.609674 956.028222 
L 1206.520661 958.138054 
L 1208.528053 960.118211 
L 1210.627965 961.973605 
L 1213.941708 964.535802 
L 1217.437354 966.85407 
L 1221.096488 968.955895 
L 1224.898893 970.872301 
L 1230.153808 973.19814 
L 1236.941791 975.859483 
L 1253.57112 982.146982 
L 1259.011781 984.519891 
L 1262.998516 986.472636 
L 1266.879379 988.604594 
L 1270.632645 990.939349 
L 1274.237896 993.49621 
L 1277.676157 996.289965 
L 1280.929993 999.330732 
L 1283.983595 1002.623932 
L 1286.822832 1006.170371 
L 1289.435296 1009.966431 
L 1291.810323 1014.004368 
L 1293.939007 1018.272692 
L 1295.814211 1022.756635 
L 1297.430571 1027.438685 
L 1298.784498 1032.29916 
L 1299.874186 1037.316826 
L 1300.699626 1042.469515 
L 1301.262612 1047.734744 
L 1301.566764 1053.09031 
L 1301.617542 1058.514836 
L 1301.422267 1063.988265 
L 1300.990129 1069.492287 
L 1300.332193 1075.010667 
L 1299.461391 1080.529503 
L 1298.3925 1086.037364 
L 1297.142093 1091.525345 
L 1295.224398 1098.800943 
L 1293.064591 1106.02108 
L 1290.104685 1114.964614 
L 1286.318639 1125.584469 
L 1278.769241 1146.52634 
L 1275.946985 1155.148401 
L 1273.942466 1161.993082 
L 1272.221072 1168.775316 
L 1271.144854 1173.80835 
L 1270.272806 1178.782799 
L 1269.620529 1183.685233 
L 1269.201184 1188.500593 
L 1269.025353 1193.212556 
L 1269.100937 1197.803972 
L 1269.433102 1202.257356 
L 1270.024266 1206.555417 
L 1270.87413 1210.681606 
L 1271.979758 1214.620654 
L 1273.33569 1218.359089 
L 1274.934102 1221.885702 
L 1276.764992 1225.191948 
L 1278.816403 1228.272263 
L 1281.074669 1231.124287 
L 1283.524681 1233.748974 
L 1286.150172 1236.150591 
L 1288.934003 1238.336597 
L 1291.858467 1240.317417 
L 1294.905581 1242.106097 
L 1298.057382 1243.717877 
L 1301.296209 1245.169684 
L 1305.720594 1246.887846 
L 1310.231274 1248.397631 
L 1315.938679 1250.05689 
L 1322.814024 1251.811694 
L 1333.032226 1254.157074 
L 1345.21333 1256.72274 
L 1352.795497 1258.125645 
L 1359.237297 1259.092401 
L 1364.603236 1259.672739 
L 1370.000584 1260.007596 
L 1375.458511 1260.073884 
L 1381.000133 1259.86936 
L 1386.638909 1259.416804 
L 1393.533592 1258.617876 
L 1412.282407 1256.24725 
L 1416.911273 1255.916599 
L 1421.442037 1255.817564 
L 1424.748572 1255.93178 
L 1427.954415 1256.233809 
L 1431.039139 1256.744846 
L 1433.982378 1257.483415 
L 1436.76425 1258.465065 
L 1439.36579 1259.702174 
L 1440.991191 1260.673466 
L 1442.523758 1261.764296 
L 1443.959067 1262.975915 
L 1445.293124 1264.308956 
L 1446.522411 1265.763462 
L 1447.643918 1267.338915 
L 1448.655167 1269.034275 
L 1449.554246 1270.848025 
L 1450.339817 1272.778213 
L 1451.303865 1275.88661 
L 1452.010932 1279.2424 
L 1452.463933 1282.835 
L 1452.668622 1286.652852 
L 1452.633406 1290.683752 
L 1452.369095 1294.915124 
L 1451.888576 1299.334241 
L 1451.206453 1303.928378 
L 1450.010984 1310.304315 
L 1448.525411 1316.939211 
L 1446.322557 1325.551641 
L 1443.80711 1334.46249 
L 1440.473085 1345.458863 
L 1436.268459 1358.545814 
L 1431.818776 1371.68124 
L 1427.841224 1382.759311 
L 1424.406982 1391.701349 
L 1421.56962 1398.567676 
L 1418.639041 1405.099376 
L 1415.601149 1411.222279 
L 1413.243607 1415.502297 
L 1410.811804 1419.48202 
L 1408.30057 1423.133983 
L 1405.705589 1426.433247 
L 1403.023599 1429.358018 
L 1401.186204 1431.090727 
L 1399.308921 1432.644565 
L 1397.391739 1434.016124 
L 1395.434923 1435.202963 
L 1393.439011 1436.203652 
L 1391.404813 1437.017816 
L 1389.333398 1437.646167 
L 1387.226084 1438.090519 
L 1385.084418 1438.353806 
L 1382.910162 1438.440081 
L 1380.705268 1438.354506 
L 1378.471851 1438.103332 
L 1375.073212 1437.432344 
L 1371.623552 1436.434367 
L 1368.131272 1435.143072 
L 1364.604895 1433.596377 
L 1359.864554 1431.209121 
L 1355.09763 1428.548471 
L 1346.742459 1423.574786 
L 1339.614503 1419.386677 
L 1334.896654 1416.82935 
L 1330.212128 1414.577839 
L 1326.721576 1413.143646 
L 1323.250063 1411.963748 
L 1319.79611 1411.065326 
L 1316.357428 1410.470111 
L 1312.931042 1410.194058 
L 1309.513424 1410.247127 
L 1306.100658 1410.633171 
L 1302.688598 1411.349929 
L 1299.273053 1412.389124 
L 1295.849966 1413.736661 
L 1292.415604 1415.372919 
L 1288.966746 1417.273122 
L 1285.500868 1419.407797 
L 1280.850517 1422.560064 
L 1274.989967 1426.864702 
L 1256.031919 1441.12217 
L 1251.324484 1444.248989 
L 1247.832377 1446.350939 
L 1244.387769 1448.20139 
L 1241.004929 1449.764783 
L 1237.699002 1451.008961 
L 1234.485751 1451.905502 
L 1232.403012 1452.297842 
L 1230.3734 1452.518547 
L 1228.401657 1452.562277 
L 1226.492439 1452.424557 
L 1226.492439 1452.424557 
" clip-path="url(#p40a3670676)" style="fill: none; stroke: #ff8c00; stroke-width: 3; stroke-linecap: square"/>
   </g>
  </g>
 </g>
 <defs>
  <clipPath id="p40a3670676">
   <rect x="270" y="259.2" width="1674" height="1630.8"/>
  </clipPath>
 </defs>
</svg>
