<?xml version="1.0" encoding="utf-8" standalone="no"?>
<!DOCTYPE svg PUBLIC "-//W3C//DTD SVG 1.1//EN"
  "http://www.w3.org/Graphics/SVG/1.1/DTD/svg11.dtd">
<svg xmlns:xlink="http://www.w3.org/1999/xlink" width="2160pt" height="2160pt" viewBox="0 0 2160 2160" xmlns="http://www.w3.org/2000/svg" version="1.1">
 <metadata>
  <rdf:RDF xmlns:dc="http://purl.org/dc/elements/1.1/" xmlns:cc="http://creativecommons.org/ns#" xmlns:rdf="http://www.w3.org/1999/02/22-rdf-syntax-ns#">
   <cc:Work>
    <dc:type rdf:resource="http://purl.org/dc/dcmitype/StillImage"/>
    <dc:date>2022-03-06T19:21:02.923067</dc:date>
    <dc:format>image/svg+xml</dc:format>
    <dc:creator>
     <cc:Agent>
      <dc:title>Matplotlib v3.5.1, https://matplotlib.org/</dc:title>
     </cc:Agent>
    </dc:creator>
   </cc:Work>
  </rdf:RDF>
 </metadata>
 <defs>
  <style type="text/css">*{stroke-linejoin: round; stroke-linecap: butt}</style>
 </defs>
 <g id="figure_1">
  <g id="patch_1">
   <path d="M 0 2160 
L 2160 2160 
L 2160 0 
L 0 0 
L 0 2160 
z
" style="fill: none"/>
  </g>
  <g id="axes_1">
   <g id="line2d_1">
    <path d="M 1257.636748 1371.868297 
L 1255.340905 1371.540585 
L 1253.138416 1371.06427 
L 1251.034339 1370.43824 
L 1249.033353 1369.662054 
L 1247.139704 1368.735935 
L 1245.357144 1367.660749 
L 1243.68889 1366.437982 
L 1242.137566 1365.069724 
L 1240.705168 1363.558632 
L 1239.393022 1361.907906 
L 1238.201754 1360.121256 
L 1237.131261 1358.202864 
L 1236.180693 1356.157351 
L 1235.348441 1353.98974 
L 1234.316492 1350.521251 
L 1233.533973 1346.809702 
L 1232.985834 1342.875897 
L 1232.653373 1338.741655 
L 1232.514466 1334.429522 
L 1232.586292 1328.443058 
L 1232.889706 1322.236104 
L 1233.615312 1312.630981 
L 1234.774959 1297.907102 
L 1235.107597 1291.365851 
L 1235.216435 1284.888656 
L 1235.107636 1280.096815 
L 1234.804605 1275.378941 
L 1234.282372 1270.74954 
L 1233.519036 1266.22215 
L 1232.496045 1261.809412 
L 1231.198411 1257.523158 
L 1229.614869 1253.374505 
L 1227.737975 1249.373959 
L 1226.321808 1246.794168 
L 1224.77347 1244.287516 
L 1223.093595 1241.856799 
L 1221.283547 1239.504755 
L 1219.345404 1237.23408 
L 1217.281933 1235.047435 
L 1213.959407 1231.930782 
L 1210.376932 1229.017927 
L 1206.551573 1226.317592 
L 1202.502954 1223.838419 
L 1198.252898 1221.588936 
L 1193.825025 1219.577507 
L 1189.244337 1217.812251 
L 1184.536771 1216.300927 
L 1179.728752 1215.050805 
L 1174.846731 1214.068506 
L 1169.91673 1213.359819 
L 1164.963895 1212.929506 
L 1160.012071 1212.781089 
L 1155.083403 1212.91663 
L 1150.197977 1213.336505 
L 1145.373497 1214.039181 
L 1140.625029 1215.021011 
L 1135.964793 1216.27603 
L 1131.402027 1217.795797 
L 1126.942924 1219.569247 
L 1122.590641 1221.582603 
L 1118.345383 1223.81932 
L 1114.204568 1226.260082 
L 1110.163062 1228.882863 
L 1106.213481 1231.663031 
L 1101.074144 1235.567635 
L 1094.816851 1240.666389 
L 1075.42612 1256.882001 
L 1070.604637 1260.482807 
L 1066.977112 1262.963406 
L 1063.338855 1265.220985 
L 1059.692139 1267.226939 
L 1056.042211 1268.955295 
L 1052.397283 1270.383065 
L 1048.76843 1271.490548 
L 1045.169395 1272.261562 
L 1042.794486 1272.582322 
L 1040.445265 1272.745145 
L 1038.12739 1272.748021 
L 1035.846811 1272.589691 
L 1033.609712 1272.269644 
L 1031.422443 1271.788101 
L 1029.291454 1271.145991 
L 1027.223222 1270.34493 
L 1025.224187 1269.387186 
L 1023.300675 1268.275645 
L 1021.458839 1267.013768 
L 1019.704586 1265.605544 
L 1018.043514 1264.055446 
L 1016.480858 1262.368374 
L 1015.021432 1260.549606 
L 1013.669579 1258.604738 
L 1012.429127 1256.53963 
L 1011.303352 1254.36035 
L 1010.294948 1252.073111 
L 1009.006799 1248.453642 
L 1007.991656 1244.626861 
L 1007.250661 1240.61395 
L 1006.781725 1236.435515 
L 1006.579599 1232.111251 
L 1006.636022 1227.659654 
L 1006.939911 1223.097782 
L 1007.477616 1218.441077 
L 1008.233201 1213.703235 
L 1009.18876 1208.89615 
L 1010.739925 1202.396163 
L 1012.561898 1195.809896 
L 1015.139992 1187.476743 
L 1018.535188 1177.352894 
L 1027.329707 1151.551684 
L 1030.022524 1142.824844 
L 1031.989917 1135.815395 
L 1033.748066 1128.796012 
L 1035.260285 1121.785159 
L 1036.492843 1114.805937 
L 1037.21511 1109.608743 
L 1037.750817 1104.458024 
L 1038.089047 1099.368157 
L 1038.21987 1094.354478 
L 1038.134376 1089.433022 
L 1037.824705 1084.620237 
L 1037.284094 1079.932656 
L 1036.506912 1075.386562 
L 1035.4887 1070.997628 
L 1034.226202 1066.780566 
L 1032.717395 1062.748789 
L 1030.961499 1058.914096 
L 1028.958988 1055.286388 
L 1026.711581 1051.873434 
L 1024.22222 1048.680688 
L 1021.495041 1045.711166 
L 1018.535328 1042.96539 
L 1015.349464 1040.441399 
L 1011.944867 1038.134838 
L 1008.329929 1036.039105 
L 1004.51395 1034.145582 
L 1000.507072 1032.44391 
L 996.320222 1030.922334 
L 991.965057 1029.568089 
L 987.453916 1028.367816 
L 981.218978 1026.983667 
L 974.762421 1025.818343 
L 968.118647 1024.843764 
L 959.606057 1023.858575 
L 950.932502 1023.10311 
L 942.17697 1022.56356 
L 933.422181 1022.246192 
L 924.753667 1022.177331 
L 917.939364 1022.330551 
L 911.280154 1022.700751 
L 904.819134 1023.322077 
L 900.128156 1023.974898 
L 895.58783 1024.805339 
L 891.212909 1025.828778 
L 887.016522 1027.059732 
L 883.009883 1028.51136 
L 879.202018 1030.195011 
L 875.599516 1032.119812 
L 872.206309 1034.292311 
L 869.023494 1036.716184 
L 866.049211 1039.39202 
L 863.27857 1042.317175 
L 860.703649 1045.485712 
L 858.313549 1048.888413 
L 856.094529 1052.512875 
L 854.030195 1056.34367 
L 852.101766 1060.362571 
L 849.705645 1065.977539 
L 847.459944 1071.834723 
L 844.247142 1080.941351 
L 838.818722 1096.430226 
L 836.45963 1102.541154 
L 833.920492 1108.507305 
L 831.87411 1112.850688 
L 829.690702 1117.055146 
L 827.359486 1121.09862 
L 824.872519 1124.960825 
L 822.224701 1128.623383 
L 819.413707 1132.069926 
L 816.439851 1135.286179 
L 813.305883 1138.260017 
L 810.016738 1140.981507 
L 806.579232 1143.442931 
L 803.001729 1145.638797 
L 799.293789 1147.565832 
L 795.465803 1149.222967 
L 791.528634 1150.611297 
L 787.493269 1151.73404 
L 783.370499 1152.596463 
L 779.170641 1153.2058 
L 774.903286 1153.571143 
L 770.577117 1153.703307 
L 766.199765 1153.614678 
L 761.777726 1153.319021 
L 757.31634 1152.83127 
L 751.313741 1151.909637 
L 745.255683 1150.714062 
L 739.14656 1149.284672 
L 731.441919 1147.229351 
L 722.099675 1144.4644 
L 709.490365 1140.444704 
L 691.945338 1134.573123 
L 677.577834 1129.538765 
L 668.118897 1126.001932 
L 660.387627 1122.877912 
L 654.345448 1120.221061 
L 648.466162 1117.38867 
L 642.783762 1114.347584 
L 638.671638 1111.910608 
L 634.703514 1109.325988 
L 630.893145 1106.582759 
L 627.253792 1103.671665 
L 623.798124 1100.585465 
L 620.538132 1097.319184 
L 617.485073 1093.870321 
L 614.649431 1090.238989 
L 612.040902 1086.428003 
L 609.668389 1082.4429 
L 607.540014 1078.291914 
L 605.663134 1073.985882 
L 604.044363 1069.538113 
L 602.689592 1064.96421 
L 601.603998 1060.281852 
L 600.792049 1055.510556 
L 600.257491 1050.671407 
L 600.003325 1045.786784 
L 600.031767 1040.880077 
L 600.34419 1035.975395 
L 600.941053 1031.097299 
L 601.821823 1026.270522 
L 602.984883 1021.519724 
L 604.427443 1016.869246 
L 606.14545 1012.342897 
L 608.133504 1007.963748 
L 610.384797 1003.753952 
L 612.891057 999.734572 
L 615.642531 995.925435 
L 618.627981 992.344985 
L 621.834731 989.010159 
L 625.248728 985.936263 
L 627.632349 984.03873 
L 630.096476 982.266793 
L 632.636092 980.623632 
L 635.246003 979.112033 
L 637.920877 977.734369 
L 642.043053 975.923154 
L 646.280442 974.422314 
L 650.614243 973.23427 
L 655.025816 972.359054 
L 659.496976 971.794222 
L 664.010279 971.534806 
L 668.549305 971.573267 
L 673.098917 971.899481 
L 677.645495 972.500756 
L 682.177137 973.361878 
L 686.683815 974.465189 
L 691.157491 975.790715 
L 695.592176 977.316321 
L 699.983945 979.017911 
L 705.769864 981.515616 
L 711.477059 984.21506 
L 719.904987 988.492506 
L 736.443566 997.002776 
L 741.922389 999.57803 
L 747.411716 1001.919508 
L 751.544005 1003.489782 
L 755.694596 1004.878319 
L 759.866753 1006.067465 
L 764.06223 1007.042037 
L 768.281135 1007.789373 
L 772.521823 1008.299324 
L 776.780846 1008.56419 
L 781.052949 1008.578604 
L 785.331109 1008.339382 
L 789.606617 1007.845316 
L 793.869206 1007.096951 
L 798.107209 1006.096335 
L 802.307761 1004.846754 
L 806.457016 1003.352473 
L 810.540399 1001.618472 
L 814.542867 999.65021 
L 818.449186 997.453403 
L 822.244213 995.033838 
L 825.913181 992.397226 
L 829.441975 989.549089 
L 832.81741 986.4947 
L 836.027482 983.239063 
L 839.061617 979.786941 
L 841.910895 976.142926 
L 844.568246 972.311547 
L 847.028637 968.297413 
L 849.289216 964.105388 
L 851.349437 959.740775 
L 853.211151 955.209518 
L 854.878665 950.518405 
L 856.358771 945.675262 
L 857.660733 940.689127 
L 858.796244 935.570403 
L 860.075933 928.559954 
L 861.124335 921.367605 
L 862.179885 912.178984 
L 863.207922 900.974025 
L 865.042757 880.458041 
L 865.895017 873.182147 
L 866.942082 866.091023 
L 867.889768 860.925664 
L 869.00187 855.914885 
L 870.299299 851.078338 
L 871.801013 846.434009 
L 873.523768 841.997953 
L 875.48191 837.784065 
L 876.924031 835.104037 
L 878.47888 832.530748 
L 880.148733 830.066506 
L 881.935319 827.71311 
L 883.839809 825.471845 
L 885.862825 823.343481 
L 888.004442 821.328284 
L 890.264201 819.426025 
L 892.64112 817.635994 
L 895.133721 815.957019 
L 897.740041 814.387489 
L 901.857344 812.233871 
L 906.215068 810.31344 
L 910.801384 808.616065 
L 915.602811 807.130163 
L 920.604502 805.842965 
L 925.790522 804.740787 
L 931.144151 803.809293 
L 936.648163 803.033748 
L 944.190607 802.216536 
L 951.928189 801.615009 
L 961.813615 801.114484 
L 971.867284 800.834336 
L 984.058937 800.706968 
L 1002.39851 800.756758 
L 1032.46304 800.852902 
L 1046.070938 800.662797 
L 1057.450138 800.279828 
L 1066.705718 799.761384 
L 1075.735466 799.026872 
L 1082.7853 798.26244 
L 1089.671817 797.32413 
L 1096.387798 796.197568 
L 1102.92702 794.869661 
L 1109.284549 793.32888 
L 1115.457062 791.565548 
L 1121.443166 789.572099 
L 1127.243689 787.343311 
L 1132.861927 784.876519 
L 1138.303803 782.171798 
L 1143.577943 779.232122 
L 1148.695638 776.063511 
L 1153.670696 772.675171 
L 1158.51918 769.079637 
L 1163.259032 765.292917 
L 1169.060659 760.32096 
L 1174.76237 755.128056 
L 1182.652218 747.596449 
L 1198.466455 732.365312 
L 1204.213318 727.162959 
L 1208.865045 723.20281 
L 1213.566554 719.482663 
L 1218.315003 716.0597 
L 1221.90313 713.721885 
L 1225.509433 711.607005 
L 1229.128256 709.737924 
L 1232.752752 708.136395 
L 1236.374936 706.82271 
L 1239.985765 705.815353 
L 1243.575211 705.130662 
L 1245.950939 704.86042 
L 1248.308891 704.743249 
L 1250.645487 704.782006 
L 1252.957016 704.978941 
L 1255.239651 705.335662 
L 1257.489462 705.853117 
L 1259.702431 706.531573 
L 1261.874471 707.370605 
L 1264.001433 708.369091 
L 1266.079131 709.525205 
L 1268.103351 710.836425 
L 1270.069871 712.299543 
L 1271.974475 713.910682 
L 1273.81297 715.665315 
L 1276.437696 718.554897 
L 1278.890606 721.735816 
L 1281.158388 725.185595 
L 1283.228301 728.879442 
L 1285.088324 732.790648 
L 1286.727307 736.89102 
L 1288.135118 741.151347 
L 1289.302799 745.541885 
L 1290.222716 750.032844 
L 1290.888698 754.594884 
L 1291.296173 759.199592 
L 1291.44229 763.819942 
L 1291.326019 768.430722 
L 1290.94823 773.00893 
L 1290.311753 777.534116 
L 1289.421398 781.988677 
L 1288.283953 786.35809 
L 1286.908146 790.631086 
L 1285.304571 794.799757 
L 1283.485583 798.859598 
L 1281.465162 802.809479 
L 1279.25874 806.651557 
L 1276.883016 810.391118 
L 1274.355733 814.036371 
L 1270.782431 818.769123 
L 1267.018224 823.38586 
L 1262.114962 829.051862 
L 1244.929069 848.546392 
L 1241.001535 853.429345 
L 1237.192301 858.501398 
L 1233.531646 863.788047 
L 1230.047409 869.306424 
L 1227.565664 873.602356 
L 1225.208226 878.032891 
L 1222.985315 882.594452 
L 1220.907084 887.280214 
L 1218.983764 892.080164 
L 1217.225791 896.981211 
L 1215.643914 901.967372 
L 1214.249249 907.020013 
L 1213.053304 912.118157 
L 1212.06796 917.23883 
L 1211.305392 922.357475 
L 1210.777955 927.448394 
L 1210.498019 932.485223 
L 1210.477754 937.441441 
L 1210.728893 942.290885 
L 1211.26245 947.008271 
L 1212.088423 951.569718 
L 1212.805874 954.513099 
L 1213.659355 957.371408 
L 1214.650679 960.139224 
L 1215.781259 962.81171 
L 1217.052064 965.38466 
L 1218.463589 967.854543 
L 1220.015825 970.218544 
L 1221.708226 972.474594 
L 1223.539693 974.621398 
L 1225.508549 976.658451 
L 1227.612529 978.586057 
L 1229.84877 980.405324 
L 1232.21381 982.118168 
L 1234.703589 983.7273 
L 1238.661813 985.954372 
L 1242.872003 987.971017 
L 1247.313305 989.795673 
L 1251.962322 991.449971 
L 1256.793369 992.958329 
L 1263.469864 994.788944 
L 1272.094159 996.883625 
L 1293.22212 1001.83237 
L 1300.13461 1003.700032 
L 1306.859771 1005.779674 
L 1311.73945 1007.508993 
L 1316.448174 1009.40338 
L 1320.960595 1011.476865 
L 1325.253243 1013.739868 
L 1329.304647 1016.199121 
L 1333.095423 1018.857667 
L 1336.608345 1021.71496 
L 1338.788416 1023.728414 
L 1340.834364 1025.826541 
L 1342.742728 1028.006791 
L 1344.510488 1030.26608 
L 1346.135066 1032.60084 
L 1347.614334 1035.007075 
L 1348.946603 1037.48042 
L 1350.130637 1040.016207 
L 1351.165642 1042.609522 
L 1352.051276 1045.255277 
L 1352.787647 1047.948269 
L 1353.375317 1050.683249 
L 1353.815304 1053.454979 
L 1354.201736 1057.670221 
L 1354.266251 1061.939739 
L 1354.018149 1066.247749 
L 1353.469107 1070.579837 
L 1352.633184 1074.923227 
L 1351.52681 1079.266974 
L 1350.168758 1083.602084 
L 1348.580085 1087.921547 
L 1346.784047 1092.220297 
L 1344.110829 1097.914387 
L 1341.179496 1103.562825 
L 1337.260164 1110.560685 
L 1323.038568 1135.289505 
L 1320.336918 1140.696726 
L 1318.521408 1144.724782 
L 1316.917331 1148.723211 
L 1315.54997 1152.684596 
L 1314.442013 1156.599869 
L 1313.613279 1160.458461 
L 1313.080491 1164.24852 
L 1312.857093 1167.957197 
L 1312.953125 1171.570995 
L 1313.197992 1173.920684 
L 1313.588897 1176.218027 
L 1314.126237 1178.459054 
L 1314.809727 1180.639937 
L 1315.638424 1182.757049 
L 1316.610736 1184.807015 
L 1317.724451 1186.786769 
L 1318.976763 1188.693592 
L 1320.364301 1190.525167 
L 1321.883165 1192.279606 
L 1324.397968 1194.763659 
L 1327.181594 1197.068361 
L 1330.215419 1199.19359 
L 1333.479224 1201.14184 
L 1336.951561 1202.918162 
L 1340.610132 1204.530006 
L 1344.432165 1205.986989 
L 1348.394787 1207.300572 
L 1353.85799 1208.85145 
L 1359.479277 1210.203775 
L 1366.654802 1211.667548 
L 1375.374034 1213.177066 
L 1386.995285 1214.924791 
L 1404.081648 1217.241531 
L 1416.549502 1218.753339 
L 1426.111292 1219.697632 
L 1434.291084 1220.266469 
L 1441.148545 1220.530027 
L 1448.082972 1220.582201 
L 1455.123735 1220.421224 
L 1463.735987 1219.973422 
L 1474.002407 1219.193962 
L 1493.385172 1217.658049 
L 1500.749699 1217.310098 
L 1506.506143 1217.23215 
L 1512.080367 1217.383997 
L 1516.105063 1217.674797 
L 1519.967215 1218.135209 
L 1523.64109 1218.779055 
L 1527.101758 1219.617756 
L 1530.325628 1220.660197 
L 1533.290975 1221.912685 
L 1535.978419 1223.378966 
L 1537.607334 1224.475997 
L 1539.10114 1225.668479 
L 1540.456348 1226.955797 
L 1541.670166 1228.336938 
L 1542.740526 1229.810533 
L 1543.6661 1231.37489 
L 1544.446311 1233.028031 
L 1545.081334 1234.767735 
L 1545.572084 1236.591573 
L 1545.920205 1238.496948 
L 1546.180267 1241.501891 
L 1546.135525 1244.674519 
L 1545.799711 1248.004934 
L 1545.1892 1251.483119 
L 1544.322547 1255.099058 
L 1543.219966 1258.842802 
L 1541.4198 1264.016208 
L 1539.289944 1269.375903 
L 1536.2416 1276.301275 
L 1532.850631 1283.431875 
L 1528.440644 1292.183594 
L 1522.954008 1302.525715 
L 1518.026486 1311.355632 
L 1513.775439 1318.573128 
L 1509.38213 1325.555722 
L 1505.749177 1330.899669 
L 1501.993445 1335.965642 
L 1499.085154 1339.547603 
L 1496.089842 1342.916307 
L 1493.000177 1346.048654 
L 1489.809595 1348.923029 
L 1486.512609 1351.519804 
L 1483.105076 1353.821824 
L 1479.584399 1355.814877 
L 1477.1739 1356.966422 
L 1474.712832 1357.973441 
L 1472.201707 1358.834406 
L 1469.641382 1359.548605 
L 1467.033053 1360.116166 
L 1464.378236 1360.538082 
L 1460.312917 1360.9022 
L 1456.15449 1360.953048 
L 1451.911492 1360.705058 
L 1447.593439 1360.176939 
L 1443.210564 1359.391454 
L 1438.773539 1358.375106 
L 1434.293192 1357.157738 
L 1428.270476 1355.278784 
L 1420.69723 1352.637808 
L 1398.042887 1344.444374 
L 1392.08017 1342.605164 
L 1387.637056 1341.415075 
L 1383.218506 1340.417108 
L 1378.823014 1339.634015 
L 1374.448 1339.084362 
L 1370.089954 1338.782245 
L 1365.744608 1338.737091 
L 1361.407128 1338.95354 
L 1357.072318 1339.43141 
L 1352.734849 1340.165752 
L 1348.389481 1341.146978 
L 1344.031308 1342.361063 
L 1339.655995 1343.789824 
L 1333.78963 1345.990235 
L 1327.881248 1348.471312 
L 1320.435278 1351.859393 
L 1296.348624 1363.081116 
L 1290.367715 1365.542162 
L 1284.464516 1367.705469 
L 1280.112143 1369.089587 
L 1275.844553 1370.239021 
L 1271.681289 1371.129412 
L 1267.642559 1371.739424 
L 1263.748861 1372.05094 
L 1260.020567 1372.049206 
L 1258.818007 1371.976963 
L 1258.818007 1371.976963 
" clip-path="url(#p0fe4e89809)" style="fill: none; stroke: #4169e1; stroke-width: 3; stroke-linecap: square"/>
   </g>
   <g id="line2d_2">
    <path d="M 1229.433324 1440.346255 
L 1227.567327 1439.943051 
L 1225.777206 1439.357014 
L 1224.067071 1438.586773 
L 1222.440726 1437.631787 
L 1220.90162 1436.49233 
L 1219.452806 1435.169466 
L 1218.096896 1433.665027 
L 1216.836023 1431.98158 
L 1215.67181 1430.122396 
L 1214.605335 1428.091414 
L 1213.637106 1425.893195 
L 1212.767039 1423.532887 
L 1211.644314 1419.701082 
L 1210.735812 1415.5387 
L 1210.033435 1411.069081 
L 1209.525969 1406.317317 
L 1209.199187 1401.309879 
L 1209.014637 1394.28318 
L 1209.073016 1386.91769 
L 1209.403716 1377.337213 
L 1210.243974 1361.45049 
L 1210.933161 1347.330969 
L 1211.19301 1337.301838 
L 1211.168241 1329.390561 
L 1210.875998 1321.629859 
L 1210.451542 1315.934041 
L 1209.831124 1310.363733 
L 1208.999666 1304.934489 
L 1207.944985 1299.660865 
L 1206.657927 1294.556538 
L 1205.13244 1289.634437 
L 1203.365606 1284.906868 
L 1201.357618 1280.385643 
L 1199.111714 1276.082198 
L 1196.634062 1272.007692 
L 1193.933606 1268.173095 
L 1191.021871 1264.589241 
L 1187.912726 1261.266865 
L 1184.622123 1258.216596 
L 1181.167796 1255.448927 
L 1177.568945 1252.974152 
L 1173.84589 1250.802255 
L 1170.019713 1248.942787 
L 1166.11189 1247.40469 
L 1162.14392 1246.196111 
L 1159.475662 1245.577024 
L 1156.796192 1245.109389 
L 1154.111428 1244.794734 
L 1151.427058 1244.634263 
L 1148.748496 1244.628829 
L 1146.080842 1244.778892 
L 1143.428847 1245.084484 
L 1140.796882 1245.545174 
L 1138.188902 1246.160031 
L 1135.608428 1246.927595 
L 1133.058521 1247.845841 
L 1130.541771 1248.912155 
L 1126.833283 1250.782011 
L 1123.209049 1252.963988 
L 1119.671636 1255.441136 
L 1116.221209 1258.193097 
L 1112.855671 1261.196107 
L 1109.570848 1264.423065 
L 1106.36074 1267.843665 
L 1102.183631 1272.647724 
L 1097.097878 1278.921014 
L 1081.337636 1298.872012 
L 1077.41887 1303.302291 
L 1074.470519 1306.354313 
L 1071.513446 1309.131943 
L 1068.549498 1311.599983 
L 1065.582938 1313.726478 
L 1062.620443 1315.483147 
L 1060.652058 1316.436652 
L 1058.692645 1317.208805 
L 1056.745818 1317.794369 
L 1054.815559 1318.189019 
L 1052.906178 1318.389349 
L 1051.022274 1318.392887 
L 1049.168684 1318.198085 
L 1047.350432 1317.804313 
L 1045.572682 1317.211843 
L 1043.840673 1316.421818 
L 1042.159673 1315.436226 
L 1040.534913 1314.257859 
L 1038.971537 1312.890267 
L 1037.474544 1311.337707 
L 1036.048736 1309.605088 
L 1034.698663 1307.697913 
L 1033.42858 1305.622212 
L 1032.2424 1303.384477 
L 1030.628054 1299.739215 
L 1029.220449 1295.76948 
L 1028.027367 1291.500911 
L 1027.054094 1286.959726 
L 1026.303314 1282.172212 
L 1025.775079 1277.164243 
L 1025.466823 1271.960841 
L 1025.373452 1266.585783 
L 1025.487463 1261.061264 
L 1025.799132 1255.407631 
L 1026.296716 1249.643179 
L 1027.225781 1241.812397 
L 1028.425062 1233.845042 
L 1029.85482 1225.766268 
L 1031.90161 1215.539186 
L 1034.625539 1203.109355 
L 1042.697977 1167.135576 
L 1044.84885 1156.38709 
L 1046.771574 1145.598881 
L 1048.104183 1136.964584 
L 1049.222899 1128.354278 
L 1050.101506 1119.799217 
L 1050.716206 1111.336041 
L 1051.045659 1103.006105 
L 1051.094146 1096.873085 
L 1050.96459 1090.860241 
L 1050.650897 1084.98789 
L 1050.147873 1079.276319 
L 1049.451255 1073.74536 
L 1048.557743 1068.413949 
L 1047.465022 1063.299701 
L 1046.171784 1058.418498 
L 1044.677734 1053.784114 
L 1042.983596 1049.407886 
L 1041.091102 1045.298445 
L 1039.002968 1041.461514 
L 1036.722872 1037.899783 
L 1034.255411 1034.612872 
L 1031.60606 1031.59737 
L 1028.781118 1028.846971 
L 1025.787656 1026.352693 
L 1022.633468 1024.103174 
L 1019.327014 1022.085049 
L 1015.877378 1020.283385 
L 1012.294223 1018.682172 
L 1008.587759 1017.264857 
L 1004.768713 1016.014892 
L 999.521005 1014.581127 
L 994.121132 1013.382046 
L 988.598559 1012.388766 
L 982.984228 1011.579926 
L 975.886718 1010.810308 
L 968.762594 1010.307954 
L 963.090247 1010.112921 
L 957.480814 1010.125595 
L 951.970505 1010.377172 
L 947.924399 1010.745373 
L 943.968938 1011.28731 
L 940.118287 1012.021968 
L 936.385831 1012.968724 
L 932.78395 1014.146718 
L 929.323781 1015.574232 
L 926.014983 1017.268078 
L 922.865507 1019.243021 
L 920.857436 1020.721957 
L 918.924177 1022.334186 
L 917.06657 1024.081935 
L 915.284997 1025.966732 
L 912.754879 1029.05241 
L 910.393201 1032.447456 
L 908.195163 1036.14727 
L 906.153513 1040.143195 
L 904.258608 1044.422567 
L 902.49854 1048.968857 
L 900.859312 1053.761902 
L 898.834008 1060.495418 
L 896.953332 1067.56177 
L 894.736372 1076.753567 
L 888.087139 1105.235765 
L 886.100936 1112.674847 
L 883.951684 1119.898305 
L 881.61078 1126.835004 
L 879.716033 1131.809922 
L 877.694696 1136.561815 
L 875.542624 1141.06807 
L 873.257927 1145.30855 
L 870.84086 1149.265691 
L 868.293659 1152.924574 
L 865.620335 1156.272979 
L 862.826426 1159.301411 
L 859.918732 1162.003111 
L 856.905022 1164.374053 
L 853.793743 1166.412921 
L 850.593722 1168.121064 
L 847.31389 1169.502439 
L 843.963019 1170.563527 
L 840.549492 1171.313229 
L 837.081106 1171.762731 
L 833.564917 1171.925341 
L 830.007127 1171.816295 
L 826.413018 1171.452531 
L 822.786929 1170.852423 
L 819.132281 1170.035486 
L 815.451641 1169.022044 
L 810.50674 1167.401048 
L 805.521474 1165.516939 
L 799.235265 1162.864384 
L 791.61439 1159.357293 
L 781.333812 1154.327721 
L 768.354642 1147.714115 
L 757.977708 1142.194317 
L 750.289749 1137.842749 
L 744.00599 1133.999087 
L 739.095076 1130.730211 
L 734.316558 1127.245358 
L 730.836167 1124.465399 
L 727.457473 1121.524299 
L 724.192022 1118.406435 
L 721.051102 1115.097709 
L 718.045636 1111.585987 
L 715.18609 1107.861496 
L 712.4824 1103.917154 
L 709.943917 1099.748846 
L 707.579376 1095.355625 
L 705.396871 1090.739838 
L 703.403852 1085.907182 
L 701.607131 1080.866691 
L 700.012892 1075.630647 
L 698.626712 1070.214431 
L 697.453573 1064.636329 
L 696.497874 1058.917272 
L 695.76344 1053.080554 
L 695.253512 1047.151511 
L 694.970736 1041.157186 
L 694.917129 1035.125979 
L 695.094041 1029.0873 
L 695.5021 1023.071218 
L 696.141149 1017.108128 
L 697.010176 1011.228435 
L 698.107239 1005.462249 
L 699.429393 999.839111 
L 700.972623 994.387734 
L 702.73178 989.135776 
L 704.700543 984.10962 
L 706.871385 979.334186 
L 709.235574 974.832753 
L 711.78319 970.626796 
L 714.503177 966.73583 
L 717.383418 963.17727 
L 719.386192 960.997154 
L 721.45032 958.975479 
L 723.571584 957.115671 
L 725.745646 955.420653 
L 727.96808 953.892825 
L 730.234395 952.53405 
L 732.540066 951.34564 
L 734.88056 950.328337 
L 737.251375 949.482299 
L 739.648061 948.807093 
L 742.066258 948.301678 
L 744.501728 947.964398 
L 746.95038 947.792974 
L 749.408302 947.784503 
L 751.871789 947.93545 
L 754.33737 948.241655 
L 758.032701 948.981438 
L 761.715893 950.040925 
L 765.378794 951.398393 
L 769.014872 953.029263 
L 772.61926 954.906303 
L 776.188766 956.999867 
L 780.891399 960.072937 
L 785.530047 963.394219 
L 791.246369 967.766576 
L 805.822124 979.12768 
L 810.275158 982.296163 
L 814.736729 985.177017 
L 818.095337 987.109016 
L 821.468821 988.817413 
L 824.859833 990.280487 
L 828.2698 991.479559 
L 831.698807 992.39905 
L 835.145519 993.026472 
L 838.607133 993.352351 
L 842.079379 993.370086 
L 845.556548 993.075757 
L 849.031561 992.46788 
L 852.496073 991.547123 
L 855.940603 990.316008 
L 859.354694 988.778577 
L 862.727092 986.940076 
L 866.045952 984.806636 
L 869.299045 982.38497 
L 872.473992 979.682112 
L 875.558483 976.705182 
L 878.540517 973.461207 
L 881.408623 969.95698 
L 884.152081 966.19899 
L 886.761137 962.193394 
L 889.227198 957.94605 
L 891.54301 953.462609 
L 893.702831 948.748642 
L 895.702568 943.809824 
L 897.539903 938.652135 
L 899.214393 933.2821 
L 900.727542 927.707034 
L 902.082851 921.935289 
L 903.285839 915.976492 
L 904.344037 909.841764 
L 905.546442 901.410838 
L 906.536326 892.72554 
L 907.347068 883.827401 
L 908.167514 872.478618 
L 909.236815 854.053371 
L 910.34394 835.736001 
L 911.23268 824.579004 
L 912.130668 815.921455 
L 913.244572 807.571499 
L 914.247082 801.546795 
L 915.410682 795.75146 
L 916.749608 790.206073 
L 918.27619 784.928644 
L 920.000706 779.934366 
L 921.931266 775.235427 
L 924.07374 770.840884 
L 925.621656 768.083326 
L 927.265907 765.464678 
L 929.006553 762.985266 
L 930.843221 760.644807 
L 932.775115 758.442429 
L 934.801031 756.376689 
L 936.919374 754.445607 
L 939.128183 752.646691 
L 941.425148 750.976979 
L 943.807639 749.43307 
L 947.535268 747.344692 
L 951.437733 745.516502 
L 955.502967 743.932789 
L 959.718019 742.576716 
L 964.069299 741.430645 
L 968.542805 740.476448 
L 973.124353 739.695798 
L 979.376695 738.893362 
L 985.763061 738.324615 
L 992.251917 737.948834 
L 1000.462215 737.692075 
L 1010.391374 737.605447 
L 1026.928518 737.725445 
L 1044.817363 737.805121 
L 1054.346363 737.656428 
L 1063.670058 737.277826 
L 1071.262092 736.735092 
L 1077.208404 736.122898 
L 1083.033639 735.330467 
L 1088.730948 734.338189 
L 1094.293987 733.127431 
L 1099.717069 731.680867 
L 1104.995376 729.982835 
L 1108.856818 728.535991 
L 1112.633641 726.935072 
L 1116.325273 725.175999 
L 1119.931697 723.255585 
L 1123.453503 721.171602 
L 1126.891926 718.922833 
L 1130.248882 716.509129 
L 1133.52698 713.931457 
L 1136.729526 711.19194 
L 1140.889045 707.293416 
L 1144.932633 703.124548 
L 1148.873344 698.700754 
L 1152.725763 694.041736 
L 1157.441163 687.924452 
L 1162.075354 681.535323 
L 1168.488001 672.268755 
L 1181.341369 653.529013 
L 1186.012258 647.128259 
L 1189.793051 642.25586 
L 1193.614306 637.67875 
L 1197.473712 633.467283 
L 1200.390041 630.590934 
L 1203.321143 627.988876 
L 1206.262421 625.689238 
L 1209.208309 623.718785 
L 1212.152319 622.102483 
L 1214.110352 621.233034 
L 1216.061922 620.53725 
L 1218.004501 620.020659 
L 1219.935426 619.688166 
L 1221.851903 619.544002 
L 1223.751023 619.591688 
L 1225.629769 619.833988 
L 1227.48503 620.272882 
L 1229.313614 620.909537 
L 1231.112253 621.74428 
L 1232.877626 622.77659 
L 1234.606361 624.005085 
L 1236.295056 625.427518 
L 1237.940285 627.040787 
L 1239.538617 628.840945 
L 1241.086626 630.823222 
L 1243.306837 634.125717 
L 1245.394818 637.803296 
L 1247.339501 641.830451 
L 1249.130207 646.178526 
L 1250.756763 650.816174 
L 1252.209621 655.709864 
L 1253.47998 660.824425 
L 1254.559911 666.123634 
L 1255.442478 671.570807 
L 1256.121859 677.12941 
L 1256.59346 682.763661 
L 1256.854022 688.439107 
L 1256.901713 694.123185 
L 1256.736203 699.785732 
L 1256.358727 705.399448 
L 1255.77212 710.940305 
L 1254.98083 716.387877 
L 1253.990905 721.725613 
L 1252.80995 726.941014 
L 1251.447065 732.025745 
L 1249.912746 736.975656 
L 1248.218764 741.79072 
L 1246.378025 746.474898 
L 1243.719515 752.530749 
L 1240.859844 758.3959 
L 1237.835678 764.107694 
L 1233.881313 771.100998 
L 1225.667609 784.988087 
L 1220.728716 793.544373 
L 1216.702733 800.958719 
L 1213.580264 807.13768 
L 1210.572604 813.573739 
L 1207.702838 820.290672 
L 1204.99239 827.301057 
L 1202.461534 834.605404 
L 1200.129949 842.191693 
L 1198.017262 850.035366 
L 1196.143521 858.099758 
L 1194.529552 866.336985 
L 1193.502625 872.593892 
L 1192.643618 878.888182 
L 1191.962358 885.190232 
L 1191.46885 891.468829 
L 1191.173161 897.691742 
L 1191.085258 903.826333 
L 1191.214818 909.840195 
L 1191.571015 915.701789 
L 1192.162279 921.381085 
L 1192.996047 926.850191 
L 1194.078508 932.08394 
L 1195.414356 937.060448 
L 1197.006549 941.761605 
L 1198.211007 944.735684 
L 1199.529665 947.5781 
L 1200.961857 950.28678 
L 1202.506455 952.860616 
L 1204.161859 955.299482 
L 1205.925985 957.604245 
L 1207.796263 959.776768 
L 1209.769636 961.8199 
L 1211.842563 963.737456 
L 1214.011028 965.534194 
L 1217.432953 968.015388 
L 1221.042719 970.260367 
L 1224.821309 972.295745 
L 1228.747849 974.151565 
L 1234.174317 976.403875 
L 1241.183902 978.981081 
L 1258.356116 985.069806 
L 1263.974394 987.367698 
L 1268.091282 989.258708 
L 1272.09884 991.323267 
L 1275.974636 993.58421 
L 1279.697585 996.060238 
L 1283.248092 998.765671 
L 1286.608154 1001.710307 
L 1289.761444 1004.899395 
L 1292.693372 1008.333716 
L 1294.518609 1010.757942 
L 1296.236378 1013.287648 
L 1297.843685 1015.920048 
L 1300.041863 1020.053432 
L 1301.978285 1024.39562 
L 1303.647413 1028.92965 
L 1305.04554 1033.636465 
L 1306.170804 1038.495502 
L 1307.023191 1043.485293 
L 1307.604556 1048.584067 
L 1307.918637 1053.770321 
L 1307.971073 1059.023355 
L 1307.769423 1064.323746 
L 1307.323177 1069.653763 
L 1306.643762 1074.997684 
L 1305.744532 1080.342047 
L 1304.640746 1085.675781 
L 1303.349517 1090.990264 
L 1301.369217 1098.03585 
L 1299.138901 1105.027729 
L 1296.082365 1113.688521 
L 1292.172719 1123.972638 
L 1284.376861 1144.252449 
L 1281.462469 1152.601932 
L 1279.39251 1159.230224 
L 1277.614919 1165.798043 
L 1276.503566 1170.671962 
L 1275.603049 1175.489147 
L 1274.929478 1180.236595 
L 1274.496443 1184.899722 
L 1274.314871 1189.46272 
L 1274.392923 1193.908983 
L 1274.735933 1198.221576 
L 1275.346396 1202.383758 
L 1276.224005 1206.3795 
L 1277.365727 1210.194019 
L 1278.765926 1213.814267 
L 1280.416519 1217.229389 
L 1282.307181 1220.43111 
L 1284.425562 1223.414044 
L 1286.757552 1226.175903 
L 1289.287549 1228.717613 
L 1291.998752 1231.043305 
L 1294.873464 1233.160203 
L 1297.893401 1235.078401 
L 1301.039992 1236.810533 
L 1304.294687 1238.371358 
L 1308.771002 1240.214477 
L 1313.365669 1241.823884 
L 1318.04014 1243.242074 
L 1323.943064 1244.807908 
L 1332.219559 1246.736773 
L 1343.879655 1249.189234 
L 1355.238477 1251.376274 
L 1363.040546 1252.663325 
L 1369.686521 1253.511051 
L 1375.23676 1253.981697 
L 1380.831983 1254.203605 
L 1386.500276 1254.161867 
L 1392.261947 1253.863646 
L 1398.125967 1253.341297 
L 1406.494323 1252.348858 
L 1419.834324 1250.729628 
L 1425.841462 1250.245821 
L 1430.549721 1250.088199 
L 1435.121869 1250.199128 
L 1438.43237 1250.491609 
L 1441.617799 1250.98649 
L 1444.657123 1251.70171 
L 1447.529813 1252.652326 
L 1450.216284 1253.850325 
L 1452.698327 1255.304522 
L 1454.231254 1256.419238 
L 1455.661627 1257.651305 
L 1456.985563 1259.001045 
L 1458.199687 1260.468224 
L 1459.301162 1262.052084 
L 1460.287719 1263.751382 
L 1461.157677 1265.564431 
L 1461.909958 1267.489149 
L 1462.816874 1270.5802 
L 1463.459089 1273.907533 
L 1463.840605 1277.460547 
L 1463.968304 1281.227808 
L 1463.851728 1285.19735 
L 1463.502791 1289.356926 
L 1462.935438 1293.694198 
L 1461.866318 1299.732397 
L 1460.47678 1306.035739 
L 1458.808736 1312.575486 
L 1456.395625 1321.038339 
L 1453.119449 1331.537846 
L 1448.914254 1344.117391 
L 1444.419096 1356.848905 
L 1440.388416 1367.687066 
L 1436.911261 1376.519653 
L 1433.315305 1385.037109 
L 1430.338928 1391.533313 
L 1427.259142 1397.66953 
L 1424.872477 1401.992407 
L 1422.413046 1406.043262 
L 1419.875066 1409.794217 
L 1417.253468 1413.219421 
L 1414.544136 1416.295675 
L 1411.744104 1419.003018 
L 1409.826149 1420.59481 
L 1407.866963 1422.011622 
L 1405.866676 1423.250615 
L 1403.825704 1424.30991 
L 1401.744744 1425.18863 
L 1399.624767 1425.886933 
L 1397.467007 1426.40604 
L 1395.272946 1426.748252 
L 1393.044296 1426.916949 
L 1390.782976 1426.916597 
L 1388.49109 1426.752724 
L 1385.000933 1426.214962 
L 1381.455266 1425.350681 
L 1377.86267 1424.191003 
L 1374.23193 1422.771336 
L 1370.571809 1421.130828 
L 1365.660619 1418.673338 
L 1359.498034 1415.318001 
L 1345.987507 1407.844787 
L 1341.123918 1405.43365 
L 1337.499165 1403.829726 
L 1333.894659 1402.440874 
L 1330.309814 1401.298277 
L 1326.743103 1400.428258 
L 1323.192162 1399.85186 
L 1319.653916 1399.584534 
L 1316.124727 1399.635926 
L 1312.600546 1400.009765 
L 1309.077096 1400.703863 
L 1305.550046 1401.710205 
L 1302.015207 1403.015141 
L 1298.468726 1404.59967 
L 1294.907276 1406.4398 
L 1291.32825 1408.506989 
L 1286.526083 1411.5596 
L 1280.474208 1415.728151 
L 1260.897251 1429.534881 
L 1256.036135 1432.562847 
L 1252.430024 1434.598346 
L 1248.872963 1436.390296 
L 1245.379686 1437.904265 
L 1241.965834 1439.109108 
L 1238.647682 1439.977306 
L 1236.496949 1440.357242 
L 1234.401078 1440.570971 
L 1232.364964 1440.613318 
L 1230.393418 1440.479952 
L 1230.393418 1440.479952 
" clip-path="url(#p0fe4e89809)" style="fill: none; stroke: #ff8c00; stroke-width: 3; stroke-linecap: square"/>
   </g>
  </g>
 </g>
 <defs>
  <clipPath id="p0fe4e89809">
   <rect x="270" y="259.2" width="1674" height="1630.8"/>
  </clipPath>
 </defs>
</svg>
