<?xml version="1.0" encoding="utf-8" standalone="no"?>
<!DOCTYPE svg PUBLIC "-//W3C//DTD SVG 1.1//EN"
  "http://www.w3.org/Graphics/SVG/1.1/DTD/svg11.dtd">
<svg xmlns:xlink="http://www.w3.org/1999/xlink" width="2160pt" height="2160pt" viewBox="0 0 2160 2160" xmlns="http://www.w3.org/2000/svg" version="1.1">
 <metadata>
  <rdf:RDF xmlns:dc="http://purl.org/dc/elements/1.1/" xmlns:cc="http://creativecommons.org/ns#" xmlns:rdf="http://www.w3.org/1999/02/22-rdf-syntax-ns#">
   <cc:Work>
    <dc:type rdf:resource="http://purl.org/dc/dcmitype/StillImage"/>
    <dc:date>2022-03-09T01:03:30.183705</dc:date>
    <dc:format>image/svg+xml</dc:format>
    <dc:creator>
     <cc:Agent>
      <dc:title>Matplotlib v3.5.1, https://matplotlib.org/</dc:title>
     </cc:Agent>
    </dc:creator>
   </cc:Work>
  </rdf:RDF>
 </metadata>
 <defs>
  <style type="text/css">*{stroke-linejoin: round; stroke-linecap: butt}</style>
 </defs>
 <g id="figure_1">
  <g id="patch_1">
   <path d="M 0 2160 
L 2160 2160 
L 2160 0 
L 0 0 
L 0 2160 
z
" style="fill: none"/>
  </g>
  <g id="axes_1">
   <g id="line2d_1">
    <path d="M 1257.636748 1371.868297 
L 1255.340905 1371.540585 
L 1253.138416 1371.06427 
L 1251.034339 1370.43824 
L 1249.033353 1369.662054 
L 1247.139704 1368.735935 
L 1245.357144 1367.660749 
L 1243.68889 1366.437982 
L 1242.137566 1365.069724 
L 1240.705168 1363.558632 
L 1239.393022 1361.907906 
L 1238.201754 1360.121256 
L 1237.131261 1358.202864 
L 1236.180693 1356.157351 
L 1235.348441 1353.98974 
L 1234.316492 1350.521251 
L 1233.533973 1346.809702 
L 1232.985834 1342.875897 
L 1232.653373 1338.741655 
L 1232.514466 1334.429522 
L 1232.586292 1328.443058 
L 1232.889706 1322.236104 
L 1233.615312 1312.630981 
L 1234.774959 1297.907102 
L 1235.107597 1291.365851 
L 1235.216435 1284.888656 
L 1235.107636 1280.096815 
L 1234.804605 1275.378941 
L 1234.282372 1270.74954 
L 1233.519036 1266.22215 
L 1232.496045 1261.809412 
L 1231.198411 1257.523158 
L 1229.614869 1253.374505 
L 1227.737975 1249.373959 
L 1226.321808 1246.794168 
L 1224.77347 1244.287516 
L 1223.093595 1241.856799 
L 1221.283547 1239.504755 
L 1219.345404 1237.23408 
L 1217.281933 1235.047435 
L 1213.959407 1231.930782 
L 1210.376932 1229.017927 
L 1206.551573 1226.317592 
L 1202.502954 1223.838419 
L 1198.252898 1221.588936 
L 1193.825025 1219.577507 
L 1189.244337 1217.812251 
L 1184.536771 1216.300927 
L 1179.728752 1215.050805 
L 1174.846731 1214.068506 
L 1169.91673 1213.359819 
L 1164.963895 1212.929506 
L 1160.012071 1212.781089 
L 1155.083403 1212.91663 
L 1150.197977 1213.336505 
L 1145.373497 1214.039181 
L 1140.625029 1215.021011 
L 1135.964793 1216.27603 
L 1131.402027 1217.795797 
L 1126.942924 1219.569247 
L 1122.590641 1221.582603 
L 1118.345383 1223.81932 
L 1114.204568 1226.260082 
L 1110.163062 1228.882863 
L 1106.213481 1231.663031 
L 1101.074144 1235.567635 
L 1094.816851 1240.666389 
L 1075.42612 1256.882001 
L 1070.604637 1260.482807 
L 1066.977112 1262.963406 
L 1063.338855 1265.220985 
L 1059.692139 1267.226939 
L 1056.042211 1268.955295 
L 1052.397283 1270.383065 
L 1048.76843 1271.490548 
L 1045.169395 1272.261562 
L 1042.794486 1272.582322 
L 1040.445265 1272.745145 
L 1038.12739 1272.748021 
L 1035.846811 1272.589691 
L 1033.609712 1272.269644 
L 1031.422443 1271.788101 
L 1029.291454 1271.145991 
L 1027.223222 1270.34493 
L 1025.224187 1269.387186 
L 1023.300675 1268.275645 
L 1021.458839 1267.013768 
L 1019.704586 1265.605544 
L 1018.043514 1264.055446 
L 1016.480858 1262.368374 
L 1015.021432 1260.549606 
L 1013.669579 1258.604738 
L 1012.429127 1256.53963 
L 1011.303352 1254.36035 
L 1010.294948 1252.073111 
L 1009.006799 1248.453642 
L 1007.991656 1244.626861 
L 1007.250661 1240.61395 
L 1006.781725 1236.435515 
L 1006.579599 1232.111251 
L 1006.636022 1227.659654 
L 1006.939911 1223.097782 
L 1007.477616 1218.441077 
L 1008.233201 1213.703235 
L 1009.18876 1208.89615 
L 1010.739925 1202.396163 
L 1012.561898 1195.809896 
L 1015.139992 1187.476743 
L 1018.535188 1177.352894 
L 1027.329707 1151.551684 
L 1030.022524 1142.824844 
L 1031.989917 1135.815395 
L 1033.748066 1128.796012 
L 1035.260285 1121.785159 
L 1036.492843 1114.805937 
L 1037.21511 1109.608743 
L 1037.750817 1104.458024 
L 1038.089047 1099.368157 
L 1038.21987 1094.354478 
L 1038.134376 1089.433022 
L 1037.824705 1084.620237 
L 1037.284094 1079.932656 
L 1036.506912 1075.386562 
L 1035.4887 1070.997628 
L 1034.226202 1066.780566 
L 1032.717395 1062.748789 
L 1030.961499 1058.914096 
L 1028.958988 1055.286388 
L 1026.711581 1051.873434 
L 1024.22222 1048.680688 
L 1021.495041 1045.711166 
L 1018.535328 1042.96539 
L 1015.349464 1040.441399 
L 1011.944867 1038.134838 
L 1008.329929 1036.039105 
L 1004.51395 1034.145582 
L 1000.507072 1032.44391 
L 996.320222 1030.922334 
L 991.965057 1029.568089 
L 987.453916 1028.367816 
L 981.218978 1026.983667 
L 974.762421 1025.818343 
L 968.118647 1024.843764 
L 959.606057 1023.858575 
L 950.932502 1023.10311 
L 942.17697 1022.56356 
L 933.422181 1022.246192 
L 924.753667 1022.177331 
L 917.939364 1022.330551 
L 911.280154 1022.700751 
L 904.819134 1023.322077 
L 900.128156 1023.974898 
L 895.58783 1024.805339 
L 891.212909 1025.828778 
L 887.016522 1027.059732 
L 883.009883 1028.51136 
L 879.202018 1030.195011 
L 875.599516 1032.119812 
L 872.206309 1034.292311 
L 869.023494 1036.716184 
L 866.049211 1039.39202 
L 863.27857 1042.317175 
L 860.703649 1045.485712 
L 858.313549 1048.888413 
L 856.094529 1052.512875 
L 854.030195 1056.34367 
L 852.101766 1060.362571 
L 849.705645 1065.977539 
L 847.459944 1071.834723 
L 844.247142 1080.941351 
L 838.818722 1096.430226 
L 836.45963 1102.541154 
L 833.920492 1108.507305 
L 831.87411 1112.850688 
L 829.690702 1117.055146 
L 827.359486 1121.09862 
L 824.872519 1124.960825 
L 822.224701 1128.623383 
L 819.413707 1132.069926 
L 816.439851 1135.286179 
L 813.305883 1138.260017 
L 810.016738 1140.981507 
L 806.579232 1143.442931 
L 803.001729 1145.638797 
L 799.293789 1147.565832 
L 795.465803 1149.222967 
L 791.528634 1150.611297 
L 787.493269 1151.73404 
L 783.370499 1152.596463 
L 779.170641 1153.2058 
L 774.903286 1153.571143 
L 770.577117 1153.703307 
L 766.199765 1153.614678 
L 761.777726 1153.319021 
L 757.31634 1152.83127 
L 751.313741 1151.909637 
L 745.255683 1150.714062 
L 739.14656 1149.284672 
L 731.441919 1147.229351 
L 722.099675 1144.4644 
L 709.490365 1140.444704 
L 691.945338 1134.573123 
L 677.577834 1129.538765 
L 668.118897 1126.001932 
L 660.387627 1122.877912 
L 654.345448 1120.221061 
L 648.466162 1117.38867 
L 642.783762 1114.347584 
L 638.671638 1111.910608 
L 634.703514 1109.325988 
L 630.893145 1106.582759 
L 627.253792 1103.671665 
L 623.798124 1100.585465 
L 620.538132 1097.319184 
L 617.485073 1093.870321 
L 614.649431 1090.238989 
L 612.040902 1086.428003 
L 609.668389 1082.4429 
L 607.540014 1078.291914 
L 605.663134 1073.985882 
L 604.044363 1069.538113 
L 602.689592 1064.96421 
L 601.603998 1060.281852 
L 600.792049 1055.510556 
L 600.257491 1050.671407 
L 600.003325 1045.786784 
L 600.031767 1040.880077 
L 600.34419 1035.975395 
L 600.941053 1031.097299 
L 601.821823 1026.270522 
L 602.984883 1021.519724 
L 604.427443 1016.869246 
L 606.14545 1012.342897 
L 608.133504 1007.963748 
L 610.384797 1003.753952 
L 612.891057 999.734572 
L 615.642531 995.925435 
L 618.627981 992.344985 
L 621.834731 989.010159 
L 625.248728 985.936263 
L 627.632349 984.03873 
L 630.096476 982.266793 
L 632.636092 980.623632 
L 635.246003 979.112033 
L 637.920877 977.734369 
L 642.043053 975.923154 
L 646.280442 974.422314 
L 650.614243 973.23427 
L 655.025816 972.359054 
L 659.496976 971.794222 
L 664.010279 971.534806 
L 668.549305 971.573267 
L 673.098917 971.899481 
L 677.645495 972.500756 
L 682.177137 973.361878 
L 686.683815 974.465189 
L 691.157491 975.790715 
L 695.592176 977.316321 
L 699.983945 979.017911 
L 705.769864 981.515616 
L 711.477059 984.21506 
L 719.904987 988.492506 
L 736.443566 997.002776 
L 741.922389 999.57803 
L 747.411716 1001.919508 
L 751.544005 1003.489782 
L 755.694596 1004.878319 
L 759.866753 1006.067465 
L 764.06223 1007.042037 
L 768.281135 1007.789373 
L 772.521823 1008.299324 
L 776.780846 1008.56419 
L 781.052949 1008.578604 
L 785.331109 1008.339382 
L 789.606617 1007.845316 
L 793.869206 1007.096951 
L 798.107209 1006.096335 
L 802.307761 1004.846754 
L 806.457016 1003.352473 
L 810.540399 1001.618472 
L 814.542867 999.65021 
L 818.449186 997.453403 
L 822.244213 995.033838 
L 825.913181 992.397226 
L 829.441975 989.549089 
L 832.81741 986.4947 
L 836.027482 983.239063 
L 839.061617 979.786941 
L 841.910895 976.142926 
L 844.568246 972.311547 
L 847.028637 968.297413 
L 849.289216 964.105388 
L 851.349437 959.740775 
L 853.211151 955.209518 
L 854.878665 950.518405 
L 856.358771 945.675262 
L 857.660733 940.689127 
L 858.796244 935.570403 
L 860.075933 928.559954 
L 861.124335 921.367605 
L 862.179885 912.178984 
L 863.207922 900.974025 
L 865.042757 880.458041 
L 865.895017 873.182147 
L 866.942082 866.091023 
L 867.889768 860.925664 
L 869.00187 855.914885 
L 870.299299 851.078338 
L 871.801013 846.434009 
L 873.523768 841.997953 
L 875.48191 837.784065 
L 876.924031 835.104037 
L 878.47888 832.530748 
L 880.148733 830.066506 
L 881.935319 827.71311 
L 883.839809 825.471845 
L 885.862825 823.343481 
L 888.004442 821.328284 
L 890.264201 819.426025 
L 892.64112 817.635994 
L 895.133721 815.957019 
L 897.740041 814.387489 
L 901.857344 812.233871 
L 906.215068 810.31344 
L 910.801384 808.616065 
L 915.602811 807.130163 
L 920.604502 805.842965 
L 925.790522 804.740787 
L 931.144151 803.809293 
L 936.648163 803.033748 
L 944.190607 802.216536 
L 951.928189 801.615009 
L 961.813615 801.114484 
L 971.867284 800.834336 
L 984.058937 800.706968 
L 1002.39851 800.756758 
L 1032.46304 800.852902 
L 1046.070938 800.662797 
L 1057.450138 800.279828 
L 1066.705718 799.761384 
L 1075.735466 799.026872 
L 1082.7853 798.26244 
L 1089.671817 797.32413 
L 1096.387798 796.197568 
L 1102.92702 794.869661 
L 1109.284549 793.32888 
L 1115.457062 791.565548 
L 1121.443166 789.572099 
L 1127.243689 787.343311 
L 1132.861927 784.876519 
L 1138.303803 782.171798 
L 1143.577943 779.232122 
L 1148.695638 776.063511 
L 1153.670696 772.675171 
L 1158.51918 769.079637 
L 1163.259032 765.292917 
L 1169.060659 760.32096 
L 1174.76237 755.128056 
L 1182.652218 747.596449 
L 1198.466455 732.365312 
L 1204.213318 727.162959 
L 1208.865045 723.20281 
L 1213.566554 719.482663 
L 1218.315003 716.0597 
L 1221.90313 713.721885 
L 1225.509433 711.607005 
L 1229.128256 709.737924 
L 1232.752752 708.136395 
L 1236.374936 706.82271 
L 1239.985765 705.815353 
L 1243.575211 705.130662 
L 1245.950939 704.86042 
L 1248.308891 704.743249 
L 1250.645487 704.782006 
L 1252.957016 704.978941 
L 1255.239651 705.335662 
L 1257.489462 705.853117 
L 1259.702431 706.531573 
L 1261.874471 707.370605 
L 1264.001433 708.369091 
L 1266.079131 709.525205 
L 1268.103351 710.836425 
L 1270.069871 712.299543 
L 1271.974475 713.910682 
L 1273.81297 715.665315 
L 1276.437696 718.554897 
L 1278.890606 721.735816 
L 1281.158388 725.185595 
L 1283.228301 728.879442 
L 1285.088324 732.790648 
L 1286.727307 736.89102 
L 1288.135118 741.151347 
L 1289.302799 745.541885 
L 1290.222716 750.032844 
L 1290.888698 754.594884 
L 1291.296173 759.199592 
L 1291.44229 763.819942 
L 1291.326019 768.430722 
L 1290.94823 773.00893 
L 1290.311753 777.534116 
L 1289.421398 781.988677 
L 1288.283953 786.35809 
L 1286.908146 790.631086 
L 1285.304571 794.799757 
L 1283.485583 798.859598 
L 1281.465162 802.809479 
L 1279.25874 806.651557 
L 1276.883016 810.391118 
L 1274.355733 814.036371 
L 1270.782431 818.769123 
L 1267.018224 823.38586 
L 1262.114962 829.051862 
L 1244.929069 848.546392 
L 1241.001535 853.429345 
L 1237.192301 858.501398 
L 1233.531646 863.788047 
L 1230.047409 869.306424 
L 1227.565664 873.602356 
L 1225.208226 878.032891 
L 1222.985315 882.594452 
L 1220.907084 887.280214 
L 1218.983764 892.080164 
L 1217.225791 896.981211 
L 1215.643914 901.967372 
L 1214.249249 907.020013 
L 1213.053304 912.118157 
L 1212.06796 917.23883 
L 1211.305392 922.357475 
L 1210.777955 927.448394 
L 1210.498019 932.485223 
L 1210.477754 937.441441 
L 1210.728893 942.290885 
L 1211.26245 947.008271 
L 1212.088423 951.569718 
L 1212.805874 954.513099 
L 1213.659355 957.371408 
L 1214.650679 960.139224 
L 1215.781259 962.81171 
L 1217.052064 965.38466 
L 1218.463589 967.854543 
L 1220.015825 970.218544 
L 1221.708226 972.474594 
L 1223.539693 974.621398 
L 1225.508549 976.658451 
L 1227.612529 978.586057 
L 1229.84877 980.405324 
L 1232.21381 982.118168 
L 1234.703589 983.7273 
L 1238.661813 985.954372 
L 1242.872003 987.971017 
L 1247.313305 989.795673 
L 1251.962322 991.449971 
L 1256.793369 992.958329 
L 1263.469864 994.788944 
L 1272.094159 996.883625 
L 1293.22212 1001.83237 
L 1300.13461 1003.700032 
L 1306.859771 1005.779674 
L 1311.73945 1007.508993 
L 1316.448174 1009.40338 
L 1320.960595 1011.476865 
L 1325.253243 1013.739868 
L 1329.304647 1016.199121 
L 1333.095423 1018.857667 
L 1336.608345 1021.71496 
L 1338.788416 1023.728414 
L 1340.834364 1025.826541 
L 1342.742728 1028.006791 
L 1344.510488 1030.26608 
L 1346.135066 1032.60084 
L 1347.614334 1035.007075 
L 1348.946603 1037.48042 
L 1350.130637 1040.016207 
L 1351.165642 1042.609522 
L 1352.051276 1045.255277 
L 1352.787647 1047.948269 
L 1353.375317 1050.683249 
L 1353.815304 1053.454979 
L 1354.201736 1057.670221 
L 1354.266251 1061.939739 
L 1354.018149 1066.247749 
L 1353.469107 1070.579837 
L 1352.633184 1074.923227 
L 1351.52681 1079.266974 
L 1350.168758 1083.602084 
L 1348.580085 1087.921547 
L 1346.784047 1092.220297 
L 1344.110829 1097.914387 
L 1341.179496 1103.562825 
L 1337.260164 1110.560685 
L 1323.038568 1135.289505 
L 1320.336918 1140.696726 
L 1318.521408 1144.724782 
L 1316.917331 1148.723211 
L 1315.54997 1152.684596 
L 1314.442013 1156.599869 
L 1313.613279 1160.458461 
L 1313.080491 1164.24852 
L 1312.857093 1167.957197 
L 1312.953125 1171.570995 
L 1313.197992 1173.920684 
L 1313.588897 1176.218027 
L 1314.126237 1178.459054 
L 1314.809727 1180.639937 
L 1315.638424 1182.757049 
L 1316.610736 1184.807015 
L 1317.724451 1186.786769 
L 1318.976763 1188.693592 
L 1320.364301 1190.525167 
L 1321.883165 1192.279606 
L 1324.397968 1194.763659 
L 1327.181594 1197.068361 
L 1330.215419 1199.19359 
L 1333.479224 1201.14184 
L 1336.951561 1202.918162 
L 1340.610132 1204.530006 
L 1344.432165 1205.986989 
L 1348.394787 1207.300572 
L 1353.85799 1208.85145 
L 1359.479277 1210.203775 
L 1366.654802 1211.667548 
L 1375.374034 1213.177066 
L 1386.995285 1214.924791 
L 1404.081648 1217.241531 
L 1416.549502 1218.753339 
L 1426.111292 1219.697632 
L 1434.291084 1220.266469 
L 1441.148545 1220.530027 
L 1448.082972 1220.582201 
L 1455.123735 1220.421224 
L 1463.735987 1219.973422 
L 1474.002407 1219.193962 
L 1493.385172 1217.658049 
L 1500.749699 1217.310098 
L 1506.506143 1217.23215 
L 1512.080367 1217.383997 
L 1516.105063 1217.674797 
L 1519.967215 1218.135209 
L 1523.64109 1218.779055 
L 1527.101758 1219.617756 
L 1530.325628 1220.660197 
L 1533.290975 1221.912685 
L 1535.978419 1223.378966 
L 1537.607334 1224.475997 
L 1539.10114 1225.668479 
L 1540.456348 1226.955797 
L 1541.670166 1228.336938 
L 1542.740526 1229.810533 
L 1543.6661 1231.37489 
L 1544.446311 1233.028031 
L 1545.081334 1234.767735 
L 1545.572084 1236.591573 
L 1545.920205 1238.496948 
L 1546.180267 1241.501891 
L 1546.135525 1244.674519 
L 1545.799711 1248.004934 
L 1545.1892 1251.483119 
L 1544.322547 1255.099058 
L 1543.219966 1258.842802 
L 1541.4198 1264.016208 
L 1539.289944 1269.375903 
L 1536.2416 1276.301275 
L 1532.850631 1283.431875 
L 1528.440644 1292.183594 
L 1522.954008 1302.525715 
L 1518.026486 1311.355632 
L 1513.775439 1318.573128 
L 1509.38213 1325.555722 
L 1505.749177 1330.899669 
L 1501.993445 1335.965642 
L 1499.085154 1339.547603 
L 1496.089842 1342.916307 
L 1493.000177 1346.048654 
L 1489.809595 1348.923029 
L 1486.512609 1351.519804 
L 1483.105076 1353.821824 
L 1479.584399 1355.814877 
L 1477.1739 1356.966422 
L 1474.712832 1357.973441 
L 1472.201707 1358.834406 
L 1469.641382 1359.548605 
L 1467.033053 1360.116166 
L 1464.378236 1360.538082 
L 1460.312917 1360.9022 
L 1456.15449 1360.953048 
L 1451.911492 1360.705058 
L 1447.593439 1360.176939 
L 1443.210564 1359.391454 
L 1438.773539 1358.375106 
L 1434.293192 1357.157738 
L 1428.270476 1355.278784 
L 1420.69723 1352.637808 
L 1398.042887 1344.444374 
L 1392.08017 1342.605164 
L 1387.637056 1341.415075 
L 1383.218506 1340.417108 
L 1378.823014 1339.634015 
L 1374.448 1339.084362 
L 1370.089954 1338.782245 
L 1365.744608 1338.737091 
L 1361.407128 1338.95354 
L 1357.072318 1339.43141 
L 1352.734849 1340.165752 
L 1348.389481 1341.146978 
L 1344.031308 1342.361063 
L 1339.655995 1343.789824 
L 1333.78963 1345.990235 
L 1327.881248 1348.471312 
L 1320.435278 1351.859393 
L 1296.348624 1363.081116 
L 1290.367715 1365.542162 
L 1284.464516 1367.705469 
L 1280.112143 1369.089587 
L 1275.844553 1370.239021 
L 1271.681289 1371.129412 
L 1267.642559 1371.739424 
L 1263.748861 1372.05094 
L 1260.020567 1372.049206 
L 1258.818007 1371.976963 
L 1258.818007 1371.976963 
" clip-path="url(#p490248e07d)" style="fill: none; stroke: #4169e1; stroke-width: 3; stroke-linecap: square"/>
   </g>
   <g id="line2d_2">
    <path d="M 1221.772035 1464.760632 
L 1220.022803 1464.330514 
L 1218.344699 1463.705358 
L 1216.741576 1462.883701 
L 1215.217 1461.864968 
L 1213.774204 1460.64945 
L 1212.41605 1459.238281 
L 1211.144986 1457.633417 
L 1209.963013 1455.837597 
L 1208.871651 1453.854308 
L 1207.87191 1451.687753 
L 1206.964268 1449.342798 
L 1205.775163 1445.503037 
L 1204.790293 1441.295267 
L 1204.004038 1436.742921 
L 1203.407827 1431.871564 
L 1202.990193 1426.708498 
L 1202.736887 1421.282361 
L 1202.625283 1413.689527 
L 1202.729159 1405.753276 
L 1203.081202 1395.459635 
L 1204.645734 1356.966956 
L 1204.677264 1348.49506 
L 1204.470562 1340.171712 
L 1204.130311 1334.054944 
L 1203.61165 1328.066277 
L 1202.899571 1322.222684 
L 1201.981734 1316.540032 
L 1200.848601 1311.033212 
L 1199.493523 1305.716265 
L 1197.912787 1300.602524 
L 1196.105606 1295.704752 
L 1194.074073 1291.035267 
L 1191.82307 1286.606063 
L 1189.360131 1282.4289 
L 1186.695277 1278.515379 
L 1183.840802 1274.876983 
L 1180.81104 1271.525093 
L 1177.622089 1268.470956 
L 1174.291526 1265.725633 
L 1170.838085 1263.2999 
L 1168.477162 1261.865433 
L 1166.076242 1260.580556 
L 1163.641305 1259.448063 
L 1161.178336 1258.47058 
L 1158.693279 1257.650534 
L 1156.191987 1256.990121 
L 1153.680185 1256.491271 
L 1151.163421 1256.155611 
L 1148.647026 1255.984429 
L 1146.136075 1255.978632 
L 1143.63535 1256.138712 
L 1141.149305 1256.464703 
L 1138.682036 1256.956145 
L 1136.237251 1257.612045 
L 1133.81825 1258.430846 
L 1131.427904 1259.410387 
L 1129.06864 1260.54788 
L 1126.74243 1261.839877 
L 1123.318275 1264.058352 
L 1119.974961 1266.59813 
L 1116.713381 1269.438709 
L 1113.53226 1272.555947 
L 1110.428309 1275.922107 
L 1107.396447 1279.505978 
L 1103.45449 1284.563083 
L 1099.609894 1289.85565 
L 1093.978723 1298.020068 
L 1085.69366 1310.065357 
L 1082.026071 1315.060697 
L 1078.349552 1319.684008 
L 1075.582916 1322.846554 
L 1072.80843 1325.703523 
L 1070.028579 1328.218465 
L 1067.248117 1330.358551 
L 1065.397503 1331.562633 
L 1063.552289 1332.579788 
L 1061.715487 1333.403484 
L 1059.890483 1334.028136 
L 1058.08101 1334.449128 
L 1056.29111 1334.662832 
L 1054.525091 1334.666605 
L 1052.787489 1334.4588 
L 1051.083016 1334.038743 
L 1049.416508 1333.406724 
L 1047.792881 1332.563963 
L 1046.217069 1331.512581 
L 1044.693978 1330.255556 
L 1043.228431 1328.796673 
L 1041.825113 1327.140476 
L 1040.488525 1325.292202 
L 1039.222933 1323.257718 
L 1038.032326 1321.043459 
L 1036.394937 1317.400258 
L 1034.945261 1313.393312 
L 1033.692073 1309.049247 
L 1032.641902 1304.395682 
L 1031.798897 1299.460668 
L 1031.164754 1294.272155 
L 1030.738697 1288.857492 
L 1030.517522 1283.242971 
L 1030.495683 1277.453431 
L 1030.665434 1271.51192 
L 1031.017004 1265.439433 
L 1031.748333 1257.171121 
L 1032.750384 1248.740966 
L 1033.987475 1240.179433 
L 1035.805433 1229.327699 
L 1038.280558 1216.126107 
L 1043.660223 1189.24398 
L 1046.721689 1173.312531 
L 1048.73797 1161.84656 
L 1050.54038 1150.338214 
L 1051.7896 1141.127559 
L 1052.838312 1131.942496 
L 1053.661941 1122.816365 
L 1054.238176 1113.788253 
L 1054.547013 1104.902276 
L 1054.570826 1096.206481 
L 1054.392433 1089.839808 
L 1054.039707 1083.630245 
L 1053.508066 1077.599324 
L 1052.793814 1071.767932 
L 1051.89416 1066.155852 
L 1050.807249 1060.781305 
L 1049.53217 1055.660525 
L 1048.068966 1050.807375 
L 1046.418632 1046.233016 
L 1044.5831 1041.94564 
L 1042.565221 1037.950285 
L 1040.368736 1034.248729 
L 1037.998232 1030.839478 
L 1035.459103 1027.717845 
L 1032.757503 1024.876121 
L 1029.900291 1022.303838 
L 1026.894987 1019.988116 
L 1023.749721 1017.914084 
L 1020.473193 1016.06537 
L 1017.074635 1014.424638 
L 1013.563784 1012.974165 
L 1009.950854 1011.696434 
L 1004.993348 1010.232806 
L 999.899973 1009.011174 
L 994.6987 1008.002563 
L 989.418873 1007.186454 
L 984.091157 1006.552204 
L 978.747426 1006.099904 
L 973.420574 1005.840615 
L 968.144224 1005.795954 
L 962.952321 1005.997052 
L 959.134123 1006.332392 
L 955.396347 1006.846515 
L 951.752466 1007.559395 
L 948.215295 1008.491635 
L 944.79678 1009.663813 
L 941.507771 1011.095808 
L 938.35781 1012.806148 
L 936.33911 1014.109281 
L 934.387759 1015.547819 
L 932.505343 1017.125477 
L 930.693059 1018.845326 
L 928.951691 1020.709742 
L 927.2816 1022.720353 
L 924.909806 1026.012007 
L 922.69591 1029.63368 
L 920.635415 1033.580465 
L 918.721521 1037.843127 
L 916.94519 1042.408156 
L 915.295258 1047.257921 
L 913.758606 1052.370913 
L 911.860036 1059.553906 
L 910.097043 1067.091953 
L 907.612931 1078.896654 
L 902.230966 1105.270329 
L 899.923738 1115.216428 
L 897.908976 1122.922068 
L 895.714555 1130.321806 
L 893.938372 1135.628812 
L 892.043521 1140.697904 
L 890.026114 1145.504962 
L 887.884383 1150.028503 
L 885.618564 1154.249792 
L 883.230755 1158.152914 
L 880.724714 1161.724833 
L 878.105635 1164.955419 
L 875.37989 1167.837463 
L 872.554764 1170.366671 
L 869.638174 1172.541638 
L 867.647047 1173.795411 
L 865.621431 1174.893442 
L 863.563799 1175.837388 
L 861.476577 1176.629429 
L 858.295388 1177.538691 
L 855.060407 1178.123475 
L 851.778494 1178.397244 
L 848.45574 1178.375592 
L 845.097386 1178.076011 
L 841.707795 1177.517625 
L 838.290456 1176.720883 
L 834.848033 1175.707218 
L 830.222352 1174.05638 
L 825.558339 1172.111796 
L 820.85757 1169.925045 
L 814.931372 1166.92478 
L 807.749589 1163.042514 
L 796.8557 1156.86491 
L 785.889703 1150.41684 
L 777.402993 1145.186162 
L 771.422799 1141.263857 
L 766.72041 1137.964108 
L 762.116798 1134.477028 
L 757.637297 1130.759553 
L 754.374693 1127.794025 
L 751.207421 1124.6566 
L 748.146305 1121.330612 
L 745.201929 1117.801021 
L 742.384531 1114.054884 
L 739.703922 1110.081775 
L 737.169415 1105.874139 
L 734.789779 1101.427587 
L 732.5732 1096.741109 
L 730.527265 1091.817208 
L 728.65896 1086.661962 
L 726.974669 1081.285007 
L 725.48019 1075.699445 
L 724.18075 1069.921685 
L 723.08102 1063.971232 
L 722.185124 1057.870415 
L 721.496648 1051.644083 
L 721.018629 1045.319263 
L 720.753548 1038.924803 
L 720.703295 1032.491 
L 720.869137 1026.049226 
L 721.251661 1019.631557 
L 721.850721 1013.270418 
L 722.665369 1006.998242 
L 723.693783 1000.84715 
L 724.933203 994.848655 
L 726.379865 989.033387 
L 728.028943 983.430849 
L 729.87451 978.069185 
L 731.909511 972.974981 
L 734.12576 968.173067 
L 736.513958 963.686353 
L 739.063742 959.535657 
L 741.763752 955.739554 
L 743.641202 953.413911 
L 745.576167 951.257284 
L 747.564691 949.27333 
L 749.602711 947.465166 
L 751.686076 945.835352 
L 753.810576 944.385876 
L 755.971969 943.118137 
L 758.166007 942.032926 
L 760.388467 941.130414 
L 762.63518 940.410136 
L 764.902058 939.870984 
L 767.185128 939.511189 
L 769.480555 939.328323 
L 771.784672 939.319286 
L 774.094006 939.480309 
L 776.405302 939.806953 
L 778.715544 940.294117 
L 782.172974 941.313065 
L 785.613766 942.657956 
L 789.031282 944.303566 
L 792.420436 946.221761 
L 795.777716 948.381743 
L 799.101162 950.750343 
L 803.479194 954.171921 
L 808.870704 958.748154 
L 818.394732 967.28206 
L 824.668388 972.75469 
L 828.842772 976.134676 
L 833.02516 979.207834 
L 836.173602 981.268798 
L 839.33599 983.091234 
L 842.514809 984.651971 
L 845.711396 985.931084 
L 848.925833 986.911953 
L 852.156866 987.581257 
L 855.401869 987.928889 
L 858.656839 987.947808 
L 861.916423 987.633833 
L 865.173986 986.985378 
L 868.421706 986.003159 
L 871.650694 984.689863 
L 874.851147 983.049806 
L 878.012517 981.088581 
L 881.123698 978.812729 
L 884.173229 976.229411 
L 887.149502 973.346131 
L 890.040981 970.170485 
L 892.836414 966.709967 
L 895.525047 962.971825 
L 898.096833 958.962981 
L 900.542627 954.690002 
L 902.854373 950.159139 
L 905.025274 945.376418 
L 907.049943 940.347784 
L 908.924546 935.079288 
L 910.64691 929.577312 
L 912.216618 923.848815 
L 913.635081 917.901602 
L 914.905581 911.74458 
L 916.033293 905.388019 
L 917.327259 896.622972 
L 918.401964 887.557632 
L 919.284795 878.231397 
L 920.168504 866.277351 
L 921.004678 851.637217 
L 922.958675 814.990656 
L 923.881061 803.234963 
L 924.818904 794.155314 
L 925.979303 785.436144 
L 927.018187 779.169832 
L 928.217169 773.163124 
L 929.588419 767.43618 
L 931.142227 762.006232 
L 932.886882 756.88737 
L 934.828592 752.090379 
L 936.971442 747.622655 
L 938.512803 744.829206 
L 940.144528 742.184288 
L 941.866266 739.687598 
L 943.677271 737.338207 
L 945.576415 735.134574 
L 947.562203 733.074587 
L 949.632795 731.15559 
L 951.786027 729.374421 
L 954.019433 727.727453 
L 957.513804 725.499671 
L 961.172073 723.549445 
L 964.982923 721.860015 
L 968.934218 720.413422 
L 973.013215 719.190848 
L 977.206791 718.172956 
L 981.501647 717.340196 
L 987.362748 716.484196 
L 993.349486 715.877484 
L 999.432301 715.476618 
L 1007.128838 715.20272 
L 1016.436678 715.11031 
L 1031.939006 715.238317 
L 1048.708454 715.323312 
L 1057.641175 715.164694 
L 1064.939277 714.848417 
L 1072.0879 714.317603 
L 1077.689445 713.709252 
L 1083.179158 712.913986 
L 1088.550515 711.910678 
L 1093.797439 710.679159 
L 1098.91443 709.200562 
L 1102.664017 707.919057 
L 1106.33618 706.482353 
L 1109.92964 704.884682 
L 1113.443542 703.121098 
L 1116.877519 701.187562 
L 1120.231739 699.081006 
L 1123.506952 696.799406 
L 1126.704528 694.341838 
L 1129.826476 691.708535 
L 1132.875462 688.900934 
L 1135.854799 685.921723 
L 1139.725809 681.689566 
L 1143.49105 677.172714 
L 1147.163148 672.388738 
L 1150.756081 667.359826 
L 1155.158753 660.770886 
L 1160.352177 652.506126 
L 1168.065262 639.667895 
L 1175.820028 626.820188 
L 1180.187884 619.933514 
L 1184.61226 613.395925 
L 1188.194399 608.513283 
L 1191.812302 604.020691 
L 1194.546141 600.952339 
L 1197.293829 598.176588 
L 1200.051056 595.723445 
L 1202.812604 593.62146 
L 1205.572392 591.897266 
L 1207.407901 590.969779 
L 1209.237351 590.227549 
L 1211.058373 589.676475 
L 1212.86847 589.321787 
L 1214.665023 589.168001 
L 1216.445305 589.218869 
L 1218.206488 589.477343 
L 1219.945656 589.945535 
L 1221.659815 590.624687 
L 1223.345905 591.515152 
L 1225.000809 592.616371 
L 1226.621368 593.92687 
L 1228.204392 595.444253 
L 1229.746671 597.165212 
L 1231.244987 599.085535 
L 1232.696129 601.200133 
L 1234.77741 604.723077 
L 1236.734735 608.646143 
L 1238.557729 612.942119 
L 1240.236381 617.580437 
L 1241.761155 622.527659 
L 1243.123101 627.748013 
L 1244.313967 633.203984 
L 1245.326321 638.856926 
L 1246.153661 644.66771 
L 1246.790529 650.597363 
L 1247.23262 656.607712 
L 1247.476878 662.662007 
L 1247.521584 668.72551 
L 1247.366431 674.766044 
L 1247.012576 680.754489 
L 1246.462676 686.66521 
L 1245.720901 692.47642 
L 1244.79292 698.170461 
L 1243.685864 703.734002 
L 1242.408262 709.15815 
L 1240.969953 714.438478 
L 1239.381972 719.574958 
L 1237.656418 724.571816 
L 1235.164264 731.031908 
L 1232.483538 737.288572 
L 1229.64861 743.381641 
L 1225.94169 750.841763 
L 1211.334676 779.488821 
L 1208.362495 785.955999 
L 1205.486408 792.68068 
L 1202.728989 799.693722 
L 1200.111042 807.014656 
L 1197.65205 814.650553 
L 1195.370672 822.595307 
L 1193.285271 830.829378 
L 1191.414394 839.320025 
L 1189.777166 848.022003 
L 1188.393553 856.878746 
L 1187.284452 865.823982 
L 1186.645822 872.546708 
L 1186.183195 879.244416 
L 1185.906009 885.882721 
L 1185.823606 892.42681 
L 1185.94506 898.842111 
L 1186.278968 905.094979 
L 1186.833233 911.153381 
L 1187.614827 916.987562 
L 1188.629553 922.570675 
L 1189.88181 927.879376 
L 1191.374371 932.894346 
L 1193.10818 937.600747 
L 1194.397642 940.561782 
L 1195.79306 943.379432 
L 1197.293156 946.053038 
L 1198.896204 948.582994 
L 1200.600025 950.970758 
L 1202.401978 953.218843 
L 1204.298972 955.330806 
L 1206.287463 957.311226 
L 1209.432932 960.047639 
L 1212.760009 962.523512 
L 1216.251493 964.765894 
L 1219.888371 966.805679 
L 1223.650041 968.677021 
L 1228.821629 970.973925 
L 1236.800955 974.18278 
L 1246.215184 977.948493 
L 1251.532799 980.2889 
L 1255.448156 982.198265 
L 1259.275675 984.274251 
L 1262.993565 986.543959 
L 1266.5812 989.030315 
L 1270.019271 991.751736 
L 1273.289893 994.721898 
L 1276.376709 997.949634 
L 1279.264949 1001.43894 
L 1281.941489 1005.189098 
L 1284.394875 1009.194911 
L 1286.615352 1013.447041 
L 1288.59487 1017.932432 
L 1290.32709 1022.634819 
L 1291.807392 1027.535297 
L 1293.032876 1032.612929 
L 1294.002374 1037.845384 
L 1294.716455 1043.209586 
L 1295.177445 1048.682339 
L 1295.389439 1054.240929 
L 1295.358322 1059.863675 
L 1295.091782 1065.530416 
L 1294.599321 1071.222916 
L 1293.892254 1076.925185 
L 1292.983698 1082.6237 
L 1291.888544 1088.307522 
L 1290.16702 1095.849049 
L 1288.187368 1103.337018 
L 1285.998222 1110.765577 
L 1283.047937 1119.967959 
L 1278.096106 1134.520765 
L 1273.27747 1148.901905 
L 1270.545446 1157.808734 
L 1268.605015 1164.87948 
L 1266.938657 1171.885716 
L 1265.896847 1177.084979 
L 1265.052681 1182.223723 
L 1264.421258 1187.288073 
L 1264.01532 1192.262474 
L 1263.845111 1197.130063 
L 1263.918279 1201.873123 
L 1264.239824 1206.473592 
L 1264.812087 1210.913608 
L 1265.63478 1215.176076 
L 1266.705059 1219.245222 
L 1268.017639 1223.107129 
L 1269.564947 1226.750218 
L 1271.3373 1230.165662 
L 1273.323123 1233.347713 
L 1275.509188 1236.293933 
L 1277.88087 1239.005307 
L 1280.422419 1241.486244 
L 1283.117246 1243.74445 
L 1285.948209 1245.790691 
L 1288.897901 1247.638447 
L 1291.948934 1249.303461 
L 1295.08421 1250.803218 
L 1299.367139 1252.578127 
L 1303.733604 1254.137777 
L 1309.258533 1255.851837 
L 1315.914062 1257.664598 
L 1325.805569 1260.087442 
L 1337.597221 1262.737845 
L 1344.936973 1264.187086 
L 1351.172817 1265.18577 
L 1356.367197 1265.785277 
L 1361.591983 1266.131193 
L 1365.812845 1266.208633 
L 1370.083274 1266.105579 
L 1375.503317 1265.735983 
L 1381.019453 1265.137534 
L 1390.019533 1263.881615 
L 1400.258655 1262.486673 
L 1405.889895 1261.970571 
L 1410.303534 1261.802428 
L 1413.532499 1261.861028 
L 1416.670524 1262.105802 
L 1419.697908 1262.559477 
L 1422.594871 1263.242149 
L 1425.341962 1264.170932 
L 1427.920484 1265.359722 
L 1429.537125 1266.30204 
L 1431.066186 1267.366952 
L 1432.50319 1268.556078 
L 1433.844058 1269.870387 
L 1435.085148 1271.310226 
L 1436.223298 1272.875342 
L 1437.255848 1274.564929 
L 1438.180671 1276.377658 
L 1438.996192 1278.311732 
L 1440.012474 1281.435401 
L 1440.779683 1284.817993 
L 1441.299695 1288.448988 
L 1441.577182 1292.316746 
L 1441.619451 1296.408846 
L 1441.43622 1300.712397 
L 1441.039332 1305.214282 
L 1440.442413 1309.901342 
L 1439.361483 1316.416194 
L 1437.989914 1323.206219 
L 1435.926809 1332.033955 
L 1433.546622 1341.182555 
L 1430.36848 1352.492511 
L 1426.338766 1365.983213 
L 1422.061528 1379.562431 
L 1418.23518 1391.051605 
L 1414.932934 1400.356131 
L 1411.512263 1409.267601 
L 1408.675381 1416.015028 
L 1405.734615 1422.340157 
L 1403.452449 1426.761535 
L 1401.098394 1430.872699 
L 1398.667449 1434.645278 
L 1396.155434 1438.053509 
L 1393.559192 1441.074879 
L 1391.780542 1442.864816 
L 1389.963279 1444.469973 
L 1388.107393 1445.886832 
L 1386.21314 1447.112869 
L 1384.281041 1448.146609 
L 1382.31188 1448.987663 
L 1380.306692 1449.636767 
L 1378.266752 1450.095795 
L 1376.193559 1450.367778 
L 1374.088818 1450.456903 
L 1371.954418 1450.368501 
L 1369.792407 1450.109031 
L 1367.60497 1449.686045 
L 1364.281174 1448.764071 
L 1360.913386 1447.526981 
L 1357.50984 1446.012549 
L 1354.078752 1444.262533 
L 1349.47488 1441.641 
L 1343.69792 1438.061687 
L 1331.032817 1430.089619 
L 1326.473568 1427.517534 
L 1323.075635 1425.806544 
L 1319.696682 1424.324983 
L 1316.336159 1423.106115 
L 1312.992635 1422.17802 
L 1309.663895 1421.563147 
L 1306.347056 1421.277976 
L 1304.140774 1421.276371 
L 1301.937161 1421.427496 
L 1299.735052 1421.731592 
L 1296.432082 1422.472023 
L 1293.125738 1423.54554 
L 1289.812093 1424.937584 
L 1286.487534 1426.627883 
L 1283.148942 1428.590846 
L 1279.793874 1430.796025 
L 1275.292203 1434.052404 
L 1269.619025 1438.499215 
L 1251.267101 1453.227575 
L 1246.71017 1456.457665 
L 1243.329712 1458.629038 
L 1239.995235 1460.540605 
L 1236.720551 1462.155634 
L 1233.52032 1463.440904 
L 1230.409802 1464.367056 
L 1228.393653 1464.772354 
L 1226.42893 1465.000348 
L 1224.520227 1465.045522 
L 1222.672051 1464.903254 
L 1222.672051 1464.903254 
" clip-path="url(#p490248e07d)" style="fill: none; stroke: #ff8c00; stroke-width: 3; stroke-linecap: square"/>
   </g>
  </g>
 </g>
 <defs>
  <clipPath id="p490248e07d">
   <rect x="270" y="259.2" width="1674" height="1630.8"/>
  </clipPath>
 </defs>
</svg>
