<?xml version="1.0" encoding="utf-8" standalone="no"?>
<!DOCTYPE svg PUBLIC "-//W3C//DTD SVG 1.1//EN"
  "http://www.w3.org/Graphics/SVG/1.1/DTD/svg11.dtd">
<svg xmlns:xlink="http://www.w3.org/1999/xlink" width="2160pt" height="2160pt" viewBox="0 0 2160 2160" xmlns="http://www.w3.org/2000/svg" version="1.1">
 <metadata>
  <rdf:RDF xmlns:dc="http://purl.org/dc/elements/1.1/" xmlns:cc="http://creativecommons.org/ns#" xmlns:rdf="http://www.w3.org/1999/02/22-rdf-syntax-ns#">
   <cc:Work>
    <dc:type rdf:resource="http://purl.org/dc/dcmitype/StillImage"/>
    <dc:date>2022-03-06T19:21:05.430836</dc:date>
    <dc:format>image/svg+xml</dc:format>
    <dc:creator>
     <cc:Agent>
      <dc:title>Matplotlib v3.5.1, https://matplotlib.org/</dc:title>
     </cc:Agent>
    </dc:creator>
   </cc:Work>
  </rdf:RDF>
 </metadata>
 <defs>
  <style type="text/css">*{stroke-linejoin: round; stroke-linecap: butt}</style>
 </defs>
 <g id="figure_1">
  <g id="patch_1">
   <path d="M 0 2160 
L 2160 2160 
L 2160 0 
L 0 0 
L 0 2160 
z
" style="fill: none"/>
  </g>
  <g id="axes_1">
   <g id="line2d_1">
    <path d="M 1257.636748 1371.868297 
L 1255.340905 1371.540585 
L 1253.138416 1371.06427 
L 1251.034339 1370.43824 
L 1249.033353 1369.662054 
L 1247.139704 1368.735935 
L 1245.357144 1367.660749 
L 1243.68889 1366.437982 
L 1242.137566 1365.069724 
L 1240.705168 1363.558632 
L 1239.393022 1361.907906 
L 1238.201754 1360.121256 
L 1237.131261 1358.202864 
L 1236.180693 1356.157351 
L 1235.348441 1353.98974 
L 1234.316492 1350.521251 
L 1233.533973 1346.809702 
L 1232.985834 1342.875897 
L 1232.653373 1338.741655 
L 1232.514466 1334.429522 
L 1232.586292 1328.443058 
L 1232.889706 1322.236104 
L 1233.615312 1312.630981 
L 1234.774959 1297.907102 
L 1235.107597 1291.365851 
L 1235.216435 1284.888656 
L 1235.107636 1280.096815 
L 1234.804605 1275.378941 
L 1234.282372 1270.74954 
L 1233.519036 1266.22215 
L 1232.496045 1261.809412 
L 1231.198411 1257.523158 
L 1229.614869 1253.374505 
L 1227.737975 1249.373959 
L 1226.321808 1246.794168 
L 1224.77347 1244.287516 
L 1223.093595 1241.856799 
L 1221.283547 1239.504755 
L 1219.345404 1237.23408 
L 1217.281933 1235.047435 
L 1213.959407 1231.930782 
L 1210.376932 1229.017927 
L 1206.551573 1226.317592 
L 1202.502954 1223.838419 
L 1198.252898 1221.588936 
L 1193.825025 1219.577507 
L 1189.244337 1217.812251 
L 1184.536771 1216.300927 
L 1179.728752 1215.050805 
L 1174.846731 1214.068506 
L 1169.91673 1213.359819 
L 1164.963895 1212.929506 
L 1160.012071 1212.781089 
L 1155.083403 1212.91663 
L 1150.197977 1213.336505 
L 1145.373497 1214.039181 
L 1140.625029 1215.021011 
L 1135.964793 1216.27603 
L 1131.402027 1217.795797 
L 1126.942924 1219.569247 
L 1122.590641 1221.582603 
L 1118.345383 1223.81932 
L 1114.204568 1226.260082 
L 1110.163062 1228.882863 
L 1106.213481 1231.663031 
L 1101.074144 1235.567635 
L 1094.816851 1240.666389 
L 1075.42612 1256.882001 
L 1070.604637 1260.482807 
L 1066.977112 1262.963406 
L 1063.338855 1265.220985 
L 1059.692139 1267.226939 
L 1056.042211 1268.955295 
L 1052.397283 1270.383065 
L 1048.76843 1271.490548 
L 1045.169395 1272.261562 
L 1042.794486 1272.582322 
L 1040.445265 1272.745145 
L 1038.12739 1272.748021 
L 1035.846811 1272.589691 
L 1033.609712 1272.269644 
L 1031.422443 1271.788101 
L 1029.291454 1271.145991 
L 1027.223222 1270.34493 
L 1025.224187 1269.387186 
L 1023.300675 1268.275645 
L 1021.458839 1267.013768 
L 1019.704586 1265.605544 
L 1018.043514 1264.055446 
L 1016.480858 1262.368374 
L 1015.021432 1260.549606 
L 1013.669579 1258.604738 
L 1012.429127 1256.53963 
L 1011.303352 1254.36035 
L 1010.294948 1252.073111 
L 1009.006799 1248.453642 
L 1007.991656 1244.626861 
L 1007.250661 1240.61395 
L 1006.781725 1236.435515 
L 1006.579599 1232.111251 
L 1006.636022 1227.659654 
L 1006.939911 1223.097782 
L 1007.477616 1218.441077 
L 1008.233201 1213.703235 
L 1009.18876 1208.89615 
L 1010.739925 1202.396163 
L 1012.561898 1195.809896 
L 1015.139992 1187.476743 
L 1018.535188 1177.352894 
L 1027.329707 1151.551684 
L 1030.022524 1142.824844 
L 1031.989917 1135.815395 
L 1033.748066 1128.796012 
L 1035.260285 1121.785159 
L 1036.492843 1114.805937 
L 1037.21511 1109.608743 
L 1037.750817 1104.458024 
L 1038.089047 1099.368157 
L 1038.21987 1094.354478 
L 1038.134376 1089.433022 
L 1037.824705 1084.620237 
L 1037.284094 1079.932656 
L 1036.506912 1075.386562 
L 1035.4887 1070.997628 
L 1034.226202 1066.780566 
L 1032.717395 1062.748789 
L 1030.961499 1058.914096 
L 1028.958988 1055.286388 
L 1026.711581 1051.873434 
L 1024.22222 1048.680688 
L 1021.495041 1045.711166 
L 1018.535328 1042.96539 
L 1015.349464 1040.441399 
L 1011.944867 1038.134838 
L 1008.329929 1036.039105 
L 1004.51395 1034.145582 
L 1000.507072 1032.44391 
L 996.320222 1030.922334 
L 991.965057 1029.568089 
L 987.453916 1028.367816 
L 981.218978 1026.983667 
L 974.762421 1025.818343 
L 968.118647 1024.843764 
L 959.606057 1023.858575 
L 950.932502 1023.10311 
L 942.17697 1022.56356 
L 933.422181 1022.246192 
L 924.753667 1022.177331 
L 917.939364 1022.330551 
L 911.280154 1022.700751 
L 904.819134 1023.322077 
L 900.128156 1023.974898 
L 895.58783 1024.805339 
L 891.212909 1025.828778 
L 887.016522 1027.059732 
L 883.009883 1028.51136 
L 879.202018 1030.195011 
L 875.599516 1032.119812 
L 872.206309 1034.292311 
L 869.023494 1036.716184 
L 866.049211 1039.39202 
L 863.27857 1042.317175 
L 860.703649 1045.485712 
L 858.313549 1048.888413 
L 856.094529 1052.512875 
L 854.030195 1056.34367 
L 852.101766 1060.362571 
L 849.705645 1065.977539 
L 847.459944 1071.834723 
L 844.247142 1080.941351 
L 838.818722 1096.430226 
L 836.45963 1102.541154 
L 833.920492 1108.507305 
L 831.87411 1112.850688 
L 829.690702 1117.055146 
L 827.359486 1121.09862 
L 824.872519 1124.960825 
L 822.224701 1128.623383 
L 819.413707 1132.069926 
L 816.439851 1135.286179 
L 813.305883 1138.260017 
L 810.016738 1140.981507 
L 806.579232 1143.442931 
L 803.001729 1145.638797 
L 799.293789 1147.565832 
L 795.465803 1149.222967 
L 791.528634 1150.611297 
L 787.493269 1151.73404 
L 783.370499 1152.596463 
L 779.170641 1153.2058 
L 774.903286 1153.571143 
L 770.577117 1153.703307 
L 766.199765 1153.614678 
L 761.777726 1153.319021 
L 757.31634 1152.83127 
L 751.313741 1151.909637 
L 745.255683 1150.714062 
L 739.14656 1149.284672 
L 731.441919 1147.229351 
L 722.099675 1144.4644 
L 709.490365 1140.444704 
L 691.945338 1134.573123 
L 677.577834 1129.538765 
L 668.118897 1126.001932 
L 660.387627 1122.877912 
L 654.345448 1120.221061 
L 648.466162 1117.38867 
L 642.783762 1114.347584 
L 638.671638 1111.910608 
L 634.703514 1109.325988 
L 630.893145 1106.582759 
L 627.253792 1103.671665 
L 623.798124 1100.585465 
L 620.538132 1097.319184 
L 617.485073 1093.870321 
L 614.649431 1090.238989 
L 612.040902 1086.428003 
L 609.668389 1082.4429 
L 607.540014 1078.291914 
L 605.663134 1073.985882 
L 604.044363 1069.538113 
L 602.689592 1064.96421 
L 601.603998 1060.281852 
L 600.792049 1055.510556 
L 600.257491 1050.671407 
L 600.003325 1045.786784 
L 600.031767 1040.880077 
L 600.34419 1035.975395 
L 600.941053 1031.097299 
L 601.821823 1026.270522 
L 602.984883 1021.519724 
L 604.427443 1016.869246 
L 606.14545 1012.342897 
L 608.133504 1007.963748 
L 610.384797 1003.753952 
L 612.891057 999.734572 
L 615.642531 995.925435 
L 618.627981 992.344985 
L 621.834731 989.010159 
L 625.248728 985.936263 
L 627.632349 984.03873 
L 630.096476 982.266793 
L 632.636092 980.623632 
L 635.246003 979.112033 
L 637.920877 977.734369 
L 642.043053 975.923154 
L 646.280442 974.422314 
L 650.614243 973.23427 
L 655.025816 972.359054 
L 659.496976 971.794222 
L 664.010279 971.534806 
L 668.549305 971.573267 
L 673.098917 971.899481 
L 677.645495 972.500756 
L 682.177137 973.361878 
L 686.683815 974.465189 
L 691.157491 975.790715 
L 695.592176 977.316321 
L 699.983945 979.017911 
L 705.769864 981.515616 
L 711.477059 984.21506 
L 719.904987 988.492506 
L 736.443566 997.002776 
L 741.922389 999.57803 
L 747.411716 1001.919508 
L 751.544005 1003.489782 
L 755.694596 1004.878319 
L 759.866753 1006.067465 
L 764.06223 1007.042037 
L 768.281135 1007.789373 
L 772.521823 1008.299324 
L 776.780846 1008.56419 
L 781.052949 1008.578604 
L 785.331109 1008.339382 
L 789.606617 1007.845316 
L 793.869206 1007.096951 
L 798.107209 1006.096335 
L 802.307761 1004.846754 
L 806.457016 1003.352473 
L 810.540399 1001.618472 
L 814.542867 999.65021 
L 818.449186 997.453403 
L 822.244213 995.033838 
L 825.913181 992.397226 
L 829.441975 989.549089 
L 832.81741 986.4947 
L 836.027482 983.239063 
L 839.061617 979.786941 
L 841.910895 976.142926 
L 844.568246 972.311547 
L 847.028637 968.297413 
L 849.289216 964.105388 
L 851.349437 959.740775 
L 853.211151 955.209518 
L 854.878665 950.518405 
L 856.358771 945.675262 
L 857.660733 940.689127 
L 858.796244 935.570403 
L 860.075933 928.559954 
L 861.124335 921.367605 
L 862.179885 912.178984 
L 863.207922 900.974025 
L 865.042757 880.458041 
L 865.895017 873.182147 
L 866.942082 866.091023 
L 867.889768 860.925664 
L 869.00187 855.914885 
L 870.299299 851.078338 
L 871.801013 846.434009 
L 873.523768 841.997953 
L 875.48191 837.784065 
L 876.924031 835.104037 
L 878.47888 832.530748 
L 880.148733 830.066506 
L 881.935319 827.71311 
L 883.839809 825.471845 
L 885.862825 823.343481 
L 888.004442 821.328284 
L 890.264201 819.426025 
L 892.64112 817.635994 
L 895.133721 815.957019 
L 897.740041 814.387489 
L 901.857344 812.233871 
L 906.215068 810.31344 
L 910.801384 808.616065 
L 915.602811 807.130163 
L 920.604502 805.842965 
L 925.790522 804.740787 
L 931.144151 803.809293 
L 936.648163 803.033748 
L 944.190607 802.216536 
L 951.928189 801.615009 
L 961.813615 801.114484 
L 971.867284 800.834336 
L 984.058937 800.706968 
L 1002.39851 800.756758 
L 1032.46304 800.852902 
L 1046.070938 800.662797 
L 1057.450138 800.279828 
L 1066.705718 799.761384 
L 1075.735466 799.026872 
L 1082.7853 798.26244 
L 1089.671817 797.32413 
L 1096.387798 796.197568 
L 1102.92702 794.869661 
L 1109.284549 793.32888 
L 1115.457062 791.565548 
L 1121.443166 789.572099 
L 1127.243689 787.343311 
L 1132.861927 784.876519 
L 1138.303803 782.171798 
L 1143.577943 779.232122 
L 1148.695638 776.063511 
L 1153.670696 772.675171 
L 1158.51918 769.079637 
L 1163.259032 765.292917 
L 1169.060659 760.32096 
L 1174.76237 755.128056 
L 1182.652218 747.596449 
L 1198.466455 732.365312 
L 1204.213318 727.162959 
L 1208.865045 723.20281 
L 1213.566554 719.482663 
L 1218.315003 716.0597 
L 1221.90313 713.721885 
L 1225.509433 711.607005 
L 1229.128256 709.737924 
L 1232.752752 708.136395 
L 1236.374936 706.82271 
L 1239.985765 705.815353 
L 1243.575211 705.130662 
L 1245.950939 704.86042 
L 1248.308891 704.743249 
L 1250.645487 704.782006 
L 1252.957016 704.978941 
L 1255.239651 705.335662 
L 1257.489462 705.853117 
L 1259.702431 706.531573 
L 1261.874471 707.370605 
L 1264.001433 708.369091 
L 1266.079131 709.525205 
L 1268.103351 710.836425 
L 1270.069871 712.299543 
L 1271.974475 713.910682 
L 1273.81297 715.665315 
L 1276.437696 718.554897 
L 1278.890606 721.735816 
L 1281.158388 725.185595 
L 1283.228301 728.879442 
L 1285.088324 732.790648 
L 1286.727307 736.89102 
L 1288.135118 741.151347 
L 1289.302799 745.541885 
L 1290.222716 750.032844 
L 1290.888698 754.594884 
L 1291.296173 759.199592 
L 1291.44229 763.819942 
L 1291.326019 768.430722 
L 1290.94823 773.00893 
L 1290.311753 777.534116 
L 1289.421398 781.988677 
L 1288.283953 786.35809 
L 1286.908146 790.631086 
L 1285.304571 794.799757 
L 1283.485583 798.859598 
L 1281.465162 802.809479 
L 1279.25874 806.651557 
L 1276.883016 810.391118 
L 1274.355733 814.036371 
L 1270.782431 818.769123 
L 1267.018224 823.38586 
L 1262.114962 829.051862 
L 1244.929069 848.546392 
L 1241.001535 853.429345 
L 1237.192301 858.501398 
L 1233.531646 863.788047 
L 1230.047409 869.306424 
L 1227.565664 873.602356 
L 1225.208226 878.032891 
L 1222.985315 882.594452 
L 1220.907084 887.280214 
L 1218.983764 892.080164 
L 1217.225791 896.981211 
L 1215.643914 901.967372 
L 1214.249249 907.020013 
L 1213.053304 912.118157 
L 1212.06796 917.23883 
L 1211.305392 922.357475 
L 1210.777955 927.448394 
L 1210.498019 932.485223 
L 1210.477754 937.441441 
L 1210.728893 942.290885 
L 1211.26245 947.008271 
L 1212.088423 951.569718 
L 1212.805874 954.513099 
L 1213.659355 957.371408 
L 1214.650679 960.139224 
L 1215.781259 962.81171 
L 1217.052064 965.38466 
L 1218.463589 967.854543 
L 1220.015825 970.218544 
L 1221.708226 972.474594 
L 1223.539693 974.621398 
L 1225.508549 976.658451 
L 1227.612529 978.586057 
L 1229.84877 980.405324 
L 1232.21381 982.118168 
L 1234.703589 983.7273 
L 1238.661813 985.954372 
L 1242.872003 987.971017 
L 1247.313305 989.795673 
L 1251.962322 991.449971 
L 1256.793369 992.958329 
L 1263.469864 994.788944 
L 1272.094159 996.883625 
L 1293.22212 1001.83237 
L 1300.13461 1003.700032 
L 1306.859771 1005.779674 
L 1311.73945 1007.508993 
L 1316.448174 1009.40338 
L 1320.960595 1011.476865 
L 1325.253243 1013.739868 
L 1329.304647 1016.199121 
L 1333.095423 1018.857667 
L 1336.608345 1021.71496 
L 1338.788416 1023.728414 
L 1340.834364 1025.826541 
L 1342.742728 1028.006791 
L 1344.510488 1030.26608 
L 1346.135066 1032.60084 
L 1347.614334 1035.007075 
L 1348.946603 1037.48042 
L 1350.130637 1040.016207 
L 1351.165642 1042.609522 
L 1352.051276 1045.255277 
L 1352.787647 1047.948269 
L 1353.375317 1050.683249 
L 1353.815304 1053.454979 
L 1354.201736 1057.670221 
L 1354.266251 1061.939739 
L 1354.018149 1066.247749 
L 1353.469107 1070.579837 
L 1352.633184 1074.923227 
L 1351.52681 1079.266974 
L 1350.168758 1083.602084 
L 1348.580085 1087.921547 
L 1346.784047 1092.220297 
L 1344.110829 1097.914387 
L 1341.179496 1103.562825 
L 1337.260164 1110.560685 
L 1323.038568 1135.289505 
L 1320.336918 1140.696726 
L 1318.521408 1144.724782 
L 1316.917331 1148.723211 
L 1315.54997 1152.684596 
L 1314.442013 1156.599869 
L 1313.613279 1160.458461 
L 1313.080491 1164.24852 
L 1312.857093 1167.957197 
L 1312.953125 1171.570995 
L 1313.197992 1173.920684 
L 1313.588897 1176.218027 
L 1314.126237 1178.459054 
L 1314.809727 1180.639937 
L 1315.638424 1182.757049 
L 1316.610736 1184.807015 
L 1317.724451 1186.786769 
L 1318.976763 1188.693592 
L 1320.364301 1190.525167 
L 1321.883165 1192.279606 
L 1324.397968 1194.763659 
L 1327.181594 1197.068361 
L 1330.215419 1199.19359 
L 1333.479224 1201.14184 
L 1336.951561 1202.918162 
L 1340.610132 1204.530006 
L 1344.432165 1205.986989 
L 1348.394787 1207.300572 
L 1353.85799 1208.85145 
L 1359.479277 1210.203775 
L 1366.654802 1211.667548 
L 1375.374034 1213.177066 
L 1386.995285 1214.924791 
L 1404.081648 1217.241531 
L 1416.549502 1218.753339 
L 1426.111292 1219.697632 
L 1434.291084 1220.266469 
L 1441.148545 1220.530027 
L 1448.082972 1220.582201 
L 1455.123735 1220.421224 
L 1463.735987 1219.973422 
L 1474.002407 1219.193962 
L 1493.385172 1217.658049 
L 1500.749699 1217.310098 
L 1506.506143 1217.23215 
L 1512.080367 1217.383997 
L 1516.105063 1217.674797 
L 1519.967215 1218.135209 
L 1523.64109 1218.779055 
L 1527.101758 1219.617756 
L 1530.325628 1220.660197 
L 1533.290975 1221.912685 
L 1535.978419 1223.378966 
L 1537.607334 1224.475997 
L 1539.10114 1225.668479 
L 1540.456348 1226.955797 
L 1541.670166 1228.336938 
L 1542.740526 1229.810533 
L 1543.6661 1231.37489 
L 1544.446311 1233.028031 
L 1545.081334 1234.767735 
L 1545.572084 1236.591573 
L 1545.920205 1238.496948 
L 1546.180267 1241.501891 
L 1546.135525 1244.674519 
L 1545.799711 1248.004934 
L 1545.1892 1251.483119 
L 1544.322547 1255.099058 
L 1543.219966 1258.842802 
L 1541.4198 1264.016208 
L 1539.289944 1269.375903 
L 1536.2416 1276.301275 
L 1532.850631 1283.431875 
L 1528.440644 1292.183594 
L 1522.954008 1302.525715 
L 1518.026486 1311.355632 
L 1513.775439 1318.573128 
L 1509.38213 1325.555722 
L 1505.749177 1330.899669 
L 1501.993445 1335.965642 
L 1499.085154 1339.547603 
L 1496.089842 1342.916307 
L 1493.000177 1346.048654 
L 1489.809595 1348.923029 
L 1486.512609 1351.519804 
L 1483.105076 1353.821824 
L 1479.584399 1355.814877 
L 1477.1739 1356.966422 
L 1474.712832 1357.973441 
L 1472.201707 1358.834406 
L 1469.641382 1359.548605 
L 1467.033053 1360.116166 
L 1464.378236 1360.538082 
L 1460.312917 1360.9022 
L 1456.15449 1360.953048 
L 1451.911492 1360.705058 
L 1447.593439 1360.176939 
L 1443.210564 1359.391454 
L 1438.773539 1358.375106 
L 1434.293192 1357.157738 
L 1428.270476 1355.278784 
L 1420.69723 1352.637808 
L 1398.042887 1344.444374 
L 1392.08017 1342.605164 
L 1387.637056 1341.415075 
L 1383.218506 1340.417108 
L 1378.823014 1339.634015 
L 1374.448 1339.084362 
L 1370.089954 1338.782245 
L 1365.744608 1338.737091 
L 1361.407128 1338.95354 
L 1357.072318 1339.43141 
L 1352.734849 1340.165752 
L 1348.389481 1341.146978 
L 1344.031308 1342.361063 
L 1339.655995 1343.789824 
L 1333.78963 1345.990235 
L 1327.881248 1348.471312 
L 1320.435278 1351.859393 
L 1296.348624 1363.081116 
L 1290.367715 1365.542162 
L 1284.464516 1367.705469 
L 1280.112143 1369.089587 
L 1275.844553 1370.239021 
L 1271.681289 1371.129412 
L 1267.642559 1371.739424 
L 1263.748861 1372.05094 
L 1260.020567 1372.049206 
L 1258.818007 1371.976963 
L 1258.818007 1371.976963 
" clip-path="url(#p21e81d202e)" style="fill: none; stroke: #4169e1; stroke-width: 3; stroke-linecap: square"/>
   </g>
   <g id="line2d_2">
    <path d="M 1226.854157 1448.216825 
L 1225.027469 1447.804945 
L 1223.275058 1447.206297 
L 1221.600949 1446.41948 
L 1220.008865 1445.443944 
L 1218.502182 1444.279967 
L 1217.083888 1442.928636 
L 1215.756541 1441.391822 
L 1214.52223 1439.672149 
L 1213.382542 1437.772957 
L 1212.338533 1435.698269 
L 1211.3907 1433.452746 
L 1210.148941 1429.7758 
L 1209.120461 1425.746451 
L 1208.299391 1421.387136 
L 1207.67678 1416.722337 
L 1207.240653 1411.778198 
L 1206.97613 1406.582143 
L 1206.859584 1399.311265 
L 1206.96806 1391.711531 
L 1207.335691 1381.854367 
L 1208.928834 1347.038634 
L 1209.015431 1338.897877 
L 1208.866695 1330.887546 
L 1208.569545 1324.993064 
L 1208.091894 1319.215581 
L 1207.417184 1313.571725 
L 1206.531582 1308.077032 
L 1205.424139 1302.746059 
L 1204.086899 1297.592507 
L 1202.514959 1292.629356 
L 1200.706484 1287.868995 
L 1198.662665 1283.32335 
L 1196.387642 1279.003998 
L 1193.888379 1274.922265 
L 1191.174496 1271.089306 
L 1188.258067 1267.516152 
L 1185.153379 1264.213734 
L 1181.876664 1261.192871 
L 1178.445797 1258.464221 
L 1174.879975 1256.038208 
L 1171.19938 1253.924901 
L 1167.424818 1252.133868 
L 1164.866645 1251.123311 
L 1162.282311 1250.262378 
L 1159.677982 1249.553289 
L 1157.059708 1248.998021 
L 1154.433381 1248.598284 
L 1151.804687 1248.355477 
L 1149.179064 1248.270655 
L 1146.561664 1248.344493 
L 1143.957313 1248.577248 
L 1141.370478 1248.968719 
L 1138.80524 1249.518217 
L 1136.265259 1250.224524 
L 1133.753761 1251.085863 
L 1131.273512 1252.099869 
L 1128.826811 1253.263558 
L 1125.223511 1255.281643 
L 1121.703794 1257.613178 
L 1118.269379 1260.23969 
L 1114.919672 1263.139223 
L 1111.651918 1266.286353 
L 1108.461405 1269.652284 
L 1104.316263 1274.424799 
L 1100.278024 1279.445097 
L 1094.373122 1287.237095 
L 1084.750212 1300.081024 
L 1080.920222 1304.864549 
L 1077.080906 1309.29182 
L 1074.191763 1312.320266 
L 1071.294423 1315.056092 
L 1068.391479 1317.464394 
L 1065.487898 1319.513735 
L 1062.590986 1321.176561 
L 1060.66804 1322.058683 
L 1058.755599 1322.752761 
L 1056.857385 1323.253908 
L 1054.977461 1323.558175 
L 1053.120195 1323.662559 
L 1051.29021 1323.565008 
L 1049.49234 1323.264411 
L 1047.731578 1322.760587 
L 1046.013022 1322.054263 
L 1044.341823 1321.147044 
L 1042.723126 1320.041375 
L 1041.162016 1318.740503 
L 1039.663466 1317.24842 
L 1038.232278 1315.569817 
L 1036.873036 1313.71002 
L 1035.590056 1311.674926 
L 1034.387339 1309.470941 
L 1032.741633 1305.863362 
L 1031.295255 1301.915821 
L 1030.056607 1297.654193 
L 1029.031691 1293.105123 
L 1028.223992 1288.295495 
L 1027.63442 1283.251933 
L 1027.26131 1278.000335 
L 1027.100489 1272.565454 
L 1027.145382 1266.970536 
L 1027.387171 1261.237022 
L 1027.814997 1255.384318 
L 1028.652673 1247.424734 
L 1029.764087 1239.318128 
L 1031.11112 1231.091919 
L 1033.063853 1220.67199 
L 1035.691513 1208.002048 
L 1044.917511 1164.741742 
L 1046.94129 1153.741953 
L 1048.717085 1142.715376 
L 1049.920282 1133.9039 
L 1050.900967 1125.132177 
L 1051.634655 1116.434949 
L 1052.099245 1107.852161 
L 1052.275077 1099.428094 
L 1052.207053 1093.242643 
L 1051.960663 1087.193771 
L 1051.530526 1081.302262 
L 1050.912161 1075.588578 
L 1050.102021 1070.072417 
L 1049.097514 1064.772271 
L 1047.897031 1059.704998 
L 1046.499952 1054.885426 
L 1044.906654 1050.326 
L 1043.118504 1046.036485 
L 1041.137844 1042.023734 
L 1038.967963 1038.291539 
L 1036.613067 1034.840555 
L 1034.078234 1031.668318 
L 1031.369365 1028.769354 
L 1028.49314 1026.135367 
L 1025.456955 1023.755523 
L 1022.268882 1021.616804 
L 1018.937614 1019.704436 
L 1015.472426 1018.002375 
L 1011.883136 1016.493832 
L 1008.180081 1015.161839 
L 1004.374091 1013.989816 
L 999.158937 1012.649163 
L 993.809062 1011.532641 
L 988.35404 1010.614375 
L 982.824865 1009.876972 
L 975.858525 1009.198847 
L 970.282636 1008.856167 
L 964.741858 1008.707449 
L 959.271533 1008.77811 
L 953.907069 1009.101965 
L 949.974198 1009.535143 
L 946.134756 1010.152177 
L 942.402378 1010.972664 
L 938.789867 1012.01639 
L 935.30896 1013.302683 
L 931.970104 1014.849787 
L 928.782221 1016.674242 
L 926.744464 1018.051783 
L 924.778694 1019.562544 
L 922.886161 1021.209467 
L 921.067686 1022.994826 
L 919.323644 1024.920182 
L 916.846825 1028.072262 
L 914.534898 1031.540367 
L 912.383164 1035.319798 
L 910.384523 1039.401712 
L 908.529535 1043.773172 
L 906.806545 1048.417295 
L 905.201849 1053.313483 
L 903.21921 1060.191899 
L 901.378152 1067.410313 
L 899.207893 1076.79991 
L 892.698733 1105.895022 
L 890.754371 1113.494188 
L 888.650395 1120.873089 
L 886.358804 1127.959059 
L 884.503972 1133.041034 
L 882.525216 1137.895184 
L 880.418479 1142.49841 
L 878.181911 1146.830142 
L 875.815762 1150.872437 
L 873.32222 1154.610057 
L 870.705212 1158.030517 
L 867.970159 1161.124118 
L 865.123718 1163.883956 
L 862.173495 1166.30592 
L 859.127758 1168.388662 
L 855.995148 1170.133563 
L 852.784409 1171.544664 
L 849.504127 1172.628586 
L 846.162508 1173.394422 
L 842.767187 1173.853596 
L 839.32507 1174.019705 
L 835.842228 1173.908313 
L 832.323832 1173.536721 
L 828.77413 1172.923699 
L 825.19647 1172.089182 
L 821.593366 1171.053931 
L 816.752633 1169.398054 
L 811.872386 1167.473399 
L 805.718602 1164.763763 
L 798.258268 1161.181203 
L 788.19426 1156.043398 
L 775.488507 1149.287473 
L 765.330172 1143.648893 
L 757.804167 1139.203683 
L 751.652781 1135.277308 
L 746.84532 1131.938089 
L 742.167465 1128.378245 
L 738.760392 1125.538463 
L 735.452873 1122.534073 
L 732.256211 1119.349115 
L 729.181458 1115.969187 
L 726.239305 1112.381896 
L 723.439998 1108.577257 
L 720.793263 1104.548035 
L 718.308256 1100.290029 
L 715.993526 1095.802269 
L 713.856998 1091.087154 
L 711.905963 1086.150504 
L 710.147091 1081.001546 
L 708.586437 1075.652825 
L 707.229458 1070.120058 
L 706.081032 1064.421919 
L 705.145466 1058.579792 
L 704.426503 1052.617472 
L 703.927317 1046.560841 
L 703.650498 1040.437523 
L 703.598021 1034.27653 
L 703.771206 1028.107903 
L 704.170668 1021.962359 
L 704.796255 1015.870949 
L 705.646975 1009.864729 
L 706.720928 1003.97446 
L 708.01523 998.230316 
L 709.52595 992.66163 
L 711.248049 987.296653 
L 713.175338 982.162338 
L 715.300449 977.284141 
L 717.614834 972.685841 
L 720.108783 968.389375 
L 722.771471 964.414679 
L 725.591037 960.779541 
L 727.551621 958.55251 
L 729.572267 956.48733 
L 731.648843 954.587501 
L 733.777107 952.856007 
L 735.952724 951.295302 
L 738.171297 949.907288 
L 740.428396 948.693304 
L 742.719587 947.654109 
L 745.040458 946.789865 
L 747.386655 946.100129 
L 749.753912 945.583838 
L 752.138076 945.2393 
L 754.535145 945.064188 
L 756.941288 945.055534 
L 759.35288 945.209729 
L 761.766521 945.522523 
L 764.179061 945.98903 
L 767.789586 946.964772 
L 771.382737 948.252636 
L 774.951581 949.828468 
L 778.490807 951.665327 
L 781.996748 953.73372 
L 785.467357 956.001885 
L 790.039249 959.278379 
L 795.669495 963.660568 
L 805.615248 971.832615 
L 812.166703 977.073191 
L 816.52593 980.309857 
L 820.893514 983.252705 
L 824.18137 985.226279 
L 827.483789 986.971439 
L 830.803366 988.465998 
L 834.141499 989.690873 
L 837.498271 990.630151 
L 840.872375 991.271074 
L 844.261067 991.603966 
L 847.660167 991.622083 
L 851.064086 991.32142 
L 854.465895 990.700461 
L 857.857424 989.759891 
L 861.229392 988.502283 
L 864.571562 986.931768 
L 867.872918 985.053704 
L 871.121863 982.874354 
L 874.306427 980.400575 
L 877.41449 977.639554 
L 880.434004 974.598563 
L 883.353219 971.28478 
L 886.160905 967.705145 
L 888.84657 963.866286 
L 891.400665 959.774492 
L 893.814775 955.435749 
L 896.081803 950.855828 
L 898.196126 946.040421 
L 900.153736 940.995323 
L 901.952366 935.726644 
L 903.591581 930.241051 
L 905.072854 924.546014 
L 906.399612 918.650065 
L 907.577259 912.56304 
L 908.928523 904.169653 
L 910.050816 895.488706 
L 910.972738 886.557927 
L 911.895578 875.110763 
L 912.768778 861.091408 
L 914.809298 825.998756 
L 915.772528 814.741534 
L 916.751898 806.046885 
L 917.96368 797.697431 
L 919.048566 791.696825 
L 920.300639 785.944818 
L 921.732608 780.46071 
L 923.355219 775.261007 
L 925.177127 770.359197 
L 927.204817 765.765611 
L 929.442552 761.48733 
L 931.052165 758.81233 
L 932.756143 756.279563 
L 934.55412 753.88874 
L 936.445317 751.638968 
L 938.428555 749.528775 
L 940.502274 747.556137 
L 942.664552 745.718511 
L 944.913129 744.012867 
L 947.245431 742.435735 
L 950.894534 740.302417 
L 954.714791 738.434885 
L 958.694386 736.817092 
L 962.820645 735.431837 
L 967.080261 734.261104 
L 971.459529 733.286373 
L 975.944562 732.488925 
L 982.065194 731.669221 
L 988.317025 731.088235 
L 994.669187 730.704367 
L 1002.706528 730.442083 
L 1012.426521 730.353591 
L 1028.615295 730.476171 
L 1046.127296 730.557562 
L 1055.455559 730.405669 
L 1063.076822 730.102803 
L 1070.541987 729.594497 
L 1076.391569 729.011942 
L 1082.124368 728.250397 
L 1087.733569 727.289631 
L 1093.212828 726.110332 
L 1098.5564 724.694432 
L 1103.759333 723.025472 
L 1107.566832 721.598884 
L 1111.291792 720.016484 
L 1114.933485 718.273817 
L 1118.491707 716.367318 
L 1121.966833 714.294376 
L 1125.359856 712.053398 
L 1128.672428 709.643862 
L 1131.906877 707.066371 
L 1135.06621 704.322695 
L 1139.168269 700.411286 
L 1143.153915 696.220437 
L 1147.035504 691.764837 
L 1150.826969 687.063499 
L 1154.543469 682.139956 
L 1159.108018 675.716584 
L 1164.508426 667.703008 
L 1182.511899 640.509012 
L 1187.119925 634.170978 
L 1190.850864 629.413252 
L 1194.620022 625.011022 
L 1197.469265 621.985944 
L 1200.334252 619.231244 
L 1203.210808 616.776029 
L 1206.093796 614.64815 
L 1208.97716 612.873774 
L 1210.896227 611.899216 
L 1212.810149 611.099014 
L 1214.716524 610.479115 
L 1216.612811 610.044853 
L 1218.496337 609.8009 
L 1220.364309 609.751221 
L 1222.213825 609.89903 
L 1224.041884 610.246755 
L 1225.8454 610.796006 
L 1227.62121 611.547549 
L 1229.366086 612.501286 
L 1231.076752 613.656245 
L 1232.749889 615.010574 
L 1234.382155 616.561538 
L 1235.970191 618.305536 
L 1237.51064 620.238112 
L 1239.000154 622.353981 
L 1241.131669 625.857941 
L 1243.130092 629.736755 
L 1244.984704 633.963244 
L 1246.685202 638.507167 
L 1248.221818 643.335698 
L 1249.585437 648.413962 
L 1250.767713 653.705606 
L 1251.761195 659.173401 
L 1252.559444 664.779857 
L 1253.157149 670.487841 
L 1253.550239 676.26119 
L 1253.735977 682.065292 
L 1253.713054 687.867644 
L 1253.481653 693.638358 
L 1253.043501 699.35062 
L 1252.4019 704.981076 
L 1251.561728 710.510153 
L 1250.529419 715.922306 
L 1249.312918 721.20618 
L 1247.921596 726.354684 
L 1246.366161 731.364995 
L 1244.658521 736.238462 
L 1242.811646 740.980446 
L 1240.156621 747.11484 
L 1237.313523 753.063123 
L 1233.550359 760.298884 
L 1228.822419 768.815526 
L 1218.332919 787.496278 
L 1214.391747 795.070175 
L 1211.335056 801.382102 
L 1208.390755 807.956661 
L 1205.581443 814.818137 
L 1202.928094 821.97938 
L 1200.450552 829.44091 
L 1198.168084 837.19045 
L 1196.099903 845.202913 
L 1194.265633 853.440844 
L 1192.685664 861.85533 
L 1191.381331 870.387338 
L 1190.597342 876.823173 
L 1189.990605 883.256459 
L 1189.57095 889.654897 
L 1189.348218 895.985354 
L 1189.332095 902.214496 
L 1189.531913 908.30944 
L 1189.956438 914.238411 
L 1190.613624 919.97139 
L 1191.510373 925.480748 
L 1192.652283 930.741835 
L 1194.043407 935.733526 
L 1195.686026 940.438709 
L 1196.921062 943.409865 
L 1198.267622 946.245345 
L 1199.724829 948.94352 
L 1201.29135 951.503758 
L 1202.965382 953.926437 
L 1204.744647 956.212953 
L 1206.626392 958.365714 
L 1208.607385 960.388125 
L 1210.683926 962.28457 
L 1213.968677 964.904952 
L 1217.443078 967.275841 
L 1221.089165 969.423141 
L 1224.887085 971.376434 
L 1228.815321 973.168426 
L 1234.215909 975.367935 
L 1242.54856 978.440727 
L 1252.379652 982.046764 
L 1257.932732 984.287932 
L 1262.021463 986.116335 
L 1266.018465 988.104293 
L 1269.900982 990.27776 
L 1273.647479 992.658689 
L 1277.237788 995.264714 
L 1280.653234 998.108933 
L 1283.876734 1001.199805 
L 1286.892866 1004.541156 
L 1289.687923 1008.132297 
L 1291.422497 1010.662875 
L 1293.823393 1014.657302 
L 1295.975264 1018.879633 
L 1297.870895 1023.315261 
L 1299.504861 1027.94686 
L 1300.873535 1032.754962 
L 1301.975094 1037.718562 
L 1302.809525 1042.815729 
L 1303.378643 1048.024225 
L 1303.686108 1053.322083 
L 1303.737439 1058.688157 
L 1303.540037 1064.10261 
L 1303.103192 1069.547323 
L 1302.438089 1075.006242 
L 1301.557802 1080.465611 
L 1300.477268 1085.914123 
L 1299.213241 1091.34297 
L 1297.274657 1098.540171 
L 1295.091324 1105.682509 
L 1292.099177 1114.529675 
L 1288.271891 1125.035098 
L 1280.64026 1145.751315 
L 1277.787263 1154.280471 
L 1275.760908 1161.051399 
L 1274.020764 1167.760553 
L 1272.932823 1172.739354 
L 1272.051276 1177.660202 
L 1271.391894 1182.509811 
L 1270.967982 1187.273284 
L 1270.790235 1191.934475 
L 1270.866643 1196.476417 
L 1271.202426 1200.881815 
L 1271.800029 1205.133563 
L 1272.659151 1209.215291 
L 1273.776822 1213.111895 
L 1275.147524 1216.810048 
L 1276.763346 1220.29866 
L 1278.614179 1223.56928 
L 1280.687935 1226.616404 
L 1282.9708 1229.437697 
L 1285.4475 1232.034102 
L 1288.101589 1234.409841 
L 1290.915743 1236.572293 
L 1293.872062 1238.531769 
L 1296.952367 1240.301175 
L 1300.1385 1241.895588 
L 1303.412606 1243.331751 
L 1307.885184 1245.031399 
L 1312.444997 1246.524916 
L 1318.214571 1248.166296 
L 1325.164807 1249.902192 
L 1335.494312 1252.2223 
L 1347.8081 1254.76032 
L 1355.472857 1256.148109 
L 1361.984825 1257.104447 
L 1367.409213 1257.678532 
L 1372.865353 1258.009781 
L 1378.382731 1258.075355 
L 1383.984716 1257.873034 
L 1389.684913 1257.425355 
L 1396.654697 1256.635035 
L 1415.607736 1254.289953 
L 1420.287023 1253.962866 
L 1424.867138 1253.864898 
L 1428.20969 1253.977882 
L 1431.450453 1254.276657 
L 1434.568778 1254.782188 
L 1437.544076 1255.512798 
L 1440.35625 1256.483871 
L 1442.986128 1257.70765 
L 1445.415885 1259.193141 
L 1446.916519 1260.331844 
L 1448.31676 1261.590424 
L 1449.612807 1262.969209 
L 1450.801354 1264.467961 
L 1451.879625 1266.085905 
L 1452.8454 1267.82177 
L 1453.697032 1269.673834 
L 1454.433465 1271.63997 
L 1455.321276 1274.797539 
L 1455.949962 1278.196474 
L 1456.323441 1281.825946 
L 1456.44845 1285.674275 
L 1456.334329 1289.729238 
L 1455.992743 1293.978325 
L 1455.437342 1298.408932 
L 1454.390744 1304.577068 
L 1453.030478 1311.016053 
L 1451.397573 1317.69653 
L 1449.035296 1326.341497 
L 1445.828135 1337.066945 
L 1441.711527 1349.917192 
L 1437.311063 1362.922678 
L 1433.365293 1373.994068 
L 1429.961388 1383.016725 
L 1426.441184 1391.71747 
L 1423.527507 1398.353468 
L 1420.512599 1404.621731 
L 1418.176211 1409.037632 
L 1415.76859 1413.175659 
L 1413.284075 1417.007331 
L 1410.717704 1420.506244 
L 1408.065446 1423.648696 
L 1405.324399 1426.414299 
L 1403.446848 1428.040344 
L 1401.528933 1429.487645 
L 1399.570784 1430.7533 
L 1397.572807 1431.835391 
L 1395.535685 1432.73302 
L 1393.460366 1433.44635 
L 1391.348061 1433.976628 
L 1389.20022 1434.326203 
L 1387.018519 1434.498531 
L 1384.804836 1434.498172 
L 1382.561231 1434.330772 
L 1380.289917 1434.003044 
L 1376.836139 1433.228045 
L 1373.333588 1432.140182 
L 1369.790821 1430.774226 
L 1366.216448 1429.16896 
L 1361.416001 1426.729652 
L 1355.386137 1423.351835 
L 1339.759676 1414.374761 
L 1335.006894 1411.984527 
L 1331.46511 1410.415495 
L 1327.943063 1409.077303 
L 1324.439862 1408.000204 
L 1320.953727 1407.209331 
L 1317.482097 1406.724306 
L 1314.021762 1406.558955 
L 1310.569007 1406.721124 
L 1307.119777 1407.212604 
L 1303.669844 1408.029158 
L 1300.214997 1409.160655 
L 1296.751222 1410.591292 
L 1293.274896 1412.299915 
L 1289.78298 1414.260414 
L 1285.099035 1417.212757 
L 1280.380715 1420.474851 
L 1273.241948 1425.742939 
L 1261.247892 1434.66553 
L 1256.461398 1437.975969 
L 1251.715354 1440.98437 
L 1248.199675 1442.984841 
L 1244.736709 1444.724448 
L 1241.341201 1446.169096 
L 1238.028699 1447.288169 
L 1234.815283 1448.054853 
L 1232.736107 1448.358786 
L 1230.713041 1448.490186 
L 1228.750843 1448.444197 
L 1227.794026 1448.353399 
L 1227.794026 1448.353399 
" clip-path="url(#p21e81d202e)" style="fill: none; stroke: #ff8c00; stroke-width: 3; stroke-linecap: square"/>
   </g>
  </g>
 </g>
 <defs>
  <clipPath id="p21e81d202e">
   <rect x="270" y="259.2" width="1674" height="1630.8"/>
  </clipPath>
 </defs>
</svg>
