<?xml version="1.0" encoding="utf-8" standalone="no"?>
<!DOCTYPE svg PUBLIC "-//W3C//DTD SVG 1.1//EN"
  "http://www.w3.org/Graphics/SVG/1.1/DTD/svg11.dtd">
<svg xmlns:xlink="http://www.w3.org/1999/xlink" width="2160pt" height="2160pt" viewBox="0 0 2160 2160" xmlns="http://www.w3.org/2000/svg" version="1.1">
 <metadata>
  <rdf:RDF xmlns:dc="http://purl.org/dc/elements/1.1/" xmlns:cc="http://creativecommons.org/ns#" xmlns:rdf="http://www.w3.org/1999/02/22-rdf-syntax-ns#">
   <cc:Work>
    <dc:type rdf:resource="http://purl.org/dc/dcmitype/StillImage"/>
    <dc:date>2022-03-09T01:03:24.814640</dc:date>
    <dc:format>image/svg+xml</dc:format>
    <dc:creator>
     <cc:Agent>
      <dc:title>Matplotlib v3.5.1, https://matplotlib.org/</dc:title>
     </cc:Agent>
    </dc:creator>
   </cc:Work>
  </rdf:RDF>
 </metadata>
 <defs>
  <style type="text/css">*{stroke-linejoin: round; stroke-linecap: butt}</style>
 </defs>
 <g id="figure_1">
  <g id="patch_1">
   <path d="M 0 2160 
L 2160 2160 
L 2160 0 
L 0 0 
L 0 2160 
z
" style="fill: none"/>
  </g>
  <g id="axes_1">
   <g id="line2d_1">
    <path d="M 1257.636748 1371.868297 
L 1255.340905 1371.540585 
L 1253.138416 1371.06427 
L 1251.034339 1370.43824 
L 1249.033353 1369.662054 
L 1247.139704 1368.735935 
L 1245.357144 1367.660749 
L 1243.68889 1366.437982 
L 1242.137566 1365.069724 
L 1240.705168 1363.558632 
L 1239.393022 1361.907906 
L 1238.201754 1360.121256 
L 1237.131261 1358.202864 
L 1236.180693 1356.157351 
L 1235.348441 1353.98974 
L 1234.316492 1350.521251 
L 1233.533973 1346.809702 
L 1232.985834 1342.875897 
L 1232.653373 1338.741655 
L 1232.514466 1334.429522 
L 1232.586292 1328.443058 
L 1232.889706 1322.236104 
L 1233.615312 1312.630981 
L 1234.774959 1297.907102 
L 1235.107597 1291.365851 
L 1235.216435 1284.888656 
L 1235.107636 1280.096815 
L 1234.804605 1275.378941 
L 1234.282372 1270.74954 
L 1233.519036 1266.22215 
L 1232.496045 1261.809412 
L 1231.198411 1257.523158 
L 1229.614869 1253.374505 
L 1227.737975 1249.373959 
L 1226.321808 1246.794168 
L 1224.77347 1244.287516 
L 1223.093595 1241.856799 
L 1221.283547 1239.504755 
L 1219.345404 1237.23408 
L 1217.281933 1235.047435 
L 1213.959407 1231.930782 
L 1210.376932 1229.017927 
L 1206.551573 1226.317592 
L 1202.502954 1223.838419 
L 1198.252898 1221.588936 
L 1193.825025 1219.577507 
L 1189.244337 1217.812251 
L 1184.536771 1216.300927 
L 1179.728752 1215.050805 
L 1174.846731 1214.068506 
L 1169.91673 1213.359819 
L 1164.963895 1212.929506 
L 1160.012071 1212.781089 
L 1155.083403 1212.91663 
L 1150.197977 1213.336505 
L 1145.373497 1214.039181 
L 1140.625029 1215.021011 
L 1135.964793 1216.27603 
L 1131.402027 1217.795797 
L 1126.942924 1219.569247 
L 1122.590641 1221.582603 
L 1118.345383 1223.81932 
L 1114.204568 1226.260082 
L 1110.163062 1228.882863 
L 1106.213481 1231.663031 
L 1101.074144 1235.567635 
L 1094.816851 1240.666389 
L 1075.42612 1256.882001 
L 1070.604637 1260.482807 
L 1066.977112 1262.963406 
L 1063.338855 1265.220985 
L 1059.692139 1267.226939 
L 1056.042211 1268.955295 
L 1052.397283 1270.383065 
L 1048.76843 1271.490548 
L 1045.169395 1272.261562 
L 1042.794486 1272.582322 
L 1040.445265 1272.745145 
L 1038.12739 1272.748021 
L 1035.846811 1272.589691 
L 1033.609712 1272.269644 
L 1031.422443 1271.788101 
L 1029.291454 1271.145991 
L 1027.223222 1270.34493 
L 1025.224187 1269.387186 
L 1023.300675 1268.275645 
L 1021.458839 1267.013768 
L 1019.704586 1265.605544 
L 1018.043514 1264.055446 
L 1016.480858 1262.368374 
L 1015.021432 1260.549606 
L 1013.669579 1258.604738 
L 1012.429127 1256.53963 
L 1011.303352 1254.36035 
L 1010.294948 1252.073111 
L 1009.006799 1248.453642 
L 1007.991656 1244.626861 
L 1007.250661 1240.61395 
L 1006.781725 1236.435515 
L 1006.579599 1232.111251 
L 1006.636022 1227.659654 
L 1006.939911 1223.097782 
L 1007.477616 1218.441077 
L 1008.233201 1213.703235 
L 1009.18876 1208.89615 
L 1010.739925 1202.396163 
L 1012.561898 1195.809896 
L 1015.139992 1187.476743 
L 1018.535188 1177.352894 
L 1027.329707 1151.551684 
L 1030.022524 1142.824844 
L 1031.989917 1135.815395 
L 1033.748066 1128.796012 
L 1035.260285 1121.785159 
L 1036.492843 1114.805937 
L 1037.21511 1109.608743 
L 1037.750817 1104.458024 
L 1038.089047 1099.368157 
L 1038.21987 1094.354478 
L 1038.134376 1089.433022 
L 1037.824705 1084.620237 
L 1037.284094 1079.932656 
L 1036.506912 1075.386562 
L 1035.4887 1070.997628 
L 1034.226202 1066.780566 
L 1032.717395 1062.748789 
L 1030.961499 1058.914096 
L 1028.958988 1055.286388 
L 1026.711581 1051.873434 
L 1024.22222 1048.680688 
L 1021.495041 1045.711166 
L 1018.535328 1042.96539 
L 1015.349464 1040.441399 
L 1011.944867 1038.134838 
L 1008.329929 1036.039105 
L 1004.51395 1034.145582 
L 1000.507072 1032.44391 
L 996.320222 1030.922334 
L 991.965057 1029.568089 
L 987.453916 1028.367816 
L 981.218978 1026.983667 
L 974.762421 1025.818343 
L 968.118647 1024.843764 
L 959.606057 1023.858575 
L 950.932502 1023.10311 
L 942.17697 1022.56356 
L 933.422181 1022.246192 
L 924.753667 1022.177331 
L 917.939364 1022.330551 
L 911.280154 1022.700751 
L 904.819134 1023.322077 
L 900.128156 1023.974898 
L 895.58783 1024.805339 
L 891.212909 1025.828778 
L 887.016522 1027.059732 
L 883.009883 1028.51136 
L 879.202018 1030.195011 
L 875.599516 1032.119812 
L 872.206309 1034.292311 
L 869.023494 1036.716184 
L 866.049211 1039.39202 
L 863.27857 1042.317175 
L 860.703649 1045.485712 
L 858.313549 1048.888413 
L 856.094529 1052.512875 
L 854.030195 1056.34367 
L 852.101766 1060.362571 
L 849.705645 1065.977539 
L 847.459944 1071.834723 
L 844.247142 1080.941351 
L 838.818722 1096.430226 
L 836.45963 1102.541154 
L 833.920492 1108.507305 
L 831.87411 1112.850688 
L 829.690702 1117.055146 
L 827.359486 1121.09862 
L 824.872519 1124.960825 
L 822.224701 1128.623383 
L 819.413707 1132.069926 
L 816.439851 1135.286179 
L 813.305883 1138.260017 
L 810.016738 1140.981507 
L 806.579232 1143.442931 
L 803.001729 1145.638797 
L 799.293789 1147.565832 
L 795.465803 1149.222967 
L 791.528634 1150.611297 
L 787.493269 1151.73404 
L 783.370499 1152.596463 
L 779.170641 1153.2058 
L 774.903286 1153.571143 
L 770.577117 1153.703307 
L 766.199765 1153.614678 
L 761.777726 1153.319021 
L 757.31634 1152.83127 
L 751.313741 1151.909637 
L 745.255683 1150.714062 
L 739.14656 1149.284672 
L 731.441919 1147.229351 
L 722.099675 1144.4644 
L 709.490365 1140.444704 
L 691.945338 1134.573123 
L 677.577834 1129.538765 
L 668.118897 1126.001932 
L 660.387627 1122.877912 
L 654.345448 1120.221061 
L 648.466162 1117.38867 
L 642.783762 1114.347584 
L 638.671638 1111.910608 
L 634.703514 1109.325988 
L 630.893145 1106.582759 
L 627.253792 1103.671665 
L 623.798124 1100.585465 
L 620.538132 1097.319184 
L 617.485073 1093.870321 
L 614.649431 1090.238989 
L 612.040902 1086.428003 
L 609.668389 1082.4429 
L 607.540014 1078.291914 
L 605.663134 1073.985882 
L 604.044363 1069.538113 
L 602.689592 1064.96421 
L 601.603998 1060.281852 
L 600.792049 1055.510556 
L 600.257491 1050.671407 
L 600.003325 1045.786784 
L 600.031767 1040.880077 
L 600.34419 1035.975395 
L 600.941053 1031.097299 
L 601.821823 1026.270522 
L 602.984883 1021.519724 
L 604.427443 1016.869246 
L 606.14545 1012.342897 
L 608.133504 1007.963748 
L 610.384797 1003.753952 
L 612.891057 999.734572 
L 615.642531 995.925435 
L 618.627981 992.344985 
L 621.834731 989.010159 
L 625.248728 985.936263 
L 627.632349 984.03873 
L 630.096476 982.266793 
L 632.636092 980.623632 
L 635.246003 979.112033 
L 637.920877 977.734369 
L 642.043053 975.923154 
L 646.280442 974.422314 
L 650.614243 973.23427 
L 655.025816 972.359054 
L 659.496976 971.794222 
L 664.010279 971.534806 
L 668.549305 971.573267 
L 673.098917 971.899481 
L 677.645495 972.500756 
L 682.177137 973.361878 
L 686.683815 974.465189 
L 691.157491 975.790715 
L 695.592176 977.316321 
L 699.983945 979.017911 
L 705.769864 981.515616 
L 711.477059 984.21506 
L 719.904987 988.492506 
L 736.443566 997.002776 
L 741.922389 999.57803 
L 747.411716 1001.919508 
L 751.544005 1003.489782 
L 755.694596 1004.878319 
L 759.866753 1006.067465 
L 764.06223 1007.042037 
L 768.281135 1007.789373 
L 772.521823 1008.299324 
L 776.780846 1008.56419 
L 781.052949 1008.578604 
L 785.331109 1008.339382 
L 789.606617 1007.845316 
L 793.869206 1007.096951 
L 798.107209 1006.096335 
L 802.307761 1004.846754 
L 806.457016 1003.352473 
L 810.540399 1001.618472 
L 814.542867 999.65021 
L 818.449186 997.453403 
L 822.244213 995.033838 
L 825.913181 992.397226 
L 829.441975 989.549089 
L 832.81741 986.4947 
L 836.027482 983.239063 
L 839.061617 979.786941 
L 841.910895 976.142926 
L 844.568246 972.311547 
L 847.028637 968.297413 
L 849.289216 964.105388 
L 851.349437 959.740775 
L 853.211151 955.209518 
L 854.878665 950.518405 
L 856.358771 945.675262 
L 857.660733 940.689127 
L 858.796244 935.570403 
L 860.075933 928.559954 
L 861.124335 921.367605 
L 862.179885 912.178984 
L 863.207922 900.974025 
L 865.042757 880.458041 
L 865.895017 873.182147 
L 866.942082 866.091023 
L 867.889768 860.925664 
L 869.00187 855.914885 
L 870.299299 851.078338 
L 871.801013 846.434009 
L 873.523768 841.997953 
L 875.48191 837.784065 
L 876.924031 835.104037 
L 878.47888 832.530748 
L 880.148733 830.066506 
L 881.935319 827.71311 
L 883.839809 825.471845 
L 885.862825 823.343481 
L 888.004442 821.328284 
L 890.264201 819.426025 
L 892.64112 817.635994 
L 895.133721 815.957019 
L 897.740041 814.387489 
L 901.857344 812.233871 
L 906.215068 810.31344 
L 910.801384 808.616065 
L 915.602811 807.130163 
L 920.604502 805.842965 
L 925.790522 804.740787 
L 931.144151 803.809293 
L 936.648163 803.033748 
L 944.190607 802.216536 
L 951.928189 801.615009 
L 961.813615 801.114484 
L 971.867284 800.834336 
L 984.058937 800.706968 
L 1002.39851 800.756758 
L 1032.46304 800.852902 
L 1046.070938 800.662797 
L 1057.450138 800.279828 
L 1066.705718 799.761384 
L 1075.735466 799.026872 
L 1082.7853 798.26244 
L 1089.671817 797.32413 
L 1096.387798 796.197568 
L 1102.92702 794.869661 
L 1109.284549 793.32888 
L 1115.457062 791.565548 
L 1121.443166 789.572099 
L 1127.243689 787.343311 
L 1132.861927 784.876519 
L 1138.303803 782.171798 
L 1143.577943 779.232122 
L 1148.695638 776.063511 
L 1153.670696 772.675171 
L 1158.51918 769.079637 
L 1163.259032 765.292917 
L 1169.060659 760.32096 
L 1174.76237 755.128056 
L 1182.652218 747.596449 
L 1198.466455 732.365312 
L 1204.213318 727.162959 
L 1208.865045 723.20281 
L 1213.566554 719.482663 
L 1218.315003 716.0597 
L 1221.90313 713.721885 
L 1225.509433 711.607005 
L 1229.128256 709.737924 
L 1232.752752 708.136395 
L 1236.374936 706.82271 
L 1239.985765 705.815353 
L 1243.575211 705.130662 
L 1245.950939 704.86042 
L 1248.308891 704.743249 
L 1250.645487 704.782006 
L 1252.957016 704.978941 
L 1255.239651 705.335662 
L 1257.489462 705.853117 
L 1259.702431 706.531573 
L 1261.874471 707.370605 
L 1264.001433 708.369091 
L 1266.079131 709.525205 
L 1268.103351 710.836425 
L 1270.069871 712.299543 
L 1271.974475 713.910682 
L 1273.81297 715.665315 
L 1276.437696 718.554897 
L 1278.890606 721.735816 
L 1281.158388 725.185595 
L 1283.228301 728.879442 
L 1285.088324 732.790648 
L 1286.727307 736.89102 
L 1288.135118 741.151347 
L 1289.302799 745.541885 
L 1290.222716 750.032844 
L 1290.888698 754.594884 
L 1291.296173 759.199592 
L 1291.44229 763.819942 
L 1291.326019 768.430722 
L 1290.94823 773.00893 
L 1290.311753 777.534116 
L 1289.421398 781.988677 
L 1288.283953 786.35809 
L 1286.908146 790.631086 
L 1285.304571 794.799757 
L 1283.485583 798.859598 
L 1281.465162 802.809479 
L 1279.25874 806.651557 
L 1276.883016 810.391118 
L 1274.355733 814.036371 
L 1270.782431 818.769123 
L 1267.018224 823.38586 
L 1262.114962 829.051862 
L 1244.929069 848.546392 
L 1241.001535 853.429345 
L 1237.192301 858.501398 
L 1233.531646 863.788047 
L 1230.047409 869.306424 
L 1227.565664 873.602356 
L 1225.208226 878.032891 
L 1222.985315 882.594452 
L 1220.907084 887.280214 
L 1218.983764 892.080164 
L 1217.225791 896.981211 
L 1215.643914 901.967372 
L 1214.249249 907.020013 
L 1213.053304 912.118157 
L 1212.06796 917.23883 
L 1211.305392 922.357475 
L 1210.777955 927.448394 
L 1210.498019 932.485223 
L 1210.477754 937.441441 
L 1210.728893 942.290885 
L 1211.26245 947.008271 
L 1212.088423 951.569718 
L 1212.805874 954.513099 
L 1213.659355 957.371408 
L 1214.650679 960.139224 
L 1215.781259 962.81171 
L 1217.052064 965.38466 
L 1218.463589 967.854543 
L 1220.015825 970.218544 
L 1221.708226 972.474594 
L 1223.539693 974.621398 
L 1225.508549 976.658451 
L 1227.612529 978.586057 
L 1229.84877 980.405324 
L 1232.21381 982.118168 
L 1234.703589 983.7273 
L 1238.661813 985.954372 
L 1242.872003 987.971017 
L 1247.313305 989.795673 
L 1251.962322 991.449971 
L 1256.793369 992.958329 
L 1263.469864 994.788944 
L 1272.094159 996.883625 
L 1293.22212 1001.83237 
L 1300.13461 1003.700032 
L 1306.859771 1005.779674 
L 1311.73945 1007.508993 
L 1316.448174 1009.40338 
L 1320.960595 1011.476865 
L 1325.253243 1013.739868 
L 1329.304647 1016.199121 
L 1333.095423 1018.857667 
L 1336.608345 1021.71496 
L 1338.788416 1023.728414 
L 1340.834364 1025.826541 
L 1342.742728 1028.006791 
L 1344.510488 1030.26608 
L 1346.135066 1032.60084 
L 1347.614334 1035.007075 
L 1348.946603 1037.48042 
L 1350.130637 1040.016207 
L 1351.165642 1042.609522 
L 1352.051276 1045.255277 
L 1352.787647 1047.948269 
L 1353.375317 1050.683249 
L 1353.815304 1053.454979 
L 1354.201736 1057.670221 
L 1354.266251 1061.939739 
L 1354.018149 1066.247749 
L 1353.469107 1070.579837 
L 1352.633184 1074.923227 
L 1351.52681 1079.266974 
L 1350.168758 1083.602084 
L 1348.580085 1087.921547 
L 1346.784047 1092.220297 
L 1344.110829 1097.914387 
L 1341.179496 1103.562825 
L 1337.260164 1110.560685 
L 1323.038568 1135.289505 
L 1320.336918 1140.696726 
L 1318.521408 1144.724782 
L 1316.917331 1148.723211 
L 1315.54997 1152.684596 
L 1314.442013 1156.599869 
L 1313.613279 1160.458461 
L 1313.080491 1164.24852 
L 1312.857093 1167.957197 
L 1312.953125 1171.570995 
L 1313.197992 1173.920684 
L 1313.588897 1176.218027 
L 1314.126237 1178.459054 
L 1314.809727 1180.639937 
L 1315.638424 1182.757049 
L 1316.610736 1184.807015 
L 1317.724451 1186.786769 
L 1318.976763 1188.693592 
L 1320.364301 1190.525167 
L 1321.883165 1192.279606 
L 1324.397968 1194.763659 
L 1327.181594 1197.068361 
L 1330.215419 1199.19359 
L 1333.479224 1201.14184 
L 1336.951561 1202.918162 
L 1340.610132 1204.530006 
L 1344.432165 1205.986989 
L 1348.394787 1207.300572 
L 1353.85799 1208.85145 
L 1359.479277 1210.203775 
L 1366.654802 1211.667548 
L 1375.374034 1213.177066 
L 1386.995285 1214.924791 
L 1404.081648 1217.241531 
L 1416.549502 1218.753339 
L 1426.111292 1219.697632 
L 1434.291084 1220.266469 
L 1441.148545 1220.530027 
L 1448.082972 1220.582201 
L 1455.123735 1220.421224 
L 1463.735987 1219.973422 
L 1474.002407 1219.193962 
L 1493.385172 1217.658049 
L 1500.749699 1217.310098 
L 1506.506143 1217.23215 
L 1512.080367 1217.383997 
L 1516.105063 1217.674797 
L 1519.967215 1218.135209 
L 1523.64109 1218.779055 
L 1527.101758 1219.617756 
L 1530.325628 1220.660197 
L 1533.290975 1221.912685 
L 1535.978419 1223.378966 
L 1537.607334 1224.475997 
L 1539.10114 1225.668479 
L 1540.456348 1226.955797 
L 1541.670166 1228.336938 
L 1542.740526 1229.810533 
L 1543.6661 1231.37489 
L 1544.446311 1233.028031 
L 1545.081334 1234.767735 
L 1545.572084 1236.591573 
L 1545.920205 1238.496948 
L 1546.180267 1241.501891 
L 1546.135525 1244.674519 
L 1545.799711 1248.004934 
L 1545.1892 1251.483119 
L 1544.322547 1255.099058 
L 1543.219966 1258.842802 
L 1541.4198 1264.016208 
L 1539.289944 1269.375903 
L 1536.2416 1276.301275 
L 1532.850631 1283.431875 
L 1528.440644 1292.183594 
L 1522.954008 1302.525715 
L 1518.026486 1311.355632 
L 1513.775439 1318.573128 
L 1509.38213 1325.555722 
L 1505.749177 1330.899669 
L 1501.993445 1335.965642 
L 1499.085154 1339.547603 
L 1496.089842 1342.916307 
L 1493.000177 1346.048654 
L 1489.809595 1348.923029 
L 1486.512609 1351.519804 
L 1483.105076 1353.821824 
L 1479.584399 1355.814877 
L 1477.1739 1356.966422 
L 1474.712832 1357.973441 
L 1472.201707 1358.834406 
L 1469.641382 1359.548605 
L 1467.033053 1360.116166 
L 1464.378236 1360.538082 
L 1460.312917 1360.9022 
L 1456.15449 1360.953048 
L 1451.911492 1360.705058 
L 1447.593439 1360.176939 
L 1443.210564 1359.391454 
L 1438.773539 1358.375106 
L 1434.293192 1357.157738 
L 1428.270476 1355.278784 
L 1420.69723 1352.637808 
L 1398.042887 1344.444374 
L 1392.08017 1342.605164 
L 1387.637056 1341.415075 
L 1383.218506 1340.417108 
L 1378.823014 1339.634015 
L 1374.448 1339.084362 
L 1370.089954 1338.782245 
L 1365.744608 1338.737091 
L 1361.407128 1338.95354 
L 1357.072318 1339.43141 
L 1352.734849 1340.165752 
L 1348.389481 1341.146978 
L 1344.031308 1342.361063 
L 1339.655995 1343.789824 
L 1333.78963 1345.990235 
L 1327.881248 1348.471312 
L 1320.435278 1351.859393 
L 1296.348624 1363.081116 
L 1290.367715 1365.542162 
L 1284.464516 1367.705469 
L 1280.112143 1369.089587 
L 1275.844553 1370.239021 
L 1271.681289 1371.129412 
L 1267.642559 1371.739424 
L 1263.748861 1372.05094 
L 1260.020567 1372.049206 
L 1258.818007 1371.976963 
L 1258.818007 1371.976963 
" clip-path="url(#p476b8c6c63)" style="fill: none; stroke: #4169e1; stroke-width: 3; stroke-linecap: square"/>
   </g>
   <g id="line2d_2">
    <path d="M 1236.631469 1420.037184 
L 1234.655766 1419.656369 
L 1232.760399 1419.102874 
L 1230.949722 1418.375402 
L 1229.22776 1417.473445 
L 1227.598167 1416.397259 
L 1226.064173 1415.147851 
L 1224.628546 1413.726949 
L 1223.293544 1412.13698 
L 1222.060884 1410.381033 
L 1220.931708 1408.462827 
L 1219.906554 1406.38667 
L 1218.985334 1404.157425 
L 1217.796601 1400.538391 
L 1216.834686 1396.607137 
L 1216.091014 1392.385706 
L 1215.553714 1387.897797 
L 1215.207719 1383.168411 
L 1215.034948 1378.223503 
L 1215.037617 1371.341024 
L 1215.254682 1364.186391 
L 1215.84415 1353.082687 
L 1217.043638 1332.186828 
L 1217.318764 1322.714593 
L 1217.292539 1315.242612 
L 1217.08999 1309.72968 
L 1216.705687 1304.314066 
L 1216.119875 1299.01187 
L 1215.315604 1293.838117 
L 1214.278935 1288.806859 
L 1212.999096 1283.931276 
L 1211.468579 1279.223801 
L 1209.683186 1274.69624 
L 1207.642031 1270.359891 
L 1205.347477 1266.225661 
L 1202.805038 1262.304169 
L 1200.023225 1258.605827 
L 1197.013354 1255.140906 
L 1193.789313 1251.919574 
L 1190.36729 1248.951905 
L 1186.765469 1246.247858 
L 1183.003701 1243.817227 
L 1179.103146 1241.669552 
L 1175.085899 1239.814006 
L 1170.974605 1238.259245 
L 1166.792062 1237.013235 
L 1162.560831 1236.083052 
L 1158.302842 1235.474654 
L 1154.03903 1235.192641 
L 1149.788975 1235.240004 
L 1145.570586 1235.617862 
L 1141.399808 1236.325202 
L 1137.290385 1237.358629 
L 1133.253666 1238.712135 
L 1129.298465 1240.376889 
L 1125.430988 1242.341064 
L 1121.654817 1244.589712 
L 1117.970964 1247.10468 
L 1114.377986 1249.864594 
L 1110.872169 1252.844896 
L 1107.447775 1256.017954 
L 1102.995456 1260.495372 
L 1098.653104 1265.181261 
L 1092.29287 1272.409806 
L 1082.935147 1283.074364 
L 1078.792718 1287.497097 
L 1074.640204 1291.590445 
L 1071.515374 1294.390475 
L 1068.381678 1296.919954 
L 1065.241921 1299.146613 
L 1062.101476 1301.041384 
L 1058.968244 1302.578793 
L 1056.88843 1303.394382 
L 1054.819978 1304.03611 
L 1052.766913 1304.499459 
L 1050.733632 1304.780777 
L 1048.724856 1304.877288 
L 1046.745587 1304.787094 
L 1044.801052 1304.509169 
L 1042.896653 1304.043346 
L 1041.037903 1303.390296 
L 1039.230373 1302.551502 
L 1037.479628 1301.529228 
L 1035.791168 1300.326472 
L 1034.170371 1298.946928 
L 1032.622431 1297.394932 
L 1031.152306 1295.675408 
L 1029.764665 1293.793809 
L 1028.463835 1291.756057 
L 1027.253762 1289.568478 
L 1025.616398 1286.020841 
L 1024.20096 1282.174729 
L 1023.014824 1278.054594 
L 1022.062676 1273.685272 
L 1021.346431 1269.09151 
L 1020.865213 1264.297521 
L 1020.615403 1259.326583 
L 1020.590736 1254.200688 
L 1020.782465 1248.940242 
L 1021.179552 1243.563834 
L 1021.768911 1238.088068 
L 1022.827878 1230.657286 
L 1024.162743 1223.104052 
L 1025.730655 1215.450557 
L 1027.949251 1205.767113 
L 1031.37529 1192.028296 
L 1037.954629 1166.041709 
L 1040.756514 1153.87989 
L 1042.845972 1143.695778 
L 1044.30891 1135.539243 
L 1045.552717 1127.398824 
L 1046.548999 1119.302708 
L 1047.271916 1111.284276 
L 1047.698215 1103.38155 
L 1047.810796 1097.555462 
L 1047.737223 1091.836542 
L 1047.470733 1086.2439 
L 1047.005507 1080.796752 
L 1046.336698 1075.514016 
L 1045.460469 1070.413905 
L 1044.374018 1065.513517 
L 1043.075603 1060.828437 
L 1041.564555 1056.372376 
L 1039.841281 1052.15684 
L 1037.90726 1048.190857 
L 1035.765024 1044.480764 
L 1033.418131 1041.030065 
L 1030.87113 1037.839368 
L 1028.129513 1034.906393 
L 1025.199664 1032.22608 
L 1022.088805 1029.790759 
L 1018.804939 1027.590412 
L 1015.356793 1025.613004 
L 1011.753771 1023.844874 
L 1008.005904 1022.271189 
L 1004.123812 1020.876426 
L 1000.118674 1019.644897 
L 994.607407 1018.230401 
L 988.927477 1017.045288 
L 983.109686 1016.060764 
L 977.186408 1015.254735 
L 969.685754 1014.477861 
L 962.142678 1013.951953 
L 954.629451 1013.693744 
L 948.690226 1013.705714 
L 942.855953 1013.943322 
L 937.164545 1014.442589 
L 933.011893 1015.013084 
L 928.97504 1015.771687 
L 925.067832 1016.73669 
L 921.302964 1017.925966 
L 917.691735 1019.356382 
L 914.243795 1021.043229 
L 910.966911 1022.999697 
L 908.880246 1024.459154 
L 906.873294 1026.045634 
L 904.946706 1027.760916 
L 903.100639 1029.606097 
L 900.48162 1032.618078 
L 898.039541 1035.921225 
L 895.76845 1039.509917 
L 893.659813 1043.374706 
L 891.702604 1047.502395 
L 889.883455 1051.876203 
L 888.18686 1056.475999 
L 886.085095 1062.920159 
L 884.124727 1069.662438 
L 881.341851 1080.182838 
L 876.214794 1099.967561 
L 873.654349 1108.820491 
L 871.42501 1115.700259 
L 868.999654 1122.32549 
L 867.03679 1127.089244 
L 864.9419 1131.649974 
L 862.709781 1135.98557 
L 860.337647 1140.076223 
L 857.825029 1143.904524 
L 855.173617 1147.455546 
L 852.387057 1150.716892 
L 849.470705 1153.678734 
L 846.431349 1156.333827 
L 843.276908 1158.67751 
L 840.01612 1160.707691 
L 836.658231 1162.42481 
L 833.212692 1163.83179 
L 829.688875 1164.933969 
L 826.09582 1165.739004 
L 822.442009 1166.256755 
L 818.73519 1166.499143 
L 814.982242 1166.479973 
L 811.189085 1166.214733 
L 807.360647 1165.720353 
L 803.500868 1165.01494 
L 799.612757 1164.11747 
L 794.388193 1162.655864 
L 789.120335 1160.934185 
L 782.477261 1158.485703 
L 774.422958 1155.221335 
L 764.920404 1151.114076 
L 751.198873 1144.925155 
L 738.825646 1139.106405 
L 730.664747 1135.03216 
L 723.983147 1131.445262 
L 718.752975 1128.402878 
L 713.655743 1125.166159 
L 709.937586 1122.587832 
L 706.32299 1119.862473 
L 702.824244 1116.974946 
L 699.453405 1113.911407 
L 696.222178 1110.659735 
L 693.141815 1107.209915 
L 690.22303 1103.554383 
L 687.475937 1099.688292 
L 684.910004 1095.609734 
L 682.534028 1091.319879 
L 680.356125 1086.823052 
L 678.383731 1082.12674 
L 676.623613 1077.241533 
L 675.081889 1072.181003 
L 673.764041 1066.961527 
L 672.674933 1061.602073 
L 671.818817 1056.123927 
L 671.199331 1050.550411 
L 670.81949 1044.906566 
L 670.681656 1039.218824 
L 670.787499 1033.514681 
L 671.137946 1027.822363 
L 671.733115 1022.170511 
L 672.572246 1016.58787 
L 673.653619 1011.103 
L 674.97448 1005.744011 
L 676.530961 1000.538306 
L 678.318017 995.512364 
L 680.329374 990.691524 
L 682.557489 986.099803 
L 684.993542 981.759722 
L 687.627444 977.692147 
L 690.447882 973.916143 
L 693.442392 970.448833 
L 695.528803 968.31631 
L 697.682355 966.331639 
L 699.898652 964.498287 
L 702.173161 962.819256 
L 704.50124 961.297059 
L 706.878165 959.933714 
L 709.299157 958.73072 
L 711.759418 957.689048 
L 714.25416 956.809127 
L 716.77864 956.090828 
L 719.328191 955.533455 
L 721.898256 955.135736 
L 724.484421 954.895814 
L 727.082447 954.811241 
L 729.688298 954.878977 
L 733.603498 955.258051 
L 737.516086 955.956756 
L 741.415821 956.957412 
L 745.294074 958.239502 
L 749.143925 959.779814 
L 752.960223 961.552626 
L 756.73959 963.529939 
L 761.718701 966.432369 
L 766.630067 969.569227 
L 772.682465 973.698797 
L 788.115163 984.429044 
L 792.830001 987.421588 
L 797.553878 990.142475 
L 801.109947 991.967195 
L 804.681766 993.580728 
L 808.272144 994.962561 
L 811.88259 996.095051 
L 815.513197 996.963485 
L 819.16255 997.556067 
L 822.827681 997.863851 
L 826.504068 997.880601 
L 830.185667 997.602616 
L 833.864985 997.028493 
L 837.533184 996.158864 
L 841.180226 994.996109 
L 844.795039 993.544048 
L 848.365709 991.807636 
L 851.879692 989.79266 
L 855.324043 987.505464 
L 858.685652 984.952689 
L 861.951488 982.141062 
L 865.108843 979.077217 
L 868.145571 975.767573 
L 871.050324 972.218256 
L 873.812773 968.435081 
L 876.423819 964.423583 
L 878.875783 960.189097 
L 881.162585 955.736887 
L 883.279891 951.072309 
L 885.225248 946.201015 
L 886.998184 941.129167 
L 888.600295 935.863672 
L 890.035286 930.412419 
L 891.309001 924.7845 
L 892.429413 918.99042 
L 893.70251 911.027645 
L 894.750592 902.824622 
L 895.608998 894.420576 
L 896.477681 883.701966 
L 897.609849 866.299832 
L 898.782064 848.999584 
L 899.723055 838.462111 
L 900.673838 830.285295 
L 901.853231 822.398994 
L 902.914681 816.708828 
L 904.146692 811.235295 
L 905.564336 805.997831 
L 907.18067 801.013446 
L 909.006574 796.296489 
L 911.050636 791.858472 
L 912.537711 789.059108 
L 914.125805 786.389372 
L 915.815689 783.850458 
L 917.607661 781.442967 
L 919.501555 779.166919 
L 921.496751 777.021765 
L 923.592185 775.006408 
L 925.786376 773.119229 
L 928.077438 771.358112 
L 930.463105 769.720477 
L 934.213173 767.488862 
L 938.159958 765.516447 
L 942.291859 763.789772 
L 946.596097 762.293999 
L 951.058962 761.013226 
L 955.666064 759.930793 
L 960.402579 759.029581 
L 965.253486 758.292279 
L 971.873419 757.534401 
L 978.635254 756.997235 
L 987.236423 756.577756 
L 995.946672 756.372811 
L 1008.221833 756.324862 
L 1049.583409 756.402794 
L 1059.493712 756.086128 
L 1067.567861 755.61616 
L 1075.456886 754.917774 
L 1081.6246 754.169344 
L 1087.656867 753.232166 
L 1093.54697 752.088638 
L 1099.288889 750.722399 
L 1104.87752 749.118655 
L 1110.308938 747.264519 
L 1114.277782 745.703092 
L 1118.156353 743.991193 
L 1121.944841 742.126108 
L 1125.644093 740.106044 
L 1129.255656 737.930183 
L 1132.7818 735.598731 
L 1136.225536 733.112961 
L 1140.695563 729.562827 
L 1145.036644 725.751537 
L 1149.261664 721.691703 
L 1153.385301 717.399886 
L 1157.423659 712.896781 
L 1162.377767 707.009326 
L 1168.230341 699.644336 
L 1177.908411 686.976097 
L 1185.712074 676.910143 
L 1190.657576 670.864808 
L 1194.660651 666.262963 
L 1198.706566 661.940009 
L 1202.792876 657.962395 
L 1205.880663 655.245764 
L 1208.984091 652.788192 
L 1212.098294 650.616248 
L 1215.217378 648.75521 
L 1218.334473 647.228658 
L 1221.441796 646.05807 
L 1223.503688 645.484926 
L 1225.554667 645.083417 
L 1227.591845 644.857864 
L 1229.6122 644.811933 
L 1231.612593 644.948593 
L 1233.58978 645.270092 
L 1235.540421 645.777916 
L 1237.461095 646.472774 
L 1239.348313 647.354577 
L 1241.198529 648.422425 
L 1243.008156 649.674604 
L 1244.773576 651.108589 
L 1246.49116 652.721048 
L 1248.157273 654.507862 
L 1249.768297 656.464143 
L 1252.073694 659.703821 
L 1254.235142 663.290079 
L 1256.241046 667.19779 
L 1258.080266 671.398993 
L 1259.742234 675.863337 
L 1261.217093 680.558578 
L 1262.495815 685.451106 
L 1263.570342 690.506498 
L 1264.433709 695.690093 
L 1265.080173 700.96756 
L 1265.50533 706.30546 
L 1265.706221 711.671794 
L 1265.681428 717.036509 
L 1265.43115 722.371974 
L 1264.957255 727.653395 
L 1264.263313 732.859179 
L 1263.354603 737.971232 
L 1262.238082 742.97518 
L 1260.922342 747.860522 
L 1259.417521 752.620707 
L 1257.735198 757.25312 
L 1255.888255 761.759012 
L 1253.890718 766.143337 
L 1251.019104 771.815051 
L 1247.944075 777.314691 
L 1244.704761 782.679517 
L 1240.485226 789.263628 
L 1225.695791 811.917021 
L 1222.315925 817.5912 
L 1219.037863 823.485121 
L 1215.887661 829.62841 
L 1212.889277 836.040977 
L 1210.065036 842.731913 
L 1207.43619 849.698767 
L 1205.023509 856.927211 
L 1203.368383 862.504937 
L 1201.855548 868.200142 
L 1200.494253 873.994252 
L 1199.294064 879.865617 
L 1198.264886 885.789855 
L 1197.416941 891.740274 
L 1196.760708 897.688337 
L 1196.306819 903.60418 
L 1196.065918 909.457169 
L 1196.048479 915.216485 
L 1196.264598 920.851724 
L 1196.723754 926.333509 
L 1197.434551 931.634084 
L 1198.404454 936.727905 
L 1199.639518 941.59218 
L 1200.612446 944.697712 
L 1201.706045 947.687578 
L 1202.920743 950.557678 
L 1204.25653 953.304738 
L 1205.712938 955.926354 
L 1207.289019 958.421022 
L 1208.983331 960.788157 
L 1210.793925 963.028109 
L 1212.718338 965.142167 
L 1214.753589 967.132558 
L 1216.896184 969.002431 
L 1219.142123 970.755839 
L 1222.694834 973.178581 
L 1226.452665 975.370649 
L 1230.396188 977.35599 
L 1234.503929 979.161959 
L 1238.752619 980.818791 
L 1244.593769 982.852406 
L 1253.60617 985.693435 
L 1265.749581 989.52934 
L 1271.728881 991.648351 
L 1276.120894 993.385143 
L 1280.405358 995.277843 
L 1284.558078 997.349253 
L 1288.556238 999.618369 
L 1292.378551 1002.100112 
L 1296.005382 1004.80517 
L 1299.418846 1007.739928 
L 1302.602876 1010.906516 
L 1304.591009 1013.145551 
L 1306.467084 1015.485263 
L 1308.227739 1017.923366 
L 1309.869994 1020.4569 
L 1311.391251 1023.082281 
L 1312.789294 1025.795362 
L 1314.651422 1030.019144 
L 1316.227709 1034.412303 
L 1317.515529 1038.955828 
L 1318.514216 1043.629664 
L 1319.225073 1048.413284 
L 1319.651389 1053.286236 
L 1319.798462 1058.228663 
L 1319.673616 1063.221773 
L 1319.286216 1068.248248 
L 1318.647679 1073.292578 
L 1317.771464 1078.341316 
L 1316.67306 1083.383245 
L 1315.369939 1088.409451 
L 1313.881493 1093.413306 
L 1311.645537 1100.042943 
L 1309.172964 1106.619979 
L 1305.840708 1114.767507 
L 1300.247768 1127.65215 
L 1295.458788 1138.800757 
L 1292.309103 1146.698377 
L 1290.04895 1152.970563 
L 1288.084304 1159.189561 
L 1286.837425 1163.808269 
L 1285.807533 1168.377111 
L 1285.01253 1172.884362 
L 1284.467716 1177.316711 
L 1284.185614 1181.659574 
L 1284.17585 1185.897468 
L 1284.445072 1190.014451 
L 1284.996924 1193.994595 
L 1285.832062 1197.822481 
L 1286.948225 1201.483701 
L 1288.340347 1204.965336 
L 1290.000713 1208.256398 
L 1291.919156 1211.348223 
L 1294.083287 1214.234789 
L 1296.478755 1216.912941 
L 1299.089533 1219.382539 
L 1301.898223 1221.646481 
L 1304.886366 1223.710635 
L 1308.034774 1225.58366 
L 1311.32385 1227.27673 
L 1314.733912 1228.803163 
L 1319.435307 1230.605343 
L 1324.272744 1232.176797 
L 1329.204531 1233.557667 
L 1335.444768 1235.075248 
L 1344.212191 1236.931179 
L 1356.585612 1239.273794 
L 1369.833006 1241.560283 
L 1378.093777 1242.775867 
L 1385.130484 1243.576521 
L 1391.007035 1244.021033 
L 1396.931214 1244.230619 
L 1402.93276 1244.191198 
L 1409.033174 1243.909537 
L 1416.496511 1243.296541 
L 1426.661823 1242.184586 
L 1438.226595 1240.949544 
L 1444.586907 1240.492602 
L 1449.571976 1240.343732 
L 1454.412931 1240.448502 
L 1457.918065 1240.724741 
L 1461.290773 1241.192143 
L 1464.508786 1241.867648 
L 1467.550368 1242.765479 
L 1470.394782 1243.896956 
L 1473.022751 1245.270405 
L 1474.645802 1246.323223 
L 1476.16027 1247.486875 
L 1477.562044 1248.761668 
L 1478.847549 1250.147378 
L 1480.013783 1251.64329 
L 1481.058342 1253.248229 
L 1481.979447 1254.960603 
L 1482.775956 1256.778446 
L 1483.447372 1258.699459 
L 1484.22045 1261.768711 
L 1484.715742 1265.054551 
L 1484.93954 1268.546411 
L 1484.901037 1272.233126 
L 1484.612049 1276.103196 
L 1484.08667 1280.144981 
L 1483.340866 1284.346841 
L 1482.03379 1290.178359 
L 1480.409527 1296.246725 
L 1478.512673 1302.52474 
L 1475.824326 1310.624651 
L 1472.234713 1320.638166 
L 1467.683275 1332.582452 
L 1462.852267 1344.605108 
L 1458.530525 1354.777296 
L 1454.80074 1363.015261 
L 1451.721743 1369.36126 
L 1448.54445 1375.418118 
L 1445.253769 1381.118007 
L 1442.701819 1385.118226 
L 1440.070719 1388.852573 
L 1437.354566 1392.295293 
L 1434.548302 1395.42274 
L 1431.647954 1398.213963 
L 1429.660733 1399.87909 
L 1427.630017 1401.382492 
L 1425.555645 1402.720632 
L 1423.437757 1403.890827 
L 1421.276791 1404.891302 
L 1419.073486 1405.721228 
L 1416.828871 1406.380756 
L 1414.544251 1406.871038 
L 1412.221196 1407.194247 
L 1409.861518 1407.353578 
L 1407.46725 1407.353245 
L 1405.040619 1407.198471 
L 1401.345266 1406.69057 
L 1397.591142 1405.874281 
L 1393.787329 1404.778997 
L 1389.943129 1403.438161 
L 1384.77071 1401.33275 
L 1379.564155 1398.95231 
L 1371.73239 1395.089766 
L 1361.330918 1389.946565 
L 1356.172621 1387.607598 
L 1351.050757 1385.548337 
L 1347.234334 1384.236604 
L 1343.438728 1383.157453 
L 1339.662321 1382.335744 
L 1335.902611 1381.791352 
L 1332.156344 1381.53887 
L 1328.419665 1381.587408 
L 1324.68829 1381.940489 
L 1320.957687 1382.596046 
L 1317.223274 1383.546507 
L 1313.480614 1384.778983 
L 1309.725627 1386.275527 
L 1305.95479 1388.013479 
L 1302.165345 1389.965881 
L 1297.080847 1392.848988 
L 1290.673168 1396.786068 
L 1269.945235 1409.826141 
L 1264.798323 1412.685972 
L 1260.9802 1414.608444 
L 1257.214011 1416.300891 
L 1253.515356 1417.730792 
L 1249.900795 1418.868733 
L 1246.387561 1419.688722 
L 1242.993249 1420.168438 
L 1240.805148 1420.289927 
L 1238.68288 1420.247406 
L 1237.64801 1420.163457 
L 1237.64801 1420.163457 
" clip-path="url(#p476b8c6c63)" style="fill: none; stroke: #ff8c00; stroke-width: 3; stroke-linecap: square"/>
   </g>
  </g>
 </g>
 <defs>
  <clipPath id="p476b8c6c63">
   <rect x="270" y="259.2" width="1674" height="1630.8"/>
  </clipPath>
 </defs>
</svg>
