<?xml version="1.0" encoding="utf-8" standalone="no"?>
<!DOCTYPE svg PUBLIC "-//W3C//DTD SVG 1.1//EN"
  "http://www.w3.org/Graphics/SVG/1.1/DTD/svg11.dtd">
<svg xmlns:xlink="http://www.w3.org/1999/xlink" width="2160pt" height="2160pt" viewBox="0 0 2160 2160" xmlns="http://www.w3.org/2000/svg" version="1.1">
 <metadata>
  <rdf:RDF xmlns:dc="http://purl.org/dc/elements/1.1/" xmlns:cc="http://creativecommons.org/ns#" xmlns:rdf="http://www.w3.org/1999/02/22-rdf-syntax-ns#">
   <cc:Work>
    <dc:type rdf:resource="http://purl.org/dc/dcmitype/StillImage"/>
    <dc:date>2022-03-06T19:21:03.432877</dc:date>
    <dc:format>image/svg+xml</dc:format>
    <dc:creator>
     <cc:Agent>
      <dc:title>Matplotlib v3.5.1, https://matplotlib.org/</dc:title>
     </cc:Agent>
    </dc:creator>
   </cc:Work>
  </rdf:RDF>
 </metadata>
 <defs>
  <style type="text/css">*{stroke-linejoin: round; stroke-linecap: butt}</style>
 </defs>
 <g id="figure_1">
  <g id="patch_1">
   <path d="M 0 2160 
L 2160 2160 
L 2160 0 
L 0 0 
L 0 2160 
z
" style="fill: none"/>
  </g>
  <g id="axes_1">
   <g id="line2d_1">
    <path d="M 1257.636748 1371.868297 
L 1255.340905 1371.540585 
L 1253.138416 1371.06427 
L 1251.034339 1370.43824 
L 1249.033353 1369.662054 
L 1247.139704 1368.735935 
L 1245.357144 1367.660749 
L 1243.68889 1366.437982 
L 1242.137566 1365.069724 
L 1240.705168 1363.558632 
L 1239.393022 1361.907906 
L 1238.201754 1360.121256 
L 1237.131261 1358.202864 
L 1236.180693 1356.157351 
L 1235.348441 1353.98974 
L 1234.316492 1350.521251 
L 1233.533973 1346.809702 
L 1232.985834 1342.875897 
L 1232.653373 1338.741655 
L 1232.514466 1334.429522 
L 1232.586292 1328.443058 
L 1232.889706 1322.236104 
L 1233.615312 1312.630981 
L 1234.774959 1297.907102 
L 1235.107597 1291.365851 
L 1235.216435 1284.888656 
L 1235.107636 1280.096815 
L 1234.804605 1275.378941 
L 1234.282372 1270.74954 
L 1233.519036 1266.22215 
L 1232.496045 1261.809412 
L 1231.198411 1257.523158 
L 1229.614869 1253.374505 
L 1227.737975 1249.373959 
L 1226.321808 1246.794168 
L 1224.77347 1244.287516 
L 1223.093595 1241.856799 
L 1221.283547 1239.504755 
L 1219.345404 1237.23408 
L 1217.281933 1235.047435 
L 1213.959407 1231.930782 
L 1210.376932 1229.017927 
L 1206.551573 1226.317592 
L 1202.502954 1223.838419 
L 1198.252898 1221.588936 
L 1193.825025 1219.577507 
L 1189.244337 1217.812251 
L 1184.536771 1216.300927 
L 1179.728752 1215.050805 
L 1174.846731 1214.068506 
L 1169.91673 1213.359819 
L 1164.963895 1212.929506 
L 1160.012071 1212.781089 
L 1155.083403 1212.91663 
L 1150.197977 1213.336505 
L 1145.373497 1214.039181 
L 1140.625029 1215.021011 
L 1135.964793 1216.27603 
L 1131.402027 1217.795797 
L 1126.942924 1219.569247 
L 1122.590641 1221.582603 
L 1118.345383 1223.81932 
L 1114.204568 1226.260082 
L 1110.163062 1228.882863 
L 1106.213481 1231.663031 
L 1101.074144 1235.567635 
L 1094.816851 1240.666389 
L 1075.42612 1256.882001 
L 1070.604637 1260.482807 
L 1066.977112 1262.963406 
L 1063.338855 1265.220985 
L 1059.692139 1267.226939 
L 1056.042211 1268.955295 
L 1052.397283 1270.383065 
L 1048.76843 1271.490548 
L 1045.169395 1272.261562 
L 1042.794486 1272.582322 
L 1040.445265 1272.745145 
L 1038.12739 1272.748021 
L 1035.846811 1272.589691 
L 1033.609712 1272.269644 
L 1031.422443 1271.788101 
L 1029.291454 1271.145991 
L 1027.223222 1270.34493 
L 1025.224187 1269.387186 
L 1023.300675 1268.275645 
L 1021.458839 1267.013768 
L 1019.704586 1265.605544 
L 1018.043514 1264.055446 
L 1016.480858 1262.368374 
L 1015.021432 1260.549606 
L 1013.669579 1258.604738 
L 1012.429127 1256.53963 
L 1011.303352 1254.36035 
L 1010.294948 1252.073111 
L 1009.006799 1248.453642 
L 1007.991656 1244.626861 
L 1007.250661 1240.61395 
L 1006.781725 1236.435515 
L 1006.579599 1232.111251 
L 1006.636022 1227.659654 
L 1006.939911 1223.097782 
L 1007.477616 1218.441077 
L 1008.233201 1213.703235 
L 1009.18876 1208.89615 
L 1010.739925 1202.396163 
L 1012.561898 1195.809896 
L 1015.139992 1187.476743 
L 1018.535188 1177.352894 
L 1027.329707 1151.551684 
L 1030.022524 1142.824844 
L 1031.989917 1135.815395 
L 1033.748066 1128.796012 
L 1035.260285 1121.785159 
L 1036.492843 1114.805937 
L 1037.21511 1109.608743 
L 1037.750817 1104.458024 
L 1038.089047 1099.368157 
L 1038.21987 1094.354478 
L 1038.134376 1089.433022 
L 1037.824705 1084.620237 
L 1037.284094 1079.932656 
L 1036.506912 1075.386562 
L 1035.4887 1070.997628 
L 1034.226202 1066.780566 
L 1032.717395 1062.748789 
L 1030.961499 1058.914096 
L 1028.958988 1055.286388 
L 1026.711581 1051.873434 
L 1024.22222 1048.680688 
L 1021.495041 1045.711166 
L 1018.535328 1042.96539 
L 1015.349464 1040.441399 
L 1011.944867 1038.134838 
L 1008.329929 1036.039105 
L 1004.51395 1034.145582 
L 1000.507072 1032.44391 
L 996.320222 1030.922334 
L 991.965057 1029.568089 
L 987.453916 1028.367816 
L 981.218978 1026.983667 
L 974.762421 1025.818343 
L 968.118647 1024.843764 
L 959.606057 1023.858575 
L 950.932502 1023.10311 
L 942.17697 1022.56356 
L 933.422181 1022.246192 
L 924.753667 1022.177331 
L 917.939364 1022.330551 
L 911.280154 1022.700751 
L 904.819134 1023.322077 
L 900.128156 1023.974898 
L 895.58783 1024.805339 
L 891.212909 1025.828778 
L 887.016522 1027.059732 
L 883.009883 1028.51136 
L 879.202018 1030.195011 
L 875.599516 1032.119812 
L 872.206309 1034.292311 
L 869.023494 1036.716184 
L 866.049211 1039.39202 
L 863.27857 1042.317175 
L 860.703649 1045.485712 
L 858.313549 1048.888413 
L 856.094529 1052.512875 
L 854.030195 1056.34367 
L 852.101766 1060.362571 
L 849.705645 1065.977539 
L 847.459944 1071.834723 
L 844.247142 1080.941351 
L 838.818722 1096.430226 
L 836.45963 1102.541154 
L 833.920492 1108.507305 
L 831.87411 1112.850688 
L 829.690702 1117.055146 
L 827.359486 1121.09862 
L 824.872519 1124.960825 
L 822.224701 1128.623383 
L 819.413707 1132.069926 
L 816.439851 1135.286179 
L 813.305883 1138.260017 
L 810.016738 1140.981507 
L 806.579232 1143.442931 
L 803.001729 1145.638797 
L 799.293789 1147.565832 
L 795.465803 1149.222967 
L 791.528634 1150.611297 
L 787.493269 1151.73404 
L 783.370499 1152.596463 
L 779.170641 1153.2058 
L 774.903286 1153.571143 
L 770.577117 1153.703307 
L 766.199765 1153.614678 
L 761.777726 1153.319021 
L 757.31634 1152.83127 
L 751.313741 1151.909637 
L 745.255683 1150.714062 
L 739.14656 1149.284672 
L 731.441919 1147.229351 
L 722.099675 1144.4644 
L 709.490365 1140.444704 
L 691.945338 1134.573123 
L 677.577834 1129.538765 
L 668.118897 1126.001932 
L 660.387627 1122.877912 
L 654.345448 1120.221061 
L 648.466162 1117.38867 
L 642.783762 1114.347584 
L 638.671638 1111.910608 
L 634.703514 1109.325988 
L 630.893145 1106.582759 
L 627.253792 1103.671665 
L 623.798124 1100.585465 
L 620.538132 1097.319184 
L 617.485073 1093.870321 
L 614.649431 1090.238989 
L 612.040902 1086.428003 
L 609.668389 1082.4429 
L 607.540014 1078.291914 
L 605.663134 1073.985882 
L 604.044363 1069.538113 
L 602.689592 1064.96421 
L 601.603998 1060.281852 
L 600.792049 1055.510556 
L 600.257491 1050.671407 
L 600.003325 1045.786784 
L 600.031767 1040.880077 
L 600.34419 1035.975395 
L 600.941053 1031.097299 
L 601.821823 1026.270522 
L 602.984883 1021.519724 
L 604.427443 1016.869246 
L 606.14545 1012.342897 
L 608.133504 1007.963748 
L 610.384797 1003.753952 
L 612.891057 999.734572 
L 615.642531 995.925435 
L 618.627981 992.344985 
L 621.834731 989.010159 
L 625.248728 985.936263 
L 627.632349 984.03873 
L 630.096476 982.266793 
L 632.636092 980.623632 
L 635.246003 979.112033 
L 637.920877 977.734369 
L 642.043053 975.923154 
L 646.280442 974.422314 
L 650.614243 973.23427 
L 655.025816 972.359054 
L 659.496976 971.794222 
L 664.010279 971.534806 
L 668.549305 971.573267 
L 673.098917 971.899481 
L 677.645495 972.500756 
L 682.177137 973.361878 
L 686.683815 974.465189 
L 691.157491 975.790715 
L 695.592176 977.316321 
L 699.983945 979.017911 
L 705.769864 981.515616 
L 711.477059 984.21506 
L 719.904987 988.492506 
L 736.443566 997.002776 
L 741.922389 999.57803 
L 747.411716 1001.919508 
L 751.544005 1003.489782 
L 755.694596 1004.878319 
L 759.866753 1006.067465 
L 764.06223 1007.042037 
L 768.281135 1007.789373 
L 772.521823 1008.299324 
L 776.780846 1008.56419 
L 781.052949 1008.578604 
L 785.331109 1008.339382 
L 789.606617 1007.845316 
L 793.869206 1007.096951 
L 798.107209 1006.096335 
L 802.307761 1004.846754 
L 806.457016 1003.352473 
L 810.540399 1001.618472 
L 814.542867 999.65021 
L 818.449186 997.453403 
L 822.244213 995.033838 
L 825.913181 992.397226 
L 829.441975 989.549089 
L 832.81741 986.4947 
L 836.027482 983.239063 
L 839.061617 979.786941 
L 841.910895 976.142926 
L 844.568246 972.311547 
L 847.028637 968.297413 
L 849.289216 964.105388 
L 851.349437 959.740775 
L 853.211151 955.209518 
L 854.878665 950.518405 
L 856.358771 945.675262 
L 857.660733 940.689127 
L 858.796244 935.570403 
L 860.075933 928.559954 
L 861.124335 921.367605 
L 862.179885 912.178984 
L 863.207922 900.974025 
L 865.042757 880.458041 
L 865.895017 873.182147 
L 866.942082 866.091023 
L 867.889768 860.925664 
L 869.00187 855.914885 
L 870.299299 851.078338 
L 871.801013 846.434009 
L 873.523768 841.997953 
L 875.48191 837.784065 
L 876.924031 835.104037 
L 878.47888 832.530748 
L 880.148733 830.066506 
L 881.935319 827.71311 
L 883.839809 825.471845 
L 885.862825 823.343481 
L 888.004442 821.328284 
L 890.264201 819.426025 
L 892.64112 817.635994 
L 895.133721 815.957019 
L 897.740041 814.387489 
L 901.857344 812.233871 
L 906.215068 810.31344 
L 910.801384 808.616065 
L 915.602811 807.130163 
L 920.604502 805.842965 
L 925.790522 804.740787 
L 931.144151 803.809293 
L 936.648163 803.033748 
L 944.190607 802.216536 
L 951.928189 801.615009 
L 961.813615 801.114484 
L 971.867284 800.834336 
L 984.058937 800.706968 
L 1002.39851 800.756758 
L 1032.46304 800.852902 
L 1046.070938 800.662797 
L 1057.450138 800.279828 
L 1066.705718 799.761384 
L 1075.735466 799.026872 
L 1082.7853 798.26244 
L 1089.671817 797.32413 
L 1096.387798 796.197568 
L 1102.92702 794.869661 
L 1109.284549 793.32888 
L 1115.457062 791.565548 
L 1121.443166 789.572099 
L 1127.243689 787.343311 
L 1132.861927 784.876519 
L 1138.303803 782.171798 
L 1143.577943 779.232122 
L 1148.695638 776.063511 
L 1153.670696 772.675171 
L 1158.51918 769.079637 
L 1163.259032 765.292917 
L 1169.060659 760.32096 
L 1174.76237 755.128056 
L 1182.652218 747.596449 
L 1198.466455 732.365312 
L 1204.213318 727.162959 
L 1208.865045 723.20281 
L 1213.566554 719.482663 
L 1218.315003 716.0597 
L 1221.90313 713.721885 
L 1225.509433 711.607005 
L 1229.128256 709.737924 
L 1232.752752 708.136395 
L 1236.374936 706.82271 
L 1239.985765 705.815353 
L 1243.575211 705.130662 
L 1245.950939 704.86042 
L 1248.308891 704.743249 
L 1250.645487 704.782006 
L 1252.957016 704.978941 
L 1255.239651 705.335662 
L 1257.489462 705.853117 
L 1259.702431 706.531573 
L 1261.874471 707.370605 
L 1264.001433 708.369091 
L 1266.079131 709.525205 
L 1268.103351 710.836425 
L 1270.069871 712.299543 
L 1271.974475 713.910682 
L 1273.81297 715.665315 
L 1276.437696 718.554897 
L 1278.890606 721.735816 
L 1281.158388 725.185595 
L 1283.228301 728.879442 
L 1285.088324 732.790648 
L 1286.727307 736.89102 
L 1288.135118 741.151347 
L 1289.302799 745.541885 
L 1290.222716 750.032844 
L 1290.888698 754.594884 
L 1291.296173 759.199592 
L 1291.44229 763.819942 
L 1291.326019 768.430722 
L 1290.94823 773.00893 
L 1290.311753 777.534116 
L 1289.421398 781.988677 
L 1288.283953 786.35809 
L 1286.908146 790.631086 
L 1285.304571 794.799757 
L 1283.485583 798.859598 
L 1281.465162 802.809479 
L 1279.25874 806.651557 
L 1276.883016 810.391118 
L 1274.355733 814.036371 
L 1270.782431 818.769123 
L 1267.018224 823.38586 
L 1262.114962 829.051862 
L 1244.929069 848.546392 
L 1241.001535 853.429345 
L 1237.192301 858.501398 
L 1233.531646 863.788047 
L 1230.047409 869.306424 
L 1227.565664 873.602356 
L 1225.208226 878.032891 
L 1222.985315 882.594452 
L 1220.907084 887.280214 
L 1218.983764 892.080164 
L 1217.225791 896.981211 
L 1215.643914 901.967372 
L 1214.249249 907.020013 
L 1213.053304 912.118157 
L 1212.06796 917.23883 
L 1211.305392 922.357475 
L 1210.777955 927.448394 
L 1210.498019 932.485223 
L 1210.477754 937.441441 
L 1210.728893 942.290885 
L 1211.26245 947.008271 
L 1212.088423 951.569718 
L 1212.805874 954.513099 
L 1213.659355 957.371408 
L 1214.650679 960.139224 
L 1215.781259 962.81171 
L 1217.052064 965.38466 
L 1218.463589 967.854543 
L 1220.015825 970.218544 
L 1221.708226 972.474594 
L 1223.539693 974.621398 
L 1225.508549 976.658451 
L 1227.612529 978.586057 
L 1229.84877 980.405324 
L 1232.21381 982.118168 
L 1234.703589 983.7273 
L 1238.661813 985.954372 
L 1242.872003 987.971017 
L 1247.313305 989.795673 
L 1251.962322 991.449971 
L 1256.793369 992.958329 
L 1263.469864 994.788944 
L 1272.094159 996.883625 
L 1293.22212 1001.83237 
L 1300.13461 1003.700032 
L 1306.859771 1005.779674 
L 1311.73945 1007.508993 
L 1316.448174 1009.40338 
L 1320.960595 1011.476865 
L 1325.253243 1013.739868 
L 1329.304647 1016.199121 
L 1333.095423 1018.857667 
L 1336.608345 1021.71496 
L 1338.788416 1023.728414 
L 1340.834364 1025.826541 
L 1342.742728 1028.006791 
L 1344.510488 1030.26608 
L 1346.135066 1032.60084 
L 1347.614334 1035.007075 
L 1348.946603 1037.48042 
L 1350.130637 1040.016207 
L 1351.165642 1042.609522 
L 1352.051276 1045.255277 
L 1352.787647 1047.948269 
L 1353.375317 1050.683249 
L 1353.815304 1053.454979 
L 1354.201736 1057.670221 
L 1354.266251 1061.939739 
L 1354.018149 1066.247749 
L 1353.469107 1070.579837 
L 1352.633184 1074.923227 
L 1351.52681 1079.266974 
L 1350.168758 1083.602084 
L 1348.580085 1087.921547 
L 1346.784047 1092.220297 
L 1344.110829 1097.914387 
L 1341.179496 1103.562825 
L 1337.260164 1110.560685 
L 1323.038568 1135.289505 
L 1320.336918 1140.696726 
L 1318.521408 1144.724782 
L 1316.917331 1148.723211 
L 1315.54997 1152.684596 
L 1314.442013 1156.599869 
L 1313.613279 1160.458461 
L 1313.080491 1164.24852 
L 1312.857093 1167.957197 
L 1312.953125 1171.570995 
L 1313.197992 1173.920684 
L 1313.588897 1176.218027 
L 1314.126237 1178.459054 
L 1314.809727 1180.639937 
L 1315.638424 1182.757049 
L 1316.610736 1184.807015 
L 1317.724451 1186.786769 
L 1318.976763 1188.693592 
L 1320.364301 1190.525167 
L 1321.883165 1192.279606 
L 1324.397968 1194.763659 
L 1327.181594 1197.068361 
L 1330.215419 1199.19359 
L 1333.479224 1201.14184 
L 1336.951561 1202.918162 
L 1340.610132 1204.530006 
L 1344.432165 1205.986989 
L 1348.394787 1207.300572 
L 1353.85799 1208.85145 
L 1359.479277 1210.203775 
L 1366.654802 1211.667548 
L 1375.374034 1213.177066 
L 1386.995285 1214.924791 
L 1404.081648 1217.241531 
L 1416.549502 1218.753339 
L 1426.111292 1219.697632 
L 1434.291084 1220.266469 
L 1441.148545 1220.530027 
L 1448.082972 1220.582201 
L 1455.123735 1220.421224 
L 1463.735987 1219.973422 
L 1474.002407 1219.193962 
L 1493.385172 1217.658049 
L 1500.749699 1217.310098 
L 1506.506143 1217.23215 
L 1512.080367 1217.383997 
L 1516.105063 1217.674797 
L 1519.967215 1218.135209 
L 1523.64109 1218.779055 
L 1527.101758 1219.617756 
L 1530.325628 1220.660197 
L 1533.290975 1221.912685 
L 1535.978419 1223.378966 
L 1537.607334 1224.475997 
L 1539.10114 1225.668479 
L 1540.456348 1226.955797 
L 1541.670166 1228.336938 
L 1542.740526 1229.810533 
L 1543.6661 1231.37489 
L 1544.446311 1233.028031 
L 1545.081334 1234.767735 
L 1545.572084 1236.591573 
L 1545.920205 1238.496948 
L 1546.180267 1241.501891 
L 1546.135525 1244.674519 
L 1545.799711 1248.004934 
L 1545.1892 1251.483119 
L 1544.322547 1255.099058 
L 1543.219966 1258.842802 
L 1541.4198 1264.016208 
L 1539.289944 1269.375903 
L 1536.2416 1276.301275 
L 1532.850631 1283.431875 
L 1528.440644 1292.183594 
L 1522.954008 1302.525715 
L 1518.026486 1311.355632 
L 1513.775439 1318.573128 
L 1509.38213 1325.555722 
L 1505.749177 1330.899669 
L 1501.993445 1335.965642 
L 1499.085154 1339.547603 
L 1496.089842 1342.916307 
L 1493.000177 1346.048654 
L 1489.809595 1348.923029 
L 1486.512609 1351.519804 
L 1483.105076 1353.821824 
L 1479.584399 1355.814877 
L 1477.1739 1356.966422 
L 1474.712832 1357.973441 
L 1472.201707 1358.834406 
L 1469.641382 1359.548605 
L 1467.033053 1360.116166 
L 1464.378236 1360.538082 
L 1460.312917 1360.9022 
L 1456.15449 1360.953048 
L 1451.911492 1360.705058 
L 1447.593439 1360.176939 
L 1443.210564 1359.391454 
L 1438.773539 1358.375106 
L 1434.293192 1357.157738 
L 1428.270476 1355.278784 
L 1420.69723 1352.637808 
L 1398.042887 1344.444374 
L 1392.08017 1342.605164 
L 1387.637056 1341.415075 
L 1383.218506 1340.417108 
L 1378.823014 1339.634015 
L 1374.448 1339.084362 
L 1370.089954 1338.782245 
L 1365.744608 1338.737091 
L 1361.407128 1338.95354 
L 1357.072318 1339.43141 
L 1352.734849 1340.165752 
L 1348.389481 1341.146978 
L 1344.031308 1342.361063 
L 1339.655995 1343.789824 
L 1333.78963 1345.990235 
L 1327.881248 1348.471312 
L 1320.435278 1351.859393 
L 1296.348624 1363.081116 
L 1290.367715 1365.542162 
L 1284.464516 1367.705469 
L 1280.112143 1369.089587 
L 1275.844553 1370.239021 
L 1271.681289 1371.129412 
L 1267.642559 1371.739424 
L 1263.748861 1372.05094 
L 1260.020567 1372.049206 
L 1258.818007 1371.976963 
L 1258.818007 1371.976963 
" clip-path="url(#pf527b07cb0)" style="fill: none; stroke: #4169e1; stroke-width: 3; stroke-linecap: square"/>
   </g>
   <g id="line2d_2">
    <path d="M 1221.440332 1465.891505 
L 1219.696156 1465.46014 
L 1218.022901 1464.833171 
L 1216.424412 1464.009133 
L 1214.904242 1462.987447 
L 1213.465616 1461.768406 
L 1212.111387 1460.353147 
L 1210.843996 1458.743631 
L 1209.665439 1456.942606 
L 1208.577231 1454.953569 
L 1207.58038 1452.780734 
L 1206.675361 1450.428982 
L 1205.489692 1446.578091 
L 1204.507669 1442.358126 
L 1203.723686 1437.792585 
L 1203.129199 1432.907108 
L 1202.712772 1427.729077 
L 1202.460198 1422.287212 
L 1202.348916 1414.672371 
L 1202.452492 1406.713117 
L 1202.803517 1396.38964 
L 1204.363528 1357.78539 
L 1204.394967 1349.288939 
L 1204.188862 1340.941466 
L 1203.849595 1334.806969 
L 1203.332432 1328.800944 
L 1202.622411 1322.940413 
L 1201.707227 1317.24129 
L 1200.577369 1311.718509 
L 1199.226208 1306.38615 
L 1197.65004 1301.257587 
L 1195.848082 1296.345619 
L 1193.82242 1291.6626 
L 1191.577922 1287.220558 
L 1189.122102 1283.031288 
L 1186.464949 1279.106423 
L 1183.618725 1275.457482 
L 1180.597718 1272.095876 
L 1177.417984 1269.032887 
L 1174.097047 1266.279607 
L 1170.653586 1263.846843 
L 1168.299487 1262.408218 
L 1165.905505 1261.119617 
L 1163.477606 1259.983841 
L 1161.021756 1259.003525 
L 1158.54388 1258.181102 
L 1156.049818 1257.518775 
L 1153.545275 1257.018479 
L 1151.035785 1256.681846 
L 1148.526662 1256.510168 
L 1146.022968 1256.504354 
L 1143.52947 1256.664898 
L 1141.05061 1256.991834 
L 1138.590471 1257.4847 
L 1136.152752 1258.142502 
L 1133.740743 1258.963676 
L 1131.357305 1259.946056 
L 1129.00486 1261.086846 
L 1126.685372 1262.382588 
L 1123.271114 1264.607493 
L 1119.937462 1267.154633 
L 1116.685308 1270.003445 
L 1113.513381 1273.129718 
L 1110.418401 1276.505634 
L 1107.395301 1280.099893 
L 1103.464737 1285.171656 
L 1099.631252 1290.479563 
L 1094.016356 1298.667646 
L 1085.755238 1310.747848 
L 1082.098248 1315.757667 
L 1078.432355 1320.394378 
L 1075.673714 1323.566091 
L 1072.907247 1326.431341 
L 1070.13543 1328.953573 
L 1067.363004 1331.099862 
L 1065.517738 1332.307434 
L 1063.677858 1333.327537 
L 1061.846364 1334.15362 
L 1060.026635 1334.780082 
L 1058.222391 1335.202295 
L 1056.437663 1335.416618 
L 1054.676749 1335.420403 
L 1052.944169 1335.211995 
L 1051.244621 1334.790721 
L 1049.58293 1334.156869 
L 1047.963995 1333.311666 
L 1046.392738 1332.257237 
L 1044.874049 1330.996568 
L 1043.412737 1329.533457 
L 1042.013475 1327.872459 
L 1040.68075 1326.018828 
L 1039.418816 1323.978447 
L 1038.23165 1321.75777 
L 1036.598993 1318.10401 
L 1035.153507 1314.085449 
L 1033.90394 1309.728793 
L 1032.856804 1305.061739 
L 1032.016236 1300.112421 
L 1031.383925 1294.90887 
L 1030.9591 1289.478513 
L 1030.738564 1283.847718 
L 1030.716788 1278.041397 
L 1030.886049 1272.082665 
L 1031.236602 1265.992577 
L 1031.965818 1257.700299 
L 1032.964973 1249.24571 
L 1034.198489 1240.659361 
L 1036.011192 1229.776173 
L 1038.479164 1216.536318 
L 1043.843281 1189.576273 
L 1046.895899 1173.598648 
L 1048.906354 1162.099443 
L 1050.703554 1150.55774 
L 1051.949164 1141.320387 
L 1052.994845 1132.108702 
L 1053.816093 1122.95612 
L 1054.390663 1113.90184 
L 1054.698607 1104.990106 
L 1054.722352 1096.269107 
L 1054.544474 1089.88398 
L 1054.192767 1083.656419 
L 1053.662663 1077.608017 
L 1052.950475 1071.759724 
L 1052.053422 1066.131377 
L 1050.969652 1060.741252 
L 1049.698258 1055.605629 
L 1048.239283 1050.738413 
L 1046.593718 1046.150795 
L 1044.763491 1041.850992 
L 1042.751444 1037.844056 
L 1040.561307 1034.131772 
L 1038.197654 1030.712639 
L 1035.665864 1027.581958 
L 1032.972071 1024.731998 
L 1030.123117 1022.152259 
L 1027.126498 1019.829825 
L 1023.990323 1017.749781 
L 1020.723264 1015.895709 
L 1017.334529 1014.250221 
L 1013.833824 1012.795544 
L 1010.231335 1011.51411 
L 1005.288158 1010.046239 
L 1000.209503 1008.821066 
L 995.023262 1007.809532 
L 989.758694 1006.991057 
L 984.446376 1006.354969 
L 979.118089 1005.901358 
L 973.806632 1005.641317 
L 968.545532 1005.596527 
L 963.368634 1005.798208 
L 959.561471 1006.134519 
L 955.834497 1006.650133 
L 952.201147 1007.365079 
L 948.674199 1008.300021 
L 945.265563 1009.475596 
L 941.98606 1010.911743 
L 938.845203 1012.62704 
L 936.832337 1013.93395 
L 934.886626 1015.376658 
L 933.00965 1016.958888 
L 931.202603 1018.683722 
L 929.466269 1020.553542 
L 927.801005 1022.569981 
L 925.436065 1025.871176 
L 923.228567 1029.503346 
L 921.174027 1033.461571 
L 919.265665 1037.736588 
L 917.494468 1042.314848 
L 915.849305 1047.178671 
L 914.317093 1052.306482 
L 912.42401 1059.510295 
L 910.666113 1067.070191 
L 908.18918 1078.909108 
L 902.822769 1105.359227 
L 900.52221 1115.334154 
L 898.51327 1123.062128 
L 896.325191 1130.483315 
L 894.554142 1135.805702 
L 892.664767 1140.889487 
L 890.653191 1145.710478 
L 888.517649 1150.247131 
L 886.258379 1154.480655 
L 883.877471 1158.395091 
L 881.378673 1161.977362 
L 878.767163 1165.217312 
L 876.049296 1168.10771 
L 873.232335 1170.644249 
L 870.324174 1172.82552 
L 868.338801 1174.082926 
L 866.31904 1175.184141 
L 864.267355 1176.130822 
L 862.186165 1176.925159 
L 860.077819 1177.569849 
L 856.869271 1178.263412 
L 853.611727 1178.640311 
L 850.311527 1178.715495 
L 846.974185 1178.505901 
L 843.604344 1178.030195 
L 840.205769 1177.308479 
L 836.781384 1176.361958 
L 833.333343 1175.212585 
L 828.701657 1173.403087 
L 824.032659 1171.325106 
L 818.145685 1168.426665 
L 811.009582 1164.62398 
L 801.385995 1159.203158 
L 789.247404 1152.096128 
L 780.763436 1146.915387 
L 773.577381 1142.259887 
L 767.703853 1138.147768 
L 763.113546 1134.65058 
L 758.64699 1130.92233 
L 755.393816 1127.948207 
L 752.235697 1124.801688 
L 749.183429 1121.46606 
L 746.247562 1117.926238 
L 743.438307 1114.169243 
L 740.765445 1110.184618 
L 738.238263 1105.964786 
L 735.865504 1101.505347 
L 733.655331 1096.805285 
L 731.61531 1091.867111 
L 729.752404 1086.696923 
L 728.07298 1081.304383 
L 726.582821 1075.702631 
L 725.287137 1069.908125 
L 724.190585 1063.940425 
L 723.297279 1057.821925 
L 722.610791 1051.577546 
L 722.134154 1045.234393 
L 721.869839 1038.821399 
L 721.819732 1032.368948 
L 721.985094 1025.908503 
L 722.366513 1019.472232 
L 722.963842 1013.092655 
L 723.776135 1006.8023 
L 724.801577 1000.633379 
L 726.037415 994.617497 
L 727.479896 988.785374 
L 729.124208 983.166597 
L 730.964441 977.789393 
L 732.993561 972.680423 
L 735.203404 967.864591 
L 737.584701 963.364872 
L 740.127115 959.202145 
L 742.819322 955.39504 
L 744.691346 953.062655 
L 746.620718 950.899778 
L 748.603496 948.910074 
L 750.635626 947.096668 
L 752.712969 945.46213 
L 754.831329 944.008453 
L 756.986476 942.73704 
L 759.174173 941.648683 
L 761.39021 940.743555 
L 763.630429 940.02119 
L 765.890756 939.480474 
L 768.167228 939.119637 
L 770.45602 938.936241 
L 772.753478 938.927178 
L 775.056138 939.088667 
L 777.360755 939.416259 
L 779.66432 939.904834 
L 783.111758 940.926736 
L 786.542605 942.275525 
L 789.950244 943.925905 
L 793.329603 945.84966 
L 796.67718 948.015902 
L 799.991021 950.391367 
L 804.3564 953.822862 
L 809.732328 958.41236 
L 819.22883 966.971002 
L 825.484355 972.459494 
L 829.646675 975.849276 
L 833.816975 978.931341 
L 836.956318 980.998279 
L 840.109566 982.825998 
L 843.279198 984.391259 
L 846.466547 985.674079 
L 849.671694 986.657791 
L 852.893389 987.329035 
L 856.129014 987.677675 
L 859.374576 987.696649 
L 861.541223 987.523969 
L 864.790854 986.985478 
L 868.033394 986.111781 
L 871.26032 984.90495 
L 874.462144 983.368808 
L 877.628574 981.508576 
L 880.748701 979.330534 
L 883.811192 976.841689 
L 886.804499 974.049483 
L 889.717069 970.961527 
L 892.537566 967.585389 
L 895.255078 963.928433 
L 897.859329 959.997716 
L 900.34088 955.799941 
L 902.691317 951.341476 
L 904.903425 946.628425 
L 906.97135 941.666759 
L 908.890738 936.462489 
L 910.658857 931.021876 
L 912.274702 925.351679 
L 913.739064 919.459412 
L 915.054591 913.353611 
L 916.225812 907.044093 
L 917.57432 898.334358 
L 918.698226 889.314582 
L 919.623486 880.022666 
L 920.548702 868.093395 
L 921.414835 853.452751 
L 923.656005 811.849815 
L 924.410294 802.448417 
L 925.345426 793.342451 
L 926.502471 784.598009 
L 927.538353 778.313534 
L 928.733869 772.289416 
L 930.101157 766.545872 
L 931.650474 761.100186 
L 933.390086 755.966487 
L 935.326185 751.155592 
L 937.462841 746.674918 
L 938.999748 743.873372 
L 940.626757 741.220788 
L 942.343519 738.716862 
L 944.149291 736.36066 
L 946.042945 734.150641 
L 948.022994 732.084683 
L 950.087602 730.160124 
L 952.234611 728.373792 
L 954.461562 726.722051 
L 957.945835 724.487811 
L 961.59353 722.531932 
L 965.393367 720.837606 
L 969.333242 719.386819 
L 973.400451 718.160702 
L 977.581907 717.13986 
L 981.86435 716.304686 
L 987.708512 715.446205 
L 993.677947 714.837734 
L 999.743182 714.435707 
L 1007.417475 714.161015 
L 1016.698415 714.068337 
L 1032.15594 714.196715 
L 1048.876922 714.281957 
L 1057.783827 714.122878 
L 1065.060837 713.805685 
L 1072.1888 713.273332 
L 1077.774155 712.663218 
L 1083.248003 711.865646 
L 1088.603836 710.85943 
L 1093.835596 709.624342 
L 1098.937798 708.14146 
L 1102.676549 706.85624 
L 1106.338099 705.415372 
L 1109.921173 703.81307 
L 1113.42492 702.044375 
L 1116.848972 700.105234 
L 1120.193498 697.992572 
L 1123.459245 695.704359 
L 1126.64758 693.239668 
L 1129.760505 690.598732 
L 1132.80068 687.782994 
L 1135.771406 684.795147 
L 1139.631228 680.550723 
L 1143.385587 676.020779 
L 1147.047073 671.222937 
L 1150.629621 666.179449 
L 1155.019569 659.571411 
L 1160.197983 651.282696 
L 1167.888777 638.407253 
L 1175.621131 625.522308 
L 1179.976364 618.615672 
L 1184.387952 612.059135 
L 1187.959739 607.16234 
L 1191.567186 602.656727 
L 1194.293124 599.579482 
L 1197.03287 596.795685 
L 1199.782129 594.335431 
L 1202.535696 592.227354 
L 1205.287508 590.498162 
L 1207.117712 589.567987 
L 1208.941874 588.823606 
L 1210.757634 588.270934 
L 1212.562499 587.915218 
L 1214.35386 587.760986 
L 1216.128997 587.812002 
L 1217.88509 588.071226 
L 1219.619232 588.540774 
L 1221.328437 589.221895 
L 1223.009653 590.11494 
L 1224.659774 591.219352 
L 1226.27565 592.533649 
L 1227.854099 594.055431 
L 1229.391921 595.781378 
L 1230.885907 597.707267 
L 1232.332854 599.827994 
L 1234.408121 603.361149 
L 1236.359789 607.295586 
L 1238.177514 611.604013 
L 1239.851315 616.255776 
L 1241.371682 621.217337 
L 1242.729691 626.452823 
L 1243.917116 631.924607 
L 1244.926544 637.593934 
L 1245.751493 643.421561 
L 1246.386521 649.3684 
L 1246.827334 655.39617 
L 1247.070885 661.468013 
L 1247.115462 667.549091 
L 1246.960757 673.607134 
L 1246.607925 679.612936 
L 1246.059615 685.540789 
L 1245.319983 691.368843 
L 1244.394684 697.079388 
L 1243.290828 702.659055 
L 1242.016918 708.098925 
L 1240.582766 713.394558 
L 1238.999375 718.545926 
L 1236.67702 725.197916 
L 1234.141922 731.62251 
L 1231.427247 737.852188 
L 1227.834065 745.430251 
L 1223.319687 754.349789 
L 1213.303999 773.914271 
L 1209.54085 781.846466 
L 1206.62223 788.456991 
L 1203.810924 795.342572 
L 1201.128509 802.528644 
L 1198.595011 810.028664 
L 1196.229381 817.843176 
L 1194.050012 825.959324 
L 1192.07525 834.350831 
L 1190.323835 842.978474 
L 1188.815233 851.791025 
L 1187.569817 860.726655 
L 1186.608864 869.714767 
L 1186.08803 876.444043 
L 1185.748967 883.125319 
L 1185.60104 889.723751 
L 1185.653406 896.20451 
L 1185.914821 902.533466 
L 1186.393421 908.67788 
L 1187.096494 914.607076 
L 1188.03024 920.29309 
L 1189.199539 925.711277 
L 1190.607717 930.84086 
L 1192.256347 935.665416 
L 1193.488917 938.706359 
L 1194.827609 941.604225 
L 1196.271369 944.357828 
L 1197.818701 946.967034 
L 1199.467657 949.432772 
L 1201.215835 951.757033 
L 1203.060377 953.942866 
L 1204.997974 955.994352 
L 1207.024873 957.916581 
L 1210.223399 960.571073 
L 1213.597503 962.97285 
L 1217.12941 965.150387 
L 1220.799608 967.135825 
L 1224.587079 968.964362 
L 1229.780826 971.223529 
L 1239.108385 974.948737 
L 1247.146176 978.236817 
L 1252.424779 980.637112 
L 1256.302105 982.604451 
L 1260.084485 984.748393 
L 1263.75056 987.094768 
L 1267.280187 989.665092 
L 1270.654574 992.47627 
L 1273.856388 995.540404 
L 1276.869838 998.86473 
L 1279.68074 1002.45166 
L 1282.27656 1006.298946 
L 1284.646441 1010.399948 
L 1286.781221 1014.744006 
L 1288.673441 1019.316895 
L 1290.317352 1024.101354 
L 1291.708918 1029.077673 
L 1292.845823 1034.224319 
L 1293.727477 1039.518573 
L 1294.35503 1044.937185 
L 1294.731387 1050.456986 
L 1294.861225 1056.055485 
L 1294.751009 1061.711395 
L 1294.409008 1067.405099 
L 1293.845299 1073.119027 
L 1293.071765 1078.837949 
L 1292.10208 1084.549158 
L 1290.951668 1090.242557 
L 1289.166479 1097.793434 
L 1287.135606 1105.288511 
L 1284.908642 1112.723498 
L 1281.931083 1121.934717 
L 1271.126787 1154.485033 
L 1269.074315 1161.602508 
L 1267.270007 1168.663735 
L 1265.762797 1175.65003 
L 1264.853595 1180.825353 
L 1264.151756 1185.930909 
L 1263.670787 1190.951621 
L 1263.421744 1195.870968 
L 1263.413124 1200.671412 
L 1263.650797 1205.334896 
L 1264.137978 1209.843375 
L 1264.875249 1214.179386 
L 1265.860613 1218.326607 
L 1267.089596 1222.270404 
L 1268.555389 1225.998331 
L 1270.249015 1229.500574 
L 1272.159537 1232.77031 
L 1274.274287 1235.803969 
L 1276.579116 1238.601388 
L 1279.058663 1241.165851 
L 1281.696635 1243.504007 
L 1284.47609 1245.625663 
L 1287.379729 1247.543476 
L 1290.390175 1249.272533 
L 1293.490255 1250.82985 
L 1297.734346 1252.670997 
L 1302.070646 1254.284886 
L 1307.568774 1256.050896 
L 1314.20539 1257.906317 
L 1322.99774 1260.106789 
L 1334.818955 1262.827347 
L 1343.209463 1264.545148 
L 1349.432226 1265.590668 
L 1354.609164 1266.238441 
L 1359.810411 1266.638728 
L 1364.008463 1266.761631 
L 1368.253255 1266.70322 
L 1373.638779 1266.384169 
L 1379.119969 1265.825338 
L 1386.942002 1264.763583 
L 1399.411108 1263.031258 
L 1405.026073 1262.513661 
L 1409.426956 1262.34503 
L 1412.646589 1262.4038 
L 1415.775545 1262.649284 
L 1418.79418 1263.104274 
L 1421.682769 1263.788924 
L 1424.421922 1264.720399 
L 1426.992991 1265.912635 
L 1428.60496 1266.857684 
L 1430.129602 1267.925683 
L 1431.562453 1269.118255 
L 1432.899445 1270.436374 
L 1434.136949 1271.880386 
L 1435.271809 1273.450039 
L 1436.301375 1275.144523 
L 1437.223526 1276.962506 
L 1438.036689 1278.902186 
L 1439.050034 1282.034909 
L 1439.815026 1285.427305 
L 1440.333535 1289.068825 
L 1440.61022 1292.947793 
L 1440.652366 1297.051754 
L 1440.469665 1301.367779 
L 1440.073924 1305.882712 
L 1439.478731 1310.583358 
L 1438.400925 1317.117093 
L 1437.03332 1323.926799 
L 1434.976177 1332.780122 
L 1432.602869 1341.955239 
L 1429.433912 1353.297976 
L 1425.415844 1366.827781 
L 1421.150968 1380.446358 
L 1417.335679 1391.968833 
L 1414.042977 1401.300328 
L 1410.632192 1410.237628 
L 1407.803508 1417.004612 
L 1404.871241 1423.348074 
L 1402.595671 1427.782268 
L 1400.24842 1431.905347 
L 1397.824501 1435.688861 
L 1395.319745 1439.106971 
L 1392.731007 1442.137099 
L 1390.957497 1443.932223 
L 1389.145486 1445.542033 
L 1387.294964 1446.962999 
L 1385.406185 1448.19259 
L 1383.479671 1449.229325 
L 1381.516201 1450.072818 
L 1379.516808 1450.723803 
L 1377.482763 1451.184161 
L 1375.415562 1451.456933 
L 1373.316904 1451.546316 
L 1371.188673 1451.457658 
L 1369.032911 1451.197436 
L 1366.851795 1450.773223 
L 1363.537605 1449.848577 
L 1360.17955 1448.607902 
L 1356.785841 1447.08908 
L 1353.364669 1445.333992 
L 1348.774103 1442.70486 
L 1343.013839 1439.115173 
L 1330.385339 1431.119998 
L 1325.839267 1428.540458 
L 1322.451154 1426.824509 
L 1319.081967 1425.338653 
L 1315.731156 1424.116253 
L 1312.397296 1423.185468 
L 1309.078176 1422.568812 
L 1305.770923 1422.282815 
L 1303.571017 1422.281205 
L 1301.373773 1422.432768 
L 1299.178028 1422.737746 
L 1296.982587 1423.19513 
L 1293.687365 1424.161738 
L 1290.386143 1425.453317 
L 1287.075193 1427.051406 
L 1283.751222 1428.93207 
L 1280.411549 1431.06634 
L 1275.93109 1434.248072 
L 1271.417681 1437.730691 
L 1264.590941 1443.298647 
L 1254.280498 1451.699139 
L 1249.710211 1455.166185 
L 1245.178546 1458.316905 
L 1241.821671 1460.412012 
L 1238.515127 1462.233915 
L 1235.272994 1463.746904 
L 1232.110118 1464.918917 
L 1230.053135 1465.496787 
L 1228.042813 1465.90326 
L 1226.083769 1466.131915 
L 1224.180582 1466.17722 
L 1222.337747 1466.03454 
L 1222.337747 1466.03454 
" clip-path="url(#pf527b07cb0)" style="fill: none; stroke: #ff8c00; stroke-width: 3; stroke-linecap: square"/>
   </g>
  </g>
 </g>
 <defs>
  <clipPath id="pf527b07cb0">
   <rect x="270" y="259.2" width="1674" height="1630.8"/>
  </clipPath>
 </defs>
</svg>
