<?xml version="1.0" encoding="utf-8" standalone="no"?>
<!DOCTYPE svg PUBLIC "-//W3C//DTD SVG 1.1//EN"
  "http://www.w3.org/Graphics/SVG/1.1/DTD/svg11.dtd">
<svg xmlns:xlink="http://www.w3.org/1999/xlink" width="2160pt" height="2160pt" viewBox="0 0 2160 2160" xmlns="http://www.w3.org/2000/svg" version="1.1">
 <metadata>
  <rdf:RDF xmlns:dc="http://purl.org/dc/elements/1.1/" xmlns:cc="http://creativecommons.org/ns#" xmlns:rdf="http://www.w3.org/1999/02/22-rdf-syntax-ns#">
   <cc:Work>
    <dc:type rdf:resource="http://purl.org/dc/dcmitype/StillImage"/>
    <dc:date>2022-03-06T19:21:02.364995</dc:date>
    <dc:format>image/svg+xml</dc:format>
    <dc:creator>
     <cc:Agent>
      <dc:title>Matplotlib v3.5.1, https://matplotlib.org/</dc:title>
     </cc:Agent>
    </dc:creator>
   </cc:Work>
  </rdf:RDF>
 </metadata>
 <defs>
  <style type="text/css">*{stroke-linejoin: round; stroke-linecap: butt}</style>
 </defs>
 <g id="figure_1">
  <g id="patch_1">
   <path d="M 0 2160 
L 2160 2160 
L 2160 0 
L 0 0 
L 0 2160 
z
" style="fill: none"/>
  </g>
  <g id="axes_1">
   <g id="line2d_1">
    <path d="M 1257.636748 1371.868297 
L 1255.340905 1371.540585 
L 1253.138416 1371.06427 
L 1251.034339 1370.43824 
L 1249.033353 1369.662054 
L 1247.139704 1368.735935 
L 1245.357144 1367.660749 
L 1243.68889 1366.437982 
L 1242.137566 1365.069724 
L 1240.705168 1363.558632 
L 1239.393022 1361.907906 
L 1238.201754 1360.121256 
L 1237.131261 1358.202864 
L 1236.180693 1356.157351 
L 1235.348441 1353.98974 
L 1234.316492 1350.521251 
L 1233.533973 1346.809702 
L 1232.985834 1342.875897 
L 1232.653373 1338.741655 
L 1232.514466 1334.429522 
L 1232.586292 1328.443058 
L 1232.889706 1322.236104 
L 1233.615312 1312.630981 
L 1234.774959 1297.907102 
L 1235.107597 1291.365851 
L 1235.216435 1284.888656 
L 1235.107636 1280.096815 
L 1234.804605 1275.378941 
L 1234.282372 1270.74954 
L 1233.519036 1266.22215 
L 1232.496045 1261.809412 
L 1231.198411 1257.523158 
L 1229.614869 1253.374505 
L 1227.737975 1249.373959 
L 1226.321808 1246.794168 
L 1224.77347 1244.287516 
L 1223.093595 1241.856799 
L 1221.283547 1239.504755 
L 1219.345404 1237.23408 
L 1217.281933 1235.047435 
L 1213.959407 1231.930782 
L 1210.376932 1229.017927 
L 1206.551573 1226.317592 
L 1202.502954 1223.838419 
L 1198.252898 1221.588936 
L 1193.825025 1219.577507 
L 1189.244337 1217.812251 
L 1184.536771 1216.300927 
L 1179.728752 1215.050805 
L 1174.846731 1214.068506 
L 1169.91673 1213.359819 
L 1164.963895 1212.929506 
L 1160.012071 1212.781089 
L 1155.083403 1212.91663 
L 1150.197977 1213.336505 
L 1145.373497 1214.039181 
L 1140.625029 1215.021011 
L 1135.964793 1216.27603 
L 1131.402027 1217.795797 
L 1126.942924 1219.569247 
L 1122.590641 1221.582603 
L 1118.345383 1223.81932 
L 1114.204568 1226.260082 
L 1110.163062 1228.882863 
L 1106.213481 1231.663031 
L 1101.074144 1235.567635 
L 1094.816851 1240.666389 
L 1075.42612 1256.882001 
L 1070.604637 1260.482807 
L 1066.977112 1262.963406 
L 1063.338855 1265.220985 
L 1059.692139 1267.226939 
L 1056.042211 1268.955295 
L 1052.397283 1270.383065 
L 1048.76843 1271.490548 
L 1045.169395 1272.261562 
L 1042.794486 1272.582322 
L 1040.445265 1272.745145 
L 1038.12739 1272.748021 
L 1035.846811 1272.589691 
L 1033.609712 1272.269644 
L 1031.422443 1271.788101 
L 1029.291454 1271.145991 
L 1027.223222 1270.34493 
L 1025.224187 1269.387186 
L 1023.300675 1268.275645 
L 1021.458839 1267.013768 
L 1019.704586 1265.605544 
L 1018.043514 1264.055446 
L 1016.480858 1262.368374 
L 1015.021432 1260.549606 
L 1013.669579 1258.604738 
L 1012.429127 1256.53963 
L 1011.303352 1254.36035 
L 1010.294948 1252.073111 
L 1009.006799 1248.453642 
L 1007.991656 1244.626861 
L 1007.250661 1240.61395 
L 1006.781725 1236.435515 
L 1006.579599 1232.111251 
L 1006.636022 1227.659654 
L 1006.939911 1223.097782 
L 1007.477616 1218.441077 
L 1008.233201 1213.703235 
L 1009.18876 1208.89615 
L 1010.739925 1202.396163 
L 1012.561898 1195.809896 
L 1015.139992 1187.476743 
L 1018.535188 1177.352894 
L 1027.329707 1151.551684 
L 1030.022524 1142.824844 
L 1031.989917 1135.815395 
L 1033.748066 1128.796012 
L 1035.260285 1121.785159 
L 1036.492843 1114.805937 
L 1037.21511 1109.608743 
L 1037.750817 1104.458024 
L 1038.089047 1099.368157 
L 1038.21987 1094.354478 
L 1038.134376 1089.433022 
L 1037.824705 1084.620237 
L 1037.284094 1079.932656 
L 1036.506912 1075.386562 
L 1035.4887 1070.997628 
L 1034.226202 1066.780566 
L 1032.717395 1062.748789 
L 1030.961499 1058.914096 
L 1028.958988 1055.286388 
L 1026.711581 1051.873434 
L 1024.22222 1048.680688 
L 1021.495041 1045.711166 
L 1018.535328 1042.96539 
L 1015.349464 1040.441399 
L 1011.944867 1038.134838 
L 1008.329929 1036.039105 
L 1004.51395 1034.145582 
L 1000.507072 1032.44391 
L 996.320222 1030.922334 
L 991.965057 1029.568089 
L 987.453916 1028.367816 
L 981.218978 1026.983667 
L 974.762421 1025.818343 
L 968.118647 1024.843764 
L 959.606057 1023.858575 
L 950.932502 1023.10311 
L 942.17697 1022.56356 
L 933.422181 1022.246192 
L 924.753667 1022.177331 
L 917.939364 1022.330551 
L 911.280154 1022.700751 
L 904.819134 1023.322077 
L 900.128156 1023.974898 
L 895.58783 1024.805339 
L 891.212909 1025.828778 
L 887.016522 1027.059732 
L 883.009883 1028.51136 
L 879.202018 1030.195011 
L 875.599516 1032.119812 
L 872.206309 1034.292311 
L 869.023494 1036.716184 
L 866.049211 1039.39202 
L 863.27857 1042.317175 
L 860.703649 1045.485712 
L 858.313549 1048.888413 
L 856.094529 1052.512875 
L 854.030195 1056.34367 
L 852.101766 1060.362571 
L 849.705645 1065.977539 
L 847.459944 1071.834723 
L 844.247142 1080.941351 
L 838.818722 1096.430226 
L 836.45963 1102.541154 
L 833.920492 1108.507305 
L 831.87411 1112.850688 
L 829.690702 1117.055146 
L 827.359486 1121.09862 
L 824.872519 1124.960825 
L 822.224701 1128.623383 
L 819.413707 1132.069926 
L 816.439851 1135.286179 
L 813.305883 1138.260017 
L 810.016738 1140.981507 
L 806.579232 1143.442931 
L 803.001729 1145.638797 
L 799.293789 1147.565832 
L 795.465803 1149.222967 
L 791.528634 1150.611297 
L 787.493269 1151.73404 
L 783.370499 1152.596463 
L 779.170641 1153.2058 
L 774.903286 1153.571143 
L 770.577117 1153.703307 
L 766.199765 1153.614678 
L 761.777726 1153.319021 
L 757.31634 1152.83127 
L 751.313741 1151.909637 
L 745.255683 1150.714062 
L 739.14656 1149.284672 
L 731.441919 1147.229351 
L 722.099675 1144.4644 
L 709.490365 1140.444704 
L 691.945338 1134.573123 
L 677.577834 1129.538765 
L 668.118897 1126.001932 
L 660.387627 1122.877912 
L 654.345448 1120.221061 
L 648.466162 1117.38867 
L 642.783762 1114.347584 
L 638.671638 1111.910608 
L 634.703514 1109.325988 
L 630.893145 1106.582759 
L 627.253792 1103.671665 
L 623.798124 1100.585465 
L 620.538132 1097.319184 
L 617.485073 1093.870321 
L 614.649431 1090.238989 
L 612.040902 1086.428003 
L 609.668389 1082.4429 
L 607.540014 1078.291914 
L 605.663134 1073.985882 
L 604.044363 1069.538113 
L 602.689592 1064.96421 
L 601.603998 1060.281852 
L 600.792049 1055.510556 
L 600.257491 1050.671407 
L 600.003325 1045.786784 
L 600.031767 1040.880077 
L 600.34419 1035.975395 
L 600.941053 1031.097299 
L 601.821823 1026.270522 
L 602.984883 1021.519724 
L 604.427443 1016.869246 
L 606.14545 1012.342897 
L 608.133504 1007.963748 
L 610.384797 1003.753952 
L 612.891057 999.734572 
L 615.642531 995.925435 
L 618.627981 992.344985 
L 621.834731 989.010159 
L 625.248728 985.936263 
L 627.632349 984.03873 
L 630.096476 982.266793 
L 632.636092 980.623632 
L 635.246003 979.112033 
L 637.920877 977.734369 
L 642.043053 975.923154 
L 646.280442 974.422314 
L 650.614243 973.23427 
L 655.025816 972.359054 
L 659.496976 971.794222 
L 664.010279 971.534806 
L 668.549305 971.573267 
L 673.098917 971.899481 
L 677.645495 972.500756 
L 682.177137 973.361878 
L 686.683815 974.465189 
L 691.157491 975.790715 
L 695.592176 977.316321 
L 699.983945 979.017911 
L 705.769864 981.515616 
L 711.477059 984.21506 
L 719.904987 988.492506 
L 736.443566 997.002776 
L 741.922389 999.57803 
L 747.411716 1001.919508 
L 751.544005 1003.489782 
L 755.694596 1004.878319 
L 759.866753 1006.067465 
L 764.06223 1007.042037 
L 768.281135 1007.789373 
L 772.521823 1008.299324 
L 776.780846 1008.56419 
L 781.052949 1008.578604 
L 785.331109 1008.339382 
L 789.606617 1007.845316 
L 793.869206 1007.096951 
L 798.107209 1006.096335 
L 802.307761 1004.846754 
L 806.457016 1003.352473 
L 810.540399 1001.618472 
L 814.542867 999.65021 
L 818.449186 997.453403 
L 822.244213 995.033838 
L 825.913181 992.397226 
L 829.441975 989.549089 
L 832.81741 986.4947 
L 836.027482 983.239063 
L 839.061617 979.786941 
L 841.910895 976.142926 
L 844.568246 972.311547 
L 847.028637 968.297413 
L 849.289216 964.105388 
L 851.349437 959.740775 
L 853.211151 955.209518 
L 854.878665 950.518405 
L 856.358771 945.675262 
L 857.660733 940.689127 
L 858.796244 935.570403 
L 860.075933 928.559954 
L 861.124335 921.367605 
L 862.179885 912.178984 
L 863.207922 900.974025 
L 865.042757 880.458041 
L 865.895017 873.182147 
L 866.942082 866.091023 
L 867.889768 860.925664 
L 869.00187 855.914885 
L 870.299299 851.078338 
L 871.801013 846.434009 
L 873.523768 841.997953 
L 875.48191 837.784065 
L 876.924031 835.104037 
L 878.47888 832.530748 
L 880.148733 830.066506 
L 881.935319 827.71311 
L 883.839809 825.471845 
L 885.862825 823.343481 
L 888.004442 821.328284 
L 890.264201 819.426025 
L 892.64112 817.635994 
L 895.133721 815.957019 
L 897.740041 814.387489 
L 901.857344 812.233871 
L 906.215068 810.31344 
L 910.801384 808.616065 
L 915.602811 807.130163 
L 920.604502 805.842965 
L 925.790522 804.740787 
L 931.144151 803.809293 
L 936.648163 803.033748 
L 944.190607 802.216536 
L 951.928189 801.615009 
L 961.813615 801.114484 
L 971.867284 800.834336 
L 984.058937 800.706968 
L 1002.39851 800.756758 
L 1032.46304 800.852902 
L 1046.070938 800.662797 
L 1057.450138 800.279828 
L 1066.705718 799.761384 
L 1075.735466 799.026872 
L 1082.7853 798.26244 
L 1089.671817 797.32413 
L 1096.387798 796.197568 
L 1102.92702 794.869661 
L 1109.284549 793.32888 
L 1115.457062 791.565548 
L 1121.443166 789.572099 
L 1127.243689 787.343311 
L 1132.861927 784.876519 
L 1138.303803 782.171798 
L 1143.577943 779.232122 
L 1148.695638 776.063511 
L 1153.670696 772.675171 
L 1158.51918 769.079637 
L 1163.259032 765.292917 
L 1169.060659 760.32096 
L 1174.76237 755.128056 
L 1182.652218 747.596449 
L 1198.466455 732.365312 
L 1204.213318 727.162959 
L 1208.865045 723.20281 
L 1213.566554 719.482663 
L 1218.315003 716.0597 
L 1221.90313 713.721885 
L 1225.509433 711.607005 
L 1229.128256 709.737924 
L 1232.752752 708.136395 
L 1236.374936 706.82271 
L 1239.985765 705.815353 
L 1243.575211 705.130662 
L 1245.950939 704.86042 
L 1248.308891 704.743249 
L 1250.645487 704.782006 
L 1252.957016 704.978941 
L 1255.239651 705.335662 
L 1257.489462 705.853117 
L 1259.702431 706.531573 
L 1261.874471 707.370605 
L 1264.001433 708.369091 
L 1266.079131 709.525205 
L 1268.103351 710.836425 
L 1270.069871 712.299543 
L 1271.974475 713.910682 
L 1273.81297 715.665315 
L 1276.437696 718.554897 
L 1278.890606 721.735816 
L 1281.158388 725.185595 
L 1283.228301 728.879442 
L 1285.088324 732.790648 
L 1286.727307 736.89102 
L 1288.135118 741.151347 
L 1289.302799 745.541885 
L 1290.222716 750.032844 
L 1290.888698 754.594884 
L 1291.296173 759.199592 
L 1291.44229 763.819942 
L 1291.326019 768.430722 
L 1290.94823 773.00893 
L 1290.311753 777.534116 
L 1289.421398 781.988677 
L 1288.283953 786.35809 
L 1286.908146 790.631086 
L 1285.304571 794.799757 
L 1283.485583 798.859598 
L 1281.465162 802.809479 
L 1279.25874 806.651557 
L 1276.883016 810.391118 
L 1274.355733 814.036371 
L 1270.782431 818.769123 
L 1267.018224 823.38586 
L 1262.114962 829.051862 
L 1244.929069 848.546392 
L 1241.001535 853.429345 
L 1237.192301 858.501398 
L 1233.531646 863.788047 
L 1230.047409 869.306424 
L 1227.565664 873.602356 
L 1225.208226 878.032891 
L 1222.985315 882.594452 
L 1220.907084 887.280214 
L 1218.983764 892.080164 
L 1217.225791 896.981211 
L 1215.643914 901.967372 
L 1214.249249 907.020013 
L 1213.053304 912.118157 
L 1212.06796 917.23883 
L 1211.305392 922.357475 
L 1210.777955 927.448394 
L 1210.498019 932.485223 
L 1210.477754 937.441441 
L 1210.728893 942.290885 
L 1211.26245 947.008271 
L 1212.088423 951.569718 
L 1212.805874 954.513099 
L 1213.659355 957.371408 
L 1214.650679 960.139224 
L 1215.781259 962.81171 
L 1217.052064 965.38466 
L 1218.463589 967.854543 
L 1220.015825 970.218544 
L 1221.708226 972.474594 
L 1223.539693 974.621398 
L 1225.508549 976.658451 
L 1227.612529 978.586057 
L 1229.84877 980.405324 
L 1232.21381 982.118168 
L 1234.703589 983.7273 
L 1238.661813 985.954372 
L 1242.872003 987.971017 
L 1247.313305 989.795673 
L 1251.962322 991.449971 
L 1256.793369 992.958329 
L 1263.469864 994.788944 
L 1272.094159 996.883625 
L 1293.22212 1001.83237 
L 1300.13461 1003.700032 
L 1306.859771 1005.779674 
L 1311.73945 1007.508993 
L 1316.448174 1009.40338 
L 1320.960595 1011.476865 
L 1325.253243 1013.739868 
L 1329.304647 1016.199121 
L 1333.095423 1018.857667 
L 1336.608345 1021.71496 
L 1338.788416 1023.728414 
L 1340.834364 1025.826541 
L 1342.742728 1028.006791 
L 1344.510488 1030.26608 
L 1346.135066 1032.60084 
L 1347.614334 1035.007075 
L 1348.946603 1037.48042 
L 1350.130637 1040.016207 
L 1351.165642 1042.609522 
L 1352.051276 1045.255277 
L 1352.787647 1047.948269 
L 1353.375317 1050.683249 
L 1353.815304 1053.454979 
L 1354.201736 1057.670221 
L 1354.266251 1061.939739 
L 1354.018149 1066.247749 
L 1353.469107 1070.579837 
L 1352.633184 1074.923227 
L 1351.52681 1079.266974 
L 1350.168758 1083.602084 
L 1348.580085 1087.921547 
L 1346.784047 1092.220297 
L 1344.110829 1097.914387 
L 1341.179496 1103.562825 
L 1337.260164 1110.560685 
L 1323.038568 1135.289505 
L 1320.336918 1140.696726 
L 1318.521408 1144.724782 
L 1316.917331 1148.723211 
L 1315.54997 1152.684596 
L 1314.442013 1156.599869 
L 1313.613279 1160.458461 
L 1313.080491 1164.24852 
L 1312.857093 1167.957197 
L 1312.953125 1171.570995 
L 1313.197992 1173.920684 
L 1313.588897 1176.218027 
L 1314.126237 1178.459054 
L 1314.809727 1180.639937 
L 1315.638424 1182.757049 
L 1316.610736 1184.807015 
L 1317.724451 1186.786769 
L 1318.976763 1188.693592 
L 1320.364301 1190.525167 
L 1321.883165 1192.279606 
L 1324.397968 1194.763659 
L 1327.181594 1197.068361 
L 1330.215419 1199.19359 
L 1333.479224 1201.14184 
L 1336.951561 1202.918162 
L 1340.610132 1204.530006 
L 1344.432165 1205.986989 
L 1348.394787 1207.300572 
L 1353.85799 1208.85145 
L 1359.479277 1210.203775 
L 1366.654802 1211.667548 
L 1375.374034 1213.177066 
L 1386.995285 1214.924791 
L 1404.081648 1217.241531 
L 1416.549502 1218.753339 
L 1426.111292 1219.697632 
L 1434.291084 1220.266469 
L 1441.148545 1220.530027 
L 1448.082972 1220.582201 
L 1455.123735 1220.421224 
L 1463.735987 1219.973422 
L 1474.002407 1219.193962 
L 1493.385172 1217.658049 
L 1500.749699 1217.310098 
L 1506.506143 1217.23215 
L 1512.080367 1217.383997 
L 1516.105063 1217.674797 
L 1519.967215 1218.135209 
L 1523.64109 1218.779055 
L 1527.101758 1219.617756 
L 1530.325628 1220.660197 
L 1533.290975 1221.912685 
L 1535.978419 1223.378966 
L 1537.607334 1224.475997 
L 1539.10114 1225.668479 
L 1540.456348 1226.955797 
L 1541.670166 1228.336938 
L 1542.740526 1229.810533 
L 1543.6661 1231.37489 
L 1544.446311 1233.028031 
L 1545.081334 1234.767735 
L 1545.572084 1236.591573 
L 1545.920205 1238.496948 
L 1546.180267 1241.501891 
L 1546.135525 1244.674519 
L 1545.799711 1248.004934 
L 1545.1892 1251.483119 
L 1544.322547 1255.099058 
L 1543.219966 1258.842802 
L 1541.4198 1264.016208 
L 1539.289944 1269.375903 
L 1536.2416 1276.301275 
L 1532.850631 1283.431875 
L 1528.440644 1292.183594 
L 1522.954008 1302.525715 
L 1518.026486 1311.355632 
L 1513.775439 1318.573128 
L 1509.38213 1325.555722 
L 1505.749177 1330.899669 
L 1501.993445 1335.965642 
L 1499.085154 1339.547603 
L 1496.089842 1342.916307 
L 1493.000177 1346.048654 
L 1489.809595 1348.923029 
L 1486.512609 1351.519804 
L 1483.105076 1353.821824 
L 1479.584399 1355.814877 
L 1477.1739 1356.966422 
L 1474.712832 1357.973441 
L 1472.201707 1358.834406 
L 1469.641382 1359.548605 
L 1467.033053 1360.116166 
L 1464.378236 1360.538082 
L 1460.312917 1360.9022 
L 1456.15449 1360.953048 
L 1451.911492 1360.705058 
L 1447.593439 1360.176939 
L 1443.210564 1359.391454 
L 1438.773539 1358.375106 
L 1434.293192 1357.157738 
L 1428.270476 1355.278784 
L 1420.69723 1352.637808 
L 1398.042887 1344.444374 
L 1392.08017 1342.605164 
L 1387.637056 1341.415075 
L 1383.218506 1340.417108 
L 1378.823014 1339.634015 
L 1374.448 1339.084362 
L 1370.089954 1338.782245 
L 1365.744608 1338.737091 
L 1361.407128 1338.95354 
L 1357.072318 1339.43141 
L 1352.734849 1340.165752 
L 1348.389481 1341.146978 
L 1344.031308 1342.361063 
L 1339.655995 1343.789824 
L 1333.78963 1345.990235 
L 1327.881248 1348.471312 
L 1320.435278 1351.859393 
L 1296.348624 1363.081116 
L 1290.367715 1365.542162 
L 1284.464516 1367.705469 
L 1280.112143 1369.089587 
L 1275.844553 1370.239021 
L 1271.681289 1371.129412 
L 1267.642559 1371.739424 
L 1263.748861 1372.05094 
L 1260.020567 1372.049206 
L 1258.818007 1371.976963 
L 1258.818007 1371.976963 
" clip-path="url(#p5b28d03120)" style="fill: none; stroke: #4169e1; stroke-width: 3; stroke-linecap: square"/>
   </g>
   <g id="line2d_2">
    <path d="M 1214.898191 1489.616499 
L 1213.253723 1489.158979 
L 1211.676123 1488.493996 
L 1210.169013 1487.619994 
L 1208.735746 1486.536361 
L 1207.379361 1485.243406 
L 1206.102549 1483.742337 
L 1204.90761 1482.035232 
L 1203.796427 1480.125005 
L 1202.770428 1478.015368 
L 1201.830563 1475.710789 
L 1200.583106 1471.899911 
L 1199.529634 1467.682435 
L 1198.666714 1463.081536 
L 1197.988134 1458.122942 
L 1197.484921 1452.83451 
L 1197.145409 1447.245801 
L 1196.922421 1439.380542 
L 1196.924642 1431.111766 
L 1197.172363 1420.324956 
L 1197.789934 1404.647123 
L 1198.594345 1384.07098 
L 1198.823345 1372.690809 
L 1198.801517 1363.713792 
L 1198.543968 1354.907634 
L 1198.169903 1348.444523 
L 1197.623141 1342.123831 
L 1196.890392 1335.963205 
L 1195.960921 1329.979162 
L 1194.826661 1324.187224 
L 1193.482278 1318.602059 
L 1191.925201 1313.237632 
L 1190.155599 1308.107346 
L 1188.176325 1303.224176 
L 1185.992817 1298.600788 
L 1183.612956 1294.249626 
L 1181.046899 1290.182986 
L 1178.306868 1286.413047 
L 1175.40692 1282.951871 
L 1172.362687 1279.811366 
L 1169.191088 1277.00321 
L 1167.014741 1275.321358 
L 1164.795216 1273.795506 
L 1162.53809 1272.428773 
L 1160.248985 1271.224133 
L 1157.933527 1270.184377 
L 1155.597303 1269.312089 
L 1153.245817 1268.609603 
L 1150.88445 1268.078973 
L 1148.518418 1267.721929 
L 1146.152733 1267.539842 
L 1143.792166 1267.533676 
L 1141.441213 1267.703954 
L 1139.10406 1268.050713 
L 1136.784558 1268.573462 
L 1134.486194 1269.271148 
L 1132.212071 1270.142112 
L 1129.964886 1271.184056 
L 1127.746921 1272.394015 
L 1125.560031 1273.768321 
L 1122.340953 1276.128128 
L 1119.197874 1278.829707 
L 1116.131634 1281.85125 
L 1113.141034 1285.167077 
L 1110.222983 1288.747684 
L 1107.372703 1292.559872 
L 1103.666835 1297.939149 
L 1100.052497 1303.568888 
L 1094.758584 1312.253435 
L 1086.969724 1325.066089 
L 1083.521791 1330.379667 
L 1080.065464 1335.297514 
L 1077.464525 1338.661535 
L 1074.856207 1341.700512 
L 1072.242844 1344.375674 
L 1069.628908 1346.652097 
L 1067.889129 1347.932888 
L 1066.154428 1349.014842 
L 1064.427634 1349.891013 
L 1062.711932 1350.555459 
L 1061.010831 1351.003272 
L 1059.32813 1351.23059 
L 1057.66788 1351.234604 
L 1056.034346 1351.01356 
L 1054.431955 1350.566743 
L 1052.865257 1349.894459 
L 1051.33887 1348.998009 
L 1049.857436 1347.879647 
L 1048.425565 1346.54254 
L 1047.047791 1344.990718 
L 1045.72852 1343.22901 
L 1044.471982 1341.262987 
L 1043.282188 1339.098894 
L 1041.630763 1335.496483 
L 1040.149223 1331.489156 
L 1038.847128 1327.104196 
L 1037.73204 1322.370347 
L 1036.809364 1317.317204 
L 1036.082237 1311.974631 
L 1035.551476 1306.372203 
L 1035.215586 1300.538687 
L 1035.070808 1294.501579 
L 1035.111222 1288.2867 
L 1035.328892 1281.917868 
L 1035.87771 1273.223517 
L 1036.696477 1264.337837 
L 1037.753382 1255.297188 
L 1039.355813 1243.821229 
L 1041.594451 1229.844034 
L 1044.900541 1210.923295 
L 1049.530385 1184.460257 
L 1051.862522 1169.848757 
L 1053.601673 1157.613321 
L 1055.096221 1145.365813 
L 1056.082124 1135.5956 
L 1056.856425 1125.888073 
L 1057.398149 1116.28481 
L 1057.688489 1106.832735 
L 1057.710876 1097.58296 
L 1057.451073 1088.58926 
L 1057.063844 1082.044926 
L 1056.507164 1075.69812 
L 1055.777838 1069.570725 
L 1054.873535 1063.683282 
L 1053.792805 1058.054515 
L 1052.535091 1052.700897 
L 1051.100732 1047.636251 
L 1049.490957 1042.871424 
L 1047.707876 1038.414029 
L 1045.75445 1034.268277 
L 1043.634465 1030.434897 
L 1041.352492 1026.911151 
L 1038.913845 1023.690959 
L 1036.324535 1020.765105 
L 1033.591223 1018.121556 
L 1030.721174 1015.74585 
L 1027.722214 1013.621577 
L 1024.602693 1011.730914 
L 1021.371451 1010.055213 
L 1018.037791 1008.575625 
L 1014.611465 1007.273732 
L 1011.102656 1006.132181 
L 1006.31433 1004.832723 
L 1001.424567 1003.759857 
L 996.460956 1002.891756 
L 991.452324 1002.2171 
L 986.428636 1001.735985 
L 981.420815 1001.460178 
L 976.460474 1001.412672 
L 971.57952 1001.626581 
L 967.989999 1001.983284 
L 964.476083 1002.53016 
L 961.050438 1003.288455 
L 957.725113 1004.280086 
L 954.511337 1005.526939 
L 951.419311 1007.050162 
L 948.458005 1008.869463 
L 946.560208 1010.255614 
L 944.725726 1011.785797 
L 942.95605 1013.463962 
L 941.252306 1015.293377 
L 939.615231 1017.276568 
L 937.285251 1020.543249 
L 935.105322 1024.161915 
L 933.072668 1028.130395 
L 931.182335 1032.441935 
L 929.42722 1037.085184 
L 927.798146 1042.044289 
L 926.283985 1047.299086 
L 924.421322 1054.723114 
L 922.705026 1062.562175 
L 920.70638 1072.82678 
L 917.273641 1092.095734 
L 914.494844 1107.224237 
L 912.325799 1117.803969 
L 910.431703 1126.00051 
L 908.368709 1133.871662 
L 906.698904 1139.516759 
L 904.917538 1144.908787 
L 903.020957 1150.022086 
L 901.007496 1154.833808 
L 898.87738 1159.324021 
L 896.63258 1163.475799 
L 894.276629 1167.275273 
L 891.81441 1170.711669 
L 889.251913 1173.777319 
L 886.595988 1176.467655 
L 884.777124 1178.05184 
L 882.922337 1179.4688 
L 881.033958 1180.719431 
L 879.114321 1181.805208 
L 877.165732 1182.728174 
L 875.190443 1183.490922 
L 873.190624 1184.09658 
L 871.168341 1184.548787 
L 868.09702 1184.948538 
L 864.98548 1185.028281 
L 861.838921 1184.805979 
L 858.661722 1184.30143 
L 855.457431 1183.535954 
L 852.228806 1182.532043 
L 848.977878 1181.312981 
L 844.610968 1179.393768 
L 840.20888 1177.189794 
L 834.658442 1174.115613 
L 827.930285 1170.082362 
L 818.856844 1164.332862 
L 807.412172 1156.794914 
L 799.413202 1151.300051 
L 792.637948 1146.362277 
L 788.197582 1142.895258 
L 783.844271 1139.240065 
L 779.601612 1135.351393 
L 776.506821 1132.253729 
L 773.498228 1128.979418 
L 770.586062 1125.510275 
L 767.780358 1121.829666 
L 765.09086 1117.923028 
L 762.526934 1113.778333 
L 760.097496 1109.386488 
L 757.810965 1104.741675 
L 755.675221 1099.841597 
L 753.697588 1094.687663 
L 751.88482 1089.285067 
L 750.243106 1083.642806 
L 748.77808 1077.773601 
L 747.494832 1071.693759 
L 746.397928 1065.422956 
L 745.491413 1058.983979 
L 744.778828 1052.402403 
L 744.263202 1045.706248 
L 743.947043 1038.925598 
L 743.832318 1032.092209 
L 743.920415 1025.239114 
L 744.212108 1018.400227 
L 744.707495 1011.609957 
L 745.405942 1004.902838 
L 746.306018 998.313185 
L 747.405431 991.874767 
L 748.700961 985.620509 
L 750.18841 979.582221 
L 751.862554 973.790349 
L 753.717116 968.273746 
L 755.744754 963.059468 
L 757.937071 958.172587 
L 760.28465 953.636005 
L 762.777117 949.470295 
L 765.403223 945.693539 
L 767.2223 943.399521 
L 769.091729 941.289175 
L 771.00769 939.365818 
L 772.966279 937.632174 
L 774.96354 936.090357 
L 776.995484 934.741855 
L 779.058119 933.587509 
L 781.147473 932.6275 
L 783.259627 931.861336 
L 785.390739 931.287836 
L 787.537073 930.90512 
L 789.695024 930.710604 
L 791.861145 930.700991 
L 794.03217 930.872272 
L 796.20504 931.219726 
L 798.376918 931.737926 
L 800.545214 932.420746 
L 803.78591 933.738568 
L 807.006645 935.385566 
L 810.202146 937.332819 
L 813.368618 939.548479 
L 816.503738 941.998066 
L 820.633772 945.564252 
L 824.708179 949.388592 
L 830.727919 955.398083 
L 840.596343 965.326204 
L 844.520592 968.990427 
L 848.449606 972.348311 
L 851.405801 974.619094 
L 854.37411 976.645111 
L 857.357201 978.400596 
L 860.356704 979.863191 
L 863.373098 981.014043 
L 866.40563 981.837818 
L 868.435331 982.199289 
L 870.470402 982.407354 
L 872.509662 982.459955 
L 874.551683 982.355635 
L 876.59479 982.093501 
L 878.637076 981.673188 
L 880.676412 981.094816 
L 882.710464 980.358942 
L 885.746063 978.961981 
L 888.754837 977.21744 
L 891.726869 975.131273 
L 894.651717 972.710433 
L 897.518608 969.96254 
L 900.316629 966.895576 
L 903.034933 963.51762 
L 905.662944 959.836643 
L 908.190551 955.860357 
L 910.608309 951.596122 
L 912.907622 947.050926 
L 915.080915 942.231416 
L 917.121797 937.144003 
L 919.025207 931.795011 
L 920.787537 926.190877 
L 922.406746 920.338387 
L 923.882442 914.244947 
L 925.215952 907.918856 
L 926.41036 901.36959 
L 927.795188 892.309196 
L 928.957992 882.902344 
L 929.920625 873.185903 
L 930.710086 863.203509 
L 931.502093 850.42931 
L 932.376446 832.200642 
L 933.832565 800.998738 
L 934.656093 788.413503 
L 935.491383 778.670317 
L 936.526539 769.293542 
L 937.455863 762.541235 
L 938.531511 756.057284 
L 939.765487 749.864104 
L 941.168067 743.981092 
L 942.74768 738.424371 
L 944.510822 733.206601 
L 946.462 728.336855 
L 948.603716 723.82058 
L 950.137714 721.007163 
L 951.756335 718.351417 
L 953.458877 715.852353 
L 955.244279 713.508335 
L 957.111135 711.317113 
L 959.057717 709.275863 
L 961.081989 707.381221 
L 963.181634 705.62933 
L 965.354074 704.015885 
L 968.743021 701.844911 
L 972.279055 699.95745 
L 975.950997 698.334783 
L 979.747038 696.957157 
L 983.654935 695.804151 
L 987.66222 694.855009 
L 991.756385 694.088951 
L 997.329075 693.316915 
L 1003.005799 692.78666 
L 1008.759559 692.453184 
L 1016.022039 692.248985 
L 1026.242915 692.22604 
L 1056.419375 692.378078 
L 1064.73001 692.089151 
L 1071.508391 691.621397 
L 1076.824605 691.065047 
L 1082.038889 690.321387 
L 1087.144925 689.367563 
L 1092.136778 688.181567 
L 1097.008988 686.742589 
L 1100.58169 685.4857 
L 1104.082603 684.068258 
L 1107.510288 682.483592 
L 1110.863667 680.72585 
L 1114.142086 678.790082 
L 1117.34536 676.672328 
L 1120.473827 674.369688 
L 1123.528382 671.880391 
L 1126.510511 669.20386 
L 1129.422309 666.340763 
L 1132.266486 663.293066 
L 1135.959347 658.948242 
L 1139.547407 654.293014 
L 1143.041791 649.343699 
L 1146.455041 644.121416 
L 1150.628374 637.250022 
L 1154.724422 630.056024 
L 1160.383211 619.590227 
L 1173.334874 595.328345 
L 1177.461662 588.1336 
L 1180.802549 582.68117 
L 1184.17886 577.583686 
L 1187.587827 572.921107 
L 1190.162668 569.757405 
L 1192.749276 566.915727 
L 1195.34331 564.427528 
L 1197.939588 562.322552 
L 1199.668766 561.145843 
L 1201.394344 560.159268 
L 1203.114226 559.369754 
L 1204.826185 558.783572 
L 1206.527872 558.406288 
L 1208.216828 558.242705 
L 1209.890486 558.296814 
L 1211.54619 558.571755 
L 1213.181197 559.069773 
L 1214.792693 559.792192 
L 1216.3778 560.739385 
L 1217.93359 561.91076 
L 1219.457092 563.304746 
L 1220.945307 564.918798 
L 1222.395217 566.749393 
L 1223.803797 568.792054 
L 1225.832573 572.241576 
L 1227.75146 576.133803 
L 1229.550532 580.442419 
L 1231.220138 585.137236 
L 1232.751004 590.184662 
L 1234.134337 595.548232 
L 1235.361929 601.189207 
L 1236.426268 607.067207 
L 1237.320645 613.140876 
L 1238.039266 619.368571 
L 1238.577347 625.709045 
L 1238.931224 632.122126 
L 1239.098435 638.569368 
L 1239.077799 645.014666 
L 1238.869481 651.424821 
L 1238.475036 657.770047 
L 1237.897437 664.0244 
L 1237.141076 670.166143 
L 1236.211745 676.178005 
L 1235.116594 682.047373 
L 1233.864063 687.766372 
L 1232.463789 693.331865 
L 1230.385606 700.516972 
L 1228.091922 707.448109 
L 1225.613084 714.153879 
L 1222.981102 720.674132 
L 1219.525982 728.639148 
L 1213.767848 741.221551 
L 1207.947261 754.039724 
L 1204.380159 762.384567 
L 1201.606477 769.328547 
L 1198.928615 776.555687 
L 1196.367343 784.095936 
L 1193.941869 791.966854 
L 1191.670268 800.172508 
L 1189.569967 808.702839 
L 1187.658232 817.533508 
L 1185.952604 826.626272 
L 1184.471244 835.929858 
L 1183.23314 845.381336 
L 1182.258149 854.907949 
L 1181.566853 864.429346 
L 1181.247173 871.515725 
L 1181.107702 878.514236 
L 1181.157075 885.38794 
L 1181.403546 892.100637 
L 1181.854786 898.617602 
L 1182.517667 904.9063 
L 1183.398034 910.937072 
L 1184.500488 916.683777 
L 1185.828166 922.12438 
L 1187.38255 927.241461 
L 1189.163286 932.022642 
L 1190.47513 935.019796 
L 1191.885384 937.863729 
L 1193.392424 940.55486 
L 1194.9942 943.09474 
L 1196.688232 945.486043 
L 1198.471613 947.732554 
L 1200.34101 949.83914 
L 1203.298094 952.74988 
L 1206.425908 955.383483 
L 1209.708282 957.76872 
L 1213.127343 959.938454 
L 1216.663721 961.929012 
L 1221.525577 964.372245 
L 1227.765663 967.225797 
L 1237.877409 971.791139 
L 1242.876545 974.280646 
L 1246.557407 976.311651 
L 1250.155691 978.519891 
L 1253.650912 980.934194 
L 1257.023679 983.578949 
L 1260.255839 986.473742 
L 1263.33058 989.633123 
L 1266.232522 993.066488 
L 1268.947782 996.778086 
L 1271.46402 1000.767155 
L 1273.77047 1005.028166 
L 1275.85796 1009.551185 
L 1277.718922 1014.322325 
L 1279.347397 1019.324287 
L 1280.739042 1024.536958 
L 1281.89113 1029.938069 
L 1282.802564 1035.503867 
L 1283.473878 1041.209805 
L 1283.907258 1047.031209 
L 1284.106556 1052.943919 
L 1284.077302 1058.924872 
L 1283.826726 1064.952623 
L 1283.363758 1071.007773 
L 1282.699039 1077.073315 
L 1281.844898 1083.134863 
L 1280.815333 1089.180783 
L 1279.196914 1097.202756 
L 1277.335826 1105.16776 
L 1275.27779 1113.069568 
L 1272.504202 1122.858204 
L 1267.266538 1140.259502 
L 1263.3189 1153.635438 
L 1260.750501 1163.109692 
L 1258.926285 1170.630892 
L 1257.359727 1178.083472 
L 1256.094387 1185.443844 
L 1255.365975 1190.885318 
L 1254.841812 1196.242325 
L 1254.533105 1201.497805 
L 1254.44868 1206.633462 
L 1254.594901 1211.630265 
L 1254.975635 1216.469006 
L 1255.592252 1221.130891 
L 1256.443671 1225.598139 
L 1257.526441 1229.854569 
L 1258.834859 1233.886152 
L 1260.361122 1237.681502 
L 1262.095512 1241.232288 
L 1264.026604 1244.533548 
L 1266.141495 1247.583896 
L 1268.426054 1250.385599 
L 1270.865183 1252.944537 
L 1273.443083 1255.270026 
L 1276.143525 1257.374527 
L 1278.950121 1259.273239 
L 1281.846588 1260.98359 
L 1284.816999 1262.52466 
L 1288.866193 1264.350872 
L 1292.985716 1265.960109 
L 1298.187853 1267.736879 
L 1304.442539 1269.628563 
L 1313.722628 1272.174979 
L 1323.78646 1274.723496 
L 1330.686625 1276.265063 
L 1336.548996 1277.327371 
L 1341.432278 1277.965069 
L 1345.358153 1278.282522 
L 1349.316217 1278.412876 
L 1353.31835 1278.350924 
L 1358.396003 1278.012529 
L 1363.563853 1277.419814 
L 1370.938729 1276.293682 
L 1382.695021 1274.456322 
L 1387.988999 1273.907342 
L 1392.138299 1273.728486 
L 1395.173878 1273.79082 
L 1398.123962 1274.051187 
L 1400.970033 1274.533765 
L 1403.693492 1275.259927 
L 1406.276057 1276.24788 
L 1408.700148 1277.512404 
L 1410.219966 1278.514754 
L 1411.65745 1279.647508 
L 1413.00839 1280.912389 
L 1414.268951 1282.310429 
L 1415.435711 1283.841995 
L 1416.505696 1285.50682 
L 1417.476405 1287.304045 
L 1418.742095 1290.244904 
L 1419.775488 1293.473544 
L 1420.574736 1296.980996 
L 1421.140708 1300.75656 
L 1421.476931 1304.788206 
L 1421.58947 1309.06296 
L 1421.486733 1313.567245 
L 1421.179221 1318.287163 
L 1420.679224 1323.208716 
L 1419.737029 1330.06033 
L 1418.512455 1337.212805 
L 1416.640932 1346.526788 
L 1414.457463 1356.195305 
L 1411.518594 1368.169309 
L 1407.770327 1382.48398 
L 1403.778518 1396.932522 
L 1399.594909 1411.211708 
L 1396.490439 1421.108996 
L 1393.274636 1430.588186 
L 1390.607658 1437.765471 
L 1387.843019 1444.493552 
L 1385.697534 1449.196602 
L 1383.484467 1453.569675 
L 1381.199115 1457.582592 
L 1378.837547 1461.207951 
L 1376.396797 1464.421803 
L 1374.724673 1466.325771 
L 1373.016248 1468.033187 
L 1371.271513 1469.54031 
L 1369.490709 1470.844454 
L 1367.674327 1471.944049 
L 1365.823101 1472.838685 
L 1363.938006 1473.52914 
L 1362.020241 1474.017412 
L 1360.071214 1474.306722 
L 1358.092529 1474.401525 
L 1356.085961 1474.307492 
L 1354.053436 1474.031491 
L 1351.997007 1473.581558 
L 1348.872277 1472.600848 
L 1345.70619 1471.284948 
L 1342.506487 1469.674036 
L 1339.280891 1467.812532 
L 1334.952751 1465.023989 
L 1329.521781 1461.216651 
L 1317.615206 1452.736708 
L 1313.329016 1450.000763 
L 1310.13459 1448.180772 
L 1306.958007 1446.604825 
L 1303.79875 1445.308308 
L 1300.655474 1444.321087 
L 1297.526096 1443.667041 
L 1295.44625 1443.425036 
L 1293.370454 1443.342611 
L 1291.297698 1443.422018 
L 1289.226909 1443.66418 
L 1287.156972 1444.068689 
L 1285.086754 1444.633819 
L 1281.978431 1445.775727 
L 1278.863244 1447.256453 
L 1275.737797 1449.054436 
L 1272.599158 1451.142453 
L 1269.445029 1453.488116 
L 1265.212969 1456.951949 
L 1259.879565 1461.682051 
L 1242.62676 1477.348707 
L 1238.34275 1480.784576 
L 1235.164752 1483.09428 
L 1232.029981 1485.127627 
L 1228.951422 1486.845544 
L 1225.942857 1488.212694 
L 1223.983102 1488.913657 
L 1222.065161 1489.436579 
L 1220.193391 1489.77419 
L 1218.372135 1489.92015 
L 1216.605675 1489.869065 
L 1215.744305 1489.768207 
L 1215.744305 1489.768207 
" clip-path="url(#p5b28d03120)" style="fill: none; stroke: #ff8c00; stroke-width: 3; stroke-linecap: square"/>
   </g>
  </g>
 </g>
 <defs>
  <clipPath id="p5b28d03120">
   <rect x="270" y="259.2" width="1674" height="1630.8"/>
  </clipPath>
 </defs>
</svg>
