<?xml version="1.0" encoding="utf-8" standalone="no"?>
<!DOCTYPE svg PUBLIC "-//W3C//DTD SVG 1.1//EN"
  "http://www.w3.org/Graphics/SVG/1.1/DTD/svg11.dtd">
<svg xmlns:xlink="http://www.w3.org/1999/xlink" width="2160pt" height="2160pt" viewBox="0 0 2160 2160" xmlns="http://www.w3.org/2000/svg" version="1.1">
 <metadata>
  <rdf:RDF xmlns:dc="http://purl.org/dc/elements/1.1/" xmlns:cc="http://creativecommons.org/ns#" xmlns:rdf="http://www.w3.org/1999/02/22-rdf-syntax-ns#">
   <cc:Work>
    <dc:type rdf:resource="http://purl.org/dc/dcmitype/StillImage"/>
    <dc:date>2022-03-09T01:03:25.550559</dc:date>
    <dc:format>image/svg+xml</dc:format>
    <dc:creator>
     <cc:Agent>
      <dc:title>Matplotlib v3.5.1, https://matplotlib.org/</dc:title>
     </cc:Agent>
    </dc:creator>
   </cc:Work>
  </rdf:RDF>
 </metadata>
 <defs>
  <style type="text/css">*{stroke-linejoin: round; stroke-linecap: butt}</style>
 </defs>
 <g id="figure_1">
  <g id="patch_1">
   <path d="M 0 2160 
L 2160 2160 
L 2160 0 
L 0 0 
L 0 2160 
z
" style="fill: none"/>
  </g>
  <g id="axes_1">
   <g id="line2d_1">
    <path d="M 1257.636748 1371.868297 
L 1255.340905 1371.540585 
L 1253.138416 1371.06427 
L 1251.034339 1370.43824 
L 1249.033353 1369.662054 
L 1247.139704 1368.735935 
L 1245.357144 1367.660749 
L 1243.68889 1366.437982 
L 1242.137566 1365.069724 
L 1240.705168 1363.558632 
L 1239.393022 1361.907906 
L 1238.201754 1360.121256 
L 1237.131261 1358.202864 
L 1236.180693 1356.157351 
L 1235.348441 1353.98974 
L 1234.316492 1350.521251 
L 1233.533973 1346.809702 
L 1232.985834 1342.875897 
L 1232.653373 1338.741655 
L 1232.514466 1334.429522 
L 1232.586292 1328.443058 
L 1232.889706 1322.236104 
L 1233.615312 1312.630981 
L 1234.774959 1297.907102 
L 1235.107597 1291.365851 
L 1235.216435 1284.888656 
L 1235.107636 1280.096815 
L 1234.804605 1275.378941 
L 1234.282372 1270.74954 
L 1233.519036 1266.22215 
L 1232.496045 1261.809412 
L 1231.198411 1257.523158 
L 1229.614869 1253.374505 
L 1227.737975 1249.373959 
L 1226.321808 1246.794168 
L 1224.77347 1244.287516 
L 1223.093595 1241.856799 
L 1221.283547 1239.504755 
L 1219.345404 1237.23408 
L 1217.281933 1235.047435 
L 1213.959407 1231.930782 
L 1210.376932 1229.017927 
L 1206.551573 1226.317592 
L 1202.502954 1223.838419 
L 1198.252898 1221.588936 
L 1193.825025 1219.577507 
L 1189.244337 1217.812251 
L 1184.536771 1216.300927 
L 1179.728752 1215.050805 
L 1174.846731 1214.068506 
L 1169.91673 1213.359819 
L 1164.963895 1212.929506 
L 1160.012071 1212.781089 
L 1155.083403 1212.91663 
L 1150.197977 1213.336505 
L 1145.373497 1214.039181 
L 1140.625029 1215.021011 
L 1135.964793 1216.27603 
L 1131.402027 1217.795797 
L 1126.942924 1219.569247 
L 1122.590641 1221.582603 
L 1118.345383 1223.81932 
L 1114.204568 1226.260082 
L 1110.163062 1228.882863 
L 1106.213481 1231.663031 
L 1101.074144 1235.567635 
L 1094.816851 1240.666389 
L 1075.42612 1256.882001 
L 1070.604637 1260.482807 
L 1066.977112 1262.963406 
L 1063.338855 1265.220985 
L 1059.692139 1267.226939 
L 1056.042211 1268.955295 
L 1052.397283 1270.383065 
L 1048.76843 1271.490548 
L 1045.169395 1272.261562 
L 1042.794486 1272.582322 
L 1040.445265 1272.745145 
L 1038.12739 1272.748021 
L 1035.846811 1272.589691 
L 1033.609712 1272.269644 
L 1031.422443 1271.788101 
L 1029.291454 1271.145991 
L 1027.223222 1270.34493 
L 1025.224187 1269.387186 
L 1023.300675 1268.275645 
L 1021.458839 1267.013768 
L 1019.704586 1265.605544 
L 1018.043514 1264.055446 
L 1016.480858 1262.368374 
L 1015.021432 1260.549606 
L 1013.669579 1258.604738 
L 1012.429127 1256.53963 
L 1011.303352 1254.36035 
L 1010.294948 1252.073111 
L 1009.006799 1248.453642 
L 1007.991656 1244.626861 
L 1007.250661 1240.61395 
L 1006.781725 1236.435515 
L 1006.579599 1232.111251 
L 1006.636022 1227.659654 
L 1006.939911 1223.097782 
L 1007.477616 1218.441077 
L 1008.233201 1213.703235 
L 1009.18876 1208.89615 
L 1010.739925 1202.396163 
L 1012.561898 1195.809896 
L 1015.139992 1187.476743 
L 1018.535188 1177.352894 
L 1027.329707 1151.551684 
L 1030.022524 1142.824844 
L 1031.989917 1135.815395 
L 1033.748066 1128.796012 
L 1035.260285 1121.785159 
L 1036.492843 1114.805937 
L 1037.21511 1109.608743 
L 1037.750817 1104.458024 
L 1038.089047 1099.368157 
L 1038.21987 1094.354478 
L 1038.134376 1089.433022 
L 1037.824705 1084.620237 
L 1037.284094 1079.932656 
L 1036.506912 1075.386562 
L 1035.4887 1070.997628 
L 1034.226202 1066.780566 
L 1032.717395 1062.748789 
L 1030.961499 1058.914096 
L 1028.958988 1055.286388 
L 1026.711581 1051.873434 
L 1024.22222 1048.680688 
L 1021.495041 1045.711166 
L 1018.535328 1042.96539 
L 1015.349464 1040.441399 
L 1011.944867 1038.134838 
L 1008.329929 1036.039105 
L 1004.51395 1034.145582 
L 1000.507072 1032.44391 
L 996.320222 1030.922334 
L 991.965057 1029.568089 
L 987.453916 1028.367816 
L 981.218978 1026.983667 
L 974.762421 1025.818343 
L 968.118647 1024.843764 
L 959.606057 1023.858575 
L 950.932502 1023.10311 
L 942.17697 1022.56356 
L 933.422181 1022.246192 
L 924.753667 1022.177331 
L 917.939364 1022.330551 
L 911.280154 1022.700751 
L 904.819134 1023.322077 
L 900.128156 1023.974898 
L 895.58783 1024.805339 
L 891.212909 1025.828778 
L 887.016522 1027.059732 
L 883.009883 1028.51136 
L 879.202018 1030.195011 
L 875.599516 1032.119812 
L 872.206309 1034.292311 
L 869.023494 1036.716184 
L 866.049211 1039.39202 
L 863.27857 1042.317175 
L 860.703649 1045.485712 
L 858.313549 1048.888413 
L 856.094529 1052.512875 
L 854.030195 1056.34367 
L 852.101766 1060.362571 
L 849.705645 1065.977539 
L 847.459944 1071.834723 
L 844.247142 1080.941351 
L 838.818722 1096.430226 
L 836.45963 1102.541154 
L 833.920492 1108.507305 
L 831.87411 1112.850688 
L 829.690702 1117.055146 
L 827.359486 1121.09862 
L 824.872519 1124.960825 
L 822.224701 1128.623383 
L 819.413707 1132.069926 
L 816.439851 1135.286179 
L 813.305883 1138.260017 
L 810.016738 1140.981507 
L 806.579232 1143.442931 
L 803.001729 1145.638797 
L 799.293789 1147.565832 
L 795.465803 1149.222967 
L 791.528634 1150.611297 
L 787.493269 1151.73404 
L 783.370499 1152.596463 
L 779.170641 1153.2058 
L 774.903286 1153.571143 
L 770.577117 1153.703307 
L 766.199765 1153.614678 
L 761.777726 1153.319021 
L 757.31634 1152.83127 
L 751.313741 1151.909637 
L 745.255683 1150.714062 
L 739.14656 1149.284672 
L 731.441919 1147.229351 
L 722.099675 1144.4644 
L 709.490365 1140.444704 
L 691.945338 1134.573123 
L 677.577834 1129.538765 
L 668.118897 1126.001932 
L 660.387627 1122.877912 
L 654.345448 1120.221061 
L 648.466162 1117.38867 
L 642.783762 1114.347584 
L 638.671638 1111.910608 
L 634.703514 1109.325988 
L 630.893145 1106.582759 
L 627.253792 1103.671665 
L 623.798124 1100.585465 
L 620.538132 1097.319184 
L 617.485073 1093.870321 
L 614.649431 1090.238989 
L 612.040902 1086.428003 
L 609.668389 1082.4429 
L 607.540014 1078.291914 
L 605.663134 1073.985882 
L 604.044363 1069.538113 
L 602.689592 1064.96421 
L 601.603998 1060.281852 
L 600.792049 1055.510556 
L 600.257491 1050.671407 
L 600.003325 1045.786784 
L 600.031767 1040.880077 
L 600.34419 1035.975395 
L 600.941053 1031.097299 
L 601.821823 1026.270522 
L 602.984883 1021.519724 
L 604.427443 1016.869246 
L 606.14545 1012.342897 
L 608.133504 1007.963748 
L 610.384797 1003.753952 
L 612.891057 999.734572 
L 615.642531 995.925435 
L 618.627981 992.344985 
L 621.834731 989.010159 
L 625.248728 985.936263 
L 627.632349 984.03873 
L 630.096476 982.266793 
L 632.636092 980.623632 
L 635.246003 979.112033 
L 637.920877 977.734369 
L 642.043053 975.923154 
L 646.280442 974.422314 
L 650.614243 973.23427 
L 655.025816 972.359054 
L 659.496976 971.794222 
L 664.010279 971.534806 
L 668.549305 971.573267 
L 673.098917 971.899481 
L 677.645495 972.500756 
L 682.177137 973.361878 
L 686.683815 974.465189 
L 691.157491 975.790715 
L 695.592176 977.316321 
L 699.983945 979.017911 
L 705.769864 981.515616 
L 711.477059 984.21506 
L 719.904987 988.492506 
L 736.443566 997.002776 
L 741.922389 999.57803 
L 747.411716 1001.919508 
L 751.544005 1003.489782 
L 755.694596 1004.878319 
L 759.866753 1006.067465 
L 764.06223 1007.042037 
L 768.281135 1007.789373 
L 772.521823 1008.299324 
L 776.780846 1008.56419 
L 781.052949 1008.578604 
L 785.331109 1008.339382 
L 789.606617 1007.845316 
L 793.869206 1007.096951 
L 798.107209 1006.096335 
L 802.307761 1004.846754 
L 806.457016 1003.352473 
L 810.540399 1001.618472 
L 814.542867 999.65021 
L 818.449186 997.453403 
L 822.244213 995.033838 
L 825.913181 992.397226 
L 829.441975 989.549089 
L 832.81741 986.4947 
L 836.027482 983.239063 
L 839.061617 979.786941 
L 841.910895 976.142926 
L 844.568246 972.311547 
L 847.028637 968.297413 
L 849.289216 964.105388 
L 851.349437 959.740775 
L 853.211151 955.209518 
L 854.878665 950.518405 
L 856.358771 945.675262 
L 857.660733 940.689127 
L 858.796244 935.570403 
L 860.075933 928.559954 
L 861.124335 921.367605 
L 862.179885 912.178984 
L 863.207922 900.974025 
L 865.042757 880.458041 
L 865.895017 873.182147 
L 866.942082 866.091023 
L 867.889768 860.925664 
L 869.00187 855.914885 
L 870.299299 851.078338 
L 871.801013 846.434009 
L 873.523768 841.997953 
L 875.48191 837.784065 
L 876.924031 835.104037 
L 878.47888 832.530748 
L 880.148733 830.066506 
L 881.935319 827.71311 
L 883.839809 825.471845 
L 885.862825 823.343481 
L 888.004442 821.328284 
L 890.264201 819.426025 
L 892.64112 817.635994 
L 895.133721 815.957019 
L 897.740041 814.387489 
L 901.857344 812.233871 
L 906.215068 810.31344 
L 910.801384 808.616065 
L 915.602811 807.130163 
L 920.604502 805.842965 
L 925.790522 804.740787 
L 931.144151 803.809293 
L 936.648163 803.033748 
L 944.190607 802.216536 
L 951.928189 801.615009 
L 961.813615 801.114484 
L 971.867284 800.834336 
L 984.058937 800.706968 
L 1002.39851 800.756758 
L 1032.46304 800.852902 
L 1046.070938 800.662797 
L 1057.450138 800.279828 
L 1066.705718 799.761384 
L 1075.735466 799.026872 
L 1082.7853 798.26244 
L 1089.671817 797.32413 
L 1096.387798 796.197568 
L 1102.92702 794.869661 
L 1109.284549 793.32888 
L 1115.457062 791.565548 
L 1121.443166 789.572099 
L 1127.243689 787.343311 
L 1132.861927 784.876519 
L 1138.303803 782.171798 
L 1143.577943 779.232122 
L 1148.695638 776.063511 
L 1153.670696 772.675171 
L 1158.51918 769.079637 
L 1163.259032 765.292917 
L 1169.060659 760.32096 
L 1174.76237 755.128056 
L 1182.652218 747.596449 
L 1198.466455 732.365312 
L 1204.213318 727.162959 
L 1208.865045 723.20281 
L 1213.566554 719.482663 
L 1218.315003 716.0597 
L 1221.90313 713.721885 
L 1225.509433 711.607005 
L 1229.128256 709.737924 
L 1232.752752 708.136395 
L 1236.374936 706.82271 
L 1239.985765 705.815353 
L 1243.575211 705.130662 
L 1245.950939 704.86042 
L 1248.308891 704.743249 
L 1250.645487 704.782006 
L 1252.957016 704.978941 
L 1255.239651 705.335662 
L 1257.489462 705.853117 
L 1259.702431 706.531573 
L 1261.874471 707.370605 
L 1264.001433 708.369091 
L 1266.079131 709.525205 
L 1268.103351 710.836425 
L 1270.069871 712.299543 
L 1271.974475 713.910682 
L 1273.81297 715.665315 
L 1276.437696 718.554897 
L 1278.890606 721.735816 
L 1281.158388 725.185595 
L 1283.228301 728.879442 
L 1285.088324 732.790648 
L 1286.727307 736.89102 
L 1288.135118 741.151347 
L 1289.302799 745.541885 
L 1290.222716 750.032844 
L 1290.888698 754.594884 
L 1291.296173 759.199592 
L 1291.44229 763.819942 
L 1291.326019 768.430722 
L 1290.94823 773.00893 
L 1290.311753 777.534116 
L 1289.421398 781.988677 
L 1288.283953 786.35809 
L 1286.908146 790.631086 
L 1285.304571 794.799757 
L 1283.485583 798.859598 
L 1281.465162 802.809479 
L 1279.25874 806.651557 
L 1276.883016 810.391118 
L 1274.355733 814.036371 
L 1270.782431 818.769123 
L 1267.018224 823.38586 
L 1262.114962 829.051862 
L 1244.929069 848.546392 
L 1241.001535 853.429345 
L 1237.192301 858.501398 
L 1233.531646 863.788047 
L 1230.047409 869.306424 
L 1227.565664 873.602356 
L 1225.208226 878.032891 
L 1222.985315 882.594452 
L 1220.907084 887.280214 
L 1218.983764 892.080164 
L 1217.225791 896.981211 
L 1215.643914 901.967372 
L 1214.249249 907.020013 
L 1213.053304 912.118157 
L 1212.06796 917.23883 
L 1211.305392 922.357475 
L 1210.777955 927.448394 
L 1210.498019 932.485223 
L 1210.477754 937.441441 
L 1210.728893 942.290885 
L 1211.26245 947.008271 
L 1212.088423 951.569718 
L 1212.805874 954.513099 
L 1213.659355 957.371408 
L 1214.650679 960.139224 
L 1215.781259 962.81171 
L 1217.052064 965.38466 
L 1218.463589 967.854543 
L 1220.015825 970.218544 
L 1221.708226 972.474594 
L 1223.539693 974.621398 
L 1225.508549 976.658451 
L 1227.612529 978.586057 
L 1229.84877 980.405324 
L 1232.21381 982.118168 
L 1234.703589 983.7273 
L 1238.661813 985.954372 
L 1242.872003 987.971017 
L 1247.313305 989.795673 
L 1251.962322 991.449971 
L 1256.793369 992.958329 
L 1263.469864 994.788944 
L 1272.094159 996.883625 
L 1293.22212 1001.83237 
L 1300.13461 1003.700032 
L 1306.859771 1005.779674 
L 1311.73945 1007.508993 
L 1316.448174 1009.40338 
L 1320.960595 1011.476865 
L 1325.253243 1013.739868 
L 1329.304647 1016.199121 
L 1333.095423 1018.857667 
L 1336.608345 1021.71496 
L 1338.788416 1023.728414 
L 1340.834364 1025.826541 
L 1342.742728 1028.006791 
L 1344.510488 1030.26608 
L 1346.135066 1032.60084 
L 1347.614334 1035.007075 
L 1348.946603 1037.48042 
L 1350.130637 1040.016207 
L 1351.165642 1042.609522 
L 1352.051276 1045.255277 
L 1352.787647 1047.948269 
L 1353.375317 1050.683249 
L 1353.815304 1053.454979 
L 1354.201736 1057.670221 
L 1354.266251 1061.939739 
L 1354.018149 1066.247749 
L 1353.469107 1070.579837 
L 1352.633184 1074.923227 
L 1351.52681 1079.266974 
L 1350.168758 1083.602084 
L 1348.580085 1087.921547 
L 1346.784047 1092.220297 
L 1344.110829 1097.914387 
L 1341.179496 1103.562825 
L 1337.260164 1110.560685 
L 1323.038568 1135.289505 
L 1320.336918 1140.696726 
L 1318.521408 1144.724782 
L 1316.917331 1148.723211 
L 1315.54997 1152.684596 
L 1314.442013 1156.599869 
L 1313.613279 1160.458461 
L 1313.080491 1164.24852 
L 1312.857093 1167.957197 
L 1312.953125 1171.570995 
L 1313.197992 1173.920684 
L 1313.588897 1176.218027 
L 1314.126237 1178.459054 
L 1314.809727 1180.639937 
L 1315.638424 1182.757049 
L 1316.610736 1184.807015 
L 1317.724451 1186.786769 
L 1318.976763 1188.693592 
L 1320.364301 1190.525167 
L 1321.883165 1192.279606 
L 1324.397968 1194.763659 
L 1327.181594 1197.068361 
L 1330.215419 1199.19359 
L 1333.479224 1201.14184 
L 1336.951561 1202.918162 
L 1340.610132 1204.530006 
L 1344.432165 1205.986989 
L 1348.394787 1207.300572 
L 1353.85799 1208.85145 
L 1359.479277 1210.203775 
L 1366.654802 1211.667548 
L 1375.374034 1213.177066 
L 1386.995285 1214.924791 
L 1404.081648 1217.241531 
L 1416.549502 1218.753339 
L 1426.111292 1219.697632 
L 1434.291084 1220.266469 
L 1441.148545 1220.530027 
L 1448.082972 1220.582201 
L 1455.123735 1220.421224 
L 1463.735987 1219.973422 
L 1474.002407 1219.193962 
L 1493.385172 1217.658049 
L 1500.749699 1217.310098 
L 1506.506143 1217.23215 
L 1512.080367 1217.383997 
L 1516.105063 1217.674797 
L 1519.967215 1218.135209 
L 1523.64109 1218.779055 
L 1527.101758 1219.617756 
L 1530.325628 1220.660197 
L 1533.290975 1221.912685 
L 1535.978419 1223.378966 
L 1537.607334 1224.475997 
L 1539.10114 1225.668479 
L 1540.456348 1226.955797 
L 1541.670166 1228.336938 
L 1542.740526 1229.810533 
L 1543.6661 1231.37489 
L 1544.446311 1233.028031 
L 1545.081334 1234.767735 
L 1545.572084 1236.591573 
L 1545.920205 1238.496948 
L 1546.180267 1241.501891 
L 1546.135525 1244.674519 
L 1545.799711 1248.004934 
L 1545.1892 1251.483119 
L 1544.322547 1255.099058 
L 1543.219966 1258.842802 
L 1541.4198 1264.016208 
L 1539.289944 1269.375903 
L 1536.2416 1276.301275 
L 1532.850631 1283.431875 
L 1528.440644 1292.183594 
L 1522.954008 1302.525715 
L 1518.026486 1311.355632 
L 1513.775439 1318.573128 
L 1509.38213 1325.555722 
L 1505.749177 1330.899669 
L 1501.993445 1335.965642 
L 1499.085154 1339.547603 
L 1496.089842 1342.916307 
L 1493.000177 1346.048654 
L 1489.809595 1348.923029 
L 1486.512609 1351.519804 
L 1483.105076 1353.821824 
L 1479.584399 1355.814877 
L 1477.1739 1356.966422 
L 1474.712832 1357.973441 
L 1472.201707 1358.834406 
L 1469.641382 1359.548605 
L 1467.033053 1360.116166 
L 1464.378236 1360.538082 
L 1460.312917 1360.9022 
L 1456.15449 1360.953048 
L 1451.911492 1360.705058 
L 1447.593439 1360.176939 
L 1443.210564 1359.391454 
L 1438.773539 1358.375106 
L 1434.293192 1357.157738 
L 1428.270476 1355.278784 
L 1420.69723 1352.637808 
L 1398.042887 1344.444374 
L 1392.08017 1342.605164 
L 1387.637056 1341.415075 
L 1383.218506 1340.417108 
L 1378.823014 1339.634015 
L 1374.448 1339.084362 
L 1370.089954 1338.782245 
L 1365.744608 1338.737091 
L 1361.407128 1338.95354 
L 1357.072318 1339.43141 
L 1352.734849 1340.165752 
L 1348.389481 1341.146978 
L 1344.031308 1342.361063 
L 1339.655995 1343.789824 
L 1333.78963 1345.990235 
L 1327.881248 1348.471312 
L 1320.435278 1351.859393 
L 1296.348624 1363.081116 
L 1290.367715 1365.542162 
L 1284.464516 1367.705469 
L 1280.112143 1369.089587 
L 1275.844553 1370.239021 
L 1271.681289 1371.129412 
L 1267.642559 1371.739424 
L 1263.748861 1372.05094 
L 1260.020567 1372.049206 
L 1258.818007 1371.976963 
L 1258.818007 1371.976963 
" clip-path="url(#pe95cc3111b)" style="fill: none; stroke: #4169e1; stroke-width: 3; stroke-linecap: square"/>
   </g>
   <g id="line2d_2">
    <path d="M 1221.841311 1464.525273 
L 1220.091024 1464.095414 
L 1218.411907 1463.470635 
L 1216.807816 1462.649474 
L 1215.28232 1461.631355 
L 1213.838654 1460.41657 
L 1212.479679 1459.006253 
L 1211.207848 1457.402357 
L 1210.025161 1455.60762 
L 1208.933141 1453.625528 
L 1207.932797 1451.46028 
L 1207.024607 1449.116739 
L 1205.834783 1445.279294 
L 1204.849319 1441.074063 
L 1204.06259 1436.524463 
L 1203.466019 1431.656045 
L 1203.048133 1426.496092 
L 1202.794674 1421.073229 
L 1202.683003 1413.484976 
L 1202.786941 1405.553512 
L 1203.139196 1395.26608 
L 1204.704673 1356.796621 
L 1204.736222 1348.329836 
L 1204.529395 1340.01151 
L 1204.188939 1333.898431 
L 1203.669965 1327.913377 
L 1202.957456 1322.073308 
L 1202.039065 1316.394085 
L 1200.905248 1310.890587 
L 1199.549353 1305.576847 
L 1197.967663 1300.466191 
L 1196.15939 1295.571373 
L 1194.126631 1290.904705 
L 1191.874269 1286.478173 
L 1189.409844 1282.30353 
L 1186.743381 1278.392369 
L 1183.887184 1274.756169 
L 1180.855592 1271.4063 
L 1177.664717 1268.354006 
L 1174.332143 1265.610339 
L 1170.876618 1263.186069 
L 1168.51427 1261.752468 
L 1166.1119 1260.468366 
L 1163.675494 1259.336556 
L 1161.211039 1258.359662 
L 1158.724481 1257.540111 
L 1156.22168 1256.880096 
L 1153.708362 1256.381547 
L 1151.190078 1256.04609 
L 1148.672164 1255.875011 
L 1146.159698 1255.869218 
L 1143.657463 1256.029201 
L 1141.169918 1256.354996 
L 1138.701159 1256.846141 
L 1136.254898 1257.501646 
L 1133.834438 1258.319952 
L 1131.442649 1259.298902 
L 1129.081961 1260.435709 
L 1126.754347 1261.726927 
L 1123.328125 1263.944064 
L 1119.982792 1266.48231 
L 1116.719244 1269.321175 
L 1113.536203 1272.436532 
L 1110.430379 1275.800661 
L 1107.396686 1279.38237 
L 1103.45235 1284.436425 
L 1099.605434 1289.725799 
L 1093.970863 1297.885293 
L 1085.6808 1309.923315 
L 1082.010996 1314.915642 
L 1078.332259 1319.536164 
L 1075.563953 1322.696802 
L 1072.787792 1325.552048 
L 1070.006263 1328.065473 
L 1067.224123 1330.204268 
L 1065.372391 1331.407624 
L 1063.526064 1332.424165 
L 1061.688153 1333.247364 
L 1059.862048 1333.871639 
L 1058.051483 1334.292378 
L 1056.260502 1334.505952 
L 1054.493417 1334.509723 
L 1052.754767 1334.302043 
L 1051.049264 1333.88224 
L 1049.381751 1333.250602 
L 1047.757143 1332.408349 
L 1046.18038 1331.357602 
L 1044.65637 1330.101334 
L 1043.189938 1328.643332 
L 1041.785773 1326.988134 
L 1040.448378 1325.140975 
L 1039.182023 1323.107718 
L 1037.990697 1320.894795 
L 1036.35232 1317.253792 
L 1034.901769 1313.249262 
L 1033.647824 1308.907818 
L 1032.597019 1304.25706 
L 1031.753505 1299.325023 
L 1031.118979 1294.13964 
L 1030.692666 1288.728244 
L 1030.471357 1283.11711 
L 1030.449505 1277.331062 
L 1030.619358 1271.393135 
L 1030.97114 1265.324312 
L 1031.702911 1257.060987 
L 1032.705567 1248.635918 
L 1033.943405 1240.079549 
L 1035.762459 1229.234361 
L 1038.239079 1216.040733 
L 1043.621991 1189.174823 
L 1046.685305 1173.252984 
L 1048.702803 1161.79393 
L 1050.506301 1150.292526 
L 1051.756275 1141.087427 
L 1052.80562 1131.907905 
L 1053.629746 1122.787279 
L 1054.206329 1113.764613 
L 1054.515352 1104.883996 
L 1054.53918 1096.193448 
L 1054.360679 1089.830615 
L 1054.00774 1083.624798 
L 1053.475778 1077.597514 
L 1052.761095 1071.769641 
L 1051.860898 1066.160946 
L 1050.773331 1060.789641 
L 1049.497483 1055.67195 
L 1048.033396 1050.821728 
L 1046.382065 1046.250128 
L 1044.545425 1041.965338 
L 1042.526328 1037.972393 
L 1040.328517 1034.27307 
L 1037.956582 1030.865876 
L 1035.415921 1027.746126 
L 1032.71269 1024.906116 
L 1029.853754 1022.335385 
L 1026.846635 1020.02106 
L 1023.699471 1017.948279 
L 1020.420965 1016.100681 
L 1017.020356 1014.460938 
L 1013.507386 1013.01134 
L 1009.892275 1011.73438 
L 1004.931777 1010.271635 
L 999.835327 1009.05074 
L 994.630914 1008.042737 
L 989.347901 1007.227121 
L 984.016969 1006.593253 
L 978.670012 1006.141226 
L 973.339945 1005.882093 
L 968.060411 1005.837459 
L 962.865374 1006.038436 
L 959.044871 1006.373573 
L 955.304839 1006.887386 
L 951.658758 1007.599836 
L 948.119453 1008.531514 
L 944.698873 1009.702984 
L 941.40788 1011.134116 
L 938.256017 1012.843425 
L 936.236099 1014.145771 
L 934.28357 1015.583442 
L 932.400018 1017.160148 
L 930.586639 1018.87896 
L 928.844221 1020.74225 
L 927.173122 1022.751648 
L 924.799896 1026.041317 
L 922.584663 1029.660805 
L 920.522925 1033.605209 
L 918.607876 1037.8653 
L 916.830473 1042.427575 
L 915.179545 1047.274415 
L 913.641965 1052.384322 
L 911.742249 1059.562982 
L 909.978192 1067.096482 
L 907.492581 1078.894062 
L 902.107367 1105.251828 
L 899.798747 1115.191927 
L 897.782768 1122.892918 
L 895.587022 1130.288193 
L 893.809768 1135.591997 
L 891.913772 1140.658031 
L 889.895149 1145.462189 
L 887.752124 1149.983002 
L 885.484938 1154.201744 
L 883.095688 1158.102512 
L 880.588134 1161.672276 
L 877.967474 1164.900913 
L 875.240084 1167.781219 
L 872.413253 1170.308901 
L 869.494902 1172.482556 
L 867.502573 1173.735572 
L 865.475735 1174.832941 
L 863.416861 1175.776318 
L 861.328379 1176.567881 
L 858.145269 1177.476594 
L 854.908336 1178.061025 
L 851.624442 1178.334629 
L 848.299682 1178.312991 
L 844.939301 1178.013591 
L 841.547664 1177.455542 
L 838.128262 1176.659279 
L 834.683761 1175.646226 
L 830.055288 1173.996384 
L 825.388461 1172.052974 
L 820.684854 1169.867541 
L 814.755079 1166.869086 
L 807.568961 1162.989162 
L 796.668497 1156.815284 
L 785.69588 1150.371105 
L 777.204048 1145.143582 
L 771.220244 1141.223643 
L 766.515017 1137.925884 
L 761.908626 1134.440908 
L 757.426421 1130.725676 
L 754.161847 1127.761937 
L 750.992664 1124.626404 
L 747.929701 1121.302422 
L 744.983547 1117.77496 
L 742.164448 1114.031084 
L 739.482221 1110.060371 
L 736.946185 1105.855273 
L 734.565112 1101.411404 
L 732.347195 1096.727753 
L 730.300026 1091.806822 
L 728.430592 1086.654686 
L 726.745285 1081.280974 
L 725.249904 1075.698781 
L 723.94968 1069.924507 
L 722.849286 1063.977644 
L 721.952849 1057.880507 
L 721.263957 1051.657931 
L 720.78565 1045.336926 
L 720.520408 1038.946324 
L 720.470126 1032.516402 
L 720.636067 1026.078514 
L 721.018823 1019.664716 
L 721.618245 1013.307414 
L 722.433384 1007.039022 
L 723.462418 1000.891641 
L 724.702587 994.896764 
L 726.150122 989.085004 
L 727.800195 983.485845 
L 729.646876 978.127416 
L 731.683106 973.036285 
L 733.900692 968.237268 
L 736.290332 963.75326 
L 738.841655 959.605068 
L 741.543295 955.811255 
L 743.421878 953.487015 
L 745.358011 951.331689 
L 747.347735 949.348932 
L 749.386985 947.541858 
L 751.471608 945.913027 
L 753.59739 944.464426 
L 755.760088 943.197452 
L 757.95545 942.112896 
L 760.179252 941.210928 
L 762.42732 940.491085 
L 764.695567 939.952257 
L 766.980015 939.59268 
L 769.276827 939.409924 
L 771.582335 939.400892 
L 773.893064 939.561818 
L 776.205755 939.888266 
L 778.517391 940.375135 
L 781.976908 941.393469 
L 785.419777 942.737548 
L 788.839356 944.382166 
L 792.230556 946.299204 
L 795.589862 948.457883 
L 798.915314 950.825054 
L 803.295988 954.244567 
L 808.690753 958.81804 
L 818.220529 967.346799 
L 824.497972 972.816127 
L 828.674876 976.194074 
L 832.859788 979.265378 
L 836.010131 981.325099 
L 839.174428 983.146435 
L 842.355165 984.706231 
L 845.553682 985.984573 
L 848.770059 986.96485 
L 852.003042 987.63375 
L 855.250004 987.981172 
L 858.506938 988.00008 
L 861.76849 987.686294 
L 865.028019 987.03823 
L 868.2777 986.056604 
L 871.508637 984.7441 
L 874.711022 983.105032 
L 877.8743 981.144991 
L 880.987359 978.870511 
L 884.03873 976.288752 
L 887.0168 973.407211 
L 889.910024 970.233481 
L 892.707144 966.77505 
L 895.3974 963.039164 
L 897.970739 959.032738 
L 900.418009 954.762336 
L 902.731151 950.234206 
L 904.903361 945.454371 
L 906.929253 940.42877 
L 908.804987 935.163452 
L 910.528391 929.664795 
L 912.099046 923.939754 
L 913.518365 917.996128 
L 914.789633 911.84282 
L 915.918025 905.490094 
L 917.212772 896.730334 
L 918.288126 887.670463 
L 919.17149 878.349854 
L 920.055732 866.403019 
L 920.89241 851.771716 
L 922.847587 815.147263 
L 923.77053 803.398661 
L 924.708939 794.324489 
L 925.870038 785.610579 
L 926.90955 779.348046 
L 928.109255 773.344962 
L 929.481333 767.621473 
L 931.036079 762.194801 
L 932.781787 757.079027 
L 934.724669 752.284929 
L 936.868812 747.8199 
L 938.411104 745.028136 
L 940.043813 742.384813 
L 941.766591 739.88963 
L 943.578689 737.541656 
L 945.478979 735.339353 
L 947.465966 733.280609 
L 949.537808 731.362769 
L 951.692339 729.582674 
L 953.927093 727.9367 
L 957.423574 725.710262 
L 961.084051 723.761212 
L 964.897201 722.072802 
L 968.850881 720.62708 
L 972.93234 719.405244 
L 977.128448 718.387966 
L 981.425896 717.555709 
L 987.290535 716.700225 
L 993.280886 716.093879 
L 999.367372 715.693255 
L 1007.068555 715.419523 
L 1016.382014 715.327167 
L 1031.893699 715.455098 
L 1048.673269 715.540042 
L 1057.611382 715.381519 
L 1064.913889 715.065433 
L 1072.066827 714.534939 
L 1077.671753 713.926955 
L 1083.16478 713.132168 
L 1088.539379 712.129466 
L 1093.78947 710.898689 
L 1098.90955 709.420985 
L 1102.6614 708.140253 
L 1106.33578 706.704416 
L 1109.931408 705.107708 
L 1113.447432 703.345189 
L 1116.883481 701.412818 
L 1120.239726 699.307533 
L 1123.516916 697.027309 
L 1126.716421 694.571224 
L 1129.840254 691.93951 
L 1132.891081 689.133603 
L 1135.872216 686.156188 
L 1139.745562 681.926584 
L 1143.513076 677.412457 
L 1147.187391 672.631367 
L 1150.782492 667.605488 
L 1155.187822 661.020523 
L 1160.38438 652.760749 
L 1168.102121 639.930262 
L 1175.861567 627.090306 
L 1180.232061 620.207786 
L 1184.659107 613.674141 
L 1188.243408 608.794444 
L 1191.863495 604.304562 
L 1194.598984 601.238062 
L 1197.34833 598.463985 
L 1200.107222 596.012321 
L 1202.870437 593.911604 
L 1205.631891 592.18845 
L 1207.468508 591.261523 
L 1209.299061 590.519741 
L 1211.121183 589.968999 
L 1212.932372 589.614525 
L 1214.73001 589.460831 
L 1216.511366 589.511669 
L 1218.273613 589.769988 
L 1220.01383 590.237897 
L 1221.729024 590.916639 
L 1223.416131 591.806567 
L 1225.072034 592.907122 
L 1226.693572 594.21683 
L 1228.277552 595.733298 
L 1229.820761 597.453219 
L 1231.319982 599.372384 
L 1232.771999 601.485706 
L 1234.854537 605.006525 
L 1236.813044 608.927224 
L 1238.637138 613.220608 
L 1240.316803 617.856129 
L 1241.842498 622.800366 
L 1243.205265 628.017572 
L 1244.39685 633.470251 
L 1245.409815 639.119783 
L 1246.237655 644.927061 
L 1246.874907 650.853137 
L 1247.317265 656.859861 
L 1247.56167 662.910503 
L 1247.606403 668.970348 
L 1247.451156 675.007239 
L 1247.097087 680.992071 
L 1246.546856 686.899227 
L 1245.804633 692.706931 
L 1244.876092 698.397537 
L 1243.768368 703.957722 
L 1242.489995 709.378599 
L 1241.050818 714.655742 
L 1239.461878 719.789123 
L 1237.735282 724.782966 
L 1235.241624 731.239162 
L 1232.55928 737.492051 
L 1229.722641 743.581444 
L 1226.013484 751.037066 
L 1211.397652 779.666843 
L 1208.423677 786.13012 
L 1205.545855 792.850745 
L 1202.786771 799.859556 
L 1200.167244 807.176074 
L 1197.706767 814.807365 
L 1195.424013 822.747326 
L 1193.337353 830.97643 
L 1191.465347 839.461954 
L 1189.82713 848.158683 
L 1188.442682 857.010084 
L 1187.332912 865.949923 
L 1186.693896 872.668595 
L 1186.230991 879.362261 
L 1185.953637 885.996563 
L 1185.871184 892.536704 
L 1185.992711 898.948135 
L 1186.326821 905.197231 
L 1186.88142 911.251978 
L 1187.663487 917.082639 
L 1188.678825 922.662385 
L 1189.931838 927.967884 
L 1191.4253 932.979828 
L 1193.160155 937.68339 
L 1194.450395 940.642639 
L 1195.846655 943.45859 
L 1197.347657 946.130582 
L 1198.951673 948.659012 
L 1200.656522 951.045336 
L 1202.459563 953.292064 
L 1204.357702 955.402754 
L 1206.347393 957.381979 
L 1209.494761 960.116741 
L 1212.823846 962.591121 
L 1216.317437 964.83215 
L 1219.956511 966.870705 
L 1223.720451 968.740917 
L 1228.895161 971.036436 
L 1236.879303 974.243355 
L 1246.299214 978.006797 
L 1251.620039 980.345792 
L 1255.53776 982.254005 
L 1259.367589 984.328738 
L 1263.087723 986.597077 
L 1266.677524 989.081934 
L 1270.117669 991.801713 
L 1273.390266 994.770083 
L 1276.478945 997.995872 
L 1279.368929 1001.483073 
L 1282.047084 1005.230969 
L 1284.501951 1009.234366 
L 1286.723769 1013.483931 
L 1288.704481 1017.966616 
L 1290.437746 1022.666167 
L 1291.918942 1027.563688 
L 1293.145166 1032.638257 
L 1294.115249 1037.867556 
L 1294.829761 1043.228522 
L 1295.291029 1048.697974 
L 1295.503151 1054.25321 
L 1295.472015 1059.872565 
L 1295.205314 1065.535887 
L 1294.712556 1071.224953 
L 1294.005062 1076.923782 
L 1293.095958 1082.618859 
L 1292.000143 1088.299253 
L 1290.27758 1095.83623 
L 1288.296733 1103.319683 
L 1286.106265 1110.743761 
L 1283.154199 1119.940591 
L 1278.19938 1134.484619 
L 1273.377835 1148.857083 
L 1270.644163 1157.75854 
L 1268.70256 1164.82502 
L 1267.035196 1171.827029 
L 1265.992758 1177.023156 
L 1265.148082 1182.1588 
L 1264.516278 1187.220095 
L 1264.110095 1192.191495 
L 1263.939783 1197.056148 
L 1264.012995 1201.796347 
L 1264.334734 1206.394041 
L 1264.907343 1210.831379 
L 1265.730532 1215.091275 
L 1266.801457 1219.157966 
L 1268.11483 1223.017544 
L 1269.663071 1226.658436 
L 1271.436494 1230.071819 
L 1273.423516 1233.25195 
L 1275.610901 1236.196393 
L 1277.984014 1238.906132 
L 1280.527097 1241.385572 
L 1283.223551 1243.642415 
L 1286.056223 1245.687423 
L 1289.007695 1247.534064 
L 1292.060569 1249.198074 
L 1295.197738 1250.696925 
L 1299.483253 1252.470763 
L 1303.852353 1254.029473 
L 1309.380617 1255.742499 
L 1316.040163 1257.554167 
L 1325.937641 1259.975549 
L 1337.73641 1262.624353 
L 1345.080592 1264.072719 
L 1351.3202 1265.070802 
L 1356.517715 1265.669946 
L 1361.745655 1266.015654 
L 1365.969065 1266.093047 
L 1370.242072 1265.990056 
L 1375.665386 1265.620683 
L 1381.184852 1265.022594 
L 1390.190364 1263.767433 
L 1400.435666 1262.373332 
L 1406.070306 1261.857542 
L 1410.486609 1261.6895 
L 1413.717523 1261.748065 
L 1416.857442 1261.992691 
L 1419.886654 1262.446093 
L 1422.785364 1263.128353 
L 1425.534114 1264.056576 
L 1428.114192 1265.244649 
L 1429.731809 1266.186398 
L 1431.261793 1267.250668 
L 1432.699665 1268.439076 
L 1434.041341 1269.752593 
L 1435.283181 1271.191562 
L 1436.422018 1272.755735 
L 1437.455191 1274.444302 
L 1438.380573 1276.255938 
L 1439.196585 1278.188845 
L 1440.213481 1281.31063 
L 1440.981153 1284.691181 
L 1441.501479 1288.319987 
L 1441.779134 1292.185411 
L 1441.821427 1296.275043 
L 1441.638086 1300.575997 
L 1441.240959 1305.075166 
L 1440.64368 1309.759399 
L 1439.562097 1316.270321 
L 1438.1897 1323.05625 
L 1436.125349 1331.878662 
L 1433.743726 1341.021742 
L 1430.563666 1352.324875 
L 1426.531519 1365.807439 
L 1422.2517 1379.378467 
L 1418.423042 1390.860709 
L 1415.118803 1400.159622 
L 1411.696068 1409.065717 
L 1408.857473 1415.809074 
L 1405.914932 1422.130387 
L 1403.631388 1426.549098 
L 1401.275913 1430.657781 
L 1398.8435 1434.428085 
L 1396.329969 1437.83426 
L 1393.73216 1440.853808 
L 1391.952436 1442.642664 
L 1390.134076 1444.246854 
L 1388.27707 1445.662858 
L 1386.381673 1446.888155 
L 1384.448408 1447.921271 
L 1382.478059 1448.761818 
L 1380.47166 1449.41053 
L 1378.430489 1449.869281 
L 1376.356045 1450.1411 
L 1374.250034 1450.230172 
L 1372.114345 1450.141823 
L 1369.951029 1449.88251 
L 1367.762272 1449.459778 
L 1364.43647 1448.538361 
L 1361.066649 1447.302017 
L 1357.661048 1445.788499 
L 1354.227889 1444.039539 
L 1349.621239 1441.419587 
L 1343.840792 1437.842433 
L 1331.168043 1429.875174 
L 1326.606042 1427.304641 
L 1323.206059 1425.594683 
L 1319.825066 1424.114015 
L 1316.462515 1422.895883 
L 1313.116973 1421.968348 
L 1309.786223 1421.353845 
L 1306.467382 1421.068847 
L 1304.259769 1421.067243 
L 1302.054826 1421.218277 
L 1299.851387 1421.522189 
L 1296.546424 1422.262173 
L 1293.238084 1423.335043 
L 1289.922439 1424.726247 
L 1286.595873 1426.415527 
L 1283.255266 1428.377306 
L 1279.898173 1430.581154 
L 1275.393785 1433.835569 
L 1269.717183 1438.279697 
L 1251.35418 1452.999172 
L 1246.7945 1456.227314 
L 1243.412001 1458.397377 
L 1240.075511 1460.307791 
L 1236.79885 1461.921846 
L 1233.596688 1463.20634 
L 1230.484293 1464.131934 
L 1228.466926 1464.536987 
L 1226.501018 1464.764844 
L 1224.591163 1464.809991 
L 1222.741871 1464.667809 
L 1222.741871 1464.667809 
" clip-path="url(#pe95cc3111b)" style="fill: none; stroke: #ff8c00; stroke-width: 3; stroke-linecap: square"/>
   </g>
  </g>
 </g>
 <defs>
  <clipPath id="pe95cc3111b">
   <rect x="270" y="259.2" width="1674" height="1630.8"/>
  </clipPath>
 </defs>
</svg>
