<?xml version="1.0" encoding="utf-8" standalone="no"?>
<!DOCTYPE svg PUBLIC "-//W3C//DTD SVG 1.1//EN"
  "http://www.w3.org/Graphics/SVG/1.1/DTD/svg11.dtd">
<svg xmlns:xlink="http://www.w3.org/1999/xlink" width="2160pt" height="2160pt" viewBox="0 0 2160 2160" xmlns="http://www.w3.org/2000/svg" version="1.1">
 <metadata>
  <rdf:RDF xmlns:dc="http://purl.org/dc/elements/1.1/" xmlns:cc="http://creativecommons.org/ns#" xmlns:rdf="http://www.w3.org/1999/02/22-rdf-syntax-ns#">
   <cc:Work>
    <dc:type rdf:resource="http://purl.org/dc/dcmitype/StillImage"/>
    <dc:date>2022-03-09T01:03:27.867758</dc:date>
    <dc:format>image/svg+xml</dc:format>
    <dc:creator>
     <cc:Agent>
      <dc:title>Matplotlib v3.5.1, https://matplotlib.org/</dc:title>
     </cc:Agent>
    </dc:creator>
   </cc:Work>
  </rdf:RDF>
 </metadata>
 <defs>
  <style type="text/css">*{stroke-linejoin: round; stroke-linecap: butt}</style>
 </defs>
 <g id="figure_1">
  <g id="patch_1">
   <path d="M 0 2160 
L 2160 2160 
L 2160 0 
L 0 0 
L 0 2160 
z
" style="fill: none"/>
  </g>
  <g id="axes_1">
   <g id="line2d_1">
    <path d="M 1257.636748 1371.868297 
L 1255.340905 1371.540585 
L 1253.138416 1371.06427 
L 1251.034339 1370.43824 
L 1249.033353 1369.662054 
L 1247.139704 1368.735935 
L 1245.357144 1367.660749 
L 1243.68889 1366.437982 
L 1242.137566 1365.069724 
L 1240.705168 1363.558632 
L 1239.393022 1361.907906 
L 1238.201754 1360.121256 
L 1237.131261 1358.202864 
L 1236.180693 1356.157351 
L 1235.348441 1353.98974 
L 1234.316492 1350.521251 
L 1233.533973 1346.809702 
L 1232.985834 1342.875897 
L 1232.653373 1338.741655 
L 1232.514466 1334.429522 
L 1232.586292 1328.443058 
L 1232.889706 1322.236104 
L 1233.615312 1312.630981 
L 1234.774959 1297.907102 
L 1235.107597 1291.365851 
L 1235.216435 1284.888656 
L 1235.107636 1280.096815 
L 1234.804605 1275.378941 
L 1234.282372 1270.74954 
L 1233.519036 1266.22215 
L 1232.496045 1261.809412 
L 1231.198411 1257.523158 
L 1229.614869 1253.374505 
L 1227.737975 1249.373959 
L 1226.321808 1246.794168 
L 1224.77347 1244.287516 
L 1223.093595 1241.856799 
L 1221.283547 1239.504755 
L 1219.345404 1237.23408 
L 1217.281933 1235.047435 
L 1213.959407 1231.930782 
L 1210.376932 1229.017927 
L 1206.551573 1226.317592 
L 1202.502954 1223.838419 
L 1198.252898 1221.588936 
L 1193.825025 1219.577507 
L 1189.244337 1217.812251 
L 1184.536771 1216.300927 
L 1179.728752 1215.050805 
L 1174.846731 1214.068506 
L 1169.91673 1213.359819 
L 1164.963895 1212.929506 
L 1160.012071 1212.781089 
L 1155.083403 1212.91663 
L 1150.197977 1213.336505 
L 1145.373497 1214.039181 
L 1140.625029 1215.021011 
L 1135.964793 1216.27603 
L 1131.402027 1217.795797 
L 1126.942924 1219.569247 
L 1122.590641 1221.582603 
L 1118.345383 1223.81932 
L 1114.204568 1226.260082 
L 1110.163062 1228.882863 
L 1106.213481 1231.663031 
L 1101.074144 1235.567635 
L 1094.816851 1240.666389 
L 1075.42612 1256.882001 
L 1070.604637 1260.482807 
L 1066.977112 1262.963406 
L 1063.338855 1265.220985 
L 1059.692139 1267.226939 
L 1056.042211 1268.955295 
L 1052.397283 1270.383065 
L 1048.76843 1271.490548 
L 1045.169395 1272.261562 
L 1042.794486 1272.582322 
L 1040.445265 1272.745145 
L 1038.12739 1272.748021 
L 1035.846811 1272.589691 
L 1033.609712 1272.269644 
L 1031.422443 1271.788101 
L 1029.291454 1271.145991 
L 1027.223222 1270.34493 
L 1025.224187 1269.387186 
L 1023.300675 1268.275645 
L 1021.458839 1267.013768 
L 1019.704586 1265.605544 
L 1018.043514 1264.055446 
L 1016.480858 1262.368374 
L 1015.021432 1260.549606 
L 1013.669579 1258.604738 
L 1012.429127 1256.53963 
L 1011.303352 1254.36035 
L 1010.294948 1252.073111 
L 1009.006799 1248.453642 
L 1007.991656 1244.626861 
L 1007.250661 1240.61395 
L 1006.781725 1236.435515 
L 1006.579599 1232.111251 
L 1006.636022 1227.659654 
L 1006.939911 1223.097782 
L 1007.477616 1218.441077 
L 1008.233201 1213.703235 
L 1009.18876 1208.89615 
L 1010.739925 1202.396163 
L 1012.561898 1195.809896 
L 1015.139992 1187.476743 
L 1018.535188 1177.352894 
L 1027.329707 1151.551684 
L 1030.022524 1142.824844 
L 1031.989917 1135.815395 
L 1033.748066 1128.796012 
L 1035.260285 1121.785159 
L 1036.492843 1114.805937 
L 1037.21511 1109.608743 
L 1037.750817 1104.458024 
L 1038.089047 1099.368157 
L 1038.21987 1094.354478 
L 1038.134376 1089.433022 
L 1037.824705 1084.620237 
L 1037.284094 1079.932656 
L 1036.506912 1075.386562 
L 1035.4887 1070.997628 
L 1034.226202 1066.780566 
L 1032.717395 1062.748789 
L 1030.961499 1058.914096 
L 1028.958988 1055.286388 
L 1026.711581 1051.873434 
L 1024.22222 1048.680688 
L 1021.495041 1045.711166 
L 1018.535328 1042.96539 
L 1015.349464 1040.441399 
L 1011.944867 1038.134838 
L 1008.329929 1036.039105 
L 1004.51395 1034.145582 
L 1000.507072 1032.44391 
L 996.320222 1030.922334 
L 991.965057 1029.568089 
L 987.453916 1028.367816 
L 981.218978 1026.983667 
L 974.762421 1025.818343 
L 968.118647 1024.843764 
L 959.606057 1023.858575 
L 950.932502 1023.10311 
L 942.17697 1022.56356 
L 933.422181 1022.246192 
L 924.753667 1022.177331 
L 917.939364 1022.330551 
L 911.280154 1022.700751 
L 904.819134 1023.322077 
L 900.128156 1023.974898 
L 895.58783 1024.805339 
L 891.212909 1025.828778 
L 887.016522 1027.059732 
L 883.009883 1028.51136 
L 879.202018 1030.195011 
L 875.599516 1032.119812 
L 872.206309 1034.292311 
L 869.023494 1036.716184 
L 866.049211 1039.39202 
L 863.27857 1042.317175 
L 860.703649 1045.485712 
L 858.313549 1048.888413 
L 856.094529 1052.512875 
L 854.030195 1056.34367 
L 852.101766 1060.362571 
L 849.705645 1065.977539 
L 847.459944 1071.834723 
L 844.247142 1080.941351 
L 838.818722 1096.430226 
L 836.45963 1102.541154 
L 833.920492 1108.507305 
L 831.87411 1112.850688 
L 829.690702 1117.055146 
L 827.359486 1121.09862 
L 824.872519 1124.960825 
L 822.224701 1128.623383 
L 819.413707 1132.069926 
L 816.439851 1135.286179 
L 813.305883 1138.260017 
L 810.016738 1140.981507 
L 806.579232 1143.442931 
L 803.001729 1145.638797 
L 799.293789 1147.565832 
L 795.465803 1149.222967 
L 791.528634 1150.611297 
L 787.493269 1151.73404 
L 783.370499 1152.596463 
L 779.170641 1153.2058 
L 774.903286 1153.571143 
L 770.577117 1153.703307 
L 766.199765 1153.614678 
L 761.777726 1153.319021 
L 757.31634 1152.83127 
L 751.313741 1151.909637 
L 745.255683 1150.714062 
L 739.14656 1149.284672 
L 731.441919 1147.229351 
L 722.099675 1144.4644 
L 709.490365 1140.444704 
L 691.945338 1134.573123 
L 677.577834 1129.538765 
L 668.118897 1126.001932 
L 660.387627 1122.877912 
L 654.345448 1120.221061 
L 648.466162 1117.38867 
L 642.783762 1114.347584 
L 638.671638 1111.910608 
L 634.703514 1109.325988 
L 630.893145 1106.582759 
L 627.253792 1103.671665 
L 623.798124 1100.585465 
L 620.538132 1097.319184 
L 617.485073 1093.870321 
L 614.649431 1090.238989 
L 612.040902 1086.428003 
L 609.668389 1082.4429 
L 607.540014 1078.291914 
L 605.663134 1073.985882 
L 604.044363 1069.538113 
L 602.689592 1064.96421 
L 601.603998 1060.281852 
L 600.792049 1055.510556 
L 600.257491 1050.671407 
L 600.003325 1045.786784 
L 600.031767 1040.880077 
L 600.34419 1035.975395 
L 600.941053 1031.097299 
L 601.821823 1026.270522 
L 602.984883 1021.519724 
L 604.427443 1016.869246 
L 606.14545 1012.342897 
L 608.133504 1007.963748 
L 610.384797 1003.753952 
L 612.891057 999.734572 
L 615.642531 995.925435 
L 618.627981 992.344985 
L 621.834731 989.010159 
L 625.248728 985.936263 
L 627.632349 984.03873 
L 630.096476 982.266793 
L 632.636092 980.623632 
L 635.246003 979.112033 
L 637.920877 977.734369 
L 642.043053 975.923154 
L 646.280442 974.422314 
L 650.614243 973.23427 
L 655.025816 972.359054 
L 659.496976 971.794222 
L 664.010279 971.534806 
L 668.549305 971.573267 
L 673.098917 971.899481 
L 677.645495 972.500756 
L 682.177137 973.361878 
L 686.683815 974.465189 
L 691.157491 975.790715 
L 695.592176 977.316321 
L 699.983945 979.017911 
L 705.769864 981.515616 
L 711.477059 984.21506 
L 719.904987 988.492506 
L 736.443566 997.002776 
L 741.922389 999.57803 
L 747.411716 1001.919508 
L 751.544005 1003.489782 
L 755.694596 1004.878319 
L 759.866753 1006.067465 
L 764.06223 1007.042037 
L 768.281135 1007.789373 
L 772.521823 1008.299324 
L 776.780846 1008.56419 
L 781.052949 1008.578604 
L 785.331109 1008.339382 
L 789.606617 1007.845316 
L 793.869206 1007.096951 
L 798.107209 1006.096335 
L 802.307761 1004.846754 
L 806.457016 1003.352473 
L 810.540399 1001.618472 
L 814.542867 999.65021 
L 818.449186 997.453403 
L 822.244213 995.033838 
L 825.913181 992.397226 
L 829.441975 989.549089 
L 832.81741 986.4947 
L 836.027482 983.239063 
L 839.061617 979.786941 
L 841.910895 976.142926 
L 844.568246 972.311547 
L 847.028637 968.297413 
L 849.289216 964.105388 
L 851.349437 959.740775 
L 853.211151 955.209518 
L 854.878665 950.518405 
L 856.358771 945.675262 
L 857.660733 940.689127 
L 858.796244 935.570403 
L 860.075933 928.559954 
L 861.124335 921.367605 
L 862.179885 912.178984 
L 863.207922 900.974025 
L 865.042757 880.458041 
L 865.895017 873.182147 
L 866.942082 866.091023 
L 867.889768 860.925664 
L 869.00187 855.914885 
L 870.299299 851.078338 
L 871.801013 846.434009 
L 873.523768 841.997953 
L 875.48191 837.784065 
L 876.924031 835.104037 
L 878.47888 832.530748 
L 880.148733 830.066506 
L 881.935319 827.71311 
L 883.839809 825.471845 
L 885.862825 823.343481 
L 888.004442 821.328284 
L 890.264201 819.426025 
L 892.64112 817.635994 
L 895.133721 815.957019 
L 897.740041 814.387489 
L 901.857344 812.233871 
L 906.215068 810.31344 
L 910.801384 808.616065 
L 915.602811 807.130163 
L 920.604502 805.842965 
L 925.790522 804.740787 
L 931.144151 803.809293 
L 936.648163 803.033748 
L 944.190607 802.216536 
L 951.928189 801.615009 
L 961.813615 801.114484 
L 971.867284 800.834336 
L 984.058937 800.706968 
L 1002.39851 800.756758 
L 1032.46304 800.852902 
L 1046.070938 800.662797 
L 1057.450138 800.279828 
L 1066.705718 799.761384 
L 1075.735466 799.026872 
L 1082.7853 798.26244 
L 1089.671817 797.32413 
L 1096.387798 796.197568 
L 1102.92702 794.869661 
L 1109.284549 793.32888 
L 1115.457062 791.565548 
L 1121.443166 789.572099 
L 1127.243689 787.343311 
L 1132.861927 784.876519 
L 1138.303803 782.171798 
L 1143.577943 779.232122 
L 1148.695638 776.063511 
L 1153.670696 772.675171 
L 1158.51918 769.079637 
L 1163.259032 765.292917 
L 1169.060659 760.32096 
L 1174.76237 755.128056 
L 1182.652218 747.596449 
L 1198.466455 732.365312 
L 1204.213318 727.162959 
L 1208.865045 723.20281 
L 1213.566554 719.482663 
L 1218.315003 716.0597 
L 1221.90313 713.721885 
L 1225.509433 711.607005 
L 1229.128256 709.737924 
L 1232.752752 708.136395 
L 1236.374936 706.82271 
L 1239.985765 705.815353 
L 1243.575211 705.130662 
L 1245.950939 704.86042 
L 1248.308891 704.743249 
L 1250.645487 704.782006 
L 1252.957016 704.978941 
L 1255.239651 705.335662 
L 1257.489462 705.853117 
L 1259.702431 706.531573 
L 1261.874471 707.370605 
L 1264.001433 708.369091 
L 1266.079131 709.525205 
L 1268.103351 710.836425 
L 1270.069871 712.299543 
L 1271.974475 713.910682 
L 1273.81297 715.665315 
L 1276.437696 718.554897 
L 1278.890606 721.735816 
L 1281.158388 725.185595 
L 1283.228301 728.879442 
L 1285.088324 732.790648 
L 1286.727307 736.89102 
L 1288.135118 741.151347 
L 1289.302799 745.541885 
L 1290.222716 750.032844 
L 1290.888698 754.594884 
L 1291.296173 759.199592 
L 1291.44229 763.819942 
L 1291.326019 768.430722 
L 1290.94823 773.00893 
L 1290.311753 777.534116 
L 1289.421398 781.988677 
L 1288.283953 786.35809 
L 1286.908146 790.631086 
L 1285.304571 794.799757 
L 1283.485583 798.859598 
L 1281.465162 802.809479 
L 1279.25874 806.651557 
L 1276.883016 810.391118 
L 1274.355733 814.036371 
L 1270.782431 818.769123 
L 1267.018224 823.38586 
L 1262.114962 829.051862 
L 1244.929069 848.546392 
L 1241.001535 853.429345 
L 1237.192301 858.501398 
L 1233.531646 863.788047 
L 1230.047409 869.306424 
L 1227.565664 873.602356 
L 1225.208226 878.032891 
L 1222.985315 882.594452 
L 1220.907084 887.280214 
L 1218.983764 892.080164 
L 1217.225791 896.981211 
L 1215.643914 901.967372 
L 1214.249249 907.020013 
L 1213.053304 912.118157 
L 1212.06796 917.23883 
L 1211.305392 922.357475 
L 1210.777955 927.448394 
L 1210.498019 932.485223 
L 1210.477754 937.441441 
L 1210.728893 942.290885 
L 1211.26245 947.008271 
L 1212.088423 951.569718 
L 1212.805874 954.513099 
L 1213.659355 957.371408 
L 1214.650679 960.139224 
L 1215.781259 962.81171 
L 1217.052064 965.38466 
L 1218.463589 967.854543 
L 1220.015825 970.218544 
L 1221.708226 972.474594 
L 1223.539693 974.621398 
L 1225.508549 976.658451 
L 1227.612529 978.586057 
L 1229.84877 980.405324 
L 1232.21381 982.118168 
L 1234.703589 983.7273 
L 1238.661813 985.954372 
L 1242.872003 987.971017 
L 1247.313305 989.795673 
L 1251.962322 991.449971 
L 1256.793369 992.958329 
L 1263.469864 994.788944 
L 1272.094159 996.883625 
L 1293.22212 1001.83237 
L 1300.13461 1003.700032 
L 1306.859771 1005.779674 
L 1311.73945 1007.508993 
L 1316.448174 1009.40338 
L 1320.960595 1011.476865 
L 1325.253243 1013.739868 
L 1329.304647 1016.199121 
L 1333.095423 1018.857667 
L 1336.608345 1021.71496 
L 1338.788416 1023.728414 
L 1340.834364 1025.826541 
L 1342.742728 1028.006791 
L 1344.510488 1030.26608 
L 1346.135066 1032.60084 
L 1347.614334 1035.007075 
L 1348.946603 1037.48042 
L 1350.130637 1040.016207 
L 1351.165642 1042.609522 
L 1352.051276 1045.255277 
L 1352.787647 1047.948269 
L 1353.375317 1050.683249 
L 1353.815304 1053.454979 
L 1354.201736 1057.670221 
L 1354.266251 1061.939739 
L 1354.018149 1066.247749 
L 1353.469107 1070.579837 
L 1352.633184 1074.923227 
L 1351.52681 1079.266974 
L 1350.168758 1083.602084 
L 1348.580085 1087.921547 
L 1346.784047 1092.220297 
L 1344.110829 1097.914387 
L 1341.179496 1103.562825 
L 1337.260164 1110.560685 
L 1323.038568 1135.289505 
L 1320.336918 1140.696726 
L 1318.521408 1144.724782 
L 1316.917331 1148.723211 
L 1315.54997 1152.684596 
L 1314.442013 1156.599869 
L 1313.613279 1160.458461 
L 1313.080491 1164.24852 
L 1312.857093 1167.957197 
L 1312.953125 1171.570995 
L 1313.197992 1173.920684 
L 1313.588897 1176.218027 
L 1314.126237 1178.459054 
L 1314.809727 1180.639937 
L 1315.638424 1182.757049 
L 1316.610736 1184.807015 
L 1317.724451 1186.786769 
L 1318.976763 1188.693592 
L 1320.364301 1190.525167 
L 1321.883165 1192.279606 
L 1324.397968 1194.763659 
L 1327.181594 1197.068361 
L 1330.215419 1199.19359 
L 1333.479224 1201.14184 
L 1336.951561 1202.918162 
L 1340.610132 1204.530006 
L 1344.432165 1205.986989 
L 1348.394787 1207.300572 
L 1353.85799 1208.85145 
L 1359.479277 1210.203775 
L 1366.654802 1211.667548 
L 1375.374034 1213.177066 
L 1386.995285 1214.924791 
L 1404.081648 1217.241531 
L 1416.549502 1218.753339 
L 1426.111292 1219.697632 
L 1434.291084 1220.266469 
L 1441.148545 1220.530027 
L 1448.082972 1220.582201 
L 1455.123735 1220.421224 
L 1463.735987 1219.973422 
L 1474.002407 1219.193962 
L 1493.385172 1217.658049 
L 1500.749699 1217.310098 
L 1506.506143 1217.23215 
L 1512.080367 1217.383997 
L 1516.105063 1217.674797 
L 1519.967215 1218.135209 
L 1523.64109 1218.779055 
L 1527.101758 1219.617756 
L 1530.325628 1220.660197 
L 1533.290975 1221.912685 
L 1535.978419 1223.378966 
L 1537.607334 1224.475997 
L 1539.10114 1225.668479 
L 1540.456348 1226.955797 
L 1541.670166 1228.336938 
L 1542.740526 1229.810533 
L 1543.6661 1231.37489 
L 1544.446311 1233.028031 
L 1545.081334 1234.767735 
L 1545.572084 1236.591573 
L 1545.920205 1238.496948 
L 1546.180267 1241.501891 
L 1546.135525 1244.674519 
L 1545.799711 1248.004934 
L 1545.1892 1251.483119 
L 1544.322547 1255.099058 
L 1543.219966 1258.842802 
L 1541.4198 1264.016208 
L 1539.289944 1269.375903 
L 1536.2416 1276.301275 
L 1532.850631 1283.431875 
L 1528.440644 1292.183594 
L 1522.954008 1302.525715 
L 1518.026486 1311.355632 
L 1513.775439 1318.573128 
L 1509.38213 1325.555722 
L 1505.749177 1330.899669 
L 1501.993445 1335.965642 
L 1499.085154 1339.547603 
L 1496.089842 1342.916307 
L 1493.000177 1346.048654 
L 1489.809595 1348.923029 
L 1486.512609 1351.519804 
L 1483.105076 1353.821824 
L 1479.584399 1355.814877 
L 1477.1739 1356.966422 
L 1474.712832 1357.973441 
L 1472.201707 1358.834406 
L 1469.641382 1359.548605 
L 1467.033053 1360.116166 
L 1464.378236 1360.538082 
L 1460.312917 1360.9022 
L 1456.15449 1360.953048 
L 1451.911492 1360.705058 
L 1447.593439 1360.176939 
L 1443.210564 1359.391454 
L 1438.773539 1358.375106 
L 1434.293192 1357.157738 
L 1428.270476 1355.278784 
L 1420.69723 1352.637808 
L 1398.042887 1344.444374 
L 1392.08017 1342.605164 
L 1387.637056 1341.415075 
L 1383.218506 1340.417108 
L 1378.823014 1339.634015 
L 1374.448 1339.084362 
L 1370.089954 1338.782245 
L 1365.744608 1338.737091 
L 1361.407128 1338.95354 
L 1357.072318 1339.43141 
L 1352.734849 1340.165752 
L 1348.389481 1341.146978 
L 1344.031308 1342.361063 
L 1339.655995 1343.789824 
L 1333.78963 1345.990235 
L 1327.881248 1348.471312 
L 1320.435278 1351.859393 
L 1296.348624 1363.081116 
L 1290.367715 1365.542162 
L 1284.464516 1367.705469 
L 1280.112143 1369.089587 
L 1275.844553 1370.239021 
L 1271.681289 1371.129412 
L 1267.642559 1371.739424 
L 1263.748861 1372.05094 
L 1260.020567 1372.049206 
L 1258.818007 1371.976963 
L 1258.818007 1371.976963 
" clip-path="url(#p66ddae3a06)" style="fill: none; stroke: #4169e1; stroke-width: 3; stroke-linecap: square"/>
   </g>
   <g id="line2d_2">
    <path d="M 1217.360725 1480.356028 
L 1215.678726 1479.908717 
L 1214.065121 1479.258572 
L 1212.523615 1478.404073 
L 1211.057636 1477.344619 
L 1209.670295 1476.080514 
L 1208.364342 1474.612939 
L 1207.142132 1472.943926 
L 1206.005588 1471.076323 
L 1204.956173 1469.01376 
L 1203.994858 1466.760603 
L 1202.71893 1463.03476 
L 1201.641415 1458.91139 
L 1200.758801 1454.413153 
L 1200.064734 1449.565203 
L 1199.550037 1444.394774 
L 1199.202775 1438.930769 
L 1198.974698 1431.241011 
L 1198.97697 1423.156741 
L 1199.230345 1412.610622 
L 1199.86201 1397.282616 
L 1200.684781 1377.165599 
L 1200.919006 1366.03936 
L 1200.89668 1357.262652 
L 1200.633254 1348.652989 
L 1200.250651 1342.334094 
L 1199.69141 1336.154438 
L 1198.941938 1330.131277 
L 1197.991255 1324.280759 
L 1196.831108 1318.61806 
L 1195.456042 1313.157519 
L 1193.863428 1307.912791 
L 1192.053439 1302.89698 
L 1190.028993 1298.122771 
L 1187.795651 1293.602546 
L 1185.361475 1289.348474 
L 1182.736853 1285.372575 
L 1179.934287 1281.686757 
L 1176.968155 1278.302812 
L 1173.854444 1275.232383 
L 1170.61046 1272.486886 
L 1168.384442 1270.842562 
L 1166.114263 1269.350757 
L 1163.805623 1268.014521 
L 1161.464274 1266.83676 
L 1159.09597 1265.820205 
L 1156.706427 1264.96738 
L 1154.301274 1264.28057 
L 1151.886014 1263.76178 
L 1149.465982 1263.412703 
L 1147.046306 1263.234678 
L 1144.631865 1263.22865 
L 1142.227256 1263.395129 
L 1139.836763 1263.73415 
L 1137.464324 1264.245236 
L 1135.113505 1264.927354 
L 1132.78748 1265.778883 
L 1130.489008 1266.797578 
L 1128.220423 1267.980538 
L 1125.983622 1269.324179 
L 1122.691076 1271.63133 
L 1119.476263 1274.272628 
L 1116.340043 1277.22675 
L 1113.28119 1280.468589 
L 1110.296541 1283.9693 
L 1107.38121 1287.696424 
L 1103.590763 1292.955671 
L 1099.893936 1298.45979 
L 1094.479201 1306.950555 
L 1086.512578 1319.477314 
L 1082.985954 1324.672327 
L 1079.450744 1329.48044 
L 1076.790444 1332.769398 
L 1074.122597 1335.740565 
L 1071.44959 1338.356034 
L 1068.775997 1340.581663 
L 1066.996511 1341.833874 
L 1065.22222 1342.891687 
L 1063.456016 1343.748307 
L 1061.701157 1344.397927 
L 1059.961231 1344.835748 
L 1058.240126 1345.057993 
L 1056.541985 1345.061918 
L 1054.871169 1344.845806 
L 1053.232207 1344.408959 
L 1051.629753 1343.751676 
L 1050.06853 1342.875229 
L 1048.553285 1341.781821 
L 1047.088735 1340.474551 
L 1045.679517 1338.957354 
L 1044.330136 1337.234956 
L 1043.04492 1335.312803 
L 1041.827972 1333.196998 
L 1040.683127 1330.894231 
L 1039.108671 1327.105405 
L 1037.714714 1322.938294 
L 1036.509693 1318.420589 
L 1035.499885 1313.581013 
L 1034.689281 1308.448738 
L 1034.079512 1303.052831 
L 1033.669831 1297.421735 
L 1033.457157 1291.582792 
L 1033.436157 1285.561834 
L 1033.599384 1279.38283 
L 1034.087098 1270.935716 
L 1034.858424 1262.291434 
L 1035.881804 1253.487483 
L 1037.122142 1244.55364 
L 1038.920202 1233.23737 
L 1041.33973 1219.477537 
L 1049.834953 1172.4959 
L 1051.698433 1160.549889 
L 1053.33357 1148.574785 
L 1054.441464 1139.00533 
L 1055.34447 1129.479048 
L 1056.020044 1120.033668 
L 1056.447835 1110.712573 
L 1056.609739 1101.563852 
L 1056.489989 1092.638984 
L 1056.207228 1086.124244 
L 1055.753805 1079.787872 
L 1055.125878 1073.651869 
L 1054.320471 1067.737243 
L 1053.335498 1062.063537 
L 1052.16978 1056.648369 
L 1050.823052 1051.507019 
L 1049.295966 1046.652066 
L 1047.590081 1042.093084 
L 1045.707849 1037.836423 
L 1043.652583 1033.885067 
L 1041.428427 1030.238594 
L 1039.040317 1026.893219 
L 1036.493929 1023.841948 
L 1033.795639 1021.074816 
L 1030.952471 1018.579217 
L 1027.972052 1016.340325 
L 1024.862569 1014.341573 
L 1021.632733 1012.5652 
L 1018.291746 1010.992842 
L 1014.84928 1009.60614 
L 1011.315455 1008.387369 
L 1006.479891 1006.995316 
L 1001.526961 1005.83888 
L 996.484226 1004.892105 
L 991.380546 1004.138638 
L 986.246005 1003.57292 
L 981.111772 1003.200762 
L 976.009869 1003.039251 
L 970.972838 1003.11599 
L 967.257265 1003.351698 
L 963.610127 1003.760178 
L 960.044696 1004.361398 
L 956.57374 1005.176422 
L 953.209325 1006.226745 
L 949.96261 1007.533603 
L 946.843632 1009.117276 
L 943.861099 1010.996415 
L 941.952156 1012.421523 
L 940.108781 1013.98946 
L 938.332315 1015.703762 
L 936.623713 1017.567267 
L 934.983527 1019.582065 
L 932.651707 1022.890528 
L 930.472664 1026.542907 
L 928.442814 1030.535594 
L 926.556354 1034.860485 
L 924.8053 1039.504998 
L 923.179583 1044.452204 
L 921.667194 1049.681043 
L 919.802957 1057.047422 
L 918.078871 1064.80159 
L 916.059236 1074.921339 
L 908.794503 1112.738246 
L 906.934259 1120.881738 
L 904.9134 1128.745794 
L 902.70922 1136.254703 
L 900.925752 1141.611809 
L 899.025455 1146.70447 
L 897.005958 1151.509416 
L 894.86686 1156.0062 
L 892.609601 1160.177287 
L 890.237285 1164.008116 
L 887.754472 1167.487142 
L 885.166941 1170.605857 
L 882.481432 1173.358785 
L 879.705386 1175.743468 
L 877.808267 1177.12881 
L 875.87679 1178.351535 
L 873.913341 1179.413085 
L 871.920281 1180.315456 
L 869.89991 1181.061185 
L 867.854449 1181.653328 
L 865.786013 1182.095445 
L 862.644595 1182.486276 
L 859.462041 1182.564239 
L 856.24367 1182.346898 
L 852.993958 1181.853607 
L 849.716537 1181.105211 
L 846.414226 1180.123702 
L 843.089102 1178.93184 
L 838.622527 1177.055452 
L 834.119971 1174.900656 
L 828.442858 1171.895071 
L 821.561145 1167.951816 
L 812.280623 1162.330607 
L 800.574753 1154.960858 
L 792.393223 1149.588605 
L 785.463339 1144.76101 
L 779.799193 1140.496881 
L 775.372523 1136.870416 
L 771.065192 1133.004348 
L 767.927988 1129.920282 
L 764.882451 1126.657449 
L 761.938991 1123.198515 
L 759.107783 1119.527841 
L 756.398673 1115.631964 
L 753.821094 1111.500042 
L 751.384002 1107.12422 
L 749.095828 1102.499933 
L 746.964444 1097.626127 
L 744.997146 1092.505409 
L 743.200649 1087.144099 
L 741.581095 1081.552218 
L 740.144057 1075.743391 
L 738.894562 1069.734685 
L 737.8371 1063.546382 
L 736.975638 1057.201705 
L 736.313624 1050.726495 
L 735.853978 1044.148861 
L 735.599085 1037.498804 
L 735.550764 1030.807831 
L 735.710231 1024.108568 
L 736.078053 1017.434373 
L 736.654088 1010.818968 
L 737.437424 1004.296083 
L 738.426311 997.899121 
L 739.618094 991.660856 
L 741.009153 985.613141 
L 742.594848 979.78666 
L 744.369479 974.210682 
L 746.326264 968.912853 
L 748.457331 963.918999 
L 750.753738 959.252943 
L 753.205519 954.936336 
L 755.801754 950.988496 
L 757.607043 948.569893 
L 759.467637 946.327062 
L 761.379732 944.263806 
L 763.339419 942.383366 
L 765.342709 940.688406 
L 767.385553 939.180992 
L 769.463872 937.86258 
L 771.573581 936.733991 
L 773.71062 935.795403 
L 775.87098 935.046335 
L 778.05073 934.485632 
L 780.246049 934.111456 
L 782.45325 933.92128 
L 784.668807 933.911882 
L 786.889382 934.079341 
L 789.111842 934.419042 
L 791.333289 934.925678 
L 793.551071 935.593262 
L 796.865729 936.881679 
L 800.15997 938.491927 
L 803.428401 940.39573 
L 806.667141 942.561951 
L 809.873813 944.956879 
L 814.098106 948.443491 
L 818.265502 952.182497 
L 824.422629 958.057895 
L 834.516277 967.764485 
L 838.530089 971.346946 
L 842.548774 974.629904 
L 845.572437 976.850018 
L 848.608491 978.830828 
L 851.659665 980.547142 
L 854.727624 981.977101 
L 857.812861 983.102273 
L 860.914604 983.907667 
L 864.030769 984.381671 
L 866.114595 984.50931 
L 868.202008 984.48417 
L 870.291418 984.305107 
L 872.380992 983.971512 
L 874.468666 983.48327 
L 876.552154 982.840716 
L 879.664046 981.589274 
L 882.751729 979.996346 
L 885.805282 978.067349 
L 888.814182 975.808792 
L 891.7675 973.227945 
L 894.6541 970.332522 
L 897.462842 967.130416 
L 900.182793 963.629475 
L 902.80343 959.837336 
L 905.314844 955.761316 
L 907.707932 951.408365 
L 909.97458 946.785088 
L 912.10783 941.897814 
L 914.102037 936.752735 
L 915.953001 931.356083 
L 917.65809 925.714351 
L 919.216333 919.834549 
L 920.628493 913.724468 
L 921.897123 907.392959 
L 923.026593 900.850203 
L 924.327028 891.818504 
L 925.410869 882.465301 
L 926.303146 872.8299 
L 927.195378 860.45965 
L 928.030636 845.277799 
L 930.191912 802.136964 
L 931.126806 789.995907 
L 932.078525 780.640825 
L 933.253579 771.676915 
L 934.302441 765.247615 
L 935.509341 759.095606 
L 936.885395 753.240868 
L 938.439864 747.700255 
L 940.180059 742.487289 
L 942.111274 737.612018 
L 944.236749 733.080949 
L 945.762331 730.253072 
L 947.374683 727.579589 
L 949.073276 725.059857 
L 950.857208 722.692587 
L 952.725216 720.475876 
L 954.675692 718.40724 
L 956.706711 716.483648 
L 958.816042 714.701565 
L 961.00118 713.056995 
L 964.414928 710.838226 
L 967.982747 708.902458 
L 971.693472 707.231807 
L 975.535212 705.807256 
L 979.495571 704.60902 
L 983.561851 703.61688 
L 987.721252 702.810497 
L 993.390023 701.989444 
L 999.172358 701.416146 
L 1005.040226 701.045998 
L 1012.455628 700.805267 
L 1021.411793 700.743024 
L 1037.784619 700.910001 
L 1050.948913 700.962401 
L 1059.538301 700.797443 
L 1066.555898 700.468524 
L 1073.429761 699.916492 
L 1078.816008 699.283825 
L 1084.094722 698.45677 
L 1089.259629 697.413358 
L 1094.304885 696.132613 
L 1099.225202 694.594914 
L 1102.830672 693.262185 
L 1106.361695 691.768054 
L 1109.817038 690.106521 
L 1113.195882 688.272444 
L 1116.497873 686.261621 
L 1119.723172 684.070862 
L 1122.872501 681.698062 
L 1125.947176 679.142261 
L 1128.949132 676.403701 
L 1131.880929 673.483875 
L 1134.745754 670.38558 
L 1138.467979 665.984256 
L 1142.088502 661.286857 
L 1145.619462 656.311658 
L 1149.074298 651.081731 
L 1153.307752 644.22942 
L 1158.301564 635.634303 
L 1165.718194 622.282906 
L 1173.174902 608.921654 
L 1177.374879 601.759707 
L 1181.629201 594.9608 
L 1185.07366 589.88299 
L 1188.552507 585.210822 
L 1191.18127 582.019823 
L 1193.823349 579.13312 
L 1196.474601 576.58192 
L 1199.130009 574.395915 
L 1201.783723 572.602802 
L 1203.548683 571.638242 
L 1205.307817 570.866344 
L 1207.058848 570.293242 
L 1208.799373 569.924377 
L 1210.526875 569.764443 
L 1212.238731 569.817345 
L 1213.932222 570.086151 
L 1215.604545 570.573057 
L 1217.252819 571.279356 
L 1218.874103 572.205414 
L 1220.4654 573.350651 
L 1222.023673 574.713533 
L 1223.545853 576.291569 
L 1225.028854 578.081317 
L 1226.469582 580.078399 
L 1228.54466 583.450951 
L 1230.507342 587.256328 
L 1232.347473 591.468804 
L 1234.055184 596.058864 
L 1235.620989 600.993663 
L 1237.035893 606.237553 
L 1238.291501 611.752659 
L 1239.380132 617.4995 
L 1240.294922 623.437644 
L 1241.029943 629.526378 
L 1241.580305 635.725374 
L 1241.942258 641.995357 
L 1242.113285 648.298738 
L 1242.092178 654.600218 
L 1241.879106 660.867341 
L 1241.475659 667.070982 
L 1240.884877 673.185779 
L 1240.111254 679.190478 
L 1239.160713 685.068194 
L 1238.040568 690.806596 
L 1236.759451 696.397985 
L 1235.327218 701.839291 
L 1233.754838 707.131983 
L 1231.461083 713.968384 
L 1228.97 720.576355 
L 1226.313975 726.992278 
L 1222.813115 734.812897 
L 1217.692736 745.582497 
L 1210.251156 761.192546 
L 1206.602642 769.351186 
L 1203.765658 776.140221 
L 1201.026679 783.206099 
L 1198.406952 790.578098 
L 1195.926122 798.273388 
L 1193.602677 806.295946 
L 1191.454441 814.635935 
L 1189.499075 823.269561 
L 1187.75452 832.159433 
L 1186.239352 841.255424 
L 1184.972991 850.496007 
L 1183.975747 859.810048 
L 1183.268675 869.118988 
L 1182.941698 876.047246 
L 1182.799044 882.889596 
L 1182.849544 889.609923 
L 1183.10164 896.172836 
L 1183.563179 902.544385 
L 1184.241188 908.692761 
L 1185.141648 914.588965 
L 1186.269263 920.207441 
L 1187.627242 925.526644 
L 1189.217101 930.529546 
L 1191.038478 935.204042 
L 1192.380263 938.134319 
L 1193.822702 940.914793 
L 1195.364137 943.545876 
L 1197.00247 946.029083 
L 1198.735165 948.367028 
L 1200.559247 950.56341 
L 1202.471309 952.622991 
L 1205.495881 955.468783 
L 1208.695081 958.043621 
L 1212.052368 960.375635 
L 1215.549461 962.496954 
L 1219.16655 964.443096 
L 1224.139366 966.831812 
L 1230.521868 969.621692 
L 1242.1502 974.674646 
L 1247.240629 977.16367 
L 1250.979735 979.203733 
L 1254.627279 981.426929 
L 1258.162664 983.86004 
L 1261.566467 986.52538 
L 1264.820563 989.440475 
L 1267.908237 992.617879 
L 1270.814262 996.065092 
L 1273.524961 999.784617 
L 1276.028244 1003.774122 
L 1278.313643 1008.026722 
L 1280.372321 1012.531363 
L 1282.197087 1017.273294 
L 1283.782395 1022.234616 
L 1285.124354 1027.39489 
L 1286.22073 1032.731787 
L 1287.070955 1038.22175 
L 1287.676136 1043.840666 
L 1288.039077 1049.564513 
L 1288.164287 1055.369966 
L 1288.058 1061.234953 
L 1287.72819 1067.139131 
L 1287.184576 1073.064281 
L 1286.438618 1078.99461 
L 1285.503501 1084.91694 
L 1284.394099 1090.820802 
L 1282.672548 1098.650805 
L 1280.714073 1106.422946 
L 1278.006034 1116.050528 
L 1274.510297 1127.480504 
L 1266.339337 1153.729953 
L 1263.770977 1162.978382 
L 1261.966543 1170.316743 
L 1260.437297 1177.582941 
L 1259.497131 1182.97053 
L 1258.752095 1188.290586 
L 1258.215969 1193.528059 
L 1257.900217 1198.66627 
L 1257.813865 1203.687333 
L 1257.963423 1208.57264 
L 1258.352846 1213.303412 
L 1258.983536 1217.861274 
L 1259.854387 1222.228842 
L 1260.961869 1226.390296 
L 1262.300149 1230.33192 
L 1263.861245 1234.042583 
L 1265.635219 1237.514138 
L 1267.610384 1240.741736 
L 1269.773542 1243.72402 
L 1272.110241 1246.463207 
L 1274.605038 1248.965046 
L 1277.241773 1251.238645 
L 1280.003846 1253.296188 
L 1282.874497 1255.152532 
L 1285.837069 1256.82472 
L 1288.875273 1258.331403 
L 1293.016881 1260.116866 
L 1297.230423 1261.690195 
L 1302.551286 1263.427319 
L 1308.948721 1265.276794 
L 1318.440608 1267.766389 
L 1328.734124 1270.25804 
L 1335.79177 1271.765209 
L 1341.787937 1272.803813 
L 1346.782669 1273.427283 
L 1350.798143 1273.737652 
L 1354.846541 1273.865098 
L 1358.940013 1273.804528 
L 1364.133552 1273.473683 
L 1369.419347 1272.894194 
L 1376.962538 1271.79319 
L 1388.987141 1269.996828 
L 1394.401942 1269.460097 
L 1398.645941 1269.285233 
L 1401.7508 1269.346175 
L 1404.768213 1269.600733 
L 1407.679239 1270.072543 
L 1410.464855 1270.782502 
L 1413.106361 1271.74841 
L 1415.585776 1272.984718 
L 1417.140281 1273.964702 
L 1418.610573 1275.072181 
L 1419.992345 1276.308838 
L 1421.281675 1277.675682 
L 1422.475064 1279.173074 
L 1423.569469 1280.800751 
L 1424.562332 1282.557873 
L 1425.451609 1284.44306 
L 1426.588134 1287.506751 
L 1427.485491 1290.846163 
L 1428.143645 1294.451354 
L 1428.565308 1298.310955 
L 1428.755837 1302.412549 
L 1428.723057 1306.743024 
L 1428.47703 1311.28887 
L 1428.029753 1316.036414 
L 1427.144004 1322.65661 
L 1425.960182 1329.578942 
L 1424.515809 1336.771513 
L 1422.401573 1346.093367 
L 1419.504136 1357.679227 
L 1415.759289 1371.590482 
L 1411.739625 1385.706948 
L 1407.514487 1399.748494 
L 1403.740996 1411.469796 
L 1400.476128 1420.83128 
L 1397.771165 1427.945761 
L 1394.96967 1434.640942 
L 1392.797088 1439.339662 
L 1390.557121 1443.726087 
L 1388.244746 1447.76996 
L 1385.855655 1451.44351 
L 1383.386467 1454.722124 
L 1381.694662 1456.678009 
L 1379.965828 1458.44393 
L 1378.199828 1460.01573 
L 1376.39678 1461.390259 
L 1374.557059 1462.565433 
L 1372.681293 1463.540278 
L 1370.770357 1464.31497 
L 1368.825364 1464.890864 
L 1366.84765 1465.27051 
L 1364.838757 1465.457662 
L 1362.800416 1465.457271 
L 1360.734522 1465.275471 
L 1358.643115 1464.919552 
L 1356.528349 1464.397921 
L 1353.317331 1463.325775 
L 1350.066641 1461.938511 
L 1346.784213 1460.276867 
L 1343.477896 1458.385501 
L 1339.045337 1455.589399 
L 1332.377825 1451.052393 
L 1323.522615 1445.011107 
L 1319.131139 1442.263719 
L 1315.857764 1440.413347 
L 1312.602613 1438.788937 
L 1309.365459 1437.426763 
L 1306.145198 1436.357881 
L 1302.93994 1435.607632 
L 1300.81019 1435.294247 
L 1298.685072 1435.135295 
L 1296.563589 1435.133626 
L 1294.444674 1435.290792 
L 1292.327203 1435.607043 
L 1290.210026 1436.081335 
L 1287.032273 1437.083675 
L 1283.848734 1438.422998 
L 1280.655814 1440.080162 
L 1277.450337 1442.030347 
L 1274.229717 1444.243513 
L 1269.90898 1447.542861 
L 1265.556466 1451.154218 
L 1258.973088 1456.928 
L 1249.030195 1465.639026 
L 1244.62283 1469.234235 
L 1240.252712 1472.501424 
L 1237.015504 1474.67398 
L 1233.826833 1476.563231 
L 1230.700277 1478.132149 
L 1227.650152 1479.347488 
L 1225.666497 1479.94672 
L 1223.727839 1480.368218 
L 1221.838632 1480.605326 
L 1220.00329 1480.652306 
L 1218.226149 1480.504351 
L 1218.226149 1480.504351 
" clip-path="url(#p66ddae3a06)" style="fill: none; stroke: #ff8c00; stroke-width: 3; stroke-linecap: square"/>
   </g>
  </g>
 </g>
 <defs>
  <clipPath id="p66ddae3a06">
   <rect x="270" y="259.2" width="1674" height="1630.8"/>
  </clipPath>
 </defs>
</svg>
