<?xml version="1.0" encoding="utf-8" standalone="no"?>
<!DOCTYPE svg PUBLIC "-//W3C//DTD SVG 1.1//EN"
  "http://www.w3.org/Graphics/SVG/1.1/DTD/svg11.dtd">
<svg xmlns:xlink="http://www.w3.org/1999/xlink" width="2160pt" height="2160pt" viewBox="0 0 2160 2160" xmlns="http://www.w3.org/2000/svg" version="1.1">
 <metadata>
  <rdf:RDF xmlns:dc="http://purl.org/dc/elements/1.1/" xmlns:cc="http://creativecommons.org/ns#" xmlns:rdf="http://www.w3.org/1999/02/22-rdf-syntax-ns#">
   <cc:Work>
    <dc:type rdf:resource="http://purl.org/dc/dcmitype/StillImage"/>
    <dc:date>2022-03-09T01:03:29.398711</dc:date>
    <dc:format>image/svg+xml</dc:format>
    <dc:creator>
     <cc:Agent>
      <dc:title>Matplotlib v3.5.1, https://matplotlib.org/</dc:title>
     </cc:Agent>
    </dc:creator>
   </cc:Work>
  </rdf:RDF>
 </metadata>
 <defs>
  <style type="text/css">*{stroke-linejoin: round; stroke-linecap: butt}</style>
 </defs>
 <g id="figure_1">
  <g id="patch_1">
   <path d="M 0 2160 
L 2160 2160 
L 2160 0 
L 0 0 
L 0 2160 
z
" style="fill: none"/>
  </g>
  <g id="axes_1">
   <g id="line2d_1">
    <path d="M 1257.636748 1371.868297 
L 1255.340905 1371.540585 
L 1253.138416 1371.06427 
L 1251.034339 1370.43824 
L 1249.033353 1369.662054 
L 1247.139704 1368.735935 
L 1245.357144 1367.660749 
L 1243.68889 1366.437982 
L 1242.137566 1365.069724 
L 1240.705168 1363.558632 
L 1239.393022 1361.907906 
L 1238.201754 1360.121256 
L 1237.131261 1358.202864 
L 1236.180693 1356.157351 
L 1235.348441 1353.98974 
L 1234.316492 1350.521251 
L 1233.533973 1346.809702 
L 1232.985834 1342.875897 
L 1232.653373 1338.741655 
L 1232.514466 1334.429522 
L 1232.586292 1328.443058 
L 1232.889706 1322.236104 
L 1233.615312 1312.630981 
L 1234.774959 1297.907102 
L 1235.107597 1291.365851 
L 1235.216435 1284.888656 
L 1235.107636 1280.096815 
L 1234.804605 1275.378941 
L 1234.282372 1270.74954 
L 1233.519036 1266.22215 
L 1232.496045 1261.809412 
L 1231.198411 1257.523158 
L 1229.614869 1253.374505 
L 1227.737975 1249.373959 
L 1226.321808 1246.794168 
L 1224.77347 1244.287516 
L 1223.093595 1241.856799 
L 1221.283547 1239.504755 
L 1219.345404 1237.23408 
L 1217.281933 1235.047435 
L 1213.959407 1231.930782 
L 1210.376932 1229.017927 
L 1206.551573 1226.317592 
L 1202.502954 1223.838419 
L 1198.252898 1221.588936 
L 1193.825025 1219.577507 
L 1189.244337 1217.812251 
L 1184.536771 1216.300927 
L 1179.728752 1215.050805 
L 1174.846731 1214.068506 
L 1169.91673 1213.359819 
L 1164.963895 1212.929506 
L 1160.012071 1212.781089 
L 1155.083403 1212.91663 
L 1150.197977 1213.336505 
L 1145.373497 1214.039181 
L 1140.625029 1215.021011 
L 1135.964793 1216.27603 
L 1131.402027 1217.795797 
L 1126.942924 1219.569247 
L 1122.590641 1221.582603 
L 1118.345383 1223.81932 
L 1114.204568 1226.260082 
L 1110.163062 1228.882863 
L 1106.213481 1231.663031 
L 1101.074144 1235.567635 
L 1094.816851 1240.666389 
L 1075.42612 1256.882001 
L 1070.604637 1260.482807 
L 1066.977112 1262.963406 
L 1063.338855 1265.220985 
L 1059.692139 1267.226939 
L 1056.042211 1268.955295 
L 1052.397283 1270.383065 
L 1048.76843 1271.490548 
L 1045.169395 1272.261562 
L 1042.794486 1272.582322 
L 1040.445265 1272.745145 
L 1038.12739 1272.748021 
L 1035.846811 1272.589691 
L 1033.609712 1272.269644 
L 1031.422443 1271.788101 
L 1029.291454 1271.145991 
L 1027.223222 1270.34493 
L 1025.224187 1269.387186 
L 1023.300675 1268.275645 
L 1021.458839 1267.013768 
L 1019.704586 1265.605544 
L 1018.043514 1264.055446 
L 1016.480858 1262.368374 
L 1015.021432 1260.549606 
L 1013.669579 1258.604738 
L 1012.429127 1256.53963 
L 1011.303352 1254.36035 
L 1010.294948 1252.073111 
L 1009.006799 1248.453642 
L 1007.991656 1244.626861 
L 1007.250661 1240.61395 
L 1006.781725 1236.435515 
L 1006.579599 1232.111251 
L 1006.636022 1227.659654 
L 1006.939911 1223.097782 
L 1007.477616 1218.441077 
L 1008.233201 1213.703235 
L 1009.18876 1208.89615 
L 1010.739925 1202.396163 
L 1012.561898 1195.809896 
L 1015.139992 1187.476743 
L 1018.535188 1177.352894 
L 1027.329707 1151.551684 
L 1030.022524 1142.824844 
L 1031.989917 1135.815395 
L 1033.748066 1128.796012 
L 1035.260285 1121.785159 
L 1036.492843 1114.805937 
L 1037.21511 1109.608743 
L 1037.750817 1104.458024 
L 1038.089047 1099.368157 
L 1038.21987 1094.354478 
L 1038.134376 1089.433022 
L 1037.824705 1084.620237 
L 1037.284094 1079.932656 
L 1036.506912 1075.386562 
L 1035.4887 1070.997628 
L 1034.226202 1066.780566 
L 1032.717395 1062.748789 
L 1030.961499 1058.914096 
L 1028.958988 1055.286388 
L 1026.711581 1051.873434 
L 1024.22222 1048.680688 
L 1021.495041 1045.711166 
L 1018.535328 1042.96539 
L 1015.349464 1040.441399 
L 1011.944867 1038.134838 
L 1008.329929 1036.039105 
L 1004.51395 1034.145582 
L 1000.507072 1032.44391 
L 996.320222 1030.922334 
L 991.965057 1029.568089 
L 987.453916 1028.367816 
L 981.218978 1026.983667 
L 974.762421 1025.818343 
L 968.118647 1024.843764 
L 959.606057 1023.858575 
L 950.932502 1023.10311 
L 942.17697 1022.56356 
L 933.422181 1022.246192 
L 924.753667 1022.177331 
L 917.939364 1022.330551 
L 911.280154 1022.700751 
L 904.819134 1023.322077 
L 900.128156 1023.974898 
L 895.58783 1024.805339 
L 891.212909 1025.828778 
L 887.016522 1027.059732 
L 883.009883 1028.51136 
L 879.202018 1030.195011 
L 875.599516 1032.119812 
L 872.206309 1034.292311 
L 869.023494 1036.716184 
L 866.049211 1039.39202 
L 863.27857 1042.317175 
L 860.703649 1045.485712 
L 858.313549 1048.888413 
L 856.094529 1052.512875 
L 854.030195 1056.34367 
L 852.101766 1060.362571 
L 849.705645 1065.977539 
L 847.459944 1071.834723 
L 844.247142 1080.941351 
L 838.818722 1096.430226 
L 836.45963 1102.541154 
L 833.920492 1108.507305 
L 831.87411 1112.850688 
L 829.690702 1117.055146 
L 827.359486 1121.09862 
L 824.872519 1124.960825 
L 822.224701 1128.623383 
L 819.413707 1132.069926 
L 816.439851 1135.286179 
L 813.305883 1138.260017 
L 810.016738 1140.981507 
L 806.579232 1143.442931 
L 803.001729 1145.638797 
L 799.293789 1147.565832 
L 795.465803 1149.222967 
L 791.528634 1150.611297 
L 787.493269 1151.73404 
L 783.370499 1152.596463 
L 779.170641 1153.2058 
L 774.903286 1153.571143 
L 770.577117 1153.703307 
L 766.199765 1153.614678 
L 761.777726 1153.319021 
L 757.31634 1152.83127 
L 751.313741 1151.909637 
L 745.255683 1150.714062 
L 739.14656 1149.284672 
L 731.441919 1147.229351 
L 722.099675 1144.4644 
L 709.490365 1140.444704 
L 691.945338 1134.573123 
L 677.577834 1129.538765 
L 668.118897 1126.001932 
L 660.387627 1122.877912 
L 654.345448 1120.221061 
L 648.466162 1117.38867 
L 642.783762 1114.347584 
L 638.671638 1111.910608 
L 634.703514 1109.325988 
L 630.893145 1106.582759 
L 627.253792 1103.671665 
L 623.798124 1100.585465 
L 620.538132 1097.319184 
L 617.485073 1093.870321 
L 614.649431 1090.238989 
L 612.040902 1086.428003 
L 609.668389 1082.4429 
L 607.540014 1078.291914 
L 605.663134 1073.985882 
L 604.044363 1069.538113 
L 602.689592 1064.96421 
L 601.603998 1060.281852 
L 600.792049 1055.510556 
L 600.257491 1050.671407 
L 600.003325 1045.786784 
L 600.031767 1040.880077 
L 600.34419 1035.975395 
L 600.941053 1031.097299 
L 601.821823 1026.270522 
L 602.984883 1021.519724 
L 604.427443 1016.869246 
L 606.14545 1012.342897 
L 608.133504 1007.963748 
L 610.384797 1003.753952 
L 612.891057 999.734572 
L 615.642531 995.925435 
L 618.627981 992.344985 
L 621.834731 989.010159 
L 625.248728 985.936263 
L 627.632349 984.03873 
L 630.096476 982.266793 
L 632.636092 980.623632 
L 635.246003 979.112033 
L 637.920877 977.734369 
L 642.043053 975.923154 
L 646.280442 974.422314 
L 650.614243 973.23427 
L 655.025816 972.359054 
L 659.496976 971.794222 
L 664.010279 971.534806 
L 668.549305 971.573267 
L 673.098917 971.899481 
L 677.645495 972.500756 
L 682.177137 973.361878 
L 686.683815 974.465189 
L 691.157491 975.790715 
L 695.592176 977.316321 
L 699.983945 979.017911 
L 705.769864 981.515616 
L 711.477059 984.21506 
L 719.904987 988.492506 
L 736.443566 997.002776 
L 741.922389 999.57803 
L 747.411716 1001.919508 
L 751.544005 1003.489782 
L 755.694596 1004.878319 
L 759.866753 1006.067465 
L 764.06223 1007.042037 
L 768.281135 1007.789373 
L 772.521823 1008.299324 
L 776.780846 1008.56419 
L 781.052949 1008.578604 
L 785.331109 1008.339382 
L 789.606617 1007.845316 
L 793.869206 1007.096951 
L 798.107209 1006.096335 
L 802.307761 1004.846754 
L 806.457016 1003.352473 
L 810.540399 1001.618472 
L 814.542867 999.65021 
L 818.449186 997.453403 
L 822.244213 995.033838 
L 825.913181 992.397226 
L 829.441975 989.549089 
L 832.81741 986.4947 
L 836.027482 983.239063 
L 839.061617 979.786941 
L 841.910895 976.142926 
L 844.568246 972.311547 
L 847.028637 968.297413 
L 849.289216 964.105388 
L 851.349437 959.740775 
L 853.211151 955.209518 
L 854.878665 950.518405 
L 856.358771 945.675262 
L 857.660733 940.689127 
L 858.796244 935.570403 
L 860.075933 928.559954 
L 861.124335 921.367605 
L 862.179885 912.178984 
L 863.207922 900.974025 
L 865.042757 880.458041 
L 865.895017 873.182147 
L 866.942082 866.091023 
L 867.889768 860.925664 
L 869.00187 855.914885 
L 870.299299 851.078338 
L 871.801013 846.434009 
L 873.523768 841.997953 
L 875.48191 837.784065 
L 876.924031 835.104037 
L 878.47888 832.530748 
L 880.148733 830.066506 
L 881.935319 827.71311 
L 883.839809 825.471845 
L 885.862825 823.343481 
L 888.004442 821.328284 
L 890.264201 819.426025 
L 892.64112 817.635994 
L 895.133721 815.957019 
L 897.740041 814.387489 
L 901.857344 812.233871 
L 906.215068 810.31344 
L 910.801384 808.616065 
L 915.602811 807.130163 
L 920.604502 805.842965 
L 925.790522 804.740787 
L 931.144151 803.809293 
L 936.648163 803.033748 
L 944.190607 802.216536 
L 951.928189 801.615009 
L 961.813615 801.114484 
L 971.867284 800.834336 
L 984.058937 800.706968 
L 1002.39851 800.756758 
L 1032.46304 800.852902 
L 1046.070938 800.662797 
L 1057.450138 800.279828 
L 1066.705718 799.761384 
L 1075.735466 799.026872 
L 1082.7853 798.26244 
L 1089.671817 797.32413 
L 1096.387798 796.197568 
L 1102.92702 794.869661 
L 1109.284549 793.32888 
L 1115.457062 791.565548 
L 1121.443166 789.572099 
L 1127.243689 787.343311 
L 1132.861927 784.876519 
L 1138.303803 782.171798 
L 1143.577943 779.232122 
L 1148.695638 776.063511 
L 1153.670696 772.675171 
L 1158.51918 769.079637 
L 1163.259032 765.292917 
L 1169.060659 760.32096 
L 1174.76237 755.128056 
L 1182.652218 747.596449 
L 1198.466455 732.365312 
L 1204.213318 727.162959 
L 1208.865045 723.20281 
L 1213.566554 719.482663 
L 1218.315003 716.0597 
L 1221.90313 713.721885 
L 1225.509433 711.607005 
L 1229.128256 709.737924 
L 1232.752752 708.136395 
L 1236.374936 706.82271 
L 1239.985765 705.815353 
L 1243.575211 705.130662 
L 1245.950939 704.86042 
L 1248.308891 704.743249 
L 1250.645487 704.782006 
L 1252.957016 704.978941 
L 1255.239651 705.335662 
L 1257.489462 705.853117 
L 1259.702431 706.531573 
L 1261.874471 707.370605 
L 1264.001433 708.369091 
L 1266.079131 709.525205 
L 1268.103351 710.836425 
L 1270.069871 712.299543 
L 1271.974475 713.910682 
L 1273.81297 715.665315 
L 1276.437696 718.554897 
L 1278.890606 721.735816 
L 1281.158388 725.185595 
L 1283.228301 728.879442 
L 1285.088324 732.790648 
L 1286.727307 736.89102 
L 1288.135118 741.151347 
L 1289.302799 745.541885 
L 1290.222716 750.032844 
L 1290.888698 754.594884 
L 1291.296173 759.199592 
L 1291.44229 763.819942 
L 1291.326019 768.430722 
L 1290.94823 773.00893 
L 1290.311753 777.534116 
L 1289.421398 781.988677 
L 1288.283953 786.35809 
L 1286.908146 790.631086 
L 1285.304571 794.799757 
L 1283.485583 798.859598 
L 1281.465162 802.809479 
L 1279.25874 806.651557 
L 1276.883016 810.391118 
L 1274.355733 814.036371 
L 1270.782431 818.769123 
L 1267.018224 823.38586 
L 1262.114962 829.051862 
L 1244.929069 848.546392 
L 1241.001535 853.429345 
L 1237.192301 858.501398 
L 1233.531646 863.788047 
L 1230.047409 869.306424 
L 1227.565664 873.602356 
L 1225.208226 878.032891 
L 1222.985315 882.594452 
L 1220.907084 887.280214 
L 1218.983764 892.080164 
L 1217.225791 896.981211 
L 1215.643914 901.967372 
L 1214.249249 907.020013 
L 1213.053304 912.118157 
L 1212.06796 917.23883 
L 1211.305392 922.357475 
L 1210.777955 927.448394 
L 1210.498019 932.485223 
L 1210.477754 937.441441 
L 1210.728893 942.290885 
L 1211.26245 947.008271 
L 1212.088423 951.569718 
L 1212.805874 954.513099 
L 1213.659355 957.371408 
L 1214.650679 960.139224 
L 1215.781259 962.81171 
L 1217.052064 965.38466 
L 1218.463589 967.854543 
L 1220.015825 970.218544 
L 1221.708226 972.474594 
L 1223.539693 974.621398 
L 1225.508549 976.658451 
L 1227.612529 978.586057 
L 1229.84877 980.405324 
L 1232.21381 982.118168 
L 1234.703589 983.7273 
L 1238.661813 985.954372 
L 1242.872003 987.971017 
L 1247.313305 989.795673 
L 1251.962322 991.449971 
L 1256.793369 992.958329 
L 1263.469864 994.788944 
L 1272.094159 996.883625 
L 1293.22212 1001.83237 
L 1300.13461 1003.700032 
L 1306.859771 1005.779674 
L 1311.73945 1007.508993 
L 1316.448174 1009.40338 
L 1320.960595 1011.476865 
L 1325.253243 1013.739868 
L 1329.304647 1016.199121 
L 1333.095423 1018.857667 
L 1336.608345 1021.71496 
L 1338.788416 1023.728414 
L 1340.834364 1025.826541 
L 1342.742728 1028.006791 
L 1344.510488 1030.26608 
L 1346.135066 1032.60084 
L 1347.614334 1035.007075 
L 1348.946603 1037.48042 
L 1350.130637 1040.016207 
L 1351.165642 1042.609522 
L 1352.051276 1045.255277 
L 1352.787647 1047.948269 
L 1353.375317 1050.683249 
L 1353.815304 1053.454979 
L 1354.201736 1057.670221 
L 1354.266251 1061.939739 
L 1354.018149 1066.247749 
L 1353.469107 1070.579837 
L 1352.633184 1074.923227 
L 1351.52681 1079.266974 
L 1350.168758 1083.602084 
L 1348.580085 1087.921547 
L 1346.784047 1092.220297 
L 1344.110829 1097.914387 
L 1341.179496 1103.562825 
L 1337.260164 1110.560685 
L 1323.038568 1135.289505 
L 1320.336918 1140.696726 
L 1318.521408 1144.724782 
L 1316.917331 1148.723211 
L 1315.54997 1152.684596 
L 1314.442013 1156.599869 
L 1313.613279 1160.458461 
L 1313.080491 1164.24852 
L 1312.857093 1167.957197 
L 1312.953125 1171.570995 
L 1313.197992 1173.920684 
L 1313.588897 1176.218027 
L 1314.126237 1178.459054 
L 1314.809727 1180.639937 
L 1315.638424 1182.757049 
L 1316.610736 1184.807015 
L 1317.724451 1186.786769 
L 1318.976763 1188.693592 
L 1320.364301 1190.525167 
L 1321.883165 1192.279606 
L 1324.397968 1194.763659 
L 1327.181594 1197.068361 
L 1330.215419 1199.19359 
L 1333.479224 1201.14184 
L 1336.951561 1202.918162 
L 1340.610132 1204.530006 
L 1344.432165 1205.986989 
L 1348.394787 1207.300572 
L 1353.85799 1208.85145 
L 1359.479277 1210.203775 
L 1366.654802 1211.667548 
L 1375.374034 1213.177066 
L 1386.995285 1214.924791 
L 1404.081648 1217.241531 
L 1416.549502 1218.753339 
L 1426.111292 1219.697632 
L 1434.291084 1220.266469 
L 1441.148545 1220.530027 
L 1448.082972 1220.582201 
L 1455.123735 1220.421224 
L 1463.735987 1219.973422 
L 1474.002407 1219.193962 
L 1493.385172 1217.658049 
L 1500.749699 1217.310098 
L 1506.506143 1217.23215 
L 1512.080367 1217.383997 
L 1516.105063 1217.674797 
L 1519.967215 1218.135209 
L 1523.64109 1218.779055 
L 1527.101758 1219.617756 
L 1530.325628 1220.660197 
L 1533.290975 1221.912685 
L 1535.978419 1223.378966 
L 1537.607334 1224.475997 
L 1539.10114 1225.668479 
L 1540.456348 1226.955797 
L 1541.670166 1228.336938 
L 1542.740526 1229.810533 
L 1543.6661 1231.37489 
L 1544.446311 1233.028031 
L 1545.081334 1234.767735 
L 1545.572084 1236.591573 
L 1545.920205 1238.496948 
L 1546.180267 1241.501891 
L 1546.135525 1244.674519 
L 1545.799711 1248.004934 
L 1545.1892 1251.483119 
L 1544.322547 1255.099058 
L 1543.219966 1258.842802 
L 1541.4198 1264.016208 
L 1539.289944 1269.375903 
L 1536.2416 1276.301275 
L 1532.850631 1283.431875 
L 1528.440644 1292.183594 
L 1522.954008 1302.525715 
L 1518.026486 1311.355632 
L 1513.775439 1318.573128 
L 1509.38213 1325.555722 
L 1505.749177 1330.899669 
L 1501.993445 1335.965642 
L 1499.085154 1339.547603 
L 1496.089842 1342.916307 
L 1493.000177 1346.048654 
L 1489.809595 1348.923029 
L 1486.512609 1351.519804 
L 1483.105076 1353.821824 
L 1479.584399 1355.814877 
L 1477.1739 1356.966422 
L 1474.712832 1357.973441 
L 1472.201707 1358.834406 
L 1469.641382 1359.548605 
L 1467.033053 1360.116166 
L 1464.378236 1360.538082 
L 1460.312917 1360.9022 
L 1456.15449 1360.953048 
L 1451.911492 1360.705058 
L 1447.593439 1360.176939 
L 1443.210564 1359.391454 
L 1438.773539 1358.375106 
L 1434.293192 1357.157738 
L 1428.270476 1355.278784 
L 1420.69723 1352.637808 
L 1398.042887 1344.444374 
L 1392.08017 1342.605164 
L 1387.637056 1341.415075 
L 1383.218506 1340.417108 
L 1378.823014 1339.634015 
L 1374.448 1339.084362 
L 1370.089954 1338.782245 
L 1365.744608 1338.737091 
L 1361.407128 1338.95354 
L 1357.072318 1339.43141 
L 1352.734849 1340.165752 
L 1348.389481 1341.146978 
L 1344.031308 1342.361063 
L 1339.655995 1343.789824 
L 1333.78963 1345.990235 
L 1327.881248 1348.471312 
L 1320.435278 1351.859393 
L 1296.348624 1363.081116 
L 1290.367715 1365.542162 
L 1284.464516 1367.705469 
L 1280.112143 1369.089587 
L 1275.844553 1370.239021 
L 1271.681289 1371.129412 
L 1267.642559 1371.739424 
L 1263.748861 1372.05094 
L 1260.020567 1372.049206 
L 1258.818007 1371.976963 
L 1258.818007 1371.976963 
" clip-path="url(#pb6e2ab06c0)" style="fill: none; stroke: #4169e1; stroke-width: 3; stroke-linecap: square"/>
   </g>
   <g id="line2d_2">
    <path d="M 1216.68894 1482.841063 
L 1215.01718 1482.391012 
L 1213.413397 1481.736885 
L 1211.881274 1480.877153 
L 1210.424219 1479.81121 
L 1209.045323 1478.539363 
L 1207.747319 1477.0628 
L 1206.532549 1475.383565 
L 1205.402924 1473.504524 
L 1204.359897 1471.429329 
L 1203.404433 1469.162373 
L 1202.136272 1465.413711 
L 1201.065316 1461.265088 
L 1200.188074 1456.739302 
L 1199.498233 1451.86166 
L 1198.986669 1446.659566 
L 1198.641521 1441.162097 
L 1198.414832 1433.425243 
L 1198.417091 1425.291461 
L 1198.668923 1414.680753 
L 1199.296743 1399.258871 
L 1200.114505 1379.018648 
L 1200.347305 1367.824267 
L 1200.325115 1358.993806 
L 1200.063292 1350.331414 
L 1199.683019 1343.973819 
L 1199.127182 1337.756316 
L 1198.382272 1331.696267 
L 1197.437375 1325.809918 
L 1196.28429 1320.112537 
L 1194.917595 1314.618554 
L 1193.334675 1309.341705 
L 1191.535703 1304.295174 
L 1189.523581 1299.491726 
L 1187.303834 1294.943817 
L 1184.884475 1290.663691 
L 1182.275829 1286.663442 
L 1179.490323 1282.95505 
L 1176.542247 1279.550381 
L 1173.447489 1276.461146 
L 1170.223252 1273.698835 
L 1168.010785 1272.044441 
L 1165.754424 1270.543499 
L 1163.459837 1269.199079 
L 1161.13274 1268.014105 
L 1158.778853 1266.991325 
L 1156.403855 1266.133277 
L 1154.013342 1265.44226 
L 1151.612785 1264.920293 
L 1149.207485 1264.569078 
L 1146.802537 1264.389963 
L 1144.402793 1264.383898 
L 1142.012821 1264.551396 
L 1139.63688 1264.892494 
L 1137.278882 1265.406709 
L 1134.942373 1266.093005 
L 1132.630507 1266.949749 
L 1130.346026 1267.974684 
L 1128.091251 1269.164889 
L 1125.868065 1270.516758 
L 1122.595562 1272.83804 
L 1119.400318 1275.495514 
L 1116.283189 1278.467728 
L 1113.242955 1281.729421 
L 1110.276474 1285.251572 
L 1107.378889 1289.001524 
L 1103.611516 1294.29298 
L 1099.937192 1299.83081 
L 1094.555417 1308.373575 
L 1086.637288 1320.977054 
L 1083.132131 1326.203884 
L 1079.618441 1331.041443 
L 1076.974335 1334.350545 
L 1074.322727 1337.339909 
L 1071.665992 1339.971396 
L 1069.008673 1342.210655 
L 1067.24002 1343.470536 
L 1065.476528 1344.534827 
L 1063.721075 1345.396693 
L 1061.976899 1346.050292 
L 1060.247565 1346.490794 
L 1058.536936 1346.714401 
L 1056.849132 1346.71835 
L 1055.188486 1346.500914 
L 1053.559501 1346.061392 
L 1051.966801 1345.400084 
L 1050.415082 1344.518268 
L 1048.909061 1343.418164 
L 1047.453426 1342.102887 
L 1046.052785 1340.576399 
L 1044.711618 1338.843452 
L 1043.434226 1336.909527 
L 1042.224686 1334.780763 
L 1041.086809 1332.463893 
L 1039.521938 1328.651863 
L 1038.136466 1324.45923 
L 1036.938779 1319.913857 
L 1035.935119 1315.044641 
L 1035.129449 1309.880934 
L 1034.523391 1304.45198 
L 1034.116204 1298.786396 
L 1033.904825 1292.911693 
L 1033.883953 1286.85386 
L 1034.046186 1280.637013 
L 1034.530931 1272.138165 
L 1035.297562 1263.440942 
L 1036.314713 1254.583071 
L 1037.5475 1245.594514 
L 1039.334615 1234.208938 
L 1041.739416 1220.364833 
L 1050.182927 1173.095459 
L 1052.035063 1161.076285 
L 1053.660247 1149.027841 
L 1054.761397 1139.399777 
L 1055.658907 1129.815152 
L 1056.330368 1120.311924 
L 1056.755555 1110.933743 
L 1056.916474 1101.728991 
L 1056.797452 1092.749463 
L 1056.516412 1086.194823 
L 1056.065749 1079.819645 
L 1055.441644 1073.646062 
L 1054.64114 1067.695213 
L 1053.662163 1061.986758 
L 1052.503541 1056.538425 
L 1051.165011 1051.365587 
L 1049.64722 1046.4809 
L 1047.95172 1041.893997 
L 1046.080945 1037.611266 
L 1044.038189 1033.63571 
L 1041.827573 1029.966904 
L 1039.453999 1026.601041 
L 1036.923112 1023.531083 
L 1034.241247 1020.747003 
L 1031.415386 1018.236121 
L 1028.453109 1015.983517 
L 1025.362554 1013.972523 
L 1022.152379 1012.185271 
L 1018.831729 1010.603282 
L 1015.410217 1009.208088 
L 1011.897903 1007.981853 
L 1007.091775 1006.581275 
L 1002.168994 1005.417755 
L 997.156955 1004.465182 
L 992.084341 1003.7071 
L 986.981055 1003.137918 
L 981.878075 1002.76348 
L 976.807228 1002.60098 
L 971.800859 1002.67819 
L 968.107903 1002.915341 
L 964.482966 1003.326323 
L 960.939239 1003.931225 
L 957.489411 1004.75124 
L 954.145476 1005.807996 
L 950.918524 1007.122858 
L 947.818532 1008.71623 
L 944.854154 1010.606878 
L 942.956831 1012.040714 
L 941.124677 1013.618254 
L 939.359024 1015.343054 
L 937.660823 1017.217973 
L 936.030621 1019.24511 
L 933.712996 1022.573835 
L 931.547216 1026.248583 
L 929.529723 1030.265724 
L 927.654746 1034.617102 
L 925.914351 1039.290061 
L 924.29853 1044.267565 
L 922.795347 1049.528428 
L 920.942458 1056.939922 
L 919.228867 1064.74158 
L 917.221525 1074.923307 
L 910.001015 1112.971822 
L 908.152094 1121.165189 
L 906.143536 1129.077407 
L 903.952774 1136.632305 
L 902.180161 1142.02222 
L 900.291432 1147.14607 
L 898.284228 1151.980444 
L 896.158152 1156.504769 
L 893.914633 1160.701401 
L 891.556758 1164.555692 
L 889.089058 1168.056025 
L 886.517277 1171.19384 
L 883.848116 1173.963629 
L 881.088968 1176.362916 
L 879.203397 1177.756743 
L 877.283677 1178.986957 
L 875.332181 1180.055008 
L 873.351252 1180.962906 
L 871.34318 1181.713202 
L 869.31017 1182.308972 
L 867.254324 1182.753796 
L 864.132029 1183.14702 
L 860.968848 1183.225461 
L 857.770067 1183.006789 
L 854.540137 1182.510477 
L 851.282666 1181.757498 
L 848.000457 1180.769977 
L 844.695573 1179.570816 
L 840.256188 1177.682936 
L 835.78104 1175.514943 
L 830.138484 1172.49095 
L 823.298661 1168.523545 
L 814.074632 1162.86791 
L 802.440016 1155.453024 
L 794.30829 1150.047869 
L 787.420589 1145.190708 
L 781.790921 1140.900464 
L 777.391197 1137.251788 
L 773.110086 1133.362042 
L 769.991978 1130.259089 
L 766.96498 1126.976273 
L 764.039438 1123.496155 
L 761.225464 1119.802999 
L 758.532844 1115.883263 
L 755.970955 1111.726035 
L 753.548699 1107.323413 
L 751.274453 1102.670804 
L 749.156043 1097.76715 
L 747.20072 1092.61507 
L 745.41516 1087.220925 
L 743.805463 1081.594797 
L 742.377173 1075.750394 
L 741.135284 1069.704887 
L 740.084259 1063.478684 
L 739.228041 1057.09515 
L 738.570056 1050.580283 
L 738.113208 1043.962365 
L 737.859867 1037.271579 
L 737.81184 1030.539628 
L 737.970337 1023.799335 
L 738.33592 1017.084265 
L 738.908449 1010.428344 
L 739.687016 1003.86551 
L 740.669883 997.42937 
L 741.854412 991.152898 
L 743.237003 985.068145 
L 744.813045 979.20598 
L 746.576875 973.595852 
L 748.521748 968.265577 
L 750.639843 963.241138 
L 752.922271 958.546505 
L 755.359128 954.203461 
L 757.939558 950.231443 
L 760.651855 946.647386 
L 762.527197 944.480713 
L 764.451795 942.496416 
L 766.421722 940.69747 
L 768.43298 939.086254 
L 770.481526 937.664544 
L 772.5633 936.433487 
L 774.674251 935.393588 
L 776.810364 934.544695 
L 778.967692 933.885986 
L 781.142378 933.415957 
L 783.330687 933.132415 
L 785.529032 933.032466 
L 787.733999 933.112517 
L 789.942368 933.368275 
L 792.151142 933.794746 
L 794.357558 934.386247 
L 796.559113 935.136417 
L 799.847516 936.543631 
L 803.113675 938.2655 
L 806.352729 940.272587 
L 809.561319 942.532664 
L 812.737574 945.011027 
L 816.921709 948.591164 
L 822.074437 953.379464 
L 831.176659 962.308841 
L 837.172464 968.035078 
L 841.16197 971.571695 
L 845.159125 974.787266 
L 848.168128 976.943738 
L 851.190458 978.850627 
L 854.228491 980.483691 
L 857.283506 981.822079 
L 860.35558 982.848402 
L 863.443515 983.548723 
L 865.509765 983.829133 
L 867.580907 983.957554 
L 869.655613 983.93226 
L 871.732304 983.7521 
L 873.809159 983.416462 
L 875.884125 982.925229 
L 877.95493 982.278741 
L 881.047879 981.019634 
L 884.116768 979.41695 
L 887.151732 977.476139 
L 890.142317 975.20375 
L 893.077658 972.607096 
L 895.946687 969.69394 
L 898.738331 966.472223 
L 901.441725 962.949841 
L 904.04641 959.134477 
L 906.542536 955.033493 
L 908.921058 950.653884 
L 911.173908 946.002291 
L 913.294173 941.085086 
L 915.27624 935.908496 
L 917.115938 930.478792 
L 918.810648 924.802508 
L 920.359405 918.886695 
L 921.762969 912.739193 
L 923.023877 906.368907 
L 924.146471 899.786081 
L 925.438991 890.699067 
L 926.516234 881.288581 
L 927.403079 871.594168 
L 928.289881 859.148157 
L 929.120053 843.873325 
L 931.268173 800.468276 
L 932.197377 788.252862 
L 933.143303 778.840485 
L 934.311203 769.821676 
L 935.353681 763.353 
L 936.553235 757.163314 
L 937.920912 751.272719 
L 939.465919 745.698173 
L 941.195522 740.45328 
L 943.11498 735.54815 
L 945.227518 730.989331 
L 946.743813 728.144135 
L 948.34635 725.454279 
L 950.034604 722.919114 
L 951.807677 720.537346 
L 953.664313 718.307059 
L 955.602917 716.225753 
L 957.621573 714.29038 
L 959.718064 712.497383 
L 961.8899 710.842741 
L 965.282868 708.610383 
L 968.82897 706.66276 
L 972.517106 704.981877 
L 976.335461 703.548602 
L 980.271712 702.343027 
L 984.31324 701.344811 
L 988.447322 700.533489 
L 994.081587 699.707408 
L 999.828724 699.130598 
L 1005.660873 698.758183 
L 1013.031136 698.515978 
L 1021.932783 698.453354 
L 1038.205945 698.621353 
L 1051.290105 698.674075 
L 1059.827209 698.508106 
L 1066.802088 698.177172 
L 1073.634108 697.62176 
L 1078.987569 696.985218 
L 1084.23415 696.153097 
L 1089.367617 695.103295 
L 1094.382163 693.814706 
L 1099.272529 692.26759 
L 1102.856052 690.926699 
L 1106.36558 689.423417 
L 1109.79989 687.751708 
L 1113.158167 685.906398 
L 1116.440058 683.88326 
L 1119.645724 681.679084 
L 1122.775882 679.291752 
L 1125.831841 676.720298 
L 1128.815523 673.964965 
L 1131.729474 671.027258 
L 1134.57686 667.909987 
L 1138.276428 663.481707 
L 1141.874912 658.75554 
L 1145.384378 653.749869 
L 1148.818184 648.487913 
L 1153.025869 641.593635 
L 1157.989283 632.945878 
L 1165.360766 619.51271 
L 1172.772084 606.069628 
L 1176.946494 598.863818 
L 1181.17492 592.023272 
L 1184.598412 586.914362 
L 1188.056083 582.21358 
L 1190.668844 579.003038 
L 1193.29484 576.098655 
L 1195.929954 573.531831 
L 1198.569197 571.332438 
L 1201.206758 569.528343 
L 1202.960975 568.557875 
L 1204.7094 567.78125 
L 1206.449772 567.204638 
L 1208.179702 566.833514 
L 1209.896688 566.672601 
L 1211.598124 566.725827 
L 1213.281307 566.996279 
L 1214.94345 567.486167 
L 1216.581691 568.196792 
L 1218.193106 569.128521 
L 1219.774717 570.280772 
L 1221.323504 571.652001 
L 1222.836418 573.239702 
L 1224.310392 575.040411 
L 1225.742349 577.049724 
L 1227.804796 580.44293 
L 1229.755531 584.271614 
L 1231.584461 588.509889 
L 1233.281777 593.12806 
L 1234.83805 598.093083 
L 1236.244341 603.369089 
L 1237.492307 608.917971 
L 1238.574311 614.700008 
L 1239.483532 620.674521 
L 1240.214079 626.800544 
L 1240.761091 633.037506 
L 1241.120841 639.345889 
L 1241.290827 645.687875 
L 1241.269848 652.027949 
L 1241.058073 658.333454 
L 1240.657082 664.575089 
L 1240.069897 670.727336 
L 1239.300982 676.76881 
L 1238.356228 682.682524 
L 1237.242901 688.456071 
L 1235.969582 694.081703 
L 1234.546068 699.556335 
L 1232.983259 704.881442 
L 1230.703467 711.759712 
L 1228.227548 718.408153 
L 1225.58769 724.86337 
L 1222.108141 732.731886 
L 1217.01893 743.567444 
L 1209.622648 759.273096 
L 1205.996344 767.481704 
L 1203.176628 774.312318 
L 1200.454322 781.42147 
L 1197.850542 788.838619 
L 1195.384813 796.581038 
L 1193.075511 804.65273 
L 1190.940352 813.043797 
L 1188.996889 821.730299 
L 1187.262953 830.674617 
L 1185.757008 839.826316 
L 1184.498355 849.123492 
L 1183.507182 858.494576 
L 1182.804414 867.860529 
L 1182.479428 874.831218 
L 1182.337642 881.715474 
L 1182.387835 888.47696 
L 1182.638396 895.080067 
L 1183.097125 901.490638 
L 1183.771008 907.676669 
L 1184.665986 913.608984 
L 1185.786737 919.26187 
L 1187.13645 924.613651 
L 1188.716631 929.647193 
L 1190.526921 934.350318 
L 1191.860538 937.298541 
L 1193.294197 940.096044 
L 1194.826249 942.743241 
L 1196.45461 945.241656 
L 1198.176757 947.59392 
L 1199.989735 949.803754 
L 1201.890159 951.875948 
L 1204.89632 954.739169 
L 1208.076045 957.329776 
L 1211.412896 959.676073 
L 1214.888702 961.810384 
L 1218.483772 963.768445 
L 1223.426318 966.17179 
L 1229.769969 968.978757 
L 1240.049536 973.469566 
L 1245.131641 975.91843 
L 1248.873594 977.916277 
L 1252.531597 980.088466 
L 1256.084826 982.463354 
L 1259.51357 985.064931 
L 1262.799373 987.912465 
L 1265.925145 991.020267 
L 1268.875249 994.39758 
L 1271.635574 998.048584 
L 1274.193573 1001.972528 
L 1276.538302 1006.163975 
L 1278.660438 1010.613152 
L 1280.552285 1015.3064 
L 1282.207787 1020.226701 
L 1283.622529 1025.354272 
L 1284.793738 1030.667206 
L 1285.720298 1036.142139 
L 1286.402754 1041.754924 
L 1286.843327 1047.481289 
L 1287.045932 1053.29747 
L 1287.016193 1059.18078 
L 1286.761458 1065.110123 
L 1286.290807 1071.066419 
L 1285.615055 1077.032937 
L 1284.746738 1082.995526 
L 1283.700087 1088.942742 
L 1282.054807 1096.833751 
L 1280.162831 1104.66872 
L 1278.070639 1112.441526 
L 1275.251018 1122.070355 
L 1269.926427 1139.187564 
L 1265.913271 1152.345129 
L 1263.302246 1161.664709 
L 1261.447753 1169.06312 
L 1259.855196 1176.394032 
L 1258.859527 1181.834235 
L 1258.052747 1187.211113 
L 1257.449289 1192.51015 
L 1257.06133 1197.71507 
L 1256.898658 1202.808227 
L 1256.968586 1207.771086 
L 1257.27589 1212.584745 
L 1257.822809 1217.230516 
L 1258.609065 1221.69051 
L 1259.631943 1225.948225 
L 1260.886391 1229.989097 
L 1262.365171 1233.80101 
L 1264.059029 1237.374729 
L 1265.956903 1240.704239 
L 1268.04615 1243.78699 
L 1270.312793 1246.624012 
L 1272.74178 1249.219918 
L 1275.317257 1251.582771 
L 1278.022841 1253.723838 
L 1280.841896 1255.65722 
L 1283.757802 1257.399393 
L 1286.754221 1258.968649 
L 1290.847466 1260.825809 
L 1295.020546 1262.457735 
L 1300.300784 1264.251226 
L 1306.661548 1266.147993 
L 1316.114974 1268.683113 
L 1326.373603 1271.220489 
L 1333.4024 1272.772994 
L 1339.366803 1273.863803 
L 1344.328802 1274.539636 
L 1349.314101 1274.957261 
L 1353.337856 1275.085488 
L 1357.406411 1275.024547 
L 1362.568336 1274.691676 
L 1367.821955 1274.108638 
L 1375.319229 1273.000891 
L 1387.270636 1271.193527 
L 1392.652477 1270.653509 
L 1396.870641 1270.477574 
L 1399.9566 1270.53889 
L 1402.955646 1270.795007 
L 1405.848952 1271.269706 
L 1408.617612 1271.984013 
L 1411.243039 1272.955837 
L 1413.707361 1274.199717 
L 1415.252403 1275.185702 
L 1416.713745 1276.299963 
L 1418.087106 1277.544194 
L 1419.368588 1278.91941 
L 1420.554712 1280.425972 
L 1421.642455 1282.063618 
L 1422.629275 1283.831502 
L 1423.513139 1285.728235 
L 1424.642746 1288.810688 
L 1425.53464 1292.170552 
L 1426.188788 1295.797824 
L 1426.607884 1299.681063 
L 1426.797253 1303.807776 
L 1426.764673 1308.164773 
L 1426.520144 1312.73846 
L 1426.075589 1317.51508 
L 1425.195232 1324.175822 
L 1424.018616 1331.140549 
L 1422.583035 1338.377171 
L 1420.481669 1347.756116 
L 1417.601869 1359.412933 
L 1413.879818 1373.409386 
L 1409.884621 1387.612308 
L 1405.685203 1401.739851 
L 1401.934682 1413.53294 
L 1398.689688 1422.951757 
L 1396.001191 1430.109811 
L 1393.216748 1436.845997 
L 1391.057391 1441.573494 
L 1388.83106 1445.986783 
L 1386.53276 1450.055423 
L 1384.158212 1453.751471 
L 1381.704054 1457.050165 
L 1380.022547 1459.018029 
L 1378.304237 1460.794765 
L 1376.548987 1462.376191 
L 1374.756915 1463.759139 
L 1372.928393 1464.94151 
L 1371.064045 1465.922325 
L 1369.164741 1466.701761 
L 1367.231588 1467.281182 
L 1365.265912 1467.663154 
L 1363.269247 1467.851452 
L 1361.243314 1467.851059 
L 1359.189996 1467.668146 
L 1357.11132 1467.310047 
L 1355.009426 1466.785221 
L 1351.817955 1465.706508 
L 1348.587052 1464.310748 
L 1345.324605 1462.638927 
L 1342.038414 1460.735978 
L 1337.632836 1457.922752 
L 1331.005911 1453.357959 
L 1322.204604 1447.279673 
L 1317.83986 1444.515459 
L 1314.58641 1442.653755 
L 1311.351074 1441.019396 
L 1308.133625 1439.648879 
L 1304.932967 1438.573451 
L 1301.747219 1437.818607 
L 1299.630433 1437.503303 
L 1297.518252 1437.343377 
L 1295.409683 1437.341698 
L 1293.303665 1437.499826 
L 1291.199084 1437.818014 
L 1289.094794 1438.295211 
L 1286.989642 1438.92908 
L 1283.827812 1440.165436 
L 1280.65781 1441.728655 
L 1277.476323 1443.595621 
L 1274.280567 1445.737805 
L 1271.068459 1448.121775 
L 1266.75824 1451.61073 
L 1261.326983 1456.329228 
L 1247.06833 1468.9632 
L 1242.694775 1472.508097 
L 1238.364514 1475.696201 
L 1235.161647 1477.791407 
L 1232.011425 1479.588757 
L 1228.927612 1481.05222 
L 1225.92463 1482.149695 
L 1223.974857 1482.66408 
L 1222.072023 1482.99618 
L 1220.22054 1483.139757 
L 1218.424762 1483.089506 
L 1217.549096 1482.990294 
L 1217.549096 1482.990294 
" clip-path="url(#pb6e2ab06c0)" style="fill: none; stroke: #ff8c00; stroke-width: 3; stroke-linecap: square"/>
   </g>
  </g>
 </g>
 <defs>
  <clipPath id="pb6e2ab06c0">
   <rect x="270" y="259.2" width="1674" height="1630.8"/>
  </clipPath>
 </defs>
</svg>
