<?xml version="1.0" encoding="utf-8" standalone="no"?>
<!DOCTYPE svg PUBLIC "-//W3C//DTD SVG 1.1//EN"
  "http://www.w3.org/Graphics/SVG/1.1/DTD/svg11.dtd">
<svg xmlns:xlink="http://www.w3.org/1999/xlink" width="2160pt" height="2160pt" viewBox="0 0 2160 2160" xmlns="http://www.w3.org/2000/svg" version="1.1">
 <metadata>
  <rdf:RDF xmlns:dc="http://purl.org/dc/elements/1.1/" xmlns:cc="http://creativecommons.org/ns#" xmlns:rdf="http://www.w3.org/1999/02/22-rdf-syntax-ns#">
   <cc:Work>
    <dc:type rdf:resource="http://purl.org/dc/dcmitype/StillImage"/>
    <dc:date>2022-03-09T01:03:27.113935</dc:date>
    <dc:format>image/svg+xml</dc:format>
    <dc:creator>
     <cc:Agent>
      <dc:title>Matplotlib v3.5.1, https://matplotlib.org/</dc:title>
     </cc:Agent>
    </dc:creator>
   </cc:Work>
  </rdf:RDF>
 </metadata>
 <defs>
  <style type="text/css">*{stroke-linejoin: round; stroke-linecap: butt}</style>
 </defs>
 <g id="figure_1">
  <g id="patch_1">
   <path d="M 0 2160 
L 2160 2160 
L 2160 0 
L 0 0 
L 0 2160 
z
" style="fill: none"/>
  </g>
  <g id="axes_1">
   <g id="line2d_1">
    <path d="M 1257.636748 1371.868297 
L 1255.340905 1371.540585 
L 1253.138416 1371.06427 
L 1251.034339 1370.43824 
L 1249.033353 1369.662054 
L 1247.139704 1368.735935 
L 1245.357144 1367.660749 
L 1243.68889 1366.437982 
L 1242.137566 1365.069724 
L 1240.705168 1363.558632 
L 1239.393022 1361.907906 
L 1238.201754 1360.121256 
L 1237.131261 1358.202864 
L 1236.180693 1356.157351 
L 1235.348441 1353.98974 
L 1234.316492 1350.521251 
L 1233.533973 1346.809702 
L 1232.985834 1342.875897 
L 1232.653373 1338.741655 
L 1232.514466 1334.429522 
L 1232.586292 1328.443058 
L 1232.889706 1322.236104 
L 1233.615312 1312.630981 
L 1234.774959 1297.907102 
L 1235.107597 1291.365851 
L 1235.216435 1284.888656 
L 1235.107636 1280.096815 
L 1234.804605 1275.378941 
L 1234.282372 1270.74954 
L 1233.519036 1266.22215 
L 1232.496045 1261.809412 
L 1231.198411 1257.523158 
L 1229.614869 1253.374505 
L 1227.737975 1249.373959 
L 1226.321808 1246.794168 
L 1224.77347 1244.287516 
L 1223.093595 1241.856799 
L 1221.283547 1239.504755 
L 1219.345404 1237.23408 
L 1217.281933 1235.047435 
L 1213.959407 1231.930782 
L 1210.376932 1229.017927 
L 1206.551573 1226.317592 
L 1202.502954 1223.838419 
L 1198.252898 1221.588936 
L 1193.825025 1219.577507 
L 1189.244337 1217.812251 
L 1184.536771 1216.300927 
L 1179.728752 1215.050805 
L 1174.846731 1214.068506 
L 1169.91673 1213.359819 
L 1164.963895 1212.929506 
L 1160.012071 1212.781089 
L 1155.083403 1212.91663 
L 1150.197977 1213.336505 
L 1145.373497 1214.039181 
L 1140.625029 1215.021011 
L 1135.964793 1216.27603 
L 1131.402027 1217.795797 
L 1126.942924 1219.569247 
L 1122.590641 1221.582603 
L 1118.345383 1223.81932 
L 1114.204568 1226.260082 
L 1110.163062 1228.882863 
L 1106.213481 1231.663031 
L 1101.074144 1235.567635 
L 1094.816851 1240.666389 
L 1075.42612 1256.882001 
L 1070.604637 1260.482807 
L 1066.977112 1262.963406 
L 1063.338855 1265.220985 
L 1059.692139 1267.226939 
L 1056.042211 1268.955295 
L 1052.397283 1270.383065 
L 1048.76843 1271.490548 
L 1045.169395 1272.261562 
L 1042.794486 1272.582322 
L 1040.445265 1272.745145 
L 1038.12739 1272.748021 
L 1035.846811 1272.589691 
L 1033.609712 1272.269644 
L 1031.422443 1271.788101 
L 1029.291454 1271.145991 
L 1027.223222 1270.34493 
L 1025.224187 1269.387186 
L 1023.300675 1268.275645 
L 1021.458839 1267.013768 
L 1019.704586 1265.605544 
L 1018.043514 1264.055446 
L 1016.480858 1262.368374 
L 1015.021432 1260.549606 
L 1013.669579 1258.604738 
L 1012.429127 1256.53963 
L 1011.303352 1254.36035 
L 1010.294948 1252.073111 
L 1009.006799 1248.453642 
L 1007.991656 1244.626861 
L 1007.250661 1240.61395 
L 1006.781725 1236.435515 
L 1006.579599 1232.111251 
L 1006.636022 1227.659654 
L 1006.939911 1223.097782 
L 1007.477616 1218.441077 
L 1008.233201 1213.703235 
L 1009.18876 1208.89615 
L 1010.739925 1202.396163 
L 1012.561898 1195.809896 
L 1015.139992 1187.476743 
L 1018.535188 1177.352894 
L 1027.329707 1151.551684 
L 1030.022524 1142.824844 
L 1031.989917 1135.815395 
L 1033.748066 1128.796012 
L 1035.260285 1121.785159 
L 1036.492843 1114.805937 
L 1037.21511 1109.608743 
L 1037.750817 1104.458024 
L 1038.089047 1099.368157 
L 1038.21987 1094.354478 
L 1038.134376 1089.433022 
L 1037.824705 1084.620237 
L 1037.284094 1079.932656 
L 1036.506912 1075.386562 
L 1035.4887 1070.997628 
L 1034.226202 1066.780566 
L 1032.717395 1062.748789 
L 1030.961499 1058.914096 
L 1028.958988 1055.286388 
L 1026.711581 1051.873434 
L 1024.22222 1048.680688 
L 1021.495041 1045.711166 
L 1018.535328 1042.96539 
L 1015.349464 1040.441399 
L 1011.944867 1038.134838 
L 1008.329929 1036.039105 
L 1004.51395 1034.145582 
L 1000.507072 1032.44391 
L 996.320222 1030.922334 
L 991.965057 1029.568089 
L 987.453916 1028.367816 
L 981.218978 1026.983667 
L 974.762421 1025.818343 
L 968.118647 1024.843764 
L 959.606057 1023.858575 
L 950.932502 1023.10311 
L 942.17697 1022.56356 
L 933.422181 1022.246192 
L 924.753667 1022.177331 
L 917.939364 1022.330551 
L 911.280154 1022.700751 
L 904.819134 1023.322077 
L 900.128156 1023.974898 
L 895.58783 1024.805339 
L 891.212909 1025.828778 
L 887.016522 1027.059732 
L 883.009883 1028.51136 
L 879.202018 1030.195011 
L 875.599516 1032.119812 
L 872.206309 1034.292311 
L 869.023494 1036.716184 
L 866.049211 1039.39202 
L 863.27857 1042.317175 
L 860.703649 1045.485712 
L 858.313549 1048.888413 
L 856.094529 1052.512875 
L 854.030195 1056.34367 
L 852.101766 1060.362571 
L 849.705645 1065.977539 
L 847.459944 1071.834723 
L 844.247142 1080.941351 
L 838.818722 1096.430226 
L 836.45963 1102.541154 
L 833.920492 1108.507305 
L 831.87411 1112.850688 
L 829.690702 1117.055146 
L 827.359486 1121.09862 
L 824.872519 1124.960825 
L 822.224701 1128.623383 
L 819.413707 1132.069926 
L 816.439851 1135.286179 
L 813.305883 1138.260017 
L 810.016738 1140.981507 
L 806.579232 1143.442931 
L 803.001729 1145.638797 
L 799.293789 1147.565832 
L 795.465803 1149.222967 
L 791.528634 1150.611297 
L 787.493269 1151.73404 
L 783.370499 1152.596463 
L 779.170641 1153.2058 
L 774.903286 1153.571143 
L 770.577117 1153.703307 
L 766.199765 1153.614678 
L 761.777726 1153.319021 
L 757.31634 1152.83127 
L 751.313741 1151.909637 
L 745.255683 1150.714062 
L 739.14656 1149.284672 
L 731.441919 1147.229351 
L 722.099675 1144.4644 
L 709.490365 1140.444704 
L 691.945338 1134.573123 
L 677.577834 1129.538765 
L 668.118897 1126.001932 
L 660.387627 1122.877912 
L 654.345448 1120.221061 
L 648.466162 1117.38867 
L 642.783762 1114.347584 
L 638.671638 1111.910608 
L 634.703514 1109.325988 
L 630.893145 1106.582759 
L 627.253792 1103.671665 
L 623.798124 1100.585465 
L 620.538132 1097.319184 
L 617.485073 1093.870321 
L 614.649431 1090.238989 
L 612.040902 1086.428003 
L 609.668389 1082.4429 
L 607.540014 1078.291914 
L 605.663134 1073.985882 
L 604.044363 1069.538113 
L 602.689592 1064.96421 
L 601.603998 1060.281852 
L 600.792049 1055.510556 
L 600.257491 1050.671407 
L 600.003325 1045.786784 
L 600.031767 1040.880077 
L 600.34419 1035.975395 
L 600.941053 1031.097299 
L 601.821823 1026.270522 
L 602.984883 1021.519724 
L 604.427443 1016.869246 
L 606.14545 1012.342897 
L 608.133504 1007.963748 
L 610.384797 1003.753952 
L 612.891057 999.734572 
L 615.642531 995.925435 
L 618.627981 992.344985 
L 621.834731 989.010159 
L 625.248728 985.936263 
L 627.632349 984.03873 
L 630.096476 982.266793 
L 632.636092 980.623632 
L 635.246003 979.112033 
L 637.920877 977.734369 
L 642.043053 975.923154 
L 646.280442 974.422314 
L 650.614243 973.23427 
L 655.025816 972.359054 
L 659.496976 971.794222 
L 664.010279 971.534806 
L 668.549305 971.573267 
L 673.098917 971.899481 
L 677.645495 972.500756 
L 682.177137 973.361878 
L 686.683815 974.465189 
L 691.157491 975.790715 
L 695.592176 977.316321 
L 699.983945 979.017911 
L 705.769864 981.515616 
L 711.477059 984.21506 
L 719.904987 988.492506 
L 736.443566 997.002776 
L 741.922389 999.57803 
L 747.411716 1001.919508 
L 751.544005 1003.489782 
L 755.694596 1004.878319 
L 759.866753 1006.067465 
L 764.06223 1007.042037 
L 768.281135 1007.789373 
L 772.521823 1008.299324 
L 776.780846 1008.56419 
L 781.052949 1008.578604 
L 785.331109 1008.339382 
L 789.606617 1007.845316 
L 793.869206 1007.096951 
L 798.107209 1006.096335 
L 802.307761 1004.846754 
L 806.457016 1003.352473 
L 810.540399 1001.618472 
L 814.542867 999.65021 
L 818.449186 997.453403 
L 822.244213 995.033838 
L 825.913181 992.397226 
L 829.441975 989.549089 
L 832.81741 986.4947 
L 836.027482 983.239063 
L 839.061617 979.786941 
L 841.910895 976.142926 
L 844.568246 972.311547 
L 847.028637 968.297413 
L 849.289216 964.105388 
L 851.349437 959.740775 
L 853.211151 955.209518 
L 854.878665 950.518405 
L 856.358771 945.675262 
L 857.660733 940.689127 
L 858.796244 935.570403 
L 860.075933 928.559954 
L 861.124335 921.367605 
L 862.179885 912.178984 
L 863.207922 900.974025 
L 865.042757 880.458041 
L 865.895017 873.182147 
L 866.942082 866.091023 
L 867.889768 860.925664 
L 869.00187 855.914885 
L 870.299299 851.078338 
L 871.801013 846.434009 
L 873.523768 841.997953 
L 875.48191 837.784065 
L 876.924031 835.104037 
L 878.47888 832.530748 
L 880.148733 830.066506 
L 881.935319 827.71311 
L 883.839809 825.471845 
L 885.862825 823.343481 
L 888.004442 821.328284 
L 890.264201 819.426025 
L 892.64112 817.635994 
L 895.133721 815.957019 
L 897.740041 814.387489 
L 901.857344 812.233871 
L 906.215068 810.31344 
L 910.801384 808.616065 
L 915.602811 807.130163 
L 920.604502 805.842965 
L 925.790522 804.740787 
L 931.144151 803.809293 
L 936.648163 803.033748 
L 944.190607 802.216536 
L 951.928189 801.615009 
L 961.813615 801.114484 
L 971.867284 800.834336 
L 984.058937 800.706968 
L 1002.39851 800.756758 
L 1032.46304 800.852902 
L 1046.070938 800.662797 
L 1057.450138 800.279828 
L 1066.705718 799.761384 
L 1075.735466 799.026872 
L 1082.7853 798.26244 
L 1089.671817 797.32413 
L 1096.387798 796.197568 
L 1102.92702 794.869661 
L 1109.284549 793.32888 
L 1115.457062 791.565548 
L 1121.443166 789.572099 
L 1127.243689 787.343311 
L 1132.861927 784.876519 
L 1138.303803 782.171798 
L 1143.577943 779.232122 
L 1148.695638 776.063511 
L 1153.670696 772.675171 
L 1158.51918 769.079637 
L 1163.259032 765.292917 
L 1169.060659 760.32096 
L 1174.76237 755.128056 
L 1182.652218 747.596449 
L 1198.466455 732.365312 
L 1204.213318 727.162959 
L 1208.865045 723.20281 
L 1213.566554 719.482663 
L 1218.315003 716.0597 
L 1221.90313 713.721885 
L 1225.509433 711.607005 
L 1229.128256 709.737924 
L 1232.752752 708.136395 
L 1236.374936 706.82271 
L 1239.985765 705.815353 
L 1243.575211 705.130662 
L 1245.950939 704.86042 
L 1248.308891 704.743249 
L 1250.645487 704.782006 
L 1252.957016 704.978941 
L 1255.239651 705.335662 
L 1257.489462 705.853117 
L 1259.702431 706.531573 
L 1261.874471 707.370605 
L 1264.001433 708.369091 
L 1266.079131 709.525205 
L 1268.103351 710.836425 
L 1270.069871 712.299543 
L 1271.974475 713.910682 
L 1273.81297 715.665315 
L 1276.437696 718.554897 
L 1278.890606 721.735816 
L 1281.158388 725.185595 
L 1283.228301 728.879442 
L 1285.088324 732.790648 
L 1286.727307 736.89102 
L 1288.135118 741.151347 
L 1289.302799 745.541885 
L 1290.222716 750.032844 
L 1290.888698 754.594884 
L 1291.296173 759.199592 
L 1291.44229 763.819942 
L 1291.326019 768.430722 
L 1290.94823 773.00893 
L 1290.311753 777.534116 
L 1289.421398 781.988677 
L 1288.283953 786.35809 
L 1286.908146 790.631086 
L 1285.304571 794.799757 
L 1283.485583 798.859598 
L 1281.465162 802.809479 
L 1279.25874 806.651557 
L 1276.883016 810.391118 
L 1274.355733 814.036371 
L 1270.782431 818.769123 
L 1267.018224 823.38586 
L 1262.114962 829.051862 
L 1244.929069 848.546392 
L 1241.001535 853.429345 
L 1237.192301 858.501398 
L 1233.531646 863.788047 
L 1230.047409 869.306424 
L 1227.565664 873.602356 
L 1225.208226 878.032891 
L 1222.985315 882.594452 
L 1220.907084 887.280214 
L 1218.983764 892.080164 
L 1217.225791 896.981211 
L 1215.643914 901.967372 
L 1214.249249 907.020013 
L 1213.053304 912.118157 
L 1212.06796 917.23883 
L 1211.305392 922.357475 
L 1210.777955 927.448394 
L 1210.498019 932.485223 
L 1210.477754 937.441441 
L 1210.728893 942.290885 
L 1211.26245 947.008271 
L 1212.088423 951.569718 
L 1212.805874 954.513099 
L 1213.659355 957.371408 
L 1214.650679 960.139224 
L 1215.781259 962.81171 
L 1217.052064 965.38466 
L 1218.463589 967.854543 
L 1220.015825 970.218544 
L 1221.708226 972.474594 
L 1223.539693 974.621398 
L 1225.508549 976.658451 
L 1227.612529 978.586057 
L 1229.84877 980.405324 
L 1232.21381 982.118168 
L 1234.703589 983.7273 
L 1238.661813 985.954372 
L 1242.872003 987.971017 
L 1247.313305 989.795673 
L 1251.962322 991.449971 
L 1256.793369 992.958329 
L 1263.469864 994.788944 
L 1272.094159 996.883625 
L 1293.22212 1001.83237 
L 1300.13461 1003.700032 
L 1306.859771 1005.779674 
L 1311.73945 1007.508993 
L 1316.448174 1009.40338 
L 1320.960595 1011.476865 
L 1325.253243 1013.739868 
L 1329.304647 1016.199121 
L 1333.095423 1018.857667 
L 1336.608345 1021.71496 
L 1338.788416 1023.728414 
L 1340.834364 1025.826541 
L 1342.742728 1028.006791 
L 1344.510488 1030.26608 
L 1346.135066 1032.60084 
L 1347.614334 1035.007075 
L 1348.946603 1037.48042 
L 1350.130637 1040.016207 
L 1351.165642 1042.609522 
L 1352.051276 1045.255277 
L 1352.787647 1047.948269 
L 1353.375317 1050.683249 
L 1353.815304 1053.454979 
L 1354.201736 1057.670221 
L 1354.266251 1061.939739 
L 1354.018149 1066.247749 
L 1353.469107 1070.579837 
L 1352.633184 1074.923227 
L 1351.52681 1079.266974 
L 1350.168758 1083.602084 
L 1348.580085 1087.921547 
L 1346.784047 1092.220297 
L 1344.110829 1097.914387 
L 1341.179496 1103.562825 
L 1337.260164 1110.560685 
L 1323.038568 1135.289505 
L 1320.336918 1140.696726 
L 1318.521408 1144.724782 
L 1316.917331 1148.723211 
L 1315.54997 1152.684596 
L 1314.442013 1156.599869 
L 1313.613279 1160.458461 
L 1313.080491 1164.24852 
L 1312.857093 1167.957197 
L 1312.953125 1171.570995 
L 1313.197992 1173.920684 
L 1313.588897 1176.218027 
L 1314.126237 1178.459054 
L 1314.809727 1180.639937 
L 1315.638424 1182.757049 
L 1316.610736 1184.807015 
L 1317.724451 1186.786769 
L 1318.976763 1188.693592 
L 1320.364301 1190.525167 
L 1321.883165 1192.279606 
L 1324.397968 1194.763659 
L 1327.181594 1197.068361 
L 1330.215419 1199.19359 
L 1333.479224 1201.14184 
L 1336.951561 1202.918162 
L 1340.610132 1204.530006 
L 1344.432165 1205.986989 
L 1348.394787 1207.300572 
L 1353.85799 1208.85145 
L 1359.479277 1210.203775 
L 1366.654802 1211.667548 
L 1375.374034 1213.177066 
L 1386.995285 1214.924791 
L 1404.081648 1217.241531 
L 1416.549502 1218.753339 
L 1426.111292 1219.697632 
L 1434.291084 1220.266469 
L 1441.148545 1220.530027 
L 1448.082972 1220.582201 
L 1455.123735 1220.421224 
L 1463.735987 1219.973422 
L 1474.002407 1219.193962 
L 1493.385172 1217.658049 
L 1500.749699 1217.310098 
L 1506.506143 1217.23215 
L 1512.080367 1217.383997 
L 1516.105063 1217.674797 
L 1519.967215 1218.135209 
L 1523.64109 1218.779055 
L 1527.101758 1219.617756 
L 1530.325628 1220.660197 
L 1533.290975 1221.912685 
L 1535.978419 1223.378966 
L 1537.607334 1224.475997 
L 1539.10114 1225.668479 
L 1540.456348 1226.955797 
L 1541.670166 1228.336938 
L 1542.740526 1229.810533 
L 1543.6661 1231.37489 
L 1544.446311 1233.028031 
L 1545.081334 1234.767735 
L 1545.572084 1236.591573 
L 1545.920205 1238.496948 
L 1546.180267 1241.501891 
L 1546.135525 1244.674519 
L 1545.799711 1248.004934 
L 1545.1892 1251.483119 
L 1544.322547 1255.099058 
L 1543.219966 1258.842802 
L 1541.4198 1264.016208 
L 1539.289944 1269.375903 
L 1536.2416 1276.301275 
L 1532.850631 1283.431875 
L 1528.440644 1292.183594 
L 1522.954008 1302.525715 
L 1518.026486 1311.355632 
L 1513.775439 1318.573128 
L 1509.38213 1325.555722 
L 1505.749177 1330.899669 
L 1501.993445 1335.965642 
L 1499.085154 1339.547603 
L 1496.089842 1342.916307 
L 1493.000177 1346.048654 
L 1489.809595 1348.923029 
L 1486.512609 1351.519804 
L 1483.105076 1353.821824 
L 1479.584399 1355.814877 
L 1477.1739 1356.966422 
L 1474.712832 1357.973441 
L 1472.201707 1358.834406 
L 1469.641382 1359.548605 
L 1467.033053 1360.116166 
L 1464.378236 1360.538082 
L 1460.312917 1360.9022 
L 1456.15449 1360.953048 
L 1451.911492 1360.705058 
L 1447.593439 1360.176939 
L 1443.210564 1359.391454 
L 1438.773539 1358.375106 
L 1434.293192 1357.157738 
L 1428.270476 1355.278784 
L 1420.69723 1352.637808 
L 1398.042887 1344.444374 
L 1392.08017 1342.605164 
L 1387.637056 1341.415075 
L 1383.218506 1340.417108 
L 1378.823014 1339.634015 
L 1374.448 1339.084362 
L 1370.089954 1338.782245 
L 1365.744608 1338.737091 
L 1361.407128 1338.95354 
L 1357.072318 1339.43141 
L 1352.734849 1340.165752 
L 1348.389481 1341.146978 
L 1344.031308 1342.361063 
L 1339.655995 1343.789824 
L 1333.78963 1345.990235 
L 1327.881248 1348.471312 
L 1320.435278 1351.859393 
L 1296.348624 1363.081116 
L 1290.367715 1365.542162 
L 1284.464516 1367.705469 
L 1280.112143 1369.089587 
L 1275.844553 1370.239021 
L 1271.681289 1371.129412 
L 1267.642559 1371.739424 
L 1263.748861 1372.05094 
L 1260.020567 1372.049206 
L 1258.818007 1371.976963 
L 1258.818007 1371.976963 
" clip-path="url(#p60f417d90d)" style="fill: none; stroke: #4169e1; stroke-width: 3; stroke-linecap: square"/>
   </g>
   <g id="line2d_2">
    <path d="M 1218.824499 1475.044714 
L 1217.120191 1474.603258 
L 1215.485183 1473.961624 
L 1213.923231 1473.118309 
L 1212.437809 1472.072724 
L 1211.032067 1470.825166 
L 1209.708792 1469.376801 
L 1208.470371 1467.729635 
L 1207.318753 1465.886479 
L 1206.255419 1463.850915 
L 1205.281353 1461.627252 
L 1203.988502 1457.95018 
L 1202.896695 1453.880784 
L 1202.002374 1449.441429 
L 1201.299102 1444.656938 
L 1200.777578 1439.55419 
L 1200.425711 1434.161708 
L 1200.194608 1426.572609 
L 1200.196911 1418.594161 
L 1200.453646 1408.18609 
L 1201.093689 1393.058726 
L 1201.927373 1373.205039 
L 1202.164705 1362.224441 
L 1202.142082 1353.56262 
L 1201.875162 1345.065657 
L 1201.487485 1338.829475 
L 1200.920827 1332.730711 
L 1200.161414 1326.786393 
L 1199.198121 1321.012458 
L 1198.022586 1315.423882 
L 1196.629283 1310.03482 
L 1195.015544 1304.858745 
L 1193.181548 1299.90859 
L 1191.130251 1295.196875 
L 1188.867287 1290.73582 
L 1186.400826 1286.537433 
L 1183.741392 1282.613579 
L 1180.901654 1278.976007 
L 1177.89618 1275.636358 
L 1174.741171 1272.60612 
L 1171.45416 1269.896562 
L 1168.053706 1267.518617 
L 1165.733204 1266.122738 
L 1163.376643 1264.881845 
L 1160.989856 1263.798724 
L 1158.57866 1262.875972 
L 1156.148808 1262.115965 
L 1153.705946 1261.520827 
L 1151.255571 1261.092386 
L 1148.802986 1260.832143 
L 1146.353268 1260.741231 
L 1143.911221 1260.820371 
L 1141.481349 1261.069839 
L 1139.06782 1261.489421 
L 1136.67444 1262.078376 
L 1134.304626 1262.835399 
L 1131.961386 1263.758588 
L 1129.647302 1264.845405 
L 1127.364518 1266.092654 
L 1125.114733 1267.496452 
L 1121.804538 1269.885434 
L 1118.573641 1272.59759 
L 1115.422193 1275.61063 
L 1112.348278 1278.898537 
L 1109.348084 1282.431638 
L 1106.416132 1286.17675 
L 1102.600968 1291.436572 
L 1097.955895 1298.305011 
L 1083.561275 1320.148766 
L 1079.982069 1324.999347 
L 1077.289193 1328.340916 
L 1074.58835 1331.38206 
L 1071.881226 1334.084244 
L 1069.171719 1336.41248 
L 1066.465924 1338.335804 
L 1064.668098 1339.37977 
L 1062.878468 1340.225177 
L 1061.100334 1340.866293 
L 1059.337331 1341.298383 
L 1057.593398 1341.517719 
L 1055.872733 1341.521593 
L 1054.179756 1341.30831 
L 1052.519056 1340.877181 
L 1050.895347 1340.228502 
L 1049.313417 1339.363527 
L 1047.778075 1338.284433 
L 1046.2941 1336.994274 
L 1044.86619 1335.496938 
L 1043.498912 1333.797085 
L 1042.196649 1331.900093 
L 1040.96356 1329.811983 
L 1039.80353 1327.539359 
L 1038.208192 1323.800129 
L 1036.795746 1319.687565 
L 1035.574742 1315.228997 
L 1034.55154 1310.45277 
L 1033.730185 1305.387676 
L 1033.112328 1300.062402 
L 1032.697213 1294.505016 
L 1032.481718 1288.742504 
L 1032.46044 1282.80036 
L 1032.625832 1276.702239 
L 1033.120015 1268.365697 
L 1033.901571 1259.834568 
L 1034.938525 1251.14586 
L 1036.195314 1242.328961 
L 1038.017223 1231.16082 
L 1040.468842 1217.581101 
L 1049.076742 1171.21445 
L 1050.964938 1159.424811 
L 1052.621763 1147.606461 
L 1053.744352 1138.162269 
L 1054.659335 1128.760685 
L 1055.34387 1119.438945 
L 1055.777334 1110.239862 
L 1055.941386 1101.210898 
L 1055.820047 1092.402855 
L 1055.533536 1085.973392 
L 1055.074099 1079.719963 
L 1054.437843 1073.66428 
L 1053.621754 1067.827076 
L 1052.623717 1062.227638 
L 1051.442537 1056.883354 
L 1050.077947 1051.809305 
L 1048.530606 1047.017902 
L 1046.802095 1042.518597 
L 1044.894898 1038.317655 
L 1042.812372 1034.418022 
L 1040.558716 1030.819281 
L 1038.138931 1027.517697 
L 1035.558769 1024.506367 
L 1032.82469 1021.775456 
L 1029.943812 1019.312525 
L 1026.923862 1017.10294 
L 1023.773136 1015.130351 
L 1020.500461 1013.377231 
L 1017.115161 1011.825454 
L 1013.627035 1010.456905 
L 1010.046339 1009.254087 
L 1005.146639 1007.880256 
L 1000.128015 1006.738957 
L 995.018395 1005.804576 
L 989.847022 1005.060972 
L 984.644379 1004.502659 
L 979.442048 1004.135372 
L 974.272476 1003.975975 
L 969.168636 1004.05171 
L 964.163567 1004.398821 
L 960.494179 1004.863103 
L 956.911961 1005.524444 
L 953.429635 1006.403847 
L 950.059145 1007.522518 
L 946.811442 1008.901175 
L 943.696274 1010.55937 
L 941.6973 1011.828981 
L 939.763037 1013.235435 
L 937.895213 1014.782847 
L 936.095184 1016.474709 
L 934.36392 1018.313821 
L 932.70198 1020.302245 
L 930.339232 1023.567401 
L 928.131286 1027.171971 
L 926.074514 1031.112394 
L 924.163033 1035.380672 
L 922.388753 1039.964389 
L 920.741474 1044.846836 
L 919.209025 1050.00723 
L 917.320062 1057.277184 
L 915.573108 1064.92985 
L 913.526685 1074.917133 
L 906.165597 1112.23902 
L 904.280679 1120.275914 
L 902.233016 1128.03703 
L 899.999601 1135.447648 
L 898.192478 1140.73463 
L 896.266976 1145.760628 
L 894.220693 1150.502678 
L 892.053224 1154.9406 
L 889.766026 1159.057087 
L 887.362244 1162.837771 
L 884.846501 1166.271257 
L 882.224649 1169.349148 
L 879.503521 1172.06604 
L 876.690655 1174.419508 
L 874.768373 1175.786716 
L 872.811278 1176.993436 
L 870.821787 1178.04109 
L 868.802292 1178.931649 
L 866.755124 1179.667616 
L 864.682533 1180.252009 
L 861.530631 1180.852207 
L 858.333004 1181.133192 
L 855.095583 1181.110969 
L 851.823478 1180.803492 
L 848.520937 1180.230388 
L 845.191361 1179.412644 
L 841.837345 1178.372261 
L 838.460765 1177.131868 
L 833.925686 1175.206362 
L 829.354495 1173.019277 
L 823.591249 1169.994688 
L 816.605979 1166.054845 
L 807.189143 1160.469294 
L 795.323107 1153.163939 
L 787.042744 1147.829923 
L 781.198625 1143.842608 
L 775.459352 1139.634296 
L 770.973968 1136.055301 
L 766.609508 1132.239839 
L 763.430693 1129.196144 
L 760.344761 1125.976021 
L 757.362261 1122.562365 
L 754.493501 1118.939739 
L 751.748458 1115.094859 
L 749.136691 1111.017024 
L 746.667275 1106.698481 
L 744.348752 1102.134725 
L 742.189098 1097.324717 
L 740.195707 1092.271029 
L 738.375382 1086.979898 
L 736.734346 1081.461214 
L 735.278248 1075.728424 
L 734.012181 1069.798371 
L 732.940693 1063.691073 
L 732.067806 1057.429447 
L 731.39701 1051.038997 
L 730.931268 1044.547464 
L 730.672994 1037.984456 
L 730.624032 1031.381067 
L 730.785615 1024.769496 
L 731.158315 1018.182667 
L 731.741991 1011.653857 
L 732.535717 1005.216356 
L 733.537719 998.90313 
L 734.745309 992.746522 
L 736.154818 986.777972 
L 737.761545 981.027759 
L 739.559715 975.52477 
L 741.542454 970.296289 
L 743.701786 965.367804 
L 746.028652 960.762827 
L 748.512952 956.502724 
L 751.143622 952.606561 
L 752.972856 950.219617 
L 754.858127 948.006145 
L 756.795583 945.969897 
L 758.781264 944.114072 
L 760.811124 942.441298 
L 762.881064 940.953616 
L 764.986948 939.652462 
L 767.12464 938.538646 
L 769.290023 937.612345 
L 771.479037 936.873082 
L 773.687698 936.319718 
L 775.912135 935.95044 
L 778.148611 935.762753 
L 780.393555 935.753478 
L 782.643582 935.918745 
L 784.89552 936.254 
L 787.146431 936.754004 
L 789.393629 937.41285 
L 792.752251 938.684401 
L 796.090185 940.273571 
L 799.401967 942.152453 
L 802.683664 944.290319 
L 805.932868 946.653897 
L 810.21319 950.09487 
L 814.435861 953.784932 
L 820.674652 959.583422 
L 830.902179 969.162953 
L 834.969227 972.69852 
L 839.041214 975.938505 
L 842.104983 978.129557 
L 845.181305 980.084439 
L 848.272948 981.778286 
L 851.3816 983.189527 
L 854.507758 984.299971 
L 857.65064 985.094822 
L 860.808137 985.562622 
L 862.919602 985.68859 
L 865.034701 985.663779 
L 867.151824 985.48706 
L 869.269114 985.157832 
L 871.384477 984.67598 
L 874.54879 983.667872 
L 877.694853 982.319959 
L 880.813113 980.636672 
L 883.893294 978.623753 
L 886.924574 976.287912 
L 889.895788 973.636502 
L 892.795626 970.677222 
L 895.612847 967.417871 
L 898.336488 963.866138 
L 900.956073 960.029465 
L 903.461811 955.914953 
L 905.844793 951.529344 
L 908.09717 946.879054 
L 910.212318 941.970268 
L 912.184991 936.809086 
L 914.011451 931.40172 
L 915.689581 925.754719 
L 917.218977 919.875228 
L 918.601011 913.771254 
L 919.838883 907.451941 
L 920.937633 900.927831 
L 922.198368 891.93175 
L 923.245473 882.62746 
L 924.105631 873.055399 
L 924.966645 860.786261 
L 925.781345 845.760234 
L 927.68516 808.147722 
L 928.583858 796.082165 
L 929.497615 786.76319 
L 930.628213 777.814195 
L 931.640417 771.382711 
L 932.808607 765.217675 
L 934.144641 759.339777 
L 935.658545 753.766704 
L 937.358394 748.512916 
L 939.250238 743.589483 
L 941.338056 739.003995 
L 943.623749 734.760546 
L 945.257486 732.122059 
L 946.978609 729.63531 
L 948.786202 727.299027 
L 950.678986 725.111333 
L 952.655333 723.069775 
L 954.71329 721.171362 
L 956.850599 719.412607 
L 959.064719 717.789564 
L 962.523745 715.599838 
L 966.138886 713.68941 
L 969.898828 712.040627 
L 973.791523 710.634724 
L 977.804411 709.452173 
L 981.924624 708.47302 
L 986.139193 707.677192 
L 991.883152 706.866887 
L 997.742182 706.301093 
L 1003.687879 705.93579 
L 1011.201635 705.69821 
L 1020.27659 705.636782 
L 1038.362414 705.817665 
L 1051.667829 705.840266 
L 1060.341863 705.641015 
L 1067.42459 705.275968 
L 1074.358775 704.681745 
L 1079.78984 704.011472 
L 1085.11032 703.143862 
L 1090.313958 702.057447 
L 1095.394961 700.731824 
L 1100.348134 699.148024 
L 1103.976442 697.78035 
L 1107.528857 696.251325 
L 1111.004262 694.555299 
L 1114.401979 692.687499 
L 1117.721818 690.644102 
L 1120.964126 688.42231 
L 1124.129833 686.020416 
L 1127.220479 683.437861 
L 1130.238235 680.675291 
L 1133.185908 677.734604 
L 1137.013149 673.542332 
L 1140.731775 669.050555 
L 1144.353316 664.275017 
L 1147.890771 659.236095 
L 1152.215967 652.605965 
L 1156.461066 645.664558 
L 1162.325773 635.566229 
L 1175.748734 612.156215 
L 1180.025692 605.214086 
L 1183.488151 599.953098 
L 1186.987322 595.034595 
L 1189.634182 591.616887 
L 1192.297812 588.467658 
L 1194.974934 585.618742 
L 1197.661351 583.100937 
L 1200.351979 580.943547 
L 1203.040891 579.173906 
L 1204.829261 578.221971 
L 1206.611727 577.460178 
L 1208.385982 576.894578 
L 1210.149593 576.530541 
L 1211.900007 576.372701 
L 1213.634569 576.42491 
L 1215.350522 576.690198 
L 1217.045025 577.17073 
L 1218.715162 577.867784 
L 1220.35795 578.78172 
L 1221.970353 579.911966 
L 1223.549294 581.257007 
L 1225.091664 582.814387 
L 1226.594334 584.580708 
L 1228.054171 586.551648 
L 1229.468045 588.721984 
L 1231.495876 592.337787 
L 1233.402933 596.36426 
L 1235.17911 600.773471 
L 1236.814651 605.534049 
L 1238.300267 610.611673 
L 1239.627235 615.969628 
L 1240.787518 621.56941 
L 1241.773873 627.371356 
L 1242.579965 633.335304 
L 1243.200478 639.421254 
L 1243.631215 645.590027 
L 1243.8692 651.803905 
L 1243.912758 658.027233 
L 1243.761589 664.226987 
L 1243.416821 670.373279 
L 1242.881044 676.439798 
L 1242.158319 682.404184 
L 1241.25417 688.248312 
L 1240.175545 693.9585 
L 1238.930754 699.525621 
L 1237.529383 704.945131 
L 1235.982185 710.217001 
L 1233.712913 717.024597 
L 1231.235761 723.599477 
L 1228.583137 729.974881 
L 1225.072087 737.730213 
L 1220.660897 746.8584 
L 1210.874144 766.880539 
L 1207.197012 774.998287 
L 1204.345104 781.763448 
L 1201.598057 788.810098 
L 1198.976956 796.164269 
L 1196.501368 803.839731 
L 1194.18981 811.837043 
L 1192.060257 820.143046 
L 1190.130633 828.73085 
L 1188.419252 837.560314 
L 1186.945133 846.57901 
L 1185.728184 855.723666 
L 1184.789195 864.92203 
L 1184.280267 871.808719 
L 1183.948954 878.646285 
L 1183.804408 885.39907 
L 1183.855577 892.031428 
L 1184.111017 898.508434 
L 1184.578678 904.79658 
L 1185.26568 910.864473 
L 1186.178083 916.683497 
L 1187.320654 922.228427 
L 1188.696645 927.478003 
L 1190.307591 932.415417 
L 1191.511987 935.527494 
L 1192.82008 938.493147 
L 1194.230839 941.311164 
L 1195.742802 943.981405 
L 1197.354067 946.504822 
L 1199.062286 948.883453 
L 1200.864667 951.120418 
L 1202.757974 953.219893 
L 1204.738543 955.187087 
L 1207.863958 957.903674 
L 1211.160939 960.361634 
L 1214.612115 962.590109 
L 1218.198421 964.621991 
L 1221.899319 966.493301 
L 1226.97435 968.805316 
L 1236.088703 972.617664 
L 1243.94277 975.982661 
L 1249.100716 978.439103 
L 1252.889416 980.452463 
L 1256.585339 982.646557 
L 1260.167616 985.047819 
L 1263.616565 987.678269 
L 1266.913822 990.555207 
L 1270.04245 993.691018 
L 1272.987019 997.093108 
L 1275.733671 1000.763944 
L 1278.270157 1004.701227 
L 1280.585868 1008.89816 
L 1282.671852 1013.343836 
L 1284.52082 1018.023696 
L 1286.127155 1022.920074 
L 1287.486914 1028.012801 
L 1288.597831 1033.279838 
L 1289.459333 1038.697938 
L 1290.072542 1044.243303 
L 1290.440296 1049.892225 
L 1290.567166 1055.621686 
L 1290.45947 1061.409901 
L 1290.125286 1067.236793 
L 1289.574462 1073.084384 
L 1288.818609 1078.937085 
L 1287.871089 1084.781892 
L 1286.746973 1090.608473 
L 1285.002588 1098.335982 
L 1283.018137 1106.006386 
L 1280.274179 1115.507944 
L 1276.732076 1126.788302 
L 1268.45274 1152.694148 
L 1265.850315 1161.821516 
L 1264.021947 1169.063818 
L 1262.472419 1176.234902 
L 1261.519783 1181.551968 
L 1260.764865 1186.802385 
L 1260.221628 1191.9713 
L 1259.901688 1197.042253 
L 1259.814191 1201.99759 
L 1259.965733 1206.818949 
L 1260.360321 1211.487795 
L 1260.999376 1215.985996 
L 1261.881778 1220.296392 
L 1263.003949 1224.403373 
L 1264.359978 1228.293402 
L 1265.941781 1231.955492 
L 1267.739284 1235.381605 
L 1269.740646 1238.566954 
L 1271.932495 1241.5102 
L 1274.300187 1244.213531 
L 1276.828074 1246.682621 
L 1279.499781 1248.926459 
L 1282.29849 1250.957069 
L 1285.207215 1252.789114 
L 1288.209082 1254.439413 
L 1291.287583 1255.926373 
L 1295.484123 1257.688465 
L 1299.753552 1259.241199 
L 1305.144989 1260.955584 
L 1311.627276 1262.780849 
L 1321.245059 1265.237857 
L 1331.675104 1267.696892 
L 1338.826359 1269.184332 
L 1344.902056 1270.209341 
L 1349.963036 1270.824649 
L 1355.05364 1271.179684 
L 1359.166104 1271.259165 
L 1363.326861 1271.153395 
L 1368.607709 1270.774057 
L 1373.982181 1270.159833 
L 1381.646149 1269.041953 
L 1391.621117 1267.576293 
L 1397.124407 1266.990934 
L 1401.449086 1266.754867 
L 1404.620465 1266.756905 
L 1407.709553 1266.941724 
L 1410.697268 1267.333456 
L 1413.564319 1267.953668 
L 1416.291603 1268.820981 
L 1418.860614 1269.950779 
L 1421.253839 1271.355034 
L 1422.743632 1272.448016 
L 1424.143731 1273.668485 
L 1425.450163 1275.017438 
L 1426.65938 1276.495228 
L 1427.7683 1278.101599 
L 1428.774333 1279.835721 
L 1429.675405 1281.696231 
L 1430.827004 1284.719818 
L 1431.736263 1288.015517 
L 1432.403147 1291.573517 
L 1432.830402 1295.382596 
L 1433.023458 1299.430501 
L 1432.990244 1303.70429 
L 1432.740954 1308.190631 
L 1432.287744 1312.87603 
L 1431.390247 1319.409569 
L 1430.190723 1326.241288 
L 1428.727192 1333.339709 
L 1426.584915 1342.53954 
L 1423.649047 1353.973742 
L 1419.85453 1367.7029 
L 1415.781551 1381.634582 
L 1411.500373 1395.492326 
L 1407.676832 1407.060197 
L 1404.368661 1416.299139 
L 1401.62782 1423.320493 
L 1398.789167 1429.928035 
L 1396.587769 1434.565249 
L 1394.318092 1438.894256 
L 1391.975047 1442.885195 
L 1389.554268 1446.510658 
L 1387.05233 1449.746355 
L 1385.338085 1451.676638 
L 1383.586321 1453.419443 
L 1381.796897 1454.970668 
L 1379.969935 1456.327205 
L 1378.105813 1457.486996 
L 1376.205168 1458.44908 
L 1374.268886 1459.213632 
L 1372.298095 1459.781987 
L 1370.294149 1460.156664 
L 1368.258611 1460.341366 
L 1366.193235 1460.34098 
L 1364.09994 1460.16156 
L 1361.980794 1459.8103 
L 1359.837978 1459.295497 
L 1356.584371 1458.237385 
L 1353.290565 1456.868281 
L 1349.964601 1455.228387 
L 1346.61443 1453.361779 
L 1342.123079 1450.602278 
L 1335.367133 1446.124661 
L 1326.394471 1440.162455 
L 1321.944749 1437.45103 
L 1318.627957 1435.624879 
L 1315.329632 1434.021733 
L 1312.049541 1432.677389 
L 1308.786568 1431.622499 
L 1305.538797 1430.882071 
L 1303.380799 1430.572788 
L 1301.227495 1430.415916 
L 1299.077874 1430.414269 
L 1296.930853 1430.569378 
L 1294.785298 1430.881489 
L 1292.640039 1431.349573 
L 1289.420138 1432.338792 
L 1286.194374 1433.660584 
L 1282.959105 1435.296056 
L 1279.711111 1437.220713 
L 1276.447775 1439.404908 
L 1272.069729 1442.661068 
L 1267.659486 1446.225154 
L 1260.988789 1451.923357 
L 1250.914018 1460.520356 
L 1246.448196 1464.068504 
L 1242.020114 1467.292926 
L 1238.73997 1469.437043 
L 1235.509005 1471.301564 
L 1232.34098 1472.849946 
L 1229.2504 1474.049375 
L 1227.240435 1474.640763 
L 1225.276063 1475.056744 
L 1223.361798 1475.290748 
L 1221.502114 1475.337113 
L 1219.701402 1475.191095 
L 1219.701402 1475.191095 
" clip-path="url(#p60f417d90d)" style="fill: none; stroke: #ff8c00; stroke-width: 3; stroke-linecap: square"/>
   </g>
  </g>
 </g>
 <defs>
  <clipPath id="p60f417d90d">
   <rect x="270" y="259.2" width="1674" height="1630.8"/>
  </clipPath>
 </defs>
</svg>
