<?xml version="1.0" encoding="utf-8" standalone="no"?>
<!DOCTYPE svg PUBLIC "-//W3C//DTD SVG 1.1//EN"
  "http://www.w3.org/Graphics/SVG/1.1/DTD/svg11.dtd">
<svg xmlns:xlink="http://www.w3.org/1999/xlink" width="2160pt" height="2160pt" viewBox="0 0 2160 2160" xmlns="http://www.w3.org/2000/svg" version="1.1">
 <metadata>
  <rdf:RDF xmlns:dc="http://purl.org/dc/elements/1.1/" xmlns:cc="http://creativecommons.org/ns#" xmlns:rdf="http://www.w3.org/1999/02/22-rdf-syntax-ns#">
   <cc:Work>
    <dc:type rdf:resource="http://purl.org/dc/dcmitype/StillImage"/>
    <dc:date>2022-03-06T19:21:04.459080</dc:date>
    <dc:format>image/svg+xml</dc:format>
    <dc:creator>
     <cc:Agent>
      <dc:title>Matplotlib v3.5.1, https://matplotlib.org/</dc:title>
     </cc:Agent>
    </dc:creator>
   </cc:Work>
  </rdf:RDF>
 </metadata>
 <defs>
  <style type="text/css">*{stroke-linejoin: round; stroke-linecap: butt}</style>
 </defs>
 <g id="figure_1">
  <g id="patch_1">
   <path d="M 0 2160 
L 2160 2160 
L 2160 0 
L 0 0 
L 0 2160 
z
" style="fill: none"/>
  </g>
  <g id="axes_1">
   <g id="line2d_1">
    <path d="M 1257.636748 1371.868297 
L 1255.340905 1371.540585 
L 1253.138416 1371.06427 
L 1251.034339 1370.43824 
L 1249.033353 1369.662054 
L 1247.139704 1368.735935 
L 1245.357144 1367.660749 
L 1243.68889 1366.437982 
L 1242.137566 1365.069724 
L 1240.705168 1363.558632 
L 1239.393022 1361.907906 
L 1238.201754 1360.121256 
L 1237.131261 1358.202864 
L 1236.180693 1356.157351 
L 1235.348441 1353.98974 
L 1234.316492 1350.521251 
L 1233.533973 1346.809702 
L 1232.985834 1342.875897 
L 1232.653373 1338.741655 
L 1232.514466 1334.429522 
L 1232.586292 1328.443058 
L 1232.889706 1322.236104 
L 1233.615312 1312.630981 
L 1234.774959 1297.907102 
L 1235.107597 1291.365851 
L 1235.216435 1284.888656 
L 1235.107636 1280.096815 
L 1234.804605 1275.378941 
L 1234.282372 1270.74954 
L 1233.519036 1266.22215 
L 1232.496045 1261.809412 
L 1231.198411 1257.523158 
L 1229.614869 1253.374505 
L 1227.737975 1249.373959 
L 1226.321808 1246.794168 
L 1224.77347 1244.287516 
L 1223.093595 1241.856799 
L 1221.283547 1239.504755 
L 1219.345404 1237.23408 
L 1217.281933 1235.047435 
L 1213.959407 1231.930782 
L 1210.376932 1229.017927 
L 1206.551573 1226.317592 
L 1202.502954 1223.838419 
L 1198.252898 1221.588936 
L 1193.825025 1219.577507 
L 1189.244337 1217.812251 
L 1184.536771 1216.300927 
L 1179.728752 1215.050805 
L 1174.846731 1214.068506 
L 1169.91673 1213.359819 
L 1164.963895 1212.929506 
L 1160.012071 1212.781089 
L 1155.083403 1212.91663 
L 1150.197977 1213.336505 
L 1145.373497 1214.039181 
L 1140.625029 1215.021011 
L 1135.964793 1216.27603 
L 1131.402027 1217.795797 
L 1126.942924 1219.569247 
L 1122.590641 1221.582603 
L 1118.345383 1223.81932 
L 1114.204568 1226.260082 
L 1110.163062 1228.882863 
L 1106.213481 1231.663031 
L 1101.074144 1235.567635 
L 1094.816851 1240.666389 
L 1075.42612 1256.882001 
L 1070.604637 1260.482807 
L 1066.977112 1262.963406 
L 1063.338855 1265.220985 
L 1059.692139 1267.226939 
L 1056.042211 1268.955295 
L 1052.397283 1270.383065 
L 1048.76843 1271.490548 
L 1045.169395 1272.261562 
L 1042.794486 1272.582322 
L 1040.445265 1272.745145 
L 1038.12739 1272.748021 
L 1035.846811 1272.589691 
L 1033.609712 1272.269644 
L 1031.422443 1271.788101 
L 1029.291454 1271.145991 
L 1027.223222 1270.34493 
L 1025.224187 1269.387186 
L 1023.300675 1268.275645 
L 1021.458839 1267.013768 
L 1019.704586 1265.605544 
L 1018.043514 1264.055446 
L 1016.480858 1262.368374 
L 1015.021432 1260.549606 
L 1013.669579 1258.604738 
L 1012.429127 1256.53963 
L 1011.303352 1254.36035 
L 1010.294948 1252.073111 
L 1009.006799 1248.453642 
L 1007.991656 1244.626861 
L 1007.250661 1240.61395 
L 1006.781725 1236.435515 
L 1006.579599 1232.111251 
L 1006.636022 1227.659654 
L 1006.939911 1223.097782 
L 1007.477616 1218.441077 
L 1008.233201 1213.703235 
L 1009.18876 1208.89615 
L 1010.739925 1202.396163 
L 1012.561898 1195.809896 
L 1015.139992 1187.476743 
L 1018.535188 1177.352894 
L 1027.329707 1151.551684 
L 1030.022524 1142.824844 
L 1031.989917 1135.815395 
L 1033.748066 1128.796012 
L 1035.260285 1121.785159 
L 1036.492843 1114.805937 
L 1037.21511 1109.608743 
L 1037.750817 1104.458024 
L 1038.089047 1099.368157 
L 1038.21987 1094.354478 
L 1038.134376 1089.433022 
L 1037.824705 1084.620237 
L 1037.284094 1079.932656 
L 1036.506912 1075.386562 
L 1035.4887 1070.997628 
L 1034.226202 1066.780566 
L 1032.717395 1062.748789 
L 1030.961499 1058.914096 
L 1028.958988 1055.286388 
L 1026.711581 1051.873434 
L 1024.22222 1048.680688 
L 1021.495041 1045.711166 
L 1018.535328 1042.96539 
L 1015.349464 1040.441399 
L 1011.944867 1038.134838 
L 1008.329929 1036.039105 
L 1004.51395 1034.145582 
L 1000.507072 1032.44391 
L 996.320222 1030.922334 
L 991.965057 1029.568089 
L 987.453916 1028.367816 
L 981.218978 1026.983667 
L 974.762421 1025.818343 
L 968.118647 1024.843764 
L 959.606057 1023.858575 
L 950.932502 1023.10311 
L 942.17697 1022.56356 
L 933.422181 1022.246192 
L 924.753667 1022.177331 
L 917.939364 1022.330551 
L 911.280154 1022.700751 
L 904.819134 1023.322077 
L 900.128156 1023.974898 
L 895.58783 1024.805339 
L 891.212909 1025.828778 
L 887.016522 1027.059732 
L 883.009883 1028.51136 
L 879.202018 1030.195011 
L 875.599516 1032.119812 
L 872.206309 1034.292311 
L 869.023494 1036.716184 
L 866.049211 1039.39202 
L 863.27857 1042.317175 
L 860.703649 1045.485712 
L 858.313549 1048.888413 
L 856.094529 1052.512875 
L 854.030195 1056.34367 
L 852.101766 1060.362571 
L 849.705645 1065.977539 
L 847.459944 1071.834723 
L 844.247142 1080.941351 
L 838.818722 1096.430226 
L 836.45963 1102.541154 
L 833.920492 1108.507305 
L 831.87411 1112.850688 
L 829.690702 1117.055146 
L 827.359486 1121.09862 
L 824.872519 1124.960825 
L 822.224701 1128.623383 
L 819.413707 1132.069926 
L 816.439851 1135.286179 
L 813.305883 1138.260017 
L 810.016738 1140.981507 
L 806.579232 1143.442931 
L 803.001729 1145.638797 
L 799.293789 1147.565832 
L 795.465803 1149.222967 
L 791.528634 1150.611297 
L 787.493269 1151.73404 
L 783.370499 1152.596463 
L 779.170641 1153.2058 
L 774.903286 1153.571143 
L 770.577117 1153.703307 
L 766.199765 1153.614678 
L 761.777726 1153.319021 
L 757.31634 1152.83127 
L 751.313741 1151.909637 
L 745.255683 1150.714062 
L 739.14656 1149.284672 
L 731.441919 1147.229351 
L 722.099675 1144.4644 
L 709.490365 1140.444704 
L 691.945338 1134.573123 
L 677.577834 1129.538765 
L 668.118897 1126.001932 
L 660.387627 1122.877912 
L 654.345448 1120.221061 
L 648.466162 1117.38867 
L 642.783762 1114.347584 
L 638.671638 1111.910608 
L 634.703514 1109.325988 
L 630.893145 1106.582759 
L 627.253792 1103.671665 
L 623.798124 1100.585465 
L 620.538132 1097.319184 
L 617.485073 1093.870321 
L 614.649431 1090.238989 
L 612.040902 1086.428003 
L 609.668389 1082.4429 
L 607.540014 1078.291914 
L 605.663134 1073.985882 
L 604.044363 1069.538113 
L 602.689592 1064.96421 
L 601.603998 1060.281852 
L 600.792049 1055.510556 
L 600.257491 1050.671407 
L 600.003325 1045.786784 
L 600.031767 1040.880077 
L 600.34419 1035.975395 
L 600.941053 1031.097299 
L 601.821823 1026.270522 
L 602.984883 1021.519724 
L 604.427443 1016.869246 
L 606.14545 1012.342897 
L 608.133504 1007.963748 
L 610.384797 1003.753952 
L 612.891057 999.734572 
L 615.642531 995.925435 
L 618.627981 992.344985 
L 621.834731 989.010159 
L 625.248728 985.936263 
L 627.632349 984.03873 
L 630.096476 982.266793 
L 632.636092 980.623632 
L 635.246003 979.112033 
L 637.920877 977.734369 
L 642.043053 975.923154 
L 646.280442 974.422314 
L 650.614243 973.23427 
L 655.025816 972.359054 
L 659.496976 971.794222 
L 664.010279 971.534806 
L 668.549305 971.573267 
L 673.098917 971.899481 
L 677.645495 972.500756 
L 682.177137 973.361878 
L 686.683815 974.465189 
L 691.157491 975.790715 
L 695.592176 977.316321 
L 699.983945 979.017911 
L 705.769864 981.515616 
L 711.477059 984.21506 
L 719.904987 988.492506 
L 736.443566 997.002776 
L 741.922389 999.57803 
L 747.411716 1001.919508 
L 751.544005 1003.489782 
L 755.694596 1004.878319 
L 759.866753 1006.067465 
L 764.06223 1007.042037 
L 768.281135 1007.789373 
L 772.521823 1008.299324 
L 776.780846 1008.56419 
L 781.052949 1008.578604 
L 785.331109 1008.339382 
L 789.606617 1007.845316 
L 793.869206 1007.096951 
L 798.107209 1006.096335 
L 802.307761 1004.846754 
L 806.457016 1003.352473 
L 810.540399 1001.618472 
L 814.542867 999.65021 
L 818.449186 997.453403 
L 822.244213 995.033838 
L 825.913181 992.397226 
L 829.441975 989.549089 
L 832.81741 986.4947 
L 836.027482 983.239063 
L 839.061617 979.786941 
L 841.910895 976.142926 
L 844.568246 972.311547 
L 847.028637 968.297413 
L 849.289216 964.105388 
L 851.349437 959.740775 
L 853.211151 955.209518 
L 854.878665 950.518405 
L 856.358771 945.675262 
L 857.660733 940.689127 
L 858.796244 935.570403 
L 860.075933 928.559954 
L 861.124335 921.367605 
L 862.179885 912.178984 
L 863.207922 900.974025 
L 865.042757 880.458041 
L 865.895017 873.182147 
L 866.942082 866.091023 
L 867.889768 860.925664 
L 869.00187 855.914885 
L 870.299299 851.078338 
L 871.801013 846.434009 
L 873.523768 841.997953 
L 875.48191 837.784065 
L 876.924031 835.104037 
L 878.47888 832.530748 
L 880.148733 830.066506 
L 881.935319 827.71311 
L 883.839809 825.471845 
L 885.862825 823.343481 
L 888.004442 821.328284 
L 890.264201 819.426025 
L 892.64112 817.635994 
L 895.133721 815.957019 
L 897.740041 814.387489 
L 901.857344 812.233871 
L 906.215068 810.31344 
L 910.801384 808.616065 
L 915.602811 807.130163 
L 920.604502 805.842965 
L 925.790522 804.740787 
L 931.144151 803.809293 
L 936.648163 803.033748 
L 944.190607 802.216536 
L 951.928189 801.615009 
L 961.813615 801.114484 
L 971.867284 800.834336 
L 984.058937 800.706968 
L 1002.39851 800.756758 
L 1032.46304 800.852902 
L 1046.070938 800.662797 
L 1057.450138 800.279828 
L 1066.705718 799.761384 
L 1075.735466 799.026872 
L 1082.7853 798.26244 
L 1089.671817 797.32413 
L 1096.387798 796.197568 
L 1102.92702 794.869661 
L 1109.284549 793.32888 
L 1115.457062 791.565548 
L 1121.443166 789.572099 
L 1127.243689 787.343311 
L 1132.861927 784.876519 
L 1138.303803 782.171798 
L 1143.577943 779.232122 
L 1148.695638 776.063511 
L 1153.670696 772.675171 
L 1158.51918 769.079637 
L 1163.259032 765.292917 
L 1169.060659 760.32096 
L 1174.76237 755.128056 
L 1182.652218 747.596449 
L 1198.466455 732.365312 
L 1204.213318 727.162959 
L 1208.865045 723.20281 
L 1213.566554 719.482663 
L 1218.315003 716.0597 
L 1221.90313 713.721885 
L 1225.509433 711.607005 
L 1229.128256 709.737924 
L 1232.752752 708.136395 
L 1236.374936 706.82271 
L 1239.985765 705.815353 
L 1243.575211 705.130662 
L 1245.950939 704.86042 
L 1248.308891 704.743249 
L 1250.645487 704.782006 
L 1252.957016 704.978941 
L 1255.239651 705.335662 
L 1257.489462 705.853117 
L 1259.702431 706.531573 
L 1261.874471 707.370605 
L 1264.001433 708.369091 
L 1266.079131 709.525205 
L 1268.103351 710.836425 
L 1270.069871 712.299543 
L 1271.974475 713.910682 
L 1273.81297 715.665315 
L 1276.437696 718.554897 
L 1278.890606 721.735816 
L 1281.158388 725.185595 
L 1283.228301 728.879442 
L 1285.088324 732.790648 
L 1286.727307 736.89102 
L 1288.135118 741.151347 
L 1289.302799 745.541885 
L 1290.222716 750.032844 
L 1290.888698 754.594884 
L 1291.296173 759.199592 
L 1291.44229 763.819942 
L 1291.326019 768.430722 
L 1290.94823 773.00893 
L 1290.311753 777.534116 
L 1289.421398 781.988677 
L 1288.283953 786.35809 
L 1286.908146 790.631086 
L 1285.304571 794.799757 
L 1283.485583 798.859598 
L 1281.465162 802.809479 
L 1279.25874 806.651557 
L 1276.883016 810.391118 
L 1274.355733 814.036371 
L 1270.782431 818.769123 
L 1267.018224 823.38586 
L 1262.114962 829.051862 
L 1244.929069 848.546392 
L 1241.001535 853.429345 
L 1237.192301 858.501398 
L 1233.531646 863.788047 
L 1230.047409 869.306424 
L 1227.565664 873.602356 
L 1225.208226 878.032891 
L 1222.985315 882.594452 
L 1220.907084 887.280214 
L 1218.983764 892.080164 
L 1217.225791 896.981211 
L 1215.643914 901.967372 
L 1214.249249 907.020013 
L 1213.053304 912.118157 
L 1212.06796 917.23883 
L 1211.305392 922.357475 
L 1210.777955 927.448394 
L 1210.498019 932.485223 
L 1210.477754 937.441441 
L 1210.728893 942.290885 
L 1211.26245 947.008271 
L 1212.088423 951.569718 
L 1212.805874 954.513099 
L 1213.659355 957.371408 
L 1214.650679 960.139224 
L 1215.781259 962.81171 
L 1217.052064 965.38466 
L 1218.463589 967.854543 
L 1220.015825 970.218544 
L 1221.708226 972.474594 
L 1223.539693 974.621398 
L 1225.508549 976.658451 
L 1227.612529 978.586057 
L 1229.84877 980.405324 
L 1232.21381 982.118168 
L 1234.703589 983.7273 
L 1238.661813 985.954372 
L 1242.872003 987.971017 
L 1247.313305 989.795673 
L 1251.962322 991.449971 
L 1256.793369 992.958329 
L 1263.469864 994.788944 
L 1272.094159 996.883625 
L 1293.22212 1001.83237 
L 1300.13461 1003.700032 
L 1306.859771 1005.779674 
L 1311.73945 1007.508993 
L 1316.448174 1009.40338 
L 1320.960595 1011.476865 
L 1325.253243 1013.739868 
L 1329.304647 1016.199121 
L 1333.095423 1018.857667 
L 1336.608345 1021.71496 
L 1338.788416 1023.728414 
L 1340.834364 1025.826541 
L 1342.742728 1028.006791 
L 1344.510488 1030.26608 
L 1346.135066 1032.60084 
L 1347.614334 1035.007075 
L 1348.946603 1037.48042 
L 1350.130637 1040.016207 
L 1351.165642 1042.609522 
L 1352.051276 1045.255277 
L 1352.787647 1047.948269 
L 1353.375317 1050.683249 
L 1353.815304 1053.454979 
L 1354.201736 1057.670221 
L 1354.266251 1061.939739 
L 1354.018149 1066.247749 
L 1353.469107 1070.579837 
L 1352.633184 1074.923227 
L 1351.52681 1079.266974 
L 1350.168758 1083.602084 
L 1348.580085 1087.921547 
L 1346.784047 1092.220297 
L 1344.110829 1097.914387 
L 1341.179496 1103.562825 
L 1337.260164 1110.560685 
L 1323.038568 1135.289505 
L 1320.336918 1140.696726 
L 1318.521408 1144.724782 
L 1316.917331 1148.723211 
L 1315.54997 1152.684596 
L 1314.442013 1156.599869 
L 1313.613279 1160.458461 
L 1313.080491 1164.24852 
L 1312.857093 1167.957197 
L 1312.953125 1171.570995 
L 1313.197992 1173.920684 
L 1313.588897 1176.218027 
L 1314.126237 1178.459054 
L 1314.809727 1180.639937 
L 1315.638424 1182.757049 
L 1316.610736 1184.807015 
L 1317.724451 1186.786769 
L 1318.976763 1188.693592 
L 1320.364301 1190.525167 
L 1321.883165 1192.279606 
L 1324.397968 1194.763659 
L 1327.181594 1197.068361 
L 1330.215419 1199.19359 
L 1333.479224 1201.14184 
L 1336.951561 1202.918162 
L 1340.610132 1204.530006 
L 1344.432165 1205.986989 
L 1348.394787 1207.300572 
L 1353.85799 1208.85145 
L 1359.479277 1210.203775 
L 1366.654802 1211.667548 
L 1375.374034 1213.177066 
L 1386.995285 1214.924791 
L 1404.081648 1217.241531 
L 1416.549502 1218.753339 
L 1426.111292 1219.697632 
L 1434.291084 1220.266469 
L 1441.148545 1220.530027 
L 1448.082972 1220.582201 
L 1455.123735 1220.421224 
L 1463.735987 1219.973422 
L 1474.002407 1219.193962 
L 1493.385172 1217.658049 
L 1500.749699 1217.310098 
L 1506.506143 1217.23215 
L 1512.080367 1217.383997 
L 1516.105063 1217.674797 
L 1519.967215 1218.135209 
L 1523.64109 1218.779055 
L 1527.101758 1219.617756 
L 1530.325628 1220.660197 
L 1533.290975 1221.912685 
L 1535.978419 1223.378966 
L 1537.607334 1224.475997 
L 1539.10114 1225.668479 
L 1540.456348 1226.955797 
L 1541.670166 1228.336938 
L 1542.740526 1229.810533 
L 1543.6661 1231.37489 
L 1544.446311 1233.028031 
L 1545.081334 1234.767735 
L 1545.572084 1236.591573 
L 1545.920205 1238.496948 
L 1546.180267 1241.501891 
L 1546.135525 1244.674519 
L 1545.799711 1248.004934 
L 1545.1892 1251.483119 
L 1544.322547 1255.099058 
L 1543.219966 1258.842802 
L 1541.4198 1264.016208 
L 1539.289944 1269.375903 
L 1536.2416 1276.301275 
L 1532.850631 1283.431875 
L 1528.440644 1292.183594 
L 1522.954008 1302.525715 
L 1518.026486 1311.355632 
L 1513.775439 1318.573128 
L 1509.38213 1325.555722 
L 1505.749177 1330.899669 
L 1501.993445 1335.965642 
L 1499.085154 1339.547603 
L 1496.089842 1342.916307 
L 1493.000177 1346.048654 
L 1489.809595 1348.923029 
L 1486.512609 1351.519804 
L 1483.105076 1353.821824 
L 1479.584399 1355.814877 
L 1477.1739 1356.966422 
L 1474.712832 1357.973441 
L 1472.201707 1358.834406 
L 1469.641382 1359.548605 
L 1467.033053 1360.116166 
L 1464.378236 1360.538082 
L 1460.312917 1360.9022 
L 1456.15449 1360.953048 
L 1451.911492 1360.705058 
L 1447.593439 1360.176939 
L 1443.210564 1359.391454 
L 1438.773539 1358.375106 
L 1434.293192 1357.157738 
L 1428.270476 1355.278784 
L 1420.69723 1352.637808 
L 1398.042887 1344.444374 
L 1392.08017 1342.605164 
L 1387.637056 1341.415075 
L 1383.218506 1340.417108 
L 1378.823014 1339.634015 
L 1374.448 1339.084362 
L 1370.089954 1338.782245 
L 1365.744608 1338.737091 
L 1361.407128 1338.95354 
L 1357.072318 1339.43141 
L 1352.734849 1340.165752 
L 1348.389481 1341.146978 
L 1344.031308 1342.361063 
L 1339.655995 1343.789824 
L 1333.78963 1345.990235 
L 1327.881248 1348.471312 
L 1320.435278 1351.859393 
L 1296.348624 1363.081116 
L 1290.367715 1365.542162 
L 1284.464516 1367.705469 
L 1280.112143 1369.089587 
L 1275.844553 1370.239021 
L 1271.681289 1371.129412 
L 1267.642559 1371.739424 
L 1263.748861 1372.05094 
L 1260.020567 1372.049206 
L 1258.818007 1371.976963 
L 1258.818007 1371.976963 
" clip-path="url(#p25004c64f8)" style="fill: none; stroke: #4169e1; stroke-width: 3; stroke-linecap: square"/>
   </g>
   <g id="line2d_2">
    <path d="M 1230.680165 1436.659102 
L 1228.795166 1436.259963 
L 1226.986814 1435.679834 
L 1225.259264 1434.917358 
L 1223.616356 1433.972 
L 1222.061577 1432.844029 
L 1220.598008 1431.534501 
L 1219.228289 1430.045228 
L 1217.954576 1428.378753 
L 1216.778507 1426.538312 
L 1215.701171 1424.527804 
L 1214.723081 1422.351746 
L 1213.844154 1420.015233 
L 1212.709995 1416.222057 
L 1211.792241 1412.101636 
L 1211.082711 1407.677076 
L 1210.570077 1402.973216 
L 1210.239967 1398.016259 
L 1210.053538 1391.060397 
L 1210.112511 1383.76916 
L 1210.446579 1374.285266 
L 1211.295394 1358.558699 
L 1211.9916 1344.58152 
L 1212.254095 1334.653494 
L 1212.229074 1326.821973 
L 1211.933855 1319.139507 
L 1211.505076 1313.50111 
L 1210.87834 1307.986958 
L 1210.038414 1302.612447 
L 1208.972993 1297.391986 
L 1207.672827 1292.339118 
L 1206.131805 1287.466637 
L 1204.346978 1282.786727 
L 1202.318541 1278.311082 
L 1200.049765 1274.05102 
L 1197.546881 1270.01759 
L 1194.818924 1266.22165 
L 1191.877536 1262.673926 
L 1188.736728 1259.385043 
L 1185.412614 1256.365524 
L 1181.923109 1253.625757 
L 1178.287608 1251.17593 
L 1174.526638 1249.025929 
L 1170.661495 1247.185206 
L 1166.713876 1245.662616 
L 1162.705497 1244.46622 
L 1160.010066 1243.853374 
L 1157.303308 1243.390454 
L 1154.591203 1243.07897 
L 1151.879496 1242.920117 
L 1149.173656 1242.914738 
L 1146.478835 1243.063288 
L 1143.799833 1243.3658 
L 1141.141064 1243.821845 
L 1138.506525 1244.430504 
L 1135.899772 1245.19033 
L 1133.323897 1246.099319 
L 1129.52357 1247.736656 
L 1125.805245 1249.692311 
L 1122.173171 1251.951721 
L 1118.629122 1254.496983 
L 1115.172485 1257.306819 
L 1111.800417 1260.356594 
L 1108.508057 1263.618401 
L 1104.230593 1268.24328 
L 1100.063444 1273.108276 
L 1093.970045 1280.659231 
L 1084.03995 1293.105837 
L 1080.087698 1297.741386 
L 1076.125823 1302.0317 
L 1073.144452 1304.966462 
L 1070.154622 1307.617656 
L 1067.15901 1309.951458 
L 1064.162741 1311.937403 
L 1061.173353 1313.54879 
L 1059.189022 1314.403624 
L 1057.215532 1315.076231 
L 1055.256722 1315.561875 
L 1053.316788 1315.85673 
L 1051.400233 1315.957885 
L 1049.511831 1315.863351 
L 1047.656569 1315.572053 
L 1045.839599 1315.083815 
L 1044.066184 1314.399341 
L 1042.341636 1313.520186 
L 1040.671267 1312.448721 
L 1039.060323 1311.188091 
L 1037.513936 1309.742165 
L 1036.037061 1308.115489 
L 1034.634429 1306.313224 
L 1033.310493 1304.341085 
L 1032.069384 1302.20528 
L 1030.914864 1299.912438 
L 1029.35267 1296.194094 
L 1028.002215 1292.162913 
L 1026.870533 1287.844523 
L 1025.962098 1283.264957 
L 1025.278735 1278.450149 
L 1024.81961 1273.42548 
L 1024.581268 1268.215348 
L 1024.557734 1262.842803 
L 1024.740661 1257.329233 
L 1025.119518 1251.69412 
L 1025.681819 1245.954868 
L 1026.69217 1238.166528 
L 1027.965753 1230.249843 
L 1029.461682 1222.228074 
L 1031.578423 1212.078677 
L 1034.847175 1197.678769 
L 1041.586778 1168.323609 
L 1043.797713 1157.694719 
L 1045.791246 1147.020563 
L 1047.187021 1138.471547 
L 1048.373725 1129.939424 
L 1049.324268 1121.453735 
L 1050.013996 1113.049468 
L 1050.420725 1104.766475 
L 1050.528137 1098.660045 
L 1050.457942 1092.665938 
L 1050.203687 1086.804187 
L 1049.759819 1081.09493 
L 1049.121714 1075.557997 
L 1048.285712 1070.212476 
L 1047.249139 1065.076289 
L 1046.010334 1060.16577 
L 1044.568658 1055.495291 
L 1042.924498 1051.076909 
L 1041.079267 1046.920089 
L 1039.035379 1043.031471 
L 1036.796231 1039.41473 
L 1034.366161 1036.070501 
L 1031.75041 1032.996397 
L 1028.955069 1030.187111 
L 1025.987028 1027.634605 
L 1022.853922 1025.328381 
L 1019.564078 1023.255823 
L 1016.126469 1021.402614 
L 1012.550664 1019.753205 
L 1008.846796 1018.291329 
L 1005.025532 1017.00054 
L 1001.098047 1015.864774 
L 995.716413 1014.565593 
L 990.195759 1013.483611 
L 984.5666 1012.593751 
L 977.426429 1011.726806 
L 970.23231 1011.122373 
L 964.484089 1010.835472 
L 958.781181 1010.74185 
L 953.160126 1010.868311 
L 947.657386 1011.249403 
L 943.629498 1011.726496 
L 939.702794 1012.38803 
L 935.891083 1013.253126 
L 932.207236 1014.340877 
L 928.662948 1015.669732 
L 925.268501 1017.256884 
L 922.032526 1019.117686 
L 919.966674 1020.516768 
L 917.975806 1022.046451 
L 916.060992 1023.709271 
L 914.222853 1025.50709 
L 912.461538 1027.441059 
L 909.962756 1030.597971 
L 907.632791 1034.060061 
L 905.465965 1037.821435 
L 903.454134 1041.872192 
L 901.58678 1046.198499 
L 899.851147 1050.782768 
L 898.232441 1055.603899 
L 896.227167 1062.358142 
L 894.356798 1069.42485 
L 891.701683 1080.451476 
L 886.33764 1103.061282 
L 883.851335 1112.291008 
L 881.680195 1119.441645 
L 879.315452 1126.308413 
L 877.401409 1131.233179 
L 875.359487 1135.937167 
L 873.185499 1140.397993 
L 870.877535 1144.595724 
L 868.435853 1148.512973 
L 865.862712 1152.13497 
L 863.162162 1155.44962 
L 860.339801 1158.447521 
L 857.402495 1161.121984 
L 854.358094 1163.469025 
L 851.21513 1165.487338 
L 847.982521 1167.178261 
L 844.669288 1168.54571 
L 841.284292 1169.596102 
L 837.836002 1170.338246 
L 834.332294 1170.783216 
L 830.780297 1170.944187 
L 827.186276 1170.83624 
L 823.555565 1170.476144 
L 819.892548 1169.882085 
L 816.200681 1169.073383 
L 812.482558 1168.070158 
L 807.487299 1166.465505 
L 802.451264 1164.600389 
L 796.101037 1161.974575 
L 788.402553 1158.50284 
L 778.017279 1153.523972 
L 764.905931 1146.977039 
L 754.42332 1141.512886 
L 746.657068 1137.205187 
L 740.309316 1133.400274 
L 735.34839 1130.164352 
L 730.521208 1126.714631 
L 727.005374 1123.962697 
L 723.592272 1121.051247 
L 720.293565 1117.964814 
L 717.120659 1114.689444 
L 714.084586 1111.213125 
L 711.195919 1107.526181 
L 708.464694 1103.621602 
L 705.900361 1099.495316 
L 703.51174 1095.146384 
L 701.307008 1090.577129 
L 699.293693 1085.793193 
L 697.478674 1080.803516 
L 695.8682 1075.620256 
L 694.467903 1070.258643 
L 693.282816 1064.736775 
L 692.317385 1059.075373 
L 691.575471 1053.297495 
L 691.060351 1047.428224 
L 690.774695 1041.494329 
L 690.720542 1035.523924 
L 690.899256 1029.546122 
L 691.31147 1023.590689 
L 691.957027 1017.687714 
L 692.834904 1011.867295 
L 693.943139 1006.159239 
L 695.278758 1000.592789 
L 696.837704 995.196369 
L 698.614777 989.997356 
L 700.603589 985.021869 
L 702.796538 980.294578 
L 705.184803 975.838525 
L 707.758364 971.674968 
L 710.506051 967.823228 
L 713.415625 964.300542 
L 715.438794 962.142404 
L 717.523943 960.14111 
L 719.666809 958.300051 
L 721.863011 956.622121 
L 724.108078 955.109695 
L 726.397474 953.764619 
L 728.726625 952.588189 
L 731.090955 951.581141 
L 733.485913 950.743633 
L 735.907006 950.075234 
L 738.349831 949.574914 
L 740.810103 949.241034 
L 743.283691 949.071339 
L 745.766644 949.062953 
L 748.25522 949.212378 
L 750.745909 949.515495 
L 754.478873 950.247821 
L 758.199574 951.296628 
L 761.899778 952.64041 
L 765.572885 954.25484 
L 769.213979 956.112957 
L 772.819837 958.185415 
L 777.57036 961.227505 
L 782.256248 964.515304 
L 788.030784 968.843583 
L 802.754976 980.090154 
L 807.253359 983.226694 
L 811.760366 986.078506 
L 815.153177 987.991028 
L 818.561017 989.682202 
L 821.986562 991.130527 
L 825.431255 992.317511 
L 828.895183 993.227732 
L 832.376996 993.848829 
L 835.873863 994.171423 
L 839.381469 994.188979 
L 842.894049 993.897618 
L 846.404451 993.295868 
L 849.904245 992.384394 
L 853.383854 991.165689 
L 856.832713 989.643758 
L 860.239456 987.823792 
L 863.592114 985.711859 
L 866.878336 983.314606 
L 870.085616 980.638996 
L 873.201519 977.692077 
L 876.213922 974.480805 
L 879.111236 971.011905 
L 881.882633 967.2918 
L 884.51826 963.326584 
L 887.009434 959.122059 
L 889.34883 954.683816 
L 891.530647 950.017372 
L 893.550749 945.128343 
L 895.406795 940.022649 
L 897.098337 934.706751 
L 898.626895 929.187888 
L 899.996007 923.474329 
L 901.211247 917.575604 
L 902.280221 911.502721 
L 903.494871 903.156789 
L 904.494836 894.559049 
L 905.313834 885.750613 
L 906.142636 874.516239 
L 907.222826 856.276741 
L 908.341225 838.144031 
L 909.239016 827.09951 
L 910.146149 818.529239 
L 911.271398 810.263461 
L 912.284117 804.299493 
L 913.459567 798.562581 
L 914.812128 793.073098 
L 916.354257 787.848872 
L 918.096335 782.904942 
L 920.046555 778.253374 
L 922.210848 773.903133 
L 923.774528 771.173375 
L 925.435523 768.581126 
L 927.193896 766.126709 
L 929.049268 763.809845 
L 931.000836 761.629669 
L 933.047384 759.584755 
L 935.1873 757.67314 
L 937.418603 755.892359 
L 939.73896 754.23948 
L 942.145714 752.711136 
L 945.911304 750.643811 
L 949.853512 748.834051 
L 953.960145 747.266303 
L 958.218123 745.923901 
L 962.613715 744.789384 
L 967.132779 743.844807 
L 971.760984 743.072027 
L 978.077 742.277681 
L 984.528403 741.714667 
L 992.734697 741.275003 
L 1001.045064 741.060197 
L 1012.75668 741.009941 
L 1050.622967 741.124035 
L 1060.114154 740.833042 
L 1067.851123 740.383527 
L 1075.414481 739.702603 
L 1081.330283 738.964616 
L 1087.118542 738.033572 
L 1092.772711 736.890754 
L 1098.286862 735.518654 
L 1103.655884 733.901324 
L 1107.584926 732.518866 
L 1111.428795 730.985417 
L 1115.186739 729.29666 
L 1118.858548 727.449137 
L 1122.444607 725.440321 
L 1125.945943 723.268667 
L 1129.36426 720.933669 
L 1132.701959 718.435912 
L 1135.962146 715.777111 
L 1140.195151 711.9867 
L 1144.308028 707.925493 
L 1148.313525 703.607726 
L 1152.226023 699.051823 
L 1156.061162 694.280588 
L 1160.771421 688.055921 
L 1166.344221 680.290242 
L 1184.922405 653.937485 
L 1189.677529 647.795516 
L 1193.527568 643.184969 
L 1197.417046 638.91892 
L 1200.357243 635.987422 
L 1203.313686 633.317938 
L 1206.282069 630.938674 
L 1209.257088 628.876621 
L 1212.232495 627.157134 
L 1215.201147 625.803507 
L 1217.172591 625.114737 
L 1219.134954 624.603354 
L 1221.085542 624.274212 
L 1223.021537 624.131503 
L 1224.939997 624.178707 
L 1226.837876 624.418565 
L 1228.712031 624.853035 
L 1230.559236 625.483271 
L 1232.376193 626.309599 
L 1234.159544 627.331502 
L 1235.905884 628.547612 
L 1237.611776 629.955705 
L 1239.27376 631.552711 
L 1240.88837 633.334722 
L 1242.452143 635.297015 
L 1244.694965 638.566216 
L 1246.804209 642.206721 
L 1248.768696 646.193277 
L 1250.577638 650.497518 
L 1252.220759 655.088414 
L 1253.688413 659.932769 
L 1254.971709 664.99577 
L 1256.062638 670.241557 
L 1256.954193 675.633816 
L 1257.640492 681.136382 
L 1258.116896 686.713832 
L 1258.380112 692.332063 
L 1258.428288 697.958839 
L 1258.261093 703.564301 
L 1257.879773 709.121424 
L 1257.287192 714.606422 
L 1256.487844 719.999077 
L 1255.487837 725.283002 
L 1254.294856 730.445826 
L 1252.918091 735.479297 
L 1251.368147 740.379307 
L 1249.656914 745.145829 
L 1247.797428 749.782785 
L 1245.111845 755.777586 
L 1242.223051 761.58361 
L 1239.168088 767.237822 
L 1235.173452 774.160625 
L 1226.876101 787.907716 
L 1221.886911 796.377744 
L 1217.819928 803.717345 
L 1214.66566 809.834015 
L 1211.627371 816.205191 
L 1208.72838 822.85441 
L 1205.990329 829.794122 
L 1203.4337 837.024832 
L 1201.07837 844.534642 
L 1198.944167 852.299242 
L 1197.051344 860.282335 
L 1195.802752 866.384911 
L 1194.710984 872.560237 
L 1193.785595 878.781902 
L 1193.036429 885.021227 
L 1192.473544 891.247775 
L 1192.107105 897.42991 
L 1191.947234 903.53539 
L 1192.003828 909.531987 
L 1192.28635 915.388123 
L 1192.803592 921.073504 
L 1193.56343 926.559745 
L 1194.572566 931.820971 
L 1195.836273 936.834378 
L 1197.358147 941.580743 
L 1198.517079 944.588948 
L 1199.79154 947.468192 
L 1201.181085 950.215957 
L 1202.68481 952.830665 
L 1204.301337 955.311702 
L 1206.028808 957.659437 
L 1207.864872 959.875221 
L 1209.806685 961.961386 
L 1211.850916 963.921235 
L 1213.993745 965.759014 
L 1217.383353 968.298335 
L 1220.968664 970.595882 
L 1224.731142 972.676755 
L 1228.6503 974.569624 
L 1232.703934 976.306181 
L 1238.27692 978.437649 
L 1246.875568 981.415384 
L 1258.461482 985.435868 
L 1264.166276 987.656842 
L 1268.356655 989.477206 
L 1272.444421 991.46098 
L 1276.406492 993.632064 
L 1280.221099 996.010365 
L 1283.867932 998.611527 
L 1287.328258 1001.446747 
L 1290.585012 1004.522721 
L 1293.622864 1007.841681 
L 1295.519724 1010.188456 
L 1297.309668 1012.64075 
L 1298.989493 1015.196172 
L 1300.556353 1017.851616 
L 1302.689513 1022.013944 
L 1304.55618 1026.37764 
L 1306.151377 1030.925158 
L 1307.471979 1035.63707 
L 1308.516725 1040.492656 
L 1309.28623 1045.470498 
L 1309.783 1050.549073 
L 1310.011448 1055.707302 
L 1309.977916 1060.925067 
L 1309.690688 1066.183658 
L 1309.160004 1071.466152 
L 1308.398058 1076.757712 
L 1307.418984 1082.045788 
L 1306.238828 1087.32023 
L 1304.875489 1092.573299 
L 1302.807002 1099.535116 
L 1300.499211 1106.442605 
L 1297.363392 1114.999002 
L 1292.71677 1126.845127 
L 1286.806757 1141.890001 
L 1283.801672 1150.167642 
L 1281.645282 1156.741637 
L 1279.770832 1163.259883 
L 1278.581196 1168.100837 
L 1277.598585 1172.889525 
L 1276.840081 1177.613657 
L 1276.320279 1182.259285 
L 1276.051128 1186.81112 
L 1276.041812 1191.252935 
L 1276.298674 1195.568021 
L 1276.825191 1199.739683 
L 1277.621988 1203.751762 
L 1278.686909 1207.589155 
L 1280.01512 1211.23832 
L 1281.599259 1214.687743 
L 1283.429628 1217.928342 
L 1285.494404 1220.953805 
L 1287.779898 1223.760826 
L 1290.270817 1226.349257 
L 1292.950561 1228.722136 
L 1295.801521 1230.885614 
L 1298.805387 1232.848767 
L 1301.943464 1234.623305 
L 1305.196971 1236.223188 
L 1308.54735 1237.664162 
L 1313.134106 1239.367762 
L 1317.820516 1240.861081 
L 1323.762559 1242.495157 
L 1330.93501 1244.211964 
L 1341.614274 1246.489048 
L 1354.355507 1248.977946 
L 1363.404657 1250.531973 
L 1370.124501 1251.458727 
L 1375.722048 1252.015054 
L 1381.352359 1252.336055 
L 1387.045865 1252.3996 
L 1392.826677 1252.203539 
L 1398.708837 1251.769708 
L 1405.901112 1251.003837 
L 1425.459173 1248.731299 
L 1430.287833 1248.41433 
L 1435.014156 1248.319393 
L 1438.46341 1248.428882 
L 1441.807625 1248.718414 
L 1445.025494 1249.208307 
L 1448.09577 1249.916316 
L 1450.997715 1250.857349 
L 1453.711544 1252.043271 
L 1456.218864 1253.482808 
L 1457.767402 1254.586286 
L 1459.212342 1255.805932 
L 1460.549761 1257.142065 
L 1461.776249 1258.594454 
L 1462.888942 1260.162347 
L 1463.885546 1261.844513 
L 1464.764363 1263.639284 
L 1465.524305 1265.544599 
L 1466.440457 1268.604489 
L 1467.089212 1271.898279 
L 1467.474614 1275.415474 
L 1467.603613 1279.144757 
L 1467.485849 1283.074281 
L 1467.133359 1287.191923 
L 1466.560228 1291.48547 
L 1465.782196 1295.942746 
L 1464.455498 1302.119594 
L 1462.836803 1308.537579 
L 1460.467401 1316.855537 
L 1457.787204 1325.447725 
L 1454.258996 1336.031815 
L 1449.831422 1348.599042 
L 1445.157984 1361.176026 
L 1440.982605 1371.748039 
L 1437.375483 1380.252517 
L 1434.39265 1386.761198 
L 1431.30901 1392.93132 
L 1428.92116 1397.293984 
L 1426.461862 1401.39691 
L 1423.925095 1405.211965 
L 1421.305471 1408.712822 
L 1418.598483 1411.875574 
L 1415.800732 1414.679328 
L 1413.88403 1416.340343 
L 1411.925719 1417.829888 
L 1409.925786 1419.144697 
L 1407.884509 1420.282428 
L 1405.802449 1421.241712 
L 1403.68045 1422.022189 
L 1401.519627 1422.624541 
L 1399.321355 1423.050507 
L 1397.08725 1423.302901 
L 1394.819148 1423.385606 
L 1392.519084 1423.303572 
L 1390.189267 1423.06279 
L 1386.643934 1422.419566 
L 1383.045379 1421.462881 
L 1379.402363 1420.225015 
L 1375.723779 1418.742318 
L 1370.778833 1416.453838 
L 1365.806156 1413.903277 
L 1357.090354 1409.135387 
L 1349.654737 1405.120568 
L 1344.733254 1402.669053 
L 1339.846532 1400.510703 
L 1336.205319 1399.135852 
L 1332.583966 1398.004774 
L 1328.980932 1397.143526 
L 1325.393828 1396.572938 
L 1321.81955 1396.308308 
L 1318.25442 1396.359181 
L 1314.69435 1396.729252 
L 1311.135017 1397.416353 
L 1307.572048 1398.412549 
L 1304.001212 1399.70433 
L 1300.418614 1401.272885 
L 1296.820894 1403.094464 
L 1293.20542 1405.140814 
L 1288.354348 1408.162651 
L 1282.240842 1412.289177 
L 1262.464516 1425.956719 
L 1257.553896 1428.95416 
L 1253.911061 1430.969139 
L 1250.317775 1432.743024 
L 1246.788923 1434.24173 
L 1243.340304 1435.434427 
L 1239.988361 1436.293873 
L 1237.815726 1436.669979 
L 1235.69851 1436.881552 
L 1233.641662 1436.923473 
L 1231.650037 1436.791452 
L 1231.650037 1436.791452 
" clip-path="url(#p25004c64f8)" style="fill: none; stroke: #ff8c00; stroke-width: 3; stroke-linecap: square"/>
   </g>
  </g>
 </g>
 <defs>
  <clipPath id="p25004c64f8">
   <rect x="270" y="259.2" width="1674" height="1630.8"/>
  </clipPath>
 </defs>
</svg>
