<?xml version="1.0" encoding="utf-8" standalone="no"?>
<!DOCTYPE svg PUBLIC "-//W3C//DTD SVG 1.1//EN"
  "http://www.w3.org/Graphics/SVG/1.1/DTD/svg11.dtd">
<svg xmlns:xlink="http://www.w3.org/1999/xlink" width="2160pt" height="2160pt" viewBox="0 0 2160 2160" xmlns="http://www.w3.org/2000/svg" version="1.1">
 <metadata>
  <rdf:RDF xmlns:dc="http://purl.org/dc/elements/1.1/" xmlns:cc="http://creativecommons.org/ns#" xmlns:rdf="http://www.w3.org/1999/02/22-rdf-syntax-ns#">
   <cc:Work>
    <dc:type rdf:resource="http://purl.org/dc/dcmitype/StillImage"/>
    <dc:date>2022-03-09T01:03:30.992971</dc:date>
    <dc:format>image/svg+xml</dc:format>
    <dc:creator>
     <cc:Agent>
      <dc:title>Matplotlib v3.5.1, https://matplotlib.org/</dc:title>
     </cc:Agent>
    </dc:creator>
   </cc:Work>
  </rdf:RDF>
 </metadata>
 <defs>
  <style type="text/css">*{stroke-linejoin: round; stroke-linecap: butt}</style>
 </defs>
 <g id="figure_1">
  <g id="patch_1">
   <path d="M 0 2160 
L 2160 2160 
L 2160 0 
L 0 0 
L 0 2160 
z
" style="fill: none"/>
  </g>
  <g id="axes_1">
   <g id="line2d_1">
    <path d="M 1257.636748 1371.868297 
L 1255.340905 1371.540585 
L 1253.138416 1371.06427 
L 1251.034339 1370.43824 
L 1249.033353 1369.662054 
L 1247.139704 1368.735935 
L 1245.357144 1367.660749 
L 1243.68889 1366.437982 
L 1242.137566 1365.069724 
L 1240.705168 1363.558632 
L 1239.393022 1361.907906 
L 1238.201754 1360.121256 
L 1237.131261 1358.202864 
L 1236.180693 1356.157351 
L 1235.348441 1353.98974 
L 1234.316492 1350.521251 
L 1233.533973 1346.809702 
L 1232.985834 1342.875897 
L 1232.653373 1338.741655 
L 1232.514466 1334.429522 
L 1232.586292 1328.443058 
L 1232.889706 1322.236104 
L 1233.615312 1312.630981 
L 1234.774959 1297.907102 
L 1235.107597 1291.365851 
L 1235.216435 1284.888656 
L 1235.107636 1280.096815 
L 1234.804605 1275.378941 
L 1234.282372 1270.74954 
L 1233.519036 1266.22215 
L 1232.496045 1261.809412 
L 1231.198411 1257.523158 
L 1229.614869 1253.374505 
L 1227.737975 1249.373959 
L 1226.321808 1246.794168 
L 1224.77347 1244.287516 
L 1223.093595 1241.856799 
L 1221.283547 1239.504755 
L 1219.345404 1237.23408 
L 1217.281933 1235.047435 
L 1213.959407 1231.930782 
L 1210.376932 1229.017927 
L 1206.551573 1226.317592 
L 1202.502954 1223.838419 
L 1198.252898 1221.588936 
L 1193.825025 1219.577507 
L 1189.244337 1217.812251 
L 1184.536771 1216.300927 
L 1179.728752 1215.050805 
L 1174.846731 1214.068506 
L 1169.91673 1213.359819 
L 1164.963895 1212.929506 
L 1160.012071 1212.781089 
L 1155.083403 1212.91663 
L 1150.197977 1213.336505 
L 1145.373497 1214.039181 
L 1140.625029 1215.021011 
L 1135.964793 1216.27603 
L 1131.402027 1217.795797 
L 1126.942924 1219.569247 
L 1122.590641 1221.582603 
L 1118.345383 1223.81932 
L 1114.204568 1226.260082 
L 1110.163062 1228.882863 
L 1106.213481 1231.663031 
L 1101.074144 1235.567635 
L 1094.816851 1240.666389 
L 1075.42612 1256.882001 
L 1070.604637 1260.482807 
L 1066.977112 1262.963406 
L 1063.338855 1265.220985 
L 1059.692139 1267.226939 
L 1056.042211 1268.955295 
L 1052.397283 1270.383065 
L 1048.76843 1271.490548 
L 1045.169395 1272.261562 
L 1042.794486 1272.582322 
L 1040.445265 1272.745145 
L 1038.12739 1272.748021 
L 1035.846811 1272.589691 
L 1033.609712 1272.269644 
L 1031.422443 1271.788101 
L 1029.291454 1271.145991 
L 1027.223222 1270.34493 
L 1025.224187 1269.387186 
L 1023.300675 1268.275645 
L 1021.458839 1267.013768 
L 1019.704586 1265.605544 
L 1018.043514 1264.055446 
L 1016.480858 1262.368374 
L 1015.021432 1260.549606 
L 1013.669579 1258.604738 
L 1012.429127 1256.53963 
L 1011.303352 1254.36035 
L 1010.294948 1252.073111 
L 1009.006799 1248.453642 
L 1007.991656 1244.626861 
L 1007.250661 1240.61395 
L 1006.781725 1236.435515 
L 1006.579599 1232.111251 
L 1006.636022 1227.659654 
L 1006.939911 1223.097782 
L 1007.477616 1218.441077 
L 1008.233201 1213.703235 
L 1009.18876 1208.89615 
L 1010.739925 1202.396163 
L 1012.561898 1195.809896 
L 1015.139992 1187.476743 
L 1018.535188 1177.352894 
L 1027.329707 1151.551684 
L 1030.022524 1142.824844 
L 1031.989917 1135.815395 
L 1033.748066 1128.796012 
L 1035.260285 1121.785159 
L 1036.492843 1114.805937 
L 1037.21511 1109.608743 
L 1037.750817 1104.458024 
L 1038.089047 1099.368157 
L 1038.21987 1094.354478 
L 1038.134376 1089.433022 
L 1037.824705 1084.620237 
L 1037.284094 1079.932656 
L 1036.506912 1075.386562 
L 1035.4887 1070.997628 
L 1034.226202 1066.780566 
L 1032.717395 1062.748789 
L 1030.961499 1058.914096 
L 1028.958988 1055.286388 
L 1026.711581 1051.873434 
L 1024.22222 1048.680688 
L 1021.495041 1045.711166 
L 1018.535328 1042.96539 
L 1015.349464 1040.441399 
L 1011.944867 1038.134838 
L 1008.329929 1036.039105 
L 1004.51395 1034.145582 
L 1000.507072 1032.44391 
L 996.320222 1030.922334 
L 991.965057 1029.568089 
L 987.453916 1028.367816 
L 981.218978 1026.983667 
L 974.762421 1025.818343 
L 968.118647 1024.843764 
L 959.606057 1023.858575 
L 950.932502 1023.10311 
L 942.17697 1022.56356 
L 933.422181 1022.246192 
L 924.753667 1022.177331 
L 917.939364 1022.330551 
L 911.280154 1022.700751 
L 904.819134 1023.322077 
L 900.128156 1023.974898 
L 895.58783 1024.805339 
L 891.212909 1025.828778 
L 887.016522 1027.059732 
L 883.009883 1028.51136 
L 879.202018 1030.195011 
L 875.599516 1032.119812 
L 872.206309 1034.292311 
L 869.023494 1036.716184 
L 866.049211 1039.39202 
L 863.27857 1042.317175 
L 860.703649 1045.485712 
L 858.313549 1048.888413 
L 856.094529 1052.512875 
L 854.030195 1056.34367 
L 852.101766 1060.362571 
L 849.705645 1065.977539 
L 847.459944 1071.834723 
L 844.247142 1080.941351 
L 838.818722 1096.430226 
L 836.45963 1102.541154 
L 833.920492 1108.507305 
L 831.87411 1112.850688 
L 829.690702 1117.055146 
L 827.359486 1121.09862 
L 824.872519 1124.960825 
L 822.224701 1128.623383 
L 819.413707 1132.069926 
L 816.439851 1135.286179 
L 813.305883 1138.260017 
L 810.016738 1140.981507 
L 806.579232 1143.442931 
L 803.001729 1145.638797 
L 799.293789 1147.565832 
L 795.465803 1149.222967 
L 791.528634 1150.611297 
L 787.493269 1151.73404 
L 783.370499 1152.596463 
L 779.170641 1153.2058 
L 774.903286 1153.571143 
L 770.577117 1153.703307 
L 766.199765 1153.614678 
L 761.777726 1153.319021 
L 757.31634 1152.83127 
L 751.313741 1151.909637 
L 745.255683 1150.714062 
L 739.14656 1149.284672 
L 731.441919 1147.229351 
L 722.099675 1144.4644 
L 709.490365 1140.444704 
L 691.945338 1134.573123 
L 677.577834 1129.538765 
L 668.118897 1126.001932 
L 660.387627 1122.877912 
L 654.345448 1120.221061 
L 648.466162 1117.38867 
L 642.783762 1114.347584 
L 638.671638 1111.910608 
L 634.703514 1109.325988 
L 630.893145 1106.582759 
L 627.253792 1103.671665 
L 623.798124 1100.585465 
L 620.538132 1097.319184 
L 617.485073 1093.870321 
L 614.649431 1090.238989 
L 612.040902 1086.428003 
L 609.668389 1082.4429 
L 607.540014 1078.291914 
L 605.663134 1073.985882 
L 604.044363 1069.538113 
L 602.689592 1064.96421 
L 601.603998 1060.281852 
L 600.792049 1055.510556 
L 600.257491 1050.671407 
L 600.003325 1045.786784 
L 600.031767 1040.880077 
L 600.34419 1035.975395 
L 600.941053 1031.097299 
L 601.821823 1026.270522 
L 602.984883 1021.519724 
L 604.427443 1016.869246 
L 606.14545 1012.342897 
L 608.133504 1007.963748 
L 610.384797 1003.753952 
L 612.891057 999.734572 
L 615.642531 995.925435 
L 618.627981 992.344985 
L 621.834731 989.010159 
L 625.248728 985.936263 
L 627.632349 984.03873 
L 630.096476 982.266793 
L 632.636092 980.623632 
L 635.246003 979.112033 
L 637.920877 977.734369 
L 642.043053 975.923154 
L 646.280442 974.422314 
L 650.614243 973.23427 
L 655.025816 972.359054 
L 659.496976 971.794222 
L 664.010279 971.534806 
L 668.549305 971.573267 
L 673.098917 971.899481 
L 677.645495 972.500756 
L 682.177137 973.361878 
L 686.683815 974.465189 
L 691.157491 975.790715 
L 695.592176 977.316321 
L 699.983945 979.017911 
L 705.769864 981.515616 
L 711.477059 984.21506 
L 719.904987 988.492506 
L 736.443566 997.002776 
L 741.922389 999.57803 
L 747.411716 1001.919508 
L 751.544005 1003.489782 
L 755.694596 1004.878319 
L 759.866753 1006.067465 
L 764.06223 1007.042037 
L 768.281135 1007.789373 
L 772.521823 1008.299324 
L 776.780846 1008.56419 
L 781.052949 1008.578604 
L 785.331109 1008.339382 
L 789.606617 1007.845316 
L 793.869206 1007.096951 
L 798.107209 1006.096335 
L 802.307761 1004.846754 
L 806.457016 1003.352473 
L 810.540399 1001.618472 
L 814.542867 999.65021 
L 818.449186 997.453403 
L 822.244213 995.033838 
L 825.913181 992.397226 
L 829.441975 989.549089 
L 832.81741 986.4947 
L 836.027482 983.239063 
L 839.061617 979.786941 
L 841.910895 976.142926 
L 844.568246 972.311547 
L 847.028637 968.297413 
L 849.289216 964.105388 
L 851.349437 959.740775 
L 853.211151 955.209518 
L 854.878665 950.518405 
L 856.358771 945.675262 
L 857.660733 940.689127 
L 858.796244 935.570403 
L 860.075933 928.559954 
L 861.124335 921.367605 
L 862.179885 912.178984 
L 863.207922 900.974025 
L 865.042757 880.458041 
L 865.895017 873.182147 
L 866.942082 866.091023 
L 867.889768 860.925664 
L 869.00187 855.914885 
L 870.299299 851.078338 
L 871.801013 846.434009 
L 873.523768 841.997953 
L 875.48191 837.784065 
L 876.924031 835.104037 
L 878.47888 832.530748 
L 880.148733 830.066506 
L 881.935319 827.71311 
L 883.839809 825.471845 
L 885.862825 823.343481 
L 888.004442 821.328284 
L 890.264201 819.426025 
L 892.64112 817.635994 
L 895.133721 815.957019 
L 897.740041 814.387489 
L 901.857344 812.233871 
L 906.215068 810.31344 
L 910.801384 808.616065 
L 915.602811 807.130163 
L 920.604502 805.842965 
L 925.790522 804.740787 
L 931.144151 803.809293 
L 936.648163 803.033748 
L 944.190607 802.216536 
L 951.928189 801.615009 
L 961.813615 801.114484 
L 971.867284 800.834336 
L 984.058937 800.706968 
L 1002.39851 800.756758 
L 1032.46304 800.852902 
L 1046.070938 800.662797 
L 1057.450138 800.279828 
L 1066.705718 799.761384 
L 1075.735466 799.026872 
L 1082.7853 798.26244 
L 1089.671817 797.32413 
L 1096.387798 796.197568 
L 1102.92702 794.869661 
L 1109.284549 793.32888 
L 1115.457062 791.565548 
L 1121.443166 789.572099 
L 1127.243689 787.343311 
L 1132.861927 784.876519 
L 1138.303803 782.171798 
L 1143.577943 779.232122 
L 1148.695638 776.063511 
L 1153.670696 772.675171 
L 1158.51918 769.079637 
L 1163.259032 765.292917 
L 1169.060659 760.32096 
L 1174.76237 755.128056 
L 1182.652218 747.596449 
L 1198.466455 732.365312 
L 1204.213318 727.162959 
L 1208.865045 723.20281 
L 1213.566554 719.482663 
L 1218.315003 716.0597 
L 1221.90313 713.721885 
L 1225.509433 711.607005 
L 1229.128256 709.737924 
L 1232.752752 708.136395 
L 1236.374936 706.82271 
L 1239.985765 705.815353 
L 1243.575211 705.130662 
L 1245.950939 704.86042 
L 1248.308891 704.743249 
L 1250.645487 704.782006 
L 1252.957016 704.978941 
L 1255.239651 705.335662 
L 1257.489462 705.853117 
L 1259.702431 706.531573 
L 1261.874471 707.370605 
L 1264.001433 708.369091 
L 1266.079131 709.525205 
L 1268.103351 710.836425 
L 1270.069871 712.299543 
L 1271.974475 713.910682 
L 1273.81297 715.665315 
L 1276.437696 718.554897 
L 1278.890606 721.735816 
L 1281.158388 725.185595 
L 1283.228301 728.879442 
L 1285.088324 732.790648 
L 1286.727307 736.89102 
L 1288.135118 741.151347 
L 1289.302799 745.541885 
L 1290.222716 750.032844 
L 1290.888698 754.594884 
L 1291.296173 759.199592 
L 1291.44229 763.819942 
L 1291.326019 768.430722 
L 1290.94823 773.00893 
L 1290.311753 777.534116 
L 1289.421398 781.988677 
L 1288.283953 786.35809 
L 1286.908146 790.631086 
L 1285.304571 794.799757 
L 1283.485583 798.859598 
L 1281.465162 802.809479 
L 1279.25874 806.651557 
L 1276.883016 810.391118 
L 1274.355733 814.036371 
L 1270.782431 818.769123 
L 1267.018224 823.38586 
L 1262.114962 829.051862 
L 1244.929069 848.546392 
L 1241.001535 853.429345 
L 1237.192301 858.501398 
L 1233.531646 863.788047 
L 1230.047409 869.306424 
L 1227.565664 873.602356 
L 1225.208226 878.032891 
L 1222.985315 882.594452 
L 1220.907084 887.280214 
L 1218.983764 892.080164 
L 1217.225791 896.981211 
L 1215.643914 901.967372 
L 1214.249249 907.020013 
L 1213.053304 912.118157 
L 1212.06796 917.23883 
L 1211.305392 922.357475 
L 1210.777955 927.448394 
L 1210.498019 932.485223 
L 1210.477754 937.441441 
L 1210.728893 942.290885 
L 1211.26245 947.008271 
L 1212.088423 951.569718 
L 1212.805874 954.513099 
L 1213.659355 957.371408 
L 1214.650679 960.139224 
L 1215.781259 962.81171 
L 1217.052064 965.38466 
L 1218.463589 967.854543 
L 1220.015825 970.218544 
L 1221.708226 972.474594 
L 1223.539693 974.621398 
L 1225.508549 976.658451 
L 1227.612529 978.586057 
L 1229.84877 980.405324 
L 1232.21381 982.118168 
L 1234.703589 983.7273 
L 1238.661813 985.954372 
L 1242.872003 987.971017 
L 1247.313305 989.795673 
L 1251.962322 991.449971 
L 1256.793369 992.958329 
L 1263.469864 994.788944 
L 1272.094159 996.883625 
L 1293.22212 1001.83237 
L 1300.13461 1003.700032 
L 1306.859771 1005.779674 
L 1311.73945 1007.508993 
L 1316.448174 1009.40338 
L 1320.960595 1011.476865 
L 1325.253243 1013.739868 
L 1329.304647 1016.199121 
L 1333.095423 1018.857667 
L 1336.608345 1021.71496 
L 1338.788416 1023.728414 
L 1340.834364 1025.826541 
L 1342.742728 1028.006791 
L 1344.510488 1030.26608 
L 1346.135066 1032.60084 
L 1347.614334 1035.007075 
L 1348.946603 1037.48042 
L 1350.130637 1040.016207 
L 1351.165642 1042.609522 
L 1352.051276 1045.255277 
L 1352.787647 1047.948269 
L 1353.375317 1050.683249 
L 1353.815304 1053.454979 
L 1354.201736 1057.670221 
L 1354.266251 1061.939739 
L 1354.018149 1066.247749 
L 1353.469107 1070.579837 
L 1352.633184 1074.923227 
L 1351.52681 1079.266974 
L 1350.168758 1083.602084 
L 1348.580085 1087.921547 
L 1346.784047 1092.220297 
L 1344.110829 1097.914387 
L 1341.179496 1103.562825 
L 1337.260164 1110.560685 
L 1323.038568 1135.289505 
L 1320.336918 1140.696726 
L 1318.521408 1144.724782 
L 1316.917331 1148.723211 
L 1315.54997 1152.684596 
L 1314.442013 1156.599869 
L 1313.613279 1160.458461 
L 1313.080491 1164.24852 
L 1312.857093 1167.957197 
L 1312.953125 1171.570995 
L 1313.197992 1173.920684 
L 1313.588897 1176.218027 
L 1314.126237 1178.459054 
L 1314.809727 1180.639937 
L 1315.638424 1182.757049 
L 1316.610736 1184.807015 
L 1317.724451 1186.786769 
L 1318.976763 1188.693592 
L 1320.364301 1190.525167 
L 1321.883165 1192.279606 
L 1324.397968 1194.763659 
L 1327.181594 1197.068361 
L 1330.215419 1199.19359 
L 1333.479224 1201.14184 
L 1336.951561 1202.918162 
L 1340.610132 1204.530006 
L 1344.432165 1205.986989 
L 1348.394787 1207.300572 
L 1353.85799 1208.85145 
L 1359.479277 1210.203775 
L 1366.654802 1211.667548 
L 1375.374034 1213.177066 
L 1386.995285 1214.924791 
L 1404.081648 1217.241531 
L 1416.549502 1218.753339 
L 1426.111292 1219.697632 
L 1434.291084 1220.266469 
L 1441.148545 1220.530027 
L 1448.082972 1220.582201 
L 1455.123735 1220.421224 
L 1463.735987 1219.973422 
L 1474.002407 1219.193962 
L 1493.385172 1217.658049 
L 1500.749699 1217.310098 
L 1506.506143 1217.23215 
L 1512.080367 1217.383997 
L 1516.105063 1217.674797 
L 1519.967215 1218.135209 
L 1523.64109 1218.779055 
L 1527.101758 1219.617756 
L 1530.325628 1220.660197 
L 1533.290975 1221.912685 
L 1535.978419 1223.378966 
L 1537.607334 1224.475997 
L 1539.10114 1225.668479 
L 1540.456348 1226.955797 
L 1541.670166 1228.336938 
L 1542.740526 1229.810533 
L 1543.6661 1231.37489 
L 1544.446311 1233.028031 
L 1545.081334 1234.767735 
L 1545.572084 1236.591573 
L 1545.920205 1238.496948 
L 1546.180267 1241.501891 
L 1546.135525 1244.674519 
L 1545.799711 1248.004934 
L 1545.1892 1251.483119 
L 1544.322547 1255.099058 
L 1543.219966 1258.842802 
L 1541.4198 1264.016208 
L 1539.289944 1269.375903 
L 1536.2416 1276.301275 
L 1532.850631 1283.431875 
L 1528.440644 1292.183594 
L 1522.954008 1302.525715 
L 1518.026486 1311.355632 
L 1513.775439 1318.573128 
L 1509.38213 1325.555722 
L 1505.749177 1330.899669 
L 1501.993445 1335.965642 
L 1499.085154 1339.547603 
L 1496.089842 1342.916307 
L 1493.000177 1346.048654 
L 1489.809595 1348.923029 
L 1486.512609 1351.519804 
L 1483.105076 1353.821824 
L 1479.584399 1355.814877 
L 1477.1739 1356.966422 
L 1474.712832 1357.973441 
L 1472.201707 1358.834406 
L 1469.641382 1359.548605 
L 1467.033053 1360.116166 
L 1464.378236 1360.538082 
L 1460.312917 1360.9022 
L 1456.15449 1360.953048 
L 1451.911492 1360.705058 
L 1447.593439 1360.176939 
L 1443.210564 1359.391454 
L 1438.773539 1358.375106 
L 1434.293192 1357.157738 
L 1428.270476 1355.278784 
L 1420.69723 1352.637808 
L 1398.042887 1344.444374 
L 1392.08017 1342.605164 
L 1387.637056 1341.415075 
L 1383.218506 1340.417108 
L 1378.823014 1339.634015 
L 1374.448 1339.084362 
L 1370.089954 1338.782245 
L 1365.744608 1338.737091 
L 1361.407128 1338.95354 
L 1357.072318 1339.43141 
L 1352.734849 1340.165752 
L 1348.389481 1341.146978 
L 1344.031308 1342.361063 
L 1339.655995 1343.789824 
L 1333.78963 1345.990235 
L 1327.881248 1348.471312 
L 1320.435278 1351.859393 
L 1296.348624 1363.081116 
L 1290.367715 1365.542162 
L 1284.464516 1367.705469 
L 1280.112143 1369.089587 
L 1275.844553 1370.239021 
L 1271.681289 1371.129412 
L 1267.642559 1371.739424 
L 1263.748861 1372.05094 
L 1260.020567 1372.049206 
L 1258.818007 1371.976963 
L 1258.818007 1371.976963 
" clip-path="url(#pda1d49fbd4)" style="fill: none; stroke: #4169e1; stroke-width: 3; stroke-linecap: square"/>
   </g>
   <g id="line2d_2">
    <path d="M 1229.799106 1439.256805 
L 1227.927534 1438.854803 
L 1226.132065 1438.270511 
L 1224.416821 1437.502564 
L 1222.785617 1436.550423 
L 1221.241913 1435.41436 
L 1219.788771 1434.095437 
L 1218.428809 1432.595478 
L 1217.16417 1430.917046 
L 1215.996479 1429.0634 
L 1214.926817 1427.038467 
L 1213.955695 1424.846797 
L 1213.083029 1422.49352 
L 1211.95695 1418.673128 
L 1211.045733 1414.523144 
L 1210.341258 1410.066839 
L 1209.832276 1405.32923 
L 1209.504517 1400.336707 
L 1209.319417 1393.330939 
L 1209.377969 1385.987388 
L 1209.709658 1376.435449 
L 1210.552426 1360.596047 
L 1211.243672 1346.518584 
L 1211.504297 1336.519327 
L 1211.479454 1328.631616 
L 1211.186338 1320.89403 
L 1210.760614 1315.215179 
L 1210.138343 1309.661463 
L 1209.3044 1304.248391 
L 1208.246568 1298.990475 
L 1206.955665 1293.901353 
L 1205.425621 1288.993913 
L 1203.653508 1284.280426 
L 1201.639521 1279.772669 
L 1199.386907 1275.482042 
L 1196.901853 1271.419673 
L 1194.193329 1267.596498 
L 1191.272895 1264.02332 
L 1188.154461 1260.71084 
L 1184.854027 1257.669656 
L 1181.38938 1254.910232 
L 1177.779777 1252.442828 
L 1174.045599 1250.277401 
L 1170.20799 1248.423471 
L 1166.288493 1246.889956 
L 1162.308668 1245.684977 
L 1159.632439 1245.067734 
L 1156.944963 1244.601492 
L 1154.252178 1244.287774 
L 1151.559788 1244.127781 
L 1148.873223 1244.122364 
L 1146.1976 1244.27198 
L 1143.537682 1244.576661 
L 1140.897854 1245.035979 
L 1138.282082 1245.649005 
L 1135.693899 1246.414282 
L 1133.136374 1247.329793 
L 1129.363119 1248.978877 
L 1125.671282 1250.948564 
L 1122.065082 1253.224184 
L 1118.54628 1255.787708 
L 1115.114267 1258.617705 
L 1111.76622 1261.689361 
L 1108.497314 1264.974571 
L 1104.250321 1269.632632 
L 1100.112858 1274.532534 
L 1094.062866 1282.137666 
L 1084.203511 1294.673574 
L 1080.279413 1299.342381 
L 1076.345761 1303.663478 
L 1073.385628 1306.619296 
L 1070.417097 1309.289512 
L 1067.442825 1311.640059 
L 1064.4679 1313.640252 
L 1061.499808 1315.2632 
L 1059.529613 1316.124168 
L 1057.570181 1316.801601 
L 1055.625325 1317.290729 
L 1053.69921 1317.587699 
L 1051.796309 1317.68958 
L 1049.921359 1317.594369 
L 1048.079313 1317.30098 
L 1046.275287 1316.809239 
L 1044.514505 1316.119854 
L 1042.802243 1315.234392 
L 1041.143772 1314.155239 
L 1039.544305 1312.885564 
L 1038.008933 1311.429264 
L 1036.542579 1309.790917 
L 1035.149939 1307.975721 
L 1033.835434 1305.989433 
L 1032.603166 1303.838303 
L 1031.456872 1301.529011 
L 1029.905806 1297.783989 
L 1028.564971 1293.723884 
L 1027.441351 1289.374511 
L 1026.539387 1284.762087 
L 1025.860892 1279.912734 
L 1025.405038 1274.852014 
L 1025.168394 1269.604501 
L 1025.145028 1264.193408 
L 1025.326651 1258.640279 
L 1025.702809 1252.964736 
L 1026.485287 1245.236902 
L 1027.557421 1237.357806 
L 1028.881033 1229.355918 
L 1030.826137 1219.213535 
L 1033.474371 1206.874899 
L 1038.748136 1183.864185 
L 1042.052762 1168.996057 
L 1044.247947 1158.290907 
L 1046.227278 1147.540167 
L 1047.61311 1138.929813 
L 1048.791361 1130.336474 
L 1049.735133 1121.789902 
L 1050.419947 1113.325335 
L 1050.823778 1104.982914 
L 1050.930425 1098.832671 
L 1050.86073 1092.795558 
L 1050.608286 1086.89175 
L 1050.16758 1081.14153 
L 1049.534021 1075.56487 
L 1048.703974 1070.180997 
L 1047.674786 1065.007958 
L 1046.444806 1060.062208 
L 1045.013399 1055.358218 
L 1043.380952 1050.908136 
L 1041.548866 1046.721491 
L 1039.519538 1042.804973 
L 1037.296341 1039.162283 
L 1034.883583 1035.79406 
L 1032.286465 1032.697899 
L 1029.511037 1029.868457 
L 1026.564139 1027.297638 
L 1023.453352 1024.974867 
L 1020.186945 1022.887439 
L 1016.773824 1021.020933 
L 1013.223492 1019.35969 
L 1009.54601 1017.887325 
L 1005.751967 1016.587276 
L 1001.85246 1015.44336 
L 996.509163 1014.134858 
L 991.027836 1013.045113 
L 985.438778 1012.148868 
L 978.349472 1011.275703 
L 971.206601 1010.666934 
L 965.499329 1010.377974 
L 959.837046 1010.283681 
L 954.256034 1010.411048 
L 948.792493 1010.794875 
L 944.7933 1011.275391 
L 940.894568 1011.941672 
L 937.110011 1012.812974 
L 933.452406 1013.908529 
L 929.933367 1015.246919 
L 926.5631 1016.845458 
L 923.350177 1018.719611 
L 921.299042 1020.128731 
L 919.322356 1021.66939 
L 917.421183 1023.34414 
L 915.596138 1025.154858 
L 913.84737 1027.102702 
L 911.366389 1030.282265 
L 909.053022 1033.769195 
L 906.901631 1037.557556 
L 904.904132 1041.637376 
L 903.050081 1045.994724 
L 901.326812 1050.611884 
L 899.719637 1055.467606 
L 897.728648 1062.270309 
L 895.871603 1069.38772 
L 893.235402 1080.493459 
L 887.909571 1103.265487 
L 885.440978 1112.561433 
L 883.285304 1119.763375 
L 880.937407 1126.679411 
L 879.036999 1131.639511 
L 877.009623 1136.377249 
L 874.851121 1140.870081 
L 872.559599 1145.09793 
L 870.135311 1149.043284 
L 867.5805 1152.691269 
L 864.899188 1156.0297 
L 862.096932 1159.04911 
L 859.180551 1161.742763 
L 856.157838 1164.106643 
L 853.037263 1166.139437 
L 849.827682 1167.842492 
L 846.538051 1169.219752 
L 843.177169 1170.27768 
L 839.753443 1171.025149 
L 836.274695 1171.473312 
L 832.748002 1171.635437 
L 829.179583 1171.526716 
L 825.574736 1171.164036 
L 821.937814 1170.565716 
L 818.272246 1169.751212 
L 814.58061 1168.740788 
L 809.620936 1167.124622 
L 804.620776 1165.246124 
L 798.315786 1162.60147 
L 790.672143 1159.104827 
L 780.360851 1154.090236 
L 767.342904 1147.49633 
L 756.934968 1141.992973 
L 749.224041 1137.654367 
L 742.921508 1133.822154 
L 737.995923 1130.563016 
L 733.203128 1127.088543 
L 729.712339 1124.316864 
L 726.323551 1121.384525 
L 723.048343 1118.275948 
L 719.89804 1114.977078 
L 716.883595 1111.475817 
L 714.015506 1107.762419 
L 711.303738 1103.829826 
L 708.757671 1099.673935 
L 706.386066 1095.2938 
L 704.197041 1090.691762 
L 702.198067 1085.873502 
L 700.395978 1080.848025 
L 698.796977 1075.627577 
L 697.406655 1070.227495 
L 696.230011 1064.666008 
L 695.271457 1058.963986 
L 694.534828 1053.144654 
L 694.023377 1047.233272 
L 693.739756 1041.256802 
L 693.685989 1035.243561 
L 693.86343 1029.222869 
L 694.272708 1023.224707 
L 694.913666 1017.27938 
L 695.785289 1011.4172 
L 696.88563 1005.66819 
L 698.211734 1000.061801 
L 699.759574 994.626663 
L 701.523988 989.390349 
L 703.498632 984.379164 
L 705.67596 979.617955 
L 708.047211 975.12993 
L 710.602439 970.936501 
L 713.330552 967.057126 
L 716.219399 963.509165 
L 718.228156 961.335543 
L 720.298451 959.31989 
L 722.426052 957.465622 
L 724.606609 955.775653 
L 726.835683 954.252375 
L 729.108769 952.897649 
L 731.421328 951.712779 
L 733.768815 950.698505 
L 736.146713 949.854988 
L 738.550559 949.181793 
L 740.975981 948.677883 
L 743.418727 948.341608 
L 745.874695 948.170695 
L 748.33996 948.162249 
L 750.810807 948.312746 
L 753.283754 948.618039 
L 756.990126 949.355619 
L 760.684321 950.41195 
L 764.358166 951.765374 
L 768.005107 953.391387 
L 771.620263 955.262835 
L 775.200434 957.350163 
L 779.917116 960.414079 
L 784.569623 963.725468 
L 790.303023 968.084801 
L 804.922324 979.412064 
L 809.388662 982.571109 
L 813.863562 985.443381 
L 817.232205 987.369626 
L 820.615767 989.072934 
L 824.01691 990.53165 
L 827.437065 991.72715 
L 830.876317 992.643902 
L 834.333326 993.269455 
L 837.805282 993.594363 
L 841.287902 993.612046 
L 844.775459 993.318594 
L 848.260854 992.712527 
L 851.735716 991.794513 
L 855.190538 990.567065 
L 858.614828 989.034213 
L 861.997302 987.201189 
L 865.326077 985.074104 
L 868.588889 982.659651 
L 871.773321 979.964844 
L 874.867028 976.996782 
L 877.857971 973.762469 
L 880.734645 970.268681 
L 883.4863 966.521885 
L 886.103151 962.528219 
L 888.576579 958.293528 
L 890.899311 953.823441 
L 893.065584 949.123516 
L 895.071295 944.199409 
L 896.91412 939.057083 
L 898.593612 933.703044 
L 900.111281 928.144585 
L 901.47064 922.390032 
L 902.677222 916.448984 
L 903.738582 910.332529 
L 904.944579 901.926717 
L 905.93742 893.26729 
L 906.750584 884.395656 
L 907.573482 873.080677 
L 908.645977 854.710314 
L 909.75641 836.447506 
L 910.647805 825.323743 
L 911.548476 816.691981 
L 912.665708 808.366898 
L 913.671213 802.360139 
L 914.838289 796.582067 
L 916.181215 791.053198 
L 917.712358 785.791489 
L 919.442026 780.812087 
L 921.378354 776.127145 
L 923.527229 771.745692 
L 925.07977 768.996348 
L 926.728933 766.3855 
L 928.474779 763.913473 
L 930.316935 761.579987 
L 932.2546 759.384169 
L 934.286569 757.324582 
L 936.411241 755.399252 
L 938.626649 753.605694 
L 940.930476 751.940956 
L 943.320085 750.401646 
L 947.05885 748.319489 
L 950.972975 746.496744 
L 955.050354 744.917748 
L 959.277999 743.565715 
L 963.642279 742.423057 
L 968.12915 741.471703 
L 972.724385 740.693378 
L 978.995408 739.893333 
L 985.400853 739.32628 
L 991.909095 738.951618 
L 1000.143922 738.695624 
L 1010.102746 738.609254 
L 1026.689296 738.728894 
L 1044.631586 738.808333 
L 1055.762771 738.615031 
L 1063.540606 738.282609 
L 1071.155322 737.741491 
L 1077.119399 737.131121 
L 1082.962037 736.34105 
L 1088.676368 735.351728 
L 1094.256026 734.144576 
L 1099.695311 732.702321 
L 1104.989387 731.009347 
L 1108.862365 729.566813 
L 1112.650472 727.970662 
L 1116.353133 726.216829 
L 1119.970332 724.302136 
L 1123.502659 722.22436 
L 1126.951355 719.982289 
L 1130.31834 717.575776 
L 1133.606232 715.005782 
L 1136.818346 712.274425 
L 1140.990292 708.387514 
L 1145.04596 704.231063 
L 1148.998445 699.820447 
L 1152.862373 695.175306 
L 1157.591861 689.076244 
L 1162.239897 682.706146 
L 1168.671702 673.46718 
L 1181.563471 654.783259 
L 1186.248316 648.401571 
L 1190.040404 643.543685 
L 1193.873075 638.980208 
L 1197.744012 634.781286 
L 1200.669053 631.913505 
L 1203.608912 629.319198 
L 1206.558978 627.02641 
L 1209.513667 625.061827 
L 1212.466473 623.450339 
L 1214.430356 622.58348 
L 1216.387755 621.889768 
L 1218.336139 621.374716 
L 1220.272832 621.043213 
L 1222.195035 620.899479 
L 1224.099828 620.947023 
L 1225.984188 621.188601 
L 1227.844992 621.626188 
L 1229.679038 622.260946 
L 1231.483051 623.093203 
L 1233.253698 624.122438 
L 1234.987598 625.347273 
L 1236.681338 626.765469 
L 1238.331483 628.373933 
L 1239.93459 630.168729 
L 1241.487223 632.145102 
L 1243.714068 635.437759 
L 1245.808287 639.104384 
L 1247.758779 643.119543 
L 1249.554835 647.454666 
L 1251.186251 652.0785 
L 1252.64345 656.957613 
L 1253.917604 662.05694 
L 1255.000762 667.340364 
L 1255.885965 672.771311 
L 1256.567376 678.313357 
L 1257.040386 683.930825 
L 1257.301727 689.589366 
L 1257.34956 695.256512 
L 1257.183555 700.902192 
L 1256.804952 706.499187 
L 1256.216592 712.023539 
L 1255.422938 717.454885 
L 1254.430055 722.776721 
L 1253.245572 727.976587 
L 1251.878616 733.046172 
L 1250.339712 737.981339 
L 1248.64067 742.78206 
L 1246.794431 747.452285 
L 1244.127978 753.490097 
L 1241.259764 759.337778 
L 1238.226563 765.032559 
L 1234.260384 772.005031 
L 1226.02214 785.850755 
L 1221.068492 794.381554 
L 1217.030481 801.773815 
L 1213.898683 807.934371 
L 1210.882038 814.351259 
L 1208.003698 821.048184 
L 1205.285153 828.037688 
L 1202.746736 835.320277 
L 1200.408185 842.883969 
L 1198.289185 850.704277 
L 1196.409846 858.744648 
L 1194.791055 866.957339 
L 1193.76106 873.195608 
L 1192.899487 879.471149 
L 1192.216192 885.754428 
L 1191.72121 892.014323 
L 1191.424637 898.218699 
L 1191.336471 904.335017 
L 1191.466419 910.330966 
L 1191.82368 916.175099 
L 1192.41671 921.837479 
L 1193.252969 927.290294 
L 1194.338664 932.508453 
L 1195.678503 937.470138 
L 1197.275452 942.157291 
L 1198.483509 945.122511 
L 1199.806107 947.956461 
L 1201.242578 950.657073 
L 1202.79179 953.223242 
L 1204.45214 955.654842 
L 1206.221537 957.952741 
L 1208.097403 960.118793 
L 1210.076671 962.155839 
L 1212.155791 964.067683 
L 1214.330735 965.859069 
L 1217.762883 968.332872 
L 1221.383433 970.571164 
L 1225.173312 972.600479 
L 1229.111583 974.450771 
L 1234.554263 976.696372 
L 1241.58479 979.265902 
L 1258.808308 985.33649 
L 1264.443371 987.627537 
L 1268.572558 989.512915 
L 1272.59209 991.571323 
L 1276.479465 993.825532 
L 1280.213537 996.294185 
L 1283.774651 998.991559 
L 1287.144751 1001.927423 
L 1290.307462 1005.107012 
L 1293.24815 1008.531103 
L 1295.07884 1010.948109 
L 1296.801742 1013.470279 
L 1298.41385 1016.094838 
L 1300.618595 1020.21591 
L 1302.560803 1024.545164 
L 1304.234917 1029.065688 
L 1305.637222 1033.758483 
L 1306.765847 1038.603046 
L 1307.620781 1043.577974 
L 1308.203883 1048.661561 
L 1308.518902 1053.832366 
L 1308.571495 1059.069753 
L 1308.369243 1064.354356 
L 1307.921663 1069.668496 
L 1307.240218 1074.9965 
L 1306.338302 1080.324943 
L 1305.231218 1085.64279 
L 1303.936132 1090.941443 
L 1301.949915 1097.966042 
L 1299.712935 1104.937093 
L 1296.647268 1113.572088 
L 1292.725941 1123.825572 
L 1284.906793 1144.044975 
L 1281.983694 1152.369587 
L 1279.90755 1158.978135 
L 1278.124648 1165.526391 
L 1277.009975 1170.385792 
L 1276.106768 1175.188628 
L 1275.431184 1179.921935 
L 1274.996856 1184.571172 
L 1274.814742 1189.120578 
L 1274.893027 1193.553597 
L 1275.237061 1197.853344 
L 1275.849348 1202.003128 
L 1276.729579 1205.986968 
L 1277.874712 1209.790125 
L 1279.279094 1213.399589 
L 1280.934619 1216.804538 
L 1282.830929 1219.996722 
L 1284.955639 1222.970771 
L 1287.294596 1225.724404 
L 1289.832151 1228.258542 
L 1292.551454 1230.577307 
L 1295.434756 1232.687899 
L 1298.463714 1234.600383 
L 1301.619706 1236.327356 
L 1304.884126 1237.883532 
L 1309.373814 1239.721161 
L 1313.982208 1241.325773 
L 1318.670644 1242.739739 
L 1324.591204 1244.300909 
L 1332.892425 1246.224029 
L 1344.587357 1248.669184 
L 1355.980115 1250.84971 
L 1363.805494 1252.132927 
L 1370.471323 1252.978128 
L 1376.038145 1253.447372 
L 1381.650084 1253.668619 
L 1387.335312 1253.627006 
L 1393.114197 1253.329673 
L 1398.995735 1252.80888 
L 1407.389093 1251.819397 
L 1420.768948 1250.20499 
L 1426.794034 1249.722625 
L 1431.516359 1249.565472 
L 1436.102166 1249.67607 
L 1439.422558 1249.96768 
L 1442.617504 1250.461087 
L 1445.665909 1251.174176 
L 1448.547181 1252.121961 
L 1451.241677 1253.316391 
L 1453.731136 1254.766257 
L 1455.268643 1255.877653 
L 1456.703289 1257.106049 
L 1458.031181 1258.451769 
L 1459.248932 1259.914578 
L 1460.353698 1261.49372 
L 1461.343202 1263.187956 
L 1462.21576 1264.995604 
L 1462.970288 1266.914589 
L 1463.879914 1269.996433 
L 1464.524047 1273.313855 
L 1464.906703 1276.856286 
L 1465.034784 1280.612325 
L 1464.917859 1284.570043 
L 1464.567879 1288.717228 
L 1463.998832 1293.041581 
L 1463.226341 1297.530837 
L 1461.909094 1303.752002 
L 1460.301931 1310.216035 
L 1457.949407 1318.593673 
L 1455.288304 1327.247508 
L 1451.78523 1337.907537 
L 1447.389196 1350.564932 
L 1442.74905 1363.232153 
L 1438.603416 1373.880018 
L 1435.02199 1382.445514 
L 1432.060406 1389.000894 
L 1428.998732 1395.215285 
L 1426.627893 1399.60925 
L 1424.186113 1403.741614 
L 1421.667418 1407.584041 
L 1419.066455 1411.110016 
L 1416.378751 1414.29546 
L 1413.60093 1417.119331 
L 1411.697882 1418.792263 
L 1409.753521 1420.292496 
L 1407.767836 1421.616738 
L 1405.7411 1422.762632 
L 1403.673872 1423.728799 
L 1401.566989 1424.514876 
L 1399.42156 1425.121549 
L 1397.238948 1425.550571 
L 1395.020757 1425.804776 
L 1392.768813 1425.888075 
L 1390.485134 1425.805452 
L 1388.171914 1425.562942 
L 1384.651837 1424.915103 
L 1381.078916 1423.951555 
L 1377.461852 1422.704807 
L 1373.809473 1421.211472 
L 1368.899753 1418.906572 
L 1363.9625 1416.337712 
L 1355.308787 1411.535613 
L 1347.926139 1407.491988 
L 1343.039715 1405.022885 
L 1338.187805 1402.849049 
L 1334.57253 1401.464333 
L 1330.976975 1400.32514 
L 1327.399608 1399.457712 
L 1323.838058 1398.883031 
L 1320.289242 1398.616502 
L 1316.749508 1398.66774 
L 1313.214799 1399.040466 
L 1309.680822 1399.732497 
L 1306.143234 1400.735841 
L 1302.597835 1402.03689 
L 1299.040759 1403.616699 
L 1295.468669 1405.451348 
L 1291.87895 1407.512379 
L 1287.062435 1410.555897 
L 1280.99248 1414.712031 
L 1261.357035 1428.477635 
L 1256.481396 1431.496582 
L 1252.864511 1433.526018 
L 1249.296823 1435.31263 
L 1245.79311 1436.822089 
L 1242.369058 1438.023344 
L 1239.040992 1438.888956 
L 1236.883835 1439.26776 
L 1234.781701 1439.480852 
L 1232.739505 1439.523073 
L 1230.762069 1439.390104 
L 1230.762069 1439.390104 
" clip-path="url(#pda1d49fbd4)" style="fill: none; stroke: #ff8c00; stroke-width: 3; stroke-linecap: square"/>
   </g>
  </g>
 </g>
 <defs>
  <clipPath id="pda1d49fbd4">
   <rect x="270" y="259.2" width="1674" height="1630.8"/>
  </clipPath>
 </defs>
</svg>
