<?xml version="1.0" encoding="utf-8" standalone="no"?>
<!DOCTYPE svg PUBLIC "-//W3C//DTD SVG 1.1//EN"
  "http://www.w3.org/Graphics/SVG/1.1/DTD/svg11.dtd">
<svg xmlns:xlink="http://www.w3.org/1999/xlink" width="2160pt" height="2160pt" viewBox="0 0 2160 2160" xmlns="http://www.w3.org/2000/svg" version="1.1">
 <metadata>
  <rdf:RDF xmlns:dc="http://purl.org/dc/elements/1.1/" xmlns:cc="http://creativecommons.org/ns#" xmlns:rdf="http://www.w3.org/1999/02/22-rdf-syntax-ns#">
   <cc:Work>
    <dc:type rdf:resource="http://purl.org/dc/dcmitype/StillImage"/>
    <dc:date>2022-03-06T19:21:03.937640</dc:date>
    <dc:format>image/svg+xml</dc:format>
    <dc:creator>
     <cc:Agent>
      <dc:title>Matplotlib v3.5.1, https://matplotlib.org/</dc:title>
     </cc:Agent>
    </dc:creator>
   </cc:Work>
  </rdf:RDF>
 </metadata>
 <defs>
  <style type="text/css">*{stroke-linejoin: round; stroke-linecap: butt}</style>
 </defs>
 <g id="figure_1">
  <g id="patch_1">
   <path d="M 0 2160 
L 2160 2160 
L 2160 0 
L 0 0 
L 0 2160 
z
" style="fill: none"/>
  </g>
  <g id="axes_1">
   <g id="line2d_1">
    <path d="M 1257.636748 1371.868297 
L 1255.340905 1371.540585 
L 1253.138416 1371.06427 
L 1251.034339 1370.43824 
L 1249.033353 1369.662054 
L 1247.139704 1368.735935 
L 1245.357144 1367.660749 
L 1243.68889 1366.437982 
L 1242.137566 1365.069724 
L 1240.705168 1363.558632 
L 1239.393022 1361.907906 
L 1238.201754 1360.121256 
L 1237.131261 1358.202864 
L 1236.180693 1356.157351 
L 1235.348441 1353.98974 
L 1234.316492 1350.521251 
L 1233.533973 1346.809702 
L 1232.985834 1342.875897 
L 1232.653373 1338.741655 
L 1232.514466 1334.429522 
L 1232.586292 1328.443058 
L 1232.889706 1322.236104 
L 1233.615312 1312.630981 
L 1234.774959 1297.907102 
L 1235.107597 1291.365851 
L 1235.216435 1284.888656 
L 1235.107636 1280.096815 
L 1234.804605 1275.378941 
L 1234.282372 1270.74954 
L 1233.519036 1266.22215 
L 1232.496045 1261.809412 
L 1231.198411 1257.523158 
L 1229.614869 1253.374505 
L 1227.737975 1249.373959 
L 1226.321808 1246.794168 
L 1224.77347 1244.287516 
L 1223.093595 1241.856799 
L 1221.283547 1239.504755 
L 1219.345404 1237.23408 
L 1217.281933 1235.047435 
L 1213.959407 1231.930782 
L 1210.376932 1229.017927 
L 1206.551573 1226.317592 
L 1202.502954 1223.838419 
L 1198.252898 1221.588936 
L 1193.825025 1219.577507 
L 1189.244337 1217.812251 
L 1184.536771 1216.300927 
L 1179.728752 1215.050805 
L 1174.846731 1214.068506 
L 1169.91673 1213.359819 
L 1164.963895 1212.929506 
L 1160.012071 1212.781089 
L 1155.083403 1212.91663 
L 1150.197977 1213.336505 
L 1145.373497 1214.039181 
L 1140.625029 1215.021011 
L 1135.964793 1216.27603 
L 1131.402027 1217.795797 
L 1126.942924 1219.569247 
L 1122.590641 1221.582603 
L 1118.345383 1223.81932 
L 1114.204568 1226.260082 
L 1110.163062 1228.882863 
L 1106.213481 1231.663031 
L 1101.074144 1235.567635 
L 1094.816851 1240.666389 
L 1075.42612 1256.882001 
L 1070.604637 1260.482807 
L 1066.977112 1262.963406 
L 1063.338855 1265.220985 
L 1059.692139 1267.226939 
L 1056.042211 1268.955295 
L 1052.397283 1270.383065 
L 1048.76843 1271.490548 
L 1045.169395 1272.261562 
L 1042.794486 1272.582322 
L 1040.445265 1272.745145 
L 1038.12739 1272.748021 
L 1035.846811 1272.589691 
L 1033.609712 1272.269644 
L 1031.422443 1271.788101 
L 1029.291454 1271.145991 
L 1027.223222 1270.34493 
L 1025.224187 1269.387186 
L 1023.300675 1268.275645 
L 1021.458839 1267.013768 
L 1019.704586 1265.605544 
L 1018.043514 1264.055446 
L 1016.480858 1262.368374 
L 1015.021432 1260.549606 
L 1013.669579 1258.604738 
L 1012.429127 1256.53963 
L 1011.303352 1254.36035 
L 1010.294948 1252.073111 
L 1009.006799 1248.453642 
L 1007.991656 1244.626861 
L 1007.250661 1240.61395 
L 1006.781725 1236.435515 
L 1006.579599 1232.111251 
L 1006.636022 1227.659654 
L 1006.939911 1223.097782 
L 1007.477616 1218.441077 
L 1008.233201 1213.703235 
L 1009.18876 1208.89615 
L 1010.739925 1202.396163 
L 1012.561898 1195.809896 
L 1015.139992 1187.476743 
L 1018.535188 1177.352894 
L 1027.329707 1151.551684 
L 1030.022524 1142.824844 
L 1031.989917 1135.815395 
L 1033.748066 1128.796012 
L 1035.260285 1121.785159 
L 1036.492843 1114.805937 
L 1037.21511 1109.608743 
L 1037.750817 1104.458024 
L 1038.089047 1099.368157 
L 1038.21987 1094.354478 
L 1038.134376 1089.433022 
L 1037.824705 1084.620237 
L 1037.284094 1079.932656 
L 1036.506912 1075.386562 
L 1035.4887 1070.997628 
L 1034.226202 1066.780566 
L 1032.717395 1062.748789 
L 1030.961499 1058.914096 
L 1028.958988 1055.286388 
L 1026.711581 1051.873434 
L 1024.22222 1048.680688 
L 1021.495041 1045.711166 
L 1018.535328 1042.96539 
L 1015.349464 1040.441399 
L 1011.944867 1038.134838 
L 1008.329929 1036.039105 
L 1004.51395 1034.145582 
L 1000.507072 1032.44391 
L 996.320222 1030.922334 
L 991.965057 1029.568089 
L 987.453916 1028.367816 
L 981.218978 1026.983667 
L 974.762421 1025.818343 
L 968.118647 1024.843764 
L 959.606057 1023.858575 
L 950.932502 1023.10311 
L 942.17697 1022.56356 
L 933.422181 1022.246192 
L 924.753667 1022.177331 
L 917.939364 1022.330551 
L 911.280154 1022.700751 
L 904.819134 1023.322077 
L 900.128156 1023.974898 
L 895.58783 1024.805339 
L 891.212909 1025.828778 
L 887.016522 1027.059732 
L 883.009883 1028.51136 
L 879.202018 1030.195011 
L 875.599516 1032.119812 
L 872.206309 1034.292311 
L 869.023494 1036.716184 
L 866.049211 1039.39202 
L 863.27857 1042.317175 
L 860.703649 1045.485712 
L 858.313549 1048.888413 
L 856.094529 1052.512875 
L 854.030195 1056.34367 
L 852.101766 1060.362571 
L 849.705645 1065.977539 
L 847.459944 1071.834723 
L 844.247142 1080.941351 
L 838.818722 1096.430226 
L 836.45963 1102.541154 
L 833.920492 1108.507305 
L 831.87411 1112.850688 
L 829.690702 1117.055146 
L 827.359486 1121.09862 
L 824.872519 1124.960825 
L 822.224701 1128.623383 
L 819.413707 1132.069926 
L 816.439851 1135.286179 
L 813.305883 1138.260017 
L 810.016738 1140.981507 
L 806.579232 1143.442931 
L 803.001729 1145.638797 
L 799.293789 1147.565832 
L 795.465803 1149.222967 
L 791.528634 1150.611297 
L 787.493269 1151.73404 
L 783.370499 1152.596463 
L 779.170641 1153.2058 
L 774.903286 1153.571143 
L 770.577117 1153.703307 
L 766.199765 1153.614678 
L 761.777726 1153.319021 
L 757.31634 1152.83127 
L 751.313741 1151.909637 
L 745.255683 1150.714062 
L 739.14656 1149.284672 
L 731.441919 1147.229351 
L 722.099675 1144.4644 
L 709.490365 1140.444704 
L 691.945338 1134.573123 
L 677.577834 1129.538765 
L 668.118897 1126.001932 
L 660.387627 1122.877912 
L 654.345448 1120.221061 
L 648.466162 1117.38867 
L 642.783762 1114.347584 
L 638.671638 1111.910608 
L 634.703514 1109.325988 
L 630.893145 1106.582759 
L 627.253792 1103.671665 
L 623.798124 1100.585465 
L 620.538132 1097.319184 
L 617.485073 1093.870321 
L 614.649431 1090.238989 
L 612.040902 1086.428003 
L 609.668389 1082.4429 
L 607.540014 1078.291914 
L 605.663134 1073.985882 
L 604.044363 1069.538113 
L 602.689592 1064.96421 
L 601.603998 1060.281852 
L 600.792049 1055.510556 
L 600.257491 1050.671407 
L 600.003325 1045.786784 
L 600.031767 1040.880077 
L 600.34419 1035.975395 
L 600.941053 1031.097299 
L 601.821823 1026.270522 
L 602.984883 1021.519724 
L 604.427443 1016.869246 
L 606.14545 1012.342897 
L 608.133504 1007.963748 
L 610.384797 1003.753952 
L 612.891057 999.734572 
L 615.642531 995.925435 
L 618.627981 992.344985 
L 621.834731 989.010159 
L 625.248728 985.936263 
L 627.632349 984.03873 
L 630.096476 982.266793 
L 632.636092 980.623632 
L 635.246003 979.112033 
L 637.920877 977.734369 
L 642.043053 975.923154 
L 646.280442 974.422314 
L 650.614243 973.23427 
L 655.025816 972.359054 
L 659.496976 971.794222 
L 664.010279 971.534806 
L 668.549305 971.573267 
L 673.098917 971.899481 
L 677.645495 972.500756 
L 682.177137 973.361878 
L 686.683815 974.465189 
L 691.157491 975.790715 
L 695.592176 977.316321 
L 699.983945 979.017911 
L 705.769864 981.515616 
L 711.477059 984.21506 
L 719.904987 988.492506 
L 736.443566 997.002776 
L 741.922389 999.57803 
L 747.411716 1001.919508 
L 751.544005 1003.489782 
L 755.694596 1004.878319 
L 759.866753 1006.067465 
L 764.06223 1007.042037 
L 768.281135 1007.789373 
L 772.521823 1008.299324 
L 776.780846 1008.56419 
L 781.052949 1008.578604 
L 785.331109 1008.339382 
L 789.606617 1007.845316 
L 793.869206 1007.096951 
L 798.107209 1006.096335 
L 802.307761 1004.846754 
L 806.457016 1003.352473 
L 810.540399 1001.618472 
L 814.542867 999.65021 
L 818.449186 997.453403 
L 822.244213 995.033838 
L 825.913181 992.397226 
L 829.441975 989.549089 
L 832.81741 986.4947 
L 836.027482 983.239063 
L 839.061617 979.786941 
L 841.910895 976.142926 
L 844.568246 972.311547 
L 847.028637 968.297413 
L 849.289216 964.105388 
L 851.349437 959.740775 
L 853.211151 955.209518 
L 854.878665 950.518405 
L 856.358771 945.675262 
L 857.660733 940.689127 
L 858.796244 935.570403 
L 860.075933 928.559954 
L 861.124335 921.367605 
L 862.179885 912.178984 
L 863.207922 900.974025 
L 865.042757 880.458041 
L 865.895017 873.182147 
L 866.942082 866.091023 
L 867.889768 860.925664 
L 869.00187 855.914885 
L 870.299299 851.078338 
L 871.801013 846.434009 
L 873.523768 841.997953 
L 875.48191 837.784065 
L 876.924031 835.104037 
L 878.47888 832.530748 
L 880.148733 830.066506 
L 881.935319 827.71311 
L 883.839809 825.471845 
L 885.862825 823.343481 
L 888.004442 821.328284 
L 890.264201 819.426025 
L 892.64112 817.635994 
L 895.133721 815.957019 
L 897.740041 814.387489 
L 901.857344 812.233871 
L 906.215068 810.31344 
L 910.801384 808.616065 
L 915.602811 807.130163 
L 920.604502 805.842965 
L 925.790522 804.740787 
L 931.144151 803.809293 
L 936.648163 803.033748 
L 944.190607 802.216536 
L 951.928189 801.615009 
L 961.813615 801.114484 
L 971.867284 800.834336 
L 984.058937 800.706968 
L 1002.39851 800.756758 
L 1032.46304 800.852902 
L 1046.070938 800.662797 
L 1057.450138 800.279828 
L 1066.705718 799.761384 
L 1075.735466 799.026872 
L 1082.7853 798.26244 
L 1089.671817 797.32413 
L 1096.387798 796.197568 
L 1102.92702 794.869661 
L 1109.284549 793.32888 
L 1115.457062 791.565548 
L 1121.443166 789.572099 
L 1127.243689 787.343311 
L 1132.861927 784.876519 
L 1138.303803 782.171798 
L 1143.577943 779.232122 
L 1148.695638 776.063511 
L 1153.670696 772.675171 
L 1158.51918 769.079637 
L 1163.259032 765.292917 
L 1169.060659 760.32096 
L 1174.76237 755.128056 
L 1182.652218 747.596449 
L 1198.466455 732.365312 
L 1204.213318 727.162959 
L 1208.865045 723.20281 
L 1213.566554 719.482663 
L 1218.315003 716.0597 
L 1221.90313 713.721885 
L 1225.509433 711.607005 
L 1229.128256 709.737924 
L 1232.752752 708.136395 
L 1236.374936 706.82271 
L 1239.985765 705.815353 
L 1243.575211 705.130662 
L 1245.950939 704.86042 
L 1248.308891 704.743249 
L 1250.645487 704.782006 
L 1252.957016 704.978941 
L 1255.239651 705.335662 
L 1257.489462 705.853117 
L 1259.702431 706.531573 
L 1261.874471 707.370605 
L 1264.001433 708.369091 
L 1266.079131 709.525205 
L 1268.103351 710.836425 
L 1270.069871 712.299543 
L 1271.974475 713.910682 
L 1273.81297 715.665315 
L 1276.437696 718.554897 
L 1278.890606 721.735816 
L 1281.158388 725.185595 
L 1283.228301 728.879442 
L 1285.088324 732.790648 
L 1286.727307 736.89102 
L 1288.135118 741.151347 
L 1289.302799 745.541885 
L 1290.222716 750.032844 
L 1290.888698 754.594884 
L 1291.296173 759.199592 
L 1291.44229 763.819942 
L 1291.326019 768.430722 
L 1290.94823 773.00893 
L 1290.311753 777.534116 
L 1289.421398 781.988677 
L 1288.283953 786.35809 
L 1286.908146 790.631086 
L 1285.304571 794.799757 
L 1283.485583 798.859598 
L 1281.465162 802.809479 
L 1279.25874 806.651557 
L 1276.883016 810.391118 
L 1274.355733 814.036371 
L 1270.782431 818.769123 
L 1267.018224 823.38586 
L 1262.114962 829.051862 
L 1244.929069 848.546392 
L 1241.001535 853.429345 
L 1237.192301 858.501398 
L 1233.531646 863.788047 
L 1230.047409 869.306424 
L 1227.565664 873.602356 
L 1225.208226 878.032891 
L 1222.985315 882.594452 
L 1220.907084 887.280214 
L 1218.983764 892.080164 
L 1217.225791 896.981211 
L 1215.643914 901.967372 
L 1214.249249 907.020013 
L 1213.053304 912.118157 
L 1212.06796 917.23883 
L 1211.305392 922.357475 
L 1210.777955 927.448394 
L 1210.498019 932.485223 
L 1210.477754 937.441441 
L 1210.728893 942.290885 
L 1211.26245 947.008271 
L 1212.088423 951.569718 
L 1212.805874 954.513099 
L 1213.659355 957.371408 
L 1214.650679 960.139224 
L 1215.781259 962.81171 
L 1217.052064 965.38466 
L 1218.463589 967.854543 
L 1220.015825 970.218544 
L 1221.708226 972.474594 
L 1223.539693 974.621398 
L 1225.508549 976.658451 
L 1227.612529 978.586057 
L 1229.84877 980.405324 
L 1232.21381 982.118168 
L 1234.703589 983.7273 
L 1238.661813 985.954372 
L 1242.872003 987.971017 
L 1247.313305 989.795673 
L 1251.962322 991.449971 
L 1256.793369 992.958329 
L 1263.469864 994.788944 
L 1272.094159 996.883625 
L 1293.22212 1001.83237 
L 1300.13461 1003.700032 
L 1306.859771 1005.779674 
L 1311.73945 1007.508993 
L 1316.448174 1009.40338 
L 1320.960595 1011.476865 
L 1325.253243 1013.739868 
L 1329.304647 1016.199121 
L 1333.095423 1018.857667 
L 1336.608345 1021.71496 
L 1338.788416 1023.728414 
L 1340.834364 1025.826541 
L 1342.742728 1028.006791 
L 1344.510488 1030.26608 
L 1346.135066 1032.60084 
L 1347.614334 1035.007075 
L 1348.946603 1037.48042 
L 1350.130637 1040.016207 
L 1351.165642 1042.609522 
L 1352.051276 1045.255277 
L 1352.787647 1047.948269 
L 1353.375317 1050.683249 
L 1353.815304 1053.454979 
L 1354.201736 1057.670221 
L 1354.266251 1061.939739 
L 1354.018149 1066.247749 
L 1353.469107 1070.579837 
L 1352.633184 1074.923227 
L 1351.52681 1079.266974 
L 1350.168758 1083.602084 
L 1348.580085 1087.921547 
L 1346.784047 1092.220297 
L 1344.110829 1097.914387 
L 1341.179496 1103.562825 
L 1337.260164 1110.560685 
L 1323.038568 1135.289505 
L 1320.336918 1140.696726 
L 1318.521408 1144.724782 
L 1316.917331 1148.723211 
L 1315.54997 1152.684596 
L 1314.442013 1156.599869 
L 1313.613279 1160.458461 
L 1313.080491 1164.24852 
L 1312.857093 1167.957197 
L 1312.953125 1171.570995 
L 1313.197992 1173.920684 
L 1313.588897 1176.218027 
L 1314.126237 1178.459054 
L 1314.809727 1180.639937 
L 1315.638424 1182.757049 
L 1316.610736 1184.807015 
L 1317.724451 1186.786769 
L 1318.976763 1188.693592 
L 1320.364301 1190.525167 
L 1321.883165 1192.279606 
L 1324.397968 1194.763659 
L 1327.181594 1197.068361 
L 1330.215419 1199.19359 
L 1333.479224 1201.14184 
L 1336.951561 1202.918162 
L 1340.610132 1204.530006 
L 1344.432165 1205.986989 
L 1348.394787 1207.300572 
L 1353.85799 1208.85145 
L 1359.479277 1210.203775 
L 1366.654802 1211.667548 
L 1375.374034 1213.177066 
L 1386.995285 1214.924791 
L 1404.081648 1217.241531 
L 1416.549502 1218.753339 
L 1426.111292 1219.697632 
L 1434.291084 1220.266469 
L 1441.148545 1220.530027 
L 1448.082972 1220.582201 
L 1455.123735 1220.421224 
L 1463.735987 1219.973422 
L 1474.002407 1219.193962 
L 1493.385172 1217.658049 
L 1500.749699 1217.310098 
L 1506.506143 1217.23215 
L 1512.080367 1217.383997 
L 1516.105063 1217.674797 
L 1519.967215 1218.135209 
L 1523.64109 1218.779055 
L 1527.101758 1219.617756 
L 1530.325628 1220.660197 
L 1533.290975 1221.912685 
L 1535.978419 1223.378966 
L 1537.607334 1224.475997 
L 1539.10114 1225.668479 
L 1540.456348 1226.955797 
L 1541.670166 1228.336938 
L 1542.740526 1229.810533 
L 1543.6661 1231.37489 
L 1544.446311 1233.028031 
L 1545.081334 1234.767735 
L 1545.572084 1236.591573 
L 1545.920205 1238.496948 
L 1546.180267 1241.501891 
L 1546.135525 1244.674519 
L 1545.799711 1248.004934 
L 1545.1892 1251.483119 
L 1544.322547 1255.099058 
L 1543.219966 1258.842802 
L 1541.4198 1264.016208 
L 1539.289944 1269.375903 
L 1536.2416 1276.301275 
L 1532.850631 1283.431875 
L 1528.440644 1292.183594 
L 1522.954008 1302.525715 
L 1518.026486 1311.355632 
L 1513.775439 1318.573128 
L 1509.38213 1325.555722 
L 1505.749177 1330.899669 
L 1501.993445 1335.965642 
L 1499.085154 1339.547603 
L 1496.089842 1342.916307 
L 1493.000177 1346.048654 
L 1489.809595 1348.923029 
L 1486.512609 1351.519804 
L 1483.105076 1353.821824 
L 1479.584399 1355.814877 
L 1477.1739 1356.966422 
L 1474.712832 1357.973441 
L 1472.201707 1358.834406 
L 1469.641382 1359.548605 
L 1467.033053 1360.116166 
L 1464.378236 1360.538082 
L 1460.312917 1360.9022 
L 1456.15449 1360.953048 
L 1451.911492 1360.705058 
L 1447.593439 1360.176939 
L 1443.210564 1359.391454 
L 1438.773539 1358.375106 
L 1434.293192 1357.157738 
L 1428.270476 1355.278784 
L 1420.69723 1352.637808 
L 1398.042887 1344.444374 
L 1392.08017 1342.605164 
L 1387.637056 1341.415075 
L 1383.218506 1340.417108 
L 1378.823014 1339.634015 
L 1374.448 1339.084362 
L 1370.089954 1338.782245 
L 1365.744608 1338.737091 
L 1361.407128 1338.95354 
L 1357.072318 1339.43141 
L 1352.734849 1340.165752 
L 1348.389481 1341.146978 
L 1344.031308 1342.361063 
L 1339.655995 1343.789824 
L 1333.78963 1345.990235 
L 1327.881248 1348.471312 
L 1320.435278 1351.859393 
L 1296.348624 1363.081116 
L 1290.367715 1365.542162 
L 1284.464516 1367.705469 
L 1280.112143 1369.089587 
L 1275.844553 1370.239021 
L 1271.681289 1371.129412 
L 1267.642559 1371.739424 
L 1263.748861 1372.05094 
L 1260.020567 1372.049206 
L 1258.818007 1371.976963 
L 1258.818007 1371.976963 
" clip-path="url(#p19a3576f7c)" style="fill: none; stroke: #4169e1; stroke-width: 3; stroke-linecap: square"/>
   </g>
   <g id="line2d_2">
    <path d="M 1233.569443 1428.394158 
L 1231.640408 1428.004131 
L 1229.789812 1427.437245 
L 1228.021904 1426.692174 
L 1226.340617 1425.768396 
L 1224.749517 1424.666175 
L 1223.251758 1423.38654 
L 1221.850041 1421.931264 
L 1220.546573 1420.30283 
L 1219.34303 1418.504402 
L 1218.240526 1416.539789 
L 1217.239587 1414.413405 
L 1216.340127 1412.130229 
L 1215.179474 1408.423642 
L 1214.24028 1404.397281 
L 1213.514175 1400.073723 
L 1212.989566 1395.477241 
L 1212.651744 1390.633439 
L 1212.483054 1385.568902 
L 1212.48566 1378.519918 
L 1212.776248 1369.324355 
L 1213.500685 1355.959282 
L 1214.444297 1338.418487 
L 1214.712923 1328.717095 
L 1214.687318 1321.064348 
L 1214.489553 1315.418044 
L 1214.114328 1309.871414 
L 1213.542353 1304.440944 
L 1212.75708 1299.142026 
L 1211.744899 1293.989049 
L 1210.495291 1288.995514 
L 1209.000926 1284.174154 
L 1207.257706 1279.537059 
L 1205.264764 1275.095804 
L 1203.02441 1270.861557 
L 1200.542026 1266.845195 
L 1197.825923 1263.057381 
L 1194.887148 1259.508635 
L 1191.739262 1256.20937 
L 1188.398071 1253.169906 
L 1184.881328 1250.400442 
L 1181.208417 1247.911008 
L 1177.399997 1245.711375 
L 1173.477641 1243.810939 
L 1169.46346 1242.218564 
L 1165.379714 1240.942411 
L 1161.248428 1239.989724 
L 1157.091017 1239.366607 
L 1154.315041 1239.136682 
L 1151.542307 1239.05636 
L 1148.778257 1239.126281 
L 1146.027987 1239.346686 
L 1143.296216 1239.717388 
L 1140.58725 1240.237732 
L 1137.904957 1240.906565 
L 1135.252742 1241.722205 
L 1131.337074 1243.215868 
L 1127.503303 1245.024619 
L 1123.756633 1247.135293 
L 1120.099717 1249.531491 
L 1116.532726 1252.193521 
L 1113.053491 1255.098397 
L 1109.657698 1258.219903 
L 1106.339144 1261.528721 
L 1102.020921 1266.17579 
L 1096.763358 1272.244078 
L 1080.470694 1291.543103 
L 1076.419541 1295.828607 
L 1073.371588 1298.780894 
L 1070.314617 1301.467754 
L 1067.250539 1303.855142 
L 1064.183761 1305.912146 
L 1061.121185 1307.611409 
L 1059.086303 1308.533755 
L 1057.060696 1309.280675 
L 1055.0481 1309.847104 
L 1053.052631 1310.228856 
L 1051.078747 1310.422641 
L 1049.131199 1310.426063 
L 1047.21499 1310.237627 
L 1045.335313 1309.856723 
L 1043.497506 1309.283613 
L 1041.706985 1308.519405 
L 1039.969196 1307.566022 
L 1038.289547 1306.426162 
L 1036.673356 1305.103261 
L 1035.125791 1303.601436 
L 1033.651815 1301.925438 
L 1032.256134 1300.080586 
L 1030.943145 1298.072716 
L 1029.716892 1295.908107 
L 1028.581025 1293.593421 
L 1027.053608 1289.855321 
L 1025.74556 1285.819799 
L 1024.66322 1281.512085 
L 1023.810266 1276.957637 
L 1023.18766 1272.181667 
L 1022.793646 1267.208698 
L 1022.623815 1262.062171 
L 1022.671222 1256.764098 
L 1022.926559 1251.334782 
L 1023.378355 1245.7926 
L 1024.262965 1238.255321 
L 1025.43665 1230.57882 
L 1026.859157 1222.789062 
L 1028.921298 1212.921974 
L 1031.696184 1200.924251 
L 1041.439103 1159.959169 
L 1043.576272 1149.542987 
L 1045.100461 1141.189969 
L 1046.425486 1132.841096 
L 1047.522383 1124.522478 
L 1048.364675 1116.265691 
L 1048.928388 1108.107392 
L 1049.155374 1102.077831 
L 1049.205499 1096.145231 
L 1049.071566 1090.328878 
L 1048.747276 1084.648428 
L 1048.227259 1079.123503 
L 1047.507107 1073.773288 
L 1046.58341 1068.616101 
L 1045.453774 1063.66898 
L 1044.116847 1058.947288 
L 1042.572324 1054.464349 
L 1040.820954 1050.23113 
L 1038.864526 1046.25598 
L 1036.705849 1042.544435 
L 1034.348726 1039.099097 
L 1031.797908 1035.919598 
L 1029.059055 1033.002638 
L 1026.138678 1030.342119 
L 1023.044089 1027.92935 
L 1019.783345 1025.753343 
L 1016.36519 1023.801167 
L 1012.799017 1022.058379 
L 1009.094813 1020.509492 
L 1005.263135 1019.138492 
L 1001.315072 1017.929375 
L 995.890082 1016.542463 
L 990.307787 1015.382566 
L 984.598647 1014.421745 
L 978.794649 1013.639337 
L 971.457367 1012.89487 
L 964.092571 1012.408932 
L 958.228597 1012.220272 
L 952.429663 1012.232532 
L 946.733201 1012.475888 
L 941.176229 1012.987233 
L 937.121667 1013.57153 
L 933.180169 1014.348485 
L 929.365253 1015.336834 
L 925.689315 1016.554882 
L 922.163387 1018.019903 
L 918.79689 1019.747559 
L 915.59741 1021.751358 
L 913.560034 1023.246123 
L 911.600489 1024.870985 
L 909.719409 1026.627764 
L 907.916948 1028.517584 
L 905.359793 1031.602432 
L 902.975397 1034.985491 
L 900.757952 1038.661002 
L 898.699123 1042.619289 
L 896.788146 1046.846838 
L 895.011967 1051.326458 
L 893.355447 1056.037535 
L 891.303328 1062.637595 
L 889.389265 1069.542987 
L 886.672124 1080.317901 
L 881.666173 1100.581265 
L 879.166209 1109.648369 
L 876.989528 1116.694576 
L 874.621462 1123.480087 
L 872.704963 1128.359088 
L 870.659556 1133.030153 
L 868.480162 1137.470638 
L 866.164061 1141.660254 
L 863.710793 1145.581171 
L 861.12201 1149.218101 
L 858.401271 1152.558347 
L 855.553806 1155.591842 
L 852.586243 1158.311169 
L 849.506313 1160.711552 
L 846.322548 1162.790848 
L 843.043976 1164.549508 
L 839.679824 1165.990527 
L 836.239244 1167.11937 
L 832.73106 1167.943881 
L 829.163556 1168.474157 
L 825.544295 1168.722409 
L 821.879995 1168.702775 
L 818.176437 1168.431118 
L 814.43843 1167.924779 
L 810.669823 1167.202299 
L 806.873553 1166.283117 
L 801.772399 1164.786152 
L 796.628973 1163.022821 
L 790.142815 1160.515104 
L 782.278762 1157.171763 
L 773.000668 1152.96514 
L 759.603254 1146.626493 
L 748.85995 1141.343882 
L 740.873529 1137.205008 
L 734.324059 1133.572961 
L 729.189349 1130.500618 
L 724.17742 1127.239061 
L 719.3166 1123.748775 
L 715.787385 1120.957484 
L 712.371283 1118.0001 
L 709.080066 1114.862447 
L 705.925164 1111.532108 
L 702.917562 1107.998829 
L 700.067722 1104.25486 
L 697.385518 1100.29524 
L 694.880195 1096.118011 
L 692.560342 1091.724374 
L 690.433883 1087.118758 
L 688.508079 1082.308831 
L 686.789537 1077.305439 
L 685.28423 1072.122481 
L 683.997511 1066.776734 
L 682.934129 1061.287621 
L 682.098235 1055.676945 
L 681.493382 1049.968592 
L 681.122514 1044.188209 
L 680.987935 1038.362866 
L 681.091278 1032.520726 
L 681.433446 1026.690697 
L 682.014557 1020.902113 
L 682.833867 1015.184414 
L 683.889697 1009.566852 
L 685.179358 1004.078215 
L 686.699073 998.746572 
L 688.443918 993.59904 
L 690.407764 988.661572 
L 692.583249 983.958766 
L 694.96176 979.513688 
L 697.533446 975.347708 
L 700.287263 971.480353 
L 703.211039 967.92916 
L 705.248167 965.745046 
L 707.35085 963.712361 
L 709.514796 961.834656 
L 711.735579 960.115005 
L 714.008667 958.555982 
L 716.329446 957.159654 
L 718.693251 955.927557 
L 721.095398 954.860685 
L 723.531212 953.959477 
L 725.996062 953.2238 
L 728.485389 952.652943 
L 730.994747 952.245602 
L 733.519825 951.999875 
L 736.056483 951.913256 
L 738.600781 951.982632 
L 741.149006 952.204279 
L 744.971211 952.812631 
L 748.78403 953.736604 
L 752.5785 954.956139 
L 756.347302 956.448364 
L 760.084828 958.187766 
L 763.787202 960.146418 
L 767.452265 962.294243 
L 772.280314 965.396899 
L 778.226017 969.546586 
L 788.729019 977.285056 
L 795.647544 982.247587 
L 800.251013 985.312528 
L 804.863307 988.09924 
L 808.335378 989.968104 
L 811.822828 991.620673 
L 815.328397 993.035935 
L 818.853561 994.195823 
L 822.398409 995.085267 
L 825.96156 995.692185 
L 829.540117 996.007415 
L 833.129664 996.024571 
L 836.724301 995.73986 
L 840.316709 995.151847 
L 843.898262 994.26118 
L 847.459157 993.070295 
L 850.988585 991.583106 
L 854.474912 989.804685 
L 857.905891 987.740962 
L 861.268882 985.398433 
L 864.551087 982.783901 
L 867.739781 979.904253 
L 870.822556 976.766287 
L 873.787553 973.376574 
L 876.623693 969.74139 
L 879.32089 965.86669 
L 881.87026 961.758145 
L 884.264307 957.421216 
L 886.497092 952.861296 
L 888.564386 948.083871 
L 890.463791 943.094728 
L 892.194849 937.900179 
L 893.759116 932.507299 
L 895.160211 926.924167 
L 896.40384 921.160095 
L 897.497786 915.225841 
L 898.740811 907.070427 
L 899.764136 898.668953 
L 900.602267 890.061593 
L 901.45043 879.083673 
L 902.555855 861.260539 
L 903.700381 843.541755 
L 904.619145 832.749355 
L 905.54747 824.374722 
L 906.699005 816.297632 
L 907.735382 810.469807 
L 908.938291 804.863855 
L 910.322449 799.499684 
L 911.900604 794.394715 
L 913.683378 789.563643 
L 915.679157 785.018259 
L 917.89401 780.767324 
L 919.494219 778.099879 
L 921.194017 775.566805 
L 922.993467 773.168417 
L 924.892182 770.904441 
L 926.889341 768.774034 
L 928.983697 766.7758 
L 931.173604 764.907822 
L 933.457032 763.167693 
L 935.831595 761.552544 
L 939.558283 759.356863 
L 943.473409 757.422233 
L 947.565236 755.734364 
L 951.820955 754.277659 
L 956.226933 753.035539 
L 960.768951 751.990752 
L 965.432447 751.125667 
L 971.814044 750.221121 
L 978.351061 749.562975 
L 985.010113 749.110942 
L 993.457503 748.777524 
L 1003.701289 748.625937 
L 1017.402297 748.669965 
L 1044.371845 748.799621 
L 1054.189619 748.623581 
L 1062.206259 748.301062 
L 1070.054772 747.776063 
L 1077.719491 747.009341 
L 1083.709102 746.196222 
L 1089.564771 745.185182 
L 1095.280092 743.958479 
L 1100.849391 742.499724 
L 1106.267946 740.794223 
L 1110.230777 739.345469 
L 1114.105873 737.746267 
L 1117.892829 735.992954 
L 1121.591828 734.082748 
L 1125.203701 732.013813 
L 1128.729955 729.785313 
L 1132.172808 727.397458 
L 1135.535199 724.85155 
L 1139.89964 721.215529 
L 1144.13818 717.312036 
L 1148.263401 713.153984 
L 1152.289633 708.758337 
L 1156.232601 704.146291 
L 1161.069688 698.116405 
L 1166.784018 690.573236 
L 1176.233483 677.598523 
L 1183.852816 667.289048 
L 1188.6815 661.097461 
L 1192.590018 656.384286 
L 1196.540365 651.956749 
L 1200.530152 647.882908 
L 1203.545002 645.100554 
L 1206.575124 642.583528 
L 1209.615767 640.359039 
L 1212.661175 638.452978 
L 1215.704641 636.889495 
L 1217.728822 636.048458 
L 1219.74632 635.375411 
L 1221.754525 634.875701 
L 1223.750681 634.554073 
L 1225.731902 634.414621 
L 1227.695179 634.460749 
L 1229.637394 634.695131 
L 1231.555331 635.119683 
L 1233.445689 635.735532 
L 1235.305091 636.542997 
L 1237.130103 637.541573 
L 1238.917239 638.729921 
L 1240.662983 640.105871 
L 1242.363792 641.666421 
L 1244.01612 643.407753 
L 1245.616424 645.325251 
L 1247.91164 648.519825 
L 1250.070159 652.077226 
L 1252.080538 655.972779 
L 1253.931739 660.178764 
L 1255.613244 664.66486 
L 1257.115184 669.398631 
L 1258.428459 674.346056 
L 1259.544873 679.472093 
L 1260.457255 684.74126 
L 1261.159587 690.118215 
L 1261.64712 695.568346 
L 1261.916485 701.058326 
L 1261.965787 706.556656 
L 1261.794685 712.034159 
L 1261.404457 717.464426 
L 1260.798033 722.824215 
L 1259.980012 728.093768 
L 1258.956644 733.257074 
L 1257.735793 738.302043 
L 1256.326867 743.220612 
L 1254.740714 748.008766 
L 1252.989505 752.66648 
L 1251.086581 757.197586 
L 1248.338259 763.055539 
L 1245.381981 768.729026 
L 1242.255651 774.254166 
L 1238.167697 781.018938 
L 1229.676512 794.452215 
L 1224.570771 802.728893 
L 1220.408779 809.900948 
L 1217.180825 815.877989 
L 1214.071559 822.103727 
L 1211.104845 828.60116 
L 1208.302831 835.382455 
L 1205.686476 842.448105 
L 1203.276124 849.786485 
L 1201.092064 857.373836 
L 1199.614964 863.206822 
L 1198.285824 869.141106 
L 1197.113985 875.154513 
L 1196.109117 881.222073 
L 1195.281202 887.316448 
L 1194.64047 893.408409 
L 1194.197302 899.46737 
L 1193.962091 905.461958 
L 1193.945064 911.360606 
L 1194.156078 917.132175 
L 1194.604388 922.746578 
L 1195.298396 928.175388 
L 1196.245389 933.39244 
L 1197.451279 938.374394 
L 1198.920346 943.101245 
L 1200.047206 946.102585 
L 1201.292355 948.979475 
L 1202.655561 951.729005 
L 1204.136136 954.34917 
L 1205.732914 956.838896 
L 1207.444242 959.198062 
L 1209.267965 961.427509 
L 1211.201426 963.529037 
L 1213.241465 965.505402 
L 1215.38442 967.360295 
L 1217.626142 969.098318 
L 1221.163668 971.49843 
L 1224.895382 973.670046 
L 1228.801623 975.63891 
L 1232.860811 977.434085 
L 1238.470599 979.612792 
L 1245.716987 982.105779 
L 1263.469323 987.995533 
L 1269.277401 990.218333 
L 1273.533368 992.047547 
L 1277.676313 994.044639 
L 1281.683043 996.231697 
L 1285.531763 998.626812 
L 1289.202216 1001.243835 
L 1292.675789 1004.092244 
L 1295.935606 1007.177117 
L 1298.966582 1010.499209 
L 1300.853481 1012.844215 
L 1302.629281 1015.291253 
L 1304.290886 1017.83763 
L 1305.835574 1020.479987 
L 1307.260992 1023.214358 
L 1309.171267 1027.478441 
L 1310.803729 1031.92215 
L 1312.155181 1036.526501 
L 1313.224334 1041.271245 
L 1314.011815 1046.135455 
L 1314.52019 1051.098098 
L 1314.753975 1056.138577 
L 1314.719659 1061.237233 
L 1314.425722 1066.375783 
L 1313.88264 1071.537691 
L 1313.102894 1076.708457 
L 1312.100948 1081.875819 
L 1310.893223 1087.029857 
L 1309.498035 1092.163012 
L 1307.381227 1098.965907 
L 1305.019524 1105.715715 
L 1301.810449 1114.076789 
L 1297.055278 1125.652496 
L 1291.007202 1140.353931 
L 1287.931916 1148.442613 
L 1285.72515 1154.866539 
L 1283.806911 1161.23599 
L 1282.589484 1165.966436 
L 1281.583919 1170.64581 
L 1280.807695 1175.262102 
L 1280.27575 1179.801681 
L 1280.000311 1184.249608 
L 1279.990778 1188.590027 
L 1280.25364 1192.80661 
L 1280.792457 1196.883044 
L 1281.607868 1200.803536 
L 1282.697667 1204.55333 
L 1284.056906 1208.119194 
L 1285.678052 1211.489874 
L 1287.551179 1214.656499 
L 1289.664191 1217.612897 
L 1292.003076 1220.355841 
L 1294.552185 1222.885184 
L 1297.29453 1225.203896 
L 1300.212091 1227.317987 
L 1303.28613 1229.236326 
L 1306.497515 1230.970355 
L 1309.827027 1232.533717 
L 1313.255674 1233.941797 
L 1317.949581 1235.606508 
L 1322.745469 1237.065738 
L 1328.826324 1238.662512 
L 1336.16633 1240.340128 
L 1347.09507 1242.565232 
L 1360.13395 1244.997314 
L 1369.394496 1246.515867 
L 1376.271322 1247.421465 
L 1381.999632 1247.965092 
L 1387.761473 1248.278766 
L 1393.587983 1248.34086 
L 1399.50384 1248.149274 
L 1405.523413 1247.725347 
L 1412.883705 1246.976959 
L 1432.898661 1244.756298 
L 1437.840122 1244.446565 
L 1442.676856 1244.353794 
L 1446.206688 1244.460784 
L 1449.629026 1244.743707 
L 1452.922068 1245.222416 
L 1456.064068 1245.914263 
L 1459.033805 1246.833815 
L 1461.811032 1247.992665 
L 1464.376925 1249.399341 
L 1465.961638 1250.47763 
L 1467.440333 1251.669434 
L 1468.808995 1252.975066 
L 1470.064135 1254.3943 
L 1471.202821 1255.926402 
L 1472.222707 1257.570169 
L 1473.122055 1259.32397 
L 1473.899749 1261.18579 
L 1474.555306 1263.153278 
L 1475.310123 1266.296782 
L 1475.793715 1269.662115 
L 1476.012227 1273.238451 
L 1475.974634 1277.014357 
L 1475.692472 1280.978054 
L 1475.179503 1285.117619 
L 1474.451316 1289.421132 
L 1473.175114 1295.393729 
L 1471.589218 1301.608904 
L 1469.73717 1308.038799 
L 1467.112324 1316.334667 
L 1463.607501 1326.590434 
L 1459.163573 1338.823681 
L 1454.446678 1351.137195 
L 1450.22702 1361.555474 
L 1446.585337 1369.992735 
L 1443.579068 1376.49226 
L 1440.476826 1382.695647 
L 1437.263874 1388.533431 
L 1434.772204 1392.630425 
L 1432.203253 1396.455115 
L 1429.551258 1399.981123 
L 1426.811281 1403.184231 
L 1423.979442 1406.04298 
L 1422.039161 1407.74839 
L 1420.056413 1409.288164 
L 1418.03104 1410.658676 
L 1415.963178 1411.857181 
L 1413.853257 1412.88186 
L 1411.701996 1413.731864 
L 1409.510401 1414.407348 
L 1407.279746 1414.909491 
L 1405.011563 1415.24052 
L 1402.707624 1415.403705 
L 1400.369911 1415.403364 
L 1398.000599 1415.244846 
L 1394.392535 1414.724657 
L 1390.727086 1413.88862 
L 1387.013123 1412.766838 
L 1383.259727 1411.393565 
L 1379.475958 1409.806666 
L 1374.398855 1407.429483 
L 1368.028081 1404.183795 
L 1354.061133 1396.954795 
L 1349.033239 1394.622451 
L 1345.286033 1393.070941 
L 1341.559757 1391.727474 
L 1337.853807 1390.622216 
L 1334.166602 1389.780628 
L 1330.495701 1389.223066 
L 1326.837924 1388.964476 
L 1323.189509 1389.014188 
L 1319.546273 1389.375811 
L 1315.903791 1390.047227 
L 1312.257588 1391.020683 
L 1308.603334 1392.282975 
L 1304.937043 1393.815724 
L 1301.255278 1395.595721 
L 1297.555343 1397.595357 
L 1292.590946 1400.548213 
L 1286.334622 1404.580541 
L 1266.096305 1417.936085 
L 1261.070968 1420.865102 
L 1257.343033 1422.834083 
L 1253.665804 1424.567475 
L 1250.054516 1426.031969 
L 1246.525334 1427.19744 
L 1243.095086 1428.037267 
L 1239.780952 1428.528588 
L 1237.644536 1428.653016 
L 1235.572398 1428.609467 
L 1234.561972 1428.523487 
L 1234.561972 1428.523487 
" clip-path="url(#p19a3576f7c)" style="fill: none; stroke: #ff8c00; stroke-width: 3; stroke-linecap: square"/>
   </g>
  </g>
 </g>
 <defs>
  <clipPath id="p19a3576f7c">
   <rect x="270" y="259.2" width="1674" height="1630.8"/>
  </clipPath>
 </defs>
</svg>
