<?xml version="1.0" encoding="utf-8" standalone="no"?>
<!DOCTYPE svg PUBLIC "-//W3C//DTD SVG 1.1//EN"
  "http://www.w3.org/Graphics/SVG/1.1/DTD/svg11.dtd">
<svg xmlns:xlink="http://www.w3.org/1999/xlink" width="2160pt" height="2160pt" viewBox="0 0 2160 2160" xmlns="http://www.w3.org/2000/svg" version="1.1">
 <metadata>
  <rdf:RDF xmlns:dc="http://purl.org/dc/elements/1.1/" xmlns:cc="http://creativecommons.org/ns#" xmlns:rdf="http://www.w3.org/1999/02/22-rdf-syntax-ns#">
   <cc:Work>
    <dc:type rdf:resource="http://purl.org/dc/dcmitype/StillImage"/>
    <dc:date>2022-03-06T19:21:06.587147</dc:date>
    <dc:format>image/svg+xml</dc:format>
    <dc:creator>
     <cc:Agent>
      <dc:title>Matplotlib v3.5.1, https://matplotlib.org/</dc:title>
     </cc:Agent>
    </dc:creator>
   </cc:Work>
  </rdf:RDF>
 </metadata>
 <defs>
  <style type="text/css">*{stroke-linejoin: round; stroke-linecap: butt}</style>
 </defs>
 <g id="figure_1">
  <g id="patch_1">
   <path d="M 0 2160 
L 2160 2160 
L 2160 0 
L 0 0 
L 0 2160 
z
" style="fill: none"/>
  </g>
  <g id="axes_1">
   <g id="line2d_1">
    <path d="M 1257.636748 1371.868297 
L 1255.340905 1371.540585 
L 1253.138416 1371.06427 
L 1251.034339 1370.43824 
L 1249.033353 1369.662054 
L 1247.139704 1368.735935 
L 1245.357144 1367.660749 
L 1243.68889 1366.437982 
L 1242.137566 1365.069724 
L 1240.705168 1363.558632 
L 1239.393022 1361.907906 
L 1238.201754 1360.121256 
L 1237.131261 1358.202864 
L 1236.180693 1356.157351 
L 1235.348441 1353.98974 
L 1234.316492 1350.521251 
L 1233.533973 1346.809702 
L 1232.985834 1342.875897 
L 1232.653373 1338.741655 
L 1232.514466 1334.429522 
L 1232.586292 1328.443058 
L 1232.889706 1322.236104 
L 1233.615312 1312.630981 
L 1234.774959 1297.907102 
L 1235.107597 1291.365851 
L 1235.216435 1284.888656 
L 1235.107636 1280.096815 
L 1234.804605 1275.378941 
L 1234.282372 1270.74954 
L 1233.519036 1266.22215 
L 1232.496045 1261.809412 
L 1231.198411 1257.523158 
L 1229.614869 1253.374505 
L 1227.737975 1249.373959 
L 1226.321808 1246.794168 
L 1224.77347 1244.287516 
L 1223.093595 1241.856799 
L 1221.283547 1239.504755 
L 1219.345404 1237.23408 
L 1217.281933 1235.047435 
L 1213.959407 1231.930782 
L 1210.376932 1229.017927 
L 1206.551573 1226.317592 
L 1202.502954 1223.838419 
L 1198.252898 1221.588936 
L 1193.825025 1219.577507 
L 1189.244337 1217.812251 
L 1184.536771 1216.300927 
L 1179.728752 1215.050805 
L 1174.846731 1214.068506 
L 1169.91673 1213.359819 
L 1164.963895 1212.929506 
L 1160.012071 1212.781089 
L 1155.083403 1212.91663 
L 1150.197977 1213.336505 
L 1145.373497 1214.039181 
L 1140.625029 1215.021011 
L 1135.964793 1216.27603 
L 1131.402027 1217.795797 
L 1126.942924 1219.569247 
L 1122.590641 1221.582603 
L 1118.345383 1223.81932 
L 1114.204568 1226.260082 
L 1110.163062 1228.882863 
L 1106.213481 1231.663031 
L 1101.074144 1235.567635 
L 1094.816851 1240.666389 
L 1075.42612 1256.882001 
L 1070.604637 1260.482807 
L 1066.977112 1262.963406 
L 1063.338855 1265.220985 
L 1059.692139 1267.226939 
L 1056.042211 1268.955295 
L 1052.397283 1270.383065 
L 1048.76843 1271.490548 
L 1045.169395 1272.261562 
L 1042.794486 1272.582322 
L 1040.445265 1272.745145 
L 1038.12739 1272.748021 
L 1035.846811 1272.589691 
L 1033.609712 1272.269644 
L 1031.422443 1271.788101 
L 1029.291454 1271.145991 
L 1027.223222 1270.34493 
L 1025.224187 1269.387186 
L 1023.300675 1268.275645 
L 1021.458839 1267.013768 
L 1019.704586 1265.605544 
L 1018.043514 1264.055446 
L 1016.480858 1262.368374 
L 1015.021432 1260.549606 
L 1013.669579 1258.604738 
L 1012.429127 1256.53963 
L 1011.303352 1254.36035 
L 1010.294948 1252.073111 
L 1009.006799 1248.453642 
L 1007.991656 1244.626861 
L 1007.250661 1240.61395 
L 1006.781725 1236.435515 
L 1006.579599 1232.111251 
L 1006.636022 1227.659654 
L 1006.939911 1223.097782 
L 1007.477616 1218.441077 
L 1008.233201 1213.703235 
L 1009.18876 1208.89615 
L 1010.739925 1202.396163 
L 1012.561898 1195.809896 
L 1015.139992 1187.476743 
L 1018.535188 1177.352894 
L 1027.329707 1151.551684 
L 1030.022524 1142.824844 
L 1031.989917 1135.815395 
L 1033.748066 1128.796012 
L 1035.260285 1121.785159 
L 1036.492843 1114.805937 
L 1037.21511 1109.608743 
L 1037.750817 1104.458024 
L 1038.089047 1099.368157 
L 1038.21987 1094.354478 
L 1038.134376 1089.433022 
L 1037.824705 1084.620237 
L 1037.284094 1079.932656 
L 1036.506912 1075.386562 
L 1035.4887 1070.997628 
L 1034.226202 1066.780566 
L 1032.717395 1062.748789 
L 1030.961499 1058.914096 
L 1028.958988 1055.286388 
L 1026.711581 1051.873434 
L 1024.22222 1048.680688 
L 1021.495041 1045.711166 
L 1018.535328 1042.96539 
L 1015.349464 1040.441399 
L 1011.944867 1038.134838 
L 1008.329929 1036.039105 
L 1004.51395 1034.145582 
L 1000.507072 1032.44391 
L 996.320222 1030.922334 
L 991.965057 1029.568089 
L 987.453916 1028.367816 
L 981.218978 1026.983667 
L 974.762421 1025.818343 
L 968.118647 1024.843764 
L 959.606057 1023.858575 
L 950.932502 1023.10311 
L 942.17697 1022.56356 
L 933.422181 1022.246192 
L 924.753667 1022.177331 
L 917.939364 1022.330551 
L 911.280154 1022.700751 
L 904.819134 1023.322077 
L 900.128156 1023.974898 
L 895.58783 1024.805339 
L 891.212909 1025.828778 
L 887.016522 1027.059732 
L 883.009883 1028.51136 
L 879.202018 1030.195011 
L 875.599516 1032.119812 
L 872.206309 1034.292311 
L 869.023494 1036.716184 
L 866.049211 1039.39202 
L 863.27857 1042.317175 
L 860.703649 1045.485712 
L 858.313549 1048.888413 
L 856.094529 1052.512875 
L 854.030195 1056.34367 
L 852.101766 1060.362571 
L 849.705645 1065.977539 
L 847.459944 1071.834723 
L 844.247142 1080.941351 
L 838.818722 1096.430226 
L 836.45963 1102.541154 
L 833.920492 1108.507305 
L 831.87411 1112.850688 
L 829.690702 1117.055146 
L 827.359486 1121.09862 
L 824.872519 1124.960825 
L 822.224701 1128.623383 
L 819.413707 1132.069926 
L 816.439851 1135.286179 
L 813.305883 1138.260017 
L 810.016738 1140.981507 
L 806.579232 1143.442931 
L 803.001729 1145.638797 
L 799.293789 1147.565832 
L 795.465803 1149.222967 
L 791.528634 1150.611297 
L 787.493269 1151.73404 
L 783.370499 1152.596463 
L 779.170641 1153.2058 
L 774.903286 1153.571143 
L 770.577117 1153.703307 
L 766.199765 1153.614678 
L 761.777726 1153.319021 
L 757.31634 1152.83127 
L 751.313741 1151.909637 
L 745.255683 1150.714062 
L 739.14656 1149.284672 
L 731.441919 1147.229351 
L 722.099675 1144.4644 
L 709.490365 1140.444704 
L 691.945338 1134.573123 
L 677.577834 1129.538765 
L 668.118897 1126.001932 
L 660.387627 1122.877912 
L 654.345448 1120.221061 
L 648.466162 1117.38867 
L 642.783762 1114.347584 
L 638.671638 1111.910608 
L 634.703514 1109.325988 
L 630.893145 1106.582759 
L 627.253792 1103.671665 
L 623.798124 1100.585465 
L 620.538132 1097.319184 
L 617.485073 1093.870321 
L 614.649431 1090.238989 
L 612.040902 1086.428003 
L 609.668389 1082.4429 
L 607.540014 1078.291914 
L 605.663134 1073.985882 
L 604.044363 1069.538113 
L 602.689592 1064.96421 
L 601.603998 1060.281852 
L 600.792049 1055.510556 
L 600.257491 1050.671407 
L 600.003325 1045.786784 
L 600.031767 1040.880077 
L 600.34419 1035.975395 
L 600.941053 1031.097299 
L 601.821823 1026.270522 
L 602.984883 1021.519724 
L 604.427443 1016.869246 
L 606.14545 1012.342897 
L 608.133504 1007.963748 
L 610.384797 1003.753952 
L 612.891057 999.734572 
L 615.642531 995.925435 
L 618.627981 992.344985 
L 621.834731 989.010159 
L 625.248728 985.936263 
L 627.632349 984.03873 
L 630.096476 982.266793 
L 632.636092 980.623632 
L 635.246003 979.112033 
L 637.920877 977.734369 
L 642.043053 975.923154 
L 646.280442 974.422314 
L 650.614243 973.23427 
L 655.025816 972.359054 
L 659.496976 971.794222 
L 664.010279 971.534806 
L 668.549305 971.573267 
L 673.098917 971.899481 
L 677.645495 972.500756 
L 682.177137 973.361878 
L 686.683815 974.465189 
L 691.157491 975.790715 
L 695.592176 977.316321 
L 699.983945 979.017911 
L 705.769864 981.515616 
L 711.477059 984.21506 
L 719.904987 988.492506 
L 736.443566 997.002776 
L 741.922389 999.57803 
L 747.411716 1001.919508 
L 751.544005 1003.489782 
L 755.694596 1004.878319 
L 759.866753 1006.067465 
L 764.06223 1007.042037 
L 768.281135 1007.789373 
L 772.521823 1008.299324 
L 776.780846 1008.56419 
L 781.052949 1008.578604 
L 785.331109 1008.339382 
L 789.606617 1007.845316 
L 793.869206 1007.096951 
L 798.107209 1006.096335 
L 802.307761 1004.846754 
L 806.457016 1003.352473 
L 810.540399 1001.618472 
L 814.542867 999.65021 
L 818.449186 997.453403 
L 822.244213 995.033838 
L 825.913181 992.397226 
L 829.441975 989.549089 
L 832.81741 986.4947 
L 836.027482 983.239063 
L 839.061617 979.786941 
L 841.910895 976.142926 
L 844.568246 972.311547 
L 847.028637 968.297413 
L 849.289216 964.105388 
L 851.349437 959.740775 
L 853.211151 955.209518 
L 854.878665 950.518405 
L 856.358771 945.675262 
L 857.660733 940.689127 
L 858.796244 935.570403 
L 860.075933 928.559954 
L 861.124335 921.367605 
L 862.179885 912.178984 
L 863.207922 900.974025 
L 865.042757 880.458041 
L 865.895017 873.182147 
L 866.942082 866.091023 
L 867.889768 860.925664 
L 869.00187 855.914885 
L 870.299299 851.078338 
L 871.801013 846.434009 
L 873.523768 841.997953 
L 875.48191 837.784065 
L 876.924031 835.104037 
L 878.47888 832.530748 
L 880.148733 830.066506 
L 881.935319 827.71311 
L 883.839809 825.471845 
L 885.862825 823.343481 
L 888.004442 821.328284 
L 890.264201 819.426025 
L 892.64112 817.635994 
L 895.133721 815.957019 
L 897.740041 814.387489 
L 901.857344 812.233871 
L 906.215068 810.31344 
L 910.801384 808.616065 
L 915.602811 807.130163 
L 920.604502 805.842965 
L 925.790522 804.740787 
L 931.144151 803.809293 
L 936.648163 803.033748 
L 944.190607 802.216536 
L 951.928189 801.615009 
L 961.813615 801.114484 
L 971.867284 800.834336 
L 984.058937 800.706968 
L 1002.39851 800.756758 
L 1032.46304 800.852902 
L 1046.070938 800.662797 
L 1057.450138 800.279828 
L 1066.705718 799.761384 
L 1075.735466 799.026872 
L 1082.7853 798.26244 
L 1089.671817 797.32413 
L 1096.387798 796.197568 
L 1102.92702 794.869661 
L 1109.284549 793.32888 
L 1115.457062 791.565548 
L 1121.443166 789.572099 
L 1127.243689 787.343311 
L 1132.861927 784.876519 
L 1138.303803 782.171798 
L 1143.577943 779.232122 
L 1148.695638 776.063511 
L 1153.670696 772.675171 
L 1158.51918 769.079637 
L 1163.259032 765.292917 
L 1169.060659 760.32096 
L 1174.76237 755.128056 
L 1182.652218 747.596449 
L 1198.466455 732.365312 
L 1204.213318 727.162959 
L 1208.865045 723.20281 
L 1213.566554 719.482663 
L 1218.315003 716.0597 
L 1221.90313 713.721885 
L 1225.509433 711.607005 
L 1229.128256 709.737924 
L 1232.752752 708.136395 
L 1236.374936 706.82271 
L 1239.985765 705.815353 
L 1243.575211 705.130662 
L 1245.950939 704.86042 
L 1248.308891 704.743249 
L 1250.645487 704.782006 
L 1252.957016 704.978941 
L 1255.239651 705.335662 
L 1257.489462 705.853117 
L 1259.702431 706.531573 
L 1261.874471 707.370605 
L 1264.001433 708.369091 
L 1266.079131 709.525205 
L 1268.103351 710.836425 
L 1270.069871 712.299543 
L 1271.974475 713.910682 
L 1273.81297 715.665315 
L 1276.437696 718.554897 
L 1278.890606 721.735816 
L 1281.158388 725.185595 
L 1283.228301 728.879442 
L 1285.088324 732.790648 
L 1286.727307 736.89102 
L 1288.135118 741.151347 
L 1289.302799 745.541885 
L 1290.222716 750.032844 
L 1290.888698 754.594884 
L 1291.296173 759.199592 
L 1291.44229 763.819942 
L 1291.326019 768.430722 
L 1290.94823 773.00893 
L 1290.311753 777.534116 
L 1289.421398 781.988677 
L 1288.283953 786.35809 
L 1286.908146 790.631086 
L 1285.304571 794.799757 
L 1283.485583 798.859598 
L 1281.465162 802.809479 
L 1279.25874 806.651557 
L 1276.883016 810.391118 
L 1274.355733 814.036371 
L 1270.782431 818.769123 
L 1267.018224 823.38586 
L 1262.114962 829.051862 
L 1244.929069 848.546392 
L 1241.001535 853.429345 
L 1237.192301 858.501398 
L 1233.531646 863.788047 
L 1230.047409 869.306424 
L 1227.565664 873.602356 
L 1225.208226 878.032891 
L 1222.985315 882.594452 
L 1220.907084 887.280214 
L 1218.983764 892.080164 
L 1217.225791 896.981211 
L 1215.643914 901.967372 
L 1214.249249 907.020013 
L 1213.053304 912.118157 
L 1212.06796 917.23883 
L 1211.305392 922.357475 
L 1210.777955 927.448394 
L 1210.498019 932.485223 
L 1210.477754 937.441441 
L 1210.728893 942.290885 
L 1211.26245 947.008271 
L 1212.088423 951.569718 
L 1212.805874 954.513099 
L 1213.659355 957.371408 
L 1214.650679 960.139224 
L 1215.781259 962.81171 
L 1217.052064 965.38466 
L 1218.463589 967.854543 
L 1220.015825 970.218544 
L 1221.708226 972.474594 
L 1223.539693 974.621398 
L 1225.508549 976.658451 
L 1227.612529 978.586057 
L 1229.84877 980.405324 
L 1232.21381 982.118168 
L 1234.703589 983.7273 
L 1238.661813 985.954372 
L 1242.872003 987.971017 
L 1247.313305 989.795673 
L 1251.962322 991.449971 
L 1256.793369 992.958329 
L 1263.469864 994.788944 
L 1272.094159 996.883625 
L 1293.22212 1001.83237 
L 1300.13461 1003.700032 
L 1306.859771 1005.779674 
L 1311.73945 1007.508993 
L 1316.448174 1009.40338 
L 1320.960595 1011.476865 
L 1325.253243 1013.739868 
L 1329.304647 1016.199121 
L 1333.095423 1018.857667 
L 1336.608345 1021.71496 
L 1338.788416 1023.728414 
L 1340.834364 1025.826541 
L 1342.742728 1028.006791 
L 1344.510488 1030.26608 
L 1346.135066 1032.60084 
L 1347.614334 1035.007075 
L 1348.946603 1037.48042 
L 1350.130637 1040.016207 
L 1351.165642 1042.609522 
L 1352.051276 1045.255277 
L 1352.787647 1047.948269 
L 1353.375317 1050.683249 
L 1353.815304 1053.454979 
L 1354.201736 1057.670221 
L 1354.266251 1061.939739 
L 1354.018149 1066.247749 
L 1353.469107 1070.579837 
L 1352.633184 1074.923227 
L 1351.52681 1079.266974 
L 1350.168758 1083.602084 
L 1348.580085 1087.921547 
L 1346.784047 1092.220297 
L 1344.110829 1097.914387 
L 1341.179496 1103.562825 
L 1337.260164 1110.560685 
L 1323.038568 1135.289505 
L 1320.336918 1140.696726 
L 1318.521408 1144.724782 
L 1316.917331 1148.723211 
L 1315.54997 1152.684596 
L 1314.442013 1156.599869 
L 1313.613279 1160.458461 
L 1313.080491 1164.24852 
L 1312.857093 1167.957197 
L 1312.953125 1171.570995 
L 1313.197992 1173.920684 
L 1313.588897 1176.218027 
L 1314.126237 1178.459054 
L 1314.809727 1180.639937 
L 1315.638424 1182.757049 
L 1316.610736 1184.807015 
L 1317.724451 1186.786769 
L 1318.976763 1188.693592 
L 1320.364301 1190.525167 
L 1321.883165 1192.279606 
L 1324.397968 1194.763659 
L 1327.181594 1197.068361 
L 1330.215419 1199.19359 
L 1333.479224 1201.14184 
L 1336.951561 1202.918162 
L 1340.610132 1204.530006 
L 1344.432165 1205.986989 
L 1348.394787 1207.300572 
L 1353.85799 1208.85145 
L 1359.479277 1210.203775 
L 1366.654802 1211.667548 
L 1375.374034 1213.177066 
L 1386.995285 1214.924791 
L 1404.081648 1217.241531 
L 1416.549502 1218.753339 
L 1426.111292 1219.697632 
L 1434.291084 1220.266469 
L 1441.148545 1220.530027 
L 1448.082972 1220.582201 
L 1455.123735 1220.421224 
L 1463.735987 1219.973422 
L 1474.002407 1219.193962 
L 1493.385172 1217.658049 
L 1500.749699 1217.310098 
L 1506.506143 1217.23215 
L 1512.080367 1217.383997 
L 1516.105063 1217.674797 
L 1519.967215 1218.135209 
L 1523.64109 1218.779055 
L 1527.101758 1219.617756 
L 1530.325628 1220.660197 
L 1533.290975 1221.912685 
L 1535.978419 1223.378966 
L 1537.607334 1224.475997 
L 1539.10114 1225.668479 
L 1540.456348 1226.955797 
L 1541.670166 1228.336938 
L 1542.740526 1229.810533 
L 1543.6661 1231.37489 
L 1544.446311 1233.028031 
L 1545.081334 1234.767735 
L 1545.572084 1236.591573 
L 1545.920205 1238.496948 
L 1546.180267 1241.501891 
L 1546.135525 1244.674519 
L 1545.799711 1248.004934 
L 1545.1892 1251.483119 
L 1544.322547 1255.099058 
L 1543.219966 1258.842802 
L 1541.4198 1264.016208 
L 1539.289944 1269.375903 
L 1536.2416 1276.301275 
L 1532.850631 1283.431875 
L 1528.440644 1292.183594 
L 1522.954008 1302.525715 
L 1518.026486 1311.355632 
L 1513.775439 1318.573128 
L 1509.38213 1325.555722 
L 1505.749177 1330.899669 
L 1501.993445 1335.965642 
L 1499.085154 1339.547603 
L 1496.089842 1342.916307 
L 1493.000177 1346.048654 
L 1489.809595 1348.923029 
L 1486.512609 1351.519804 
L 1483.105076 1353.821824 
L 1479.584399 1355.814877 
L 1477.1739 1356.966422 
L 1474.712832 1357.973441 
L 1472.201707 1358.834406 
L 1469.641382 1359.548605 
L 1467.033053 1360.116166 
L 1464.378236 1360.538082 
L 1460.312917 1360.9022 
L 1456.15449 1360.953048 
L 1451.911492 1360.705058 
L 1447.593439 1360.176939 
L 1443.210564 1359.391454 
L 1438.773539 1358.375106 
L 1434.293192 1357.157738 
L 1428.270476 1355.278784 
L 1420.69723 1352.637808 
L 1398.042887 1344.444374 
L 1392.08017 1342.605164 
L 1387.637056 1341.415075 
L 1383.218506 1340.417108 
L 1378.823014 1339.634015 
L 1374.448 1339.084362 
L 1370.089954 1338.782245 
L 1365.744608 1338.737091 
L 1361.407128 1338.95354 
L 1357.072318 1339.43141 
L 1352.734849 1340.165752 
L 1348.389481 1341.146978 
L 1344.031308 1342.361063 
L 1339.655995 1343.789824 
L 1333.78963 1345.990235 
L 1327.881248 1348.471312 
L 1320.435278 1351.859393 
L 1296.348624 1363.081116 
L 1290.367715 1365.542162 
L 1284.464516 1367.705469 
L 1280.112143 1369.089587 
L 1275.844553 1370.239021 
L 1271.681289 1371.129412 
L 1267.642559 1371.739424 
L 1263.748861 1372.05094 
L 1260.020567 1372.049206 
L 1258.818007 1371.976963 
L 1258.818007 1371.976963 
" clip-path="url(#paee3d2adfa)" style="fill: none; stroke: #4169e1; stroke-width: 3; stroke-linecap: square"/>
   </g>
   <g id="line2d_2">
    <path d="M 1233.99186 1427.217322 
L 1232.056387 1426.828592 
L 1230.199615 1426.263592 
L 1228.425807 1425.520999 
L 1226.738908 1424.600294 
L 1225.142498 1423.501739 
L 1223.63974 1422.226361 
L 1222.233345 1420.775925 
L 1220.925527 1419.152908 
L 1219.717967 1417.360462 
L 1218.611784 1415.402384 
L 1217.607505 1413.283073 
L 1216.705043 1411.007492 
L 1215.540516 1407.313234 
L 1214.598187 1403.300266 
L 1213.869659 1398.99109 
L 1213.343299 1394.409897 
L 1213.00435 1389.582208 
L 1212.835096 1384.534517 
L 1212.837711 1377.50898 
L 1213.129269 1368.344004 
L 1213.856124 1355.023388 
L 1214.802885 1337.540939 
L 1215.072408 1327.871817 
L 1215.046717 1320.244526 
L 1214.848292 1314.617004 
L 1214.471815 1309.088823 
L 1213.897931 1303.676417 
L 1213.110037 1298.395125 
L 1212.094478 1293.259289 
L 1210.840699 1288.282363 
L 1209.341347 1283.477041 
L 1207.592309 1278.855371 
L 1205.592716 1274.428888 
L 1203.344885 1270.208726 
L 1200.854216 1266.205724 
L 1198.129048 1262.430509 
L 1195.180466 1258.893567 
L 1192.022074 1255.605278 
L 1188.669731 1252.575924 
L 1185.141252 1249.815672 
L 1181.456082 1247.334518 
L 1177.634952 1245.142202 
L 1173.699506 1243.248087 
L 1169.671928 1241.661009 
L 1165.574552 1240.389101 
L 1161.429478 1239.439583 
L 1157.258193 1238.818539 
L 1153.081202 1238.530664 
L 1150.302909 1238.525425 
L 1147.535931 1238.670102 
L 1144.785196 1238.964724 
L 1142.055235 1239.408876 
L 1139.350153 1240.001663 
L 1136.6736 1240.741674 
L 1132.719078 1242.123314 
L 1128.844415 1243.82267 
L 1125.055689 1245.827672 
L 1121.35641 1248.123059 
L 1117.747569 1250.690303 
L 1114.227752 1253.507583 
L 1110.793323 1256.549833 
L 1107.438657 1259.788846 
L 1103.076998 1264.35933 
L 1098.823067 1269.142618 
L 1092.592342 1276.521413 
L 1083.425166 1287.40764 
L 1079.367086 1291.922303 
L 1075.299128 1296.100734 
L 1072.237926 1298.958964 
L 1069.16804 1301.54102 
L 1066.092217 1303.813961 
L 1063.015718 1305.748116 
L 1059.946286 1307.317481 
L 1057.908822 1308.150023 
L 1055.882489 1308.80509 
L 1053.87123 1309.27807 
L 1051.879351 1309.565235 
L 1049.911478 1309.663752 
L 1047.972512 1309.571684 
L 1046.067573 1309.287982 
L 1044.201951 1308.812476 
L 1042.38105 1308.145852 
L 1040.610326 1307.289624 
L 1038.89523 1306.2461 
L 1037.241151 1305.018345 
L 1035.653357 1303.610126 
L 1034.136937 1302.025871 
L 1032.696748 1300.270605 
L 1031.337362 1298.349896 
L 1030.063021 1296.269788 
L 1028.877588 1294.036739 
L 1027.273564 1290.415362 
L 1025.886948 1286.489306 
L 1024.724965 1282.283531 
L 1023.792204 1277.82339 
L 1023.090544 1273.134143 
L 1022.619125 1268.240508 
L 1022.374401 1263.166246 
L 1022.350237 1257.933806 
L 1022.538062 1252.564018 
L 1022.927063 1247.075858 
L 1023.504421 1241.486275 
L 1024.541825 1233.901039 
L 1025.84951 1226.190806 
L 1027.385495 1218.378228 
L 1029.558914 1208.493507 
L 1032.915191 1194.46912 
L 1039.360559 1167.942385 
L 1042.105391 1155.527774 
L 1044.152303 1145.131979 
L 1045.585452 1136.805905 
L 1046.803932 1128.496282 
L 1047.779927 1120.231883 
L 1048.488123 1112.046782 
L 1048.905742 1103.979793 
L 1049.016031 1098.032607 
L 1048.943956 1092.194815 
L 1048.682893 1086.485926 
L 1048.227139 1080.925555 
L 1047.571949 1075.533014 
L 1046.713562 1070.326894 
L 1045.649234 1065.324648 
L 1044.377258 1060.542186 
L 1042.896979 1055.993503 
L 1041.208795 1051.690344 
L 1039.314155 1047.641926 
L 1037.215539 1043.854716 
L 1034.916435 1040.332292 
L 1032.421297 1037.075274 
L 1029.735506 1034.081336 
L 1026.865316 1031.34531 
L 1023.817802 1028.859369 
L 1020.600803 1026.613287 
L 1017.22287 1024.594777 
L 1013.693214 1022.789896 
L 1010.021662 1021.1835 
L 1006.218619 1019.759747 
L 1002.295035 1018.50262 
L 996.895991 1017.058721 
L 991.331718 1015.848975 
L 985.632391 1014.843988 
L 979.829726 1014.021205 
L 972.481803 1013.228183 
L 965.092322 1012.691344 
L 959.198317 1012.457005 
L 953.360193 1012.416642 
L 947.615506 1012.598389 
L 942.001568 1013.037518 
L 937.898834 1013.56 
L 933.904812 1014.268287 
L 930.033386 1015.181058 
L 926.297398 1016.316766 
L 922.708397 1017.693038 
L 919.276402 1019.326081 
L 916.009663 1021.230131 
L 913.926826 1022.655978 
L 911.921586 1024.210334 
L 909.994815 1025.895346 
L 908.146909 1027.712485 
L 905.522588 1030.687399 
L 903.072978 1033.960576 
L 900.793101 1037.52758 
L 898.675435 1041.380066 
L 896.709977 1045.505825 
L 894.884376 1049.88892 
L 893.184116 1054.509913 
L 891.083404 1061.00172 
L 889.132705 1067.814417 
L 886.833201 1076.676262 
L 879.936398 1104.136055 
L 877.876244 1111.308101 
L 875.646969 1118.272264 
L 873.845915 1123.317496 
L 871.923019 1128.180267 
L 869.870786 1132.835795 
L 867.684118 1137.261509 
L 865.360287 1141.437189 
L 862.898832 1145.345064 
L 860.301409 1148.969896 
L 857.571589 1152.299031 
L 854.714622 1155.322437 
L 851.737154 1158.032718 
L 848.646945 1160.425116 
L 845.452555 1162.497496 
L 842.16304 1164.250306 
L 838.787661 1165.686531 
L 835.335598 1166.81162 
L 831.815706 1167.633388 
L 828.236295 1168.161901 
L 824.604956 1168.409326 
L 820.928427 1168.389758 
L 817.212508 1168.119005 
L 813.462026 1167.61435 
L 809.680841 1166.894274 
L 805.871902 1165.978149 
L 800.753722 1164.486163 
L 795.593131 1162.728698 
L 789.085325 1160.229322 
L 781.195027 1156.897102 
L 771.885968 1152.704471 
L 758.443841 1146.38691 
L 747.664682 1141.121869 
L 739.651606 1136.996764 
L 733.080279 1133.376798 
L 727.928432 1130.314674 
L 722.899776 1127.063966 
L 718.022734 1123.58529 
L 714.48174 1120.803283 
L 711.054236 1117.855737 
L 707.752036 1114.728521 
L 704.586604 1111.40926 
L 701.568965 1107.887734 
L 698.709613 1104.156219 
L 696.018458 1100.209769 
L 693.504773 1096.046435 
L 691.177178 1091.667413 
L 689.043622 1087.077116 
L 687.11139 1082.283189 
L 685.387113 1077.296439 
L 683.876782 1072.130722 
L 682.585769 1066.802757 
L 681.518838 1061.331902 
L 680.680154 1055.739889 
L 680.073283 1050.050525 
L 679.701176 1044.289368 
L 679.566149 1038.483403 
L 679.669836 1032.660695 
L 680.013147 1026.850059 
L 680.596197 1021.080729 
L 681.418242 1015.382049 
L 682.477596 1009.783174 
L 683.77156 1004.312794 
L 685.296347 998.998886 
L 687.047015 993.868476 
L 689.017416 988.947431 
L 691.200161 984.260268 
L 693.58661 979.829976 
L 696.166879 975.677854 
L 698.929887 971.823363 
L 701.863421 968.283982 
L 703.907348 966.107134 
L 706.017048 964.08121 
L 708.188216 962.209751 
L 710.416411 960.49582 
L 712.697085 958.941983 
L 715.025609 957.5503 
L 717.397304 956.322301 
L 719.807468 955.258978 
L 722.251411 954.360767 
L 724.724487 953.627537 
L 727.222123 953.058579 
L 729.739855 952.652593 
L 732.27336 952.407684 
L 734.818484 952.321353 
L 737.371274 952.390497 
L 739.928003 952.611407 
L 743.762964 953.217736 
L 747.588508 954.138636 
L 751.395643 955.354114 
L 755.177023 956.841375 
L 758.927022 958.574991 
L 762.641752 960.527128 
L 766.319047 962.667809 
L 771.16321 965.760144 
L 777.128756 969.896028 
L 787.666811 977.608758 
L 794.608426 982.554782 
L 799.227259 985.609528 
L 803.854947 988.38697 
L 807.338605 990.249618 
L 810.837694 991.896689 
L 814.354963 993.307244 
L 817.891892 994.463274 
L 821.448571 995.349759 
L 825.023614 995.954659 
L 828.614114 996.26884 
L 832.215641 996.285939 
L 835.822274 996.002175 
L 839.426672 995.416118 
L 843.020177 994.528413 
L 846.592957 993.34149 
L 850.134164 991.859247 
L 853.632126 990.086742 
L 857.074556 988.029884 
L 860.448772 985.695147 
L 863.74193 983.089311 
L 866.941266 980.219243 
L 870.034329 977.091714 
L 873.009222 973.713276 
L 875.854827 970.090184 
L 878.561026 966.228373 
L 881.118905 962.133494 
L 883.520942 957.810991 
L 885.761179 953.266239 
L 887.835372 948.504705 
L 889.741116 943.532158 
L 891.477951 938.354888 
L 893.047439 932.979947 
L 894.45321 927.415386 
L 895.700989 921.670487 
L 896.798587 915.755973 
L 898.04576 907.627686 
L 899.072501 899.254158 
L 899.913428 890.675429 
L 900.764423 879.734025 
L 901.873537 861.970177 
L 903.021883 844.310332 
L 903.943713 833.55383 
L 904.875135 825.207054 
L 906.030514 817.156831 
L 907.07035 811.348391 
L 908.277274 805.761087 
L 909.666052 800.414759 
L 911.249473 795.32677 
L 913.038197 790.511768 
L 915.040637 785.981504 
L 917.262882 781.744708 
L 918.868431 779.086137 
L 920.573902 776.561488 
L 922.379357 774.171078 
L 924.28441 771.914633 
L 926.288234 769.791312 
L 928.38958 767.799725 
L 930.586795 765.937961 
L 932.877844 764.20362 
L 935.260332 762.593844 
L 938.999458 760.405466 
L 942.92765 758.477271 
L 947.033133 756.795016 
L 951.303056 755.343157 
L 955.723738 754.105169 
L 960.280915 753.063856 
L 964.959975 752.201649 
L 971.36287 751.300113 
L 977.921704 750.644155 
L 984.60298 750.193626 
L 993.078562 749.861317 
L 1003.356537 749.710234 
L 1017.103271 749.754116 
L 1044.162828 749.88334 
L 1054.013368 749.707886 
L 1062.056763 749.38644 
L 1069.93147 748.863188 
L 1077.62177 748.099016 
L 1083.63137 747.288602 
L 1089.506582 746.280925 
L 1095.240978 745.058302 
L 1100.828864 743.6044 
L 1106.265503 741.904571 
L 1110.24156 740.460636 
L 1114.129589 738.866754 
L 1117.929183 737.119273 
L 1121.640528 735.215421 
L 1125.264454 733.153368 
L 1128.802477 730.93228 
L 1132.256821 728.552368 
L 1135.630433 726.014929 
L 1140.00944 722.391003 
L 1144.262126 718.500494 
L 1148.401114 714.356273 
L 1152.440784 709.975248 
L 1156.396911 705.378543 
L 1161.250142 699.368713 
L 1166.983544 691.850636 
L 1176.464545 678.919081 
L 1184.109307 668.643898 
L 1188.954107 662.472908 
L 1192.875669 657.77541 
L 1196.8392 653.3626 
L 1200.842303 649.30231 
L 1203.867214 646.529211 
L 1206.907449 644.020557 
L 1209.95824 641.803468 
L 1213.013812 639.903747 
L 1216.067435 638.345464 
L 1218.098371 637.507225 
L 1220.122603 636.836417 
L 1222.13751 636.33837 
L 1224.140329 636.017812 
L 1226.128162 635.878823 
L 1228.097991 635.924797 
L 1230.046688 636.1584 
L 1231.971026 636.581539 
L 1233.867693 637.19534 
L 1235.733301 638.000119 
L 1237.564403 638.995373 
L 1239.357504 640.179769 
L 1241.109074 641.551142 
L 1242.81556 643.106501 
L 1244.473402 644.842041 
L 1246.079047 646.753161 
L 1248.381923 649.937109 
L 1250.547646 653.482676 
L 1252.564734 657.365271 
L 1254.422113 661.557266 
L 1256.109231 666.02844 
L 1257.616183 670.746464 
L 1258.933841 675.677432 
L 1260.053981 680.786419 
L 1260.969408 686.038059 
L 1261.674084 691.397129 
L 1262.163245 696.829131 
L 1262.433508 702.300849 
L 1262.482974 707.78089 
L 1262.311302 713.240172 
L 1261.919772 718.652377 
L 1261.311324 723.994338 
L 1260.490572 729.246363 
L 1259.463789 734.392493 
L 1258.238864 739.420681 
L 1256.825235 744.322889 
L 1255.233789 749.095116 
L 1253.476735 753.737337 
L 1251.56746 758.253371 
L 1248.809966 764.091839 
L 1245.843821 769.746454 
L 1242.707058 775.253215 
L 1238.60546 781.995485 
L 1230.085937 795.38408 
L 1224.963155 803.633226 
L 1220.787274 810.781425 
L 1217.548546 816.738584 
L 1214.428903 822.943613 
L 1211.452287 829.419433 
L 1208.640922 836.178171 
L 1206.015835 843.220319 
L 1203.597439 850.534289 
L 1201.40609 858.096402 
L 1199.92406 863.909986 
L 1198.590485 869.824531 
L 1197.414734 875.817935 
L 1196.406513 881.865312 
L 1195.575834 887.939415 
L 1194.932964 894.011112 
L 1194.488317 900.049919 
L 1194.252321 906.024567 
L 1194.235237 911.903594 
L 1194.446956 917.655965 
L 1194.896762 923.251692 
L 1195.593086 928.662444 
L 1196.543239 933.862143 
L 1197.753154 938.827525 
L 1199.227124 943.538654 
L 1200.357745 946.53001 
L 1201.607049 949.397331 
L 1202.974805 952.137715 
L 1204.460321 954.749164 
L 1206.062429 957.230608 
L 1207.779468 959.581927 
L 1209.609277 961.803958 
L 1211.549191 963.898496 
L 1213.596038 965.868287 
L 1215.746146 967.71701 
L 1217.995349 969.449251 
L 1221.544682 971.84138 
L 1225.288849 974.005773 
L 1229.208127 975.968088 
L 1233.280863 977.757291 
L 1238.909373 979.928751 
L 1246.179945 982.413445 
L 1263.991529 988.283608 
L 1269.818991 990.499014 
L 1274.089162 992.322144 
L 1278.245933 994.312592 
L 1282.266036 996.492376 
L 1286.127601 998.879524 
L 1289.810303 1001.487842 
L 1293.295469 1004.326776 
L 1296.566165 1007.401388 
L 1298.61993 1009.582605 
L 1300.56758 1011.86818 
L 1302.405453 1014.256524 
L 1304.130257 1016.745305 
L 1305.739072 1019.331501 
L 1307.229353 1022.011452 
L 1309.237874 1026.19777 
L 1310.969148 1030.569046 
L 1312.419332 1035.106904 
L 1313.586492 1039.791519 
L 1314.470616 1044.602195 
L 1315.073627 1049.517942 
L 1315.399402 1054.518029 
L 1315.453791 1059.582498 
L 1315.244632 1064.692626 
L 1314.781771 1069.831314 
L 1314.07706 1074.983409 
L 1313.144349 1080.135928 
L 1311.999466 1085.278202 
L 1310.660161 1090.401915 
L 1308.606129 1097.19459 
L 1306.292771 1103.935486 
L 1303.776292 1110.622075 
L 1299.753755 1120.555156 
L 1290.351447 1143.36692 
L 1287.958197 1149.801952 
L 1285.811167 1156.192313 
L 1283.967391 1162.524372 
L 1282.81466 1167.223335 
L 1281.880614 1171.867601 
L 1281.181964 1176.444633 
L 1280.732806 1180.940371 
L 1280.544474 1185.339575 
L 1280.625432 1189.626233 
L 1280.981212 1193.784021 
L 1281.614404 1197.796795 
L 1282.524689 1201.649106 
L 1283.708921 1205.326697 
L 1285.161253 1208.816991 
L 1286.873303 1212.109523 
L 1288.834359 1215.196315 
L 1291.031614 1218.072172 
L 1293.45043 1220.734891 
L 1296.074626 1223.185363 
L 1298.886775 1225.427571 
L 1301.868521 1227.46848 
L 1305.000898 1229.317822 
L 1308.264645 1230.987777 
L 1311.640522 1232.492574 
L 1316.283503 1234.269532 
L 1321.049242 1235.821167 
L 1327.118504 1237.506156 
L 1334.476369 1239.254171 
L 1344.262214 1241.294781 
L 1357.44985 1243.800265 
L 1367.960672 1245.59356 
L 1374.872899 1246.573289 
L 1380.61629 1247.19746 
L 1386.379928 1247.605264 
L 1392.196506 1247.7689 
L 1398.093858 1247.677904 
L 1404.090975 1247.343872 
L 1411.427387 1246.67496 
L 1423.927396 1245.218031 
L 1432.735734 1244.294335 
L 1438.944279 1243.881599 
L 1443.797155 1243.789137 
L 1447.338767 1243.895771 
L 1450.772527 1244.177753 
L 1454.076559 1244.65487 
L 1457.229046 1245.344416 
L 1460.208694 1246.260909 
L 1462.995189 1247.415904 
L 1465.569646 1248.817901 
L 1467.159648 1249.892603 
L 1468.643278 1251.080442 
L 1470.016508 1252.381732 
L 1471.275837 1253.796245 
L 1472.418323 1255.32325 
L 1473.441613 1256.961549 
L 1474.343962 1258.709517 
L 1475.124252 1260.565144 
L 1475.781997 1262.526087 
L 1476.539333 1265.659135 
L 1477.024539 1269.013274 
L 1477.24378 1272.577714 
L 1477.206061 1276.34106 
L 1476.922958 1280.291572 
L 1476.408277 1284.417368 
L 1475.677659 1288.706566 
L 1474.397198 1294.659296 
L 1472.80601 1300.853797 
L 1470.94778 1307.262305 
L 1468.314174 1315.530578 
L 1464.797654 1325.75223 
L 1460.338895 1337.944786 
L 1455.606258 1350.217341 
L 1451.372517 1360.600965 
L 1447.718679 1369.010161 
L 1444.702378 1375.488066 
L 1441.589783 1381.670819 
L 1438.366107 1387.489185 
L 1435.866122 1391.57255 
L 1433.288597 1395.384519 
L 1430.627751 1398.898797 
L 1427.878629 1402.091251 
L 1425.03734 1404.940491 
L 1423.090583 1406.640229 
L 1421.101217 1408.174881 
L 1419.069085 1409.540834 
L 1416.994321 1410.735352 
L 1414.877358 1411.756623 
L 1412.718918 1412.6038 
L 1410.520008 1413.277036 
L 1408.281909 1413.77751 
L 1406.006157 1414.107437 
L 1403.694528 1414.270079 
L 1401.349013 1414.269739 
L 1398.971794 1414.111748 
L 1395.351688 1413.59329 
L 1391.674006 1412.760034 
L 1387.947648 1411.641984 
L 1384.181725 1410.273278 
L 1380.385327 1408.691658 
L 1375.29128 1406.322382 
L 1368.899245 1403.08749 
L 1354.885682 1395.882536 
L 1349.841008 1393.557951 
L 1346.081296 1392.011601 
L 1342.342584 1390.672603 
L 1338.624265 1389.571022 
L 1334.924755 1388.732233 
L 1331.241603 1388.176526 
L 1327.571618 1387.918796 
L 1323.911027 1387.968343 
L 1320.255632 1388.328763 
L 1316.600993 1388.997945 
L 1312.942621 1389.968163 
L 1309.276171 1391.226257 
L 1305.597645 1392.753907 
L 1301.903592 1394.527983 
L 1298.191309 1396.520968 
L 1293.210343 1399.464001 
L 1286.93314 1403.482916 
L 1266.627278 1416.794036 
L 1261.585169 1419.71331 
L 1257.844792 1421.675742 
L 1254.155292 1423.403368 
L 1250.531951 1424.86299 
L 1246.99099 1426.024585 
L 1243.549294 1426.861618 
L 1240.224099 1427.351304 
L 1238.080553 1427.475319 
L 1236.0015 1427.431914 
L 1234.987701 1427.34622 
L 1234.987701 1427.34622 
" clip-path="url(#paee3d2adfa)" style="fill: none; stroke: #ff8c00; stroke-width: 3; stroke-linecap: square"/>
   </g>
  </g>
 </g>
 <defs>
  <clipPath id="paee3d2adfa">
   <rect x="270" y="259.2" width="1674" height="1630.8"/>
  </clipPath>
 </defs>
</svg>
