<svg class="main-svg" xmlns="http://www.w3.org/2000/svg" xmlns:xlink="http://www.w3.org/1999/xlink" width="3500" height="1000" style="" viewBox="0 0 3500 1000"><rect x="0" y="0" width="3500" height="1000" style="fill: rgb(255, 255, 255); fill-opacity: 1;"/><defs id="defs-70aca9"><g class="clips"><clipPath id="clip70aca9xyplot" class="plotclip"><rect width="2582" height="796"/></clipPath><clipPath class="axesclip" id="clip70aca9x"><rect x="160" y="0" width="2582" height="1000"/></clipPath><clipPath class="axesclip" id="clip70aca9y"><rect x="0" y="100" width="3500" height="796"/></clipPath><clipPath class="axesclip" id="clip70aca9xy"><rect x="160" y="100" width="2582" height="796"/></clipPath></g><g class="gradients"/><g class="patterns"/></defs><g class="bglayer"><rect class="bg" x="160" y="100" width="2582" height="796" style="fill: rgb(229, 236, 246); fill-opacity: 1; stroke-width: 0;"/></g><g class="layer-below"><g class="imagelayer"/><g class="shapelayer"/></g><g class="cartesianlayer"><g class="subplot xy"><g class="layer-subplot"><g class="shapelayer"/><g class="imagelayer"/></g><g class="gridlayer"><g class="x"><path class="xgrid crisp" transform="translate(653.69,0)" d="M0,100v796" style="stroke: rgb(255, 255, 255); stroke-opacity: 1; stroke-width: 1px;"/><path class="xgrid crisp" transform="translate(1147.38,0)" d="M0,100v796" style="stroke: rgb(255, 255, 255); stroke-opacity: 1; stroke-width: 1px;"/><path class="xgrid crisp" transform="translate(1641.07,0)" d="M0,100v796" style="stroke: rgb(255, 255, 255); stroke-opacity: 1; stroke-width: 1px;"/><path class="xgrid crisp" transform="translate(2134.76,0)" d="M0,100v796" style="stroke: rgb(255, 255, 255); stroke-opacity: 1; stroke-width: 1px;"/><path class="xgrid crisp" transform="translate(2628.45,0)" d="M0,100v796" style="stroke: rgb(255, 255, 255); stroke-opacity: 1; stroke-width: 1px;"/></g><g class="y"><path class="ygrid crisp" transform="translate(0,872.6)" d="M160,0h2582" style="stroke: rgb(255, 255, 255); stroke-opacity: 1; stroke-width: 1px;"/><path class="ygrid crisp" transform="translate(0,772.43)" d="M160,0h2582" style="stroke: rgb(255, 255, 255); stroke-opacity: 1; stroke-width: 1px;"/><path class="ygrid crisp" transform="translate(0,672.26)" d="M160,0h2582" style="stroke: rgb(255, 255, 255); stroke-opacity: 1; stroke-width: 1px;"/><path class="ygrid crisp" transform="translate(0,572.0899999999999)" d="M160,0h2582" style="stroke: rgb(255, 255, 255); stroke-opacity: 1; stroke-width: 1px;"/><path class="ygrid crisp" transform="translate(0,371.74)" d="M160,0h2582" style="stroke: rgb(255, 255, 255); stroke-opacity: 1; stroke-width: 1px;"/><path class="ygrid crisp" transform="translate(0,271.57)" d="M160,0h2582" style="stroke: rgb(255, 255, 255); stroke-opacity: 1; stroke-width: 1px;"/><path class="ygrid crisp" transform="translate(0,171.4)" d="M160,0h2582" style="stroke: rgb(255, 255, 255); stroke-opacity: 1; stroke-width: 1px;"/></g></g><g class="zerolinelayer"><path class="xzl zl crisp" transform="translate(160,0)" d="M0,100v796" style="stroke: rgb(255, 255, 255); stroke-opacity: 1; stroke-width: 2px;"/><path class="yzl zl crisp" transform="translate(0,471.91)" d="M160,0h2582" style="stroke: rgb(255, 255, 255); stroke-opacity: 1; stroke-width: 2px;"/></g><path class="xlines-below"/><path class="ylines-below"/><g class="overlines-below"/><g class="xaxislayer-below"/><g class="yaxislayer-below"/><g class="overaxes-below"/><g class="plot" transform="translate(160,100)" clip-path="url(#clip70aca9xyplot)"><g class="scatterlayer mlayer"><g class="trace scatter trace8c6f47" style="stroke-miterlimit: 2; opacity: 1;"><g class="fills"/><g class="errorbars"/><g class="lines"><path class="js-line" d="M0,203.44L4.94,202.06L7.41,205.74L9.87,194.82L12.34,194.41L14.81,197.6L17.28,208.64L19.75,194.74L22.22,193.69L32.09,189.49L34.56,188.8L61.71,180.88L64.18,181.59L69.12,178.22L71.59,178.51L81.46,177.37L83.93,177.29L96.27,178.05L98.74,178.78L101.21,180.59L103.67,179.56L113.55,182.74L116.02,184.59L123.42,188.23L125.89,190.05L130.83,192.79L133.3,194.28L148.11,205.88L150.58,208.7L155.51,212.65L157.98,214.65L182.67,237.1L185.13,239.31L204.88,254.83L207.35,256.54L222.16,265.94L224.63,266.72L229.57,269.13L232.03,269.89L239.44,273.04L241.91,273.59L254.25,277.47L256.72,277.86L264.12,279.21L266.59,280.27L271.53,281.03L274,281.67L291.28,285.01L293.75,285.77L301.15,287.72L303.62,288.64L311.02,291.35L313.49,292.52L320.9,296.26L323.37,297.76L330.77,302.83L333.24,304.76L343.11,313.4L345.58,315.66L357.93,332.36L360.39,336.82L372.74,355.52L375.2,360.65L402.36,422.03L404.83,429.87L419.64,462.92L422.11,467.97L436.92,499.06L439.38,502.32L444.32,510.28L446.79,512.73L451.73,518.65L454.2,520.22L459.13,523.89L461.6,524.55L466.54,525.89L469.01,525.63L476.41,523.15L478.88,521.56L486.28,515.97L488.75,512.89L493.69,507.66L496.16,503.39L510.97,477.21L513.44,472.23L518.37,462.21L520.84,456.94L525.78,446.46L528.25,441.08L530.72,436.49L533.19,429.75L543.06,408.71L545.53,404.3L557.87,379.17L560.34,373.36L570.21,356.16L572.68,351.99L580.09,338.96L582.55,335.27L592.43,319.97L594.9,317.24L599.83,309.95L602.3,306.25L624.52,280.48L626.99,278.06L644.27,262.34L646.73,260.62L664.01,249.87L666.48,248.49L678.82,243.73L681.29,242.89L696.1,240.31L698.57,240.28L705.98,239.91L708.45,240.41L718.32,241.97L720.79,242.49L725.72,243.88L728.19,244.8L745.47,252.71L747.94,253.94L760.28,261.51L762.75,263.09L765.22,264.22L767.69,266.81L777.56,274.53L780.03,276.33L792.37,285.73L794.84,287.03L809.65,295.69L812.12,296.89L829.4,302.74L831.87,303.07L839.27,303.85L841.74,303.19L846.68,303.09L849.15,302.24L851.62,302.4L854.08,301.49L863.96,296.09L866.43,295.52L876.3,285.67L878.77,284.51L886.17,274.53L888.64,271.31L891.11,267.64L893.58,266.84L900.98,252.72L903.45,247.81L905.92,243.44L908.39,242.39L920.73,213.09L923.2,211.16L933.07,183.35L935.54,180.22L945.42,153.18L947.89,150.4L957.76,126.38L960.23,123.6L972.57,101.58L975.04,97.62L984.91,87.48L987.38,85.97L994.79,82.91L997.25,82.71L1004.66,83.68L1007.13,84.55L1012.07,87.37L1014.53,88.98L1024.41,97.97L1026.88,100.81L1031.81,107.44L1034.28,109.62L1041.69,120.37L1044.15,123.77L1051.56,131.68L1054.03,135.7L1061.43,144.71L1063.9,146.39L1068.84,151.01L1071.31,152.92L1076.24,156.65L1078.71,157.89L1093.52,162.47L1095.99,162.6L1105.87,162.18L1108.33,161.97L1120.68,160.35L1123.15,160.1L1133.02,159.8L1135.49,160.1L1145.36,161.89L1147.83,163.78L1152.77,166.89L1155.24,169.47L1162.64,176.16L1165.11,179.07L1172.51,188.38L1174.98,193.92L1179.92,203.74L1182.39,210.67L1192.26,230.88L1194.73,239.82L1199.67,255.68L1202.14,266.25L1212.01,296.26L1214.48,309.13L1219.41,332.32L1221.88,346.75L1231.76,387L1234.23,403.33L1253.97,515.03L1256.44,523.06L1261.38,552.08L1263.85,564.43L1266.32,578.99L1268.78,585.96L1278.66,633.37L1281.13,640.8L1291,667.83L1293.47,672.53L1295.94,678.41L1298.41,681.21L1303.34,688.2L1305.81,691.21L1308.28,693.82L1310.75,694.78L1320.62,693.54L1323.09,690.98L1332.96,680.89L1335.43,675.81L1350.24,643.51L1352.71,635.95L1360.12,616.58L1362.59,610.1L1369.99,588.75L1372.46,582.87L1379.86,565.36L1382.33,559.48L1389.74,543.75L1392.21,540.01L1402.08,526.48L1404.55,524.1L1409.49,520.04L1411.95,518.66L1416.89,516.97L1419.36,516.62L1424.3,517.41L1426.76,518.12L1434.17,524.3L1436.64,526.78L1444.04,536.62L1446.51,542.22L1451.45,552.55L1453.92,559.58L1471.2,615.11L1473.67,625.62L1495.88,707.79L1498.35,713.69L1505.76,734.22L1508.22,737.73L1515.63,750.56L1518.1,751.69L1525.5,756.08L1527.97,755.53L1530.44,754.38L1532.91,751.76L1535.38,751.79L1537.85,748.23L1545.25,736.14L1547.72,731.97L1552.66,718.2L1555.12,706.71L1565,661.42L1567.47,645.78L1572.4,621.29L1574.87,606.17L1587.21,508.86L1589.68,479.52L1597.09,420.48L1599.56,396.81L1606.96,343.41L1609.43,321.11L1624.24,223.3L1626.71,210.9L1631.65,183.73L1634.11,173.68L1643.99,129.42L1646.46,121.8L1656.33,91.47L1658.8,85.17L1663.74,73.15L1666.2,66.8L1678.55,49.07L1681.02,46.99L1683.48,44.53L1685.95,43.64L1688.42,41.34L1690.89,40.67L1700.76,40.07L1703.23,41.06L1708.17,44.18L1710.64,46.35L1715.57,49.42L1718.04,52.02L1725.45,58.42L1727.92,61.42L1732.85,68.38L1735.32,70.85L1755.07,98.45L1757.54,100.54L1787.16,138.28L1789.63,140.61L1792.1,142.18L1794.56,145.16L1801.97,155.33L1804.44,157.65L1819.25,180.47L1821.72,185.75L1836.53,215.28L1839,220.45L1843.93,229.57L1846.4,238.57L1873.55,324.59L1876.02,335.34L1885.9,376.66L1888.37,386.41L1893.3,403.86L1895.77,414.99L1900.71,438.78L1903.18,448.02L1905.64,455.15L1908.11,466.54L1915.52,491.8L1917.99,496.13L1922.92,514.67L1925.39,521.6L1927.86,530.09L1930.33,534.54L1937.73,545.33L1940.2,548.1L1945.14,553.64L1947.61,553.78L1950.08,555.63L1952.54,555.15L1959.95,553.01L1962.42,550.23L1964.89,549.91L1967.36,545.84L1974.76,531.01L1977.23,525.19L1979.7,518.79L1982.17,516.46L1989.57,489.55L1992.04,478.93L1996.98,458.93L1999.45,454.35L2006.85,416.79L2009.32,403.16L2014.26,376.47L2016.72,371.43L2021.66,354.45L2024.13,344.49L2026.6,330.37L2029.07,307.65L2031.54,304.48L2034,298.62L2036.47,280.03L2038.94,272.35L2043.88,260.25L2046.35,255.95L2048.81,251.37L2051.28,243.12L2053.75,244.11L2056.22,239.65L2066.09,221.82L2068.56,219.95L2071.03,219.1L2073.5,216.99L2080.9,211.22L2083.37,210.18L2095.72,208.4L2098.18,209.12L2105.59,209.48L2108.06,210.04L2115.46,211.66L2117.93,211.69L2125.34,212.93L2127.8,213.02L2135.21,212.83L2137.68,212.64L2145.08,210.73L2147.55,209.09L2152.49,205.98L2154.96,204.02L2159.89,199.39L2162.36,197.01L2177.17,175.47L2179.64,169.98L2194.45,137.81L2196.92,131.99L2209.26,104.56L2211.73,98.59L2219.14,83.89L2221.61,80.05L2231.48,67.35L2233.95,65.75L2238.89,61.94L2241.35,61.43L2246.29,60.65L2248.76,61.31L2256.16,65.58L2258.63,67.87L2268.51,84.78L2270.98,92.72L2275.91,104.19L2278.38,112.3L2285.79,139.39L2288.25,152.61L2305.53,259.33L2308,278.14L2317.88,367.84L2320.34,389.65L2322.81,418.28L2325.28,434.18L2340.09,533.85L2342.56,548.88L2345.03,565.38L2347.5,574.11L2352.43,596.97L2354.9,607.85L2362.31,630.97L2364.78,634.43L2372.18,646.77L2374.65,648.93L2379.59,653.87L2382.06,654.17L2386.99,654.12L2389.46,652.9L2396.87,645.56L2399.33,640.73L2406.74,627.17L2409.21,620.64L2416.61,600.83L2419.08,590.46L2436.36,522.23L2438.83,511.2L2448.7,468.55L2451.17,456.7L2456.11,440.16L2458.58,429.85L2465.98,398.69L2468.45,392.26L2470.92,387.11L2473.39,378.15L2480.79,350.54L2483.26,344.88L2485.73,340.59L2488.2,333.59L2495.6,311.53L2498.07,306.71L2500.54,304.05L2503.01,298.8L2510.41,281.68L2512.88,277.7L2515.35,275.76L2517.82,270.92L2525.23,257.75L2527.69,255.42L2535.1,243.66L2537.57,241.26L2540.04,239.72L2542.5,236.31L2549.91,228.13L2552.38,227.1L2559.78,219.81L2562.25,218.51L2567.19,213.24L2569.66,207.8L2574.59,205.45L2577.06,206.63L2579.53,206.38L2582,204.96" style="vector-effect: non-scaling-stroke; fill: none; stroke: rgb(170, 0, 0); stroke-opacity: 1; stroke-width: 4px; opacity: 1;"/></g><g class="points"/><g class="text"/></g><g class="trace scatter tracea038ac" style="stroke-miterlimit: 2; opacity: 1;"><g class="fills"/><g class="errorbars"/><g class="lines"><path class="js-line" d="M0,203.66L4.94,200.46L7.41,200.46L17.28,195.34L19.75,194.18L24.68,192.41L27.15,191.47L46.9,184.52L49.37,183.9L66.65,179.24L69.12,177.64L71.59,179.14L74.05,178.53L86.4,178.64L88.86,177.56L93.8,178.54L96.27,178.56L98.74,178.29L101.21,180.19L103.67,179.32L106.14,180.49L113.55,183.79L116.02,184.55L118.49,187.36L120.95,186.25L133.3,193.77L135.76,197.58L138.23,197.32L140.7,199.31L148.11,206.08L150.58,207.12L153.04,211.27L155.51,211.69L160.45,217.06L162.92,219.7L167.85,222.34L170.32,226.58L172.79,227.48L175.26,229.61L180.2,235.42L182.67,236.88L185.13,237.56L187.6,241.87L192.54,244.36L195.01,246.69L199.94,250.3L202.41,251.14L204.88,254.99L207.35,255.42L214.76,260.7L217.22,261.42L222.16,264.59L224.63,266.19L236.97,271.53L239.44,272.35L246.85,275.03L249.31,276.19L256.72,277.65L259.19,278.31L264.12,279.79L266.59,279.66L283.87,283.47L286.34,284.29L291.28,284.85L293.75,285.97L301.15,287.51L303.62,288.53L315.96,293.62L318.43,294.95L325.84,299.32L328.3,301.02L338.18,308.6L340.65,310.58L352.99,325.57L355.46,329.59L367.8,347.6L370.27,352.41L382.61,376.1L385.08,381.24L390.02,392L392.48,398.33L427.04,481.19L429.51,485.07L436.92,498.13L439.38,502.62L451.73,517.46L454.2,520.5L464.07,525.17L466.54,525.19L469.01,525.44L471.47,524.36L476.41,523.14L478.88,521.71L481.35,520.17L483.82,517.19L486.28,515.84L488.75,512.49L501.1,495.18L503.56,490.96L523.31,450.7L525.78,444.96L533.19,432.08L535.65,426.03L550.46,393.06L552.93,388.74L557.87,379.76L560.34,375.02L562.81,369.7L565.28,367.59L580.09,339.67L582.55,336.56L592.43,320.34L594.9,316.6L612.18,294.15L614.64,291.33L622.05,281.87L624.52,279.47L639.33,266.6L641.8,264.01L661.54,250.21L664.01,249.98L678.82,243.91L681.29,243.11L693.63,240.28L696.1,240.25L708.45,240.32L710.91,240.57L718.32,241.84L720.79,242.41L730.66,245.51L733.13,246.41L738.07,248.25L740.54,249.41L747.94,253.87L750.41,255.23L762.75,263.56L765.22,265.01L787.44,280.91L789.9,283.26L809.65,295.79L812.12,297.13L821.99,301.35L824.46,301.83L834.34,304.05L836.8,304.19L841.74,304.42L844.21,303.65L851.62,302.38L854.08,301.6L866.43,295.42L868.89,293.29L883.71,279.69L886.17,275.95L893.58,265.59L896.05,262.78L903.45,249.56L905.92,243.81L918.26,221.46L920.73,214.34L925.67,201.88L928.14,196.8L933.07,186.06L935.54,180.94L942.95,160L945.42,154.5L947.89,150.13L950.35,143.37L962.7,117.41L965.16,112.71L967.63,109.28L970.1,104.03L975.04,97.77L977.51,94.51L984.91,87.19L987.38,85.66L997.25,82.65L999.72,82.46L1007.13,84.48L1009.6,85.93L1014.53,88.87L1017,91.16L1024.41,98.5L1026.88,101.04L1036.75,113.27L1039.22,116.98L1066.37,149.78L1068.84,151.45L1073.78,154.47L1076.24,155.5L1086.12,160.97L1088.59,161.29L1093.52,162.13L1095.99,162.69L1130.55,159.79L1133.02,159.74L1137.96,160.06L1140.42,160.86L1147.83,164.14L1150.3,165.06L1157.7,170.96L1160.17,174.22L1167.58,182.47L1170.05,185.96L1179.92,203.64L1182.39,208.99L1189.79,226.77L1192.26,233L1202.14,264.28L1204.6,274.1L1216.95,319.42L1219.41,330.58L1224.35,351.15L1226.82,362.52L1236.69,410.36L1239.16,430.32L1246.57,471.37L1249.04,493.74L1253.97,525.76L1256.44,535.28L1261.38,556.77L1263.85,567.37L1276.19,620.79L1278.66,630.74L1288.53,661.87L1291,667.99L1300.87,686.11L1303.34,688.53L1308.28,692.92L1310.75,694.24L1315.68,694.7L1318.15,693.38L1323.09,690.62L1325.56,688.32L1335.43,675.53L1337.9,670.84L1345.31,655.47L1347.77,648.66L1355.18,628.73L1357.65,621.86L1362.59,608.68L1365.05,604.15L1374.93,576.55L1377.4,572.04L1387.27,549.05L1389.74,545.57L1399.61,529.44L1402.08,527.21L1409.49,520.34L1411.95,518.97L1414.42,517.46L1416.89,517.21L1424.3,517.61L1426.76,518.79L1429.23,519.68L1431.7,521.76L1441.58,532.82L1444.04,537.29L1451.45,553.97L1453.92,560.31L1456.39,564.61L1458.85,572.21L1498.35,714.64L1500.82,722.55L1503.29,730.69L1505.76,732.61L1510.69,742.34L1513.16,744.63L1518.1,752.79L1520.57,752.47L1523.03,755.29L1525.5,755.32L1527.97,756.2L1530.44,753.66L1532.91,754.05L1535.38,751.02L1545.25,738.52L1547.72,732.94L1550.19,727.85L1552.66,716.3L1560.06,686.6L1562.53,672.41L1567.47,652.65L1569.93,637.2L1577.34,588.72L1579.81,563.62L1582.28,548.79L1584.75,527.57L1594.62,441.23L1597.09,425.39L1606.96,340.97L1609.43,319.79L1611.9,305.74L1614.37,285.88L1624.24,219.23L1626.71,207.12L1634.11,173.07L1636.58,162.95L1641.52,140.47L1643.99,130.76L1651.39,103.92L1653.86,96.71L1658.8,84.19L1661.27,78.84L1668.67,62.96L1671.14,59.44L1678.55,48.85L1681.02,46.96L1688.42,41.34L1690.89,40.87L1698.29,39.8L1700.76,40.55L1710.64,45.22L1713.11,47.59L1720.51,53.9L1722.98,57.17L1730.38,64.56L1732.85,68L1747.66,88.59L1750.13,91.68L1769.88,117.36L1772.35,119.75L1787.16,137.06L1789.63,140.16L1811.84,169.5L1814.31,173.8L1824.19,188.76L1826.65,194.73L1831.59,205.21L1834.06,212.33L1839,222L1841.46,227.96L1846.4,240.04L1848.87,247.3L1858.74,273.17L1861.21,283.5L1866.15,301.66L1868.62,313.08L1873.55,329.3L1876.02,337.99L1880.96,356.89L1883.43,367.39L1893.3,403L1895.77,415.76L1905.64,456.51L1908.11,466.21L1917.99,497.49L1920.46,502.12L1925.39,519.01L1927.86,525.86L1930.33,533.21L1932.8,536.25L1937.73,544.57L1940.2,546.11L1945.14,553.56L1947.61,555.3L1950.08,557.08L1952.54,556.87L1955.01,557.41L1957.48,556.89L1964.89,550.94L1967.36,547.64L1977.23,528.77L1979.7,521.55L1984.63,506.7L1987.1,499.64L1992.04,484.88L1994.51,473.09L2006.85,416.38L2009.32,406.59L2011.79,397.78L2014.26,382.94L2021.66,342.23L2024.13,334.57L2029.07,315.98L2031.54,308.74L2038.94,278.43L2041.41,268.79L2058.69,232.63L2061.16,228.03L2068.56,219.14L2071.03,216.66L2083.37,210.02L2085.84,209.17L2100.65,208.8L2103.12,209.44L2130.27,213.47L2132.74,213.46L2142.62,211.35L2145.08,210.16L2152.49,206.09L2154.96,203.82L2162.36,196.81L2164.83,193.31L2172.24,183.14L2174.71,178.38L2182.11,165.89L2184.58,160.11L2214.2,93.76L2216.67,89.41L2226.54,73.96L2229.01,70.89L2236.42,63.68L2238.89,62.52L2243.82,60.6L2246.29,60.9L2253.7,63.71L2256.16,64.96L2261.1,71.26L2263.57,75.29L2268.51,84.68L2270.98,91.65L2275.91,101.94L2278.38,110.16L2283.32,125.96L2285.79,139.62L2290.72,165.94L2293.19,179L2295.66,195.46L2298.13,204.53L2300.6,216.98L2303.07,237.59L2308,275.52L2310.47,307.18L2312.94,320.13L2315.41,340.77L2320.34,384.8L2322.81,411.65L2330.22,468.77L2332.69,494.26L2337.62,525.1L2340.09,535.4L2349.97,593.72L2352.43,601.29L2357.37,616.68L2359.84,620.47L2364.78,635.48L2367.24,640.28L2369.71,645.59L2372.18,647.91L2377.12,653.52L2379.59,654.16L2382.06,653.89L2384.52,654.79L2391.93,651.22L2394.4,649.47L2396.87,646.71L2399.33,642.25L2404.27,633.57L2406.74,626.51L2414.15,606.29L2416.61,598.26L2421.55,584.9L2424.02,575.1L2428.96,558.25L2431.42,545.06L2436.36,521.99L2438.83,511.86L2443.77,492.2L2446.24,482.87L2461.05,418.2L2463.51,409.16L2468.45,392.66L2470.92,384.98L2475.86,367.86L2478.33,359.63L2488.2,330.11L2490.67,324.47L2498.07,307.98L2500.54,301.84L2517.82,268.62L2520.29,265.59L2527.69,254.01L2530.16,251.18L2537.57,241.34L2540.04,238.91L2549.91,228.53L2552.38,226.15L2557.32,222.04L2559.78,219.74L2574.59,208.94L2577.06,207.78L2579.53,205.79L2582,205.83" style="vector-effect: non-scaling-stroke; fill: none; stroke: rgb(0, 170, 0); stroke-opacity: 1; stroke-width: 4px; opacity: 1;"/></g><g class="points"/><g class="text"/></g></g></g><g class="overplot"/><path class="xlines-above crisp" d="M0,0" style="fill: none;"/><path class="ylines-above crisp" d="M0,0" style="fill: none;"/><g class="overlines-above"/><g class="xaxislayer-above"><g class="xtick"><text text-anchor="middle" x="0" y="934" transform="translate(160,0)" style="font-family: 'Open Sans', verdana, arial, sans-serif; font-size: 37px; fill: rgb(42, 63, 95); fill-opacity: 1; white-space: pre; opacity: 1;">0</text></g><g class="xtick"><text text-anchor="middle" x="0" y="934" style="font-family: 'Open Sans', verdana, arial, sans-serif; font-size: 37px; fill: rgb(42, 63, 95); fill-opacity: 1; white-space: pre; opacity: 1;" transform="translate(653.69,0)">200</text></g><g class="xtick"><text text-anchor="middle" x="0" y="934" style="font-family: 'Open Sans', verdana, arial, sans-serif; font-size: 37px; fill: rgb(42, 63, 95); fill-opacity: 1; white-space: pre; opacity: 1;" transform="translate(1147.38,0)">400</text></g><g class="xtick"><text text-anchor="middle" x="0" y="934" style="font-family: 'Open Sans', verdana, arial, sans-serif; font-size: 37px; fill: rgb(42, 63, 95); fill-opacity: 1; white-space: pre; opacity: 1;" transform="translate(1641.07,0)">600</text></g><g class="xtick"><text text-anchor="middle" x="0" y="934" style="font-family: 'Open Sans', verdana, arial, sans-serif; font-size: 37px; fill: rgb(42, 63, 95); fill-opacity: 1; white-space: pre; opacity: 1;" transform="translate(2134.76,0)">800</text></g><g class="xtick"><text text-anchor="middle" x="0" y="934" style="font-family: 'Open Sans', verdana, arial, sans-serif; font-size: 37px; fill: rgb(42, 63, 95); fill-opacity: 1; white-space: pre; opacity: 1;" transform="translate(2628.45,0)">1000</text></g></g><g class="yaxislayer-above"><g class="ytick"><text text-anchor="end" x="159" y="12.95" transform="translate(0,872.6)" style="font-family: 'Open Sans', verdana, arial, sans-serif; font-size: 37px; fill: rgb(42, 63, 95); fill-opacity: 1; white-space: pre; opacity: 1;">−200</text></g><g class="ytick"><text text-anchor="end" x="159" y="12.95" style="font-family: 'Open Sans', verdana, arial, sans-serif; font-size: 37px; fill: rgb(42, 63, 95); fill-opacity: 1; white-space: pre; opacity: 1;" transform="translate(0,772.43)">−150</text></g><g class="ytick"><text text-anchor="end" x="159" y="12.95" style="font-family: 'Open Sans', verdana, arial, sans-serif; font-size: 37px; fill: rgb(42, 63, 95); fill-opacity: 1; white-space: pre; opacity: 1;" transform="translate(0,672.26)">−100</text></g><g class="ytick"><text text-anchor="end" x="159" y="12.95" style="font-family: 'Open Sans', verdana, arial, sans-serif; font-size: 37px; fill: rgb(42, 63, 95); fill-opacity: 1; white-space: pre; opacity: 1;" transform="translate(0,572.0899999999999)">−50</text></g><g class="ytick"><text text-anchor="end" x="159" y="12.95" style="font-family: 'Open Sans', verdana, arial, sans-serif; font-size: 37px; fill: rgb(42, 63, 95); fill-opacity: 1; white-space: pre; opacity: 1;" transform="translate(0,471.91)">0</text></g><g class="ytick"><text text-anchor="end" x="159" y="12.95" style="font-family: 'Open Sans', verdana, arial, sans-serif; font-size: 37px; fill: rgb(42, 63, 95); fill-opacity: 1; white-space: pre; opacity: 1;" transform="translate(0,371.74)">50</text></g><g class="ytick"><text text-anchor="end" x="159" y="12.95" style="font-family: 'Open Sans', verdana, arial, sans-serif; font-size: 37px; fill: rgb(42, 63, 95); fill-opacity: 1; white-space: pre; opacity: 1;" transform="translate(0,271.57)">100</text></g><g class="ytick"><text text-anchor="end" x="159" y="12.95" style="font-family: 'Open Sans', verdana, arial, sans-serif; font-size: 37px; fill: rgb(42, 63, 95); fill-opacity: 1; white-space: pre; opacity: 1;" transform="translate(0,171.4)">150</text></g></g><g class="overaxes-above"/></g></g><g class="polarlayer"/><g class="ternarylayer"/><g class="geolayer"/><g class="funnelarealayer"/><g class="pielayer"/><g class="iciclelayer"/><g class="treemaplayer"/><g class="sunburstlayer"/><g class="glimages"/><defs id="topdefs-70aca9"><g class="clips"/><clipPath id="legend70aca9"><rect width="694" height="113" x="0" y="0"/></clipPath></defs><g class="layer-above"><g class="imagelayer"/><g class="shapelayer"/></g><g class="infolayer"><g class="legend" pointer-events="all" transform="translate(2793.64,100)"><rect class="bg" shape-rendering="crispEdges" width="694" height="113" x="0" y="0" style="stroke: rgb(68, 68, 68); stroke-opacity: 1; fill: rgb(255, 255, 255); fill-opacity: 1; stroke-width: 0px;"/><g class="scrollbox" transform="" clip-path="url(#legend70aca9)"><g class="groups"><g class="traces" transform="translate(0,30.55)" style="opacity: 1;"><text class="legendtext" text-anchor="start" x="40" y="14.43" style="font-family: 'Open Sans', verdana, arial, sans-serif; font-size: 37px; fill: rgb(42, 63, 95); fill-opacity: 1; white-space: pre;">Predicted Curvature at Anchors #1</text><g class="layers" style="opacity: 1;"><g class="legendfill"/><g class="legendlines"><path class="js-line" d="M5,0h30" style="fill: none; stroke: rgb(170, 0, 0); stroke-opacity: 1; stroke-width: 4px;"/></g><g class="legendsymbols"><g class="legendpoints"/></g></g><rect class="legendtoggle" x="0" y="-25.55" width="688.125" height="51.1" style="fill: rgb(0, 0, 0); fill-opacity: 0;"/></g><g class="traces" transform="translate(0,81.65)" style="opacity: 1;"><text class="legendtext" text-anchor="start" x="40" y="14.43" style="font-family: 'Open Sans', verdana, arial, sans-serif; font-size: 37px; fill: rgb(42, 63, 95); fill-opacity: 1; white-space: pre;">Predicted Curvature at Anchors #2</text><g class="layers" style="opacity: 1;"><g class="legendfill"/><g class="legendlines"><path class="js-line" d="M5,0h30" style="fill: none; stroke: rgb(0, 170, 0); stroke-opacity: 1; stroke-width: 4px;"/></g><g class="legendsymbols"><g class="legendpoints"/></g></g><rect class="legendtoggle" x="0" y="-25.55" width="688.125" height="51.1" style="fill: rgb(0, 0, 0); fill-opacity: 0;"/></g></g></g><rect class="scrollbar" rx="20" ry="3" width="0" height="0" x="0" y="0" style="fill: rgb(128, 139, 164); fill-opacity: 1;"/></g><g class="g-gtitle"/><g class="g-xtitle"><text class="xtitle" x="1451" y="987.8" text-anchor="middle" style="font-family: 'Open Sans', verdana, arial, sans-serif; font-size: 44px; fill: rgb(42, 63, 95); opacity: 1; font-weight: normal; white-space: pre;">Anchor Point Index</text></g><g class="g-ytitle" transform="translate(31.6591796875,0)"><text class="ytitle" transform="rotate(-90,12.340624999999989,498)" x="12.340624999999989" y="498" text-anchor="middle" style="font-family: 'Open Sans', verdana, arial, sans-serif; font-size: 44px; fill: rgb(42, 63, 95); opacity: 1; font-weight: normal; white-space: pre;">Predicted Curvature</text></g><g class="annotation" data-index="0" style="opacity: 1;"><g class="annotation-text-g" transform="rotate(0,1451,66.49999999999993)"><g class="cursor-pointer" transform="translate(234,33)"><rect class="bg" x="0.5" y="0.5" width="2433" height="66" style="stroke-width: 1px; stroke: rgb(0, 0, 0); stroke-opacity: 0; fill: rgb(0, 0, 0); fill-opacity: 0;"/><text class="annotation-text" text-anchor="middle" x="1217.03125" y="54" style="font-family: 'Open Sans', verdana, arial, sans-serif; font-size: 52px; fill: rgb(42, 63, 95); fill-opacity: 1; white-space: pre;"><tspan style="font-weight:bold">Predicted Curvature at Anchors (Transformed Curve #1 vs. Transformed Curve #2)</tspan></text></g></g></g></g></svg>