<?xml version="1.0" encoding="utf-8" standalone="no"?>
<!DOCTYPE svg PUBLIC "-//W3C//DTD SVG 1.1//EN"
  "http://www.w3.org/Graphics/SVG/1.1/DTD/svg11.dtd">
<svg xmlns:xlink="http://www.w3.org/1999/xlink" width="4320pt" height="1440pt" viewBox="0 0 4320 1440" xmlns="http://www.w3.org/2000/svg" version="1.1">
 <metadata>
  <rdf:RDF xmlns:dc="http://purl.org/dc/elements/1.1/" xmlns:cc="http://creativecommons.org/ns#" xmlns:rdf="http://www.w3.org/1999/02/22-rdf-syntax-ns#">
   <cc:Work>
    <dc:type rdf:resource="http://purl.org/dc/dcmitype/StillImage"/>
    <dc:date>2021-11-07T01:36:24.799611</dc:date>
    <dc:format>image/svg+xml</dc:format>
    <dc:creator>
     <cc:Agent>
      <dc:title>Matplotlib v3.5.0rc1, https://matplotlib.org/</dc:title>
     </cc:Agent>
    </dc:creator>
   </cc:Work>
  </rdf:RDF>
 </metadata>
 <defs>
  <style type="text/css">*{stroke-linejoin: round; stroke-linecap: butt}</style>
 </defs>
 <g id="figure_1">
  <g id="patch_1">
   <path d="M 0 1440 
L 4320 1440 
L 4320 0 
L 0 0 
z
" style="fill: #ffffff"/>
  </g>
  <g id="axes_1">
   <g id="patch_2">
    <path d="M 540 1260 
L 3888 1260 
L 3888 172.8 
L 540 172.8 
z
" style="fill: #ffffff"/>
   </g>
   <g id="matplotlib.axis_1">
    <g id="xtick_1">
     <g id="line2d_1">
      <defs>
       <path id="mf2f45fb35a" d="M 0 0 
L 0 3.5 
" style="stroke: #000000; stroke-width: 0.8"/>
      </defs>
      <g>
       <use xlink:href="#mf2f45fb35a" x="692.181818" y="1260" style="stroke: #000000; stroke-width: 0.8"/>
      </g>
     </g>
     <g id="text_1">
      <!-- 0 -->
      <g transform="translate(684.228693 1285.996094)scale(0.25 -0.25)">
       <defs>
        <path id="DejaVuSans-30" d="M 2034 4250 
Q 1547 4250 1301 3770 
Q 1056 3291 1056 2328 
Q 1056 1369 1301 889 
Q 1547 409 2034 409 
Q 2525 409 2770 889 
Q 3016 1369 3016 2328 
Q 3016 3291 2770 3770 
Q 2525 4250 2034 4250 
z
M 2034 4750 
Q 2819 4750 3233 4129 
Q 3647 3509 3647 2328 
Q 3647 1150 3233 529 
Q 2819 -91 2034 -91 
Q 1250 -91 836 529 
Q 422 1150 422 2328 
Q 422 3509 836 4129 
Q 1250 4750 2034 4750 
z
" transform="scale(0.015625)"/>
       </defs>
       <use xlink:href="#DejaVuSans-30"/>
      </g>
     </g>
    </g>
    <g id="xtick_2">
     <g id="line2d_2">
      <g>
       <use xlink:href="#mf2f45fb35a" x="1118.859813" y="1260" style="stroke: #000000; stroke-width: 0.8"/>
      </g>
     </g>
     <g id="text_2">
      <!-- 150 -->
      <g transform="translate(1095.000438 1285.996094)scale(0.25 -0.25)">
       <defs>
        <path id="DejaVuSans-31" d="M 794 531 
L 1825 531 
L 1825 4091 
L 703 3866 
L 703 4441 
L 1819 4666 
L 2450 4666 
L 2450 531 
L 3481 531 
L 3481 0 
L 794 0 
L 794 531 
z
" transform="scale(0.015625)"/>
        <path id="DejaVuSans-35" d="M 691 4666 
L 3169 4666 
L 3169 4134 
L 1269 4134 
L 1269 2991 
Q 1406 3038 1543 3061 
Q 1681 3084 1819 3084 
Q 2600 3084 3056 2656 
Q 3513 2228 3513 1497 
Q 3513 744 3044 326 
Q 2575 -91 1722 -91 
Q 1428 -91 1123 -41 
Q 819 9 494 109 
L 494 744 
Q 775 591 1075 516 
Q 1375 441 1709 441 
Q 2250 441 2565 725 
Q 2881 1009 2881 1497 
Q 2881 1984 2565 2268 
Q 2250 2553 1709 2553 
Q 1456 2553 1204 2497 
Q 953 2441 691 2322 
L 691 4666 
z
" transform="scale(0.015625)"/>
       </defs>
       <use xlink:href="#DejaVuSans-31"/>
       <use xlink:href="#DejaVuSans-35" x="63.623047"/>
       <use xlink:href="#DejaVuSans-30" x="127.246094"/>
      </g>
     </g>
    </g>
    <g id="xtick_3">
     <g id="line2d_3">
      <g>
       <use xlink:href="#mf2f45fb35a" x="1545.537808" y="1260" style="stroke: #000000; stroke-width: 0.8"/>
      </g>
     </g>
     <g id="text_3">
      <!-- 300 -->
      <g transform="translate(1521.678433 1285.996094)scale(0.25 -0.25)">
       <defs>
        <path id="DejaVuSans-33" d="M 2597 2516 
Q 3050 2419 3304 2112 
Q 3559 1806 3559 1356 
Q 3559 666 3084 287 
Q 2609 -91 1734 -91 
Q 1441 -91 1130 -33 
Q 819 25 488 141 
L 488 750 
Q 750 597 1062 519 
Q 1375 441 1716 441 
Q 2309 441 2620 675 
Q 2931 909 2931 1356 
Q 2931 1769 2642 2001 
Q 2353 2234 1838 2234 
L 1294 2234 
L 1294 2753 
L 1863 2753 
Q 2328 2753 2575 2939 
Q 2822 3125 2822 3475 
Q 2822 3834 2567 4026 
Q 2313 4219 1838 4219 
Q 1578 4219 1281 4162 
Q 984 4106 628 3988 
L 628 4550 
Q 988 4650 1302 4700 
Q 1616 4750 1894 4750 
Q 2613 4750 3031 4423 
Q 3450 4097 3450 3541 
Q 3450 3153 3228 2886 
Q 3006 2619 2597 2516 
z
" transform="scale(0.015625)"/>
       </defs>
       <use xlink:href="#DejaVuSans-33"/>
       <use xlink:href="#DejaVuSans-30" x="63.623047"/>
       <use xlink:href="#DejaVuSans-30" x="127.246094"/>
      </g>
     </g>
    </g>
    <g id="xtick_4">
     <g id="line2d_4">
      <g>
       <use xlink:href="#mf2f45fb35a" x="1972.215803" y="1260" style="stroke: #000000; stroke-width: 0.8"/>
      </g>
     </g>
     <g id="text_4">
      <!-- 450 -->
      <g transform="translate(1948.356428 1285.996094)scale(0.25 -0.25)">
       <defs>
        <path id="DejaVuSans-34" d="M 2419 4116 
L 825 1625 
L 2419 1625 
L 2419 4116 
z
M 2253 4666 
L 3047 4666 
L 3047 1625 
L 3713 1625 
L 3713 1100 
L 3047 1100 
L 3047 0 
L 2419 0 
L 2419 1100 
L 313 1100 
L 313 1709 
L 2253 4666 
z
" transform="scale(0.015625)"/>
       </defs>
       <use xlink:href="#DejaVuSans-34"/>
       <use xlink:href="#DejaVuSans-35" x="63.623047"/>
       <use xlink:href="#DejaVuSans-30" x="127.246094"/>
      </g>
     </g>
    </g>
    <g id="xtick_5">
     <g id="line2d_5">
      <g>
       <use xlink:href="#mf2f45fb35a" x="2398.893798" y="1260" style="stroke: #000000; stroke-width: 0.8"/>
      </g>
     </g>
     <g id="text_5">
      <!-- 600 -->
      <g transform="translate(2375.034423 1285.996094)scale(0.25 -0.25)">
       <defs>
        <path id="DejaVuSans-36" d="M 2113 2584 
Q 1688 2584 1439 2293 
Q 1191 2003 1191 1497 
Q 1191 994 1439 701 
Q 1688 409 2113 409 
Q 2538 409 2786 701 
Q 3034 994 3034 1497 
Q 3034 2003 2786 2293 
Q 2538 2584 2113 2584 
z
M 3366 4563 
L 3366 3988 
Q 3128 4100 2886 4159 
Q 2644 4219 2406 4219 
Q 1781 4219 1451 3797 
Q 1122 3375 1075 2522 
Q 1259 2794 1537 2939 
Q 1816 3084 2150 3084 
Q 2853 3084 3261 2657 
Q 3669 2231 3669 1497 
Q 3669 778 3244 343 
Q 2819 -91 2113 -91 
Q 1303 -91 875 529 
Q 447 1150 447 2328 
Q 447 3434 972 4092 
Q 1497 4750 2381 4750 
Q 2619 4750 2861 4703 
Q 3103 4656 3366 4563 
z
" transform="scale(0.015625)"/>
       </defs>
       <use xlink:href="#DejaVuSans-36"/>
       <use xlink:href="#DejaVuSans-30" x="63.623047"/>
       <use xlink:href="#DejaVuSans-30" x="127.246094"/>
      </g>
     </g>
    </g>
    <g id="xtick_6">
     <g id="line2d_6">
      <g>
       <use xlink:href="#mf2f45fb35a" x="2825.571793" y="1260" style="stroke: #000000; stroke-width: 0.8"/>
      </g>
     </g>
     <g id="text_6">
      <!-- 750 -->
      <g transform="translate(2801.712418 1285.996094)scale(0.25 -0.25)">
       <defs>
        <path id="DejaVuSans-37" d="M 525 4666 
L 3525 4666 
L 3525 4397 
L 1831 0 
L 1172 0 
L 2766 4134 
L 525 4134 
L 525 4666 
z
" transform="scale(0.015625)"/>
       </defs>
       <use xlink:href="#DejaVuSans-37"/>
       <use xlink:href="#DejaVuSans-35" x="63.623047"/>
       <use xlink:href="#DejaVuSans-30" x="127.246094"/>
      </g>
     </g>
    </g>
    <g id="xtick_7">
     <g id="line2d_7">
      <g>
       <use xlink:href="#mf2f45fb35a" x="3252.249788" y="1260" style="stroke: #000000; stroke-width: 0.8"/>
      </g>
     </g>
     <g id="text_7">
      <!-- 900 -->
      <g transform="translate(3228.390413 1285.996094)scale(0.25 -0.25)">
       <defs>
        <path id="DejaVuSans-39" d="M 703 97 
L 703 672 
Q 941 559 1184 500 
Q 1428 441 1663 441 
Q 2288 441 2617 861 
Q 2947 1281 2994 2138 
Q 2813 1869 2534 1725 
Q 2256 1581 1919 1581 
Q 1219 1581 811 2004 
Q 403 2428 403 3163 
Q 403 3881 828 4315 
Q 1253 4750 1959 4750 
Q 2769 4750 3195 4129 
Q 3622 3509 3622 2328 
Q 3622 1225 3098 567 
Q 2575 -91 1691 -91 
Q 1453 -91 1209 -44 
Q 966 3 703 97 
z
M 1959 2075 
Q 2384 2075 2632 2365 
Q 2881 2656 2881 3163 
Q 2881 3666 2632 3958 
Q 2384 4250 1959 4250 
Q 1534 4250 1286 3958 
Q 1038 3666 1038 3163 
Q 1038 2656 1286 2365 
Q 1534 2075 1959 2075 
z
" transform="scale(0.015625)"/>
       </defs>
       <use xlink:href="#DejaVuSans-39"/>
       <use xlink:href="#DejaVuSans-30" x="63.623047"/>
       <use xlink:href="#DejaVuSans-30" x="127.246094"/>
      </g>
     </g>
    </g>
    <g id="xtick_8">
     <g id="line2d_8">
      <g>
       <use xlink:href="#mf2f45fb35a" x="3678.927782" y="1260" style="stroke: #000000; stroke-width: 0.8"/>
      </g>
     </g>
     <g id="text_8">
      <!-- 1050 -->
      <g transform="translate(3647.115282 1285.996094)scale(0.25 -0.25)">
       <use xlink:href="#DejaVuSans-31"/>
       <use xlink:href="#DejaVuSans-30" x="63.623047"/>
       <use xlink:href="#DejaVuSans-35" x="127.246094"/>
       <use xlink:href="#DejaVuSans-30" x="190.869141"/>
      </g>
     </g>
    </g>
    <g id="text_9">
     <!-- Point Index -->
     <g transform="translate(2116.817578 1321.789844)scale(0.35 -0.35)">
      <defs>
       <path id="DejaVuSans-50" d="M 1259 4147 
L 1259 2394 
L 2053 2394 
Q 2494 2394 2734 2622 
Q 2975 2850 2975 3272 
Q 2975 3691 2734 3919 
Q 2494 4147 2053 4147 
L 1259 4147 
z
M 628 4666 
L 2053 4666 
Q 2838 4666 3239 4311 
Q 3641 3956 3641 3272 
Q 3641 2581 3239 2228 
Q 2838 1875 2053 1875 
L 1259 1875 
L 1259 0 
L 628 0 
L 628 4666 
z
" transform="scale(0.015625)"/>
       <path id="DejaVuSans-6f" d="M 1959 3097 
Q 1497 3097 1228 2736 
Q 959 2375 959 1747 
Q 959 1119 1226 758 
Q 1494 397 1959 397 
Q 2419 397 2687 759 
Q 2956 1122 2956 1747 
Q 2956 2369 2687 2733 
Q 2419 3097 1959 3097 
z
M 1959 3584 
Q 2709 3584 3137 3096 
Q 3566 2609 3566 1747 
Q 3566 888 3137 398 
Q 2709 -91 1959 -91 
Q 1206 -91 779 398 
Q 353 888 353 1747 
Q 353 2609 779 3096 
Q 1206 3584 1959 3584 
z
" transform="scale(0.015625)"/>
       <path id="DejaVuSans-69" d="M 603 3500 
L 1178 3500 
L 1178 0 
L 603 0 
L 603 3500 
z
M 603 4863 
L 1178 4863 
L 1178 4134 
L 603 4134 
L 603 4863 
z
" transform="scale(0.015625)"/>
       <path id="DejaVuSans-6e" d="M 3513 2113 
L 3513 0 
L 2938 0 
L 2938 2094 
Q 2938 2591 2744 2837 
Q 2550 3084 2163 3084 
Q 1697 3084 1428 2787 
Q 1159 2491 1159 1978 
L 1159 0 
L 581 0 
L 581 3500 
L 1159 3500 
L 1159 2956 
Q 1366 3272 1645 3428 
Q 1925 3584 2291 3584 
Q 2894 3584 3203 3211 
Q 3513 2838 3513 2113 
z
" transform="scale(0.015625)"/>
       <path id="DejaVuSans-74" d="M 1172 4494 
L 1172 3500 
L 2356 3500 
L 2356 3053 
L 1172 3053 
L 1172 1153 
Q 1172 725 1289 603 
Q 1406 481 1766 481 
L 2356 481 
L 2356 0 
L 1766 0 
Q 1100 0 847 248 
Q 594 497 594 1153 
L 594 3053 
L 172 3053 
L 172 3500 
L 594 3500 
L 594 4494 
L 1172 4494 
z
" transform="scale(0.015625)"/>
       <path id="DejaVuSans-20" transform="scale(0.015625)"/>
       <path id="DejaVuSans-49" d="M 628 4666 
L 1259 4666 
L 1259 0 
L 628 0 
L 628 4666 
z
" transform="scale(0.015625)"/>
       <path id="DejaVuSans-64" d="M 2906 2969 
L 2906 4863 
L 3481 4863 
L 3481 0 
L 2906 0 
L 2906 525 
Q 2725 213 2448 61 
Q 2172 -91 1784 -91 
Q 1150 -91 751 415 
Q 353 922 353 1747 
Q 353 2572 751 3078 
Q 1150 3584 1784 3584 
Q 2172 3584 2448 3432 
Q 2725 3281 2906 2969 
z
M 947 1747 
Q 947 1113 1208 752 
Q 1469 391 1925 391 
Q 2381 391 2643 752 
Q 2906 1113 2906 1747 
Q 2906 2381 2643 2742 
Q 2381 3103 1925 3103 
Q 1469 3103 1208 2742 
Q 947 2381 947 1747 
z
" transform="scale(0.015625)"/>
       <path id="DejaVuSans-65" d="M 3597 1894 
L 3597 1613 
L 953 1613 
Q 991 1019 1311 708 
Q 1631 397 2203 397 
Q 2534 397 2845 478 
Q 3156 559 3463 722 
L 3463 178 
Q 3153 47 2828 -22 
Q 2503 -91 2169 -91 
Q 1331 -91 842 396 
Q 353 884 353 1716 
Q 353 2575 817 3079 
Q 1281 3584 2069 3584 
Q 2775 3584 3186 3129 
Q 3597 2675 3597 1894 
z
M 3022 2063 
Q 3016 2534 2758 2815 
Q 2500 3097 2075 3097 
Q 1594 3097 1305 2825 
Q 1016 2553 972 2059 
L 3022 2063 
z
" transform="scale(0.015625)"/>
       <path id="DejaVuSans-78" d="M 3513 3500 
L 2247 1797 
L 3578 0 
L 2900 0 
L 1881 1375 
L 863 0 
L 184 0 
L 1544 1831 
L 300 3500 
L 978 3500 
L 1906 2253 
L 2834 3500 
L 3513 3500 
z
" transform="scale(0.015625)"/>
      </defs>
      <use xlink:href="#DejaVuSans-50"/>
      <use xlink:href="#DejaVuSans-6f" x="56.677734"/>
      <use xlink:href="#DejaVuSans-69" x="117.859375"/>
      <use xlink:href="#DejaVuSans-6e" x="145.642578"/>
      <use xlink:href="#DejaVuSans-74" x="209.021484"/>
      <use xlink:href="#DejaVuSans-20" x="248.230469"/>
      <use xlink:href="#DejaVuSans-49" x="280.017578"/>
      <use xlink:href="#DejaVuSans-6e" x="309.509766"/>
      <use xlink:href="#DejaVuSans-64" x="372.888672"/>
      <use xlink:href="#DejaVuSans-65" x="436.365234"/>
      <use xlink:href="#DejaVuSans-78" x="496.138672"/>
     </g>
    </g>
   </g>
   <g id="matplotlib.axis_2">
    <g id="ytick_1">
     <g id="line2d_9">
      <defs>
       <path id="meeb222bfcf" d="M 0 0 
L -3.5 0 
" style="stroke: #000000; stroke-width: 0.8"/>
      </defs>
      <g>
       <use xlink:href="#meeb222bfcf" x="540" y="1210.581818" style="stroke: #000000; stroke-width: 0.8"/>
      </g>
     </g>
     <g id="text_10">
      <!-- 0 -->
      <g transform="translate(517.09375 1220.079865)scale(0.25 -0.25)">
       <use xlink:href="#DejaVuSans-30"/>
      </g>
     </g>
    </g>
    <g id="ytick_2">
     <g id="line2d_10">
      <g>
       <use xlink:href="#meeb222bfcf" x="540" y="1068.875154" style="stroke: #000000; stroke-width: 0.8"/>
      </g>
     </g>
     <g id="text_11">
      <!-- 100 -->
      <g transform="translate(485.28125 1078.373201)scale(0.25 -0.25)">
       <use xlink:href="#DejaVuSans-31"/>
       <use xlink:href="#DejaVuSans-30" x="63.623047"/>
       <use xlink:href="#DejaVuSans-30" x="127.246094"/>
      </g>
     </g>
    </g>
    <g id="ytick_3">
     <g id="line2d_11">
      <g>
       <use xlink:href="#meeb222bfcf" x="540" y="927.16849" style="stroke: #000000; stroke-width: 0.8"/>
      </g>
     </g>
     <g id="text_12">
      <!-- 200 -->
      <g transform="translate(485.28125 936.666537)scale(0.25 -0.25)">
       <defs>
        <path id="DejaVuSans-32" d="M 1228 531 
L 3431 531 
L 3431 0 
L 469 0 
L 469 531 
Q 828 903 1448 1529 
Q 2069 2156 2228 2338 
Q 2531 2678 2651 2914 
Q 2772 3150 2772 3378 
Q 2772 3750 2511 3984 
Q 2250 4219 1831 4219 
Q 1534 4219 1204 4116 
Q 875 4013 500 3803 
L 500 4441 
Q 881 4594 1212 4672 
Q 1544 4750 1819 4750 
Q 2544 4750 2975 4387 
Q 3406 4025 3406 3419 
Q 3406 3131 3298 2873 
Q 3191 2616 2906 2266 
Q 2828 2175 2409 1742 
Q 1991 1309 1228 531 
z
" transform="scale(0.015625)"/>
       </defs>
       <use xlink:href="#DejaVuSans-32"/>
       <use xlink:href="#DejaVuSans-30" x="63.623047"/>
       <use xlink:href="#DejaVuSans-30" x="127.246094"/>
      </g>
     </g>
    </g>
    <g id="ytick_4">
     <g id="line2d_12">
      <g>
       <use xlink:href="#meeb222bfcf" x="540" y="785.461826" style="stroke: #000000; stroke-width: 0.8"/>
      </g>
     </g>
     <g id="text_13">
      <!-- 300 -->
      <g transform="translate(485.28125 794.959873)scale(0.25 -0.25)">
       <use xlink:href="#DejaVuSans-33"/>
       <use xlink:href="#DejaVuSans-30" x="63.623047"/>
       <use xlink:href="#DejaVuSans-30" x="127.246094"/>
      </g>
     </g>
    </g>
    <g id="ytick_5">
     <g id="line2d_13">
      <g>
       <use xlink:href="#meeb222bfcf" x="540" y="643.755162" style="stroke: #000000; stroke-width: 0.8"/>
      </g>
     </g>
     <g id="text_14">
      <!-- 400 -->
      <g transform="translate(485.28125 653.253209)scale(0.25 -0.25)">
       <use xlink:href="#DejaVuSans-34"/>
       <use xlink:href="#DejaVuSans-30" x="63.623047"/>
       <use xlink:href="#DejaVuSans-30" x="127.246094"/>
      </g>
     </g>
    </g>
    <g id="ytick_6">
     <g id="line2d_14">
      <g>
       <use xlink:href="#meeb222bfcf" x="540" y="502.048498" style="stroke: #000000; stroke-width: 0.8"/>
      </g>
     </g>
     <g id="text_15">
      <!-- 500 -->
      <g transform="translate(485.28125 511.546545)scale(0.25 -0.25)">
       <use xlink:href="#DejaVuSans-35"/>
       <use xlink:href="#DejaVuSans-30" x="63.623047"/>
       <use xlink:href="#DejaVuSans-30" x="127.246094"/>
      </g>
     </g>
    </g>
    <g id="ytick_7">
     <g id="line2d_15">
      <g>
       <use xlink:href="#meeb222bfcf" x="540" y="360.341834" style="stroke: #000000; stroke-width: 0.8"/>
      </g>
     </g>
     <g id="text_16">
      <!-- 600 -->
      <g transform="translate(485.28125 369.839881)scale(0.25 -0.25)">
       <use xlink:href="#DejaVuSans-36"/>
       <use xlink:href="#DejaVuSans-30" x="63.623047"/>
       <use xlink:href="#DejaVuSans-30" x="127.246094"/>
      </g>
     </g>
    </g>
    <g id="ytick_8">
     <g id="line2d_16">
      <g>
       <use xlink:href="#meeb222bfcf" x="540" y="218.63517" style="stroke: #000000; stroke-width: 0.8"/>
      </g>
     </g>
     <g id="text_17">
      <!-- 700 -->
      <g transform="translate(485.28125 228.133217)scale(0.25 -0.25)">
       <use xlink:href="#DejaVuSans-37"/>
       <use xlink:href="#DejaVuSans-30" x="63.623047"/>
       <use xlink:href="#DejaVuSans-30" x="127.246094"/>
      </g>
     </g>
    </g>
    <g id="text_18">
     <!-- Arc-Length -->
     <g transform="translate(474.002344 811.471484)rotate(-90)scale(0.35 -0.35)">
      <defs>
       <path id="DejaVuSans-41" d="M 2188 4044 
L 1331 1722 
L 3047 1722 
L 2188 4044 
z
M 1831 4666 
L 2547 4666 
L 4325 0 
L 3669 0 
L 3244 1197 
L 1141 1197 
L 716 0 
L 50 0 
L 1831 4666 
z
" transform="scale(0.015625)"/>
       <path id="DejaVuSans-72" d="M 2631 2963 
Q 2534 3019 2420 3045 
Q 2306 3072 2169 3072 
Q 1681 3072 1420 2755 
Q 1159 2438 1159 1844 
L 1159 0 
L 581 0 
L 581 3500 
L 1159 3500 
L 1159 2956 
Q 1341 3275 1631 3429 
Q 1922 3584 2338 3584 
Q 2397 3584 2469 3576 
Q 2541 3569 2628 3553 
L 2631 2963 
z
" transform="scale(0.015625)"/>
       <path id="DejaVuSans-63" d="M 3122 3366 
L 3122 2828 
Q 2878 2963 2633 3030 
Q 2388 3097 2138 3097 
Q 1578 3097 1268 2742 
Q 959 2388 959 1747 
Q 959 1106 1268 751 
Q 1578 397 2138 397 
Q 2388 397 2633 464 
Q 2878 531 3122 666 
L 3122 134 
Q 2881 22 2623 -34 
Q 2366 -91 2075 -91 
Q 1284 -91 818 406 
Q 353 903 353 1747 
Q 353 2603 823 3093 
Q 1294 3584 2113 3584 
Q 2378 3584 2631 3529 
Q 2884 3475 3122 3366 
z
" transform="scale(0.015625)"/>
       <path id="DejaVuSans-2d" d="M 313 2009 
L 1997 2009 
L 1997 1497 
L 313 1497 
L 313 2009 
z
" transform="scale(0.015625)"/>
       <path id="DejaVuSans-4c" d="M 628 4666 
L 1259 4666 
L 1259 531 
L 3531 531 
L 3531 0 
L 628 0 
L 628 4666 
z
" transform="scale(0.015625)"/>
       <path id="DejaVuSans-67" d="M 2906 1791 
Q 2906 2416 2648 2759 
Q 2391 3103 1925 3103 
Q 1463 3103 1205 2759 
Q 947 2416 947 1791 
Q 947 1169 1205 825 
Q 1463 481 1925 481 
Q 2391 481 2648 825 
Q 2906 1169 2906 1791 
z
M 3481 434 
Q 3481 -459 3084 -895 
Q 2688 -1331 1869 -1331 
Q 1566 -1331 1297 -1286 
Q 1028 -1241 775 -1147 
L 775 -588 
Q 1028 -725 1275 -790 
Q 1522 -856 1778 -856 
Q 2344 -856 2625 -561 
Q 2906 -266 2906 331 
L 2906 616 
Q 2728 306 2450 153 
Q 2172 0 1784 0 
Q 1141 0 747 490 
Q 353 981 353 1791 
Q 353 2603 747 3093 
Q 1141 3584 1784 3584 
Q 2172 3584 2450 3431 
Q 2728 3278 2906 2969 
L 2906 3500 
L 3481 3500 
L 3481 434 
z
" transform="scale(0.015625)"/>
       <path id="DejaVuSans-68" d="M 3513 2113 
L 3513 0 
L 2938 0 
L 2938 2094 
Q 2938 2591 2744 2837 
Q 2550 3084 2163 3084 
Q 1697 3084 1428 2787 
Q 1159 2491 1159 1978 
L 1159 0 
L 581 0 
L 581 4863 
L 1159 4863 
L 1159 2956 
Q 1366 3272 1645 3428 
Q 1925 3584 2291 3584 
Q 2894 3584 3203 3211 
Q 3513 2838 3513 2113 
z
" transform="scale(0.015625)"/>
      </defs>
      <use xlink:href="#DejaVuSans-41"/>
      <use xlink:href="#DejaVuSans-72" x="68.408203"/>
      <use xlink:href="#DejaVuSans-63" x="107.271484"/>
      <use xlink:href="#DejaVuSans-2d" x="162.251953"/>
      <use xlink:href="#DejaVuSans-4c" x="198.335938"/>
      <use xlink:href="#DejaVuSans-65" x="252.298828"/>
      <use xlink:href="#DejaVuSans-6e" x="313.822266"/>
      <use xlink:href="#DejaVuSans-67" x="377.201172"/>
      <use xlink:href="#DejaVuSans-74" x="440.677734"/>
      <use xlink:href="#DejaVuSans-68" x="479.886719"/>
     </g>
    </g>
   </g>
   <g id="patch_3">
    <path d="M 540 1260 
L 540 172.8 
" style="fill: none; stroke: #000000; stroke-width: 0.8; stroke-linejoin: miter; stroke-linecap: square"/>
   </g>
   <g id="patch_4">
    <path d="M 3888 1260 
L 3888 172.8 
" style="fill: none; stroke: #000000; stroke-width: 0.8; stroke-linejoin: miter; stroke-linecap: square"/>
   </g>
   <g id="patch_5">
    <path d="M 540 1260 
L 3888 1260 
" style="fill: none; stroke: #000000; stroke-width: 0.8; stroke-linejoin: miter; stroke-linecap: square"/>
   </g>
   <g id="patch_6">
    <path d="M 540 172.8 
L 3888 172.8 
" style="fill: none; stroke: #000000; stroke-width: 0.8; stroke-linejoin: miter; stroke-linecap: square"/>
   </g>
   <g id="text_19">
    <!-- Predicted Arc-Length vs. Ground Truth Arc-Length (at Anchors) -->
    <g transform="translate(1667.007422 165.521094)scale(0.35 -0.35)">
     <defs>
      <path id="DejaVuSans-76" d="M 191 3500 
L 800 3500 
L 1894 563 
L 2988 3500 
L 3597 3500 
L 2284 0 
L 1503 0 
L 191 3500 
z
" transform="scale(0.015625)"/>
      <path id="DejaVuSans-73" d="M 2834 3397 
L 2834 2853 
Q 2591 2978 2328 3040 
Q 2066 3103 1784 3103 
Q 1356 3103 1142 2972 
Q 928 2841 928 2578 
Q 928 2378 1081 2264 
Q 1234 2150 1697 2047 
L 1894 2003 
Q 2506 1872 2764 1633 
Q 3022 1394 3022 966 
Q 3022 478 2636 193 
Q 2250 -91 1575 -91 
Q 1294 -91 989 -36 
Q 684 19 347 128 
L 347 722 
Q 666 556 975 473 
Q 1284 391 1588 391 
Q 1994 391 2212 530 
Q 2431 669 2431 922 
Q 2431 1156 2273 1281 
Q 2116 1406 1581 1522 
L 1381 1569 
Q 847 1681 609 1914 
Q 372 2147 372 2553 
Q 372 3047 722 3315 
Q 1072 3584 1716 3584 
Q 2034 3584 2315 3537 
Q 2597 3491 2834 3397 
z
" transform="scale(0.015625)"/>
      <path id="DejaVuSans-2e" d="M 684 794 
L 1344 794 
L 1344 0 
L 684 0 
L 684 794 
z
" transform="scale(0.015625)"/>
      <path id="DejaVuSans-47" d="M 3809 666 
L 3809 1919 
L 2778 1919 
L 2778 2438 
L 4434 2438 
L 4434 434 
Q 4069 175 3628 42 
Q 3188 -91 2688 -91 
Q 1594 -91 976 548 
Q 359 1188 359 2328 
Q 359 3472 976 4111 
Q 1594 4750 2688 4750 
Q 3144 4750 3555 4637 
Q 3966 4525 4313 4306 
L 4313 3634 
Q 3963 3931 3569 4081 
Q 3175 4231 2741 4231 
Q 1884 4231 1454 3753 
Q 1025 3275 1025 2328 
Q 1025 1384 1454 906 
Q 1884 428 2741 428 
Q 3075 428 3337 486 
Q 3600 544 3809 666 
z
" transform="scale(0.015625)"/>
      <path id="DejaVuSans-75" d="M 544 1381 
L 544 3500 
L 1119 3500 
L 1119 1403 
Q 1119 906 1312 657 
Q 1506 409 1894 409 
Q 2359 409 2629 706 
Q 2900 1003 2900 1516 
L 2900 3500 
L 3475 3500 
L 3475 0 
L 2900 0 
L 2900 538 
Q 2691 219 2414 64 
Q 2138 -91 1772 -91 
Q 1169 -91 856 284 
Q 544 659 544 1381 
z
M 1991 3584 
L 1991 3584 
z
" transform="scale(0.015625)"/>
      <path id="DejaVuSans-54" d="M -19 4666 
L 3928 4666 
L 3928 4134 
L 2272 4134 
L 2272 0 
L 1638 0 
L 1638 4134 
L -19 4134 
L -19 4666 
z
" transform="scale(0.015625)"/>
      <path id="DejaVuSans-28" d="M 1984 4856 
Q 1566 4138 1362 3434 
Q 1159 2731 1159 2009 
Q 1159 1288 1364 580 
Q 1569 -128 1984 -844 
L 1484 -844 
Q 1016 -109 783 600 
Q 550 1309 550 2009 
Q 550 2706 781 3412 
Q 1013 4119 1484 4856 
L 1984 4856 
z
" transform="scale(0.015625)"/>
      <path id="DejaVuSans-61" d="M 2194 1759 
Q 1497 1759 1228 1600 
Q 959 1441 959 1056 
Q 959 750 1161 570 
Q 1363 391 1709 391 
Q 2188 391 2477 730 
Q 2766 1069 2766 1631 
L 2766 1759 
L 2194 1759 
z
M 3341 1997 
L 3341 0 
L 2766 0 
L 2766 531 
Q 2569 213 2275 61 
Q 1981 -91 1556 -91 
Q 1019 -91 701 211 
Q 384 513 384 1019 
Q 384 1609 779 1909 
Q 1175 2209 1959 2209 
L 2766 2209 
L 2766 2266 
Q 2766 2663 2505 2880 
Q 2244 3097 1772 3097 
Q 1472 3097 1187 3025 
Q 903 2953 641 2809 
L 641 3341 
Q 956 3463 1253 3523 
Q 1550 3584 1831 3584 
Q 2591 3584 2966 3190 
Q 3341 2797 3341 1997 
z
" transform="scale(0.015625)"/>
      <path id="DejaVuSans-29" d="M 513 4856 
L 1013 4856 
Q 1481 4119 1714 3412 
Q 1947 2706 1947 2009 
Q 1947 1309 1714 600 
Q 1481 -109 1013 -844 
L 513 -844 
Q 928 -128 1133 580 
Q 1338 1288 1338 2009 
Q 1338 2731 1133 3434 
Q 928 4138 513 4856 
z
" transform="scale(0.015625)"/>
     </defs>
     <use xlink:href="#DejaVuSans-50"/>
     <use xlink:href="#DejaVuSans-72" x="58.552734"/>
     <use xlink:href="#DejaVuSans-65" x="97.416016"/>
     <use xlink:href="#DejaVuSans-64" x="158.939453"/>
     <use xlink:href="#DejaVuSans-69" x="222.416016"/>
     <use xlink:href="#DejaVuSans-63" x="250.199219"/>
     <use xlink:href="#DejaVuSans-74" x="305.179688"/>
     <use xlink:href="#DejaVuSans-65" x="344.388672"/>
     <use xlink:href="#DejaVuSans-64" x="405.912109"/>
     <use xlink:href="#DejaVuSans-20" x="469.388672"/>
     <use xlink:href="#DejaVuSans-41" x="501.175781"/>
     <use xlink:href="#DejaVuSans-72" x="569.583984"/>
     <use xlink:href="#DejaVuSans-63" x="608.447266"/>
     <use xlink:href="#DejaVuSans-2d" x="663.427734"/>
     <use xlink:href="#DejaVuSans-4c" x="699.511719"/>
     <use xlink:href="#DejaVuSans-65" x="753.474609"/>
     <use xlink:href="#DejaVuSans-6e" x="814.998047"/>
     <use xlink:href="#DejaVuSans-67" x="878.376953"/>
     <use xlink:href="#DejaVuSans-74" x="941.853516"/>
     <use xlink:href="#DejaVuSans-68" x="981.0625"/>
     <use xlink:href="#DejaVuSans-20" x="1044.441406"/>
     <use xlink:href="#DejaVuSans-76" x="1076.228516"/>
     <use xlink:href="#DejaVuSans-73" x="1135.408203"/>
     <use xlink:href="#DejaVuSans-2e" x="1187.507812"/>
     <use xlink:href="#DejaVuSans-20" x="1219.294922"/>
     <use xlink:href="#DejaVuSans-47" x="1251.082031"/>
     <use xlink:href="#DejaVuSans-72" x="1328.572266"/>
     <use xlink:href="#DejaVuSans-6f" x="1367.435547"/>
     <use xlink:href="#DejaVuSans-75" x="1428.617188"/>
     <use xlink:href="#DejaVuSans-6e" x="1491.996094"/>
     <use xlink:href="#DejaVuSans-64" x="1555.375"/>
     <use xlink:href="#DejaVuSans-20" x="1618.851562"/>
     <use xlink:href="#DejaVuSans-54" x="1650.638672"/>
     <use xlink:href="#DejaVuSans-72" x="1696.972656"/>
     <use xlink:href="#DejaVuSans-75" x="1738.085938"/>
     <use xlink:href="#DejaVuSans-74" x="1801.464844"/>
     <use xlink:href="#DejaVuSans-68" x="1840.673828"/>
     <use xlink:href="#DejaVuSans-20" x="1904.052734"/>
     <use xlink:href="#DejaVuSans-41" x="1935.839844"/>
     <use xlink:href="#DejaVuSans-72" x="2004.248047"/>
     <use xlink:href="#DejaVuSans-63" x="2043.111328"/>
     <use xlink:href="#DejaVuSans-2d" x="2098.091797"/>
     <use xlink:href="#DejaVuSans-4c" x="2134.175781"/>
     <use xlink:href="#DejaVuSans-65" x="2188.138672"/>
     <use xlink:href="#DejaVuSans-6e" x="2249.662109"/>
     <use xlink:href="#DejaVuSans-67" x="2313.041016"/>
     <use xlink:href="#DejaVuSans-74" x="2376.517578"/>
     <use xlink:href="#DejaVuSans-68" x="2415.726562"/>
     <use xlink:href="#DejaVuSans-20" x="2479.105469"/>
     <use xlink:href="#DejaVuSans-28" x="2510.892578"/>
     <use xlink:href="#DejaVuSans-61" x="2549.90625"/>
     <use xlink:href="#DejaVuSans-74" x="2611.185547"/>
     <use xlink:href="#DejaVuSans-20" x="2650.394531"/>
     <use xlink:href="#DejaVuSans-41" x="2682.181641"/>
     <use xlink:href="#DejaVuSans-6e" x="2750.589844"/>
     <use xlink:href="#DejaVuSans-63" x="2813.96875"/>
     <use xlink:href="#DejaVuSans-68" x="2868.949219"/>
     <use xlink:href="#DejaVuSans-6f" x="2932.328125"/>
     <use xlink:href="#DejaVuSans-72" x="2993.509766"/>
     <use xlink:href="#DejaVuSans-73" x="3034.623047"/>
     <use xlink:href="#DejaVuSans-29" x="3086.722656"/>
    </g>
   </g>
   <g id="legend_1">
    <g id="patch_7">
     <path d="M 557.5 339.58125 
L 1208.160156 339.58125 
Q 1213.160156 339.58125 1213.160156 334.58125 
L 1213.160156 190.3 
Q 1213.160156 185.3 1208.160156 185.3 
L 557.5 185.3 
Q 552.5 185.3 552.5 190.3 
L 552.5 334.58125 
Q 552.5 339.58125 557.5 339.58125 
z
" style="fill: #ffffff; opacity: 0.8; stroke: #cccccc; stroke-linejoin: miter"/>
    </g>
    <g id="line2d_17">
     <path d="M 562.5 205.546094 
L 587.5 205.546094 
L 612.5 205.546094 
" style="fill: none; stroke: #ff8c00; stroke-width: 6; stroke-linecap: square"/>
    </g>
    <g id="text_20">
     <!-- True Arc-Length (Transformed Curve #1) -->
     <g transform="translate(632.5 214.296094)scale(0.25 -0.25)">
      <defs>
       <path id="DejaVuSans-66" d="M 2375 4863 
L 2375 4384 
L 1825 4384 
Q 1516 4384 1395 4259 
Q 1275 4134 1275 3809 
L 1275 3500 
L 2222 3500 
L 2222 3053 
L 1275 3053 
L 1275 0 
L 697 0 
L 697 3053 
L 147 3053 
L 147 3500 
L 697 3500 
L 697 3744 
Q 697 4328 969 4595 
Q 1241 4863 1831 4863 
L 2375 4863 
z
" transform="scale(0.015625)"/>
       <path id="DejaVuSans-6d" d="M 3328 2828 
Q 3544 3216 3844 3400 
Q 4144 3584 4550 3584 
Q 5097 3584 5394 3201 
Q 5691 2819 5691 2113 
L 5691 0 
L 5113 0 
L 5113 2094 
Q 5113 2597 4934 2840 
Q 4756 3084 4391 3084 
Q 3944 3084 3684 2787 
Q 3425 2491 3425 1978 
L 3425 0 
L 2847 0 
L 2847 2094 
Q 2847 2600 2669 2842 
Q 2491 3084 2119 3084 
Q 1678 3084 1418 2786 
Q 1159 2488 1159 1978 
L 1159 0 
L 581 0 
L 581 3500 
L 1159 3500 
L 1159 2956 
Q 1356 3278 1631 3431 
Q 1906 3584 2284 3584 
Q 2666 3584 2933 3390 
Q 3200 3197 3328 2828 
z
" transform="scale(0.015625)"/>
       <path id="DejaVuSans-43" d="M 4122 4306 
L 4122 3641 
Q 3803 3938 3442 4084 
Q 3081 4231 2675 4231 
Q 1875 4231 1450 3742 
Q 1025 3253 1025 2328 
Q 1025 1406 1450 917 
Q 1875 428 2675 428 
Q 3081 428 3442 575 
Q 3803 722 4122 1019 
L 4122 359 
Q 3791 134 3420 21 
Q 3050 -91 2638 -91 
Q 1578 -91 968 557 
Q 359 1206 359 2328 
Q 359 3453 968 4101 
Q 1578 4750 2638 4750 
Q 3056 4750 3426 4639 
Q 3797 4528 4122 4306 
z
" transform="scale(0.015625)"/>
       <path id="DejaVuSans-23" d="M 3272 2816 
L 2363 2816 
L 2100 1772 
L 3016 1772 
L 3272 2816 
z
M 2803 4594 
L 2478 3297 
L 3391 3297 
L 3719 4594 
L 4219 4594 
L 3897 3297 
L 4872 3297 
L 4872 2816 
L 3775 2816 
L 3519 1772 
L 4513 1772 
L 4513 1294 
L 3397 1294 
L 3072 0 
L 2572 0 
L 2894 1294 
L 1978 1294 
L 1656 0 
L 1153 0 
L 1478 1294 
L 494 1294 
L 494 1772 
L 1594 1772 
L 1856 2816 
L 850 2816 
L 850 3297 
L 1978 3297 
L 2297 4594 
L 2803 4594 
z
" transform="scale(0.015625)"/>
      </defs>
      <use xlink:href="#DejaVuSans-54"/>
      <use xlink:href="#DejaVuSans-72" x="46.333984"/>
      <use xlink:href="#DejaVuSans-75" x="87.447266"/>
      <use xlink:href="#DejaVuSans-65" x="150.826172"/>
      <use xlink:href="#DejaVuSans-20" x="212.349609"/>
      <use xlink:href="#DejaVuSans-41" x="244.136719"/>
      <use xlink:href="#DejaVuSans-72" x="312.544922"/>
      <use xlink:href="#DejaVuSans-63" x="351.408203"/>
      <use xlink:href="#DejaVuSans-2d" x="406.388672"/>
      <use xlink:href="#DejaVuSans-4c" x="442.472656"/>
      <use xlink:href="#DejaVuSans-65" x="496.435547"/>
      <use xlink:href="#DejaVuSans-6e" x="557.958984"/>
      <use xlink:href="#DejaVuSans-67" x="621.337891"/>
      <use xlink:href="#DejaVuSans-74" x="684.814453"/>
      <use xlink:href="#DejaVuSans-68" x="724.023438"/>
      <use xlink:href="#DejaVuSans-20" x="787.402344"/>
      <use xlink:href="#DejaVuSans-28" x="819.189453"/>
      <use xlink:href="#DejaVuSans-54" x="858.203125"/>
      <use xlink:href="#DejaVuSans-72" x="904.537109"/>
      <use xlink:href="#DejaVuSans-61" x="945.650391"/>
      <use xlink:href="#DejaVuSans-6e" x="1006.929688"/>
      <use xlink:href="#DejaVuSans-73" x="1070.308594"/>
      <use xlink:href="#DejaVuSans-66" x="1122.408203"/>
      <use xlink:href="#DejaVuSans-6f" x="1157.613281"/>
      <use xlink:href="#DejaVuSans-72" x="1218.794922"/>
      <use xlink:href="#DejaVuSans-6d" x="1258.158203"/>
      <use xlink:href="#DejaVuSans-65" x="1355.570312"/>
      <use xlink:href="#DejaVuSans-64" x="1417.09375"/>
      <use xlink:href="#DejaVuSans-20" x="1480.570312"/>
      <use xlink:href="#DejaVuSans-43" x="1512.357422"/>
      <use xlink:href="#DejaVuSans-75" x="1582.181641"/>
      <use xlink:href="#DejaVuSans-72" x="1645.560547"/>
      <use xlink:href="#DejaVuSans-76" x="1686.673828"/>
      <use xlink:href="#DejaVuSans-65" x="1745.853516"/>
      <use xlink:href="#DejaVuSans-20" x="1807.376953"/>
      <use xlink:href="#DejaVuSans-23" x="1839.164062"/>
      <use xlink:href="#DejaVuSans-31" x="1922.953125"/>
      <use xlink:href="#DejaVuSans-29" x="1986.576172"/>
     </g>
    </g>
    <g id="line2d_18">
     <path d="M 562.5 242.241406 
L 587.5 242.241406 
L 612.5 242.241406 
" style="fill: none; stroke: #aa0000; stroke-width: 6; stroke-linecap: square"/>
    </g>
    <g id="text_21">
     <!-- Predicted Arc-Length (Transformed Curve #1) -->
     <g transform="translate(632.5 250.991406)scale(0.25 -0.25)">
      <use xlink:href="#DejaVuSans-50"/>
      <use xlink:href="#DejaVuSans-72" x="58.552734"/>
      <use xlink:href="#DejaVuSans-65" x="97.416016"/>
      <use xlink:href="#DejaVuSans-64" x="158.939453"/>
      <use xlink:href="#DejaVuSans-69" x="222.416016"/>
      <use xlink:href="#DejaVuSans-63" x="250.199219"/>
      <use xlink:href="#DejaVuSans-74" x="305.179688"/>
      <use xlink:href="#DejaVuSans-65" x="344.388672"/>
      <use xlink:href="#DejaVuSans-64" x="405.912109"/>
      <use xlink:href="#DejaVuSans-20" x="469.388672"/>
      <use xlink:href="#DejaVuSans-41" x="501.175781"/>
      <use xlink:href="#DejaVuSans-72" x="569.583984"/>
      <use xlink:href="#DejaVuSans-63" x="608.447266"/>
      <use xlink:href="#DejaVuSans-2d" x="663.427734"/>
      <use xlink:href="#DejaVuSans-4c" x="699.511719"/>
      <use xlink:href="#DejaVuSans-65" x="753.474609"/>
      <use xlink:href="#DejaVuSans-6e" x="814.998047"/>
      <use xlink:href="#DejaVuSans-67" x="878.376953"/>
      <use xlink:href="#DejaVuSans-74" x="941.853516"/>
      <use xlink:href="#DejaVuSans-68" x="981.0625"/>
      <use xlink:href="#DejaVuSans-20" x="1044.441406"/>
      <use xlink:href="#DejaVuSans-28" x="1076.228516"/>
      <use xlink:href="#DejaVuSans-54" x="1115.242188"/>
      <use xlink:href="#DejaVuSans-72" x="1161.576172"/>
      <use xlink:href="#DejaVuSans-61" x="1202.689453"/>
      <use xlink:href="#DejaVuSans-6e" x="1263.96875"/>
      <use xlink:href="#DejaVuSans-73" x="1327.347656"/>
      <use xlink:href="#DejaVuSans-66" x="1379.447266"/>
      <use xlink:href="#DejaVuSans-6f" x="1414.652344"/>
      <use xlink:href="#DejaVuSans-72" x="1475.833984"/>
      <use xlink:href="#DejaVuSans-6d" x="1515.197266"/>
      <use xlink:href="#DejaVuSans-65" x="1612.609375"/>
      <use xlink:href="#DejaVuSans-64" x="1674.132812"/>
      <use xlink:href="#DejaVuSans-20" x="1737.609375"/>
      <use xlink:href="#DejaVuSans-43" x="1769.396484"/>
      <use xlink:href="#DejaVuSans-75" x="1839.220703"/>
      <use xlink:href="#DejaVuSans-72" x="1902.599609"/>
      <use xlink:href="#DejaVuSans-76" x="1943.712891"/>
      <use xlink:href="#DejaVuSans-65" x="2002.892578"/>
      <use xlink:href="#DejaVuSans-20" x="2064.416016"/>
      <use xlink:href="#DejaVuSans-23" x="2096.203125"/>
      <use xlink:href="#DejaVuSans-31" x="2179.992188"/>
      <use xlink:href="#DejaVuSans-29" x="2243.615234"/>
     </g>
    </g>
    <g id="line2d_19">
     <path d="M 562.5 278.936719 
L 587.5 278.936719 
L 612.5 278.936719 
" style="fill: none; stroke: #444444; stroke-width: 6; stroke-linecap: square"/>
    </g>
    <g id="text_22">
     <!-- True Arc-Length (Transformed Curve #2) -->
     <g transform="translate(632.5 287.686719)scale(0.25 -0.25)">
      <use xlink:href="#DejaVuSans-54"/>
      <use xlink:href="#DejaVuSans-72" x="46.333984"/>
      <use xlink:href="#DejaVuSans-75" x="87.447266"/>
      <use xlink:href="#DejaVuSans-65" x="150.826172"/>
      <use xlink:href="#DejaVuSans-20" x="212.349609"/>
      <use xlink:href="#DejaVuSans-41" x="244.136719"/>
      <use xlink:href="#DejaVuSans-72" x="312.544922"/>
      <use xlink:href="#DejaVuSans-63" x="351.408203"/>
      <use xlink:href="#DejaVuSans-2d" x="406.388672"/>
      <use xlink:href="#DejaVuSans-4c" x="442.472656"/>
      <use xlink:href="#DejaVuSans-65" x="496.435547"/>
      <use xlink:href="#DejaVuSans-6e" x="557.958984"/>
      <use xlink:href="#DejaVuSans-67" x="621.337891"/>
      <use xlink:href="#DejaVuSans-74" x="684.814453"/>
      <use xlink:href="#DejaVuSans-68" x="724.023438"/>
      <use xlink:href="#DejaVuSans-20" x="787.402344"/>
      <use xlink:href="#DejaVuSans-28" x="819.189453"/>
      <use xlink:href="#DejaVuSans-54" x="858.203125"/>
      <use xlink:href="#DejaVuSans-72" x="904.537109"/>
      <use xlink:href="#DejaVuSans-61" x="945.650391"/>
      <use xlink:href="#DejaVuSans-6e" x="1006.929688"/>
      <use xlink:href="#DejaVuSans-73" x="1070.308594"/>
      <use xlink:href="#DejaVuSans-66" x="1122.408203"/>
      <use xlink:href="#DejaVuSans-6f" x="1157.613281"/>
      <use xlink:href="#DejaVuSans-72" x="1218.794922"/>
      <use xlink:href="#DejaVuSans-6d" x="1258.158203"/>
      <use xlink:href="#DejaVuSans-65" x="1355.570312"/>
      <use xlink:href="#DejaVuSans-64" x="1417.09375"/>
      <use xlink:href="#DejaVuSans-20" x="1480.570312"/>
      <use xlink:href="#DejaVuSans-43" x="1512.357422"/>
      <use xlink:href="#DejaVuSans-75" x="1582.181641"/>
      <use xlink:href="#DejaVuSans-72" x="1645.560547"/>
      <use xlink:href="#DejaVuSans-76" x="1686.673828"/>
      <use xlink:href="#DejaVuSans-65" x="1745.853516"/>
      <use xlink:href="#DejaVuSans-20" x="1807.376953"/>
      <use xlink:href="#DejaVuSans-23" x="1839.164062"/>
      <use xlink:href="#DejaVuSans-32" x="1922.953125"/>
      <use xlink:href="#DejaVuSans-29" x="1986.576172"/>
     </g>
    </g>
    <g id="line2d_20">
     <path d="M 562.5 315.632031 
L 587.5 315.632031 
L 612.5 315.632031 
" style="fill: none; stroke: #00aa00; stroke-width: 6; stroke-linecap: square"/>
    </g>
    <g id="text_23">
     <!-- Predicted Arc-Length (Transformed Curve #2) -->
     <g transform="translate(632.5 324.382031)scale(0.25 -0.25)">
      <use xlink:href="#DejaVuSans-50"/>
      <use xlink:href="#DejaVuSans-72" x="58.552734"/>
      <use xlink:href="#DejaVuSans-65" x="97.416016"/>
      <use xlink:href="#DejaVuSans-64" x="158.939453"/>
      <use xlink:href="#DejaVuSans-69" x="222.416016"/>
      <use xlink:href="#DejaVuSans-63" x="250.199219"/>
      <use xlink:href="#DejaVuSans-74" x="305.179688"/>
      <use xlink:href="#DejaVuSans-65" x="344.388672"/>
      <use xlink:href="#DejaVuSans-64" x="405.912109"/>
      <use xlink:href="#DejaVuSans-20" x="469.388672"/>
      <use xlink:href="#DejaVuSans-41" x="501.175781"/>
      <use xlink:href="#DejaVuSans-72" x="569.583984"/>
      <use xlink:href="#DejaVuSans-63" x="608.447266"/>
      <use xlink:href="#DejaVuSans-2d" x="663.427734"/>
      <use xlink:href="#DejaVuSans-4c" x="699.511719"/>
      <use xlink:href="#DejaVuSans-65" x="753.474609"/>
      <use xlink:href="#DejaVuSans-6e" x="814.998047"/>
      <use xlink:href="#DejaVuSans-67" x="878.376953"/>
      <use xlink:href="#DejaVuSans-74" x="941.853516"/>
      <use xlink:href="#DejaVuSans-68" x="981.0625"/>
      <use xlink:href="#DejaVuSans-20" x="1044.441406"/>
      <use xlink:href="#DejaVuSans-28" x="1076.228516"/>
      <use xlink:href="#DejaVuSans-54" x="1115.242188"/>
      <use xlink:href="#DejaVuSans-72" x="1161.576172"/>
      <use xlink:href="#DejaVuSans-61" x="1202.689453"/>
      <use xlink:href="#DejaVuSans-6e" x="1263.96875"/>
      <use xlink:href="#DejaVuSans-73" x="1327.347656"/>
      <use xlink:href="#DejaVuSans-66" x="1379.447266"/>
      <use xlink:href="#DejaVuSans-6f" x="1414.652344"/>
      <use xlink:href="#DejaVuSans-72" x="1475.833984"/>
      <use xlink:href="#DejaVuSans-6d" x="1515.197266"/>
      <use xlink:href="#DejaVuSans-65" x="1612.609375"/>
      <use xlink:href="#DejaVuSans-64" x="1674.132812"/>
      <use xlink:href="#DejaVuSans-20" x="1737.609375"/>
      <use xlink:href="#DejaVuSans-43" x="1769.396484"/>
      <use xlink:href="#DejaVuSans-75" x="1839.220703"/>
      <use xlink:href="#DejaVuSans-72" x="1902.599609"/>
      <use xlink:href="#DejaVuSans-76" x="1943.712891"/>
      <use xlink:href="#DejaVuSans-65" x="2002.892578"/>
      <use xlink:href="#DejaVuSans-20" x="2064.416016"/>
      <use xlink:href="#DejaVuSans-23" x="2096.203125"/>
      <use xlink:href="#DejaVuSans-32" x="2179.992188"/>
      <use xlink:href="#DejaVuSans-29" x="2243.615234"/>
     </g>
    </g>
   </g>
   <g id="line2d_21">
    <path d="M 692.181818 1210.581818 
L 714.937978 1204.602593 
L 729.160578 1200.632274 
L 743.383178 1196.392016 
L 757.605777 1191.868321 
L 771.828377 1187.088809 
L 788.895497 1181.095054 
L 820.185217 1169.781013 
L 842.941376 1161.666742 
L 860.008496 1155.804725 
L 877.075616 1150.17732 
L 896.987256 1143.859401 
L 933.966015 1132.186206 
L 948.188615 1127.43542 
L 962.411215 1122.422605 
L 973.789295 1118.200877 
L 988.011895 1112.660688 
L 1002.234494 1106.860295 
L 1019.301614 1099.644619 
L 1067.658454 1079.010911 
L 1081.881054 1073.292276 
L 1093.259133 1068.940268 
L 1104.637213 1064.819541 
L 1116.015293 1060.948621 
L 1127.393373 1057.332364 
L 1138.771453 1053.959976 
L 1150.149533 1050.803571 
L 1164.372133 1047.091587 
L 1212.728972 1034.752677 
L 1224.107052 1031.554742 
L 1235.485132 1028.156024 
L 1246.863212 1024.538748 
L 1258.241291 1020.696703 
L 1269.619371 1016.63348 
L 1280.997451 1012.361126 
L 1295.220051 1006.757064 
L 1309.442651 1000.910494 
L 1329.354291 992.450904 
L 1366.33305 976.661542 
L 1380.55565 970.869505 
L 1391.93373 966.463496 
L 1403.31181 962.319492 
L 1411.84537 959.414787 
L 1420.378929 956.706787 
L 1428.912489 954.21336 
L 1437.446049 951.949487 
L 1445.979609 949.926339 
L 1454.513169 948.149917 
L 1463.046729 946.618836 
L 1471.580289 945.320476 
L 1480.113849 944.224308 
L 1494.336449 942.674554 
L 1508.559048 941.083158 
L 1517.092608 939.937045 
L 1525.626168 938.587019 
L 1534.159728 937.013085 
L 1542.693288 935.210163 
L 1551.226848 933.182365 
L 1559.760408 930.939723 
L 1568.293968 928.496248 
L 1579.672048 924.955078 
L 1591.050127 921.131244 
L 1602.428207 917.072159 
L 1616.650807 911.740738 
L 1633.717927 905.084666 
L 1667.852167 891.443831 
L 1696.297366 880.195832 
L 1719.053526 871.426583 
L 1747.498726 860.724645 
L 1810.078165 837.307416 
L 1838.523364 826.36984 
L 1901.102804 802.173422 
L 1918.169924 795.881898 
L 1932.392523 790.85509 
L 1946.615123 786.06362 
L 1960.837723 781.525531 
L 1975.060323 777.233874 
L 1992.127443 772.354669 
L 2020.572642 764.543264 
L 2040.484282 758.981547 
L 2057.551402 753.981282 
L 2074.618522 748.717633 
L 2091.685641 743.216917 
L 2117.286321 734.701319 
L 2148.576041 724.341115 
L 2168.487681 718.019889 
L 2185.5548 712.830324 
L 2205.46644 707.008049 
L 2282.268479 684.848637 
L 2327.780799 671.463243 
L 2347.692438 665.869814 
L 2367.604078 660.530516 
L 2390.360238 654.685039 
L 2433.028037 643.796755 
L 2452.939677 638.463478 
L 2475.695837 632.114597 
L 2512.674596 621.488063 
L 2549.653356 610.95397 
L 2603.699235 595.663619 
L 2623.610875 589.734166 
L 2640.677995 584.418881 
L 2657.745115 578.875805 
L 2677.656754 572.145179 
L 2700.412914 564.178996 
L 2728.858114 553.963067 
L 2777.214953 536.324041 
L 2819.882753 520.555766 
L 2848.327952 509.816105 
L 2873.928632 499.923161 
L 2902.373832 488.692335 
L 2950.730671 469.552544 
L 2967.797791 463.073995 
L 2982.020391 457.924058 
L 2993.398471 454.023456 
L 3004.776551 450.362305 
L 3016.15463 446.980599 
L 3024.68819 444.650172 
L 3033.22175 442.511724 
L 3041.75531 440.57677 
L 3050.28887 438.853566 
L 3058.82243 437.345707 
L 3067.35599 436.049819 
L 3075.88955 434.951534 
L 3087.26763 433.735287 
L 3112.868309 431.1924 
L 3121.401869 430.116417 
L 3129.935429 428.845805 
L 3138.468989 427.364165 
L 3147.002549 425.666394 
L 3155.536109 423.754341 
L 3164.069669 421.63434 
L 3172.603229 419.315747 
L 3181.136788 416.810016 
L 3192.514868 413.200419 
L 3203.892948 409.31448 
L 3215.271028 405.187354 
L 3229.493628 399.744367 
L 3243.716228 394.052411 
L 3263.627867 385.801905 
L 3314.829227 364.38519 
L 3329.051827 358.729636 
L 3340.429907 354.397348 
L 3351.807986 350.278657 
L 3363.186066 346.411337 
L 3374.564146 342.829732 
L 3383.097706 340.348396 
L 3391.631266 338.052449 
L 3400.164826 335.946009 
L 3408.698386 334.026905 
L 3420.076466 331.738726 
L 3431.454545 329.701148 
L 3465.588785 323.804134 
L 3474.122345 322.048056 
L 3482.655905 320.087623 
L 3491.189465 317.901577 
L 3499.723025 315.47967 
L 3508.256585 312.820216 
L 3516.790144 309.928241 
L 3525.323704 306.81415 
L 3533.857264 303.492737 
L 3545.235344 298.773984 
L 3556.613424 293.771512 
L 3570.836024 287.20984 
L 3587.903144 279.050884 
L 3619.192863 264.013592 
L 3633.415463 257.446039 
L 3644.793543 252.42196 
L 3656.171623 247.652868 
L 3667.549703 243.173543 
L 3678.927782 239.004727 
L 3690.305862 235.150172 
L 3701.683942 231.593647 
L 3713.062022 228.296586 
L 3727.284622 224.445209 
L 3735.818182 222.218182 
L 3735.818182 222.218182 
" clip-path="url(#p8f45059aa0)" style="fill: none; stroke: #ff8c00; stroke-width: 6; stroke-linecap: square"/>
   </g>
   <g id="line2d_22">
    <path d="M 692.181818 1210.581818 
L 695.026338 1209.968842 
L 697.870858 1209.098708 
L 706.404418 1207.454634 
L 709.248938 1206.947291 
L 712.093458 1206.567143 
L 714.937978 1206.037903 
L 717.782498 1205.264664 
L 720.627018 1204.856298 
L 723.471538 1204.068535 
L 726.316058 1203.835055 
L 729.160578 1203.315737 
L 732.005098 1202.477846 
L 734.849618 1202.045121 
L 737.694138 1201.826649 
L 740.538658 1201.048579 
L 743.383178 1199.918628 
L 746.227698 1199.768662 
L 754.761257 1197.892218 
L 760.450297 1195.740132 
L 766.139337 1194.359821 
L 768.983857 1193.436315 
L 771.828377 1192.791931 
L 777.517417 1191.242276 
L 780.361937 1190.099762 
L 783.206457 1189.349879 
L 786.050977 1188.101937 
L 788.895497 1187.136607 
L 791.740017 1187.426309 
L 794.584537 1185.511398 
L 797.429057 1184.259314 
L 800.273577 1183.586614 
L 808.807137 1180.630392 
L 817.340697 1177.976662 
L 820.185217 1176.62624 
L 823.029737 1176.034546 
L 840.096856 1170.007058 
L 842.941376 1169.245952 
L 845.785896 1168.15473 
L 854.319456 1165.306683 
L 857.163976 1164.467073 
L 862.853016 1162.581259 
L 865.697536 1161.98879 
L 868.542056 1160.808378 
L 877.075616 1158.44507 
L 879.920136 1157.438624 
L 882.764656 1156.799615 
L 885.609176 1155.893989 
L 888.453696 1155.151415 
L 891.298216 1154.085686 
L 894.142736 1153.514827 
L 905.520816 1150.215321 
L 908.365336 1149.565117 
L 914.054376 1147.891951 
L 916.898895 1147.066138 
L 919.743415 1146.015581 
L 922.587935 1145.359964 
L 925.432455 1144.318841 
L 928.276975 1143.447175 
L 931.121495 1142.347064 
L 939.655055 1139.600983 
L 953.877655 1134.755804 
L 968.100255 1129.602524 
L 982.322855 1124.195726 
L 993.700935 1119.650129 
L 1010.768054 1112.551751 
L 1030.679694 1104.000389 
L 1061.969414 1090.564678 
L 1076.192014 1084.733439 
L 1090.414613 1079.165866 
L 1107.481733 1073.030213 
L 1116.015293 1070.15612 
L 1127.393373 1066.557427 
L 1147.305013 1060.835652 
L 1150.149533 1060.169288 
L 1155.838573 1058.567797 
L 1158.683093 1057.935896 
L 1164.372133 1056.396924 
L 1175.750212 1053.749766 
L 1181.439252 1052.337478 
L 1184.283772 1051.766209 
L 1187.128292 1050.986311 
L 1189.972812 1050.461311 
L 1192.817332 1049.613275 
L 1201.350892 1047.675958 
L 1204.195412 1047.137379 
L 1207.039932 1046.478454 
L 1212.728972 1044.840614 
L 1218.418012 1043.519023 
L 1221.262532 1042.676714 
L 1232.640612 1039.789605 
L 1235.485132 1038.985721 
L 1238.329652 1038.055899 
L 1241.174172 1037.557122 
L 1246.863212 1035.753717 
L 1249.707732 1035.046254 
L 1252.552251 1034.139403 
L 1255.396771 1033.382621 
L 1261.085811 1031.350532 
L 1263.930331 1030.571266 
L 1266.774851 1029.55833 
L 1275.308411 1026.88486 
L 1278.152931 1025.743466 
L 1295.220051 1019.74922 
L 1298.064571 1018.451945 
L 1300.909091 1017.541709 
L 1303.753611 1016.111347 
L 1306.598131 1015.115918 
L 1309.442651 1014.344694 
L 1315.131691 1012.08439 
L 1317.976211 1010.733044 
L 1320.820731 1009.552732 
L 1323.665251 1008.194424 
L 1329.354291 1005.884886 
L 1332.198811 1004.978911 
L 1340.73237 1001.458102 
L 1343.57689 1000.083278 
L 1366.33305 990.780306 
L 1374.86661 987.469661 
L 1377.71113 986.205861 
L 1391.93373 981.022704 
L 1406.15633 976.108886 
L 1409.00085 975.070125 
L 1411.84537 974.540522 
L 1414.68989 973.197535 
L 1417.53441 972.65608 
L 1420.378929 971.435779 
L 1423.223449 971.132419 
L 1426.067969 970.145109 
L 1437.446049 966.968183 
L 1445.979609 964.883996 
L 1451.668649 963.679319 
L 1460.202209 962.111737 
L 1468.735769 960.739133 
L 1477.269329 959.594434 
L 1485.802889 958.723548 
L 1494.336449 957.873328 
L 1500.025489 957.372805 
L 1502.870008 957.228723 
L 1511.403568 956.488072 
L 1514.248088 956.390888 
L 1517.092608 955.972598 
L 1531.315208 954.628853 
L 1534.159728 954.038339 
L 1537.004248 953.251615 
L 1539.848768 953.234585 
L 1542.693288 952.720885 
L 1548.382328 952.081639 
L 1551.226848 951.468883 
L 1554.071368 951.229428 
L 1559.760408 950.038184 
L 1562.604928 949.845838 
L 1565.449448 949.410059 
L 1568.293968 948.263699 
L 1571.138488 947.680238 
L 1573.983008 947.976059 
L 1576.827528 946.354883 
L 1579.672048 945.256267 
L 1582.516568 944.848937 
L 1585.361088 944.077744 
L 1588.205607 942.890349 
L 1591.050127 941.572345 
L 1593.894647 941.703417 
L 1596.739167 940.89501 
L 1599.583687 938.794979 
L 1613.806287 933.601056 
L 1616.650807 932.838432 
L 1619.495327 931.865966 
L 1622.339847 930.456696 
L 1628.028887 928.319093 
L 1630.873407 927.383273 
L 1645.096007 921.840602 
L 1647.940527 920.902559 
L 1650.785047 919.702221 
L 1653.629567 918.801907 
L 1656.474087 917.516824 
L 1659.318607 916.666823 
L 1662.163127 915.36455 
L 1665.007647 914.454897 
L 1667.852167 913.201619 
L 1670.696686 912.127196 
L 1673.541206 911.228633 
L 1676.385726 909.937978 
L 1684.919286 906.998819 
L 1687.763806 905.7842 
L 1690.608326 904.780677 
L 1693.452846 903.903533 
L 1701.986406 900.535287 
L 1704.830926 899.652297 
L 1707.675446 898.504113 
L 1716.209006 895.555694 
L 1719.053526 894.731104 
L 1721.898046 893.553197 
L 1724.742566 892.549644 
L 1727.587086 891.374765 
L 1730.431606 890.529925 
L 1733.276126 889.3526 
L 1744.654206 885.365246 
L 1747.498726 884.554578 
L 1750.343246 883.936587 
L 1753.187766 882.69474 
L 1764.565845 878.575331 
L 1767.410365 877.822856 
L 1770.254885 876.644869 
L 1775.943925 875.000575 
L 1784.477485 871.457588 
L 1795.855565 867.333417 
L 1798.700085 866.789849 
L 1801.544605 865.362479 
L 1804.389125 864.794062 
L 1807.233645 863.356096 
L 1812.922685 861.353598 
L 1815.767205 860.538954 
L 1818.611725 859.330549 
L 1821.456245 858.416625 
L 1824.300765 857.168356 
L 1827.145285 856.33108 
L 1829.989805 855.053073 
L 1835.678845 852.996333 
L 1838.523364 852.184717 
L 1841.367884 851.146362 
L 1844.212404 849.90251 
L 1847.056924 849.067865 
L 1849.901444 847.537995 
L 1852.745964 846.450602 
L 1855.590484 845.059581 
L 1858.435004 843.964025 
L 1861.279524 843.186461 
L 1864.124044 841.785776 
L 1866.968564 840.719222 
L 1869.813084 839.797768 
L 1872.657604 838.607821 
L 1878.346644 836.575003 
L 1886.880204 833.329373 
L 1898.258284 829.061114 
L 1901.102804 827.77068 
L 1903.947324 826.723105 
L 1906.791844 826.580196 
L 1909.636364 825.029873 
L 1912.480884 824.48523 
L 1918.169924 822.41362 
L 1921.014444 821.058073 
L 1926.703483 819.032678 
L 1929.548003 818.606764 
L 1932.392523 817.62736 
L 1935.237043 816.064228 
L 1938.081563 815.587744 
L 1940.926083 814.16045 
L 1943.770603 813.230498 
L 1946.615123 812.652892 
L 1949.459643 811.389118 
L 1952.304163 810.85031 
L 1955.148683 809.571772 
L 1957.993203 809.100546 
L 1960.837723 807.785823 
L 1963.682243 807.385895 
L 1969.371283 805.163476 
L 1975.060323 803.566287 
L 1977.904843 802.984661 
L 1980.749363 802.251536 
L 1986.438403 800.487478 
L 1994.971963 798.244964 
L 2003.505523 796.236825 
L 2006.350042 795.389645 
L 2012.039082 794.003529 
L 2014.883602 793.068915 
L 2020.572642 791.73611 
L 2043.328802 785.831069 
L 2049.017842 784.34349 
L 2051.862362 783.362755 
L 2054.706882 782.813418 
L 2057.551402 781.764239 
L 2060.395922 781.110103 
L 2066.084962 779.242136 
L 2068.929482 778.481412 
L 2077.463042 775.670261 
L 2083.152082 774.06749 
L 2114.441801 763.711504 
L 2151.420561 751.406292 
L 2165.643161 746.874541 
L 2182.71028 741.763278 
L 2196.93288 737.760833 
L 2199.7774 736.851008 
L 2211.15548 733.808161 
L 2214 732.87659 
L 2222.53356 730.546972 
L 2225.37808 730.019563 
L 2228.2226 729.044116 
L 2231.06712 728.369626 
L 2233.91164 727.444204 
L 2236.75616 726.692348 
L 2239.60068 726.156053 
L 2242.4452 725.301798 
L 2245.28972 724.622645 
L 2248.13424 723.799396 
L 2253.82328 722.411885 
L 2259.512319 720.802069 
L 2262.356839 720.128633 
L 2265.201359 719.242824 
L 2268.045879 718.547862 
L 2273.734919 716.869392 
L 2276.579439 716.251553 
L 2279.423959 715.453413 
L 2282.268479 714.815273 
L 2290.802039 712.446921 
L 2293.646559 711.656019 
L 2296.491079 710.71956 
L 2299.335599 710.1229 
L 2302.180119 709.238826 
L 2319.247239 704.890596 
L 2322.091759 704.034668 
L 2324.936279 703.536782 
L 2327.780799 702.666168 
L 2333.469839 701.261911 
L 2336.314359 700.364131 
L 2339.158879 700.020686 
L 2344.847918 698.514396 
L 2347.692438 697.931661 
L 2350.536958 696.795589 
L 2353.381478 696.445806 
L 2359.070518 694.776408 
L 2361.915038 694.147116 
L 2364.759558 693.745199 
L 2367.604078 693.209353 
L 2370.448598 692.510387 
L 2373.293118 691.953918 
L 2376.137638 691.254353 
L 2378.982158 690.762501 
L 2381.826678 689.811861 
L 2390.360238 688.137877 
L 2393.204758 687.310739 
L 2396.049278 686.931265 
L 2398.893798 686.331081 
L 2401.738318 685.547353 
L 2410.271878 683.966711 
L 2413.116398 683.063189 
L 2415.960918 682.801239 
L 2418.805438 681.888726 
L 2421.649958 681.620363 
L 2424.494477 680.619061 
L 2430.183517 679.309167 
L 2433.028037 678.952448 
L 2438.717077 677.431437 
L 2441.561597 677.053161 
L 2450.095157 674.728536 
L 2452.939677 674.363845 
L 2455.784197 673.351289 
L 2458.628717 672.672275 
L 2461.473237 672.246366 
L 2464.317757 671.299282 
L 2467.162277 670.535671 
L 2470.006797 669.953867 
L 2481.384877 666.997633 
L 2484.229397 666.002764 
L 2487.073917 665.410037 
L 2489.918437 664.61527 
L 2492.762957 663.663765 
L 2498.451997 662.044772 
L 2501.296517 661.40194 
L 2506.985556 659.714263 
L 2509.830076 658.832754 
L 2512.674596 658.12799 
L 2535.430756 651.618225 
L 2541.119796 650.014465 
L 2552.497876 646.86433 
L 2558.186916 645.309606 
L 2561.031436 644.473924 
L 2566.720476 643.015265 
L 2580.943076 639.131964 
L 2589.476636 636.885263 
L 2592.321155 635.966866 
L 2595.165675 635.392731 
L 2598.010195 634.46665 
L 2600.854715 633.817374 
L 2603.699235 632.885983 
L 2612.232795 630.499719 
L 2615.077315 630.019647 
L 2617.921835 629.000002 
L 2620.766355 628.352274 
L 2623.610875 627.532561 
L 2626.455395 626.523633 
L 2629.299915 625.827133 
L 2632.144435 624.669051 
L 2643.522515 621.322931 
L 2646.367035 620.630975 
L 2649.211555 619.794306 
L 2652.056075 618.516458 
L 2654.900595 617.619723 
L 2657.745115 616.561826 
L 2660.589635 615.64645 
L 2663.434155 614.941585 
L 2669.123195 612.800817 
L 2677.656754 609.960093 
L 2703.257434 601.162586 
L 2708.946474 599.147266 
L 2728.858114 592.061817 
L 2814.193713 560.663345 
L 2856.861512 544.923549 
L 2859.706032 543.630019 
L 2862.550552 542.843811 
L 2876.773152 537.466623 
L 2879.617672 536.233732 
L 2885.306712 534.225483 
L 2888.151232 533.021287 
L 2890.995752 531.961685 
L 2893.840272 530.754107 
L 2896.684792 529.777224 
L 2899.529312 528.487874 
L 2902.373832 527.533398 
L 2905.218352 526.271003 
L 2908.062872 525.325824 
L 2913.751912 522.958886 
L 2916.596432 521.851397 
L 2919.440952 520.880405 
L 2922.285472 519.660461 
L 2933.663551 515.173305 
L 2936.508071 514.056116 
L 2942.197111 512.189376 
L 2950.730671 508.730012 
L 2953.575191 507.774546 
L 2956.419711 506.569825 
L 2964.953271 503.393143 
L 2970.642311 501.516297 
L 2976.331351 499.367011 
L 2979.175871 498.600186 
L 2982.020391 497.435803 
L 2984.864911 496.689934 
L 2987.709431 495.720567 
L 2990.553951 494.610818 
L 2993.398471 493.651506 
L 2996.242991 492.86644 
L 3001.932031 491.063039 
L 3004.776551 490.015308 
L 3010.46559 488.529696 
L 3013.31011 487.471933 
L 3016.15463 486.813847 
L 3018.99915 485.853268 
L 3021.84367 485.23835 
L 3024.68819 484.353742 
L 3030.37723 483.08602 
L 3033.22175 482.3939 
L 3041.75531 480.577672 
L 3050.28887 478.841709 
L 3064.51147 476.543203 
L 3073.04503 475.476664 
L 3075.88955 475.223603 
L 3078.73407 474.854507 
L 3084.42311 474.441943 
L 3087.26763 474.203232 
L 3092.956669 473.951738 
L 3095.801189 473.718293 
L 3098.645709 473.371423 
L 3107.179269 472.784618 
L 3110.023789 472.936794 
L 3112.868309 472.699667 
L 3115.712829 472.334571 
L 3118.557349 472.400715 
L 3127.090909 471.314962 
L 3138.468989 469.409436 
L 3147.002549 467.709467 
L 3155.536109 465.794878 
L 3164.069669 463.672922 
L 3172.603229 461.348417 
L 3181.136788 458.837229 
L 3189.670348 456.134942 
L 3198.203908 453.263047 
L 3203.892948 451.291147 
L 3215.271028 447.15416 
L 3223.804588 443.878118 
L 3226.649108 442.856323 
L 3249.405268 433.732389 
L 3257.938828 430.179429 
L 3263.627867 427.728513 
L 3269.316907 425.464748 
L 3272.161427 424.152368 
L 3275.005947 423.045861 
L 3280.694987 420.585191 
L 3283.539507 419.467885 
L 3286.384027 418.162523 
L 3292.073067 415.908324 
L 3294.917587 414.564278 
L 3297.762107 413.654496 
L 3300.606627 412.418026 
L 3306.295667 410.2271 
L 3309.140187 409.029419 
L 3311.984707 407.968394 
L 3314.829227 406.732738 
L 3320.518267 404.648768 
L 3329.051827 401.238837 
L 3331.896347 400.375125 
L 3334.740867 399.357194 
L 3337.585387 398.095516 
L 3340.429907 397.017607 
L 3343.274427 396.164206 
L 3346.118946 394.983715 
L 3348.963466 394.00247 
L 3351.807986 393.182927 
L 3354.652506 392.009052 
L 3357.497026 391.277813 
L 3360.341546 390.109183 
L 3363.186066 389.194549 
L 3366.030586 388.537873 
L 3371.719626 386.783047 
L 3374.564146 385.809443 
L 3377.408666 385.131904 
L 3380.253186 384.19069 
L 3388.786746 381.81733 
L 3405.853866 377.802323 
L 3414.387426 376.061869 
L 3420.076466 375.09089 
L 3422.920986 374.594742 
L 3425.765506 374.21862 
L 3428.610025 373.663518 
L 3437.143585 372.272884 
L 3439.988105 372.126277 
L 3442.832625 371.446182 
L 3454.210705 370.252254 
L 3457.055225 369.733253 
L 3459.899745 369.647334 
L 3465.588785 368.648641 
L 3468.433305 368.118398 
L 3471.277825 367.824396 
L 3485.500425 365.118117 
L 3491.189465 363.756266 
L 3494.033985 362.924067 
L 3499.723025 361.535756 
L 3505.412065 359.810175 
L 3508.256585 359.022485 
L 3511.101105 358.077871 
L 3513.945624 357.280528 
L 3519.634664 355.172044 
L 3525.323704 353.415491 
L 3531.012744 351.126373 
L 3542.390824 346.591631 
L 3553.768904 341.708953 
L 3559.457944 339.158847 
L 3567.991504 335.198476 
L 3585.058624 327.032996 
L 3590.747664 324.204762 
L 3616.348343 311.873123 
L 3630.570943 305.188908 
L 3653.327103 295.284457 
L 3661.860663 291.860746 
L 3670.394223 288.570522 
L 3681.772302 284.422584 
L 3693.150382 280.631327 
L 3704.528462 277.303324 
L 3707.372982 276.328079 
L 3710.217502 275.714483 
L 3724.440102 271.87356 
L 3727.284622 271.315467 
L 3730.129142 270.917986 
L 3732.973662 270.294975 
L 3735.818182 269.462129 
L 3735.818182 269.462129 
" clip-path="url(#p8f45059aa0)" style="fill: none; stroke: #aa0000; stroke-width: 6; stroke-linecap: square"/>
   </g>
   <g id="line2d_23">
    <path d="M 692.181818 1210.581818 
L 714.937978 1204.602593 
L 729.160578 1200.632274 
L 743.383178 1196.392016 
L 757.605777 1191.868321 
L 771.828377 1187.088809 
L 788.895497 1181.095054 
L 820.185217 1169.781013 
L 842.941376 1161.666742 
L 860.008496 1155.804725 
L 877.075616 1150.17732 
L 896.987256 1143.859401 
L 933.966015 1132.186206 
L 948.188615 1127.43542 
L 962.411215 1122.422605 
L 973.789295 1118.200877 
L 988.011895 1112.660688 
L 1002.234494 1106.860295 
L 1019.301614 1099.644619 
L 1067.658454 1079.010911 
L 1081.881054 1073.292276 
L 1093.259133 1068.940268 
L 1104.637213 1064.819541 
L 1116.015293 1060.948621 
L 1127.393373 1057.332364 
L 1138.771453 1053.959976 
L 1150.149533 1050.803571 
L 1164.372133 1047.091587 
L 1212.728972 1034.752677 
L 1224.107052 1031.554742 
L 1235.485132 1028.156024 
L 1246.863212 1024.538748 
L 1258.241291 1020.696703 
L 1269.619371 1016.63348 
L 1280.997451 1012.361126 
L 1295.220051 1006.757064 
L 1309.442651 1000.910494 
L 1329.354291 992.450904 
L 1366.33305 976.661542 
L 1380.55565 970.869505 
L 1391.93373 966.463496 
L 1403.31181 962.319492 
L 1411.84537 959.414787 
L 1420.378929 956.706787 
L 1428.912489 954.21336 
L 1437.446049 951.949487 
L 1445.979609 949.926339 
L 1454.513169 948.149917 
L 1463.046729 946.618836 
L 1471.580289 945.320476 
L 1480.113849 944.224308 
L 1494.336449 942.674554 
L 1508.559048 941.083158 
L 1517.092608 939.937045 
L 1525.626168 938.587019 
L 1534.159728 937.013085 
L 1542.693288 935.210163 
L 1551.226848 933.182365 
L 1559.760408 930.939723 
L 1568.293968 928.496248 
L 1579.672048 924.955078 
L 1591.050127 921.131244 
L 1602.428207 917.072159 
L 1616.650807 911.740738 
L 1633.717927 905.084666 
L 1667.852167 891.443831 
L 1696.297366 880.195832 
L 1719.053526 871.426583 
L 1747.498726 860.724645 
L 1810.078165 837.307416 
L 1838.523364 826.36984 
L 1901.102804 802.173422 
L 1918.169924 795.881898 
L 1932.392523 790.85509 
L 1946.615123 786.06362 
L 1960.837723 781.525531 
L 1975.060323 777.233874 
L 1992.127443 772.354669 
L 2020.572642 764.543264 
L 2040.484282 758.981547 
L 2057.551402 753.981282 
L 2074.618522 748.717633 
L 2091.685641 743.216917 
L 2117.286321 734.701319 
L 2148.576041 724.341115 
L 2168.487681 718.019889 
L 2185.5548 712.830324 
L 2205.46644 707.008049 
L 2282.268479 684.848637 
L 2327.780799 671.463243 
L 2347.692438 665.869814 
L 2367.604078 660.530516 
L 2390.360238 654.685039 
L 2433.028037 643.796755 
L 2452.939677 638.463478 
L 2475.695837 632.114597 
L 2512.674596 621.488063 
L 2549.653356 610.95397 
L 2603.699235 595.663619 
L 2623.610875 589.734166 
L 2640.677995 584.418881 
L 2657.745115 578.875805 
L 2677.656754 572.145179 
L 2700.412914 564.178996 
L 2728.858114 553.963067 
L 2777.214953 536.324041 
L 2819.882753 520.555766 
L 2848.327952 509.816105 
L 2873.928632 499.923161 
L 2902.373832 488.692335 
L 2950.730671 469.552544 
L 2967.797791 463.073995 
L 2982.020391 457.924058 
L 2993.398471 454.023456 
L 3004.776551 450.362305 
L 3016.15463 446.980599 
L 3024.68819 444.650172 
L 3033.22175 442.511724 
L 3041.75531 440.57677 
L 3050.28887 438.853566 
L 3058.82243 437.345707 
L 3067.35599 436.049819 
L 3075.88955 434.951534 
L 3087.26763 433.735287 
L 3112.868309 431.1924 
L 3121.401869 430.116417 
L 3129.935429 428.845805 
L 3138.468989 427.364165 
L 3147.002549 425.666394 
L 3155.536109 423.754341 
L 3164.069669 421.63434 
L 3172.603229 419.315747 
L 3181.136788 416.810016 
L 3192.514868 413.200419 
L 3203.892948 409.31448 
L 3215.271028 405.187354 
L 3229.493628 399.744367 
L 3243.716228 394.052411 
L 3263.627867 385.801905 
L 3314.829227 364.38519 
L 3329.051827 358.729636 
L 3340.429907 354.397348 
L 3351.807986 350.278657 
L 3363.186066 346.411337 
L 3374.564146 342.829732 
L 3383.097706 340.348396 
L 3391.631266 338.052449 
L 3400.164826 335.946009 
L 3408.698386 334.026905 
L 3420.076466 331.738726 
L 3431.454545 329.701148 
L 3465.588785 323.804134 
L 3474.122345 322.048056 
L 3482.655905 320.087623 
L 3491.189465 317.901577 
L 3499.723025 315.47967 
L 3508.256585 312.820216 
L 3516.790144 309.928241 
L 3525.323704 306.81415 
L 3533.857264 303.492737 
L 3545.235344 298.773984 
L 3556.613424 293.771512 
L 3570.836024 287.20984 
L 3587.903144 279.050884 
L 3619.192863 264.013592 
L 3633.415463 257.446039 
L 3644.793543 252.42196 
L 3656.171623 247.652868 
L 3667.549703 243.173543 
L 3678.927782 239.004727 
L 3690.305862 235.150172 
L 3701.683942 231.593647 
L 3713.062022 228.296586 
L 3727.284622 224.445209 
L 3735.818182 222.218182 
L 3735.818182 222.218182 
" clip-path="url(#p8f45059aa0)" style="fill: none; stroke: #444444; stroke-width: 6; stroke-linecap: square"/>
   </g>
   <g id="line2d_24">
    <path d="M 692.181818 1210.581818 
L 695.026338 1209.749926 
L 700.715378 1208.535878 
L 703.559898 1208.125293 
L 706.404418 1207.346173 
L 714.937978 1205.58656 
L 717.782498 1204.944601 
L 723.471538 1203.505474 
L 726.316058 1202.990103 
L 729.160578 1202.196138 
L 732.005098 1201.617031 
L 734.849618 1200.605933 
L 737.694138 1200.141209 
L 743.383178 1198.411795 
L 746.227698 1198.056526 
L 749.072218 1196.813665 
L 751.916737 1196.161534 
L 757.605777 1194.411009 
L 763.294817 1192.242568 
L 768.983857 1190.412065 
L 771.828377 1189.727144 
L 774.672897 1188.814521 
L 780.361937 1186.796783 
L 783.206457 1185.864217 
L 794.584537 1181.510908 
L 797.429057 1180.550851 
L 803.118097 1178.419382 
L 805.962617 1177.40853 
L 811.651657 1175.254302 
L 828.718777 1169.086427 
L 848.630416 1162.051635 
L 860.008496 1158.17379 
L 877.075616 1152.512979 
L 896.987256 1146.296183 
L 902.676296 1144.673313 
L 911.209856 1142.215454 
L 914.054376 1141.14772 
L 916.898895 1140.561887 
L 919.743415 1139.527711 
L 922.587935 1138.817609 
L 925.432455 1137.89908 
L 928.276975 1137.13502 
L 931.121495 1136.055136 
L 933.966015 1135.447899 
L 936.810535 1134.593105 
L 939.655055 1133.29176 
L 942.499575 1132.612363 
L 945.344095 1131.720348 
L 948.188615 1130.570133 
L 962.411215 1126.047142 
L 968.100255 1123.838735 
L 970.944775 1123.005767 
L 973.789295 1121.909243 
L 976.633815 1121.131256 
L 979.478335 1119.805391 
L 996.545455 1113.407883 
L 999.389975 1112.339636 
L 1005.079014 1109.977754 
L 1007.923534 1108.857951 
L 1010.768054 1107.589427 
L 1013.612574 1106.597969 
L 1016.457094 1105.31391 
L 1024.990654 1101.810294 
L 1030.679694 1099.318151 
L 1042.057774 1094.417889 
L 1044.902294 1093.431739 
L 1061.969414 1086.270964 
L 1076.192014 1080.434686 
L 1098.948173 1071.808926 
L 1110.326253 1067.927728 
L 1113.170773 1066.887151 
L 1121.704333 1064.37212 
L 1124.548853 1063.261894 
L 1127.393373 1062.617859 
L 1130.237893 1061.496468 
L 1133.082413 1061.070714 
L 1141.615973 1058.735052 
L 1147.305013 1057.749755 
L 1150.149533 1057.122773 
L 1152.994053 1055.908434 
L 1158.683093 1054.637017 
L 1161.527613 1054.064737 
L 1170.061172 1052.089667 
L 1172.905692 1051.718336 
L 1178.594732 1050.497936 
L 1181.439252 1050.100793 
L 1184.283772 1049.395091 
L 1187.128292 1049.217506 
L 1189.972812 1048.778437 
L 1192.817332 1047.827523 
L 1195.661852 1047.283516 
L 1198.506372 1046.931543 
L 1201.350892 1046.446831 
L 1204.195412 1045.797463 
L 1209.884452 1044.892243 
L 1212.728972 1044.603584 
L 1215.573492 1044.128611 
L 1218.418012 1043.341943 
L 1224.107052 1042.039293 
L 1226.951572 1041.644376 
L 1229.796092 1040.634249 
L 1232.640612 1040.434603 
L 1235.485132 1039.531306 
L 1238.329652 1039.021894 
L 1244.018692 1037.566369 
L 1246.863212 1036.556153 
L 1249.707732 1035.770012 
L 1252.552251 1034.818605 
L 1255.396771 1034.339419 
L 1266.774851 1030.644641 
L 1269.619371 1029.790778 
L 1272.463891 1028.494685 
L 1275.308411 1027.662016 
L 1278.152931 1026.445743 
L 1280.997451 1025.588111 
L 1283.841971 1024.52172 
L 1286.686491 1023.685037 
L 1292.375531 1021.565538 
L 1300.909091 1018.13922 
L 1303.753611 1017.232481 
L 1306.598131 1015.688261 
L 1309.442651 1014.647581 
L 1317.976211 1011.047236 
L 1320.820731 1010.01003 
L 1346.42141 999.23343 
L 1352.11045 996.910675 
L 1354.95497 995.590638 
L 1366.33305 990.892909 
L 1372.02209 988.730617 
L 1383.40017 984.206304 
L 1389.08921 981.99063 
L 1391.93373 981.054358 
L 1400.46729 977.963726 
L 1403.31181 976.927217 
L 1409.00085 975.126384 
L 1411.84537 974.134054 
L 1414.68989 973.269469 
L 1417.53441 972.191898 
L 1420.378929 971.471665 
L 1426.067969 969.771461 
L 1428.912489 969.152812 
L 1431.757009 968.387836 
L 1434.601529 967.499165 
L 1445.979609 964.786996 
L 1451.668649 963.614313 
L 1457.357689 962.733006 
L 1460.202209 962.172572 
L 1474.424809 960.217974 
L 1491.491929 958.770638 
L 1494.336449 958.74045 
L 1500.025489 958.465365 
L 1502.870008 958.514101 
L 1508.559048 958.093458 
L 1511.403568 957.817724 
L 1514.248088 957.852079 
L 1517.092608 958.013856 
L 1519.937128 957.092719 
L 1522.781648 957.355583 
L 1528.470688 956.800368 
L 1531.315208 956.248657 
L 1534.159728 955.857557 
L 1537.004248 955.09654 
L 1545.537808 953.740952 
L 1548.382328 953.13034 
L 1551.226848 952.702198 
L 1562.604928 950.448216 
L 1568.293968 948.676396 
L 1573.983008 947.005804 
L 1582.516568 944.689051 
L 1605.272727 936.76763 
L 1608.117247 935.567261 
L 1610.961767 934.551402 
L 1613.806287 933.348337 
L 1625.184367 929.007526 
L 1647.940527 919.964384 
L 1682.074766 906.211924 
L 1690.608326 902.940106 
L 1701.986406 898.437317 
L 1710.519966 895.121192 
L 1730.431606 887.544377 
L 1804.389125 859.888362 
L 1807.233645 858.702864 
L 1812.922685 856.588578 
L 1815.767205 855.408534 
L 1818.611725 854.428293 
L 1827.145285 851.082241 
L 1884.035684 829.098416 
L 1886.880204 828.186946 
L 1903.947324 821.660126 
L 1906.791844 820.830167 
L 1909.636364 819.846564 
L 1912.480884 818.70362 
L 1923.858963 814.781622 
L 1926.703483 813.705753 
L 1938.081563 809.874073 
L 1943.770603 807.971615 
L 1946.615123 807.266345 
L 1955.148683 804.458291 
L 1966.526763 801.021981 
L 1969.371283 800.377201 
L 1975.060323 798.762356 
L 1992.127443 794.117581 
L 2000.661003 791.979023 
L 2003.505523 791.24868 
L 2006.350042 790.381554 
L 2009.194562 789.682408 
L 2012.039082 789.107425 
L 2014.883602 788.169678 
L 2017.728122 787.659674 
L 2020.572642 786.672716 
L 2023.417162 786.011627 
L 2026.261682 785.098321 
L 2029.106202 784.538364 
L 2031.950722 783.628475 
L 2034.795242 783.170921 
L 2037.639762 782.314488 
L 2040.484282 781.605606 
L 2043.328802 780.650485 
L 2046.173322 780.11138 
L 2049.017842 779.110119 
L 2051.862362 778.594283 
L 2054.706882 777.741399 
L 2057.551402 777.101963 
L 2060.395922 776.116362 
L 2063.240442 775.293617 
L 2066.084962 774.734791 
L 2068.929482 773.922353 
L 2071.774002 772.629723 
L 2077.463042 771.084759 
L 2085.996602 768.499856 
L 2097.374681 764.789053 
L 2100.219201 763.924004 
L 2103.063721 762.834971 
L 2117.286321 758.093626 
L 2145.731521 748.667298 
L 2151.420561 746.826487 
L 2162.798641 743.248285 
L 2171.332201 740.75392 
L 2174.17672 739.774611 
L 2177.02124 739.061085 
L 2179.86576 738.05645 
L 2185.5548 736.538071 
L 2188.39932 735.545548 
L 2191.24384 734.737665 
L 2194.08836 734.167383 
L 2196.93288 733.175669 
L 2202.62192 731.680231 
L 2205.46644 730.652643 
L 2208.31096 730.158484 
L 2211.15548 729.316968 
L 2214 728.704051 
L 2225.37808 725.716991 
L 2228.2226 724.914622 
L 2231.06712 723.953548 
L 2233.91164 723.390871 
L 2236.75616 722.508516 
L 2239.60068 721.815906 
L 2242.4452 721.380578 
L 2248.13424 719.906386 
L 2250.97876 719.022594 
L 2253.82328 718.493541 
L 2262.356839 716.349096 
L 2265.201359 715.491348 
L 2270.890399 713.916085 
L 2273.734919 713.427511 
L 2282.268479 711.111094 
L 2285.112999 710.216258 
L 2287.957519 709.761592 
L 2290.802039 708.826248 
L 2302.180119 705.738551 
L 2305.024639 705.12162 
L 2310.713679 703.539166 
L 2313.558199 702.909831 
L 2316.402719 701.849594 
L 2319.247239 701.121548 
L 2322.091759 700.644284 
L 2324.936279 699.929504 
L 2327.780799 698.943026 
L 2330.625319 698.391093 
L 2333.469839 697.460052 
L 2336.314359 697.038161 
L 2347.692438 694.048145 
L 2350.536958 693.516875 
L 2361.915038 690.317568 
L 2364.759558 689.872786 
L 2367.604078 688.977522 
L 2370.448598 688.524977 
L 2398.893798 681.945946 
L 2407.427358 680.167119 
L 2410.271878 679.347255 
L 2413.116398 678.710394 
L 2415.960918 678.265833 
L 2418.805438 677.3175 
L 2424.494477 676.052581 
L 2427.338997 675.501134 
L 2438.717077 672.66962 
L 2444.406117 671.265258 
L 2447.250637 670.436027 
L 2461.473237 666.963577 
L 2464.317757 666.09236 
L 2472.851317 663.75108 
L 2498.451997 656.420216 
L 2504.141037 654.655559 
L 2515.519116 651.382863 
L 2521.208156 649.661414 
L 2555.342396 640.062494 
L 2589.476636 630.772769 
L 2592.321155 630.196771 
L 2600.854715 627.871842 
L 2603.699235 626.889599 
L 2615.077315 624.038687 
L 2620.766355 622.415939 
L 2623.610875 621.421288 
L 2626.455395 620.878379 
L 2629.299915 619.881175 
L 2632.144435 619.334607 
L 2637.833475 617.681297 
L 2646.367035 615.169871 
L 2649.211555 614.104494 
L 2652.056075 613.470663 
L 2654.900595 612.66774 
L 2657.745115 611.343737 
L 2660.589635 610.44556 
L 2663.434155 609.364002 
L 2669.123195 607.585178 
L 2671.967715 606.642576 
L 2674.812234 605.957116 
L 2677.656754 604.757799 
L 2683.345794 602.801315 
L 2714.635514 592.073149 
L 2717.480034 590.952859 
L 2720.324554 590.096717 
L 2723.169074 588.95036 
L 2731.702634 586.020167 
L 2743.080714 581.916028 
L 2745.925234 580.809649 
L 2748.769754 580.013589 
L 2760.147833 575.837332 
L 2762.992353 574.931832 
L 2765.836873 573.771436 
L 2771.525913 571.863602 
L 2777.214953 569.74654 
L 2780.059473 568.805292 
L 2791.437553 564.515285 
L 2794.282073 563.648654 
L 2802.815633 560.367062 
L 2805.660153 559.496362 
L 2808.504673 558.336654 
L 2814.193713 556.305902 
L 2817.038233 555.138733 
L 2819.882753 554.476196 
L 2831.260833 550.352924 
L 2834.105353 549.138789 
L 2836.949873 548.072259 
L 2839.794393 547.307344 
L 2842.638912 546.314031 
L 2845.483432 544.930103 
L 2848.327952 543.876251 
L 2851.172472 543.0588 
L 2854.016992 541.789869 
L 2862.550552 538.629265 
L 2865.395072 537.857335 
L 2868.239592 536.532126 
L 2871.084112 535.632547 
L 2873.928632 534.407579 
L 2876.773152 533.490216 
L 2879.617672 532.154634 
L 2882.462192 531.335545 
L 2890.995752 528.037479 
L 2893.840272 526.7075 
L 2899.529312 524.704757 
L 2902.373832 523.459846 
L 2905.218352 522.532786 
L 2908.062872 521.258506 
L 2910.907392 520.143947 
L 2913.751912 519.190992 
L 2916.596432 517.83305 
L 2922.285472 515.667118 
L 2930.819031 512.31366 
L 2939.352591 508.863361 
L 2945.041631 506.596112 
L 2956.419711 502.163382 
L 2982.020391 492.706255 
L 2990.553951 489.773276 
L 3001.932031 486.050653 
L 3013.31011 482.589887 
L 3021.84367 480.190996 
L 3030.37723 477.98679 
L 3038.91079 475.990494 
L 3047.44435 474.204173 
L 3053.13339 473.155996 
L 3061.66695 471.768937 
L 3067.35599 470.947896 
L 3078.73407 469.667531 
L 3084.42311 469.22654 
L 3087.26763 468.871666 
L 3092.956669 468.521153 
L 3098.645709 467.925395 
L 3118.557349 466.145007 
L 3121.401869 465.653231 
L 3127.090909 464.922225 
L 3132.779949 463.87612 
L 3141.313509 462.270555 
L 3147.002549 461.141778 
L 3152.691589 459.886313 
L 3164.069669 457.088825 
L 3172.603229 454.758186 
L 3181.136788 452.246575 
L 3189.670348 449.554308 
L 3198.203908 446.70804 
L 3209.581988 442.683572 
L 3218.115548 439.520896 
L 3226.649108 436.226895 
L 3240.871708 430.530134 
L 3257.938828 423.427304 
L 3280.694987 413.756697 
L 3309.140187 401.816501 
L 3326.207307 394.883902 
L 3348.963466 386.338371 
L 3360.341546 382.417815 
L 3374.564146 378.049504 
L 3385.942226 374.77984 
L 3394.475786 372.632745 
L 3397.320306 371.914895 
L 3417.231946 367.728207 
L 3442.832625 363.379804 
L 3459.899745 360.563589 
L 3474.122345 358.272342 
L 3476.966865 357.488304 
L 3479.811385 357.152835 
L 3482.655905 356.325724 
L 3485.500425 355.723785 
L 3488.344945 355.737359 
L 3491.189465 354.551206 
L 3494.033985 354.875331 
L 3496.878505 353.300031 
L 3499.723025 352.323306 
L 3502.567545 351.960116 
L 3505.412065 350.949062 
L 3508.256585 350.196506 
L 3511.101105 350.163634 
L 3513.945624 349.546547 
L 3516.790144 347.885736 
L 3519.634664 346.890244 
L 3522.479184 346.226119 
L 3528.168224 344.177196 
L 3533.857264 342.722823 
L 3536.701784 341.663279 
L 3539.546304 340.306104 
L 3542.390824 339.465266 
L 3545.235344 338.016951 
L 3548.079864 337.160033 
L 3556.613424 333.502974 
L 3576.525064 324.4805 
L 3582.214104 321.691624 
L 3585.058624 320.560263 
L 3587.903144 318.953358 
L 3590.747664 317.582554 
L 3593.592184 316.568224 
L 3610.659303 308.592924 
L 3616.348343 306.207905 
L 3624.881903 302.102482 
L 3627.726423 300.782643 
L 3630.570943 299.627074 
L 3633.415463 298.239016 
L 3636.259983 297.379898 
L 3641.949023 294.731604 
L 3644.793543 293.58299 
L 3647.638063 292.279862 
L 3650.482583 291.212947 
L 3653.327103 289.920014 
L 3656.171623 289.300471 
L 3661.860663 286.81611 
L 3664.705183 286.026632 
L 3667.549703 284.72074 
L 3670.394223 283.822708 
L 3673.238743 282.737295 
L 3676.083263 281.922687 
L 3678.927782 280.61599 
L 3681.772302 280.055451 
L 3684.616822 279.122744 
L 3687.461342 277.978561 
L 3690.305862 277.28885 
L 3693.150382 276.220104 
L 3695.994902 275.34108 
L 3698.839422 274.84142 
L 3704.528462 273.2263 
L 3707.372982 272.438726 
L 3710.217502 271.849329 
L 3713.062022 270.782861 
L 3718.751062 269.643668 
L 3721.595582 268.644902 
L 3724.440102 268.338421 
L 3727.284622 267.337468 
L 3732.973662 266.510189 
L 3735.818182 265.752056 
L 3735.818182 265.752056 
" clip-path="url(#p8f45059aa0)" style="fill: none; stroke: #00aa00; stroke-width: 6; stroke-linecap: square"/>
   </g>
  </g>
 </g>
 <defs>
  <clipPath id="p8f45059aa0">
   <rect x="540" y="172.8" width="3348" height="1087.2"/>
  </clipPath>
 </defs>
</svg>
