<?xml version="1.0" encoding="utf-8" standalone="no"?>
<!DOCTYPE svg PUBLIC "-//W3C//DTD SVG 1.1//EN"
  "http://www.w3.org/Graphics/SVG/1.1/DTD/svg11.dtd">
<svg xmlns:xlink="http://www.w3.org/1999/xlink" width="4320pt" height="1440pt" viewBox="0 0 4320 1440" xmlns="http://www.w3.org/2000/svg" version="1.1">
 <metadata>
  <rdf:RDF xmlns:dc="http://purl.org/dc/elements/1.1/" xmlns:cc="http://creativecommons.org/ns#" xmlns:rdf="http://www.w3.org/1999/02/22-rdf-syntax-ns#">
   <cc:Work>
    <dc:type rdf:resource="http://purl.org/dc/dcmitype/StillImage"/>
    <dc:date>2021-11-07T01:36:24.377427</dc:date>
    <dc:format>image/svg+xml</dc:format>
    <dc:creator>
     <cc:Agent>
      <dc:title>Matplotlib v3.5.0rc1, https://matplotlib.org/</dc:title>
     </cc:Agent>
    </dc:creator>
   </cc:Work>
  </rdf:RDF>
 </metadata>
 <defs>
  <style type="text/css">*{stroke-linejoin: round; stroke-linecap: butt}</style>
 </defs>
 <g id="figure_1">
  <g id="patch_1">
   <path d="M 0 1440 
L 4320 1440 
L 4320 0 
L 0 0 
z
" style="fill: #ffffff"/>
  </g>
  <g id="axes_1">
   <g id="patch_2">
    <path d="M 540 1260 
L 3888 1260 
L 3888 172.8 
L 540 172.8 
z
" style="fill: #ffffff"/>
   </g>
   <g id="matplotlib.axis_1">
    <g id="xtick_1">
     <g id="line2d_1">
      <defs>
       <path id="m47597e19f6" d="M 0 0 
L 0 3.5 
" style="stroke: #000000; stroke-width: 0.8"/>
      </defs>
      <g>
       <use xlink:href="#m47597e19f6" x="692.181818" y="1260" style="stroke: #000000; stroke-width: 0.8"/>
      </g>
     </g>
     <g id="text_1">
      <!-- 0 -->
      <g transform="translate(684.228693 1285.996094)scale(0.25 -0.25)">
       <defs>
        <path id="DejaVuSans-30" d="M 2034 4250 
Q 1547 4250 1301 3770 
Q 1056 3291 1056 2328 
Q 1056 1369 1301 889 
Q 1547 409 2034 409 
Q 2525 409 2770 889 
Q 3016 1369 3016 2328 
Q 3016 3291 2770 3770 
Q 2525 4250 2034 4250 
z
M 2034 4750 
Q 2819 4750 3233 4129 
Q 3647 3509 3647 2328 
Q 3647 1150 3233 529 
Q 2819 -91 2034 -91 
Q 1250 -91 836 529 
Q 422 1150 422 2328 
Q 422 3509 836 4129 
Q 1250 4750 2034 4750 
z
" transform="scale(0.015625)"/>
       </defs>
       <use xlink:href="#DejaVuSans-30"/>
      </g>
     </g>
    </g>
    <g id="xtick_2">
     <g id="line2d_2">
      <g>
       <use xlink:href="#m47597e19f6" x="1092.660287" y="1260" style="stroke: #000000; stroke-width: 0.8"/>
      </g>
     </g>
     <g id="text_2">
      <!-- 150 -->
      <g transform="translate(1068.800912 1285.996094)scale(0.25 -0.25)">
       <defs>
        <path id="DejaVuSans-31" d="M 794 531 
L 1825 531 
L 1825 4091 
L 703 3866 
L 703 4441 
L 1819 4666 
L 2450 4666 
L 2450 531 
L 3481 531 
L 3481 0 
L 794 0 
L 794 531 
z
" transform="scale(0.015625)"/>
        <path id="DejaVuSans-35" d="M 691 4666 
L 3169 4666 
L 3169 4134 
L 1269 4134 
L 1269 2991 
Q 1406 3038 1543 3061 
Q 1681 3084 1819 3084 
Q 2600 3084 3056 2656 
Q 3513 2228 3513 1497 
Q 3513 744 3044 326 
Q 2575 -91 1722 -91 
Q 1428 -91 1123 -41 
Q 819 9 494 109 
L 494 744 
Q 775 591 1075 516 
Q 1375 441 1709 441 
Q 2250 441 2565 725 
Q 2881 1009 2881 1497 
Q 2881 1984 2565 2268 
Q 2250 2553 1709 2553 
Q 1456 2553 1204 2497 
Q 953 2441 691 2322 
L 691 4666 
z
" transform="scale(0.015625)"/>
       </defs>
       <use xlink:href="#DejaVuSans-31"/>
       <use xlink:href="#DejaVuSans-35" x="63.623047"/>
       <use xlink:href="#DejaVuSans-30" x="127.246094"/>
      </g>
     </g>
    </g>
    <g id="xtick_3">
     <g id="line2d_3">
      <g>
       <use xlink:href="#m47597e19f6" x="1493.138756" y="1260" style="stroke: #000000; stroke-width: 0.8"/>
      </g>
     </g>
     <g id="text_3">
      <!-- 300 -->
      <g transform="translate(1469.279381 1285.996094)scale(0.25 -0.25)">
       <defs>
        <path id="DejaVuSans-33" d="M 2597 2516 
Q 3050 2419 3304 2112 
Q 3559 1806 3559 1356 
Q 3559 666 3084 287 
Q 2609 -91 1734 -91 
Q 1441 -91 1130 -33 
Q 819 25 488 141 
L 488 750 
Q 750 597 1062 519 
Q 1375 441 1716 441 
Q 2309 441 2620 675 
Q 2931 909 2931 1356 
Q 2931 1769 2642 2001 
Q 2353 2234 1838 2234 
L 1294 2234 
L 1294 2753 
L 1863 2753 
Q 2328 2753 2575 2939 
Q 2822 3125 2822 3475 
Q 2822 3834 2567 4026 
Q 2313 4219 1838 4219 
Q 1578 4219 1281 4162 
Q 984 4106 628 3988 
L 628 4550 
Q 988 4650 1302 4700 
Q 1616 4750 1894 4750 
Q 2613 4750 3031 4423 
Q 3450 4097 3450 3541 
Q 3450 3153 3228 2886 
Q 3006 2619 2597 2516 
z
" transform="scale(0.015625)"/>
       </defs>
       <use xlink:href="#DejaVuSans-33"/>
       <use xlink:href="#DejaVuSans-30" x="63.623047"/>
       <use xlink:href="#DejaVuSans-30" x="127.246094"/>
      </g>
     </g>
    </g>
    <g id="xtick_4">
     <g id="line2d_4">
      <g>
       <use xlink:href="#m47597e19f6" x="1893.617225" y="1260" style="stroke: #000000; stroke-width: 0.8"/>
      </g>
     </g>
     <g id="text_4">
      <!-- 450 -->
      <g transform="translate(1869.75785 1285.996094)scale(0.25 -0.25)">
       <defs>
        <path id="DejaVuSans-34" d="M 2419 4116 
L 825 1625 
L 2419 1625 
L 2419 4116 
z
M 2253 4666 
L 3047 4666 
L 3047 1625 
L 3713 1625 
L 3713 1100 
L 3047 1100 
L 3047 0 
L 2419 0 
L 2419 1100 
L 313 1100 
L 313 1709 
L 2253 4666 
z
" transform="scale(0.015625)"/>
       </defs>
       <use xlink:href="#DejaVuSans-34"/>
       <use xlink:href="#DejaVuSans-35" x="63.623047"/>
       <use xlink:href="#DejaVuSans-30" x="127.246094"/>
      </g>
     </g>
    </g>
    <g id="xtick_5">
     <g id="line2d_5">
      <g>
       <use xlink:href="#m47597e19f6" x="2294.095694" y="1260" style="stroke: #000000; stroke-width: 0.8"/>
      </g>
     </g>
     <g id="text_5">
      <!-- 600 -->
      <g transform="translate(2270.236319 1285.996094)scale(0.25 -0.25)">
       <defs>
        <path id="DejaVuSans-36" d="M 2113 2584 
Q 1688 2584 1439 2293 
Q 1191 2003 1191 1497 
Q 1191 994 1439 701 
Q 1688 409 2113 409 
Q 2538 409 2786 701 
Q 3034 994 3034 1497 
Q 3034 2003 2786 2293 
Q 2538 2584 2113 2584 
z
M 3366 4563 
L 3366 3988 
Q 3128 4100 2886 4159 
Q 2644 4219 2406 4219 
Q 1781 4219 1451 3797 
Q 1122 3375 1075 2522 
Q 1259 2794 1537 2939 
Q 1816 3084 2150 3084 
Q 2853 3084 3261 2657 
Q 3669 2231 3669 1497 
Q 3669 778 3244 343 
Q 2819 -91 2113 -91 
Q 1303 -91 875 529 
Q 447 1150 447 2328 
Q 447 3434 972 4092 
Q 1497 4750 2381 4750 
Q 2619 4750 2861 4703 
Q 3103 4656 3366 4563 
z
" transform="scale(0.015625)"/>
       </defs>
       <use xlink:href="#DejaVuSans-36"/>
       <use xlink:href="#DejaVuSans-30" x="63.623047"/>
       <use xlink:href="#DejaVuSans-30" x="127.246094"/>
      </g>
     </g>
    </g>
    <g id="xtick_6">
     <g id="line2d_6">
      <g>
       <use xlink:href="#m47597e19f6" x="2694.574163" y="1260" style="stroke: #000000; stroke-width: 0.8"/>
      </g>
     </g>
     <g id="text_6">
      <!-- 750 -->
      <g transform="translate(2670.714788 1285.996094)scale(0.25 -0.25)">
       <defs>
        <path id="DejaVuSans-37" d="M 525 4666 
L 3525 4666 
L 3525 4397 
L 1831 0 
L 1172 0 
L 2766 4134 
L 525 4134 
L 525 4666 
z
" transform="scale(0.015625)"/>
       </defs>
       <use xlink:href="#DejaVuSans-37"/>
       <use xlink:href="#DejaVuSans-35" x="63.623047"/>
       <use xlink:href="#DejaVuSans-30" x="127.246094"/>
      </g>
     </g>
    </g>
    <g id="xtick_7">
     <g id="line2d_7">
      <g>
       <use xlink:href="#m47597e19f6" x="3095.052632" y="1260" style="stroke: #000000; stroke-width: 0.8"/>
      </g>
     </g>
     <g id="text_7">
      <!-- 900 -->
      <g transform="translate(3071.193257 1285.996094)scale(0.25 -0.25)">
       <defs>
        <path id="DejaVuSans-39" d="M 703 97 
L 703 672 
Q 941 559 1184 500 
Q 1428 441 1663 441 
Q 2288 441 2617 861 
Q 2947 1281 2994 2138 
Q 2813 1869 2534 1725 
Q 2256 1581 1919 1581 
Q 1219 1581 811 2004 
Q 403 2428 403 3163 
Q 403 3881 828 4315 
Q 1253 4750 1959 4750 
Q 2769 4750 3195 4129 
Q 3622 3509 3622 2328 
Q 3622 1225 3098 567 
Q 2575 -91 1691 -91 
Q 1453 -91 1209 -44 
Q 966 3 703 97 
z
M 1959 2075 
Q 2384 2075 2632 2365 
Q 2881 2656 2881 3163 
Q 2881 3666 2632 3958 
Q 2384 4250 1959 4250 
Q 1534 4250 1286 3958 
Q 1038 3666 1038 3163 
Q 1038 2656 1286 2365 
Q 1534 2075 1959 2075 
z
" transform="scale(0.015625)"/>
       </defs>
       <use xlink:href="#DejaVuSans-39"/>
       <use xlink:href="#DejaVuSans-30" x="63.623047"/>
       <use xlink:href="#DejaVuSans-30" x="127.246094"/>
      </g>
     </g>
    </g>
    <g id="xtick_8">
     <g id="line2d_8">
      <g>
       <use xlink:href="#m47597e19f6" x="3495.5311" y="1260" style="stroke: #000000; stroke-width: 0.8"/>
      </g>
     </g>
     <g id="text_8">
      <!-- 1050 -->
      <g transform="translate(3463.7186 1285.996094)scale(0.25 -0.25)">
       <use xlink:href="#DejaVuSans-31"/>
       <use xlink:href="#DejaVuSans-30" x="63.623047"/>
       <use xlink:href="#DejaVuSans-35" x="127.246094"/>
       <use xlink:href="#DejaVuSans-30" x="190.869141"/>
      </g>
     </g>
    </g>
    <g id="text_9">
     <!-- Point Index -->
     <g transform="translate(2116.817578 1321.789844)scale(0.35 -0.35)">
      <defs>
       <path id="DejaVuSans-50" d="M 1259 4147 
L 1259 2394 
L 2053 2394 
Q 2494 2394 2734 2622 
Q 2975 2850 2975 3272 
Q 2975 3691 2734 3919 
Q 2494 4147 2053 4147 
L 1259 4147 
z
M 628 4666 
L 2053 4666 
Q 2838 4666 3239 4311 
Q 3641 3956 3641 3272 
Q 3641 2581 3239 2228 
Q 2838 1875 2053 1875 
L 1259 1875 
L 1259 0 
L 628 0 
L 628 4666 
z
" transform="scale(0.015625)"/>
       <path id="DejaVuSans-6f" d="M 1959 3097 
Q 1497 3097 1228 2736 
Q 959 2375 959 1747 
Q 959 1119 1226 758 
Q 1494 397 1959 397 
Q 2419 397 2687 759 
Q 2956 1122 2956 1747 
Q 2956 2369 2687 2733 
Q 2419 3097 1959 3097 
z
M 1959 3584 
Q 2709 3584 3137 3096 
Q 3566 2609 3566 1747 
Q 3566 888 3137 398 
Q 2709 -91 1959 -91 
Q 1206 -91 779 398 
Q 353 888 353 1747 
Q 353 2609 779 3096 
Q 1206 3584 1959 3584 
z
" transform="scale(0.015625)"/>
       <path id="DejaVuSans-69" d="M 603 3500 
L 1178 3500 
L 1178 0 
L 603 0 
L 603 3500 
z
M 603 4863 
L 1178 4863 
L 1178 4134 
L 603 4134 
L 603 4863 
z
" transform="scale(0.015625)"/>
       <path id="DejaVuSans-6e" d="M 3513 2113 
L 3513 0 
L 2938 0 
L 2938 2094 
Q 2938 2591 2744 2837 
Q 2550 3084 2163 3084 
Q 1697 3084 1428 2787 
Q 1159 2491 1159 1978 
L 1159 0 
L 581 0 
L 581 3500 
L 1159 3500 
L 1159 2956 
Q 1366 3272 1645 3428 
Q 1925 3584 2291 3584 
Q 2894 3584 3203 3211 
Q 3513 2838 3513 2113 
z
" transform="scale(0.015625)"/>
       <path id="DejaVuSans-74" d="M 1172 4494 
L 1172 3500 
L 2356 3500 
L 2356 3053 
L 1172 3053 
L 1172 1153 
Q 1172 725 1289 603 
Q 1406 481 1766 481 
L 2356 481 
L 2356 0 
L 1766 0 
Q 1100 0 847 248 
Q 594 497 594 1153 
L 594 3053 
L 172 3053 
L 172 3500 
L 594 3500 
L 594 4494 
L 1172 4494 
z
" transform="scale(0.015625)"/>
       <path id="DejaVuSans-20" transform="scale(0.015625)"/>
       <path id="DejaVuSans-49" d="M 628 4666 
L 1259 4666 
L 1259 0 
L 628 0 
L 628 4666 
z
" transform="scale(0.015625)"/>
       <path id="DejaVuSans-64" d="M 2906 2969 
L 2906 4863 
L 3481 4863 
L 3481 0 
L 2906 0 
L 2906 525 
Q 2725 213 2448 61 
Q 2172 -91 1784 -91 
Q 1150 -91 751 415 
Q 353 922 353 1747 
Q 353 2572 751 3078 
Q 1150 3584 1784 3584 
Q 2172 3584 2448 3432 
Q 2725 3281 2906 2969 
z
M 947 1747 
Q 947 1113 1208 752 
Q 1469 391 1925 391 
Q 2381 391 2643 752 
Q 2906 1113 2906 1747 
Q 2906 2381 2643 2742 
Q 2381 3103 1925 3103 
Q 1469 3103 1208 2742 
Q 947 2381 947 1747 
z
" transform="scale(0.015625)"/>
       <path id="DejaVuSans-65" d="M 3597 1894 
L 3597 1613 
L 953 1613 
Q 991 1019 1311 708 
Q 1631 397 2203 397 
Q 2534 397 2845 478 
Q 3156 559 3463 722 
L 3463 178 
Q 3153 47 2828 -22 
Q 2503 -91 2169 -91 
Q 1331 -91 842 396 
Q 353 884 353 1716 
Q 353 2575 817 3079 
Q 1281 3584 2069 3584 
Q 2775 3584 3186 3129 
Q 3597 2675 3597 1894 
z
M 3022 2063 
Q 3016 2534 2758 2815 
Q 2500 3097 2075 3097 
Q 1594 3097 1305 2825 
Q 1016 2553 972 2059 
L 3022 2063 
z
" transform="scale(0.015625)"/>
       <path id="DejaVuSans-78" d="M 3513 3500 
L 2247 1797 
L 3578 0 
L 2900 0 
L 1881 1375 
L 863 0 
L 184 0 
L 1544 1831 
L 300 3500 
L 978 3500 
L 1906 2253 
L 2834 3500 
L 3513 3500 
z
" transform="scale(0.015625)"/>
      </defs>
      <use xlink:href="#DejaVuSans-50"/>
      <use xlink:href="#DejaVuSans-6f" x="56.677734"/>
      <use xlink:href="#DejaVuSans-69" x="117.859375"/>
      <use xlink:href="#DejaVuSans-6e" x="145.642578"/>
      <use xlink:href="#DejaVuSans-74" x="209.021484"/>
      <use xlink:href="#DejaVuSans-20" x="248.230469"/>
      <use xlink:href="#DejaVuSans-49" x="280.017578"/>
      <use xlink:href="#DejaVuSans-6e" x="309.509766"/>
      <use xlink:href="#DejaVuSans-64" x="372.888672"/>
      <use xlink:href="#DejaVuSans-65" x="436.365234"/>
      <use xlink:href="#DejaVuSans-78" x="496.138672"/>
     </g>
    </g>
   </g>
   <g id="matplotlib.axis_2">
    <g id="ytick_1">
     <g id="line2d_9">
      <defs>
       <path id="m4ac7a45374" d="M 0 0 
L -3.5 0 
" style="stroke: #000000; stroke-width: 0.8"/>
      </defs>
      <g>
       <use xlink:href="#m4ac7a45374" x="540" y="1210.581818" style="stroke: #000000; stroke-width: 0.8"/>
      </g>
     </g>
     <g id="text_10">
      <!-- 0 -->
      <g transform="translate(517.09375 1220.079865)scale(0.25 -0.25)">
       <use xlink:href="#DejaVuSans-30"/>
      </g>
     </g>
    </g>
    <g id="ytick_2">
     <g id="line2d_10">
      <g>
       <use xlink:href="#m4ac7a45374" x="540" y="1071.320958" style="stroke: #000000; stroke-width: 0.8"/>
      </g>
     </g>
     <g id="text_11">
      <!-- 100 -->
      <g transform="translate(485.28125 1080.819005)scale(0.25 -0.25)">
       <use xlink:href="#DejaVuSans-31"/>
       <use xlink:href="#DejaVuSans-30" x="63.623047"/>
       <use xlink:href="#DejaVuSans-30" x="127.246094"/>
      </g>
     </g>
    </g>
    <g id="ytick_3">
     <g id="line2d_11">
      <g>
       <use xlink:href="#m4ac7a45374" x="540" y="932.060097" style="stroke: #000000; stroke-width: 0.8"/>
      </g>
     </g>
     <g id="text_12">
      <!-- 200 -->
      <g transform="translate(485.28125 941.558144)scale(0.25 -0.25)">
       <defs>
        <path id="DejaVuSans-32" d="M 1228 531 
L 3431 531 
L 3431 0 
L 469 0 
L 469 531 
Q 828 903 1448 1529 
Q 2069 2156 2228 2338 
Q 2531 2678 2651 2914 
Q 2772 3150 2772 3378 
Q 2772 3750 2511 3984 
Q 2250 4219 1831 4219 
Q 1534 4219 1204 4116 
Q 875 4013 500 3803 
L 500 4441 
Q 881 4594 1212 4672 
Q 1544 4750 1819 4750 
Q 2544 4750 2975 4387 
Q 3406 4025 3406 3419 
Q 3406 3131 3298 2873 
Q 3191 2616 2906 2266 
Q 2828 2175 2409 1742 
Q 1991 1309 1228 531 
z
" transform="scale(0.015625)"/>
       </defs>
       <use xlink:href="#DejaVuSans-32"/>
       <use xlink:href="#DejaVuSans-30" x="63.623047"/>
       <use xlink:href="#DejaVuSans-30" x="127.246094"/>
      </g>
     </g>
    </g>
    <g id="ytick_4">
     <g id="line2d_12">
      <g>
       <use xlink:href="#m4ac7a45374" x="540" y="792.799237" style="stroke: #000000; stroke-width: 0.8"/>
      </g>
     </g>
     <g id="text_13">
      <!-- 300 -->
      <g transform="translate(485.28125 802.297284)scale(0.25 -0.25)">
       <use xlink:href="#DejaVuSans-33"/>
       <use xlink:href="#DejaVuSans-30" x="63.623047"/>
       <use xlink:href="#DejaVuSans-30" x="127.246094"/>
      </g>
     </g>
    </g>
    <g id="ytick_5">
     <g id="line2d_13">
      <g>
       <use xlink:href="#m4ac7a45374" x="540" y="653.538376" style="stroke: #000000; stroke-width: 0.8"/>
      </g>
     </g>
     <g id="text_14">
      <!-- 400 -->
      <g transform="translate(485.28125 663.036423)scale(0.25 -0.25)">
       <use xlink:href="#DejaVuSans-34"/>
       <use xlink:href="#DejaVuSans-30" x="63.623047"/>
       <use xlink:href="#DejaVuSans-30" x="127.246094"/>
      </g>
     </g>
    </g>
    <g id="ytick_6">
     <g id="line2d_14">
      <g>
       <use xlink:href="#m4ac7a45374" x="540" y="514.277516" style="stroke: #000000; stroke-width: 0.8"/>
      </g>
     </g>
     <g id="text_15">
      <!-- 500 -->
      <g transform="translate(485.28125 523.775563)scale(0.25 -0.25)">
       <use xlink:href="#DejaVuSans-35"/>
       <use xlink:href="#DejaVuSans-30" x="63.623047"/>
       <use xlink:href="#DejaVuSans-30" x="127.246094"/>
      </g>
     </g>
    </g>
    <g id="ytick_7">
     <g id="line2d_15">
      <g>
       <use xlink:href="#m4ac7a45374" x="540" y="375.016655" style="stroke: #000000; stroke-width: 0.8"/>
      </g>
     </g>
     <g id="text_16">
      <!-- 600 -->
      <g transform="translate(485.28125 384.514702)scale(0.25 -0.25)">
       <use xlink:href="#DejaVuSans-36"/>
       <use xlink:href="#DejaVuSans-30" x="63.623047"/>
       <use xlink:href="#DejaVuSans-30" x="127.246094"/>
      </g>
     </g>
    </g>
    <g id="ytick_8">
     <g id="line2d_16">
      <g>
       <use xlink:href="#m4ac7a45374" x="540" y="235.755795" style="stroke: #000000; stroke-width: 0.8"/>
      </g>
     </g>
     <g id="text_17">
      <!-- 700 -->
      <g transform="translate(485.28125 245.253842)scale(0.25 -0.25)">
       <use xlink:href="#DejaVuSans-37"/>
       <use xlink:href="#DejaVuSans-30" x="63.623047"/>
       <use xlink:href="#DejaVuSans-30" x="127.246094"/>
      </g>
     </g>
    </g>
    <g id="text_18">
     <!-- Arc-Length -->
     <g transform="translate(474.002344 811.471484)rotate(-90)scale(0.35 -0.35)">
      <defs>
       <path id="DejaVuSans-41" d="M 2188 4044 
L 1331 1722 
L 3047 1722 
L 2188 4044 
z
M 1831 4666 
L 2547 4666 
L 4325 0 
L 3669 0 
L 3244 1197 
L 1141 1197 
L 716 0 
L 50 0 
L 1831 4666 
z
" transform="scale(0.015625)"/>
       <path id="DejaVuSans-72" d="M 2631 2963 
Q 2534 3019 2420 3045 
Q 2306 3072 2169 3072 
Q 1681 3072 1420 2755 
Q 1159 2438 1159 1844 
L 1159 0 
L 581 0 
L 581 3500 
L 1159 3500 
L 1159 2956 
Q 1341 3275 1631 3429 
Q 1922 3584 2338 3584 
Q 2397 3584 2469 3576 
Q 2541 3569 2628 3553 
L 2631 2963 
z
" transform="scale(0.015625)"/>
       <path id="DejaVuSans-63" d="M 3122 3366 
L 3122 2828 
Q 2878 2963 2633 3030 
Q 2388 3097 2138 3097 
Q 1578 3097 1268 2742 
Q 959 2388 959 1747 
Q 959 1106 1268 751 
Q 1578 397 2138 397 
Q 2388 397 2633 464 
Q 2878 531 3122 666 
L 3122 134 
Q 2881 22 2623 -34 
Q 2366 -91 2075 -91 
Q 1284 -91 818 406 
Q 353 903 353 1747 
Q 353 2603 823 3093 
Q 1294 3584 2113 3584 
Q 2378 3584 2631 3529 
Q 2884 3475 3122 3366 
z
" transform="scale(0.015625)"/>
       <path id="DejaVuSans-2d" d="M 313 2009 
L 1997 2009 
L 1997 1497 
L 313 1497 
L 313 2009 
z
" transform="scale(0.015625)"/>
       <path id="DejaVuSans-4c" d="M 628 4666 
L 1259 4666 
L 1259 531 
L 3531 531 
L 3531 0 
L 628 0 
L 628 4666 
z
" transform="scale(0.015625)"/>
       <path id="DejaVuSans-67" d="M 2906 1791 
Q 2906 2416 2648 2759 
Q 2391 3103 1925 3103 
Q 1463 3103 1205 2759 
Q 947 2416 947 1791 
Q 947 1169 1205 825 
Q 1463 481 1925 481 
Q 2391 481 2648 825 
Q 2906 1169 2906 1791 
z
M 3481 434 
Q 3481 -459 3084 -895 
Q 2688 -1331 1869 -1331 
Q 1566 -1331 1297 -1286 
Q 1028 -1241 775 -1147 
L 775 -588 
Q 1028 -725 1275 -790 
Q 1522 -856 1778 -856 
Q 2344 -856 2625 -561 
Q 2906 -266 2906 331 
L 2906 616 
Q 2728 306 2450 153 
Q 2172 0 1784 0 
Q 1141 0 747 490 
Q 353 981 353 1791 
Q 353 2603 747 3093 
Q 1141 3584 1784 3584 
Q 2172 3584 2450 3431 
Q 2728 3278 2906 2969 
L 2906 3500 
L 3481 3500 
L 3481 434 
z
" transform="scale(0.015625)"/>
       <path id="DejaVuSans-68" d="M 3513 2113 
L 3513 0 
L 2938 0 
L 2938 2094 
Q 2938 2591 2744 2837 
Q 2550 3084 2163 3084 
Q 1697 3084 1428 2787 
Q 1159 2491 1159 1978 
L 1159 0 
L 581 0 
L 581 4863 
L 1159 4863 
L 1159 2956 
Q 1366 3272 1645 3428 
Q 1925 3584 2291 3584 
Q 2894 3584 3203 3211 
Q 3513 2838 3513 2113 
z
" transform="scale(0.015625)"/>
      </defs>
      <use xlink:href="#DejaVuSans-41"/>
      <use xlink:href="#DejaVuSans-72" x="68.408203"/>
      <use xlink:href="#DejaVuSans-63" x="107.271484"/>
      <use xlink:href="#DejaVuSans-2d" x="162.251953"/>
      <use xlink:href="#DejaVuSans-4c" x="198.335938"/>
      <use xlink:href="#DejaVuSans-65" x="252.298828"/>
      <use xlink:href="#DejaVuSans-6e" x="313.822266"/>
      <use xlink:href="#DejaVuSans-67" x="377.201172"/>
      <use xlink:href="#DejaVuSans-74" x="440.677734"/>
      <use xlink:href="#DejaVuSans-68" x="479.886719"/>
     </g>
    </g>
   </g>
   <g id="patch_3">
    <path d="M 540 1260 
L 540 172.8 
" style="fill: none; stroke: #000000; stroke-width: 0.8; stroke-linejoin: miter; stroke-linecap: square"/>
   </g>
   <g id="patch_4">
    <path d="M 3888 1260 
L 3888 172.8 
" style="fill: none; stroke: #000000; stroke-width: 0.8; stroke-linejoin: miter; stroke-linecap: square"/>
   </g>
   <g id="patch_5">
    <path d="M 540 1260 
L 3888 1260 
" style="fill: none; stroke: #000000; stroke-width: 0.8; stroke-linejoin: miter; stroke-linecap: square"/>
   </g>
   <g id="patch_6">
    <path d="M 540 172.8 
L 3888 172.8 
" style="fill: none; stroke: #000000; stroke-width: 0.8; stroke-linejoin: miter; stroke-linecap: square"/>
   </g>
   <g id="text_19">
    <!-- Predicted Arc-Length vs. Ground Truth Arc-Length (at Anchors) -->
    <g transform="translate(1667.007422 165.521094)scale(0.35 -0.35)">
     <defs>
      <path id="DejaVuSans-76" d="M 191 3500 
L 800 3500 
L 1894 563 
L 2988 3500 
L 3597 3500 
L 2284 0 
L 1503 0 
L 191 3500 
z
" transform="scale(0.015625)"/>
      <path id="DejaVuSans-73" d="M 2834 3397 
L 2834 2853 
Q 2591 2978 2328 3040 
Q 2066 3103 1784 3103 
Q 1356 3103 1142 2972 
Q 928 2841 928 2578 
Q 928 2378 1081 2264 
Q 1234 2150 1697 2047 
L 1894 2003 
Q 2506 1872 2764 1633 
Q 3022 1394 3022 966 
Q 3022 478 2636 193 
Q 2250 -91 1575 -91 
Q 1294 -91 989 -36 
Q 684 19 347 128 
L 347 722 
Q 666 556 975 473 
Q 1284 391 1588 391 
Q 1994 391 2212 530 
Q 2431 669 2431 922 
Q 2431 1156 2273 1281 
Q 2116 1406 1581 1522 
L 1381 1569 
Q 847 1681 609 1914 
Q 372 2147 372 2553 
Q 372 3047 722 3315 
Q 1072 3584 1716 3584 
Q 2034 3584 2315 3537 
Q 2597 3491 2834 3397 
z
" transform="scale(0.015625)"/>
      <path id="DejaVuSans-2e" d="M 684 794 
L 1344 794 
L 1344 0 
L 684 0 
L 684 794 
z
" transform="scale(0.015625)"/>
      <path id="DejaVuSans-47" d="M 3809 666 
L 3809 1919 
L 2778 1919 
L 2778 2438 
L 4434 2438 
L 4434 434 
Q 4069 175 3628 42 
Q 3188 -91 2688 -91 
Q 1594 -91 976 548 
Q 359 1188 359 2328 
Q 359 3472 976 4111 
Q 1594 4750 2688 4750 
Q 3144 4750 3555 4637 
Q 3966 4525 4313 4306 
L 4313 3634 
Q 3963 3931 3569 4081 
Q 3175 4231 2741 4231 
Q 1884 4231 1454 3753 
Q 1025 3275 1025 2328 
Q 1025 1384 1454 906 
Q 1884 428 2741 428 
Q 3075 428 3337 486 
Q 3600 544 3809 666 
z
" transform="scale(0.015625)"/>
      <path id="DejaVuSans-75" d="M 544 1381 
L 544 3500 
L 1119 3500 
L 1119 1403 
Q 1119 906 1312 657 
Q 1506 409 1894 409 
Q 2359 409 2629 706 
Q 2900 1003 2900 1516 
L 2900 3500 
L 3475 3500 
L 3475 0 
L 2900 0 
L 2900 538 
Q 2691 219 2414 64 
Q 2138 -91 1772 -91 
Q 1169 -91 856 284 
Q 544 659 544 1381 
z
M 1991 3584 
L 1991 3584 
z
" transform="scale(0.015625)"/>
      <path id="DejaVuSans-54" d="M -19 4666 
L 3928 4666 
L 3928 4134 
L 2272 4134 
L 2272 0 
L 1638 0 
L 1638 4134 
L -19 4134 
L -19 4666 
z
" transform="scale(0.015625)"/>
      <path id="DejaVuSans-28" d="M 1984 4856 
Q 1566 4138 1362 3434 
Q 1159 2731 1159 2009 
Q 1159 1288 1364 580 
Q 1569 -128 1984 -844 
L 1484 -844 
Q 1016 -109 783 600 
Q 550 1309 550 2009 
Q 550 2706 781 3412 
Q 1013 4119 1484 4856 
L 1984 4856 
z
" transform="scale(0.015625)"/>
      <path id="DejaVuSans-61" d="M 2194 1759 
Q 1497 1759 1228 1600 
Q 959 1441 959 1056 
Q 959 750 1161 570 
Q 1363 391 1709 391 
Q 2188 391 2477 730 
Q 2766 1069 2766 1631 
L 2766 1759 
L 2194 1759 
z
M 3341 1997 
L 3341 0 
L 2766 0 
L 2766 531 
Q 2569 213 2275 61 
Q 1981 -91 1556 -91 
Q 1019 -91 701 211 
Q 384 513 384 1019 
Q 384 1609 779 1909 
Q 1175 2209 1959 2209 
L 2766 2209 
L 2766 2266 
Q 2766 2663 2505 2880 
Q 2244 3097 1772 3097 
Q 1472 3097 1187 3025 
Q 903 2953 641 2809 
L 641 3341 
Q 956 3463 1253 3523 
Q 1550 3584 1831 3584 
Q 2591 3584 2966 3190 
Q 3341 2797 3341 1997 
z
" transform="scale(0.015625)"/>
      <path id="DejaVuSans-29" d="M 513 4856 
L 1013 4856 
Q 1481 4119 1714 3412 
Q 1947 2706 1947 2009 
Q 1947 1309 1714 600 
Q 1481 -109 1013 -844 
L 513 -844 
Q 928 -128 1133 580 
Q 1338 1288 1338 2009 
Q 1338 2731 1133 3434 
Q 928 4138 513 4856 
z
" transform="scale(0.015625)"/>
     </defs>
     <use xlink:href="#DejaVuSans-50"/>
     <use xlink:href="#DejaVuSans-72" x="58.552734"/>
     <use xlink:href="#DejaVuSans-65" x="97.416016"/>
     <use xlink:href="#DejaVuSans-64" x="158.939453"/>
     <use xlink:href="#DejaVuSans-69" x="222.416016"/>
     <use xlink:href="#DejaVuSans-63" x="250.199219"/>
     <use xlink:href="#DejaVuSans-74" x="305.179688"/>
     <use xlink:href="#DejaVuSans-65" x="344.388672"/>
     <use xlink:href="#DejaVuSans-64" x="405.912109"/>
     <use xlink:href="#DejaVuSans-20" x="469.388672"/>
     <use xlink:href="#DejaVuSans-41" x="501.175781"/>
     <use xlink:href="#DejaVuSans-72" x="569.583984"/>
     <use xlink:href="#DejaVuSans-63" x="608.447266"/>
     <use xlink:href="#DejaVuSans-2d" x="663.427734"/>
     <use xlink:href="#DejaVuSans-4c" x="699.511719"/>
     <use xlink:href="#DejaVuSans-65" x="753.474609"/>
     <use xlink:href="#DejaVuSans-6e" x="814.998047"/>
     <use xlink:href="#DejaVuSans-67" x="878.376953"/>
     <use xlink:href="#DejaVuSans-74" x="941.853516"/>
     <use xlink:href="#DejaVuSans-68" x="981.0625"/>
     <use xlink:href="#DejaVuSans-20" x="1044.441406"/>
     <use xlink:href="#DejaVuSans-76" x="1076.228516"/>
     <use xlink:href="#DejaVuSans-73" x="1135.408203"/>
     <use xlink:href="#DejaVuSans-2e" x="1187.507812"/>
     <use xlink:href="#DejaVuSans-20" x="1219.294922"/>
     <use xlink:href="#DejaVuSans-47" x="1251.082031"/>
     <use xlink:href="#DejaVuSans-72" x="1328.572266"/>
     <use xlink:href="#DejaVuSans-6f" x="1367.435547"/>
     <use xlink:href="#DejaVuSans-75" x="1428.617188"/>
     <use xlink:href="#DejaVuSans-6e" x="1491.996094"/>
     <use xlink:href="#DejaVuSans-64" x="1555.375"/>
     <use xlink:href="#DejaVuSans-20" x="1618.851562"/>
     <use xlink:href="#DejaVuSans-54" x="1650.638672"/>
     <use xlink:href="#DejaVuSans-72" x="1696.972656"/>
     <use xlink:href="#DejaVuSans-75" x="1738.085938"/>
     <use xlink:href="#DejaVuSans-74" x="1801.464844"/>
     <use xlink:href="#DejaVuSans-68" x="1840.673828"/>
     <use xlink:href="#DejaVuSans-20" x="1904.052734"/>
     <use xlink:href="#DejaVuSans-41" x="1935.839844"/>
     <use xlink:href="#DejaVuSans-72" x="2004.248047"/>
     <use xlink:href="#DejaVuSans-63" x="2043.111328"/>
     <use xlink:href="#DejaVuSans-2d" x="2098.091797"/>
     <use xlink:href="#DejaVuSans-4c" x="2134.175781"/>
     <use xlink:href="#DejaVuSans-65" x="2188.138672"/>
     <use xlink:href="#DejaVuSans-6e" x="2249.662109"/>
     <use xlink:href="#DejaVuSans-67" x="2313.041016"/>
     <use xlink:href="#DejaVuSans-74" x="2376.517578"/>
     <use xlink:href="#DejaVuSans-68" x="2415.726562"/>
     <use xlink:href="#DejaVuSans-20" x="2479.105469"/>
     <use xlink:href="#DejaVuSans-28" x="2510.892578"/>
     <use xlink:href="#DejaVuSans-61" x="2549.90625"/>
     <use xlink:href="#DejaVuSans-74" x="2611.185547"/>
     <use xlink:href="#DejaVuSans-20" x="2650.394531"/>
     <use xlink:href="#DejaVuSans-41" x="2682.181641"/>
     <use xlink:href="#DejaVuSans-6e" x="2750.589844"/>
     <use xlink:href="#DejaVuSans-63" x="2813.96875"/>
     <use xlink:href="#DejaVuSans-68" x="2868.949219"/>
     <use xlink:href="#DejaVuSans-6f" x="2932.328125"/>
     <use xlink:href="#DejaVuSans-72" x="2993.509766"/>
     <use xlink:href="#DejaVuSans-73" x="3034.623047"/>
     <use xlink:href="#DejaVuSans-29" x="3086.722656"/>
    </g>
   </g>
   <g id="legend_1">
    <g id="patch_7">
     <path d="M 557.5 339.58125 
L 1208.160156 339.58125 
Q 1213.160156 339.58125 1213.160156 334.58125 
L 1213.160156 190.3 
Q 1213.160156 185.3 1208.160156 185.3 
L 557.5 185.3 
Q 552.5 185.3 552.5 190.3 
L 552.5 334.58125 
Q 552.5 339.58125 557.5 339.58125 
z
" style="fill: #ffffff; opacity: 0.8; stroke: #cccccc; stroke-linejoin: miter"/>
    </g>
    <g id="line2d_17">
     <path d="M 562.5 205.546094 
L 587.5 205.546094 
L 612.5 205.546094 
" style="fill: none; stroke: #ff8c00; stroke-width: 6; stroke-linecap: square"/>
    </g>
    <g id="text_20">
     <!-- True Arc-Length (Transformed Curve #1) -->
     <g transform="translate(632.5 214.296094)scale(0.25 -0.25)">
      <defs>
       <path id="DejaVuSans-66" d="M 2375 4863 
L 2375 4384 
L 1825 4384 
Q 1516 4384 1395 4259 
Q 1275 4134 1275 3809 
L 1275 3500 
L 2222 3500 
L 2222 3053 
L 1275 3053 
L 1275 0 
L 697 0 
L 697 3053 
L 147 3053 
L 147 3500 
L 697 3500 
L 697 3744 
Q 697 4328 969 4595 
Q 1241 4863 1831 4863 
L 2375 4863 
z
" transform="scale(0.015625)"/>
       <path id="DejaVuSans-6d" d="M 3328 2828 
Q 3544 3216 3844 3400 
Q 4144 3584 4550 3584 
Q 5097 3584 5394 3201 
Q 5691 2819 5691 2113 
L 5691 0 
L 5113 0 
L 5113 2094 
Q 5113 2597 4934 2840 
Q 4756 3084 4391 3084 
Q 3944 3084 3684 2787 
Q 3425 2491 3425 1978 
L 3425 0 
L 2847 0 
L 2847 2094 
Q 2847 2600 2669 2842 
Q 2491 3084 2119 3084 
Q 1678 3084 1418 2786 
Q 1159 2488 1159 1978 
L 1159 0 
L 581 0 
L 581 3500 
L 1159 3500 
L 1159 2956 
Q 1356 3278 1631 3431 
Q 1906 3584 2284 3584 
Q 2666 3584 2933 3390 
Q 3200 3197 3328 2828 
z
" transform="scale(0.015625)"/>
       <path id="DejaVuSans-43" d="M 4122 4306 
L 4122 3641 
Q 3803 3938 3442 4084 
Q 3081 4231 2675 4231 
Q 1875 4231 1450 3742 
Q 1025 3253 1025 2328 
Q 1025 1406 1450 917 
Q 1875 428 2675 428 
Q 3081 428 3442 575 
Q 3803 722 4122 1019 
L 4122 359 
Q 3791 134 3420 21 
Q 3050 -91 2638 -91 
Q 1578 -91 968 557 
Q 359 1206 359 2328 
Q 359 3453 968 4101 
Q 1578 4750 2638 4750 
Q 3056 4750 3426 4639 
Q 3797 4528 4122 4306 
z
" transform="scale(0.015625)"/>
       <path id="DejaVuSans-23" d="M 3272 2816 
L 2363 2816 
L 2100 1772 
L 3016 1772 
L 3272 2816 
z
M 2803 4594 
L 2478 3297 
L 3391 3297 
L 3719 4594 
L 4219 4594 
L 3897 3297 
L 4872 3297 
L 4872 2816 
L 3775 2816 
L 3519 1772 
L 4513 1772 
L 4513 1294 
L 3397 1294 
L 3072 0 
L 2572 0 
L 2894 1294 
L 1978 1294 
L 1656 0 
L 1153 0 
L 1478 1294 
L 494 1294 
L 494 1772 
L 1594 1772 
L 1856 2816 
L 850 2816 
L 850 3297 
L 1978 3297 
L 2297 4594 
L 2803 4594 
z
" transform="scale(0.015625)"/>
      </defs>
      <use xlink:href="#DejaVuSans-54"/>
      <use xlink:href="#DejaVuSans-72" x="46.333984"/>
      <use xlink:href="#DejaVuSans-75" x="87.447266"/>
      <use xlink:href="#DejaVuSans-65" x="150.826172"/>
      <use xlink:href="#DejaVuSans-20" x="212.349609"/>
      <use xlink:href="#DejaVuSans-41" x="244.136719"/>
      <use xlink:href="#DejaVuSans-72" x="312.544922"/>
      <use xlink:href="#DejaVuSans-63" x="351.408203"/>
      <use xlink:href="#DejaVuSans-2d" x="406.388672"/>
      <use xlink:href="#DejaVuSans-4c" x="442.472656"/>
      <use xlink:href="#DejaVuSans-65" x="496.435547"/>
      <use xlink:href="#DejaVuSans-6e" x="557.958984"/>
      <use xlink:href="#DejaVuSans-67" x="621.337891"/>
      <use xlink:href="#DejaVuSans-74" x="684.814453"/>
      <use xlink:href="#DejaVuSans-68" x="724.023438"/>
      <use xlink:href="#DejaVuSans-20" x="787.402344"/>
      <use xlink:href="#DejaVuSans-28" x="819.189453"/>
      <use xlink:href="#DejaVuSans-54" x="858.203125"/>
      <use xlink:href="#DejaVuSans-72" x="904.537109"/>
      <use xlink:href="#DejaVuSans-61" x="945.650391"/>
      <use xlink:href="#DejaVuSans-6e" x="1006.929688"/>
      <use xlink:href="#DejaVuSans-73" x="1070.308594"/>
      <use xlink:href="#DejaVuSans-66" x="1122.408203"/>
      <use xlink:href="#DejaVuSans-6f" x="1157.613281"/>
      <use xlink:href="#DejaVuSans-72" x="1218.794922"/>
      <use xlink:href="#DejaVuSans-6d" x="1258.158203"/>
      <use xlink:href="#DejaVuSans-65" x="1355.570312"/>
      <use xlink:href="#DejaVuSans-64" x="1417.09375"/>
      <use xlink:href="#DejaVuSans-20" x="1480.570312"/>
      <use xlink:href="#DejaVuSans-43" x="1512.357422"/>
      <use xlink:href="#DejaVuSans-75" x="1582.181641"/>
      <use xlink:href="#DejaVuSans-72" x="1645.560547"/>
      <use xlink:href="#DejaVuSans-76" x="1686.673828"/>
      <use xlink:href="#DejaVuSans-65" x="1745.853516"/>
      <use xlink:href="#DejaVuSans-20" x="1807.376953"/>
      <use xlink:href="#DejaVuSans-23" x="1839.164062"/>
      <use xlink:href="#DejaVuSans-31" x="1922.953125"/>
      <use xlink:href="#DejaVuSans-29" x="1986.576172"/>
     </g>
    </g>
    <g id="line2d_18">
     <path d="M 562.5 242.241406 
L 587.5 242.241406 
L 612.5 242.241406 
" style="fill: none; stroke: #aa0000; stroke-width: 6; stroke-linecap: square"/>
    </g>
    <g id="text_21">
     <!-- Predicted Arc-Length (Transformed Curve #1) -->
     <g transform="translate(632.5 250.991406)scale(0.25 -0.25)">
      <use xlink:href="#DejaVuSans-50"/>
      <use xlink:href="#DejaVuSans-72" x="58.552734"/>
      <use xlink:href="#DejaVuSans-65" x="97.416016"/>
      <use xlink:href="#DejaVuSans-64" x="158.939453"/>
      <use xlink:href="#DejaVuSans-69" x="222.416016"/>
      <use xlink:href="#DejaVuSans-63" x="250.199219"/>
      <use xlink:href="#DejaVuSans-74" x="305.179688"/>
      <use xlink:href="#DejaVuSans-65" x="344.388672"/>
      <use xlink:href="#DejaVuSans-64" x="405.912109"/>
      <use xlink:href="#DejaVuSans-20" x="469.388672"/>
      <use xlink:href="#DejaVuSans-41" x="501.175781"/>
      <use xlink:href="#DejaVuSans-72" x="569.583984"/>
      <use xlink:href="#DejaVuSans-63" x="608.447266"/>
      <use xlink:href="#DejaVuSans-2d" x="663.427734"/>
      <use xlink:href="#DejaVuSans-4c" x="699.511719"/>
      <use xlink:href="#DejaVuSans-65" x="753.474609"/>
      <use xlink:href="#DejaVuSans-6e" x="814.998047"/>
      <use xlink:href="#DejaVuSans-67" x="878.376953"/>
      <use xlink:href="#DejaVuSans-74" x="941.853516"/>
      <use xlink:href="#DejaVuSans-68" x="981.0625"/>
      <use xlink:href="#DejaVuSans-20" x="1044.441406"/>
      <use xlink:href="#DejaVuSans-28" x="1076.228516"/>
      <use xlink:href="#DejaVuSans-54" x="1115.242188"/>
      <use xlink:href="#DejaVuSans-72" x="1161.576172"/>
      <use xlink:href="#DejaVuSans-61" x="1202.689453"/>
      <use xlink:href="#DejaVuSans-6e" x="1263.96875"/>
      <use xlink:href="#DejaVuSans-73" x="1327.347656"/>
      <use xlink:href="#DejaVuSans-66" x="1379.447266"/>
      <use xlink:href="#DejaVuSans-6f" x="1414.652344"/>
      <use xlink:href="#DejaVuSans-72" x="1475.833984"/>
      <use xlink:href="#DejaVuSans-6d" x="1515.197266"/>
      <use xlink:href="#DejaVuSans-65" x="1612.609375"/>
      <use xlink:href="#DejaVuSans-64" x="1674.132812"/>
      <use xlink:href="#DejaVuSans-20" x="1737.609375"/>
      <use xlink:href="#DejaVuSans-43" x="1769.396484"/>
      <use xlink:href="#DejaVuSans-75" x="1839.220703"/>
      <use xlink:href="#DejaVuSans-72" x="1902.599609"/>
      <use xlink:href="#DejaVuSans-76" x="1943.712891"/>
      <use xlink:href="#DejaVuSans-65" x="2002.892578"/>
      <use xlink:href="#DejaVuSans-20" x="2064.416016"/>
      <use xlink:href="#DejaVuSans-23" x="2096.203125"/>
      <use xlink:href="#DejaVuSans-31" x="2179.992188"/>
      <use xlink:href="#DejaVuSans-29" x="2243.615234"/>
     </g>
    </g>
    <g id="line2d_19">
     <path d="M 562.5 278.936719 
L 587.5 278.936719 
L 612.5 278.936719 
" style="fill: none; stroke: #444444; stroke-width: 6; stroke-linecap: square"/>
    </g>
    <g id="text_22">
     <!-- True Arc-Length (Transformed Curve #2) -->
     <g transform="translate(632.5 287.686719)scale(0.25 -0.25)">
      <use xlink:href="#DejaVuSans-54"/>
      <use xlink:href="#DejaVuSans-72" x="46.333984"/>
      <use xlink:href="#DejaVuSans-75" x="87.447266"/>
      <use xlink:href="#DejaVuSans-65" x="150.826172"/>
      <use xlink:href="#DejaVuSans-20" x="212.349609"/>
      <use xlink:href="#DejaVuSans-41" x="244.136719"/>
      <use xlink:href="#DejaVuSans-72" x="312.544922"/>
      <use xlink:href="#DejaVuSans-63" x="351.408203"/>
      <use xlink:href="#DejaVuSans-2d" x="406.388672"/>
      <use xlink:href="#DejaVuSans-4c" x="442.472656"/>
      <use xlink:href="#DejaVuSans-65" x="496.435547"/>
      <use xlink:href="#DejaVuSans-6e" x="557.958984"/>
      <use xlink:href="#DejaVuSans-67" x="621.337891"/>
      <use xlink:href="#DejaVuSans-74" x="684.814453"/>
      <use xlink:href="#DejaVuSans-68" x="724.023438"/>
      <use xlink:href="#DejaVuSans-20" x="787.402344"/>
      <use xlink:href="#DejaVuSans-28" x="819.189453"/>
      <use xlink:href="#DejaVuSans-54" x="858.203125"/>
      <use xlink:href="#DejaVuSans-72" x="904.537109"/>
      <use xlink:href="#DejaVuSans-61" x="945.650391"/>
      <use xlink:href="#DejaVuSans-6e" x="1006.929688"/>
      <use xlink:href="#DejaVuSans-73" x="1070.308594"/>
      <use xlink:href="#DejaVuSans-66" x="1122.408203"/>
      <use xlink:href="#DejaVuSans-6f" x="1157.613281"/>
      <use xlink:href="#DejaVuSans-72" x="1218.794922"/>
      <use xlink:href="#DejaVuSans-6d" x="1258.158203"/>
      <use xlink:href="#DejaVuSans-65" x="1355.570312"/>
      <use xlink:href="#DejaVuSans-64" x="1417.09375"/>
      <use xlink:href="#DejaVuSans-20" x="1480.570312"/>
      <use xlink:href="#DejaVuSans-43" x="1512.357422"/>
      <use xlink:href="#DejaVuSans-75" x="1582.181641"/>
      <use xlink:href="#DejaVuSans-72" x="1645.560547"/>
      <use xlink:href="#DejaVuSans-76" x="1686.673828"/>
      <use xlink:href="#DejaVuSans-65" x="1745.853516"/>
      <use xlink:href="#DejaVuSans-20" x="1807.376953"/>
      <use xlink:href="#DejaVuSans-23" x="1839.164062"/>
      <use xlink:href="#DejaVuSans-32" x="1922.953125"/>
      <use xlink:href="#DejaVuSans-29" x="1986.576172"/>
     </g>
    </g>
    <g id="line2d_20">
     <path d="M 562.5 315.632031 
L 587.5 315.632031 
L 612.5 315.632031 
" style="fill: none; stroke: #00aa00; stroke-width: 6; stroke-linecap: square"/>
    </g>
    <g id="text_23">
     <!-- Predicted Arc-Length (Transformed Curve #2) -->
     <g transform="translate(632.5 324.382031)scale(0.25 -0.25)">
      <use xlink:href="#DejaVuSans-50"/>
      <use xlink:href="#DejaVuSans-72" x="58.552734"/>
      <use xlink:href="#DejaVuSans-65" x="97.416016"/>
      <use xlink:href="#DejaVuSans-64" x="158.939453"/>
      <use xlink:href="#DejaVuSans-69" x="222.416016"/>
      <use xlink:href="#DejaVuSans-63" x="250.199219"/>
      <use xlink:href="#DejaVuSans-74" x="305.179688"/>
      <use xlink:href="#DejaVuSans-65" x="344.388672"/>
      <use xlink:href="#DejaVuSans-64" x="405.912109"/>
      <use xlink:href="#DejaVuSans-20" x="469.388672"/>
      <use xlink:href="#DejaVuSans-41" x="501.175781"/>
      <use xlink:href="#DejaVuSans-72" x="569.583984"/>
      <use xlink:href="#DejaVuSans-63" x="608.447266"/>
      <use xlink:href="#DejaVuSans-2d" x="663.427734"/>
      <use xlink:href="#DejaVuSans-4c" x="699.511719"/>
      <use xlink:href="#DejaVuSans-65" x="753.474609"/>
      <use xlink:href="#DejaVuSans-6e" x="814.998047"/>
      <use xlink:href="#DejaVuSans-67" x="878.376953"/>
      <use xlink:href="#DejaVuSans-74" x="941.853516"/>
      <use xlink:href="#DejaVuSans-68" x="981.0625"/>
      <use xlink:href="#DejaVuSans-20" x="1044.441406"/>
      <use xlink:href="#DejaVuSans-28" x="1076.228516"/>
      <use xlink:href="#DejaVuSans-54" x="1115.242188"/>
      <use xlink:href="#DejaVuSans-72" x="1161.576172"/>
      <use xlink:href="#DejaVuSans-61" x="1202.689453"/>
      <use xlink:href="#DejaVuSans-6e" x="1263.96875"/>
      <use xlink:href="#DejaVuSans-73" x="1327.347656"/>
      <use xlink:href="#DejaVuSans-66" x="1379.447266"/>
      <use xlink:href="#DejaVuSans-6f" x="1414.652344"/>
      <use xlink:href="#DejaVuSans-72" x="1475.833984"/>
      <use xlink:href="#DejaVuSans-6d" x="1515.197266"/>
      <use xlink:href="#DejaVuSans-65" x="1612.609375"/>
      <use xlink:href="#DejaVuSans-64" x="1674.132812"/>
      <use xlink:href="#DejaVuSans-20" x="1737.609375"/>
      <use xlink:href="#DejaVuSans-43" x="1769.396484"/>
      <use xlink:href="#DejaVuSans-75" x="1839.220703"/>
      <use xlink:href="#DejaVuSans-72" x="1902.599609"/>
      <use xlink:href="#DejaVuSans-76" x="1943.712891"/>
      <use xlink:href="#DejaVuSans-65" x="2002.892578"/>
      <use xlink:href="#DejaVuSans-20" x="2064.416016"/>
      <use xlink:href="#DejaVuSans-23" x="2096.203125"/>
      <use xlink:href="#DejaVuSans-32" x="2179.992188"/>
      <use xlink:href="#DejaVuSans-29" x="2243.615234"/>
     </g>
    </g>
   </g>
   <g id="line2d_21">
    <path d="M 692.181818 1210.581818 
L 710.870813 1204.620755 
L 732.229665 1197.541726 
L 785.626794 1179.624753 
L 801.645933 1174.558899 
L 817.665072 1169.751005 
L 833.684211 1165.201268 
L 852.373206 1160.150665 
L 908.440191 1145.437847 
L 943.148325 1136.370888 
L 961.837321 1131.718655 
L 980.526316 1127.30511 
L 1012.564593 1120.060355 
L 1033.923445 1115.102844 
L 1052.61244 1110.529254 
L 1100.669856 1098.549908 
L 1111.349282 1096.159882 
L 1122.028708 1093.992127 
L 1132.708134 1092.099066 
L 1140.717703 1090.885657 
L 1148.727273 1089.862954 
L 1156.736842 1089.033821 
L 1167.416268 1088.199764 
L 1188.77512 1086.769002 
L 1196.784689 1085.995396 
L 1204.794258 1085.011066 
L 1212.803828 1083.805825 
L 1220.813397 1082.381094 
L 1228.822967 1080.744935 
L 1236.832536 1078.909694 
L 1244.842105 1076.890658 
L 1255.521531 1073.942777 
L 1266.200957 1070.743132 
L 1279.550239 1066.458446 
L 1292.899522 1061.936098 
L 1311.588517 1055.346472 
L 1340.956938 1044.697225 
L 1381.004785 1029.931544 
L 1410.373206 1018.882493 
L 1445.08134 1005.566337 
L 1503.818182 982.993275 
L 1541.196172 968.913481 
L 1605.272727 945.069681 
L 1639.980861 932.319376 
L 1661.339713 924.687901 
L 1677.358852 919.16513 
L 1693.37799 913.887593 
L 1706.727273 909.726414 
L 1720.076555 905.819318 
L 1730.755981 902.895369 
L 1741.435407 900.158435 
L 1754.784689 896.99358 
L 1768.133971 894.075097 
L 1792.162679 889.141538 
L 1808.181818 885.737294 
L 1818.861244 883.26222 
L 1829.54067 880.550849 
L 1840.220096 877.562178 
L 1850.899522 874.272942 
L 1861.578947 870.675276 
L 1872.258373 866.774228 
L 1882.937799 862.585605 
L 1893.617225 858.134228 
L 1904.296651 853.452494 
L 1917.645933 847.335965 
L 1933.665072 839.724831 
L 1976.382775 819.263225 
L 1989.732057 813.22735 
L 2000.411483 808.650473 
L 2011.090909 804.352809 
L 2019.100478 801.340834 
L 2027.110048 798.529181 
L 2035.119617 795.93223 
L 2043.129187 793.560768 
L 2051.138756 791.420817 
L 2059.148325 789.511913 
L 2067.157895 787.82451 
L 2075.167464 786.336199 
L 2085.84689 784.589275 
L 2109.875598 780.841278 
L 2117.885167 779.384394 
L 2125.894737 777.740654 
L 2133.904306 775.888874 
L 2141.913876 773.821208 
L 2149.923445 771.539136 
L 2157.933014 769.050677 
L 2165.942584 766.368493 
L 2176.62201 762.518851 
L 2187.301435 758.397325 
L 2197.980861 754.05182 
L 2211.330144 748.37998 
L 2230.019139 740.157863 
L 2278.076555 718.852661 
L 2296.76555 710.855417 
L 2315.454545 703.091968 
L 2336.813397 694.487834 
L 2358.172249 686.120904 
L 2384.870813 675.910061 
L 2416.909091 663.909852 
L 2451.617225 651.15531 
L 2480.985646 640.589988 
L 2513.023923 629.321589 
L 2555.741627 614.325276 
L 2574.430622 607.48995 
L 2590.449761 601.372184 
L 2603.799043 596.056302 
L 2617.148325 590.532404 
L 2633.167464 583.639397 
L 2649.186603 576.493074 
L 2667.875598 567.910602 
L 2699.913876 552.885833 
L 2729.282297 539.180027 
L 2747.971292 530.679591 
L 2763.990431 523.608637 
L 2780.009569 516.780575 
L 2796.028708 510.224956 
L 2809.37799 504.982588 
L 2822.727273 499.9452 
L 2836.076555 495.113438 
L 2849.425837 490.487891 
L 2862.77512 486.072828 
L 2876.124402 481.879575 
L 2889.473684 477.928503 
L 2902.822967 474.248696 
L 2913.502392 471.523337 
L 2924.181818 469.011235 
L 2934.861244 466.726033 
L 2945.54067 464.67253 
L 2956.220096 462.839711 
L 2969.569378 460.801308 
L 3001.607656 456.104911 
L 3012.287081 454.249404 
L 3022.966507 452.135115 
L 3033.645933 449.73901 
L 3044.325359 447.060555 
L 3055.004785 444.115435 
L 3065.684211 440.930888 
L 3079.033493 436.667874 
L 3092.382775 432.166595 
L 3113.741627 424.687196 
L 3140.440191 415.343747 
L 3156.45933 409.995585 
L 3169.808612 405.800807 
L 3180.488038 402.66231 
L 3191.167464 399.74588 
L 3201.84689 397.070381 
L 3212.526316 394.643643 
L 3223.205742 392.456923 
L 3236.555024 390.007895 
L 3273.933014 383.47283 
L 3284.61244 381.24193 
L 3292.62201 379.375765 
L 3300.631579 377.329787 
L 3308.641148 375.099562 
L 3316.650718 372.686919 
L 3327.330144 369.198725 
L 3338.009569 365.425714 
L 3348.688995 361.403829 
L 3362.038278 356.090851 
L 3378.057416 349.414212 
L 3404.755981 337.951371 
L 3428.784689 327.705622 
L 3447.473684 319.986735 
L 3463.492823 313.603214 
L 3479.511962 307.440509 
L 3498.200957 300.50019 
L 3519.559809 292.82014 
L 3548.92823 282.513163 
L 3596.985646 265.897907 
L 3623.684211 256.8706 
L 3645.043062 249.884787 
L 3663.732057 243.995364 
L 3685.090909 237.498275 
L 3735.818182 222.218182 
L 3735.818182 222.218182 
" clip-path="url(#p91aac22eb6)" style="fill: none; stroke: #ff8c00; stroke-width: 6; stroke-linecap: square"/>
   </g>
   <g id="line2d_22">
    <path d="M 692.181818 1210.581818 
L 713.54067 1204.261028 
L 716.210526 1203.680079 
L 721.550239 1201.892575 
L 724.220096 1201.263308 
L 726.889952 1200.48992 
L 729.559809 1199.313062 
L 734.899522 1197.698083 
L 737.569378 1197.071316 
L 740.239234 1196.042123 
L 742.909091 1195.287546 
L 745.578947 1194.339224 
L 748.248804 1193.241866 
L 750.91866 1192.427234 
L 756.258373 1191.030784 
L 758.92823 1190.218567 
L 761.598086 1189.184131 
L 780.287081 1183.388753 
L 782.956938 1182.624228 
L 785.626794 1181.686038 
L 788.296651 1181.141041 
L 793.636364 1179.49915 
L 796.30622 1178.738104 
L 798.976077 1177.759683 
L 806.985646 1175.583505 
L 809.655502 1174.917078 
L 812.325359 1173.949178 
L 814.995215 1173.414519 
L 817.665072 1172.495606 
L 820.334928 1171.912074 
L 823.004785 1170.90358 
L 825.674641 1170.680589 
L 828.344498 1169.763336 
L 831.014354 1169.339492 
L 833.684211 1168.604986 
L 836.354067 1168.055569 
L 847.033493 1165.172756 
L 849.703349 1165.068018 
L 860.382775 1162.709802 
L 863.052632 1161.72269 
L 865.722488 1161.572187 
L 868.392344 1161.009334 
L 871.062201 1160.002095 
L 873.732057 1159.783822 
L 881.741627 1158.062709 
L 887.08134 1156.925267 
L 889.751196 1156.179749 
L 892.421053 1155.607608 
L 895.090909 1154.778902 
L 897.760766 1154.333164 
L 903.100478 1152.857275 
L 905.770335 1152.249967 
L 924.45933 1147.303346 
L 945.818182 1141.764888 
L 961.837321 1137.801369 
L 977.856459 1133.99704 
L 993.875598 1130.335651 
L 1004.555024 1128.115363 
L 1015.23445 1125.627566 
L 1017.904306 1125.171054 
L 1023.244019 1123.986621 
L 1025.913876 1123.521441 
L 1033.923445 1121.585221 
L 1036.593301 1120.825347 
L 1060.62201 1114.956827 
L 1068.631579 1112.942184 
L 1095.330144 1106.242714 
L 1108.679426 1103.163056 
L 1119.358852 1100.935403 
L 1130.038278 1098.971496 
L 1138.047847 1097.705158 
L 1146.057416 1096.621688 
L 1154.066986 1095.736343 
L 1162.076555 1095.047744 
L 1170.086124 1094.528438 
L 1178.095694 1094.164982 
L 1191.444976 1093.718593 
L 1194.114833 1093.394762 
L 1196.784689 1093.223291 
L 1199.454545 1093.163552 
L 1207.464115 1092.033903 
L 1212.803828 1091.023908 
L 1215.473684 1090.600616 
L 1218.143541 1089.977636 
L 1220.813397 1089.503218 
L 1226.15311 1088.412388 
L 1234.162679 1086.639258 
L 1242.172249 1084.674162 
L 1252.851675 1081.801096 
L 1263.5311 1078.65619 
L 1274.210526 1075.282811 
L 1287.559809 1070.834677 
L 1298.239234 1067.158085 
L 1316.92823 1060.509657 
L 1346.296651 1049.862464 
L 1364.985646 1043.037191 
L 1370.325359 1041.028716 
L 1375.665072 1039.176839 
L 1386.344498 1035.193107 
L 1389.014354 1034.362781 
L 1458.430622 1008.284534 
L 1471.779904 1003.195218 
L 1474.449761 1002.371353 
L 1493.138756 995.31416 
L 1495.808612 994.191785 
L 1498.478469 993.282334 
L 1503.818182 991.229275 
L 1506.488038 990.315844 
L 1511.827751 988.208913 
L 1527.84689 982.355489 
L 1530.516746 981.465796 
L 1533.186603 980.278934 
L 1538.526316 978.477541 
L 1551.875598 973.451108 
L 1557.215311 971.610608 
L 1573.23445 965.77265 
L 1578.574163 963.730398 
L 1586.583732 960.93852 
L 1589.253589 960.110372 
L 1591.923445 958.952001 
L 1607.942584 953.309393 
L 1610.61244 952.123419 
L 1613.282297 951.354606 
L 1615.952153 950.367767 
L 1618.62201 949.238902 
L 1621.291866 948.364252 
L 1626.631579 946.373208 
L 1634.641148 943.578505 
L 1642.650718 940.67796 
L 1645.320574 939.901747 
L 1661.339713 934.146931 
L 1664.009569 933.455863 
L 1672.019139 930.606306 
L 1677.358852 928.872095 
L 1682.698565 927.06984 
L 1685.368421 926.353746 
L 1696.047847 922.802497 
L 1704.057416 920.301653 
L 1706.727273 919.639743 
L 1709.397129 918.705888 
L 1714.736842 917.172986 
L 1717.406699 916.320341 
L 1720.076555 915.665831 
L 1725.416268 914.137641 
L 1730.755981 912.782101 
L 1733.425837 912.01981 
L 1749.444976 908.269533 
L 1768.133971 904.329179 
L 1770.803828 903.942374 
L 1773.473684 903.226188 
L 1776.143541 902.913083 
L 1778.813397 902.196164 
L 1781.483254 901.701872 
L 1784.15311 901.579219 
L 1786.822967 900.847675 
L 1792.162679 899.831047 
L 1794.832536 899.469898 
L 1800.172249 898.461551 
L 1802.842105 898.181117 
L 1805.511962 897.249057 
L 1808.181818 896.734455 
L 1810.851675 896.35358 
L 1818.861244 894.239118 
L 1824.200957 893.12561 
L 1837.550239 889.579012 
L 1848.229665 886.352218 
L 1856.239234 883.760746 
L 1864.248804 880.970347 
L 1877.598086 875.936847 
L 1888.277512 871.586644 
L 1896.287081 868.166747 
L 1904.296651 864.672818 
L 1933.665072 850.917673 
L 1949.684211 843.111192 
L 1968.373206 834.090503 
L 1981.722488 827.922607 
L 1997.741627 820.882702 
L 2011.090909 815.452655 
L 2027.110048 809.686861 
L 2040.45933 805.469974 
L 2045.799043 804.059247 
L 2048.4689 803.222417 
L 2056.478469 801.300075 
L 2072.497608 798.084765 
L 2083.177033 796.678647 
L 2085.84689 796.122909 
L 2091.186603 795.681327 
L 2099.196172 794.982617 
L 2101.866029 794.376848 
L 2104.535885 794.357514 
L 2107.205742 793.85918 
L 2109.875598 793.899949 
L 2112.545455 793.587339 
L 2115.215311 792.843741 
L 2117.885167 792.620338 
L 2120.555024 792.280093 
L 2123.22488 791.701521 
L 2125.894737 791.598216 
L 2128.564593 790.678995 
L 2131.23445 790.484451 
L 2133.904306 790.073897 
L 2139.244019 788.807293 
L 2149.923445 786.470338 
L 2157.933014 784.150665 
L 2168.61244 780.931282 
L 2176.62201 778.208208 
L 2179.291866 777.072885 
L 2181.961722 776.225974 
L 2184.631579 775.052882 
L 2192.641148 771.890279 
L 2195.311005 770.72749 
L 2197.980861 769.737658 
L 2200.650718 768.486536 
L 2205.990431 766.268124 
L 2208.660287 764.984545 
L 2214 762.872842 
L 2275.406699 735.996999 
L 2283.416268 732.694734 
L 2288.755981 730.388456 
L 2294.095694 728.27302 
L 2299.435407 725.994025 
L 2304.77512 723.893445 
L 2307.444976 722.974471 
L 2312.784689 720.699755 
L 2318.124402 718.57577 
L 2320.794258 717.703649 
L 2323.464115 716.505536 
L 2336.813397 711.288626 
L 2339.483254 710.33154 
L 2344.822967 708.23316 
L 2352.832536 705.203682 
L 2355.502392 704.050498 
L 2358.172249 703.229879 
L 2384.870813 693.167061 
L 2392.880383 690.229033 
L 2395.550239 689.10399 
L 2398.220096 688.123603 
L 2400.889952 687.372786 
L 2403.559809 686.381671 
L 2406.229665 685.229998 
L 2419.578947 680.492326 
L 2422.248804 679.719324 
L 2440.937799 672.777571 
L 2443.607656 671.991301 
L 2454.287081 668.053565 
L 2459.626794 666.125882 
L 2462.296651 665.493596 
L 2464.966507 664.398929 
L 2480.985646 658.767049 
L 2483.655502 658.047331 
L 2502.344498 651.427327 
L 2505.014354 650.585345 
L 2507.684211 649.917006 
L 2510.354067 649.000017 
L 2513.023923 647.957291 
L 2515.69378 647.141313 
L 2518.363636 646.132995 
L 2523.703349 644.341114 
L 2526.373206 643.681149 
L 2529.043062 642.596268 
L 2531.712919 641.718524 
L 2534.382775 640.970931 
L 2539.722488 639.059202 
L 2542.392344 638.327564 
L 2545.062201 637.202323 
L 2566.421053 629.979775 
L 2569.090909 628.934308 
L 2571.760766 628.218112 
L 2574.430622 627.065654 
L 2585.110048 623.161145 
L 2587.779904 622.353928 
L 2595.789474 619.375363 
L 2614.478469 611.806313 
L 2619.818182 609.576886 
L 2622.488038 608.34412 
L 2630.497608 604.990239 
L 2635.837321 602.649984 
L 2654.526316 594.240117 
L 2681.22488 581.805268 
L 2734.62201 556.809792 
L 2742.631579 553.188948 
L 2747.971292 550.778139 
L 2763.990431 543.702691 
L 2777.339713 537.974591 
L 2790.688995 532.39263 
L 2817.38756 521.992111 
L 2838.746411 514.226004 
L 2846.755981 511.424753 
L 2849.425837 510.450235 
L 2857.435407 507.855321 
L 2860.105263 506.924276 
L 2862.77512 506.179215 
L 2873.454545 502.638179 
L 2876.124402 502.045726 
L 2878.794258 501.125152 
L 2881.464115 500.47899 
L 2886.803828 498.746328 
L 2889.473684 498.235805 
L 2892.143541 497.292489 
L 2894.813397 496.598491 
L 2897.483254 496.167016 
L 2900.15311 495.272211 
L 2902.822967 494.819816 
L 2905.492823 493.991032 
L 2908.162679 493.333589 
L 2910.832536 492.548363 
L 2913.502392 492.080375 
L 2918.842105 490.918482 
L 2921.511962 490.477409 
L 2924.181818 489.770644 
L 2932.191388 488.170171 
L 2937.5311 487.477629 
L 2940.200957 486.948228 
L 2942.870813 486.61574 
L 2945.54067 486.056634 
L 2950.880383 485.409025 
L 2953.550239 484.818607 
L 2956.220096 484.409211 
L 2961.559809 483.834861 
L 2964.229665 483.417664 
L 2969.569378 483.038032 
L 2974.909091 482.406791 
L 2980.248804 482.004972 
L 2982.91866 481.685356 
L 2985.588517 481.519511 
L 2988.258373 481.167135 
L 2990.92823 481.191522 
L 2993.598086 480.826153 
L 2996.267943 480.739888 
L 2998.937799 480.311295 
L 3001.607656 480.336564 
L 3004.277512 479.71384 
L 3006.947368 479.323052 
L 3009.617225 479.311354 
L 3012.287081 479.111804 
L 3014.956938 478.596604 
L 3017.626794 478.420855 
L 3020.296651 477.802576 
L 3022.966507 477.304585 
L 3028.30622 476.697414 
L 3030.976077 476.077558 
L 3036.315789 475.113026 
L 3038.985646 474.491481 
L 3046.995215 472.965044 
L 3055.004785 470.953002 
L 3057.674641 470.421092 
L 3060.344498 469.4931 
L 3063.014354 468.812275 
L 3065.684211 467.951379 
L 3071.023923 466.388903 
L 3081.703349 462.928272 
L 3108.401914 453.723589 
L 3116.411483 450.924574 
L 3124.421053 448.09906 
L 3132.430622 445.320547 
L 3143.110048 441.840944 
L 3148.449761 440.05414 
L 3153.789474 438.387766 
L 3172.478469 432.715248 
L 3185.827751 428.978259 
L 3188.497608 428.398429 
L 3191.167464 427.630185 
L 3196.507177 426.443476 
L 3199.177033 425.821956 
L 3201.84689 425.055464 
L 3212.526316 422.690157 
L 3215.196172 422.320849 
L 3217.866029 421.717386 
L 3231.215311 419.393558 
L 3233.885167 419.141832 
L 3236.555024 419.018049 
L 3239.22488 418.376668 
L 3241.894737 418.127716 
L 3244.564593 417.993302 
L 3247.23445 417.492976 
L 3249.904306 417.395732 
L 3255.244019 416.752313 
L 3257.913876 416.973129 
L 3260.583732 416.310276 
L 3263.253589 415.915124 
L 3265.923445 415.828259 
L 3268.593301 415.444734 
L 3271.263158 415.654472 
L 3273.933014 414.858602 
L 3276.602871 414.809179 
L 3279.272727 414.460393 
L 3281.942584 414.223923 
L 3284.61244 414.221833 
L 3287.282297 413.374836 
L 3289.952153 413.314029 
L 3292.62201 412.789741 
L 3297.961722 411.935245 
L 3300.631579 411.37359 
L 3303.301435 410.66761 
L 3311.311005 408.995775 
L 3313.980861 408.625385 
L 3316.650718 408.123758 
L 3319.320574 407.070573 
L 3321.990431 406.391407 
L 3324.660287 405.574774 
L 3327.330144 404.93798 
L 3338.009569 401.317152 
L 3340.679426 400.705107 
L 3343.349282 399.570012 
L 3346.019139 398.624886 
L 3348.688995 397.808242 
L 3351.358852 396.775934 
L 3354.028708 395.907478 
L 3356.698565 394.879215 
L 3359.368421 393.537293 
L 3370.047847 389.252666 
L 3375.38756 387.018851 
L 3378.057416 385.965051 
L 3380.727273 384.76979 
L 3386.066986 382.610929 
L 3415.435407 370.255833 
L 3418.105263 368.982171 
L 3423.444976 366.822599 
L 3434.124402 362.364668 
L 3436.794258 361.460134 
L 3450.143541 355.97917 
L 3455.483254 354.060805 
L 3458.15311 353.003662 
L 3460.822967 351.782832 
L 3463.492823 350.888271 
L 3466.162679 349.760448 
L 3487.521531 341.862728 
L 3490.191388 340.975196 
L 3495.5311 338.96985 
L 3498.200957 338.223868 
L 3503.54067 336.123862 
L 3519.559809 330.524056 
L 3522.229665 329.813626 
L 3524.899522 328.699812 
L 3532.909091 325.992697 
L 3535.578947 325.29119 
L 3540.91866 323.484213 
L 3543.588517 322.458829 
L 3562.277512 316.110699 
L 3564.947368 315.120007 
L 3578.296651 310.803434 
L 3591.645933 306.139477 
L 3594.315789 305.427482 
L 3596.985646 304.359453 
L 3621.014354 296.400484 
L 3623.684211 295.422371 
L 3626.354067 294.666216 
L 3639.703349 290.177012 
L 3645.043062 288.533869 
L 3653.052632 285.971225 
L 3655.722488 285.202215 
L 3661.062201 283.468896 
L 3669.07177 281.100407 
L 3674.411483 279.607506 
L 3679.751196 277.942782 
L 3682.421053 277.106775 
L 3690.430622 274.928677 
L 3693.100478 273.928625 
L 3695.770335 273.422231 
L 3698.440191 272.694077 
L 3701.110048 271.709326 
L 3711.789474 269.141535 
L 3714.45933 268.241973 
L 3719.799043 266.890125 
L 3722.4689 265.982427 
L 3727.808612 264.636911 
L 3733.148325 263.179843 
L 3735.818182 262.581143 
L 3735.818182 262.581143 
" clip-path="url(#p91aac22eb6)" style="fill: none; stroke: #aa0000; stroke-width: 6; stroke-linecap: square"/>
   </g>
   <g id="line2d_23">
    <path d="M 692.181818 1210.581818 
L 710.870813 1204.620755 
L 732.229665 1197.541726 
L 785.626794 1179.624753 
L 801.645933 1174.558899 
L 817.665072 1169.751005 
L 833.684211 1165.201268 
L 852.373206 1160.150665 
L 908.440191 1145.437847 
L 943.148325 1136.370888 
L 961.837321 1131.718655 
L 980.526316 1127.30511 
L 1012.564593 1120.060355 
L 1033.923445 1115.102844 
L 1052.61244 1110.529254 
L 1100.669856 1098.549908 
L 1111.349282 1096.159882 
L 1122.028708 1093.992127 
L 1132.708134 1092.099066 
L 1140.717703 1090.885657 
L 1148.727273 1089.862954 
L 1156.736842 1089.033821 
L 1167.416268 1088.199764 
L 1188.77512 1086.769002 
L 1196.784689 1085.995396 
L 1204.794258 1085.011066 
L 1212.803828 1083.805825 
L 1220.813397 1082.381094 
L 1228.822967 1080.744935 
L 1236.832536 1078.909694 
L 1244.842105 1076.890658 
L 1255.521531 1073.942777 
L 1266.200957 1070.743132 
L 1279.550239 1066.458446 
L 1292.899522 1061.936098 
L 1311.588517 1055.346472 
L 1340.956938 1044.697225 
L 1381.004785 1029.931544 
L 1410.373206 1018.882493 
L 1445.08134 1005.566337 
L 1503.818182 982.993275 
L 1541.196172 968.913481 
L 1605.272727 945.069681 
L 1639.980861 932.319376 
L 1661.339713 924.687901 
L 1677.358852 919.16513 
L 1693.37799 913.887593 
L 1706.727273 909.726414 
L 1720.076555 905.819318 
L 1730.755981 902.895369 
L 1741.435407 900.158435 
L 1754.784689 896.99358 
L 1768.133971 894.075097 
L 1792.162679 889.141538 
L 1808.181818 885.737294 
L 1818.861244 883.26222 
L 1829.54067 880.550849 
L 1840.220096 877.562178 
L 1850.899522 874.272942 
L 1861.578947 870.675276 
L 1872.258373 866.774228 
L 1882.937799 862.585605 
L 1893.617225 858.134228 
L 1904.296651 853.452494 
L 1917.645933 847.335965 
L 1933.665072 839.724831 
L 1976.382775 819.263225 
L 1989.732057 813.22735 
L 2000.411483 808.650473 
L 2011.090909 804.352809 
L 2019.100478 801.340834 
L 2027.110048 798.529181 
L 2035.119617 795.93223 
L 2043.129187 793.560768 
L 2051.138756 791.420817 
L 2059.148325 789.511913 
L 2067.157895 787.82451 
L 2075.167464 786.336199 
L 2085.84689 784.589275 
L 2109.875598 780.841278 
L 2117.885167 779.384394 
L 2125.894737 777.740654 
L 2133.904306 775.888874 
L 2141.913876 773.821208 
L 2149.923445 771.539136 
L 2157.933014 769.050677 
L 2165.942584 766.368493 
L 2176.62201 762.518851 
L 2187.301435 758.397325 
L 2197.980861 754.05182 
L 2211.330144 748.37998 
L 2230.019139 740.157863 
L 2278.076555 718.852661 
L 2296.76555 710.855417 
L 2315.454545 703.091968 
L 2336.813397 694.487834 
L 2358.172249 686.120904 
L 2384.870813 675.910061 
L 2416.909091 663.909852 
L 2451.617225 651.15531 
L 2480.985646 640.589988 
L 2513.023923 629.321589 
L 2555.741627 614.325276 
L 2574.430622 607.48995 
L 2590.449761 601.372184 
L 2603.799043 596.056302 
L 2617.148325 590.532404 
L 2633.167464 583.639397 
L 2649.186603 576.493074 
L 2667.875598 567.910602 
L 2699.913876 552.885833 
L 2729.282297 539.180027 
L 2747.971292 530.679591 
L 2763.990431 523.608637 
L 2780.009569 516.780575 
L 2796.028708 510.224956 
L 2809.37799 504.982588 
L 2822.727273 499.9452 
L 2836.076555 495.113438 
L 2849.425837 490.487891 
L 2862.77512 486.072828 
L 2876.124402 481.879575 
L 2889.473684 477.928503 
L 2902.822967 474.248696 
L 2913.502392 471.523337 
L 2924.181818 469.011235 
L 2934.861244 466.726033 
L 2945.54067 464.67253 
L 2956.220096 462.839711 
L 2969.569378 460.801308 
L 3001.607656 456.104911 
L 3012.287081 454.249404 
L 3022.966507 452.135115 
L 3033.645933 449.73901 
L 3044.325359 447.060555 
L 3055.004785 444.115435 
L 3065.684211 440.930888 
L 3079.033493 436.667874 
L 3092.382775 432.166595 
L 3113.741627 424.687196 
L 3140.440191 415.343747 
L 3156.45933 409.995585 
L 3169.808612 405.800807 
L 3180.488038 402.66231 
L 3191.167464 399.74588 
L 3201.84689 397.070381 
L 3212.526316 394.643643 
L 3223.205742 392.456923 
L 3236.555024 390.007895 
L 3273.933014 383.47283 
L 3284.61244 381.24193 
L 3292.62201 379.375765 
L 3300.631579 377.329787 
L 3308.641148 375.099562 
L 3316.650718 372.686919 
L 3327.330144 369.198725 
L 3338.009569 365.425714 
L 3348.688995 361.403829 
L 3362.038278 356.090851 
L 3378.057416 349.414212 
L 3404.755981 337.951371 
L 3428.784689 327.705622 
L 3447.473684 319.986735 
L 3463.492823 313.603214 
L 3479.511962 307.440509 
L 3498.200957 300.50019 
L 3519.559809 292.82014 
L 3548.92823 282.513163 
L 3596.985646 265.897907 
L 3623.684211 256.8706 
L 3645.043062 249.884787 
L 3663.732057 243.995364 
L 3685.090909 237.498275 
L 3735.818182 222.218182 
L 3735.818182 222.218182 
" clip-path="url(#p91aac22eb6)" style="fill: none; stroke: #444444; stroke-width: 6; stroke-linecap: square"/>
   </g>
   <g id="line2d_24">
    <path d="M 692.181818 1210.581818 
L 694.851675 1209.479779 
L 697.521531 1208.766793 
L 700.191388 1208.335658 
L 710.870813 1205.584131 
L 713.54067 1204.716073 
L 716.210526 1204.300553 
L 718.880383 1203.406386 
L 726.889952 1201.311636 
L 729.559809 1200.277346 
L 740.239234 1197.0178 
L 742.909091 1196.770424 
L 745.578947 1195.417994 
L 748.248804 1195.247574 
L 750.91866 1193.940755 
L 753.588517 1193.767721 
L 756.258373 1192.41102 
L 758.92823 1191.48272 
L 761.598086 1190.403181 
L 774.947368 1186.48979 
L 777.617225 1185.586096 
L 782.956938 1184.239621 
L 785.626794 1183.312811 
L 796.30622 1180.247207 
L 798.976077 1179.60219 
L 801.645933 1178.504152 
L 804.315789 1177.743654 
L 806.985646 1177.339241 
L 809.655502 1176.626218 
L 812.325359 1175.711632 
L 817.665072 1174.222377 
L 820.334928 1173.786822 
L 823.004785 1172.70183 
L 831.014354 1170.614419 
L 836.354067 1169.109779 
L 844.363636 1167.09644 
L 847.033493 1166.299138 
L 865.722488 1161.590032 
L 868.392344 1161.091122 
L 873.732057 1159.663246 
L 892.421053 1154.954242 
L 903.100478 1152.256829 
L 905.770335 1151.639354 
L 908.440191 1150.852666 
L 911.110048 1150.25898 
L 913.779904 1149.450742 
L 916.449761 1148.940735 
L 919.119617 1148.182771 
L 924.45933 1146.858276 
L 927.129187 1146.183717 
L 929.799043 1145.350379 
L 953.827751 1139.135524 
L 969.84689 1135.249612 
L 983.196172 1132.161186 
L 991.205742 1130.441353 
L 996.545455 1129.291274 
L 1007.22488 1127.034307 
L 1009.894737 1126.324563 
L 1012.564593 1125.903465 
L 1015.23445 1125.337911 
L 1017.904306 1124.579586 
L 1025.913876 1122.825184 
L 1028.583732 1122.4821 
L 1031.253589 1121.694049 
L 1039.263158 1120.070533 
L 1041.933014 1119.473603 
L 1047.272727 1118.12761 
L 1049.942584 1117.418713 
L 1052.61244 1116.972317 
L 1055.282297 1116.40299 
L 1057.952153 1115.542298 
L 1060.62201 1114.933636 
L 1063.291866 1114.205273 
L 1065.961722 1113.775633 
L 1073.971292 1111.848607 
L 1079.311005 1110.280364 
L 1081.980861 1109.765437 
L 1087.320574 1108.316515 
L 1095.330144 1106.558544 
L 1111.349282 1102.958425 
L 1127.368421 1099.80043 
L 1140.717703 1097.698979 
L 1148.727273 1096.68923 
L 1156.736842 1095.853196 
L 1164.746411 1095.264796 
L 1170.086124 1094.915434 
L 1186.105263 1094.257638 
L 1194.114833 1094.001986 
L 1196.784689 1093.781371 
L 1199.454545 1093.781232 
L 1202.124402 1093.387651 
L 1204.794258 1093.130006 
L 1218.143541 1090.867134 
L 1220.813397 1090.148952 
L 1223.483254 1089.782446 
L 1226.15311 1089.201379 
L 1228.822967 1088.456109 
L 1236.832536 1086.677014 
L 1258.191388 1080.908709 
L 1274.210526 1075.893386 
L 1290.229665 1070.489482 
L 1303.578947 1065.868105 
L 1308.91866 1064.031879 
L 1316.92823 1061.139387 
L 1332.947368 1055.468821 
L 1346.296651 1050.735001 
L 1364.985646 1044.212579 
L 1370.325359 1042.358091 
L 1405.033493 1029.994311 
L 1410.373206 1028.063583 
L 1455.760766 1011.364494 
L 1463.770335 1008.386904 
L 1466.440191 1007.43091 
L 1471.779904 1005.258426 
L 1479.789474 1002.332485 
L 1487.799043 999.242513 
L 1490.4689 998.376663 
L 1498.478469 995.34877 
L 1501.148325 994.507128 
L 1511.827751 990.324035 
L 1522.507177 986.501883 
L 1525.177033 985.55979 
L 1527.84689 984.426533 
L 1533.186603 982.499342 
L 1535.856459 981.745241 
L 1541.196172 979.78172 
L 1546.535885 977.60855 
L 1551.875598 975.68277 
L 1639.980861 943.173246 
L 1672.019139 931.741886 
L 1682.698565 928.200191 
L 1690.708134 925.531186 
L 1701.38756 922.227591 
L 1712.066986 918.971227 
L 1717.406699 917.481012 
L 1722.746411 915.990774 
L 1730.755981 913.865354 
L 1746.77512 909.90809 
L 1754.784689 908.156123 
L 1760.124402 907.134075 
L 1768.133971 905.618999 
L 1770.803828 904.922425 
L 1773.473684 904.583886 
L 1776.143541 903.83863 
L 1778.813397 903.515094 
L 1784.15311 902.656512 
L 1786.822967 901.96836 
L 1794.832536 901.103839 
L 1797.502392 900.601394 
L 1800.172249 899.838558 
L 1802.842105 899.858378 
L 1805.511962 899.457566 
L 1810.851675 898.188308 
L 1813.521531 897.940267 
L 1816.191388 897.467572 
L 1818.861244 896.854753 
L 1821.5311 896.720226 
L 1824.200957 895.942411 
L 1829.54067 895.043253 
L 1832.210526 894.757252 
L 1834.880383 893.998283 
L 1848.229665 891.016349 
L 1850.899522 890.269441 
L 1853.569378 889.293635 
L 1858.909091 887.941516 
L 1866.91866 885.427049 
L 1872.258373 883.509164 
L 1874.92823 882.26756 
L 1880.267943 880.39918 
L 1882.937799 879.648816 
L 1888.277512 876.986981 
L 1890.947368 876.123512 
L 1896.287081 873.943162 
L 1898.956938 872.592004 
L 1901.626794 871.698617 
L 1917.645933 864.568464 
L 1925.655502 860.904558 
L 1930.995215 858.380382 
L 1933.665072 857.293318 
L 1936.334928 855.760171 
L 1939.004785 854.785424 
L 1947.014354 850.976035 
L 1949.684211 849.823934 
L 1955.023923 847.215693 
L 1957.69378 845.962875 
L 1960.363636 844.424024 
L 1963.033493 843.306379 
L 1965.703349 842.051029 
L 1968.373206 841.140239 
L 1971.043062 839.771156 
L 1979.052632 836.230456 
L 1984.392344 833.522208 
L 1987.062201 832.724312 
L 1989.732057 831.546382 
L 1995.07177 828.909331 
L 1997.741627 827.893233 
L 2003.08134 825.518337 
L 2008.421053 823.648005 
L 2013.760766 821.609226 
L 2016.430622 821.109425 
L 2021.770335 819.200006 
L 2024.440191 818.01802 
L 2035.119617 814.578348 
L 2037.789474 813.903767 
L 2040.45933 813.621877 
L 2043.129187 812.418878 
L 2045.799043 811.670287 
L 2048.4689 811.349224 
L 2051.138756 810.441292 
L 2053.808612 809.691442 
L 2056.478469 809.502542 
L 2059.148325 808.540205 
L 2061.818182 808.472373 
L 2064.488038 807.641747 
L 2067.157895 807.079866 
L 2069.827751 806.661437 
L 2072.497608 806.698526 
L 2077.837321 805.863809 
L 2085.84689 805.158364 
L 2088.516746 804.744134 
L 2096.526316 804.182421 
L 2099.196172 804.182751 
L 2101.866029 803.720383 
L 2109.875598 803.365237 
L 2115.215311 803.167152 
L 2117.885167 802.85919 
L 2120.555024 802.741312 
L 2123.22488 802.458371 
L 2125.894737 801.888963 
L 2128.564593 802.066164 
L 2131.23445 801.161391 
L 2133.904306 800.717661 
L 2136.574163 800.501364 
L 2139.244019 799.989804 
L 2141.913876 799.243396 
L 2147.253589 798.128648 
L 2152.593301 796.685781 
L 2157.933014 795.229018 
L 2160.602871 794.494383 
L 2168.61244 791.747788 
L 2184.631579 785.989225 
L 2197.980861 780.600861 
L 2203.320574 778.276343 
L 2211.330144 774.88593 
L 2267.397129 749.852214 
L 2272.736842 747.46284 
L 2310.114833 731.52497 
L 2350.162679 715.321776 
L 2379.5311 703.883344 
L 2400.889952 695.769932 
L 2406.229665 693.737406 
L 2419.578947 688.734259 
L 2424.91866 686.730466 
L 2464.966507 672.00407 
L 2502.344498 658.681702 
L 2529.043062 649.340504 
L 2558.411483 638.939307 
L 2574.430622 633.11587 
L 2590.449761 627.006139 
L 2598.45933 623.853024 
L 2606.4689 620.571758 
L 2630.497608 610.409904 
L 2649.186603 602.109235 
L 2657.196172 598.412653 
L 2715.933014 570.990234 
L 2721.272727 568.504819 
L 2726.61244 566.064624 
L 2731.952153 563.584368 
L 2734.62201 562.311258 
L 2737.291866 561.213066 
L 2753.311005 553.963695 
L 2761.320574 550.570606 
L 2763.990431 549.32696 
L 2766.660287 548.266372 
L 2769.330144 547.034668 
L 2774.669856 544.908565 
L 2780.009569 542.613106 
L 2788.019139 539.397903 
L 2793.358852 537.185781 
L 2812.047847 529.9098 
L 2814.717703 528.975509 
L 2817.38756 527.910175 
L 2825.397129 525.07117 
L 2833.406699 522.137544 
L 2857.435407 513.899125 
L 2862.77512 512.240494 
L 2881.464115 506.397545 
L 2886.803828 504.909296 
L 2894.813397 502.61712 
L 2902.822967 500.653747 
L 2905.492823 499.849328 
L 2910.832536 498.503023 
L 2918.842105 496.638736 
L 2934.861244 493.329955 
L 2937.5311 492.903141 
L 2940.200957 492.342052 
L 2942.870813 491.97824 
L 2945.54067 491.400571 
L 2948.210526 490.945069 
L 2950.880383 490.627104 
L 2953.550239 490.106115 
L 2972.239234 487.658672 
L 2974.909091 487.547427 
L 2988.258373 486.07485 
L 2990.92823 485.627777 
L 2993.598086 485.569443 
L 2996.267943 484.898395 
L 2998.937799 484.616409 
L 3001.607656 484.114036 
L 3004.277512 483.935116 
L 3014.956938 482.059024 
L 3017.626794 481.524886 
L 3020.296651 480.85026 
L 3022.966507 480.445551 
L 3033.645933 477.979796 
L 3044.325359 475.378439 
L 3046.995215 474.612912 
L 3052.334928 473.225127 
L 3065.684211 469.300855 
L 3081.703349 464.139866 
L 3097.722488 458.664501 
L 3121.751196 450.181953 
L 3137.770335 444.578859 
L 3153.789474 439.187133 
L 3164.4689 435.743665 
L 3180.488038 430.924918 
L 3196.507177 426.684903 
L 3212.526316 422.959094 
L 3217.866029 421.814688 
L 3223.205742 420.779547 
L 3225.875598 420.449631 
L 3231.215311 419.389001 
L 3233.885167 419.096807 
L 3247.23445 416.873391 
L 3268.593301 413.808776 
L 3271.263158 413.197641 
L 3279.272727 411.914527 
L 3287.282297 410.172139 
L 3289.952153 409.748477 
L 3292.62201 409.171845 
L 3297.961722 407.732627 
L 3300.631579 407.188746 
L 3308.641148 404.976477 
L 3313.980861 403.424321 
L 3324.660287 400.155532 
L 3332.669856 397.449003 
L 3340.679426 394.460209 
L 3343.349282 393.679982 
L 3346.019139 392.712343 
L 3348.688995 391.444193 
L 3354.028708 389.755565 
L 3356.698565 388.558236 
L 3359.368421 387.676469 
L 3362.038278 386.477361 
L 3364.708134 385.523551 
L 3367.37799 384.228244 
L 3372.717703 381.965666 
L 3375.38756 380.936086 
L 3386.066986 376.400764 
L 3391.406699 374.236076 
L 3396.746411 371.944015 
L 3404.755981 368.700426 
L 3412.76555 365.231585 
L 3418.105263 362.961283 
L 3420.77512 362.009161 
L 3423.444976 360.741056 
L 3428.784689 358.49841 
L 3431.454545 357.459332 
L 3436.794258 355.171837 
L 3442.133971 353.041159 
L 3452.813397 348.971224 
L 3455.483254 347.792885 
L 3471.502392 341.705277 
L 3474.172249 340.534989 
L 3503.54067 329.656018 
L 3548.92823 313.561967 
L 3556.937799 310.79436 
L 3567.617225 307.085111 
L 3583.636364 301.47858 
L 3586.30622 300.686246 
L 3591.645933 298.786712 
L 3607.665072 293.397843 
L 3610.334928 292.544341 
L 3615.674641 290.634938 
L 3626.354067 287.193435 
L 3634.363636 284.399617 
L 3637.033493 283.772808 
L 3655.722488 278.104424 
L 3658.392344 277.032506 
L 3661.062201 276.513119 
L 3663.732057 275.722086 
L 3666.401914 274.659511 
L 3671.741627 273.142216 
L 3674.411483 272.524232 
L 3677.08134 271.620137 
L 3679.751196 270.994228 
L 3693.100478 267.257027 
L 3695.770335 266.713504 
L 3698.440191 265.878846 
L 3701.110048 265.289843 
L 3703.779904 264.543569 
L 3706.449761 264.198743 
L 3711.789474 262.644395 
L 3714.45933 262.197114 
L 3719.799043 260.882954 
L 3722.4689 259.828523 
L 3725.138756 259.221928 
L 3727.808612 258.970344 
L 3730.478469 258.328843 
L 3733.148325 257.466153 
L 3735.818182 256.902789 
L 3735.818182 256.902789 
" clip-path="url(#p91aac22eb6)" style="fill: none; stroke: #00aa00; stroke-width: 6; stroke-linecap: square"/>
   </g>
  </g>
 </g>
 <defs>
  <clipPath id="p91aac22eb6">
   <rect x="540" y="172.8" width="3348" height="1087.2"/>
  </clipPath>
 </defs>
</svg>
