<?xml version="1.0" encoding="utf-8" standalone="no"?>
<!DOCTYPE svg PUBLIC "-//W3C//DTD SVG 1.1//EN"
  "http://www.w3.org/Graphics/SVG/1.1/DTD/svg11.dtd">
<svg xmlns:xlink="http://www.w3.org/1999/xlink" width="4320pt" height="1440pt" viewBox="0 0 4320 1440" xmlns="http://www.w3.org/2000/svg" version="1.1">
 <metadata>
  <rdf:RDF xmlns:dc="http://purl.org/dc/elements/1.1/" xmlns:cc="http://creativecommons.org/ns#" xmlns:rdf="http://www.w3.org/1999/02/22-rdf-syntax-ns#">
   <cc:Work>
    <dc:type rdf:resource="http://purl.org/dc/dcmitype/StillImage"/>
    <dc:date>2021-11-07T01:36:25.151423</dc:date>
    <dc:format>image/svg+xml</dc:format>
    <dc:creator>
     <cc:Agent>
      <dc:title>Matplotlib v3.5.0rc1, https://matplotlib.org/</dc:title>
     </cc:Agent>
    </dc:creator>
   </cc:Work>
  </rdf:RDF>
 </metadata>
 <defs>
  <style type="text/css">*{stroke-linejoin: round; stroke-linecap: butt}</style>
 </defs>
 <g id="figure_1">
  <g id="patch_1">
   <path d="M 0 1440 
L 4320 1440 
L 4320 0 
L 0 0 
z
" style="fill: #ffffff"/>
  </g>
  <g id="axes_1">
   <g id="patch_2">
    <path d="M 540 1260 
L 3888 1260 
L 3888 172.8 
L 540 172.8 
z
" style="fill: #ffffff"/>
   </g>
   <g id="matplotlib.axis_1">
    <g id="xtick_1">
     <g id="line2d_1">
      <defs>
       <path id="m3c09872c83" d="M 0 0 
L 0 3.5 
" style="stroke: #000000; stroke-width: 0.8"/>
      </defs>
      <g>
       <use xlink:href="#m3c09872c83" x="692.181818" y="1260" style="stroke: #000000; stroke-width: 0.8"/>
      </g>
     </g>
     <g id="text_1">
      <!-- 0 -->
      <g transform="translate(684.228693 1285.996094)scale(0.25 -0.25)">
       <defs>
        <path id="DejaVuSans-30" d="M 2034 4250 
Q 1547 4250 1301 3770 
Q 1056 3291 1056 2328 
Q 1056 1369 1301 889 
Q 1547 409 2034 409 
Q 2525 409 2770 889 
Q 3016 1369 3016 2328 
Q 3016 3291 2770 3770 
Q 2525 4250 2034 4250 
z
M 2034 4750 
Q 2819 4750 3233 4129 
Q 3647 3509 3647 2328 
Q 3647 1150 3233 529 
Q 2819 -91 2034 -91 
Q 1250 -91 836 529 
Q 422 1150 422 2328 
Q 422 3509 836 4129 
Q 1250 4750 2034 4750 
z
" transform="scale(0.015625)"/>
       </defs>
       <use xlink:href="#DejaVuSans-30"/>
      </g>
     </g>
    </g>
    <g id="xtick_2">
     <g id="line2d_2">
      <g>
       <use xlink:href="#m3c09872c83" x="1128.649748" y="1260" style="stroke: #000000; stroke-width: 0.8"/>
      </g>
     </g>
     <g id="text_2">
      <!-- 150 -->
      <g transform="translate(1104.790373 1285.996094)scale(0.25 -0.25)">
       <defs>
        <path id="DejaVuSans-31" d="M 794 531 
L 1825 531 
L 1825 4091 
L 703 3866 
L 703 4441 
L 1819 4666 
L 2450 4666 
L 2450 531 
L 3481 531 
L 3481 0 
L 794 0 
L 794 531 
z
" transform="scale(0.015625)"/>
        <path id="DejaVuSans-35" d="M 691 4666 
L 3169 4666 
L 3169 4134 
L 1269 4134 
L 1269 2991 
Q 1406 3038 1543 3061 
Q 1681 3084 1819 3084 
Q 2600 3084 3056 2656 
Q 3513 2228 3513 1497 
Q 3513 744 3044 326 
Q 2575 -91 1722 -91 
Q 1428 -91 1123 -41 
Q 819 9 494 109 
L 494 744 
Q 775 591 1075 516 
Q 1375 441 1709 441 
Q 2250 441 2565 725 
Q 2881 1009 2881 1497 
Q 2881 1984 2565 2268 
Q 2250 2553 1709 2553 
Q 1456 2553 1204 2497 
Q 953 2441 691 2322 
L 691 4666 
z
" transform="scale(0.015625)"/>
       </defs>
       <use xlink:href="#DejaVuSans-31"/>
       <use xlink:href="#DejaVuSans-35" x="63.623047"/>
       <use xlink:href="#DejaVuSans-30" x="127.246094"/>
      </g>
     </g>
    </g>
    <g id="xtick_3">
     <g id="line2d_3">
      <g>
       <use xlink:href="#m3c09872c83" x="1565.117678" y="1260" style="stroke: #000000; stroke-width: 0.8"/>
      </g>
     </g>
     <g id="text_3">
      <!-- 300 -->
      <g transform="translate(1541.258303 1285.996094)scale(0.25 -0.25)">
       <defs>
        <path id="DejaVuSans-33" d="M 2597 2516 
Q 3050 2419 3304 2112 
Q 3559 1806 3559 1356 
Q 3559 666 3084 287 
Q 2609 -91 1734 -91 
Q 1441 -91 1130 -33 
Q 819 25 488 141 
L 488 750 
Q 750 597 1062 519 
Q 1375 441 1716 441 
Q 2309 441 2620 675 
Q 2931 909 2931 1356 
Q 2931 1769 2642 2001 
Q 2353 2234 1838 2234 
L 1294 2234 
L 1294 2753 
L 1863 2753 
Q 2328 2753 2575 2939 
Q 2822 3125 2822 3475 
Q 2822 3834 2567 4026 
Q 2313 4219 1838 4219 
Q 1578 4219 1281 4162 
Q 984 4106 628 3988 
L 628 4550 
Q 988 4650 1302 4700 
Q 1616 4750 1894 4750 
Q 2613 4750 3031 4423 
Q 3450 4097 3450 3541 
Q 3450 3153 3228 2886 
Q 3006 2619 2597 2516 
z
" transform="scale(0.015625)"/>
       </defs>
       <use xlink:href="#DejaVuSans-33"/>
       <use xlink:href="#DejaVuSans-30" x="63.623047"/>
       <use xlink:href="#DejaVuSans-30" x="127.246094"/>
      </g>
     </g>
    </g>
    <g id="xtick_4">
     <g id="line2d_4">
      <g>
       <use xlink:href="#m3c09872c83" x="2001.585608" y="1260" style="stroke: #000000; stroke-width: 0.8"/>
      </g>
     </g>
     <g id="text_4">
      <!-- 450 -->
      <g transform="translate(1977.726233 1285.996094)scale(0.25 -0.25)">
       <defs>
        <path id="DejaVuSans-34" d="M 2419 4116 
L 825 1625 
L 2419 1625 
L 2419 4116 
z
M 2253 4666 
L 3047 4666 
L 3047 1625 
L 3713 1625 
L 3713 1100 
L 3047 1100 
L 3047 0 
L 2419 0 
L 2419 1100 
L 313 1100 
L 313 1709 
L 2253 4666 
z
" transform="scale(0.015625)"/>
       </defs>
       <use xlink:href="#DejaVuSans-34"/>
       <use xlink:href="#DejaVuSans-35" x="63.623047"/>
       <use xlink:href="#DejaVuSans-30" x="127.246094"/>
      </g>
     </g>
    </g>
    <g id="xtick_5">
     <g id="line2d_5">
      <g>
       <use xlink:href="#m3c09872c83" x="2438.053537" y="1260" style="stroke: #000000; stroke-width: 0.8"/>
      </g>
     </g>
     <g id="text_5">
      <!-- 600 -->
      <g transform="translate(2414.194162 1285.996094)scale(0.25 -0.25)">
       <defs>
        <path id="DejaVuSans-36" d="M 2113 2584 
Q 1688 2584 1439 2293 
Q 1191 2003 1191 1497 
Q 1191 994 1439 701 
Q 1688 409 2113 409 
Q 2538 409 2786 701 
Q 3034 994 3034 1497 
Q 3034 2003 2786 2293 
Q 2538 2584 2113 2584 
z
M 3366 4563 
L 3366 3988 
Q 3128 4100 2886 4159 
Q 2644 4219 2406 4219 
Q 1781 4219 1451 3797 
Q 1122 3375 1075 2522 
Q 1259 2794 1537 2939 
Q 1816 3084 2150 3084 
Q 2853 3084 3261 2657 
Q 3669 2231 3669 1497 
Q 3669 778 3244 343 
Q 2819 -91 2113 -91 
Q 1303 -91 875 529 
Q 447 1150 447 2328 
Q 447 3434 972 4092 
Q 1497 4750 2381 4750 
Q 2619 4750 2861 4703 
Q 3103 4656 3366 4563 
z
" transform="scale(0.015625)"/>
       </defs>
       <use xlink:href="#DejaVuSans-36"/>
       <use xlink:href="#DejaVuSans-30" x="63.623047"/>
       <use xlink:href="#DejaVuSans-30" x="127.246094"/>
      </g>
     </g>
    </g>
    <g id="xtick_6">
     <g id="line2d_6">
      <g>
       <use xlink:href="#m3c09872c83" x="2874.521467" y="1260" style="stroke: #000000; stroke-width: 0.8"/>
      </g>
     </g>
     <g id="text_6">
      <!-- 750 -->
      <g transform="translate(2850.662092 1285.996094)scale(0.25 -0.25)">
       <defs>
        <path id="DejaVuSans-37" d="M 525 4666 
L 3525 4666 
L 3525 4397 
L 1831 0 
L 1172 0 
L 2766 4134 
L 525 4134 
L 525 4666 
z
" transform="scale(0.015625)"/>
       </defs>
       <use xlink:href="#DejaVuSans-37"/>
       <use xlink:href="#DejaVuSans-35" x="63.623047"/>
       <use xlink:href="#DejaVuSans-30" x="127.246094"/>
      </g>
     </g>
    </g>
    <g id="xtick_7">
     <g id="line2d_7">
      <g>
       <use xlink:href="#m3c09872c83" x="3310.989397" y="1260" style="stroke: #000000; stroke-width: 0.8"/>
      </g>
     </g>
     <g id="text_7">
      <!-- 900 -->
      <g transform="translate(3287.130022 1285.996094)scale(0.25 -0.25)">
       <defs>
        <path id="DejaVuSans-39" d="M 703 97 
L 703 672 
Q 941 559 1184 500 
Q 1428 441 1663 441 
Q 2288 441 2617 861 
Q 2947 1281 2994 2138 
Q 2813 1869 2534 1725 
Q 2256 1581 1919 1581 
Q 1219 1581 811 2004 
Q 403 2428 403 3163 
Q 403 3881 828 4315 
Q 1253 4750 1959 4750 
Q 2769 4750 3195 4129 
Q 3622 3509 3622 2328 
Q 3622 1225 3098 567 
Q 2575 -91 1691 -91 
Q 1453 -91 1209 -44 
Q 966 3 703 97 
z
M 1959 2075 
Q 2384 2075 2632 2365 
Q 2881 2656 2881 3163 
Q 2881 3666 2632 3958 
Q 2384 4250 1959 4250 
Q 1534 4250 1286 3958 
Q 1038 3666 1038 3163 
Q 1038 2656 1286 2365 
Q 1534 2075 1959 2075 
z
" transform="scale(0.015625)"/>
       </defs>
       <use xlink:href="#DejaVuSans-39"/>
       <use xlink:href="#DejaVuSans-30" x="63.623047"/>
       <use xlink:href="#DejaVuSans-30" x="127.246094"/>
      </g>
     </g>
    </g>
    <g id="xtick_8">
     <g id="line2d_8">
      <g>
       <use xlink:href="#m3c09872c83" x="3747.457327" y="1260" style="stroke: #000000; stroke-width: 0.8"/>
      </g>
     </g>
     <g id="text_8">
      <!-- 1050 -->
      <g transform="translate(3715.644827 1285.996094)scale(0.25 -0.25)">
       <use xlink:href="#DejaVuSans-31"/>
       <use xlink:href="#DejaVuSans-30" x="63.623047"/>
       <use xlink:href="#DejaVuSans-35" x="127.246094"/>
       <use xlink:href="#DejaVuSans-30" x="190.869141"/>
      </g>
     </g>
    </g>
    <g id="text_9">
     <!-- Point Index -->
     <g transform="translate(2116.817578 1321.789844)scale(0.35 -0.35)">
      <defs>
       <path id="DejaVuSans-50" d="M 1259 4147 
L 1259 2394 
L 2053 2394 
Q 2494 2394 2734 2622 
Q 2975 2850 2975 3272 
Q 2975 3691 2734 3919 
Q 2494 4147 2053 4147 
L 1259 4147 
z
M 628 4666 
L 2053 4666 
Q 2838 4666 3239 4311 
Q 3641 3956 3641 3272 
Q 3641 2581 3239 2228 
Q 2838 1875 2053 1875 
L 1259 1875 
L 1259 0 
L 628 0 
L 628 4666 
z
" transform="scale(0.015625)"/>
       <path id="DejaVuSans-6f" d="M 1959 3097 
Q 1497 3097 1228 2736 
Q 959 2375 959 1747 
Q 959 1119 1226 758 
Q 1494 397 1959 397 
Q 2419 397 2687 759 
Q 2956 1122 2956 1747 
Q 2956 2369 2687 2733 
Q 2419 3097 1959 3097 
z
M 1959 3584 
Q 2709 3584 3137 3096 
Q 3566 2609 3566 1747 
Q 3566 888 3137 398 
Q 2709 -91 1959 -91 
Q 1206 -91 779 398 
Q 353 888 353 1747 
Q 353 2609 779 3096 
Q 1206 3584 1959 3584 
z
" transform="scale(0.015625)"/>
       <path id="DejaVuSans-69" d="M 603 3500 
L 1178 3500 
L 1178 0 
L 603 0 
L 603 3500 
z
M 603 4863 
L 1178 4863 
L 1178 4134 
L 603 4134 
L 603 4863 
z
" transform="scale(0.015625)"/>
       <path id="DejaVuSans-6e" d="M 3513 2113 
L 3513 0 
L 2938 0 
L 2938 2094 
Q 2938 2591 2744 2837 
Q 2550 3084 2163 3084 
Q 1697 3084 1428 2787 
Q 1159 2491 1159 1978 
L 1159 0 
L 581 0 
L 581 3500 
L 1159 3500 
L 1159 2956 
Q 1366 3272 1645 3428 
Q 1925 3584 2291 3584 
Q 2894 3584 3203 3211 
Q 3513 2838 3513 2113 
z
" transform="scale(0.015625)"/>
       <path id="DejaVuSans-74" d="M 1172 4494 
L 1172 3500 
L 2356 3500 
L 2356 3053 
L 1172 3053 
L 1172 1153 
Q 1172 725 1289 603 
Q 1406 481 1766 481 
L 2356 481 
L 2356 0 
L 1766 0 
Q 1100 0 847 248 
Q 594 497 594 1153 
L 594 3053 
L 172 3053 
L 172 3500 
L 594 3500 
L 594 4494 
L 1172 4494 
z
" transform="scale(0.015625)"/>
       <path id="DejaVuSans-20" transform="scale(0.015625)"/>
       <path id="DejaVuSans-49" d="M 628 4666 
L 1259 4666 
L 1259 0 
L 628 0 
L 628 4666 
z
" transform="scale(0.015625)"/>
       <path id="DejaVuSans-64" d="M 2906 2969 
L 2906 4863 
L 3481 4863 
L 3481 0 
L 2906 0 
L 2906 525 
Q 2725 213 2448 61 
Q 2172 -91 1784 -91 
Q 1150 -91 751 415 
Q 353 922 353 1747 
Q 353 2572 751 3078 
Q 1150 3584 1784 3584 
Q 2172 3584 2448 3432 
Q 2725 3281 2906 2969 
z
M 947 1747 
Q 947 1113 1208 752 
Q 1469 391 1925 391 
Q 2381 391 2643 752 
Q 2906 1113 2906 1747 
Q 2906 2381 2643 2742 
Q 2381 3103 1925 3103 
Q 1469 3103 1208 2742 
Q 947 2381 947 1747 
z
" transform="scale(0.015625)"/>
       <path id="DejaVuSans-65" d="M 3597 1894 
L 3597 1613 
L 953 1613 
Q 991 1019 1311 708 
Q 1631 397 2203 397 
Q 2534 397 2845 478 
Q 3156 559 3463 722 
L 3463 178 
Q 3153 47 2828 -22 
Q 2503 -91 2169 -91 
Q 1331 -91 842 396 
Q 353 884 353 1716 
Q 353 2575 817 3079 
Q 1281 3584 2069 3584 
Q 2775 3584 3186 3129 
Q 3597 2675 3597 1894 
z
M 3022 2063 
Q 3016 2534 2758 2815 
Q 2500 3097 2075 3097 
Q 1594 3097 1305 2825 
Q 1016 2553 972 2059 
L 3022 2063 
z
" transform="scale(0.015625)"/>
       <path id="DejaVuSans-78" d="M 3513 3500 
L 2247 1797 
L 3578 0 
L 2900 0 
L 1881 1375 
L 863 0 
L 184 0 
L 1544 1831 
L 300 3500 
L 978 3500 
L 1906 2253 
L 2834 3500 
L 3513 3500 
z
" transform="scale(0.015625)"/>
      </defs>
      <use xlink:href="#DejaVuSans-50"/>
      <use xlink:href="#DejaVuSans-6f" x="56.677734"/>
      <use xlink:href="#DejaVuSans-69" x="117.859375"/>
      <use xlink:href="#DejaVuSans-6e" x="145.642578"/>
      <use xlink:href="#DejaVuSans-74" x="209.021484"/>
      <use xlink:href="#DejaVuSans-20" x="248.230469"/>
      <use xlink:href="#DejaVuSans-49" x="280.017578"/>
      <use xlink:href="#DejaVuSans-6e" x="309.509766"/>
      <use xlink:href="#DejaVuSans-64" x="372.888672"/>
      <use xlink:href="#DejaVuSans-65" x="436.365234"/>
      <use xlink:href="#DejaVuSans-78" x="496.138672"/>
     </g>
    </g>
   </g>
   <g id="matplotlib.axis_2">
    <g id="ytick_1">
     <g id="line2d_9">
      <defs>
       <path id="mc5f386db39" d="M 0 0 
L -3.5 0 
" style="stroke: #000000; stroke-width: 0.8"/>
      </defs>
      <g>
       <use xlink:href="#mc5f386db39" x="540" y="1210.581818" style="stroke: #000000; stroke-width: 0.8"/>
      </g>
     </g>
     <g id="text_10">
      <!-- 0 -->
      <g transform="translate(517.09375 1220.079865)scale(0.25 -0.25)">
       <use xlink:href="#DejaVuSans-30"/>
      </g>
     </g>
    </g>
    <g id="ytick_2">
     <g id="line2d_10">
      <g>
       <use xlink:href="#mc5f386db39" x="540" y="1073.948847" style="stroke: #000000; stroke-width: 0.8"/>
      </g>
     </g>
     <g id="text_11">
      <!-- 100 -->
      <g transform="translate(485.28125 1083.446894)scale(0.25 -0.25)">
       <use xlink:href="#DejaVuSans-31"/>
       <use xlink:href="#DejaVuSans-30" x="63.623047"/>
       <use xlink:href="#DejaVuSans-30" x="127.246094"/>
      </g>
     </g>
    </g>
    <g id="ytick_3">
     <g id="line2d_11">
      <g>
       <use xlink:href="#mc5f386db39" x="540" y="937.315876" style="stroke: #000000; stroke-width: 0.8"/>
      </g>
     </g>
     <g id="text_12">
      <!-- 200 -->
      <g transform="translate(485.28125 946.813923)scale(0.25 -0.25)">
       <defs>
        <path id="DejaVuSans-32" d="M 1228 531 
L 3431 531 
L 3431 0 
L 469 0 
L 469 531 
Q 828 903 1448 1529 
Q 2069 2156 2228 2338 
Q 2531 2678 2651 2914 
Q 2772 3150 2772 3378 
Q 2772 3750 2511 3984 
Q 2250 4219 1831 4219 
Q 1534 4219 1204 4116 
Q 875 4013 500 3803 
L 500 4441 
Q 881 4594 1212 4672 
Q 1544 4750 1819 4750 
Q 2544 4750 2975 4387 
Q 3406 4025 3406 3419 
Q 3406 3131 3298 2873 
Q 3191 2616 2906 2266 
Q 2828 2175 2409 1742 
Q 1991 1309 1228 531 
z
" transform="scale(0.015625)"/>
       </defs>
       <use xlink:href="#DejaVuSans-32"/>
       <use xlink:href="#DejaVuSans-30" x="63.623047"/>
       <use xlink:href="#DejaVuSans-30" x="127.246094"/>
      </g>
     </g>
    </g>
    <g id="ytick_4">
     <g id="line2d_12">
      <g>
       <use xlink:href="#mc5f386db39" x="540" y="800.682905" style="stroke: #000000; stroke-width: 0.8"/>
      </g>
     </g>
     <g id="text_13">
      <!-- 300 -->
      <g transform="translate(485.28125 810.180952)scale(0.25 -0.25)">
       <use xlink:href="#DejaVuSans-33"/>
       <use xlink:href="#DejaVuSans-30" x="63.623047"/>
       <use xlink:href="#DejaVuSans-30" x="127.246094"/>
      </g>
     </g>
    </g>
    <g id="ytick_5">
     <g id="line2d_13">
      <g>
       <use xlink:href="#mc5f386db39" x="540" y="664.049934" style="stroke: #000000; stroke-width: 0.8"/>
      </g>
     </g>
     <g id="text_14">
      <!-- 400 -->
      <g transform="translate(485.28125 673.54798)scale(0.25 -0.25)">
       <use xlink:href="#DejaVuSans-34"/>
       <use xlink:href="#DejaVuSans-30" x="63.623047"/>
       <use xlink:href="#DejaVuSans-30" x="127.246094"/>
      </g>
     </g>
    </g>
    <g id="ytick_6">
     <g id="line2d_14">
      <g>
       <use xlink:href="#mc5f386db39" x="540" y="527.416962" style="stroke: #000000; stroke-width: 0.8"/>
      </g>
     </g>
     <g id="text_15">
      <!-- 500 -->
      <g transform="translate(485.28125 536.915009)scale(0.25 -0.25)">
       <use xlink:href="#DejaVuSans-35"/>
       <use xlink:href="#DejaVuSans-30" x="63.623047"/>
       <use xlink:href="#DejaVuSans-30" x="127.246094"/>
      </g>
     </g>
    </g>
    <g id="ytick_7">
     <g id="line2d_15">
      <g>
       <use xlink:href="#mc5f386db39" x="540" y="390.783991" style="stroke: #000000; stroke-width: 0.8"/>
      </g>
     </g>
     <g id="text_16">
      <!-- 600 -->
      <g transform="translate(485.28125 400.282038)scale(0.25 -0.25)">
       <use xlink:href="#DejaVuSans-36"/>
       <use xlink:href="#DejaVuSans-30" x="63.623047"/>
       <use xlink:href="#DejaVuSans-30" x="127.246094"/>
      </g>
     </g>
    </g>
    <g id="ytick_8">
     <g id="line2d_16">
      <g>
       <use xlink:href="#mc5f386db39" x="540" y="254.15102" style="stroke: #000000; stroke-width: 0.8"/>
      </g>
     </g>
     <g id="text_17">
      <!-- 700 -->
      <g transform="translate(485.28125 263.649067)scale(0.25 -0.25)">
       <use xlink:href="#DejaVuSans-37"/>
       <use xlink:href="#DejaVuSans-30" x="63.623047"/>
       <use xlink:href="#DejaVuSans-30" x="127.246094"/>
      </g>
     </g>
    </g>
    <g id="text_18">
     <!-- Arc-Length -->
     <g transform="translate(474.002344 811.471484)rotate(-90)scale(0.35 -0.35)">
      <defs>
       <path id="DejaVuSans-41" d="M 2188 4044 
L 1331 1722 
L 3047 1722 
L 2188 4044 
z
M 1831 4666 
L 2547 4666 
L 4325 0 
L 3669 0 
L 3244 1197 
L 1141 1197 
L 716 0 
L 50 0 
L 1831 4666 
z
" transform="scale(0.015625)"/>
       <path id="DejaVuSans-72" d="M 2631 2963 
Q 2534 3019 2420 3045 
Q 2306 3072 2169 3072 
Q 1681 3072 1420 2755 
Q 1159 2438 1159 1844 
L 1159 0 
L 581 0 
L 581 3500 
L 1159 3500 
L 1159 2956 
Q 1341 3275 1631 3429 
Q 1922 3584 2338 3584 
Q 2397 3584 2469 3576 
Q 2541 3569 2628 3553 
L 2631 2963 
z
" transform="scale(0.015625)"/>
       <path id="DejaVuSans-63" d="M 3122 3366 
L 3122 2828 
Q 2878 2963 2633 3030 
Q 2388 3097 2138 3097 
Q 1578 3097 1268 2742 
Q 959 2388 959 1747 
Q 959 1106 1268 751 
Q 1578 397 2138 397 
Q 2388 397 2633 464 
Q 2878 531 3122 666 
L 3122 134 
Q 2881 22 2623 -34 
Q 2366 -91 2075 -91 
Q 1284 -91 818 406 
Q 353 903 353 1747 
Q 353 2603 823 3093 
Q 1294 3584 2113 3584 
Q 2378 3584 2631 3529 
Q 2884 3475 3122 3366 
z
" transform="scale(0.015625)"/>
       <path id="DejaVuSans-2d" d="M 313 2009 
L 1997 2009 
L 1997 1497 
L 313 1497 
L 313 2009 
z
" transform="scale(0.015625)"/>
       <path id="DejaVuSans-4c" d="M 628 4666 
L 1259 4666 
L 1259 531 
L 3531 531 
L 3531 0 
L 628 0 
L 628 4666 
z
" transform="scale(0.015625)"/>
       <path id="DejaVuSans-67" d="M 2906 1791 
Q 2906 2416 2648 2759 
Q 2391 3103 1925 3103 
Q 1463 3103 1205 2759 
Q 947 2416 947 1791 
Q 947 1169 1205 825 
Q 1463 481 1925 481 
Q 2391 481 2648 825 
Q 2906 1169 2906 1791 
z
M 3481 434 
Q 3481 -459 3084 -895 
Q 2688 -1331 1869 -1331 
Q 1566 -1331 1297 -1286 
Q 1028 -1241 775 -1147 
L 775 -588 
Q 1028 -725 1275 -790 
Q 1522 -856 1778 -856 
Q 2344 -856 2625 -561 
Q 2906 -266 2906 331 
L 2906 616 
Q 2728 306 2450 153 
Q 2172 0 1784 0 
Q 1141 0 747 490 
Q 353 981 353 1791 
Q 353 2603 747 3093 
Q 1141 3584 1784 3584 
Q 2172 3584 2450 3431 
Q 2728 3278 2906 2969 
L 2906 3500 
L 3481 3500 
L 3481 434 
z
" transform="scale(0.015625)"/>
       <path id="DejaVuSans-68" d="M 3513 2113 
L 3513 0 
L 2938 0 
L 2938 2094 
Q 2938 2591 2744 2837 
Q 2550 3084 2163 3084 
Q 1697 3084 1428 2787 
Q 1159 2491 1159 1978 
L 1159 0 
L 581 0 
L 581 4863 
L 1159 4863 
L 1159 2956 
Q 1366 3272 1645 3428 
Q 1925 3584 2291 3584 
Q 2894 3584 3203 3211 
Q 3513 2838 3513 2113 
z
" transform="scale(0.015625)"/>
      </defs>
      <use xlink:href="#DejaVuSans-41"/>
      <use xlink:href="#DejaVuSans-72" x="68.408203"/>
      <use xlink:href="#DejaVuSans-63" x="107.271484"/>
      <use xlink:href="#DejaVuSans-2d" x="162.251953"/>
      <use xlink:href="#DejaVuSans-4c" x="198.335938"/>
      <use xlink:href="#DejaVuSans-65" x="252.298828"/>
      <use xlink:href="#DejaVuSans-6e" x="313.822266"/>
      <use xlink:href="#DejaVuSans-67" x="377.201172"/>
      <use xlink:href="#DejaVuSans-74" x="440.677734"/>
      <use xlink:href="#DejaVuSans-68" x="479.886719"/>
     </g>
    </g>
   </g>
   <g id="patch_3">
    <path d="M 540 1260 
L 540 172.8 
" style="fill: none; stroke: #000000; stroke-width: 0.8; stroke-linejoin: miter; stroke-linecap: square"/>
   </g>
   <g id="patch_4">
    <path d="M 3888 1260 
L 3888 172.8 
" style="fill: none; stroke: #000000; stroke-width: 0.8; stroke-linejoin: miter; stroke-linecap: square"/>
   </g>
   <g id="patch_5">
    <path d="M 540 1260 
L 3888 1260 
" style="fill: none; stroke: #000000; stroke-width: 0.8; stroke-linejoin: miter; stroke-linecap: square"/>
   </g>
   <g id="patch_6">
    <path d="M 540 172.8 
L 3888 172.8 
" style="fill: none; stroke: #000000; stroke-width: 0.8; stroke-linejoin: miter; stroke-linecap: square"/>
   </g>
   <g id="text_19">
    <!-- Predicted Arc-Length vs. Ground Truth Arc-Length (at Anchors) -->
    <g transform="translate(1667.007422 165.521094)scale(0.35 -0.35)">
     <defs>
      <path id="DejaVuSans-76" d="M 191 3500 
L 800 3500 
L 1894 563 
L 2988 3500 
L 3597 3500 
L 2284 0 
L 1503 0 
L 191 3500 
z
" transform="scale(0.015625)"/>
      <path id="DejaVuSans-73" d="M 2834 3397 
L 2834 2853 
Q 2591 2978 2328 3040 
Q 2066 3103 1784 3103 
Q 1356 3103 1142 2972 
Q 928 2841 928 2578 
Q 928 2378 1081 2264 
Q 1234 2150 1697 2047 
L 1894 2003 
Q 2506 1872 2764 1633 
Q 3022 1394 3022 966 
Q 3022 478 2636 193 
Q 2250 -91 1575 -91 
Q 1294 -91 989 -36 
Q 684 19 347 128 
L 347 722 
Q 666 556 975 473 
Q 1284 391 1588 391 
Q 1994 391 2212 530 
Q 2431 669 2431 922 
Q 2431 1156 2273 1281 
Q 2116 1406 1581 1522 
L 1381 1569 
Q 847 1681 609 1914 
Q 372 2147 372 2553 
Q 372 3047 722 3315 
Q 1072 3584 1716 3584 
Q 2034 3584 2315 3537 
Q 2597 3491 2834 3397 
z
" transform="scale(0.015625)"/>
      <path id="DejaVuSans-2e" d="M 684 794 
L 1344 794 
L 1344 0 
L 684 0 
L 684 794 
z
" transform="scale(0.015625)"/>
      <path id="DejaVuSans-47" d="M 3809 666 
L 3809 1919 
L 2778 1919 
L 2778 2438 
L 4434 2438 
L 4434 434 
Q 4069 175 3628 42 
Q 3188 -91 2688 -91 
Q 1594 -91 976 548 
Q 359 1188 359 2328 
Q 359 3472 976 4111 
Q 1594 4750 2688 4750 
Q 3144 4750 3555 4637 
Q 3966 4525 4313 4306 
L 4313 3634 
Q 3963 3931 3569 4081 
Q 3175 4231 2741 4231 
Q 1884 4231 1454 3753 
Q 1025 3275 1025 2328 
Q 1025 1384 1454 906 
Q 1884 428 2741 428 
Q 3075 428 3337 486 
Q 3600 544 3809 666 
z
" transform="scale(0.015625)"/>
      <path id="DejaVuSans-75" d="M 544 1381 
L 544 3500 
L 1119 3500 
L 1119 1403 
Q 1119 906 1312 657 
Q 1506 409 1894 409 
Q 2359 409 2629 706 
Q 2900 1003 2900 1516 
L 2900 3500 
L 3475 3500 
L 3475 0 
L 2900 0 
L 2900 538 
Q 2691 219 2414 64 
Q 2138 -91 1772 -91 
Q 1169 -91 856 284 
Q 544 659 544 1381 
z
M 1991 3584 
L 1991 3584 
z
" transform="scale(0.015625)"/>
      <path id="DejaVuSans-54" d="M -19 4666 
L 3928 4666 
L 3928 4134 
L 2272 4134 
L 2272 0 
L 1638 0 
L 1638 4134 
L -19 4134 
L -19 4666 
z
" transform="scale(0.015625)"/>
      <path id="DejaVuSans-28" d="M 1984 4856 
Q 1566 4138 1362 3434 
Q 1159 2731 1159 2009 
Q 1159 1288 1364 580 
Q 1569 -128 1984 -844 
L 1484 -844 
Q 1016 -109 783 600 
Q 550 1309 550 2009 
Q 550 2706 781 3412 
Q 1013 4119 1484 4856 
L 1984 4856 
z
" transform="scale(0.015625)"/>
      <path id="DejaVuSans-61" d="M 2194 1759 
Q 1497 1759 1228 1600 
Q 959 1441 959 1056 
Q 959 750 1161 570 
Q 1363 391 1709 391 
Q 2188 391 2477 730 
Q 2766 1069 2766 1631 
L 2766 1759 
L 2194 1759 
z
M 3341 1997 
L 3341 0 
L 2766 0 
L 2766 531 
Q 2569 213 2275 61 
Q 1981 -91 1556 -91 
Q 1019 -91 701 211 
Q 384 513 384 1019 
Q 384 1609 779 1909 
Q 1175 2209 1959 2209 
L 2766 2209 
L 2766 2266 
Q 2766 2663 2505 2880 
Q 2244 3097 1772 3097 
Q 1472 3097 1187 3025 
Q 903 2953 641 2809 
L 641 3341 
Q 956 3463 1253 3523 
Q 1550 3584 1831 3584 
Q 2591 3584 2966 3190 
Q 3341 2797 3341 1997 
z
" transform="scale(0.015625)"/>
      <path id="DejaVuSans-29" d="M 513 4856 
L 1013 4856 
Q 1481 4119 1714 3412 
Q 1947 2706 1947 2009 
Q 1947 1309 1714 600 
Q 1481 -109 1013 -844 
L 513 -844 
Q 928 -128 1133 580 
Q 1338 1288 1338 2009 
Q 1338 2731 1133 3434 
Q 928 4138 513 4856 
z
" transform="scale(0.015625)"/>
     </defs>
     <use xlink:href="#DejaVuSans-50"/>
     <use xlink:href="#DejaVuSans-72" x="58.552734"/>
     <use xlink:href="#DejaVuSans-65" x="97.416016"/>
     <use xlink:href="#DejaVuSans-64" x="158.939453"/>
     <use xlink:href="#DejaVuSans-69" x="222.416016"/>
     <use xlink:href="#DejaVuSans-63" x="250.199219"/>
     <use xlink:href="#DejaVuSans-74" x="305.179688"/>
     <use xlink:href="#DejaVuSans-65" x="344.388672"/>
     <use xlink:href="#DejaVuSans-64" x="405.912109"/>
     <use xlink:href="#DejaVuSans-20" x="469.388672"/>
     <use xlink:href="#DejaVuSans-41" x="501.175781"/>
     <use xlink:href="#DejaVuSans-72" x="569.583984"/>
     <use xlink:href="#DejaVuSans-63" x="608.447266"/>
     <use xlink:href="#DejaVuSans-2d" x="663.427734"/>
     <use xlink:href="#DejaVuSans-4c" x="699.511719"/>
     <use xlink:href="#DejaVuSans-65" x="753.474609"/>
     <use xlink:href="#DejaVuSans-6e" x="814.998047"/>
     <use xlink:href="#DejaVuSans-67" x="878.376953"/>
     <use xlink:href="#DejaVuSans-74" x="941.853516"/>
     <use xlink:href="#DejaVuSans-68" x="981.0625"/>
     <use xlink:href="#DejaVuSans-20" x="1044.441406"/>
     <use xlink:href="#DejaVuSans-76" x="1076.228516"/>
     <use xlink:href="#DejaVuSans-73" x="1135.408203"/>
     <use xlink:href="#DejaVuSans-2e" x="1187.507812"/>
     <use xlink:href="#DejaVuSans-20" x="1219.294922"/>
     <use xlink:href="#DejaVuSans-47" x="1251.082031"/>
     <use xlink:href="#DejaVuSans-72" x="1328.572266"/>
     <use xlink:href="#DejaVuSans-6f" x="1367.435547"/>
     <use xlink:href="#DejaVuSans-75" x="1428.617188"/>
     <use xlink:href="#DejaVuSans-6e" x="1491.996094"/>
     <use xlink:href="#DejaVuSans-64" x="1555.375"/>
     <use xlink:href="#DejaVuSans-20" x="1618.851562"/>
     <use xlink:href="#DejaVuSans-54" x="1650.638672"/>
     <use xlink:href="#DejaVuSans-72" x="1696.972656"/>
     <use xlink:href="#DejaVuSans-75" x="1738.085938"/>
     <use xlink:href="#DejaVuSans-74" x="1801.464844"/>
     <use xlink:href="#DejaVuSans-68" x="1840.673828"/>
     <use xlink:href="#DejaVuSans-20" x="1904.052734"/>
     <use xlink:href="#DejaVuSans-41" x="1935.839844"/>
     <use xlink:href="#DejaVuSans-72" x="2004.248047"/>
     <use xlink:href="#DejaVuSans-63" x="2043.111328"/>
     <use xlink:href="#DejaVuSans-2d" x="2098.091797"/>
     <use xlink:href="#DejaVuSans-4c" x="2134.175781"/>
     <use xlink:href="#DejaVuSans-65" x="2188.138672"/>
     <use xlink:href="#DejaVuSans-6e" x="2249.662109"/>
     <use xlink:href="#DejaVuSans-67" x="2313.041016"/>
     <use xlink:href="#DejaVuSans-74" x="2376.517578"/>
     <use xlink:href="#DejaVuSans-68" x="2415.726562"/>
     <use xlink:href="#DejaVuSans-20" x="2479.105469"/>
     <use xlink:href="#DejaVuSans-28" x="2510.892578"/>
     <use xlink:href="#DejaVuSans-61" x="2549.90625"/>
     <use xlink:href="#DejaVuSans-74" x="2611.185547"/>
     <use xlink:href="#DejaVuSans-20" x="2650.394531"/>
     <use xlink:href="#DejaVuSans-41" x="2682.181641"/>
     <use xlink:href="#DejaVuSans-6e" x="2750.589844"/>
     <use xlink:href="#DejaVuSans-63" x="2813.96875"/>
     <use xlink:href="#DejaVuSans-68" x="2868.949219"/>
     <use xlink:href="#DejaVuSans-6f" x="2932.328125"/>
     <use xlink:href="#DejaVuSans-72" x="2993.509766"/>
     <use xlink:href="#DejaVuSans-73" x="3034.623047"/>
     <use xlink:href="#DejaVuSans-29" x="3086.722656"/>
    </g>
   </g>
   <g id="legend_1">
    <g id="patch_7">
     <path d="M 557.5 339.58125 
L 1208.160156 339.58125 
Q 1213.160156 339.58125 1213.160156 334.58125 
L 1213.160156 190.3 
Q 1213.160156 185.3 1208.160156 185.3 
L 557.5 185.3 
Q 552.5 185.3 552.5 190.3 
L 552.5 334.58125 
Q 552.5 339.58125 557.5 339.58125 
z
" style="fill: #ffffff; opacity: 0.8; stroke: #cccccc; stroke-linejoin: miter"/>
    </g>
    <g id="line2d_17">
     <path d="M 562.5 205.546094 
L 587.5 205.546094 
L 612.5 205.546094 
" style="fill: none; stroke: #ff8c00; stroke-width: 6; stroke-linecap: square"/>
    </g>
    <g id="text_20">
     <!-- True Arc-Length (Transformed Curve #1) -->
     <g transform="translate(632.5 214.296094)scale(0.25 -0.25)">
      <defs>
       <path id="DejaVuSans-66" d="M 2375 4863 
L 2375 4384 
L 1825 4384 
Q 1516 4384 1395 4259 
Q 1275 4134 1275 3809 
L 1275 3500 
L 2222 3500 
L 2222 3053 
L 1275 3053 
L 1275 0 
L 697 0 
L 697 3053 
L 147 3053 
L 147 3500 
L 697 3500 
L 697 3744 
Q 697 4328 969 4595 
Q 1241 4863 1831 4863 
L 2375 4863 
z
" transform="scale(0.015625)"/>
       <path id="DejaVuSans-6d" d="M 3328 2828 
Q 3544 3216 3844 3400 
Q 4144 3584 4550 3584 
Q 5097 3584 5394 3201 
Q 5691 2819 5691 2113 
L 5691 0 
L 5113 0 
L 5113 2094 
Q 5113 2597 4934 2840 
Q 4756 3084 4391 3084 
Q 3944 3084 3684 2787 
Q 3425 2491 3425 1978 
L 3425 0 
L 2847 0 
L 2847 2094 
Q 2847 2600 2669 2842 
Q 2491 3084 2119 3084 
Q 1678 3084 1418 2786 
Q 1159 2488 1159 1978 
L 1159 0 
L 581 0 
L 581 3500 
L 1159 3500 
L 1159 2956 
Q 1356 3278 1631 3431 
Q 1906 3584 2284 3584 
Q 2666 3584 2933 3390 
Q 3200 3197 3328 2828 
z
" transform="scale(0.015625)"/>
       <path id="DejaVuSans-43" d="M 4122 4306 
L 4122 3641 
Q 3803 3938 3442 4084 
Q 3081 4231 2675 4231 
Q 1875 4231 1450 3742 
Q 1025 3253 1025 2328 
Q 1025 1406 1450 917 
Q 1875 428 2675 428 
Q 3081 428 3442 575 
Q 3803 722 4122 1019 
L 4122 359 
Q 3791 134 3420 21 
Q 3050 -91 2638 -91 
Q 1578 -91 968 557 
Q 359 1206 359 2328 
Q 359 3453 968 4101 
Q 1578 4750 2638 4750 
Q 3056 4750 3426 4639 
Q 3797 4528 4122 4306 
z
" transform="scale(0.015625)"/>
       <path id="DejaVuSans-23" d="M 3272 2816 
L 2363 2816 
L 2100 1772 
L 3016 1772 
L 3272 2816 
z
M 2803 4594 
L 2478 3297 
L 3391 3297 
L 3719 4594 
L 4219 4594 
L 3897 3297 
L 4872 3297 
L 4872 2816 
L 3775 2816 
L 3519 1772 
L 4513 1772 
L 4513 1294 
L 3397 1294 
L 3072 0 
L 2572 0 
L 2894 1294 
L 1978 1294 
L 1656 0 
L 1153 0 
L 1478 1294 
L 494 1294 
L 494 1772 
L 1594 1772 
L 1856 2816 
L 850 2816 
L 850 3297 
L 1978 3297 
L 2297 4594 
L 2803 4594 
z
" transform="scale(0.015625)"/>
      </defs>
      <use xlink:href="#DejaVuSans-54"/>
      <use xlink:href="#DejaVuSans-72" x="46.333984"/>
      <use xlink:href="#DejaVuSans-75" x="87.447266"/>
      <use xlink:href="#DejaVuSans-65" x="150.826172"/>
      <use xlink:href="#DejaVuSans-20" x="212.349609"/>
      <use xlink:href="#DejaVuSans-41" x="244.136719"/>
      <use xlink:href="#DejaVuSans-72" x="312.544922"/>
      <use xlink:href="#DejaVuSans-63" x="351.408203"/>
      <use xlink:href="#DejaVuSans-2d" x="406.388672"/>
      <use xlink:href="#DejaVuSans-4c" x="442.472656"/>
      <use xlink:href="#DejaVuSans-65" x="496.435547"/>
      <use xlink:href="#DejaVuSans-6e" x="557.958984"/>
      <use xlink:href="#DejaVuSans-67" x="621.337891"/>
      <use xlink:href="#DejaVuSans-74" x="684.814453"/>
      <use xlink:href="#DejaVuSans-68" x="724.023438"/>
      <use xlink:href="#DejaVuSans-20" x="787.402344"/>
      <use xlink:href="#DejaVuSans-28" x="819.189453"/>
      <use xlink:href="#DejaVuSans-54" x="858.203125"/>
      <use xlink:href="#DejaVuSans-72" x="904.537109"/>
      <use xlink:href="#DejaVuSans-61" x="945.650391"/>
      <use xlink:href="#DejaVuSans-6e" x="1006.929688"/>
      <use xlink:href="#DejaVuSans-73" x="1070.308594"/>
      <use xlink:href="#DejaVuSans-66" x="1122.408203"/>
      <use xlink:href="#DejaVuSans-6f" x="1157.613281"/>
      <use xlink:href="#DejaVuSans-72" x="1218.794922"/>
      <use xlink:href="#DejaVuSans-6d" x="1258.158203"/>
      <use xlink:href="#DejaVuSans-65" x="1355.570312"/>
      <use xlink:href="#DejaVuSans-64" x="1417.09375"/>
      <use xlink:href="#DejaVuSans-20" x="1480.570312"/>
      <use xlink:href="#DejaVuSans-43" x="1512.357422"/>
      <use xlink:href="#DejaVuSans-75" x="1582.181641"/>
      <use xlink:href="#DejaVuSans-72" x="1645.560547"/>
      <use xlink:href="#DejaVuSans-76" x="1686.673828"/>
      <use xlink:href="#DejaVuSans-65" x="1745.853516"/>
      <use xlink:href="#DejaVuSans-20" x="1807.376953"/>
      <use xlink:href="#DejaVuSans-23" x="1839.164062"/>
      <use xlink:href="#DejaVuSans-31" x="1922.953125"/>
      <use xlink:href="#DejaVuSans-29" x="1986.576172"/>
     </g>
    </g>
    <g id="line2d_18">
     <path d="M 562.5 242.241406 
L 587.5 242.241406 
L 612.5 242.241406 
" style="fill: none; stroke: #aa0000; stroke-width: 6; stroke-linecap: square"/>
    </g>
    <g id="text_21">
     <!-- Predicted Arc-Length (Transformed Curve #1) -->
     <g transform="translate(632.5 250.991406)scale(0.25 -0.25)">
      <use xlink:href="#DejaVuSans-50"/>
      <use xlink:href="#DejaVuSans-72" x="58.552734"/>
      <use xlink:href="#DejaVuSans-65" x="97.416016"/>
      <use xlink:href="#DejaVuSans-64" x="158.939453"/>
      <use xlink:href="#DejaVuSans-69" x="222.416016"/>
      <use xlink:href="#DejaVuSans-63" x="250.199219"/>
      <use xlink:href="#DejaVuSans-74" x="305.179688"/>
      <use xlink:href="#DejaVuSans-65" x="344.388672"/>
      <use xlink:href="#DejaVuSans-64" x="405.912109"/>
      <use xlink:href="#DejaVuSans-20" x="469.388672"/>
      <use xlink:href="#DejaVuSans-41" x="501.175781"/>
      <use xlink:href="#DejaVuSans-72" x="569.583984"/>
      <use xlink:href="#DejaVuSans-63" x="608.447266"/>
      <use xlink:href="#DejaVuSans-2d" x="663.427734"/>
      <use xlink:href="#DejaVuSans-4c" x="699.511719"/>
      <use xlink:href="#DejaVuSans-65" x="753.474609"/>
      <use xlink:href="#DejaVuSans-6e" x="814.998047"/>
      <use xlink:href="#DejaVuSans-67" x="878.376953"/>
      <use xlink:href="#DejaVuSans-74" x="941.853516"/>
      <use xlink:href="#DejaVuSans-68" x="981.0625"/>
      <use xlink:href="#DejaVuSans-20" x="1044.441406"/>
      <use xlink:href="#DejaVuSans-28" x="1076.228516"/>
      <use xlink:href="#DejaVuSans-54" x="1115.242188"/>
      <use xlink:href="#DejaVuSans-72" x="1161.576172"/>
      <use xlink:href="#DejaVuSans-61" x="1202.689453"/>
      <use xlink:href="#DejaVuSans-6e" x="1263.96875"/>
      <use xlink:href="#DejaVuSans-73" x="1327.347656"/>
      <use xlink:href="#DejaVuSans-66" x="1379.447266"/>
      <use xlink:href="#DejaVuSans-6f" x="1414.652344"/>
      <use xlink:href="#DejaVuSans-72" x="1475.833984"/>
      <use xlink:href="#DejaVuSans-6d" x="1515.197266"/>
      <use xlink:href="#DejaVuSans-65" x="1612.609375"/>
      <use xlink:href="#DejaVuSans-64" x="1674.132812"/>
      <use xlink:href="#DejaVuSans-20" x="1737.609375"/>
      <use xlink:href="#DejaVuSans-43" x="1769.396484"/>
      <use xlink:href="#DejaVuSans-75" x="1839.220703"/>
      <use xlink:href="#DejaVuSans-72" x="1902.599609"/>
      <use xlink:href="#DejaVuSans-76" x="1943.712891"/>
      <use xlink:href="#DejaVuSans-65" x="2002.892578"/>
      <use xlink:href="#DejaVuSans-20" x="2064.416016"/>
      <use xlink:href="#DejaVuSans-23" x="2096.203125"/>
      <use xlink:href="#DejaVuSans-31" x="2179.992188"/>
      <use xlink:href="#DejaVuSans-29" x="2243.615234"/>
     </g>
    </g>
    <g id="line2d_19">
     <path d="M 562.5 278.936719 
L 587.5 278.936719 
L 612.5 278.936719 
" style="fill: none; stroke: #444444; stroke-width: 6; stroke-linecap: square"/>
    </g>
    <g id="text_22">
     <!-- True Arc-Length (Transformed Curve #2) -->
     <g transform="translate(632.5 287.686719)scale(0.25 -0.25)">
      <use xlink:href="#DejaVuSans-54"/>
      <use xlink:href="#DejaVuSans-72" x="46.333984"/>
      <use xlink:href="#DejaVuSans-75" x="87.447266"/>
      <use xlink:href="#DejaVuSans-65" x="150.826172"/>
      <use xlink:href="#DejaVuSans-20" x="212.349609"/>
      <use xlink:href="#DejaVuSans-41" x="244.136719"/>
      <use xlink:href="#DejaVuSans-72" x="312.544922"/>
      <use xlink:href="#DejaVuSans-63" x="351.408203"/>
      <use xlink:href="#DejaVuSans-2d" x="406.388672"/>
      <use xlink:href="#DejaVuSans-4c" x="442.472656"/>
      <use xlink:href="#DejaVuSans-65" x="496.435547"/>
      <use xlink:href="#DejaVuSans-6e" x="557.958984"/>
      <use xlink:href="#DejaVuSans-67" x="621.337891"/>
      <use xlink:href="#DejaVuSans-74" x="684.814453"/>
      <use xlink:href="#DejaVuSans-68" x="724.023438"/>
      <use xlink:href="#DejaVuSans-20" x="787.402344"/>
      <use xlink:href="#DejaVuSans-28" x="819.189453"/>
      <use xlink:href="#DejaVuSans-54" x="858.203125"/>
      <use xlink:href="#DejaVuSans-72" x="904.537109"/>
      <use xlink:href="#DejaVuSans-61" x="945.650391"/>
      <use xlink:href="#DejaVuSans-6e" x="1006.929688"/>
      <use xlink:href="#DejaVuSans-73" x="1070.308594"/>
      <use xlink:href="#DejaVuSans-66" x="1122.408203"/>
      <use xlink:href="#DejaVuSans-6f" x="1157.613281"/>
      <use xlink:href="#DejaVuSans-72" x="1218.794922"/>
      <use xlink:href="#DejaVuSans-6d" x="1258.158203"/>
      <use xlink:href="#DejaVuSans-65" x="1355.570312"/>
      <use xlink:href="#DejaVuSans-64" x="1417.09375"/>
      <use xlink:href="#DejaVuSans-20" x="1480.570312"/>
      <use xlink:href="#DejaVuSans-43" x="1512.357422"/>
      <use xlink:href="#DejaVuSans-75" x="1582.181641"/>
      <use xlink:href="#DejaVuSans-72" x="1645.560547"/>
      <use xlink:href="#DejaVuSans-76" x="1686.673828"/>
      <use xlink:href="#DejaVuSans-65" x="1745.853516"/>
      <use xlink:href="#DejaVuSans-20" x="1807.376953"/>
      <use xlink:href="#DejaVuSans-23" x="1839.164062"/>
      <use xlink:href="#DejaVuSans-32" x="1922.953125"/>
      <use xlink:href="#DejaVuSans-29" x="1986.576172"/>
     </g>
    </g>
    <g id="line2d_20">
     <path d="M 562.5 315.632031 
L 587.5 315.632031 
L 612.5 315.632031 
" style="fill: none; stroke: #00aa00; stroke-width: 6; stroke-linecap: square"/>
    </g>
    <g id="text_23">
     <!-- Predicted Arc-Length (Transformed Curve #2) -->
     <g transform="translate(632.5 324.382031)scale(0.25 -0.25)">
      <use xlink:href="#DejaVuSans-50"/>
      <use xlink:href="#DejaVuSans-72" x="58.552734"/>
      <use xlink:href="#DejaVuSans-65" x="97.416016"/>
      <use xlink:href="#DejaVuSans-64" x="158.939453"/>
      <use xlink:href="#DejaVuSans-69" x="222.416016"/>
      <use xlink:href="#DejaVuSans-63" x="250.199219"/>
      <use xlink:href="#DejaVuSans-74" x="305.179688"/>
      <use xlink:href="#DejaVuSans-65" x="344.388672"/>
      <use xlink:href="#DejaVuSans-64" x="405.912109"/>
      <use xlink:href="#DejaVuSans-20" x="469.388672"/>
      <use xlink:href="#DejaVuSans-41" x="501.175781"/>
      <use xlink:href="#DejaVuSans-72" x="569.583984"/>
      <use xlink:href="#DejaVuSans-63" x="608.447266"/>
      <use xlink:href="#DejaVuSans-2d" x="663.427734"/>
      <use xlink:href="#DejaVuSans-4c" x="699.511719"/>
      <use xlink:href="#DejaVuSans-65" x="753.474609"/>
      <use xlink:href="#DejaVuSans-6e" x="814.998047"/>
      <use xlink:href="#DejaVuSans-67" x="878.376953"/>
      <use xlink:href="#DejaVuSans-74" x="941.853516"/>
      <use xlink:href="#DejaVuSans-68" x="981.0625"/>
      <use xlink:href="#DejaVuSans-20" x="1044.441406"/>
      <use xlink:href="#DejaVuSans-28" x="1076.228516"/>
      <use xlink:href="#DejaVuSans-54" x="1115.242188"/>
      <use xlink:href="#DejaVuSans-72" x="1161.576172"/>
      <use xlink:href="#DejaVuSans-61" x="1202.689453"/>
      <use xlink:href="#DejaVuSans-6e" x="1263.96875"/>
      <use xlink:href="#DejaVuSans-73" x="1327.347656"/>
      <use xlink:href="#DejaVuSans-66" x="1379.447266"/>
      <use xlink:href="#DejaVuSans-6f" x="1414.652344"/>
      <use xlink:href="#DejaVuSans-72" x="1475.833984"/>
      <use xlink:href="#DejaVuSans-6d" x="1515.197266"/>
      <use xlink:href="#DejaVuSans-65" x="1612.609375"/>
      <use xlink:href="#DejaVuSans-64" x="1674.132812"/>
      <use xlink:href="#DejaVuSans-20" x="1737.609375"/>
      <use xlink:href="#DejaVuSans-43" x="1769.396484"/>
      <use xlink:href="#DejaVuSans-75" x="1839.220703"/>
      <use xlink:href="#DejaVuSans-72" x="1902.599609"/>
      <use xlink:href="#DejaVuSans-76" x="1943.712891"/>
      <use xlink:href="#DejaVuSans-65" x="2002.892578"/>
      <use xlink:href="#DejaVuSans-20" x="2064.416016"/>
      <use xlink:href="#DejaVuSans-23" x="2096.203125"/>
      <use xlink:href="#DejaVuSans-32" x="2179.992188"/>
      <use xlink:href="#DejaVuSans-29" x="2243.615234"/>
     </g>
    </g>
   </g>
   <g id="line2d_21">
    <path d="M 692.181818 1210.581818 
L 724.189466 1199.15673 
L 759.106901 1186.951329 
L 855.129845 1153.638973 
L 878.408135 1145.188706 
L 898.776638 1137.565612 
L 919.145142 1129.720316 
L 942.423431 1120.505751 
L 968.611507 1109.89585 
L 1064.634452 1070.725416 
L 1087.912741 1061.571301 
L 1111.191031 1052.652541 
L 1131.559534 1045.064162 
L 1151.928038 1037.690054 
L 1172.296541 1030.531692 
L 1195.574831 1022.591665 
L 1224.672693 1012.919952 
L 1268.319485 998.416779 
L 1288.687989 991.415818 
L 1309.056492 984.171249 
L 1329.424996 976.666651 
L 1349.793499 968.928544 
L 1375.981575 958.734653 
L 1445.816444 931.406393 
L 1472.004519 921.487347 
L 1495.282809 912.904558 
L 1521.470885 903.506388 
L 1550.568747 893.328179 
L 1597.125326 877.345379 
L 1637.862333 863.268134 
L 1666.960195 852.959461 
L 1696.058057 842.389103 
L 1774.622284 813.618874 
L 1792.081001 807.566918 
L 1809.539718 801.764053 
L 1826.998436 796.223122 
L 1847.366939 790.04058 
L 1905.562663 772.61966 
L 1923.02138 767.028814 
L 1940.480097 761.18534 
L 1960.848601 754.094321 
L 1987.036677 744.707993 
L 2068.51069 715.369392 
L 2141.255345 689.343234 
L 2158.714062 683.366563 
L 2173.262993 678.584279 
L 2187.811924 674.01697 
L 2202.360855 669.671587 
L 2219.819572 664.710317 
L 2275.10551 649.276726 
L 2289.654441 644.842331 
L 2304.203372 640.151389 
L 2318.752303 635.213665 
L 2336.21102 629.024017 
L 2368.218669 617.334018 
L 2388.587172 610.035186 
L 2403.136103 605.063636 
L 2414.775248 601.296502 
L 2426.414392 597.752982 
L 2438.053537 594.45517 
L 2449.692682 591.41016 
L 2461.331827 588.606243 
L 2472.970972 586.009752 
L 2490.429689 582.376065 
L 2519.527551 576.386939 
L 2534.076482 573.162703 
L 2548.625413 569.710487 
L 2563.174344 566.042906 
L 2583.542847 560.64836 
L 2627.18964 548.970943 
L 2644.648357 544.563099 
L 2662.107075 540.37184 
L 2688.29515 534.361301 
L 2717.393012 527.635802 
L 2734.85173 523.365453 
L 2752.310447 518.845268 
L 2769.769164 514.067838 
L 2787.227881 509.053383 
L 2807.596384 502.945284 
L 2827.964888 496.607422 
L 2854.152964 488.200291 
L 2938.536763 460.811035 
L 2958.905267 454.566043 
L 2982.183556 447.684266 
L 3014.191205 438.498689 
L 3054.928211 426.776376 
L 3084.026073 418.148883 
L 3110.214149 410.151433 
L 3133.492439 402.833682 
L 3156.770728 395.292717 
L 3182.958804 386.547784 
L 3244.064314 365.938004 
L 3261.523031 360.390864 
L 3276.071962 356.011415 
L 3290.620893 351.887533 
L 3305.169824 348.024865 
L 3319.718755 344.397948 
L 3337.177473 340.275983 
L 3395.373197 326.755324 
L 3421.561272 320.309747 
L 3523.403789 294.789401 
L 3540.862507 290.063986 
L 3555.411438 285.891444 
L 3569.960369 281.482448 
L 3584.509299 276.838209 
L 3599.05823 271.978212 
L 3616.516948 265.907504 
L 3636.885451 258.582945 
L 3668.893099 246.796422 
L 3721.269251 227.498162 
L 3735.818182 222.218182 
L 3735.818182 222.218182 
" clip-path="url(#pf8459e8683)" style="fill: none; stroke: #ff8c00; stroke-width: 6; stroke-linecap: square"/>
   </g>
   <g id="line2d_22">
    <path d="M 692.181818 1210.581818 
L 700.911177 1207.468171 
L 703.820963 1206.559422 
L 709.640535 1204.403037 
L 727.099253 1198.243504 
L 730.009039 1197.136141 
L 732.918825 1196.311456 
L 735.828611 1195.119643 
L 738.738397 1194.29543 
L 747.467756 1191.341529 
L 750.377542 1190.202338 
L 762.016687 1186.385212 
L 773.655832 1182.406666 
L 785.294977 1178.394341 
L 802.753694 1172.39499 
L 834.761342 1161.296273 
L 875.498349 1146.738114 
L 907.505997 1134.859971 
L 916.235355 1131.425499 
L 922.054928 1129.08181 
L 924.964714 1128.057367 
L 939.513645 1122.195175 
L 942.423431 1121.095481 
L 945.333217 1119.828222 
L 951.15279 1117.573906 
L 954.062576 1116.28597 
L 965.701721 1111.643724 
L 1047.175734 1078.588179 
L 1050.085521 1077.563382 
L 1055.905093 1075.292839 
L 1061.724665 1073.061043 
L 1067.544238 1070.711864 
L 1070.454024 1069.83405 
L 1073.36381 1068.586763 
L 1085.002955 1064.254382 
L 1087.912741 1063.306022 
L 1090.822527 1062.08111 
L 1131.559534 1047.014587 
L 1134.46932 1046.126045 
L 1157.74761 1037.775855 
L 1166.476969 1034.774994 
L 1175.206327 1031.821407 
L 1201.394403 1022.873719 
L 1239.221624 1010.4162 
L 1262.499913 1002.791478 
L 1271.229272 999.839012 
L 1300.327134 989.818058 
L 1326.515209 980.323976 
L 1332.334782 978.110722 
L 1367.252216 964.718788 
L 1399.259864 952.239016 
L 1402.169651 951.068131 
L 1405.079437 950.119483 
L 1416.718582 945.529714 
L 1422.538154 943.320769 
L 1445.816444 934.408371 
L 1451.636016 932.317115 
L 1454.545802 931.092237 
L 1466.184947 926.861131 
L 1469.094733 925.709053 
L 1477.824092 922.572336 
L 1509.83174 910.974306 
L 1518.561099 907.961041 
L 1527.290457 904.8374 
L 1533.11003 902.778633 
L 1538.929602 900.796177 
L 1550.568747 896.756882 
L 1620.403616 872.769628 
L 1669.869981 855.229429 
L 1675.689553 853.227107 
L 1678.599339 852.110863 
L 1681.509126 851.136445 
L 1684.418912 849.999436 
L 1696.058057 845.914968 
L 1701.877629 843.748993 
L 1704.787415 842.789706 
L 1707.697201 841.521781 
L 1713.516774 839.539016 
L 1719.336346 837.436594 
L 1722.246132 836.522127 
L 1725.155919 835.154665 
L 1728.065705 834.009564 
L 1733.885277 831.995251 
L 1736.795063 830.801176 
L 1745.524422 827.694316 
L 1748.434208 826.980691 
L 1751.343994 825.825676 
L 1780.441856 815.676902 
L 1783.351643 814.838972 
L 1797.900574 809.894881 
L 1800.81036 809.002417 
L 1803.720146 808.372069 
L 1806.629932 807.282672 
L 1812.449505 805.458437 
L 1818.269077 803.897886 
L 1821.178863 802.739209 
L 1824.088649 802.050666 
L 1826.998436 801.069104 
L 1832.818008 799.447698 
L 1835.727794 798.86207 
L 1838.63758 797.853912 
L 1841.547367 797.419661 
L 1844.457153 796.593377 
L 1847.366939 795.477765 
L 1850.276725 794.721954 
L 1853.186511 794.479709 
L 1856.096298 793.468922 
L 1861.91587 792.056795 
L 1864.825656 790.924789 
L 1870.645229 789.420406 
L 1876.464801 787.859336 
L 1879.374587 787.089802 
L 1882.284373 785.982721 
L 1885.19416 785.168267 
L 1888.103946 784.5023 
L 1893.923518 782.945291 
L 1896.833304 781.915664 
L 1902.652877 780.252866 
L 1905.562663 779.26068 
L 1908.472449 778.552196 
L 1914.292022 776.887028 
L 1917.201808 776.033271 
L 1920.111594 775.034853 
L 1923.02138 774.237404 
L 1934.660525 770.346556 
L 1937.570311 769.566885 
L 1940.480097 768.516653 
L 1943.389884 767.62075 
L 1949.209456 765.608676 
L 1978.307318 755.67284 
L 1981.217104 754.485188 
L 1984.12689 753.633507 
L 1998.675821 748.351604 
L 2001.585608 747.182503 
L 2004.495394 746.317135 
L 2010.314966 744.029775 
L 2013.224752 743.130868 
L 2016.134539 742.009145 
L 2027.773683 738.073573 
L 2030.683469 736.883707 
L 2033.593256 736.080575 
L 2036.503042 734.911921 
L 2083.059621 718.508818 
L 2085.969407 717.604214 
L 2091.78898 715.417416 
L 2100.518338 712.259084 
L 2117.977055 705.981493 
L 2123.796628 703.98076 
L 2138.345559 698.816652 
L 2161.623848 690.781939 
L 2176.172779 685.999267 
L 2208.180428 676.394749 
L 2248.917434 665.164406 
L 2251.827221 664.518656 
L 2254.737007 663.604674 
L 2257.646793 663.035111 
L 2260.556579 662.164928 
L 2266.376152 660.593404 
L 2278.015296 657.270884 
L 2280.925083 656.265578 
L 2286.744655 654.532835 
L 2289.654441 653.863244 
L 2292.564227 652.851343 
L 2295.474014 652.073672 
L 2298.3838 650.958953 
L 2321.662089 643.306363 
L 2330.391448 640.183844 
L 2347.850165 633.993892 
L 2356.579524 630.764133 
L 2388.587172 619.244623 
L 2397.316531 616.359283 
L 2408.955675 612.501577 
L 2417.685034 609.739127 
L 2423.504606 607.960859 
L 2446.782896 601.773894 
L 2449.692682 601.130535 
L 2455.512254 599.504658 
L 2461.331827 598.355384 
L 2464.241613 597.571855 
L 2470.061185 596.377571 
L 2472.970972 595.939841 
L 2481.70033 594.110512 
L 2484.610116 593.724571 
L 2493.339475 592.028764 
L 2496.249261 591.535865 
L 2499.159047 591.2624 
L 2502.068834 590.467262 
L 2504.97862 590.209478 
L 2507.888406 589.769417 
L 2510.798192 588.997121 
L 2513.707978 588.507982 
L 2516.617765 588.322072 
L 2519.527551 587.445684 
L 2522.437337 586.983669 
L 2525.347123 586.327546 
L 2528.256909 586.27661 
L 2534.076482 584.865337 
L 2536.986268 584.589702 
L 2539.896054 584.016133 
L 2542.80584 583.226521 
L 2545.715627 583.02739 
L 2551.535199 581.490019 
L 2554.444985 581.01106 
L 2563.174344 579.088952 
L 2566.08413 578.598916 
L 2568.993916 577.592799 
L 2574.813489 576.282879 
L 2580.633061 574.738815 
L 2583.542847 573.949544 
L 2586.452633 573.341563 
L 2592.272206 571.72599 
L 2598.091778 570.304306 
L 2601.001564 569.348188 
L 2606.821137 567.74414 
L 2635.918999 560.142582 
L 2644.648357 558.081701 
L 2650.46793 556.624578 
L 2653.377716 556.045642 
L 2656.287502 555.288908 
L 2659.197288 554.737063 
L 2667.926647 552.571308 
L 2670.836433 552.063785 
L 2673.746219 551.347158 
L 2679.565792 550.191819 
L 2682.475578 549.892301 
L 2688.29515 548.690042 
L 2691.204937 548.292577 
L 2694.114723 547.650595 
L 2697.024509 546.8905 
L 2699.934295 546.707512 
L 2705.753868 545.649579 
L 2708.663654 544.891072 
L 2711.57344 544.570673 
L 2723.212585 542.46528 
L 2726.122371 541.684064 
L 2729.032157 541.366797 
L 2731.941943 540.597517 
L 2734.85173 540.055786 
L 2737.761516 539.725182 
L 2740.671302 538.651234 
L 2746.490874 537.664669 
L 2749.400661 537.189588 
L 2755.220233 535.764817 
L 2758.130019 535.532538 
L 2761.039805 534.527034 
L 2766.859378 532.952046 
L 2769.769164 532.298046 
L 2775.588736 531.301958 
L 2778.498523 530.235445 
L 2784.318095 528.847582 
L 2787.227881 528.458337 
L 2793.047454 526.945976 
L 2795.95724 526.013364 
L 2801.776812 524.675572 
L 2810.506171 522.247063 
L 2813.415957 521.296161 
L 2816.325743 520.549748 
L 2819.235529 519.930029 
L 2822.145315 518.739885 
L 2825.055102 518.256422 
L 2833.78446 515.665389 
L 2839.604033 513.901421 
L 2842.513819 512.830202 
L 2845.423605 512.285176 
L 2848.333391 511.235224 
L 2851.243177 510.486542 
L 2854.152964 509.38523 
L 2857.06275 508.628306 
L 2859.972536 507.63284 
L 2865.792108 505.943957 
L 2868.701895 504.746519 
L 2877.431253 501.983518 
L 2880.341039 501.162522 
L 2897.799757 495.409104 
L 2921.078046 487.797253 
L 2953.085694 477.720799 
L 2985.093343 468.216647 
L 3098.575004 435.815338 
L 3104.394577 433.983519 
L 3107.304363 433.23533 
L 3110.214149 432.36116 
L 3113.123935 431.289354 
L 3118.943508 429.711549 
L 3127.672866 426.776553 
L 3130.582653 426.209137 
L 3136.402225 424.370251 
L 3142.221797 422.663092 
L 3145.131584 421.546992 
L 3148.04137 420.865953 
L 3150.951156 419.964668 
L 3153.860942 418.698453 
L 3156.770728 417.749974 
L 3159.680515 417.489424 
L 3162.590301 416.397418 
L 3171.319659 413.697034 
L 3174.229446 412.615763 
L 3177.139232 411.693631 
L 3180.049018 410.968962 
L 3182.958804 409.915232 
L 3185.86859 409.242578 
L 3188.778376 407.936994 
L 3191.688163 407.014148 
L 3194.597949 406.262514 
L 3197.507735 405.363607 
L 3200.417521 404.255098 
L 3203.327307 403.447926 
L 3206.237094 402.249716 
L 3209.14688 401.69315 
L 3212.056666 400.838705 
L 3214.966452 399.670206 
L 3220.786025 397.847161 
L 3226.605597 396.005612 
L 3229.515383 394.941181 
L 3232.425169 394.292165 
L 3235.334956 393.347173 
L 3238.244742 392.249202 
L 3241.154528 391.414105 
L 3244.064314 390.401312 
L 3246.9741 389.790535 
L 3249.883887 388.912623 
L 3255.703459 386.943831 
L 3258.613245 386.122548 
L 3261.523031 385.073877 
L 3264.432818 384.352336 
L 3273.162176 381.815022 
L 3278.981749 380.218038 
L 3281.891535 379.209979 
L 3284.801321 378.33464 
L 3290.620893 376.821184 
L 3299.350252 374.562014 
L 3310.989397 371.711924 
L 3319.718755 369.574127 
L 3322.628542 368.987874 
L 3328.448114 367.546043 
L 3331.3579 367.068208 
L 3334.267686 366.353108 
L 3340.087259 365.10157 
L 3345.906831 363.843192 
L 3357.545976 361.442419 
L 3363.365548 360.411009 
L 3366.275335 359.645749 
L 3372.094907 358.511206 
L 3377.914479 357.332843 
L 3383.734052 355.983231 
L 3389.553624 354.684098 
L 3392.46341 353.964523 
L 3398.282983 352.696642 
L 3401.192769 352.106693 
L 3404.102555 351.34179 
L 3409.922128 350.018739 
L 3412.831914 349.228544 
L 3415.7417 348.591999 
L 3421.561272 347.068665 
L 3427.380845 345.696685 
L 3430.290631 345.078081 
L 3436.110203 343.525337 
L 3439.01999 342.787175 
L 3441.929776 342.206401 
L 3444.839562 341.320199 
L 3479.756996 332.64575 
L 3494.305927 329.18189 
L 3505.945072 326.348865 
L 3511.764645 324.997829 
L 3514.674431 324.198118 
L 3517.584217 323.579696 
L 3537.95272 318.317424 
L 3540.862507 317.435785 
L 3543.772293 316.766199 
L 3546.682079 315.828049 
L 3549.591865 315.211662 
L 3552.501651 314.195646 
L 3555.411438 313.36583 
L 3558.321224 312.887231 
L 3575.779941 307.707878 
L 3578.689727 306.549256 
L 3581.599513 305.955069 
L 3584.509299 304.928329 
L 3587.419086 304.0443 
L 3590.328872 303.022119 
L 3593.238658 302.345822 
L 3596.148444 301.387339 
L 3604.877803 298.201441 
L 3619.426734 293.152993 
L 3631.065879 288.991363 
L 3633.975665 288.093103 
L 3642.705023 284.892382 
L 3654.344168 280.718788 
L 3657.253954 279.368046 
L 3660.163741 278.372359 
L 3663.073527 277.220062 
L 3665.983313 276.317203 
L 3668.893099 275.083422 
L 3671.802885 274.226178 
L 3674.712672 272.964496 
L 3695.081175 265.67529 
L 3697.990961 264.705474 
L 3700.900747 263.441901 
L 3721.269251 256.425482 
L 3724.179037 255.761137 
L 3727.088823 254.761888 
L 3729.998609 253.468757 
L 3735.818182 251.520325 
L 3735.818182 251.520325 
" clip-path="url(#pf8459e8683)" style="fill: none; stroke: #aa0000; stroke-width: 6; stroke-linecap: square"/>
   </g>
   <g id="line2d_23">
    <path d="M 692.181818 1210.581818 
L 724.189466 1199.15673 
L 759.106901 1186.951329 
L 855.129845 1153.638973 
L 878.408135 1145.188706 
L 898.776638 1137.565612 
L 919.145142 1129.720316 
L 942.423431 1120.505751 
L 968.611507 1109.89585 
L 1064.634452 1070.725416 
L 1087.912741 1061.571301 
L 1111.191031 1052.652541 
L 1131.559534 1045.064162 
L 1151.928038 1037.690054 
L 1172.296541 1030.531692 
L 1195.574831 1022.591665 
L 1224.672693 1012.919952 
L 1268.319485 998.416779 
L 1288.687989 991.415818 
L 1309.056492 984.171249 
L 1329.424996 976.666651 
L 1349.793499 968.928544 
L 1375.981575 958.734653 
L 1445.816444 931.406393 
L 1472.004519 921.487347 
L 1495.282809 912.904558 
L 1521.470885 903.506388 
L 1550.568747 893.328179 
L 1597.125326 877.345379 
L 1637.862333 863.268134 
L 1666.960195 852.959461 
L 1696.058057 842.389103 
L 1774.622284 813.618874 
L 1792.081001 807.566918 
L 1809.539718 801.764053 
L 1826.998436 796.223122 
L 1847.366939 790.04058 
L 1905.562663 772.61966 
L 1923.02138 767.028814 
L 1940.480097 761.18534 
L 1960.848601 754.094321 
L 1987.036677 744.707993 
L 2068.51069 715.369392 
L 2141.255345 689.343234 
L 2158.714062 683.366563 
L 2173.262993 678.584279 
L 2187.811924 674.01697 
L 2202.360855 669.671587 
L 2219.819572 664.710317 
L 2275.10551 649.276726 
L 2289.654441 644.842331 
L 2304.203372 640.151389 
L 2318.752303 635.213665 
L 2336.21102 629.024017 
L 2368.218669 617.334018 
L 2388.587172 610.035186 
L 2403.136103 605.063636 
L 2414.775248 601.296502 
L 2426.414392 597.752982 
L 2438.053537 594.45517 
L 2449.692682 591.41016 
L 2461.331827 588.606243 
L 2472.970972 586.009752 
L 2490.429689 582.376065 
L 2519.527551 576.386939 
L 2534.076482 573.162703 
L 2548.625413 569.710487 
L 2563.174344 566.042906 
L 2583.542847 560.64836 
L 2627.18964 548.970943 
L 2644.648357 544.563099 
L 2662.107075 540.37184 
L 2688.29515 534.361301 
L 2717.393012 527.635802 
L 2734.85173 523.365453 
L 2752.310447 518.845268 
L 2769.769164 514.067838 
L 2787.227881 509.053383 
L 2807.596384 502.945284 
L 2827.964888 496.607422 
L 2854.152964 488.200291 
L 2938.536763 460.811035 
L 2958.905267 454.566043 
L 2982.183556 447.684266 
L 3014.191205 438.498689 
L 3054.928211 426.776376 
L 3084.026073 418.148883 
L 3110.214149 410.151433 
L 3133.492439 402.833682 
L 3156.770728 395.292717 
L 3182.958804 386.547784 
L 3244.064314 365.938004 
L 3261.523031 360.390864 
L 3276.071962 356.011415 
L 3290.620893 351.887533 
L 3305.169824 348.024865 
L 3319.718755 344.397948 
L 3337.177473 340.275983 
L 3395.373197 326.755324 
L 3421.561272 320.309747 
L 3523.403789 294.789401 
L 3540.862507 290.063986 
L 3555.411438 285.891444 
L 3569.960369 281.482448 
L 3584.509299 276.838209 
L 3599.05823 271.978212 
L 3616.516948 265.907504 
L 3636.885451 258.582945 
L 3668.893099 246.796422 
L 3721.269251 227.498162 
L 3735.818182 222.218182 
L 3735.818182 222.218182 
" clip-path="url(#pf8459e8683)" style="fill: none; stroke: #444444; stroke-width: 6; stroke-linecap: square"/>
   </g>
   <g id="line2d_24">
    <path d="M 692.181818 1210.581818 
L 712.550322 1203.331722 
L 744.55797 1192.034137 
L 750.377542 1190.137177 
L 764.926473 1185.074332 
L 767.836259 1184.180883 
L 776.565618 1181.158725 
L 779.475404 1180.276706 
L 782.38519 1179.152558 
L 788.204763 1177.406218 
L 791.114549 1176.24566 
L 799.843908 1173.466027 
L 828.94177 1163.908977 
L 834.761342 1162.175802 
L 837.671128 1161.073781 
L 840.580914 1160.378685 
L 843.490701 1159.223581 
L 846.400487 1158.443828 
L 866.76899 1151.715646 
L 869.678776 1151.086687 
L 872.588562 1149.809054 
L 878.408135 1147.913476 
L 881.317921 1147.232831 
L 892.957066 1143.260436 
L 901.686424 1140.408336 
L 904.596211 1139.491622 
L 907.505997 1138.254306 
L 910.415783 1137.218764 
L 913.325569 1136.350968 
L 916.235355 1134.981049 
L 919.145142 1134.165541 
L 922.054928 1133.155745 
L 924.964714 1132.008422 
L 933.694073 1129.019368 
L 936.603859 1127.710745 
L 939.513645 1126.939618 
L 942.423431 1125.82122 
L 945.333217 1124.965532 
L 948.243004 1123.638409 
L 951.15279 1122.564812 
L 954.062576 1121.686187 
L 959.882148 1119.610005 
L 962.791935 1118.245671 
L 965.701721 1117.692947 
L 968.611507 1116.304539 
L 977.340866 1112.860579 
L 980.250652 1111.894631 
L 986.070224 1109.463784 
L 988.98001 1108.883476 
L 991.889797 1107.519597 
L 994.799583 1106.713804 
L 997.709369 1105.29918 
L 1000.619155 1104.178442 
L 1003.528941 1102.85804 
L 1009.348514 1100.610156 
L 1012.2583 1099.661739 
L 1015.168086 1098.901769 
L 1018.077872 1097.522988 
L 1023.897445 1095.138417 
L 1026.807231 1094.118039 
L 1029.717017 1092.806265 
L 1032.626803 1091.872911 
L 1035.53659 1090.745699 
L 1038.446376 1090.02013 
L 1041.356162 1088.540439 
L 1047.175734 1086.507149 
L 1050.085521 1085.146238 
L 1055.905093 1082.893499 
L 1058.814879 1081.91793 
L 1064.634452 1079.625303 
L 1067.544238 1078.751442 
L 1073.36381 1076.404175 
L 1076.273596 1075.111254 
L 1082.093169 1073.074845 
L 1085.002955 1072.151006 
L 1087.912741 1071.0864 
L 1093.732314 1068.680888 
L 1099.551886 1066.564168 
L 1102.461672 1065.595987 
L 1105.371458 1064.433452 
L 1108.281245 1063.456774 
L 1111.191031 1062.25709 
L 1134.46932 1053.844344 
L 1140.288893 1051.87771 
L 1146.108465 1049.704171 
L 1166.476969 1042.576803 
L 1169.386755 1041.680654 
L 1175.206327 1039.620763 
L 1195.574831 1032.856127 
L 1204.304189 1029.895591 
L 1233.402051 1020.377822 
L 1236.311837 1019.514626 
L 1239.221624 1018.494651 
L 1247.950982 1015.72079 
L 1262.499913 1010.999017 
L 1279.95863 1005.29057 
L 1297.417347 999.442493 
L 1303.23692 997.388183 
L 1317.785851 992.259068 
L 1329.424996 988.014261 
L 1335.244568 985.985053 
L 1338.154354 984.829492 
L 1349.793499 980.603973 
L 1355.613071 978.214853 
L 1358.522858 977.178556 
L 1364.34243 974.896692 
L 1370.162002 972.767716 
L 1375.981575 970.393861 
L 1381.801147 968.383633 
L 1387.62072 965.777925 
L 1390.530506 964.880786 
L 1393.440292 963.51642 
L 1396.350078 962.3836 
L 1399.259864 961.103852 
L 1416.718582 954.231345 
L 1463.275161 936.229086 
L 1483.643664 928.688439 
L 1486.55345 927.754106 
L 1489.463237 926.584529 
L 1492.373023 925.566913 
L 1495.282809 924.676289 
L 1501.102381 922.546818 
L 1506.921954 920.460608 
L 1512.741526 918.494288 
L 1515.651312 917.647174 
L 1530.200243 912.540381 
L 1536.019816 910.777252 
L 1570.93725 898.812527 
L 1573.847036 898.025514 
L 1576.756823 896.905914 
L 1579.666609 896.005799 
L 1582.576395 894.950065 
L 1588.395967 893.026106 
L 1605.854685 887.119932 
L 1611.674257 885.227453 
L 1614.584043 884.139664 
L 1617.493829 883.245997 
L 1664.050408 866.955108 
L 1669.869981 864.824647 
L 1678.599339 861.74571 
L 1690.238484 857.448996 
L 1748.434208 835.889513 
L 1768.802712 828.454742 
L 1794.990787 819.289083 
L 1818.269077 811.718948 
L 1829.908222 808.126907 
L 1853.186511 801.222834 
L 1856.096298 800.583426 
L 1861.91587 798.828566 
L 1864.825656 798.175494 
L 1867.735442 797.173441 
L 1870.645229 796.328216 
L 1873.555015 795.646733 
L 1882.284373 793.040166 
L 1888.103946 791.572701 
L 1891.013732 790.553098 
L 1893.923518 789.886923 
L 1896.833304 788.982329 
L 1899.743091 788.235959 
L 1908.472449 785.501946 
L 1914.292022 783.947543 
L 1917.201808 782.975217 
L 1920.111594 782.183686 
L 1923.02138 781.132991 
L 1925.931166 780.217017 
L 1928.840953 779.470863 
L 1931.750739 778.415466 
L 1934.660525 777.545478 
L 1937.570311 776.501981 
L 1940.480097 775.77408 
L 1952.119242 771.754355 
L 1955.029028 770.823547 
L 1960.848601 768.697441 
L 1963.758387 767.916711 
L 1966.668173 766.593168 
L 1972.487746 764.683684 
L 1981.217104 761.387395 
L 1984.12689 760.411311 
L 1987.036677 759.249773 
L 1998.675821 755.124702 
L 2004.495394 753.045202 
L 2033.593256 742.770063 
L 2042.322614 739.713944 
L 2045.2324 738.725403 
L 2048.142187 737.600249 
L 2056.871545 734.634834 
L 2088.879193 723.161553 
L 2091.78898 722.014816 
L 2094.698766 721.122996 
L 2103.428124 717.804539 
L 2106.337911 716.901887 
L 2109.247697 715.715091 
L 2112.157483 714.683982 
L 2115.067269 713.805016 
L 2117.977055 712.658756 
L 2120.886842 711.768843 
L 2123.796628 710.582955 
L 2129.6162 708.704844 
L 2132.525986 707.627482 
L 2135.435773 706.676456 
L 2138.345559 705.545046 
L 2144.165131 703.634644 
L 2147.074917 702.567126 
L 2155.804276 699.652671 
L 2179.082566 692.042644 
L 2199.451069 685.841494 
L 2214 681.652593 
L 2219.819572 680.232514 
L 2222.729359 679.298355 
L 2228.548931 678.023607 
L 2237.27829 675.670889 
L 2240.188076 675.112799 
L 2248.917434 673.056076 
L 2251.827221 671.991818 
L 2254.737007 671.071459 
L 2260.556579 669.880874 
L 2263.466365 668.842745 
L 2266.376152 668.369903 
L 2269.285938 667.528486 
L 2272.195724 667.140282 
L 2275.10551 666.433898 
L 2278.015296 665.579184 
L 2280.925083 664.940742 
L 2283.834869 663.984414 
L 2286.744655 663.392235 
L 2289.654441 662.593604 
L 2292.564227 661.578002 
L 2298.3838 660.132355 
L 2301.293586 658.914377 
L 2304.203372 658.449518 
L 2307.113158 657.251085 
L 2315.842517 654.737327 
L 2321.662089 652.623994 
L 2327.481662 651.194483 
L 2330.391448 650.034801 
L 2333.301234 648.684889 
L 2336.21102 647.69746 
L 2339.120807 646.988606 
L 2342.030593 646.036195 
L 2344.940379 644.750976 
L 2347.850165 644.098284 
L 2350.759951 642.802987 
L 2353.669738 642.236753 
L 2356.579524 640.770515 
L 2362.399096 638.773574 
L 2371.128455 635.848984 
L 2374.038241 634.611626 
L 2376.948027 633.860814 
L 2382.7676 631.865184 
L 2400.226317 626.046672 
L 2406.045889 624.337639 
L 2417.685034 620.862336 
L 2429.324179 617.537171 
L 2432.233965 616.852021 
L 2435.143751 616.047541 
L 2438.053537 615.417415 
L 2440.963323 614.633402 
L 2449.692682 612.663729 
L 2455.512254 611.204865 
L 2464.241613 609.432026 
L 2470.061185 608.4259 
L 2472.970972 607.920588 
L 2475.880758 607.089113 
L 2481.70033 606.04149 
L 2510.798192 601.529338 
L 2513.707978 601.327524 
L 2516.617765 600.745448 
L 2519.527551 600.458072 
L 2525.347123 599.220795 
L 2528.256909 599.189306 
L 2534.076482 598.150977 
L 2536.986268 597.335761 
L 2539.896054 596.792942 
L 2542.80584 596.129148 
L 2545.715627 596.022283 
L 2551.535199 594.715706 
L 2554.444985 593.770661 
L 2557.354771 593.119751 
L 2563.174344 591.941636 
L 2566.08413 591.027089 
L 2568.993916 590.30452 
L 2571.903702 589.760091 
L 2574.813489 588.909409 
L 2583.542847 586.635097 
L 2606.821137 580.358915 
L 2633.009213 573.449254 
L 2650.46793 569.09911 
L 2665.016861 565.797915 
L 2670.836433 564.706749 
L 2676.656006 563.36101 
L 2679.565792 562.946608 
L 2685.385364 561.482831 
L 2691.204937 560.59852 
L 2697.024509 559.368627 
L 2702.844081 558.412545 
L 2708.663654 557.145105 
L 2711.57344 556.795089 
L 2714.483226 556.205298 
L 2720.302799 554.770128 
L 2723.212585 554.180951 
L 2726.122371 553.772795 
L 2729.032157 553.236082 
L 2731.941943 552.280732 
L 2737.761516 551.020373 
L 2740.671302 550.579277 
L 2743.581088 549.954276 
L 2746.490874 549.151317 
L 2752.310447 547.891495 
L 2761.039805 545.843742 
L 2763.949592 544.940354 
L 2775.588736 541.954432 
L 2778.498523 541.055297 
L 2781.408309 540.366536 
L 2787.227881 538.772459 
L 2790.137667 537.732787 
L 2793.047454 536.974747 
L 2798.867026 535.197779 
L 2801.776812 534.534567 
L 2822.145315 528.176981 
L 2825.055102 527.347752 
L 2827.964888 526.30713 
L 2836.694246 523.623399 
L 2839.604033 522.543297 
L 2842.513819 521.793021 
L 2845.423605 520.787693 
L 2848.333391 519.978984 
L 2851.243177 518.904814 
L 2874.521467 511.41888 
L 2877.431253 510.342476 
L 2889.070398 506.551207 
L 2894.88997 504.56134 
L 2900.709543 502.602988 
L 2912.348688 498.885033 
L 2929.807405 493.206683 
L 2958.905267 484.180458 
L 2976.363984 478.964386 
L 2993.822701 473.967133 
L 3002.55206 471.443088 
L 3043.289067 459.807473 
L 3075.296715 450.43213 
L 3098.575004 443.368866 
L 3124.76308 435.180354 
L 3139.312011 430.550299 
L 3150.951156 426.736143 
L 3153.860942 425.862469 
L 3162.590301 422.861121 
L 3177.139232 418.161256 
L 3180.049018 417.066098 
L 3182.958804 416.219108 
L 3185.86859 415.125211 
L 3191.688163 413.335881 
L 3194.597949 412.374473 
L 3197.507735 411.288741 
L 3200.417521 410.408549 
L 3203.327307 409.329359 
L 3206.237094 408.491021 
L 3223.695811 402.631547 
L 3226.605597 401.519019 
L 3232.425169 399.738296 
L 3238.244742 397.746999 
L 3246.9741 395.02892 
L 3258.613245 391.315082 
L 3261.523031 390.630379 
L 3264.432818 389.571156 
L 3267.342604 388.884285 
L 3281.891535 384.595402 
L 3284.801321 383.990367 
L 3287.711107 383.0736 
L 3290.620893 382.387105 
L 3293.53068 381.515991 
L 3296.440466 380.965244 
L 3299.350252 380.270549 
L 3302.260038 379.323962 
L 3310.989397 377.164193 
L 3316.808969 375.940654 
L 3328.448114 373.448919 
L 3331.3579 372.861224 
L 3334.267686 372.104054 
L 3337.177473 371.574858 
L 3342.997045 370.340998 
L 3345.906831 369.831848 
L 3348.816617 368.989113 
L 3351.726404 368.412955 
L 3354.63619 367.993899 
L 3357.545976 367.385138 
L 3360.455762 366.625412 
L 3363.365548 366.284334 
L 3366.275335 365.602775 
L 3372.094907 364.424872 
L 3375.004693 363.651244 
L 3377.914479 363.149739 
L 3383.734052 361.765813 
L 3386.643838 361.130145 
L 3389.553624 360.369722 
L 3395.373197 359.141814 
L 3407.012341 356.494489 
L 3418.651486 353.488812 
L 3424.471059 352.119552 
L 3468.117852 341.174401 
L 3511.764645 330.317296 
L 3535.042934 324.310101 
L 3537.95272 323.52897 
L 3540.862507 322.613129 
L 3543.772293 321.963707 
L 3549.591865 320.172421 
L 3552.501651 319.584382 
L 3555.411438 318.61208 
L 3558.321224 317.768568 
L 3561.23101 317.093567 
L 3564.140796 316.049501 
L 3567.050582 315.432847 
L 3593.238658 307.207657 
L 3601.968017 304.245822 
L 3607.787589 302.282988 
L 3613.607161 300.210149 
L 3628.156092 295.033495 
L 3645.61481 288.678955 
L 3663.073527 282.29825 
L 3683.44203 274.76601 
L 3686.351816 273.657608 
L 3689.261603 272.68215 
L 3697.990961 269.418142 
L 3721.269251 261.237335 
L 3724.179037 260.250292 
L 3729.998609 258.109002 
L 3735.818182 256.054412 
L 3735.818182 256.054412 
" clip-path="url(#pf8459e8683)" style="fill: none; stroke: #00aa00; stroke-width: 6; stroke-linecap: square"/>
   </g>
  </g>
 </g>
 <defs>
  <clipPath id="pf8459e8683">
   <rect x="540" y="172.8" width="3348" height="1087.2"/>
  </clipPath>
 </defs>
</svg>
