<?xml version="1.0" encoding="utf-8" standalone="no"?>
<!DOCTYPE svg PUBLIC "-//W3C//DTD SVG 1.1//EN"
  "http://www.w3.org/Graphics/SVG/1.1/DTD/svg11.dtd">
<svg xmlns:xlink="http://www.w3.org/1999/xlink" width="4320pt" height="1440pt" viewBox="0 0 4320 1440" xmlns="http://www.w3.org/2000/svg" version="1.1">
 <metadata>
  <rdf:RDF xmlns:dc="http://purl.org/dc/elements/1.1/" xmlns:cc="http://creativecommons.org/ns#" xmlns:rdf="http://www.w3.org/1999/02/22-rdf-syntax-ns#">
   <cc:Work>
    <dc:type rdf:resource="http://purl.org/dc/dcmitype/StillImage"/>
    <dc:date>2021-11-07T01:38:26.038597</dc:date>
    <dc:format>image/svg+xml</dc:format>
    <dc:creator>
     <cc:Agent>
      <dc:title>Matplotlib v3.5.0rc1, https://matplotlib.org/</dc:title>
     </cc:Agent>
    </dc:creator>
   </cc:Work>
  </rdf:RDF>
 </metadata>
 <defs>
  <style type="text/css">*{stroke-linejoin: round; stroke-linecap: butt}</style>
 </defs>
 <g id="figure_1">
  <g id="patch_1">
   <path d="M 0 1440 
L 4320 1440 
L 4320 0 
L 0 0 
z
" style="fill: #ffffff"/>
  </g>
  <g id="axes_1">
   <g id="patch_2">
    <path d="M 540 1260 
L 3888 1260 
L 3888 172.8 
L 540 172.8 
z
" style="fill: #ffffff"/>
   </g>
   <g id="matplotlib.axis_1">
    <g id="xtick_1">
     <g id="line2d_1">
      <defs>
       <path id="m19d4dbd4ff" d="M 0 0 
L 0 3.5 
" style="stroke: #000000; stroke-width: 0.8"/>
      </defs>
      <g>
       <use xlink:href="#m19d4dbd4ff" x="692.181818" y="1260" style="stroke: #000000; stroke-width: 0.8"/>
      </g>
     </g>
     <g id="text_1">
      <!-- 0 -->
      <g transform="translate(684.228693 1285.996094)scale(0.25 -0.25)">
       <defs>
        <path id="DejaVuSans-30" d="M 2034 4250 
Q 1547 4250 1301 3770 
Q 1056 3291 1056 2328 
Q 1056 1369 1301 889 
Q 1547 409 2034 409 
Q 2525 409 2770 889 
Q 3016 1369 3016 2328 
Q 3016 3291 2770 3770 
Q 2525 4250 2034 4250 
z
M 2034 4750 
Q 2819 4750 3233 4129 
Q 3647 3509 3647 2328 
Q 3647 1150 3233 529 
Q 2819 -91 2034 -91 
Q 1250 -91 836 529 
Q 422 1150 422 2328 
Q 422 3509 836 4129 
Q 1250 4750 2034 4750 
z
" transform="scale(0.015625)"/>
       </defs>
       <use xlink:href="#DejaVuSans-30"/>
      </g>
     </g>
    </g>
    <g id="xtick_2">
     <g id="line2d_2">
      <g>
       <use xlink:href="#m19d4dbd4ff" x="1128.649748" y="1260" style="stroke: #000000; stroke-width: 0.8"/>
      </g>
     </g>
     <g id="text_2">
      <!-- 150 -->
      <g transform="translate(1104.790373 1285.996094)scale(0.25 -0.25)">
       <defs>
        <path id="DejaVuSans-31" d="M 794 531 
L 1825 531 
L 1825 4091 
L 703 3866 
L 703 4441 
L 1819 4666 
L 2450 4666 
L 2450 531 
L 3481 531 
L 3481 0 
L 794 0 
L 794 531 
z
" transform="scale(0.015625)"/>
        <path id="DejaVuSans-35" d="M 691 4666 
L 3169 4666 
L 3169 4134 
L 1269 4134 
L 1269 2991 
Q 1406 3038 1543 3061 
Q 1681 3084 1819 3084 
Q 2600 3084 3056 2656 
Q 3513 2228 3513 1497 
Q 3513 744 3044 326 
Q 2575 -91 1722 -91 
Q 1428 -91 1123 -41 
Q 819 9 494 109 
L 494 744 
Q 775 591 1075 516 
Q 1375 441 1709 441 
Q 2250 441 2565 725 
Q 2881 1009 2881 1497 
Q 2881 1984 2565 2268 
Q 2250 2553 1709 2553 
Q 1456 2553 1204 2497 
Q 953 2441 691 2322 
L 691 4666 
z
" transform="scale(0.015625)"/>
       </defs>
       <use xlink:href="#DejaVuSans-31"/>
       <use xlink:href="#DejaVuSans-35" x="63.623047"/>
       <use xlink:href="#DejaVuSans-30" x="127.246094"/>
      </g>
     </g>
    </g>
    <g id="xtick_3">
     <g id="line2d_3">
      <g>
       <use xlink:href="#m19d4dbd4ff" x="1565.117678" y="1260" style="stroke: #000000; stroke-width: 0.8"/>
      </g>
     </g>
     <g id="text_3">
      <!-- 300 -->
      <g transform="translate(1541.258303 1285.996094)scale(0.25 -0.25)">
       <defs>
        <path id="DejaVuSans-33" d="M 2597 2516 
Q 3050 2419 3304 2112 
Q 3559 1806 3559 1356 
Q 3559 666 3084 287 
Q 2609 -91 1734 -91 
Q 1441 -91 1130 -33 
Q 819 25 488 141 
L 488 750 
Q 750 597 1062 519 
Q 1375 441 1716 441 
Q 2309 441 2620 675 
Q 2931 909 2931 1356 
Q 2931 1769 2642 2001 
Q 2353 2234 1838 2234 
L 1294 2234 
L 1294 2753 
L 1863 2753 
Q 2328 2753 2575 2939 
Q 2822 3125 2822 3475 
Q 2822 3834 2567 4026 
Q 2313 4219 1838 4219 
Q 1578 4219 1281 4162 
Q 984 4106 628 3988 
L 628 4550 
Q 988 4650 1302 4700 
Q 1616 4750 1894 4750 
Q 2613 4750 3031 4423 
Q 3450 4097 3450 3541 
Q 3450 3153 3228 2886 
Q 3006 2619 2597 2516 
z
" transform="scale(0.015625)"/>
       </defs>
       <use xlink:href="#DejaVuSans-33"/>
       <use xlink:href="#DejaVuSans-30" x="63.623047"/>
       <use xlink:href="#DejaVuSans-30" x="127.246094"/>
      </g>
     </g>
    </g>
    <g id="xtick_4">
     <g id="line2d_4">
      <g>
       <use xlink:href="#m19d4dbd4ff" x="2001.585608" y="1260" style="stroke: #000000; stroke-width: 0.8"/>
      </g>
     </g>
     <g id="text_4">
      <!-- 450 -->
      <g transform="translate(1977.726233 1285.996094)scale(0.25 -0.25)">
       <defs>
        <path id="DejaVuSans-34" d="M 2419 4116 
L 825 1625 
L 2419 1625 
L 2419 4116 
z
M 2253 4666 
L 3047 4666 
L 3047 1625 
L 3713 1625 
L 3713 1100 
L 3047 1100 
L 3047 0 
L 2419 0 
L 2419 1100 
L 313 1100 
L 313 1709 
L 2253 4666 
z
" transform="scale(0.015625)"/>
       </defs>
       <use xlink:href="#DejaVuSans-34"/>
       <use xlink:href="#DejaVuSans-35" x="63.623047"/>
       <use xlink:href="#DejaVuSans-30" x="127.246094"/>
      </g>
     </g>
    </g>
    <g id="xtick_5">
     <g id="line2d_5">
      <g>
       <use xlink:href="#m19d4dbd4ff" x="2438.053537" y="1260" style="stroke: #000000; stroke-width: 0.8"/>
      </g>
     </g>
     <g id="text_5">
      <!-- 600 -->
      <g transform="translate(2414.194162 1285.996094)scale(0.25 -0.25)">
       <defs>
        <path id="DejaVuSans-36" d="M 2113 2584 
Q 1688 2584 1439 2293 
Q 1191 2003 1191 1497 
Q 1191 994 1439 701 
Q 1688 409 2113 409 
Q 2538 409 2786 701 
Q 3034 994 3034 1497 
Q 3034 2003 2786 2293 
Q 2538 2584 2113 2584 
z
M 3366 4563 
L 3366 3988 
Q 3128 4100 2886 4159 
Q 2644 4219 2406 4219 
Q 1781 4219 1451 3797 
Q 1122 3375 1075 2522 
Q 1259 2794 1537 2939 
Q 1816 3084 2150 3084 
Q 2853 3084 3261 2657 
Q 3669 2231 3669 1497 
Q 3669 778 3244 343 
Q 2819 -91 2113 -91 
Q 1303 -91 875 529 
Q 447 1150 447 2328 
Q 447 3434 972 4092 
Q 1497 4750 2381 4750 
Q 2619 4750 2861 4703 
Q 3103 4656 3366 4563 
z
" transform="scale(0.015625)"/>
       </defs>
       <use xlink:href="#DejaVuSans-36"/>
       <use xlink:href="#DejaVuSans-30" x="63.623047"/>
       <use xlink:href="#DejaVuSans-30" x="127.246094"/>
      </g>
     </g>
    </g>
    <g id="xtick_6">
     <g id="line2d_6">
      <g>
       <use xlink:href="#m19d4dbd4ff" x="2874.521467" y="1260" style="stroke: #000000; stroke-width: 0.8"/>
      </g>
     </g>
     <g id="text_6">
      <!-- 750 -->
      <g transform="translate(2850.662092 1285.996094)scale(0.25 -0.25)">
       <defs>
        <path id="DejaVuSans-37" d="M 525 4666 
L 3525 4666 
L 3525 4397 
L 1831 0 
L 1172 0 
L 2766 4134 
L 525 4134 
L 525 4666 
z
" transform="scale(0.015625)"/>
       </defs>
       <use xlink:href="#DejaVuSans-37"/>
       <use xlink:href="#DejaVuSans-35" x="63.623047"/>
       <use xlink:href="#DejaVuSans-30" x="127.246094"/>
      </g>
     </g>
    </g>
    <g id="xtick_7">
     <g id="line2d_7">
      <g>
       <use xlink:href="#m19d4dbd4ff" x="3310.989397" y="1260" style="stroke: #000000; stroke-width: 0.8"/>
      </g>
     </g>
     <g id="text_7">
      <!-- 900 -->
      <g transform="translate(3287.130022 1285.996094)scale(0.25 -0.25)">
       <defs>
        <path id="DejaVuSans-39" d="M 703 97 
L 703 672 
Q 941 559 1184 500 
Q 1428 441 1663 441 
Q 2288 441 2617 861 
Q 2947 1281 2994 2138 
Q 2813 1869 2534 1725 
Q 2256 1581 1919 1581 
Q 1219 1581 811 2004 
Q 403 2428 403 3163 
Q 403 3881 828 4315 
Q 1253 4750 1959 4750 
Q 2769 4750 3195 4129 
Q 3622 3509 3622 2328 
Q 3622 1225 3098 567 
Q 2575 -91 1691 -91 
Q 1453 -91 1209 -44 
Q 966 3 703 97 
z
M 1959 2075 
Q 2384 2075 2632 2365 
Q 2881 2656 2881 3163 
Q 2881 3666 2632 3958 
Q 2384 4250 1959 4250 
Q 1534 4250 1286 3958 
Q 1038 3666 1038 3163 
Q 1038 2656 1286 2365 
Q 1534 2075 1959 2075 
z
" transform="scale(0.015625)"/>
       </defs>
       <use xlink:href="#DejaVuSans-39"/>
       <use xlink:href="#DejaVuSans-30" x="63.623047"/>
       <use xlink:href="#DejaVuSans-30" x="127.246094"/>
      </g>
     </g>
    </g>
    <g id="xtick_8">
     <g id="line2d_8">
      <g>
       <use xlink:href="#m19d4dbd4ff" x="3747.457327" y="1260" style="stroke: #000000; stroke-width: 0.8"/>
      </g>
     </g>
     <g id="text_8">
      <!-- 1050 -->
      <g transform="translate(3715.644827 1285.996094)scale(0.25 -0.25)">
       <use xlink:href="#DejaVuSans-31"/>
       <use xlink:href="#DejaVuSans-30" x="63.623047"/>
       <use xlink:href="#DejaVuSans-35" x="127.246094"/>
       <use xlink:href="#DejaVuSans-30" x="190.869141"/>
      </g>
     </g>
    </g>
    <g id="text_9">
     <!-- Point Index -->
     <g transform="translate(2116.817578 1321.789844)scale(0.35 -0.35)">
      <defs>
       <path id="DejaVuSans-50" d="M 1259 4147 
L 1259 2394 
L 2053 2394 
Q 2494 2394 2734 2622 
Q 2975 2850 2975 3272 
Q 2975 3691 2734 3919 
Q 2494 4147 2053 4147 
L 1259 4147 
z
M 628 4666 
L 2053 4666 
Q 2838 4666 3239 4311 
Q 3641 3956 3641 3272 
Q 3641 2581 3239 2228 
Q 2838 1875 2053 1875 
L 1259 1875 
L 1259 0 
L 628 0 
L 628 4666 
z
" transform="scale(0.015625)"/>
       <path id="DejaVuSans-6f" d="M 1959 3097 
Q 1497 3097 1228 2736 
Q 959 2375 959 1747 
Q 959 1119 1226 758 
Q 1494 397 1959 397 
Q 2419 397 2687 759 
Q 2956 1122 2956 1747 
Q 2956 2369 2687 2733 
Q 2419 3097 1959 3097 
z
M 1959 3584 
Q 2709 3584 3137 3096 
Q 3566 2609 3566 1747 
Q 3566 888 3137 398 
Q 2709 -91 1959 -91 
Q 1206 -91 779 398 
Q 353 888 353 1747 
Q 353 2609 779 3096 
Q 1206 3584 1959 3584 
z
" transform="scale(0.015625)"/>
       <path id="DejaVuSans-69" d="M 603 3500 
L 1178 3500 
L 1178 0 
L 603 0 
L 603 3500 
z
M 603 4863 
L 1178 4863 
L 1178 4134 
L 603 4134 
L 603 4863 
z
" transform="scale(0.015625)"/>
       <path id="DejaVuSans-6e" d="M 3513 2113 
L 3513 0 
L 2938 0 
L 2938 2094 
Q 2938 2591 2744 2837 
Q 2550 3084 2163 3084 
Q 1697 3084 1428 2787 
Q 1159 2491 1159 1978 
L 1159 0 
L 581 0 
L 581 3500 
L 1159 3500 
L 1159 2956 
Q 1366 3272 1645 3428 
Q 1925 3584 2291 3584 
Q 2894 3584 3203 3211 
Q 3513 2838 3513 2113 
z
" transform="scale(0.015625)"/>
       <path id="DejaVuSans-74" d="M 1172 4494 
L 1172 3500 
L 2356 3500 
L 2356 3053 
L 1172 3053 
L 1172 1153 
Q 1172 725 1289 603 
Q 1406 481 1766 481 
L 2356 481 
L 2356 0 
L 1766 0 
Q 1100 0 847 248 
Q 594 497 594 1153 
L 594 3053 
L 172 3053 
L 172 3500 
L 594 3500 
L 594 4494 
L 1172 4494 
z
" transform="scale(0.015625)"/>
       <path id="DejaVuSans-20" transform="scale(0.015625)"/>
       <path id="DejaVuSans-49" d="M 628 4666 
L 1259 4666 
L 1259 0 
L 628 0 
L 628 4666 
z
" transform="scale(0.015625)"/>
       <path id="DejaVuSans-64" d="M 2906 2969 
L 2906 4863 
L 3481 4863 
L 3481 0 
L 2906 0 
L 2906 525 
Q 2725 213 2448 61 
Q 2172 -91 1784 -91 
Q 1150 -91 751 415 
Q 353 922 353 1747 
Q 353 2572 751 3078 
Q 1150 3584 1784 3584 
Q 2172 3584 2448 3432 
Q 2725 3281 2906 2969 
z
M 947 1747 
Q 947 1113 1208 752 
Q 1469 391 1925 391 
Q 2381 391 2643 752 
Q 2906 1113 2906 1747 
Q 2906 2381 2643 2742 
Q 2381 3103 1925 3103 
Q 1469 3103 1208 2742 
Q 947 2381 947 1747 
z
" transform="scale(0.015625)"/>
       <path id="DejaVuSans-65" d="M 3597 1894 
L 3597 1613 
L 953 1613 
Q 991 1019 1311 708 
Q 1631 397 2203 397 
Q 2534 397 2845 478 
Q 3156 559 3463 722 
L 3463 178 
Q 3153 47 2828 -22 
Q 2503 -91 2169 -91 
Q 1331 -91 842 396 
Q 353 884 353 1716 
Q 353 2575 817 3079 
Q 1281 3584 2069 3584 
Q 2775 3584 3186 3129 
Q 3597 2675 3597 1894 
z
M 3022 2063 
Q 3016 2534 2758 2815 
Q 2500 3097 2075 3097 
Q 1594 3097 1305 2825 
Q 1016 2553 972 2059 
L 3022 2063 
z
" transform="scale(0.015625)"/>
       <path id="DejaVuSans-78" d="M 3513 3500 
L 2247 1797 
L 3578 0 
L 2900 0 
L 1881 1375 
L 863 0 
L 184 0 
L 1544 1831 
L 300 3500 
L 978 3500 
L 1906 2253 
L 2834 3500 
L 3513 3500 
z
" transform="scale(0.015625)"/>
      </defs>
      <use xlink:href="#DejaVuSans-50"/>
      <use xlink:href="#DejaVuSans-6f" x="56.677734"/>
      <use xlink:href="#DejaVuSans-69" x="117.859375"/>
      <use xlink:href="#DejaVuSans-6e" x="145.642578"/>
      <use xlink:href="#DejaVuSans-74" x="209.021484"/>
      <use xlink:href="#DejaVuSans-20" x="248.230469"/>
      <use xlink:href="#DejaVuSans-49" x="280.017578"/>
      <use xlink:href="#DejaVuSans-6e" x="309.509766"/>
      <use xlink:href="#DejaVuSans-64" x="372.888672"/>
      <use xlink:href="#DejaVuSans-65" x="436.365234"/>
      <use xlink:href="#DejaVuSans-78" x="496.138672"/>
     </g>
    </g>
   </g>
   <g id="matplotlib.axis_2">
    <g id="ytick_1">
     <g id="line2d_9">
      <defs>
       <path id="m3e18e933bf" d="M 0 0 
L -3.5 0 
" style="stroke: #000000; stroke-width: 0.8"/>
      </defs>
      <g>
       <use xlink:href="#m3e18e933bf" x="540" y="1210.581818" style="stroke: #000000; stroke-width: 0.8"/>
      </g>
     </g>
     <g id="text_10">
      <!-- 0 -->
      <g transform="translate(517.09375 1220.079865)scale(0.25 -0.25)">
       <use xlink:href="#DejaVuSans-30"/>
      </g>
     </g>
    </g>
    <g id="ytick_2">
     <g id="line2d_10">
      <g>
       <use xlink:href="#m3e18e933bf" x="540" y="1073.948847" style="stroke: #000000; stroke-width: 0.8"/>
      </g>
     </g>
     <g id="text_11">
      <!-- 100 -->
      <g transform="translate(485.28125 1083.446894)scale(0.25 -0.25)">
       <use xlink:href="#DejaVuSans-31"/>
       <use xlink:href="#DejaVuSans-30" x="63.623047"/>
       <use xlink:href="#DejaVuSans-30" x="127.246094"/>
      </g>
     </g>
    </g>
    <g id="ytick_3">
     <g id="line2d_11">
      <g>
       <use xlink:href="#m3e18e933bf" x="540" y="937.315876" style="stroke: #000000; stroke-width: 0.8"/>
      </g>
     </g>
     <g id="text_12">
      <!-- 200 -->
      <g transform="translate(485.28125 946.813923)scale(0.25 -0.25)">
       <defs>
        <path id="DejaVuSans-32" d="M 1228 531 
L 3431 531 
L 3431 0 
L 469 0 
L 469 531 
Q 828 903 1448 1529 
Q 2069 2156 2228 2338 
Q 2531 2678 2651 2914 
Q 2772 3150 2772 3378 
Q 2772 3750 2511 3984 
Q 2250 4219 1831 4219 
Q 1534 4219 1204 4116 
Q 875 4013 500 3803 
L 500 4441 
Q 881 4594 1212 4672 
Q 1544 4750 1819 4750 
Q 2544 4750 2975 4387 
Q 3406 4025 3406 3419 
Q 3406 3131 3298 2873 
Q 3191 2616 2906 2266 
Q 2828 2175 2409 1742 
Q 1991 1309 1228 531 
z
" transform="scale(0.015625)"/>
       </defs>
       <use xlink:href="#DejaVuSans-32"/>
       <use xlink:href="#DejaVuSans-30" x="63.623047"/>
       <use xlink:href="#DejaVuSans-30" x="127.246094"/>
      </g>
     </g>
    </g>
    <g id="ytick_4">
     <g id="line2d_12">
      <g>
       <use xlink:href="#m3e18e933bf" x="540" y="800.682905" style="stroke: #000000; stroke-width: 0.8"/>
      </g>
     </g>
     <g id="text_13">
      <!-- 300 -->
      <g transform="translate(485.28125 810.180952)scale(0.25 -0.25)">
       <use xlink:href="#DejaVuSans-33"/>
       <use xlink:href="#DejaVuSans-30" x="63.623047"/>
       <use xlink:href="#DejaVuSans-30" x="127.246094"/>
      </g>
     </g>
    </g>
    <g id="ytick_5">
     <g id="line2d_13">
      <g>
       <use xlink:href="#m3e18e933bf" x="540" y="664.049934" style="stroke: #000000; stroke-width: 0.8"/>
      </g>
     </g>
     <g id="text_14">
      <!-- 400 -->
      <g transform="translate(485.28125 673.54798)scale(0.25 -0.25)">
       <use xlink:href="#DejaVuSans-34"/>
       <use xlink:href="#DejaVuSans-30" x="63.623047"/>
       <use xlink:href="#DejaVuSans-30" x="127.246094"/>
      </g>
     </g>
    </g>
    <g id="ytick_6">
     <g id="line2d_14">
      <g>
       <use xlink:href="#m3e18e933bf" x="540" y="527.416962" style="stroke: #000000; stroke-width: 0.8"/>
      </g>
     </g>
     <g id="text_15">
      <!-- 500 -->
      <g transform="translate(485.28125 536.915009)scale(0.25 -0.25)">
       <use xlink:href="#DejaVuSans-35"/>
       <use xlink:href="#DejaVuSans-30" x="63.623047"/>
       <use xlink:href="#DejaVuSans-30" x="127.246094"/>
      </g>
     </g>
    </g>
    <g id="ytick_7">
     <g id="line2d_15">
      <g>
       <use xlink:href="#m3e18e933bf" x="540" y="390.783991" style="stroke: #000000; stroke-width: 0.8"/>
      </g>
     </g>
     <g id="text_16">
      <!-- 600 -->
      <g transform="translate(485.28125 400.282038)scale(0.25 -0.25)">
       <use xlink:href="#DejaVuSans-36"/>
       <use xlink:href="#DejaVuSans-30" x="63.623047"/>
       <use xlink:href="#DejaVuSans-30" x="127.246094"/>
      </g>
     </g>
    </g>
    <g id="ytick_8">
     <g id="line2d_16">
      <g>
       <use xlink:href="#m3e18e933bf" x="540" y="254.15102" style="stroke: #000000; stroke-width: 0.8"/>
      </g>
     </g>
     <g id="text_17">
      <!-- 700 -->
      <g transform="translate(485.28125 263.649067)scale(0.25 -0.25)">
       <use xlink:href="#DejaVuSans-37"/>
       <use xlink:href="#DejaVuSans-30" x="63.623047"/>
       <use xlink:href="#DejaVuSans-30" x="127.246094"/>
      </g>
     </g>
    </g>
    <g id="text_18">
     <!-- Arc-Length -->
     <g transform="translate(474.002344 811.471484)rotate(-90)scale(0.35 -0.35)">
      <defs>
       <path id="DejaVuSans-41" d="M 2188 4044 
L 1331 1722 
L 3047 1722 
L 2188 4044 
z
M 1831 4666 
L 2547 4666 
L 4325 0 
L 3669 0 
L 3244 1197 
L 1141 1197 
L 716 0 
L 50 0 
L 1831 4666 
z
" transform="scale(0.015625)"/>
       <path id="DejaVuSans-72" d="M 2631 2963 
Q 2534 3019 2420 3045 
Q 2306 3072 2169 3072 
Q 1681 3072 1420 2755 
Q 1159 2438 1159 1844 
L 1159 0 
L 581 0 
L 581 3500 
L 1159 3500 
L 1159 2956 
Q 1341 3275 1631 3429 
Q 1922 3584 2338 3584 
Q 2397 3584 2469 3576 
Q 2541 3569 2628 3553 
L 2631 2963 
z
" transform="scale(0.015625)"/>
       <path id="DejaVuSans-63" d="M 3122 3366 
L 3122 2828 
Q 2878 2963 2633 3030 
Q 2388 3097 2138 3097 
Q 1578 3097 1268 2742 
Q 959 2388 959 1747 
Q 959 1106 1268 751 
Q 1578 397 2138 397 
Q 2388 397 2633 464 
Q 2878 531 3122 666 
L 3122 134 
Q 2881 22 2623 -34 
Q 2366 -91 2075 -91 
Q 1284 -91 818 406 
Q 353 903 353 1747 
Q 353 2603 823 3093 
Q 1294 3584 2113 3584 
Q 2378 3584 2631 3529 
Q 2884 3475 3122 3366 
z
" transform="scale(0.015625)"/>
       <path id="DejaVuSans-2d" d="M 313 2009 
L 1997 2009 
L 1997 1497 
L 313 1497 
L 313 2009 
z
" transform="scale(0.015625)"/>
       <path id="DejaVuSans-4c" d="M 628 4666 
L 1259 4666 
L 1259 531 
L 3531 531 
L 3531 0 
L 628 0 
L 628 4666 
z
" transform="scale(0.015625)"/>
       <path id="DejaVuSans-67" d="M 2906 1791 
Q 2906 2416 2648 2759 
Q 2391 3103 1925 3103 
Q 1463 3103 1205 2759 
Q 947 2416 947 1791 
Q 947 1169 1205 825 
Q 1463 481 1925 481 
Q 2391 481 2648 825 
Q 2906 1169 2906 1791 
z
M 3481 434 
Q 3481 -459 3084 -895 
Q 2688 -1331 1869 -1331 
Q 1566 -1331 1297 -1286 
Q 1028 -1241 775 -1147 
L 775 -588 
Q 1028 -725 1275 -790 
Q 1522 -856 1778 -856 
Q 2344 -856 2625 -561 
Q 2906 -266 2906 331 
L 2906 616 
Q 2728 306 2450 153 
Q 2172 0 1784 0 
Q 1141 0 747 490 
Q 353 981 353 1791 
Q 353 2603 747 3093 
Q 1141 3584 1784 3584 
Q 2172 3584 2450 3431 
Q 2728 3278 2906 2969 
L 2906 3500 
L 3481 3500 
L 3481 434 
z
" transform="scale(0.015625)"/>
       <path id="DejaVuSans-68" d="M 3513 2113 
L 3513 0 
L 2938 0 
L 2938 2094 
Q 2938 2591 2744 2837 
Q 2550 3084 2163 3084 
Q 1697 3084 1428 2787 
Q 1159 2491 1159 1978 
L 1159 0 
L 581 0 
L 581 4863 
L 1159 4863 
L 1159 2956 
Q 1366 3272 1645 3428 
Q 1925 3584 2291 3584 
Q 2894 3584 3203 3211 
Q 3513 2838 3513 2113 
z
" transform="scale(0.015625)"/>
      </defs>
      <use xlink:href="#DejaVuSans-41"/>
      <use xlink:href="#DejaVuSans-72" x="68.408203"/>
      <use xlink:href="#DejaVuSans-63" x="107.271484"/>
      <use xlink:href="#DejaVuSans-2d" x="162.251953"/>
      <use xlink:href="#DejaVuSans-4c" x="198.335938"/>
      <use xlink:href="#DejaVuSans-65" x="252.298828"/>
      <use xlink:href="#DejaVuSans-6e" x="313.822266"/>
      <use xlink:href="#DejaVuSans-67" x="377.201172"/>
      <use xlink:href="#DejaVuSans-74" x="440.677734"/>
      <use xlink:href="#DejaVuSans-68" x="479.886719"/>
     </g>
    </g>
   </g>
   <g id="patch_3">
    <path d="M 540 1260 
L 540 172.8 
" style="fill: none; stroke: #000000; stroke-width: 0.8; stroke-linejoin: miter; stroke-linecap: square"/>
   </g>
   <g id="patch_4">
    <path d="M 3888 1260 
L 3888 172.8 
" style="fill: none; stroke: #000000; stroke-width: 0.8; stroke-linejoin: miter; stroke-linecap: square"/>
   </g>
   <g id="patch_5">
    <path d="M 540 1260 
L 3888 1260 
" style="fill: none; stroke: #000000; stroke-width: 0.8; stroke-linejoin: miter; stroke-linecap: square"/>
   </g>
   <g id="patch_6">
    <path d="M 540 172.8 
L 3888 172.8 
" style="fill: none; stroke: #000000; stroke-width: 0.8; stroke-linejoin: miter; stroke-linecap: square"/>
   </g>
   <g id="text_19">
    <!-- Predicted Arc-Length vs. Ground Truth Arc-Length (at Anchors) -->
    <g transform="translate(1667.007422 165.521094)scale(0.35 -0.35)">
     <defs>
      <path id="DejaVuSans-76" d="M 191 3500 
L 800 3500 
L 1894 563 
L 2988 3500 
L 3597 3500 
L 2284 0 
L 1503 0 
L 191 3500 
z
" transform="scale(0.015625)"/>
      <path id="DejaVuSans-73" d="M 2834 3397 
L 2834 2853 
Q 2591 2978 2328 3040 
Q 2066 3103 1784 3103 
Q 1356 3103 1142 2972 
Q 928 2841 928 2578 
Q 928 2378 1081 2264 
Q 1234 2150 1697 2047 
L 1894 2003 
Q 2506 1872 2764 1633 
Q 3022 1394 3022 966 
Q 3022 478 2636 193 
Q 2250 -91 1575 -91 
Q 1294 -91 989 -36 
Q 684 19 347 128 
L 347 722 
Q 666 556 975 473 
Q 1284 391 1588 391 
Q 1994 391 2212 530 
Q 2431 669 2431 922 
Q 2431 1156 2273 1281 
Q 2116 1406 1581 1522 
L 1381 1569 
Q 847 1681 609 1914 
Q 372 2147 372 2553 
Q 372 3047 722 3315 
Q 1072 3584 1716 3584 
Q 2034 3584 2315 3537 
Q 2597 3491 2834 3397 
z
" transform="scale(0.015625)"/>
      <path id="DejaVuSans-2e" d="M 684 794 
L 1344 794 
L 1344 0 
L 684 0 
L 684 794 
z
" transform="scale(0.015625)"/>
      <path id="DejaVuSans-47" d="M 3809 666 
L 3809 1919 
L 2778 1919 
L 2778 2438 
L 4434 2438 
L 4434 434 
Q 4069 175 3628 42 
Q 3188 -91 2688 -91 
Q 1594 -91 976 548 
Q 359 1188 359 2328 
Q 359 3472 976 4111 
Q 1594 4750 2688 4750 
Q 3144 4750 3555 4637 
Q 3966 4525 4313 4306 
L 4313 3634 
Q 3963 3931 3569 4081 
Q 3175 4231 2741 4231 
Q 1884 4231 1454 3753 
Q 1025 3275 1025 2328 
Q 1025 1384 1454 906 
Q 1884 428 2741 428 
Q 3075 428 3337 486 
Q 3600 544 3809 666 
z
" transform="scale(0.015625)"/>
      <path id="DejaVuSans-75" d="M 544 1381 
L 544 3500 
L 1119 3500 
L 1119 1403 
Q 1119 906 1312 657 
Q 1506 409 1894 409 
Q 2359 409 2629 706 
Q 2900 1003 2900 1516 
L 2900 3500 
L 3475 3500 
L 3475 0 
L 2900 0 
L 2900 538 
Q 2691 219 2414 64 
Q 2138 -91 1772 -91 
Q 1169 -91 856 284 
Q 544 659 544 1381 
z
M 1991 3584 
L 1991 3584 
z
" transform="scale(0.015625)"/>
      <path id="DejaVuSans-54" d="M -19 4666 
L 3928 4666 
L 3928 4134 
L 2272 4134 
L 2272 0 
L 1638 0 
L 1638 4134 
L -19 4134 
L -19 4666 
z
" transform="scale(0.015625)"/>
      <path id="DejaVuSans-28" d="M 1984 4856 
Q 1566 4138 1362 3434 
Q 1159 2731 1159 2009 
Q 1159 1288 1364 580 
Q 1569 -128 1984 -844 
L 1484 -844 
Q 1016 -109 783 600 
Q 550 1309 550 2009 
Q 550 2706 781 3412 
Q 1013 4119 1484 4856 
L 1984 4856 
z
" transform="scale(0.015625)"/>
      <path id="DejaVuSans-61" d="M 2194 1759 
Q 1497 1759 1228 1600 
Q 959 1441 959 1056 
Q 959 750 1161 570 
Q 1363 391 1709 391 
Q 2188 391 2477 730 
Q 2766 1069 2766 1631 
L 2766 1759 
L 2194 1759 
z
M 3341 1997 
L 3341 0 
L 2766 0 
L 2766 531 
Q 2569 213 2275 61 
Q 1981 -91 1556 -91 
Q 1019 -91 701 211 
Q 384 513 384 1019 
Q 384 1609 779 1909 
Q 1175 2209 1959 2209 
L 2766 2209 
L 2766 2266 
Q 2766 2663 2505 2880 
Q 2244 3097 1772 3097 
Q 1472 3097 1187 3025 
Q 903 2953 641 2809 
L 641 3341 
Q 956 3463 1253 3523 
Q 1550 3584 1831 3584 
Q 2591 3584 2966 3190 
Q 3341 2797 3341 1997 
z
" transform="scale(0.015625)"/>
      <path id="DejaVuSans-29" d="M 513 4856 
L 1013 4856 
Q 1481 4119 1714 3412 
Q 1947 2706 1947 2009 
Q 1947 1309 1714 600 
Q 1481 -109 1013 -844 
L 513 -844 
Q 928 -128 1133 580 
Q 1338 1288 1338 2009 
Q 1338 2731 1133 3434 
Q 928 4138 513 4856 
z
" transform="scale(0.015625)"/>
     </defs>
     <use xlink:href="#DejaVuSans-50"/>
     <use xlink:href="#DejaVuSans-72" x="58.552734"/>
     <use xlink:href="#DejaVuSans-65" x="97.416016"/>
     <use xlink:href="#DejaVuSans-64" x="158.939453"/>
     <use xlink:href="#DejaVuSans-69" x="222.416016"/>
     <use xlink:href="#DejaVuSans-63" x="250.199219"/>
     <use xlink:href="#DejaVuSans-74" x="305.179688"/>
     <use xlink:href="#DejaVuSans-65" x="344.388672"/>
     <use xlink:href="#DejaVuSans-64" x="405.912109"/>
     <use xlink:href="#DejaVuSans-20" x="469.388672"/>
     <use xlink:href="#DejaVuSans-41" x="501.175781"/>
     <use xlink:href="#DejaVuSans-72" x="569.583984"/>
     <use xlink:href="#DejaVuSans-63" x="608.447266"/>
     <use xlink:href="#DejaVuSans-2d" x="663.427734"/>
     <use xlink:href="#DejaVuSans-4c" x="699.511719"/>
     <use xlink:href="#DejaVuSans-65" x="753.474609"/>
     <use xlink:href="#DejaVuSans-6e" x="814.998047"/>
     <use xlink:href="#DejaVuSans-67" x="878.376953"/>
     <use xlink:href="#DejaVuSans-74" x="941.853516"/>
     <use xlink:href="#DejaVuSans-68" x="981.0625"/>
     <use xlink:href="#DejaVuSans-20" x="1044.441406"/>
     <use xlink:href="#DejaVuSans-76" x="1076.228516"/>
     <use xlink:href="#DejaVuSans-73" x="1135.408203"/>
     <use xlink:href="#DejaVuSans-2e" x="1187.507812"/>
     <use xlink:href="#DejaVuSans-20" x="1219.294922"/>
     <use xlink:href="#DejaVuSans-47" x="1251.082031"/>
     <use xlink:href="#DejaVuSans-72" x="1328.572266"/>
     <use xlink:href="#DejaVuSans-6f" x="1367.435547"/>
     <use xlink:href="#DejaVuSans-75" x="1428.617188"/>
     <use xlink:href="#DejaVuSans-6e" x="1491.996094"/>
     <use xlink:href="#DejaVuSans-64" x="1555.375"/>
     <use xlink:href="#DejaVuSans-20" x="1618.851562"/>
     <use xlink:href="#DejaVuSans-54" x="1650.638672"/>
     <use xlink:href="#DejaVuSans-72" x="1696.972656"/>
     <use xlink:href="#DejaVuSans-75" x="1738.085938"/>
     <use xlink:href="#DejaVuSans-74" x="1801.464844"/>
     <use xlink:href="#DejaVuSans-68" x="1840.673828"/>
     <use xlink:href="#DejaVuSans-20" x="1904.052734"/>
     <use xlink:href="#DejaVuSans-41" x="1935.839844"/>
     <use xlink:href="#DejaVuSans-72" x="2004.248047"/>
     <use xlink:href="#DejaVuSans-63" x="2043.111328"/>
     <use xlink:href="#DejaVuSans-2d" x="2098.091797"/>
     <use xlink:href="#DejaVuSans-4c" x="2134.175781"/>
     <use xlink:href="#DejaVuSans-65" x="2188.138672"/>
     <use xlink:href="#DejaVuSans-6e" x="2249.662109"/>
     <use xlink:href="#DejaVuSans-67" x="2313.041016"/>
     <use xlink:href="#DejaVuSans-74" x="2376.517578"/>
     <use xlink:href="#DejaVuSans-68" x="2415.726562"/>
     <use xlink:href="#DejaVuSans-20" x="2479.105469"/>
     <use xlink:href="#DejaVuSans-28" x="2510.892578"/>
     <use xlink:href="#DejaVuSans-61" x="2549.90625"/>
     <use xlink:href="#DejaVuSans-74" x="2611.185547"/>
     <use xlink:href="#DejaVuSans-20" x="2650.394531"/>
     <use xlink:href="#DejaVuSans-41" x="2682.181641"/>
     <use xlink:href="#DejaVuSans-6e" x="2750.589844"/>
     <use xlink:href="#DejaVuSans-63" x="2813.96875"/>
     <use xlink:href="#DejaVuSans-68" x="2868.949219"/>
     <use xlink:href="#DejaVuSans-6f" x="2932.328125"/>
     <use xlink:href="#DejaVuSans-72" x="2993.509766"/>
     <use xlink:href="#DejaVuSans-73" x="3034.623047"/>
     <use xlink:href="#DejaVuSans-29" x="3086.722656"/>
    </g>
   </g>
   <g id="legend_1">
    <g id="patch_7">
     <path d="M 557.5 339.58125 
L 1208.160156 339.58125 
Q 1213.160156 339.58125 1213.160156 334.58125 
L 1213.160156 190.3 
Q 1213.160156 185.3 1208.160156 185.3 
L 557.5 185.3 
Q 552.5 185.3 552.5 190.3 
L 552.5 334.58125 
Q 552.5 339.58125 557.5 339.58125 
z
" style="fill: #ffffff; opacity: 0.8; stroke: #cccccc; stroke-linejoin: miter"/>
    </g>
    <g id="line2d_17">
     <path d="M 562.5 205.546094 
L 587.5 205.546094 
L 612.5 205.546094 
" style="fill: none; stroke: #ff8c00; stroke-width: 6; stroke-linecap: square"/>
    </g>
    <g id="text_20">
     <!-- True Arc-Length (Transformed Curve #1) -->
     <g transform="translate(632.5 214.296094)scale(0.25 -0.25)">
      <defs>
       <path id="DejaVuSans-66" d="M 2375 4863 
L 2375 4384 
L 1825 4384 
Q 1516 4384 1395 4259 
Q 1275 4134 1275 3809 
L 1275 3500 
L 2222 3500 
L 2222 3053 
L 1275 3053 
L 1275 0 
L 697 0 
L 697 3053 
L 147 3053 
L 147 3500 
L 697 3500 
L 697 3744 
Q 697 4328 969 4595 
Q 1241 4863 1831 4863 
L 2375 4863 
z
" transform="scale(0.015625)"/>
       <path id="DejaVuSans-6d" d="M 3328 2828 
Q 3544 3216 3844 3400 
Q 4144 3584 4550 3584 
Q 5097 3584 5394 3201 
Q 5691 2819 5691 2113 
L 5691 0 
L 5113 0 
L 5113 2094 
Q 5113 2597 4934 2840 
Q 4756 3084 4391 3084 
Q 3944 3084 3684 2787 
Q 3425 2491 3425 1978 
L 3425 0 
L 2847 0 
L 2847 2094 
Q 2847 2600 2669 2842 
Q 2491 3084 2119 3084 
Q 1678 3084 1418 2786 
Q 1159 2488 1159 1978 
L 1159 0 
L 581 0 
L 581 3500 
L 1159 3500 
L 1159 2956 
Q 1356 3278 1631 3431 
Q 1906 3584 2284 3584 
Q 2666 3584 2933 3390 
Q 3200 3197 3328 2828 
z
" transform="scale(0.015625)"/>
       <path id="DejaVuSans-43" d="M 4122 4306 
L 4122 3641 
Q 3803 3938 3442 4084 
Q 3081 4231 2675 4231 
Q 1875 4231 1450 3742 
Q 1025 3253 1025 2328 
Q 1025 1406 1450 917 
Q 1875 428 2675 428 
Q 3081 428 3442 575 
Q 3803 722 4122 1019 
L 4122 359 
Q 3791 134 3420 21 
Q 3050 -91 2638 -91 
Q 1578 -91 968 557 
Q 359 1206 359 2328 
Q 359 3453 968 4101 
Q 1578 4750 2638 4750 
Q 3056 4750 3426 4639 
Q 3797 4528 4122 4306 
z
" transform="scale(0.015625)"/>
       <path id="DejaVuSans-23" d="M 3272 2816 
L 2363 2816 
L 2100 1772 
L 3016 1772 
L 3272 2816 
z
M 2803 4594 
L 2478 3297 
L 3391 3297 
L 3719 4594 
L 4219 4594 
L 3897 3297 
L 4872 3297 
L 4872 2816 
L 3775 2816 
L 3519 1772 
L 4513 1772 
L 4513 1294 
L 3397 1294 
L 3072 0 
L 2572 0 
L 2894 1294 
L 1978 1294 
L 1656 0 
L 1153 0 
L 1478 1294 
L 494 1294 
L 494 1772 
L 1594 1772 
L 1856 2816 
L 850 2816 
L 850 3297 
L 1978 3297 
L 2297 4594 
L 2803 4594 
z
" transform="scale(0.015625)"/>
      </defs>
      <use xlink:href="#DejaVuSans-54"/>
      <use xlink:href="#DejaVuSans-72" x="46.333984"/>
      <use xlink:href="#DejaVuSans-75" x="87.447266"/>
      <use xlink:href="#DejaVuSans-65" x="150.826172"/>
      <use xlink:href="#DejaVuSans-20" x="212.349609"/>
      <use xlink:href="#DejaVuSans-41" x="244.136719"/>
      <use xlink:href="#DejaVuSans-72" x="312.544922"/>
      <use xlink:href="#DejaVuSans-63" x="351.408203"/>
      <use xlink:href="#DejaVuSans-2d" x="406.388672"/>
      <use xlink:href="#DejaVuSans-4c" x="442.472656"/>
      <use xlink:href="#DejaVuSans-65" x="496.435547"/>
      <use xlink:href="#DejaVuSans-6e" x="557.958984"/>
      <use xlink:href="#DejaVuSans-67" x="621.337891"/>
      <use xlink:href="#DejaVuSans-74" x="684.814453"/>
      <use xlink:href="#DejaVuSans-68" x="724.023438"/>
      <use xlink:href="#DejaVuSans-20" x="787.402344"/>
      <use xlink:href="#DejaVuSans-28" x="819.189453"/>
      <use xlink:href="#DejaVuSans-54" x="858.203125"/>
      <use xlink:href="#DejaVuSans-72" x="904.537109"/>
      <use xlink:href="#DejaVuSans-61" x="945.650391"/>
      <use xlink:href="#DejaVuSans-6e" x="1006.929688"/>
      <use xlink:href="#DejaVuSans-73" x="1070.308594"/>
      <use xlink:href="#DejaVuSans-66" x="1122.408203"/>
      <use xlink:href="#DejaVuSans-6f" x="1157.613281"/>
      <use xlink:href="#DejaVuSans-72" x="1218.794922"/>
      <use xlink:href="#DejaVuSans-6d" x="1258.158203"/>
      <use xlink:href="#DejaVuSans-65" x="1355.570312"/>
      <use xlink:href="#DejaVuSans-64" x="1417.09375"/>
      <use xlink:href="#DejaVuSans-20" x="1480.570312"/>
      <use xlink:href="#DejaVuSans-43" x="1512.357422"/>
      <use xlink:href="#DejaVuSans-75" x="1582.181641"/>
      <use xlink:href="#DejaVuSans-72" x="1645.560547"/>
      <use xlink:href="#DejaVuSans-76" x="1686.673828"/>
      <use xlink:href="#DejaVuSans-65" x="1745.853516"/>
      <use xlink:href="#DejaVuSans-20" x="1807.376953"/>
      <use xlink:href="#DejaVuSans-23" x="1839.164062"/>
      <use xlink:href="#DejaVuSans-31" x="1922.953125"/>
      <use xlink:href="#DejaVuSans-29" x="1986.576172"/>
     </g>
    </g>
    <g id="line2d_18">
     <path d="M 562.5 242.241406 
L 587.5 242.241406 
L 612.5 242.241406 
" style="fill: none; stroke: #aa0000; stroke-width: 6; stroke-linecap: square"/>
    </g>
    <g id="text_21">
     <!-- Predicted Arc-Length (Transformed Curve #1) -->
     <g transform="translate(632.5 250.991406)scale(0.25 -0.25)">
      <use xlink:href="#DejaVuSans-50"/>
      <use xlink:href="#DejaVuSans-72" x="58.552734"/>
      <use xlink:href="#DejaVuSans-65" x="97.416016"/>
      <use xlink:href="#DejaVuSans-64" x="158.939453"/>
      <use xlink:href="#DejaVuSans-69" x="222.416016"/>
      <use xlink:href="#DejaVuSans-63" x="250.199219"/>
      <use xlink:href="#DejaVuSans-74" x="305.179688"/>
      <use xlink:href="#DejaVuSans-65" x="344.388672"/>
      <use xlink:href="#DejaVuSans-64" x="405.912109"/>
      <use xlink:href="#DejaVuSans-20" x="469.388672"/>
      <use xlink:href="#DejaVuSans-41" x="501.175781"/>
      <use xlink:href="#DejaVuSans-72" x="569.583984"/>
      <use xlink:href="#DejaVuSans-63" x="608.447266"/>
      <use xlink:href="#DejaVuSans-2d" x="663.427734"/>
      <use xlink:href="#DejaVuSans-4c" x="699.511719"/>
      <use xlink:href="#DejaVuSans-65" x="753.474609"/>
      <use xlink:href="#DejaVuSans-6e" x="814.998047"/>
      <use xlink:href="#DejaVuSans-67" x="878.376953"/>
      <use xlink:href="#DejaVuSans-74" x="941.853516"/>
      <use xlink:href="#DejaVuSans-68" x="981.0625"/>
      <use xlink:href="#DejaVuSans-20" x="1044.441406"/>
      <use xlink:href="#DejaVuSans-28" x="1076.228516"/>
      <use xlink:href="#DejaVuSans-54" x="1115.242188"/>
      <use xlink:href="#DejaVuSans-72" x="1161.576172"/>
      <use xlink:href="#DejaVuSans-61" x="1202.689453"/>
      <use xlink:href="#DejaVuSans-6e" x="1263.96875"/>
      <use xlink:href="#DejaVuSans-73" x="1327.347656"/>
      <use xlink:href="#DejaVuSans-66" x="1379.447266"/>
      <use xlink:href="#DejaVuSans-6f" x="1414.652344"/>
      <use xlink:href="#DejaVuSans-72" x="1475.833984"/>
      <use xlink:href="#DejaVuSans-6d" x="1515.197266"/>
      <use xlink:href="#DejaVuSans-65" x="1612.609375"/>
      <use xlink:href="#DejaVuSans-64" x="1674.132812"/>
      <use xlink:href="#DejaVuSans-20" x="1737.609375"/>
      <use xlink:href="#DejaVuSans-43" x="1769.396484"/>
      <use xlink:href="#DejaVuSans-75" x="1839.220703"/>
      <use xlink:href="#DejaVuSans-72" x="1902.599609"/>
      <use xlink:href="#DejaVuSans-76" x="1943.712891"/>
      <use xlink:href="#DejaVuSans-65" x="2002.892578"/>
      <use xlink:href="#DejaVuSans-20" x="2064.416016"/>
      <use xlink:href="#DejaVuSans-23" x="2096.203125"/>
      <use xlink:href="#DejaVuSans-31" x="2179.992188"/>
      <use xlink:href="#DejaVuSans-29" x="2243.615234"/>
     </g>
    </g>
    <g id="line2d_19">
     <path d="M 562.5 278.936719 
L 587.5 278.936719 
L 612.5 278.936719 
" style="fill: none; stroke: #444444; stroke-width: 6; stroke-linecap: square"/>
    </g>
    <g id="text_22">
     <!-- True Arc-Length (Transformed Curve #2) -->
     <g transform="translate(632.5 287.686719)scale(0.25 -0.25)">
      <use xlink:href="#DejaVuSans-54"/>
      <use xlink:href="#DejaVuSans-72" x="46.333984"/>
      <use xlink:href="#DejaVuSans-75" x="87.447266"/>
      <use xlink:href="#DejaVuSans-65" x="150.826172"/>
      <use xlink:href="#DejaVuSans-20" x="212.349609"/>
      <use xlink:href="#DejaVuSans-41" x="244.136719"/>
      <use xlink:href="#DejaVuSans-72" x="312.544922"/>
      <use xlink:href="#DejaVuSans-63" x="351.408203"/>
      <use xlink:href="#DejaVuSans-2d" x="406.388672"/>
      <use xlink:href="#DejaVuSans-4c" x="442.472656"/>
      <use xlink:href="#DejaVuSans-65" x="496.435547"/>
      <use xlink:href="#DejaVuSans-6e" x="557.958984"/>
      <use xlink:href="#DejaVuSans-67" x="621.337891"/>
      <use xlink:href="#DejaVuSans-74" x="684.814453"/>
      <use xlink:href="#DejaVuSans-68" x="724.023438"/>
      <use xlink:href="#DejaVuSans-20" x="787.402344"/>
      <use xlink:href="#DejaVuSans-28" x="819.189453"/>
      <use xlink:href="#DejaVuSans-54" x="858.203125"/>
      <use xlink:href="#DejaVuSans-72" x="904.537109"/>
      <use xlink:href="#DejaVuSans-61" x="945.650391"/>
      <use xlink:href="#DejaVuSans-6e" x="1006.929688"/>
      <use xlink:href="#DejaVuSans-73" x="1070.308594"/>
      <use xlink:href="#DejaVuSans-66" x="1122.408203"/>
      <use xlink:href="#DejaVuSans-6f" x="1157.613281"/>
      <use xlink:href="#DejaVuSans-72" x="1218.794922"/>
      <use xlink:href="#DejaVuSans-6d" x="1258.158203"/>
      <use xlink:href="#DejaVuSans-65" x="1355.570312"/>
      <use xlink:href="#DejaVuSans-64" x="1417.09375"/>
      <use xlink:href="#DejaVuSans-20" x="1480.570312"/>
      <use xlink:href="#DejaVuSans-43" x="1512.357422"/>
      <use xlink:href="#DejaVuSans-75" x="1582.181641"/>
      <use xlink:href="#DejaVuSans-72" x="1645.560547"/>
      <use xlink:href="#DejaVuSans-76" x="1686.673828"/>
      <use xlink:href="#DejaVuSans-65" x="1745.853516"/>
      <use xlink:href="#DejaVuSans-20" x="1807.376953"/>
      <use xlink:href="#DejaVuSans-23" x="1839.164062"/>
      <use xlink:href="#DejaVuSans-32" x="1922.953125"/>
      <use xlink:href="#DejaVuSans-29" x="1986.576172"/>
     </g>
    </g>
    <g id="line2d_20">
     <path d="M 562.5 315.632031 
L 587.5 315.632031 
L 612.5 315.632031 
" style="fill: none; stroke: #00aa00; stroke-width: 6; stroke-linecap: square"/>
    </g>
    <g id="text_23">
     <!-- Predicted Arc-Length (Transformed Curve #2) -->
     <g transform="translate(632.5 324.382031)scale(0.25 -0.25)">
      <use xlink:href="#DejaVuSans-50"/>
      <use xlink:href="#DejaVuSans-72" x="58.552734"/>
      <use xlink:href="#DejaVuSans-65" x="97.416016"/>
      <use xlink:href="#DejaVuSans-64" x="158.939453"/>
      <use xlink:href="#DejaVuSans-69" x="222.416016"/>
      <use xlink:href="#DejaVuSans-63" x="250.199219"/>
      <use xlink:href="#DejaVuSans-74" x="305.179688"/>
      <use xlink:href="#DejaVuSans-65" x="344.388672"/>
      <use xlink:href="#DejaVuSans-64" x="405.912109"/>
      <use xlink:href="#DejaVuSans-20" x="469.388672"/>
      <use xlink:href="#DejaVuSans-41" x="501.175781"/>
      <use xlink:href="#DejaVuSans-72" x="569.583984"/>
      <use xlink:href="#DejaVuSans-63" x="608.447266"/>
      <use xlink:href="#DejaVuSans-2d" x="663.427734"/>
      <use xlink:href="#DejaVuSans-4c" x="699.511719"/>
      <use xlink:href="#DejaVuSans-65" x="753.474609"/>
      <use xlink:href="#DejaVuSans-6e" x="814.998047"/>
      <use xlink:href="#DejaVuSans-67" x="878.376953"/>
      <use xlink:href="#DejaVuSans-74" x="941.853516"/>
      <use xlink:href="#DejaVuSans-68" x="981.0625"/>
      <use xlink:href="#DejaVuSans-20" x="1044.441406"/>
      <use xlink:href="#DejaVuSans-28" x="1076.228516"/>
      <use xlink:href="#DejaVuSans-54" x="1115.242188"/>
      <use xlink:href="#DejaVuSans-72" x="1161.576172"/>
      <use xlink:href="#DejaVuSans-61" x="1202.689453"/>
      <use xlink:href="#DejaVuSans-6e" x="1263.96875"/>
      <use xlink:href="#DejaVuSans-73" x="1327.347656"/>
      <use xlink:href="#DejaVuSans-66" x="1379.447266"/>
      <use xlink:href="#DejaVuSans-6f" x="1414.652344"/>
      <use xlink:href="#DejaVuSans-72" x="1475.833984"/>
      <use xlink:href="#DejaVuSans-6d" x="1515.197266"/>
      <use xlink:href="#DejaVuSans-65" x="1612.609375"/>
      <use xlink:href="#DejaVuSans-64" x="1674.132812"/>
      <use xlink:href="#DejaVuSans-20" x="1737.609375"/>
      <use xlink:href="#DejaVuSans-43" x="1769.396484"/>
      <use xlink:href="#DejaVuSans-75" x="1839.220703"/>
      <use xlink:href="#DejaVuSans-72" x="1902.599609"/>
      <use xlink:href="#DejaVuSans-76" x="1943.712891"/>
      <use xlink:href="#DejaVuSans-65" x="2002.892578"/>
      <use xlink:href="#DejaVuSans-20" x="2064.416016"/>
      <use xlink:href="#DejaVuSans-23" x="2096.203125"/>
      <use xlink:href="#DejaVuSans-32" x="2179.992188"/>
      <use xlink:href="#DejaVuSans-29" x="2243.615234"/>
     </g>
    </g>
   </g>
   <g id="line2d_21">
    <path d="M 692.181818 1210.581818 
L 724.189466 1199.15673 
L 759.106901 1186.951329 
L 855.129845 1153.638973 
L 878.408135 1145.188706 
L 898.776638 1137.565612 
L 919.145142 1129.720316 
L 942.423431 1120.505751 
L 968.611507 1109.89585 
L 1064.634452 1070.725416 
L 1087.912741 1061.571301 
L 1111.191031 1052.652541 
L 1131.559534 1045.064162 
L 1151.928038 1037.690054 
L 1172.296541 1030.531692 
L 1195.574831 1022.591665 
L 1224.672693 1012.919952 
L 1268.319485 998.416779 
L 1288.687989 991.415818 
L 1309.056492 984.171249 
L 1329.424996 976.666651 
L 1349.793499 968.928544 
L 1375.981575 958.734653 
L 1445.816444 931.406393 
L 1472.004519 921.487347 
L 1495.282809 912.904558 
L 1521.470885 903.506388 
L 1550.568747 893.328179 
L 1597.125326 877.345379 
L 1637.862333 863.268134 
L 1666.960195 852.959461 
L 1696.058057 842.389103 
L 1774.622284 813.618874 
L 1792.081001 807.566918 
L 1809.539718 801.764053 
L 1826.998436 796.223122 
L 1847.366939 790.04058 
L 1905.562663 772.61966 
L 1923.02138 767.028814 
L 1940.480097 761.18534 
L 1960.848601 754.094321 
L 1987.036677 744.707993 
L 2068.51069 715.369392 
L 2141.255345 689.343234 
L 2158.714062 683.366563 
L 2173.262993 678.584279 
L 2187.811924 674.01697 
L 2202.360855 669.671587 
L 2219.819572 664.710317 
L 2275.10551 649.276726 
L 2289.654441 644.842331 
L 2304.203372 640.151389 
L 2318.752303 635.213665 
L 2336.21102 629.024017 
L 2368.218669 617.334018 
L 2388.587172 610.035186 
L 2403.136103 605.063636 
L 2414.775248 601.296502 
L 2426.414392 597.752982 
L 2438.053537 594.45517 
L 2449.692682 591.41016 
L 2461.331827 588.606243 
L 2472.970972 586.009752 
L 2490.429689 582.376065 
L 2519.527551 576.386939 
L 2534.076482 573.162703 
L 2548.625413 569.710487 
L 2563.174344 566.042906 
L 2583.542847 560.64836 
L 2627.18964 548.970943 
L 2644.648357 544.563099 
L 2662.107075 540.37184 
L 2688.29515 534.361301 
L 2717.393012 527.635802 
L 2734.85173 523.365453 
L 2752.310447 518.845268 
L 2769.769164 514.067838 
L 2787.227881 509.053383 
L 2807.596384 502.945284 
L 2827.964888 496.607422 
L 2854.152964 488.200291 
L 2938.536763 460.811035 
L 2958.905267 454.566043 
L 2982.183556 447.684266 
L 3014.191205 438.498689 
L 3054.928211 426.776376 
L 3084.026073 418.148883 
L 3110.214149 410.151433 
L 3133.492439 402.833682 
L 3156.770728 395.292717 
L 3182.958804 386.547784 
L 3244.064314 365.938004 
L 3261.523031 360.390864 
L 3276.071962 356.011415 
L 3290.620893 351.887533 
L 3305.169824 348.024865 
L 3319.718755 344.397948 
L 3337.177473 340.275983 
L 3395.373197 326.755324 
L 3421.561272 320.309747 
L 3523.403789 294.789401 
L 3540.862507 290.063986 
L 3555.411438 285.891444 
L 3569.960369 281.482448 
L 3584.509299 276.838209 
L 3599.05823 271.978212 
L 3616.516948 265.907504 
L 3636.885451 258.582945 
L 3668.893099 246.796422 
L 3721.269251 227.498162 
L 3735.818182 222.218182 
L 3735.818182 222.218182 
" clip-path="url(#p1f3b67f152)" style="fill: none; stroke: #ff8c00; stroke-width: 6; stroke-linecap: square"/>
   </g>
   <g id="line2d_22">
    <path d="M 692.181818 1210.581818 
L 698.001391 1208.756658 
L 700.911177 1207.625525 
L 706.730749 1205.851197 
L 709.640535 1205.11021 
L 712.550322 1203.907423 
L 718.369894 1202.100385 
L 721.27968 1201.466683 
L 724.189466 1200.328259 
L 727.099253 1199.332163 
L 730.009039 1199.292759 
L 732.918825 1198.422208 
L 735.828611 1197.175649 
L 738.738397 1196.409208 
L 741.648184 1195.938202 
L 747.467756 1194.269464 
L 750.377542 1192.934861 
L 756.197115 1191.512969 
L 759.106901 1190.415844 
L 764.926473 1188.73192 
L 767.836259 1188.22166 
L 770.746046 1187.498227 
L 773.655832 1186.256487 
L 776.565618 1185.354083 
L 779.475404 1184.64232 
L 814.392839 1173.020388 
L 820.212411 1170.99709 
L 846.400487 1161.874744 
L 849.310273 1160.759612 
L 852.220059 1159.828371 
L 869.678776 1153.623322 
L 875.498349 1151.584182 
L 878.408135 1150.396607 
L 881.317921 1149.580209 
L 887.137493 1147.371026 
L 890.04728 1146.469508 
L 901.686424 1142.292106 
L 904.596211 1141.084472 
L 907.505997 1140.034639 
L 910.415783 1139.114429 
L 916.235355 1137.018173 
L 919.145142 1135.856204 
L 922.054928 1134.886178 
L 954.062576 1122.95848 
L 956.972362 1121.692708 
L 959.882148 1120.567669 
L 962.791935 1119.247415 
L 968.611507 1117.093498 
L 974.431079 1114.688433 
L 977.340866 1113.615151 
L 980.250652 1112.715863 
L 986.070224 1110.318628 
L 1000.619155 1104.342901 
L 1003.528941 1103.433739 
L 1006.438728 1102.309835 
L 1009.348514 1101.012355 
L 1012.2583 1100.071321 
L 1015.168086 1098.956469 
L 1018.077872 1097.572862 
L 1020.987659 1096.383184 
L 1023.897445 1095.020945 
L 1026.807231 1094.107873 
L 1029.717017 1092.733034 
L 1041.356162 1088.234223 
L 1044.265948 1086.97169 
L 1047.175734 1086.188623 
L 1050.085521 1084.800501 
L 1058.814879 1081.643885 
L 1061.724665 1080.748528 
L 1073.36381 1076.070605 
L 1085.002955 1071.79905 
L 1087.912741 1070.557387 
L 1090.822527 1069.740588 
L 1093.732314 1068.641415 
L 1099.551886 1066.17115 
L 1105.371458 1064.128855 
L 1111.191031 1062.119682 
L 1114.100817 1061.072444 
L 1117.010603 1059.66411 
L 1119.920389 1058.775927 
L 1122.830176 1057.756425 
L 1125.739962 1057.240525 
L 1128.649748 1055.735965 
L 1137.379107 1052.741407 
L 1140.288893 1051.909264 
L 1143.198679 1050.531357 
L 1146.108465 1049.722526 
L 1149.018251 1048.683811 
L 1151.928038 1048.271708 
L 1154.837824 1047.248454 
L 1157.74761 1045.63282 
L 1160.657396 1044.965227 
L 1163.567182 1043.903244 
L 1166.476969 1043.183274 
L 1172.296541 1041.108744 
L 1175.206327 1039.756574 
L 1181.0259 1037.947276 
L 1183.935686 1036.939546 
L 1186.845472 1036.527415 
L 1189.755258 1034.997783 
L 1192.665044 1034.035299 
L 1195.574831 1033.332083 
L 1198.484617 1032.124542 
L 1201.394403 1031.562171 
L 1204.304189 1030.22944 
L 1210.123762 1028.40354 
L 1215.943334 1026.600995 
L 1218.85312 1025.986699 
L 1224.672693 1024.024017 
L 1227.582479 1023.235426 
L 1230.492265 1021.975497 
L 1236.311837 1020.363957 
L 1239.221624 1019.14384 
L 1242.13141 1018.212857 
L 1245.041196 1017.504104 
L 1253.770554 1014.682093 
L 1256.680341 1013.601789 
L 1259.590127 1012.871467 
L 1262.499913 1011.757875 
L 1265.409699 1011.28663 
L 1271.229272 1009.379513 
L 1274.139058 1008.18461 
L 1277.048844 1007.449126 
L 1282.868416 1005.467841 
L 1291.597775 1002.584817 
L 1320.695637 992.712692 
L 1326.515209 990.565356 
L 1329.424996 989.627973 
L 1335.244568 987.407664 
L 1338.154354 986.334954 
L 1341.06414 985.440879 
L 1364.34243 976.492771 
L 1367.252216 975.533912 
L 1370.162002 974.258449 
L 1373.071789 973.351068 
L 1390.530506 966.674829 
L 1393.440292 965.459345 
L 1410.899009 959.214661 
L 1413.808795 957.890461 
L 1416.718582 956.73341 
L 1419.628368 955.720398 
L 1422.538154 954.454575 
L 1425.44794 953.577219 
L 1437.087085 949.195345 
L 1439.996871 947.89485 
L 1445.816444 945.637395 
L 1451.636016 943.570542 
L 1454.545802 942.351078 
L 1460.365375 940.143315 
L 1463.275161 939.432336 
L 1466.184947 938.49249 
L 1469.094733 937.772776 
L 1477.824092 934.471815 
L 1480.733878 933.672617 
L 1483.643664 932.466406 
L 1486.55345 931.519201 
L 1489.463237 930.252039 
L 1492.373023 929.53483 
L 1498.192595 927.569539 
L 1501.102381 926.748417 
L 1506.921954 924.626093 
L 1509.83174 923.941629 
L 1515.651312 921.689529 
L 1518.561099 920.873195 
L 1521.470885 920.338111 
L 1524.380671 919.373595 
L 1527.290457 917.926269 
L 1533.11003 916.160101 
L 1536.019816 915.239025 
L 1538.929602 914.462644 
L 1541.839388 913.137803 
L 1544.749174 912.196937 
L 1547.658961 911.528242 
L 1556.388319 908.582446 
L 1559.298105 907.798431 
L 1562.207892 906.533292 
L 1565.117678 905.523364 
L 1568.027464 904.829318 
L 1570.93725 903.652891 
L 1573.847036 902.716904 
L 1576.756823 902.026612 
L 1591.305754 897.061207 
L 1597.125326 895.225067 
L 1600.035112 894.412294 
L 1602.944898 893.292827 
L 1617.493829 888.554902 
L 1623.313402 886.489884 
L 1646.591691 878.657821 
L 1649.501477 877.423426 
L 1652.411264 876.449633 
L 1655.32105 875.623644 
L 1658.230836 874.304757 
L 1661.140622 873.198907 
L 1664.050408 872.466545 
L 1666.960195 871.242452 
L 1672.779767 869.238705 
L 1675.689553 868.057828 
L 1678.599339 867.239798 
L 1681.509126 866.237721 
L 1684.418912 865.065162 
L 1687.328698 864.246235 
L 1704.787415 858.052926 
L 1707.697201 856.608432 
L 1710.606988 855.895309 
L 1722.246132 851.83497 
L 1725.155919 850.465658 
L 1728.065705 849.748659 
L 1730.975491 848.464641 
L 1765.892925 836.491364 
L 1768.802712 835.227377 
L 1771.712498 834.529828 
L 1774.622284 833.068509 
L 1777.53207 832.60557 
L 1780.441856 831.431609 
L 1783.351643 830.721865 
L 1786.261429 829.71456 
L 1789.171215 828.453658 
L 1792.081001 827.959969 
L 1806.629932 823.532222 
L 1809.539718 823.029649 
L 1812.449505 822.165349 
L 1815.359291 820.856326 
L 1821.178863 819.599242 
L 1824.088649 818.473873 
L 1826.998436 817.623282 
L 1829.908222 817.222603 
L 1835.727794 815.477957 
L 1838.63758 815.044959 
L 1841.547367 814.481619 
L 1844.457153 814.217721 
L 1850.276725 812.44009 
L 1853.186511 812.013828 
L 1859.006084 810.767601 
L 1861.91587 809.465915 
L 1864.825656 810.103234 
L 1867.735442 809.097493 
L 1870.645229 808.46361 
L 1873.555015 808.602333 
L 1882.284373 806.891793 
L 1885.19416 806.532638 
L 1888.103946 805.838877 
L 1891.013732 805.336835 
L 1893.923518 805.247831 
L 1896.833304 804.409039 
L 1902.652877 803.247095 
L 1905.562663 803.104147 
L 1908.472449 802.13147 
L 1914.292022 801.11946 
L 1917.201808 801.083846 
L 1920.111594 800.143968 
L 1923.02138 799.013992 
L 1925.931166 798.763893 
L 1928.840953 797.917712 
L 1937.570311 796.084662 
L 1940.480097 795.233296 
L 1943.389884 794.0495 
L 1946.29967 793.597251 
L 1955.029028 791.275497 
L 1957.938815 790.294846 
L 1960.848601 789.46141 
L 1963.758387 789.100269 
L 1966.668173 788.189213 
L 1969.577959 787.009257 
L 1972.487746 786.55319 
L 1975.397532 785.644404 
L 1978.307318 784.56784 
L 1981.217104 783.801197 
L 1987.036677 781.80585 
L 1989.946463 781.009006 
L 1992.856249 779.859334 
L 1995.766035 779.323035 
L 1998.675821 778.081963 
L 2001.585608 777.446258 
L 2004.495394 776.347763 
L 2010.314966 774.660222 
L 2013.224752 773.924847 
L 2016.134539 772.790407 
L 2019.044325 772.062479 
L 2021.954111 770.761537 
L 2024.863897 770.104219 
L 2030.683469 768.249353 
L 2033.593256 767.54845 
L 2036.503042 766.468506 
L 2045.2324 763.79553 
L 2048.142187 762.639107 
L 2051.051973 761.775088 
L 2053.961759 761.194387 
L 2059.781331 759.254739 
L 2062.691118 758.566428 
L 2065.600904 757.666869 
L 2068.51069 756.273345 
L 2071.420476 755.644103 
L 2080.149835 753.061579 
L 2083.059621 752.050656 
L 2085.969407 751.25508 
L 2088.879193 750.006106 
L 2091.78898 749.610012 
L 2094.698766 748.661569 
L 2097.608552 747.264892 
L 2100.518338 746.622329 
L 2103.428124 745.774489 
L 2106.337911 744.57827 
L 2109.247697 743.886549 
L 2112.157483 742.909593 
L 2115.067269 741.657926 
L 2117.977055 740.982143 
L 2132.525986 736.151622 
L 2135.435773 735.026911 
L 2138.345559 734.431849 
L 2144.165131 732.117063 
L 2147.074917 731.301099 
L 2149.984704 730.196059 
L 2152.89449 729.318165 
L 2155.804276 728.248828 
L 2158.714062 727.444943 
L 2170.353207 723.535164 
L 2181.992352 720.248107 
L 2184.902138 719.142881 
L 2187.811924 718.452142 
L 2190.72171 717.470918 
L 2196.541283 715.806195 
L 2199.451069 714.848045 
L 2202.360855 714.037555 
L 2208.180428 712.666551 
L 2214 711.087089 
L 2216.909786 710.143304 
L 2225.639145 707.884538 
L 2234.368503 705.601718 
L 2237.27829 704.907804 
L 2240.188076 704.389807 
L 2243.097862 703.285283 
L 2246.007648 702.781094 
L 2251.827221 701.353861 
L 2254.737007 700.671233 
L 2257.646793 699.713152 
L 2260.556579 699.439574 
L 2266.376152 697.4948 
L 2269.285938 696.99449 
L 2272.195724 696.209181 
L 2275.10551 695.707212 
L 2278.015296 695.022794 
L 2280.925083 693.855422 
L 2283.834869 692.856419 
L 2286.744655 692.326922 
L 2289.654441 691.271734 
L 2292.564227 690.745775 
L 2295.474014 689.702619 
L 2298.3838 689.312995 
L 2301.293586 688.509425 
L 2307.113158 686.572373 
L 2310.022945 685.790443 
L 2312.932731 684.695171 
L 2315.842517 683.88076 
L 2318.752303 682.793522 
L 2321.662089 682.265941 
L 2324.571876 681.337154 
L 2327.481662 680.17017 
L 2333.301234 678.314145 
L 2336.21102 677.341746 
L 2339.120807 676.680786 
L 2342.030593 675.410656 
L 2347.850165 673.841851 
L 2353.669738 671.463985 
L 2359.48931 669.580601 
L 2362.399096 668.360318 
L 2365.308882 667.634582 
L 2368.218669 666.381516 
L 2371.128455 665.375165 
L 2374.038241 664.701876 
L 2376.948027 663.713553 
L 2379.857813 662.484957 
L 2391.496958 658.483966 
L 2403.136103 654.909609 
L 2406.045889 653.824258 
L 2408.955675 653.144199 
L 2420.59482 649.709073 
L 2438.053537 644.970631 
L 2440.963323 644.479127 
L 2443.87311 643.813438 
L 2446.782896 642.815895 
L 2452.602468 641.58446 
L 2461.331827 639.71903 
L 2464.241613 639.383217 
L 2470.061185 638.32424 
L 2472.970972 637.505668 
L 2478.790544 636.518201 
L 2481.70033 636.350002 
L 2484.610116 635.877594 
L 2487.519903 635.775784 
L 2490.429689 635.388698 
L 2493.339475 634.792972 
L 2496.249261 634.389583 
L 2499.159047 634.350567 
L 2502.068834 633.404274 
L 2504.97862 633.298252 
L 2507.888406 632.724496 
L 2510.798192 633.27103 
L 2513.707978 632.108204 
L 2516.617765 632.412079 
L 2519.527551 632.456074 
L 2522.437337 632.127929 
L 2525.347123 632.123954 
L 2528.256909 631.883491 
L 2531.166696 630.985205 
L 2534.076482 630.675884 
L 2536.986268 630.655768 
L 2539.896054 630.764744 
L 2545.715627 629.512886 
L 2548.625413 629.811925 
L 2551.535199 629.509301 
L 2554.444985 628.482022 
L 2557.354771 628.440788 
L 2563.174344 627.652598 
L 2566.08413 627.630322 
L 2568.993916 626.496392 
L 2571.903702 626.842958 
L 2574.813489 625.450724 
L 2577.723275 626.052533 
L 2580.633061 624.402645 
L 2583.542847 624.917197 
L 2586.452633 623.353322 
L 2589.36242 623.448432 
L 2592.272206 622.920867 
L 2595.181992 622.626407 
L 2598.091778 622.452993 
L 2601.001564 621.477179 
L 2603.911351 620.764595 
L 2606.821137 619.736438 
L 2609.730923 619.424364 
L 2612.640709 619.271589 
L 2615.550495 617.925327 
L 2618.460282 617.214612 
L 2621.370068 617.344142 
L 2624.279854 615.785084 
L 2627.18964 615.066566 
L 2630.099426 615.409125 
L 2633.009213 613.348446 
L 2635.918999 612.840396 
L 2641.738571 611.369274 
L 2644.648357 610.775547 
L 2647.558144 610.062111 
L 2650.46793 609.227621 
L 2653.377716 608.737061 
L 2656.287502 607.824085 
L 2659.197288 607.44849 
L 2665.016861 606.17396 
L 2667.926647 605.10927 
L 2673.746219 603.831692 
L 2682.475578 602.187744 
L 2685.385364 601.634114 
L 2691.204937 600.70389 
L 2694.114723 600.039185 
L 2697.024509 599.537503 
L 2699.934295 599.240276 
L 2702.844081 598.774564 
L 2705.753868 598.598457 
L 2708.663654 598.09126 
L 2711.57344 597.289684 
L 2714.483226 597.093565 
L 2717.393012 597.06313 
L 2723.212585 596.100317 
L 2729.032157 595.846739 
L 2731.941943 595.435617 
L 2737.761516 594.989725 
L 2740.671302 594.064214 
L 2743.581088 594.108157 
L 2749.400661 593.871226 
L 2752.310447 594.225849 
L 2755.220233 593.619178 
L 2758.130019 592.003378 
L 2761.039805 591.266858 
L 2763.949592 592.240323 
L 2766.859378 591.338598 
L 2769.769164 591.143943 
L 2772.67895 591.707282 
L 2775.588736 589.086371 
L 2778.498523 589.509944 
L 2781.408309 591.278341 
L 2784.318095 589.06081 
L 2787.227881 590.17594 
L 2793.047454 589.930643 
L 2795.95724 590.793761 
L 2798.867026 587.032945 
L 2801.776812 589.172384 
L 2804.686598 588.856877 
L 2807.596384 587.505944 
L 2810.506171 587.192856 
L 2813.415957 584.717312 
L 2816.325743 584.886895 
L 2819.235529 584.486805 
L 2822.145315 587.155461 
L 2825.055102 586.904722 
L 2827.964888 582.742047 
L 2830.874674 582.380381 
L 2833.78446 586.196159 
L 2836.694246 584.57125 
L 2845.423605 583.070487 
L 2848.333391 581.71015 
L 2851.243177 581.233464 
L 2854.152964 581.657165 
L 2857.06275 581.20361 
L 2859.972536 577.818211 
L 2862.882322 577.515679 
L 2865.792108 578.22559 
L 2868.701895 577.878951 
L 2871.611681 576.778702 
L 2874.521467 576.062349 
L 2877.431253 575.582242 
L 2880.341039 574.80548 
L 2883.250826 573.788984 
L 2886.160612 573.670361 
L 2891.980184 571.070432 
L 2894.88997 570.783611 
L 2897.799757 569.774647 
L 2900.709543 568.478371 
L 2903.619329 567.628683 
L 2906.529115 567.11277 
L 2909.438901 566.193356 
L 2912.348688 565.543352 
L 2915.258474 564.229271 
L 2918.16826 563.686111 
L 2921.078046 562.447892 
L 2923.987832 561.722298 
L 2926.897619 560.70792 
L 2929.807405 559.868276 
L 2932.717191 558.897807 
L 2935.626977 558.35191 
L 2941.44655 556.312389 
L 2944.356336 555.2465 
L 2947.266122 554.545908 
L 2950.175908 553.487632 
L 2955.995481 551.730053 
L 2958.905267 551.062278 
L 2970.544412 547.483796 
L 2973.454198 546.718059 
L 2976.363984 545.792703 
L 2982.183556 544.154265 
L 2988.003129 542.517064 
L 2996.732487 540.121886 
L 3005.461846 537.780873 
L 3008.371632 536.841677 
L 3022.920563 532.960785 
L 3031.649922 530.648688 
L 3034.559708 529.683997 
L 3037.469494 528.863294 
L 3043.289067 527.559343 
L 3046.198853 526.7786 
L 3049.108639 525.832623 
L 3052.018425 525.199068 
L 3054.928211 523.927936 
L 3057.837998 523.592024 
L 3060.747784 522.556161 
L 3066.567356 520.930916 
L 3069.477142 520.181053 
L 3072.386929 519.299887 
L 3075.296715 518.615195 
L 3081.116287 516.859856 
L 3098.575004 511.714543 
L 3101.484791 510.724296 
L 3104.394577 509.97083 
L 3107.304363 508.873051 
L 3110.214149 508.215288 
L 3116.033722 506.44506 
L 3118.943508 505.280078 
L 3121.853294 504.536704 
L 3124.76308 503.513228 
L 3127.672866 502.173953 
L 3130.582653 501.257627 
L 3133.492439 500.882609 
L 3139.312011 498.936835 
L 3148.04137 496.259585 
L 3150.951156 494.900401 
L 3153.860942 494.332367 
L 3156.770728 493.057687 
L 3159.680515 492.482598 
L 3162.590301 491.216747 
L 3165.500087 490.65855 
L 3168.409873 489.390242 
L 3171.319659 488.794381 
L 3174.229446 487.573084 
L 3177.139232 486.912748 
L 3180.049018 485.883291 
L 3182.958804 484.67315 
L 3185.86859 484.247457 
L 3188.778376 482.768912 
L 3200.417521 479.142012 
L 3203.327307 478.742541 
L 3206.237094 477.58432 
L 3217.876238 474.057049 
L 3220.786025 473.320606 
L 3223.695811 471.967715 
L 3226.605597 471.142243 
L 3229.515383 470.525961 
L 3235.334956 468.881855 
L 3241.154528 467.079012 
L 3244.064314 466.250675 
L 3246.9741 465.768961 
L 3249.883887 464.897906 
L 3252.793673 464.483954 
L 3255.703459 463.655284 
L 3258.613245 462.616418 
L 3261.523031 462.173963 
L 3264.432818 461.255247 
L 3267.342604 460.751651 
L 3270.25239 459.171789 
L 3273.162176 459.414912 
L 3278.981749 457.362651 
L 3284.801321 455.923886 
L 3290.620893 455.17859 
L 3293.53068 453.864284 
L 3296.440466 453.610375 
L 3299.350252 453.09608 
L 3302.260038 452.380919 
L 3305.169824 452.022445 
L 3310.989397 450.790681 
L 3313.899183 450.023928 
L 3316.808969 449.10556 
L 3319.718755 448.972639 
L 3328.448114 447.264298 
L 3334.267686 445.406022 
L 3337.177473 445.278856 
L 3340.087259 444.846318 
L 3345.906831 443.763092 
L 3348.816617 443.44853 
L 3351.726404 442.40079 
L 3354.63619 442.561737 
L 3357.545976 441.426431 
L 3366.275335 439.873332 
L 3369.185121 439.119784 
L 3372.094907 438.66249 
L 3375.004693 438.42053 
L 3377.914479 437.782491 
L 3380.824266 437.357804 
L 3383.734052 437.264531 
L 3386.643838 436.794081 
L 3389.553624 435.853048 
L 3392.46341 435.690819 
L 3398.282983 434.630797 
L 3401.192769 433.798025 
L 3404.102555 433.297306 
L 3412.831914 432.157003 
L 3415.7417 430.986893 
L 3418.651486 430.849145 
L 3421.561272 430.002105 
L 3427.380845 428.751998 
L 3430.290631 428.594013 
L 3433.200417 428.155749 
L 3436.110203 427.21316 
L 3439.01999 426.503084 
L 3441.929776 426.300992 
L 3444.839562 425.070728 
L 3447.749348 424.354306 
L 3450.659134 424.419513 
L 3453.568921 422.929996 
L 3459.388493 421.473074 
L 3462.298279 421.854342 
L 3465.208065 420.184567 
L 3488.486355 414.367181 
L 3491.396141 413.780631 
L 3494.305927 413.072938 
L 3497.215714 412.225702 
L 3500.1255 411.855527 
L 3503.035286 411.154598 
L 3505.945072 410.095565 
L 3514.674431 408.040388 
L 3517.584217 407.641679 
L 3520.494003 406.617582 
L 3526.313576 405.197192 
L 3529.223362 404.585478 
L 3535.042934 403.129558 
L 3546.682079 400.452682 
L 3549.591865 399.419847 
L 3552.501651 399.067149 
L 3555.411438 398.407387 
L 3558.321224 396.937532 
L 3561.23101 396.455572 
L 3564.140796 395.723857 
L 3567.050582 394.829211 
L 3569.960369 394.251093 
L 3572.870155 392.987703 
L 3578.689727 391.381744 
L 3584.509299 389.986639 
L 3590.328872 388.218705 
L 3593.238658 387.618981 
L 3596.148444 386.432331 
L 3604.877803 383.785629 
L 3607.787589 382.770835 
L 3610.697375 381.925392 
L 3616.516948 379.908457 
L 3619.426734 379.031644 
L 3622.33652 377.907467 
L 3631.065879 375.027907 
L 3633.975665 373.804104 
L 3639.795237 372.12751 
L 3642.705023 370.680229 
L 3645.61481 370.120896 
L 3651.434382 368.118793 
L 3654.344168 366.501417 
L 3657.253954 365.44398 
L 3660.163741 364.632813 
L 3665.983313 362.25583 
L 3668.893099 361.313154 
L 3671.802885 360.04815 
L 3674.712672 359.37496 
L 3683.44203 355.836839 
L 3686.351816 354.787179 
L 3689.261603 353.972588 
L 3692.171389 352.693303 
L 3695.081175 351.606829 
L 3697.990961 351.009866 
L 3700.900747 349.532891 
L 3703.810534 348.56088 
L 3706.72032 347.175487 
L 3709.630106 346.220846 
L 3718.359465 342.980773 
L 3721.269251 342.188448 
L 3724.179037 340.912132 
L 3727.088823 340.526534 
L 3732.908396 338.596523 
L 3735.818182 336.976901 
L 3735.818182 336.976901 
" clip-path="url(#p1f3b67f152)" style="fill: none; stroke: #aa0000; stroke-width: 6; stroke-linecap: square"/>
   </g>
   <g id="line2d_23">
    <path d="M 692.181818 1210.581818 
L 724.189466 1199.15673 
L 759.106901 1186.951329 
L 855.129845 1153.638973 
L 878.408135 1145.188706 
L 898.776638 1137.565612 
L 919.145142 1129.720316 
L 942.423431 1120.505751 
L 968.611507 1109.89585 
L 1064.634452 1070.725416 
L 1087.912741 1061.571301 
L 1111.191031 1052.652541 
L 1131.559534 1045.064162 
L 1151.928038 1037.690054 
L 1172.296541 1030.531692 
L 1195.574831 1022.591665 
L 1224.672693 1012.919952 
L 1268.319485 998.416779 
L 1288.687989 991.415818 
L 1309.056492 984.171249 
L 1329.424996 976.666651 
L 1349.793499 968.928544 
L 1375.981575 958.734653 
L 1445.816444 931.406393 
L 1472.004519 921.487347 
L 1495.282809 912.904558 
L 1521.470885 903.506388 
L 1550.568747 893.328179 
L 1597.125326 877.345379 
L 1637.862333 863.268134 
L 1666.960195 852.959461 
L 1696.058057 842.389103 
L 1774.622284 813.618874 
L 1792.081001 807.566918 
L 1809.539718 801.764053 
L 1826.998436 796.223122 
L 1847.366939 790.04058 
L 1905.562663 772.61966 
L 1923.02138 767.028814 
L 1940.480097 761.18534 
L 1960.848601 754.094321 
L 1987.036677 744.707993 
L 2068.51069 715.369392 
L 2141.255345 689.343234 
L 2158.714062 683.366563 
L 2173.262993 678.584279 
L 2187.811924 674.01697 
L 2202.360855 669.671587 
L 2219.819572 664.710317 
L 2275.10551 649.276726 
L 2289.654441 644.842331 
L 2304.203372 640.151389 
L 2318.752303 635.213665 
L 2336.21102 629.024017 
L 2368.218669 617.334018 
L 2388.587172 610.035186 
L 2403.136103 605.063636 
L 2414.775248 601.296502 
L 2426.414392 597.752982 
L 2438.053537 594.45517 
L 2449.692682 591.41016 
L 2461.331827 588.606243 
L 2472.970972 586.009752 
L 2490.429689 582.376065 
L 2519.527551 576.386939 
L 2534.076482 573.162703 
L 2548.625413 569.710487 
L 2563.174344 566.042906 
L 2583.542847 560.64836 
L 2627.18964 548.970943 
L 2644.648357 544.563099 
L 2662.107075 540.37184 
L 2688.29515 534.361301 
L 2717.393012 527.635802 
L 2734.85173 523.365453 
L 2752.310447 518.845268 
L 2769.769164 514.067838 
L 2787.227881 509.053383 
L 2807.596384 502.945284 
L 2827.964888 496.607422 
L 2854.152964 488.200291 
L 2938.536763 460.811035 
L 2958.905267 454.566043 
L 2982.183556 447.684266 
L 3014.191205 438.498689 
L 3054.928211 426.776376 
L 3084.026073 418.148883 
L 3110.214149 410.151433 
L 3133.492439 402.833682 
L 3156.770728 395.292717 
L 3182.958804 386.547784 
L 3244.064314 365.938004 
L 3261.523031 360.390864 
L 3276.071962 356.011415 
L 3290.620893 351.887533 
L 3305.169824 348.024865 
L 3319.718755 344.397948 
L 3337.177473 340.275983 
L 3395.373197 326.755324 
L 3421.561272 320.309747 
L 3523.403789 294.789401 
L 3540.862507 290.063986 
L 3555.411438 285.891444 
L 3569.960369 281.482448 
L 3584.509299 276.838209 
L 3599.05823 271.978212 
L 3616.516948 265.907504 
L 3636.885451 258.582945 
L 3668.893099 246.796422 
L 3721.269251 227.498162 
L 3735.818182 222.218182 
L 3735.818182 222.218182 
" clip-path="url(#p1f3b67f152)" style="fill: none; stroke: #444444; stroke-width: 6; stroke-linecap: square"/>
   </g>
   <g id="line2d_24">
    <path d="M 692.181818 1210.581818 
L 695.091604 1209.441911 
L 700.911177 1207.604094 
L 709.640535 1204.997201 
L 712.550322 1203.584672 
L 715.460108 1202.68086 
L 718.369894 1202.118567 
L 732.918825 1197.039401 
L 735.828611 1196.268934 
L 741.648184 1194.001662 
L 744.55797 1193.231397 
L 756.197115 1189.284436 
L 759.106901 1188.553024 
L 762.016687 1187.452657 
L 767.836259 1185.714684 
L 770.746046 1184.716469 
L 773.655832 1183.867276 
L 779.475404 1181.957296 
L 785.294977 1180.056027 
L 794.024335 1177.24357 
L 796.934121 1176.580159 
L 799.843908 1175.391722 
L 802.753694 1175.015166 
L 805.66348 1173.688538 
L 808.573266 1172.716285 
L 811.483052 1172.497827 
L 814.392839 1171.197964 
L 823.122197 1168.667686 
L 826.031983 1167.689349 
L 828.94177 1167.023194 
L 831.851556 1166.214134 
L 834.761342 1165.11302 
L 837.671128 1165.0574 
L 840.580914 1163.434097 
L 843.490701 1163.462261 
L 846.400487 1161.785018 
L 849.310273 1161.890748 
L 852.220059 1160.818969 
L 855.129845 1160.35025 
L 858.039631 1158.7148 
L 860.949418 1157.82632 
L 863.859204 1157.960268 
L 872.588562 1155.983773 
L 875.498349 1154.142038 
L 878.408135 1152.973325 
L 884.227707 1151.265382 
L 887.137493 1151.465446 
L 890.04728 1149.559048 
L 892.957066 1150.000624 
L 895.866852 1147.873489 
L 898.776638 1147.012309 
L 901.686424 1148.4842 
L 904.596211 1147.768412 
L 907.505997 1144.555822 
L 910.415783 1145.79889 
L 916.235355 1144.455492 
L 919.145142 1141.413189 
L 922.054928 1143.144518 
L 924.964714 1139.878525 
L 927.8745 1139.010552 
L 930.784286 1141.245056 
L 933.694073 1137.641116 
L 936.603859 1140.544766 
L 939.513645 1138.100038 
L 942.423431 1138.963237 
L 948.243004 1137.405361 
L 951.15279 1135.741259 
L 954.062576 1134.999349 
L 956.972362 1135.106624 
L 959.882148 1131.158508 
L 962.791935 1133.601428 
L 965.701721 1129.316077 
L 968.611507 1132.126423 
L 971.521293 1131.402646 
L 974.431079 1126.654797 
L 977.340866 1125.782369 
L 980.250652 1128.673323 
L 983.160438 1128.005066 
L 986.070224 1123.229764 
L 988.98001 1122.374613 
L 991.889797 1121.130178 
L 994.799583 1120.57366 
L 997.709369 1119.685709 
L 1000.619155 1118.05881 
L 1003.528941 1117.04911 
L 1006.438728 1116.19045 
L 1009.348514 1114.630243 
L 1012.2583 1114.066796 
L 1015.168086 1112.638872 
L 1018.077872 1113.770407 
L 1020.987659 1110.662987 
L 1023.897445 1109.704149 
L 1026.807231 1110.380986 
L 1029.717017 1110.601472 
L 1038.446376 1107.56048 
L 1041.356162 1105.805703 
L 1044.265948 1105.577233 
L 1047.175734 1104.310378 
L 1050.085521 1103.96719 
L 1055.905093 1101.858767 
L 1058.814879 1099.981565 
L 1061.724665 1099.04399 
L 1064.634452 1098.894056 
L 1067.544238 1097.682592 
L 1073.36381 1095.664056 
L 1076.273596 1094.298235 
L 1079.183383 1093.817235 
L 1085.002955 1091.612109 
L 1087.912741 1091.159287 
L 1090.822527 1089.077595 
L 1093.732314 1088.975617 
L 1096.6421 1087.690012 
L 1099.551886 1086.676174 
L 1102.461672 1086.499718 
L 1105.371458 1085.488355 
L 1111.191031 1083.186547 
L 1114.100817 1082.394611 
L 1117.010603 1080.959013 
L 1119.920389 1079.863794 
L 1122.830176 1079.272858 
L 1125.739962 1077.529186 
L 1128.649748 1076.648549 
L 1134.46932 1074.502214 
L 1137.379107 1074.122257 
L 1140.288893 1073.090449 
L 1146.108465 1070.404848 
L 1154.837824 1067.521776 
L 1157.74761 1066.800032 
L 1166.476969 1063.626003 
L 1169.386755 1062.950303 
L 1172.296541 1062.053451 
L 1175.206327 1060.480222 
L 1181.0259 1059.044916 
L 1183.935686 1057.626701 
L 1186.845472 1056.581058 
L 1189.755258 1056.006403 
L 1192.665044 1054.672916 
L 1195.574831 1053.707037 
L 1198.484617 1052.905045 
L 1210.123762 1049.125511 
L 1213.033548 1048.52265 
L 1215.943334 1047.163032 
L 1218.85312 1046.582371 
L 1221.762906 1045.408058 
L 1227.582479 1043.452253 
L 1230.492265 1042.667994 
L 1239.221624 1039.740255 
L 1242.13141 1038.982303 
L 1245.041196 1038.405455 
L 1256.680341 1034.513843 
L 1259.590127 1033.420603 
L 1268.319485 1030.778625 
L 1279.95863 1026.965579 
L 1282.868416 1026.156128 
L 1309.056492 1017.49314 
L 1323.605423 1012.523876 
L 1326.515209 1011.392248 
L 1335.244568 1008.321606 
L 1346.883713 1004.138297 
L 1352.703285 1001.919497 
L 1358.522858 999.79195 
L 1361.432644 998.620976 
L 1364.34243 997.633749 
L 1373.071789 994.227592 
L 1375.981575 993.421347 
L 1378.891361 991.948921 
L 1381.801147 991.207768 
L 1384.710933 989.66186 
L 1387.62072 988.568209 
L 1390.530506 987.883064 
L 1393.440292 986.295291 
L 1396.350078 985.175838 
L 1399.259864 984.545849 
L 1402.169651 983.062315 
L 1405.079437 982.358522 
L 1407.989223 980.617748 
L 1410.899009 980.007212 
L 1413.808795 978.220177 
L 1416.718582 977.614063 
L 1419.628368 976.411589 
L 1422.538154 974.933294 
L 1425.44794 974.840168 
L 1428.357726 973.09557 
L 1431.267513 972.544147 
L 1434.177299 970.88546 
L 1437.087085 970.209407 
L 1439.996871 969.045383 
L 1442.906657 967.657797 
L 1445.816444 966.967146 
L 1448.72623 965.549779 
L 1451.636016 964.651178 
L 1454.545802 963.417847 
L 1457.455588 962.554357 
L 1463.275161 960.358987 
L 1466.184947 959.062303 
L 1469.094733 957.957742 
L 1472.004519 956.996459 
L 1474.914306 956.268843 
L 1480.733878 954.097877 
L 1483.643664 953.054682 
L 1486.55345 951.718793 
L 1489.463237 950.988723 
L 1492.373023 949.966738 
L 1495.282809 948.78229 
L 1501.102381 946.619593 
L 1504.012168 945.950112 
L 1506.921954 944.564751 
L 1512.741526 942.965545 
L 1518.561099 940.688934 
L 1521.470885 940.040316 
L 1524.380671 938.83514 
L 1530.200243 937.169713 
L 1533.11003 936.427502 
L 1536.019816 935.139651 
L 1538.929602 934.444828 
L 1541.839388 933.125218 
L 1544.749174 932.439736 
L 1550.568747 930.558588 
L 1553.478533 929.637843 
L 1556.388319 928.538942 
L 1559.298105 927.566197 
L 1562.207892 926.907143 
L 1568.027464 924.490972 
L 1573.847036 922.644611 
L 1576.756823 922.111042 
L 1579.666609 921.037751 
L 1585.486181 919.483391 
L 1588.395967 918.240446 
L 1591.305754 917.531315 
L 1594.21554 916.595513 
L 1597.125326 915.529618 
L 1600.035112 915.125115 
L 1602.944898 914.210609 
L 1605.854685 913.083648 
L 1608.764471 912.096732 
L 1611.674257 911.458094 
L 1614.584043 909.880225 
L 1620.403616 908.388621 
L 1623.313402 907.265763 
L 1629.132974 905.744868 
L 1632.04276 904.304275 
L 1634.952546 903.622164 
L 1637.862333 902.587535 
L 1640.772119 901.898858 
L 1646.591691 899.506893 
L 1655.32105 896.824374 
L 1658.230836 896.146065 
L 1669.869981 891.925456 
L 1672.779767 891.126292 
L 1675.689553 890.014626 
L 1678.599339 889.180715 
L 1681.509126 887.798739 
L 1684.418912 886.7934 
L 1687.328698 885.951439 
L 1690.238484 884.782065 
L 1696.058057 882.720325 
L 1698.967843 881.659615 
L 1701.877629 881.083069 
L 1704.787415 879.735177 
L 1707.697201 878.832281 
L 1710.606988 877.711747 
L 1713.516774 876.825765 
L 1716.42656 875.593039 
L 1719.336346 874.659847 
L 1722.246132 873.441263 
L 1725.155919 872.643347 
L 1728.065705 871.458679 
L 1736.795063 868.416122 
L 1739.70485 867.205899 
L 1745.524422 865.114475 
L 1748.434208 864.195555 
L 1751.343994 863.117316 
L 1754.253781 862.160865 
L 1757.163567 861.000811 
L 1760.073353 860.021209 
L 1762.983139 859.387216 
L 1768.802712 857.323615 
L 1771.712498 856.169333 
L 1777.53207 854.205917 
L 1780.441856 853.201413 
L 1783.351643 852.516166 
L 1786.261429 851.335436 
L 1812.449505 843.081954 
L 1826.998436 838.875215 
L 1829.908222 838.128976 
L 1832.818008 837.105584 
L 1838.63758 835.500795 
L 1841.547367 834.89109 
L 1844.457153 833.839638 
L 1847.366939 833.093537 
L 1850.276725 832.483202 
L 1853.186511 831.656048 
L 1856.096298 831.10664 
L 1859.006084 830.391733 
L 1861.91587 829.205405 
L 1864.825656 828.972763 
L 1867.735442 827.851911 
L 1870.645229 827.599656 
L 1873.555015 826.945545 
L 1876.464801 826.153155 
L 1879.374587 825.6756 
L 1882.284373 824.543182 
L 1885.19416 823.904926 
L 1891.013732 823.044255 
L 1893.923518 822.316828 
L 1896.833304 821.059207 
L 1899.743091 820.371256 
L 1902.652877 820.123215 
L 1905.562663 819.216582 
L 1908.472449 818.503769 
L 1911.382235 818.057841 
L 1914.292022 817.441232 
L 1923.02138 814.84225 
L 1925.931166 813.90604 
L 1928.840953 813.213933 
L 1931.750739 812.895966 
L 1934.660525 811.73698 
L 1937.570311 811.224314 
L 1940.480097 810.588349 
L 1943.389884 809.49061 
L 1946.29967 808.773655 
L 1949.209456 808.70273 
L 1955.029028 807.347516 
L 1957.938815 806.132684 
L 1960.848601 805.270632 
L 1963.758387 804.602067 
L 1966.668173 804.087454 
L 1969.577959 802.999651 
L 1972.487746 802.135548 
L 1975.397532 800.878662 
L 1978.307318 800.254385 
L 1981.217104 799.478403 
L 1984.12689 798.483099 
L 1987.036677 797.875202 
L 1989.946463 796.735638 
L 1995.766035 794.734345 
L 1998.675821 794.035138 
L 2001.585608 792.986192 
L 2004.495394 792.080587 
L 2007.40518 790.806119 
L 2010.314966 790.09682 
L 2016.134539 788.188724 
L 2019.044325 787.481045 
L 2021.954111 786.167111 
L 2024.863897 785.122139 
L 2027.773683 784.515734 
L 2033.593256 782.623432 
L 2036.503042 781.475612 
L 2039.412828 780.695932 
L 2042.322614 779.628872 
L 2045.2324 778.799867 
L 2068.51069 770.96545 
L 2071.420476 770.340574 
L 2074.330262 769.256555 
L 2077.240049 768.355968 
L 2080.149835 767.214503 
L 2085.969407 765.568695 
L 2088.879193 764.477358 
L 2100.518338 760.670669 
L 2103.428124 759.515103 
L 2106.337911 758.80207 
L 2109.247697 757.639552 
L 2117.977055 754.865684 
L 2120.886842 753.660717 
L 2123.796628 752.694089 
L 2126.706414 751.933958 
L 2135.435773 749.089935 
L 2141.255345 747.02401 
L 2144.165131 746.054577 
L 2147.074917 745.222019 
L 2173.262993 736.736161 
L 2181.992352 733.971681 
L 2184.902138 733.002034 
L 2187.811924 732.287102 
L 2190.72171 731.09469 
L 2196.541283 729.415666 
L 2199.451069 728.70594 
L 2202.360855 727.773115 
L 2211.090214 725.397129 
L 2219.819572 723.220946 
L 2222.729359 722.456476 
L 2225.639145 721.926151 
L 2231.458717 720.438796 
L 2234.368503 719.44227 
L 2237.27829 718.700374 
L 2240.188076 718.152922 
L 2243.097862 717.256236 
L 2248.917434 715.963503 
L 2251.827221 715.179242 
L 2263.466365 712.672921 
L 2266.376152 712.477981 
L 2269.285938 711.260141 
L 2278.015296 709.240547 
L 2280.925083 709.125268 
L 2283.834869 707.89177 
L 2286.744655 707.484981 
L 2289.654441 706.571167 
L 2292.564227 706.372761 
L 2298.3838 705.207622 
L 2301.293586 703.648804 
L 2307.113158 702.937415 
L 2310.022945 701.676432 
L 2312.932731 701.073262 
L 2315.842517 700.797104 
L 2318.752303 699.617619 
L 2324.571876 698.197581 
L 2327.481662 698.027652 
L 2333.301234 696.632512 
L 2336.21102 696.654087 
L 2339.120807 696.076584 
L 2342.030593 694.886414 
L 2344.940379 693.897892 
L 2347.850165 692.380174 
L 2350.759951 692.008287 
L 2356.579524 690.325065 
L 2359.48931 688.903805 
L 2362.399096 688.054393 
L 2365.308882 688.739526 
L 2374.038241 684.749322 
L 2376.948027 684.365637 
L 2379.857813 685.318172 
L 2382.7676 684.663942 
L 2385.677386 683.378725 
L 2388.587172 680.867361 
L 2391.496958 680.129931 
L 2394.406744 681.986131 
L 2400.226317 680.381288 
L 2403.136103 679.233777 
L 2406.045889 678.813421 
L 2408.955675 677.539995 
L 2411.865461 677.211485 
L 2414.775248 676.634634 
L 2417.685034 675.618247 
L 2420.59482 674.365089 
L 2423.504606 673.625014 
L 2426.414392 674.026313 
L 2429.324179 672.602901 
L 2432.233965 672.82524 
L 2438.053537 671.759053 
L 2440.963323 669.819543 
L 2443.87311 669.301629 
L 2446.782896 668.644217 
L 2452.602468 667.566 
L 2455.512254 666.923644 
L 2458.422041 666.399054 
L 2461.331827 666.300588 
L 2464.241613 665.845714 
L 2467.151399 664.972241 
L 2470.061185 664.728721 
L 2472.970972 664.141273 
L 2478.790544 663.296587 
L 2481.70033 663.70034 
L 2484.610116 662.762418 
L 2493.339475 661.597308 
L 2496.249261 660.925069 
L 2499.159047 660.934984 
L 2502.068834 660.638122 
L 2504.97862 660.02632 
L 2510.798192 659.533522 
L 2513.707978 660.256968 
L 2519.527551 659.952029 
L 2522.437337 659.926721 
L 2528.256909 659.102408 
L 2531.166696 659.075062 
L 2534.076482 658.762772 
L 2539.896054 658.485809 
L 2542.80584 658.250773 
L 2545.715627 658.27607 
L 2548.625413 657.66589 
L 2551.535199 657.457067 
L 2554.444985 656.83953 
L 2560.264558 656.343711 
L 2563.174344 656.014024 
L 2566.08413 655.231261 
L 2568.993916 654.792184 
L 2571.903702 654.867476 
L 2574.813489 654.256043 
L 2580.633061 653.449766 
L 2583.542847 652.898358 
L 2589.36242 651.367374 
L 2592.272206 651.030525 
L 2595.181992 650.01868 
L 2598.091778 649.778633 
L 2603.911351 648.518338 
L 2606.821137 647.621479 
L 2633.009213 640.831717 
L 2641.738571 638.766014 
L 2647.558144 637.318885 
L 2656.287502 635.279542 
L 2659.197288 634.750241 
L 2665.016861 633.302165 
L 2670.836433 632.416559 
L 2676.656006 631.019291 
L 2682.475578 629.947489 
L 2685.385364 629.124328 
L 2688.29515 628.925476 
L 2694.114723 627.930335 
L 2697.024509 627.55753 
L 2699.934295 626.963388 
L 2702.844081 626.499985 
L 2708.663654 625.810717 
L 2711.57344 624.88209 
L 2714.483226 625.035772 
L 2717.393012 624.651243 
L 2720.302799 623.787425 
L 2723.212585 623.873995 
L 2726.122371 623.485096 
L 2729.032157 622.861546 
L 2731.941943 622.737213 
L 2734.85173 622.39051 
L 2737.761516 621.710342 
L 2740.671302 621.41207 
L 2746.490874 620.61761 
L 2749.400661 620.371648 
L 2752.310447 619.852426 
L 2758.130019 619.076668 
L 2761.039805 619.888953 
L 2763.949592 619.656121 
L 2766.859378 617.512848 
L 2769.769164 618.603034 
L 2772.67895 615.62174 
L 2775.588736 616.381988 
L 2778.498523 614.9789 
L 2781.408309 613.984097 
L 2784.318095 615.238323 
L 2787.227881 614.879528 
L 2790.137667 612.973885 
L 2793.047454 614.194346 
L 2798.867026 612.235772 
L 2801.776812 611.408411 
L 2804.686598 610.74563 
L 2807.596384 610.421356 
L 2810.506171 610.314426 
L 2813.415957 609.137498 
L 2816.325743 609.242061 
L 2819.235529 608.298852 
L 2822.145315 606.853057 
L 2825.055102 606.033153 
L 2827.964888 605.368588 
L 2830.874674 604.292522 
L 2833.78446 603.58971 
L 2836.694246 603.230684 
L 2839.604033 602.209139 
L 2842.513819 601.397406 
L 2845.423605 600.866393 
L 2848.333391 599.824307 
L 2851.243177 599.835601 
L 2857.06275 598.070514 
L 2871.611681 593.910484 
L 2874.521467 593.382424 
L 2880.341039 591.404903 
L 2886.160612 589.704371 
L 2889.070398 588.603505 
L 2891.980184 587.946343 
L 2900.709543 585.291454 
L 2903.619329 584.311786 
L 2906.529115 583.561894 
L 2909.438901 582.32782 
L 2912.348688 581.59869 
L 2918.16826 579.644453 
L 2921.078046 578.917731 
L 2929.807405 576.079109 
L 2938.536763 573.392449 
L 2944.356336 571.52269 
L 2947.266122 570.935125 
L 2953.085694 569.236281 
L 2967.634625 564.881322 
L 2970.544412 564.121165 
L 2973.454198 563.528767 
L 2976.363984 562.464277 
L 2979.27377 561.77103 
L 2993.822701 557.627837 
L 2999.642274 556.026478 
L 3002.55206 555.388031 
L 3049.108639 542.453518 
L 3101.484791 527.173353 
L 3136.402225 516.394917 
L 3145.131584 513.543895 
L 3148.04137 512.716149 
L 3153.860942 510.75473 
L 3156.770728 509.797535 
L 3159.680515 509.122114 
L 3162.590301 508.027709 
L 3165.500087 507.287053 
L 3168.409873 505.978722 
L 3174.229446 504.232896 
L 3177.139232 503.313352 
L 3180.049018 502.247278 
L 3185.86859 500.367228 
L 3188.778376 499.605789 
L 3191.688163 498.52997 
L 3194.597949 497.591616 
L 3197.507735 496.851852 
L 3203.327307 494.910302 
L 3206.237094 493.705601 
L 3209.14688 492.974323 
L 3220.786025 489.158626 
L 3223.695811 488.534697 
L 3232.425169 485.647182 
L 3235.334956 484.513443 
L 3238.244742 484.005507 
L 3241.154528 483.015518 
L 3244.064314 482.165511 
L 3246.9741 481.056822 
L 3249.883887 480.22208 
L 3252.793673 479.537692 
L 3258.613245 477.803689 
L 3264.432818 476.570842 
L 3267.342604 475.617218 
L 3270.25239 475.046376 
L 3273.162176 474.012255 
L 3276.071962 473.242871 
L 3278.981749 472.275596 
L 3284.801321 470.862559 
L 3287.711107 470.452531 
L 3290.620893 469.726229 
L 3293.53068 469.189947 
L 3296.440466 468.431376 
L 3299.350252 467.978642 
L 3302.260038 466.787579 
L 3305.169824 466.514343 
L 3310.989397 465.40821 
L 3313.899183 465.082083 
L 3316.808969 463.879404 
L 3319.718755 463.723734 
L 3322.628542 463.422632 
L 3325.538328 462.365139 
L 3328.448114 462.227315 
L 3334.267686 461.363318 
L 3337.177473 460.970685 
L 3340.087259 460.221485 
L 3342.997045 459.75321 
L 3345.906831 458.924954 
L 3348.816617 458.87719 
L 3351.726404 458.467161 
L 3354.63619 458.4133 
L 3357.545976 457.766944 
L 3360.455762 456.971486 
L 3363.365548 456.995639 
L 3366.275335 456.527827 
L 3369.185121 455.930517 
L 3372.094907 455.206586 
L 3375.004693 454.790635 
L 3380.824266 454.42746 
L 3383.734052 454.086914 
L 3386.643838 453.375812 
L 3389.553624 452.89279 
L 3392.46341 452.968992 
L 3395.373197 452.200777 
L 3398.282983 451.68488 
L 3401.192769 451.38449 
L 3407.012341 450.220729 
L 3409.922128 449.941026 
L 3412.831914 449.140628 
L 3418.651486 448.383687 
L 3421.561272 447.643309 
L 3427.380845 446.444023 
L 3433.200417 445.173229 
L 3439.01999 443.771326 
L 3444.839562 442.35944 
L 3447.749348 441.467897 
L 3473.937424 435.019924 
L 3500.1255 428.71236 
L 3503.035286 427.87303 
L 3505.945072 427.336323 
L 3508.854858 426.439645 
L 3511.764645 425.984489 
L 3514.674431 424.994559 
L 3523.403789 423.091443 
L 3526.313576 422.120889 
L 3532.133148 420.989233 
L 3535.042934 420.137414 
L 3537.95272 419.537468 
L 3540.862507 418.384074 
L 3543.772293 418.022799 
L 3546.682079 416.827582 
L 3549.591865 416.094119 
L 3552.501651 415.177161 
L 3558.321224 413.907625 
L 3561.23101 412.898717 
L 3564.140796 412.026808 
L 3567.050582 411.462272 
L 3569.960369 410.615757 
L 3572.870155 409.618202 
L 3575.779941 408.84631 
L 3578.689727 407.877524 
L 3581.599513 407.279785 
L 3590.328872 404.735153 
L 3593.238658 403.515233 
L 3596.148444 402.855107 
L 3599.05823 401.674226 
L 3601.968017 400.763305 
L 3604.877803 399.978538 
L 3613.607161 396.853681 
L 3616.516948 395.977868 
L 3628.156092 391.87673 
L 3648.524596 384.81019 
L 3651.434382 383.510489 
L 3654.344168 382.428241 
L 3657.253954 381.67514 
L 3660.163741 380.31003 
L 3663.073527 379.57829 
L 3665.983313 378.017702 
L 3668.893099 377.394493 
L 3674.712672 375.386519 
L 3677.622458 374.43479 
L 3683.44203 372.133423 
L 3692.171389 368.996465 
L 3695.081175 368.248997 
L 3697.990961 367.227718 
L 3700.900747 365.916612 
L 3703.810534 364.901284 
L 3706.72032 364.183231 
L 3709.630106 362.757832 
L 3712.539892 361.680368 
L 3715.449678 360.453533 
L 3718.359465 359.42323 
L 3721.269251 358.613708 
L 3724.179037 357.452508 
L 3732.908396 354.36296 
L 3735.818182 353.807773 
L 3735.818182 353.807773 
" clip-path="url(#p1f3b67f152)" style="fill: none; stroke: #00aa00; stroke-width: 6; stroke-linecap: square"/>
   </g>
  </g>
 </g>
 <defs>
  <clipPath id="p1f3b67f152">
   <rect x="540" y="172.8" width="3348" height="1087.2"/>
  </clipPath>
 </defs>
</svg>
