<?xml version="1.0" encoding="utf-8" standalone="no"?>
<!DOCTYPE svg PUBLIC "-//W3C//DTD SVG 1.1//EN"
  "http://www.w3.org/Graphics/SVG/1.1/DTD/svg11.dtd">
<svg xmlns:xlink="http://www.w3.org/1999/xlink" width="4320pt" height="1440pt" viewBox="0 0 4320 1440" xmlns="http://www.w3.org/2000/svg" version="1.1">
 <metadata>
  <rdf:RDF xmlns:dc="http://purl.org/dc/elements/1.1/" xmlns:cc="http://creativecommons.org/ns#" xmlns:rdf="http://www.w3.org/1999/02/22-rdf-syntax-ns#">
   <cc:Work>
    <dc:type rdf:resource="http://purl.org/dc/dcmitype/StillImage"/>
    <dc:date>2021-11-07T01:38:25.715517</dc:date>
    <dc:format>image/svg+xml</dc:format>
    <dc:creator>
     <cc:Agent>
      <dc:title>Matplotlib v3.5.0rc1, https://matplotlib.org/</dc:title>
     </cc:Agent>
    </dc:creator>
   </cc:Work>
  </rdf:RDF>
 </metadata>
 <defs>
  <style type="text/css">*{stroke-linejoin: round; stroke-linecap: butt}</style>
 </defs>
 <g id="figure_1">
  <g id="patch_1">
   <path d="M 0 1440 
L 4320 1440 
L 4320 0 
L 0 0 
z
" style="fill: #ffffff"/>
  </g>
  <g id="axes_1">
   <g id="patch_2">
    <path d="M 540 1260 
L 3888 1260 
L 3888 172.8 
L 540 172.8 
z
" style="fill: #ffffff"/>
   </g>
   <g id="matplotlib.axis_1">
    <g id="xtick_1">
     <g id="line2d_1">
      <defs>
       <path id="m95b1ac888b" d="M 0 0 
L 0 3.5 
" style="stroke: #000000; stroke-width: 0.8"/>
      </defs>
      <g>
       <use xlink:href="#m95b1ac888b" x="692.181818" y="1260" style="stroke: #000000; stroke-width: 0.8"/>
      </g>
     </g>
     <g id="text_1">
      <!-- 0 -->
      <g transform="translate(684.228693 1285.996094)scale(0.25 -0.25)">
       <defs>
        <path id="DejaVuSans-30" d="M 2034 4250 
Q 1547 4250 1301 3770 
Q 1056 3291 1056 2328 
Q 1056 1369 1301 889 
Q 1547 409 2034 409 
Q 2525 409 2770 889 
Q 3016 1369 3016 2328 
Q 3016 3291 2770 3770 
Q 2525 4250 2034 4250 
z
M 2034 4750 
Q 2819 4750 3233 4129 
Q 3647 3509 3647 2328 
Q 3647 1150 3233 529 
Q 2819 -91 2034 -91 
Q 1250 -91 836 529 
Q 422 1150 422 2328 
Q 422 3509 836 4129 
Q 1250 4750 2034 4750 
z
" transform="scale(0.015625)"/>
       </defs>
       <use xlink:href="#DejaVuSans-30"/>
      </g>
     </g>
    </g>
    <g id="xtick_2">
     <g id="line2d_2">
      <g>
       <use xlink:href="#m95b1ac888b" x="1118.859813" y="1260" style="stroke: #000000; stroke-width: 0.8"/>
      </g>
     </g>
     <g id="text_2">
      <!-- 150 -->
      <g transform="translate(1095.000438 1285.996094)scale(0.25 -0.25)">
       <defs>
        <path id="DejaVuSans-31" d="M 794 531 
L 1825 531 
L 1825 4091 
L 703 3866 
L 703 4441 
L 1819 4666 
L 2450 4666 
L 2450 531 
L 3481 531 
L 3481 0 
L 794 0 
L 794 531 
z
" transform="scale(0.015625)"/>
        <path id="DejaVuSans-35" d="M 691 4666 
L 3169 4666 
L 3169 4134 
L 1269 4134 
L 1269 2991 
Q 1406 3038 1543 3061 
Q 1681 3084 1819 3084 
Q 2600 3084 3056 2656 
Q 3513 2228 3513 1497 
Q 3513 744 3044 326 
Q 2575 -91 1722 -91 
Q 1428 -91 1123 -41 
Q 819 9 494 109 
L 494 744 
Q 775 591 1075 516 
Q 1375 441 1709 441 
Q 2250 441 2565 725 
Q 2881 1009 2881 1497 
Q 2881 1984 2565 2268 
Q 2250 2553 1709 2553 
Q 1456 2553 1204 2497 
Q 953 2441 691 2322 
L 691 4666 
z
" transform="scale(0.015625)"/>
       </defs>
       <use xlink:href="#DejaVuSans-31"/>
       <use xlink:href="#DejaVuSans-35" x="63.623047"/>
       <use xlink:href="#DejaVuSans-30" x="127.246094"/>
      </g>
     </g>
    </g>
    <g id="xtick_3">
     <g id="line2d_3">
      <g>
       <use xlink:href="#m95b1ac888b" x="1545.537808" y="1260" style="stroke: #000000; stroke-width: 0.8"/>
      </g>
     </g>
     <g id="text_3">
      <!-- 300 -->
      <g transform="translate(1521.678433 1285.996094)scale(0.25 -0.25)">
       <defs>
        <path id="DejaVuSans-33" d="M 2597 2516 
Q 3050 2419 3304 2112 
Q 3559 1806 3559 1356 
Q 3559 666 3084 287 
Q 2609 -91 1734 -91 
Q 1441 -91 1130 -33 
Q 819 25 488 141 
L 488 750 
Q 750 597 1062 519 
Q 1375 441 1716 441 
Q 2309 441 2620 675 
Q 2931 909 2931 1356 
Q 2931 1769 2642 2001 
Q 2353 2234 1838 2234 
L 1294 2234 
L 1294 2753 
L 1863 2753 
Q 2328 2753 2575 2939 
Q 2822 3125 2822 3475 
Q 2822 3834 2567 4026 
Q 2313 4219 1838 4219 
Q 1578 4219 1281 4162 
Q 984 4106 628 3988 
L 628 4550 
Q 988 4650 1302 4700 
Q 1616 4750 1894 4750 
Q 2613 4750 3031 4423 
Q 3450 4097 3450 3541 
Q 3450 3153 3228 2886 
Q 3006 2619 2597 2516 
z
" transform="scale(0.015625)"/>
       </defs>
       <use xlink:href="#DejaVuSans-33"/>
       <use xlink:href="#DejaVuSans-30" x="63.623047"/>
       <use xlink:href="#DejaVuSans-30" x="127.246094"/>
      </g>
     </g>
    </g>
    <g id="xtick_4">
     <g id="line2d_4">
      <g>
       <use xlink:href="#m95b1ac888b" x="1972.215803" y="1260" style="stroke: #000000; stroke-width: 0.8"/>
      </g>
     </g>
     <g id="text_4">
      <!-- 450 -->
      <g transform="translate(1948.356428 1285.996094)scale(0.25 -0.25)">
       <defs>
        <path id="DejaVuSans-34" d="M 2419 4116 
L 825 1625 
L 2419 1625 
L 2419 4116 
z
M 2253 4666 
L 3047 4666 
L 3047 1625 
L 3713 1625 
L 3713 1100 
L 3047 1100 
L 3047 0 
L 2419 0 
L 2419 1100 
L 313 1100 
L 313 1709 
L 2253 4666 
z
" transform="scale(0.015625)"/>
       </defs>
       <use xlink:href="#DejaVuSans-34"/>
       <use xlink:href="#DejaVuSans-35" x="63.623047"/>
       <use xlink:href="#DejaVuSans-30" x="127.246094"/>
      </g>
     </g>
    </g>
    <g id="xtick_5">
     <g id="line2d_5">
      <g>
       <use xlink:href="#m95b1ac888b" x="2398.893798" y="1260" style="stroke: #000000; stroke-width: 0.8"/>
      </g>
     </g>
     <g id="text_5">
      <!-- 600 -->
      <g transform="translate(2375.034423 1285.996094)scale(0.25 -0.25)">
       <defs>
        <path id="DejaVuSans-36" d="M 2113 2584 
Q 1688 2584 1439 2293 
Q 1191 2003 1191 1497 
Q 1191 994 1439 701 
Q 1688 409 2113 409 
Q 2538 409 2786 701 
Q 3034 994 3034 1497 
Q 3034 2003 2786 2293 
Q 2538 2584 2113 2584 
z
M 3366 4563 
L 3366 3988 
Q 3128 4100 2886 4159 
Q 2644 4219 2406 4219 
Q 1781 4219 1451 3797 
Q 1122 3375 1075 2522 
Q 1259 2794 1537 2939 
Q 1816 3084 2150 3084 
Q 2853 3084 3261 2657 
Q 3669 2231 3669 1497 
Q 3669 778 3244 343 
Q 2819 -91 2113 -91 
Q 1303 -91 875 529 
Q 447 1150 447 2328 
Q 447 3434 972 4092 
Q 1497 4750 2381 4750 
Q 2619 4750 2861 4703 
Q 3103 4656 3366 4563 
z
" transform="scale(0.015625)"/>
       </defs>
       <use xlink:href="#DejaVuSans-36"/>
       <use xlink:href="#DejaVuSans-30" x="63.623047"/>
       <use xlink:href="#DejaVuSans-30" x="127.246094"/>
      </g>
     </g>
    </g>
    <g id="xtick_6">
     <g id="line2d_6">
      <g>
       <use xlink:href="#m95b1ac888b" x="2825.571793" y="1260" style="stroke: #000000; stroke-width: 0.8"/>
      </g>
     </g>
     <g id="text_6">
      <!-- 750 -->
      <g transform="translate(2801.712418 1285.996094)scale(0.25 -0.25)">
       <defs>
        <path id="DejaVuSans-37" d="M 525 4666 
L 3525 4666 
L 3525 4397 
L 1831 0 
L 1172 0 
L 2766 4134 
L 525 4134 
L 525 4666 
z
" transform="scale(0.015625)"/>
       </defs>
       <use xlink:href="#DejaVuSans-37"/>
       <use xlink:href="#DejaVuSans-35" x="63.623047"/>
       <use xlink:href="#DejaVuSans-30" x="127.246094"/>
      </g>
     </g>
    </g>
    <g id="xtick_7">
     <g id="line2d_7">
      <g>
       <use xlink:href="#m95b1ac888b" x="3252.249788" y="1260" style="stroke: #000000; stroke-width: 0.8"/>
      </g>
     </g>
     <g id="text_7">
      <!-- 900 -->
      <g transform="translate(3228.390413 1285.996094)scale(0.25 -0.25)">
       <defs>
        <path id="DejaVuSans-39" d="M 703 97 
L 703 672 
Q 941 559 1184 500 
Q 1428 441 1663 441 
Q 2288 441 2617 861 
Q 2947 1281 2994 2138 
Q 2813 1869 2534 1725 
Q 2256 1581 1919 1581 
Q 1219 1581 811 2004 
Q 403 2428 403 3163 
Q 403 3881 828 4315 
Q 1253 4750 1959 4750 
Q 2769 4750 3195 4129 
Q 3622 3509 3622 2328 
Q 3622 1225 3098 567 
Q 2575 -91 1691 -91 
Q 1453 -91 1209 -44 
Q 966 3 703 97 
z
M 1959 2075 
Q 2384 2075 2632 2365 
Q 2881 2656 2881 3163 
Q 2881 3666 2632 3958 
Q 2384 4250 1959 4250 
Q 1534 4250 1286 3958 
Q 1038 3666 1038 3163 
Q 1038 2656 1286 2365 
Q 1534 2075 1959 2075 
z
" transform="scale(0.015625)"/>
       </defs>
       <use xlink:href="#DejaVuSans-39"/>
       <use xlink:href="#DejaVuSans-30" x="63.623047"/>
       <use xlink:href="#DejaVuSans-30" x="127.246094"/>
      </g>
     </g>
    </g>
    <g id="xtick_8">
     <g id="line2d_8">
      <g>
       <use xlink:href="#m95b1ac888b" x="3678.927782" y="1260" style="stroke: #000000; stroke-width: 0.8"/>
      </g>
     </g>
     <g id="text_8">
      <!-- 1050 -->
      <g transform="translate(3647.115282 1285.996094)scale(0.25 -0.25)">
       <use xlink:href="#DejaVuSans-31"/>
       <use xlink:href="#DejaVuSans-30" x="63.623047"/>
       <use xlink:href="#DejaVuSans-35" x="127.246094"/>
       <use xlink:href="#DejaVuSans-30" x="190.869141"/>
      </g>
     </g>
    </g>
    <g id="text_9">
     <!-- Point Index -->
     <g transform="translate(2116.817578 1321.789844)scale(0.35 -0.35)">
      <defs>
       <path id="DejaVuSans-50" d="M 1259 4147 
L 1259 2394 
L 2053 2394 
Q 2494 2394 2734 2622 
Q 2975 2850 2975 3272 
Q 2975 3691 2734 3919 
Q 2494 4147 2053 4147 
L 1259 4147 
z
M 628 4666 
L 2053 4666 
Q 2838 4666 3239 4311 
Q 3641 3956 3641 3272 
Q 3641 2581 3239 2228 
Q 2838 1875 2053 1875 
L 1259 1875 
L 1259 0 
L 628 0 
L 628 4666 
z
" transform="scale(0.015625)"/>
       <path id="DejaVuSans-6f" d="M 1959 3097 
Q 1497 3097 1228 2736 
Q 959 2375 959 1747 
Q 959 1119 1226 758 
Q 1494 397 1959 397 
Q 2419 397 2687 759 
Q 2956 1122 2956 1747 
Q 2956 2369 2687 2733 
Q 2419 3097 1959 3097 
z
M 1959 3584 
Q 2709 3584 3137 3096 
Q 3566 2609 3566 1747 
Q 3566 888 3137 398 
Q 2709 -91 1959 -91 
Q 1206 -91 779 398 
Q 353 888 353 1747 
Q 353 2609 779 3096 
Q 1206 3584 1959 3584 
z
" transform="scale(0.015625)"/>
       <path id="DejaVuSans-69" d="M 603 3500 
L 1178 3500 
L 1178 0 
L 603 0 
L 603 3500 
z
M 603 4863 
L 1178 4863 
L 1178 4134 
L 603 4134 
L 603 4863 
z
" transform="scale(0.015625)"/>
       <path id="DejaVuSans-6e" d="M 3513 2113 
L 3513 0 
L 2938 0 
L 2938 2094 
Q 2938 2591 2744 2837 
Q 2550 3084 2163 3084 
Q 1697 3084 1428 2787 
Q 1159 2491 1159 1978 
L 1159 0 
L 581 0 
L 581 3500 
L 1159 3500 
L 1159 2956 
Q 1366 3272 1645 3428 
Q 1925 3584 2291 3584 
Q 2894 3584 3203 3211 
Q 3513 2838 3513 2113 
z
" transform="scale(0.015625)"/>
       <path id="DejaVuSans-74" d="M 1172 4494 
L 1172 3500 
L 2356 3500 
L 2356 3053 
L 1172 3053 
L 1172 1153 
Q 1172 725 1289 603 
Q 1406 481 1766 481 
L 2356 481 
L 2356 0 
L 1766 0 
Q 1100 0 847 248 
Q 594 497 594 1153 
L 594 3053 
L 172 3053 
L 172 3500 
L 594 3500 
L 594 4494 
L 1172 4494 
z
" transform="scale(0.015625)"/>
       <path id="DejaVuSans-20" transform="scale(0.015625)"/>
       <path id="DejaVuSans-49" d="M 628 4666 
L 1259 4666 
L 1259 0 
L 628 0 
L 628 4666 
z
" transform="scale(0.015625)"/>
       <path id="DejaVuSans-64" d="M 2906 2969 
L 2906 4863 
L 3481 4863 
L 3481 0 
L 2906 0 
L 2906 525 
Q 2725 213 2448 61 
Q 2172 -91 1784 -91 
Q 1150 -91 751 415 
Q 353 922 353 1747 
Q 353 2572 751 3078 
Q 1150 3584 1784 3584 
Q 2172 3584 2448 3432 
Q 2725 3281 2906 2969 
z
M 947 1747 
Q 947 1113 1208 752 
Q 1469 391 1925 391 
Q 2381 391 2643 752 
Q 2906 1113 2906 1747 
Q 2906 2381 2643 2742 
Q 2381 3103 1925 3103 
Q 1469 3103 1208 2742 
Q 947 2381 947 1747 
z
" transform="scale(0.015625)"/>
       <path id="DejaVuSans-65" d="M 3597 1894 
L 3597 1613 
L 953 1613 
Q 991 1019 1311 708 
Q 1631 397 2203 397 
Q 2534 397 2845 478 
Q 3156 559 3463 722 
L 3463 178 
Q 3153 47 2828 -22 
Q 2503 -91 2169 -91 
Q 1331 -91 842 396 
Q 353 884 353 1716 
Q 353 2575 817 3079 
Q 1281 3584 2069 3584 
Q 2775 3584 3186 3129 
Q 3597 2675 3597 1894 
z
M 3022 2063 
Q 3016 2534 2758 2815 
Q 2500 3097 2075 3097 
Q 1594 3097 1305 2825 
Q 1016 2553 972 2059 
L 3022 2063 
z
" transform="scale(0.015625)"/>
       <path id="DejaVuSans-78" d="M 3513 3500 
L 2247 1797 
L 3578 0 
L 2900 0 
L 1881 1375 
L 863 0 
L 184 0 
L 1544 1831 
L 300 3500 
L 978 3500 
L 1906 2253 
L 2834 3500 
L 3513 3500 
z
" transform="scale(0.015625)"/>
      </defs>
      <use xlink:href="#DejaVuSans-50"/>
      <use xlink:href="#DejaVuSans-6f" x="56.677734"/>
      <use xlink:href="#DejaVuSans-69" x="117.859375"/>
      <use xlink:href="#DejaVuSans-6e" x="145.642578"/>
      <use xlink:href="#DejaVuSans-74" x="209.021484"/>
      <use xlink:href="#DejaVuSans-20" x="248.230469"/>
      <use xlink:href="#DejaVuSans-49" x="280.017578"/>
      <use xlink:href="#DejaVuSans-6e" x="309.509766"/>
      <use xlink:href="#DejaVuSans-64" x="372.888672"/>
      <use xlink:href="#DejaVuSans-65" x="436.365234"/>
      <use xlink:href="#DejaVuSans-78" x="496.138672"/>
     </g>
    </g>
   </g>
   <g id="matplotlib.axis_2">
    <g id="ytick_1">
     <g id="line2d_9">
      <defs>
       <path id="md4f3e4b3b5" d="M 0 0 
L -3.5 0 
" style="stroke: #000000; stroke-width: 0.8"/>
      </defs>
      <g>
       <use xlink:href="#md4f3e4b3b5" x="540" y="1210.581818" style="stroke: #000000; stroke-width: 0.8"/>
      </g>
     </g>
     <g id="text_10">
      <!-- 0 -->
      <g transform="translate(517.09375 1220.079865)scale(0.25 -0.25)">
       <use xlink:href="#DejaVuSans-30"/>
      </g>
     </g>
    </g>
    <g id="ytick_2">
     <g id="line2d_10">
      <g>
       <use xlink:href="#md4f3e4b3b5" x="540" y="1068.875154" style="stroke: #000000; stroke-width: 0.8"/>
      </g>
     </g>
     <g id="text_11">
      <!-- 100 -->
      <g transform="translate(485.28125 1078.373201)scale(0.25 -0.25)">
       <use xlink:href="#DejaVuSans-31"/>
       <use xlink:href="#DejaVuSans-30" x="63.623047"/>
       <use xlink:href="#DejaVuSans-30" x="127.246094"/>
      </g>
     </g>
    </g>
    <g id="ytick_3">
     <g id="line2d_11">
      <g>
       <use xlink:href="#md4f3e4b3b5" x="540" y="927.16849" style="stroke: #000000; stroke-width: 0.8"/>
      </g>
     </g>
     <g id="text_12">
      <!-- 200 -->
      <g transform="translate(485.28125 936.666537)scale(0.25 -0.25)">
       <defs>
        <path id="DejaVuSans-32" d="M 1228 531 
L 3431 531 
L 3431 0 
L 469 0 
L 469 531 
Q 828 903 1448 1529 
Q 2069 2156 2228 2338 
Q 2531 2678 2651 2914 
Q 2772 3150 2772 3378 
Q 2772 3750 2511 3984 
Q 2250 4219 1831 4219 
Q 1534 4219 1204 4116 
Q 875 4013 500 3803 
L 500 4441 
Q 881 4594 1212 4672 
Q 1544 4750 1819 4750 
Q 2544 4750 2975 4387 
Q 3406 4025 3406 3419 
Q 3406 3131 3298 2873 
Q 3191 2616 2906 2266 
Q 2828 2175 2409 1742 
Q 1991 1309 1228 531 
z
" transform="scale(0.015625)"/>
       </defs>
       <use xlink:href="#DejaVuSans-32"/>
       <use xlink:href="#DejaVuSans-30" x="63.623047"/>
       <use xlink:href="#DejaVuSans-30" x="127.246094"/>
      </g>
     </g>
    </g>
    <g id="ytick_4">
     <g id="line2d_12">
      <g>
       <use xlink:href="#md4f3e4b3b5" x="540" y="785.461826" style="stroke: #000000; stroke-width: 0.8"/>
      </g>
     </g>
     <g id="text_13">
      <!-- 300 -->
      <g transform="translate(485.28125 794.959873)scale(0.25 -0.25)">
       <use xlink:href="#DejaVuSans-33"/>
       <use xlink:href="#DejaVuSans-30" x="63.623047"/>
       <use xlink:href="#DejaVuSans-30" x="127.246094"/>
      </g>
     </g>
    </g>
    <g id="ytick_5">
     <g id="line2d_13">
      <g>
       <use xlink:href="#md4f3e4b3b5" x="540" y="643.755162" style="stroke: #000000; stroke-width: 0.8"/>
      </g>
     </g>
     <g id="text_14">
      <!-- 400 -->
      <g transform="translate(485.28125 653.253209)scale(0.25 -0.25)">
       <use xlink:href="#DejaVuSans-34"/>
       <use xlink:href="#DejaVuSans-30" x="63.623047"/>
       <use xlink:href="#DejaVuSans-30" x="127.246094"/>
      </g>
     </g>
    </g>
    <g id="ytick_6">
     <g id="line2d_14">
      <g>
       <use xlink:href="#md4f3e4b3b5" x="540" y="502.048498" style="stroke: #000000; stroke-width: 0.8"/>
      </g>
     </g>
     <g id="text_15">
      <!-- 500 -->
      <g transform="translate(485.28125 511.546545)scale(0.25 -0.25)">
       <use xlink:href="#DejaVuSans-35"/>
       <use xlink:href="#DejaVuSans-30" x="63.623047"/>
       <use xlink:href="#DejaVuSans-30" x="127.246094"/>
      </g>
     </g>
    </g>
    <g id="ytick_7">
     <g id="line2d_15">
      <g>
       <use xlink:href="#md4f3e4b3b5" x="540" y="360.341834" style="stroke: #000000; stroke-width: 0.8"/>
      </g>
     </g>
     <g id="text_16">
      <!-- 600 -->
      <g transform="translate(485.28125 369.839881)scale(0.25 -0.25)">
       <use xlink:href="#DejaVuSans-36"/>
       <use xlink:href="#DejaVuSans-30" x="63.623047"/>
       <use xlink:href="#DejaVuSans-30" x="127.246094"/>
      </g>
     </g>
    </g>
    <g id="ytick_8">
     <g id="line2d_16">
      <g>
       <use xlink:href="#md4f3e4b3b5" x="540" y="218.63517" style="stroke: #000000; stroke-width: 0.8"/>
      </g>
     </g>
     <g id="text_17">
      <!-- 700 -->
      <g transform="translate(485.28125 228.133217)scale(0.25 -0.25)">
       <use xlink:href="#DejaVuSans-37"/>
       <use xlink:href="#DejaVuSans-30" x="63.623047"/>
       <use xlink:href="#DejaVuSans-30" x="127.246094"/>
      </g>
     </g>
    </g>
    <g id="text_18">
     <!-- Arc-Length -->
     <g transform="translate(474.002344 811.471484)rotate(-90)scale(0.35 -0.35)">
      <defs>
       <path id="DejaVuSans-41" d="M 2188 4044 
L 1331 1722 
L 3047 1722 
L 2188 4044 
z
M 1831 4666 
L 2547 4666 
L 4325 0 
L 3669 0 
L 3244 1197 
L 1141 1197 
L 716 0 
L 50 0 
L 1831 4666 
z
" transform="scale(0.015625)"/>
       <path id="DejaVuSans-72" d="M 2631 2963 
Q 2534 3019 2420 3045 
Q 2306 3072 2169 3072 
Q 1681 3072 1420 2755 
Q 1159 2438 1159 1844 
L 1159 0 
L 581 0 
L 581 3500 
L 1159 3500 
L 1159 2956 
Q 1341 3275 1631 3429 
Q 1922 3584 2338 3584 
Q 2397 3584 2469 3576 
Q 2541 3569 2628 3553 
L 2631 2963 
z
" transform="scale(0.015625)"/>
       <path id="DejaVuSans-63" d="M 3122 3366 
L 3122 2828 
Q 2878 2963 2633 3030 
Q 2388 3097 2138 3097 
Q 1578 3097 1268 2742 
Q 959 2388 959 1747 
Q 959 1106 1268 751 
Q 1578 397 2138 397 
Q 2388 397 2633 464 
Q 2878 531 3122 666 
L 3122 134 
Q 2881 22 2623 -34 
Q 2366 -91 2075 -91 
Q 1284 -91 818 406 
Q 353 903 353 1747 
Q 353 2603 823 3093 
Q 1294 3584 2113 3584 
Q 2378 3584 2631 3529 
Q 2884 3475 3122 3366 
z
" transform="scale(0.015625)"/>
       <path id="DejaVuSans-2d" d="M 313 2009 
L 1997 2009 
L 1997 1497 
L 313 1497 
L 313 2009 
z
" transform="scale(0.015625)"/>
       <path id="DejaVuSans-4c" d="M 628 4666 
L 1259 4666 
L 1259 531 
L 3531 531 
L 3531 0 
L 628 0 
L 628 4666 
z
" transform="scale(0.015625)"/>
       <path id="DejaVuSans-67" d="M 2906 1791 
Q 2906 2416 2648 2759 
Q 2391 3103 1925 3103 
Q 1463 3103 1205 2759 
Q 947 2416 947 1791 
Q 947 1169 1205 825 
Q 1463 481 1925 481 
Q 2391 481 2648 825 
Q 2906 1169 2906 1791 
z
M 3481 434 
Q 3481 -459 3084 -895 
Q 2688 -1331 1869 -1331 
Q 1566 -1331 1297 -1286 
Q 1028 -1241 775 -1147 
L 775 -588 
Q 1028 -725 1275 -790 
Q 1522 -856 1778 -856 
Q 2344 -856 2625 -561 
Q 2906 -266 2906 331 
L 2906 616 
Q 2728 306 2450 153 
Q 2172 0 1784 0 
Q 1141 0 747 490 
Q 353 981 353 1791 
Q 353 2603 747 3093 
Q 1141 3584 1784 3584 
Q 2172 3584 2450 3431 
Q 2728 3278 2906 2969 
L 2906 3500 
L 3481 3500 
L 3481 434 
z
" transform="scale(0.015625)"/>
       <path id="DejaVuSans-68" d="M 3513 2113 
L 3513 0 
L 2938 0 
L 2938 2094 
Q 2938 2591 2744 2837 
Q 2550 3084 2163 3084 
Q 1697 3084 1428 2787 
Q 1159 2491 1159 1978 
L 1159 0 
L 581 0 
L 581 4863 
L 1159 4863 
L 1159 2956 
Q 1366 3272 1645 3428 
Q 1925 3584 2291 3584 
Q 2894 3584 3203 3211 
Q 3513 2838 3513 2113 
z
" transform="scale(0.015625)"/>
      </defs>
      <use xlink:href="#DejaVuSans-41"/>
      <use xlink:href="#DejaVuSans-72" x="68.408203"/>
      <use xlink:href="#DejaVuSans-63" x="107.271484"/>
      <use xlink:href="#DejaVuSans-2d" x="162.251953"/>
      <use xlink:href="#DejaVuSans-4c" x="198.335938"/>
      <use xlink:href="#DejaVuSans-65" x="252.298828"/>
      <use xlink:href="#DejaVuSans-6e" x="313.822266"/>
      <use xlink:href="#DejaVuSans-67" x="377.201172"/>
      <use xlink:href="#DejaVuSans-74" x="440.677734"/>
      <use xlink:href="#DejaVuSans-68" x="479.886719"/>
     </g>
    </g>
   </g>
   <g id="patch_3">
    <path d="M 540 1260 
L 540 172.8 
" style="fill: none; stroke: #000000; stroke-width: 0.8; stroke-linejoin: miter; stroke-linecap: square"/>
   </g>
   <g id="patch_4">
    <path d="M 3888 1260 
L 3888 172.8 
" style="fill: none; stroke: #000000; stroke-width: 0.8; stroke-linejoin: miter; stroke-linecap: square"/>
   </g>
   <g id="patch_5">
    <path d="M 540 1260 
L 3888 1260 
" style="fill: none; stroke: #000000; stroke-width: 0.8; stroke-linejoin: miter; stroke-linecap: square"/>
   </g>
   <g id="patch_6">
    <path d="M 540 172.8 
L 3888 172.8 
" style="fill: none; stroke: #000000; stroke-width: 0.8; stroke-linejoin: miter; stroke-linecap: square"/>
   </g>
   <g id="text_19">
    <!-- Predicted Arc-Length vs. Ground Truth Arc-Length (at Anchors) -->
    <g transform="translate(1667.007422 165.521094)scale(0.35 -0.35)">
     <defs>
      <path id="DejaVuSans-76" d="M 191 3500 
L 800 3500 
L 1894 563 
L 2988 3500 
L 3597 3500 
L 2284 0 
L 1503 0 
L 191 3500 
z
" transform="scale(0.015625)"/>
      <path id="DejaVuSans-73" d="M 2834 3397 
L 2834 2853 
Q 2591 2978 2328 3040 
Q 2066 3103 1784 3103 
Q 1356 3103 1142 2972 
Q 928 2841 928 2578 
Q 928 2378 1081 2264 
Q 1234 2150 1697 2047 
L 1894 2003 
Q 2506 1872 2764 1633 
Q 3022 1394 3022 966 
Q 3022 478 2636 193 
Q 2250 -91 1575 -91 
Q 1294 -91 989 -36 
Q 684 19 347 128 
L 347 722 
Q 666 556 975 473 
Q 1284 391 1588 391 
Q 1994 391 2212 530 
Q 2431 669 2431 922 
Q 2431 1156 2273 1281 
Q 2116 1406 1581 1522 
L 1381 1569 
Q 847 1681 609 1914 
Q 372 2147 372 2553 
Q 372 3047 722 3315 
Q 1072 3584 1716 3584 
Q 2034 3584 2315 3537 
Q 2597 3491 2834 3397 
z
" transform="scale(0.015625)"/>
      <path id="DejaVuSans-2e" d="M 684 794 
L 1344 794 
L 1344 0 
L 684 0 
L 684 794 
z
" transform="scale(0.015625)"/>
      <path id="DejaVuSans-47" d="M 3809 666 
L 3809 1919 
L 2778 1919 
L 2778 2438 
L 4434 2438 
L 4434 434 
Q 4069 175 3628 42 
Q 3188 -91 2688 -91 
Q 1594 -91 976 548 
Q 359 1188 359 2328 
Q 359 3472 976 4111 
Q 1594 4750 2688 4750 
Q 3144 4750 3555 4637 
Q 3966 4525 4313 4306 
L 4313 3634 
Q 3963 3931 3569 4081 
Q 3175 4231 2741 4231 
Q 1884 4231 1454 3753 
Q 1025 3275 1025 2328 
Q 1025 1384 1454 906 
Q 1884 428 2741 428 
Q 3075 428 3337 486 
Q 3600 544 3809 666 
z
" transform="scale(0.015625)"/>
      <path id="DejaVuSans-75" d="M 544 1381 
L 544 3500 
L 1119 3500 
L 1119 1403 
Q 1119 906 1312 657 
Q 1506 409 1894 409 
Q 2359 409 2629 706 
Q 2900 1003 2900 1516 
L 2900 3500 
L 3475 3500 
L 3475 0 
L 2900 0 
L 2900 538 
Q 2691 219 2414 64 
Q 2138 -91 1772 -91 
Q 1169 -91 856 284 
Q 544 659 544 1381 
z
M 1991 3584 
L 1991 3584 
z
" transform="scale(0.015625)"/>
      <path id="DejaVuSans-54" d="M -19 4666 
L 3928 4666 
L 3928 4134 
L 2272 4134 
L 2272 0 
L 1638 0 
L 1638 4134 
L -19 4134 
L -19 4666 
z
" transform="scale(0.015625)"/>
      <path id="DejaVuSans-28" d="M 1984 4856 
Q 1566 4138 1362 3434 
Q 1159 2731 1159 2009 
Q 1159 1288 1364 580 
Q 1569 -128 1984 -844 
L 1484 -844 
Q 1016 -109 783 600 
Q 550 1309 550 2009 
Q 550 2706 781 3412 
Q 1013 4119 1484 4856 
L 1984 4856 
z
" transform="scale(0.015625)"/>
      <path id="DejaVuSans-61" d="M 2194 1759 
Q 1497 1759 1228 1600 
Q 959 1441 959 1056 
Q 959 750 1161 570 
Q 1363 391 1709 391 
Q 2188 391 2477 730 
Q 2766 1069 2766 1631 
L 2766 1759 
L 2194 1759 
z
M 3341 1997 
L 3341 0 
L 2766 0 
L 2766 531 
Q 2569 213 2275 61 
Q 1981 -91 1556 -91 
Q 1019 -91 701 211 
Q 384 513 384 1019 
Q 384 1609 779 1909 
Q 1175 2209 1959 2209 
L 2766 2209 
L 2766 2266 
Q 2766 2663 2505 2880 
Q 2244 3097 1772 3097 
Q 1472 3097 1187 3025 
Q 903 2953 641 2809 
L 641 3341 
Q 956 3463 1253 3523 
Q 1550 3584 1831 3584 
Q 2591 3584 2966 3190 
Q 3341 2797 3341 1997 
z
" transform="scale(0.015625)"/>
      <path id="DejaVuSans-29" d="M 513 4856 
L 1013 4856 
Q 1481 4119 1714 3412 
Q 1947 2706 1947 2009 
Q 1947 1309 1714 600 
Q 1481 -109 1013 -844 
L 513 -844 
Q 928 -128 1133 580 
Q 1338 1288 1338 2009 
Q 1338 2731 1133 3434 
Q 928 4138 513 4856 
z
" transform="scale(0.015625)"/>
     </defs>
     <use xlink:href="#DejaVuSans-50"/>
     <use xlink:href="#DejaVuSans-72" x="58.552734"/>
     <use xlink:href="#DejaVuSans-65" x="97.416016"/>
     <use xlink:href="#DejaVuSans-64" x="158.939453"/>
     <use xlink:href="#DejaVuSans-69" x="222.416016"/>
     <use xlink:href="#DejaVuSans-63" x="250.199219"/>
     <use xlink:href="#DejaVuSans-74" x="305.179688"/>
     <use xlink:href="#DejaVuSans-65" x="344.388672"/>
     <use xlink:href="#DejaVuSans-64" x="405.912109"/>
     <use xlink:href="#DejaVuSans-20" x="469.388672"/>
     <use xlink:href="#DejaVuSans-41" x="501.175781"/>
     <use xlink:href="#DejaVuSans-72" x="569.583984"/>
     <use xlink:href="#DejaVuSans-63" x="608.447266"/>
     <use xlink:href="#DejaVuSans-2d" x="663.427734"/>
     <use xlink:href="#DejaVuSans-4c" x="699.511719"/>
     <use xlink:href="#DejaVuSans-65" x="753.474609"/>
     <use xlink:href="#DejaVuSans-6e" x="814.998047"/>
     <use xlink:href="#DejaVuSans-67" x="878.376953"/>
     <use xlink:href="#DejaVuSans-74" x="941.853516"/>
     <use xlink:href="#DejaVuSans-68" x="981.0625"/>
     <use xlink:href="#DejaVuSans-20" x="1044.441406"/>
     <use xlink:href="#DejaVuSans-76" x="1076.228516"/>
     <use xlink:href="#DejaVuSans-73" x="1135.408203"/>
     <use xlink:href="#DejaVuSans-2e" x="1187.507812"/>
     <use xlink:href="#DejaVuSans-20" x="1219.294922"/>
     <use xlink:href="#DejaVuSans-47" x="1251.082031"/>
     <use xlink:href="#DejaVuSans-72" x="1328.572266"/>
     <use xlink:href="#DejaVuSans-6f" x="1367.435547"/>
     <use xlink:href="#DejaVuSans-75" x="1428.617188"/>
     <use xlink:href="#DejaVuSans-6e" x="1491.996094"/>
     <use xlink:href="#DejaVuSans-64" x="1555.375"/>
     <use xlink:href="#DejaVuSans-20" x="1618.851562"/>
     <use xlink:href="#DejaVuSans-54" x="1650.638672"/>
     <use xlink:href="#DejaVuSans-72" x="1696.972656"/>
     <use xlink:href="#DejaVuSans-75" x="1738.085938"/>
     <use xlink:href="#DejaVuSans-74" x="1801.464844"/>
     <use xlink:href="#DejaVuSans-68" x="1840.673828"/>
     <use xlink:href="#DejaVuSans-20" x="1904.052734"/>
     <use xlink:href="#DejaVuSans-41" x="1935.839844"/>
     <use xlink:href="#DejaVuSans-72" x="2004.248047"/>
     <use xlink:href="#DejaVuSans-63" x="2043.111328"/>
     <use xlink:href="#DejaVuSans-2d" x="2098.091797"/>
     <use xlink:href="#DejaVuSans-4c" x="2134.175781"/>
     <use xlink:href="#DejaVuSans-65" x="2188.138672"/>
     <use xlink:href="#DejaVuSans-6e" x="2249.662109"/>
     <use xlink:href="#DejaVuSans-67" x="2313.041016"/>
     <use xlink:href="#DejaVuSans-74" x="2376.517578"/>
     <use xlink:href="#DejaVuSans-68" x="2415.726562"/>
     <use xlink:href="#DejaVuSans-20" x="2479.105469"/>
     <use xlink:href="#DejaVuSans-28" x="2510.892578"/>
     <use xlink:href="#DejaVuSans-61" x="2549.90625"/>
     <use xlink:href="#DejaVuSans-74" x="2611.185547"/>
     <use xlink:href="#DejaVuSans-20" x="2650.394531"/>
     <use xlink:href="#DejaVuSans-41" x="2682.181641"/>
     <use xlink:href="#DejaVuSans-6e" x="2750.589844"/>
     <use xlink:href="#DejaVuSans-63" x="2813.96875"/>
     <use xlink:href="#DejaVuSans-68" x="2868.949219"/>
     <use xlink:href="#DejaVuSans-6f" x="2932.328125"/>
     <use xlink:href="#DejaVuSans-72" x="2993.509766"/>
     <use xlink:href="#DejaVuSans-73" x="3034.623047"/>
     <use xlink:href="#DejaVuSans-29" x="3086.722656"/>
    </g>
   </g>
   <g id="legend_1">
    <g id="patch_7">
     <path d="M 557.5 339.58125 
L 1208.160156 339.58125 
Q 1213.160156 339.58125 1213.160156 334.58125 
L 1213.160156 190.3 
Q 1213.160156 185.3 1208.160156 185.3 
L 557.5 185.3 
Q 552.5 185.3 552.5 190.3 
L 552.5 334.58125 
Q 552.5 339.58125 557.5 339.58125 
z
" style="fill: #ffffff; opacity: 0.8; stroke: #cccccc; stroke-linejoin: miter"/>
    </g>
    <g id="line2d_17">
     <path d="M 562.5 205.546094 
L 587.5 205.546094 
L 612.5 205.546094 
" style="fill: none; stroke: #ff8c00; stroke-width: 6; stroke-linecap: square"/>
    </g>
    <g id="text_20">
     <!-- True Arc-Length (Transformed Curve #1) -->
     <g transform="translate(632.5 214.296094)scale(0.25 -0.25)">
      <defs>
       <path id="DejaVuSans-66" d="M 2375 4863 
L 2375 4384 
L 1825 4384 
Q 1516 4384 1395 4259 
Q 1275 4134 1275 3809 
L 1275 3500 
L 2222 3500 
L 2222 3053 
L 1275 3053 
L 1275 0 
L 697 0 
L 697 3053 
L 147 3053 
L 147 3500 
L 697 3500 
L 697 3744 
Q 697 4328 969 4595 
Q 1241 4863 1831 4863 
L 2375 4863 
z
" transform="scale(0.015625)"/>
       <path id="DejaVuSans-6d" d="M 3328 2828 
Q 3544 3216 3844 3400 
Q 4144 3584 4550 3584 
Q 5097 3584 5394 3201 
Q 5691 2819 5691 2113 
L 5691 0 
L 5113 0 
L 5113 2094 
Q 5113 2597 4934 2840 
Q 4756 3084 4391 3084 
Q 3944 3084 3684 2787 
Q 3425 2491 3425 1978 
L 3425 0 
L 2847 0 
L 2847 2094 
Q 2847 2600 2669 2842 
Q 2491 3084 2119 3084 
Q 1678 3084 1418 2786 
Q 1159 2488 1159 1978 
L 1159 0 
L 581 0 
L 581 3500 
L 1159 3500 
L 1159 2956 
Q 1356 3278 1631 3431 
Q 1906 3584 2284 3584 
Q 2666 3584 2933 3390 
Q 3200 3197 3328 2828 
z
" transform="scale(0.015625)"/>
       <path id="DejaVuSans-43" d="M 4122 4306 
L 4122 3641 
Q 3803 3938 3442 4084 
Q 3081 4231 2675 4231 
Q 1875 4231 1450 3742 
Q 1025 3253 1025 2328 
Q 1025 1406 1450 917 
Q 1875 428 2675 428 
Q 3081 428 3442 575 
Q 3803 722 4122 1019 
L 4122 359 
Q 3791 134 3420 21 
Q 3050 -91 2638 -91 
Q 1578 -91 968 557 
Q 359 1206 359 2328 
Q 359 3453 968 4101 
Q 1578 4750 2638 4750 
Q 3056 4750 3426 4639 
Q 3797 4528 4122 4306 
z
" transform="scale(0.015625)"/>
       <path id="DejaVuSans-23" d="M 3272 2816 
L 2363 2816 
L 2100 1772 
L 3016 1772 
L 3272 2816 
z
M 2803 4594 
L 2478 3297 
L 3391 3297 
L 3719 4594 
L 4219 4594 
L 3897 3297 
L 4872 3297 
L 4872 2816 
L 3775 2816 
L 3519 1772 
L 4513 1772 
L 4513 1294 
L 3397 1294 
L 3072 0 
L 2572 0 
L 2894 1294 
L 1978 1294 
L 1656 0 
L 1153 0 
L 1478 1294 
L 494 1294 
L 494 1772 
L 1594 1772 
L 1856 2816 
L 850 2816 
L 850 3297 
L 1978 3297 
L 2297 4594 
L 2803 4594 
z
" transform="scale(0.015625)"/>
      </defs>
      <use xlink:href="#DejaVuSans-54"/>
      <use xlink:href="#DejaVuSans-72" x="46.333984"/>
      <use xlink:href="#DejaVuSans-75" x="87.447266"/>
      <use xlink:href="#DejaVuSans-65" x="150.826172"/>
      <use xlink:href="#DejaVuSans-20" x="212.349609"/>
      <use xlink:href="#DejaVuSans-41" x="244.136719"/>
      <use xlink:href="#DejaVuSans-72" x="312.544922"/>
      <use xlink:href="#DejaVuSans-63" x="351.408203"/>
      <use xlink:href="#DejaVuSans-2d" x="406.388672"/>
      <use xlink:href="#DejaVuSans-4c" x="442.472656"/>
      <use xlink:href="#DejaVuSans-65" x="496.435547"/>
      <use xlink:href="#DejaVuSans-6e" x="557.958984"/>
      <use xlink:href="#DejaVuSans-67" x="621.337891"/>
      <use xlink:href="#DejaVuSans-74" x="684.814453"/>
      <use xlink:href="#DejaVuSans-68" x="724.023438"/>
      <use xlink:href="#DejaVuSans-20" x="787.402344"/>
      <use xlink:href="#DejaVuSans-28" x="819.189453"/>
      <use xlink:href="#DejaVuSans-54" x="858.203125"/>
      <use xlink:href="#DejaVuSans-72" x="904.537109"/>
      <use xlink:href="#DejaVuSans-61" x="945.650391"/>
      <use xlink:href="#DejaVuSans-6e" x="1006.929688"/>
      <use xlink:href="#DejaVuSans-73" x="1070.308594"/>
      <use xlink:href="#DejaVuSans-66" x="1122.408203"/>
      <use xlink:href="#DejaVuSans-6f" x="1157.613281"/>
      <use xlink:href="#DejaVuSans-72" x="1218.794922"/>
      <use xlink:href="#DejaVuSans-6d" x="1258.158203"/>
      <use xlink:href="#DejaVuSans-65" x="1355.570312"/>
      <use xlink:href="#DejaVuSans-64" x="1417.09375"/>
      <use xlink:href="#DejaVuSans-20" x="1480.570312"/>
      <use xlink:href="#DejaVuSans-43" x="1512.357422"/>
      <use xlink:href="#DejaVuSans-75" x="1582.181641"/>
      <use xlink:href="#DejaVuSans-72" x="1645.560547"/>
      <use xlink:href="#DejaVuSans-76" x="1686.673828"/>
      <use xlink:href="#DejaVuSans-65" x="1745.853516"/>
      <use xlink:href="#DejaVuSans-20" x="1807.376953"/>
      <use xlink:href="#DejaVuSans-23" x="1839.164062"/>
      <use xlink:href="#DejaVuSans-31" x="1922.953125"/>
      <use xlink:href="#DejaVuSans-29" x="1986.576172"/>
     </g>
    </g>
    <g id="line2d_18">
     <path d="M 562.5 242.241406 
L 587.5 242.241406 
L 612.5 242.241406 
" style="fill: none; stroke: #aa0000; stroke-width: 6; stroke-linecap: square"/>
    </g>
    <g id="text_21">
     <!-- Predicted Arc-Length (Transformed Curve #1) -->
     <g transform="translate(632.5 250.991406)scale(0.25 -0.25)">
      <use xlink:href="#DejaVuSans-50"/>
      <use xlink:href="#DejaVuSans-72" x="58.552734"/>
      <use xlink:href="#DejaVuSans-65" x="97.416016"/>
      <use xlink:href="#DejaVuSans-64" x="158.939453"/>
      <use xlink:href="#DejaVuSans-69" x="222.416016"/>
      <use xlink:href="#DejaVuSans-63" x="250.199219"/>
      <use xlink:href="#DejaVuSans-74" x="305.179688"/>
      <use xlink:href="#DejaVuSans-65" x="344.388672"/>
      <use xlink:href="#DejaVuSans-64" x="405.912109"/>
      <use xlink:href="#DejaVuSans-20" x="469.388672"/>
      <use xlink:href="#DejaVuSans-41" x="501.175781"/>
      <use xlink:href="#DejaVuSans-72" x="569.583984"/>
      <use xlink:href="#DejaVuSans-63" x="608.447266"/>
      <use xlink:href="#DejaVuSans-2d" x="663.427734"/>
      <use xlink:href="#DejaVuSans-4c" x="699.511719"/>
      <use xlink:href="#DejaVuSans-65" x="753.474609"/>
      <use xlink:href="#DejaVuSans-6e" x="814.998047"/>
      <use xlink:href="#DejaVuSans-67" x="878.376953"/>
      <use xlink:href="#DejaVuSans-74" x="941.853516"/>
      <use xlink:href="#DejaVuSans-68" x="981.0625"/>
      <use xlink:href="#DejaVuSans-20" x="1044.441406"/>
      <use xlink:href="#DejaVuSans-28" x="1076.228516"/>
      <use xlink:href="#DejaVuSans-54" x="1115.242188"/>
      <use xlink:href="#DejaVuSans-72" x="1161.576172"/>
      <use xlink:href="#DejaVuSans-61" x="1202.689453"/>
      <use xlink:href="#DejaVuSans-6e" x="1263.96875"/>
      <use xlink:href="#DejaVuSans-73" x="1327.347656"/>
      <use xlink:href="#DejaVuSans-66" x="1379.447266"/>
      <use xlink:href="#DejaVuSans-6f" x="1414.652344"/>
      <use xlink:href="#DejaVuSans-72" x="1475.833984"/>
      <use xlink:href="#DejaVuSans-6d" x="1515.197266"/>
      <use xlink:href="#DejaVuSans-65" x="1612.609375"/>
      <use xlink:href="#DejaVuSans-64" x="1674.132812"/>
      <use xlink:href="#DejaVuSans-20" x="1737.609375"/>
      <use xlink:href="#DejaVuSans-43" x="1769.396484"/>
      <use xlink:href="#DejaVuSans-75" x="1839.220703"/>
      <use xlink:href="#DejaVuSans-72" x="1902.599609"/>
      <use xlink:href="#DejaVuSans-76" x="1943.712891"/>
      <use xlink:href="#DejaVuSans-65" x="2002.892578"/>
      <use xlink:href="#DejaVuSans-20" x="2064.416016"/>
      <use xlink:href="#DejaVuSans-23" x="2096.203125"/>
      <use xlink:href="#DejaVuSans-31" x="2179.992188"/>
      <use xlink:href="#DejaVuSans-29" x="2243.615234"/>
     </g>
    </g>
    <g id="line2d_19">
     <path d="M 562.5 278.936719 
L 587.5 278.936719 
L 612.5 278.936719 
" style="fill: none; stroke: #444444; stroke-width: 6; stroke-linecap: square"/>
    </g>
    <g id="text_22">
     <!-- True Arc-Length (Transformed Curve #2) -->
     <g transform="translate(632.5 287.686719)scale(0.25 -0.25)">
      <use xlink:href="#DejaVuSans-54"/>
      <use xlink:href="#DejaVuSans-72" x="46.333984"/>
      <use xlink:href="#DejaVuSans-75" x="87.447266"/>
      <use xlink:href="#DejaVuSans-65" x="150.826172"/>
      <use xlink:href="#DejaVuSans-20" x="212.349609"/>
      <use xlink:href="#DejaVuSans-41" x="244.136719"/>
      <use xlink:href="#DejaVuSans-72" x="312.544922"/>
      <use xlink:href="#DejaVuSans-63" x="351.408203"/>
      <use xlink:href="#DejaVuSans-2d" x="406.388672"/>
      <use xlink:href="#DejaVuSans-4c" x="442.472656"/>
      <use xlink:href="#DejaVuSans-65" x="496.435547"/>
      <use xlink:href="#DejaVuSans-6e" x="557.958984"/>
      <use xlink:href="#DejaVuSans-67" x="621.337891"/>
      <use xlink:href="#DejaVuSans-74" x="684.814453"/>
      <use xlink:href="#DejaVuSans-68" x="724.023438"/>
      <use xlink:href="#DejaVuSans-20" x="787.402344"/>
      <use xlink:href="#DejaVuSans-28" x="819.189453"/>
      <use xlink:href="#DejaVuSans-54" x="858.203125"/>
      <use xlink:href="#DejaVuSans-72" x="904.537109"/>
      <use xlink:href="#DejaVuSans-61" x="945.650391"/>
      <use xlink:href="#DejaVuSans-6e" x="1006.929688"/>
      <use xlink:href="#DejaVuSans-73" x="1070.308594"/>
      <use xlink:href="#DejaVuSans-66" x="1122.408203"/>
      <use xlink:href="#DejaVuSans-6f" x="1157.613281"/>
      <use xlink:href="#DejaVuSans-72" x="1218.794922"/>
      <use xlink:href="#DejaVuSans-6d" x="1258.158203"/>
      <use xlink:href="#DejaVuSans-65" x="1355.570312"/>
      <use xlink:href="#DejaVuSans-64" x="1417.09375"/>
      <use xlink:href="#DejaVuSans-20" x="1480.570312"/>
      <use xlink:href="#DejaVuSans-43" x="1512.357422"/>
      <use xlink:href="#DejaVuSans-75" x="1582.181641"/>
      <use xlink:href="#DejaVuSans-72" x="1645.560547"/>
      <use xlink:href="#DejaVuSans-76" x="1686.673828"/>
      <use xlink:href="#DejaVuSans-65" x="1745.853516"/>
      <use xlink:href="#DejaVuSans-20" x="1807.376953"/>
      <use xlink:href="#DejaVuSans-23" x="1839.164062"/>
      <use xlink:href="#DejaVuSans-32" x="1922.953125"/>
      <use xlink:href="#DejaVuSans-29" x="1986.576172"/>
     </g>
    </g>
    <g id="line2d_20">
     <path d="M 562.5 315.632031 
L 587.5 315.632031 
L 612.5 315.632031 
" style="fill: none; stroke: #00aa00; stroke-width: 6; stroke-linecap: square"/>
    </g>
    <g id="text_23">
     <!-- Predicted Arc-Length (Transformed Curve #2) -->
     <g transform="translate(632.5 324.382031)scale(0.25 -0.25)">
      <use xlink:href="#DejaVuSans-50"/>
      <use xlink:href="#DejaVuSans-72" x="58.552734"/>
      <use xlink:href="#DejaVuSans-65" x="97.416016"/>
      <use xlink:href="#DejaVuSans-64" x="158.939453"/>
      <use xlink:href="#DejaVuSans-69" x="222.416016"/>
      <use xlink:href="#DejaVuSans-63" x="250.199219"/>
      <use xlink:href="#DejaVuSans-74" x="305.179688"/>
      <use xlink:href="#DejaVuSans-65" x="344.388672"/>
      <use xlink:href="#DejaVuSans-64" x="405.912109"/>
      <use xlink:href="#DejaVuSans-20" x="469.388672"/>
      <use xlink:href="#DejaVuSans-41" x="501.175781"/>
      <use xlink:href="#DejaVuSans-72" x="569.583984"/>
      <use xlink:href="#DejaVuSans-63" x="608.447266"/>
      <use xlink:href="#DejaVuSans-2d" x="663.427734"/>
      <use xlink:href="#DejaVuSans-4c" x="699.511719"/>
      <use xlink:href="#DejaVuSans-65" x="753.474609"/>
      <use xlink:href="#DejaVuSans-6e" x="814.998047"/>
      <use xlink:href="#DejaVuSans-67" x="878.376953"/>
      <use xlink:href="#DejaVuSans-74" x="941.853516"/>
      <use xlink:href="#DejaVuSans-68" x="981.0625"/>
      <use xlink:href="#DejaVuSans-20" x="1044.441406"/>
      <use xlink:href="#DejaVuSans-28" x="1076.228516"/>
      <use xlink:href="#DejaVuSans-54" x="1115.242188"/>
      <use xlink:href="#DejaVuSans-72" x="1161.576172"/>
      <use xlink:href="#DejaVuSans-61" x="1202.689453"/>
      <use xlink:href="#DejaVuSans-6e" x="1263.96875"/>
      <use xlink:href="#DejaVuSans-73" x="1327.347656"/>
      <use xlink:href="#DejaVuSans-66" x="1379.447266"/>
      <use xlink:href="#DejaVuSans-6f" x="1414.652344"/>
      <use xlink:href="#DejaVuSans-72" x="1475.833984"/>
      <use xlink:href="#DejaVuSans-6d" x="1515.197266"/>
      <use xlink:href="#DejaVuSans-65" x="1612.609375"/>
      <use xlink:href="#DejaVuSans-64" x="1674.132812"/>
      <use xlink:href="#DejaVuSans-20" x="1737.609375"/>
      <use xlink:href="#DejaVuSans-43" x="1769.396484"/>
      <use xlink:href="#DejaVuSans-75" x="1839.220703"/>
      <use xlink:href="#DejaVuSans-72" x="1902.599609"/>
      <use xlink:href="#DejaVuSans-76" x="1943.712891"/>
      <use xlink:href="#DejaVuSans-65" x="2002.892578"/>
      <use xlink:href="#DejaVuSans-20" x="2064.416016"/>
      <use xlink:href="#DejaVuSans-23" x="2096.203125"/>
      <use xlink:href="#DejaVuSans-32" x="2179.992188"/>
      <use xlink:href="#DejaVuSans-29" x="2243.615234"/>
     </g>
    </g>
   </g>
   <g id="line2d_21">
    <path d="M 692.181818 1210.581818 
L 714.937978 1204.602593 
L 729.160578 1200.632274 
L 743.383178 1196.392016 
L 757.605777 1191.868321 
L 771.828377 1187.088809 
L 788.895497 1181.095054 
L 820.185217 1169.781013 
L 842.941376 1161.666742 
L 860.008496 1155.804725 
L 877.075616 1150.17732 
L 896.987256 1143.859401 
L 933.966015 1132.186206 
L 948.188615 1127.43542 
L 962.411215 1122.422605 
L 973.789295 1118.200877 
L 988.011895 1112.660688 
L 1002.234494 1106.860295 
L 1019.301614 1099.644619 
L 1067.658454 1079.010911 
L 1081.881054 1073.292276 
L 1093.259133 1068.940268 
L 1104.637213 1064.819541 
L 1116.015293 1060.948621 
L 1127.393373 1057.332364 
L 1138.771453 1053.959976 
L 1150.149533 1050.803571 
L 1164.372133 1047.091587 
L 1212.728972 1034.752677 
L 1224.107052 1031.554742 
L 1235.485132 1028.156024 
L 1246.863212 1024.538748 
L 1258.241291 1020.696703 
L 1269.619371 1016.63348 
L 1280.997451 1012.361126 
L 1295.220051 1006.757064 
L 1309.442651 1000.910494 
L 1329.354291 992.450904 
L 1366.33305 976.661542 
L 1380.55565 970.869505 
L 1391.93373 966.463496 
L 1403.31181 962.319492 
L 1411.84537 959.414787 
L 1420.378929 956.706787 
L 1428.912489 954.21336 
L 1437.446049 951.949487 
L 1445.979609 949.926339 
L 1454.513169 948.149917 
L 1463.046729 946.618836 
L 1471.580289 945.320476 
L 1480.113849 944.224308 
L 1494.336449 942.674554 
L 1508.559048 941.083158 
L 1517.092608 939.937045 
L 1525.626168 938.587019 
L 1534.159728 937.013085 
L 1542.693288 935.210163 
L 1551.226848 933.182365 
L 1559.760408 930.939723 
L 1568.293968 928.496248 
L 1579.672048 924.955078 
L 1591.050127 921.131244 
L 1602.428207 917.072159 
L 1616.650807 911.740738 
L 1633.717927 905.084666 
L 1667.852167 891.443831 
L 1696.297366 880.195832 
L 1719.053526 871.426583 
L 1747.498726 860.724645 
L 1810.078165 837.307416 
L 1838.523364 826.36984 
L 1901.102804 802.173422 
L 1918.169924 795.881898 
L 1932.392523 790.85509 
L 1946.615123 786.06362 
L 1960.837723 781.525531 
L 1975.060323 777.233874 
L 1992.127443 772.354669 
L 2020.572642 764.543264 
L 2040.484282 758.981547 
L 2057.551402 753.981282 
L 2074.618522 748.717633 
L 2091.685641 743.216917 
L 2117.286321 734.701319 
L 2148.576041 724.341115 
L 2168.487681 718.019889 
L 2185.5548 712.830324 
L 2205.46644 707.008049 
L 2282.268479 684.848637 
L 2327.780799 671.463243 
L 2347.692438 665.869814 
L 2367.604078 660.530516 
L 2390.360238 654.685039 
L 2433.028037 643.796755 
L 2452.939677 638.463478 
L 2475.695837 632.114597 
L 2512.674596 621.488063 
L 2549.653356 610.95397 
L 2603.699235 595.663619 
L 2623.610875 589.734166 
L 2640.677995 584.418881 
L 2657.745115 578.875805 
L 2677.656754 572.145179 
L 2700.412914 564.178996 
L 2728.858114 553.963067 
L 2777.214953 536.324041 
L 2819.882753 520.555766 
L 2848.327952 509.816105 
L 2873.928632 499.923161 
L 2902.373832 488.692335 
L 2950.730671 469.552544 
L 2967.797791 463.073995 
L 2982.020391 457.924058 
L 2993.398471 454.023456 
L 3004.776551 450.362305 
L 3016.15463 446.980599 
L 3024.68819 444.650172 
L 3033.22175 442.511724 
L 3041.75531 440.57677 
L 3050.28887 438.853566 
L 3058.82243 437.345707 
L 3067.35599 436.049819 
L 3075.88955 434.951534 
L 3087.26763 433.735287 
L 3112.868309 431.1924 
L 3121.401869 430.116417 
L 3129.935429 428.845805 
L 3138.468989 427.364165 
L 3147.002549 425.666394 
L 3155.536109 423.754341 
L 3164.069669 421.63434 
L 3172.603229 419.315747 
L 3181.136788 416.810016 
L 3192.514868 413.200419 
L 3203.892948 409.31448 
L 3215.271028 405.187354 
L 3229.493628 399.744367 
L 3243.716228 394.052411 
L 3263.627867 385.801905 
L 3314.829227 364.38519 
L 3329.051827 358.729636 
L 3340.429907 354.397348 
L 3351.807986 350.278657 
L 3363.186066 346.411337 
L 3374.564146 342.829732 
L 3383.097706 340.348396 
L 3391.631266 338.052449 
L 3400.164826 335.946009 
L 3408.698386 334.026905 
L 3420.076466 331.738726 
L 3431.454545 329.701148 
L 3465.588785 323.804134 
L 3474.122345 322.048056 
L 3482.655905 320.087623 
L 3491.189465 317.901577 
L 3499.723025 315.47967 
L 3508.256585 312.820216 
L 3516.790144 309.928241 
L 3525.323704 306.81415 
L 3533.857264 303.492737 
L 3545.235344 298.773984 
L 3556.613424 293.771512 
L 3570.836024 287.20984 
L 3587.903144 279.050884 
L 3619.192863 264.013592 
L 3633.415463 257.446039 
L 3644.793543 252.42196 
L 3656.171623 247.652868 
L 3667.549703 243.173543 
L 3678.927782 239.004727 
L 3690.305862 235.150172 
L 3701.683942 231.593647 
L 3713.062022 228.296586 
L 3727.284622 224.445209 
L 3735.818182 222.218182 
L 3735.818182 222.218182 
" clip-path="url(#p8cdcff1a51)" style="fill: none; stroke: #ff8c00; stroke-width: 6; stroke-linecap: square"/>
   </g>
   <g id="line2d_22">
    <path d="M 692.181818 1210.581818 
L 695.026338 1210.071428 
L 697.870858 1209.327331 
L 700.715378 1208.859291 
L 703.559898 1208.655701 
L 714.937978 1206.713141 
L 723.471538 1205.486658 
L 726.316058 1205.561265 
L 729.160578 1204.777495 
L 732.005098 1205.155678 
L 734.849618 1204.149489 
L 740.538658 1203.611428 
L 743.383178 1201.798316 
L 749.072218 1200.969868 
L 751.916737 1202.558255 
L 754.761257 1201.449395 
L 757.605777 1200.4832 
L 763.294817 1199.762527 
L 766.139337 1198.749594 
L 768.983857 1200.333998 
L 771.828377 1200.980387 
L 774.672897 1197.748329 
L 777.517417 1200.572927 
L 780.361937 1200.37664 
L 783.206457 1197.559062 
L 786.050977 1199.992964 
L 788.895497 1199.801068 
L 791.740017 1195.912777 
L 794.584537 1195.100688 
L 797.429057 1198.831565 
L 800.273577 1193.957839 
L 803.118097 1193.399949 
L 805.962617 1197.70021 
L 808.807137 1192.306916 
L 811.651657 1195.37292 
L 814.496177 1195.005062 
L 817.340697 1191.345192 
L 820.185217 1190.201062 
L 823.029737 1193.952738 
L 825.874257 1195.279426 
L 828.718777 1188.694897 
L 831.563297 1194.637302 
L 834.407816 1187.735968 
L 837.252336 1187.902619 
L 840.096856 1189.312582 
L 842.941376 1188.97701 
L 845.785896 1189.430822 
L 848.630416 1188.851344 
L 851.474936 1186.038455 
L 854.319456 1185.821551 
L 857.163976 1188.47734 
L 860.008496 1183.796055 
L 862.853016 1186.196697 
L 865.697536 1182.410519 
L 868.542056 1182.029959 
L 871.386576 1184.792696 
L 874.231096 1180.673139 
L 877.075616 1180.030267 
L 879.920136 1179.552929 
L 882.764656 1178.85205 
L 885.609176 1177.349166 
L 891.298216 1176.771213 
L 896.987256 1175.309868 
L 899.831776 1174.33403 
L 902.676296 1173.708059 
L 905.520816 1173.557301 
L 908.365336 1172.486607 
L 911.209856 1172.141819 
L 914.054376 1170.581456 
L 916.898895 1170.66095 
L 919.743415 1169.220079 
L 922.587935 1169.497404 
L 925.432455 1168.879667 
L 928.276975 1167.296846 
L 931.121495 1166.492221 
L 933.966015 1165.820732 
L 936.810535 1164.735126 
L 945.344095 1162.350646 
L 956.722175 1158.739184 
L 979.478335 1150.349439 
L 990.856415 1145.890855 
L 993.700935 1144.627496 
L 996.545455 1143.58989 
L 1002.234494 1141.233289 
L 1022.146134 1132.816425 
L 1044.902294 1122.967637 
L 1067.658454 1113.329265 
L 1096.103653 1102.313021 
L 1110.326253 1097.335379 
L 1113.170773 1096.481491 
L 1116.015293 1095.354323 
L 1118.859813 1094.543228 
L 1124.548853 1092.793435 
L 1130.237893 1091.139698 
L 1133.082413 1090.503677 
L 1135.926933 1089.592503 
L 1141.615973 1088.045109 
L 1144.460493 1087.499916 
L 1147.305013 1086.825846 
L 1150.149533 1085.968142 
L 1152.994053 1085.457287 
L 1164.372133 1082.657279 
L 1167.216653 1082.355089 
L 1172.905692 1081.246325 
L 1175.750212 1080.399128 
L 1178.594732 1079.832639 
L 1181.439252 1079.714593 
L 1187.128292 1078.259915 
L 1189.972812 1077.855003 
L 1192.817332 1077.323117 
L 1195.661852 1077.110199 
L 1198.506372 1076.332503 
L 1204.195412 1075.348067 
L 1207.039932 1074.653258 
L 1209.884452 1074.457363 
L 1212.728972 1074.012997 
L 1215.573492 1073.132256 
L 1218.418012 1073.000248 
L 1226.951572 1071.375343 
L 1229.796092 1070.417168 
L 1232.640612 1070.192402 
L 1235.485132 1069.26073 
L 1238.329652 1069.049402 
L 1241.174172 1068.150605 
L 1244.018692 1068.315829 
L 1249.707732 1066.564454 
L 1252.552251 1066.057407 
L 1255.396771 1066.285009 
L 1258.241291 1065.817706 
L 1261.085811 1064.443053 
L 1263.930331 1064.0353 
L 1266.774851 1062.982735 
L 1269.619371 1063.804228 
L 1272.463891 1061.538371 
L 1275.308411 1061.119225 
L 1278.152931 1060.401458 
L 1280.997451 1061.551605 
L 1283.841971 1060.627084 
L 1286.686491 1060.492895 
L 1289.531011 1057.299497 
L 1292.375531 1059.036856 
L 1295.220051 1059.001137 
L 1298.064571 1055.374013 
L 1300.909091 1054.159389 
L 1303.753611 1053.758681 
L 1306.598131 1052.951931 
L 1309.442651 1051.772469 
L 1312.287171 1051.340316 
L 1315.131691 1050.196498 
L 1317.976211 1047.301238 
L 1320.820731 1048.931571 
L 1323.665251 1045.394271 
L 1326.509771 1044.621011 
L 1329.354291 1046.293086 
L 1332.198811 1042.552243 
L 1335.043331 1041.786281 
L 1337.88785 1044.200757 
L 1340.73237 1043.431283 
L 1343.57689 1038.733275 
L 1346.42141 1037.727187 
L 1349.26593 1035.781437 
L 1352.11045 1035.577295 
L 1354.95497 1034.741609 
L 1357.79949 1032.69711 
L 1360.64401 1031.581508 
L 1363.48853 1031.669881 
L 1366.33305 1030.709462 
L 1369.17757 1028.174096 
L 1372.02209 1027.109705 
L 1374.86661 1027.875391 
L 1377.71113 1026.948068 
L 1380.55565 1024.110147 
L 1383.40017 1022.936632 
L 1386.24469 1021.919006 
L 1389.08921 1021.092117 
L 1394.77825 1018.94092 
L 1400.46729 1016.97449 
L 1406.15633 1015.212625 
L 1409.00085 1014.122751 
L 1411.84537 1013.353714 
L 1414.68989 1012.340219 
L 1420.378929 1010.642103 
L 1423.223449 1010.471288 
L 1426.067969 1009.837069 
L 1428.912489 1008.238986 
L 1431.757009 1007.978064 
L 1434.601529 1006.802709 
L 1440.290569 1005.339406 
L 1443.135089 1004.696294 
L 1445.979609 1004.528972 
L 1448.824129 1003.389543 
L 1451.668649 1003.4519 
L 1454.513169 1002.946864 
L 1457.357689 1001.674094 
L 1460.202209 1001.091615 
L 1471.580289 999.523221 
L 1477.269329 999.118635 
L 1480.113849 998.637232 
L 1494.336449 997.791715 
L 1497.180969 997.753886 
L 1500.025489 997.860764 
L 1505.714528 997.76095 
L 1511.403568 998.020776 
L 1551.226848 997.042714 
L 1554.071368 996.299004 
L 1562.604928 995.849585 
L 1568.293968 995.50794 
L 1571.138488 996.094319 
L 1573.983008 995.148811 
L 1576.827528 995.571796 
L 1579.672048 994.808122 
L 1582.516568 995.439091 
L 1585.361088 995.362799 
L 1588.205607 994.22094 
L 1591.050127 995.853906 
L 1593.894647 993.762331 
L 1599.583687 993.281968 
L 1602.428207 991.998152 
L 1605.272727 986.350276 
L 1610.961767 985.054518 
L 1613.806287 991.794422 
L 1616.650807 983.716141 
L 1619.495327 983.054862 
L 1622.339847 990.151122 
L 1625.184367 981.745326 
L 1628.028887 989.554065 
L 1630.873407 989.247215 
L 1633.717927 979.804265 
L 1642.251487 977.885413 
L 1645.096007 988.530411 
L 1647.940527 976.621723 
L 1650.785047 987.952695 
L 1653.629567 975.3672 
L 1656.474087 974.753879 
L 1659.318607 973.995725 
L 1662.163127 971.307722 
L 1665.007647 970.547382 
L 1667.852167 971.776849 
L 1670.696686 971.057193 
L 1673.541206 964.098396 
L 1676.385726 969.649669 
L 1679.230246 962.21425 
L 1682.074766 961.287971 
L 1684.919286 965.598457 
L 1687.763806 959.414994 
L 1690.608326 964.317041 
L 1693.452846 957.68263 
L 1707.675446 953.372553 
L 1710.519966 960.249909 
L 1713.364486 961.528176 
L 1716.209006 960.968264 
L 1719.053526 949.57147 
L 1721.898046 948.122646 
L 1724.742566 948.325409 
L 1727.587086 947.00368 
L 1730.431606 945.416639 
L 1733.276126 945.812707 
L 1736.120646 943.523483 
L 1741.809686 941.723923 
L 1744.654206 942.142229 
L 1747.498726 941.79827 
L 1750.343246 940.607939 
L 1753.187766 938.135228 
L 1756.032285 939.116763 
L 1758.876805 936.422796 
L 1761.721325 937.997017 
L 1764.565845 936.95855 
L 1767.410365 936.539687 
L 1770.254885 933.106839 
L 1773.099405 935.11965 
L 1775.943925 931.500473 
L 1778.788445 933.736405 
L 1781.632965 929.907184 
L 1784.477485 929.348723 
L 1787.322005 927.998708 
L 1790.166525 927.609026 
L 1793.011045 926.36326 
L 1795.855565 925.882292 
L 1810.078165 921.587352 
L 1812.922685 919.722847 
L 1818.611725 917.880224 
L 1821.456245 917.403179 
L 1824.300765 917.041249 
L 1829.989805 915.135376 
L 1832.834325 913.335266 
L 1835.678845 912.383903 
L 1838.523364 912.147758 
L 1841.367884 910.5931 
L 1844.212404 909.811309 
L 1847.056924 909.304401 
L 1849.901444 907.156562 
L 1861.279524 903.138619 
L 1864.124044 902.16723 
L 1866.968564 901.861297 
L 1869.813084 900.147558 
L 1878.346644 897.14578 
L 1881.191164 896.058543 
L 1884.035684 896.124961 
L 1886.880204 894.185441 
L 1892.569244 892.069827 
L 1895.413764 891.072496 
L 1898.258284 890.31572 
L 1901.102804 889.093143 
L 1903.947324 888.102015 
L 1906.791844 887.756122 
L 1918.169924 883.471824 
L 1921.014444 883.130868 
L 1923.858963 881.624053 
L 1926.703483 880.419497 
L 1929.548003 880.194954 
L 1932.392523 878.464464 
L 1935.237043 877.48941 
L 1938.081563 877.328198 
L 1940.926083 875.605397 
L 1943.770603 874.678838 
L 1946.615123 874.023594 
L 1949.459643 872.538792 
L 1952.304163 872.209198 
L 1955.148683 871.296748 
L 1957.993203 869.854053 
L 1960.837723 869.356731 
L 1963.682243 868.507177 
L 1966.526763 867.311798 
L 1969.371283 866.841193 
L 1980.749363 863.60603 
L 1983.593883 863.614114 
L 1986.438403 863.14988 
L 1989.282923 861.375588 
L 1992.127443 860.493125 
L 1994.971963 859.789379 
L 1997.816483 859.202945 
L 2000.661003 859.618748 
L 2003.505523 857.760823 
L 2006.350042 858.035514 
L 2009.194562 857.610283 
L 2012.039082 856.957128 
L 2014.883602 856.111557 
L 2017.728122 855.777403 
L 2023.417162 854.565915 
L 2031.950722 852.900402 
L 2054.706882 847.604462 
L 2057.551402 847.082715 
L 2063.240442 845.747876 
L 2066.084962 844.668468 
L 2068.929482 844.527635 
L 2071.774002 843.594169 
L 2080.307562 841.277686 
L 2085.996602 839.671943 
L 2088.841121 839.121794 
L 2091.685641 837.79702 
L 2097.374681 836.765371 
L 2100.219201 835.361326 
L 2103.063721 834.725741 
L 2108.752761 832.710527 
L 2111.597281 831.901644 
L 2114.441801 831.218657 
L 2117.286321 830.330651 
L 2120.130841 829.160478 
L 2122.975361 828.448384 
L 2125.819881 827.269816 
L 2137.197961 823.558847 
L 2142.887001 821.668367 
L 2148.576041 819.800797 
L 2151.420561 819.397747 
L 2154.265081 818.220883 
L 2157.109601 817.433793 
L 2159.954121 816.480934 
L 2162.798641 815.813978 
L 2165.643161 814.788143 
L 2177.02124 811.702247 
L 2179.86576 810.65576 
L 2182.71028 809.855939 
L 2185.5548 809.187371 
L 2188.39932 808.386476 
L 2191.24384 807.792397 
L 2194.08836 806.804575 
L 2205.46644 804.152013 
L 2208.31096 803.330102 
L 2211.15548 802.389567 
L 2214 801.979762 
L 2216.84452 801.103826 
L 2219.68904 800.714092 
L 2222.53356 799.889652 
L 2225.37808 799.309474 
L 2231.06712 798.415198 
L 2233.91164 797.628136 
L 2242.4452 795.924568 
L 2245.28972 795.104057 
L 2248.13424 794.760615 
L 2250.97876 794.122866 
L 2253.82328 793.940078 
L 2256.667799 793.180794 
L 2259.512319 792.790089 
L 2262.356839 791.826685 
L 2265.201359 791.363281 
L 2268.045879 790.7724 
L 2270.890399 790.528592 
L 2273.734919 789.853281 
L 2276.579439 789.784088 
L 2279.423959 788.842046 
L 2282.268479 788.567512 
L 2285.112999 788.175117 
L 2287.957519 787.118833 
L 2296.491079 785.65397 
L 2299.335599 785.744485 
L 2302.180119 785.275255 
L 2305.024639 784.246366 
L 2307.869159 783.814749 
L 2310.713679 782.619719 
L 2313.558199 783.584588 
L 2319.247239 782.856504 
L 2322.091759 780.863293 
L 2327.780799 780.0164 
L 2330.625319 778.538898 
L 2336.314359 777.387657 
L 2339.158879 777.502179 
L 2342.003398 776.315956 
L 2344.847918 776.066816 
L 2347.692438 775.3282 
L 2350.536958 775.070659 
L 2353.381478 775.664152 
L 2356.225998 776.129147 
L 2359.070518 775.857364 
L 2361.915038 774.80829 
L 2364.759558 775.377871 
L 2367.604078 772.490103 
L 2370.448598 771.665608 
L 2373.293118 771.168579 
L 2378.982158 770.482285 
L 2381.826678 769.935558 
L 2384.671198 770.462903 
L 2390.360238 768.722205 
L 2393.204758 769.737946 
L 2396.049278 767.584042 
L 2398.893798 767.269495 
L 2401.738318 768.579462 
L 2404.582838 767.119039 
L 2407.427358 767.406999 
L 2410.271878 767.354097 
L 2413.116398 767.477519 
L 2415.960918 766.695458 
L 2418.805438 766.308368 
L 2421.649958 766.692844 
L 2424.494477 765.828743 
L 2430.183517 765.412894 
L 2433.028037 765.847571 
L 2435.872557 765.051604 
L 2438.717077 765.488011 
L 2441.561597 763.772891 
L 2444.406117 763.466953 
L 2450.095157 762.530717 
L 2452.939677 763.315801 
L 2455.784197 762.063426 
L 2458.628717 762.008532 
L 2461.473237 762.335059 
L 2470.006797 761.386387 
L 2472.851317 758.829214 
L 2475.695837 758.395441 
L 2478.540357 758.492324 
L 2481.384877 757.377256 
L 2484.229397 756.540314 
L 2487.073917 756.800821 
L 2489.918437 755.585177 
L 2492.762957 754.953833 
L 2495.607477 755.104506 
L 2498.451997 753.19214 
L 2501.296517 753.385281 
L 2504.141037 752.247491 
L 2506.985556 752.259142 
L 2509.830076 751.692116 
L 2512.674596 750.077308 
L 2515.519116 751.055773 
L 2518.363636 750.464357 
L 2521.208156 747.248937 
L 2524.052676 746.873475 
L 2532.586236 744.628195 
L 2535.430756 743.509718 
L 2538.275276 743.125723 
L 2543.964316 741.616201 
L 2546.808836 740.448941 
L 2549.653356 740.098076 
L 2552.497876 738.914762 
L 2555.342396 737.870554 
L 2558.186916 737.531263 
L 2561.031436 736.783965 
L 2563.875956 735.838085 
L 2566.720476 735.210898 
L 2569.564996 734.30889 
L 2575.254036 732.890756 
L 2578.098556 732.058517 
L 2580.943076 731.376612 
L 2592.321155 728.232155 
L 2595.165675 727.881804 
L 2600.854715 726.084634 
L 2603.699235 725.67126 
L 2606.543755 724.940756 
L 2609.388275 723.980714 
L 2612.232795 723.408634 
L 2615.077315 722.530254 
L 2617.921835 721.793864 
L 2620.766355 721.374138 
L 2623.610875 720.276929 
L 2626.455395 719.90589 
L 2632.144435 718.416444 
L 2637.833475 716.881614 
L 2640.677995 715.807744 
L 2643.522515 715.435347 
L 2646.367035 714.809982 
L 2649.211555 713.500303 
L 2652.056075 712.730529 
L 2654.900595 712.13678 
L 2657.745115 711.939187 
L 2660.589635 710.576461 
L 2663.434155 710.426094 
L 2666.278675 709.014242 
L 2669.123195 707.961139 
L 2674.812234 706.26873 
L 2677.656754 705.817829 
L 2680.501274 704.56859 
L 2683.345794 704.06045 
L 2686.190314 702.957844 
L 2689.034834 702.483473 
L 2691.879354 701.220584 
L 2694.723874 700.760874 
L 2697.568394 699.872182 
L 2700.412914 698.608789 
L 2703.257434 697.684299 
L 2706.101954 697.151191 
L 2708.946474 696.172719 
L 2711.790994 695.043411 
L 2714.635514 694.223171 
L 2728.858114 689.242984 
L 2731.702634 688.66129 
L 2734.547154 687.384689 
L 2745.925234 683.198196 
L 2748.769754 682.632833 
L 2751.614274 681.130741 
L 2754.458794 680.618265 
L 2757.303314 678.931366 
L 2762.992353 677.059785 
L 2768.681393 674.727222 
L 2771.525913 674.002841 
L 2774.370433 672.687941 
L 2777.214953 671.548144 
L 2788.593033 667.746894 
L 2791.437553 666.895695 
L 2794.282073 665.633985 
L 2802.815633 662.433942 
L 2805.660153 661.786312 
L 2808.504673 660.363427 
L 2811.349193 659.724259 
L 2814.193713 658.68913 
L 2817.038233 657.396828 
L 2822.727273 655.304321 
L 2825.571793 654.463559 
L 2828.416313 653.122479 
L 2834.105353 651.035447 
L 2836.949873 650.147156 
L 2839.794393 648.961252 
L 2842.638912 648.125668 
L 2845.483432 647.058054 
L 2848.327952 645.855662 
L 2873.928632 636.282198 
L 2876.773152 635.10683 
L 2879.617672 633.575059 
L 2882.462192 633.008559 
L 2885.306712 631.383947 
L 2888.151232 630.575684 
L 2890.995752 629.601962 
L 2893.840272 628.103247 
L 2896.684792 627.474151 
L 2899.529312 626.16309 
L 2902.373832 625.076261 
L 2905.218352 623.815382 
L 2908.062872 622.900306 
L 2916.596432 619.694847 
L 2919.440952 618.217858 
L 2922.285472 617.484009 
L 2925.129992 615.808524 
L 2927.974511 615.278587 
L 2930.819031 613.551264 
L 2933.663551 613.11137 
L 2936.508071 611.967567 
L 2947.886151 608.029264 
L 2950.730671 606.636872 
L 2953.575191 605.857804 
L 2956.419711 604.812307 
L 2959.264231 603.347715 
L 2964.953271 601.240913 
L 2967.797791 600.483141 
L 2976.331351 597.509251 
L 2979.175871 596.864014 
L 2982.020391 595.387947 
L 2984.864911 594.858908 
L 2987.709431 593.517902 
L 2990.553951 592.906733 
L 2999.087511 590.028623 
L 3001.932031 588.855073 
L 3004.776551 588.260876 
L 3007.621071 587.441629 
L 3010.46559 586.193292 
L 3013.31011 586.365894 
L 3016.15463 584.741943 
L 3018.99915 584.613931 
L 3021.84367 583.811219 
L 3024.68819 582.551551 
L 3027.53271 581.867466 
L 3030.37723 581.91372 
L 3033.22175 580.582049 
L 3036.06627 580.193421 
L 3038.91079 579.97481 
L 3041.75531 579.302605 
L 3044.59983 578.936388 
L 3047.44435 578.364312 
L 3050.28887 577.12074 
L 3053.13339 577.391752 
L 3055.97791 576.036844 
L 3061.66695 575.230355 
L 3064.51147 574.994331 
L 3067.35599 574.545293 
L 3070.20051 575.051985 
L 3081.57859 573.900801 
L 3084.42311 574.094088 
L 3087.26763 573.580434 
L 3090.11215 573.854803 
L 3092.956669 573.819385 
L 3095.801189 573.246327 
L 3098.645709 573.296772 
L 3101.490229 573.028537 
L 3104.334749 573.318703 
L 3115.712829 573.089725 
L 3118.557349 572.988324 
L 3121.401869 573.113458 
L 3129.935429 572.914469 
L 3132.779949 573.032088 
L 3135.624469 572.645708 
L 3138.468989 571.841726 
L 3141.313509 571.369171 
L 3149.847069 570.315735 
L 3152.691589 569.606853 
L 3155.536109 568.752087 
L 3166.914189 565.870909 
L 3175.447749 563.50521 
L 3189.670348 559.153001 
L 3201.048428 555.438252 
L 3203.892948 554.322847 
L 3209.581988 552.357316 
L 3215.271028 550.16107 
L 3235.182668 542.680391 
L 3246.560748 538.236512 
L 3249.405268 537.019916 
L 3252.249788 536.051284 
L 3255.094308 534.745297 
L 3266.472387 530.111132 
L 3269.316907 528.946855 
L 3272.161427 527.968493 
L 3277.850467 525.30775 
L 3280.694987 524.18513 
L 3283.539507 522.754239 
L 3286.384027 521.916567 
L 3294.917587 518.392361 
L 3297.762107 516.911452 
L 3300.606627 516.002827 
L 3311.984707 511.429623 
L 3317.673747 509.215801 
L 3320.518267 508.142641 
L 3323.362787 506.731962 
L 3326.207307 505.971896 
L 3334.740867 502.782108 
L 3337.585387 501.142312 
L 3340.429907 500.551896 
L 3348.963466 497.432192 
L 3351.807986 496.004063 
L 3354.652506 495.61599 
L 3357.497026 494.628255 
L 3360.341546 493.377087 
L 3363.186066 492.414731 
L 3366.030586 491.7845 
L 3371.719626 489.962835 
L 3374.564146 488.794357 
L 3377.408666 487.97766 
L 3380.253186 487.935861 
L 3385.942226 486.251365 
L 3388.786746 484.88451 
L 3397.320306 482.829999 
L 3400.164826 482.867086 
L 3403.009346 482.041796 
L 3405.853866 481.440978 
L 3408.698386 480.435594 
L 3411.542906 480.233482 
L 3420.076466 478.800797 
L 3425.765506 477.972026 
L 3428.610025 477.163744 
L 3431.454545 476.835867 
L 3434.299065 476.964802 
L 3448.521665 475.639844 
L 3451.366185 475.68555 
L 3454.210705 475.43609 
L 3459.899745 475.149043 
L 3465.588785 474.837693 
L 3468.433305 474.69119 
L 3471.277825 474.423556 
L 3474.122345 474.53904 
L 3476.966865 474.221153 
L 3479.811385 474.326959 
L 3485.500425 474.104385 
L 3494.033985 473.40711 
L 3496.878505 473.367701 
L 3499.723025 472.45771 
L 3502.567545 472.920123 
L 3505.412065 471.884714 
L 3508.256585 471.968232 
L 3516.790144 469.884306 
L 3519.634664 470.8203 
L 3522.479184 470.015279 
L 3525.323704 467.970064 
L 3528.168224 469.374967 
L 3531.012744 466.239827 
L 3533.857264 465.46564 
L 3536.701784 464.121897 
L 3539.546304 463.295926 
L 3542.390824 461.927611 
L 3545.235344 461.627528 
L 3548.079864 459.887352 
L 3550.924384 458.725642 
L 3553.768904 457.391774 
L 3556.613424 457.513682 
L 3559.457944 456.309543 
L 3562.302464 454.816724 
L 3565.146984 453.837314 
L 3567.991504 452.332802 
L 3570.836024 451.071421 
L 3573.680544 449.972642 
L 3590.747664 442.08175 
L 3604.970263 435.365532 
L 3607.814783 434.238374 
L 3610.659303 432.93776 
L 3616.348343 430.113826 
L 3619.192863 428.762924 
L 3622.037383 427.776272 
L 3624.881903 426.191927 
L 3630.570943 423.845557 
L 3641.949023 418.559953 
L 3644.793543 417.703968 
L 3650.482583 415.116427 
L 3656.171623 412.818775 
L 3659.016143 411.850566 
L 3664.705183 409.484474 
L 3676.083263 405.372849 
L 3687.461342 401.642875 
L 3690.305862 400.743462 
L 3693.150382 399.668447 
L 3695.994902 398.948199 
L 3698.839422 397.826246 
L 3701.683942 397.017611 
L 3707.372982 395.561367 
L 3718.751062 392.671537 
L 3721.595582 392.112708 
L 3724.440102 391.384597 
L 3730.129142 390.267402 
L 3732.973662 389.546397 
L 3735.818182 389.059184 
L 3735.818182 389.059184 
" clip-path="url(#p8cdcff1a51)" style="fill: none; stroke: #aa0000; stroke-width: 6; stroke-linecap: square"/>
   </g>
   <g id="line2d_23">
    <path d="M 692.181818 1210.581818 
L 714.937978 1204.602593 
L 729.160578 1200.632274 
L 743.383178 1196.392016 
L 757.605777 1191.868321 
L 771.828377 1187.088809 
L 788.895497 1181.095054 
L 820.185217 1169.781013 
L 842.941376 1161.666742 
L 860.008496 1155.804725 
L 877.075616 1150.17732 
L 896.987256 1143.859401 
L 933.966015 1132.186206 
L 948.188615 1127.43542 
L 962.411215 1122.422605 
L 973.789295 1118.200877 
L 988.011895 1112.660688 
L 1002.234494 1106.860295 
L 1019.301614 1099.644619 
L 1067.658454 1079.010911 
L 1081.881054 1073.292276 
L 1093.259133 1068.940268 
L 1104.637213 1064.819541 
L 1116.015293 1060.948621 
L 1127.393373 1057.332364 
L 1138.771453 1053.959976 
L 1150.149533 1050.803571 
L 1164.372133 1047.091587 
L 1212.728972 1034.752677 
L 1224.107052 1031.554742 
L 1235.485132 1028.156024 
L 1246.863212 1024.538748 
L 1258.241291 1020.696703 
L 1269.619371 1016.63348 
L 1280.997451 1012.361126 
L 1295.220051 1006.757064 
L 1309.442651 1000.910494 
L 1329.354291 992.450904 
L 1366.33305 976.661542 
L 1380.55565 970.869505 
L 1391.93373 966.463496 
L 1403.31181 962.319492 
L 1411.84537 959.414787 
L 1420.378929 956.706787 
L 1428.912489 954.21336 
L 1437.446049 951.949487 
L 1445.979609 949.926339 
L 1454.513169 948.149917 
L 1463.046729 946.618836 
L 1471.580289 945.320476 
L 1480.113849 944.224308 
L 1494.336449 942.674554 
L 1508.559048 941.083158 
L 1517.092608 939.937045 
L 1525.626168 938.587019 
L 1534.159728 937.013085 
L 1542.693288 935.210163 
L 1551.226848 933.182365 
L 1559.760408 930.939723 
L 1568.293968 928.496248 
L 1579.672048 924.955078 
L 1591.050127 921.131244 
L 1602.428207 917.072159 
L 1616.650807 911.740738 
L 1633.717927 905.084666 
L 1667.852167 891.443831 
L 1696.297366 880.195832 
L 1719.053526 871.426583 
L 1747.498726 860.724645 
L 1810.078165 837.307416 
L 1838.523364 826.36984 
L 1901.102804 802.173422 
L 1918.169924 795.881898 
L 1932.392523 790.85509 
L 1946.615123 786.06362 
L 1960.837723 781.525531 
L 1975.060323 777.233874 
L 1992.127443 772.354669 
L 2020.572642 764.543264 
L 2040.484282 758.981547 
L 2057.551402 753.981282 
L 2074.618522 748.717633 
L 2091.685641 743.216917 
L 2117.286321 734.701319 
L 2148.576041 724.341115 
L 2168.487681 718.019889 
L 2185.5548 712.830324 
L 2205.46644 707.008049 
L 2282.268479 684.848637 
L 2327.780799 671.463243 
L 2347.692438 665.869814 
L 2367.604078 660.530516 
L 2390.360238 654.685039 
L 2433.028037 643.796755 
L 2452.939677 638.463478 
L 2475.695837 632.114597 
L 2512.674596 621.488063 
L 2549.653356 610.95397 
L 2603.699235 595.663619 
L 2623.610875 589.734166 
L 2640.677995 584.418881 
L 2657.745115 578.875805 
L 2677.656754 572.145179 
L 2700.412914 564.178996 
L 2728.858114 553.963067 
L 2777.214953 536.324041 
L 2819.882753 520.555766 
L 2848.327952 509.816105 
L 2873.928632 499.923161 
L 2902.373832 488.692335 
L 2950.730671 469.552544 
L 2967.797791 463.073995 
L 2982.020391 457.924058 
L 2993.398471 454.023456 
L 3004.776551 450.362305 
L 3016.15463 446.980599 
L 3024.68819 444.650172 
L 3033.22175 442.511724 
L 3041.75531 440.57677 
L 3050.28887 438.853566 
L 3058.82243 437.345707 
L 3067.35599 436.049819 
L 3075.88955 434.951534 
L 3087.26763 433.735287 
L 3112.868309 431.1924 
L 3121.401869 430.116417 
L 3129.935429 428.845805 
L 3138.468989 427.364165 
L 3147.002549 425.666394 
L 3155.536109 423.754341 
L 3164.069669 421.63434 
L 3172.603229 419.315747 
L 3181.136788 416.810016 
L 3192.514868 413.200419 
L 3203.892948 409.31448 
L 3215.271028 405.187354 
L 3229.493628 399.744367 
L 3243.716228 394.052411 
L 3263.627867 385.801905 
L 3314.829227 364.38519 
L 3329.051827 358.729636 
L 3340.429907 354.397348 
L 3351.807986 350.278657 
L 3363.186066 346.411337 
L 3374.564146 342.829732 
L 3383.097706 340.348396 
L 3391.631266 338.052449 
L 3400.164826 335.946009 
L 3408.698386 334.026905 
L 3420.076466 331.738726 
L 3431.454545 329.701148 
L 3465.588785 323.804134 
L 3474.122345 322.048056 
L 3482.655905 320.087623 
L 3491.189465 317.901577 
L 3499.723025 315.47967 
L 3508.256585 312.820216 
L 3516.790144 309.928241 
L 3525.323704 306.81415 
L 3533.857264 303.492737 
L 3545.235344 298.773984 
L 3556.613424 293.771512 
L 3570.836024 287.20984 
L 3587.903144 279.050884 
L 3619.192863 264.013592 
L 3633.415463 257.446039 
L 3644.793543 252.42196 
L 3656.171623 247.652868 
L 3667.549703 243.173543 
L 3678.927782 239.004727 
L 3690.305862 235.150172 
L 3701.683942 231.593647 
L 3713.062022 228.296586 
L 3727.284622 224.445209 
L 3735.818182 222.218182 
L 3735.818182 222.218182 
" clip-path="url(#p8cdcff1a51)" style="fill: none; stroke: #444444; stroke-width: 6; stroke-linecap: square"/>
   </g>
   <g id="line2d_24">
    <path d="M 692.181818 1210.581818 
L 695.026338 1210.065495 
L 697.870858 1209.227663 
L 700.715378 1209.151348 
L 703.559898 1208.030248 
L 706.404418 1208.304249 
L 709.248938 1207.264408 
L 712.093458 1207.536294 
L 714.937978 1206.576367 
L 717.782498 1206.848718 
L 720.627018 1206.445659 
L 723.471538 1205.621659 
L 729.160578 1204.980153 
L 732.005098 1204.262981 
L 734.849618 1203.793178 
L 737.694138 1203.698343 
L 740.538658 1202.831534 
L 743.383178 1202.370743 
L 746.227698 1202.367316 
L 749.072218 1201.495461 
L 754.761257 1200.576799 
L 757.605777 1200.166394 
L 760.450297 1200.167263 
L 763.294817 1198.455345 
L 766.139337 1197.879042 
L 768.983857 1196.915531 
L 771.828377 1197.524101 
L 774.672897 1196.951012 
L 777.517417 1195.461918 
L 780.361937 1194.876133 
L 783.206457 1193.082534 
L 786.050977 1194.717051 
L 788.895497 1193.575439 
L 791.740017 1192.789145 
L 794.584537 1191.827472 
L 797.429057 1191.171768 
L 800.273577 1189.884463 
L 803.118097 1189.453831 
L 805.962617 1188.599274 
L 808.807137 1186.956242 
L 811.651657 1185.988429 
L 814.496177 1185.271852 
L 817.340697 1184.088988 
L 820.185217 1183.412373 
L 823.029737 1181.989253 
L 831.563297 1179.400957 
L 834.407816 1178.646236 
L 837.252336 1177.332626 
L 840.096856 1176.557069 
L 845.785896 1174.630054 
L 848.630416 1173.603421 
L 851.474936 1172.69718 
L 854.319456 1171.923466 
L 860.008496 1170.02431 
L 862.853016 1169.200311 
L 865.697536 1168.190367 
L 874.231096 1165.586803 
L 877.075616 1164.603011 
L 879.920136 1163.737995 
L 882.764656 1163.02952 
L 885.609176 1162.17884 
L 888.453696 1161.206161 
L 891.298216 1160.535498 
L 902.676296 1157.318916 
L 905.520816 1156.611425 
L 908.365336 1155.588799 
L 911.209856 1154.814489 
L 914.054376 1154.352691 
L 919.743415 1152.812653 
L 922.587935 1151.805169 
L 925.432455 1151.261883 
L 928.276975 1150.352614 
L 931.121495 1149.81331 
L 939.655055 1147.450328 
L 942.499575 1146.900894 
L 945.344095 1145.972678 
L 948.188615 1145.351956 
L 953.877655 1143.787574 
L 956.722175 1142.692321 
L 959.566695 1141.849959 
L 962.411215 1141.214187 
L 965.255735 1140.350059 
L 968.100255 1139.791381 
L 970.944775 1138.608171 
L 973.789295 1138.350958 
L 976.633815 1136.964405 
L 979.478335 1136.121496 
L 982.322855 1134.739858 
L 985.167375 1133.881625 
L 988.011895 1133.570749 
L 990.856415 1131.91201 
L 993.700935 1131.837784 
L 996.545455 1129.733279 
L 999.389975 1129.540612 
L 1002.234494 1129.173163 
L 1005.079014 1126.813912 
L 1007.923534 1126.905245 
L 1010.768054 1124.829105 
L 1013.612574 1124.651452 
L 1016.457094 1123.378742 
L 1019.301614 1122.308316 
L 1022.146134 1121.091751 
L 1024.990654 1120.77525 
L 1027.835174 1118.813493 
L 1030.679694 1118.631296 
L 1033.524214 1116.482308 
L 1036.368734 1115.884464 
L 1042.057774 1113.851381 
L 1050.591334 1110.159976 
L 1053.435854 1108.787496 
L 1056.280374 1108.011173 
L 1064.813934 1104.539663 
L 1067.658454 1103.192486 
L 1070.502974 1101.503071 
L 1073.347494 1100.180881 
L 1076.192014 1099.208064 
L 1079.036534 1098.456951 
L 1081.881054 1097.334138 
L 1084.725573 1095.827482 
L 1087.570093 1095.099267 
L 1098.948173 1090.606939 
L 1101.792693 1090.038935 
L 1104.637213 1089.059728 
L 1110.326253 1086.898073 
L 1113.170773 1086.084263 
L 1116.015293 1085.122377 
L 1118.859813 1084.413137 
L 1121.704333 1083.428666 
L 1124.548853 1082.616681 
L 1127.393373 1081.927308 
L 1130.237893 1081.072959 
L 1138.771453 1078.961276 
L 1150.149533 1076.404051 
L 1152.994053 1076.133859 
L 1155.838573 1075.18981 
L 1161.527613 1074.071155 
L 1164.372133 1074.047051 
L 1170.061172 1073.055478 
L 1172.905692 1072.393883 
L 1175.750212 1071.993334 
L 1178.594732 1071.368344 
L 1181.439252 1071.274908 
L 1184.283772 1070.694101 
L 1192.817332 1070.15116 
L 1195.661852 1069.471601 
L 1198.506372 1069.66693 
L 1201.350892 1069.334375 
L 1204.195412 1068.870947 
L 1207.039932 1069.406708 
L 1209.884452 1068.356938 
L 1212.728972 1067.996336 
L 1221.262532 1067.602266 
L 1224.107052 1067.526204 
L 1226.951572 1067.998562 
L 1229.796092 1067.033889 
L 1232.640612 1066.772418 
L 1235.485132 1066.812688 
L 1238.329652 1066.722392 
L 1241.174172 1066.027041 
L 1244.018692 1066.617645 
L 1246.863212 1066.60301 
L 1249.707732 1066.938258 
L 1252.552251 1066.100144 
L 1255.396771 1065.144076 
L 1258.241291 1065.91657 
L 1261.085811 1066.826579 
L 1263.930331 1066.077587 
L 1266.774851 1066.226855 
L 1269.619371 1065.496528 
L 1272.463891 1063.699728 
L 1275.308411 1065.416069 
L 1278.152931 1062.666466 
L 1280.997451 1064.513069 
L 1283.841971 1064.291455 
L 1286.686491 1061.221057 
L 1289.531011 1060.770859 
L 1292.375531 1059.676209 
L 1295.220051 1059.247183 
L 1309.442651 1055.489433 
L 1312.287171 1053.406582 
L 1315.131691 1053.42025 
L 1317.976211 1051.151379 
L 1320.820731 1050.744581 
L 1329.354291 1047.278537 
L 1332.198811 1046.378104 
L 1337.88785 1044.127247 
L 1340.73237 1043.34199 
L 1346.42141 1041.097592 
L 1349.26593 1039.591877 
L 1352.11045 1038.817207 
L 1354.95497 1037.281129 
L 1360.64401 1034.942565 
L 1363.48853 1033.812283 
L 1366.33305 1032.814465 
L 1369.17757 1031.546074 
L 1372.02209 1030.604399 
L 1374.86661 1029.40111 
L 1377.71113 1028.433809 
L 1380.55565 1027.151585 
L 1386.24469 1025.260364 
L 1394.77825 1021.857404 
L 1397.62277 1021.184322 
L 1400.46729 1019.812416 
L 1406.15633 1017.87409 
L 1409.00085 1017.311732 
L 1411.84537 1015.985788 
L 1414.68989 1015.486322 
L 1423.223449 1012.904938 
L 1426.067969 1012.293689 
L 1428.912489 1011.316487 
L 1431.757009 1010.645566 
L 1434.601529 1010.14528 
L 1437.446049 1009.410786 
L 1440.290569 1008.407959 
L 1443.135089 1008.026289 
L 1445.979609 1007.133242 
L 1448.824129 1006.462671 
L 1451.668649 1006.138426 
L 1454.513169 1005.493236 
L 1457.357689 1005.044507 
L 1460.202209 1004.454244 
L 1463.046729 1004.816894 
L 1474.424809 1003.307704 
L 1477.269329 1002.37696 
L 1480.113849 1002.740206 
L 1485.802889 1002.498648 
L 1488.647409 1001.407847 
L 1491.491929 1001.295029 
L 1494.336449 1001.328957 
L 1497.180969 1001.177717 
L 1500.025489 1001.28323 
L 1502.870008 1001.506286 
L 1505.714528 1001.274314 
L 1508.559048 1001.494629 
L 1514.248088 1001.670995 
L 1517.092608 1001.323197 
L 1519.937128 1001.284398 
L 1522.781648 1000.885368 
L 1525.626168 1001.318341 
L 1528.470688 1001.055287 
L 1531.315208 1000.536234 
L 1534.159728 999.862643 
L 1537.004248 999.49441 
L 1539.848768 999.4669 
L 1542.693288 998.677748 
L 1545.537808 998.710904 
L 1548.382328 997.6014 
L 1554.071368 997.069853 
L 1556.915888 997.5422 
L 1562.604928 997.200331 
L 1571.138488 997.225181 
L 1573.983008 997.242147 
L 1576.827528 997.125897 
L 1579.672048 996.555136 
L 1582.516568 994.345001 
L 1585.361088 995.992778 
L 1588.205607 996.114161 
L 1591.050127 992.555971 
L 1596.739167 991.348467 
L 1599.583687 994.5467 
L 1605.272727 993.943638 
L 1608.117247 992.248286 
L 1610.961767 991.344574 
L 1616.650807 989.24785 
L 1622.339847 987.282442 
L 1625.184367 986.299988 
L 1662.163127 971.869047 
L 1670.696686 968.431852 
L 1679.230246 965.145776 
L 1684.919286 963.070285 
L 1690.608326 960.983581 
L 1693.452846 959.74385 
L 1713.364486 952.358749 
L 1716.209006 951.508137 
L 1719.053526 950.271992 
L 1721.898046 949.592705 
L 1724.742566 948.509582 
L 1727.587086 947.299107 
L 1730.431606 946.376642 
L 1733.276126 945.193994 
L 1736.120646 944.590837 
L 1738.965166 943.391823 
L 1744.654206 941.56853 
L 1747.498726 940.543129 
L 1750.343246 939.294499 
L 1756.032285 937.348193 
L 1758.876805 936.166599 
L 1764.565845 934.188876 
L 1821.456245 913.445836 
L 1824.300765 912.284556 
L 1827.145285 911.370862 
L 1832.834325 909.243786 
L 1835.678845 907.986604 
L 1838.523364 907.047502 
L 1841.367884 905.833028 
L 1847.056924 903.7148 
L 1849.901444 902.822018 
L 1852.745964 901.614531 
L 1855.590484 900.681144 
L 1858.435004 899.410421 
L 1864.124044 897.245302 
L 1866.968564 896.364679 
L 1869.813084 895.087824 
L 1875.502124 893.120199 
L 1881.191164 890.964041 
L 1884.035684 889.590034 
L 1886.880204 888.845691 
L 1889.724724 887.704209 
L 1892.569244 886.76074 
L 1895.413764 885.468852 
L 1898.258284 884.68093 
L 1901.102804 883.280509 
L 1903.947324 882.232781 
L 1906.791844 881.056084 
L 1912.480884 879.530737 
L 1915.325404 878.287751 
L 1929.548003 873.214042 
L 1932.392523 872.355777 
L 1935.237043 871.14935 
L 1940.926083 869.506555 
L 1943.770603 868.249996 
L 1946.615123 867.655082 
L 1952.304163 865.818881 
L 1955.148683 864.732149 
L 1957.993203 863.864663 
L 1960.837723 863.211946 
L 1969.371283 860.55955 
L 1972.215803 859.461321 
L 1975.060323 858.67097 
L 1977.904843 858.136362 
L 1980.749363 857.357606 
L 1983.593883 856.725629 
L 1986.438403 855.634347 
L 1989.282923 855.11856 
L 1994.971963 853.497152 
L 2000.661003 852.140599 
L 2003.505523 851.986488 
L 2006.350042 851.073923 
L 2009.194562 850.435236 
L 2012.039082 849.954286 
L 2014.883602 849.087639 
L 2020.572642 847.891528 
L 2023.417162 847.438964 
L 2026.261682 846.665692 
L 2029.106202 846.242725 
L 2031.950722 845.623166 
L 2034.795242 845.353526 
L 2037.639762 844.14043 
L 2040.484282 843.491597 
L 2043.328802 843.232721 
L 2046.173322 842.425498 
L 2054.706882 840.706481 
L 2066.084962 838.405534 
L 2068.929482 837.622789 
L 2071.774002 836.519059 
L 2077.463042 835.087366 
L 2080.307562 833.995985 
L 2083.152082 833.585154 
L 2085.996602 833.021736 
L 2088.841121 832.080729 
L 2091.685641 831.593315 
L 2094.530161 830.266456 
L 2097.374681 830.077892 
L 2100.219201 829.037776 
L 2103.063721 828.383312 
L 2105.908241 827.279706 
L 2114.441801 824.691576 
L 2117.286321 823.970351 
L 2120.130841 822.961726 
L 2122.975361 822.422538 
L 2134.353441 818.685598 
L 2137.197961 817.897668 
L 2140.042481 816.802953 
L 2145.731521 815.227836 
L 2148.576041 814.256908 
L 2151.420561 813.149063 
L 2157.109601 811.309258 
L 2159.954121 810.806807 
L 2162.798641 809.940864 
L 2165.643161 808.577093 
L 2168.487681 808.06699 
L 2171.332201 807.023524 
L 2174.17672 806.156408 
L 2177.02124 805.51798 
L 2182.71028 803.822547 
L 2185.5548 802.885092 
L 2188.39932 802.115164 
L 2191.24384 801.671575 
L 2196.93288 799.985417 
L 2199.7774 799.615939 
L 2202.62192 799.109163 
L 2205.46644 798.435677 
L 2208.31096 797.456444 
L 2211.15548 796.793894 
L 2214 796.436052 
L 2216.84452 795.636027 
L 2219.68904 795.180239 
L 2225.37808 794.018836 
L 2228.2226 792.486874 
L 2231.06712 792.438609 
L 2236.75616 791.253524 
L 2239.60068 790.739769 
L 2242.4452 790.527498 
L 2245.28972 789.734235 
L 2248.13424 789.572145 
L 2250.97876 788.500186 
L 2253.82328 788.185654 
L 2256.667799 787.706888 
L 2259.512319 786.693469 
L 2262.356839 786.71413 
L 2265.201359 786.250211 
L 2268.045879 785.302526 
L 2270.890399 785.384615 
L 2273.734919 784.244921 
L 2276.579439 784.209943 
L 2285.112999 782.805107 
L 2287.957519 781.952287 
L 2290.802039 782.187209 
L 2293.646559 782.271736 
L 2296.491079 781.810104 
L 2299.335599 780.82479 
L 2302.180119 780.293984 
L 2307.869159 779.571384 
L 2310.713679 778.733139 
L 2313.558199 778.859389 
L 2316.402719 777.78782 
L 2319.247239 776.965909 
L 2322.091759 777.956331 
L 2324.936279 777.165901 
L 2327.780799 776.577675 
L 2330.625319 776.253276 
L 2333.469839 776.327764 
L 2336.314359 774.879894 
L 2344.847918 773.355386 
L 2347.692438 773.236903 
L 2350.536958 773.552382 
L 2353.381478 773.750676 
L 2356.225998 771.03588 
L 2359.070518 770.915996 
L 2361.915038 770.430357 
L 2364.759558 769.610474 
L 2370.448598 768.990613 
L 2373.293118 768.957818 
L 2376.137638 767.654531 
L 2378.982158 767.804202 
L 2381.826678 766.80712 
L 2387.515718 766.674256 
L 2393.204758 765.467614 
L 2398.893798 764.696139 
L 2401.738318 764.575813 
L 2404.582838 764.002245 
L 2407.427358 764.105717 
L 2410.271878 763.37331 
L 2413.116398 762.978098 
L 2415.960918 762.165491 
L 2418.805438 762.582244 
L 2421.649958 762.367953 
L 2427.338997 761.547005 
L 2430.183517 760.687948 
L 2433.028037 760.054252 
L 2438.717077 760.06335 
L 2441.561597 758.688981 
L 2444.406117 758.72577 
L 2447.250637 758.607373 
L 2450.095157 757.868663 
L 2452.939677 757.784643 
L 2455.784197 757.279941 
L 2458.628717 756.221848 
L 2461.473237 755.871995 
L 2470.006797 754.285189 
L 2472.851317 754.348449 
L 2475.695837 752.616937 
L 2478.540357 753.391481 
L 2481.384877 752.914889 
L 2484.229397 750.710007 
L 2489.918437 749.62158 
L 2492.762957 748.729454 
L 2498.451997 747.467018 
L 2501.296517 746.50714 
L 2504.141037 746.449331 
L 2506.985556 745.192958 
L 2509.830076 744.747792 
L 2512.674596 744.428137 
L 2515.519116 743.401688 
L 2518.363636 742.201345 
L 2521.208156 741.290014 
L 2524.052676 740.604472 
L 2529.741716 738.848971 
L 2535.430756 737.35788 
L 2538.275276 736.441034 
L 2541.119796 735.80088 
L 2546.808836 733.983657 
L 2549.653356 733.143115 
L 2558.186916 731.111925 
L 2561.031436 730.192583 
L 2563.875956 729.557511 
L 2598.010195 720.385306 
L 2600.854715 719.756485 
L 2603.699235 718.9558 
L 2612.232795 716.943196 
L 2615.077315 716.001346 
L 2617.921835 715.540698 
L 2620.766355 714.470545 
L 2623.610875 713.702648 
L 2626.455395 713.534544 
L 2629.299915 712.206171 
L 2632.144435 712.159146 
L 2634.988955 711.452279 
L 2637.833475 710.345475 
L 2640.677995 709.827022 
L 2643.522515 708.815806 
L 2649.211555 707.818493 
L 2652.056075 706.840106 
L 2654.900595 706.052468 
L 2657.745115 705.026764 
L 2660.589635 704.851976 
L 2663.434155 703.47837 
L 2671.967715 701.097149 
L 2677.656754 699.390693 
L 2680.501274 698.841474 
L 2683.345794 698.174685 
L 2689.034834 696.3482 
L 2697.568394 694.077821 
L 2700.412914 692.882015 
L 2703.257434 692.323733 
L 2706.101954 691.14215 
L 2708.946474 690.109262 
L 2714.635514 688.609095 
L 2717.480034 687.601977 
L 2720.324554 686.773087 
L 2723.169074 685.720339 
L 2726.013594 684.4198 
L 2771.525913 668.538477 
L 2777.214953 666.433317 
L 2780.059473 665.760705 
L 2782.903993 664.25945 
L 2785.748513 663.27438 
L 2788.593033 662.719488 
L 2791.437553 661.20112 
L 2794.282073 660.077871 
L 2797.126593 659.672743 
L 2799.971113 658.532254 
L 2802.815633 657.637596 
L 2805.660153 655.817819 
L 2811.349193 653.714996 
L 2814.193713 653.007881 
L 2817.038233 651.969869 
L 2819.882753 651.513421 
L 2822.727273 650.637526 
L 2828.416313 648.476179 
L 2831.260833 647.449925 
L 2834.105353 646.263937 
L 2836.949873 645.365967 
L 2842.638912 643.200846 
L 2845.483432 641.74285 
L 2848.327952 641.10975 
L 2851.172472 639.788479 
L 2854.016992 639.004458 
L 2859.706032 636.881447 
L 2862.550552 636.166142 
L 2871.084112 632.605095 
L 2873.928632 631.777861 
L 2876.773152 630.461913 
L 2882.462192 628.210295 
L 2885.306712 627.495768 
L 2888.151232 626.417056 
L 2890.995752 625.95076 
L 2902.373832 621.435892 
L 2905.218352 619.572821 
L 2908.062872 618.745114 
L 2910.907392 617.386654 
L 2913.751912 616.288096 
L 2916.596432 615.716387 
L 2919.440952 615.432591 
L 2922.285472 613.361567 
L 2927.974511 611.251249 
L 2933.663551 608.986504 
L 2936.508071 609.279018 
L 2939.352591 608.169248 
L 2942.197111 606.30988 
L 2947.886151 604.215035 
L 2950.730671 603.130838 
L 2953.575191 602.42418 
L 2964.953271 598.143449 
L 2967.797791 596.63392 
L 2976.331351 593.480067 
L 2979.175871 592.868525 
L 2982.020391 591.878424 
L 2984.864911 590.524412 
L 2987.709431 589.84367 
L 3010.46559 582.620192 
L 3021.84367 579.393002 
L 3030.37723 577.156305 
L 3041.75531 574.471946 
L 3050.28887 572.768055 
L 3061.66695 570.87578 
L 3078.73407 568.782806 
L 3081.57859 568.69867 
L 3084.42311 568.314771 
L 3087.26763 568.376298 
L 3090.11215 568.242447 
L 3092.956669 567.842594 
L 3095.801189 567.936234 
L 3098.645709 567.684652 
L 3101.490229 567.796291 
L 3104.334749 567.577718 
L 3132.779949 567.735377 
L 3135.624469 566.980028 
L 3138.468989 567.322372 
L 3141.313509 567.011989 
L 3144.158029 566.429858 
L 3147.002549 565.272766 
L 3149.847069 565.260517 
L 3152.691589 564.269726 
L 3158.380629 563.465418 
L 3166.914189 561.297403 
L 3175.447749 559.106324 
L 3181.136788 557.488187 
L 3189.670348 554.866531 
L 3201.048428 551.106355 
L 3215.271028 545.955743 
L 3218.115548 545.041125 
L 3223.804588 542.700898 
L 3226.649108 541.689241 
L 3235.182668 538.381038 
L 3240.871708 536.148787 
L 3243.716228 534.90836 
L 3246.560748 533.891517 
L 3249.405268 532.630401 
L 3252.249788 531.602976 
L 3255.094308 530.412309 
L 3257.938828 529.093889 
L 3260.783347 528.110374 
L 3266.472387 525.815967 
L 3269.316907 524.63768 
L 3272.161427 523.281873 
L 3277.850467 521.103187 
L 3280.694987 520.24839 
L 3286.384027 517.734049 
L 3294.917587 514.339224 
L 3297.762107 512.951819 
L 3303.451147 510.61409 
L 3306.295667 509.830629 
L 3320.518267 503.929743 
L 3323.362787 503.040567 
L 3326.207307 501.623287 
L 3329.051827 500.690602 
L 3331.896347 499.611888 
L 3334.740867 498.908949 
L 3337.585387 497.751958 
L 3343.274427 495.676725 
L 3348.963466 493.561345 
L 3351.807986 492.768429 
L 3354.652506 491.585059 
L 3357.497026 490.837819 
L 3360.341546 489.545403 
L 3363.186066 488.972884 
L 3366.030586 487.683644 
L 3371.719626 486.021194 
L 3385.942226 481.977432 
L 3397.320306 479.176291 
L 3400.164826 478.635094 
L 3405.853866 477.251112 
L 3408.698386 476.963072 
L 3414.387426 475.869333 
L 3417.231946 475.654531 
L 3422.920986 474.80286 
L 3425.765506 474.161781 
L 3428.610025 473.967611 
L 3431.454545 473.572967 
L 3439.988105 472.764284 
L 3442.832625 472.325336 
L 3445.677145 472.245099 
L 3465.588785 470.810315 
L 3468.433305 470.529416 
L 3474.122345 470.266766 
L 3476.966865 469.976927 
L 3479.811385 469.948458 
L 3482.655905 469.623872 
L 3485.500425 469.770268 
L 3488.344945 469.660004 
L 3491.189465 469.280511 
L 3494.033985 469.320339 
L 3496.878505 468.642506 
L 3499.723025 467.045747 
L 3508.256585 465.668068 
L 3511.101105 467.61451 
L 3513.945624 467.353369 
L 3516.790144 464.283926 
L 3519.634664 463.790337 
L 3522.479184 466.199112 
L 3525.323704 466.336523 
L 3528.168224 462.442895 
L 3531.012744 461.946157 
L 3533.857264 457.900771 
L 3536.701784 457.13607 
L 3539.546304 460.196719 
L 3542.390824 455.212575 
L 3545.235344 454.236503 
L 3548.079864 457.894736 
L 3550.924384 452.259071 
L 3553.768904 456.660128 
L 3556.613424 450.251261 
L 3559.457944 456.016808 
L 3562.302464 448.071299 
L 3565.146984 447.188176 
L 3567.991504 453.54559 
L 3570.836024 444.973751 
L 3573.680544 450.427425 
L 3576.525064 450.7305 
L 3579.369584 447.857359 
L 3582.214104 448.524781 
L 3585.058624 445.162848 
L 3587.903144 443.872121 
L 3590.747664 442.735542 
L 3593.592184 444.081717 
L 3596.436703 442.471993 
L 3602.125743 440.254366 
L 3604.970263 436.338889 
L 3607.814783 434.771054 
L 3610.659303 433.784508 
L 3613.503823 435.850784 
L 3616.348343 434.78422 
L 3622.037383 431.949728 
L 3624.881903 430.905011 
L 3627.726423 429.629734 
L 3630.570943 428.112507 
L 3633.415463 426.999785 
L 3636.259983 425.751552 
L 3639.104503 424.640094 
L 3641.949023 423.178358 
L 3650.482583 419.864853 
L 3653.327103 418.566454 
L 3659.016143 416.588305 
L 3661.860663 415.367675 
L 3664.705183 414.413624 
L 3667.549703 413.251744 
L 3670.394223 411.964252 
L 3673.238743 411.21075 
L 3676.083263 410.220884 
L 3678.927782 408.782059 
L 3681.772302 407.784142 
L 3684.616822 407.460918 
L 3687.461342 405.886815 
L 3690.305862 404.983644 
L 3695.994902 403.892372 
L 3698.839422 403.141759 
L 3701.683942 403.122089 
L 3704.528462 401.569977 
L 3707.372982 401.141626 
L 3710.217502 400.149602 
L 3713.062022 399.478594 
L 3715.906542 398.998224 
L 3724.440102 397.064652 
L 3727.284622 396.519809 
L 3730.129142 396.343489 
L 3732.973662 395.54707 
L 3735.818182 395.124662 
L 3735.818182 395.124662 
" clip-path="url(#p8cdcff1a51)" style="fill: none; stroke: #00aa00; stroke-width: 6; stroke-linecap: square"/>
   </g>
  </g>
 </g>
 <defs>
  <clipPath id="p8cdcff1a51">
   <rect x="540" y="172.8" width="3348" height="1087.2"/>
  </clipPath>
 </defs>
</svg>
