<?xml version="1.0" encoding="utf-8" standalone="no"?>
<!DOCTYPE svg PUBLIC "-//W3C//DTD SVG 1.1//EN"
  "http://www.w3.org/Graphics/SVG/1.1/DTD/svg11.dtd">
<svg xmlns:xlink="http://www.w3.org/1999/xlink" width="4320pt" height="1440pt" viewBox="0 0 4320 1440" xmlns="http://www.w3.org/2000/svg" version="1.1">
 <metadata>
  <rdf:RDF xmlns:dc="http://purl.org/dc/elements/1.1/" xmlns:cc="http://creativecommons.org/ns#" xmlns:rdf="http://www.w3.org/1999/02/22-rdf-syntax-ns#">
   <cc:Work>
    <dc:type rdf:resource="http://purl.org/dc/dcmitype/StillImage"/>
    <dc:date>2021-11-07T01:38:25.386359</dc:date>
    <dc:format>image/svg+xml</dc:format>
    <dc:creator>
     <cc:Agent>
      <dc:title>Matplotlib v3.5.0rc1, https://matplotlib.org/</dc:title>
     </cc:Agent>
    </dc:creator>
   </cc:Work>
  </rdf:RDF>
 </metadata>
 <defs>
  <style type="text/css">*{stroke-linejoin: round; stroke-linecap: butt}</style>
 </defs>
 <g id="figure_1">
  <g id="patch_1">
   <path d="M 0 1440 
L 4320 1440 
L 4320 0 
L 0 0 
z
" style="fill: #ffffff"/>
  </g>
  <g id="axes_1">
   <g id="patch_2">
    <path d="M 540 1260 
L 3888 1260 
L 3888 172.8 
L 540 172.8 
z
" style="fill: #ffffff"/>
   </g>
   <g id="matplotlib.axis_1">
    <g id="xtick_1">
     <g id="line2d_1">
      <defs>
       <path id="md1840cb516" d="M 0 0 
L 0 3.5 
" style="stroke: #000000; stroke-width: 0.8"/>
      </defs>
      <g>
       <use xlink:href="#md1840cb516" x="692.181818" y="1260" style="stroke: #000000; stroke-width: 0.8"/>
      </g>
     </g>
     <g id="text_1">
      <!-- 0 -->
      <g transform="translate(684.228693 1285.996094)scale(0.25 -0.25)">
       <defs>
        <path id="DejaVuSans-30" d="M 2034 4250 
Q 1547 4250 1301 3770 
Q 1056 3291 1056 2328 
Q 1056 1369 1301 889 
Q 1547 409 2034 409 
Q 2525 409 2770 889 
Q 3016 1369 3016 2328 
Q 3016 3291 2770 3770 
Q 2525 4250 2034 4250 
z
M 2034 4750 
Q 2819 4750 3233 4129 
Q 3647 3509 3647 2328 
Q 3647 1150 3233 529 
Q 2819 -91 2034 -91 
Q 1250 -91 836 529 
Q 422 1150 422 2328 
Q 422 3509 836 4129 
Q 1250 4750 2034 4750 
z
" transform="scale(0.015625)"/>
       </defs>
       <use xlink:href="#DejaVuSans-30"/>
      </g>
     </g>
    </g>
    <g id="xtick_2">
     <g id="line2d_2">
      <g>
       <use xlink:href="#md1840cb516" x="1092.660287" y="1260" style="stroke: #000000; stroke-width: 0.8"/>
      </g>
     </g>
     <g id="text_2">
      <!-- 150 -->
      <g transform="translate(1068.800912 1285.996094)scale(0.25 -0.25)">
       <defs>
        <path id="DejaVuSans-31" d="M 794 531 
L 1825 531 
L 1825 4091 
L 703 3866 
L 703 4441 
L 1819 4666 
L 2450 4666 
L 2450 531 
L 3481 531 
L 3481 0 
L 794 0 
L 794 531 
z
" transform="scale(0.015625)"/>
        <path id="DejaVuSans-35" d="M 691 4666 
L 3169 4666 
L 3169 4134 
L 1269 4134 
L 1269 2991 
Q 1406 3038 1543 3061 
Q 1681 3084 1819 3084 
Q 2600 3084 3056 2656 
Q 3513 2228 3513 1497 
Q 3513 744 3044 326 
Q 2575 -91 1722 -91 
Q 1428 -91 1123 -41 
Q 819 9 494 109 
L 494 744 
Q 775 591 1075 516 
Q 1375 441 1709 441 
Q 2250 441 2565 725 
Q 2881 1009 2881 1497 
Q 2881 1984 2565 2268 
Q 2250 2553 1709 2553 
Q 1456 2553 1204 2497 
Q 953 2441 691 2322 
L 691 4666 
z
" transform="scale(0.015625)"/>
       </defs>
       <use xlink:href="#DejaVuSans-31"/>
       <use xlink:href="#DejaVuSans-35" x="63.623047"/>
       <use xlink:href="#DejaVuSans-30" x="127.246094"/>
      </g>
     </g>
    </g>
    <g id="xtick_3">
     <g id="line2d_3">
      <g>
       <use xlink:href="#md1840cb516" x="1493.138756" y="1260" style="stroke: #000000; stroke-width: 0.8"/>
      </g>
     </g>
     <g id="text_3">
      <!-- 300 -->
      <g transform="translate(1469.279381 1285.996094)scale(0.25 -0.25)">
       <defs>
        <path id="DejaVuSans-33" d="M 2597 2516 
Q 3050 2419 3304 2112 
Q 3559 1806 3559 1356 
Q 3559 666 3084 287 
Q 2609 -91 1734 -91 
Q 1441 -91 1130 -33 
Q 819 25 488 141 
L 488 750 
Q 750 597 1062 519 
Q 1375 441 1716 441 
Q 2309 441 2620 675 
Q 2931 909 2931 1356 
Q 2931 1769 2642 2001 
Q 2353 2234 1838 2234 
L 1294 2234 
L 1294 2753 
L 1863 2753 
Q 2328 2753 2575 2939 
Q 2822 3125 2822 3475 
Q 2822 3834 2567 4026 
Q 2313 4219 1838 4219 
Q 1578 4219 1281 4162 
Q 984 4106 628 3988 
L 628 4550 
Q 988 4650 1302 4700 
Q 1616 4750 1894 4750 
Q 2613 4750 3031 4423 
Q 3450 4097 3450 3541 
Q 3450 3153 3228 2886 
Q 3006 2619 2597 2516 
z
" transform="scale(0.015625)"/>
       </defs>
       <use xlink:href="#DejaVuSans-33"/>
       <use xlink:href="#DejaVuSans-30" x="63.623047"/>
       <use xlink:href="#DejaVuSans-30" x="127.246094"/>
      </g>
     </g>
    </g>
    <g id="xtick_4">
     <g id="line2d_4">
      <g>
       <use xlink:href="#md1840cb516" x="1893.617225" y="1260" style="stroke: #000000; stroke-width: 0.8"/>
      </g>
     </g>
     <g id="text_4">
      <!-- 450 -->
      <g transform="translate(1869.75785 1285.996094)scale(0.25 -0.25)">
       <defs>
        <path id="DejaVuSans-34" d="M 2419 4116 
L 825 1625 
L 2419 1625 
L 2419 4116 
z
M 2253 4666 
L 3047 4666 
L 3047 1625 
L 3713 1625 
L 3713 1100 
L 3047 1100 
L 3047 0 
L 2419 0 
L 2419 1100 
L 313 1100 
L 313 1709 
L 2253 4666 
z
" transform="scale(0.015625)"/>
       </defs>
       <use xlink:href="#DejaVuSans-34"/>
       <use xlink:href="#DejaVuSans-35" x="63.623047"/>
       <use xlink:href="#DejaVuSans-30" x="127.246094"/>
      </g>
     </g>
    </g>
    <g id="xtick_5">
     <g id="line2d_5">
      <g>
       <use xlink:href="#md1840cb516" x="2294.095694" y="1260" style="stroke: #000000; stroke-width: 0.8"/>
      </g>
     </g>
     <g id="text_5">
      <!-- 600 -->
      <g transform="translate(2270.236319 1285.996094)scale(0.25 -0.25)">
       <defs>
        <path id="DejaVuSans-36" d="M 2113 2584 
Q 1688 2584 1439 2293 
Q 1191 2003 1191 1497 
Q 1191 994 1439 701 
Q 1688 409 2113 409 
Q 2538 409 2786 701 
Q 3034 994 3034 1497 
Q 3034 2003 2786 2293 
Q 2538 2584 2113 2584 
z
M 3366 4563 
L 3366 3988 
Q 3128 4100 2886 4159 
Q 2644 4219 2406 4219 
Q 1781 4219 1451 3797 
Q 1122 3375 1075 2522 
Q 1259 2794 1537 2939 
Q 1816 3084 2150 3084 
Q 2853 3084 3261 2657 
Q 3669 2231 3669 1497 
Q 3669 778 3244 343 
Q 2819 -91 2113 -91 
Q 1303 -91 875 529 
Q 447 1150 447 2328 
Q 447 3434 972 4092 
Q 1497 4750 2381 4750 
Q 2619 4750 2861 4703 
Q 3103 4656 3366 4563 
z
" transform="scale(0.015625)"/>
       </defs>
       <use xlink:href="#DejaVuSans-36"/>
       <use xlink:href="#DejaVuSans-30" x="63.623047"/>
       <use xlink:href="#DejaVuSans-30" x="127.246094"/>
      </g>
     </g>
    </g>
    <g id="xtick_6">
     <g id="line2d_6">
      <g>
       <use xlink:href="#md1840cb516" x="2694.574163" y="1260" style="stroke: #000000; stroke-width: 0.8"/>
      </g>
     </g>
     <g id="text_6">
      <!-- 750 -->
      <g transform="translate(2670.714788 1285.996094)scale(0.25 -0.25)">
       <defs>
        <path id="DejaVuSans-37" d="M 525 4666 
L 3525 4666 
L 3525 4397 
L 1831 0 
L 1172 0 
L 2766 4134 
L 525 4134 
L 525 4666 
z
" transform="scale(0.015625)"/>
       </defs>
       <use xlink:href="#DejaVuSans-37"/>
       <use xlink:href="#DejaVuSans-35" x="63.623047"/>
       <use xlink:href="#DejaVuSans-30" x="127.246094"/>
      </g>
     </g>
    </g>
    <g id="xtick_7">
     <g id="line2d_7">
      <g>
       <use xlink:href="#md1840cb516" x="3095.052632" y="1260" style="stroke: #000000; stroke-width: 0.8"/>
      </g>
     </g>
     <g id="text_7">
      <!-- 900 -->
      <g transform="translate(3071.193257 1285.996094)scale(0.25 -0.25)">
       <defs>
        <path id="DejaVuSans-39" d="M 703 97 
L 703 672 
Q 941 559 1184 500 
Q 1428 441 1663 441 
Q 2288 441 2617 861 
Q 2947 1281 2994 2138 
Q 2813 1869 2534 1725 
Q 2256 1581 1919 1581 
Q 1219 1581 811 2004 
Q 403 2428 403 3163 
Q 403 3881 828 4315 
Q 1253 4750 1959 4750 
Q 2769 4750 3195 4129 
Q 3622 3509 3622 2328 
Q 3622 1225 3098 567 
Q 2575 -91 1691 -91 
Q 1453 -91 1209 -44 
Q 966 3 703 97 
z
M 1959 2075 
Q 2384 2075 2632 2365 
Q 2881 2656 2881 3163 
Q 2881 3666 2632 3958 
Q 2384 4250 1959 4250 
Q 1534 4250 1286 3958 
Q 1038 3666 1038 3163 
Q 1038 2656 1286 2365 
Q 1534 2075 1959 2075 
z
" transform="scale(0.015625)"/>
       </defs>
       <use xlink:href="#DejaVuSans-39"/>
       <use xlink:href="#DejaVuSans-30" x="63.623047"/>
       <use xlink:href="#DejaVuSans-30" x="127.246094"/>
      </g>
     </g>
    </g>
    <g id="xtick_8">
     <g id="line2d_8">
      <g>
       <use xlink:href="#md1840cb516" x="3495.5311" y="1260" style="stroke: #000000; stroke-width: 0.8"/>
      </g>
     </g>
     <g id="text_8">
      <!-- 1050 -->
      <g transform="translate(3463.7186 1285.996094)scale(0.25 -0.25)">
       <use xlink:href="#DejaVuSans-31"/>
       <use xlink:href="#DejaVuSans-30" x="63.623047"/>
       <use xlink:href="#DejaVuSans-35" x="127.246094"/>
       <use xlink:href="#DejaVuSans-30" x="190.869141"/>
      </g>
     </g>
    </g>
    <g id="text_9">
     <!-- Point Index -->
     <g transform="translate(2116.817578 1321.789844)scale(0.35 -0.35)">
      <defs>
       <path id="DejaVuSans-50" d="M 1259 4147 
L 1259 2394 
L 2053 2394 
Q 2494 2394 2734 2622 
Q 2975 2850 2975 3272 
Q 2975 3691 2734 3919 
Q 2494 4147 2053 4147 
L 1259 4147 
z
M 628 4666 
L 2053 4666 
Q 2838 4666 3239 4311 
Q 3641 3956 3641 3272 
Q 3641 2581 3239 2228 
Q 2838 1875 2053 1875 
L 1259 1875 
L 1259 0 
L 628 0 
L 628 4666 
z
" transform="scale(0.015625)"/>
       <path id="DejaVuSans-6f" d="M 1959 3097 
Q 1497 3097 1228 2736 
Q 959 2375 959 1747 
Q 959 1119 1226 758 
Q 1494 397 1959 397 
Q 2419 397 2687 759 
Q 2956 1122 2956 1747 
Q 2956 2369 2687 2733 
Q 2419 3097 1959 3097 
z
M 1959 3584 
Q 2709 3584 3137 3096 
Q 3566 2609 3566 1747 
Q 3566 888 3137 398 
Q 2709 -91 1959 -91 
Q 1206 -91 779 398 
Q 353 888 353 1747 
Q 353 2609 779 3096 
Q 1206 3584 1959 3584 
z
" transform="scale(0.015625)"/>
       <path id="DejaVuSans-69" d="M 603 3500 
L 1178 3500 
L 1178 0 
L 603 0 
L 603 3500 
z
M 603 4863 
L 1178 4863 
L 1178 4134 
L 603 4134 
L 603 4863 
z
" transform="scale(0.015625)"/>
       <path id="DejaVuSans-6e" d="M 3513 2113 
L 3513 0 
L 2938 0 
L 2938 2094 
Q 2938 2591 2744 2837 
Q 2550 3084 2163 3084 
Q 1697 3084 1428 2787 
Q 1159 2491 1159 1978 
L 1159 0 
L 581 0 
L 581 3500 
L 1159 3500 
L 1159 2956 
Q 1366 3272 1645 3428 
Q 1925 3584 2291 3584 
Q 2894 3584 3203 3211 
Q 3513 2838 3513 2113 
z
" transform="scale(0.015625)"/>
       <path id="DejaVuSans-74" d="M 1172 4494 
L 1172 3500 
L 2356 3500 
L 2356 3053 
L 1172 3053 
L 1172 1153 
Q 1172 725 1289 603 
Q 1406 481 1766 481 
L 2356 481 
L 2356 0 
L 1766 0 
Q 1100 0 847 248 
Q 594 497 594 1153 
L 594 3053 
L 172 3053 
L 172 3500 
L 594 3500 
L 594 4494 
L 1172 4494 
z
" transform="scale(0.015625)"/>
       <path id="DejaVuSans-20" transform="scale(0.015625)"/>
       <path id="DejaVuSans-49" d="M 628 4666 
L 1259 4666 
L 1259 0 
L 628 0 
L 628 4666 
z
" transform="scale(0.015625)"/>
       <path id="DejaVuSans-64" d="M 2906 2969 
L 2906 4863 
L 3481 4863 
L 3481 0 
L 2906 0 
L 2906 525 
Q 2725 213 2448 61 
Q 2172 -91 1784 -91 
Q 1150 -91 751 415 
Q 353 922 353 1747 
Q 353 2572 751 3078 
Q 1150 3584 1784 3584 
Q 2172 3584 2448 3432 
Q 2725 3281 2906 2969 
z
M 947 1747 
Q 947 1113 1208 752 
Q 1469 391 1925 391 
Q 2381 391 2643 752 
Q 2906 1113 2906 1747 
Q 2906 2381 2643 2742 
Q 2381 3103 1925 3103 
Q 1469 3103 1208 2742 
Q 947 2381 947 1747 
z
" transform="scale(0.015625)"/>
       <path id="DejaVuSans-65" d="M 3597 1894 
L 3597 1613 
L 953 1613 
Q 991 1019 1311 708 
Q 1631 397 2203 397 
Q 2534 397 2845 478 
Q 3156 559 3463 722 
L 3463 178 
Q 3153 47 2828 -22 
Q 2503 -91 2169 -91 
Q 1331 -91 842 396 
Q 353 884 353 1716 
Q 353 2575 817 3079 
Q 1281 3584 2069 3584 
Q 2775 3584 3186 3129 
Q 3597 2675 3597 1894 
z
M 3022 2063 
Q 3016 2534 2758 2815 
Q 2500 3097 2075 3097 
Q 1594 3097 1305 2825 
Q 1016 2553 972 2059 
L 3022 2063 
z
" transform="scale(0.015625)"/>
       <path id="DejaVuSans-78" d="M 3513 3500 
L 2247 1797 
L 3578 0 
L 2900 0 
L 1881 1375 
L 863 0 
L 184 0 
L 1544 1831 
L 300 3500 
L 978 3500 
L 1906 2253 
L 2834 3500 
L 3513 3500 
z
" transform="scale(0.015625)"/>
      </defs>
      <use xlink:href="#DejaVuSans-50"/>
      <use xlink:href="#DejaVuSans-6f" x="56.677734"/>
      <use xlink:href="#DejaVuSans-69" x="117.859375"/>
      <use xlink:href="#DejaVuSans-6e" x="145.642578"/>
      <use xlink:href="#DejaVuSans-74" x="209.021484"/>
      <use xlink:href="#DejaVuSans-20" x="248.230469"/>
      <use xlink:href="#DejaVuSans-49" x="280.017578"/>
      <use xlink:href="#DejaVuSans-6e" x="309.509766"/>
      <use xlink:href="#DejaVuSans-64" x="372.888672"/>
      <use xlink:href="#DejaVuSans-65" x="436.365234"/>
      <use xlink:href="#DejaVuSans-78" x="496.138672"/>
     </g>
    </g>
   </g>
   <g id="matplotlib.axis_2">
    <g id="ytick_1">
     <g id="line2d_9">
      <defs>
       <path id="m1b876c87dc" d="M 0 0 
L -3.5 0 
" style="stroke: #000000; stroke-width: 0.8"/>
      </defs>
      <g>
       <use xlink:href="#m1b876c87dc" x="540" y="1210.581818" style="stroke: #000000; stroke-width: 0.8"/>
      </g>
     </g>
     <g id="text_10">
      <!-- 0 -->
      <g transform="translate(517.09375 1220.079865)scale(0.25 -0.25)">
       <use xlink:href="#DejaVuSans-30"/>
      </g>
     </g>
    </g>
    <g id="ytick_2">
     <g id="line2d_10">
      <g>
       <use xlink:href="#m1b876c87dc" x="540" y="1071.320958" style="stroke: #000000; stroke-width: 0.8"/>
      </g>
     </g>
     <g id="text_11">
      <!-- 100 -->
      <g transform="translate(485.28125 1080.819005)scale(0.25 -0.25)">
       <use xlink:href="#DejaVuSans-31"/>
       <use xlink:href="#DejaVuSans-30" x="63.623047"/>
       <use xlink:href="#DejaVuSans-30" x="127.246094"/>
      </g>
     </g>
    </g>
    <g id="ytick_3">
     <g id="line2d_11">
      <g>
       <use xlink:href="#m1b876c87dc" x="540" y="932.060097" style="stroke: #000000; stroke-width: 0.8"/>
      </g>
     </g>
     <g id="text_12">
      <!-- 200 -->
      <g transform="translate(485.28125 941.558144)scale(0.25 -0.25)">
       <defs>
        <path id="DejaVuSans-32" d="M 1228 531 
L 3431 531 
L 3431 0 
L 469 0 
L 469 531 
Q 828 903 1448 1529 
Q 2069 2156 2228 2338 
Q 2531 2678 2651 2914 
Q 2772 3150 2772 3378 
Q 2772 3750 2511 3984 
Q 2250 4219 1831 4219 
Q 1534 4219 1204 4116 
Q 875 4013 500 3803 
L 500 4441 
Q 881 4594 1212 4672 
Q 1544 4750 1819 4750 
Q 2544 4750 2975 4387 
Q 3406 4025 3406 3419 
Q 3406 3131 3298 2873 
Q 3191 2616 2906 2266 
Q 2828 2175 2409 1742 
Q 1991 1309 1228 531 
z
" transform="scale(0.015625)"/>
       </defs>
       <use xlink:href="#DejaVuSans-32"/>
       <use xlink:href="#DejaVuSans-30" x="63.623047"/>
       <use xlink:href="#DejaVuSans-30" x="127.246094"/>
      </g>
     </g>
    </g>
    <g id="ytick_4">
     <g id="line2d_12">
      <g>
       <use xlink:href="#m1b876c87dc" x="540" y="792.799237" style="stroke: #000000; stroke-width: 0.8"/>
      </g>
     </g>
     <g id="text_13">
      <!-- 300 -->
      <g transform="translate(485.28125 802.297284)scale(0.25 -0.25)">
       <use xlink:href="#DejaVuSans-33"/>
       <use xlink:href="#DejaVuSans-30" x="63.623047"/>
       <use xlink:href="#DejaVuSans-30" x="127.246094"/>
      </g>
     </g>
    </g>
    <g id="ytick_5">
     <g id="line2d_13">
      <g>
       <use xlink:href="#m1b876c87dc" x="540" y="653.538376" style="stroke: #000000; stroke-width: 0.8"/>
      </g>
     </g>
     <g id="text_14">
      <!-- 400 -->
      <g transform="translate(485.28125 663.036423)scale(0.25 -0.25)">
       <use xlink:href="#DejaVuSans-34"/>
       <use xlink:href="#DejaVuSans-30" x="63.623047"/>
       <use xlink:href="#DejaVuSans-30" x="127.246094"/>
      </g>
     </g>
    </g>
    <g id="ytick_6">
     <g id="line2d_14">
      <g>
       <use xlink:href="#m1b876c87dc" x="540" y="514.277516" style="stroke: #000000; stroke-width: 0.8"/>
      </g>
     </g>
     <g id="text_15">
      <!-- 500 -->
      <g transform="translate(485.28125 523.775563)scale(0.25 -0.25)">
       <use xlink:href="#DejaVuSans-35"/>
       <use xlink:href="#DejaVuSans-30" x="63.623047"/>
       <use xlink:href="#DejaVuSans-30" x="127.246094"/>
      </g>
     </g>
    </g>
    <g id="ytick_7">
     <g id="line2d_15">
      <g>
       <use xlink:href="#m1b876c87dc" x="540" y="375.016655" style="stroke: #000000; stroke-width: 0.8"/>
      </g>
     </g>
     <g id="text_16">
      <!-- 600 -->
      <g transform="translate(485.28125 384.514702)scale(0.25 -0.25)">
       <use xlink:href="#DejaVuSans-36"/>
       <use xlink:href="#DejaVuSans-30" x="63.623047"/>
       <use xlink:href="#DejaVuSans-30" x="127.246094"/>
      </g>
     </g>
    </g>
    <g id="ytick_8">
     <g id="line2d_16">
      <g>
       <use xlink:href="#m1b876c87dc" x="540" y="235.755795" style="stroke: #000000; stroke-width: 0.8"/>
      </g>
     </g>
     <g id="text_17">
      <!-- 700 -->
      <g transform="translate(485.28125 245.253842)scale(0.25 -0.25)">
       <use xlink:href="#DejaVuSans-37"/>
       <use xlink:href="#DejaVuSans-30" x="63.623047"/>
       <use xlink:href="#DejaVuSans-30" x="127.246094"/>
      </g>
     </g>
    </g>
    <g id="text_18">
     <!-- Arc-Length -->
     <g transform="translate(474.002344 811.471484)rotate(-90)scale(0.35 -0.35)">
      <defs>
       <path id="DejaVuSans-41" d="M 2188 4044 
L 1331 1722 
L 3047 1722 
L 2188 4044 
z
M 1831 4666 
L 2547 4666 
L 4325 0 
L 3669 0 
L 3244 1197 
L 1141 1197 
L 716 0 
L 50 0 
L 1831 4666 
z
" transform="scale(0.015625)"/>
       <path id="DejaVuSans-72" d="M 2631 2963 
Q 2534 3019 2420 3045 
Q 2306 3072 2169 3072 
Q 1681 3072 1420 2755 
Q 1159 2438 1159 1844 
L 1159 0 
L 581 0 
L 581 3500 
L 1159 3500 
L 1159 2956 
Q 1341 3275 1631 3429 
Q 1922 3584 2338 3584 
Q 2397 3584 2469 3576 
Q 2541 3569 2628 3553 
L 2631 2963 
z
" transform="scale(0.015625)"/>
       <path id="DejaVuSans-63" d="M 3122 3366 
L 3122 2828 
Q 2878 2963 2633 3030 
Q 2388 3097 2138 3097 
Q 1578 3097 1268 2742 
Q 959 2388 959 1747 
Q 959 1106 1268 751 
Q 1578 397 2138 397 
Q 2388 397 2633 464 
Q 2878 531 3122 666 
L 3122 134 
Q 2881 22 2623 -34 
Q 2366 -91 2075 -91 
Q 1284 -91 818 406 
Q 353 903 353 1747 
Q 353 2603 823 3093 
Q 1294 3584 2113 3584 
Q 2378 3584 2631 3529 
Q 2884 3475 3122 3366 
z
" transform="scale(0.015625)"/>
       <path id="DejaVuSans-2d" d="M 313 2009 
L 1997 2009 
L 1997 1497 
L 313 1497 
L 313 2009 
z
" transform="scale(0.015625)"/>
       <path id="DejaVuSans-4c" d="M 628 4666 
L 1259 4666 
L 1259 531 
L 3531 531 
L 3531 0 
L 628 0 
L 628 4666 
z
" transform="scale(0.015625)"/>
       <path id="DejaVuSans-67" d="M 2906 1791 
Q 2906 2416 2648 2759 
Q 2391 3103 1925 3103 
Q 1463 3103 1205 2759 
Q 947 2416 947 1791 
Q 947 1169 1205 825 
Q 1463 481 1925 481 
Q 2391 481 2648 825 
Q 2906 1169 2906 1791 
z
M 3481 434 
Q 3481 -459 3084 -895 
Q 2688 -1331 1869 -1331 
Q 1566 -1331 1297 -1286 
Q 1028 -1241 775 -1147 
L 775 -588 
Q 1028 -725 1275 -790 
Q 1522 -856 1778 -856 
Q 2344 -856 2625 -561 
Q 2906 -266 2906 331 
L 2906 616 
Q 2728 306 2450 153 
Q 2172 0 1784 0 
Q 1141 0 747 490 
Q 353 981 353 1791 
Q 353 2603 747 3093 
Q 1141 3584 1784 3584 
Q 2172 3584 2450 3431 
Q 2728 3278 2906 2969 
L 2906 3500 
L 3481 3500 
L 3481 434 
z
" transform="scale(0.015625)"/>
       <path id="DejaVuSans-68" d="M 3513 2113 
L 3513 0 
L 2938 0 
L 2938 2094 
Q 2938 2591 2744 2837 
Q 2550 3084 2163 3084 
Q 1697 3084 1428 2787 
Q 1159 2491 1159 1978 
L 1159 0 
L 581 0 
L 581 4863 
L 1159 4863 
L 1159 2956 
Q 1366 3272 1645 3428 
Q 1925 3584 2291 3584 
Q 2894 3584 3203 3211 
Q 3513 2838 3513 2113 
z
" transform="scale(0.015625)"/>
      </defs>
      <use xlink:href="#DejaVuSans-41"/>
      <use xlink:href="#DejaVuSans-72" x="68.408203"/>
      <use xlink:href="#DejaVuSans-63" x="107.271484"/>
      <use xlink:href="#DejaVuSans-2d" x="162.251953"/>
      <use xlink:href="#DejaVuSans-4c" x="198.335938"/>
      <use xlink:href="#DejaVuSans-65" x="252.298828"/>
      <use xlink:href="#DejaVuSans-6e" x="313.822266"/>
      <use xlink:href="#DejaVuSans-67" x="377.201172"/>
      <use xlink:href="#DejaVuSans-74" x="440.677734"/>
      <use xlink:href="#DejaVuSans-68" x="479.886719"/>
     </g>
    </g>
   </g>
   <g id="patch_3">
    <path d="M 540 1260 
L 540 172.8 
" style="fill: none; stroke: #000000; stroke-width: 0.8; stroke-linejoin: miter; stroke-linecap: square"/>
   </g>
   <g id="patch_4">
    <path d="M 3888 1260 
L 3888 172.8 
" style="fill: none; stroke: #000000; stroke-width: 0.8; stroke-linejoin: miter; stroke-linecap: square"/>
   </g>
   <g id="patch_5">
    <path d="M 540 1260 
L 3888 1260 
" style="fill: none; stroke: #000000; stroke-width: 0.8; stroke-linejoin: miter; stroke-linecap: square"/>
   </g>
   <g id="patch_6">
    <path d="M 540 172.8 
L 3888 172.8 
" style="fill: none; stroke: #000000; stroke-width: 0.8; stroke-linejoin: miter; stroke-linecap: square"/>
   </g>
   <g id="text_19">
    <!-- Predicted Arc-Length vs. Ground Truth Arc-Length (at Anchors) -->
    <g transform="translate(1667.007422 165.521094)scale(0.35 -0.35)">
     <defs>
      <path id="DejaVuSans-76" d="M 191 3500 
L 800 3500 
L 1894 563 
L 2988 3500 
L 3597 3500 
L 2284 0 
L 1503 0 
L 191 3500 
z
" transform="scale(0.015625)"/>
      <path id="DejaVuSans-73" d="M 2834 3397 
L 2834 2853 
Q 2591 2978 2328 3040 
Q 2066 3103 1784 3103 
Q 1356 3103 1142 2972 
Q 928 2841 928 2578 
Q 928 2378 1081 2264 
Q 1234 2150 1697 2047 
L 1894 2003 
Q 2506 1872 2764 1633 
Q 3022 1394 3022 966 
Q 3022 478 2636 193 
Q 2250 -91 1575 -91 
Q 1294 -91 989 -36 
Q 684 19 347 128 
L 347 722 
Q 666 556 975 473 
Q 1284 391 1588 391 
Q 1994 391 2212 530 
Q 2431 669 2431 922 
Q 2431 1156 2273 1281 
Q 2116 1406 1581 1522 
L 1381 1569 
Q 847 1681 609 1914 
Q 372 2147 372 2553 
Q 372 3047 722 3315 
Q 1072 3584 1716 3584 
Q 2034 3584 2315 3537 
Q 2597 3491 2834 3397 
z
" transform="scale(0.015625)"/>
      <path id="DejaVuSans-2e" d="M 684 794 
L 1344 794 
L 1344 0 
L 684 0 
L 684 794 
z
" transform="scale(0.015625)"/>
      <path id="DejaVuSans-47" d="M 3809 666 
L 3809 1919 
L 2778 1919 
L 2778 2438 
L 4434 2438 
L 4434 434 
Q 4069 175 3628 42 
Q 3188 -91 2688 -91 
Q 1594 -91 976 548 
Q 359 1188 359 2328 
Q 359 3472 976 4111 
Q 1594 4750 2688 4750 
Q 3144 4750 3555 4637 
Q 3966 4525 4313 4306 
L 4313 3634 
Q 3963 3931 3569 4081 
Q 3175 4231 2741 4231 
Q 1884 4231 1454 3753 
Q 1025 3275 1025 2328 
Q 1025 1384 1454 906 
Q 1884 428 2741 428 
Q 3075 428 3337 486 
Q 3600 544 3809 666 
z
" transform="scale(0.015625)"/>
      <path id="DejaVuSans-75" d="M 544 1381 
L 544 3500 
L 1119 3500 
L 1119 1403 
Q 1119 906 1312 657 
Q 1506 409 1894 409 
Q 2359 409 2629 706 
Q 2900 1003 2900 1516 
L 2900 3500 
L 3475 3500 
L 3475 0 
L 2900 0 
L 2900 538 
Q 2691 219 2414 64 
Q 2138 -91 1772 -91 
Q 1169 -91 856 284 
Q 544 659 544 1381 
z
M 1991 3584 
L 1991 3584 
z
" transform="scale(0.015625)"/>
      <path id="DejaVuSans-54" d="M -19 4666 
L 3928 4666 
L 3928 4134 
L 2272 4134 
L 2272 0 
L 1638 0 
L 1638 4134 
L -19 4134 
L -19 4666 
z
" transform="scale(0.015625)"/>
      <path id="DejaVuSans-28" d="M 1984 4856 
Q 1566 4138 1362 3434 
Q 1159 2731 1159 2009 
Q 1159 1288 1364 580 
Q 1569 -128 1984 -844 
L 1484 -844 
Q 1016 -109 783 600 
Q 550 1309 550 2009 
Q 550 2706 781 3412 
Q 1013 4119 1484 4856 
L 1984 4856 
z
" transform="scale(0.015625)"/>
      <path id="DejaVuSans-61" d="M 2194 1759 
Q 1497 1759 1228 1600 
Q 959 1441 959 1056 
Q 959 750 1161 570 
Q 1363 391 1709 391 
Q 2188 391 2477 730 
Q 2766 1069 2766 1631 
L 2766 1759 
L 2194 1759 
z
M 3341 1997 
L 3341 0 
L 2766 0 
L 2766 531 
Q 2569 213 2275 61 
Q 1981 -91 1556 -91 
Q 1019 -91 701 211 
Q 384 513 384 1019 
Q 384 1609 779 1909 
Q 1175 2209 1959 2209 
L 2766 2209 
L 2766 2266 
Q 2766 2663 2505 2880 
Q 2244 3097 1772 3097 
Q 1472 3097 1187 3025 
Q 903 2953 641 2809 
L 641 3341 
Q 956 3463 1253 3523 
Q 1550 3584 1831 3584 
Q 2591 3584 2966 3190 
Q 3341 2797 3341 1997 
z
" transform="scale(0.015625)"/>
      <path id="DejaVuSans-29" d="M 513 4856 
L 1013 4856 
Q 1481 4119 1714 3412 
Q 1947 2706 1947 2009 
Q 1947 1309 1714 600 
Q 1481 -109 1013 -844 
L 513 -844 
Q 928 -128 1133 580 
Q 1338 1288 1338 2009 
Q 1338 2731 1133 3434 
Q 928 4138 513 4856 
z
" transform="scale(0.015625)"/>
     </defs>
     <use xlink:href="#DejaVuSans-50"/>
     <use xlink:href="#DejaVuSans-72" x="58.552734"/>
     <use xlink:href="#DejaVuSans-65" x="97.416016"/>
     <use xlink:href="#DejaVuSans-64" x="158.939453"/>
     <use xlink:href="#DejaVuSans-69" x="222.416016"/>
     <use xlink:href="#DejaVuSans-63" x="250.199219"/>
     <use xlink:href="#DejaVuSans-74" x="305.179688"/>
     <use xlink:href="#DejaVuSans-65" x="344.388672"/>
     <use xlink:href="#DejaVuSans-64" x="405.912109"/>
     <use xlink:href="#DejaVuSans-20" x="469.388672"/>
     <use xlink:href="#DejaVuSans-41" x="501.175781"/>
     <use xlink:href="#DejaVuSans-72" x="569.583984"/>
     <use xlink:href="#DejaVuSans-63" x="608.447266"/>
     <use xlink:href="#DejaVuSans-2d" x="663.427734"/>
     <use xlink:href="#DejaVuSans-4c" x="699.511719"/>
     <use xlink:href="#DejaVuSans-65" x="753.474609"/>
     <use xlink:href="#DejaVuSans-6e" x="814.998047"/>
     <use xlink:href="#DejaVuSans-67" x="878.376953"/>
     <use xlink:href="#DejaVuSans-74" x="941.853516"/>
     <use xlink:href="#DejaVuSans-68" x="981.0625"/>
     <use xlink:href="#DejaVuSans-20" x="1044.441406"/>
     <use xlink:href="#DejaVuSans-76" x="1076.228516"/>
     <use xlink:href="#DejaVuSans-73" x="1135.408203"/>
     <use xlink:href="#DejaVuSans-2e" x="1187.507812"/>
     <use xlink:href="#DejaVuSans-20" x="1219.294922"/>
     <use xlink:href="#DejaVuSans-47" x="1251.082031"/>
     <use xlink:href="#DejaVuSans-72" x="1328.572266"/>
     <use xlink:href="#DejaVuSans-6f" x="1367.435547"/>
     <use xlink:href="#DejaVuSans-75" x="1428.617188"/>
     <use xlink:href="#DejaVuSans-6e" x="1491.996094"/>
     <use xlink:href="#DejaVuSans-64" x="1555.375"/>
     <use xlink:href="#DejaVuSans-20" x="1618.851562"/>
     <use xlink:href="#DejaVuSans-54" x="1650.638672"/>
     <use xlink:href="#DejaVuSans-72" x="1696.972656"/>
     <use xlink:href="#DejaVuSans-75" x="1738.085938"/>
     <use xlink:href="#DejaVuSans-74" x="1801.464844"/>
     <use xlink:href="#DejaVuSans-68" x="1840.673828"/>
     <use xlink:href="#DejaVuSans-20" x="1904.052734"/>
     <use xlink:href="#DejaVuSans-41" x="1935.839844"/>
     <use xlink:href="#DejaVuSans-72" x="2004.248047"/>
     <use xlink:href="#DejaVuSans-63" x="2043.111328"/>
     <use xlink:href="#DejaVuSans-2d" x="2098.091797"/>
     <use xlink:href="#DejaVuSans-4c" x="2134.175781"/>
     <use xlink:href="#DejaVuSans-65" x="2188.138672"/>
     <use xlink:href="#DejaVuSans-6e" x="2249.662109"/>
     <use xlink:href="#DejaVuSans-67" x="2313.041016"/>
     <use xlink:href="#DejaVuSans-74" x="2376.517578"/>
     <use xlink:href="#DejaVuSans-68" x="2415.726562"/>
     <use xlink:href="#DejaVuSans-20" x="2479.105469"/>
     <use xlink:href="#DejaVuSans-28" x="2510.892578"/>
     <use xlink:href="#DejaVuSans-61" x="2549.90625"/>
     <use xlink:href="#DejaVuSans-74" x="2611.185547"/>
     <use xlink:href="#DejaVuSans-20" x="2650.394531"/>
     <use xlink:href="#DejaVuSans-41" x="2682.181641"/>
     <use xlink:href="#DejaVuSans-6e" x="2750.589844"/>
     <use xlink:href="#DejaVuSans-63" x="2813.96875"/>
     <use xlink:href="#DejaVuSans-68" x="2868.949219"/>
     <use xlink:href="#DejaVuSans-6f" x="2932.328125"/>
     <use xlink:href="#DejaVuSans-72" x="2993.509766"/>
     <use xlink:href="#DejaVuSans-73" x="3034.623047"/>
     <use xlink:href="#DejaVuSans-29" x="3086.722656"/>
    </g>
   </g>
   <g id="legend_1">
    <g id="patch_7">
     <path d="M 557.5 339.58125 
L 1208.160156 339.58125 
Q 1213.160156 339.58125 1213.160156 334.58125 
L 1213.160156 190.3 
Q 1213.160156 185.3 1208.160156 185.3 
L 557.5 185.3 
Q 552.5 185.3 552.5 190.3 
L 552.5 334.58125 
Q 552.5 339.58125 557.5 339.58125 
z
" style="fill: #ffffff; opacity: 0.8; stroke: #cccccc; stroke-linejoin: miter"/>
    </g>
    <g id="line2d_17">
     <path d="M 562.5 205.546094 
L 587.5 205.546094 
L 612.5 205.546094 
" style="fill: none; stroke: #ff8c00; stroke-width: 6; stroke-linecap: square"/>
    </g>
    <g id="text_20">
     <!-- True Arc-Length (Transformed Curve #1) -->
     <g transform="translate(632.5 214.296094)scale(0.25 -0.25)">
      <defs>
       <path id="DejaVuSans-66" d="M 2375 4863 
L 2375 4384 
L 1825 4384 
Q 1516 4384 1395 4259 
Q 1275 4134 1275 3809 
L 1275 3500 
L 2222 3500 
L 2222 3053 
L 1275 3053 
L 1275 0 
L 697 0 
L 697 3053 
L 147 3053 
L 147 3500 
L 697 3500 
L 697 3744 
Q 697 4328 969 4595 
Q 1241 4863 1831 4863 
L 2375 4863 
z
" transform="scale(0.015625)"/>
       <path id="DejaVuSans-6d" d="M 3328 2828 
Q 3544 3216 3844 3400 
Q 4144 3584 4550 3584 
Q 5097 3584 5394 3201 
Q 5691 2819 5691 2113 
L 5691 0 
L 5113 0 
L 5113 2094 
Q 5113 2597 4934 2840 
Q 4756 3084 4391 3084 
Q 3944 3084 3684 2787 
Q 3425 2491 3425 1978 
L 3425 0 
L 2847 0 
L 2847 2094 
Q 2847 2600 2669 2842 
Q 2491 3084 2119 3084 
Q 1678 3084 1418 2786 
Q 1159 2488 1159 1978 
L 1159 0 
L 581 0 
L 581 3500 
L 1159 3500 
L 1159 2956 
Q 1356 3278 1631 3431 
Q 1906 3584 2284 3584 
Q 2666 3584 2933 3390 
Q 3200 3197 3328 2828 
z
" transform="scale(0.015625)"/>
       <path id="DejaVuSans-43" d="M 4122 4306 
L 4122 3641 
Q 3803 3938 3442 4084 
Q 3081 4231 2675 4231 
Q 1875 4231 1450 3742 
Q 1025 3253 1025 2328 
Q 1025 1406 1450 917 
Q 1875 428 2675 428 
Q 3081 428 3442 575 
Q 3803 722 4122 1019 
L 4122 359 
Q 3791 134 3420 21 
Q 3050 -91 2638 -91 
Q 1578 -91 968 557 
Q 359 1206 359 2328 
Q 359 3453 968 4101 
Q 1578 4750 2638 4750 
Q 3056 4750 3426 4639 
Q 3797 4528 4122 4306 
z
" transform="scale(0.015625)"/>
       <path id="DejaVuSans-23" d="M 3272 2816 
L 2363 2816 
L 2100 1772 
L 3016 1772 
L 3272 2816 
z
M 2803 4594 
L 2478 3297 
L 3391 3297 
L 3719 4594 
L 4219 4594 
L 3897 3297 
L 4872 3297 
L 4872 2816 
L 3775 2816 
L 3519 1772 
L 4513 1772 
L 4513 1294 
L 3397 1294 
L 3072 0 
L 2572 0 
L 2894 1294 
L 1978 1294 
L 1656 0 
L 1153 0 
L 1478 1294 
L 494 1294 
L 494 1772 
L 1594 1772 
L 1856 2816 
L 850 2816 
L 850 3297 
L 1978 3297 
L 2297 4594 
L 2803 4594 
z
" transform="scale(0.015625)"/>
      </defs>
      <use xlink:href="#DejaVuSans-54"/>
      <use xlink:href="#DejaVuSans-72" x="46.333984"/>
      <use xlink:href="#DejaVuSans-75" x="87.447266"/>
      <use xlink:href="#DejaVuSans-65" x="150.826172"/>
      <use xlink:href="#DejaVuSans-20" x="212.349609"/>
      <use xlink:href="#DejaVuSans-41" x="244.136719"/>
      <use xlink:href="#DejaVuSans-72" x="312.544922"/>
      <use xlink:href="#DejaVuSans-63" x="351.408203"/>
      <use xlink:href="#DejaVuSans-2d" x="406.388672"/>
      <use xlink:href="#DejaVuSans-4c" x="442.472656"/>
      <use xlink:href="#DejaVuSans-65" x="496.435547"/>
      <use xlink:href="#DejaVuSans-6e" x="557.958984"/>
      <use xlink:href="#DejaVuSans-67" x="621.337891"/>
      <use xlink:href="#DejaVuSans-74" x="684.814453"/>
      <use xlink:href="#DejaVuSans-68" x="724.023438"/>
      <use xlink:href="#DejaVuSans-20" x="787.402344"/>
      <use xlink:href="#DejaVuSans-28" x="819.189453"/>
      <use xlink:href="#DejaVuSans-54" x="858.203125"/>
      <use xlink:href="#DejaVuSans-72" x="904.537109"/>
      <use xlink:href="#DejaVuSans-61" x="945.650391"/>
      <use xlink:href="#DejaVuSans-6e" x="1006.929688"/>
      <use xlink:href="#DejaVuSans-73" x="1070.308594"/>
      <use xlink:href="#DejaVuSans-66" x="1122.408203"/>
      <use xlink:href="#DejaVuSans-6f" x="1157.613281"/>
      <use xlink:href="#DejaVuSans-72" x="1218.794922"/>
      <use xlink:href="#DejaVuSans-6d" x="1258.158203"/>
      <use xlink:href="#DejaVuSans-65" x="1355.570312"/>
      <use xlink:href="#DejaVuSans-64" x="1417.09375"/>
      <use xlink:href="#DejaVuSans-20" x="1480.570312"/>
      <use xlink:href="#DejaVuSans-43" x="1512.357422"/>
      <use xlink:href="#DejaVuSans-75" x="1582.181641"/>
      <use xlink:href="#DejaVuSans-72" x="1645.560547"/>
      <use xlink:href="#DejaVuSans-76" x="1686.673828"/>
      <use xlink:href="#DejaVuSans-65" x="1745.853516"/>
      <use xlink:href="#DejaVuSans-20" x="1807.376953"/>
      <use xlink:href="#DejaVuSans-23" x="1839.164062"/>
      <use xlink:href="#DejaVuSans-31" x="1922.953125"/>
      <use xlink:href="#DejaVuSans-29" x="1986.576172"/>
     </g>
    </g>
    <g id="line2d_18">
     <path d="M 562.5 242.241406 
L 587.5 242.241406 
L 612.5 242.241406 
" style="fill: none; stroke: #aa0000; stroke-width: 6; stroke-linecap: square"/>
    </g>
    <g id="text_21">
     <!-- Predicted Arc-Length (Transformed Curve #1) -->
     <g transform="translate(632.5 250.991406)scale(0.25 -0.25)">
      <use xlink:href="#DejaVuSans-50"/>
      <use xlink:href="#DejaVuSans-72" x="58.552734"/>
      <use xlink:href="#DejaVuSans-65" x="97.416016"/>
      <use xlink:href="#DejaVuSans-64" x="158.939453"/>
      <use xlink:href="#DejaVuSans-69" x="222.416016"/>
      <use xlink:href="#DejaVuSans-63" x="250.199219"/>
      <use xlink:href="#DejaVuSans-74" x="305.179688"/>
      <use xlink:href="#DejaVuSans-65" x="344.388672"/>
      <use xlink:href="#DejaVuSans-64" x="405.912109"/>
      <use xlink:href="#DejaVuSans-20" x="469.388672"/>
      <use xlink:href="#DejaVuSans-41" x="501.175781"/>
      <use xlink:href="#DejaVuSans-72" x="569.583984"/>
      <use xlink:href="#DejaVuSans-63" x="608.447266"/>
      <use xlink:href="#DejaVuSans-2d" x="663.427734"/>
      <use xlink:href="#DejaVuSans-4c" x="699.511719"/>
      <use xlink:href="#DejaVuSans-65" x="753.474609"/>
      <use xlink:href="#DejaVuSans-6e" x="814.998047"/>
      <use xlink:href="#DejaVuSans-67" x="878.376953"/>
      <use xlink:href="#DejaVuSans-74" x="941.853516"/>
      <use xlink:href="#DejaVuSans-68" x="981.0625"/>
      <use xlink:href="#DejaVuSans-20" x="1044.441406"/>
      <use xlink:href="#DejaVuSans-28" x="1076.228516"/>
      <use xlink:href="#DejaVuSans-54" x="1115.242188"/>
      <use xlink:href="#DejaVuSans-72" x="1161.576172"/>
      <use xlink:href="#DejaVuSans-61" x="1202.689453"/>
      <use xlink:href="#DejaVuSans-6e" x="1263.96875"/>
      <use xlink:href="#DejaVuSans-73" x="1327.347656"/>
      <use xlink:href="#DejaVuSans-66" x="1379.447266"/>
      <use xlink:href="#DejaVuSans-6f" x="1414.652344"/>
      <use xlink:href="#DejaVuSans-72" x="1475.833984"/>
      <use xlink:href="#DejaVuSans-6d" x="1515.197266"/>
      <use xlink:href="#DejaVuSans-65" x="1612.609375"/>
      <use xlink:href="#DejaVuSans-64" x="1674.132812"/>
      <use xlink:href="#DejaVuSans-20" x="1737.609375"/>
      <use xlink:href="#DejaVuSans-43" x="1769.396484"/>
      <use xlink:href="#DejaVuSans-75" x="1839.220703"/>
      <use xlink:href="#DejaVuSans-72" x="1902.599609"/>
      <use xlink:href="#DejaVuSans-76" x="1943.712891"/>
      <use xlink:href="#DejaVuSans-65" x="2002.892578"/>
      <use xlink:href="#DejaVuSans-20" x="2064.416016"/>
      <use xlink:href="#DejaVuSans-23" x="2096.203125"/>
      <use xlink:href="#DejaVuSans-31" x="2179.992188"/>
      <use xlink:href="#DejaVuSans-29" x="2243.615234"/>
     </g>
    </g>
    <g id="line2d_19">
     <path d="M 562.5 278.936719 
L 587.5 278.936719 
L 612.5 278.936719 
" style="fill: none; stroke: #444444; stroke-width: 6; stroke-linecap: square"/>
    </g>
    <g id="text_22">
     <!-- True Arc-Length (Transformed Curve #2) -->
     <g transform="translate(632.5 287.686719)scale(0.25 -0.25)">
      <use xlink:href="#DejaVuSans-54"/>
      <use xlink:href="#DejaVuSans-72" x="46.333984"/>
      <use xlink:href="#DejaVuSans-75" x="87.447266"/>
      <use xlink:href="#DejaVuSans-65" x="150.826172"/>
      <use xlink:href="#DejaVuSans-20" x="212.349609"/>
      <use xlink:href="#DejaVuSans-41" x="244.136719"/>
      <use xlink:href="#DejaVuSans-72" x="312.544922"/>
      <use xlink:href="#DejaVuSans-63" x="351.408203"/>
      <use xlink:href="#DejaVuSans-2d" x="406.388672"/>
      <use xlink:href="#DejaVuSans-4c" x="442.472656"/>
      <use xlink:href="#DejaVuSans-65" x="496.435547"/>
      <use xlink:href="#DejaVuSans-6e" x="557.958984"/>
      <use xlink:href="#DejaVuSans-67" x="621.337891"/>
      <use xlink:href="#DejaVuSans-74" x="684.814453"/>
      <use xlink:href="#DejaVuSans-68" x="724.023438"/>
      <use xlink:href="#DejaVuSans-20" x="787.402344"/>
      <use xlink:href="#DejaVuSans-28" x="819.189453"/>
      <use xlink:href="#DejaVuSans-54" x="858.203125"/>
      <use xlink:href="#DejaVuSans-72" x="904.537109"/>
      <use xlink:href="#DejaVuSans-61" x="945.650391"/>
      <use xlink:href="#DejaVuSans-6e" x="1006.929688"/>
      <use xlink:href="#DejaVuSans-73" x="1070.308594"/>
      <use xlink:href="#DejaVuSans-66" x="1122.408203"/>
      <use xlink:href="#DejaVuSans-6f" x="1157.613281"/>
      <use xlink:href="#DejaVuSans-72" x="1218.794922"/>
      <use xlink:href="#DejaVuSans-6d" x="1258.158203"/>
      <use xlink:href="#DejaVuSans-65" x="1355.570312"/>
      <use xlink:href="#DejaVuSans-64" x="1417.09375"/>
      <use xlink:href="#DejaVuSans-20" x="1480.570312"/>
      <use xlink:href="#DejaVuSans-43" x="1512.357422"/>
      <use xlink:href="#DejaVuSans-75" x="1582.181641"/>
      <use xlink:href="#DejaVuSans-72" x="1645.560547"/>
      <use xlink:href="#DejaVuSans-76" x="1686.673828"/>
      <use xlink:href="#DejaVuSans-65" x="1745.853516"/>
      <use xlink:href="#DejaVuSans-20" x="1807.376953"/>
      <use xlink:href="#DejaVuSans-23" x="1839.164062"/>
      <use xlink:href="#DejaVuSans-32" x="1922.953125"/>
      <use xlink:href="#DejaVuSans-29" x="1986.576172"/>
     </g>
    </g>
    <g id="line2d_20">
     <path d="M 562.5 315.632031 
L 587.5 315.632031 
L 612.5 315.632031 
" style="fill: none; stroke: #00aa00; stroke-width: 6; stroke-linecap: square"/>
    </g>
    <g id="text_23">
     <!-- Predicted Arc-Length (Transformed Curve #2) -->
     <g transform="translate(632.5 324.382031)scale(0.25 -0.25)">
      <use xlink:href="#DejaVuSans-50"/>
      <use xlink:href="#DejaVuSans-72" x="58.552734"/>
      <use xlink:href="#DejaVuSans-65" x="97.416016"/>
      <use xlink:href="#DejaVuSans-64" x="158.939453"/>
      <use xlink:href="#DejaVuSans-69" x="222.416016"/>
      <use xlink:href="#DejaVuSans-63" x="250.199219"/>
      <use xlink:href="#DejaVuSans-74" x="305.179688"/>
      <use xlink:href="#DejaVuSans-65" x="344.388672"/>
      <use xlink:href="#DejaVuSans-64" x="405.912109"/>
      <use xlink:href="#DejaVuSans-20" x="469.388672"/>
      <use xlink:href="#DejaVuSans-41" x="501.175781"/>
      <use xlink:href="#DejaVuSans-72" x="569.583984"/>
      <use xlink:href="#DejaVuSans-63" x="608.447266"/>
      <use xlink:href="#DejaVuSans-2d" x="663.427734"/>
      <use xlink:href="#DejaVuSans-4c" x="699.511719"/>
      <use xlink:href="#DejaVuSans-65" x="753.474609"/>
      <use xlink:href="#DejaVuSans-6e" x="814.998047"/>
      <use xlink:href="#DejaVuSans-67" x="878.376953"/>
      <use xlink:href="#DejaVuSans-74" x="941.853516"/>
      <use xlink:href="#DejaVuSans-68" x="981.0625"/>
      <use xlink:href="#DejaVuSans-20" x="1044.441406"/>
      <use xlink:href="#DejaVuSans-28" x="1076.228516"/>
      <use xlink:href="#DejaVuSans-54" x="1115.242188"/>
      <use xlink:href="#DejaVuSans-72" x="1161.576172"/>
      <use xlink:href="#DejaVuSans-61" x="1202.689453"/>
      <use xlink:href="#DejaVuSans-6e" x="1263.96875"/>
      <use xlink:href="#DejaVuSans-73" x="1327.347656"/>
      <use xlink:href="#DejaVuSans-66" x="1379.447266"/>
      <use xlink:href="#DejaVuSans-6f" x="1414.652344"/>
      <use xlink:href="#DejaVuSans-72" x="1475.833984"/>
      <use xlink:href="#DejaVuSans-6d" x="1515.197266"/>
      <use xlink:href="#DejaVuSans-65" x="1612.609375"/>
      <use xlink:href="#DejaVuSans-64" x="1674.132812"/>
      <use xlink:href="#DejaVuSans-20" x="1737.609375"/>
      <use xlink:href="#DejaVuSans-43" x="1769.396484"/>
      <use xlink:href="#DejaVuSans-75" x="1839.220703"/>
      <use xlink:href="#DejaVuSans-72" x="1902.599609"/>
      <use xlink:href="#DejaVuSans-76" x="1943.712891"/>
      <use xlink:href="#DejaVuSans-65" x="2002.892578"/>
      <use xlink:href="#DejaVuSans-20" x="2064.416016"/>
      <use xlink:href="#DejaVuSans-23" x="2096.203125"/>
      <use xlink:href="#DejaVuSans-32" x="2179.992188"/>
      <use xlink:href="#DejaVuSans-29" x="2243.615234"/>
     </g>
    </g>
   </g>
   <g id="line2d_21">
    <path d="M 692.181818 1210.581818 
L 710.870813 1204.620755 
L 732.229665 1197.541726 
L 785.626794 1179.624753 
L 801.645933 1174.558899 
L 817.665072 1169.751005 
L 833.684211 1165.201268 
L 852.373206 1160.150665 
L 908.440191 1145.437847 
L 943.148325 1136.370888 
L 961.837321 1131.718655 
L 980.526316 1127.30511 
L 1012.564593 1120.060355 
L 1033.923445 1115.102844 
L 1052.61244 1110.529254 
L 1100.669856 1098.549908 
L 1111.349282 1096.159882 
L 1122.028708 1093.992127 
L 1132.708134 1092.099066 
L 1140.717703 1090.885657 
L 1148.727273 1089.862954 
L 1156.736842 1089.033821 
L 1167.416268 1088.199764 
L 1188.77512 1086.769002 
L 1196.784689 1085.995396 
L 1204.794258 1085.011066 
L 1212.803828 1083.805825 
L 1220.813397 1082.381094 
L 1228.822967 1080.744935 
L 1236.832536 1078.909694 
L 1244.842105 1076.890658 
L 1255.521531 1073.942777 
L 1266.200957 1070.743132 
L 1279.550239 1066.458446 
L 1292.899522 1061.936098 
L 1311.588517 1055.346472 
L 1340.956938 1044.697225 
L 1381.004785 1029.931544 
L 1410.373206 1018.882493 
L 1445.08134 1005.566337 
L 1503.818182 982.993275 
L 1541.196172 968.913481 
L 1605.272727 945.069681 
L 1639.980861 932.319376 
L 1661.339713 924.687901 
L 1677.358852 919.16513 
L 1693.37799 913.887593 
L 1706.727273 909.726414 
L 1720.076555 905.819318 
L 1730.755981 902.895369 
L 1741.435407 900.158435 
L 1754.784689 896.99358 
L 1768.133971 894.075097 
L 1792.162679 889.141538 
L 1808.181818 885.737294 
L 1818.861244 883.26222 
L 1829.54067 880.550849 
L 1840.220096 877.562178 
L 1850.899522 874.272942 
L 1861.578947 870.675276 
L 1872.258373 866.774228 
L 1882.937799 862.585605 
L 1893.617225 858.134228 
L 1904.296651 853.452494 
L 1917.645933 847.335965 
L 1933.665072 839.724831 
L 1976.382775 819.263225 
L 1989.732057 813.22735 
L 2000.411483 808.650473 
L 2011.090909 804.352809 
L 2019.100478 801.340834 
L 2027.110048 798.529181 
L 2035.119617 795.93223 
L 2043.129187 793.560768 
L 2051.138756 791.420817 
L 2059.148325 789.511913 
L 2067.157895 787.82451 
L 2075.167464 786.336199 
L 2085.84689 784.589275 
L 2109.875598 780.841278 
L 2117.885167 779.384394 
L 2125.894737 777.740654 
L 2133.904306 775.888874 
L 2141.913876 773.821208 
L 2149.923445 771.539136 
L 2157.933014 769.050677 
L 2165.942584 766.368493 
L 2176.62201 762.518851 
L 2187.301435 758.397325 
L 2197.980861 754.05182 
L 2211.330144 748.37998 
L 2230.019139 740.157863 
L 2278.076555 718.852661 
L 2296.76555 710.855417 
L 2315.454545 703.091968 
L 2336.813397 694.487834 
L 2358.172249 686.120904 
L 2384.870813 675.910061 
L 2416.909091 663.909852 
L 2451.617225 651.15531 
L 2480.985646 640.589988 
L 2513.023923 629.321589 
L 2555.741627 614.325276 
L 2574.430622 607.48995 
L 2590.449761 601.372184 
L 2603.799043 596.056302 
L 2617.148325 590.532404 
L 2633.167464 583.639397 
L 2649.186603 576.493074 
L 2667.875598 567.910602 
L 2699.913876 552.885833 
L 2729.282297 539.180027 
L 2747.971292 530.679591 
L 2763.990431 523.608637 
L 2780.009569 516.780575 
L 2796.028708 510.224956 
L 2809.37799 504.982588 
L 2822.727273 499.9452 
L 2836.076555 495.113438 
L 2849.425837 490.487891 
L 2862.77512 486.072828 
L 2876.124402 481.879575 
L 2889.473684 477.928503 
L 2902.822967 474.248696 
L 2913.502392 471.523337 
L 2924.181818 469.011235 
L 2934.861244 466.726033 
L 2945.54067 464.67253 
L 2956.220096 462.839711 
L 2969.569378 460.801308 
L 3001.607656 456.104911 
L 3012.287081 454.249404 
L 3022.966507 452.135115 
L 3033.645933 449.73901 
L 3044.325359 447.060555 
L 3055.004785 444.115435 
L 3065.684211 440.930888 
L 3079.033493 436.667874 
L 3092.382775 432.166595 
L 3113.741627 424.687196 
L 3140.440191 415.343747 
L 3156.45933 409.995585 
L 3169.808612 405.800807 
L 3180.488038 402.66231 
L 3191.167464 399.74588 
L 3201.84689 397.070381 
L 3212.526316 394.643643 
L 3223.205742 392.456923 
L 3236.555024 390.007895 
L 3273.933014 383.47283 
L 3284.61244 381.24193 
L 3292.62201 379.375765 
L 3300.631579 377.329787 
L 3308.641148 375.099562 
L 3316.650718 372.686919 
L 3327.330144 369.198725 
L 3338.009569 365.425714 
L 3348.688995 361.403829 
L 3362.038278 356.090851 
L 3378.057416 349.414212 
L 3404.755981 337.951371 
L 3428.784689 327.705622 
L 3447.473684 319.986735 
L 3463.492823 313.603214 
L 3479.511962 307.440509 
L 3498.200957 300.50019 
L 3519.559809 292.82014 
L 3548.92823 282.513163 
L 3596.985646 265.897907 
L 3623.684211 256.8706 
L 3645.043062 249.884787 
L 3663.732057 243.995364 
L 3685.090909 237.498275 
L 3735.818182 222.218182 
L 3735.818182 222.218182 
" clip-path="url(#p7fbf073867)" style="fill: none; stroke: #ff8c00; stroke-width: 6; stroke-linecap: square"/>
   </g>
   <g id="line2d_22">
    <path d="M 692.181818 1210.581818 
L 694.851675 1209.698281 
L 700.191388 1208.53749 
L 708.200957 1206.626756 
L 713.54067 1205.54654 
L 718.880383 1204.038447 
L 721.550239 1203.68514 
L 726.889952 1202.538973 
L 729.559809 1201.511726 
L 732.229665 1200.915304 
L 734.899522 1200.996776 
L 737.569378 1199.764257 
L 740.239234 1199.990442 
L 742.909091 1197.847797 
L 745.578947 1197.831628 
L 748.248804 1197.049226 
L 750.91866 1196.605686 
L 753.588517 1195.923228 
L 756.258373 1194.355149 
L 766.937799 1191.757546 
L 769.607656 1192.122823 
L 772.277512 1190.550377 
L 774.947368 1190.118458 
L 777.617225 1189.394735 
L 780.287081 1188.957945 
L 782.956938 1188.289814 
L 788.296651 1187.349146 
L 790.966507 1185.609583 
L 793.636364 1186.12048 
L 796.30622 1184.419096 
L 798.976077 1183.418123 
L 801.645933 1184.390624 
L 804.315789 1182.001937 
L 809.655502 1180.707425 
L 812.325359 1182.327024 
L 814.995215 1179.503578 
L 817.665072 1178.937758 
L 820.334928 1179.735637 
L 823.004785 1177.856417 
L 828.344498 1176.855316 
L 831.014354 1179.418943 
L 833.684211 1177.794968 
L 836.354067 1175.201749 
L 841.69378 1174.118469 
L 844.363636 1173.635425 
L 847.033493 1173.410145 
L 849.703349 1172.452544 
L 852.373206 1172.510035 
L 855.043062 1171.164927 
L 857.712919 1171.467817 
L 860.382775 1170.357591 
L 863.052632 1169.765633 
L 865.722488 1170.361165 
L 871.062201 1169.700596 
L 873.732057 1168.032841 
L 876.401914 1167.746898 
L 879.07177 1166.666457 
L 881.741627 1166.707629 
L 884.411483 1165.921308 
L 892.421053 1164.893219 
L 895.090909 1165.159183 
L 897.760766 1164.839498 
L 900.430622 1163.307033 
L 905.770335 1162.525847 
L 908.440191 1162.053337 
L 911.110048 1161.834755 
L 913.779904 1161.350471 
L 916.449761 1160.043826 
L 919.119617 1159.843136 
L 921.789474 1159.266942 
L 924.45933 1158.425072 
L 927.129187 1157.90689 
L 935.138756 1155.921192 
L 943.148325 1153.901975 
L 959.167464 1149.954136 
L 964.507177 1148.712161 
L 967.177033 1148.00841 
L 977.856459 1145.579548 
L 985.866029 1143.754914 
L 991.205742 1142.664381 
L 996.545455 1141.453831 
L 999.215311 1140.988703 
L 1007.22488 1139.092302 
L 1009.894737 1138.637201 
L 1012.564593 1138.354535 
L 1015.23445 1137.528426 
L 1017.904306 1136.890769 
L 1020.574163 1136.4456 
L 1028.583732 1134.584641 
L 1033.923445 1133.911494 
L 1039.263158 1132.440368 
L 1041.933014 1132.076066 
L 1047.272727 1130.897617 
L 1049.942584 1130.379127 
L 1052.61244 1129.517318 
L 1055.282297 1129.098349 
L 1057.952153 1128.397809 
L 1060.62201 1128.038719 
L 1071.301435 1125.579452 
L 1079.311005 1123.468572 
L 1081.980861 1122.831262 
L 1084.650718 1122.327351 
L 1103.339713 1117.878344 
L 1122.028708 1113.990018 
L 1132.708134 1112.099575 
L 1138.047847 1111.244617 
L 1146.057416 1110.175198 
L 1154.066986 1109.288948 
L 1162.076555 1108.611202 
L 1178.095694 1107.799919 
L 1180.76555 1107.874427 
L 1183.435407 1107.708563 
L 1186.105263 1107.817218 
L 1188.77512 1107.809348 
L 1191.444976 1107.630697 
L 1194.114833 1107.774282 
L 1196.784689 1107.783638 
L 1199.454545 1107.640953 
L 1202.124402 1107.650981 
L 1210.133971 1107.247559 
L 1212.803828 1106.759035 
L 1218.143541 1106.089905 
L 1220.813397 1106.467716 
L 1226.15311 1104.954878 
L 1228.822967 1105.227301 
L 1231.492823 1104.351237 
L 1234.162679 1103.986412 
L 1236.832536 1103.346215 
L 1239.502392 1102.86631 
L 1242.172249 1102.089593 
L 1247.511962 1100.7522 
L 1258.191388 1097.769661 
L 1271.54067 1093.615034 
L 1279.550239 1091.023771 
L 1303.578947 1082.783261 
L 1308.91866 1080.849445 
L 1316.92823 1077.984063 
L 1362.315789 1061.915516 
L 1378.334928 1056.324675 
L 1394.354067 1050.664758 
L 1397.023923 1049.912976 
L 1399.69378 1048.764336 
L 1402.363636 1048.105151 
L 1418.382775 1042.282798 
L 1421.052632 1041.301075 
L 1423.722488 1040.582254 
L 1429.062201 1038.698822 
L 1431.732057 1037.494248 
L 1437.07177 1035.57491 
L 1439.741627 1034.477398 
L 1463.770335 1025.738957 
L 1466.440191 1024.635754 
L 1469.110048 1023.792012 
L 1474.449761 1021.893237 
L 1477.119617 1020.735438 
L 1479.789474 1019.931135 
L 1482.45933 1018.908773 
L 1485.129187 1017.684585 
L 1490.4689 1015.697793 
L 1493.138756 1014.947753 
L 1498.478469 1012.948312 
L 1501.148325 1011.596462 
L 1503.818182 1010.72734 
L 1506.488038 1009.578865 
L 1509.157895 1008.738995 
L 1511.827751 1008.081696 
L 1514.497608 1007.063114 
L 1517.167464 1006.182405 
L 1522.507177 1004.142341 
L 1527.84689 1002.281529 
L 1530.516746 1001.038062 
L 1535.856459 999.355529 
L 1543.866029 996.184266 
L 1546.535885 994.923605 
L 1549.205742 994.661475 
L 1551.875598 993.431188 
L 1554.545455 992.466301 
L 1557.215311 991.64212 
L 1559.885167 990.401583 
L 1562.555024 989.593737 
L 1565.22488 988.63667 
L 1567.894737 987.383817 
L 1570.564593 986.587481 
L 1573.23445 985.433413 
L 1578.574163 983.378255 
L 1581.244019 982.787886 
L 1583.913876 981.572501 
L 1586.583732 980.887288 
L 1591.923445 979.070098 
L 1599.933014 976.223834 
L 1602.602871 975.146272 
L 1605.272727 974.335128 
L 1607.942584 973.393652 
L 1613.282297 971.243396 
L 1615.952153 970.209274 
L 1618.62201 969.846804 
L 1621.291866 968.196398 
L 1623.961722 967.777995 
L 1626.631579 966.668788 
L 1629.301435 965.740775 
L 1631.971292 964.606833 
L 1634.641148 964.075014 
L 1637.311005 962.734152 
L 1639.980861 962.095874 
L 1647.990431 959.065352 
L 1650.660287 958.342939 
L 1653.330144 956.948368 
L 1656 956.504056 
L 1658.669856 955.3844 
L 1661.339713 954.077444 
L 1664.009569 953.973731 
L 1666.679426 952.787829 
L 1669.349282 951.7651 
L 1672.019139 951.115298 
L 1674.688995 950.17655 
L 1677.358852 949.101119 
L 1680.028708 948.613233 
L 1682.698565 947.699551 
L 1685.368421 946.499812 
L 1688.038278 945.868772 
L 1690.708134 944.982643 
L 1693.37799 943.973732 
L 1696.047847 943.151167 
L 1698.717703 942.918671 
L 1701.38756 941.584622 
L 1704.057416 941.409597 
L 1706.727273 940.002834 
L 1709.397129 939.169342 
L 1712.066986 938.986435 
L 1714.736842 937.714176 
L 1717.406699 936.928198 
L 1720.076555 936.47409 
L 1722.746411 935.730306 
L 1725.416268 934.805043 
L 1728.086124 934.12446 
L 1730.755981 933.804057 
L 1733.425837 933.791057 
L 1736.095694 933.004915 
L 1738.76555 932.498413 
L 1741.435407 931.320391 
L 1744.105263 930.729717 
L 1746.77512 930.490139 
L 1749.444976 929.59904 
L 1752.114833 929.34952 
L 1754.784689 928.534704 
L 1757.454545 928.027574 
L 1765.464115 927.098636 
L 1768.133971 926.578901 
L 1770.803828 925.9078 
L 1773.473684 925.746518 
L 1778.813397 924.997449 
L 1784.15311 924.2746 
L 1786.822967 923.699184 
L 1792.162679 922.938585 
L 1802.842105 921.840665 
L 1805.511962 921.242071 
L 1816.191388 919.797386 
L 1818.861244 919.758838 
L 1821.5311 919.176425 
L 1824.200957 918.364833 
L 1826.870813 917.902411 
L 1829.54067 917.885759 
L 1834.880383 916.882622 
L 1837.550239 915.818752 
L 1840.220096 915.194224 
L 1842.889952 914.81832 
L 1845.559809 913.93393 
L 1848.229665 913.297242 
L 1850.899522 912.805695 
L 1853.569378 912.115534 
L 1858.909091 910.366614 
L 1861.578947 909.461484 
L 1864.248804 908.766533 
L 1866.91866 907.65288 
L 1869.588517 906.986216 
L 1872.258373 906.044689 
L 1874.92823 904.879783 
L 1877.598086 903.864266 
L 1880.267943 903.143068 
L 1882.937799 901.726246 
L 1885.607656 901.06722 
L 1890.947368 898.808168 
L 1893.617225 897.82778 
L 1901.626794 894.372433 
L 1917.645933 887.180528 
L 1925.655502 883.421225 
L 1936.334928 878.44859 
L 1939.004785 877.094375 
L 1941.674641 875.929966 
L 1944.344498 874.542379 
L 1955.023923 869.383047 
L 1960.363636 866.926269 
L 1968.373206 863.163144 
L 1971.043062 861.772311 
L 1976.382775 859.231339 
L 1979.052632 858.288154 
L 1981.722488 856.740571 
L 1984.392344 855.908192 
L 1987.062201 854.736532 
L 1989.732057 853.327617 
L 1992.401914 852.228359 
L 1997.741627 849.879599 
L 2000.411483 848.76852 
L 2003.08134 847.876591 
L 2008.421053 845.446822 
L 2011.090909 844.783564 
L 2019.100478 842.12255 
L 2021.770335 840.983266 
L 2024.440191 840.239454 
L 2027.110048 839.232361 
L 2029.779904 838.354781 
L 2032.449761 837.710761 
L 2035.119617 836.605804 
L 2037.789474 835.842143 
L 2040.45933 835.417719 
L 2043.129187 834.781299 
L 2045.799043 833.800635 
L 2048.4689 833.214578 
L 2051.138756 832.767033 
L 2053.808612 831.905736 
L 2056.478469 831.374664 
L 2061.818182 830.551637 
L 2064.488038 830.00247 
L 2069.827751 829.188308 
L 2072.497608 828.490984 
L 2075.167464 828.45606 
L 2077.837321 827.636173 
L 2080.507177 827.328953 
L 2083.177033 827.420263 
L 2093.856459 826.594935 
L 2096.526316 826.64451 
L 2099.196172 826.499481 
L 2104.535885 826.496033 
L 2107.205742 826.228844 
L 2109.875598 826.585573 
L 2112.545455 825.976083 
L 2115.215311 826.004385 
L 2117.885167 826.205673 
L 2120.555024 826.160398 
L 2123.22488 826.247042 
L 2125.894737 826.117795 
L 2128.564593 825.723083 
L 2131.23445 825.801286 
L 2133.904306 825.607025 
L 2136.574163 824.890131 
L 2139.244019 824.764044 
L 2141.913876 825.436695 
L 2144.583732 824.561881 
L 2147.253589 824.473227 
L 2149.923445 825.235863 
L 2152.593301 824.305481 
L 2157.933014 824.103231 
L 2160.602871 824.905685 
L 2163.272727 823.030105 
L 2168.61244 822.335807 
L 2171.282297 822.516224 
L 2173.952153 819.968625 
L 2176.62201 821.765171 
L 2179.291866 821.390462 
L 2181.961722 820.585389 
L 2184.631579 820.638847 
L 2187.301435 818.628669 
L 2189.971292 817.667619 
L 2192.641148 816.831461 
L 2197.980861 816.73196 
L 2200.650718 815.194882 
L 2203.320574 812.779921 
L 2205.990431 813.659737 
L 2208.660287 810.8954 
L 2211.330144 812.142077 
L 2214 808.850887 
L 2219.339713 806.614551 
L 2222.009569 805.722022 
L 2224.679426 804.661797 
L 2227.349282 803.22221 
L 2230.019139 802.536319 
L 2232.688995 801.472985 
L 2235.358852 800.282792 
L 2238.028708 798.77445 
L 2240.698565 798.194371 
L 2251.37799 793.537368 
L 2254.047847 792.435898 
L 2256.717703 791.192747 
L 2259.38756 790.254837 
L 2262.057416 789.006084 
L 2264.727273 788.075883 
L 2267.397129 786.979785 
L 2270.066986 786.034239 
L 2283.416268 780.256491 
L 2286.086124 779.300481 
L 2291.425837 776.970276 
L 2294.095694 776.00991 
L 2296.76555 775.181099 
L 2302.105263 773.174519 
L 2304.77512 771.959852 
L 2307.444976 771.144068 
L 2310.114833 769.987505 
L 2312.784689 768.697524 
L 2315.454545 767.927215 
L 2320.794258 765.620407 
L 2326.133971 763.57421 
L 2328.803828 762.544138 
L 2331.473684 761.930863 
L 2334.143541 760.541681 
L 2336.813397 759.839238 
L 2339.483254 758.422612 
L 2342.15311 757.84825 
L 2347.492823 755.443244 
L 2350.162679 754.715724 
L 2352.832536 753.474695 
L 2355.502392 752.741356 
L 2358.172249 751.520411 
L 2363.511962 749.582029 
L 2366.181818 748.885084 
L 2368.851675 747.530676 
L 2371.521531 746.698783 
L 2374.191388 746.037616 
L 2376.861244 744.793916 
L 2379.5311 743.983422 
L 2382.200957 742.847487 
L 2384.870813 742.080086 
L 2387.54067 740.831544 
L 2392.880383 738.837705 
L 2398.220096 736.876805 
L 2400.889952 736.316602 
L 2403.559809 735.078394 
L 2411.569378 732.119535 
L 2414.239234 731.556413 
L 2416.909091 730.61112 
L 2419.578947 729.410843 
L 2424.91866 727.334603 
L 2430.258373 725.616187 
L 2432.92823 724.337298 
L 2435.598086 723.702604 
L 2440.937799 721.833429 
L 2443.607656 720.439246 
L 2446.277512 719.802674 
L 2448.947368 719.022423 
L 2451.617225 717.468306 
L 2454.287081 716.941453 
L 2456.956938 715.992542 
L 2459.626794 714.803986 
L 2462.296651 714.093468 
L 2464.966507 713.161774 
L 2467.636364 712.012745 
L 2470.30622 711.410843 
L 2472.976077 710.440872 
L 2475.645933 709.189888 
L 2478.315789 708.227693 
L 2480.985646 707.699793 
L 2483.655502 706.795375 
L 2486.325359 705.403953 
L 2488.995215 704.718737 
L 2491.665072 703.568762 
L 2494.334928 703.193165 
L 2497.004785 702.048228 
L 2499.674641 701.399717 
L 2502.344498 700.286839 
L 2505.014354 698.979923 
L 2507.684211 698.456033 
L 2510.354067 697.031017 
L 2513.023923 696.144375 
L 2515.69378 695.67388 
L 2521.033493 693.757833 
L 2523.703349 692.569222 
L 2529.043062 690.917407 
L 2537.052632 688.366055 
L 2539.722488 687.786355 
L 2542.392344 686.926031 
L 2545.062201 686.690584 
L 2547.732057 685.469279 
L 2550.401914 684.941419 
L 2553.07177 683.521602 
L 2555.741627 683.137566 
L 2558.411483 681.843779 
L 2569.090909 678.394441 
L 2571.760766 677.503064 
L 2574.430622 676.402104 
L 2577.100478 676.227621 
L 2582.440191 674.496181 
L 2587.779904 671.87231 
L 2590.449761 670.967547 
L 2593.119617 670.802773 
L 2598.45933 668.868642 
L 2601.129187 667.529513 
L 2603.799043 666.620638 
L 2606.4689 664.923382 
L 2609.138756 663.948644 
L 2611.808612 663.424112 
L 2614.478469 662.407861 
L 2617.148325 661.731273 
L 2619.818182 660.357455 
L 2625.157895 658.429376 
L 2627.827751 657.453387 
L 2630.497608 656.140441 
L 2633.167464 655.021909 
L 2635.837321 654.181022 
L 2638.507177 652.530319 
L 2643.84689 650.35899 
L 2646.516746 649.528974 
L 2649.186603 647.980691 
L 2667.875598 640.041602 
L 2670.545455 638.614609 
L 2683.894737 632.413309 
L 2686.564593 631.385827 
L 2691.904306 628.689433 
L 2697.244019 626.440797 
L 2707.923445 621.206576 
L 2710.593301 620.247491 
L 2713.263158 618.846437 
L 2721.272727 615.185224 
L 2723.942584 614.173578 
L 2726.61244 612.716921 
L 2729.282297 611.441683 
L 2731.952153 610.936192 
L 2737.291866 608.220942 
L 2739.961722 607.244576 
L 2742.631579 605.858271 
L 2745.301435 604.845255 
L 2747.971292 603.577183 
L 2750.641148 602.733491 
L 2755.980861 600.376716 
L 2758.650718 599.001646 
L 2763.990431 596.631111 
L 2766.660287 595.842843 
L 2769.330144 594.33824 
L 2774.669856 592.106572 
L 2777.339713 591.40319 
L 2780.009569 590.002221 
L 2782.679426 589.476506 
L 2785.349282 588.062222 
L 2790.688995 585.915156 
L 2793.358852 584.888415 
L 2796.028708 584.105904 
L 2798.698565 583.045728 
L 2801.368421 582.262968 
L 2804.038278 581.245496 
L 2806.708134 580.009091 
L 2809.37799 579.196721 
L 2812.047847 578.059794 
L 2817.38756 576.203721 
L 2828.066986 572.33245 
L 2844.086124 566.830643 
L 2849.425837 565.215951 
L 2854.76555 563.4663 
L 2860.105263 561.934685 
L 2862.77512 561.031003 
L 2868.114833 559.608192 
L 2870.784689 558.824928 
L 2873.454545 557.890119 
L 2876.124402 557.158709 
L 2881.464115 555.947081 
L 2884.133971 555.114246 
L 2886.803828 554.439321 
L 2889.473684 553.951155 
L 2892.143541 553.063236 
L 2894.813397 552.513668 
L 2897.483254 551.824573 
L 2902.822967 550.809885 
L 2905.492823 549.764835 
L 2908.162679 549.501055 
L 2913.502392 548.476519 
L 2916.172249 547.682509 
L 2918.842105 547.285668 
L 2924.181818 546.348741 
L 2926.851675 545.983225 
L 2929.521531 545.409683 
L 2932.191388 545.220501 
L 2934.861244 544.891793 
L 2937.5311 544.849748 
L 2940.200957 544.668167 
L 2942.870813 543.782712 
L 2945.54067 543.81021 
L 2953.550239 543.083605 
L 2956.220096 542.891638 
L 2958.889952 542.90489 
L 2961.559809 542.264182 
L 2964.229665 542.152811 
L 2966.899522 542.50755 
L 2969.569378 541.935962 
L 2972.239234 541.802619 
L 2974.909091 542.016247 
L 2977.578947 541.948114 
L 2980.248804 541.612824 
L 2982.91866 541.481178 
L 2985.588517 541.61217 
L 2988.258373 541.960923 
L 2990.92823 541.720892 
L 2996.267943 541.940437 
L 2998.937799 541.370909 
L 3001.607656 541.892723 
L 3004.277512 541.586153 
L 3009.617225 541.773811 
L 3012.287081 541.408586 
L 3014.956938 541.848675 
L 3017.626794 541.025856 
L 3020.296651 540.802065 
L 3028.30622 540.905268 
L 3030.976077 539.668656 
L 3033.645933 539.19049 
L 3038.985646 539.081471 
L 3041.655502 539.706356 
L 3044.325359 538.96978 
L 3049.665072 538.838922 
L 3052.334928 539.707738 
L 3055.004785 539.690937 
L 3057.674641 539.935205 
L 3060.344498 539.850412 
L 3065.684211 539.149963 
L 3068.354067 538.097675 
L 3071.023923 535.92626 
L 3076.363636 534.842144 
L 3079.033493 537.305435 
L 3081.703349 533.717958 
L 3084.373206 536.51864 
L 3087.043062 536.113587 
L 3089.712919 531.942125 
L 3092.382775 531.330914 
L 3095.052632 534.292837 
L 3097.722488 528.954172 
L 3100.392344 528.496752 
L 3103.062201 527.070495 
L 3105.732057 526.898453 
L 3108.401914 525.20112 
L 3111.07177 525.793751 
L 3113.741627 523.355122 
L 3116.411483 524.109777 
L 3119.08134 522.882 
L 3121.751196 520.573163 
L 3124.421053 521.557792 
L 3127.090909 518.750777 
L 3129.760766 519.8469 
L 3132.430622 518.780284 
L 3135.100478 516.034925 
L 3137.770335 515.005924 
L 3140.440191 514.236764 
L 3143.110048 513.14031 
L 3145.779904 512.250663 
L 3148.449761 511.589453 
L 3151.119617 510.723504 
L 3153.789474 509.660782 
L 3156.45933 509.020945 
L 3159.129187 507.945641 
L 3167.138756 505.4384 
L 3169.808612 505.080821 
L 3172.478469 504.074012 
L 3175.148325 503.545853 
L 3177.818182 502.48966 
L 3185.827751 500.477953 
L 3188.497608 499.973684 
L 3191.167464 499.243014 
L 3196.507177 498.282229 
L 3199.177033 497.553728 
L 3207.186603 496.190155 
L 3212.526316 495.180219 
L 3215.196172 494.480834 
L 3217.866029 494.05462 
L 3220.535885 493.875892 
L 3223.205742 493.533387 
L 3225.875598 492.891712 
L 3228.545455 493.120552 
L 3231.215311 492.865129 
L 3233.885167 492.030435 
L 3236.555024 491.999041 
L 3239.22488 491.544895 
L 3241.894737 491.499808 
L 3244.564593 491.031573 
L 3247.23445 491.102267 
L 3252.574163 490.831994 
L 3257.913876 490.931555 
L 3260.583732 490.444505 
L 3263.253589 490.459494 
L 3265.923445 490.98981 
L 3271.263158 491.157448 
L 3273.933014 491.134321 
L 3276.602871 490.743652 
L 3279.272727 490.641065 
L 3281.942584 491.004019 
L 3284.61244 490.446737 
L 3287.282297 490.869405 
L 3289.952153 490.770882 
L 3292.62201 490.32954 
L 3295.291866 490.31662 
L 3297.961722 489.867287 
L 3303.301435 489.756103 
L 3305.971292 489.290509 
L 3308.641148 489.753368 
L 3311.311005 489.71326 
L 3313.980861 488.937755 
L 3316.650718 489.472799 
L 3330 489.020075 
L 3332.669856 485.766877 
L 3335.339713 487.811341 
L 3338.009569 487.544675 
L 3340.679426 487.562066 
L 3343.349282 483.564762 
L 3346.019139 487.071673 
L 3348.688995 486.835035 
L 3351.358852 486.238399 
L 3354.028708 481.836669 
L 3356.698565 481.286232 
L 3359.368421 485.931326 
L 3362.038278 485.712594 
L 3364.708134 483.584767 
L 3367.37799 483.60229 
L 3370.047847 482.413585 
L 3372.717703 481.580735 
L 3375.38756 479.277323 
L 3378.057416 478.276133 
L 3380.727273 479.07122 
L 3383.397129 476.423047 
L 3386.066986 475.394297 
L 3388.736842 476.796202 
L 3391.406699 473.215121 
L 3394.076555 475.078305 
L 3396.746411 471.291832 
L 3402.086124 468.988535 
L 3418.105263 462.459335 
L 3420.77512 461.47779 
L 3431.454545 457.075832 
L 3434.124402 456.153056 
L 3436.794258 454.908331 
L 3439.464115 454.188371 
L 3442.133971 452.706794 
L 3444.803828 451.614889 
L 3447.473684 450.904934 
L 3450.143541 449.44248 
L 3452.813397 448.513771 
L 3455.483254 447.81829 
L 3466.162679 443.803175 
L 3468.832536 442.324464 
L 3471.502392 441.06974 
L 3474.172249 440.148257 
L 3482.181818 437.114717 
L 3490.191388 434.279728 
L 3492.861244 433.075728 
L 3498.200957 431.127396 
L 3500.870813 430.414398 
L 3503.54067 429.26549 
L 3506.210526 428.536901 
L 3508.880383 427.390329 
L 3514.220096 425.850303 
L 3516.889952 424.721993 
L 3519.559809 424.159127 
L 3522.229665 422.896936 
L 3530.239234 420.02509 
L 3532.909091 419.272486 
L 3535.578947 418.369955 
L 3540.91866 416.267725 
L 3546.258373 414.428477 
L 3548.92823 413.69143 
L 3551.598086 412.493717 
L 3554.267943 412.064331 
L 3556.937799 411.799135 
L 3559.607656 410.377346 
L 3562.277512 409.492215 
L 3564.947368 408.990566 
L 3567.617225 408.055545 
L 3570.287081 406.843136 
L 3575.626794 405.080586 
L 3578.296651 403.967933 
L 3583.636364 402.217146 
L 3586.30622 401.333655 
L 3588.976077 400.69508 
L 3594.315789 398.887018 
L 3596.985646 398.064499 
L 3599.655502 397.118279 
L 3602.325359 396.824538 
L 3604.995215 395.464625 
L 3607.665072 394.605075 
L 3610.334928 393.616896 
L 3613.004785 393.125574 
L 3615.674641 391.889161 
L 3618.344498 391.305142 
L 3621.014354 390.359938 
L 3623.684211 389.570167 
L 3626.354067 389.226065 
L 3629.023923 387.821413 
L 3631.69378 387.019884 
L 3634.363636 386.495221 
L 3637.033493 385.342884 
L 3645.043062 382.914833 
L 3647.712919 382.466227 
L 3650.382775 381.338173 
L 3653.052632 380.967904 
L 3655.722488 379.779911 
L 3658.392344 379.289303 
L 3669.07177 376.00602 
L 3671.741627 375.293651 
L 3674.411483 374.742637 
L 3677.08134 373.88288 
L 3679.751196 373.187499 
L 3682.421053 372.314911 
L 3685.090909 371.845328 
L 3687.760766 370.96038 
L 3690.430622 370.226752 
L 3693.100478 370.065026 
L 3695.770335 369.383382 
L 3698.440191 368.458037 
L 3701.110048 367.787381 
L 3703.779904 366.844747 
L 3706.449761 366.629979 
L 3714.45933 364.597819 
L 3717.129187 363.713065 
L 3719.799043 363.417666 
L 3722.4689 362.535689 
L 3725.138756 362.192709 
L 3730.478469 360.992543 
L 3733.148325 360.562404 
L 3735.818182 359.975587 
L 3735.818182 359.975587 
" clip-path="url(#p7fbf073867)" style="fill: none; stroke: #aa0000; stroke-width: 6; stroke-linecap: square"/>
   </g>
   <g id="line2d_23">
    <path d="M 692.181818 1210.581818 
L 710.870813 1204.620755 
L 732.229665 1197.541726 
L 785.626794 1179.624753 
L 801.645933 1174.558899 
L 817.665072 1169.751005 
L 833.684211 1165.201268 
L 852.373206 1160.150665 
L 908.440191 1145.437847 
L 943.148325 1136.370888 
L 961.837321 1131.718655 
L 980.526316 1127.30511 
L 1012.564593 1120.060355 
L 1033.923445 1115.102844 
L 1052.61244 1110.529254 
L 1100.669856 1098.549908 
L 1111.349282 1096.159882 
L 1122.028708 1093.992127 
L 1132.708134 1092.099066 
L 1140.717703 1090.885657 
L 1148.727273 1089.862954 
L 1156.736842 1089.033821 
L 1167.416268 1088.199764 
L 1188.77512 1086.769002 
L 1196.784689 1085.995396 
L 1204.794258 1085.011066 
L 1212.803828 1083.805825 
L 1220.813397 1082.381094 
L 1228.822967 1080.744935 
L 1236.832536 1078.909694 
L 1244.842105 1076.890658 
L 1255.521531 1073.942777 
L 1266.200957 1070.743132 
L 1279.550239 1066.458446 
L 1292.899522 1061.936098 
L 1311.588517 1055.346472 
L 1340.956938 1044.697225 
L 1381.004785 1029.931544 
L 1410.373206 1018.882493 
L 1445.08134 1005.566337 
L 1503.818182 982.993275 
L 1541.196172 968.913481 
L 1605.272727 945.069681 
L 1639.980861 932.319376 
L 1661.339713 924.687901 
L 1677.358852 919.16513 
L 1693.37799 913.887593 
L 1706.727273 909.726414 
L 1720.076555 905.819318 
L 1730.755981 902.895369 
L 1741.435407 900.158435 
L 1754.784689 896.99358 
L 1768.133971 894.075097 
L 1792.162679 889.141538 
L 1808.181818 885.737294 
L 1818.861244 883.26222 
L 1829.54067 880.550849 
L 1840.220096 877.562178 
L 1850.899522 874.272942 
L 1861.578947 870.675276 
L 1872.258373 866.774228 
L 1882.937799 862.585605 
L 1893.617225 858.134228 
L 1904.296651 853.452494 
L 1917.645933 847.335965 
L 1933.665072 839.724831 
L 1976.382775 819.263225 
L 1989.732057 813.22735 
L 2000.411483 808.650473 
L 2011.090909 804.352809 
L 2019.100478 801.340834 
L 2027.110048 798.529181 
L 2035.119617 795.93223 
L 2043.129187 793.560768 
L 2051.138756 791.420817 
L 2059.148325 789.511913 
L 2067.157895 787.82451 
L 2075.167464 786.336199 
L 2085.84689 784.589275 
L 2109.875598 780.841278 
L 2117.885167 779.384394 
L 2125.894737 777.740654 
L 2133.904306 775.888874 
L 2141.913876 773.821208 
L 2149.923445 771.539136 
L 2157.933014 769.050677 
L 2165.942584 766.368493 
L 2176.62201 762.518851 
L 2187.301435 758.397325 
L 2197.980861 754.05182 
L 2211.330144 748.37998 
L 2230.019139 740.157863 
L 2278.076555 718.852661 
L 2296.76555 710.855417 
L 2315.454545 703.091968 
L 2336.813397 694.487834 
L 2358.172249 686.120904 
L 2384.870813 675.910061 
L 2416.909091 663.909852 
L 2451.617225 651.15531 
L 2480.985646 640.589988 
L 2513.023923 629.321589 
L 2555.741627 614.325276 
L 2574.430622 607.48995 
L 2590.449761 601.372184 
L 2603.799043 596.056302 
L 2617.148325 590.532404 
L 2633.167464 583.639397 
L 2649.186603 576.493074 
L 2667.875598 567.910602 
L 2699.913876 552.885833 
L 2729.282297 539.180027 
L 2747.971292 530.679591 
L 2763.990431 523.608637 
L 2780.009569 516.780575 
L 2796.028708 510.224956 
L 2809.37799 504.982588 
L 2822.727273 499.9452 
L 2836.076555 495.113438 
L 2849.425837 490.487891 
L 2862.77512 486.072828 
L 2876.124402 481.879575 
L 2889.473684 477.928503 
L 2902.822967 474.248696 
L 2913.502392 471.523337 
L 2924.181818 469.011235 
L 2934.861244 466.726033 
L 2945.54067 464.67253 
L 2956.220096 462.839711 
L 2969.569378 460.801308 
L 3001.607656 456.104911 
L 3012.287081 454.249404 
L 3022.966507 452.135115 
L 3033.645933 449.73901 
L 3044.325359 447.060555 
L 3055.004785 444.115435 
L 3065.684211 440.930888 
L 3079.033493 436.667874 
L 3092.382775 432.166595 
L 3113.741627 424.687196 
L 3140.440191 415.343747 
L 3156.45933 409.995585 
L 3169.808612 405.800807 
L 3180.488038 402.66231 
L 3191.167464 399.74588 
L 3201.84689 397.070381 
L 3212.526316 394.643643 
L 3223.205742 392.456923 
L 3236.555024 390.007895 
L 3273.933014 383.47283 
L 3284.61244 381.24193 
L 3292.62201 379.375765 
L 3300.631579 377.329787 
L 3308.641148 375.099562 
L 3316.650718 372.686919 
L 3327.330144 369.198725 
L 3338.009569 365.425714 
L 3348.688995 361.403829 
L 3362.038278 356.090851 
L 3378.057416 349.414212 
L 3404.755981 337.951371 
L 3428.784689 327.705622 
L 3447.473684 319.986735 
L 3463.492823 313.603214 
L 3479.511962 307.440509 
L 3498.200957 300.50019 
L 3519.559809 292.82014 
L 3548.92823 282.513163 
L 3596.985646 265.897907 
L 3623.684211 256.8706 
L 3645.043062 249.884787 
L 3663.732057 243.995364 
L 3685.090909 237.498275 
L 3735.818182 222.218182 
L 3735.818182 222.218182 
" clip-path="url(#p7fbf073867)" style="fill: none; stroke: #444444; stroke-width: 6; stroke-linecap: square"/>
   </g>
   <g id="line2d_24">
    <path d="M 692.181818 1210.581818 
L 694.851675 1209.97854 
L 697.521531 1209.199138 
L 700.191388 1208.776407 
L 708.200957 1207.058938 
L 713.54067 1206.163931 
L 716.210526 1205.467062 
L 718.880383 1205.260794 
L 724.220096 1204.285814 
L 726.889952 1203.216025 
L 729.559809 1203.511754 
L 737.569378 1202.283275 
L 740.239234 1200.662205 
L 742.909091 1200.190009 
L 745.578947 1201.256232 
L 748.248804 1199.942869 
L 750.91866 1200.597131 
L 753.588517 1199.061128 
L 756.258373 1196.883445 
L 758.92823 1196.294154 
L 761.598086 1196.611669 
L 764.267943 1196.025611 
L 766.937799 1194.586607 
L 769.607656 1194.910864 
L 772.277512 1193.513417 
L 774.947368 1194.150054 
L 777.617225 1192.558514 
L 780.287081 1193.224972 
L 785.626794 1192.375552 
L 788.296651 1191.505291 
L 793.636364 1190.664799 
L 796.30622 1188.202979 
L 798.976077 1188.886653 
L 801.645933 1186.933963 
L 804.315789 1187.886382 
L 806.985646 1186.295439 
L 809.655502 1185.230523 
L 812.325359 1186.508328 
L 814.995215 1184.117973 
L 817.665072 1185.676541 
L 820.334928 1183.018519 
L 823.004785 1182.742879 
L 825.674641 1181.442624 
L 828.344498 1180.829079 
L 831.014354 1180.90868 
L 833.684211 1180.323125 
L 836.354067 1179.093696 
L 839.023923 1178.550802 
L 841.69378 1178.604834 
L 844.363636 1177.774076 
L 863.052632 1174.051132 
L 865.722488 1173.66396 
L 868.392344 1173.465809 
L 873.732057 1172.449247 
L 876.401914 1171.756589 
L 879.07177 1171.324478 
L 881.741627 1170.761847 
L 884.411483 1169.792358 
L 887.08134 1169.781458 
L 889.751196 1169.137302 
L 892.421053 1168.231739 
L 895.090909 1167.734907 
L 897.760766 1167.625353 
L 903.100478 1166.522584 
L 905.770335 1165.539603 
L 908.440191 1165.267844 
L 911.110048 1164.809399 
L 913.779904 1164.123728 
L 916.449761 1163.634883 
L 919.119617 1162.730635 
L 921.789474 1162.432264 
L 924.45933 1161.614958 
L 929.799043 1160.414352 
L 932.4689 1160.035632 
L 940.478469 1158.155221 
L 943.148325 1157.28023 
L 945.818182 1156.888379 
L 951.157895 1155.427698 
L 953.827751 1154.929001 
L 961.837321 1152.840023 
L 964.507177 1152.466181 
L 969.84689 1151.189461 
L 972.516746 1150.349029 
L 980.526316 1148.594731 
L 985.866029 1147.468191 
L 988.535885 1147.123309 
L 991.205742 1146.301872 
L 993.875598 1145.732822 
L 996.545455 1145.379654 
L 999.215311 1144.650684 
L 1001.885167 1144.075454 
L 1004.555024 1143.765256 
L 1007.22488 1143.244843 
L 1009.894737 1142.491588 
L 1012.564593 1142.253444 
L 1015.23445 1141.477902 
L 1020.574163 1140.237616 
L 1023.244019 1139.877614 
L 1028.583732 1139.002145 
L 1031.253589 1138.13653 
L 1033.923445 1137.977892 
L 1036.593301 1137.650135 
L 1039.263158 1136.839453 
L 1041.933014 1136.335044 
L 1044.602871 1135.609395 
L 1047.272727 1135.345787 
L 1049.942584 1134.72815 
L 1052.61244 1134.686368 
L 1055.282297 1134.185828 
L 1057.952153 1133.187331 
L 1060.62201 1133.151529 
L 1063.291866 1132.412074 
L 1065.961722 1132.081867 
L 1068.631579 1131.209455 
L 1076.641148 1129.619997 
L 1079.311005 1128.931503 
L 1081.980861 1128.799211 
L 1084.650718 1128.241627 
L 1087.320574 1127.454378 
L 1100.669856 1124.574911 
L 1103.339713 1124.386741 
L 1108.679426 1123.212449 
L 1111.349282 1122.452925 
L 1114.019139 1122.168936 
L 1124.698565 1120.25684 
L 1127.368421 1119.523375 
L 1130.038278 1118.911834 
L 1135.37799 1118.061564 
L 1138.047847 1117.666279 
L 1140.717703 1117.418374 
L 1148.727273 1116.293396 
L 1154.066986 1115.848124 
L 1162.076555 1115.194753 
L 1170.086124 1114.694363 
L 1183.435407 1114.586913 
L 1191.444976 1114.720034 
L 1196.784689 1114.54172 
L 1207.464115 1114.263945 
L 1212.803828 1114.13289 
L 1215.473684 1114.203175 
L 1223.483254 1113.09942 
L 1226.15311 1113.35413 
L 1228.822967 1113.177466 
L 1231.492823 1112.28892 
L 1236.832536 1111.932056 
L 1239.502392 1112.497145 
L 1242.172249 1111.575162 
L 1244.842105 1111.400951 
L 1247.511962 1109.969487 
L 1250.181818 1110.485143 
L 1252.851675 1109.670501 
L 1255.521531 1109.86031 
L 1258.191388 1109.847654 
L 1260.861244 1109.504627 
L 1263.5311 1107.206073 
L 1266.200957 1106.562797 
L 1268.870813 1108.378911 
L 1271.54067 1107.656527 
L 1274.210526 1104.556576 
L 1276.880383 1106.808865 
L 1279.550239 1106.677826 
L 1282.220096 1102.333846 
L 1287.559809 1100.778474 
L 1290.229665 1099.505076 
L 1298.239234 1097.138921 
L 1300.909091 1095.833972 
L 1306.248804 1093.988503 
L 1308.91866 1093.419199 
L 1311.588517 1092.546554 
L 1314.258373 1091.198218 
L 1316.92823 1090.262268 
L 1319.598086 1089.77912 
L 1322.267943 1088.383458 
L 1324.937799 1087.353831 
L 1327.607656 1086.692007 
L 1330.277512 1085.455439 
L 1332.947368 1084.714792 
L 1335.617225 1083.555444 
L 1338.287081 1082.833216 
L 1340.956938 1081.628061 
L 1343.626794 1081.15163 
L 1346.296651 1079.784892 
L 1348.966507 1079.298639 
L 1351.636364 1077.923782 
L 1354.30622 1077.2118 
L 1356.976077 1076.08195 
L 1359.645933 1075.168931 
L 1362.315789 1074.590493 
L 1364.985646 1073.631674 
L 1367.655502 1072.456006 
L 1375.665072 1069.614726 
L 1383.674641 1066.876283 
L 1391.684211 1064.039816 
L 1394.354067 1063.417591 
L 1399.69378 1061.686841 
L 1402.363636 1060.248233 
L 1405.033493 1059.695343 
L 1413.043062 1057.227796 
L 1415.712919 1056.016128 
L 1418.382775 1055.424435 
L 1421.052632 1054.528686 
L 1423.722488 1053.279671 
L 1426.392344 1052.369312 
L 1429.062201 1051.755991 
L 1431.732057 1050.55031 
L 1434.401914 1049.641554 
L 1437.07177 1049.194396 
L 1442.411483 1047.364456 
L 1445.08134 1045.645638 
L 1447.751196 1044.776371 
L 1453.090909 1042.7971 
L 1455.760766 1042.091267 
L 1458.430622 1040.909089 
L 1461.100478 1040.168822 
L 1463.770335 1039.024728 
L 1466.440191 1038.250638 
L 1471.779904 1036.339905 
L 1477.119617 1034.256758 
L 1479.789474 1033.366985 
L 1485.129187 1031.243583 
L 1487.799043 1030.053886 
L 1493.138756 1028.373474 
L 1495.808612 1027.156148 
L 1498.478469 1026.479917 
L 1501.148325 1025.082922 
L 1503.818182 1024.091417 
L 1506.488038 1023.519488 
L 1514.497608 1020.552484 
L 1517.167464 1019.201288 
L 1522.507177 1017.142854 
L 1527.84689 1015.217283 
L 1530.516746 1014.469388 
L 1533.186603 1013.163114 
L 1535.856459 1012.445754 
L 1538.526316 1011.296216 
L 1541.196172 1010.390926 
L 1543.866029 1009.35889 
L 1546.535885 1008.139615 
L 1549.205742 1008.080611 
L 1551.875598 1006.31092 
L 1554.545455 1005.8918 
L 1557.215311 1004.845932 
L 1559.885167 1003.424898 
L 1562.555024 1002.467261 
L 1565.22488 1002.110041 
L 1567.894737 1001.106627 
L 1570.564593 999.56665 
L 1573.23445 998.604583 
L 1575.904306 998.408442 
L 1578.574163 997.422918 
L 1581.244019 995.676593 
L 1586.583732 993.773263 
L 1589.253589 993.221926 
L 1591.923445 992.19671 
L 1594.593301 990.932437 
L 1599.933014 989.429154 
L 1602.602871 989.028502 
L 1605.272727 988.118444 
L 1607.942584 986.577969 
L 1610.61244 986.16549 
L 1613.282297 984.686055 
L 1615.952153 984.180471 
L 1618.62201 982.783047 
L 1621.291866 981.892222 
L 1623.961722 981.61303 
L 1626.631579 980.203499 
L 1629.301435 979.54147 
L 1637.311005 976.528088 
L 1639.980861 975.726814 
L 1645.320574 973.593887 
L 1650.660287 971.728626 
L 1653.330144 971.112445 
L 1658.669856 969.091818 
L 1669.349282 965.367581 
L 1680.028708 961.630291 
L 1682.698565 961.039607 
L 1685.368421 960.015018 
L 1690.708134 958.406758 
L 1696.047847 956.658782 
L 1698.717703 955.921307 
L 1704.057416 954.142946 
L 1706.727273 953.500129 
L 1712.066986 951.72457 
L 1717.406699 950.645504 
L 1722.746411 949.180433 
L 1733.425837 946.345513 
L 1736.095694 945.782535 
L 1738.76555 945.088943 
L 1746.77512 943.341224 
L 1754.784689 941.677647 
L 1760.124402 940.955914 
L 1762.794258 940.192153 
L 1765.464115 939.74145 
L 1768.133971 939.521051 
L 1770.803828 938.839631 
L 1773.473684 938.529496 
L 1776.143541 937.965589 
L 1781.483254 937.523244 
L 1784.15311 936.725782 
L 1786.822967 936.457855 
L 1789.492823 935.976198 
L 1792.162679 936.138062 
L 1794.832536 935.861644 
L 1797.502392 935.017764 
L 1800.172249 934.605595 
L 1802.842105 934.03087 
L 1805.511962 934.224809 
L 1808.181818 933.689406 
L 1810.851675 933.88462 
L 1813.521531 933.72287 
L 1816.191388 932.936784 
L 1821.5311 932.524622 
L 1824.200957 932.644524 
L 1826.870813 931.899843 
L 1829.54067 932.040822 
L 1832.210526 931.582322 
L 1834.880383 931.321838 
L 1837.550239 931.441688 
L 1840.220096 930.584203 
L 1842.889952 930.594095 
L 1845.559809 930.372153 
L 1848.229665 929.530388 
L 1850.899522 929.89762 
L 1853.569378 929.45677 
L 1861.578947 928.969707 
L 1864.248804 928.535982 
L 1866.91866 927.300615 
L 1869.588517 927.483017 
L 1872.258373 926.347478 
L 1874.92823 925.660236 
L 1877.598086 925.543042 
L 1880.267943 926.284142 
L 1882.937799 926.293693 
L 1885.607656 925.385725 
L 1888.277512 922.190812 
L 1893.617225 920.784809 
L 1896.287081 923.976546 
L 1898.956938 919.991689 
L 1901.626794 919.278484 
L 1904.296651 921.609775 
L 1912.30622 918.771537 
L 1914.976077 918.254086 
L 1917.645933 916.849465 
L 1920.315789 916.305236 
L 1922.985646 914.906533 
L 1925.655502 914.336652 
L 1928.325359 913.345608 
L 1930.995215 910.10072 
L 1933.665072 908.937099 
L 1936.334928 910.349145 
L 1939.004785 909.343734 
L 1944.344498 906.593955 
L 1947.014354 905.498391 
L 1949.684211 904.256565 
L 1952.354067 902.857778 
L 1955.023923 901.775944 
L 1963.033493 898.018154 
L 1971.043062 894.358371 
L 1973.712919 893.203309 
L 1979.052632 890.722683 
L 1984.392344 888.356337 
L 1989.732057 886.147366 
L 1992.401914 884.537376 
L 1997.741627 882.237448 
L 2000.411483 881.40423 
L 2003.08134 880.324537 
L 2005.751196 878.927473 
L 2011.090909 876.840001 
L 2013.760766 876.696749 
L 2016.430622 874.846635 
L 2019.100478 874.241769 
L 2021.770335 873.825618 
L 2024.440191 872.032743 
L 2029.779904 870.281813 
L 2032.449761 869.788221 
L 2035.119617 868.658091 
L 2040.45933 867.290989 
L 2045.799043 865.921813 
L 2048.4689 865.004647 
L 2051.138756 864.674279 
L 2056.478469 863.546575 
L 2059.148325 862.871823 
L 2061.818182 862.421105 
L 2064.488038 862.10811 
L 2067.157895 861.498494 
L 2069.827751 861.107679 
L 2072.497608 860.376013 
L 2075.167464 860.045331 
L 2077.837321 859.560963 
L 2080.507177 860.442739 
L 2083.177033 860.205768 
L 2085.84689 859.08674 
L 2088.516746 858.938065 
L 2091.186603 858.664783 
L 2093.856459 858.596233 
L 2096.526316 859.785324 
L 2099.196172 858.711261 
L 2101.866029 858.239277 
L 2104.535885 858.257133 
L 2107.205742 858.078983 
L 2109.875598 858.345285 
L 2112.545455 858.361602 
L 2115.215311 858.182142 
L 2117.885167 857.817712 
L 2120.555024 858.081994 
L 2123.22488 857.992327 
L 2128.564593 856.345297 
L 2131.23445 856.443158 
L 2133.904306 856.389428 
L 2136.574163 855.832267 
L 2139.244019 856.519903 
L 2141.913876 855.385754 
L 2144.583732 854.787519 
L 2147.253589 855.66098 
L 2149.923445 853.970937 
L 2152.593301 854.163921 
L 2155.263158 853.487987 
L 2157.933014 853.47788 
L 2160.602871 852.260786 
L 2163.272727 852.132804 
L 2165.942584 853.394302 
L 2168.61244 853.721278 
L 2171.282297 853.27739 
L 2173.952153 851.138009 
L 2176.62201 849.950671 
L 2179.291866 848.105775 
L 2181.961722 847.33096 
L 2184.631579 848.161794 
L 2189.971292 846.962812 
L 2192.641148 844.313759 
L 2200.650718 841.359172 
L 2205.990431 839.002452 
L 2208.660287 838.385585 
L 2211.330144 836.816299 
L 2216.669856 834.824664 
L 2222.009569 832.485014 
L 2224.679426 831.20373 
L 2232.688995 828.05262 
L 2235.358852 826.981139 
L 2238.028708 825.623148 
L 2246.038278 822.228105 
L 2251.37799 820.129606 
L 2256.717703 817.747789 
L 2267.397129 813.108651 
L 2278.076555 808.651139 
L 2280.746411 807.466186 
L 2286.086124 805.250383 
L 2294.095694 801.987803 
L 2299.435407 799.752826 
L 2304.77512 797.599062 
L 2307.444976 796.694325 
L 2310.114833 795.49775 
L 2326.133971 789.128473 
L 2328.803828 788.456037 
L 2331.473684 787.298157 
L 2342.15311 783.270397 
L 2344.822967 782.116542 
L 2352.832536 779.396346 
L 2355.502392 778.20156 
L 2366.181818 774.220314 
L 2368.851675 773.419969 
L 2371.521531 772.269445 
L 2376.861244 770.444219 
L 2382.200957 768.336761 
L 2384.870813 767.429475 
L 2387.54067 766.326362 
L 2390.210526 765.510336 
L 2395.550239 763.408557 
L 2400.889952 761.434918 
L 2406.229665 759.672237 
L 2411.569378 757.602357 
L 2414.239234 756.551256 
L 2416.909091 755.697687 
L 2422.248804 753.663149 
L 2427.588517 751.659082 
L 2435.598086 748.856486 
L 2443.607656 745.934384 
L 2446.277512 745.18401 
L 2448.947368 744.010345 
L 2456.956938 741.263626 
L 2467.636364 737.494189 
L 2470.30622 736.504405 
L 2472.976077 735.728929 
L 2486.325359 731.025678 
L 2491.665072 729.417421 
L 2494.334928 728.375081 
L 2497.004785 727.53692 
L 2505.014354 724.699243 
L 2507.684211 724.041224 
L 2513.023923 722.125884 
L 2515.69378 721.170769 
L 2518.363636 720.364385 
L 2523.703349 718.529501 
L 2526.373206 717.72362 
L 2529.043062 716.801644 
L 2531.712919 716.105117 
L 2534.382775 715.039137 
L 2547.732057 710.6426 
L 2550.401914 709.550225 
L 2553.07177 708.746266 
L 2571.760766 702.197064 
L 2574.430622 701.139205 
L 2577.100478 700.441314 
L 2579.770335 699.256389 
L 2582.440191 698.467369 
L 2585.110048 697.51832 
L 2587.779904 696.325152 
L 2590.449761 695.622119 
L 2601.129187 691.357634 
L 2603.799043 690.497338 
L 2606.4689 689.487929 
L 2609.138756 688.230085 
L 2614.478469 686.118245 
L 2617.148325 685.230017 
L 2622.488038 682.979401 
L 2627.827751 680.912974 
L 2638.507177 676.160053 
L 2641.177033 675.087653 
L 2643.84689 673.786041 
L 2646.516746 672.781302 
L 2657.196172 667.92966 
L 2662.535885 665.383468 
L 2670.545455 661.761514 
L 2673.215311 660.400886 
L 2675.885167 659.557337 
L 2681.22488 657.236899 
L 2689.23445 653.583416 
L 2691.904306 652.075732 
L 2694.574163 650.849903 
L 2697.244019 649.83226 
L 2699.913876 648.366714 
L 2702.583732 647.116424 
L 2705.253589 645.713347 
L 2710.593301 643.485443 
L 2713.263158 641.944814 
L 2715.933014 641.027101 
L 2718.602871 639.822894 
L 2721.272727 638.310845 
L 2731.952153 633.386086 
L 2734.62201 632.314204 
L 2742.631579 628.496172 
L 2745.301435 627.601707 
L 2750.641148 625.42568 
L 2753.311005 624.266409 
L 2755.980861 623.272419 
L 2758.650718 622.068968 
L 2761.320574 620.693711 
L 2769.330144 617.261043 
L 2772 616.464485 
L 2774.669856 615.369889 
L 2777.339713 614.443138 
L 2780.009569 613.388112 
L 2782.679426 612.152047 
L 2785.349282 611.247324 
L 2790.688995 608.976029 
L 2798.698565 606.112506 
L 2801.368421 605.422875 
L 2804.038278 604.005536 
L 2806.708134 603.131774 
L 2809.37799 602.096039 
L 2812.047847 601.271233 
L 2814.717703 600.200326 
L 2817.38756 599.374092 
L 2822.727273 597.350968 
L 2828.066986 595.589889 
L 2830.736842 595.095869 
L 2833.406699 593.818063 
L 2836.076555 592.976375 
L 2838.746411 592.338004 
L 2841.416268 591.317714 
L 2844.086124 590.614168 
L 2846.755981 590.107761 
L 2849.425837 588.817667 
L 2852.095694 588.480011 
L 2854.76555 587.382812 
L 2860.105263 585.795972 
L 2862.77512 584.790122 
L 2865.444976 584.41529 
L 2873.454545 581.954088 
L 2876.124402 581.451396 
L 2878.794258 580.71698 
L 2881.464115 579.593416 
L 2884.133971 579.340206 
L 2886.803828 578.283389 
L 2889.473684 578.03579 
L 2892.143541 577.156482 
L 2897.483254 576.093623 
L 2900.15311 575.348056 
L 2913.502392 572.335461 
L 2916.172249 571.978948 
L 2932.191388 568.774972 
L 2934.861244 568.684992 
L 2937.5311 567.869913 
L 2940.200957 567.882759 
L 2942.870813 567.404669 
L 2945.54067 567.171188 
L 2950.880383 566.087495 
L 2953.550239 566.261248 
L 2956.220096 565.4525 
L 2958.889952 565.326698 
L 2961.559809 564.858421 
L 2964.229665 564.851064 
L 2969.569378 564.432264 
L 2972.239234 564.312095 
L 2974.909091 563.942669 
L 2977.578947 563.775277 
L 2985.588517 563.677891 
L 2988.258373 563.367451 
L 2990.92823 563.282273 
L 2993.598086 563.322092 
L 2996.267943 563.156499 
L 2998.937799 563.301777 
L 3001.607656 563.059146 
L 3004.277512 563.113792 
L 3006.947368 562.832517 
L 3009.617225 562.743666 
L 3012.287081 562.923659 
L 3014.956938 562.692199 
L 3017.626794 562.836091 
L 3022.966507 562.125238 
L 3028.30622 561.532429 
L 3030.976077 561.568887 
L 3033.645933 560.986317 
L 3036.315789 560.896281 
L 3044.325359 559.544471 
L 3046.995215 559.46506 
L 3049.665072 558.562014 
L 3052.334928 558.365191 
L 3055.004785 557.92726 
L 3057.674641 556.616877 
L 3060.344498 555.894327 
L 3063.014354 555.305391 
L 3065.684211 554.42834 
L 3068.354067 553.924068 
L 3076.363636 551.115797 
L 3079.033493 550.434572 
L 3081.703349 549.547566 
L 3084.373206 548.542934 
L 3087.043062 547.760135 
L 3092.382775 545.942731 
L 3097.722488 544.118646 
L 3103.062201 542.18871 
L 3113.741627 538.440811 
L 3140.440191 529.194839 
L 3148.449761 526.552822 
L 3151.119617 525.558891 
L 3159.129187 523.060551 
L 3169.808612 519.790219 
L 3183.157895 516.035776 
L 3185.827751 515.374228 
L 3188.497608 514.564069 
L 3193.837321 513.366106 
L 3196.507177 512.66853 
L 3199.177033 512.15383 
L 3201.84689 511.351008 
L 3204.516746 510.702026 
L 3207.186603 510.291995 
L 3212.526316 509.170508 
L 3215.196172 508.682935 
L 3217.866029 508.021553 
L 3220.535885 507.546007 
L 3223.205742 507.419465 
L 3225.875598 506.970279 
L 3228.545455 506.361222 
L 3233.885167 505.574351 
L 3236.555024 505.56286 
L 3239.22488 505.268781 
L 3241.894737 504.576005 
L 3244.564593 504.96191 
L 3247.23445 504.708605 
L 3249.904306 503.953371 
L 3252.574163 504.206767 
L 3255.244019 503.821503 
L 3257.913876 503.560576 
L 3260.583732 503.54657 
L 3263.253589 503.084554 
L 3265.923445 502.832338 
L 3268.593301 503.010112 
L 3271.263158 502.212678 
L 3273.933014 502.529722 
L 3276.602871 502.307393 
L 3279.272727 501.697115 
L 3281.942584 501.915407 
L 3284.61244 501.431374 
L 3289.952153 500.901456 
L 3292.62201 500.391265 
L 3295.291866 500.26746 
L 3297.961722 499.936055 
L 3300.631579 499.350841 
L 3303.301435 499.839391 
L 3305.971292 498.948911 
L 3308.641148 498.629869 
L 3311.311005 497.928864 
L 3313.980861 497.475279 
L 3316.650718 496.436314 
L 3319.320574 495.82445 
L 3321.990431 496.379334 
L 3324.660287 494.767811 
L 3327.330144 495.505258 
L 3330 493.539028 
L 3332.669856 494.648314 
L 3335.339713 492.162811 
L 3338.009569 493.173185 
L 3340.679426 492.405311 
L 3343.349282 491.074352 
L 3346.019139 490.838263 
L 3351.358852 489.239532 
L 3354.028708 487.374837 
L 3356.698565 486.434489 
L 3359.368421 485.368287 
L 3362.038278 485.981975 
L 3364.708134 484.947589 
L 3367.37799 484.128835 
L 3370.047847 481.317776 
L 3372.717703 480.298318 
L 3375.38756 479.42196 
L 3380.727273 477.221969 
L 3383.397129 475.968244 
L 3386.066986 475.28183 
L 3388.736842 473.734206 
L 3391.406699 472.828641 
L 3394.076555 472.052835 
L 3396.746411 470.616853 
L 3399.416268 469.97787 
L 3402.086124 468.981569 
L 3404.755981 467.6989 
L 3431.454545 456.810355 
L 3434.124402 455.908565 
L 3436.794258 454.596505 
L 3442.133971 452.39886 
L 3444.803828 451.500378 
L 3447.473684 450.259553 
L 3450.143541 449.525799 
L 3452.813397 448.378537 
L 3455.483254 447.452251 
L 3458.15311 445.969713 
L 3460.822967 445.8821 
L 3463.492823 444.264972 
L 3466.162679 443.765572 
L 3468.832536 442.237475 
L 3471.502392 441.672097 
L 3474.172249 440.234524 
L 3476.842105 439.609556 
L 3479.511962 438.271656 
L 3482.181818 437.540356 
L 3484.851675 436.326124 
L 3490.191388 434.51962 
L 3492.861244 433.521878 
L 3495.5311 433.008608 
L 3498.200957 431.621481 
L 3500.870813 431.221682 
L 3503.54067 430.244015 
L 3506.210526 428.981321 
L 3508.880383 427.846295 
L 3514.220096 426.012234 
L 3516.889952 425.625243 
L 3522.229665 423.735929 
L 3524.899522 422.371409 
L 3530.239234 420.875499 
L 3532.909091 419.676 
L 3535.578947 418.92727 
L 3538.248804 417.80325 
L 3540.91866 417.186133 
L 3546.258373 415.426431 
L 3548.92823 414.243197 
L 3551.598086 413.249713 
L 3554.267943 412.465516 
L 3556.937799 411.486702 
L 3559.607656 410.688116 
L 3562.277512 409.665682 
L 3564.947368 408.90866 
L 3567.617225 407.882224 
L 3570.287081 407.242885 
L 3580.966507 403.595012 
L 3583.636364 402.705746 
L 3586.30622 401.561799 
L 3588.976077 400.646984 
L 3591.645933 399.913379 
L 3596.985646 397.817698 
L 3599.655502 397.38205 
L 3602.325359 396.409178 
L 3604.995215 395.087779 
L 3607.665072 394.667671 
L 3613.004785 393.00906 
L 3615.674641 391.856469 
L 3623.684211 389.114311 
L 3626.354067 388.363243 
L 3629.023923 387.805159 
L 3631.69378 387.00811 
L 3634.363636 386.094007 
L 3637.033493 384.997206 
L 3639.703349 384.529471 
L 3642.373206 383.711672 
L 3645.043062 382.726277 
L 3650.382775 381.079563 
L 3653.052632 380.474449 
L 3655.722488 379.126659 
L 3658.392344 378.671813 
L 3661.062201 378.079235 
L 3666.401914 376.124445 
L 3669.07177 375.640744 
L 3671.741627 374.439118 
L 3674.411483 373.590797 
L 3677.08134 372.999074 
L 3679.751196 372.275586 
L 3682.421053 371.874357 
L 3685.090909 370.663595 
L 3687.760766 370.448886 
L 3690.430622 369.312804 
L 3695.770335 368.033002 
L 3701.110048 367.056946 
L 3703.779904 366.23058 
L 3706.449761 365.763258 
L 3711.789474 364.478983 
L 3714.45933 364.004239 
L 3717.129187 363.297628 
L 3725.138756 361.582416 
L 3727.808612 361.110026 
L 3730.478469 360.490736 
L 3733.148325 360.204459 
L 3735.818182 359.712127 
L 3735.818182 359.712127 
" clip-path="url(#p7fbf073867)" style="fill: none; stroke: #00aa00; stroke-width: 6; stroke-linecap: square"/>
   </g>
  </g>
 </g>
 <defs>
  <clipPath id="p7fbf073867">
   <rect x="540" y="172.8" width="3348" height="1087.2"/>
  </clipPath>
 </defs>
</svg>
