<svg class="main-svg" xmlns="http://www.w3.org/2000/svg" xmlns:xlink="http://www.w3.org/1999/xlink" width="3500" height="1000" style="" viewBox="0 0 3500 1000"><rect x="0" y="0" width="3500" height="1000" style="fill: rgb(255, 255, 255); fill-opacity: 1;"/><defs id="defs-019ba2"><g class="clips"><clipPath id="clip019ba2xyplot" class="plotclip"><rect width="2582" height="796"/></clipPath><clipPath class="axesclip" id="clip019ba2x"><rect x="160" y="0" width="2582" height="1000"/></clipPath><clipPath class="axesclip" id="clip019ba2y"><rect x="0" y="100" width="3500" height="796"/></clipPath><clipPath class="axesclip" id="clip019ba2xy"><rect x="160" y="100" width="2582" height="796"/></clipPath></g><g class="gradients"/><g class="patterns"/></defs><g class="bglayer"><rect class="bg" x="160" y="100" width="2582" height="796" style="fill: rgb(229, 236, 246); fill-opacity: 1; stroke-width: 0;"/></g><g class="layer-below"><g class="imagelayer"/><g class="shapelayer"/></g><g class="cartesianlayer"><g class="subplot xy"><g class="layer-subplot"><g class="shapelayer"/><g class="imagelayer"/></g><g class="gridlayer"><g class="x"><path class="xgrid crisp" transform="translate(642.62,0)" d="M0,100v796" style="stroke: rgb(255, 255, 255); stroke-opacity: 1; stroke-width: 1px;"/><path class="xgrid crisp" transform="translate(1125.23,0)" d="M0,100v796" style="stroke: rgb(255, 255, 255); stroke-opacity: 1; stroke-width: 1px;"/><path class="xgrid crisp" transform="translate(1607.85,0)" d="M0,100v796" style="stroke: rgb(255, 255, 255); stroke-opacity: 1; stroke-width: 1px;"/><path class="xgrid crisp" transform="translate(2090.4700000000003,0)" d="M0,100v796" style="stroke: rgb(255, 255, 255); stroke-opacity: 1; stroke-width: 1px;"/><path class="xgrid crisp" transform="translate(2573.08,0)" d="M0,100v796" style="stroke: rgb(255, 255, 255); stroke-opacity: 1; stroke-width: 1px;"/></g><g class="y"><path class="ygrid crisp" transform="translate(0,829.03)" d="M160,0h2582" style="stroke: rgb(255, 255, 255); stroke-opacity: 1; stroke-width: 1px;"/><path class="ygrid crisp" transform="translate(0,747.54)" d="M160,0h2582" style="stroke: rgb(255, 255, 255); stroke-opacity: 1; stroke-width: 1px;"/><path class="ygrid crisp" transform="translate(0,666.05)" d="M160,0h2582" style="stroke: rgb(255, 255, 255); stroke-opacity: 1; stroke-width: 1px;"/><path class="ygrid crisp" transform="translate(0,584.56)" d="M160,0h2582" style="stroke: rgb(255, 255, 255); stroke-opacity: 1; stroke-width: 1px;"/><path class="ygrid crisp" transform="translate(0,421.58)" d="M160,0h2582" style="stroke: rgb(255, 255, 255); stroke-opacity: 1; stroke-width: 1px;"/><path class="ygrid crisp" transform="translate(0,340.08000000000004)" d="M160,0h2582" style="stroke: rgb(255, 255, 255); stroke-opacity: 1; stroke-width: 1px;"/><path class="ygrid crisp" transform="translate(0,258.59000000000003)" d="M160,0h2582" style="stroke: rgb(255, 255, 255); stroke-opacity: 1; stroke-width: 1px;"/><path class="ygrid crisp" transform="translate(0,177.1)" d="M160,0h2582" style="stroke: rgb(255, 255, 255); stroke-opacity: 1; stroke-width: 1px;"/></g></g><g class="zerolinelayer"><path class="xzl zl crisp" transform="translate(160,0)" d="M0,100v796" style="stroke: rgb(255, 255, 255); stroke-opacity: 1; stroke-width: 2px;"/><path class="yzl zl crisp" transform="translate(0,503.07)" d="M160,0h2582" style="stroke: rgb(255, 255, 255); stroke-opacity: 1; stroke-width: 2px;"/></g><path class="xlines-below"/><path class="ylines-below"/><g class="overlines-below"/><g class="xaxislayer-below"/><g class="yaxislayer-below"/><g class="overaxes-below"/><g class="plot" transform="translate(160,100)" clip-path="url(#clip019ba2xyplot)"><g class="scatterlayer mlayer"><g class="trace scatter tracef04a0e" style="stroke-miterlimit: 2; opacity: 1;"><g class="fills"/><g class="errorbars"/><g class="lines"><path class="js-line" d="M0,135.05L4.83,135.45L7.24,137.63L9.65,142.59L12.07,142.51L14.48,141.29L16.89,142.57L19.3,147.13L21.72,154.22L24.13,161.91L26.54,157.92L28.96,170.62L31.37,176.43L41.02,204.89L43.44,208.22L55.5,244.23L57.91,247.55L69.98,275.83L72.39,278.27L84.46,294.09L86.87,295.5L96.52,299.11L98.94,298.11L101.35,298.16L103.76,296.85L108.59,293.65L111,291.28L113.41,290.23L115.83,287.09L127.89,269.94L130.31,265.25L135.13,255.87L137.55,252.98L156.85,215.88L159.26,212.13L168.92,199.71L171.33,197.2L176.16,193.41L178.57,192.25L183.39,191.04L185.81,191.07L190.63,192.68L193.05,193.57L197.87,195.89L200.29,198.69L207.53,211.78L209.94,216.46L214.76,227.14L217.18,235.1L219.59,242.59L222,246.09L231.66,275.93L234.07,280.94L243.72,315.34L246.13,323.45L270.27,397.47L272.68,401.49L275.09,406.31L277.5,413.56L282.33,425.58L284.74,429.94L325.77,529.11L328.18,536.24L335.42,556.08L337.83,563.73L347.48,592.61L349.9,599.45L361.96,635.24L364.38,641.62L374.03,665.81L376.44,671.66L390.92,697.84L393.33,701.21L398.16,705.33L400.57,706.5L405.4,710.41L407.81,710.88L415.05,712.06L417.46,710.77L424.7,707.28L427.12,705.5L436.77,694.54L439.18,690.79L446.42,680.48L448.83,676.18L456.07,661.96L458.49,656.93L465.73,640.37L468.14,634.12L487.44,588.03L489.86,584.26L499.51,560.3L501.92,556.41L511.57,534.1L513.99,530.46L523.64,509.71L526.05,506.74L535.7,487.31L538.12,484.76L550.18,462.38L552.6,461.46L562.25,443.49L564.66,438.4L567.07,437.35L569.49,432.07L576.73,416.34L579.14,413.16L583.97,403.74L586.38,397.77L591.21,385.89L593.62,383.75L598.44,368.48L600.86,359.48L608.1,334.88L610.51,324.17L615.34,305.34L617.75,293.21L629.81,226.94L632.23,208.74L644.29,140.22L646.71,129.51L651.53,102.48L653.95,94.23L658.77,79.94L661.19,69.74L668.42,51.61L670.84,48.31L673.25,46.5L675.66,43.01L680.49,44.66L682.9,44.1L687.73,50.08L690.14,53.61L692.56,55.66L694.97,63.35L699.79,77.81L702.21,84.16L704.62,91.83L707.03,104.2L711.86,118.29L714.27,128.66L716.69,136.07L719.1,147.7L723.93,167.04L726.34,180.07L731.16,199.53L733.58,208.84L740.82,235.4L743.23,242.71L752.88,269.08L755.3,273.02L760.12,280.11L762.53,283.97L769.77,294.29L772.19,296.07L777.01,300.69L779.43,302.29L793.9,308.55L796.32,308.71L810.8,308.91L813.21,308.04L818.04,306.75L820.45,307.07L827.69,304.65L830.1,303.2L834.93,301.08L837.34,301.23L846.99,296.24L849.41,294.45L856.64,293.1L859.06,292.16L866.3,288.05L868.71,288.15L875.95,287.16L878.36,286.56L883.19,284.91L885.6,286.23L888.01,289.07L890.43,286.7L892.84,284.51L895.25,284.82L897.67,288.37L900.08,284.9L904.91,289.81L907.32,296.76L909.73,293.73L912.15,293.74L919.39,299.47L921.8,298.22L924.21,301.94L926.62,303.6L936.28,314.18L938.69,315.91L941.1,319.98L943.52,321.02L948.34,326.8L950.76,330.76L955.58,337.02L957.99,339.15L960.41,344.89L962.82,345.09L967.65,351.48L970.06,355.82L974.89,363.07L977.3,365.47L979.71,372.63L982.13,371.23L994.19,391.68L996.6,397.45L999.02,398.2L1001.43,402.1L1013.5,425.28L1015.91,426.43L1023.15,441.9L1025.56,448.43L1027.97,454.08L1030.39,457.17L1037.63,476.74L1040.04,483.03L1044.87,494.87L1047.28,502.09L1052.1,516.6L1054.52,522.3L1059.34,536.3L1061.76,545.26L1081.06,602.77L1083.47,609.45L1093.13,630.49L1095.54,635.07L1105.19,647.2L1107.61,648.75L1112.43,651.26L1114.84,652.47L1117.26,652.13L1119.67,650.5L1122.08,650.23L1124.5,648.61L1129.32,643.7L1131.74,641.14L1134.15,637.51L1136.56,631.36L1151.04,593.34L1153.45,583.91L1158.28,567.5L1160.69,555.55L1170.35,505.42L1172.76,495.39L1192.06,404.69L1194.48,390.61L1199.3,369.75L1201.72,358.66L1206.54,339.43L1208.96,329.51L1218.61,295.97L1221.02,286.97L1230.67,257.14L1233.09,251.02L1240.33,231.6L1242.74,225.13L1252.39,203.6L1254.8,199.3L1264.46,182.94L1266.87,179.26L1278.93,166.51L1281.35,164.49L1291,159.96L1293.41,159.23L1300.65,158.55L1303.07,159.26L1312.72,161.55L1315.13,162.63L1324.78,168.23L1327.2,169.97L1348.91,182.75L1351.33,183.86L1356.15,185.44L1358.57,186.25L1365.81,187.32L1368.22,187.17L1373.04,187.01L1375.46,186.78L1387.52,181.79L1389.94,180.51L1397.18,175.94L1399.59,173.83L1406.83,168.72L1409.24,166.91L1421.31,158.42L1423.72,157.47L1433.37,153.65L1435.79,153.57L1443.02,153.62L1445.44,154.31L1450.26,156.56L1452.68,158.4L1455.09,159.26L1457.5,161.74L1469.57,177.56L1471.98,182.42L1479.22,197.81L1481.63,205.06L1488.87,225.6L1491.29,233.21L1503.35,279.86L1505.76,292.89L1510.59,320.38L1513,333.18L1525.07,396.68L1527.48,412.2L1541.96,487.26L1544.37,496.78L1556.44,545.46L1558.85,553.08L1563.68,568.03L1566.09,573.87L1573.33,590.16L1575.74,594.25L1582.98,608.08L1585.4,610.49L1590.22,614.76L1592.64,616.61L1599.87,619.53L1602.29,618.92L1604.7,619.32L1607.11,618.17L1611.94,615.97L1614.35,614.17L1621.59,608.21L1624.01,604.71L1626.42,602.47L1628.83,598.78L1633.66,590.44L1636.07,585.3L1640.9,576.58L1643.31,570.19L1674.68,498.17L1677.09,491.87L1696.4,450.9L1698.81,447.19L1706.05,434.39L1708.46,432.54L1718.12,418.16L1720.53,415.57L1730.18,402.86L1732.59,400.99L1739.83,393.37L1742.25,391.88L1754.31,384.52L1756.73,383.33L1776.03,379.44L1778.44,379.23L1785.68,379.24L1788.1,379.32L1795.33,379.84L1797.75,380.45L1812.23,382.39L1814.64,382.92L1843.6,386.17L1846.01,385.95L1850.84,386.12L1853.25,385.84L1865.31,385L1867.73,384.29L1877.38,382.61L1879.79,381.55L1884.62,380.56L1887.03,379.53L1899.1,375.5L1901.51,373.98L1911.16,369.07L1913.58,366.86L1920.81,362.49L1923.23,360.38L1932.88,352.06L1935.29,348.97L1944.95,335.61L1947.36,331.69L1954.6,318.2L1957.01,313.2L1964.25,296.33L1966.66,287.55L1973.9,262.44L1976.32,251.6L1981.14,235.52L1983.56,220.67L1990.79,186.26L1993.21,171.71L1998.03,155.65L2000.45,141.35L2007.69,111.14L2010.1,98.59L2012.51,92.77L2014.93,83L2017.34,74.24L2019.75,71.98L2022.16,61.71L2024.58,56.06L2026.99,54.03L2029.4,48.29L2034.23,43.85L2036.64,43.09L2041.47,42.76L2043.88,44.08L2046.3,47.54L2048.71,47.85L2051.12,51.72L2053.53,58.48L2055.95,62.55L2058.36,71.35L2060.77,74.88L2063.19,86.47L2072.84,119.69L2075.25,130.16L2084.9,177.89L2087.32,195.28L2092.14,220.49L2094.56,230.77L2104.21,267.89L2106.62,274.63L2113.86,296.9L2116.27,302.62L2130.75,332.49L2133.17,336.4L2140.41,346.37L2142.82,348.98L2150.06,357.22L2152.47,359.35L2171.78,377.83L2174.19,379.67L2205.56,407.17L2207.97,409.52L2229.69,438.46L2232.1,442.2L2239.34,455.7L2241.76,460.62L2248.99,477.62L2251.41,484.25L2261.06,513.91L2263.47,522.03L2268.3,539.18L2270.71,550.72L2275.54,570.25L2277.95,586.43L2282.78,612.26L2285.19,624.42L2290.02,645.32L2292.43,654.69L2297.26,677.38L2299.67,685.44L2304.5,707.96L2306.91,713.87L2311.73,728.68L2314.15,733.66L2318.97,742.75L2321.39,746.41L2328.63,753.3L2331.04,753.89L2335.87,754.55L2338.28,753L2343.1,750.04L2345.52,746.55L2352.76,734.25L2355.17,727.36L2357.58,723.23L2360,715.32L2372.06,668.57L2374.47,656.55L2384.13,606.77L2386.54,596.73L2393.78,561.98L2396.19,551.46L2408.26,506.21L2410.67,497.42L2415.5,485.16L2417.91,479.59L2427.56,459.45L2429.98,456.21L2437.21,442.9L2439.63,439.43L2451.69,422.61L2454.11,419.69L2478.24,386.24L2480.65,382.15L2490.3,365.37L2492.72,360.73L2497.54,349.78L2499.96,344.14L2512.02,309.47L2514.43,301.91L2516.85,295.42L2519.26,285.99L2524.09,269.3L2526.5,260.07L2536.15,224.6L2538.56,218.21L2550.63,180.62L2553.04,173.86L2560.28,150.67L2562.7,145.45L2567.52,133.22L2569.93,135.58L2572.35,131.32L2574.76,133.6L2579.59,134.85L2582,134.93" style="vector-effect: non-scaling-stroke; fill: none; stroke: rgb(170, 0, 0); stroke-opacity: 1; stroke-width: 4px; opacity: 1;"/></g><g class="points"/><g class="text"/></g><g class="trace scatter trace7348a3" style="stroke-miterlimit: 2; opacity: 1;"><g class="fills"/><g class="errorbars"/><g class="lines"><path class="js-line" d="M0,134.73L4.83,136.01L7.24,137.63L14.48,143.96L16.89,147.38L21.72,156.25L24.13,159.54L28.96,171.67L31.37,177.41L62.74,261.1L65.15,266.26L69.98,275.77L72.39,279.55L77.22,286.07L79.63,289.78L86.87,297.14L89.28,297.81L94.11,299.05L96.52,299.15L101.35,298.8L103.76,297.73L108.59,294.36L111,291.72L118.24,285.17L120.65,281.1L125.48,273.25L127.89,268.48L132.72,260.27L135.13,256.6L144.79,238.19L147.2,233.09L161.68,207.38L164.09,204.3L173.74,195.32L176.16,193.47L178.57,191.82L180.98,191.56L188.22,192.16L190.63,193.09L197.87,199.17L200.29,201.49L212.35,221.92L214.76,227.58L219.59,239.86L222,243.97L231.66,276.14L234.07,284.56L241.31,307.18L243.72,314.28L250.96,338.07L253.37,343.47L267.85,389.39L270.27,395.08L313.7,498.38L316.11,506.96L323.35,526.63L325.77,532.25L330.59,545.04L333.01,550.51L352.31,608.37L354.72,614.2L364.38,642.5L366.79,648.36L374.03,668.23L376.44,671.51L386.09,691.79L388.51,693.33L398.16,706.43L400.57,706.8L405.4,709.06L407.81,709.91L410.22,712.04L412.64,711.16L417.46,710.33L419.88,709.26L422.29,709.1L424.7,706.52L427.12,706.69L429.53,703.86L431.94,701.52L434.36,697.74L439.18,692.04L441.59,688.23L453.66,666.83L456.07,662L470.55,631.6L472.96,624.03L480.2,606.47L482.62,599.37L487.44,589.64L489.86,582.8L497.1,566.35L499.51,559.79L504.33,550.41L506.75,544.26L511.57,534.35L513.99,529.27L523.64,509.97L526.05,506.29L535.7,487.51L538.12,483.12L555.01,455.87L557.42,451.36L576.73,417.38L579.14,412.39L583.97,403.19L586.38,397.23L596.03,372.72L598.44,365.27L603.27,350.88L605.68,341.5L615.34,301.1L617.75,288.27L624.99,250.52L627.4,234.75L646.71,127.81L649.12,117.19L653.95,101.78L656.36,87.61L663.6,63.39L666.01,56.69L670.84,50.2L673.25,49.13L678.08,43.93L680.49,43.61L682.9,43.31L685.32,47.82L687.73,47.89L690.14,53.56L692.56,61.49L694.97,64.96L697.38,67.42L699.79,73.5L702.21,83.55L704.62,88.79L707.03,95.17L709.45,106.06L714.27,127.24L716.69,136.4L719.1,151.64L721.51,158.86L726.34,178.83L728.75,190.42L733.58,208.66L735.99,221.28L743.23,242.81L745.64,250.29L755.3,273.22L757.71,277.37L764.95,288L767.36,291.01L769.77,294.73L772.19,296.45L779.43,302.67L781.84,303.69L793.9,308.79L796.32,309.5L805.97,309.68L808.38,309.56L827.69,304.67L830.1,303.56L839.75,299.97L842.17,298.88L868.71,288.28L871.12,287.98L873.54,286.46L875.95,286.57L885.6,285.54L888.01,285.6L897.67,287.04L900.08,287.69L909.73,291.96L912.15,293.22L931.45,308.65L933.86,311.18L948.34,328.14L950.76,331.8L962.82,346.57L965.23,350.34L972.47,360.31L974.89,364.61L991.78,388.7L994.19,392.43L1003.84,408.38L1006.26,412.82L1013.5,424.98L1015.91,429.26L1025.56,448.01L1027.97,453.45L1035.21,471.06L1037.63,476.48L1047.28,501.56L1049.69,508.46L1059.34,539.16L1061.76,546.73L1066.58,561.35L1069,566.9L1073.82,580.72L1076.24,589.31L1081.06,601.24L1083.47,606.85L1090.71,626.72L1093.13,630.87L1097.95,639.15L1100.37,642.1L1107.61,649.43L1110.02,650.74L1114.84,651.62L1117.26,652.22L1124.5,648.34L1126.91,646.52L1136.56,632.02L1138.98,625.88L1146.21,608.09L1148.63,599.59L1158.28,563.94L1160.69,553.11L1167.93,521.61L1170.35,510.3L1175.17,489.93L1177.59,474.55L1189.65,412.01L1192.06,401.65L1201.72,359.34L1204.13,349.76L1223.43,278.02L1225.85,272.14L1242.74,224.53L1245.15,218.66L1262.04,186.81L1264.46,183.08L1269.28,176.38L1271.7,173.6L1278.93,166.78L1281.35,164.9L1286.17,161.73L1288.59,160.83L1295.83,158.64L1298.24,158.4L1310.3,160.92L1312.72,161.95L1319.96,165.1L1322.37,165.86L1344.09,180L1346.5,181.38L1356.15,185.79L1358.57,185.95L1368.22,187.85L1370.63,187.42L1375.46,187.04L1377.87,186.38L1382.7,184.55L1385.11,183.51L1397.18,176.01L1399.59,174.05L1428.55,155.09L1430.96,154.57L1438.2,153.32L1440.61,153.51L1450.26,155.87L1452.68,157.36L1462.33,167.16L1464.74,171.7L1469.57,178.36L1471.98,182.44L1481.63,203.72L1484.05,210.35L1488.87,222.73L1491.29,232.88L1498.53,261.73L1500.94,276.27L1505.76,294.84L1508.18,306.95L1517.83,357.04L1520.24,372.15L1527.48,411.83L1529.9,426.76L1537.13,463.48L1539.55,476.84L1546.79,508.4L1549.2,519.62L1556.44,546.21L1558.85,555.67L1568.5,581.58L1570.92,586.1L1580.57,603.72L1582.98,606.54L1587.81,612.33L1590.22,615.16L1597.46,618.78L1599.87,618.79L1604.7,618.93L1607.11,618.13L1609.53,617.65L1611.94,615.58L1614.35,614.72L1616.77,612.61L1626.42,601.6L1628.83,597.97L1640.9,576.35L1643.31,571.07L1665.03,521.08L1667.44,514.86L1674.68,498.06L1677.09,492.6L1686.75,471.26L1689.16,466.35L1698.81,447.17L1701.22,442.58L1708.46,430.48L1710.88,427.19L1722.94,410.67L1725.36,409.21L1735.01,398.29L1737.42,396.22L1749.49,387.7L1751.9,387.02L1761.55,382.57L1763.96,381.6L1773.62,379.58L1776.03,379.39L1792.92,379.8L1795.33,380.01L1802.57,381L1804.99,381.37L1826.7,384.61L1829.12,385.21L1836.36,385.61L1838.77,386.12L1867.73,384.77L1870.14,384.16L1887.03,379.98L1889.44,379.1L1903.92,373.09L1906.34,371.6L1920.81,362.91L1923.23,361.12L1944.95,338.19L1947.36,332.89L1959.42,307.98L1961.84,297.62L1966.66,282.59L1969.08,277.5L1973.9,262.8L1976.32,255.14L1995.62,162.14L1998.03,154.35L2002.86,128.34L2005.27,121.16L2010.1,98.59L2012.51,92.77L2017.34,74.24L2019.75,71.98L2024.58,57.96L2026.99,55.36L2031.82,44.68L2034.23,42.85L2036.64,42.81L2039.06,39.8L2041.47,43.06L2043.88,41.56L2048.71,49.96L2051.12,52.47L2055.95,64.05L2058.36,76.13L2068.01,101L2070.43,113.8L2072.84,119.69L2075.25,135.31L2077.67,146.94L2080.08,153.27L2087.32,195.28L2089.73,205.87L2094.56,225.99L2096.97,236.43L2104.21,265.6L2106.62,273.73L2111.45,290.64L2113.86,297.1L2116.27,303.79L2118.69,307.28L2125.93,323.67L2128.34,329.58L2150.06,357.38L2152.47,360.32L2171.78,378.17L2174.19,379.74L2188.67,392.18L2191.08,394.23L2215.21,418.37L2217.62,421.39L2224.86,431.75L2227.28,435.36L2234.52,447.05L2236.93,451.43L2244.17,465.36L2246.58,471.62L2256.23,498.12L2258.65,506.39L2265.89,532.14L2268.3,544.31L2282.78,613.13L2285.19,624.85L2290.02,648.75L2292.43,655.39L2304.5,703.39L2306.91,705.37L2309.32,712.04L2311.73,726.77L2323.8,751.97L2326.21,753.42L2331.04,756.2L2333.45,754.03L2338.28,752.83L2340.69,752.89L2343.1,754.18L2345.52,747.19L2352.76,735.33L2355.17,730.54L2364.82,699.38L2367.24,686.87L2372.06,668.6L2374.47,657.52L2396.19,551.07L2398.61,541.12L2403.43,523.39L2405.84,513.59L2420.32,473.95L2422.74,470.26L2429.98,454.95L2432.39,451.04L2439.63,438.18L2442.04,435.35L2444.45,433.56L2446.87,430.04L2454.11,419.02L2456.52,417.37L2463.76,406.71L2466.17,404.05L2475.82,389.15L2478.24,387.35L2487.89,368.81L2490.3,366.44L2499.96,342.84L2502.37,339.9L2512.02,309.47L2514.43,305.91L2524.09,268.6L2526.5,264.52L2536.15,223.84L2538.56,219.88L2548.22,183.48L2550.63,180.33L2560.28,154.8L2562.7,152.3L2569.93,140.02L2572.35,138.58L2579.59,134.08L2582,134.87" style="vector-effect: non-scaling-stroke; fill: none; stroke: rgb(0, 170, 0); stroke-opacity: 1; stroke-width: 4px; opacity: 1;"/></g><g class="points"/><g class="text"/></g></g></g><g class="overplot"/><path class="xlines-above crisp" d="M0,0" style="fill: none;"/><path class="ylines-above crisp" d="M0,0" style="fill: none;"/><g class="overlines-above"/><g class="xaxislayer-above"><g class="xtick"><text text-anchor="middle" x="0" y="934" transform="translate(160,0)" style="font-family: 'Open Sans', verdana, arial, sans-serif; font-size: 37px; fill: rgb(42, 63, 95); fill-opacity: 1; white-space: pre; opacity: 1;">0</text></g><g class="xtick"><text text-anchor="middle" x="0" y="934" style="font-family: 'Open Sans', verdana, arial, sans-serif; font-size: 37px; fill: rgb(42, 63, 95); fill-opacity: 1; white-space: pre; opacity: 1;" transform="translate(642.62,0)">200</text></g><g class="xtick"><text text-anchor="middle" x="0" y="934" style="font-family: 'Open Sans', verdana, arial, sans-serif; font-size: 37px; fill: rgb(42, 63, 95); fill-opacity: 1; white-space: pre; opacity: 1;" transform="translate(1125.23,0)">400</text></g><g class="xtick"><text text-anchor="middle" x="0" y="934" style="font-family: 'Open Sans', verdana, arial, sans-serif; font-size: 37px; fill: rgb(42, 63, 95); fill-opacity: 1; white-space: pre; opacity: 1;" transform="translate(1607.85,0)">600</text></g><g class="xtick"><text text-anchor="middle" x="0" y="934" style="font-family: 'Open Sans', verdana, arial, sans-serif; font-size: 37px; fill: rgb(42, 63, 95); fill-opacity: 1; white-space: pre; opacity: 1;" transform="translate(2090.4700000000003,0)">800</text></g><g class="xtick"><text text-anchor="middle" x="0" y="934" style="font-family: 'Open Sans', verdana, arial, sans-serif; font-size: 37px; fill: rgb(42, 63, 95); fill-opacity: 1; white-space: pre; opacity: 1;" transform="translate(2573.08,0)">1000</text></g></g><g class="yaxislayer-above"><g class="ytick"><text text-anchor="end" x="159" y="12.95" transform="translate(0,829.03)" style="font-family: 'Open Sans', verdana, arial, sans-serif; font-size: 37px; fill: rgb(42, 63, 95); fill-opacity: 1; white-space: pre; opacity: 1;">−200</text></g><g class="ytick"><text text-anchor="end" x="159" y="12.95" style="font-family: 'Open Sans', verdana, arial, sans-serif; font-size: 37px; fill: rgb(42, 63, 95); fill-opacity: 1; white-space: pre; opacity: 1;" transform="translate(0,747.54)">−150</text></g><g class="ytick"><text text-anchor="end" x="159" y="12.95" style="font-family: 'Open Sans', verdana, arial, sans-serif; font-size: 37px; fill: rgb(42, 63, 95); fill-opacity: 1; white-space: pre; opacity: 1;" transform="translate(0,666.05)">−100</text></g><g class="ytick"><text text-anchor="end" x="159" y="12.95" style="font-family: 'Open Sans', verdana, arial, sans-serif; font-size: 37px; fill: rgb(42, 63, 95); fill-opacity: 1; white-space: pre; opacity: 1;" transform="translate(0,584.56)">−50</text></g><g class="ytick"><text text-anchor="end" x="159" y="12.95" style="font-family: 'Open Sans', verdana, arial, sans-serif; font-size: 37px; fill: rgb(42, 63, 95); fill-opacity: 1; white-space: pre; opacity: 1;" transform="translate(0,503.07)">0</text></g><g class="ytick"><text text-anchor="end" x="159" y="12.95" style="font-family: 'Open Sans', verdana, arial, sans-serif; font-size: 37px; fill: rgb(42, 63, 95); fill-opacity: 1; white-space: pre; opacity: 1;" transform="translate(0,421.58)">50</text></g><g class="ytick"><text text-anchor="end" x="159" y="12.95" style="font-family: 'Open Sans', verdana, arial, sans-serif; font-size: 37px; fill: rgb(42, 63, 95); fill-opacity: 1; white-space: pre; opacity: 1;" transform="translate(0,340.08000000000004)">100</text></g><g class="ytick"><text text-anchor="end" x="159" y="12.95" style="font-family: 'Open Sans', verdana, arial, sans-serif; font-size: 37px; fill: rgb(42, 63, 95); fill-opacity: 1; white-space: pre; opacity: 1;" transform="translate(0,258.59000000000003)">150</text></g><g class="ytick"><text text-anchor="end" x="159" y="12.95" style="font-family: 'Open Sans', verdana, arial, sans-serif; font-size: 37px; fill: rgb(42, 63, 95); fill-opacity: 1; white-space: pre; opacity: 1;" transform="translate(0,177.1)">200</text></g></g><g class="overaxes-above"/></g></g><g class="polarlayer"/><g class="ternarylayer"/><g class="geolayer"/><g class="funnelarealayer"/><g class="pielayer"/><g class="iciclelayer"/><g class="treemaplayer"/><g class="sunburstlayer"/><g class="glimages"/><defs id="topdefs-019ba2"><g class="clips"/><clipPath id="legend019ba2"><rect width="694" height="113" x="0" y="0"/></clipPath></defs><g class="layer-above"><g class="imagelayer"/><g class="shapelayer"/></g><g class="infolayer"><g class="legend" pointer-events="all" transform="translate(2793.64,100)"><rect class="bg" shape-rendering="crispEdges" width="694" height="113" x="0" y="0" style="stroke: rgb(68, 68, 68); stroke-opacity: 1; fill: rgb(255, 255, 255); fill-opacity: 1; stroke-width: 0px;"/><g class="scrollbox" transform="" clip-path="url(#legend019ba2)"><g class="groups"><g class="traces" transform="translate(0,30.55)" style="opacity: 1;"><text class="legendtext" text-anchor="start" x="40" y="14.43" style="font-family: 'Open Sans', verdana, arial, sans-serif; font-size: 37px; fill: rgb(42, 63, 95); fill-opacity: 1; white-space: pre;">Predicted Curvature at Anchors #1</text><g class="layers" style="opacity: 1;"><g class="legendfill"/><g class="legendlines"><path class="js-line" d="M5,0h30" style="fill: none; stroke: rgb(170, 0, 0); stroke-opacity: 1; stroke-width: 4px;"/></g><g class="legendsymbols"><g class="legendpoints"/></g></g><rect class="legendtoggle" x="0" y="-25.55" width="688.125" height="51.1" style="fill: rgb(0, 0, 0); fill-opacity: 0;"/></g><g class="traces" transform="translate(0,81.65)" style="opacity: 1;"><text class="legendtext" text-anchor="start" x="40" y="14.43" style="font-family: 'Open Sans', verdana, arial, sans-serif; font-size: 37px; fill: rgb(42, 63, 95); fill-opacity: 1; white-space: pre;">Predicted Curvature at Anchors #2</text><g class="layers" style="opacity: 1;"><g class="legendfill"/><g class="legendlines"><path class="js-line" d="M5,0h30" style="fill: none; stroke: rgb(0, 170, 0); stroke-opacity: 1; stroke-width: 4px;"/></g><g class="legendsymbols"><g class="legendpoints"/></g></g><rect class="legendtoggle" x="0" y="-25.55" width="688.125" height="51.1" style="fill: rgb(0, 0, 0); fill-opacity: 0;"/></g></g></g><rect class="scrollbar" rx="20" ry="3" width="0" height="0" x="0" y="0" style="fill: rgb(128, 139, 164); fill-opacity: 1;"/></g><g class="g-gtitle"/><g class="g-xtitle"><text class="xtitle" x="1451" y="987.8" text-anchor="middle" style="font-family: 'Open Sans', verdana, arial, sans-serif; font-size: 44px; fill: rgb(42, 63, 95); opacity: 1; font-weight: normal; white-space: pre;">Anchor Point Index</text></g><g class="g-ytitle" transform="translate(31.6591796875,0)"><text class="ytitle" transform="rotate(-90,12.340624999999989,498)" x="12.340624999999989" y="498" text-anchor="middle" style="font-family: 'Open Sans', verdana, arial, sans-serif; font-size: 44px; fill: rgb(42, 63, 95); opacity: 1; font-weight: normal; white-space: pre;">Predicted Curvature</text></g><g class="annotation" data-index="0" style="opacity: 1;"><g class="annotation-text-g" transform="rotate(0,1451,75.49999999999994)"><g class="cursor-pointer" transform="translate(585,51)"><rect class="bg" x="0.5" y="0.5" width="1732" height="48" style="stroke-width: 1px; stroke: rgb(0, 0, 0); stroke-opacity: 0; fill: rgb(0, 0, 0); fill-opacity: 0;"/><text class="annotation-text" text-anchor="middle" x="866.546875" y="39" style="font-family: 'Open Sans', verdana, arial, sans-serif; font-size: 37px; fill: rgb(42, 63, 95); fill-opacity: 1; white-space: pre;"><tspan style="font-weight:bold">Predicted Curvature at Anchors (Transformed Curve #1 vs. Transformed Curve #2)</tspan></text></g></g></g></g></svg>