<svg class="main-svg" xmlns="http://www.w3.org/2000/svg" xmlns:xlink="http://www.w3.org/1999/xlink" width="3500" height="1000" style="" viewBox="0 0 3500 1000"><rect x="0" y="0" width="3500" height="1000" style="fill: rgb(255, 255, 255); fill-opacity: 1;"/><defs id="defs-9ebb19"><g class="clips"><clipPath id="clip9ebb19xyplot" class="plotclip"><rect width="2582" height="796"/></clipPath><clipPath class="axesclip" id="clip9ebb19x"><rect x="160" y="0" width="2582" height="1000"/></clipPath><clipPath class="axesclip" id="clip9ebb19y"><rect x="0" y="100" width="3500" height="796"/></clipPath><clipPath class="axesclip" id="clip9ebb19xy"><rect x="160" y="100" width="2582" height="796"/></clipPath></g><g class="gradients"/><g class="patterns"/></defs><g class="bglayer"><rect class="bg" x="160" y="100" width="2582" height="796" style="fill: rgb(229, 236, 246); fill-opacity: 1; stroke-width: 0;"/></g><g class="layer-below"><g class="imagelayer"/><g class="shapelayer"/></g><g class="cartesianlayer"><g class="subplot xy"><g class="layer-subplot"><g class="shapelayer"/><g class="imagelayer"/></g><g class="gridlayer"><g class="x"><path class="xgrid crisp" transform="translate(612.98,0)" d="M0,100v796" style="stroke: rgb(255, 255, 255); stroke-opacity: 1; stroke-width: 1px;"/><path class="xgrid crisp" transform="translate(1065.96,0)" d="M0,100v796" style="stroke: rgb(255, 255, 255); stroke-opacity: 1; stroke-width: 1px;"/><path class="xgrid crisp" transform="translate(1518.95,0)" d="M0,100v796" style="stroke: rgb(255, 255, 255); stroke-opacity: 1; stroke-width: 1px;"/><path class="xgrid crisp" transform="translate(1971.93,0)" d="M0,100v796" style="stroke: rgb(255, 255, 255); stroke-opacity: 1; stroke-width: 1px;"/><path class="xgrid crisp" transform="translate(2424.91,0)" d="M0,100v796" style="stroke: rgb(255, 255, 255); stroke-opacity: 1; stroke-width: 1px;"/></g><g class="y"><path class="ygrid crisp" transform="translate(0,830.76)" d="M160,0h2582" style="stroke: rgb(255, 255, 255); stroke-opacity: 1; stroke-width: 1px;"/><path class="ygrid crisp" transform="translate(0,750.87)" d="M160,0h2582" style="stroke: rgb(255, 255, 255); stroke-opacity: 1; stroke-width: 1px;"/><path class="ygrid crisp" transform="translate(0,670.98)" d="M160,0h2582" style="stroke: rgb(255, 255, 255); stroke-opacity: 1; stroke-width: 1px;"/><path class="ygrid crisp" transform="translate(0,591.1)" d="M160,0h2582" style="stroke: rgb(255, 255, 255); stroke-opacity: 1; stroke-width: 1px;"/><path class="ygrid crisp" transform="translate(0,431.32)" d="M160,0h2582" style="stroke: rgb(255, 255, 255); stroke-opacity: 1; stroke-width: 1px;"/><path class="ygrid crisp" transform="translate(0,351.43)" d="M160,0h2582" style="stroke: rgb(255, 255, 255); stroke-opacity: 1; stroke-width: 1px;"/><path class="ygrid crisp" transform="translate(0,271.53999999999996)" d="M160,0h2582" style="stroke: rgb(255, 255, 255); stroke-opacity: 1; stroke-width: 1px;"/><path class="ygrid crisp" transform="translate(0,191.66)" d="M160,0h2582" style="stroke: rgb(255, 255, 255); stroke-opacity: 1; stroke-width: 1px;"/><path class="ygrid crisp" transform="translate(0,111.77)" d="M160,0h2582" style="stroke: rgb(255, 255, 255); stroke-opacity: 1; stroke-width: 1px;"/></g></g><g class="zerolinelayer"><path class="xzl zl crisp" transform="translate(160,0)" d="M0,100v796" style="stroke: rgb(255, 255, 255); stroke-opacity: 1; stroke-width: 2px;"/><path class="yzl zl crisp" transform="translate(0,511.21)" d="M160,0h2582" style="stroke: rgb(255, 255, 255); stroke-opacity: 1; stroke-width: 2px;"/></g><path class="xlines-below"/><path class="ylines-below"/><g class="overlines-below"/><g class="xaxislayer-below"/><g class="yaxislayer-below"/><g class="overaxes-below"/><g class="plot" transform="translate(160,100)" clip-path="url(#clip9ebb19xyplot)"><g class="scatterlayer mlayer"><g class="trace scatter trace40395b" style="stroke-miterlimit: 2; opacity: 1;"><g class="fills"/><g class="errorbars"/><g class="lines"><path class="js-line" d="M0,214.59L11.32,229.93L13.59,233L15.85,233.23L18.12,236.39L27.18,249.11L29.44,250.96L40.77,261.39L43.03,262.48L52.09,265.5L54.36,265.19L56.62,265.67L58.89,264.96L65.68,261.42L67.95,259.33L70.21,259.18L72.48,256.91L81.54,244.62L83.8,243.95L90.6,233.35L92.86,229.16L95.13,224.6L97.39,223.17L101.92,215.76L104.19,210.79L108.72,205.27L110.98,202.71L120.04,191.97L122.31,190.74L133.63,185.06L135.89,185.45L140.42,186.57L142.69,187.85L147.22,190.26L149.48,192.3L160.81,208.88L163.07,213.61L169.87,234.91L172.13,245.02L178.93,273.12L181.19,281.38L183.46,290.96L185.72,307.96L190.25,350.71L192.52,366.14L197.05,399.47L199.31,418.89L212.9,539.83L215.17,549.8L219.7,584.12L221.96,593.68L226.49,618.2L228.76,624.42L242.35,669.09L244.61,672.63L249.14,681.56L251.41,683.57L255.94,689.01L258.2,689.78L262.73,691.92L264.99,691.63L269.52,690.63L271.79,689.38L274.05,688.08L276.32,685.57L278.58,684.16L280.85,680.49L285.38,672.9L287.64,666.5L289.91,664.71L292.17,659.8L294.44,655.49L296.7,648.7L303.5,627.31L305.76,620.75L319.35,573.56L321.62,561.25L323.88,550.09L326.15,545.94L332.94,517.04L335.21,495.65L337.47,494.26L339.74,483.81L342,460.56L344.27,456.74L351.06,410.57L353.33,396.52L355.59,378.8L357.86,348.33L362.39,305.45L364.65,301L369.18,230.41L371.45,211.43L375.98,168.37L378.24,155.22L380.51,132.59L382.77,123.61L387.3,96.28L389.56,89.9L394.09,65.41L396.36,58.83L398.62,51.08L400.89,51.6L403.15,44.55L405.42,43.5L407.68,44.1L409.95,39.8L412.21,44.38L414.48,45.73L416.74,45.27L419.01,53.34L421.27,56.39L423.54,66.19L430.33,98.75L432.6,104.22L434.86,114.67L437.13,129.99L441.66,164.37L443.92,186.13L448.45,227.14L450.72,248.76L452.98,264.43L455.25,290.25L459.78,330.94L462.04,351.83L464.31,362.17L466.57,378.49L468.84,395.99L471.1,402.22L475.63,424.12L477.9,430.31L482.43,449.41L484.69,455.9L493.75,479.19L496.02,483.54L509.61,509.72L511.87,512.24L516.4,519.48L518.66,522.08L525.46,531.64L527.72,534.97L534.52,542.87L536.78,545.54L550.37,556.01L552.64,556.74L559.43,559.03L561.7,558.94L568.49,558.53L570.76,557.48L575.29,555.57L577.55,554.02L584.35,549.16L586.61,546.25L591.14,541.32L593.41,538.05L609.26,513.47L611.53,508.51L636.44,459.97L638.71,454.67L647.76,434.19L650.03,430.14L672.68,391.97L674.94,388.88L681.74,380.63L684,379.08L693.06,370.54L695.33,369.39L702.12,364.88L704.39,364.58L715.71,363.05L717.98,363.54L724.77,365.06L727.04,365.92L733.83,369.32L736.1,370.71L742.89,375.31L745.16,377.4L756.48,388.06L758.75,390.24L765.54,397.27L767.81,400.29L776.86,409.56L779.13,413L794.98,432.63L797.25,435.49L804.04,443.36L806.31,446.05L815.37,459.17L817.63,462.36L826.69,477.18L828.96,480.71L840.28,502.42L842.55,507.91L860.67,558.44L862.93,566.37L867.46,580.23L869.73,589.51L883.32,637.87L885.58,645.31L892.38,666.33L894.64,672.43L899.17,687.17L901.44,691.39L905.96,705.65L908.23,709.34L915.02,718.6L917.29,719.42L921.82,725.92L924.08,725.97L928.61,727.68L930.88,727.19L933.14,727.34L935.41,725.65L939.94,722.68L942.2,720.21L953.53,698.5L955.79,693.09L964.85,664.46L967.12,656.12L978.44,609.81L980.71,599.28L1001.09,518.92L1003.36,511.06L1014.68,481.03L1016.95,476.16L1023.74,459.5L1026.01,455.82L1039.59,435.95L1041.86,431.59L1046.39,425.93L1048.65,423.74L1055.45,417.18L1057.71,413.83L1064.51,406.17L1066.77,404.42L1075.83,393.21L1078.1,390.97L1089.42,376.68L1091.69,373.04L1100.75,357.88L1103.01,353.8L1114.34,326.76L1116.6,320.9L1130.19,272.73L1132.46,261.51L1143.78,209.12L1146.05,196.28L1155.11,154.15L1157.37,146.86L1161.9,127.32L1164.16,120.98L1168.69,105.42L1170.96,100.2L1175.49,89.03L1177.75,85.4L1182.28,78.79L1184.55,77.43L1186.81,75.75L1189.08,77.14L1191.34,76.14L1193.61,76.54L1195.87,81.43L1198.14,83.06L1200.4,84.95L1202.67,89.67L1209.46,105.57L1211.73,115.59L1213.99,120.48L1216.26,128.33L1220.79,144.89L1223.05,153.54L1232.11,194.79L1234.38,202.81L1245.7,243.52L1247.97,250.42L1257.03,277.71L1259.29,282.82L1263.82,292.29L1266.09,296.42L1270.62,303.96L1272.88,306.89L1281.94,315.65L1284.21,316.68L1291,321.96L1293.26,322.52L1297.79,324.16L1300.06,324.54L1306.85,325.86L1309.12,325.73L1318.18,325.85L1320.44,325.64L1329.5,325.08L1331.77,324.69L1338.56,323.8L1340.83,324.43L1343.09,323.61L1345.36,324.18L1349.89,323.65L1352.15,324.12L1354.42,324.75L1356.68,324.26L1365.74,326.51L1368.01,327.69L1379.33,333.37L1381.6,335.05L1395.19,347.86L1397.45,350.44L1408.78,363.63L1411.04,366.48L1422.36,381.51L1424.63,384.65L1429.16,390.53L1431.42,392.87L1442.75,404.27L1445.01,405.94L1451.81,409.97L1454.07,411.13L1460.87,412.46L1463.13,412.08L1467.66,411.24L1469.93,410.25L1478.99,405.04L1481.25,402.7L1492.58,389.73L1494.84,385.34L1499.37,377.1L1501.64,373.87L1515.23,345.18L1517.49,339.4L1519.76,332.96L1522.02,330.03L1526.55,321.74L1528.82,316.6L1535.61,303.05L1537.88,300.93L1546.94,284.28L1549.2,281.78L1555.99,273.64L1558.26,270.87L1565.05,266.66L1567.32,266.14L1574.11,265.08L1576.38,266.35L1580.91,266.36L1583.17,267.39L1589.97,272.42L1592.23,275.23L1601.29,286.25L1603.56,289.61L1608.09,295.89L1610.35,299.88L1619.41,316.59L1621.68,320.43L1637.53,348.5L1639.8,351.91L1646.59,363.33L1648.86,366.86L1653.39,373.6L1655.65,375.87L1662.45,383.51L1664.71,386.05L1673.77,393.87L1676.04,395.31L1682.83,399.3L1685.09,399.97L1694.15,401.84L1696.42,402.25L1710.01,399.38L1712.27,398.55L1721.33,393.66L1723.6,391.16L1732.66,383.09L1734.92,380.19L1739.45,375.05L1741.72,371.83L1759.84,343.92L1762.1,339.87L1777.96,311.84L1780.22,307.72L1805.14,265.85L1807.4,263.33L1816.46,251.67L1818.72,249.12L1830.05,236.33L1832.31,234.68L1852.7,216.12L1854.96,213.55L1859.49,209.35L1861.76,206.52L1870.82,196.27L1873.08,192.3L1882.14,178.79L1884.41,174.11L1900.26,142.72L1902.53,136.56L1907.06,127.22L1909.32,123.1L1913.85,111.23L1916.12,108.33L1920.65,99.85L1922.91,95.18L1927.44,90.57L1929.71,86.54L1936.5,82.38L1938.76,81.45L1945.56,82.04L1947.82,84.56L1954.62,92.04L1956.88,98.75L1961.41,105.11L1963.68,110.96L1972.74,137.05L1975,148.15L1979.53,164.62L1981.8,174.78L1986.33,199.43L1988.59,211.16L1999.92,283.06L2002.18,301.91L2015.77,376.25L2018.04,387.89L2031.63,446.69L2033.89,453.91L2040.69,474.12L2042.95,479.48L2063.34,527.86L2065.6,532.46L2088.25,583.63L2090.51,589.38L2104.1,622.07L2106.37,628.54L2131.28,698.36L2133.55,704.45L2138.08,717.26L2140.34,720.52L2149.4,739.75L2151.67,742.74L2153.93,744.43L2156.2,748.96L2158.46,749.91L2160.73,752L2169.79,756.2L2172.05,755.07L2178.85,752.16L2181.11,749.33L2187.91,740.82L2190.17,736.29L2196.96,721.5L2199.23,715.34L2208.29,685.98L2210.55,677.07L2224.14,618.76L2226.41,609.23L2237.73,561.49L2240,552.46L2253.59,509.05L2255.85,502.63L2262.65,485.38L2264.91,481.3L2276.24,460.7L2278.5,458.69L2287.56,443.8L2289.83,440.75L2294.36,435.13L2296.62,432.8L2317.01,412.96L2319.27,411.32L2326.06,405.86L2328.33,405.21L2335.12,400.4L2337.39,399.02L2346.45,394.91L2348.71,394.59L2357.77,392.07L2360.04,391.97L2369.1,391.35L2371.36,391.62L2382.69,392.95L2384.95,393.31L2403.07,396.49L2405.34,396.24L2409.87,396.38L2412.13,396.24L2423.46,393.3L2425.72,392.19L2430.25,390.45L2432.52,388.81L2441.58,381.47L2443.84,378.9L2457.43,360.38L2459.69,357L2473.28,332.03L2475.55,327.37L2493.67,286.34L2495.93,279.93L2500.46,270.88L2502.73,266.35L2520.85,228.46L2523.11,225.22L2532.17,212.18L2534.44,209.66L2538.97,203.59L2541.23,202.6L2552.56,197.06L2554.82,197.67L2557.09,196.97L2559.35,197.82L2566.15,199.43L2568.41,202.23L2570.68,201.9L2572.94,204.08L2579.74,210.13L2582,214.19" style="vector-effect: non-scaling-stroke; fill: none; stroke: rgb(170, 0, 0); stroke-opacity: 1; stroke-width: 4px; opacity: 1;"/></g><g class="points"/><g class="text"/></g><g class="trace scatter trace394ffd" style="stroke-miterlimit: 2; opacity: 1;"><g class="fills"/><g class="errorbars"/><g class="lines"><path class="js-line" d="M0,215.28L11.32,228.69L13.59,231.97L18.12,238.51L20.38,239.1L27.18,246.69L29.44,249.76L36.24,258.24L38.5,258.35L52.09,265.58L54.36,265.48L63.42,263.99L65.68,261.65L67.95,260.95L70.21,259.1L74.74,254.8L77.01,251.68L81.54,247.4L83.8,243.64L110.98,202.09L113.25,199.66L120.04,192.3L122.31,190.3L126.84,187.28L129.1,186.23L133.63,185.01L135.89,185.24L140.42,186.01L142.69,187.72L149.48,192.22L151.75,195.94L156.28,202.37L158.54,207.19L163.07,217.06L165.34,221.82L174.4,255.21L176.66,269.46L181.19,287.66L183.46,300.14L190.25,338.08L192.52,360.57L203.84,458.77L206.11,473.18L210.64,516.92L212.9,530.59L217.43,568.92L219.7,577.8L221.96,587.24L224.23,604.38L231.02,633.82L233.29,645.29L237.82,655.23L240.08,663.7L244.61,673.15L246.88,677.75L249.14,683.52L251.41,684.9L258.2,691.14L260.46,691.06L264.99,691.91L267.26,692.18L276.32,686.07L278.58,683.21L280.85,680.8L283.11,676.52L289.91,665.01L292.17,659.2L298.97,644.51L301.23,636.09L308.03,613.34L310.29,602.67L314.82,590.01L317.09,581.66L326.15,547.39L328.41,535.83L332.94,516.87L335.21,502.07L339.74,486.17L342,472.88L348.8,431.63L351.06,408.5L353.33,396.32L355.59,372.9L364.65,278.97L366.92,263.19L371.45,209.03L373.71,194.4L382.77,124.8L385.04,110.5L389.56,83.99L391.83,75.05L396.36,60.11L398.62,58.36L400.89,52.4L403.15,43.03L405.42,43.25L407.68,45.91L409.95,40.21L412.21,43.9L414.48,47.63L416.74,47.27L419.01,53.17L421.27,61.95L423.54,64.08L425.8,72.44L428.07,87.24L430.33,91.51L437.13,129.47L439.39,149.14L441.66,173.62L443.92,185.37L450.72,251.93L452.98,267.28L459.78,323.75L462.04,338.35L466.57,382.2L468.84,393.54L475.63,426.33L477.9,433.05L489.22,466.97L491.49,471.67L496.02,482.57L498.28,486.74L509.61,508.5L511.87,511.67L516.4,519.52L518.66,522.91L525.46,531.63L527.72,534.42L534.52,542.5L536.78,544.98L543.58,552.07L545.84,552.5L554.9,557.46L557.17,558.37L559.43,557.81L561.7,558.86L570.76,557.26L573.02,556.95L579.82,553.38L582.08,550.35L584.35,549.13L586.61,546.34L595.67,534.74L597.94,531.36L609.26,513.23L611.53,508.71L629.65,473.38L631.91,468.04L636.44,458.24L638.71,454.59L656.82,417.41L659.09,413.62L663.62,407.47L665.88,403.13L670.41,395.66L672.68,393.29L679.47,383.51L681.74,380.8L690.8,372.1L693.06,371.1L702.12,365.24L704.39,364.61L711.18,363.13L713.45,362.96L722.51,364.05L724.77,365.05L731.57,367.96L733.83,369.32L742.89,374.74L745.16,376.77L758.75,390.14L761.01,392.59L785.92,421.15L788.19,424.35L797.25,435.68L799.51,437.98L806.31,446.69L808.57,449.85L824.43,473.1L826.69,477.14L835.75,493.74L838.02,499.13L856.14,543.52L858.4,551.81L865.2,573.6L867.46,582.47L874.26,606.73L876.52,615.2L883.32,638.24L885.58,646.04L892.38,669.54L894.64,675.7L903.7,700.07L905.96,703.87L915.02,719.28L917.29,720.75L921.82,725.26L924.08,726.2L926.35,726.99L928.61,726.58L933.14,726.58L935.41,725.22L937.67,724.73L939.94,722.03L944.47,716.76L946.73,712.57L951.26,704.6L953.53,698.97L962.59,673.46L964.85,666.28L973.91,632.7L976.18,620.89L980.71,598.6L982.97,588.73L1005.62,505.38L1007.89,497.18L1014.68,480.05L1016.95,474.66L1023.74,459.61L1026.01,456.55L1028.27,453.91L1030.54,449.56L1037.33,438.51L1039.59,436.62L1048.65,423.8L1050.92,422.3L1057.71,413.03L1059.98,411.49L1064.51,406.88L1066.77,403.57L1073.57,396.16L1075.83,394.79L1084.89,382.08L1087.16,378.87L1089.42,377.33L1091.69,373.93L1100.75,356.4L1103.01,355.05L1107.54,344.43L1109.81,338.28L1114.34,325.38L1116.6,323.16L1123.4,296.99L1125.66,287.4L1127.93,282.04L1130.19,272.2L1143.78,207.08L1146.05,192.54L1150.58,175.66L1152.84,166.18L1159.64,135.63L1161.9,128.39L1170.96,97.97L1173.22,94.36L1180.02,81.52L1182.28,79.82L1186.81,75.62L1189.08,76.78L1193.61,76.43L1195.87,81.43L1200.4,84.95L1202.67,89.67L1209.46,105.57L1211.73,115.59L1213.99,120.48L1216.26,128.33L1220.79,144.89L1223.05,153.54L1232.11,192.58L1234.38,200.14L1243.44,235.57L1245.7,244.44L1247.97,250L1250.23,258.71L1257.03,279.48L1259.29,282.93L1266.09,296.34L1268.35,301.1L1277.41,311.56L1279.68,314.42L1293.26,322.66L1295.53,323.33L1309.12,326.11L1311.38,326.04L1329.5,324.94L1331.77,324.61L1352.15,323.92L1354.42,324.3L1363.48,325.85L1365.74,326.87L1372.54,328.93L1374.8,330.63L1390.66,342.85L1392.92,345.7L1399.72,351.66L1401.98,355.41L1406.51,361.64L1408.78,364.63L1411.04,366.63L1413.31,370.19L1435.95,398.43L1438.22,400.7L1447.28,408.08L1449.54,409.51L1456.34,412.2L1458.6,412.59L1463.13,412.82L1465.4,412.63L1469.93,411.05L1472.19,410.18L1478.99,405.7L1481.25,403.04L1485.78,398.21L1488.05,394.99L1490.31,392.82L1492.58,388.7L1501.64,374.18L1503.9,368.91L1515.23,345.51L1517.49,340.71L1537.88,298.77L1540.14,294.69L1551.46,277.84L1553.73,275.5L1560.52,269.18L1562.79,267.54L1571.85,264.8L1574.11,264.61L1580.91,266.55L1583.17,267.88L1587.7,270.97L1589.97,273.7L1599.03,282.22L1601.29,286.27L1614.88,308.31L1617.15,312.5L1621.68,321.3L1623.94,324.66L1630.74,336.74L1633,340.96L1639.8,353.36L1642.06,356.32L1648.86,366.45L1651.12,369.87L1660.18,381.6L1662.45,383.75L1673.77,393.7L1676.04,395.33L1685.09,399.82L1687.36,400.62L1694.15,402.06L1696.42,402.17L1705.48,401.06L1707.74,400.14L1712.27,398.57L1714.54,397.24L1721.33,392.87L1723.6,391.25L1732.66,382.69L1734.92,379.93L1741.72,371.02L1743.98,368L1753.04,354.92L1755.31,351.37L1768.9,328.05L1771.16,323.68L1796.08,279.89L1798.34,276.99L1816.46,252.18L1818.72,249.23L1827.78,239.33L1830.05,237.8L1839.11,228.59L1841.37,225.77L1850.43,219.37L1852.7,216.49L1866.29,201.66L1868.55,199.33L1882.14,179.17L1884.41,174.25L1895.73,152.78L1898,146.74L1913.85,111.73L1916.12,109.08L1920.65,99.11L1922.91,97.64L1927.44,89.68L1929.71,88.67L1931.97,85.45L1934.24,84.06L1938.76,82.14L1941.03,82.58L1943.29,82.08L1945.56,82.75L1947.82,84.15L1950.09,87.55L1952.35,88.45L1954.62,93.15L1956.88,96.4L1959.15,102.77L1961.41,103.26L1963.68,111.17L1968.21,123.98L1970.47,133.05L1972.74,137.08L1975,147.11L1979.53,166.19L1981.8,180.51L1984.06,186.68L1986.33,197.52L1990.86,223.67L1993.12,240.81L2011.24,353.33L2013.51,365.73L2022.57,410.1L2024.83,419.56L2033.89,452.61L2036.16,460.04L2049.75,496.98L2052.01,501.98L2058.81,516.43L2061.07,523.75L2076.92,556.42L2079.19,563.32L2085.98,578.05L2088.25,580.77L2108.63,635.79L2110.9,642.81L2122.22,671.5L2124.49,679.21L2129.02,693.62L2131.28,698.54L2133.55,702.86L2135.81,710.24L2142.61,726.52L2144.87,729.19L2147.14,735.02L2149.4,737.77L2156.2,747.53L2158.46,750.13L2160.73,752.16L2162.99,752.8L2165.26,754.87L2167.52,755.26L2169.79,754.09L2172.05,755.16L2176.58,753.65L2178.85,752.49L2185.64,743.59L2187.91,737.67L2190.17,736.36L2192.44,731.65L2203.76,703.13L2206.02,692.53L2215.08,655.71L2217.35,648.35L2226.41,608.82L2228.67,595.47L2244.53,536.6L2246.79,529.58L2255.85,503.28L2258.12,497.21L2267.18,475.96L2269.44,472.3L2280.77,453.51L2283.03,451.79L2292.09,438.58L2294.36,435.72L2301.15,428.26L2303.42,425.72L2307.95,420.65L2310.21,419.47L2323.8,407.56L2326.06,405.94L2341.92,396.72L2344.18,395.79L2355.51,392.29L2357.77,391.96L2378.16,392.2L2380.42,392.7L2391.75,394.73L2394.01,395.28L2409.87,396.78L2412.13,396.39L2418.93,394.92L2421.19,394.14L2430.25,390.14L2432.52,388.74L2441.58,380.92L2443.84,377.95L2446.11,374.32L2448.37,372.7L2457.43,359.06L2459.69,355.1L2461.96,351.45L2464.22,349.83L2475.55,325.27L2477.81,323.22L2486.87,300.81L2489.14,295.17L2491.4,290.15L2493.67,288.87L2507.26,253.66L2509.52,251.38L2523.11,224L2525.38,221.7L2534.44,209.88L2536.7,207.11L2541.23,203.64L2543.5,202.46L2557.09,197.47L2559.35,197.94L2561.62,198.53L2563.88,197.83L2568.41,202.04L2570.68,203.11L2575.21,205.79L2577.47,208.07L2579.74,210.65L2582,211.21" style="vector-effect: non-scaling-stroke; fill: none; stroke: rgb(0, 170, 0); stroke-opacity: 1; stroke-width: 4px; opacity: 1;"/></g><g class="points"/><g class="text"/></g></g></g><g class="overplot"/><path class="xlines-above crisp" d="M0,0" style="fill: none;"/><path class="ylines-above crisp" d="M0,0" style="fill: none;"/><g class="overlines-above"/><g class="xaxislayer-above"><g class="xtick"><text text-anchor="middle" x="0" y="934" transform="translate(160,0)" style="font-family: 'Open Sans', verdana, arial, sans-serif; font-size: 37px; fill: rgb(42, 63, 95); fill-opacity: 1; white-space: pre; opacity: 1;">0</text></g><g class="xtick"><text text-anchor="middle" x="0" y="934" style="font-family: 'Open Sans', verdana, arial, sans-serif; font-size: 37px; fill: rgb(42, 63, 95); fill-opacity: 1; white-space: pre; opacity: 1;" transform="translate(612.98,0)">200</text></g><g class="xtick"><text text-anchor="middle" x="0" y="934" style="font-family: 'Open Sans', verdana, arial, sans-serif; font-size: 37px; fill: rgb(42, 63, 95); fill-opacity: 1; white-space: pre; opacity: 1;" transform="translate(1065.96,0)">400</text></g><g class="xtick"><text text-anchor="middle" x="0" y="934" style="font-family: 'Open Sans', verdana, arial, sans-serif; font-size: 37px; fill: rgb(42, 63, 95); fill-opacity: 1; white-space: pre; opacity: 1;" transform="translate(1518.95,0)">600</text></g><g class="xtick"><text text-anchor="middle" x="0" y="934" style="font-family: 'Open Sans', verdana, arial, sans-serif; font-size: 37px; fill: rgb(42, 63, 95); fill-opacity: 1; white-space: pre; opacity: 1;" transform="translate(1971.93,0)">800</text></g><g class="xtick"><text text-anchor="middle" x="0" y="934" style="font-family: 'Open Sans', verdana, arial, sans-serif; font-size: 37px; fill: rgb(42, 63, 95); fill-opacity: 1; white-space: pre; opacity: 1;" transform="translate(2424.91,0)">1000</text></g></g><g class="yaxislayer-above"><g class="ytick"><text text-anchor="end" x="159" y="12.95" transform="translate(0,830.76)" style="font-family: 'Open Sans', verdana, arial, sans-serif; font-size: 37px; fill: rgb(42, 63, 95); fill-opacity: 1; white-space: pre; opacity: 1;">−200</text></g><g class="ytick"><text text-anchor="end" x="159" y="12.95" style="font-family: 'Open Sans', verdana, arial, sans-serif; font-size: 37px; fill: rgb(42, 63, 95); fill-opacity: 1; white-space: pre; opacity: 1;" transform="translate(0,750.87)">−150</text></g><g class="ytick"><text text-anchor="end" x="159" y="12.95" style="font-family: 'Open Sans', verdana, arial, sans-serif; font-size: 37px; fill: rgb(42, 63, 95); fill-opacity: 1; white-space: pre; opacity: 1;" transform="translate(0,670.98)">−100</text></g><g class="ytick"><text text-anchor="end" x="159" y="12.95" style="font-family: 'Open Sans', verdana, arial, sans-serif; font-size: 37px; fill: rgb(42, 63, 95); fill-opacity: 1; white-space: pre; opacity: 1;" transform="translate(0,591.1)">−50</text></g><g class="ytick"><text text-anchor="end" x="159" y="12.95" style="font-family: 'Open Sans', verdana, arial, sans-serif; font-size: 37px; fill: rgb(42, 63, 95); fill-opacity: 1; white-space: pre; opacity: 1;" transform="translate(0,511.21)">0</text></g><g class="ytick"><text text-anchor="end" x="159" y="12.95" style="font-family: 'Open Sans', verdana, arial, sans-serif; font-size: 37px; fill: rgb(42, 63, 95); fill-opacity: 1; white-space: pre; opacity: 1;" transform="translate(0,431.32)">50</text></g><g class="ytick"><text text-anchor="end" x="159" y="12.95" style="font-family: 'Open Sans', verdana, arial, sans-serif; font-size: 37px; fill: rgb(42, 63, 95); fill-opacity: 1; white-space: pre; opacity: 1;" transform="translate(0,351.43)">100</text></g><g class="ytick"><text text-anchor="end" x="159" y="12.95" style="font-family: 'Open Sans', verdana, arial, sans-serif; font-size: 37px; fill: rgb(42, 63, 95); fill-opacity: 1; white-space: pre; opacity: 1;" transform="translate(0,271.53999999999996)">150</text></g><g class="ytick"><text text-anchor="end" x="159" y="12.95" style="font-family: 'Open Sans', verdana, arial, sans-serif; font-size: 37px; fill: rgb(42, 63, 95); fill-opacity: 1; white-space: pre; opacity: 1;" transform="translate(0,191.66)">200</text></g><g class="ytick"><text text-anchor="end" x="159" y="12.95" style="font-family: 'Open Sans', verdana, arial, sans-serif; font-size: 37px; fill: rgb(42, 63, 95); fill-opacity: 1; white-space: pre; opacity: 1;" transform="translate(0,111.77)">250</text></g></g><g class="overaxes-above"/></g></g><g class="polarlayer"/><g class="ternarylayer"/><g class="geolayer"/><g class="funnelarealayer"/><g class="pielayer"/><g class="iciclelayer"/><g class="treemaplayer"/><g class="sunburstlayer"/><g class="glimages"/><defs id="topdefs-9ebb19"><g class="clips"/><clipPath id="legend9ebb19"><rect width="694" height="113" x="0" y="0"/></clipPath></defs><g class="layer-above"><g class="imagelayer"/><g class="shapelayer"/></g><g class="infolayer"><g class="legend" pointer-events="all" transform="translate(2793.64,100)"><rect class="bg" shape-rendering="crispEdges" width="694" height="113" x="0" y="0" style="stroke: rgb(68, 68, 68); stroke-opacity: 1; fill: rgb(255, 255, 255); fill-opacity: 1; stroke-width: 0px;"/><g class="scrollbox" transform="" clip-path="url(#legend9ebb19)"><g class="groups"><g class="traces" transform="translate(0,30.55)" style="opacity: 1;"><text class="legendtext" text-anchor="start" x="40" y="14.43" style="font-family: 'Open Sans', verdana, arial, sans-serif; font-size: 37px; fill: rgb(42, 63, 95); fill-opacity: 1; white-space: pre;">Predicted Curvature at Anchors #1</text><g class="layers" style="opacity: 1;"><g class="legendfill"/><g class="legendlines"><path class="js-line" d="M5,0h30" style="fill: none; stroke: rgb(170, 0, 0); stroke-opacity: 1; stroke-width: 4px;"/></g><g class="legendsymbols"><g class="legendpoints"/></g></g><rect class="legendtoggle" x="0" y="-25.55" width="688.125" height="51.1" style="fill: rgb(0, 0, 0); fill-opacity: 0;"/></g><g class="traces" transform="translate(0,81.65)" style="opacity: 1;"><text class="legendtext" text-anchor="start" x="40" y="14.43" style="font-family: 'Open Sans', verdana, arial, sans-serif; font-size: 37px; fill: rgb(42, 63, 95); fill-opacity: 1; white-space: pre;">Predicted Curvature at Anchors #2</text><g class="layers" style="opacity: 1;"><g class="legendfill"/><g class="legendlines"><path class="js-line" d="M5,0h30" style="fill: none; stroke: rgb(0, 170, 0); stroke-opacity: 1; stroke-width: 4px;"/></g><g class="legendsymbols"><g class="legendpoints"/></g></g><rect class="legendtoggle" x="0" y="-25.55" width="688.125" height="51.1" style="fill: rgb(0, 0, 0); fill-opacity: 0;"/></g></g></g><rect class="scrollbar" rx="20" ry="3" width="0" height="0" x="0" y="0" style="fill: rgb(128, 139, 164); fill-opacity: 1;"/></g><g class="g-gtitle"/><g class="g-xtitle"><text class="xtitle" x="1451" y="987.8" text-anchor="middle" style="font-family: 'Open Sans', verdana, arial, sans-serif; font-size: 44px; fill: rgb(42, 63, 95); opacity: 1; font-weight: normal; white-space: pre;">Anchor Point Index</text></g><g class="g-ytitle" transform="translate(31.6591796875,0)"><text class="ytitle" transform="rotate(-90,12.340624999999989,498)" x="12.340624999999989" y="498" text-anchor="middle" style="font-family: 'Open Sans', verdana, arial, sans-serif; font-size: 44px; fill: rgb(42, 63, 95); opacity: 1; font-weight: normal; white-space: pre;">Predicted Curvature</text></g><g class="annotation" data-index="0" style="opacity: 1;"><g class="annotation-text-g" transform="rotate(0,1451,75.49999999999994)"><g class="cursor-pointer" transform="translate(585,51)"><rect class="bg" x="0.5" y="0.5" width="1732" height="48" style="stroke-width: 1px; stroke: rgb(0, 0, 0); stroke-opacity: 0; fill: rgb(0, 0, 0); fill-opacity: 0;"/><text class="annotation-text" text-anchor="middle" x="866.546875" y="39" style="font-family: 'Open Sans', verdana, arial, sans-serif; font-size: 37px; fill: rgb(42, 63, 95); fill-opacity: 1; white-space: pre;"><tspan style="font-weight:bold">Predicted Curvature at Anchors (Transformed Curve #1 vs. Transformed Curve #2)</tspan></text></g></g></g></g></svg>