<?xml version="1.0" encoding="utf-8" standalone="no"?>
<!DOCTYPE svg PUBLIC "-//W3C//DTD SVG 1.1//EN"
  "http://www.w3.org/Graphics/SVG/1.1/DTD/svg11.dtd">
<svg xmlns:xlink="http://www.w3.org/1999/xlink" width="2160pt" height="2160pt" viewBox="0 0 2160 2160" xmlns="http://www.w3.org/2000/svg" version="1.1">
 <metadata>
  <rdf:RDF xmlns:dc="http://purl.org/dc/elements/1.1/" xmlns:cc="http://creativecommons.org/ns#" xmlns:rdf="http://www.w3.org/1999/02/22-rdf-syntax-ns#">
   <cc:Work>
    <dc:type rdf:resource="http://purl.org/dc/dcmitype/StillImage"/>
    <dc:date>2022-03-06T19:21:07.273632</dc:date>
    <dc:format>image/svg+xml</dc:format>
    <dc:creator>
     <cc:Agent>
      <dc:title>Matplotlib v3.5.1, https://matplotlib.org/</dc:title>
     </cc:Agent>
    </dc:creator>
   </cc:Work>
  </rdf:RDF>
 </metadata>
 <defs>
  <style type="text/css">*{stroke-linejoin: round; stroke-linecap: butt}</style>
 </defs>
 <g id="figure_1">
  <g id="patch_1">
   <path d="M 0 2160 
L 2160 2160 
L 2160 0 
L 0 0 
L 0 2160 
z
" style="fill: none"/>
  </g>
  <g id="axes_1">
   <g id="line2d_1">
    <path d="M 1257.636748 1371.868297 
L 1255.340905 1371.540585 
L 1253.138416 1371.06427 
L 1251.034339 1370.43824 
L 1249.033353 1369.662054 
L 1247.139704 1368.735935 
L 1245.357144 1367.660749 
L 1243.68889 1366.437982 
L 1242.137566 1365.069724 
L 1240.705168 1363.558632 
L 1239.393022 1361.907906 
L 1238.201754 1360.121256 
L 1237.131261 1358.202864 
L 1236.180693 1356.157351 
L 1235.348441 1353.98974 
L 1234.316492 1350.521251 
L 1233.533973 1346.809702 
L 1232.985834 1342.875897 
L 1232.653373 1338.741655 
L 1232.514466 1334.429522 
L 1232.586292 1328.443058 
L 1232.889706 1322.236104 
L 1233.615312 1312.630981 
L 1234.774959 1297.907102 
L 1235.107597 1291.365851 
L 1235.216435 1284.888656 
L 1235.107636 1280.096815 
L 1234.804605 1275.378941 
L 1234.282372 1270.74954 
L 1233.519036 1266.22215 
L 1232.496045 1261.809412 
L 1231.198411 1257.523158 
L 1229.614869 1253.374505 
L 1227.737975 1249.373959 
L 1226.321808 1246.794168 
L 1224.77347 1244.287516 
L 1223.093595 1241.856799 
L 1221.283547 1239.504755 
L 1219.345404 1237.23408 
L 1217.281933 1235.047435 
L 1213.959407 1231.930782 
L 1210.376932 1229.017927 
L 1206.551573 1226.317592 
L 1202.502954 1223.838419 
L 1198.252898 1221.588936 
L 1193.825025 1219.577507 
L 1189.244337 1217.812251 
L 1184.536771 1216.300927 
L 1179.728752 1215.050805 
L 1174.846731 1214.068506 
L 1169.91673 1213.359819 
L 1164.963895 1212.929506 
L 1160.012071 1212.781089 
L 1155.083403 1212.91663 
L 1150.197977 1213.336505 
L 1145.373497 1214.039181 
L 1140.625029 1215.021011 
L 1135.964793 1216.27603 
L 1131.402027 1217.795797 
L 1126.942924 1219.569247 
L 1122.590641 1221.582603 
L 1118.345383 1223.81932 
L 1114.204568 1226.260082 
L 1110.163062 1228.882863 
L 1106.213481 1231.663031 
L 1101.074144 1235.567635 
L 1094.816851 1240.666389 
L 1075.42612 1256.882001 
L 1070.604637 1260.482807 
L 1066.977112 1262.963406 
L 1063.338855 1265.220985 
L 1059.692139 1267.226939 
L 1056.042211 1268.955295 
L 1052.397283 1270.383065 
L 1048.76843 1271.490548 
L 1045.169395 1272.261562 
L 1042.794486 1272.582322 
L 1040.445265 1272.745145 
L 1038.12739 1272.748021 
L 1035.846811 1272.589691 
L 1033.609712 1272.269644 
L 1031.422443 1271.788101 
L 1029.291454 1271.145991 
L 1027.223222 1270.34493 
L 1025.224187 1269.387186 
L 1023.300675 1268.275645 
L 1021.458839 1267.013768 
L 1019.704586 1265.605544 
L 1018.043514 1264.055446 
L 1016.480858 1262.368374 
L 1015.021432 1260.549606 
L 1013.669579 1258.604738 
L 1012.429127 1256.53963 
L 1011.303352 1254.36035 
L 1010.294948 1252.073111 
L 1009.006799 1248.453642 
L 1007.991656 1244.626861 
L 1007.250661 1240.61395 
L 1006.781725 1236.435515 
L 1006.579599 1232.111251 
L 1006.636022 1227.659654 
L 1006.939911 1223.097782 
L 1007.477616 1218.441077 
L 1008.233201 1213.703235 
L 1009.18876 1208.89615 
L 1010.739925 1202.396163 
L 1012.561898 1195.809896 
L 1015.139992 1187.476743 
L 1018.535188 1177.352894 
L 1027.329707 1151.551684 
L 1030.022524 1142.824844 
L 1031.989917 1135.815395 
L 1033.748066 1128.796012 
L 1035.260285 1121.785159 
L 1036.492843 1114.805937 
L 1037.21511 1109.608743 
L 1037.750817 1104.458024 
L 1038.089047 1099.368157 
L 1038.21987 1094.354478 
L 1038.134376 1089.433022 
L 1037.824705 1084.620237 
L 1037.284094 1079.932656 
L 1036.506912 1075.386562 
L 1035.4887 1070.997628 
L 1034.226202 1066.780566 
L 1032.717395 1062.748789 
L 1030.961499 1058.914096 
L 1028.958988 1055.286388 
L 1026.711581 1051.873434 
L 1024.22222 1048.680688 
L 1021.495041 1045.711166 
L 1018.535328 1042.96539 
L 1015.349464 1040.441399 
L 1011.944867 1038.134838 
L 1008.329929 1036.039105 
L 1004.51395 1034.145582 
L 1000.507072 1032.44391 
L 996.320222 1030.922334 
L 991.965057 1029.568089 
L 987.453916 1028.367816 
L 981.218978 1026.983667 
L 974.762421 1025.818343 
L 968.118647 1024.843764 
L 959.606057 1023.858575 
L 950.932502 1023.10311 
L 942.17697 1022.56356 
L 933.422181 1022.246192 
L 924.753667 1022.177331 
L 917.939364 1022.330551 
L 911.280154 1022.700751 
L 904.819134 1023.322077 
L 900.128156 1023.974898 
L 895.58783 1024.805339 
L 891.212909 1025.828778 
L 887.016522 1027.059732 
L 883.009883 1028.51136 
L 879.202018 1030.195011 
L 875.599516 1032.119812 
L 872.206309 1034.292311 
L 869.023494 1036.716184 
L 866.049211 1039.39202 
L 863.27857 1042.317175 
L 860.703649 1045.485712 
L 858.313549 1048.888413 
L 856.094529 1052.512875 
L 854.030195 1056.34367 
L 852.101766 1060.362571 
L 849.705645 1065.977539 
L 847.459944 1071.834723 
L 844.247142 1080.941351 
L 838.818722 1096.430226 
L 836.45963 1102.541154 
L 833.920492 1108.507305 
L 831.87411 1112.850688 
L 829.690702 1117.055146 
L 827.359486 1121.09862 
L 824.872519 1124.960825 
L 822.224701 1128.623383 
L 819.413707 1132.069926 
L 816.439851 1135.286179 
L 813.305883 1138.260017 
L 810.016738 1140.981507 
L 806.579232 1143.442931 
L 803.001729 1145.638797 
L 799.293789 1147.565832 
L 795.465803 1149.222967 
L 791.528634 1150.611297 
L 787.493269 1151.73404 
L 783.370499 1152.596463 
L 779.170641 1153.2058 
L 774.903286 1153.571143 
L 770.577117 1153.703307 
L 766.199765 1153.614678 
L 761.777726 1153.319021 
L 757.31634 1152.83127 
L 751.313741 1151.909637 
L 745.255683 1150.714062 
L 739.14656 1149.284672 
L 731.441919 1147.229351 
L 722.099675 1144.4644 
L 709.490365 1140.444704 
L 691.945338 1134.573123 
L 677.577834 1129.538765 
L 668.118897 1126.001932 
L 660.387627 1122.877912 
L 654.345448 1120.221061 
L 648.466162 1117.38867 
L 642.783762 1114.347584 
L 638.671638 1111.910608 
L 634.703514 1109.325988 
L 630.893145 1106.582759 
L 627.253792 1103.671665 
L 623.798124 1100.585465 
L 620.538132 1097.319184 
L 617.485073 1093.870321 
L 614.649431 1090.238989 
L 612.040902 1086.428003 
L 609.668389 1082.4429 
L 607.540014 1078.291914 
L 605.663134 1073.985882 
L 604.044363 1069.538113 
L 602.689592 1064.96421 
L 601.603998 1060.281852 
L 600.792049 1055.510556 
L 600.257491 1050.671407 
L 600.003325 1045.786784 
L 600.031767 1040.880077 
L 600.34419 1035.975395 
L 600.941053 1031.097299 
L 601.821823 1026.270522 
L 602.984883 1021.519724 
L 604.427443 1016.869246 
L 606.14545 1012.342897 
L 608.133504 1007.963748 
L 610.384797 1003.753952 
L 612.891057 999.734572 
L 615.642531 995.925435 
L 618.627981 992.344985 
L 621.834731 989.010159 
L 625.248728 985.936263 
L 627.632349 984.03873 
L 630.096476 982.266793 
L 632.636092 980.623632 
L 635.246003 979.112033 
L 637.920877 977.734369 
L 642.043053 975.923154 
L 646.280442 974.422314 
L 650.614243 973.23427 
L 655.025816 972.359054 
L 659.496976 971.794222 
L 664.010279 971.534806 
L 668.549305 971.573267 
L 673.098917 971.899481 
L 677.645495 972.500756 
L 682.177137 973.361878 
L 686.683815 974.465189 
L 691.157491 975.790715 
L 695.592176 977.316321 
L 699.983945 979.017911 
L 705.769864 981.515616 
L 711.477059 984.21506 
L 719.904987 988.492506 
L 736.443566 997.002776 
L 741.922389 999.57803 
L 747.411716 1001.919508 
L 751.544005 1003.489782 
L 755.694596 1004.878319 
L 759.866753 1006.067465 
L 764.06223 1007.042037 
L 768.281135 1007.789373 
L 772.521823 1008.299324 
L 776.780846 1008.56419 
L 781.052949 1008.578604 
L 785.331109 1008.339382 
L 789.606617 1007.845316 
L 793.869206 1007.096951 
L 798.107209 1006.096335 
L 802.307761 1004.846754 
L 806.457016 1003.352473 
L 810.540399 1001.618472 
L 814.542867 999.65021 
L 818.449186 997.453403 
L 822.244213 995.033838 
L 825.913181 992.397226 
L 829.441975 989.549089 
L 832.81741 986.4947 
L 836.027482 983.239063 
L 839.061617 979.786941 
L 841.910895 976.142926 
L 844.568246 972.311547 
L 847.028637 968.297413 
L 849.289216 964.105388 
L 851.349437 959.740775 
L 853.211151 955.209518 
L 854.878665 950.518405 
L 856.358771 945.675262 
L 857.660733 940.689127 
L 858.796244 935.570403 
L 860.075933 928.559954 
L 861.124335 921.367605 
L 862.179885 912.178984 
L 863.207922 900.974025 
L 865.042757 880.458041 
L 865.895017 873.182147 
L 866.942082 866.091023 
L 867.889768 860.925664 
L 869.00187 855.914885 
L 870.299299 851.078338 
L 871.801013 846.434009 
L 873.523768 841.997953 
L 875.48191 837.784065 
L 876.924031 835.104037 
L 878.47888 832.530748 
L 880.148733 830.066506 
L 881.935319 827.71311 
L 883.839809 825.471845 
L 885.862825 823.343481 
L 888.004442 821.328284 
L 890.264201 819.426025 
L 892.64112 817.635994 
L 895.133721 815.957019 
L 897.740041 814.387489 
L 901.857344 812.233871 
L 906.215068 810.31344 
L 910.801384 808.616065 
L 915.602811 807.130163 
L 920.604502 805.842965 
L 925.790522 804.740787 
L 931.144151 803.809293 
L 936.648163 803.033748 
L 944.190607 802.216536 
L 951.928189 801.615009 
L 961.813615 801.114484 
L 971.867284 800.834336 
L 984.058937 800.706968 
L 1002.39851 800.756758 
L 1032.46304 800.852902 
L 1046.070938 800.662797 
L 1057.450138 800.279828 
L 1066.705718 799.761384 
L 1075.735466 799.026872 
L 1082.7853 798.26244 
L 1089.671817 797.32413 
L 1096.387798 796.197568 
L 1102.92702 794.869661 
L 1109.284549 793.32888 
L 1115.457062 791.565548 
L 1121.443166 789.572099 
L 1127.243689 787.343311 
L 1132.861927 784.876519 
L 1138.303803 782.171798 
L 1143.577943 779.232122 
L 1148.695638 776.063511 
L 1153.670696 772.675171 
L 1158.51918 769.079637 
L 1163.259032 765.292917 
L 1169.060659 760.32096 
L 1174.76237 755.128056 
L 1182.652218 747.596449 
L 1198.466455 732.365312 
L 1204.213318 727.162959 
L 1208.865045 723.20281 
L 1213.566554 719.482663 
L 1218.315003 716.0597 
L 1221.90313 713.721885 
L 1225.509433 711.607005 
L 1229.128256 709.737924 
L 1232.752752 708.136395 
L 1236.374936 706.82271 
L 1239.985765 705.815353 
L 1243.575211 705.130662 
L 1245.950939 704.86042 
L 1248.308891 704.743249 
L 1250.645487 704.782006 
L 1252.957016 704.978941 
L 1255.239651 705.335662 
L 1257.489462 705.853117 
L 1259.702431 706.531573 
L 1261.874471 707.370605 
L 1264.001433 708.369091 
L 1266.079131 709.525205 
L 1268.103351 710.836425 
L 1270.069871 712.299543 
L 1271.974475 713.910682 
L 1273.81297 715.665315 
L 1276.437696 718.554897 
L 1278.890606 721.735816 
L 1281.158388 725.185595 
L 1283.228301 728.879442 
L 1285.088324 732.790648 
L 1286.727307 736.89102 
L 1288.135118 741.151347 
L 1289.302799 745.541885 
L 1290.222716 750.032844 
L 1290.888698 754.594884 
L 1291.296173 759.199592 
L 1291.44229 763.819942 
L 1291.326019 768.430722 
L 1290.94823 773.00893 
L 1290.311753 777.534116 
L 1289.421398 781.988677 
L 1288.283953 786.35809 
L 1286.908146 790.631086 
L 1285.304571 794.799757 
L 1283.485583 798.859598 
L 1281.465162 802.809479 
L 1279.25874 806.651557 
L 1276.883016 810.391118 
L 1274.355733 814.036371 
L 1270.782431 818.769123 
L 1267.018224 823.38586 
L 1262.114962 829.051862 
L 1244.929069 848.546392 
L 1241.001535 853.429345 
L 1237.192301 858.501398 
L 1233.531646 863.788047 
L 1230.047409 869.306424 
L 1227.565664 873.602356 
L 1225.208226 878.032891 
L 1222.985315 882.594452 
L 1220.907084 887.280214 
L 1218.983764 892.080164 
L 1217.225791 896.981211 
L 1215.643914 901.967372 
L 1214.249249 907.020013 
L 1213.053304 912.118157 
L 1212.06796 917.23883 
L 1211.305392 922.357475 
L 1210.777955 927.448394 
L 1210.498019 932.485223 
L 1210.477754 937.441441 
L 1210.728893 942.290885 
L 1211.26245 947.008271 
L 1212.088423 951.569718 
L 1212.805874 954.513099 
L 1213.659355 957.371408 
L 1214.650679 960.139224 
L 1215.781259 962.81171 
L 1217.052064 965.38466 
L 1218.463589 967.854543 
L 1220.015825 970.218544 
L 1221.708226 972.474594 
L 1223.539693 974.621398 
L 1225.508549 976.658451 
L 1227.612529 978.586057 
L 1229.84877 980.405324 
L 1232.21381 982.118168 
L 1234.703589 983.7273 
L 1238.661813 985.954372 
L 1242.872003 987.971017 
L 1247.313305 989.795673 
L 1251.962322 991.449971 
L 1256.793369 992.958329 
L 1263.469864 994.788944 
L 1272.094159 996.883625 
L 1293.22212 1001.83237 
L 1300.13461 1003.700032 
L 1306.859771 1005.779674 
L 1311.73945 1007.508993 
L 1316.448174 1009.40338 
L 1320.960595 1011.476865 
L 1325.253243 1013.739868 
L 1329.304647 1016.199121 
L 1333.095423 1018.857667 
L 1336.608345 1021.71496 
L 1338.788416 1023.728414 
L 1340.834364 1025.826541 
L 1342.742728 1028.006791 
L 1344.510488 1030.26608 
L 1346.135066 1032.60084 
L 1347.614334 1035.007075 
L 1348.946603 1037.48042 
L 1350.130637 1040.016207 
L 1351.165642 1042.609522 
L 1352.051276 1045.255277 
L 1352.787647 1047.948269 
L 1353.375317 1050.683249 
L 1353.815304 1053.454979 
L 1354.201736 1057.670221 
L 1354.266251 1061.939739 
L 1354.018149 1066.247749 
L 1353.469107 1070.579837 
L 1352.633184 1074.923227 
L 1351.52681 1079.266974 
L 1350.168758 1083.602084 
L 1348.580085 1087.921547 
L 1346.784047 1092.220297 
L 1344.110829 1097.914387 
L 1341.179496 1103.562825 
L 1337.260164 1110.560685 
L 1323.038568 1135.289505 
L 1320.336918 1140.696726 
L 1318.521408 1144.724782 
L 1316.917331 1148.723211 
L 1315.54997 1152.684596 
L 1314.442013 1156.599869 
L 1313.613279 1160.458461 
L 1313.080491 1164.24852 
L 1312.857093 1167.957197 
L 1312.953125 1171.570995 
L 1313.197992 1173.920684 
L 1313.588897 1176.218027 
L 1314.126237 1178.459054 
L 1314.809727 1180.639937 
L 1315.638424 1182.757049 
L 1316.610736 1184.807015 
L 1317.724451 1186.786769 
L 1318.976763 1188.693592 
L 1320.364301 1190.525167 
L 1321.883165 1192.279606 
L 1324.397968 1194.763659 
L 1327.181594 1197.068361 
L 1330.215419 1199.19359 
L 1333.479224 1201.14184 
L 1336.951561 1202.918162 
L 1340.610132 1204.530006 
L 1344.432165 1205.986989 
L 1348.394787 1207.300572 
L 1353.85799 1208.85145 
L 1359.479277 1210.203775 
L 1366.654802 1211.667548 
L 1375.374034 1213.177066 
L 1386.995285 1214.924791 
L 1404.081648 1217.241531 
L 1416.549502 1218.753339 
L 1426.111292 1219.697632 
L 1434.291084 1220.266469 
L 1441.148545 1220.530027 
L 1448.082972 1220.582201 
L 1455.123735 1220.421224 
L 1463.735987 1219.973422 
L 1474.002407 1219.193962 
L 1493.385172 1217.658049 
L 1500.749699 1217.310098 
L 1506.506143 1217.23215 
L 1512.080367 1217.383997 
L 1516.105063 1217.674797 
L 1519.967215 1218.135209 
L 1523.64109 1218.779055 
L 1527.101758 1219.617756 
L 1530.325628 1220.660197 
L 1533.290975 1221.912685 
L 1535.978419 1223.378966 
L 1537.607334 1224.475997 
L 1539.10114 1225.668479 
L 1540.456348 1226.955797 
L 1541.670166 1228.336938 
L 1542.740526 1229.810533 
L 1543.6661 1231.37489 
L 1544.446311 1233.028031 
L 1545.081334 1234.767735 
L 1545.572084 1236.591573 
L 1545.920205 1238.496948 
L 1546.180267 1241.501891 
L 1546.135525 1244.674519 
L 1545.799711 1248.004934 
L 1545.1892 1251.483119 
L 1544.322547 1255.099058 
L 1543.219966 1258.842802 
L 1541.4198 1264.016208 
L 1539.289944 1269.375903 
L 1536.2416 1276.301275 
L 1532.850631 1283.431875 
L 1528.440644 1292.183594 
L 1522.954008 1302.525715 
L 1518.026486 1311.355632 
L 1513.775439 1318.573128 
L 1509.38213 1325.555722 
L 1505.749177 1330.899669 
L 1501.993445 1335.965642 
L 1499.085154 1339.547603 
L 1496.089842 1342.916307 
L 1493.000177 1346.048654 
L 1489.809595 1348.923029 
L 1486.512609 1351.519804 
L 1483.105076 1353.821824 
L 1479.584399 1355.814877 
L 1477.1739 1356.966422 
L 1474.712832 1357.973441 
L 1472.201707 1358.834406 
L 1469.641382 1359.548605 
L 1467.033053 1360.116166 
L 1464.378236 1360.538082 
L 1460.312917 1360.9022 
L 1456.15449 1360.953048 
L 1451.911492 1360.705058 
L 1447.593439 1360.176939 
L 1443.210564 1359.391454 
L 1438.773539 1358.375106 
L 1434.293192 1357.157738 
L 1428.270476 1355.278784 
L 1420.69723 1352.637808 
L 1398.042887 1344.444374 
L 1392.08017 1342.605164 
L 1387.637056 1341.415075 
L 1383.218506 1340.417108 
L 1378.823014 1339.634015 
L 1374.448 1339.084362 
L 1370.089954 1338.782245 
L 1365.744608 1338.737091 
L 1361.407128 1338.95354 
L 1357.072318 1339.43141 
L 1352.734849 1340.165752 
L 1348.389481 1341.146978 
L 1344.031308 1342.361063 
L 1339.655995 1343.789824 
L 1333.78963 1345.990235 
L 1327.881248 1348.471312 
L 1320.435278 1351.859393 
L 1296.348624 1363.081116 
L 1290.367715 1365.542162 
L 1284.464516 1367.705469 
L 1280.112143 1369.089587 
L 1275.844553 1370.239021 
L 1271.681289 1371.129412 
L 1267.642559 1371.739424 
L 1263.748861 1372.05094 
L 1260.020567 1372.049206 
L 1258.818007 1371.976963 
L 1258.818007 1371.976963 
" clip-path="url(#p67c89aaa59)" style="fill: none; stroke: #4169e1; stroke-width: 3; stroke-linecap: square"/>
   </g>
   <g id="line2d_2">
    <path d="M 1213.759011 1494.044963 
L 1212.131906 1493.582561 
L 1210.570962 1492.910482 
L 1209.079764 1492.027155 
L 1207.661629 1490.931958 
L 1206.319565 1489.625207 
L 1205.056232 1488.10812 
L 1203.87391 1486.3828 
L 1202.774458 1484.45219 
L 1201.759292 1482.320042 
L 1200.82935 1479.990871 
L 1199.595063 1476.139329 
L 1198.552714 1471.87685 
L 1197.698904 1467.226857 
L 1197.027489 1462.215352 
L 1196.529589 1456.870489 
L 1196.193661 1451.222146 
L 1195.973027 1443.27296 
L 1195.975226 1434.915951 
L 1196.220331 1424.014039 
L 1196.831381 1408.168915 
L 1197.6273 1387.373212 
L 1197.853882 1375.871609 
L 1197.832284 1366.798802 
L 1197.577455 1357.898677 
L 1197.207339 1351.366601 
L 1196.666349 1344.978464 
L 1195.941337 1338.7521 
L 1195.02168 1332.704204 
L 1193.899395 1326.850463 
L 1192.569206 1321.205701 
L 1191.028568 1315.784032 
L 1189.277649 1310.599003 
L 1187.319273 1305.663727 
L 1185.158818 1300.991005 
L 1182.804083 1296.593413 
L 1180.265118 1292.48338 
L 1177.554016 1288.673214 
L 1174.684686 1285.175105 
L 1171.672594 1282.001089 
L 1168.53448 1279.162968 
L 1166.38111 1277.46317 
L 1164.185019 1275.921036 
L 1161.951724 1274.53972 
L 1159.686787 1273.322225 
L 1157.395775 1272.271375 
L 1155.084216 1271.389778 
L 1152.757557 1270.679797 
L 1150.421121 1270.143505 
L 1148.08007 1269.782651 
L 1145.739362 1269.59862 
L 1143.403717 1269.592389 
L 1141.077585 1269.764484 
L 1138.765108 1270.114943 
L 1136.470095 1270.643271 
L 1134.195998 1271.348401 
L 1131.945884 1272.228658 
L 1129.722425 1273.281721 
L 1127.527877 1274.504591 
L 1125.364076 1275.893561 
L 1123.232428 1277.444198 
L 1120.097272 1280.06172 
L 1117.038098 1283.010403 
L 1114.054376 1286.265594 
L 1111.143654 1289.798754 
L 1108.301734 1293.577553 
L 1104.609486 1298.935468 
L 1101.012461 1304.57156 
L 1095.752723 1313.319331 
L 1087.181202 1327.738706 
L 1083.769672 1333.108983 
L 1080.349837 1338.079306 
L 1077.776358 1341.479224 
L 1075.195578 1344.550628 
L 1072.609807 1347.254335 
L 1070.023469 1349.555049 
L 1068.302059 1350.849507 
L 1066.585672 1351.943006 
L 1064.87711 1352.828526 
L 1063.179522 1353.500062 
L 1061.496381 1353.952654 
L 1059.831445 1354.182397 
L 1058.188725 1354.186454 
L 1056.572437 1353.963051 
L 1054.986964 1353.511466 
L 1053.436807 1352.832009 
L 1051.926536 1351.925993 
L 1050.460742 1350.795697 
L 1049.043989 1349.444323 
L 1047.680762 1347.875942 
L 1046.375419 1346.095435 
L 1045.132147 1344.108434 
L 1043.954915 1341.921249 
L 1042.320926 1338.280398 
L 1040.855028 1334.23031 
L 1039.56668 1329.798561 
L 1038.463365 1325.014199 
L 1037.550431 1319.907136 
L 1036.83098 1314.507555 
L 1036.305824 1308.845345 
L 1035.97348 1302.949582 
L 1035.83023 1296.848055 
L 1035.870218 1290.56686 
L 1036.08559 1284.130069 
L 1036.628613 1275.342944 
L 1037.438736 1266.362449 
L 1038.484481 1257.22533 
L 1040.069995 1245.626917 
L 1042.284997 1231.500577 
L 1045.556182 1212.377943 
L 1050.137144 1185.632529 
L 1052.444658 1170.865116 
L 1054.165448 1158.499121 
L 1055.644217 1146.120925 
L 1056.619711 1136.246458 
L 1057.385837 1126.435347 
L 1057.921841 1116.72961 
L 1058.209116 1107.176677 
L 1058.231267 1097.828201 
L 1057.974206 1088.738533 
L 1057.591066 1082.124367 
L 1057.040263 1075.709838 
L 1056.318637 1069.51706 
L 1055.423882 1063.566794 
L 1054.354562 1057.877965 
L 1053.110127 1052.467221 
L 1051.690911 1047.348532 
L 1050.098133 1042.532861 
L 1048.333877 1038.027904 
L 1046.401076 1033.837914 
L 1044.303473 1029.96363 
L 1042.045593 1026.402284 
L 1039.632693 1023.14773 
L 1037.070721 1020.190656 
L 1034.366267 1017.518899 
L 1031.526519 1015.117843 
L 1028.559222 1012.970903 
L 1025.472637 1011.060065 
L 1022.27551 1009.366483 
L 1018.977047 1007.871107 
L 1015.586896 1006.555323 
L 1012.115132 1005.40159 
L 1007.377361 1004.088266 
L 1002.539224 1003.003952 
L 997.628018 1002.126588 
L 992.672267 1001.444733 
L 987.701618 1000.958485 
L 982.74667 1000.679734 
L 977.838699 1000.631721 
L 973.009278 1000.847913 
L 969.457655 1001.208422 
L 965.980838 1001.761134 
L 962.591361 1002.52752 
L 959.301145 1003.529732 
L 956.121299 1004.78989 
L 953.061919 1006.329367 
L 950.131878 1008.16808 
L 948.254118 1009.569022 
L 946.439004 1011.115533 
L 944.688012 1012.811605 
L 943.002256 1014.660541 
L 941.382465 1016.664895 
L 939.077085 1019.966432 
L 936.920171 1023.623711 
L 934.908977 1027.634537 
L 933.038603 1031.992084 
L 931.302018 1036.68488 
L 929.690144 1041.696901 
L 928.191969 1047.00777 
L 926.348972 1054.511016 
L 924.650797 1062.433725 
L 922.673252 1072.807859 
L 919.276756 1092.282423 
L 916.527297 1107.572356 
L 914.381153 1118.26498 
L 912.507054 1126.548983 
L 910.465841 1134.504124 
L 908.813666 1140.209458 
L 907.051107 1145.659022 
L 905.17455 1150.826883 
L 903.182347 1155.689949 
L 901.074721 1160.228075 
L 898.853621 1164.424155 
L 896.522544 1168.264171 
L 894.086321 1171.737235 
L 891.550879 1174.835598 
L 888.922994 1177.554641 
L 887.123335 1179.155731 
L 885.28813 1180.587811 
L 883.419688 1181.851786 
L 881.520318 1182.949149 
L 879.592303 1183.881964 
L 877.637869 1184.652851 
L 875.659163 1185.264972 
L 873.658232 1185.722004 
L 871.637 1186.028121 
L 868.570965 1186.214605 
L 865.468656 1186.08955 
L 862.334676 1185.672378 
L 859.172811 1184.984163 
L 855.986042 1184.047283 
L 852.77661 1182.885048 
L 849.546098 1181.521288 
L 845.207713 1179.43075 
L 840.835136 1177.079867 
L 835.322687 1173.854412 
L 828.642313 1169.680754 
L 819.640087 1163.793258 
L 809.441619 1156.891631 
L 801.536344 1151.304527 
L 795.956955 1147.128022 
L 791.563471 1143.624008 
L 787.256122 1139.929812 
L 783.058257 1135.999645 
L 779.99614 1132.868927 
L 777.019311 1129.559678 
L 774.137891 1126.053516 
L 771.36181 1122.333633 
L 768.700708 1118.38531 
L 766.163851 1114.196388 
L 763.760063 1109.75768 
L 761.497673 1105.063303 
L 759.384478 1100.11094 
L 757.427725 1094.902009 
L 755.634096 1089.441765 
L 754.009715 1083.739298 
L 752.560156 1077.807466 
L 751.290457 1071.662747 
L 750.205134 1065.325032 
L 749.30819 1058.817347 
L 748.603129 1052.165542 
L 748.092946 1045.397936 
L 747.780126 1038.544931 
L 747.666611 1031.638626 
L 747.753779 1024.712405 
L 748.042392 1017.800544 
L 748.532548 1010.937817 
L 749.223621 1004.15913 
L 750.114195 997.499161 
L 751.202 990.992041 
L 752.483852 984.671047 
L 753.955596 978.568327 
L 755.612065 972.714652 
L 757.447047 967.139183 
L 759.453277 961.869267 
L 761.622447 956.930239 
L 763.945241 952.34525 
L 766.411393 948.13509 
L 769.009772 944.318033 
L 770.809644 941.999536 
L 772.659336 939.866672 
L 774.555068 937.922792 
L 776.492979 936.170649 
L 778.469153 934.61238 
L 780.479644 933.249488 
L 782.520501 932.082824 
L 784.587796 931.112572 
L 786.67765 930.338233 
L 788.786263 929.758613 
L 790.909936 929.371813 
L 793.045103 929.175221 
L 795.188354 929.165506 
L 797.336458 929.338615 
L 799.486386 929.689777 
L 801.635334 930.213505 
L 803.780737 930.903611 
L 806.987219 932.235496 
L 810.173949 933.900068 
L 813.335712 935.868099 
L 816.468753 938.107402 
L 819.570772 940.583127 
L 823.657202 944.187366 
L 827.688592 948.052515 
L 833.644776 954.12613 
L 843.40901 964.16019 
L 847.291827 967.863512 
L 851.179359 971.257227 
L 854.104343 973.55224 
L 857.041313 975.599877 
L 859.992908 977.374093 
L 862.960743 978.852295 
L 865.945291 980.015427 
L 868.945805 980.847992 
L 870.954077 981.21332 
L 872.967661 981.423606 
L 874.985391 981.476768 
L 877.005853 981.371334 
L 879.027389 981.106403 
L 881.048112 980.681606 
L 883.065917 980.097062 
L 885.078493 979.353336 
L 887.083343 978.451384 
L 890.070258 976.804716 
L 893.024155 974.81064 
L 895.934857 972.475887 
L 898.791791 969.80797 
L 901.584185 966.814864 
L 904.301261 963.504729 
L 906.932444 959.885678 
L 909.467554 955.965604 
L 911.897006 951.752071 
L 914.211994 947.252266 
L 916.404668 942.473014 
L 918.468298 937.420859 
L 920.397422 932.102201 
L 922.187979 926.523483 
L 923.837421 920.691417 
L 925.344809 914.613249 
L 926.710882 908.297033 
L 927.938109 901.751919 
L 929.365989 892.687457 
L 930.569615 883.26453 
L 931.569287 873.518772 
L 932.390481 863.492537 
L 933.212493 850.641254 
L 933.990287 834.902274 
L 935.807863 795.505129 
L 936.665851 782.867087 
L 937.538216 773.105946 
L 938.6176 763.73234 
L 939.583952 756.995696 
L 940.699225 750.538143 
L 941.974739 744.38135 
L 943.420064 738.543847 
L 945.042913 733.040778 
L 946.849059 727.883738 
L 948.842302 723.080679 
L 951.024456 718.635887 
L 952.584188 715.87221 
L 954.227346 713.26747 
L 955.953058 710.820335 
L 957.760101 708.52884 
L 959.646923 706.390414 
L 961.611657 704.401926 
L 963.652149 702.559721 
L 965.765973 700.859669 
L 967.950461 699.297209 
L 971.353321 697.200604 
L 974.89811 695.384371 
L 978.573537 693.8292 
L 982.367752 692.514863 
L 986.268546 691.420571 
L 990.263548 690.525307 
L 994.340411 689.808123 
L 999.88259 689.093339 
L 1005.520873 688.611308 
L 1012.664017 688.26806 
L 1021.314223 688.130279 
L 1032.867016 688.207743 
L 1051.377893 688.36568 
L 1059.714116 688.231011 
L 1066.528785 687.931447 
L 1073.20723 687.410684 
L 1078.442707 686.803272 
L 1083.575735 686.000712 
L 1088.600152 684.980092 
L 1093.510192 683.719437 
L 1098.300591 682.198077 
L 1101.812074 680.874483 
L 1105.252015 679.386291 
L 1108.619102 677.727022 
L 1111.912404 675.891056 
L 1115.131421 673.873717 
L 1118.276139 671.671349 
L 1121.347072 669.281396 
L 1124.345297 666.702464 
L 1127.272485 663.934381 
L 1130.13091 660.978256 
L 1132.923455 657.836525 
L 1136.550459 653.365621 
L 1140.076374 648.584681 
L 1143.512582 643.511389 
L 1146.871802 638.168335 
L 1150.983521 631.152914 
L 1155.024428 623.825736 
L 1160.616107 613.198654 
L 1171.823945 591.707552 
L 1175.896852 584.367042 
L 1179.193615 578.779279 
L 1182.525661 573.530159 
L 1185.890974 568.700367 
L 1188.433944 565.401714 
L 1190.989797 562.417622 
L 1193.554523 559.780353 
L 1196.123269 557.520599 
L 1198.690377 555.666992 
L 1200.397737 554.669891 
L 1202.09946 553.871952 
L 1203.793344 553.279515 
L 1205.477065 552.898205 
L 1207.148189 552.732876 
L 1208.804177 552.787563 
L 1210.4424 553.065438 
L 1212.060145 553.56877 
L 1213.654627 554.298898 
L 1215.222999 555.256198 
L 1216.762363 556.440071 
L 1218.26978 557.848933 
L 1219.742282 559.480207 
L 1221.176884 561.330335 
L 1222.570593 563.394793 
L 1224.577949 566.881123 
L 1226.476577 570.814882 
L 1228.256654 575.169474 
L 1229.908633 579.914388 
L 1231.423336 585.015672 
L 1232.792063 590.436475 
L 1234.006694 596.137642 
L 1235.059796 602.078363 
L 1235.944731 608.216842 
L 1236.655764 614.510991 
L 1237.188165 620.919121 
L 1237.538306 627.400634 
L 1237.703751 633.916671 
L 1237.683333 640.430744 
L 1237.477214 646.909299 
L 1237.086934 653.322232 
L 1236.515433 659.643323 
L 1235.767057 665.850601 
L 1234.847538 671.926614 
L 1233.76395 677.858611 
L 1232.524643 683.638636 
L 1231.139153 689.263515 
L 1229.082912 696.525292 
L 1226.813444 703.530388 
L 1224.360777 710.307712 
L 1221.756584 716.89754 
L 1218.337942 724.947548 
L 1212.640602 737.664212 
L 1206.881469 750.619162 
L 1203.352027 759.053049 
L 1199.935512 767.868977 
L 1197.312902 775.249976 
L 1194.810533 782.953086 
L 1192.447086 790.992733 
L 1190.240238 799.3695 
L 1188.207151 808.069605 
L 1186.364936 817.064883 
L 1184.731077 826.313285 
L 1183.323734 835.759899 
L 1182.161911 845.33845 
L 1181.265457 854.973257 
L 1180.654873 864.581589 
L 1180.397039 871.718147 
L 1180.320389 878.753417 
L 1180.433363 885.650231 
L 1180.743959 892.372422 
L 1181.259527 898.88555 
L 1181.986553 905.157627 
L 1182.930434 911.159793 
L 1184.095263 916.86695 
L 1185.483618 922.258329 
L 1187.096377 927.317978 
L 1188.932555 932.035167 
L 1190.279408 934.986892 
L 1191.722882 937.783831 
L 1193.261159 940.426978 
L 1194.891998 942.918471 
L 1196.612733 945.261574 
L 1198.420277 947.460665 
L 1200.311129 949.521199 
L 1203.294967 952.366682 
L 1206.442599 954.941267 
L 1209.737442 957.275478 
L 1213.161294 959.403769 
L 1216.694547 961.363869 
L 1221.539686 963.785583 
L 1230.241172 967.77882 
L 1237.739461 971.303478 
L 1242.66376 973.876474 
L 1246.280837 975.985363 
L 1249.80934 978.283562 
L 1253.229345 980.798759 
L 1256.522062 983.554018 
L 1259.669957 986.56746 
L 1262.656863 989.852059 
L 1265.468048 993.415571 
L 1268.09028 997.260581 
L 1270.511867 1001.384679 
L 1272.72268 1005.780748 
L 1274.714172 1010.437362 
L 1276.479384 1015.33927 
L 1278.012955 1020.467972 
L 1279.311118 1025.802338 
L 1280.371713 1031.319285 
L 1281.194189 1036.994462 
L 1281.779621 1042.802943 
L 1282.130716 1048.719894 
L 1282.25184 1054.721205 
L 1282.149022 1060.784059 
L 1281.829976 1066.887425 
L 1281.304103 1073.012471 
L 1280.58249 1079.14287 
L 1279.677891 1085.265001 
L 1278.212214 1093.396676 
L 1276.485438 1101.476692 
L 1274.540654 1109.495115 
L 1271.875426 1119.427481 
L 1267.887578 1133.175266 
L 1261.668499 1154.478792 
L 1259.127217 1164.054142 
L 1257.32226 1171.655597 
L 1255.772242 1179.1877 
L 1254.520261 1186.626611 
L 1253.79954 1192.126149 
L 1253.280911 1197.540318 
L 1252.975463 1202.851877 
L 1252.891929 1208.042334 
L 1253.036607 1213.092456 
L 1253.41332 1217.98283 
L 1254.023427 1222.69446 
L 1254.865857 1227.209376 
L 1255.937196 1231.511224 
L 1257.231799 1235.585827 
L 1258.741948 1239.421675 
L 1260.458027 1243.01035 
L 1262.36873 1246.346837 
L 1264.461292 1249.429733 
L 1266.721731 1252.261332 
L 1269.135108 1254.847575 
L 1271.685791 1257.197879 
L 1274.357722 1259.324837 
L 1277.134687 1261.243808 
L 1280.000573 1262.97241 
L 1282.939623 1264.529924 
L 1286.946065 1266.375622 
L 1291.022095 1268.002031 
L 1296.169308 1269.79776 
L 1302.357957 1271.70963 
L 1311.540069 1274.283217 
L 1321.497647 1276.858928 
L 1328.32496 1278.416945 
L 1333.159995 1279.332464 
L 1337.989452 1280.026844 
L 1341.868006 1280.393028 
L 1345.775122 1280.572929 
L 1349.723147 1280.558832 
L 1353.721642 1280.353451 
L 1358.799041 1279.850859 
L 1365.007314 1278.963598 
L 1381.889563 1276.330866 
L 1386.057595 1275.963658 
L 1390.137292 1275.853673 
L 1393.11464 1275.980517 
L 1396.00132 1276.315939 
L 1398.77894 1276.883479 
L 1401.42916 1277.703706 
L 1403.934079 1278.793892 
L 1405.514823 1279.677596 
L 1407.018596 1280.690641 
L 1408.440903 1281.835483 
L 1409.777579 1283.113861 
L 1411.024832 1284.526819 
L 1412.179273 1286.074727 
L 1413.237961 1287.757317 
L 1414.198422 1289.573719 
L 1415.450748 1292.545959 
L 1416.473231 1295.80905 
L 1417.264041 1299.353929 
L 1417.824037 1303.16978 
L 1418.156711 1307.244446 
L 1418.268061 1311.564814 
L 1418.166409 1316.117163 
L 1417.862144 1320.887445 
L 1417.162511 1327.562381 
L 1416.157048 1334.566219 
L 1414.881237 1341.865884 
L 1412.962171 1351.356205 
L 1410.748162 1361.191472 
L 1407.791908 1373.35032 
L 1404.043536 1387.853595 
L 1400.064921 1402.452031 
L 1396.505717 1414.803548 
L 1393.434023 1424.806445 
L 1390.252173 1434.386785 
L 1387.613353 1441.640654 
L 1384.877902 1448.440529 
L 1382.755069 1453.193763 
L 1380.565368 1457.613499 
L 1378.304144 1461.669236 
L 1375.967509 1465.33328 
L 1373.552529 1468.581426 
L 1371.898059 1470.505709 
L 1370.207671 1472.231345 
L 1368.481357 1473.754549 
L 1366.719355 1475.072609 
L 1364.922149 1476.183938 
L 1363.090469 1477.08812 
L 1361.225277 1477.785943 
L 1359.327759 1478.279425 
L 1357.39931 1478.571822 
L 1355.441515 1478.667636 
L 1353.456132 1478.5726 
L 1351.445067 1478.293655 
L 1349.410349 1477.83892 
L 1347.354112 1477.217647 
L 1344.234246 1475.996346 
L 1341.078558 1474.462841 
L 1337.894717 1472.660672 
L 1333.618763 1469.922156 
L 1328.247715 1466.130013 
L 1314.328586 1456.051805 
L 1310.095089 1453.368383 
L 1306.940277 1451.606892 
L 1303.803045 1450.104556 
L 1300.6826 1448.89534 
L 1297.577356 1448.007457 
L 1295.514538 1447.605198 
L 1293.45665 1447.36061 
L 1291.402771 1447.277306 
L 1289.351899 1447.357561 
L 1287.302973 1447.602307 
L 1285.25489 1448.011132 
L 1283.206529 1448.582292 
L 1280.131023 1449.736385 
L 1277.048727 1451.232911 
L 1273.956277 1453.05008 
L 1270.850776 1455.160377 
L 1267.729948 1457.53107 
L 1263.54257 1461.031864 
L 1258.265476 1465.812439 
L 1241.194825 1481.646267 
L 1236.956045 1485.118799 
L 1233.8116 1487.453148 
L 1230.709925 1489.508192 
L 1227.663869 1491.244441 
L 1224.687069 1492.626179 
L 1222.748004 1493.334621 
L 1220.850312 1493.863123 
L 1218.998305 1494.204337 
L 1217.196278 1494.351855 
L 1215.448467 1494.300224 
L 1214.596192 1494.19829 
L 1214.596192 1494.19829 
" clip-path="url(#p67c89aaa59)" style="fill: none; stroke: #ff8c00; stroke-width: 3; stroke-linecap: square"/>
   </g>
  </g>
 </g>
 <defs>
  <clipPath id="p67c89aaa59">
   <rect x="270" y="259.2" width="1674" height="1630.8"/>
  </clipPath>
 </defs>
</svg>
