<?xml version="1.0" encoding="utf-8" standalone="no"?>
<!DOCTYPE svg PUBLIC "-//W3C//DTD SVG 1.1//EN"
  "http://www.w3.org/Graphics/SVG/1.1/DTD/svg11.dtd">
<svg xmlns:xlink="http://www.w3.org/1999/xlink" width="2160pt" height="2160pt" viewBox="0 0 2160 2160" xmlns="http://www.w3.org/2000/svg" version="1.1">
 <metadata>
  <rdf:RDF xmlns:dc="http://purl.org/dc/elements/1.1/" xmlns:cc="http://creativecommons.org/ns#" xmlns:rdf="http://www.w3.org/1999/02/22-rdf-syntax-ns#">
   <cc:Work>
    <dc:type rdf:resource="http://purl.org/dc/dcmitype/StillImage"/>
    <dc:date>2022-03-06T19:21:07.408650</dc:date>
    <dc:format>image/svg+xml</dc:format>
    <dc:creator>
     <cc:Agent>
      <dc:title>Matplotlib v3.5.1, https://matplotlib.org/</dc:title>
     </cc:Agent>
    </dc:creator>
   </cc:Work>
  </rdf:RDF>
 </metadata>
 <defs>
  <style type="text/css">*{stroke-linejoin: round; stroke-linecap: butt}</style>
 </defs>
 <g id="figure_1">
  <g id="patch_1">
   <path d="M 0 2160 
L 2160 2160 
L 2160 0 
L 0 0 
L 0 2160 
z
" style="fill: none"/>
  </g>
  <g id="axes_1">
   <g id="line2d_1">
    <path d="M 1257.636748 1371.868297 
L 1255.340905 1371.540585 
L 1253.138416 1371.06427 
L 1251.034339 1370.43824 
L 1249.033353 1369.662054 
L 1247.139704 1368.735935 
L 1245.357144 1367.660749 
L 1243.68889 1366.437982 
L 1242.137566 1365.069724 
L 1240.705168 1363.558632 
L 1239.393022 1361.907906 
L 1238.201754 1360.121256 
L 1237.131261 1358.202864 
L 1236.180693 1356.157351 
L 1235.348441 1353.98974 
L 1234.316492 1350.521251 
L 1233.533973 1346.809702 
L 1232.985834 1342.875897 
L 1232.653373 1338.741655 
L 1232.514466 1334.429522 
L 1232.586292 1328.443058 
L 1232.889706 1322.236104 
L 1233.615312 1312.630981 
L 1234.774959 1297.907102 
L 1235.107597 1291.365851 
L 1235.216435 1284.888656 
L 1235.107636 1280.096815 
L 1234.804605 1275.378941 
L 1234.282372 1270.74954 
L 1233.519036 1266.22215 
L 1232.496045 1261.809412 
L 1231.198411 1257.523158 
L 1229.614869 1253.374505 
L 1227.737975 1249.373959 
L 1226.321808 1246.794168 
L 1224.77347 1244.287516 
L 1223.093595 1241.856799 
L 1221.283547 1239.504755 
L 1219.345404 1237.23408 
L 1217.281933 1235.047435 
L 1213.959407 1231.930782 
L 1210.376932 1229.017927 
L 1206.551573 1226.317592 
L 1202.502954 1223.838419 
L 1198.252898 1221.588936 
L 1193.825025 1219.577507 
L 1189.244337 1217.812251 
L 1184.536771 1216.300927 
L 1179.728752 1215.050805 
L 1174.846731 1214.068506 
L 1169.91673 1213.359819 
L 1164.963895 1212.929506 
L 1160.012071 1212.781089 
L 1155.083403 1212.91663 
L 1150.197977 1213.336505 
L 1145.373497 1214.039181 
L 1140.625029 1215.021011 
L 1135.964793 1216.27603 
L 1131.402027 1217.795797 
L 1126.942924 1219.569247 
L 1122.590641 1221.582603 
L 1118.345383 1223.81932 
L 1114.204568 1226.260082 
L 1110.163062 1228.882863 
L 1106.213481 1231.663031 
L 1101.074144 1235.567635 
L 1094.816851 1240.666389 
L 1075.42612 1256.882001 
L 1070.604637 1260.482807 
L 1066.977112 1262.963406 
L 1063.338855 1265.220985 
L 1059.692139 1267.226939 
L 1056.042211 1268.955295 
L 1052.397283 1270.383065 
L 1048.76843 1271.490548 
L 1045.169395 1272.261562 
L 1042.794486 1272.582322 
L 1040.445265 1272.745145 
L 1038.12739 1272.748021 
L 1035.846811 1272.589691 
L 1033.609712 1272.269644 
L 1031.422443 1271.788101 
L 1029.291454 1271.145991 
L 1027.223222 1270.34493 
L 1025.224187 1269.387186 
L 1023.300675 1268.275645 
L 1021.458839 1267.013768 
L 1019.704586 1265.605544 
L 1018.043514 1264.055446 
L 1016.480858 1262.368374 
L 1015.021432 1260.549606 
L 1013.669579 1258.604738 
L 1012.429127 1256.53963 
L 1011.303352 1254.36035 
L 1010.294948 1252.073111 
L 1009.006799 1248.453642 
L 1007.991656 1244.626861 
L 1007.250661 1240.61395 
L 1006.781725 1236.435515 
L 1006.579599 1232.111251 
L 1006.636022 1227.659654 
L 1006.939911 1223.097782 
L 1007.477616 1218.441077 
L 1008.233201 1213.703235 
L 1009.18876 1208.89615 
L 1010.739925 1202.396163 
L 1012.561898 1195.809896 
L 1015.139992 1187.476743 
L 1018.535188 1177.352894 
L 1027.329707 1151.551684 
L 1030.022524 1142.824844 
L 1031.989917 1135.815395 
L 1033.748066 1128.796012 
L 1035.260285 1121.785159 
L 1036.492843 1114.805937 
L 1037.21511 1109.608743 
L 1037.750817 1104.458024 
L 1038.089047 1099.368157 
L 1038.21987 1094.354478 
L 1038.134376 1089.433022 
L 1037.824705 1084.620237 
L 1037.284094 1079.932656 
L 1036.506912 1075.386562 
L 1035.4887 1070.997628 
L 1034.226202 1066.780566 
L 1032.717395 1062.748789 
L 1030.961499 1058.914096 
L 1028.958988 1055.286388 
L 1026.711581 1051.873434 
L 1024.22222 1048.680688 
L 1021.495041 1045.711166 
L 1018.535328 1042.96539 
L 1015.349464 1040.441399 
L 1011.944867 1038.134838 
L 1008.329929 1036.039105 
L 1004.51395 1034.145582 
L 1000.507072 1032.44391 
L 996.320222 1030.922334 
L 991.965057 1029.568089 
L 987.453916 1028.367816 
L 981.218978 1026.983667 
L 974.762421 1025.818343 
L 968.118647 1024.843764 
L 959.606057 1023.858575 
L 950.932502 1023.10311 
L 942.17697 1022.56356 
L 933.422181 1022.246192 
L 924.753667 1022.177331 
L 917.939364 1022.330551 
L 911.280154 1022.700751 
L 904.819134 1023.322077 
L 900.128156 1023.974898 
L 895.58783 1024.805339 
L 891.212909 1025.828778 
L 887.016522 1027.059732 
L 883.009883 1028.51136 
L 879.202018 1030.195011 
L 875.599516 1032.119812 
L 872.206309 1034.292311 
L 869.023494 1036.716184 
L 866.049211 1039.39202 
L 863.27857 1042.317175 
L 860.703649 1045.485712 
L 858.313549 1048.888413 
L 856.094529 1052.512875 
L 854.030195 1056.34367 
L 852.101766 1060.362571 
L 849.705645 1065.977539 
L 847.459944 1071.834723 
L 844.247142 1080.941351 
L 838.818722 1096.430226 
L 836.45963 1102.541154 
L 833.920492 1108.507305 
L 831.87411 1112.850688 
L 829.690702 1117.055146 
L 827.359486 1121.09862 
L 824.872519 1124.960825 
L 822.224701 1128.623383 
L 819.413707 1132.069926 
L 816.439851 1135.286179 
L 813.305883 1138.260017 
L 810.016738 1140.981507 
L 806.579232 1143.442931 
L 803.001729 1145.638797 
L 799.293789 1147.565832 
L 795.465803 1149.222967 
L 791.528634 1150.611297 
L 787.493269 1151.73404 
L 783.370499 1152.596463 
L 779.170641 1153.2058 
L 774.903286 1153.571143 
L 770.577117 1153.703307 
L 766.199765 1153.614678 
L 761.777726 1153.319021 
L 757.31634 1152.83127 
L 751.313741 1151.909637 
L 745.255683 1150.714062 
L 739.14656 1149.284672 
L 731.441919 1147.229351 
L 722.099675 1144.4644 
L 709.490365 1140.444704 
L 691.945338 1134.573123 
L 677.577834 1129.538765 
L 668.118897 1126.001932 
L 660.387627 1122.877912 
L 654.345448 1120.221061 
L 648.466162 1117.38867 
L 642.783762 1114.347584 
L 638.671638 1111.910608 
L 634.703514 1109.325988 
L 630.893145 1106.582759 
L 627.253792 1103.671665 
L 623.798124 1100.585465 
L 620.538132 1097.319184 
L 617.485073 1093.870321 
L 614.649431 1090.238989 
L 612.040902 1086.428003 
L 609.668389 1082.4429 
L 607.540014 1078.291914 
L 605.663134 1073.985882 
L 604.044363 1069.538113 
L 602.689592 1064.96421 
L 601.603998 1060.281852 
L 600.792049 1055.510556 
L 600.257491 1050.671407 
L 600.003325 1045.786784 
L 600.031767 1040.880077 
L 600.34419 1035.975395 
L 600.941053 1031.097299 
L 601.821823 1026.270522 
L 602.984883 1021.519724 
L 604.427443 1016.869246 
L 606.14545 1012.342897 
L 608.133504 1007.963748 
L 610.384797 1003.753952 
L 612.891057 999.734572 
L 615.642531 995.925435 
L 618.627981 992.344985 
L 621.834731 989.010159 
L 625.248728 985.936263 
L 627.632349 984.03873 
L 630.096476 982.266793 
L 632.636092 980.623632 
L 635.246003 979.112033 
L 637.920877 977.734369 
L 642.043053 975.923154 
L 646.280442 974.422314 
L 650.614243 973.23427 
L 655.025816 972.359054 
L 659.496976 971.794222 
L 664.010279 971.534806 
L 668.549305 971.573267 
L 673.098917 971.899481 
L 677.645495 972.500756 
L 682.177137 973.361878 
L 686.683815 974.465189 
L 691.157491 975.790715 
L 695.592176 977.316321 
L 699.983945 979.017911 
L 705.769864 981.515616 
L 711.477059 984.21506 
L 719.904987 988.492506 
L 736.443566 997.002776 
L 741.922389 999.57803 
L 747.411716 1001.919508 
L 751.544005 1003.489782 
L 755.694596 1004.878319 
L 759.866753 1006.067465 
L 764.06223 1007.042037 
L 768.281135 1007.789373 
L 772.521823 1008.299324 
L 776.780846 1008.56419 
L 781.052949 1008.578604 
L 785.331109 1008.339382 
L 789.606617 1007.845316 
L 793.869206 1007.096951 
L 798.107209 1006.096335 
L 802.307761 1004.846754 
L 806.457016 1003.352473 
L 810.540399 1001.618472 
L 814.542867 999.65021 
L 818.449186 997.453403 
L 822.244213 995.033838 
L 825.913181 992.397226 
L 829.441975 989.549089 
L 832.81741 986.4947 
L 836.027482 983.239063 
L 839.061617 979.786941 
L 841.910895 976.142926 
L 844.568246 972.311547 
L 847.028637 968.297413 
L 849.289216 964.105388 
L 851.349437 959.740775 
L 853.211151 955.209518 
L 854.878665 950.518405 
L 856.358771 945.675262 
L 857.660733 940.689127 
L 858.796244 935.570403 
L 860.075933 928.559954 
L 861.124335 921.367605 
L 862.179885 912.178984 
L 863.207922 900.974025 
L 865.042757 880.458041 
L 865.895017 873.182147 
L 866.942082 866.091023 
L 867.889768 860.925664 
L 869.00187 855.914885 
L 870.299299 851.078338 
L 871.801013 846.434009 
L 873.523768 841.997953 
L 875.48191 837.784065 
L 876.924031 835.104037 
L 878.47888 832.530748 
L 880.148733 830.066506 
L 881.935319 827.71311 
L 883.839809 825.471845 
L 885.862825 823.343481 
L 888.004442 821.328284 
L 890.264201 819.426025 
L 892.64112 817.635994 
L 895.133721 815.957019 
L 897.740041 814.387489 
L 901.857344 812.233871 
L 906.215068 810.31344 
L 910.801384 808.616065 
L 915.602811 807.130163 
L 920.604502 805.842965 
L 925.790522 804.740787 
L 931.144151 803.809293 
L 936.648163 803.033748 
L 944.190607 802.216536 
L 951.928189 801.615009 
L 961.813615 801.114484 
L 971.867284 800.834336 
L 984.058937 800.706968 
L 1002.39851 800.756758 
L 1032.46304 800.852902 
L 1046.070938 800.662797 
L 1057.450138 800.279828 
L 1066.705718 799.761384 
L 1075.735466 799.026872 
L 1082.7853 798.26244 
L 1089.671817 797.32413 
L 1096.387798 796.197568 
L 1102.92702 794.869661 
L 1109.284549 793.32888 
L 1115.457062 791.565548 
L 1121.443166 789.572099 
L 1127.243689 787.343311 
L 1132.861927 784.876519 
L 1138.303803 782.171798 
L 1143.577943 779.232122 
L 1148.695638 776.063511 
L 1153.670696 772.675171 
L 1158.51918 769.079637 
L 1163.259032 765.292917 
L 1169.060659 760.32096 
L 1174.76237 755.128056 
L 1182.652218 747.596449 
L 1198.466455 732.365312 
L 1204.213318 727.162959 
L 1208.865045 723.20281 
L 1213.566554 719.482663 
L 1218.315003 716.0597 
L 1221.90313 713.721885 
L 1225.509433 711.607005 
L 1229.128256 709.737924 
L 1232.752752 708.136395 
L 1236.374936 706.82271 
L 1239.985765 705.815353 
L 1243.575211 705.130662 
L 1245.950939 704.86042 
L 1248.308891 704.743249 
L 1250.645487 704.782006 
L 1252.957016 704.978941 
L 1255.239651 705.335662 
L 1257.489462 705.853117 
L 1259.702431 706.531573 
L 1261.874471 707.370605 
L 1264.001433 708.369091 
L 1266.079131 709.525205 
L 1268.103351 710.836425 
L 1270.069871 712.299543 
L 1271.974475 713.910682 
L 1273.81297 715.665315 
L 1276.437696 718.554897 
L 1278.890606 721.735816 
L 1281.158388 725.185595 
L 1283.228301 728.879442 
L 1285.088324 732.790648 
L 1286.727307 736.89102 
L 1288.135118 741.151347 
L 1289.302799 745.541885 
L 1290.222716 750.032844 
L 1290.888698 754.594884 
L 1291.296173 759.199592 
L 1291.44229 763.819942 
L 1291.326019 768.430722 
L 1290.94823 773.00893 
L 1290.311753 777.534116 
L 1289.421398 781.988677 
L 1288.283953 786.35809 
L 1286.908146 790.631086 
L 1285.304571 794.799757 
L 1283.485583 798.859598 
L 1281.465162 802.809479 
L 1279.25874 806.651557 
L 1276.883016 810.391118 
L 1274.355733 814.036371 
L 1270.782431 818.769123 
L 1267.018224 823.38586 
L 1262.114962 829.051862 
L 1244.929069 848.546392 
L 1241.001535 853.429345 
L 1237.192301 858.501398 
L 1233.531646 863.788047 
L 1230.047409 869.306424 
L 1227.565664 873.602356 
L 1225.208226 878.032891 
L 1222.985315 882.594452 
L 1220.907084 887.280214 
L 1218.983764 892.080164 
L 1217.225791 896.981211 
L 1215.643914 901.967372 
L 1214.249249 907.020013 
L 1213.053304 912.118157 
L 1212.06796 917.23883 
L 1211.305392 922.357475 
L 1210.777955 927.448394 
L 1210.498019 932.485223 
L 1210.477754 937.441441 
L 1210.728893 942.290885 
L 1211.26245 947.008271 
L 1212.088423 951.569718 
L 1212.805874 954.513099 
L 1213.659355 957.371408 
L 1214.650679 960.139224 
L 1215.781259 962.81171 
L 1217.052064 965.38466 
L 1218.463589 967.854543 
L 1220.015825 970.218544 
L 1221.708226 972.474594 
L 1223.539693 974.621398 
L 1225.508549 976.658451 
L 1227.612529 978.586057 
L 1229.84877 980.405324 
L 1232.21381 982.118168 
L 1234.703589 983.7273 
L 1238.661813 985.954372 
L 1242.872003 987.971017 
L 1247.313305 989.795673 
L 1251.962322 991.449971 
L 1256.793369 992.958329 
L 1263.469864 994.788944 
L 1272.094159 996.883625 
L 1293.22212 1001.83237 
L 1300.13461 1003.700032 
L 1306.859771 1005.779674 
L 1311.73945 1007.508993 
L 1316.448174 1009.40338 
L 1320.960595 1011.476865 
L 1325.253243 1013.739868 
L 1329.304647 1016.199121 
L 1333.095423 1018.857667 
L 1336.608345 1021.71496 
L 1338.788416 1023.728414 
L 1340.834364 1025.826541 
L 1342.742728 1028.006791 
L 1344.510488 1030.26608 
L 1346.135066 1032.60084 
L 1347.614334 1035.007075 
L 1348.946603 1037.48042 
L 1350.130637 1040.016207 
L 1351.165642 1042.609522 
L 1352.051276 1045.255277 
L 1352.787647 1047.948269 
L 1353.375317 1050.683249 
L 1353.815304 1053.454979 
L 1354.201736 1057.670221 
L 1354.266251 1061.939739 
L 1354.018149 1066.247749 
L 1353.469107 1070.579837 
L 1352.633184 1074.923227 
L 1351.52681 1079.266974 
L 1350.168758 1083.602084 
L 1348.580085 1087.921547 
L 1346.784047 1092.220297 
L 1344.110829 1097.914387 
L 1341.179496 1103.562825 
L 1337.260164 1110.560685 
L 1323.038568 1135.289505 
L 1320.336918 1140.696726 
L 1318.521408 1144.724782 
L 1316.917331 1148.723211 
L 1315.54997 1152.684596 
L 1314.442013 1156.599869 
L 1313.613279 1160.458461 
L 1313.080491 1164.24852 
L 1312.857093 1167.957197 
L 1312.953125 1171.570995 
L 1313.197992 1173.920684 
L 1313.588897 1176.218027 
L 1314.126237 1178.459054 
L 1314.809727 1180.639937 
L 1315.638424 1182.757049 
L 1316.610736 1184.807015 
L 1317.724451 1186.786769 
L 1318.976763 1188.693592 
L 1320.364301 1190.525167 
L 1321.883165 1192.279606 
L 1324.397968 1194.763659 
L 1327.181594 1197.068361 
L 1330.215419 1199.19359 
L 1333.479224 1201.14184 
L 1336.951561 1202.918162 
L 1340.610132 1204.530006 
L 1344.432165 1205.986989 
L 1348.394787 1207.300572 
L 1353.85799 1208.85145 
L 1359.479277 1210.203775 
L 1366.654802 1211.667548 
L 1375.374034 1213.177066 
L 1386.995285 1214.924791 
L 1404.081648 1217.241531 
L 1416.549502 1218.753339 
L 1426.111292 1219.697632 
L 1434.291084 1220.266469 
L 1441.148545 1220.530027 
L 1448.082972 1220.582201 
L 1455.123735 1220.421224 
L 1463.735987 1219.973422 
L 1474.002407 1219.193962 
L 1493.385172 1217.658049 
L 1500.749699 1217.310098 
L 1506.506143 1217.23215 
L 1512.080367 1217.383997 
L 1516.105063 1217.674797 
L 1519.967215 1218.135209 
L 1523.64109 1218.779055 
L 1527.101758 1219.617756 
L 1530.325628 1220.660197 
L 1533.290975 1221.912685 
L 1535.978419 1223.378966 
L 1537.607334 1224.475997 
L 1539.10114 1225.668479 
L 1540.456348 1226.955797 
L 1541.670166 1228.336938 
L 1542.740526 1229.810533 
L 1543.6661 1231.37489 
L 1544.446311 1233.028031 
L 1545.081334 1234.767735 
L 1545.572084 1236.591573 
L 1545.920205 1238.496948 
L 1546.180267 1241.501891 
L 1546.135525 1244.674519 
L 1545.799711 1248.004934 
L 1545.1892 1251.483119 
L 1544.322547 1255.099058 
L 1543.219966 1258.842802 
L 1541.4198 1264.016208 
L 1539.289944 1269.375903 
L 1536.2416 1276.301275 
L 1532.850631 1283.431875 
L 1528.440644 1292.183594 
L 1522.954008 1302.525715 
L 1518.026486 1311.355632 
L 1513.775439 1318.573128 
L 1509.38213 1325.555722 
L 1505.749177 1330.899669 
L 1501.993445 1335.965642 
L 1499.085154 1339.547603 
L 1496.089842 1342.916307 
L 1493.000177 1346.048654 
L 1489.809595 1348.923029 
L 1486.512609 1351.519804 
L 1483.105076 1353.821824 
L 1479.584399 1355.814877 
L 1477.1739 1356.966422 
L 1474.712832 1357.973441 
L 1472.201707 1358.834406 
L 1469.641382 1359.548605 
L 1467.033053 1360.116166 
L 1464.378236 1360.538082 
L 1460.312917 1360.9022 
L 1456.15449 1360.953048 
L 1451.911492 1360.705058 
L 1447.593439 1360.176939 
L 1443.210564 1359.391454 
L 1438.773539 1358.375106 
L 1434.293192 1357.157738 
L 1428.270476 1355.278784 
L 1420.69723 1352.637808 
L 1398.042887 1344.444374 
L 1392.08017 1342.605164 
L 1387.637056 1341.415075 
L 1383.218506 1340.417108 
L 1378.823014 1339.634015 
L 1374.448 1339.084362 
L 1370.089954 1338.782245 
L 1365.744608 1338.737091 
L 1361.407128 1338.95354 
L 1357.072318 1339.43141 
L 1352.734849 1340.165752 
L 1348.389481 1341.146978 
L 1344.031308 1342.361063 
L 1339.655995 1343.789824 
L 1333.78963 1345.990235 
L 1327.881248 1348.471312 
L 1320.435278 1351.859393 
L 1296.348624 1363.081116 
L 1290.367715 1365.542162 
L 1284.464516 1367.705469 
L 1280.112143 1369.089587 
L 1275.844553 1370.239021 
L 1271.681289 1371.129412 
L 1267.642559 1371.739424 
L 1263.748861 1372.05094 
L 1260.020567 1372.049206 
L 1258.818007 1371.976963 
L 1258.818007 1371.976963 
" clip-path="url(#p3098b2f990)" style="fill: none; stroke: #4169e1; stroke-width: 3; stroke-linecap: square"/>
   </g>
   <g id="line2d_2">
    <path d="M 1232.154712 1432.393398 
L 1230.247239 1431.998961 
L 1228.417328 1431.425667 
L 1226.669181 1430.672174 
L 1225.006686 1429.737954 
L 1223.43337 1428.623273 
L 1221.952353 1427.329174 
L 1220.566303 1425.857447 
L 1219.277405 1424.210605 
L 1218.087315 1422.391848 
L 1216.997134 1420.405028 
L 1216.007383 1418.254608 
L 1215.117977 1415.945623 
L 1213.970297 1412.197137 
L 1213.041601 1408.125263 
L 1212.323612 1403.752832 
L 1211.804866 1399.104392 
L 1211.470821 1394.205836 
L 1211.282169 1387.331927 
L 1211.341845 1380.126593 
L 1211.679896 1370.754437 
L 1212.538831 1355.213157 
L 1213.243337 1341.400654 
L 1213.508961 1331.589598 
L 1213.483642 1323.850346 
L 1213.288088 1318.140217 
L 1212.917057 1312.530889 
L 1212.351475 1307.039034 
L 1211.574979 1301.680217 
L 1210.574112 1296.468992 
L 1209.338471 1291.41901 
L 1207.860809 1286.54315 
L 1206.137074 1281.853639 
L 1204.166409 1277.36218 
L 1201.951097 1273.08007 
L 1199.496459 1269.018307 
L 1196.810715 1265.187676 
L 1193.904789 1261.598816 
L 1190.792088 1258.262257 
L 1187.488243 1255.188435 
L 1184.010809 1252.387665 
L 1180.378952 1249.870091 
L 1176.6131 1247.645594 
L 1172.734587 1245.723675 
L 1168.765274 1244.1133 
L 1164.727174 1242.822722 
L 1160.642066 1241.859266 
L 1156.531125 1241.229105 
L 1153.786176 1240.996581 
L 1151.044435 1240.915352 
L 1148.31128 1240.986063 
L 1145.591751 1241.20896 
L 1142.890514 1241.583852 
L 1140.211828 1242.110077 
L 1137.559517 1242.786471 
L 1134.936947 1243.61133 
L 1131.065046 1245.121878 
L 1127.274127 1246.951075 
L 1123.569336 1249.085607 
L 1119.953294 1251.508891 
L 1116.426174 1254.201013 
L 1112.985828 1257.138725 
L 1109.627991 1260.295516 
L 1106.346531 1263.641737 
L 1102.076575 1268.341336 
L 1096.877778 1274.478218 
L 1080.767225 1293.995398 
L 1076.761355 1298.329344 
L 1073.74747 1301.315003 
L 1070.724668 1304.032235 
L 1067.694839 1306.44661 
L 1064.66234 1308.526866 
L 1061.633996 1310.245337 
L 1059.621858 1311.178109 
L 1057.618893 1311.933472 
L 1055.628793 1312.506304 
L 1053.655629 1312.892372 
L 1051.703807 1313.088346 
L 1049.778028 1313.091807 
L 1047.883237 1312.901241 
L 1046.024571 1312.516032 
L 1044.207305 1311.936444 
L 1042.436799 1311.163597 
L 1040.718434 1310.199437 
L 1039.057559 1309.046693 
L 1037.459433 1307.708837 
L 1035.929166 1306.190036 
L 1034.471665 1304.495092 
L 1033.091584 1302.629387 
L 1031.793271 1300.59882 
L 1030.580725 1298.409743 
L 1028.930496 1294.843744 
L 1027.491603 1290.960328 
L 1026.272002 1286.784576 
L 1025.277095 1282.342135 
L 1024.509627 1277.658722 
L 1023.969651 1272.759647 
L 1023.654544 1267.669389 
L 1023.559097 1262.411207 
L 1023.675642 1257.006814 
L 1023.994239 1251.476115 
L 1024.502883 1245.837007 
L 1025.452598 1238.176498 
L 1026.678537 1230.382387 
L 1028.140075 1222.479279 
L 1030.23236 1212.474577 
L 1033.016835 1200.315023 
L 1041.268703 1165.123464 
L 1043.467385 1154.608696 
L 1045.432846 1144.055067 
L 1046.795075 1135.608516 
L 1047.938657 1127.185435 
L 1048.836794 1118.816396 
L 1049.465158 1110.537245 
L 1049.801933 1102.388437 
L 1049.851498 1096.388775 
L 1049.719062 1090.506675 
L 1049.398396 1084.762014 
L 1048.884191 1079.174636 
L 1048.17209 1073.763943 
L 1047.258717 1068.54846 
L 1046.141708 1063.545417 
L 1044.819724 1058.770352 
L 1043.292465 1054.236739 
L 1041.560671 1049.955668 
L 1039.626111 1045.935584 
L 1037.491563 1042.182083 
L 1035.160786 1038.6978 
L 1032.63848 1035.48236 
L 1029.93024 1032.532427 
L 1027.042506 1029.841834 
L 1023.982507 1027.401792 
L 1020.75821 1025.201187 
L 1017.378262 1023.226944 
L 1013.851949 1021.464456 
L 1010.18915 1019.89806 
L 1006.400299 1018.511563 
L 1002.496366 1017.288778 
L 997.132014 1015.886189 
L 991.612115 1014.713181 
L 985.966789 1013.741499 
L 980.227666 1012.950246 
L 972.972396 1012.197364 
L 965.68992 1011.705933 
L 959.891491 1011.51514 
L 954.157374 1011.527539 
L 948.524585 1011.773645 
L 944.388544 1012.133841 
L 940.345163 1012.663993 
L 936.408921 1013.382677 
L 932.593502 1014.308846 
L 928.911561 1015.461226 
L 925.374481 1016.8577 
L 921.992136 1018.514714 
L 918.772655 1020.446714 
L 916.71995 1021.893491 
L 914.743719 1023.470664 
L 912.844822 1025.18041 
L 911.023649 1027.024223 
L 908.437293 1030.042806 
L 906.023121 1033.364029 
L 903.776226 1036.983394 
L 901.689195 1040.892431 
L 899.752171 1045.078751 
L 897.952981 1049.526186 
L 896.277317 1054.21501 
L 894.206996 1060.802111 
L 892.284517 1067.714811 
L 890.018279 1076.706739 
L 883.22125 1104.569615 
L 881.1909 1111.84694 
L 878.993874 1118.91333 
L 876.600939 1125.699196 
L 874.664076 1130.565938 
L 872.59781 1135.214505 
L 870.397902 1139.622775 
L 868.062422 1143.771049 
L 865.59163 1147.642145 
L 862.987811 1151.22147 
L 860.255065 1154.497066 
L 857.399055 1157.459647 
L 854.42673 1160.1026 
L 851.346033 1162.421989 
L 848.165598 1164.416523 
L 844.894449 1166.087524 
L 841.541714 1167.438862 
L 838.116361 1168.476878 
L 834.62696 1169.210278 
L 831.08148 1169.650006 
L 827.487135 1169.809079 
L 823.850265 1169.702405 
L 820.176268 1169.346551 
L 816.46958 1168.759492 
L 812.733697 1167.960318 
L 808.971246 1166.968913 
L 803.916432 1165.383165 
L 798.820356 1163.540023 
L 792.39442 1160.945146 
L 784.604152 1157.514314 
L 774.095063 1152.594106 
L 760.827398 1146.124307 
L 750.219811 1140.724533 
L 742.360968 1136.467586 
L 735.937536 1132.707501 
L 730.917465 1129.509705 
L 726.032732 1126.100627 
L 722.474981 1123.381116 
L 719.021187 1120.503968 
L 715.683152 1117.453899 
L 712.472418 1114.217119 
L 709.400148 1110.781757 
L 706.477041 1107.138251 
L 703.713254 1103.279676 
L 701.118348 1099.202005 
L 698.701249 1094.904311 
L 696.470233 1090.38889 
L 694.432914 1085.661317 
L 692.596256 1080.730427 
L 690.966581 1075.608236 
L 689.54959 1070.309792 
L 688.350374 1064.852981 
L 687.373433 1059.258281 
L 686.622674 1053.548477 
L 686.101412 1047.748356 
L 685.81235 1041.884373 
L 685.757552 1035.98431 
L 685.938396 1030.076937 
L 686.355525 1024.19167 
L 687.008778 1018.358243 
L 687.897122 1012.606399 
L 689.01857 1006.965594 
L 690.370112 1001.464726 
L 691.947644 996.131885 
L 693.745903 990.994127 
L 695.758427 986.07726 
L 697.977521 981.405664 
L 700.39426 977.002112 
L 702.998503 972.88761 
L 705.778948 969.08125 
L 708.723211 965.600067 
L 710.770501 963.467356 
L 712.88051 961.489641 
L 715.048923 959.670273 
L 717.27131 958.012111 
L 719.543143 956.517505 
L 721.859833 955.188276 
L 724.216753 954.025707 
L 726.609271 953.030524 
L 729.032782 952.202883 
L 731.482741 951.542358 
L 733.954689 951.047933 
L 736.444293 950.717987 
L 738.947372 950.550291 
L 741.459928 950.542004 
L 743.978172 950.689668 
L 747.758512 951.194505 
L 751.532869 952.024636 
L 755.291861 953.160755 
L 759.027699 954.580662 
L 762.734267 956.259425 
L 766.407164 958.169586 
L 770.043694 960.281421 
L 774.834258 963.355896 
L 779.560299 966.65293 
L 786.542796 971.833823 
L 797.98951 980.39304 
L 802.541378 983.552034 
L 807.098772 986.446928 
L 810.527762 988.404612 
L 813.970802 990.151279 
L 817.430989 991.664715 
L 820.910212 992.925645 
L 824.409029 993.917816 
L 827.926564 994.628008 
L 831.460455 995.045982 
L 835.006834 995.164364 
L 838.560351 994.978468 
L 842.114225 994.486077 
L 845.660346 993.687176 
L 849.18939 992.583661 
L 852.690982 991.179027 
L 856.153867 989.478048 
L 859.566113 987.486465 
L 862.915327 985.210689 
L 866.18888 982.65752 
L 869.374137 979.833921 
L 872.4587 976.746811 
L 875.430637 973.402924 
L 878.278709 969.808712 
L 880.992593 965.970305 
L 883.563088 961.893525 
L 885.982303 957.583954 
L 888.243835 953.047052 
L 890.342924 948.288314 
L 892.276582 943.313467 
L 894.043709 938.128691 
L 895.64517 932.740855 
L 897.083862 927.157766 
L 898.364738 921.388401 
L 899.494813 915.443129 
L 900.782925 907.26338 
L 901.846139 898.825575 
L 902.717191 890.168832 
L 903.594182 879.109369 
L 904.579959 863.365071 
L 905.972765 840.929906 
L 906.881259 830.015509 
L 907.799207 821.546211 
L 908.937871 813.377819 
L 909.962664 807.484117 
L 911.152128 801.814796 
L 912.520815 796.389989 
L 914.081329 791.227314 
L 915.844177 786.341632 
L 917.817648 781.744868 
L 920.007744 777.445881 
L 921.590067 774.748284 
L 923.270865 772.186576 
L 925.050202 769.761077 
L 926.927694 767.47151 
L 928.902529 765.31702 
L 930.973476 763.296199 
L 933.138905 761.407106 
L 935.39681 759.647306 
L 937.744831 758.0139 
L 941.429865 755.793399 
L 945.301229 753.836901 
L 949.347319 752.129952 
L 953.55547 750.656781 
L 957.9122 749.40062 
L 962.40345 748.344022 
L 967.01482 747.469159 
L 971.731794 746.758094 
L 978.16047 746.034095 
L 984.717935 745.528564 
L 993.047635 745.144164 
L 1003.16311 744.952044 
L 1016.712808 744.971496 
L 1045.071872 745.116819 
L 1054.779907 744.93879 
L 1062.706941 744.612625 
L 1070.467728 744.081692 
L 1078.046775 743.306302 
L 1083.969436 742.483993 
L 1089.759653 741.461524 
L 1095.411092 740.220954 
L 1100.918139 738.74571 
L 1106.276129 737.02093 
L 1110.194665 735.555799 
L 1114.026447 733.93852 
L 1117.771074 732.165388 
L 1121.428728 730.233589 
L 1125.000229 728.141267 
L 1128.487068 725.887576 
L 1131.891439 723.472729 
L 1135.216247 720.898043 
L 1138.465105 718.165984 
L 1142.686299 714.284921 
L 1146.792157 710.142781 
L 1150.796447 705.755678 
L 1154.714408 701.143958 
L 1159.515361 695.101628 
L 1165.1786 687.522502 
L 1172.655365 677.068593 
L 1182.045727 663.967438 
L 1186.808715 657.652073 
L 1190.663232 652.824037 
L 1194.559172 648.26781 
L 1198.495021 644.052024 
L 1201.470272 641.155063 
L 1204.461963 638.517031 
L 1207.465735 636.165799 
L 1210.476224 634.12804 
L 1213.487104 632.428812 
L 1216.491149 631.091133 
L 1218.486097 630.410478 
L 1220.471855 629.90512 
L 1222.4457 629.579856 
L 1224.404775 629.438828 
L 1226.346108 629.485477 
L 1228.266614 629.722508 
L 1230.163113 630.151859 
L 1232.032341 630.77467 
L 1233.87096 631.591262 
L 1235.675572 632.601126 
L 1237.442733 633.802908 
L 1239.168963 635.194411 
L 1240.850762 636.772601 
L 1242.484621 638.533617 
L 1244.067038 640.47279 
L 1246.336599 643.703475 
L 1248.470991 647.301088 
L 1250.458899 651.240676 
L 1252.289408 655.494205 
L 1253.952118 660.031012 
L 1255.43727 664.818292 
L 1256.735866 669.821642 
L 1257.839801 675.005623 
L 1258.741985 680.334352 
L 1259.436467 685.772088 
L 1259.918551 691.283826 
L 1260.184905 696.835864 
L 1260.233655 702.396346 
L 1260.064466 707.935766 
L 1259.6786 713.427416 
L 1259.078954 718.847791 
L 1258.270076 724.176911 
L 1257.258147 729.398582 
L 1256.050943 734.500578 
L 1254.657764 739.474746 
L 1253.089341 744.317025 
L 1251.357706 749.027389 
L 1249.476051 753.609714 
L 1246.758449 759.533885 
L 1243.835215 765.271503 
L 1240.74383 770.859099 
L 1236.701569 777.700339 
L 1228.305294 791.285464 
L 1223.256622 799.655701 
L 1219.141152 806.908828 
L 1215.949278 812.953432 
L 1212.874765 819.249545 
L 1209.941212 825.820423 
L 1207.170517 832.678374 
L 1204.583407 839.823893 
L 1202.199997 847.245224 
L 1200.040349 854.918343 
L 1198.12496 862.807381 
L 1196.861481 868.838057 
L 1195.756697 874.940627 
L 1194.820275 881.08899 
L 1194.062177 887.254804 
L 1193.492581 893.407993 
L 1193.121773 899.517291 
L 1192.959997 905.550837 
L 1193.017266 911.476784 
L 1193.303155 917.263924 
L 1193.826564 922.882321 
L 1194.595461 928.303924 
L 1195.616629 933.503164 
L 1196.895402 938.457504 
L 1198.43542 943.147948 
L 1199.608169 946.120711 
L 1200.897825 948.966032 
L 1202.303936 951.681424 
L 1203.825588 954.265325 
L 1205.461389 956.717132 
L 1207.209455 959.037206 
L 1209.067408 961.226884 
L 1211.032373 963.288471 
L 1213.100975 965.225229 
L 1215.269352 967.041355 
L 1218.699371 969.550759 
L 1222.327428 971.821236 
L 1226.134763 973.877593 
L 1230.100646 975.748161 
L 1234.202609 977.464258 
L 1239.842038 979.570614 
L 1248.543201 982.513266 
L 1260.267245 986.486381 
L 1266.040052 988.681188 
L 1270.28039 990.480105 
L 1274.416891 992.440507 
L 1278.426199 994.586011 
L 1282.286285 996.936292 
L 1285.976597 999.506807 
L 1289.478177 1002.308624 
L 1292.773759 1005.348357 
L 1295.84783 1008.628213 
L 1297.767304 1010.947339 
L 1299.578589 1013.370741 
L 1301.278441 1015.896055 
L 1302.863982 1018.520213 
L 1304.332703 1021.239503 
L 1306.312168 1025.487273 
L 1308.018396 1029.922715 
L 1309.4476 1034.527184 
L 1310.597875 1039.280565 
L 1311.469209 1044.161857 
L 1312.063496 1049.149762 
L 1312.384559 1054.223246 
L 1312.438161 1059.362056 
L 1312.232028 1064.547195 
L 1311.775863 1069.761315 
L 1311.081346 1074.989037 
L 1310.162129 1080.21719 
L 1309.033808 1085.434947 
L 1307.713879 1090.633871 
L 1305.689562 1097.526257 
L 1303.409671 1104.366102 
L 1300.929596 1111.150844 
L 1296.965251 1121.229733 
L 1287.698964 1144.37635 
L 1285.340336 1150.905842 
L 1283.224366 1157.390008 
L 1281.407264 1163.815015 
L 1280.271209 1168.582954 
L 1279.350676 1173.295394 
L 1278.662132 1177.939612 
L 1278.219472 1182.501343 
L 1278.033865 1186.965123 
L 1278.113652 1191.314705 
L 1278.464285 1195.533525 
L 1279.088317 1199.605203 
L 1279.985433 1203.514061 
L 1281.152533 1207.245636 
L 1282.583855 1210.787165 
L 1284.271137 1214.128028 
L 1286.203823 1217.26013 
L 1288.369291 1220.178202 
L 1290.753116 1222.880007 
L 1293.339348 1225.36645 
L 1296.110814 1227.641571 
L 1299.049424 1229.712439 
L 1302.136486 1231.588927 
L 1305.353018 1233.283395 
L 1308.680058 1234.810282 
L 1313.25587 1236.613324 
L 1317.952665 1238.187735 
L 1323.934124 1239.897458 
L 1331.185546 1241.671132 
L 1340.829823 1243.741696 
L 1353.826678 1246.283959 
L 1364.185443 1248.103577 
L 1370.997672 1249.097688 
L 1376.657976 1249.731021 
L 1382.338234 1250.144811 
L 1388.070665 1250.310849 
L 1393.882702 1250.218518 
L 1399.793061 1249.879583 
L 1407.02334 1249.200851 
L 1419.342515 1247.722535 
L 1428.023426 1246.785281 
L 1434.142154 1246.366486 
L 1438.924825 1246.272667 
L 1442.415202 1246.380867 
L 1445.799287 1246.666988 
L 1449.055521 1247.151108 
L 1452.162401 1247.850776 
L 1455.098944 1248.780722 
L 1457.845128 1249.952671 
L 1460.382341 1251.375248 
L 1461.949341 1252.465726 
L 1463.411508 1253.671002 
L 1464.764872 1254.991393 
L 1466.005983 1256.42667 
L 1467.131941 1257.97609 
L 1468.140426 1259.638438 
L 1469.029722 1261.412063 
L 1469.798724 1263.29493 
L 1470.446953 1265.284657 
L 1471.193333 1268.463695 
L 1471.67152 1271.86707 
L 1471.887589 1275.483832 
L 1471.850416 1279.302421 
L 1471.571409 1283.310922 
L 1471.064173 1287.49728 
L 1470.344125 1291.84944 
L 1469.082188 1297.88955 
L 1467.514018 1304.17498 
L 1465.682671 1310.677559 
L 1463.087165 1319.067202 
L 1459.621517 1329.438898 
L 1455.227261 1341.810428 
L 1450.563089 1354.263132 
L 1446.390597 1364.799178 
L 1442.789618 1373.331812 
L 1439.816953 1379.904807 
L 1436.749386 1386.178317 
L 1433.572346 1392.08209 
L 1431.108527 1396.225396 
L 1428.568291 1400.09332 
L 1425.945939 1403.659185 
L 1423.236587 1406.8985 
L 1420.436402 1409.789564 
L 1418.517808 1411.514253 
L 1416.557221 1413.071432 
L 1414.554487 1414.457436 
L 1412.509739 1415.669489 
L 1410.423401 1416.70575 
L 1408.296187 1417.565363 
L 1406.129088 1418.248482 
L 1403.923366 1418.756302 
L 1401.680536 1419.091072 
L 1399.402349 1419.256102 
L 1397.090766 1419.255757 
L 1394.747937 1419.095447 
L 1391.180202 1418.569378 
L 1387.555724 1417.72389 
L 1383.883274 1416.589428 
L 1380.171831 1415.200631 
L 1376.430355 1413.595795 
L 1371.410001 1411.19174 
L 1365.110437 1407.909363 
L 1351.299604 1400.598648 
L 1346.32791 1398.23994 
L 1342.622588 1396.670892 
L 1338.937963 1395.312238 
L 1335.273436 1394.194487 
L 1331.627446 1393.343385 
L 1327.997576 1392.779521 
L 1324.380684 1392.518008 
L 1320.773049 1392.568282 
L 1317.170535 1392.933992 
L 1313.568767 1393.612998 
L 1309.963319 1394.597457 
L 1306.349911 1395.874019 
L 1302.7246 1397.424093 
L 1299.083988 1399.224211 
L 1295.425409 1401.246451 
L 1290.516501 1404.232685 
L 1284.330108 1408.310594 
L 1264.318004 1421.817108 
L 1259.348838 1424.779234 
L 1255.662572 1426.770472 
L 1252.026446 1428.523458 
L 1248.455523 1430.004507 
L 1244.965788 1431.183152 
L 1241.573882 1432.032472 
L 1238.296791 1432.529346 
L 1236.184255 1432.655181 
L 1234.135279 1432.61114 
L 1233.136147 1432.524188 
L 1233.136147 1432.524188 
" clip-path="url(#p3098b2f990)" style="fill: none; stroke: #ff8c00; stroke-width: 3; stroke-linecap: square"/>
   </g>
  </g>
 </g>
 <defs>
  <clipPath id="p3098b2f990">
   <rect x="270" y="259.2" width="1674" height="1630.8"/>
  </clipPath>
 </defs>
</svg>
