<?xml version="1.0" encoding="utf-8" standalone="no"?>
<!DOCTYPE svg PUBLIC "-//W3C//DTD SVG 1.1//EN"
  "http://www.w3.org/Graphics/SVG/1.1/DTD/svg11.dtd">
<svg xmlns:xlink="http://www.w3.org/1999/xlink" width="2160pt" height="2160pt" viewBox="0 0 2160 2160" xmlns="http://www.w3.org/2000/svg" version="1.1">
 <metadata>
  <rdf:RDF xmlns:dc="http://purl.org/dc/elements/1.1/" xmlns:cc="http://creativecommons.org/ns#" xmlns:rdf="http://www.w3.org/1999/02/22-rdf-syntax-ns#">
   <cc:Work>
    <dc:type rdf:resource="http://purl.org/dc/dcmitype/StillImage"/>
    <dc:date>2022-03-06T19:21:09.544259</dc:date>
    <dc:format>image/svg+xml</dc:format>
    <dc:creator>
     <cc:Agent>
      <dc:title>Matplotlib v3.5.1, https://matplotlib.org/</dc:title>
     </cc:Agent>
    </dc:creator>
   </cc:Work>
  </rdf:RDF>
 </metadata>
 <defs>
  <style type="text/css">*{stroke-linejoin: round; stroke-linecap: butt}</style>
 </defs>
 <g id="figure_1">
  <g id="patch_1">
   <path d="M 0 2160 
L 2160 2160 
L 2160 0 
L 0 0 
L 0 2160 
z
" style="fill: none"/>
  </g>
  <g id="axes_1">
   <g id="line2d_1">
    <path d="M 1232.154712 1432.393398 
L 1231.191554 1432.218421 
L 1230.247239 1431.998961 
L 1229.322318 1431.734774 
L 1228.417328 1431.425667 
" clip-path="url(#p4a21e73cc5)" style="fill: none; stroke: #ff8c00; stroke-width: 3; stroke-linecap: square"/>
   </g>
   <g id="line2d_2">
    <path d="M 1083.766215 1290.531447 
L 1079.766842 1295.11238 
L 1075.757733 1299.352147 
L 1072.740817 1302.252332 
L 1069.715342 1304.872291 
L 1066.684016 1307.178597 
L 1063.652024 1309.141143 
L 1060.626996 1310.733545 
L 1058.619007 1311.578308 
L 1056.621989 1312.24299 
L 1054.639826 1312.722913 
L 1052.676763 1313.014293 
L 1050.737359 1313.114257 
L 1048.826442 1313.020837 
L 1046.949061 1312.732971 
L 1045.110429 1312.250485 
L 1043.315871 1311.574075 
L 1041.570763 1310.705279 
L 1039.880479 1309.646437 
L 1038.250329 1308.400659 
L 1036.685505 1306.971769 
L 1035.191023 1305.364259 
L 1033.771668 1303.583227 
L 1032.431948 1301.634324 
L 1031.176042 1299.523682 
L 1030.007758 1297.257854 
L 1028.426939 1293.583319 
L 1027.060383 1289.599632 
L 1025.915209 1285.332121 
L 1024.995943 1280.80651 
L 1024.304433 1276.048429 
L 1023.839834 1271.08296 
L 1023.598651 1265.934213 
L 1023.574837 1260.624966 
L 1023.759944 1255.176355 
L 1024.143318 1249.607634 
L 1024.712323 1243.936001 
L 1025.734719 1236.239422 
L 1027.023486 1228.41601 
L 1028.537251 1220.488751 
L 1030.679228 1210.458932 
L 1033.986951 1196.228681 
L 1040.339076 1169.312559 
L 1043.044199 1156.715714 
L 1045.061499 1146.167319 
L 1046.473915 1137.719026 
L 1047.674768 1129.287427 
L 1048.636644 1120.901714 
L 1049.334595 1112.596464 
L 1049.746172 1104.41106 
L 1049.854865 1098.376574 
L 1049.783833 1092.453089 
L 1049.526546 1086.6604 
L 1049.077386 1081.018408 
L 1048.431674 1075.54671 
L 1047.585705 1070.264169 
L 1046.536774 1065.188495 
L 1045.2832 1060.335831 
L 1043.824335 1055.720378 
L 1042.160574 1051.354053 
L 1040.293343 1047.246208 
L 1038.225087 1043.403405 
L 1035.959244 1039.829276 
L 1033.500202 1036.524448 
L 1030.853266 1033.486562 
L 1028.024598 1030.710374 
L 1025.02117 1028.187942 
L 1021.850711 1025.908889 
L 1018.521645 1023.860749 
L 1015.043051 1022.029374 
L 1011.424615 1020.399398 
L 1007.676589 1018.954746 
L 1003.809766 1017.679165 
L 999.835456 1016.55678 
L 994.389661 1015.272906 
L 988.803188 1014.203671 
L 983.106917 1013.324295 
L 975.88162 1012.467565 
L 968.60173 1011.870253 
L 962.784978 1011.586732 
L 957.014078 1011.494214 
L 951.326008 1011.619184 
L 945.757662 1011.995786 
L 941.681753 1012.467259 
L 937.708234 1013.120999 
L 933.851079 1013.975902 
L 930.123312 1015.050837 
L 926.536768 1016.364036 
L 923.101851 1017.932489 
L 919.827296 1019.771367 
L 917.736814 1021.153965 
L 915.722211 1022.665626 
L 913.784569 1024.308855 
L 911.924514 1026.085492 
L 910.1422 1027.996675 
L 907.613628 1031.116394 
L 905.255884 1034.537694 
L 903.063224 1038.254752 
L 901.027408 1042.257784 
L 899.137791 1046.53312 
L 897.381465 1051.063378 
L 895.743461 1055.827707 
L 893.714279 1062.502373 
L 891.821611 1069.485823 
L 889.134841 1080.382535 
L 884.184844 1100.874953 
L 881.712823 1110.04455 
L 879.560473 1117.170407 
L 877.218875 1124.032621 
L 875.323798 1128.966773 
L 873.301253 1133.690639 
L 871.14622 1138.181318 
L 868.856007 1142.418293 
L 866.43016 1146.383532 
L 863.870313 1150.061573 
L 861.179985 1153.439577 
L 858.364348 1156.507363 
L 855.429955 1159.257428 
L 852.384451 1161.684945 
L 849.236273 1163.787745 
L 845.994347 1165.566284 
L 842.667798 1167.023592 
L 839.265675 1168.165196 
L 835.796704 1168.999027 
L 832.269075 1169.535297 
L 828.690269 1169.786355 
L 825.066927 1169.766499 
L 821.404765 1169.491772 
L 817.70854 1168.979709 
L 813.982056 1168.249063 
L 810.228219 1167.31949 
L 805.184083 1165.805604 
L 800.098148 1164.022341 
L 793.684489 1161.486276 
L 785.908337 1158.105142 
L 776.733949 1153.850968 
L 763.486285 1147.440671 
L 752.863064 1142.098345 
L 744.965911 1137.912687 
L 738.489648 1134.239583 
L 733.412331 1131.132511 
L 728.456423 1127.834085 
L 723.649935 1124.304346 
L 720.160168 1121.481502 
L 716.782249 1118.490689 
L 713.52782 1115.317568 
L 710.408182 1111.949584 
L 707.434198 1108.376365 
L 704.616212 1104.590075 
L 701.963988 1100.585695 
L 699.486668 1096.361248 
L 697.192745 1091.917945 
L 695.090055 1087.260268 
L 693.185776 1082.39597 
L 691.486443 1077.33602 
L 689.997962 1072.094476 
L 688.725626 1066.688301 
L 687.674129 1061.137139 
L 686.847578 1055.463042 
L 686.249486 1049.690162 
L 685.882763 1043.844438 
L 685.749689 1037.953247 
L 685.851877 1032.045068 
L 686.190221 1026.149137 
L 686.764836 1020.295119 
L 687.574988 1014.512788 
L 688.619017 1008.831726 
L 689.894262 1003.281047 
L 691.396991 997.889136 
L 693.122332 992.683416 
L 695.064228 987.690136 
L 697.215396 982.93417 
L 699.567321 978.438845 
L 702.110262 974.225774 
L 704.833299 970.314703 
L 707.724394 966.723368 
L 709.738752 964.514565 
L 711.817932 962.458903 
L 713.957691 960.559973 
L 716.153651 958.820882 
L 718.401331 957.244237 
L 720.696169 955.832125 
L 723.033554 954.5861 
L 725.408851 953.507169 
L 727.817438 952.595773 
L 730.254737 951.851781 
L 732.71624 951.27447 
L 735.197549 950.862525 
L 737.694403 950.614021 
L 740.202707 950.526423 
L 742.718567 950.596582 
L 745.238309 950.820735 
L 749.017791 951.435964 
L 752.787992 952.370381 
L 756.54005 953.603702 
L 760.266726 955.112794 
L 763.962475 956.871858 
L 767.623466 958.852651 
L 771.247563 961.024754 
L 776.021647 964.162482 
L 781.900891 968.359077 
L 792.286496 976.185022 
L 799.127689 981.203649 
L 803.679702 984.303235 
L 808.240443 987.121448 
L 811.673705 989.011437 
L 815.122173 990.682686 
L 818.588559 992.113947 
L 822.074321 993.286946 
L 825.579546 994.186443 
L 829.10287 994.800223 
L 832.641428 995.119015 
L 836.190853 995.136365 
L 839.74531 994.848436 
L 843.297564 994.253776 
L 846.839084 993.353041 
L 850.360177 992.148695 
L 853.850155 990.644694 
L 857.297513 988.846171 
L 860.690142 986.75912 
L 864.015544 984.390111 
L 867.261062 981.746024 
L 870.414114 978.833826 
L 873.462431 975.660388 
L 876.394287 972.232358 
L 879.198726 968.556083 
L 881.865775 964.637585 
L 884.38665 960.482596 
L 886.753937 956.096644 
L 888.961766 951.485179 
L 891.005952 946.653751 
L 892.884126 941.608211 
L 894.595836 936.354944 
L 896.142618 930.901103 
L 897.528052 925.25486 
L 898.75778 919.425632 
L 899.839499 913.424298 
L 901.06863 905.176697 
L 902.080517 896.680253 
L 902.909279 887.975597 
L 903.747963 876.873584 
L 904.841031 858.84898 
L 905.972765 840.929906 
L 906.881259 830.015509 
L 907.799207 821.546211 
L 908.937871 813.377819 
L 909.962664 807.484117 
L 911.152128 801.814796 
L 912.520815 796.389989 
L 914.081329 791.227314 
L 915.844177 786.341632 
L 917.817648 781.744868 
L 920.007744 777.445881 
L 921.590067 774.748284 
L 923.270865 772.186576 
L 925.050202 769.761077 
L 926.927694 767.47151 
L 928.902529 765.31702 
L 930.973476 763.296199 
L 933.138905 761.407106 
L 935.39681 759.647306 
L 937.744831 758.0139 
L 941.429865 755.793399 
L 945.301229 753.836901 
L 949.347319 752.129952 
L 953.55547 750.656781 
L 957.9122 749.40062 
L 962.40345 748.344022 
L 967.01482 747.469159 
L 971.731794 746.758094 
L 978.16047 746.034095 
L 984.717935 745.528564 
L 993.047635 745.144164 
L 1003.16311 744.952044 
L 1016.712808 744.971496 
L 1045.071872 745.116819 
L 1054.779907 744.93879 
L 1062.706941 744.612625 
L 1070.467728 744.081692 
L 1078.046775 743.306302 
L 1083.969436 742.483993 
L 1089.759653 741.461524 
L 1095.411092 740.220954 
L 1100.918139 738.74571 
L 1106.276129 737.02093 
L 1110.194665 735.555799 
L 1114.026447 733.93852 
L 1117.771074 732.165388 
L 1121.428728 730.233589 
L 1125.000229 728.141267 
L 1128.487068 725.887576 
L 1131.891439 723.472729 
L 1135.216247 720.898043 
L 1138.465105 718.165984 
L 1142.686299 714.284921 
L 1146.792157 710.142781 
L 1150.796447 705.755678 
L 1154.714408 701.143958 
L 1159.515361 695.101628 
L 1165.1786 687.522502 
L 1172.655365 677.068593 
L 1182.045727 663.967438 
L 1186.808715 657.652073 
L 1190.663232 652.824037 
L 1194.559172 648.26781 
L 1198.495021 644.052024 
L 1201.470272 641.155063 
L 1204.461963 638.517031 
L 1207.465735 636.165799 
L 1210.476224 634.12804 
L 1213.487104 632.428812 
L 1216.491149 631.091133 
L 1218.486097 630.410478 
L 1220.471855 629.90512 
L 1222.4457 629.579856 
L 1224.404775 629.438828 
L 1226.346108 629.485477 
L 1228.266614 629.722508 
L 1230.163113 630.151859 
L 1232.032341 630.77467 
L 1233.87096 631.591262 
L 1235.675572 632.601126 
L 1237.442733 633.802908 
L 1239.168963 635.194411 
L 1240.850762 636.772601 
L 1242.484621 638.533617 
L 1244.067038 640.47279 
L 1246.336599 643.703475 
L 1248.470991 647.301088 
L 1250.458899 651.240676 
L 1252.289408 655.494205 
L 1253.952118 660.031012 
L 1255.43727 664.818292 
L 1256.735866 669.821642 
L 1257.839801 675.005623 
L 1258.741985 680.334352 
L 1259.436467 685.772088 
L 1259.918551 691.283826 
L 1260.184905 696.835864 
L 1260.233655 702.396346 
L 1260.064466 707.935766 
L 1259.6786 713.427416 
L 1259.078954 718.847791 
L 1258.270076 724.176911 
L 1257.258147 729.398582 
L 1256.050943 734.500578 
L 1254.657764 739.474746 
L 1253.089341 744.317025 
L 1251.357706 749.027389 
L 1249.476051 753.609714 
L 1246.758449 759.533885 
L 1243.835215 765.271503 
L 1240.74383 770.859099 
L 1236.701569 777.700339 
L 1228.305294 791.285464 
L 1223.256622 799.655701 
L 1219.141152 806.908828 
L 1215.949278 812.953432 
L 1212.874765 819.249545 
L 1209.941212 825.820423 
L 1207.170517 832.678374 
L 1204.583407 839.823893 
L 1202.199997 847.245224 
L 1200.040349 854.918343 
L 1198.12496 862.807381 
L 1196.861481 868.838057 
L 1195.756697 874.940627 
L 1194.820275 881.08899 
L 1194.062177 887.254804 
L 1193.492581 893.407993 
L 1193.121773 899.517291 
L 1192.959997 905.550837 
L 1193.017266 911.476784 
L 1193.303155 917.263924 
L 1193.826564 922.882321 
L 1194.595461 928.303924 
L 1195.616629 933.503164 
L 1196.895402 938.457504 
L 1198.43542 943.147948 
L 1199.608169 946.120711 
L 1200.897825 948.966032 
L 1202.303936 951.681424 
L 1203.825588 954.265325 
L 1205.461389 956.717132 
L 1207.209455 959.037206 
L 1209.067408 961.226884 
L 1211.032373 963.288471 
L 1213.100975 965.225229 
L 1215.269352 967.041355 
L 1218.699371 969.550759 
L 1222.327428 971.821236 
L 1226.134763 973.877593 
L 1230.100646 975.748161 
L 1234.202609 977.464258 
L 1239.842038 979.570614 
L 1248.543201 982.513266 
L 1260.267245 986.486381 
L 1266.040052 988.681188 
L 1270.28039 990.480105 
L 1274.416891 992.440507 
L 1278.426199 994.586011 
L 1282.286285 996.936292 
L 1285.976597 999.506807 
L 1289.478177 1002.308624 
L 1292.773759 1005.348357 
L 1295.84783 1008.628213 
L 1297.767304 1010.947339 
L 1299.578589 1013.370741 
L 1301.278441 1015.896055 
L 1302.863982 1018.520213 
L 1304.332703 1021.239503 
L 1306.312168 1025.487273 
L 1308.018396 1029.922715 
L 1309.4476 1034.527184 
L 1310.597875 1039.280565 
L 1311.469209 1044.161857 
L 1312.063496 1049.149762 
L 1312.384559 1054.223246 
L 1312.438161 1059.362056 
L 1312.232028 1064.547195 
L 1311.775863 1069.761315 
L 1311.081346 1074.989037 
L 1310.162129 1080.21719 
L 1309.033808 1085.434947 
L 1307.713879 1090.633871 
L 1305.689562 1097.526257 
L 1303.409671 1104.366102 
L 1300.929596 1111.150844 
L 1296.965251 1121.229733 
L 1287.698964 1144.37635 
L 1285.340336 1150.905842 
L 1283.224366 1157.390008 
L 1281.407264 1163.815015 
L 1280.271209 1168.582954 
L 1279.350676 1173.295394 
L 1278.662132 1177.939612 
L 1278.219472 1182.501343 
L 1278.033865 1186.965123 
L 1278.113652 1191.314705 
L 1278.464285 1195.533525 
L 1279.088317 1199.605203 
L 1279.985433 1203.514061 
L 1281.152533 1207.245636 
L 1282.583855 1210.787165 
L 1284.271137 1214.128028 
L 1286.203823 1217.26013 
L 1288.369291 1220.178202 
L 1290.753116 1222.880007 
L 1293.339348 1225.36645 
L 1296.110814 1227.641571 
L 1299.049424 1229.712439 
L 1302.136486 1231.588927 
L 1305.353018 1233.283395 
L 1308.680058 1234.810282 
L 1313.25587 1236.613324 
L 1317.952665 1238.187735 
L 1323.934124 1239.897458 
L 1331.185546 1241.671132 
L 1340.829823 1243.741696 
L 1353.826678 1246.283959 
L 1364.185443 1248.103577 
L 1370.997672 1249.097688 
L 1376.657976 1249.731021 
L 1382.338234 1250.144811 
L 1388.070665 1250.310849 
L 1393.882702 1250.218518 
L 1399.793061 1249.879583 
L 1407.02334 1249.200851 
L 1419.342515 1247.722535 
L 1428.023426 1246.785281 
L 1434.142154 1246.366486 
L 1438.924825 1246.272667 
L 1442.415202 1246.380867 
L 1445.799287 1246.666988 
L 1449.055521 1247.151108 
L 1452.162401 1247.850776 
L 1455.098944 1248.780722 
L 1457.845128 1249.952671 
L 1460.382341 1251.375248 
L 1461.949341 1252.465726 
L 1463.411508 1253.671002 
L 1464.764872 1254.991393 
L 1466.005983 1256.42667 
L 1467.131941 1257.97609 
L 1468.140426 1259.638438 
L 1469.029722 1261.412063 
L 1469.798724 1263.29493 
L 1470.446953 1265.284657 
L 1471.193333 1268.463695 
L 1471.67152 1271.86707 
L 1471.887589 1275.483832 
L 1471.850416 1279.302421 
L 1471.571409 1283.310922 
L 1471.064173 1287.49728 
L 1470.344125 1291.84944 
L 1469.082188 1297.88955 
L 1467.514018 1304.17498 
L 1465.682671 1310.677559 
L 1463.087165 1319.067202 
L 1459.621517 1329.438898 
L 1455.227261 1341.810428 
L 1450.563089 1354.263132 
L 1446.390597 1364.799178 
L 1442.789618 1373.331812 
L 1439.816953 1379.904807 
L 1436.749386 1386.178317 
L 1433.572346 1392.08209 
L 1431.108527 1396.225396 
L 1428.568291 1400.09332 
L 1425.945939 1403.659185 
L 1423.236587 1406.8985 
L 1420.436402 1409.789564 
L 1418.517808 1411.514253 
L 1416.557221 1413.071432 
L 1414.554487 1414.457436 
L 1412.509739 1415.669489 
L 1410.423401 1416.70575 
L 1408.296187 1417.565363 
L 1406.129088 1418.248482 
L 1403.923366 1418.756302 
L 1401.680536 1419.091072 
L 1399.402349 1419.256102 
L 1397.090766 1419.255757 
L 1394.747937 1419.095447 
L 1391.180202 1418.569378 
L 1387.555724 1417.72389 
L 1383.883274 1416.589428 
L 1380.171831 1415.200631 
L 1376.430355 1413.595795 
L 1371.410001 1411.19174 
L 1365.110437 1407.909363 
L 1351.299604 1400.598648 
L 1346.32791 1398.23994 
L 1342.622588 1396.670892 
L 1338.937963 1395.312238 
L 1335.273436 1394.194487 
L 1331.627446 1393.343385 
L 1327.997576 1392.779521 
L 1324.380684 1392.518008 
L 1320.773049 1392.568282 
L 1317.170535 1392.933992 
L 1313.568767 1393.612998 
L 1309.963319 1394.597457 
L 1306.349911 1395.874019 
L 1302.7246 1397.424093 
L 1299.083988 1399.224211 
L 1295.425409 1401.246451 
L 1290.516501 1404.232685 
L 1284.330108 1408.310594 
L 1264.318004 1421.817108 
L 1259.348838 1424.779234 
L 1255.662572 1426.770472 
L 1252.026446 1428.523458 
L 1248.455523 1430.004507 
L 1244.965788 1431.183152 
L 1241.573882 1432.032472 
L 1238.296791 1432.529346 
L 1236.184255 1432.655181 
L 1234.135279 1432.61114 
L 1233.136147 1432.524188 
L 1233.136147 1432.524188 
" clip-path="url(#p4a21e73cc5)" style="fill: none; stroke: #ff8c00; stroke-width: 3; stroke-linecap: square"/>
   </g>
   <g id="PathCollection_1">
    <defs>
     <path id="m23e1267be1" d="M 0 3.162278 
C 0.838646 3.162278 1.643056 2.82908 2.236068 2.236068 
C 2.82908 1.643056 3.162278 0.838646 3.162278 0 
C 3.162278 -0.838646 2.82908 -1.643056 2.236068 -2.236068 
C 1.643056 -2.82908 0.838646 -3.162278 0 -3.162278 
C -0.838646 -3.162278 -1.643056 -2.82908 -2.236068 -2.236068 
C -2.82908 -1.643056 -3.162278 -0.838646 -3.162278 0 
C -3.162278 0.838646 -2.82908 1.643056 -2.236068 2.236068 
C -1.643056 2.82908 -0.838646 3.162278 0 3.162278 
z
" style="stroke: #00bfff"/>
    </defs>
    <g clip-path="url(#p4a21e73cc5)">
     <use xlink:href="#m23e1267be1" x="1227.532783" y="1431.071497" style="fill: #00bfff; stroke: #00bfff"/>
     <use xlink:href="#m23e1267be1" x="1219.909594" y="1425.055731" style="fill: #00bfff; stroke: #00bfff"/>
     <use xlink:href="#m23e1267be1" x="1211.304016" y="1389.08405" style="fill: #00bfff; stroke: #00bfff"/>
     <use xlink:href="#m23e1267be1" x="1211.284308" y="1383.766562" style="fill: #00bfff; stroke: #00bfff"/>
     <use xlink:href="#m23e1267be1" x="1212.310273" y="1359.139727" style="fill: #00bfff; stroke: #00bfff"/>
     <use xlink:href="#m23e1267be1" x="1213.508961" y="1331.589598" style="fill: #00bfff; stroke: #00bfff"/>
     <use xlink:href="#m23e1267be1" x="1212.917057" y="1312.530889" style="fill: #00bfff; stroke: #00bfff"/>
     <use xlink:href="#m23e1267be1" x="1211.858138" y="1303.45079" style="fill: #00bfff; stroke: #00bfff"/>
     <use xlink:href="#m23e1267be1" x="1210.574112" y="1296.468992" style="fill: #00bfff; stroke: #00bfff"/>
     <use xlink:href="#m23e1267be1" x="1210.188741" y="1294.767098" style="fill: #00bfff; stroke: #00bfff"/>
     <use xlink:href="#m23e1267be1" x="1207.860809" y="1286.54315" style="fill: #00bfff; stroke: #00bfff"/>
     <use xlink:href="#m23e1267be1" x="1205.507574" y="1280.333915" style="fill: #00bfff; stroke: #00bfff"/>
     <use xlink:href="#m23e1267be1" x="1202.71645" y="1274.483495" style="fill: #00bfff; stroke: #00bfff"/>
     <use xlink:href="#m23e1267be1" x="1157.903037" y="1241.4018" style="fill: #00bfff; stroke: #00bfff"/>
     <use xlink:href="#m23e1267be1" x="1146.949511" y="1241.078489" style="fill: #00bfff; stroke: #00bfff"/>
     <use xlink:href="#m23e1267be1" x="1123.569336" y="1249.085607" style="fill: #00bfff; stroke: #00bfff"/>
     <use xlink:href="#m23e1267be1" x="1098.94136" y="1271.998312" style="fill: #00bfff; stroke: #00bfff"/>
     <use xlink:href="#m23e1267be1" x="1095.852825" y="1275.726356" style="fill: #00bfff; stroke: #00bfff"/>
     <use xlink:href="#m23e1267be1" x="1092.800773" y="1279.48542" style="fill: #00bfff; stroke: #00bfff"/>
     <use xlink:href="#m23e1267be1" x="1083.766215" y="1290.531447" style="fill: #00bfff; stroke: #00bfff"/>
    </g>
   </g>
   <g id="PathCollection_2">
    <defs>
     <path id="m5a8ee7398b" d="M 0 3.162278 
C 0.838646 3.162278 1.643056 2.82908 2.236068 2.236068 
C 2.82908 1.643056 3.162278 0.838646 3.162278 0 
C 3.162278 -0.838646 2.82908 -1.643056 2.236068 -2.236068 
C 1.643056 -2.82908 0.838646 -3.162278 0 -3.162278 
C -0.838646 -3.162278 -1.643056 -2.82908 -2.236068 -2.236068 
C -2.82908 -1.643056 -3.162278 -0.838646 -3.162278 0 
C -3.162278 0.838646 -2.82908 1.643056 -2.236068 2.236068 
C -1.643056 2.82908 -0.838646 3.162278 0 3.162278 
z
" style="stroke: #000000"/>
    </defs>
    <g clip-path="url(#p4a21e73cc5)">
     <use xlink:href="#m5a8ee7398b" x="1227.532783" y="1431.071497" style="stroke: #000000"/>
    </g>
   </g>
   <g id="PathCollection_3">
    <g clip-path="url(#p4a21e73cc5)">
     <use xlink:href="#m5a8ee7398b" x="1083.766215" y="1290.531447" style="stroke: #000000"/>
    </g>
   </g>
  </g>
 </g>
 <defs>
  <clipPath id="p4a21e73cc5">
   <rect x="270" y="259.2" width="1674" height="1630.8"/>
  </clipPath>
 </defs>
</svg>
