<?xml version="1.0" encoding="utf-8" standalone="no"?>
<!DOCTYPE svg PUBLIC "-//W3C//DTD SVG 1.1//EN"
  "http://www.w3.org/Graphics/SVG/1.1/DTD/svg11.dtd">
<svg xmlns:xlink="http://www.w3.org/1999/xlink" width="2160pt" height="2160pt" viewBox="0 0 2160 2160" xmlns="http://www.w3.org/2000/svg" version="1.1">
 <metadata>
  <rdf:RDF xmlns:dc="http://purl.org/dc/elements/1.1/" xmlns:cc="http://creativecommons.org/ns#" xmlns:rdf="http://www.w3.org/1999/02/22-rdf-syntax-ns#">
   <cc:Work>
    <dc:type rdf:resource="http://purl.org/dc/dcmitype/StillImage"/>
    <dc:date>2022-03-06T19:21:07.940804</dc:date>
    <dc:format>image/svg+xml</dc:format>
    <dc:creator>
     <cc:Agent>
      <dc:title>Matplotlib v3.5.1, https://matplotlib.org/</dc:title>
     </cc:Agent>
    </dc:creator>
   </cc:Work>
  </rdf:RDF>
 </metadata>
 <defs>
  <style type="text/css">*{stroke-linejoin: round; stroke-linecap: butt}</style>
 </defs>
 <g id="figure_1">
  <g id="patch_1">
   <path d="M 0 2160 
L 2160 2160 
L 2160 0 
L 0 0 
L 0 2160 
z
" style="fill: none"/>
  </g>
  <g id="axes_1">
   <g id="line2d_1">
    <path d="M 1232.154712 1432.393398 
L 1231.191554 1432.218421 
L 1230.247239 1431.998961 
L 1229.322318 1431.734774 
L 1228.417328 1431.425667 
L 1227.532783 1431.071497 
L 1226.669181 1430.672174 
L 1225.826997 1430.227657 
L 1225.006686 1429.737954 
L 1224.208676 1429.203124 
L 1223.43337 1428.623273 
L 1222.681146 1427.998556 
L 1221.952353 1427.329174 
L 1221.247309 1426.615373 
L 1220.566303 1425.857447 
L 1219.909594 1425.055731 
L 1219.277405 1424.210605 
L 1218.669926 1423.32249 
L 1218.087315 1422.391848 
L 1217.529689 1421.419181 
L 1216.997134 1420.405028 
L 1216.489696 1419.349966 
L 1216.007383 1418.254608 
L 1215.550167 1417.1196 
L 1215.117977 1415.945623 
L 1214.710707 1414.733388 
L 1214.328209 1413.483636 
L 1213.970297 1412.197137 
L 1213.636742 1410.874689 
L 1213.327279 1409.517116 
L 1213.041601 1408.125263 
L 1212.77936 1406.7 
L 1212.540172 1405.24222 
L 1212.323612 1403.752832 
L 1212.129215 1402.232765 
L 1211.956479 1400.682965 
L 1211.804866 1399.104392 
L 1211.6738 1397.49802 
L 1211.562667 1395.864836 
L 1211.470821 1394.205836 
L 1211.397579 1392.522028 
L 1211.342226 1390.814426 
L 1211.304016 1389.08405 
L 1211.282169 1387.331927 
L 1211.275879 1385.559087 
L 1211.284308 1383.766562 
L 1211.306593 1381.955386 
L 1211.341845 1380.126593 
L 1211.389151 1378.281217 
L 1211.447575 1376.420288 
L 1211.516161 1374.544833 
L 1211.593933 1372.655877 
L 1211.679896 1370.754437 
L 1211.773041 1368.841524 
L 1211.872345 1366.918143 
L 1211.976771 1364.98529 
L 1212.085273 1363.043953 
L 1212.196794 1361.09511 
L 1212.310273 1359.139727 
L 1212.424642 1357.178761 
L 1212.538831 1355.213157 
" clip-path="url(#p0a30f1a9ec)" style="fill: none; stroke: #ff8c00; stroke-width: 3; stroke-linecap: square"/>
   </g>
   <g id="line2d_2">
    <path d="M 1106.346531 1263.641737 
L 1102.076575 1268.341336 
L 1096.877778 1274.478218 
L 1080.767225 1293.995398 
L 1076.761355 1298.329344 
L 1073.74747 1301.315003 
L 1070.724668 1304.032235 
L 1067.694839 1306.44661 
L 1064.66234 1308.526866 
L 1061.633996 1310.245337 
L 1059.621858 1311.178109 
L 1057.618893 1311.933472 
L 1055.628793 1312.506304 
L 1053.655629 1312.892372 
L 1051.703807 1313.088346 
L 1049.778028 1313.091807 
L 1047.883237 1312.901241 
L 1046.024571 1312.516032 
L 1044.207305 1311.936444 
L 1042.436799 1311.163597 
L 1040.718434 1310.199437 
L 1039.057559 1309.046693 
L 1037.459433 1307.708837 
L 1035.929166 1306.190036 
L 1034.471665 1304.495092 
L 1033.091584 1302.629387 
L 1031.793271 1300.59882 
L 1030.580725 1298.409743 
L 1028.930496 1294.843744 
L 1027.491603 1290.960328 
L 1026.272002 1286.784576 
L 1025.277095 1282.342135 
L 1024.509627 1277.658722 
L 1023.969651 1272.759647 
L 1023.654544 1267.669389 
L 1023.559097 1262.411207 
L 1023.675642 1257.006814 
L 1023.994239 1251.476115 
L 1024.502883 1245.837007 
L 1025.452598 1238.176498 
L 1026.678537 1230.382387 
L 1028.140075 1222.479279 
L 1030.23236 1212.474577 
L 1033.016835 1200.315023 
L 1041.268703 1165.123464 
L 1043.467385 1154.608696 
L 1045.432846 1144.055067 
L 1046.795075 1135.608516 
L 1047.938657 1127.185435 
L 1048.836794 1118.816396 
L 1049.465158 1110.537245 
L 1049.801933 1102.388437 
L 1049.851498 1096.388775 
L 1049.719062 1090.506675 
L 1049.398396 1084.762014 
L 1048.884191 1079.174636 
L 1048.17209 1073.763943 
L 1047.258717 1068.54846 
L 1046.141708 1063.545417 
L 1044.819724 1058.770352 
L 1043.292465 1054.236739 
L 1041.560671 1049.955668 
L 1039.626111 1045.935584 
L 1037.491563 1042.182083 
L 1035.160786 1038.6978 
L 1032.63848 1035.48236 
L 1029.93024 1032.532427 
L 1027.042506 1029.841834 
L 1023.982507 1027.401792 
L 1020.75821 1025.201187 
L 1017.378262 1023.226944 
L 1013.851949 1021.464456 
L 1010.18915 1019.89806 
L 1006.400299 1018.511563 
L 1002.496366 1017.288778 
L 997.132014 1015.886189 
L 991.612115 1014.713181 
L 985.966789 1013.741499 
L 980.227666 1012.950246 
L 972.972396 1012.197364 
L 965.68992 1011.705933 
L 959.891491 1011.51514 
L 954.157374 1011.527539 
L 948.524585 1011.773645 
L 944.388544 1012.133841 
L 940.345163 1012.663993 
L 936.408921 1013.382677 
L 932.593502 1014.308846 
L 928.911561 1015.461226 
L 925.374481 1016.8577 
L 921.992136 1018.514714 
L 918.772655 1020.446714 
L 916.71995 1021.893491 
L 914.743719 1023.470664 
L 912.844822 1025.18041 
L 911.023649 1027.024223 
L 908.437293 1030.042806 
L 906.023121 1033.364029 
L 903.776226 1036.983394 
L 901.689195 1040.892431 
L 899.752171 1045.078751 
L 897.952981 1049.526186 
L 896.277317 1054.21501 
L 894.206996 1060.802111 
L 892.284517 1067.714811 
L 890.018279 1076.706739 
L 883.22125 1104.569615 
L 881.1909 1111.84694 
L 878.993874 1118.91333 
L 876.600939 1125.699196 
L 874.664076 1130.565938 
L 872.59781 1135.214505 
L 870.397902 1139.622775 
L 868.062422 1143.771049 
L 865.59163 1147.642145 
L 862.987811 1151.22147 
L 860.255065 1154.497066 
L 857.399055 1157.459647 
L 854.42673 1160.1026 
L 851.346033 1162.421989 
L 848.165598 1164.416523 
L 844.894449 1166.087524 
L 841.541714 1167.438862 
L 838.116361 1168.476878 
L 834.62696 1169.210278 
L 831.08148 1169.650006 
L 827.487135 1169.809079 
L 823.850265 1169.702405 
L 820.176268 1169.346551 
L 816.46958 1168.759492 
L 812.733697 1167.960318 
L 808.971246 1166.968913 
L 803.916432 1165.383165 
L 798.820356 1163.540023 
L 792.39442 1160.945146 
L 784.604152 1157.514314 
L 774.095063 1152.594106 
L 760.827398 1146.124307 
L 750.219811 1140.724533 
L 742.360968 1136.467586 
L 735.937536 1132.707501 
L 730.917465 1129.509705 
L 726.032732 1126.100627 
L 722.474981 1123.381116 
L 719.021187 1120.503968 
L 715.683152 1117.453899 
L 712.472418 1114.217119 
L 709.400148 1110.781757 
L 706.477041 1107.138251 
L 703.713254 1103.279676 
L 701.118348 1099.202005 
L 698.701249 1094.904311 
L 696.470233 1090.38889 
L 694.432914 1085.661317 
L 692.596256 1080.730427 
L 690.966581 1075.608236 
L 689.54959 1070.309792 
L 688.350374 1064.852981 
L 687.373433 1059.258281 
L 686.622674 1053.548477 
L 686.101412 1047.748356 
L 685.81235 1041.884373 
L 685.757552 1035.98431 
L 685.938396 1030.076937 
L 686.355525 1024.19167 
L 687.008778 1018.358243 
L 687.897122 1012.606399 
L 689.01857 1006.965594 
L 690.370112 1001.464726 
L 691.947644 996.131885 
L 693.745903 990.994127 
L 695.758427 986.07726 
L 697.977521 981.405664 
L 700.39426 977.002112 
L 702.998503 972.88761 
L 705.778948 969.08125 
L 708.723211 965.600067 
L 710.770501 963.467356 
L 712.88051 961.489641 
L 715.048923 959.670273 
L 717.27131 958.012111 
L 719.543143 956.517505 
L 721.859833 955.188276 
L 724.216753 954.025707 
L 726.609271 953.030524 
L 729.032782 952.202883 
L 731.482741 951.542358 
L 733.954689 951.047933 
L 736.444293 950.717987 
L 738.947372 950.550291 
L 741.459928 950.542004 
L 743.978172 950.689668 
L 747.758512 951.194505 
L 751.532869 952.024636 
L 755.291861 953.160755 
L 759.027699 954.580662 
L 762.734267 956.259425 
L 766.407164 958.169586 
L 770.043694 960.281421 
L 774.834258 963.355896 
L 779.560299 966.65293 
L 786.542796 971.833823 
L 797.98951 980.39304 
L 802.541378 983.552034 
L 807.098772 986.446928 
L 810.527762 988.404612 
L 813.970802 990.151279 
L 817.430989 991.664715 
L 820.910212 992.925645 
L 824.409029 993.917816 
L 827.926564 994.628008 
L 831.460455 995.045982 
L 835.006834 995.164364 
L 838.560351 994.978468 
L 842.114225 994.486077 
L 845.660346 993.687176 
L 849.18939 992.583661 
L 852.690982 991.179027 
L 856.153867 989.478048 
L 859.566113 987.486465 
L 862.915327 985.210689 
L 866.18888 982.65752 
L 869.374137 979.833921 
L 872.4587 976.746811 
L 875.430637 973.402924 
L 878.278709 969.808712 
L 880.992593 965.970305 
L 883.563088 961.893525 
L 885.982303 957.583954 
L 888.243835 953.047052 
L 890.342924 948.288314 
L 892.276582 943.313467 
L 894.043709 938.128691 
L 895.64517 932.740855 
L 897.083862 927.157766 
L 898.364738 921.388401 
L 899.494813 915.443129 
L 900.782925 907.26338 
L 901.846139 898.825575 
L 902.717191 890.168832 
L 903.594182 879.109369 
L 904.579959 863.365071 
L 905.972765 840.929906 
L 906.881259 830.015509 
L 907.799207 821.546211 
L 908.937871 813.377819 
L 909.962664 807.484117 
L 911.152128 801.814796 
L 912.520815 796.389989 
L 914.081329 791.227314 
L 915.844177 786.341632 
L 917.817648 781.744868 
L 920.007744 777.445881 
L 921.590067 774.748284 
L 923.270865 772.186576 
L 925.050202 769.761077 
L 926.927694 767.47151 
L 928.902529 765.31702 
L 930.973476 763.296199 
L 933.138905 761.407106 
L 935.39681 759.647306 
L 937.744831 758.0139 
L 941.429865 755.793399 
L 945.301229 753.836901 
L 949.347319 752.129952 
L 953.55547 750.656781 
L 957.9122 749.40062 
L 962.40345 748.344022 
L 967.01482 747.469159 
L 971.731794 746.758094 
L 978.16047 746.034095 
L 984.717935 745.528564 
L 993.047635 745.144164 
L 1003.16311 744.952044 
L 1016.712808 744.971496 
L 1045.071872 745.116819 
L 1054.779907 744.93879 
L 1062.706941 744.612625 
L 1070.467728 744.081692 
L 1078.046775 743.306302 
L 1083.969436 742.483993 
L 1089.759653 741.461524 
L 1095.411092 740.220954 
L 1100.918139 738.74571 
L 1106.276129 737.02093 
L 1110.194665 735.555799 
L 1114.026447 733.93852 
L 1117.771074 732.165388 
L 1121.428728 730.233589 
L 1125.000229 728.141267 
L 1128.487068 725.887576 
L 1131.891439 723.472729 
L 1135.216247 720.898043 
L 1138.465105 718.165984 
L 1142.686299 714.284921 
L 1146.792157 710.142781 
L 1150.796447 705.755678 
L 1154.714408 701.143958 
L 1159.515361 695.101628 
L 1165.1786 687.522502 
L 1172.655365 677.068593 
L 1182.045727 663.967438 
L 1186.808715 657.652073 
L 1190.663232 652.824037 
L 1194.559172 648.26781 
L 1198.495021 644.052024 
L 1201.470272 641.155063 
L 1204.461963 638.517031 
L 1207.465735 636.165799 
L 1210.476224 634.12804 
L 1213.487104 632.428812 
L 1216.491149 631.091133 
L 1218.486097 630.410478 
L 1220.471855 629.90512 
L 1222.4457 629.579856 
L 1224.404775 629.438828 
L 1226.346108 629.485477 
L 1228.266614 629.722508 
L 1230.163113 630.151859 
L 1232.032341 630.77467 
L 1233.87096 631.591262 
L 1235.675572 632.601126 
L 1237.442733 633.802908 
L 1239.168963 635.194411 
L 1240.850762 636.772601 
L 1242.484621 638.533617 
L 1244.067038 640.47279 
L 1246.336599 643.703475 
L 1248.470991 647.301088 
L 1250.458899 651.240676 
L 1252.289408 655.494205 
L 1253.952118 660.031012 
L 1255.43727 664.818292 
L 1256.735866 669.821642 
L 1257.839801 675.005623 
L 1258.741985 680.334352 
L 1259.436467 685.772088 
L 1259.918551 691.283826 
L 1260.184905 696.835864 
L 1260.233655 702.396346 
L 1260.064466 707.935766 
L 1259.6786 713.427416 
L 1259.078954 718.847791 
L 1258.270076 724.176911 
L 1257.258147 729.398582 
L 1256.050943 734.500578 
L 1254.657764 739.474746 
L 1253.089341 744.317025 
L 1251.357706 749.027389 
L 1249.476051 753.609714 
L 1246.758449 759.533885 
L 1243.835215 765.271503 
L 1240.74383 770.859099 
L 1236.701569 777.700339 
L 1228.305294 791.285464 
L 1223.256622 799.655701 
L 1219.141152 806.908828 
L 1215.949278 812.953432 
L 1212.874765 819.249545 
L 1209.941212 825.820423 
L 1207.170517 832.678374 
L 1204.583407 839.823893 
L 1202.199997 847.245224 
L 1200.040349 854.918343 
L 1198.12496 862.807381 
L 1196.861481 868.838057 
L 1195.756697 874.940627 
L 1194.820275 881.08899 
L 1194.062177 887.254804 
L 1193.492581 893.407993 
L 1193.121773 899.517291 
L 1192.959997 905.550837 
L 1193.017266 911.476784 
L 1193.303155 917.263924 
L 1193.826564 922.882321 
L 1194.595461 928.303924 
L 1195.616629 933.503164 
L 1196.895402 938.457504 
L 1198.43542 943.147948 
L 1199.608169 946.120711 
L 1200.897825 948.966032 
L 1202.303936 951.681424 
L 1203.825588 954.265325 
L 1205.461389 956.717132 
L 1207.209455 959.037206 
L 1209.067408 961.226884 
L 1211.032373 963.288471 
L 1213.100975 965.225229 
L 1215.269352 967.041355 
L 1218.699371 969.550759 
L 1222.327428 971.821236 
L 1226.134763 973.877593 
L 1230.100646 975.748161 
L 1234.202609 977.464258 
L 1239.842038 979.570614 
L 1248.543201 982.513266 
L 1260.267245 986.486381 
L 1266.040052 988.681188 
L 1270.28039 990.480105 
L 1274.416891 992.440507 
L 1278.426199 994.586011 
L 1282.286285 996.936292 
L 1285.976597 999.506807 
L 1289.478177 1002.308624 
L 1292.773759 1005.348357 
L 1295.84783 1008.628213 
L 1297.767304 1010.947339 
L 1299.578589 1013.370741 
L 1301.278441 1015.896055 
L 1302.863982 1018.520213 
L 1304.332703 1021.239503 
L 1306.312168 1025.487273 
L 1308.018396 1029.922715 
L 1309.4476 1034.527184 
L 1310.597875 1039.280565 
L 1311.469209 1044.161857 
L 1312.063496 1049.149762 
L 1312.384559 1054.223246 
L 1312.438161 1059.362056 
L 1312.232028 1064.547195 
L 1311.775863 1069.761315 
L 1311.081346 1074.989037 
L 1310.162129 1080.21719 
L 1309.033808 1085.434947 
L 1307.713879 1090.633871 
L 1305.689562 1097.526257 
L 1303.409671 1104.366102 
L 1300.929596 1111.150844 
L 1296.965251 1121.229733 
L 1287.698964 1144.37635 
L 1285.340336 1150.905842 
L 1283.224366 1157.390008 
L 1281.407264 1163.815015 
L 1280.271209 1168.582954 
L 1279.350676 1173.295394 
L 1278.662132 1177.939612 
L 1278.219472 1182.501343 
L 1278.033865 1186.965123 
L 1278.113652 1191.314705 
L 1278.464285 1195.533525 
L 1279.088317 1199.605203 
L 1279.985433 1203.514061 
L 1281.152533 1207.245636 
L 1282.583855 1210.787165 
L 1284.271137 1214.128028 
L 1286.203823 1217.26013 
L 1288.369291 1220.178202 
L 1290.753116 1222.880007 
L 1293.339348 1225.36645 
L 1296.110814 1227.641571 
L 1299.049424 1229.712439 
L 1302.136486 1231.588927 
L 1305.353018 1233.283395 
L 1308.680058 1234.810282 
L 1313.25587 1236.613324 
L 1317.952665 1238.187735 
L 1323.934124 1239.897458 
L 1331.185546 1241.671132 
L 1340.829823 1243.741696 
L 1353.826678 1246.283959 
L 1364.185443 1248.103577 
L 1370.997672 1249.097688 
L 1376.657976 1249.731021 
L 1382.338234 1250.144811 
L 1388.070665 1250.310849 
L 1393.882702 1250.218518 
L 1399.793061 1249.879583 
L 1407.02334 1249.200851 
L 1419.342515 1247.722535 
L 1428.023426 1246.785281 
L 1434.142154 1246.366486 
L 1438.924825 1246.272667 
L 1442.415202 1246.380867 
L 1445.799287 1246.666988 
L 1449.055521 1247.151108 
L 1452.162401 1247.850776 
L 1455.098944 1248.780722 
L 1457.845128 1249.952671 
L 1460.382341 1251.375248 
L 1461.949341 1252.465726 
L 1463.411508 1253.671002 
L 1464.764872 1254.991393 
L 1466.005983 1256.42667 
L 1467.131941 1257.97609 
L 1468.140426 1259.638438 
L 1469.029722 1261.412063 
L 1469.798724 1263.29493 
L 1470.446953 1265.284657 
L 1471.193333 1268.463695 
L 1471.67152 1271.86707 
L 1471.887589 1275.483832 
L 1471.850416 1279.302421 
L 1471.571409 1283.310922 
L 1471.064173 1287.49728 
L 1470.344125 1291.84944 
L 1469.082188 1297.88955 
L 1467.514018 1304.17498 
L 1465.682671 1310.677559 
L 1463.087165 1319.067202 
L 1459.621517 1329.438898 
L 1455.227261 1341.810428 
L 1450.563089 1354.263132 
L 1446.390597 1364.799178 
L 1442.789618 1373.331812 
L 1439.816953 1379.904807 
L 1436.749386 1386.178317 
L 1433.572346 1392.08209 
L 1431.108527 1396.225396 
L 1428.568291 1400.09332 
L 1425.945939 1403.659185 
L 1423.236587 1406.8985 
L 1420.436402 1409.789564 
L 1418.517808 1411.514253 
L 1416.557221 1413.071432 
L 1414.554487 1414.457436 
L 1412.509739 1415.669489 
L 1410.423401 1416.70575 
L 1408.296187 1417.565363 
L 1406.129088 1418.248482 
L 1403.923366 1418.756302 
L 1401.680536 1419.091072 
L 1399.402349 1419.256102 
L 1397.090766 1419.255757 
L 1394.747937 1419.095447 
L 1391.180202 1418.569378 
L 1387.555724 1417.72389 
L 1383.883274 1416.589428 
L 1380.171831 1415.200631 
L 1376.430355 1413.595795 
L 1371.410001 1411.19174 
L 1365.110437 1407.909363 
L 1351.299604 1400.598648 
L 1346.32791 1398.23994 
L 1342.622588 1396.670892 
L 1338.937963 1395.312238 
L 1335.273436 1394.194487 
L 1331.627446 1393.343385 
L 1327.997576 1392.779521 
L 1324.380684 1392.518008 
L 1320.773049 1392.568282 
L 1317.170535 1392.933992 
L 1313.568767 1393.612998 
L 1309.963319 1394.597457 
L 1306.349911 1395.874019 
L 1302.7246 1397.424093 
L 1299.083988 1399.224211 
L 1295.425409 1401.246451 
L 1290.516501 1404.232685 
L 1284.330108 1408.310594 
L 1264.318004 1421.817108 
L 1259.348838 1424.779234 
L 1255.662572 1426.770472 
L 1252.026446 1428.523458 
L 1248.455523 1430.004507 
L 1244.965788 1431.183152 
L 1241.573882 1432.032472 
L 1238.296791 1432.529346 
L 1236.184255 1432.655181 
L 1234.135279 1432.61114 
L 1233.136147 1432.524188 
L 1233.136147 1432.524188 
" clip-path="url(#p0a30f1a9ec)" style="fill: none; stroke: #ff8c00; stroke-width: 3; stroke-linecap: square"/>
   </g>
   <g id="PathCollection_1">
    <defs>
     <path id="m3088c50d7f" d="M 0 3.162278 
C 0.838646 3.162278 1.643056 2.82908 2.236068 2.236068 
C 2.82908 1.643056 3.162278 0.838646 3.162278 0 
C 3.162278 -0.838646 2.82908 -1.643056 2.236068 -2.236068 
C 1.643056 -2.82908 0.838646 -3.162278 0 -3.162278 
C -0.838646 -3.162278 -1.643056 -2.82908 -2.236068 -2.236068 
C -2.82908 -1.643056 -3.162278 -0.838646 -3.162278 0 
C -3.162278 0.838646 -2.82908 1.643056 -2.236068 2.236068 
C -1.643056 2.82908 -0.838646 3.162278 0 3.162278 
z
" style="stroke: #00bfff"/>
    </defs>
    <g clip-path="url(#p0a30f1a9ec)">
     <use xlink:href="#m3088c50d7f" x="1212.651766" y="1353.243846" style="fill: #00bfff; stroke: #00bfff"/>
     <use xlink:href="#m3088c50d7f" x="1213.061462" y="1314.388412" style="fill: #00bfff; stroke: #00bfff"/>
     <use xlink:href="#m3088c50d7f" x="1212.751012" y="1310.686427" style="fill: #00bfff; stroke: #00bfff"/>
     <use xlink:href="#m3088c50d7f" x="1211.858138" y="1303.45079" style="fill: #00bfff; stroke: #00bfff"/>
     <use xlink:href="#m3088c50d7f" x="1209.77695" y="1293.083612" style="fill: #00bfff; stroke: #00bfff"/>
     <use xlink:href="#m3088c50d7f" x="1205.507574" y="1280.333915" style="fill: #00bfff; stroke: #00bfff"/>
     <use xlink:href="#m3088c50d7f" x="1199.496459" y="1269.018307" style="fill: #00bfff; stroke: #00bfff"/>
     <use xlink:href="#m3088c50d7f" x="1193.904789" y="1261.598816" style="fill: #00bfff; stroke: #00bfff"/>
     <use xlink:href="#m3088c50d7f" x="1191.851708" y="1259.345763" style="fill: #00bfff; stroke: #00bfff"/>
     <use xlink:href="#m3088c50d7f" x="1190.792088" y="1258.262257" style="fill: #00bfff; stroke: #00bfff"/>
     <use xlink:href="#m3088c50d7f" x="1182.816362" y="1251.516513" style="fill: #00bfff; stroke: #00bfff"/>
     <use xlink:href="#m3088c50d7f" x="1179.137517" y="1249.09555" style="fill: #00bfff; stroke: #00bfff"/>
     <use xlink:href="#m3088c50d7f" x="1175.331708" y="1246.970879" style="fill: #00bfff; stroke: #00bfff"/>
     <use xlink:href="#m3088c50d7f" x="1163.369633" y="1242.464892" style="fill: #00bfff; stroke: #00bfff"/>
     <use xlink:href="#m3088c50d7f" x="1141.548103" y="1241.828109" style="fill: #00bfff; stroke: #00bfff"/>
     <use xlink:href="#m3088c50d7f" x="1129.792102" y="1245.696796" style="fill: #00bfff; stroke: #00bfff"/>
     <use xlink:href="#m3088c50d7f" x="1124.794483" y="1248.341126" style="fill: #00bfff; stroke: #00bfff"/>
     <use xlink:href="#m3088c50d7f" x="1118.767767" y="1252.377474" style="fill: #00bfff; stroke: #00bfff"/>
     <use xlink:href="#m3088c50d7f" x="1116.426174" y="1254.201013" style="fill: #00bfff; stroke: #00bfff"/>
     <use xlink:href="#m3088c50d7f" x="1106.346531" y="1263.641737" style="fill: #00bfff; stroke: #00bfff"/>
    </g>
   </g>
   <g id="PathCollection_2">
    <defs>
     <path id="m7303189a21" d="M 0 3.162278 
C 0.838646 3.162278 1.643056 2.82908 2.236068 2.236068 
C 2.82908 1.643056 3.162278 0.838646 3.162278 0 
C 3.162278 -0.838646 2.82908 -1.643056 2.236068 -2.236068 
C 1.643056 -2.82908 0.838646 -3.162278 0 -3.162278 
C -0.838646 -3.162278 -1.643056 -2.82908 -2.236068 -2.236068 
C -2.82908 -1.643056 -3.162278 -0.838646 -3.162278 0 
C -3.162278 0.838646 -2.82908 1.643056 -2.236068 2.236068 
C -1.643056 2.82908 -0.838646 3.162278 0 3.162278 
z
" style="stroke: #000000"/>
    </defs>
    <g clip-path="url(#p0a30f1a9ec)">
     <use xlink:href="#m7303189a21" x="1227.532783" y="1431.071497" style="stroke: #000000"/>
    </g>
   </g>
   <g id="PathCollection_3">
    <g clip-path="url(#p0a30f1a9ec)">
     <use xlink:href="#m7303189a21" x="1212.651766" y="1353.243846" style="stroke: #000000"/>
    </g>
   </g>
   <g id="PathCollection_4">
    <g clip-path="url(#p0a30f1a9ec)">
     <use xlink:href="#m7303189a21" x="1106.346531" y="1263.641737" style="stroke: #000000"/>
    </g>
   </g>
   <g id="PathCollection_5">
    <g clip-path="url(#p0a30f1a9ec)">
     <use xlink:href="#m7303189a21" x="1083.766215" y="1290.531447" style="stroke: #000000"/>
    </g>
   </g>
  </g>
 </g>
 <defs>
  <clipPath id="p0a30f1a9ec">
   <rect x="270" y="259.2" width="1674" height="1630.8"/>
  </clipPath>
 </defs>
</svg>
