<?xml version="1.0" encoding="utf-8" standalone="no"?>
<!DOCTYPE svg PUBLIC "-//W3C//DTD SVG 1.1//EN"
  "http://www.w3.org/Graphics/SVG/1.1/DTD/svg11.dtd">
<svg xmlns:xlink="http://www.w3.org/1999/xlink" width="2160pt" height="2160pt" viewBox="0 0 2160 2160" xmlns="http://www.w3.org/2000/svg" version="1.1">
 <metadata>
  <rdf:RDF xmlns:dc="http://purl.org/dc/elements/1.1/" xmlns:cc="http://creativecommons.org/ns#" xmlns:rdf="http://www.w3.org/1999/02/22-rdf-syntax-ns#">
   <cc:Work>
    <dc:type rdf:resource="http://purl.org/dc/dcmitype/StillImage"/>
    <dc:date>2022-03-09T01:03:36.452364</dc:date>
    <dc:format>image/svg+xml</dc:format>
    <dc:creator>
     <cc:Agent>
      <dc:title>Matplotlib v3.5.1, https://matplotlib.org/</dc:title>
     </cc:Agent>
    </dc:creator>
   </cc:Work>
  </rdf:RDF>
 </metadata>
 <defs>
  <style type="text/css">*{stroke-linejoin: round; stroke-linecap: butt}</style>
 </defs>
 <g id="figure_1">
  <g id="patch_1">
   <path d="M 0 2160 
L 2160 2160 
L 2160 0 
L 0 0 
L 0 2160 
z
" style="fill: none"/>
  </g>
  <g id="axes_1">
   <g id="line2d_1">
    <path d="M 1213.759011 1494.044963 
L 1212.937422 1493.839836 
L 1212.131906 1493.582561 
L 1211.342934 1493.272852 
L 1210.570962 1492.910482 
" clip-path="url(#p7de33b1bfc)" style="fill: none; stroke: #ff8c00; stroke-width: 3; stroke-linecap: square"/>
   </g>
   <g id="line2d_2">
    <path d="M 1197.122681 1401.257111 
L 1197.690786 1385.06341 
L 1197.867782 1373.590074 
L 1197.792219 1364.555587 
L 1197.472158 1355.706477 
L 1197.046695 1349.220323 
L 1196.445703 1342.884188 
L 1195.656861 1336.715511 
L 1194.670416 1330.730636 
L 1193.479281 1324.944945 
L 1192.07909 1319.373011 
L 1190.468207 1314.028741 
L 1188.647693 1308.925523 
L 1186.621237 1304.076356 
L 1184.395041 1299.493954 
L 1181.977674 1295.190841 
L 1179.379891 1291.179402 
L 1176.614419 1287.471907 
L 1173.695715 1284.080501 
L 1170.6397 1281.017153 
L 1167.463477 1278.293563 
L 1165.288062 1276.672195 
L 1163.072675 1275.210084 
L 1160.822862 1273.910314 
L 1158.544193 1272.775801 
L 1156.242221 1271.809266 
L 1153.922438 1271.013199 
L 1151.590235 1270.389822 
L 1149.250858 1269.941053 
L 1146.909372 1269.668462 
L 1144.570622 1269.573236 
L 1142.239196 1269.656131 
L 1139.919393 1269.917436 
L 1137.615194 1270.356926 
L 1135.330231 1270.973826 
L 1133.067766 1271.766768 
L 1130.830672 1272.73376 
L 1128.621412 1273.872145 
L 1126.442035 1275.178573 
L 1124.294161 1276.648978 
L 1121.133914 1279.151313 
L 1118.049372 1281.992154 
L 1115.04068 1285.148156 
L 1112.106009 1288.592068 
L 1109.24172 1292.292806 
L 1106.44258 1296.215617 
L 1102.800238 1301.725006 
L 1098.36558 1308.919338 
L 1084.623015 1331.799532 
L 1081.205942 1336.880263 
L 1078.635049 1340.380382 
L 1076.05655 1343.565822 
L 1073.472056 1346.396219 
L 1070.885285 1348.834925 
L 1068.302059 1350.849507 
L 1066.585672 1351.943006 
L 1064.87711 1352.828526 
L 1063.179522 1353.500062 
L 1061.496381 1353.952654 
L 1059.831445 1354.182397 
L 1058.188725 1354.186454 
L 1056.572437 1353.963051 
L 1054.986964 1353.511466 
L 1053.436807 1352.832009 
L 1051.926536 1351.925993 
L 1050.460742 1350.795697 
L 1049.043989 1349.444323 
L 1047.680762 1347.875942 
L 1046.375419 1346.095435 
L 1045.132147 1344.108434 
L 1043.954915 1341.921249 
L 1042.320926 1338.280398 
L 1040.855028 1334.23031 
L 1039.56668 1329.798561 
L 1038.463365 1325.014199 
L 1037.550431 1319.907136 
L 1036.83098 1314.507555 
L 1036.305824 1308.845345 
L 1035.97348 1302.949582 
L 1035.83023 1296.848055 
L 1035.870218 1290.56686 
L 1036.08559 1284.130069 
L 1036.628613 1275.342944 
L 1037.438736 1266.362449 
L 1038.484481 1257.22533 
L 1040.069995 1245.626917 
L 1042.284997 1231.500577 
L 1045.556182 1212.377943 
L 1050.137144 1185.632529 
L 1052.444658 1170.865116 
L 1054.165448 1158.499121 
L 1055.644217 1146.120925 
L 1056.619711 1136.246458 
L 1057.385837 1126.435347 
L 1057.921841 1116.72961 
L 1058.209116 1107.176677 
L 1058.231267 1097.828201 
L 1057.974206 1088.738533 
L 1057.591066 1082.124367 
L 1057.040263 1075.709838 
L 1056.318637 1069.51706 
L 1055.423882 1063.566794 
L 1054.354562 1057.877965 
L 1053.110127 1052.467221 
L 1051.690911 1047.348532 
L 1050.098133 1042.532861 
L 1048.333877 1038.027904 
L 1046.401076 1033.837914 
L 1044.303473 1029.96363 
L 1042.045593 1026.402284 
L 1039.632693 1023.14773 
L 1037.070721 1020.190656 
L 1034.366267 1017.518899 
L 1031.526519 1015.117843 
L 1028.559222 1012.970903 
L 1025.472637 1011.060065 
L 1022.27551 1009.366483 
L 1018.977047 1007.871107 
L 1015.586896 1006.555323 
L 1012.115132 1005.40159 
L 1007.377361 1004.088266 
L 1002.539224 1003.003952 
L 997.628018 1002.126588 
L 992.672267 1001.444733 
L 987.701618 1000.958485 
L 982.74667 1000.679734 
L 977.838699 1000.631721 
L 973.009278 1000.847913 
L 969.457655 1001.208422 
L 965.980838 1001.761134 
L 962.591361 1002.52752 
L 959.301145 1003.529732 
L 956.121299 1004.78989 
L 953.061919 1006.329367 
L 950.131878 1008.16808 
L 948.254118 1009.569022 
L 946.439004 1011.115533 
L 944.688012 1012.811605 
L 943.002256 1014.660541 
L 941.382465 1016.664895 
L 939.077085 1019.966432 
L 936.920171 1023.623711 
L 934.908977 1027.634537 
L 933.038603 1031.992084 
L 931.302018 1036.68488 
L 929.690144 1041.696901 
L 928.191969 1047.00777 
L 926.348972 1054.511016 
L 924.650797 1062.433725 
L 922.673252 1072.807859 
L 919.276756 1092.282423 
L 916.527297 1107.572356 
L 914.381153 1118.26498 
L 912.507054 1126.548983 
L 910.465841 1134.504124 
L 908.813666 1140.209458 
L 907.051107 1145.659022 
L 905.17455 1150.826883 
L 903.182347 1155.689949 
L 901.074721 1160.228075 
L 898.853621 1164.424155 
L 896.522544 1168.264171 
L 894.086321 1171.737235 
L 891.550879 1174.835598 
L 888.922994 1177.554641 
L 887.123335 1179.155731 
L 885.28813 1180.587811 
L 883.419688 1181.851786 
L 881.520318 1182.949149 
L 879.592303 1183.881964 
L 877.637869 1184.652851 
L 875.659163 1185.264972 
L 873.658232 1185.722004 
L 871.637 1186.028121 
L 868.570965 1186.214605 
L 865.468656 1186.08955 
L 862.334676 1185.672378 
L 859.172811 1184.984163 
L 855.986042 1184.047283 
L 852.77661 1182.885048 
L 849.546098 1181.521288 
L 845.207713 1179.43075 
L 840.835136 1177.079867 
L 835.322687 1173.854412 
L 828.642313 1169.680754 
L 819.640087 1163.793258 
L 809.441619 1156.891631 
L 801.536344 1151.304527 
L 795.956955 1147.128022 
L 791.563471 1143.624008 
L 787.256122 1139.929812 
L 783.058257 1135.999645 
L 779.99614 1132.868927 
L 777.019311 1129.559678 
L 774.137891 1126.053516 
L 771.36181 1122.333633 
L 768.700708 1118.38531 
L 766.163851 1114.196388 
L 763.760063 1109.75768 
L 761.497673 1105.063303 
L 759.384478 1100.11094 
L 757.427725 1094.902009 
L 755.634096 1089.441765 
L 754.009715 1083.739298 
L 752.560156 1077.807466 
L 751.290457 1071.662747 
L 750.205134 1065.325032 
L 749.30819 1058.817347 
L 748.603129 1052.165542 
L 748.092946 1045.397936 
L 747.780126 1038.544931 
L 747.666611 1031.638626 
L 747.753779 1024.712405 
L 748.042392 1017.800544 
L 748.532548 1010.937817 
L 749.223621 1004.15913 
L 750.114195 997.499161 
L 751.202 990.992041 
L 752.483852 984.671047 
L 753.955596 978.568327 
L 755.612065 972.714652 
L 757.447047 967.139183 
L 759.453277 961.869267 
L 761.622447 956.930239 
L 763.945241 952.34525 
L 766.411393 948.13509 
L 769.009772 944.318033 
L 770.809644 941.999536 
L 772.659336 939.866672 
L 774.555068 937.922792 
L 776.492979 936.170649 
L 778.469153 934.61238 
L 780.479644 933.249488 
L 782.520501 932.082824 
L 784.587796 931.112572 
L 786.67765 930.338233 
L 788.786263 929.758613 
L 790.909936 929.371813 
L 793.045103 929.175221 
L 795.188354 929.165506 
L 797.336458 929.338615 
L 799.486386 929.689777 
L 801.635334 930.213505 
L 803.780737 930.903611 
L 806.987219 932.235496 
L 810.173949 933.900068 
L 813.335712 935.868099 
L 816.468753 938.107402 
L 819.570772 940.583127 
L 823.657202 944.187366 
L 827.688592 948.052515 
L 833.644776 954.12613 
L 843.40901 964.16019 
L 847.291827 967.863512 
L 851.179359 971.257227 
L 854.104343 973.55224 
L 857.041313 975.599877 
L 859.992908 977.374093 
L 862.960743 978.852295 
L 865.945291 980.015427 
L 868.945805 980.847992 
L 870.954077 981.21332 
L 872.967661 981.423606 
L 874.985391 981.476768 
L 877.005853 981.371334 
L 879.027389 981.106403 
L 881.048112 980.681606 
L 883.065917 980.097062 
L 885.078493 979.353336 
L 887.083343 978.451384 
L 890.070258 976.804716 
L 893.024155 974.81064 
L 895.934857 972.475887 
L 898.791791 969.80797 
L 901.584185 966.814864 
L 904.301261 963.504729 
L 906.932444 959.885678 
L 909.467554 955.965604 
L 911.897006 951.752071 
L 914.211994 947.252266 
L 916.404668 942.473014 
L 918.468298 937.420859 
L 920.397422 932.102201 
L 922.187979 926.523483 
L 923.837421 920.691417 
L 925.344809 914.613249 
L 926.710882 908.297033 
L 927.938109 901.751919 
L 929.365989 892.687457 
L 930.569615 883.26453 
L 931.569287 873.518772 
L 932.390481 863.492537 
L 933.212493 850.641254 
L 933.990287 834.902274 
L 935.807863 795.505129 
L 936.665851 782.867087 
L 937.538216 773.105946 
L 938.6176 763.73234 
L 939.583952 756.995696 
L 940.699225 750.538143 
L 941.974739 744.38135 
L 943.420064 738.543847 
L 945.042913 733.040778 
L 946.849059 727.883738 
L 948.842302 723.080679 
L 951.024456 718.635887 
L 952.584188 715.87221 
L 954.227346 713.26747 
L 955.953058 710.820335 
L 957.760101 708.52884 
L 959.646923 706.390414 
L 961.611657 704.401926 
L 963.652149 702.559721 
L 965.765973 700.859669 
L 967.950461 699.297209 
L 971.353321 697.200604 
L 974.89811 695.384371 
L 978.573537 693.8292 
L 982.367752 692.514863 
L 986.268546 691.420571 
L 990.263548 690.525307 
L 994.340411 689.808123 
L 999.88259 689.093339 
L 1005.520873 688.611308 
L 1012.664017 688.26806 
L 1021.314223 688.130279 
L 1032.867016 688.207743 
L 1051.377893 688.36568 
L 1059.714116 688.231011 
L 1066.528785 687.931447 
L 1073.20723 687.410684 
L 1078.442707 686.803272 
L 1083.575735 686.000712 
L 1088.600152 684.980092 
L 1093.510192 683.719437 
L 1098.300591 682.198077 
L 1101.812074 680.874483 
L 1105.252015 679.386291 
L 1108.619102 677.727022 
L 1111.912404 675.891056 
L 1115.131421 673.873717 
L 1118.276139 671.671349 
L 1121.347072 669.281396 
L 1124.345297 666.702464 
L 1127.272485 663.934381 
L 1130.13091 660.978256 
L 1132.923455 657.836525 
L 1136.550459 653.365621 
L 1140.076374 648.584681 
L 1143.512582 643.511389 
L 1146.871802 638.168335 
L 1150.983521 631.152914 
L 1155.024428 623.825736 
L 1160.616107 613.198654 
L 1171.823945 591.707552 
L 1175.896852 584.367042 
L 1179.193615 578.779279 
L 1182.525661 573.530159 
L 1185.890974 568.700367 
L 1188.433944 565.401714 
L 1190.989797 562.417622 
L 1193.554523 559.780353 
L 1196.123269 557.520599 
L 1198.690377 555.666992 
L 1200.397737 554.669891 
L 1202.09946 553.871952 
L 1203.793344 553.279515 
L 1205.477065 552.898205 
L 1207.148189 552.732876 
L 1208.804177 552.787563 
L 1210.4424 553.065438 
L 1212.060145 553.56877 
L 1213.654627 554.298898 
L 1215.222999 555.256198 
L 1216.762363 556.440071 
L 1218.26978 557.848933 
L 1219.742282 559.480207 
L 1221.176884 561.330335 
L 1222.570593 563.394793 
L 1224.577949 566.881123 
L 1226.476577 570.814882 
L 1228.256654 575.169474 
L 1229.908633 579.914388 
L 1231.423336 585.015672 
L 1232.792063 590.436475 
L 1234.006694 596.137642 
L 1235.059796 602.078363 
L 1235.944731 608.216842 
L 1236.655764 614.510991 
L 1237.188165 620.919121 
L 1237.538306 627.400634 
L 1237.703751 633.916671 
L 1237.683333 640.430744 
L 1237.477214 646.909299 
L 1237.086934 653.322232 
L 1236.515433 659.643323 
L 1235.767057 665.850601 
L 1234.847538 671.926614 
L 1233.76395 677.858611 
L 1232.524643 683.638636 
L 1231.139153 689.263515 
L 1229.082912 696.525292 
L 1226.813444 703.530388 
L 1224.360777 710.307712 
L 1221.756584 716.89754 
L 1218.337942 724.947548 
L 1212.640602 737.664212 
L 1206.881469 750.619162 
L 1203.352027 759.053049 
L 1199.935512 767.868977 
L 1197.312902 775.249976 
L 1194.810533 782.953086 
L 1192.447086 790.992733 
L 1190.240238 799.3695 
L 1188.207151 808.069605 
L 1186.364936 817.064883 
L 1184.731077 826.313285 
L 1183.323734 835.759899 
L 1182.161911 845.33845 
L 1181.265457 854.973257 
L 1180.654873 864.581589 
L 1180.397039 871.718147 
L 1180.320389 878.753417 
L 1180.433363 885.650231 
L 1180.743959 892.372422 
L 1181.259527 898.88555 
L 1181.986553 905.157627 
L 1182.930434 911.159793 
L 1184.095263 916.86695 
L 1185.483618 922.258329 
L 1187.096377 927.317978 
L 1188.932555 932.035167 
L 1190.279408 934.986892 
L 1191.722882 937.783831 
L 1193.261159 940.426978 
L 1194.891998 942.918471 
L 1196.612733 945.261574 
L 1198.420277 947.460665 
L 1200.311129 949.521199 
L 1203.294967 952.366682 
L 1206.442599 954.941267 
L 1209.737442 957.275478 
L 1213.161294 959.403769 
L 1216.694547 961.363869 
L 1221.539686 963.785583 
L 1230.241172 967.77882 
L 1237.739461 971.303478 
L 1242.66376 973.876474 
L 1246.280837 975.985363 
L 1249.80934 978.283562 
L 1253.229345 980.798759 
L 1256.522062 983.554018 
L 1259.669957 986.56746 
L 1262.656863 989.852059 
L 1265.468048 993.415571 
L 1268.09028 997.260581 
L 1270.511867 1001.384679 
L 1272.72268 1005.780748 
L 1274.714172 1010.437362 
L 1276.479384 1015.33927 
L 1278.012955 1020.467972 
L 1279.311118 1025.802338 
L 1280.371713 1031.319285 
L 1281.194189 1036.994462 
L 1281.779621 1042.802943 
L 1282.130716 1048.719894 
L 1282.25184 1054.721205 
L 1282.149022 1060.784059 
L 1281.829976 1066.887425 
L 1281.304103 1073.012471 
L 1280.58249 1079.14287 
L 1279.677891 1085.265001 
L 1278.212214 1093.396676 
L 1276.485438 1101.476692 
L 1274.540654 1109.495115 
L 1271.875426 1119.427481 
L 1267.887578 1133.175266 
L 1261.668499 1154.478792 
L 1259.127217 1164.054142 
L 1257.32226 1171.655597 
L 1255.772242 1179.1877 
L 1254.520261 1186.626611 
L 1253.79954 1192.126149 
L 1253.280911 1197.540318 
L 1252.975463 1202.851877 
L 1252.891929 1208.042334 
L 1253.036607 1213.092456 
L 1253.41332 1217.98283 
L 1254.023427 1222.69446 
L 1254.865857 1227.209376 
L 1255.937196 1231.511224 
L 1257.231799 1235.585827 
L 1258.741948 1239.421675 
L 1260.458027 1243.01035 
L 1262.36873 1246.346837 
L 1264.461292 1249.429733 
L 1266.721731 1252.261332 
L 1269.135108 1254.847575 
L 1271.685791 1257.197879 
L 1274.357722 1259.324837 
L 1277.134687 1261.243808 
L 1280.000573 1262.97241 
L 1282.939623 1264.529924 
L 1286.946065 1266.375622 
L 1291.022095 1268.002031 
L 1296.169308 1269.79776 
L 1302.357957 1271.70963 
L 1311.540069 1274.283217 
L 1321.497647 1276.858928 
L 1328.32496 1278.416945 
L 1333.159995 1279.332464 
L 1337.989452 1280.026844 
L 1341.868006 1280.393028 
L 1345.775122 1280.572929 
L 1349.723147 1280.558832 
L 1353.721642 1280.353451 
L 1358.799041 1279.850859 
L 1365.007314 1278.963598 
L 1381.889563 1276.330866 
L 1386.057595 1275.963658 
L 1390.137292 1275.853673 
L 1393.11464 1275.980517 
L 1396.00132 1276.315939 
L 1398.77894 1276.883479 
L 1401.42916 1277.703706 
L 1403.934079 1278.793892 
L 1405.514823 1279.677596 
L 1407.018596 1280.690641 
L 1408.440903 1281.835483 
L 1409.777579 1283.113861 
L 1411.024832 1284.526819 
L 1412.179273 1286.074727 
L 1413.237961 1287.757317 
L 1414.198422 1289.573719 
L 1415.450748 1292.545959 
L 1416.473231 1295.80905 
L 1417.264041 1299.353929 
L 1417.824037 1303.16978 
L 1418.156711 1307.244446 
L 1418.268061 1311.564814 
L 1418.166409 1316.117163 
L 1417.862144 1320.887445 
L 1417.162511 1327.562381 
L 1416.157048 1334.566219 
L 1414.881237 1341.865884 
L 1412.962171 1351.356205 
L 1410.748162 1361.191472 
L 1407.791908 1373.35032 
L 1404.043536 1387.853595 
L 1400.064921 1402.452031 
L 1396.505717 1414.803548 
L 1393.434023 1424.806445 
L 1390.252173 1434.386785 
L 1387.613353 1441.640654 
L 1384.877902 1448.440529 
L 1382.755069 1453.193763 
L 1380.565368 1457.613499 
L 1378.304144 1461.669236 
L 1375.967509 1465.33328 
L 1373.552529 1468.581426 
L 1371.898059 1470.505709 
L 1370.207671 1472.231345 
L 1368.481357 1473.754549 
L 1366.719355 1475.072609 
L 1364.922149 1476.183938 
L 1363.090469 1477.08812 
L 1361.225277 1477.785943 
L 1359.327759 1478.279425 
L 1357.39931 1478.571822 
L 1355.441515 1478.667636 
L 1353.456132 1478.5726 
L 1351.445067 1478.293655 
L 1349.410349 1477.83892 
L 1347.354112 1477.217647 
L 1344.234246 1475.996346 
L 1341.078558 1474.462841 
L 1337.894717 1472.660672 
L 1333.618763 1469.922156 
L 1328.247715 1466.130013 
L 1314.328586 1456.051805 
L 1310.095089 1453.368383 
L 1306.940277 1451.606892 
L 1303.803045 1450.104556 
L 1300.6826 1448.89534 
L 1297.577356 1448.007457 
L 1295.514538 1447.605198 
L 1293.45665 1447.36061 
L 1291.402771 1447.277306 
L 1289.351899 1447.357561 
L 1287.302973 1447.602307 
L 1285.25489 1448.011132 
L 1283.206529 1448.582292 
L 1280.131023 1449.736385 
L 1277.048727 1451.232911 
L 1273.956277 1453.05008 
L 1270.850776 1455.160377 
L 1267.729948 1457.53107 
L 1263.54257 1461.031864 
L 1258.265476 1465.812439 
L 1241.194825 1481.646267 
L 1236.956045 1485.118799 
L 1233.8116 1487.453148 
L 1230.709925 1489.508192 
L 1227.663869 1491.244441 
L 1224.687069 1492.626179 
L 1222.748004 1493.334621 
L 1220.850312 1493.863123 
L 1218.998305 1494.204337 
L 1217.196278 1494.351855 
L 1215.448467 1494.300224 
L 1214.596192 1494.19829 
L 1214.596192 1494.19829 
" clip-path="url(#p7de33b1bfc)" style="fill: none; stroke: #ff8c00; stroke-width: 3; stroke-linecap: square"/>
   </g>
   <g id="PathCollection_1">
    <defs>
     <path id="m6d20b6ca0d" d="M 0 3.162278 
C 0.838646 3.162278 1.643056 2.82908 2.236068 2.236068 
C 2.82908 1.643056 3.162278 0.838646 3.162278 0 
C 3.162278 -0.838646 2.82908 -1.643056 2.236068 -2.236068 
C 1.643056 -2.82908 0.838646 -3.162278 0 -3.162278 
C -0.838646 -3.162278 -1.643056 -2.82908 -2.236068 -2.236068 
C -2.82908 -1.643056 -3.162278 -0.838646 -3.162278 0 
C -3.162278 0.838646 -2.82908 1.643056 -2.236068 2.236068 
C -1.643056 2.82908 -0.838646 3.162278 0 3.162278 
z
" style="stroke: #00ff00"/>
    </defs>
    <g clip-path="url(#p7de33b1bfc)">
     <use xlink:href="#m6d20b6ca0d" x="1209.81643" y="1492.495285" style="fill: #00ff00; stroke: #00ff00"/>
     <use xlink:href="#m6d20b6ca0d" x="1207.661629" y="1490.931958" style="fill: #00ff00; stroke: #00ff00"/>
     <use xlink:href="#m6d20b6ca0d" x="1206.980913" y="1490.304972" style="fill: #00ff00; stroke: #00ff00"/>
     <use xlink:href="#m6d20b6ca0d" x="1205.677905" y="1488.892844" style="fill: #00ff00; stroke: #00ff00"/>
     <use xlink:href="#m6d20b6ca0d" x="1205.056232" y="1488.10812" style="fill: #00ff00; stroke: #00ff00"/>
     <use xlink:href="#m6d20b6ca0d" x="1204.454818" y="1487.271324" style="fill: #00ff00; stroke: #00ff00"/>
     <use xlink:href="#m6d20b6ca0d" x="1200.82935" y="1479.990871" style="fill: #00ff00; stroke: #00ff00"/>
     <use xlink:href="#m6d20b6ca0d" x="1199.595063" y="1476.139329" style="fill: #00ff00; stroke: #00ff00"/>
     <use xlink:href="#m6d20b6ca0d" x="1199.226399" y="1474.763064" style="fill: #00ff00; stroke: #00ff00"/>
     <use xlink:href="#m6d20b6ca0d" x="1197.23152" y="1463.924323" style="fill: #00ff00; stroke: #00ff00"/>
     <use xlink:href="#m6d20b6ca0d" x="1196.842759" y="1460.469327" style="fill: #00ff00; stroke: #00ff00"/>
     <use xlink:href="#m6d20b6ca0d" x="1196.676935" y="1458.687336" style="fill: #00ff00; stroke: #00ff00"/>
     <use xlink:href="#m6d20b6ca0d" x="1196.400261" y="1455.019911" style="fill: #00ff00; stroke: #00ff00"/>
     <use xlink:href="#m6d20b6ca0d" x="1196.115315" y="1449.277283" style="fill: #00ff00; stroke: #00ff00"/>
     <use xlink:href="#m6d20b6ca0d" x="1195.973027" y="1443.27296" style="fill: #00ff00; stroke: #00ff00"/>
     <use xlink:href="#m6d20b6ca0d" x="1195.954392" y="1441.218927" style="fill: #00ff00; stroke: #00ff00"/>
     <use xlink:href="#m6d20b6ca0d" x="1196.293659" y="1421.784961" style="fill: #00ff00; stroke: #00ff00"/>
     <use xlink:href="#m6d20b6ca0d" x="1196.373114" y="1419.542433" style="fill: #00ff00; stroke: #00ff00"/>
     <use xlink:href="#m6d20b6ca0d" x="1196.546899" y="1415.02173" style="fill: #00ff00; stroke: #00ff00"/>
     <use xlink:href="#m6d20b6ca0d" x="1197.122681" y="1401.257111" style="fill: #00ff00; stroke: #00ff00"/>
    </g>
   </g>
   <g id="PathCollection_2">
    <defs>
     <path id="m4530abd1b0" d="M 0 3.162278 
C 0.838646 3.162278 1.643056 2.82908 2.236068 2.236068 
C 2.82908 1.643056 3.162278 0.838646 3.162278 0 
C 3.162278 -0.838646 2.82908 -1.643056 2.236068 -2.236068 
C 1.643056 -2.82908 0.838646 -3.162278 0 -3.162278 
C -0.838646 -3.162278 -1.643056 -2.82908 -2.236068 -2.236068 
C -2.82908 -1.643056 -3.162278 -0.838646 -3.162278 0 
C -3.162278 0.838646 -2.82908 1.643056 -2.236068 2.236068 
C -1.643056 2.82908 -0.838646 3.162278 0 3.162278 
z
" style="stroke: #000000"/>
    </defs>
    <g clip-path="url(#p7de33b1bfc)">
     <use xlink:href="#m4530abd1b0" x="1209.81643" y="1492.495285" style="stroke: #000000"/>
    </g>
   </g>
   <g id="PathCollection_3">
    <g clip-path="url(#p7de33b1bfc)">
     <use xlink:href="#m4530abd1b0" x="1197.122681" y="1401.257111" style="stroke: #000000"/>
    </g>
   </g>
   <g id="PathCollection_4">
    <g clip-path="url(#p7de33b1bfc)">
     <use xlink:href="#m4530abd1b0" x="1197.472158" y="1355.706477" style="stroke: #000000"/>
    </g>
   </g>
   <g id="PathCollection_5">
    <g clip-path="url(#p7de33b1bfc)">
     <use xlink:href="#m4530abd1b0" x="1106.44258" y="1296.215617" style="stroke: #000000"/>
    </g>
   </g>
   <g id="PathCollection_6">
    <g clip-path="url(#p7de33b1bfc)">
     <use xlink:href="#m4530abd1b0" x="1087.181202" y="1327.738706" style="stroke: #000000"/>
    </g>
   </g>
  </g>
 </g>
 <defs>
  <clipPath id="p7de33b1bfc">
   <rect x="270" y="259.2" width="1674" height="1630.8"/>
  </clipPath>
 </defs>
</svg>
