<?xml version="1.0" encoding="utf-8" standalone="no"?>
<!DOCTYPE svg PUBLIC "-//W3C//DTD SVG 1.1//EN"
  "http://www.w3.org/Graphics/SVG/1.1/DTD/svg11.dtd">
<svg xmlns:xlink="http://www.w3.org/1999/xlink" width="4320pt" height="1440pt" viewBox="0 0 4320 1440" xmlns="http://www.w3.org/2000/svg" version="1.1">
 <metadata>
  <rdf:RDF xmlns:dc="http://purl.org/dc/elements/1.1/" xmlns:cc="http://creativecommons.org/ns#" xmlns:rdf="http://www.w3.org/1999/02/22-rdf-syntax-ns#">
   <cc:Work>
    <dc:type rdf:resource="http://purl.org/dc/dcmitype/StillImage"/>
    <dc:date>2021-11-07T01:31:02.139497</dc:date>
    <dc:format>image/svg+xml</dc:format>
    <dc:creator>
     <cc:Agent>
      <dc:title>Matplotlib v3.5.0rc1, https://matplotlib.org/</dc:title>
     </cc:Agent>
    </dc:creator>
   </cc:Work>
  </rdf:RDF>
 </metadata>
 <defs>
  <style type="text/css">*{stroke-linejoin: round; stroke-linecap: butt}</style>
 </defs>
 <g id="figure_1">
  <g id="patch_1">
   <path d="M 0 1440 
L 4320 1440 
L 4320 0 
L 0 0 
z
" style="fill: #ffffff"/>
  </g>
  <g id="axes_1">
   <g id="patch_2">
    <path d="M 540 1260 
L 3888 1260 
L 3888 172.8 
L 540 172.8 
z
" style="fill: #ffffff"/>
   </g>
   <g id="matplotlib.axis_1">
    <g id="xtick_1">
     <g id="line2d_1">
      <defs>
       <path id="mb76b1a7917" d="M 0 0 
L 0 3.5 
" style="stroke: #000000; stroke-width: 0.8"/>
      </defs>
      <g>
       <use xlink:href="#mb76b1a7917" x="692.181818" y="1260" style="stroke: #000000; stroke-width: 0.8"/>
      </g>
     </g>
     <g id="text_1">
      <!-- 0 -->
      <g transform="translate(684.228693 1285.996094)scale(0.25 -0.25)">
       <defs>
        <path id="DejaVuSans-30" d="M 2034 4250 
Q 1547 4250 1301 3770 
Q 1056 3291 1056 2328 
Q 1056 1369 1301 889 
Q 1547 409 2034 409 
Q 2525 409 2770 889 
Q 3016 1369 3016 2328 
Q 3016 3291 2770 3770 
Q 2525 4250 2034 4250 
z
M 2034 4750 
Q 2819 4750 3233 4129 
Q 3647 3509 3647 2328 
Q 3647 1150 3233 529 
Q 2819 -91 2034 -91 
Q 1250 -91 836 529 
Q 422 1150 422 2328 
Q 422 3509 836 4129 
Q 1250 4750 2034 4750 
z
" transform="scale(0.015625)"/>
       </defs>
       <use xlink:href="#DejaVuSans-30"/>
      </g>
     </g>
    </g>
    <g id="xtick_2">
     <g id="line2d_2">
      <g>
       <use xlink:href="#mb76b1a7917" x="1092.660287" y="1260" style="stroke: #000000; stroke-width: 0.8"/>
      </g>
     </g>
     <g id="text_2">
      <!-- 150 -->
      <g transform="translate(1068.800912 1285.996094)scale(0.25 -0.25)">
       <defs>
        <path id="DejaVuSans-31" d="M 794 531 
L 1825 531 
L 1825 4091 
L 703 3866 
L 703 4441 
L 1819 4666 
L 2450 4666 
L 2450 531 
L 3481 531 
L 3481 0 
L 794 0 
L 794 531 
z
" transform="scale(0.015625)"/>
        <path id="DejaVuSans-35" d="M 691 4666 
L 3169 4666 
L 3169 4134 
L 1269 4134 
L 1269 2991 
Q 1406 3038 1543 3061 
Q 1681 3084 1819 3084 
Q 2600 3084 3056 2656 
Q 3513 2228 3513 1497 
Q 3513 744 3044 326 
Q 2575 -91 1722 -91 
Q 1428 -91 1123 -41 
Q 819 9 494 109 
L 494 744 
Q 775 591 1075 516 
Q 1375 441 1709 441 
Q 2250 441 2565 725 
Q 2881 1009 2881 1497 
Q 2881 1984 2565 2268 
Q 2250 2553 1709 2553 
Q 1456 2553 1204 2497 
Q 953 2441 691 2322 
L 691 4666 
z
" transform="scale(0.015625)"/>
       </defs>
       <use xlink:href="#DejaVuSans-31"/>
       <use xlink:href="#DejaVuSans-35" x="63.623047"/>
       <use xlink:href="#DejaVuSans-30" x="127.246094"/>
      </g>
     </g>
    </g>
    <g id="xtick_3">
     <g id="line2d_3">
      <g>
       <use xlink:href="#mb76b1a7917" x="1493.138756" y="1260" style="stroke: #000000; stroke-width: 0.8"/>
      </g>
     </g>
     <g id="text_3">
      <!-- 300 -->
      <g transform="translate(1469.279381 1285.996094)scale(0.25 -0.25)">
       <defs>
        <path id="DejaVuSans-33" d="M 2597 2516 
Q 3050 2419 3304 2112 
Q 3559 1806 3559 1356 
Q 3559 666 3084 287 
Q 2609 -91 1734 -91 
Q 1441 -91 1130 -33 
Q 819 25 488 141 
L 488 750 
Q 750 597 1062 519 
Q 1375 441 1716 441 
Q 2309 441 2620 675 
Q 2931 909 2931 1356 
Q 2931 1769 2642 2001 
Q 2353 2234 1838 2234 
L 1294 2234 
L 1294 2753 
L 1863 2753 
Q 2328 2753 2575 2939 
Q 2822 3125 2822 3475 
Q 2822 3834 2567 4026 
Q 2313 4219 1838 4219 
Q 1578 4219 1281 4162 
Q 984 4106 628 3988 
L 628 4550 
Q 988 4650 1302 4700 
Q 1616 4750 1894 4750 
Q 2613 4750 3031 4423 
Q 3450 4097 3450 3541 
Q 3450 3153 3228 2886 
Q 3006 2619 2597 2516 
z
" transform="scale(0.015625)"/>
       </defs>
       <use xlink:href="#DejaVuSans-33"/>
       <use xlink:href="#DejaVuSans-30" x="63.623047"/>
       <use xlink:href="#DejaVuSans-30" x="127.246094"/>
      </g>
     </g>
    </g>
    <g id="xtick_4">
     <g id="line2d_4">
      <g>
       <use xlink:href="#mb76b1a7917" x="1893.617225" y="1260" style="stroke: #000000; stroke-width: 0.8"/>
      </g>
     </g>
     <g id="text_4">
      <!-- 450 -->
      <g transform="translate(1869.75785 1285.996094)scale(0.25 -0.25)">
       <defs>
        <path id="DejaVuSans-34" d="M 2419 4116 
L 825 1625 
L 2419 1625 
L 2419 4116 
z
M 2253 4666 
L 3047 4666 
L 3047 1625 
L 3713 1625 
L 3713 1100 
L 3047 1100 
L 3047 0 
L 2419 0 
L 2419 1100 
L 313 1100 
L 313 1709 
L 2253 4666 
z
" transform="scale(0.015625)"/>
       </defs>
       <use xlink:href="#DejaVuSans-34"/>
       <use xlink:href="#DejaVuSans-35" x="63.623047"/>
       <use xlink:href="#DejaVuSans-30" x="127.246094"/>
      </g>
     </g>
    </g>
    <g id="xtick_5">
     <g id="line2d_5">
      <g>
       <use xlink:href="#mb76b1a7917" x="2294.095694" y="1260" style="stroke: #000000; stroke-width: 0.8"/>
      </g>
     </g>
     <g id="text_5">
      <!-- 600 -->
      <g transform="translate(2270.236319 1285.996094)scale(0.25 -0.25)">
       <defs>
        <path id="DejaVuSans-36" d="M 2113 2584 
Q 1688 2584 1439 2293 
Q 1191 2003 1191 1497 
Q 1191 994 1439 701 
Q 1688 409 2113 409 
Q 2538 409 2786 701 
Q 3034 994 3034 1497 
Q 3034 2003 2786 2293 
Q 2538 2584 2113 2584 
z
M 3366 4563 
L 3366 3988 
Q 3128 4100 2886 4159 
Q 2644 4219 2406 4219 
Q 1781 4219 1451 3797 
Q 1122 3375 1075 2522 
Q 1259 2794 1537 2939 
Q 1816 3084 2150 3084 
Q 2853 3084 3261 2657 
Q 3669 2231 3669 1497 
Q 3669 778 3244 343 
Q 2819 -91 2113 -91 
Q 1303 -91 875 529 
Q 447 1150 447 2328 
Q 447 3434 972 4092 
Q 1497 4750 2381 4750 
Q 2619 4750 2861 4703 
Q 3103 4656 3366 4563 
z
" transform="scale(0.015625)"/>
       </defs>
       <use xlink:href="#DejaVuSans-36"/>
       <use xlink:href="#DejaVuSans-30" x="63.623047"/>
       <use xlink:href="#DejaVuSans-30" x="127.246094"/>
      </g>
     </g>
    </g>
    <g id="xtick_6">
     <g id="line2d_6">
      <g>
       <use xlink:href="#mb76b1a7917" x="2694.574163" y="1260" style="stroke: #000000; stroke-width: 0.8"/>
      </g>
     </g>
     <g id="text_6">
      <!-- 750 -->
      <g transform="translate(2670.714788 1285.996094)scale(0.25 -0.25)">
       <defs>
        <path id="DejaVuSans-37" d="M 525 4666 
L 3525 4666 
L 3525 4397 
L 1831 0 
L 1172 0 
L 2766 4134 
L 525 4134 
L 525 4666 
z
" transform="scale(0.015625)"/>
       </defs>
       <use xlink:href="#DejaVuSans-37"/>
       <use xlink:href="#DejaVuSans-35" x="63.623047"/>
       <use xlink:href="#DejaVuSans-30" x="127.246094"/>
      </g>
     </g>
    </g>
    <g id="xtick_7">
     <g id="line2d_7">
      <g>
       <use xlink:href="#mb76b1a7917" x="3095.052632" y="1260" style="stroke: #000000; stroke-width: 0.8"/>
      </g>
     </g>
     <g id="text_7">
      <!-- 900 -->
      <g transform="translate(3071.193257 1285.996094)scale(0.25 -0.25)">
       <defs>
        <path id="DejaVuSans-39" d="M 703 97 
L 703 672 
Q 941 559 1184 500 
Q 1428 441 1663 441 
Q 2288 441 2617 861 
Q 2947 1281 2994 2138 
Q 2813 1869 2534 1725 
Q 2256 1581 1919 1581 
Q 1219 1581 811 2004 
Q 403 2428 403 3163 
Q 403 3881 828 4315 
Q 1253 4750 1959 4750 
Q 2769 4750 3195 4129 
Q 3622 3509 3622 2328 
Q 3622 1225 3098 567 
Q 2575 -91 1691 -91 
Q 1453 -91 1209 -44 
Q 966 3 703 97 
z
M 1959 2075 
Q 2384 2075 2632 2365 
Q 2881 2656 2881 3163 
Q 2881 3666 2632 3958 
Q 2384 4250 1959 4250 
Q 1534 4250 1286 3958 
Q 1038 3666 1038 3163 
Q 1038 2656 1286 2365 
Q 1534 2075 1959 2075 
z
" transform="scale(0.015625)"/>
       </defs>
       <use xlink:href="#DejaVuSans-39"/>
       <use xlink:href="#DejaVuSans-30" x="63.623047"/>
       <use xlink:href="#DejaVuSans-30" x="127.246094"/>
      </g>
     </g>
    </g>
    <g id="xtick_8">
     <g id="line2d_8">
      <g>
       <use xlink:href="#mb76b1a7917" x="3495.5311" y="1260" style="stroke: #000000; stroke-width: 0.8"/>
      </g>
     </g>
     <g id="text_8">
      <!-- 1050 -->
      <g transform="translate(3463.7186 1285.996094)scale(0.25 -0.25)">
       <use xlink:href="#DejaVuSans-31"/>
       <use xlink:href="#DejaVuSans-30" x="63.623047"/>
       <use xlink:href="#DejaVuSans-35" x="127.246094"/>
       <use xlink:href="#DejaVuSans-30" x="190.869141"/>
      </g>
     </g>
    </g>
    <g id="text_9">
     <!-- Point Index -->
     <g transform="translate(2116.817578 1321.789844)scale(0.35 -0.35)">
      <defs>
       <path id="DejaVuSans-50" d="M 1259 4147 
L 1259 2394 
L 2053 2394 
Q 2494 2394 2734 2622 
Q 2975 2850 2975 3272 
Q 2975 3691 2734 3919 
Q 2494 4147 2053 4147 
L 1259 4147 
z
M 628 4666 
L 2053 4666 
Q 2838 4666 3239 4311 
Q 3641 3956 3641 3272 
Q 3641 2581 3239 2228 
Q 2838 1875 2053 1875 
L 1259 1875 
L 1259 0 
L 628 0 
L 628 4666 
z
" transform="scale(0.015625)"/>
       <path id="DejaVuSans-6f" d="M 1959 3097 
Q 1497 3097 1228 2736 
Q 959 2375 959 1747 
Q 959 1119 1226 758 
Q 1494 397 1959 397 
Q 2419 397 2687 759 
Q 2956 1122 2956 1747 
Q 2956 2369 2687 2733 
Q 2419 3097 1959 3097 
z
M 1959 3584 
Q 2709 3584 3137 3096 
Q 3566 2609 3566 1747 
Q 3566 888 3137 398 
Q 2709 -91 1959 -91 
Q 1206 -91 779 398 
Q 353 888 353 1747 
Q 353 2609 779 3096 
Q 1206 3584 1959 3584 
z
" transform="scale(0.015625)"/>
       <path id="DejaVuSans-69" d="M 603 3500 
L 1178 3500 
L 1178 0 
L 603 0 
L 603 3500 
z
M 603 4863 
L 1178 4863 
L 1178 4134 
L 603 4134 
L 603 4863 
z
" transform="scale(0.015625)"/>
       <path id="DejaVuSans-6e" d="M 3513 2113 
L 3513 0 
L 2938 0 
L 2938 2094 
Q 2938 2591 2744 2837 
Q 2550 3084 2163 3084 
Q 1697 3084 1428 2787 
Q 1159 2491 1159 1978 
L 1159 0 
L 581 0 
L 581 3500 
L 1159 3500 
L 1159 2956 
Q 1366 3272 1645 3428 
Q 1925 3584 2291 3584 
Q 2894 3584 3203 3211 
Q 3513 2838 3513 2113 
z
" transform="scale(0.015625)"/>
       <path id="DejaVuSans-74" d="M 1172 4494 
L 1172 3500 
L 2356 3500 
L 2356 3053 
L 1172 3053 
L 1172 1153 
Q 1172 725 1289 603 
Q 1406 481 1766 481 
L 2356 481 
L 2356 0 
L 1766 0 
Q 1100 0 847 248 
Q 594 497 594 1153 
L 594 3053 
L 172 3053 
L 172 3500 
L 594 3500 
L 594 4494 
L 1172 4494 
z
" transform="scale(0.015625)"/>
       <path id="DejaVuSans-20" transform="scale(0.015625)"/>
       <path id="DejaVuSans-49" d="M 628 4666 
L 1259 4666 
L 1259 0 
L 628 0 
L 628 4666 
z
" transform="scale(0.015625)"/>
       <path id="DejaVuSans-64" d="M 2906 2969 
L 2906 4863 
L 3481 4863 
L 3481 0 
L 2906 0 
L 2906 525 
Q 2725 213 2448 61 
Q 2172 -91 1784 -91 
Q 1150 -91 751 415 
Q 353 922 353 1747 
Q 353 2572 751 3078 
Q 1150 3584 1784 3584 
Q 2172 3584 2448 3432 
Q 2725 3281 2906 2969 
z
M 947 1747 
Q 947 1113 1208 752 
Q 1469 391 1925 391 
Q 2381 391 2643 752 
Q 2906 1113 2906 1747 
Q 2906 2381 2643 2742 
Q 2381 3103 1925 3103 
Q 1469 3103 1208 2742 
Q 947 2381 947 1747 
z
" transform="scale(0.015625)"/>
       <path id="DejaVuSans-65" d="M 3597 1894 
L 3597 1613 
L 953 1613 
Q 991 1019 1311 708 
Q 1631 397 2203 397 
Q 2534 397 2845 478 
Q 3156 559 3463 722 
L 3463 178 
Q 3153 47 2828 -22 
Q 2503 -91 2169 -91 
Q 1331 -91 842 396 
Q 353 884 353 1716 
Q 353 2575 817 3079 
Q 1281 3584 2069 3584 
Q 2775 3584 3186 3129 
Q 3597 2675 3597 1894 
z
M 3022 2063 
Q 3016 2534 2758 2815 
Q 2500 3097 2075 3097 
Q 1594 3097 1305 2825 
Q 1016 2553 972 2059 
L 3022 2063 
z
" transform="scale(0.015625)"/>
       <path id="DejaVuSans-78" d="M 3513 3500 
L 2247 1797 
L 3578 0 
L 2900 0 
L 1881 1375 
L 863 0 
L 184 0 
L 1544 1831 
L 300 3500 
L 978 3500 
L 1906 2253 
L 2834 3500 
L 3513 3500 
z
" transform="scale(0.015625)"/>
      </defs>
      <use xlink:href="#DejaVuSans-50"/>
      <use xlink:href="#DejaVuSans-6f" x="56.677734"/>
      <use xlink:href="#DejaVuSans-69" x="117.859375"/>
      <use xlink:href="#DejaVuSans-6e" x="145.642578"/>
      <use xlink:href="#DejaVuSans-74" x="209.021484"/>
      <use xlink:href="#DejaVuSans-20" x="248.230469"/>
      <use xlink:href="#DejaVuSans-49" x="280.017578"/>
      <use xlink:href="#DejaVuSans-6e" x="309.509766"/>
      <use xlink:href="#DejaVuSans-64" x="372.888672"/>
      <use xlink:href="#DejaVuSans-65" x="436.365234"/>
      <use xlink:href="#DejaVuSans-78" x="496.138672"/>
     </g>
    </g>
   </g>
   <g id="matplotlib.axis_2">
    <g id="ytick_1">
     <g id="line2d_9">
      <defs>
       <path id="m428b127244" d="M 0 0 
L -3.5 0 
" style="stroke: #000000; stroke-width: 0.8"/>
      </defs>
      <g>
       <use xlink:href="#m428b127244" x="540" y="1210.581818" style="stroke: #000000; stroke-width: 0.8"/>
      </g>
     </g>
     <g id="text_10">
      <!-- 0 -->
      <g transform="translate(517.09375 1220.079865)scale(0.25 -0.25)">
       <use xlink:href="#DejaVuSans-30"/>
      </g>
     </g>
    </g>
    <g id="ytick_2">
     <g id="line2d_10">
      <g>
       <use xlink:href="#m428b127244" x="540" y="1071.320958" style="stroke: #000000; stroke-width: 0.8"/>
      </g>
     </g>
     <g id="text_11">
      <!-- 100 -->
      <g transform="translate(485.28125 1080.819005)scale(0.25 -0.25)">
       <use xlink:href="#DejaVuSans-31"/>
       <use xlink:href="#DejaVuSans-30" x="63.623047"/>
       <use xlink:href="#DejaVuSans-30" x="127.246094"/>
      </g>
     </g>
    </g>
    <g id="ytick_3">
     <g id="line2d_11">
      <g>
       <use xlink:href="#m428b127244" x="540" y="932.060097" style="stroke: #000000; stroke-width: 0.8"/>
      </g>
     </g>
     <g id="text_12">
      <!-- 200 -->
      <g transform="translate(485.28125 941.558144)scale(0.25 -0.25)">
       <defs>
        <path id="DejaVuSans-32" d="M 1228 531 
L 3431 531 
L 3431 0 
L 469 0 
L 469 531 
Q 828 903 1448 1529 
Q 2069 2156 2228 2338 
Q 2531 2678 2651 2914 
Q 2772 3150 2772 3378 
Q 2772 3750 2511 3984 
Q 2250 4219 1831 4219 
Q 1534 4219 1204 4116 
Q 875 4013 500 3803 
L 500 4441 
Q 881 4594 1212 4672 
Q 1544 4750 1819 4750 
Q 2544 4750 2975 4387 
Q 3406 4025 3406 3419 
Q 3406 3131 3298 2873 
Q 3191 2616 2906 2266 
Q 2828 2175 2409 1742 
Q 1991 1309 1228 531 
z
" transform="scale(0.015625)"/>
       </defs>
       <use xlink:href="#DejaVuSans-32"/>
       <use xlink:href="#DejaVuSans-30" x="63.623047"/>
       <use xlink:href="#DejaVuSans-30" x="127.246094"/>
      </g>
     </g>
    </g>
    <g id="ytick_4">
     <g id="line2d_12">
      <g>
       <use xlink:href="#m428b127244" x="540" y="792.799237" style="stroke: #000000; stroke-width: 0.8"/>
      </g>
     </g>
     <g id="text_13">
      <!-- 300 -->
      <g transform="translate(485.28125 802.297284)scale(0.25 -0.25)">
       <use xlink:href="#DejaVuSans-33"/>
       <use xlink:href="#DejaVuSans-30" x="63.623047"/>
       <use xlink:href="#DejaVuSans-30" x="127.246094"/>
      </g>
     </g>
    </g>
    <g id="ytick_5">
     <g id="line2d_13">
      <g>
       <use xlink:href="#m428b127244" x="540" y="653.538376" style="stroke: #000000; stroke-width: 0.8"/>
      </g>
     </g>
     <g id="text_14">
      <!-- 400 -->
      <g transform="translate(485.28125 663.036423)scale(0.25 -0.25)">
       <use xlink:href="#DejaVuSans-34"/>
       <use xlink:href="#DejaVuSans-30" x="63.623047"/>
       <use xlink:href="#DejaVuSans-30" x="127.246094"/>
      </g>
     </g>
    </g>
    <g id="ytick_6">
     <g id="line2d_14">
      <g>
       <use xlink:href="#m428b127244" x="540" y="514.277516" style="stroke: #000000; stroke-width: 0.8"/>
      </g>
     </g>
     <g id="text_15">
      <!-- 500 -->
      <g transform="translate(485.28125 523.775563)scale(0.25 -0.25)">
       <use xlink:href="#DejaVuSans-35"/>
       <use xlink:href="#DejaVuSans-30" x="63.623047"/>
       <use xlink:href="#DejaVuSans-30" x="127.246094"/>
      </g>
     </g>
    </g>
    <g id="ytick_7">
     <g id="line2d_15">
      <g>
       <use xlink:href="#m428b127244" x="540" y="375.016655" style="stroke: #000000; stroke-width: 0.8"/>
      </g>
     </g>
     <g id="text_16">
      <!-- 600 -->
      <g transform="translate(485.28125 384.514702)scale(0.25 -0.25)">
       <use xlink:href="#DejaVuSans-36"/>
       <use xlink:href="#DejaVuSans-30" x="63.623047"/>
       <use xlink:href="#DejaVuSans-30" x="127.246094"/>
      </g>
     </g>
    </g>
    <g id="ytick_8">
     <g id="line2d_16">
      <g>
       <use xlink:href="#m428b127244" x="540" y="235.755795" style="stroke: #000000; stroke-width: 0.8"/>
      </g>
     </g>
     <g id="text_17">
      <!-- 700 -->
      <g transform="translate(485.28125 245.253842)scale(0.25 -0.25)">
       <use xlink:href="#DejaVuSans-37"/>
       <use xlink:href="#DejaVuSans-30" x="63.623047"/>
       <use xlink:href="#DejaVuSans-30" x="127.246094"/>
      </g>
     </g>
    </g>
    <g id="text_18">
     <!-- Arc-Length -->
     <g transform="translate(474.002344 811.471484)rotate(-90)scale(0.35 -0.35)">
      <defs>
       <path id="DejaVuSans-41" d="M 2188 4044 
L 1331 1722 
L 3047 1722 
L 2188 4044 
z
M 1831 4666 
L 2547 4666 
L 4325 0 
L 3669 0 
L 3244 1197 
L 1141 1197 
L 716 0 
L 50 0 
L 1831 4666 
z
" transform="scale(0.015625)"/>
       <path id="DejaVuSans-72" d="M 2631 2963 
Q 2534 3019 2420 3045 
Q 2306 3072 2169 3072 
Q 1681 3072 1420 2755 
Q 1159 2438 1159 1844 
L 1159 0 
L 581 0 
L 581 3500 
L 1159 3500 
L 1159 2956 
Q 1341 3275 1631 3429 
Q 1922 3584 2338 3584 
Q 2397 3584 2469 3576 
Q 2541 3569 2628 3553 
L 2631 2963 
z
" transform="scale(0.015625)"/>
       <path id="DejaVuSans-63" d="M 3122 3366 
L 3122 2828 
Q 2878 2963 2633 3030 
Q 2388 3097 2138 3097 
Q 1578 3097 1268 2742 
Q 959 2388 959 1747 
Q 959 1106 1268 751 
Q 1578 397 2138 397 
Q 2388 397 2633 464 
Q 2878 531 3122 666 
L 3122 134 
Q 2881 22 2623 -34 
Q 2366 -91 2075 -91 
Q 1284 -91 818 406 
Q 353 903 353 1747 
Q 353 2603 823 3093 
Q 1294 3584 2113 3584 
Q 2378 3584 2631 3529 
Q 2884 3475 3122 3366 
z
" transform="scale(0.015625)"/>
       <path id="DejaVuSans-2d" d="M 313 2009 
L 1997 2009 
L 1997 1497 
L 313 1497 
L 313 2009 
z
" transform="scale(0.015625)"/>
       <path id="DejaVuSans-4c" d="M 628 4666 
L 1259 4666 
L 1259 531 
L 3531 531 
L 3531 0 
L 628 0 
L 628 4666 
z
" transform="scale(0.015625)"/>
       <path id="DejaVuSans-67" d="M 2906 1791 
Q 2906 2416 2648 2759 
Q 2391 3103 1925 3103 
Q 1463 3103 1205 2759 
Q 947 2416 947 1791 
Q 947 1169 1205 825 
Q 1463 481 1925 481 
Q 2391 481 2648 825 
Q 2906 1169 2906 1791 
z
M 3481 434 
Q 3481 -459 3084 -895 
Q 2688 -1331 1869 -1331 
Q 1566 -1331 1297 -1286 
Q 1028 -1241 775 -1147 
L 775 -588 
Q 1028 -725 1275 -790 
Q 1522 -856 1778 -856 
Q 2344 -856 2625 -561 
Q 2906 -266 2906 331 
L 2906 616 
Q 2728 306 2450 153 
Q 2172 0 1784 0 
Q 1141 0 747 490 
Q 353 981 353 1791 
Q 353 2603 747 3093 
Q 1141 3584 1784 3584 
Q 2172 3584 2450 3431 
Q 2728 3278 2906 2969 
L 2906 3500 
L 3481 3500 
L 3481 434 
z
" transform="scale(0.015625)"/>
       <path id="DejaVuSans-68" d="M 3513 2113 
L 3513 0 
L 2938 0 
L 2938 2094 
Q 2938 2591 2744 2837 
Q 2550 3084 2163 3084 
Q 1697 3084 1428 2787 
Q 1159 2491 1159 1978 
L 1159 0 
L 581 0 
L 581 4863 
L 1159 4863 
L 1159 2956 
Q 1366 3272 1645 3428 
Q 1925 3584 2291 3584 
Q 2894 3584 3203 3211 
Q 3513 2838 3513 2113 
z
" transform="scale(0.015625)"/>
      </defs>
      <use xlink:href="#DejaVuSans-41"/>
      <use xlink:href="#DejaVuSans-72" x="68.408203"/>
      <use xlink:href="#DejaVuSans-63" x="107.271484"/>
      <use xlink:href="#DejaVuSans-2d" x="162.251953"/>
      <use xlink:href="#DejaVuSans-4c" x="198.335938"/>
      <use xlink:href="#DejaVuSans-65" x="252.298828"/>
      <use xlink:href="#DejaVuSans-6e" x="313.822266"/>
      <use xlink:href="#DejaVuSans-67" x="377.201172"/>
      <use xlink:href="#DejaVuSans-74" x="440.677734"/>
      <use xlink:href="#DejaVuSans-68" x="479.886719"/>
     </g>
    </g>
   </g>
   <g id="patch_3">
    <path d="M 540 1260 
L 540 172.8 
" style="fill: none; stroke: #000000; stroke-width: 0.8; stroke-linejoin: miter; stroke-linecap: square"/>
   </g>
   <g id="patch_4">
    <path d="M 3888 1260 
L 3888 172.8 
" style="fill: none; stroke: #000000; stroke-width: 0.8; stroke-linejoin: miter; stroke-linecap: square"/>
   </g>
   <g id="patch_5">
    <path d="M 540 1260 
L 3888 1260 
" style="fill: none; stroke: #000000; stroke-width: 0.8; stroke-linejoin: miter; stroke-linecap: square"/>
   </g>
   <g id="patch_6">
    <path d="M 540 172.8 
L 3888 172.8 
" style="fill: none; stroke: #000000; stroke-width: 0.8; stroke-linejoin: miter; stroke-linecap: square"/>
   </g>
   <g id="text_19">
    <!-- Predicted Arc-Length vs. Ground Truth Arc-Length (at Anchors) -->
    <g transform="translate(1667.007422 165.521094)scale(0.35 -0.35)">
     <defs>
      <path id="DejaVuSans-76" d="M 191 3500 
L 800 3500 
L 1894 563 
L 2988 3500 
L 3597 3500 
L 2284 0 
L 1503 0 
L 191 3500 
z
" transform="scale(0.015625)"/>
      <path id="DejaVuSans-73" d="M 2834 3397 
L 2834 2853 
Q 2591 2978 2328 3040 
Q 2066 3103 1784 3103 
Q 1356 3103 1142 2972 
Q 928 2841 928 2578 
Q 928 2378 1081 2264 
Q 1234 2150 1697 2047 
L 1894 2003 
Q 2506 1872 2764 1633 
Q 3022 1394 3022 966 
Q 3022 478 2636 193 
Q 2250 -91 1575 -91 
Q 1294 -91 989 -36 
Q 684 19 347 128 
L 347 722 
Q 666 556 975 473 
Q 1284 391 1588 391 
Q 1994 391 2212 530 
Q 2431 669 2431 922 
Q 2431 1156 2273 1281 
Q 2116 1406 1581 1522 
L 1381 1569 
Q 847 1681 609 1914 
Q 372 2147 372 2553 
Q 372 3047 722 3315 
Q 1072 3584 1716 3584 
Q 2034 3584 2315 3537 
Q 2597 3491 2834 3397 
z
" transform="scale(0.015625)"/>
      <path id="DejaVuSans-2e" d="M 684 794 
L 1344 794 
L 1344 0 
L 684 0 
L 684 794 
z
" transform="scale(0.015625)"/>
      <path id="DejaVuSans-47" d="M 3809 666 
L 3809 1919 
L 2778 1919 
L 2778 2438 
L 4434 2438 
L 4434 434 
Q 4069 175 3628 42 
Q 3188 -91 2688 -91 
Q 1594 -91 976 548 
Q 359 1188 359 2328 
Q 359 3472 976 4111 
Q 1594 4750 2688 4750 
Q 3144 4750 3555 4637 
Q 3966 4525 4313 4306 
L 4313 3634 
Q 3963 3931 3569 4081 
Q 3175 4231 2741 4231 
Q 1884 4231 1454 3753 
Q 1025 3275 1025 2328 
Q 1025 1384 1454 906 
Q 1884 428 2741 428 
Q 3075 428 3337 486 
Q 3600 544 3809 666 
z
" transform="scale(0.015625)"/>
      <path id="DejaVuSans-75" d="M 544 1381 
L 544 3500 
L 1119 3500 
L 1119 1403 
Q 1119 906 1312 657 
Q 1506 409 1894 409 
Q 2359 409 2629 706 
Q 2900 1003 2900 1516 
L 2900 3500 
L 3475 3500 
L 3475 0 
L 2900 0 
L 2900 538 
Q 2691 219 2414 64 
Q 2138 -91 1772 -91 
Q 1169 -91 856 284 
Q 544 659 544 1381 
z
M 1991 3584 
L 1991 3584 
z
" transform="scale(0.015625)"/>
      <path id="DejaVuSans-54" d="M -19 4666 
L 3928 4666 
L 3928 4134 
L 2272 4134 
L 2272 0 
L 1638 0 
L 1638 4134 
L -19 4134 
L -19 4666 
z
" transform="scale(0.015625)"/>
      <path id="DejaVuSans-28" d="M 1984 4856 
Q 1566 4138 1362 3434 
Q 1159 2731 1159 2009 
Q 1159 1288 1364 580 
Q 1569 -128 1984 -844 
L 1484 -844 
Q 1016 -109 783 600 
Q 550 1309 550 2009 
Q 550 2706 781 3412 
Q 1013 4119 1484 4856 
L 1984 4856 
z
" transform="scale(0.015625)"/>
      <path id="DejaVuSans-61" d="M 2194 1759 
Q 1497 1759 1228 1600 
Q 959 1441 959 1056 
Q 959 750 1161 570 
Q 1363 391 1709 391 
Q 2188 391 2477 730 
Q 2766 1069 2766 1631 
L 2766 1759 
L 2194 1759 
z
M 3341 1997 
L 3341 0 
L 2766 0 
L 2766 531 
Q 2569 213 2275 61 
Q 1981 -91 1556 -91 
Q 1019 -91 701 211 
Q 384 513 384 1019 
Q 384 1609 779 1909 
Q 1175 2209 1959 2209 
L 2766 2209 
L 2766 2266 
Q 2766 2663 2505 2880 
Q 2244 3097 1772 3097 
Q 1472 3097 1187 3025 
Q 903 2953 641 2809 
L 641 3341 
Q 956 3463 1253 3523 
Q 1550 3584 1831 3584 
Q 2591 3584 2966 3190 
Q 3341 2797 3341 1997 
z
" transform="scale(0.015625)"/>
      <path id="DejaVuSans-29" d="M 513 4856 
L 1013 4856 
Q 1481 4119 1714 3412 
Q 1947 2706 1947 2009 
Q 1947 1309 1714 600 
Q 1481 -109 1013 -844 
L 513 -844 
Q 928 -128 1133 580 
Q 1338 1288 1338 2009 
Q 1338 2731 1133 3434 
Q 928 4138 513 4856 
z
" transform="scale(0.015625)"/>
     </defs>
     <use xlink:href="#DejaVuSans-50"/>
     <use xlink:href="#DejaVuSans-72" x="58.552734"/>
     <use xlink:href="#DejaVuSans-65" x="97.416016"/>
     <use xlink:href="#DejaVuSans-64" x="158.939453"/>
     <use xlink:href="#DejaVuSans-69" x="222.416016"/>
     <use xlink:href="#DejaVuSans-63" x="250.199219"/>
     <use xlink:href="#DejaVuSans-74" x="305.179688"/>
     <use xlink:href="#DejaVuSans-65" x="344.388672"/>
     <use xlink:href="#DejaVuSans-64" x="405.912109"/>
     <use xlink:href="#DejaVuSans-20" x="469.388672"/>
     <use xlink:href="#DejaVuSans-41" x="501.175781"/>
     <use xlink:href="#DejaVuSans-72" x="569.583984"/>
     <use xlink:href="#DejaVuSans-63" x="608.447266"/>
     <use xlink:href="#DejaVuSans-2d" x="663.427734"/>
     <use xlink:href="#DejaVuSans-4c" x="699.511719"/>
     <use xlink:href="#DejaVuSans-65" x="753.474609"/>
     <use xlink:href="#DejaVuSans-6e" x="814.998047"/>
     <use xlink:href="#DejaVuSans-67" x="878.376953"/>
     <use xlink:href="#DejaVuSans-74" x="941.853516"/>
     <use xlink:href="#DejaVuSans-68" x="981.0625"/>
     <use xlink:href="#DejaVuSans-20" x="1044.441406"/>
     <use xlink:href="#DejaVuSans-76" x="1076.228516"/>
     <use xlink:href="#DejaVuSans-73" x="1135.408203"/>
     <use xlink:href="#DejaVuSans-2e" x="1187.507812"/>
     <use xlink:href="#DejaVuSans-20" x="1219.294922"/>
     <use xlink:href="#DejaVuSans-47" x="1251.082031"/>
     <use xlink:href="#DejaVuSans-72" x="1328.572266"/>
     <use xlink:href="#DejaVuSans-6f" x="1367.435547"/>
     <use xlink:href="#DejaVuSans-75" x="1428.617188"/>
     <use xlink:href="#DejaVuSans-6e" x="1491.996094"/>
     <use xlink:href="#DejaVuSans-64" x="1555.375"/>
     <use xlink:href="#DejaVuSans-20" x="1618.851562"/>
     <use xlink:href="#DejaVuSans-54" x="1650.638672"/>
     <use xlink:href="#DejaVuSans-72" x="1696.972656"/>
     <use xlink:href="#DejaVuSans-75" x="1738.085938"/>
     <use xlink:href="#DejaVuSans-74" x="1801.464844"/>
     <use xlink:href="#DejaVuSans-68" x="1840.673828"/>
     <use xlink:href="#DejaVuSans-20" x="1904.052734"/>
     <use xlink:href="#DejaVuSans-41" x="1935.839844"/>
     <use xlink:href="#DejaVuSans-72" x="2004.248047"/>
     <use xlink:href="#DejaVuSans-63" x="2043.111328"/>
     <use xlink:href="#DejaVuSans-2d" x="2098.091797"/>
     <use xlink:href="#DejaVuSans-4c" x="2134.175781"/>
     <use xlink:href="#DejaVuSans-65" x="2188.138672"/>
     <use xlink:href="#DejaVuSans-6e" x="2249.662109"/>
     <use xlink:href="#DejaVuSans-67" x="2313.041016"/>
     <use xlink:href="#DejaVuSans-74" x="2376.517578"/>
     <use xlink:href="#DejaVuSans-68" x="2415.726562"/>
     <use xlink:href="#DejaVuSans-20" x="2479.105469"/>
     <use xlink:href="#DejaVuSans-28" x="2510.892578"/>
     <use xlink:href="#DejaVuSans-61" x="2549.90625"/>
     <use xlink:href="#DejaVuSans-74" x="2611.185547"/>
     <use xlink:href="#DejaVuSans-20" x="2650.394531"/>
     <use xlink:href="#DejaVuSans-41" x="2682.181641"/>
     <use xlink:href="#DejaVuSans-6e" x="2750.589844"/>
     <use xlink:href="#DejaVuSans-63" x="2813.96875"/>
     <use xlink:href="#DejaVuSans-68" x="2868.949219"/>
     <use xlink:href="#DejaVuSans-6f" x="2932.328125"/>
     <use xlink:href="#DejaVuSans-72" x="2993.509766"/>
     <use xlink:href="#DejaVuSans-73" x="3034.623047"/>
     <use xlink:href="#DejaVuSans-29" x="3086.722656"/>
    </g>
   </g>
   <g id="legend_1">
    <g id="patch_7">
     <path d="M 557.5 339.58125 
L 1208.160156 339.58125 
Q 1213.160156 339.58125 1213.160156 334.58125 
L 1213.160156 190.3 
Q 1213.160156 185.3 1208.160156 185.3 
L 557.5 185.3 
Q 552.5 185.3 552.5 190.3 
L 552.5 334.58125 
Q 552.5 339.58125 557.5 339.58125 
z
" style="fill: #ffffff; opacity: 0.8; stroke: #cccccc; stroke-linejoin: miter"/>
    </g>
    <g id="line2d_17">
     <path d="M 562.5 205.546094 
L 587.5 205.546094 
L 612.5 205.546094 
" style="fill: none; stroke: #ff8c00; stroke-width: 6; stroke-linecap: square"/>
    </g>
    <g id="text_20">
     <!-- True Arc-Length (Transformed Curve #1) -->
     <g transform="translate(632.5 214.296094)scale(0.25 -0.25)">
      <defs>
       <path id="DejaVuSans-66" d="M 2375 4863 
L 2375 4384 
L 1825 4384 
Q 1516 4384 1395 4259 
Q 1275 4134 1275 3809 
L 1275 3500 
L 2222 3500 
L 2222 3053 
L 1275 3053 
L 1275 0 
L 697 0 
L 697 3053 
L 147 3053 
L 147 3500 
L 697 3500 
L 697 3744 
Q 697 4328 969 4595 
Q 1241 4863 1831 4863 
L 2375 4863 
z
" transform="scale(0.015625)"/>
       <path id="DejaVuSans-6d" d="M 3328 2828 
Q 3544 3216 3844 3400 
Q 4144 3584 4550 3584 
Q 5097 3584 5394 3201 
Q 5691 2819 5691 2113 
L 5691 0 
L 5113 0 
L 5113 2094 
Q 5113 2597 4934 2840 
Q 4756 3084 4391 3084 
Q 3944 3084 3684 2787 
Q 3425 2491 3425 1978 
L 3425 0 
L 2847 0 
L 2847 2094 
Q 2847 2600 2669 2842 
Q 2491 3084 2119 3084 
Q 1678 3084 1418 2786 
Q 1159 2488 1159 1978 
L 1159 0 
L 581 0 
L 581 3500 
L 1159 3500 
L 1159 2956 
Q 1356 3278 1631 3431 
Q 1906 3584 2284 3584 
Q 2666 3584 2933 3390 
Q 3200 3197 3328 2828 
z
" transform="scale(0.015625)"/>
       <path id="DejaVuSans-43" d="M 4122 4306 
L 4122 3641 
Q 3803 3938 3442 4084 
Q 3081 4231 2675 4231 
Q 1875 4231 1450 3742 
Q 1025 3253 1025 2328 
Q 1025 1406 1450 917 
Q 1875 428 2675 428 
Q 3081 428 3442 575 
Q 3803 722 4122 1019 
L 4122 359 
Q 3791 134 3420 21 
Q 3050 -91 2638 -91 
Q 1578 -91 968 557 
Q 359 1206 359 2328 
Q 359 3453 968 4101 
Q 1578 4750 2638 4750 
Q 3056 4750 3426 4639 
Q 3797 4528 4122 4306 
z
" transform="scale(0.015625)"/>
       <path id="DejaVuSans-23" d="M 3272 2816 
L 2363 2816 
L 2100 1772 
L 3016 1772 
L 3272 2816 
z
M 2803 4594 
L 2478 3297 
L 3391 3297 
L 3719 4594 
L 4219 4594 
L 3897 3297 
L 4872 3297 
L 4872 2816 
L 3775 2816 
L 3519 1772 
L 4513 1772 
L 4513 1294 
L 3397 1294 
L 3072 0 
L 2572 0 
L 2894 1294 
L 1978 1294 
L 1656 0 
L 1153 0 
L 1478 1294 
L 494 1294 
L 494 1772 
L 1594 1772 
L 1856 2816 
L 850 2816 
L 850 3297 
L 1978 3297 
L 2297 4594 
L 2803 4594 
z
" transform="scale(0.015625)"/>
      </defs>
      <use xlink:href="#DejaVuSans-54"/>
      <use xlink:href="#DejaVuSans-72" x="46.333984"/>
      <use xlink:href="#DejaVuSans-75" x="87.447266"/>
      <use xlink:href="#DejaVuSans-65" x="150.826172"/>
      <use xlink:href="#DejaVuSans-20" x="212.349609"/>
      <use xlink:href="#DejaVuSans-41" x="244.136719"/>
      <use xlink:href="#DejaVuSans-72" x="312.544922"/>
      <use xlink:href="#DejaVuSans-63" x="351.408203"/>
      <use xlink:href="#DejaVuSans-2d" x="406.388672"/>
      <use xlink:href="#DejaVuSans-4c" x="442.472656"/>
      <use xlink:href="#DejaVuSans-65" x="496.435547"/>
      <use xlink:href="#DejaVuSans-6e" x="557.958984"/>
      <use xlink:href="#DejaVuSans-67" x="621.337891"/>
      <use xlink:href="#DejaVuSans-74" x="684.814453"/>
      <use xlink:href="#DejaVuSans-68" x="724.023438"/>
      <use xlink:href="#DejaVuSans-20" x="787.402344"/>
      <use xlink:href="#DejaVuSans-28" x="819.189453"/>
      <use xlink:href="#DejaVuSans-54" x="858.203125"/>
      <use xlink:href="#DejaVuSans-72" x="904.537109"/>
      <use xlink:href="#DejaVuSans-61" x="945.650391"/>
      <use xlink:href="#DejaVuSans-6e" x="1006.929688"/>
      <use xlink:href="#DejaVuSans-73" x="1070.308594"/>
      <use xlink:href="#DejaVuSans-66" x="1122.408203"/>
      <use xlink:href="#DejaVuSans-6f" x="1157.613281"/>
      <use xlink:href="#DejaVuSans-72" x="1218.794922"/>
      <use xlink:href="#DejaVuSans-6d" x="1258.158203"/>
      <use xlink:href="#DejaVuSans-65" x="1355.570312"/>
      <use xlink:href="#DejaVuSans-64" x="1417.09375"/>
      <use xlink:href="#DejaVuSans-20" x="1480.570312"/>
      <use xlink:href="#DejaVuSans-43" x="1512.357422"/>
      <use xlink:href="#DejaVuSans-75" x="1582.181641"/>
      <use xlink:href="#DejaVuSans-72" x="1645.560547"/>
      <use xlink:href="#DejaVuSans-76" x="1686.673828"/>
      <use xlink:href="#DejaVuSans-65" x="1745.853516"/>
      <use xlink:href="#DejaVuSans-20" x="1807.376953"/>
      <use xlink:href="#DejaVuSans-23" x="1839.164062"/>
      <use xlink:href="#DejaVuSans-31" x="1922.953125"/>
      <use xlink:href="#DejaVuSans-29" x="1986.576172"/>
     </g>
    </g>
    <g id="line2d_18">
     <path d="M 562.5 242.241406 
L 587.5 242.241406 
L 612.5 242.241406 
" style="fill: none; stroke: #aa0000; stroke-width: 6; stroke-linecap: square"/>
    </g>
    <g id="text_21">
     <!-- Predicted Arc-Length (Transformed Curve #1) -->
     <g transform="translate(632.5 250.991406)scale(0.25 -0.25)">
      <use xlink:href="#DejaVuSans-50"/>
      <use xlink:href="#DejaVuSans-72" x="58.552734"/>
      <use xlink:href="#DejaVuSans-65" x="97.416016"/>
      <use xlink:href="#DejaVuSans-64" x="158.939453"/>
      <use xlink:href="#DejaVuSans-69" x="222.416016"/>
      <use xlink:href="#DejaVuSans-63" x="250.199219"/>
      <use xlink:href="#DejaVuSans-74" x="305.179688"/>
      <use xlink:href="#DejaVuSans-65" x="344.388672"/>
      <use xlink:href="#DejaVuSans-64" x="405.912109"/>
      <use xlink:href="#DejaVuSans-20" x="469.388672"/>
      <use xlink:href="#DejaVuSans-41" x="501.175781"/>
      <use xlink:href="#DejaVuSans-72" x="569.583984"/>
      <use xlink:href="#DejaVuSans-63" x="608.447266"/>
      <use xlink:href="#DejaVuSans-2d" x="663.427734"/>
      <use xlink:href="#DejaVuSans-4c" x="699.511719"/>
      <use xlink:href="#DejaVuSans-65" x="753.474609"/>
      <use xlink:href="#DejaVuSans-6e" x="814.998047"/>
      <use xlink:href="#DejaVuSans-67" x="878.376953"/>
      <use xlink:href="#DejaVuSans-74" x="941.853516"/>
      <use xlink:href="#DejaVuSans-68" x="981.0625"/>
      <use xlink:href="#DejaVuSans-20" x="1044.441406"/>
      <use xlink:href="#DejaVuSans-28" x="1076.228516"/>
      <use xlink:href="#DejaVuSans-54" x="1115.242188"/>
      <use xlink:href="#DejaVuSans-72" x="1161.576172"/>
      <use xlink:href="#DejaVuSans-61" x="1202.689453"/>
      <use xlink:href="#DejaVuSans-6e" x="1263.96875"/>
      <use xlink:href="#DejaVuSans-73" x="1327.347656"/>
      <use xlink:href="#DejaVuSans-66" x="1379.447266"/>
      <use xlink:href="#DejaVuSans-6f" x="1414.652344"/>
      <use xlink:href="#DejaVuSans-72" x="1475.833984"/>
      <use xlink:href="#DejaVuSans-6d" x="1515.197266"/>
      <use xlink:href="#DejaVuSans-65" x="1612.609375"/>
      <use xlink:href="#DejaVuSans-64" x="1674.132812"/>
      <use xlink:href="#DejaVuSans-20" x="1737.609375"/>
      <use xlink:href="#DejaVuSans-43" x="1769.396484"/>
      <use xlink:href="#DejaVuSans-75" x="1839.220703"/>
      <use xlink:href="#DejaVuSans-72" x="1902.599609"/>
      <use xlink:href="#DejaVuSans-76" x="1943.712891"/>
      <use xlink:href="#DejaVuSans-65" x="2002.892578"/>
      <use xlink:href="#DejaVuSans-20" x="2064.416016"/>
      <use xlink:href="#DejaVuSans-23" x="2096.203125"/>
      <use xlink:href="#DejaVuSans-31" x="2179.992188"/>
      <use xlink:href="#DejaVuSans-29" x="2243.615234"/>
     </g>
    </g>
    <g id="line2d_19">
     <path d="M 562.5 278.936719 
L 587.5 278.936719 
L 612.5 278.936719 
" style="fill: none; stroke: #444444; stroke-width: 6; stroke-linecap: square"/>
    </g>
    <g id="text_22">
     <!-- True Arc-Length (Transformed Curve #2) -->
     <g transform="translate(632.5 287.686719)scale(0.25 -0.25)">
      <use xlink:href="#DejaVuSans-54"/>
      <use xlink:href="#DejaVuSans-72" x="46.333984"/>
      <use xlink:href="#DejaVuSans-75" x="87.447266"/>
      <use xlink:href="#DejaVuSans-65" x="150.826172"/>
      <use xlink:href="#DejaVuSans-20" x="212.349609"/>
      <use xlink:href="#DejaVuSans-41" x="244.136719"/>
      <use xlink:href="#DejaVuSans-72" x="312.544922"/>
      <use xlink:href="#DejaVuSans-63" x="351.408203"/>
      <use xlink:href="#DejaVuSans-2d" x="406.388672"/>
      <use xlink:href="#DejaVuSans-4c" x="442.472656"/>
      <use xlink:href="#DejaVuSans-65" x="496.435547"/>
      <use xlink:href="#DejaVuSans-6e" x="557.958984"/>
      <use xlink:href="#DejaVuSans-67" x="621.337891"/>
      <use xlink:href="#DejaVuSans-74" x="684.814453"/>
      <use xlink:href="#DejaVuSans-68" x="724.023438"/>
      <use xlink:href="#DejaVuSans-20" x="787.402344"/>
      <use xlink:href="#DejaVuSans-28" x="819.189453"/>
      <use xlink:href="#DejaVuSans-54" x="858.203125"/>
      <use xlink:href="#DejaVuSans-72" x="904.537109"/>
      <use xlink:href="#DejaVuSans-61" x="945.650391"/>
      <use xlink:href="#DejaVuSans-6e" x="1006.929688"/>
      <use xlink:href="#DejaVuSans-73" x="1070.308594"/>
      <use xlink:href="#DejaVuSans-66" x="1122.408203"/>
      <use xlink:href="#DejaVuSans-6f" x="1157.613281"/>
      <use xlink:href="#DejaVuSans-72" x="1218.794922"/>
      <use xlink:href="#DejaVuSans-6d" x="1258.158203"/>
      <use xlink:href="#DejaVuSans-65" x="1355.570312"/>
      <use xlink:href="#DejaVuSans-64" x="1417.09375"/>
      <use xlink:href="#DejaVuSans-20" x="1480.570312"/>
      <use xlink:href="#DejaVuSans-43" x="1512.357422"/>
      <use xlink:href="#DejaVuSans-75" x="1582.181641"/>
      <use xlink:href="#DejaVuSans-72" x="1645.560547"/>
      <use xlink:href="#DejaVuSans-76" x="1686.673828"/>
      <use xlink:href="#DejaVuSans-65" x="1745.853516"/>
      <use xlink:href="#DejaVuSans-20" x="1807.376953"/>
      <use xlink:href="#DejaVuSans-23" x="1839.164062"/>
      <use xlink:href="#DejaVuSans-32" x="1922.953125"/>
      <use xlink:href="#DejaVuSans-29" x="1986.576172"/>
     </g>
    </g>
    <g id="line2d_20">
     <path d="M 562.5 315.632031 
L 587.5 315.632031 
L 612.5 315.632031 
" style="fill: none; stroke: #00aa00; stroke-width: 6; stroke-linecap: square"/>
    </g>
    <g id="text_23">
     <!-- Predicted Arc-Length (Transformed Curve #2) -->
     <g transform="translate(632.5 324.382031)scale(0.25 -0.25)">
      <use xlink:href="#DejaVuSans-50"/>
      <use xlink:href="#DejaVuSans-72" x="58.552734"/>
      <use xlink:href="#DejaVuSans-65" x="97.416016"/>
      <use xlink:href="#DejaVuSans-64" x="158.939453"/>
      <use xlink:href="#DejaVuSans-69" x="222.416016"/>
      <use xlink:href="#DejaVuSans-63" x="250.199219"/>
      <use xlink:href="#DejaVuSans-74" x="305.179688"/>
      <use xlink:href="#DejaVuSans-65" x="344.388672"/>
      <use xlink:href="#DejaVuSans-64" x="405.912109"/>
      <use xlink:href="#DejaVuSans-20" x="469.388672"/>
      <use xlink:href="#DejaVuSans-41" x="501.175781"/>
      <use xlink:href="#DejaVuSans-72" x="569.583984"/>
      <use xlink:href="#DejaVuSans-63" x="608.447266"/>
      <use xlink:href="#DejaVuSans-2d" x="663.427734"/>
      <use xlink:href="#DejaVuSans-4c" x="699.511719"/>
      <use xlink:href="#DejaVuSans-65" x="753.474609"/>
      <use xlink:href="#DejaVuSans-6e" x="814.998047"/>
      <use xlink:href="#DejaVuSans-67" x="878.376953"/>
      <use xlink:href="#DejaVuSans-74" x="941.853516"/>
      <use xlink:href="#DejaVuSans-68" x="981.0625"/>
      <use xlink:href="#DejaVuSans-20" x="1044.441406"/>
      <use xlink:href="#DejaVuSans-28" x="1076.228516"/>
      <use xlink:href="#DejaVuSans-54" x="1115.242188"/>
      <use xlink:href="#DejaVuSans-72" x="1161.576172"/>
      <use xlink:href="#DejaVuSans-61" x="1202.689453"/>
      <use xlink:href="#DejaVuSans-6e" x="1263.96875"/>
      <use xlink:href="#DejaVuSans-73" x="1327.347656"/>
      <use xlink:href="#DejaVuSans-66" x="1379.447266"/>
      <use xlink:href="#DejaVuSans-6f" x="1414.652344"/>
      <use xlink:href="#DejaVuSans-72" x="1475.833984"/>
      <use xlink:href="#DejaVuSans-6d" x="1515.197266"/>
      <use xlink:href="#DejaVuSans-65" x="1612.609375"/>
      <use xlink:href="#DejaVuSans-64" x="1674.132812"/>
      <use xlink:href="#DejaVuSans-20" x="1737.609375"/>
      <use xlink:href="#DejaVuSans-43" x="1769.396484"/>
      <use xlink:href="#DejaVuSans-75" x="1839.220703"/>
      <use xlink:href="#DejaVuSans-72" x="1902.599609"/>
      <use xlink:href="#DejaVuSans-76" x="1943.712891"/>
      <use xlink:href="#DejaVuSans-65" x="2002.892578"/>
      <use xlink:href="#DejaVuSans-20" x="2064.416016"/>
      <use xlink:href="#DejaVuSans-23" x="2096.203125"/>
      <use xlink:href="#DejaVuSans-32" x="2179.992188"/>
      <use xlink:href="#DejaVuSans-29" x="2243.615234"/>
     </g>
    </g>
   </g>
   <g id="line2d_21">
    <path d="M 692.181818 1210.581818 
L 710.870813 1204.620755 
L 732.229665 1197.541726 
L 785.626794 1179.624753 
L 801.645933 1174.558899 
L 817.665072 1169.751005 
L 833.684211 1165.201268 
L 852.373206 1160.150665 
L 908.440191 1145.437847 
L 943.148325 1136.370888 
L 961.837321 1131.718655 
L 980.526316 1127.30511 
L 1012.564593 1120.060355 
L 1033.923445 1115.102844 
L 1052.61244 1110.529254 
L 1100.669856 1098.549908 
L 1111.349282 1096.159882 
L 1122.028708 1093.992127 
L 1132.708134 1092.099066 
L 1140.717703 1090.885657 
L 1148.727273 1089.862954 
L 1156.736842 1089.033821 
L 1167.416268 1088.199764 
L 1188.77512 1086.769002 
L 1196.784689 1085.995396 
L 1204.794258 1085.011066 
L 1212.803828 1083.805825 
L 1220.813397 1082.381094 
L 1228.822967 1080.744935 
L 1236.832536 1078.909694 
L 1244.842105 1076.890658 
L 1255.521531 1073.942777 
L 1266.200957 1070.743132 
L 1279.550239 1066.458446 
L 1292.899522 1061.936098 
L 1311.588517 1055.346472 
L 1340.956938 1044.697225 
L 1381.004785 1029.931544 
L 1410.373206 1018.882493 
L 1445.08134 1005.566337 
L 1503.818182 982.993275 
L 1541.196172 968.913481 
L 1605.272727 945.069681 
L 1639.980861 932.319376 
L 1661.339713 924.687901 
L 1677.358852 919.16513 
L 1693.37799 913.887593 
L 1706.727273 909.726414 
L 1720.076555 905.819318 
L 1730.755981 902.895369 
L 1741.435407 900.158435 
L 1754.784689 896.99358 
L 1768.133971 894.075097 
L 1792.162679 889.141538 
L 1808.181818 885.737294 
L 1818.861244 883.26222 
L 1829.54067 880.550849 
L 1840.220096 877.562178 
L 1850.899522 874.272942 
L 1861.578947 870.675276 
L 1872.258373 866.774228 
L 1882.937799 862.585605 
L 1893.617225 858.134228 
L 1904.296651 853.452494 
L 1917.645933 847.335965 
L 1933.665072 839.724831 
L 1976.382775 819.263225 
L 1989.732057 813.22735 
L 2000.411483 808.650473 
L 2011.090909 804.352809 
L 2019.100478 801.340834 
L 2027.110048 798.529181 
L 2035.119617 795.93223 
L 2043.129187 793.560768 
L 2051.138756 791.420817 
L 2059.148325 789.511913 
L 2067.157895 787.82451 
L 2075.167464 786.336199 
L 2085.84689 784.589275 
L 2109.875598 780.841278 
L 2117.885167 779.384394 
L 2125.894737 777.740654 
L 2133.904306 775.888874 
L 2141.913876 773.821208 
L 2149.923445 771.539136 
L 2157.933014 769.050677 
L 2165.942584 766.368493 
L 2176.62201 762.518851 
L 2187.301435 758.397325 
L 2197.980861 754.05182 
L 2211.330144 748.37998 
L 2230.019139 740.157863 
L 2278.076555 718.852661 
L 2296.76555 710.855417 
L 2315.454545 703.091968 
L 2336.813397 694.487834 
L 2358.172249 686.120904 
L 2384.870813 675.910061 
L 2416.909091 663.909852 
L 2451.617225 651.15531 
L 2480.985646 640.589988 
L 2513.023923 629.321589 
L 2555.741627 614.325276 
L 2574.430622 607.48995 
L 2590.449761 601.372184 
L 2603.799043 596.056302 
L 2617.148325 590.532404 
L 2633.167464 583.639397 
L 2649.186603 576.493074 
L 2667.875598 567.910602 
L 2699.913876 552.885833 
L 2729.282297 539.180027 
L 2747.971292 530.679591 
L 2763.990431 523.608637 
L 2780.009569 516.780575 
L 2796.028708 510.224956 
L 2809.37799 504.982588 
L 2822.727273 499.9452 
L 2836.076555 495.113438 
L 2849.425837 490.487891 
L 2862.77512 486.072828 
L 2876.124402 481.879575 
L 2889.473684 477.928503 
L 2902.822967 474.248696 
L 2913.502392 471.523337 
L 2924.181818 469.011235 
L 2934.861244 466.726033 
L 2945.54067 464.67253 
L 2956.220096 462.839711 
L 2969.569378 460.801308 
L 3001.607656 456.104911 
L 3012.287081 454.249404 
L 3022.966507 452.135115 
L 3033.645933 449.73901 
L 3044.325359 447.060555 
L 3055.004785 444.115435 
L 3065.684211 440.930888 
L 3079.033493 436.667874 
L 3092.382775 432.166595 
L 3113.741627 424.687196 
L 3140.440191 415.343747 
L 3156.45933 409.995585 
L 3169.808612 405.800807 
L 3180.488038 402.66231 
L 3191.167464 399.74588 
L 3201.84689 397.070381 
L 3212.526316 394.643643 
L 3223.205742 392.456923 
L 3236.555024 390.007895 
L 3273.933014 383.47283 
L 3284.61244 381.24193 
L 3292.62201 379.375765 
L 3300.631579 377.329787 
L 3308.641148 375.099562 
L 3316.650718 372.686919 
L 3327.330144 369.198725 
L 3338.009569 365.425714 
L 3348.688995 361.403829 
L 3362.038278 356.090851 
L 3378.057416 349.414212 
L 3404.755981 337.951371 
L 3428.784689 327.705622 
L 3447.473684 319.986735 
L 3463.492823 313.603214 
L 3479.511962 307.440509 
L 3498.200957 300.50019 
L 3519.559809 292.82014 
L 3548.92823 282.513163 
L 3596.985646 265.897907 
L 3623.684211 256.8706 
L 3645.043062 249.884787 
L 3663.732057 243.995364 
L 3685.090909 237.498275 
L 3735.818182 222.218182 
L 3735.818182 222.218182 
" clip-path="url(#p0d2055e80e)" style="fill: none; stroke: #ff8c00; stroke-width: 6; stroke-linecap: square"/>
   </g>
   <g id="line2d_22">
    <path d="M 692.181818 1210.581818 
L 697.521531 1208.965031 
L 718.880383 1202.242253 
L 724.220096 1200.425632 
L 729.559809 1198.687766 
L 737.569378 1196.108932 
L 748.248804 1192.592475 
L 790.966507 1178.493792 
L 806.985646 1173.552456 
L 839.023923 1164.424824 
L 847.033493 1162.332842 
L 857.712919 1159.568433 
L 863.052632 1158.163564 
L 905.770335 1147.025213 
L 943.148325 1137.241607 
L 961.837321 1132.591316 
L 980.526316 1128.184818 
L 1017.904306 1119.720191 
L 1031.253589 1116.617285 
L 1049.942584 1112.083505 
L 1103.339713 1098.828095 
L 1114.019139 1096.485788 
L 1124.698565 1094.382183 
L 1132.708134 1092.980325 
L 1140.717703 1091.756013 
L 1148.727273 1090.740577 
L 1156.736842 1089.904311 
L 1167.416268 1089.091794 
L 1194.114833 1087.42295 
L 1202.124402 1086.514456 
L 1210.133971 1085.390401 
L 1218.143541 1084.038278 
L 1226.15311 1082.470148 
L 1234.162679 1080.692188 
L 1244.842105 1078.038193 
L 1255.521531 1075.093083 
L 1266.200957 1071.890854 
L 1279.550239 1067.602312 
L 1295.569378 1062.151337 
L 1314.258373 1055.531001 
L 1343.626794 1044.826869 
L 1402.363636 1023.03661 
L 1423.722488 1014.926867 
L 1461.100478 1000.504626 
L 1514.497608 979.995437 
L 1541.196172 969.966515 
L 1607.942584 945.041923 
L 1613.282297 943.064461 
L 1621.291866 940.104776 
L 1653.330144 928.450018 
L 1674.688995 920.983343 
L 1690.708134 915.653259 
L 1704.057416 911.451677 
L 1714.736842 908.267063 
L 1725.416268 905.245325 
L 1738.76555 901.719133 
L 1749.444976 899.124875 
L 1762.794258 896.100754 
L 1784.15311 891.664136 
L 1808.181818 886.636503 
L 1818.861244 884.173356 
L 1829.54067 881.464882 
L 1840.220096 878.482431 
L 1850.899522 875.185109 
L 1861.578947 871.586505 
L 1872.258373 867.684316 
L 1882.937799 863.504163 
L 1893.617225 859.060078 
L 1904.296651 854.383957 
L 1917.645933 848.269046 
L 1933.665072 840.666345 
L 1979.052632 818.937511 
L 1992.401914 812.965653 
L 2003.08134 808.447461 
L 2013.760766 804.22165 
L 2021.770335 801.26974 
L 2029.779904 798.518647 
L 2037.789474 795.991115 
L 2045.799043 793.687228 
L 2053.808612 791.628368 
L 2061.818182 789.790312 
L 2069.827751 788.187863 
L 2077.837321 786.780487 
L 2088.516746 785.10521 
L 2109.875598 781.838907 
L 2117.885167 780.374745 
L 2125.894737 778.745219 
L 2133.904306 776.884767 
L 2144.583732 774.044542 
L 2152.593301 771.692936 
L 2160.602871 769.135052 
L 2168.61244 766.373754 
L 2176.62201 763.453375 
L 2187.301435 759.326233 
L 2200.650718 753.854393 
L 2214 748.155529 
L 2246.038278 733.954958 
L 2264.727273 725.643604 
L 2280.746411 718.628671 
L 2296.76555 711.781381 
L 2318.124402 702.909557 
L 2336.813397 695.360037 
L 2376.861244 679.827833 
L 2387.54067 675.791899 
L 2419.578947 663.815378 
L 2464.966507 647.141913 
L 2472.976077 644.3193 
L 2483.655502 640.524367 
L 2518.363636 628.327079 
L 2542.392344 619.946384 
L 2558.411483 614.268768 
L 2574.430622 608.375891 
L 2590.449761 602.276705 
L 2606.4689 595.861731 
L 2622.488038 589.157506 
L 2635.837321 583.348803 
L 2651.856459 576.146188 
L 2675.885167 565.030003 
L 2734.62201 537.572099 
L 2750.641148 530.318044 
L 2766.660287 523.278897 
L 2782.679426 516.503351 
L 2798.698565 510.003202 
L 2814.717703 503.799828 
L 2830.736842 497.875584 
L 2844.086124 493.158728 
L 2857.435407 488.649638 
L 2878.794258 481.903997 
L 2902.822967 475.120603 
L 2913.502392 472.382069 
L 2934.861244 467.592148 
L 2945.54067 465.551581 
L 2953.550239 464.16894 
L 2966.899522 462.110276 
L 2996.267943 457.923518 
L 3006.947368 456.180311 
L 3017.626794 454.196213 
L 3025.636364 452.524758 
L 3033.645933 450.679289 
L 3044.325359 447.985801 
L 3055.004785 445.039223 
L 3065.684211 441.847833 
L 3079.033493 437.58168 
L 3095.052632 432.15962 
L 3116.411483 424.671533 
L 3137.770335 417.185013 
L 3153.789474 411.801316 
L 3167.138756 407.561801 
L 3177.818182 404.368359 
L 3185.827751 402.128463 
L 3204.516746 397.415999 
L 3220.535885 394.010437 
L 3225.875598 392.921596 
L 3260.583732 386.998331 
L 3265.923445 386.011548 
L 3273.933014 384.557555 
L 3295.291866 379.791168 
L 3305.971292 376.940545 
L 3316.650718 373.734332 
L 3332.669856 368.383186 
L 3346.019139 363.46158 
L 3359.368421 358.216817 
L 3372.717703 352.716838 
L 3404.755981 338.957059 
L 3415.435407 334.314163 
L 3423.444976 330.927563 
L 3447.473684 320.958769 
L 3463.492823 314.616109 
L 3476.842105 309.475534 
L 3490.191388 304.475492 
L 3527.569378 290.950252 
L 3570.287081 275.969632 
L 3602.325359 264.950545 
L 3634.363636 254.204675 
L 3653.052632 248.201685 
L 3671.741627 242.407695 
L 3735.818182 223.323588 
L 3735.818182 223.323588 
" clip-path="url(#p0d2055e80e)" style="fill: none; stroke: #aa0000; stroke-width: 6; stroke-linecap: square"/>
   </g>
   <g id="line2d_23">
    <path d="M 692.181818 1210.581818 
L 710.870813 1204.620755 
L 732.229665 1197.541726 
L 785.626794 1179.624753 
L 801.645933 1174.558899 
L 817.665072 1169.751005 
L 833.684211 1165.201268 
L 852.373206 1160.150665 
L 908.440191 1145.437847 
L 943.148325 1136.370888 
L 961.837321 1131.718655 
L 980.526316 1127.30511 
L 1012.564593 1120.060355 
L 1033.923445 1115.102844 
L 1052.61244 1110.529254 
L 1100.669856 1098.549908 
L 1111.349282 1096.159882 
L 1122.028708 1093.992127 
L 1132.708134 1092.099066 
L 1140.717703 1090.885657 
L 1148.727273 1089.862954 
L 1156.736842 1089.033821 
L 1167.416268 1088.199764 
L 1188.77512 1086.769002 
L 1196.784689 1085.995396 
L 1204.794258 1085.011066 
L 1212.803828 1083.805825 
L 1220.813397 1082.381094 
L 1228.822967 1080.744935 
L 1236.832536 1078.909694 
L 1244.842105 1076.890658 
L 1255.521531 1073.942777 
L 1266.200957 1070.743132 
L 1279.550239 1066.458446 
L 1292.899522 1061.936098 
L 1311.588517 1055.346472 
L 1340.956938 1044.697225 
L 1381.004785 1029.931544 
L 1410.373206 1018.882493 
L 1445.08134 1005.566337 
L 1503.818182 982.993275 
L 1541.196172 968.913481 
L 1605.272727 945.069681 
L 1639.980861 932.319376 
L 1661.339713 924.687901 
L 1677.358852 919.16513 
L 1693.37799 913.887593 
L 1706.727273 909.726414 
L 1720.076555 905.819318 
L 1730.755981 902.895369 
L 1741.435407 900.158435 
L 1754.784689 896.99358 
L 1768.133971 894.075097 
L 1792.162679 889.141538 
L 1808.181818 885.737294 
L 1818.861244 883.26222 
L 1829.54067 880.550849 
L 1840.220096 877.562178 
L 1850.899522 874.272942 
L 1861.578947 870.675276 
L 1872.258373 866.774228 
L 1882.937799 862.585605 
L 1893.617225 858.134228 
L 1904.296651 853.452494 
L 1917.645933 847.335965 
L 1933.665072 839.724831 
L 1976.382775 819.263225 
L 1989.732057 813.22735 
L 2000.411483 808.650473 
L 2011.090909 804.352809 
L 2019.100478 801.340834 
L 2027.110048 798.529181 
L 2035.119617 795.93223 
L 2043.129187 793.560768 
L 2051.138756 791.420817 
L 2059.148325 789.511913 
L 2067.157895 787.82451 
L 2075.167464 786.336199 
L 2085.84689 784.589275 
L 2109.875598 780.841278 
L 2117.885167 779.384394 
L 2125.894737 777.740654 
L 2133.904306 775.888874 
L 2141.913876 773.821208 
L 2149.923445 771.539136 
L 2157.933014 769.050677 
L 2165.942584 766.368493 
L 2176.62201 762.518851 
L 2187.301435 758.397325 
L 2197.980861 754.05182 
L 2211.330144 748.37998 
L 2230.019139 740.157863 
L 2278.076555 718.852661 
L 2296.76555 710.855417 
L 2315.454545 703.091968 
L 2336.813397 694.487834 
L 2358.172249 686.120904 
L 2384.870813 675.910061 
L 2416.909091 663.909852 
L 2451.617225 651.15531 
L 2480.985646 640.589988 
L 2513.023923 629.321589 
L 2555.741627 614.325276 
L 2574.430622 607.48995 
L 2590.449761 601.372184 
L 2603.799043 596.056302 
L 2617.148325 590.532404 
L 2633.167464 583.639397 
L 2649.186603 576.493074 
L 2667.875598 567.910602 
L 2699.913876 552.885833 
L 2729.282297 539.180027 
L 2747.971292 530.679591 
L 2763.990431 523.608637 
L 2780.009569 516.780575 
L 2796.028708 510.224956 
L 2809.37799 504.982588 
L 2822.727273 499.9452 
L 2836.076555 495.113438 
L 2849.425837 490.487891 
L 2862.77512 486.072828 
L 2876.124402 481.879575 
L 2889.473684 477.928503 
L 2902.822967 474.248696 
L 2913.502392 471.523337 
L 2924.181818 469.011235 
L 2934.861244 466.726033 
L 2945.54067 464.67253 
L 2956.220096 462.839711 
L 2969.569378 460.801308 
L 3001.607656 456.104911 
L 3012.287081 454.249404 
L 3022.966507 452.135115 
L 3033.645933 449.73901 
L 3044.325359 447.060555 
L 3055.004785 444.115435 
L 3065.684211 440.930888 
L 3079.033493 436.667874 
L 3092.382775 432.166595 
L 3113.741627 424.687196 
L 3140.440191 415.343747 
L 3156.45933 409.995585 
L 3169.808612 405.800807 
L 3180.488038 402.66231 
L 3191.167464 399.74588 
L 3201.84689 397.070381 
L 3212.526316 394.643643 
L 3223.205742 392.456923 
L 3236.555024 390.007895 
L 3273.933014 383.47283 
L 3284.61244 381.24193 
L 3292.62201 379.375765 
L 3300.631579 377.329787 
L 3308.641148 375.099562 
L 3316.650718 372.686919 
L 3327.330144 369.198725 
L 3338.009569 365.425714 
L 3348.688995 361.403829 
L 3362.038278 356.090851 
L 3378.057416 349.414212 
L 3404.755981 337.951371 
L 3428.784689 327.705622 
L 3447.473684 319.986735 
L 3463.492823 313.603214 
L 3479.511962 307.440509 
L 3498.200957 300.50019 
L 3519.559809 292.82014 
L 3548.92823 282.513163 
L 3596.985646 265.897907 
L 3623.684211 256.8706 
L 3645.043062 249.884787 
L 3663.732057 243.995364 
L 3685.090909 237.498275 
L 3735.818182 222.218182 
L 3735.818182 222.218182 
" clip-path="url(#p0d2055e80e)" style="fill: none; stroke: #444444; stroke-width: 6; stroke-linecap: square"/>
   </g>
   <g id="line2d_24">
    <path d="M 692.181818 1210.581818 
L 710.870813 1204.731468 
L 721.550239 1201.341672 
L 726.889952 1199.448381 
L 729.559809 1198.706832 
L 750.91866 1191.503552 
L 774.947368 1183.440504 
L 793.636364 1177.415444 
L 812.325359 1171.723319 
L 828.344498 1167.056034 
L 852.373206 1160.535993 
L 959.167464 1132.738894 
L 977.856459 1128.302211 
L 999.215311 1123.456474 
L 1028.583732 1116.744154 
L 1047.272727 1112.230346 
L 1063.291866 1108.222531 
L 1081.980861 1103.470614 
L 1095.330144 1100.19004 
L 1108.679426 1097.127606 
L 1119.358852 1094.900887 
L 1130.038278 1092.936479 
L 1138.047847 1091.657536 
L 1146.057416 1090.573719 
L 1154.066986 1089.680121 
L 1164.746411 1088.802257 
L 1175.425837 1088.200127 
L 1188.77512 1087.45073 
L 1196.784689 1086.69476 
L 1199.454545 1086.466248 
L 1215.473684 1084.085847 
L 1223.483254 1082.588331 
L 1231.492823 1080.876186 
L 1242.172249 1078.310311 
L 1252.851675 1075.438343 
L 1263.5311 1072.286854 
L 1276.880383 1068.050408 
L 1292.899522 1062.651509 
L 1311.588517 1056.060482 
L 1340.956938 1045.412498 
L 1354.30622 1040.520306 
L 1372.995215 1033.637854 
L 1437.07177 1009.334255 
L 1477.119617 993.869636 
L 1554.545455 964.561331 
L 1650.660287 929.039864 
L 1672.019139 921.562583 
L 1690.708134 915.317045 
L 1704.057416 911.123435 
L 1717.406699 907.169976 
L 1728.086124 904.202605 
L 1738.76555 901.422998 
L 1749.444976 898.831714 
L 1770.803828 894.099376 
L 1784.15311 891.417468 
L 1786.822967 890.822514 
L 1789.492823 890.361571 
L 1794.832536 889.202176 
L 1797.502392 888.690593 
L 1800.172249 888.050388 
L 1808.181818 886.404251 
L 1810.851675 885.80894 
L 1813.521531 885.093932 
L 1816.191388 884.545201 
L 1821.5311 883.149524 
L 1826.870813 881.867579 
L 1845.559809 876.538218 
L 1853.569378 873.989094 
L 1864.248804 870.308669 
L 1872.258373 867.366531 
L 1880.267943 864.257665 
L 1890.947368 859.877731 
L 1904.296651 854.031741 
L 1912.30622 850.37882 
L 1925.655502 844.148837 
L 1930.995215 841.535575 
L 1941.674641 836.378496 
L 1949.684211 832.424105 
L 1960.363636 827.272305 
L 1965.703349 824.664237 
L 1984.392344 815.898893 
L 2003.08134 807.783431 
L 2013.760766 803.542607 
L 2027.110048 798.734355 
L 2037.789474 795.322551 
L 2045.799043 793.048536 
L 2056.478469 790.38841 
L 2069.827751 787.567369 
L 2083.177033 785.298393 
L 2085.84689 784.963294 
L 2091.186603 784.167775 
L 2104.535885 782.12386 
L 2109.875598 781.197749 
L 2120.555024 779.213075 
L 2128.564593 777.517376 
L 2139.244019 774.868214 
L 2147.253589 772.645805 
L 2155.263158 770.233008 
L 2163.272727 767.631471 
L 2173.952153 763.852936 
L 2184.631579 759.785417 
L 2195.311005 755.485 
L 2205.990431 750.997431 
L 2222.009569 744.012118 
L 2240.698565 735.677042 
L 2272.736842 721.431295 
L 2288.755981 714.499615 
L 2304.77512 707.7262 
L 2320.794258 701.131969 
L 2344.822967 691.533087 
L 2371.521531 681.18663 
L 2411.569378 666.090478 
L 2451.617225 651.348419 
L 2491.665072 637.02622 
L 2534.382775 622.114255 
L 2558.411483 613.60925 
L 2574.430622 607.73126 
L 2590.449761 601.606005 
L 2606.4689 595.190343 
L 2619.818182 589.612905 
L 2633.167464 583.839027 
L 2649.186603 576.676231 
L 2667.875598 568.093169 
L 2697.244019 554.327282 
L 2723.942584 541.817676 
L 2745.301435 532.063265 
L 2763.990431 523.810197 
L 2777.339713 518.104906 
L 2793.358852 511.496265 
L 2806.708134 506.208103 
L 2820.057416 501.110552 
L 2833.406699 496.228588 
L 2844.086124 492.468803 
L 2857.435407 487.971543 
L 2870.784689 483.677693 
L 2884.133971 479.641639 
L 2897.483254 475.862148 
L 2908.162679 473.032134 
L 2918.842105 470.410566 
L 2929.521531 468.016796 
L 2942.870813 465.340099 
L 2956.220096 463.030918 
L 2966.899522 461.395179 
L 2982.91866 459.139848 
L 2996.267943 457.222114 
L 3006.947368 455.500272 
L 3017.626794 453.528671 
L 3028.30622 451.262234 
L 3036.315789 449.39119 
L 3046.995215 446.640768 
L 3057.674641 443.628302 
L 3068.354067 440.38889 
L 3081.703349 436.072169 
L 3097.722488 430.60157 
L 3127.090909 420.272515 
L 3145.779904 413.830735 
L 3159.129187 409.43247 
L 3172.478469 405.296201 
L 3183.157895 402.213295 
L 3193.837321 399.355236 
L 3204.516746 396.743421 
L 3215.196172 394.382539 
L 3225.875598 392.267104 
L 3236.555024 390.345317 
L 3271.263158 384.457242 
L 3281.942584 382.300165 
L 3289.952153 380.486904 
L 3297.961722 378.501959 
L 3305.971292 376.324463 
L 3313.980861 373.960177 
L 3324.660287 370.544772 
L 3335.339713 366.815635 
L 3346.019139 362.851056 
L 3359.368421 357.607422 
L 3372.717703 352.100392 
L 3391.406699 344.099705 
L 3434.124402 325.797556 
L 3450.143541 319.238851 
L 3474.172249 309.79771 
L 3495.5311 301.797702 
L 3514.220096 295.026436 
L 3543.588517 284.660603 
L 3583.636364 270.779193 
L 3626.354067 256.25442 
L 3663.732057 244.260458 
L 3706.449761 231.393641 
L 3709.119617 230.68923 
L 3711.789474 229.690962 
L 3719.799043 227.549178 
L 3730.478469 224.513936 
L 3735.818182 222.846133 
L 3735.818182 222.846133 
" clip-path="url(#p0d2055e80e)" style="fill: none; stroke: #00aa00; stroke-width: 6; stroke-linecap: square"/>
   </g>
  </g>
 </g>
 <defs>
  <clipPath id="p0d2055e80e">
   <rect x="540" y="172.8" width="3348" height="1087.2"/>
  </clipPath>
 </defs>
</svg>
