<svg class="main-svg" xmlns="http://www.w3.org/2000/svg" xmlns:xlink="http://www.w3.org/1999/xlink" width="3500" height="1000" style="" viewBox="0 0 3500 1000"><rect x="0" y="0" width="3500" height="1000" style="fill: rgb(255, 255, 255); fill-opacity: 1;"/><defs id="defs-308040"><g class="clips"><clipPath id="clip308040xyplot" class="plotclip"><rect width="2582" height="796"/></clipPath><clipPath class="axesclip" id="clip308040x"><rect x="160" y="0" width="2582" height="1000"/></clipPath><clipPath class="axesclip" id="clip308040y"><rect x="0" y="100" width="3500" height="796"/></clipPath><clipPath class="axesclip" id="clip308040xy"><rect x="160" y="100" width="2582" height="796"/></clipPath></g><g class="gradients"/><g class="patterns"/></defs><g class="bglayer"><rect class="bg" x="160" y="100" width="2582" height="796" style="fill: rgb(229, 236, 246); fill-opacity: 1; stroke-width: 0;"/></g><g class="layer-below"><g class="imagelayer"/><g class="shapelayer"/></g><g class="cartesianlayer"><g class="subplot xy"><g class="layer-subplot"><g class="shapelayer"/><g class="imagelayer"/></g><g class="gridlayer"><g class="x"><path class="xgrid crisp" transform="translate(642.62,0)" d="M0,100v796" style="stroke: rgb(255, 255, 255); stroke-opacity: 1; stroke-width: 1px;"/><path class="xgrid crisp" transform="translate(1125.23,0)" d="M0,100v796" style="stroke: rgb(255, 255, 255); stroke-opacity: 1; stroke-width: 1px;"/><path class="xgrid crisp" transform="translate(1607.85,0)" d="M0,100v796" style="stroke: rgb(255, 255, 255); stroke-opacity: 1; stroke-width: 1px;"/><path class="xgrid crisp" transform="translate(2090.4700000000003,0)" d="M0,100v796" style="stroke: rgb(255, 255, 255); stroke-opacity: 1; stroke-width: 1px;"/><path class="xgrid crisp" transform="translate(2573.08,0)" d="M0,100v796" style="stroke: rgb(255, 255, 255); stroke-opacity: 1; stroke-width: 1px;"/></g><g class="y"><path class="ygrid crisp" transform="translate(0,827.83)" d="M160,0h2582" style="stroke: rgb(255, 255, 255); stroke-opacity: 1; stroke-width: 1px;"/><path class="ygrid crisp" transform="translate(0,746.68)" d="M160,0h2582" style="stroke: rgb(255, 255, 255); stroke-opacity: 1; stroke-width: 1px;"/><path class="ygrid crisp" transform="translate(0,665.54)" d="M160,0h2582" style="stroke: rgb(255, 255, 255); stroke-opacity: 1; stroke-width: 1px;"/><path class="ygrid crisp" transform="translate(0,584.39)" d="M160,0h2582" style="stroke: rgb(255, 255, 255); stroke-opacity: 1; stroke-width: 1px;"/><path class="ygrid crisp" transform="translate(0,422.1)" d="M160,0h2582" style="stroke: rgb(255, 255, 255); stroke-opacity: 1; stroke-width: 1px;"/><path class="ygrid crisp" transform="translate(0,340.96000000000004)" d="M160,0h2582" style="stroke: rgb(255, 255, 255); stroke-opacity: 1; stroke-width: 1px;"/><path class="ygrid crisp" transform="translate(0,259.81)" d="M160,0h2582" style="stroke: rgb(255, 255, 255); stroke-opacity: 1; stroke-width: 1px;"/><path class="ygrid crisp" transform="translate(0,178.66)" d="M160,0h2582" style="stroke: rgb(255, 255, 255); stroke-opacity: 1; stroke-width: 1px;"/></g></g><g class="zerolinelayer"><path class="xzl zl crisp" transform="translate(160,0)" d="M0,100v796" style="stroke: rgb(255, 255, 255); stroke-opacity: 1; stroke-width: 2px;"/><path class="yzl zl crisp" transform="translate(0,503.25)" d="M160,0h2582" style="stroke: rgb(255, 255, 255); stroke-opacity: 1; stroke-width: 2px;"/></g><path class="xlines-below"/><path class="ylines-below"/><g class="overlines-below"/><g class="xaxislayer-below"/><g class="yaxislayer-below"/><g class="overaxes-below"/><g class="plot" transform="translate(160,100)" clip-path="url(#clip308040xyplot)"><g class="scatterlayer mlayer"><g class="trace scatter trace7c75af" style="stroke-miterlimit: 2; opacity: 1;"><g class="fills"/><g class="errorbars"/><g class="lines"><path class="js-line" d="M0,135.64L4.83,136.69L7.24,138.99L9.65,137.78L12.07,140.67L14.48,144.59L16.89,150.79L24.13,164.19L26.54,168.87L38.61,196.44L41.02,203.82L53.09,239.55L55.5,245.77L72.39,280.45L74.81,284.29L79.63,290.56L82.04,292.98L86.87,296.66L89.28,297.86L94.11,299.68L96.52,299.77L101.35,298.95L103.76,297.89L108.59,294.76L111,292.95L115.83,287.72L118.24,284.98L123.07,277.98L125.48,274.44L132.72,261.9L135.13,257.79L144.79,239.08L147.2,235.07L152.02,225.4L154.44,220.6L164.09,206.04L166.5,203.4L173.74,195.58L176.16,194.07L180.98,192.1L183.39,191.67L190.63,192.89L193.05,194.1L197.87,198.69L200.29,201.51L207.53,212.77L209.94,217.43L217.18,233.99L219.59,240.29L231.66,276.18L234.07,283.96L263.03,375.69L265.44,382.49L279.92,419.89L282.33,425.66L325.77,528.69L328.18,535.2L347.48,591.17L349.9,598.41L366.79,646.54L369.2,652.69L378.85,674.58L381.27,679.31L390.92,694.95L393.33,698.01L400.57,705.04L402.99,706.65L410.22,709.29L412.64,709.45L417.46,708.68L419.88,707.78L427.12,703.06L429.53,700.84L436.77,691.96L439.18,688.46L441.59,687L444.01,682.53L451.25,670L453.66,664.74L458.49,656.17L460.9,651.14L470.55,628.85L472.96,623.42L480.2,605.08L482.62,599.5L513.99,528.99L516.4,524.42L530.88,495.67L533.29,491.65L550.18,463.59L552.6,458.78L574.31,422.04L576.73,417.43L581.55,408.81L583.97,403.04L588.79,394.09L591.21,387.39L598.44,367.13L600.86,359.41L608.1,337.67L610.51,327.11L620.16,281.4L622.58,271.73L627.4,236.1L629.81,222.82L634.64,196.51L637.05,177.75L644.29,136.58L646.71,129.58L651.53,106.95L653.95,95.08L658.77,82.14L661.19,76.8L666.01,60.49L668.42,55.87L670.84,51.5L673.25,49.54L675.66,46.47L678.08,45.29L682.9,47.9L685.32,50.8L687.73,50.49L690.14,54.32L694.97,64.72L697.38,73.62L699.79,77.3L702.21,85.11L707.03,102.39L709.45,115.7L711.86,120.48L714.27,130.76L723.93,172.18L726.34,179.82L738.4,231.39L740.82,237.88L748.06,257.62L750.47,262.89L757.71,278.2L760.12,282.19L764.95,290.25L767.36,293.1L779.43,303.26L781.84,304.81L791.49,308.77L793.9,309.23L803.56,310.11L805.97,309.88L815.62,308.46L818.04,307.99L822.86,306.74L825.27,305.72L834.93,302.07L837.34,301.09L842.17,299.21L844.58,297.48L849.41,296.35L851.82,294.96L868.71,288.6L871.12,288.3L878.36,287.04L880.78,286.52L885.6,286.1L888.01,286.44L895.25,287.34L897.67,287.62L914.56,295.17L916.97,297.05L926.62,304.77L929.04,307.4L936.28,313.9L938.69,316.04L945.93,324.52L948.34,324.63L953.17,330.99L955.58,337.66L957.99,341L960.41,347.52L965.23,352.9L967.65,353.9L996.6,396.21L999.02,400.48L1006.26,410.09L1008.67,415.23L1032.8,463.17L1035.21,469.56L1044.87,495.68L1047.28,501.17L1059.34,536.68L1061.76,541.6L1066.58,559.76L1069,566.92L1071.41,575.72L1073.82,579.77L1078.65,595.74L1081.06,601.64L1083.47,609.1L1085.89,612.8L1095.54,635.64L1097.95,638.8L1107.61,648.47L1110.02,649.33L1112.43,650.85L1114.84,650.95L1117.26,651.18L1119.67,650.23L1122.08,649.39L1124.5,647.37L1129.32,642.31L1131.74,639.15L1138.98,625.36L1141.39,619.54L1148.63,599.01L1151.04,590.36L1158.28,563.42L1160.69,552.54L1167.93,520.44L1170.35,508.41L1187.24,425.98L1189.65,414.05L1196.89,382.53L1199.3,368.34L1204.13,347.16L1206.54,339.92L1221.02,287.97L1223.43,281.94L1235.5,243.04L1237.91,238.54L1242.74,226.96L1245.15,221.5L1252.39,203.07L1254.8,200.21L1269.28,175.98L1271.7,174.63L1283.76,163.94L1286.17,161.93L1291,160.91L1293.41,160.47L1300.65,159.81L1303.07,160.23L1310.3,161.84L1312.72,162.97L1319.96,166.42L1322.37,167.41L1327.2,171.01L1329.61,172.02L1336.85,176.78L1339.26,178.07L1344.09,181.64L1346.5,182.52L1356.15,186.81L1358.57,187.34L1363.39,188.66L1365.81,188.77L1373.04,188.5L1375.46,187.47L1385.11,185.09L1387.52,183.27L1409.24,168.65L1411.65,167.43L1416.48,162.81L1418.89,161.41L1421.31,159.1L1423.72,158.33L1438.2,154.57L1440.61,154.3L1445.44,155.65L1447.85,156.55L1452.68,158.74L1455.09,160.45L1469.57,177.58L1471.98,182.55L1476.81,193.81L1479.22,200.97L1484.05,211.67L1486.46,218.53L1488.87,223.74L1491.29,233.68L1496.11,253.7L1498.53,266.81L1500.94,273.65L1503.35,283.61L1508.18,301.62L1510.59,316.93L1520.24,372.58L1522.66,384.65L1529.9,423.5L1532.31,438.25L1537.13,468.67L1539.55,476.46L1544.37,496.81L1546.79,503.27L1551.61,527.46L1554.03,537.75L1556.44,548.64L1558.85,553.5L1563.68,567.02L1566.09,570.56L1570.92,585.95L1573.33,591.36L1575.74,597.52L1578.16,600.13L1582.98,606.36L1585.4,608.17L1590.22,614.77L1592.64,616.1L1595.05,618L1597.46,618.42L1599.87,619.15L1602.29,618.68L1609.53,617.59L1611.94,615.55L1621.59,607.64L1624.01,603.76L1633.66,589.83L1636.07,586.32L1655.38,543.26L1657.79,536.29L1662.61,525.73L1665.03,520.1L1684.33,475.01L1686.75,470.42L1693.99,456.43L1696.4,451.55L1706.05,435L1708.46,431.75L1720.53,414.02L1722.94,411.15L1727.77,405.6L1730.18,402.16L1739.83,393.59L1742.25,391.79L1751.9,385.88L1754.31,384.82L1761.55,381.96L1763.96,381.65L1773.62,379.61L1776.03,379.55L1792.92,379.94L1795.33,380.27L1836.36,386.3L1838.77,386.14L1855.66,386.49L1858.07,386.09L1877.38,383.17L1879.79,382.23L1889.44,379.51L1891.86,378.44L1903.92,373.53L1906.34,372.02L1913.58,367.94L1915.99,366.43L1930.47,355.28L1932.88,352.2L1944.95,337.07L1947.36,333.64L1961.84,303.54L1964.25,297.54L1969.08,281.15L1971.49,273.59L1983.56,222.98L1985.97,212.44L1998.03,153.47L2000.45,142.1L2012.51,92.95L2014.93,86.78L2017.34,75.47L2019.75,72.49L2022.16,62.18L2024.58,59.64L2026.99,56.42L2029.4,50.45L2034.23,44.38L2036.64,44.12L2041.47,41.38L2043.88,44.86L2046.3,46.45L2048.71,50.59L2051.12,60.4L2053.53,59.04L2055.95,65.9L2058.36,76.7L2065.6,95.47L2068.01,103.04L2075.25,131.5L2077.67,142.71L2099.38,247.52L2101.8,257.16L2111.45,289.85L2113.86,296.66L2125.93,326.19L2128.34,330.92L2142.82,350.35L2145.23,352.33L2154.88,363.82L2157.3,365.86L2164.54,371.3L2166.95,373.83L2179.01,384.14L2181.43,385.79L2191.08,394.44L2193.49,396.84L2198.32,400.98L2200.73,403.23L2217.62,421.06L2220.04,424.44L2232.1,440.88L2234.52,446.17L2239.34,456.26L2241.76,460.94L2244.17,464.34L2246.58,470.04L2248.99,475.05L2251.41,483.39L2258.65,506.37L2261.06,511.17L2270.71,550.45L2273.13,562.03L2280.36,595.79L2282.78,608.39L2302.08,697.11L2304.5,705.54L2311.73,727.81L2314.15,732.63L2318.97,743.32L2321.39,745.07L2326.21,750.88L2328.63,752.63L2331.04,753.49L2333.45,753.26L2340.69,754.09L2343.1,749.26L2347.93,740.06L2350.34,737.09L2355.17,727.17L2357.58,719.91L2360,716.63L2362.41,707.6L2367.24,684.48L2369.65,672.19L2376.89,644.62L2379.3,633.65L2386.54,589.55L2388.95,582.42L2391.37,574.01L2393.78,561.36L2398.61,536.12L2401.02,530.2L2403.43,523.74L2405.84,514.05L2413.08,490.99L2415.5,485.26L2420.32,473.35L2422.74,468.61L2427.56,459.62L2429.98,454.86L2434.8,446.23L2437.21,443.12L2439.63,440.19L2442.04,434.97L2446.87,428.73L2449.28,425.89L2451.69,423.49L2454.11,419.22L2463.76,406.93L2466.17,404.56L2473.41,393.46L2475.82,389.91L2487.89,369.92L2490.3,365.35L2499.96,344.6L2502.37,338.71L2512.02,312.09L2514.43,304.66L2524.09,268.71L2526.5,261.26L2538.56,219.75L2540.98,210.64L2545.8,193.97L2548.22,187.68L2562.7,150.77L2565.11,148.14L2569.93,138.81L2572.35,134.57L2574.76,138.41L2577.17,136.88L2582,135.13" style="vector-effect: non-scaling-stroke; fill: none; stroke: rgb(170, 0, 0); stroke-opacity: 1; stroke-width: 4px; opacity: 1;"/></g><g class="points"/><g class="text"/></g><g class="trace scatter trace55e835" style="stroke-miterlimit: 2; opacity: 1;"><g class="fills"/><g class="errorbars"/><g class="lines"><path class="js-line" d="M0,135.03L2.41,135.58L4.83,137.49L7.24,137.25L9.65,139.51L12.07,141.58L14.48,146.06L16.89,148.64L19.3,152.96L28.96,172.43L31.37,179.14L36.2,191.6L38.61,199.45L43.44,210.29L45.85,216.39L57.91,251.23L60.33,257.15L67.57,272.31L69.98,275.24L74.81,285.78L77.22,287.84L82.04,294.29L84.46,295.32L89.28,299.26L91.7,299.2L96.52,300.79L98.94,299.59L106.18,297.21L108.59,294.94L113.41,291.79L115.83,287.85L120.65,283.08L123.07,278.01L127.89,270.53L130.31,265.38L135.13,258.18L137.55,253.93L144.79,237.47L147.2,234.39L159.26,212.74L161.68,209.18L171.33,196.31L173.74,195.59L178.57,193L180.98,192.02L188.22,191.88L190.63,193.9L197.87,198.52L200.29,200.86L214.76,228.71L217.18,234.2L234.07,283.48L236.48,291.82L250.96,339.61L253.37,349.41L265.44,382.18L267.85,389.28L277.5,413.32L279.92,418.56L289.57,442.83L291.98,449.57L296.81,457.74L299.22,463.27L311.29,493.97L313.7,498.02L318.53,510.02L320.94,519.14L323.35,523.94L325.77,532.21L330.59,544.54L333.01,551.69L337.83,564.44L340.24,570.67L345.07,585L347.48,592.45L352.31,606.88L354.72,614.25L359.55,628.13L361.96,635.25L366.79,647.92L369.2,654.6L374.03,665.63L376.44,671.58L381.27,680.79L383.68,685.68L388.51,692.98L390.92,696.63L402.99,707.67L405.4,708.9L412.64,710.35L415.05,709.99L422.29,708.15L424.7,705.86L427.12,704.83L429.53,702.23L436.77,694.15L439.18,691.28L453.66,665.61L456.07,659.82L460.9,651.86L463.31,646.83L487.44,589.31L489.86,584.28L501.92,554.89L504.33,549.15L533.29,491.74L535.7,488.51L555.01,455.12L557.42,452.23L581.55,408.48L583.97,402.59L586.38,398.87L588.79,392.05L593.62,380.34L596.03,372.8L598.44,367.93L600.86,360.2L603.27,353.51L605.68,343.01L610.51,322.03L612.92,312.51L615.34,305.02L617.75,290.78L629.81,226.7L632.23,213.95L639.47,164.41L641.88,152.27L644.29,145.17L646.71,131.15L649.12,121.88L651.53,108.01L656.36,87.08L658.77,82.18L663.6,67.4L666.01,63.92L670.84,52.25L673.25,50.02L675.66,46.18L678.08,45.6L682.9,47.9L685.32,50.8L687.73,50.49L690.14,54.29L694.97,63.75L697.38,71.91L702.21,84.66L704.62,92.76L709.45,113.24L711.86,122.83L719.1,149.08L721.51,158.26L735.99,220.45L738.4,229.26L748.06,258.18L750.47,264.14L757.71,278.91L760.12,283.03L767.36,293.02L769.77,295.71L774.6,300.1L777.01,301.06L786.67,307.24L789.08,308.11L798.73,310.03L801.14,310.17L810.8,309.55L813.21,309.14L827.69,305.44L830.1,304.14L834.93,303.11L837.34,301.19L839.75,299.74L842.17,299.52L868.71,288.41L871.12,287.73L883.19,285.73L885.6,285.65L890.43,287.03L892.84,286.14L895.25,285.87L897.67,286.78L902.49,289.95L904.91,289.6L907.32,289.84L909.73,292.47L916.97,296.64L919.39,297.53L926.62,305.27L929.04,306.55L931.45,308.02L933.86,311.49L938.69,317.7L941.1,319.77L955.58,337.61L957.99,340.75L967.65,354.46L970.06,356.81L977.3,366.86L979.71,370.98L986.95,382.38L989.36,385.87L991.78,388.48L994.19,392.79L1008.67,416.34L1011.08,421.05L1015.91,430.17L1018.32,434.07L1023.15,441.93L1025.56,448.08L1040.04,481.72L1042.45,486.22L1052.1,518.39L1054.52,523.4L1059.34,538.13L1061.76,543.98L1069,566.33L1071.41,573.66L1085.89,616.79L1088.3,620.35L1093.13,628.85L1095.54,632.21L1100.37,641.43L1102.78,643.73L1110.02,650.27L1112.43,651.11L1122.08,649.71L1124.5,648.03L1134.15,635.58L1136.56,631.25L1148.63,601.64L1151.04,591.33L1158.28,561.37L1160.69,554.19L1165.52,534.84L1167.93,520.85L1172.76,494.76L1175.17,483.09L1177.59,475.1L1180,463.55L1184.82,440.72L1187.24,425.64L1201.72,358.09L1204.13,351.36L1216.19,304.42L1218.61,295.94L1233.09,250.8L1235.5,246.02L1247.56,215.04L1249.98,209.92L1259.63,189.55L1262.04,187.03L1269.28,177.59L1271.7,175.26L1278.93,167.47L1281.35,165.84L1288.59,161.5L1291,160.15L1295.83,160.06L1298.24,159.9L1303.07,160.03L1305.48,160.32L1317.54,164.73L1319.96,166.81L1332.02,173.27L1334.44,175.51L1346.5,182.52L1348.91,183.41L1358.57,187.55L1360.98,187.53L1365.81,189L1368.22,189.02L1375.46,187.98L1377.87,186.44L1380.28,186.59L1382.7,185.67L1387.52,183.25L1389.94,182.33L1397.18,176.64L1399.59,174.23L1404.41,171.74L1406.83,170.54L1416.48,161.95L1418.89,161.34L1430.96,156L1433.37,155.38L1438.2,153.9L1440.61,154.77L1450.26,157.15L1452.68,158.74L1462.33,168.8L1464.74,172.2L1469.57,177.71L1471.98,181.82L1476.81,193.35L1479.22,199.86L1493.7,240.45L1496.11,250.85L1515.42,339.67L1517.83,357.31L1522.66,387.58L1525.07,401.3L1527.48,409.48L1529.9,425.63L1537.13,465.92L1539.55,472.93L1554.03,540.34L1556.44,545.54L1561.27,559.99L1563.68,563.81L1568.5,580.32L1570.92,586.32L1573.33,593.05L1575.74,595.92L1580.57,603L1582.98,605.02L1587.81,612.67L1590.22,614.45L1592.64,616.86L1595.05,617.55L1597.46,618.9L1599.87,618.97L1607.11,618.21L1609.53,617.16L1616.77,612.34L1619.18,609.7L1626.42,600.79L1628.83,597.21L1633.66,589.25L1636.07,584.76L1640.9,575.47L1643.31,570.22L1648.14,559.94L1650.55,554.12L1655.38,543.24L1657.79,537.06L1662.61,525.94L1665.03,519.65L1669.85,508.61L1672.27,502.43L1677.09,491.73L1679.51,485.84L1684.33,475.68L1686.75,470.18L1691.57,460.71L1693.99,455.67L1698.81,446.98L1701.22,442.42L1703.64,439.13L1706.05,434.11L1710.88,426.52L1713.29,423.01L1722.94,410.86L1725.36,408.69L1730.18,403.02L1732.59,399.97L1747.07,389.17L1749.49,388L1766.38,381.18L1768.79,380.73L1776.03,379.82L1778.44,379.3L1785.68,379.5L1788.1,379.64L1797.75,380.54L1800.16,381.05L1814.64,383.43L1817.05,383.69L1841.18,386.47L1843.6,386.26L1855.66,386.28L1858.07,386.07L1870.14,384.49L1872.55,383.81L1891.86,378.33L1894.27,377.53L1915.99,366.07L1918.4,364.43L1923.23,360.47L1925.64,358.75L1932.88,351.44L1935.29,349.22L1947.36,333.36L1949.77,328.63L1957.01,314.18L1959.42,308.56L1966.66,288.8L1969.08,281.14L1976.32,254.58L1978.73,244.49L1988.38,198.58L1990.79,184.28L1993.21,175.1L1995.62,160.75L1998.03,152.61L2000.45,140.55L2005.27,117.58L2007.69,112.27L2014.93,84.91L2017.34,78.79L2019.75,68.23L2022.16,64.1L2024.58,61.98L2026.99,54.6L2029.4,47.5L2031.82,51.39L2034.23,43.36L2036.64,39.8L2039.06,46.84L2041.47,43.18L2043.88,44.86L2046.3,49.27L2051.12,60.4L2053.53,59.04L2055.95,65.9L2058.36,76.7L2065.6,95.47L2068.01,103.04L2075.25,131.5L2077.67,142.71L2099.38,247.52L2101.8,257.16L2109.04,285.73L2111.45,289.85L2123.51,320.45L2125.93,325.49L2130.75,331L2133.17,335.95L2137.99,343.42L2140.41,346.63L2150.06,357.99L2152.47,360.32L2164.54,371.82L2166.95,373.7L2179.01,384.07L2181.43,385.82L2195.91,399.32L2198.32,400.25L2203.15,405.33L2205.56,408.29L2222.45,426.5L2224.86,431.6L2232.1,441.93L2234.52,445.52L2239.34,454.49L2241.76,459.89L2251.41,484.38L2253.82,488.51L2270.71,550.34L2273.13,557.24L2282.78,613.84L2285.19,622.08L2290.02,646L2292.43,654.57L2297.26,676.51L2299.67,683.39L2304.5,701.66L2306.91,707.94L2311.73,724.66L2314.15,730.7L2321.39,745.84L2323.8,749.54L2328.63,754.49L2331.04,755.74L2333.45,756.2L2335.87,752.63L2338.28,749.3L2340.69,748.48L2343.1,747.16L2345.52,742.83L2347.93,741.95L2350.34,738.26L2355.17,729.87L2357.58,721.35L2362.41,705.32L2364.82,693.07L2369.65,676.76L2372.06,665.65L2376.89,644.92L2379.3,632.08L2381.71,623.45L2384.13,608.69L2393.78,559.09L2396.19,550.01L2413.08,490.67L2415.5,484.79L2425.15,464.57L2427.56,460.73L2432.39,450.68L2434.8,446.42L2439.63,438.76L2442.04,435.24L2449.28,425.59L2451.69,422.83L2468.59,400.36L2471,396.34L2480.65,382.63L2483.06,378.4L2490.3,365.27L2492.72,360.77L2502.37,338.9L2504.78,332.25L2514.43,304.54L2516.85,297.2L2545.8,195.52L2548.22,187.66L2555.46,168.01L2557.87,162.08L2569.93,141.82L2572.35,138.67L2574.76,136.99L2577.17,136.93L2579.59,135.1L2582,134.93" style="vector-effect: non-scaling-stroke; fill: none; stroke: rgb(0, 170, 0); stroke-opacity: 1; stroke-width: 4px; opacity: 1;"/></g><g class="points"/><g class="text"/></g></g></g><g class="overplot"/><path class="xlines-above crisp" d="M0,0" style="fill: none;"/><path class="ylines-above crisp" d="M0,0" style="fill: none;"/><g class="overlines-above"/><g class="xaxislayer-above"><g class="xtick"><text text-anchor="middle" x="0" y="934" transform="translate(160,0)" style="font-family: 'Open Sans', verdana, arial, sans-serif; font-size: 37px; fill: rgb(42, 63, 95); fill-opacity: 1; white-space: pre; opacity: 1;">0</text></g><g class="xtick"><text text-anchor="middle" x="0" y="934" style="font-family: 'Open Sans', verdana, arial, sans-serif; font-size: 37px; fill: rgb(42, 63, 95); fill-opacity: 1; white-space: pre; opacity: 1;" transform="translate(642.62,0)">200</text></g><g class="xtick"><text text-anchor="middle" x="0" y="934" style="font-family: 'Open Sans', verdana, arial, sans-serif; font-size: 37px; fill: rgb(42, 63, 95); fill-opacity: 1; white-space: pre; opacity: 1;" transform="translate(1125.23,0)">400</text></g><g class="xtick"><text text-anchor="middle" x="0" y="934" style="font-family: 'Open Sans', verdana, arial, sans-serif; font-size: 37px; fill: rgb(42, 63, 95); fill-opacity: 1; white-space: pre; opacity: 1;" transform="translate(1607.85,0)">600</text></g><g class="xtick"><text text-anchor="middle" x="0" y="934" style="font-family: 'Open Sans', verdana, arial, sans-serif; font-size: 37px; fill: rgb(42, 63, 95); fill-opacity: 1; white-space: pre; opacity: 1;" transform="translate(2090.4700000000003,0)">800</text></g><g class="xtick"><text text-anchor="middle" x="0" y="934" style="font-family: 'Open Sans', verdana, arial, sans-serif; font-size: 37px; fill: rgb(42, 63, 95); fill-opacity: 1; white-space: pre; opacity: 1;" transform="translate(2573.08,0)">1000</text></g></g><g class="yaxislayer-above"><g class="ytick"><text text-anchor="end" x="159" y="12.95" transform="translate(0,827.83)" style="font-family: 'Open Sans', verdana, arial, sans-serif; font-size: 37px; fill: rgb(42, 63, 95); fill-opacity: 1; white-space: pre; opacity: 1;">−200</text></g><g class="ytick"><text text-anchor="end" x="159" y="12.95" style="font-family: 'Open Sans', verdana, arial, sans-serif; font-size: 37px; fill: rgb(42, 63, 95); fill-opacity: 1; white-space: pre; opacity: 1;" transform="translate(0,746.68)">−150</text></g><g class="ytick"><text text-anchor="end" x="159" y="12.95" style="font-family: 'Open Sans', verdana, arial, sans-serif; font-size: 37px; fill: rgb(42, 63, 95); fill-opacity: 1; white-space: pre; opacity: 1;" transform="translate(0,665.54)">−100</text></g><g class="ytick"><text text-anchor="end" x="159" y="12.95" style="font-family: 'Open Sans', verdana, arial, sans-serif; font-size: 37px; fill: rgb(42, 63, 95); fill-opacity: 1; white-space: pre; opacity: 1;" transform="translate(0,584.39)">−50</text></g><g class="ytick"><text text-anchor="end" x="159" y="12.95" style="font-family: 'Open Sans', verdana, arial, sans-serif; font-size: 37px; fill: rgb(42, 63, 95); fill-opacity: 1; white-space: pre; opacity: 1;" transform="translate(0,503.25)">0</text></g><g class="ytick"><text text-anchor="end" x="159" y="12.95" style="font-family: 'Open Sans', verdana, arial, sans-serif; font-size: 37px; fill: rgb(42, 63, 95); fill-opacity: 1; white-space: pre; opacity: 1;" transform="translate(0,422.1)">50</text></g><g class="ytick"><text text-anchor="end" x="159" y="12.95" style="font-family: 'Open Sans', verdana, arial, sans-serif; font-size: 37px; fill: rgb(42, 63, 95); fill-opacity: 1; white-space: pre; opacity: 1;" transform="translate(0,340.96000000000004)">100</text></g><g class="ytick"><text text-anchor="end" x="159" y="12.95" style="font-family: 'Open Sans', verdana, arial, sans-serif; font-size: 37px; fill: rgb(42, 63, 95); fill-opacity: 1; white-space: pre; opacity: 1;" transform="translate(0,259.81)">150</text></g><g class="ytick"><text text-anchor="end" x="159" y="12.95" style="font-family: 'Open Sans', verdana, arial, sans-serif; font-size: 37px; fill: rgb(42, 63, 95); fill-opacity: 1; white-space: pre; opacity: 1;" transform="translate(0,178.66)">200</text></g></g><g class="overaxes-above"/></g></g><g class="polarlayer"/><g class="ternarylayer"/><g class="geolayer"/><g class="funnelarealayer"/><g class="pielayer"/><g class="iciclelayer"/><g class="treemaplayer"/><g class="sunburstlayer"/><g class="glimages"/><defs id="topdefs-308040"><g class="clips"/><clipPath id="legend308040"><rect width="694" height="113" x="0" y="0"/></clipPath></defs><g class="layer-above"><g class="imagelayer"/><g class="shapelayer"/></g><g class="infolayer"><g class="legend" pointer-events="all" transform="translate(2793.64,100)"><rect class="bg" shape-rendering="crispEdges" width="694" height="113" x="0" y="0" style="stroke: rgb(68, 68, 68); stroke-opacity: 1; fill: rgb(255, 255, 255); fill-opacity: 1; stroke-width: 0px;"/><g class="scrollbox" transform="" clip-path="url(#legend308040)"><g class="groups"><g class="traces" transform="translate(0,30.55)" style="opacity: 1;"><text class="legendtext" text-anchor="start" x="40" y="14.43" style="font-family: 'Open Sans', verdana, arial, sans-serif; font-size: 37px; fill: rgb(42, 63, 95); fill-opacity: 1; white-space: pre;">Predicted Curvature at Anchors #1</text><g class="layers" style="opacity: 1;"><g class="legendfill"/><g class="legendlines"><path class="js-line" d="M5,0h30" style="fill: none; stroke: rgb(170, 0, 0); stroke-opacity: 1; stroke-width: 4px;"/></g><g class="legendsymbols"><g class="legendpoints"/></g></g><rect class="legendtoggle" x="0" y="-25.55" width="688.125" height="51.1" style="fill: rgb(0, 0, 0); fill-opacity: 0;"/></g><g class="traces" transform="translate(0,81.65)" style="opacity: 1;"><text class="legendtext" text-anchor="start" x="40" y="14.43" style="font-family: 'Open Sans', verdana, arial, sans-serif; font-size: 37px; fill: rgb(42, 63, 95); fill-opacity: 1; white-space: pre;">Predicted Curvature at Anchors #2</text><g class="layers" style="opacity: 1;"><g class="legendfill"/><g class="legendlines"><path class="js-line" d="M5,0h30" style="fill: none; stroke: rgb(0, 170, 0); stroke-opacity: 1; stroke-width: 4px;"/></g><g class="legendsymbols"><g class="legendpoints"/></g></g><rect class="legendtoggle" x="0" y="-25.55" width="688.125" height="51.1" style="fill: rgb(0, 0, 0); fill-opacity: 0;"/></g></g></g><rect class="scrollbar" rx="20" ry="3" width="0" height="0" x="0" y="0" style="fill: rgb(128, 139, 164); fill-opacity: 1;"/></g><g class="g-gtitle"/><g class="g-xtitle"><text class="xtitle" x="1451" y="987.8" text-anchor="middle" style="font-family: 'Open Sans', verdana, arial, sans-serif; font-size: 44px; fill: rgb(42, 63, 95); opacity: 1; font-weight: normal; white-space: pre;">Anchor Point Index</text></g><g class="g-ytitle" transform="translate(31.6591796875,0)"><text class="ytitle" transform="rotate(-90,12.340624999999989,498)" x="12.340624999999989" y="498" text-anchor="middle" style="font-family: 'Open Sans', verdana, arial, sans-serif; font-size: 44px; fill: rgb(42, 63, 95); opacity: 1; font-weight: normal; white-space: pre;">Predicted Curvature</text></g><g class="annotation" data-index="0" style="opacity: 1;"><g class="annotation-text-g" transform="rotate(0,1451,66.49999999999993)"><g class="cursor-pointer" transform="translate(234,33)"><rect class="bg" x="0.5" y="0.5" width="2433" height="66" style="stroke-width: 1px; stroke: rgb(0, 0, 0); stroke-opacity: 0; fill: rgb(0, 0, 0); fill-opacity: 0;"/><text class="annotation-text" text-anchor="middle" x="1217.03125" y="54" style="font-family: 'Open Sans', verdana, arial, sans-serif; font-size: 52px; fill: rgb(42, 63, 95); fill-opacity: 1; white-space: pre;"><tspan style="font-weight:bold">Predicted Curvature at Anchors (Transformed Curve #1 vs. Transformed Curve #2)</tspan></text></g></g></g></g></svg>