<svg class="main-svg" xmlns="http://www.w3.org/2000/svg" xmlns:xlink="http://www.w3.org/1999/xlink" width="3500" height="1000" style="" viewBox="0 0 3500 1000"><rect x="0" y="0" width="3500" height="1000" style="fill: rgb(255, 255, 255); fill-opacity: 1;"/><defs id="defs-152b41"><g class="clips"><clipPath id="clip152b41xyplot" class="plotclip"><rect width="2582" height="796"/></clipPath><clipPath class="axesclip" id="clip152b41x"><rect x="160" y="0" width="2582" height="1000"/></clipPath><clipPath class="axesclip" id="clip152b41y"><rect x="0" y="100" width="3500" height="796"/></clipPath><clipPath class="axesclip" id="clip152b41xy"><rect x="160" y="100" width="2582" height="796"/></clipPath></g><g class="gradients"/><g class="patterns"/></defs><g class="bglayer"><rect class="bg" x="160" y="100" width="2582" height="796" style="fill: rgb(229, 236, 246); fill-opacity: 1; stroke-width: 0;"/></g><g class="layer-below"><g class="imagelayer"/><g class="shapelayer"/></g><g class="cartesianlayer"><g class="subplot xy"><g class="layer-subplot"><g class="shapelayer"/><g class="imagelayer"/></g><g class="gridlayer"><g class="x"><path class="xgrid crisp" transform="translate(612.98,0)" d="M0,100v796" style="stroke: rgb(255, 255, 255); stroke-opacity: 1; stroke-width: 1px;"/><path class="xgrid crisp" transform="translate(1065.96,0)" d="M0,100v796" style="stroke: rgb(255, 255, 255); stroke-opacity: 1; stroke-width: 1px;"/><path class="xgrid crisp" transform="translate(1518.95,0)" d="M0,100v796" style="stroke: rgb(255, 255, 255); stroke-opacity: 1; stroke-width: 1px;"/><path class="xgrid crisp" transform="translate(1971.93,0)" d="M0,100v796" style="stroke: rgb(255, 255, 255); stroke-opacity: 1; stroke-width: 1px;"/><path class="xgrid crisp" transform="translate(2424.91,0)" d="M0,100v796" style="stroke: rgb(255, 255, 255); stroke-opacity: 1; stroke-width: 1px;"/></g><g class="y"><path class="ygrid crisp" transform="translate(0,830.29)" d="M160,0h2582" style="stroke: rgb(255, 255, 255); stroke-opacity: 1; stroke-width: 1px;"/><path class="ygrid crisp" transform="translate(0,750.54)" d="M160,0h2582" style="stroke: rgb(255, 255, 255); stroke-opacity: 1; stroke-width: 1px;"/><path class="ygrid crisp" transform="translate(0,670.79)" d="M160,0h2582" style="stroke: rgb(255, 255, 255); stroke-opacity: 1; stroke-width: 1px;"/><path class="ygrid crisp" transform="translate(0,591.05)" d="M160,0h2582" style="stroke: rgb(255, 255, 255); stroke-opacity: 1; stroke-width: 1px;"/><path class="ygrid crisp" transform="translate(0,431.55)" d="M160,0h2582" style="stroke: rgb(255, 255, 255); stroke-opacity: 1; stroke-width: 1px;"/><path class="ygrid crisp" transform="translate(0,351.8)" d="M160,0h2582" style="stroke: rgb(255, 255, 255); stroke-opacity: 1; stroke-width: 1px;"/><path class="ygrid crisp" transform="translate(0,272.06)" d="M160,0h2582" style="stroke: rgb(255, 255, 255); stroke-opacity: 1; stroke-width: 1px;"/><path class="ygrid crisp" transform="translate(0,192.31)" d="M160,0h2582" style="stroke: rgb(255, 255, 255); stroke-opacity: 1; stroke-width: 1px;"/><path class="ygrid crisp" transform="translate(0,112.56)" d="M160,0h2582" style="stroke: rgb(255, 255, 255); stroke-opacity: 1; stroke-width: 1px;"/></g></g><g class="zerolinelayer"><path class="xzl zl crisp" transform="translate(160,0)" d="M0,100v796" style="stroke: rgb(255, 255, 255); stroke-opacity: 1; stroke-width: 2px;"/><path class="yzl zl crisp" transform="translate(0,511.3)" d="M160,0h2582" style="stroke: rgb(255, 255, 255); stroke-opacity: 1; stroke-width: 2px;"/></g><path class="xlines-below"/><path class="ylines-below"/><g class="overlines-below"/><g class="xaxislayer-below"/><g class="yaxislayer-below"/><g class="overaxes-below"/><g class="plot" transform="translate(160,100)" clip-path="url(#clip152b41xyplot)"><g class="scatterlayer mlayer"><g class="trace scatter trace74501b" style="stroke-miterlimit: 2; opacity: 1;"><g class="fills"/><g class="errorbars"/><g class="lines"><path class="js-line" d="M0,215.24L18.12,238.63L20.38,241.43L27.18,249.33L29.44,251.41L38.5,260.43L40.77,261.94L45.3,264.82L47.56,265.53L52.09,266.08L54.36,266.21L63.42,263.82L65.68,262.72L74.74,255.13L77.01,252.99L81.54,246.68L83.8,243.14L113.25,199.57L115.51,197.37L124.57,189.55L126.84,187.89L131.36,185.93L133.63,185.59L138.16,185.68L140.42,186.52L147.22,190.6L149.48,193.1L154.01,197.77L156.28,201.67L163.07,217.6L165.34,223.23L169.87,233.11L172.13,244.39L176.66,265.59L178.93,271.61L181.19,283.2L183.46,302.5L190.25,350.91L192.52,368.42L197.05,396.04L199.31,412.61L206.11,484.06L208.37,490.3L212.9,535.58L215.17,551.81L221.96,590.89L224.23,603.18L231.02,633.6L233.29,641.79L240.08,662.22L242.35,667.71L249.14,680.27L251.41,683.59L255.94,688.13L258.2,689.89L262.73,689.7L264.99,692.06L269.52,690.75L271.79,687.6L274.05,684.84L276.32,685.64L280.85,680.42L283.11,676.11L287.64,671.19L289.91,662.85L292.17,655.49L294.44,654.59L296.7,651.52L298.97,640.31L301.23,631.18L303.5,627.92L305.76,625.54L308.03,617.02L312.56,595.1L314.82,586.14L328.41,527.74L330.68,517.28L342,460.57L344.27,448.02L353.33,391.7L355.59,375.73L364.65,302.64L366.92,282.05L378.24,171.41L380.51,129L385.04,111.91L387.3,94.34L389.56,90.56L391.83,78.01L394.09,68.06L396.36,68.24L400.89,50.27L403.15,56.35L407.68,43.01L409.95,40.9L412.21,51.26L414.48,44.81L416.74,45.36L419.01,62.34L421.27,62.71L423.54,66.4L425.8,79.14L428.07,81.83L432.6,108.01L434.86,116.8L437.13,123.24L439.39,148.19L443.92,197.22L446.19,202.97L448.45,225.54L450.72,262.54L459.78,336.6L462.04,352.03L468.84,391.31L471.1,402.33L480.16,438.33L482.43,445.71L491.49,470.74L493.75,476.12L502.81,497.2L505.08,499.51L511.87,512.26L514.14,515.73L518.66,521.25L520.93,526.29L532.25,540.04L534.52,541.76L536.78,545.55L539.05,547.13L541.31,550.13L543.58,550.75L548.11,553.92L550.37,555.78L563.96,559.15L566.23,558.41L568.49,558.49L570.76,557.29L573.02,556.9L575.29,555.24L579.82,552.44L582.08,550.56L593.41,539.29L595.67,535.02L611.53,510.42L613.79,505.03L620.59,489.81L622.85,486.34L631.91,468.41L634.18,463.52L654.56,421.79L656.82,417.94L665.88,403.91L668.15,399.32L677.21,386.16L679.47,383.17L690.8,372.53L693.06,370.54L699.86,366.45L702.12,365.35L713.45,363.13L715.71,363.07L724.77,365.07L727.04,365.88L736.1,370.67L738.36,372.21L749.69,381.38L751.95,383.54L770.07,402.64L772.34,405.28L790.45,427.11L792.72,430.57L804.04,443.49L806.31,446.54L808.57,448.65L810.84,452.6L824.43,472.94L826.69,475.3L835.75,495.39L838.02,498.52L844.81,510.65L847.08,518.31L860.67,555.09L862.93,564.83L867.46,581.99L869.73,589.45L871.99,593.68L874.26,602.86L878.79,620.84L881.05,631.99L901.44,692.9L903.7,698.31L910.49,711.77L912.76,715.66L917.29,721.85L919.55,722.06L924.08,725.95L926.35,726.39L928.61,728.38L930.88,727.29L935.41,725.54L937.67,721.07L939.94,723.56L942.2,718.61L946.73,709.98L949,710.14L951.26,704.33L953.53,695.48L958.06,685.1L960.32,681.85L964.85,663.8L967.12,652.02L971.65,637.96L973.91,632.18L978.44,609.08L980.71,595.35L985.24,579.44L987.5,573.45L998.83,524.01L1001.09,518.06L1005.62,506.22L1007.89,497.16L1016.95,474.27L1019.21,469.33L1028.27,452.14L1030.54,449.21L1035.06,441.42L1037.33,438.18L1048.65,423.72L1050.92,421.35L1053.18,419.13L1055.45,415.48L1062.24,408.92L1064.51,406.17L1075.83,393.95L1078.1,391.03L1084.89,382.27L1087.16,379.04L1089.42,377.2L1091.69,373.94L1098.48,361.27L1100.75,358.44L1107.54,345.03L1109.81,338.39L1123.4,300.33L1125.66,289.92L1136.99,242.42L1139.25,233.43L1152.84,166.24L1155.11,155.59L1164.16,121.42L1166.43,115.41L1173.22,92.36L1175.49,87.95L1177.75,87.58L1180.02,82.61L1182.28,82.05L1184.55,78.73L1186.81,79.21L1189.08,77.66L1191.34,79.68L1193.61,79.58L1195.87,83.4L1198.14,84.49L1200.4,89.69L1202.67,89.94L1204.93,93.47L1207.2,101.71L1213.99,123.61L1216.26,129.72L1232.11,192.32L1234.38,202.41L1245.7,244.7L1247.97,250.65L1254.76,274.65L1257.03,279.18L1266.09,297.01L1268.35,300.79L1277.41,312.22L1279.68,314.22L1286.47,319.58L1288.74,320.71L1295.53,323.9L1297.79,324.39L1304.59,325.99L1306.85,326.05L1315.91,326.43L1318.18,326.19L1349.89,324.19L1352.15,324.25L1363.48,326.13L1365.74,327.04L1370.27,328.67L1372.54,330.16L1381.6,334.66L1383.86,337.05L1392.92,345.94L1395.19,348.16L1404.25,358.55L1406.51,361.25L1431.42,393.65L1433.69,396.08L1445.01,406.71L1447.28,408.28L1456.34,412.21L1458.6,412.76L1463.13,412.8L1465.4,412.58L1469.93,411.13L1472.19,410.09L1474.46,409.19L1476.72,406.86L1488.05,395.55L1490.31,392.88L1503.9,369.78L1506.17,364.64L1522.02,329.96L1524.29,325.19L1537.88,299.97L1540.14,296.12L1546.94,284.55L1549.2,281.4L1562.79,267.49L1565.05,266.63L1569.58,265.75L1571.85,265.05L1578.64,266.09L1580.91,267.44L1585.44,269.37L1587.7,270.68L1596.76,281.24L1599.03,284.66L1601.29,287.78L1603.56,288.3L1617.15,312.76L1619.41,316.82L1630.74,336.8L1633,341.92L1635.27,346.32L1637.53,348.41L1639.8,351.41L1642.06,356.18L1651.12,370.01L1653.39,372.92L1660.18,382.25L1662.45,383.22L1676.04,395.68L1678.3,397.34L1680.56,397.43L1682.83,398.62L1687.36,400.91L1689.62,401.68L1691.89,401.19L1694.15,401.83L1698.68,402.21L1700.95,402.09L1703.21,401L1705.48,401.08L1710.01,399.58L1712.27,398.56L1716.8,396.35L1719.07,395.14L1734.92,380.45L1737.19,376.68L1743.98,368.9L1746.25,364.5L1753.04,355.65L1755.31,351.24L1773.43,319.73L1775.69,315.66L1782.49,303.51L1784.75,299.86L1787.02,296.51L1789.28,291.07L1796.08,280.79L1798.34,277.63L1800.61,272.19L1802.87,269.59L1809.66,261.62L1811.93,257.97L1816.46,251.39L1818.72,249.9L1823.25,243.48L1825.52,241.86L1843.64,225.01L1845.9,222.73L1857.23,212.23L1859.49,210.18L1873.08,195.29L1875.35,190.3L1882.14,178.91L1884.41,176.51L1888.94,166.23L1891.2,162.36L1893.47,156.78L1895.73,154.05L1900.26,142.07L1902.53,138.18L1904.79,131.6L1907.06,128.29L1916.12,107.02L1918.38,104.13L1920.65,101.68L1922.91,96.6L1925.18,93.04L1927.44,91.56L1929.71,88.6L1931.97,87.38L1934.24,84.94L1936.5,84.57L1938.76,83.62L1941.03,81.53L1943.29,84.2L1945.56,83.08L1950.09,88.57L1952.35,92.36L1954.62,94.91L1956.88,99.09L1959.15,99.52L1961.41,103.74L1963.68,108.77L1965.94,117.85L1979.53,164.5L1981.8,177.01L1988.59,217.82L1990.86,224.96L1999.92,288.44L2002.18,296.35L2011.24,359.04L2013.51,367.39L2029.36,438.94L2031.63,443.81L2038.42,467.54L2040.69,475.82L2049.75,494.49L2052.01,501.66L2061.07,523.17L2063.34,528.14L2067.86,535.19L2070.13,541.88L2076.92,557.74L2079.19,560.21L2083.72,572.01L2085.98,576.83L2088.25,583.06L2090.51,585.86L2095.04,598.77L2097.31,604.88L2099.57,612.46L2101.84,616.38L2106.37,626.86L2108.63,631.31L2115.43,652.9L2117.69,659.75L2119.96,664.61L2122.22,672.98L2140.34,721.07L2142.61,724.02L2144.87,730.29L2147.14,733.21L2153.93,744.39L2156.2,747.47L2162.99,753.32L2165.26,753.83L2169.79,755.43L2172.05,753.99L2174.32,754.26L2176.58,752.73L2178.85,750.25L2181.11,749.95L2183.38,745.79L2185.64,744L2196.96,722.1L2199.23,714.04L2206.02,689.79L2208.29,685.22L2226.41,607.65L2228.67,595.45L2230.94,588.87L2233.2,578.76L2242.26,544.46L2244.53,537.47L2249.06,522.06L2251.32,513.29L2267.18,476.26L2269.44,473.08L2278.5,455.85L2280.77,453.29L2294.36,435.74L2296.62,432.59L2298.89,430.85L2301.15,427.8L2305.68,423.33L2307.95,420.46L2317.01,413.38L2319.27,411.2L2337.39,399.08L2339.65,397.98L2357.77,392.17L2360.04,391.8L2378.16,392.33L2380.42,392.68L2398.54,396.07L2400.81,395.89L2412.13,396.62L2414.4,396.32L2418.93,395.29L2421.19,394.74L2425.72,392.97L2427.99,392L2432.52,389.19L2434.78,387.33L2443.84,378.79L2446.11,376.29L2455.16,364.16L2457.43,360.75L2471.02,337.97L2473.28,332.27L2482.34,312.78L2484.61,309.13L2493.67,287.29L2495.93,283.43L2502.73,267.18L2504.99,261.55L2507.26,257.88L2509.52,251.78L2518.58,232.99L2520.85,228.86L2534.44,209.64L2536.7,207.07L2543.5,201.56L2545.76,200.27L2550.29,198.59L2552.56,198.16L2557.09,197.61L2559.35,198.14L2566.15,199.91L2568.41,201.37L2579.74,209.68L2582,211.97" style="vector-effect: non-scaling-stroke; fill: none; stroke: rgb(170, 0, 0); stroke-opacity: 1; stroke-width: 4px; opacity: 1;"/></g><g class="points"/><g class="text"/></g><g class="trace scatter trace0086aa" style="stroke-miterlimit: 2; opacity: 1;"><g class="fills"/><g class="errorbars"/><g class="lines"><path class="js-line" d="M0,214.78L22.65,243.51L24.91,246.03L31.71,254.13L33.97,256.2L40.77,262.76L43.03,263.65L49.83,265.52L52.09,266.36L61.15,264.96L63.42,264.13L72.48,258.09L74.74,255.28L90.6,234.7L92.86,230.43L110.98,202.35L113.25,200.63L120.04,191.42L122.31,190.87L126.84,187.85L129.1,186.51L135.89,185.63L138.16,185.63L144.95,189.13L147.22,190.75L154.01,199.23L156.28,202.91L163.07,217.25L165.34,223.74L167.6,229.87L169.87,239.51L181.19,284.91L183.46,295.27L192.52,362.37L194.78,385.29L201.58,443.72L203.84,455.17L217.43,563.79L219.7,577.67L226.49,614.23L228.76,624.39L235.55,649.33L237.82,656.17L244.61,674.86L246.88,678.29L251.41,683.52L253.67,686.26L255.94,688.63L258.2,689.46L262.73,691.43L264.99,691.48L267.26,691.32L269.52,688.97L271.79,689.56L274.05,688.16L276.32,686.62L278.58,682.57L285.38,670.41L287.64,669.01L294.44,653.16L296.7,645.24L298.97,641.78L301.23,635.95L303.5,630.01L305.76,620.9L312.56,595.32L314.82,590.17L321.62,566.04L323.88,554.19L335.21,505.25L337.47,493.26L344.27,457.44L346.53,441.56L353.33,397.07L355.59,379.65L357.86,358.96L360.12,326.12L362.39,306.63L364.65,277.49L366.92,262.27L369.18,238.32L371.45,233.07L373.71,195.42L378.24,146.44L380.51,136.85L389.56,83.83L391.83,81.3L394.09,68.08L396.36,65.52L398.62,54.67L400.89,59.6L403.15,48.13L405.42,41.79L407.68,44.87L409.95,39.8L412.21,46.64L414.48,42.69L421.27,61.21L423.54,66.4L428.07,85.88L430.33,91.53L432.6,99.01L434.86,118.07L437.13,140.51L439.39,152.82L441.66,173.77L443.92,183.92L450.72,254.49L452.98,277L455.25,287.67L457.51,306.37L468.84,395.35L471.1,405.77L473.37,416.54L475.63,422.08L480.16,440.52L482.43,448.75L484.69,457.49L486.96,461.68L491.49,472.96L493.75,476.9L509.61,509.64L511.87,512.15L516.4,519.38L518.66,521.97L525.46,531.52L527.72,534.84L536.78,545.85L539.05,547.8L550.37,555.33L552.64,556.55L561.7,558.91L563.96,558.8L568.49,558.32L570.76,557.46L575.29,555.66L577.55,554.04L582.08,550.92L584.35,548.69L588.88,544.81L591.14,541.52L600.2,528.13L602.47,524.79L613.79,505.25L616.06,500.43L659.09,413.87L661.35,410.67L670.41,395.9L672.68,392.46L679.47,383.4L681.74,380.57L697.59,367.71L699.86,366.37L708.92,363.46L711.18,362.98L715.71,363.17L717.98,363.16L727.04,365.64L729.3,366.77L736.1,370.44L738.36,372.1L749.69,380.25L751.95,383.1L756.48,388.49L758.75,390.31L770.07,401.5L772.34,404.77L776.86,411.05L779.13,413.36L785.92,421.05L788.19,424L799.51,437.78L801.78,440.93L808.57,449.58L810.84,453.64L817.63,463.25L819.9,465.18L826.69,477.02L828.96,482.07L835.75,492.29L838.02,498.32L842.55,508.86L844.81,515.53L847.08,519.1L849.34,525.04L853.87,533.59L856.14,542.87L874.26,605.05L876.52,613.91L878.79,619.93L881.05,629.82L890.11,661.41L892.38,666.68L896.91,682.03L899.17,686.24L903.7,699.21L905.96,702.42L910.49,712.23L912.76,714.75L917.29,720.96L919.55,722.9L926.35,726.83L928.61,726.63L933.14,726.59L935.41,724.86L942.2,719.18L944.47,716.72L949,708.4L951.26,703.99L964.85,667.53L967.12,657.73L978.44,610.06L980.71,600.86L982.97,593.51L985.24,581.71L992.03,550.21L994.3,543.8L1003.36,510.1L1005.62,505L1014.68,478.2L1016.95,474.2L1026.01,456.51L1028.27,452.63L1041.86,432.58L1044.12,429.76L1053.18,418.53L1055.45,415.98L1062.24,408.87L1064.51,406.54L1082.63,385.8L1084.89,382.49L1087.16,380.36L1089.42,376.28L1098.48,362.36L1100.75,357.65L1103.01,354.22L1105.28,348.7L1112.07,333.26L1114.34,327.42L1121.13,308.35L1123.4,298.97L1134.72,253.19L1136.99,241.04L1152.84,166.86L1155.11,160.26L1159.64,136.73L1161.9,128.96L1164.16,118.77L1166.43,113.84L1173.22,94.79L1175.49,88.7L1177.75,88.75L1180.02,83.3L1182.28,83.01L1184.55,78.92L1186.81,79.21L1189.08,76.76L1193.61,79.83L1195.87,82.16L1200.4,86.51L1202.67,92.43L1204.93,92.83L1207.2,99.3L1227.58,171.49L1229.85,181.63L1234.38,205.3L1236.64,211.38L1238.91,217.49L1241.17,227.88L1245.7,247.98L1247.97,253.5L1250.23,257.88L1252.5,266.02L1254.76,274.2L1257.03,278.41L1263.82,292.87L1266.09,296.98L1270.62,303.85L1272.88,306.91L1277.41,311.97L1279.68,314.2L1284.21,317.8L1286.47,319.36L1291,321.78L1293.26,321.85L1297.79,324.81L1300.06,324.87L1306.85,325.92L1309.12,326.15L1311.38,326.68L1313.65,326.17L1315.91,325.44L1318.18,326.38L1329.5,325.02L1331.77,324.14L1336.3,324.68L1338.56,324.12L1345.36,323.75L1347.62,323.06L1352.15,324.41L1354.42,324.08L1363.48,325.98L1365.74,327.18L1370.27,327.43L1372.54,329.75L1390.66,342.85L1392.92,345.25L1401.98,355.6L1404.25,359.18L1408.78,364.1L1411.04,367.13L1438.22,400.81L1440.48,402.61L1445.01,406.69L1447.28,407.87L1451.81,410.8L1454.07,411.28L1458.6,412.88L1460.87,412.6L1465.4,412.76L1467.66,411.7L1472.19,410.32L1474.46,408.49L1478.99,405.52L1481.25,402.95L1485.78,398.4L1488.05,395.14L1494.84,385.21L1497.11,381.49L1506.17,364.84L1508.43,360.06L1537.88,298.64L1540.14,295.95L1544.67,287.22L1546.94,285.3L1549.2,280.23L1551.46,277.85L1553.73,276.76L1555.99,272.33L1558.26,270.85L1560.52,270.61L1562.79,267.02L1565.05,266.43L1567.32,267.07L1569.58,264.41L1571.85,264.71L1574.11,266.23L1576.38,264.54L1578.64,265.7L1580.91,268.05L1583.17,267.33L1594.5,276.67L1596.76,280.47L1599.03,284.69L1601.29,286.3L1617.15,312.62L1619.41,317.56L1623.94,324.54L1626.21,327.49L1633,341.08L1635.27,345.16L1639.8,353.94L1642.06,355.84L1644.33,358.74L1646.59,363.25L1657.92,379.67L1660.18,380.74L1666.98,388.69L1669.24,391.05L1685.09,400.41L1687.36,400.71L1694.15,402.3L1696.42,402.12L1705.48,401.16L1707.74,400.17L1712.27,398.69L1714.54,397.76L1725.86,389.62L1728.13,387.65L1732.66,382.49L1734.92,379.69L1748.51,362.34L1750.78,358.68L1764.37,336.75L1766.63,331.74L1771.16,322.95L1773.43,320.21L1791.55,288.27L1793.81,285.06L1798.34,277.26L1800.61,272.95L1807.4,264.71L1809.66,260.94L1814.19,255.15L1816.46,252.51L1820.99,248.3L1823.25,243.82L1839.11,229.15L1841.37,226.63L1850.43,219.86L1852.7,215.41L1857.23,212.36L1859.49,209.68L1861.76,206.55L1864.02,205.41L1870.82,197.6L1873.08,193.32L1886.67,172.36L1888.94,166.16L1900.26,143.38L1902.53,137.24L1907.06,128.29L1909.32,121.92L1913.85,112.38L1916.12,107.51L1918.38,104.73L1920.65,98.89L1922.91,99.86L1925.18,95.42L1927.44,90.91L1929.71,89.64L1931.97,84.12L1934.24,85.07L1936.5,82.94L1938.76,84.44L1941.03,81.64L1943.29,83.79L1945.56,85.37L1947.82,84.72L1950.09,90.2L1952.35,89.05L1954.62,92.63L1956.88,99.89L1959.15,103.39L1961.41,104.12L1965.94,117.26L1968.21,123.52L1972.74,136.29L1975,148.45L1979.53,163.46L1981.8,171.37L1986.33,207.25L1988.59,213.14L1990.86,221.37L1993.12,241.2L1995.39,261.62L1997.65,271.36L1999.92,280.14L2002.18,294.5L2006.71,331.96L2008.98,341.73L2013.51,362.6L2015.77,378.28L2020.3,403.44L2022.57,409.72L2036.16,462.09L2038.42,466.07L2052.01,503.23L2054.28,509L2056.54,512.43L2058.81,517.71L2065.6,532.43L2067.86,537.94L2074.66,552.04L2076.92,556.13L2088.25,582.26L2090.51,586.85L2095.04,598.63L2097.31,604.09L2101.84,615.88L2104.1,622.7L2110.9,639.72L2113.16,647.44L2135.81,709.29L2138.08,712.94L2140.34,721.16L2142.61,725.54L2144.87,727.14L2147.14,734.98L2149.4,738.9L2151.67,739.54L2153.93,747.18L2156.2,747.53L2162.99,754.2L2165.26,754.83L2167.52,756.2L2169.79,756.1L2172.05,754.02L2174.32,753.57L2178.85,754.97L2181.11,749.95L2183.38,747.33L2185.64,742.85L2187.91,740.28L2190.17,734.7L2192.44,728.98L2194.7,727.28L2199.23,714.95L2201.49,705.42L2206.02,690.36L2208.29,683.46L2217.35,646.55L2219.61,636.99L2235.47,568.57L2237.73,560.58L2246.79,527.5L2249.06,520.44L2253.59,508.51L2255.85,502.8L2264.91,481.35L2267.18,477.14L2276.24,460.41L2278.5,457.22L2289.83,441.29L2292.09,438.46L2298.89,430.23L2301.15,428.16L2310.21,419.06L2312.48,417.6L2326.06,405.91L2328.33,404.35L2337.39,399.41L2339.65,398.46L2346.45,394.55L2348.71,394.23L2362.3,391.44L2364.57,391.05L2369.1,391.4L2371.36,391.62L2380.42,392.64L2382.69,392.87L2398.54,396L2400.81,396.15L2407.6,396.79L2409.87,396.62L2416.66,395.97L2418.93,395.38L2430.25,390.49L2432.52,389.01L2441.58,381.25L2443.84,378.23L2448.37,372.54L2450.64,369.59L2457.43,361.4L2459.69,356.97L2466.49,344.93L2468.75,339.69L2475.55,326.82L2477.81,322.57L2482.34,312.65L2484.61,307.1L2518.58,233.53L2520.85,229.53L2525.38,221.63L2527.64,218.91L2538.97,205.29L2541.23,203.82L2548.03,199.08L2550.29,198.3L2561.62,197.99L2563.88,199.02L2572.94,203.85L2575.21,205.99L2582,212.97" style="vector-effect: non-scaling-stroke; fill: none; stroke: rgb(0, 170, 0); stroke-opacity: 1; stroke-width: 4px; opacity: 1;"/></g><g class="points"/><g class="text"/></g></g></g><g class="overplot"/><path class="xlines-above crisp" d="M0,0" style="fill: none;"/><path class="ylines-above crisp" d="M0,0" style="fill: none;"/><g class="overlines-above"/><g class="xaxislayer-above"><g class="xtick"><text text-anchor="middle" x="0" y="934" transform="translate(160,0)" style="font-family: 'Open Sans', verdana, arial, sans-serif; font-size: 37px; fill: rgb(42, 63, 95); fill-opacity: 1; white-space: pre; opacity: 1;">0</text></g><g class="xtick"><text text-anchor="middle" x="0" y="934" style="font-family: 'Open Sans', verdana, arial, sans-serif; font-size: 37px; fill: rgb(42, 63, 95); fill-opacity: 1; white-space: pre; opacity: 1;" transform="translate(612.98,0)">200</text></g><g class="xtick"><text text-anchor="middle" x="0" y="934" style="font-family: 'Open Sans', verdana, arial, sans-serif; font-size: 37px; fill: rgb(42, 63, 95); fill-opacity: 1; white-space: pre; opacity: 1;" transform="translate(1065.96,0)">400</text></g><g class="xtick"><text text-anchor="middle" x="0" y="934" style="font-family: 'Open Sans', verdana, arial, sans-serif; font-size: 37px; fill: rgb(42, 63, 95); fill-opacity: 1; white-space: pre; opacity: 1;" transform="translate(1518.95,0)">600</text></g><g class="xtick"><text text-anchor="middle" x="0" y="934" style="font-family: 'Open Sans', verdana, arial, sans-serif; font-size: 37px; fill: rgb(42, 63, 95); fill-opacity: 1; white-space: pre; opacity: 1;" transform="translate(1971.93,0)">800</text></g><g class="xtick"><text text-anchor="middle" x="0" y="934" style="font-family: 'Open Sans', verdana, arial, sans-serif; font-size: 37px; fill: rgb(42, 63, 95); fill-opacity: 1; white-space: pre; opacity: 1;" transform="translate(2424.91,0)">1000</text></g></g><g class="yaxislayer-above"><g class="ytick"><text text-anchor="end" x="159" y="12.95" transform="translate(0,830.29)" style="font-family: 'Open Sans', verdana, arial, sans-serif; font-size: 37px; fill: rgb(42, 63, 95); fill-opacity: 1; white-space: pre; opacity: 1;">−200</text></g><g class="ytick"><text text-anchor="end" x="159" y="12.95" style="font-family: 'Open Sans', verdana, arial, sans-serif; font-size: 37px; fill: rgb(42, 63, 95); fill-opacity: 1; white-space: pre; opacity: 1;" transform="translate(0,750.54)">−150</text></g><g class="ytick"><text text-anchor="end" x="159" y="12.95" style="font-family: 'Open Sans', verdana, arial, sans-serif; font-size: 37px; fill: rgb(42, 63, 95); fill-opacity: 1; white-space: pre; opacity: 1;" transform="translate(0,670.79)">−100</text></g><g class="ytick"><text text-anchor="end" x="159" y="12.95" style="font-family: 'Open Sans', verdana, arial, sans-serif; font-size: 37px; fill: rgb(42, 63, 95); fill-opacity: 1; white-space: pre; opacity: 1;" transform="translate(0,591.05)">−50</text></g><g class="ytick"><text text-anchor="end" x="159" y="12.95" style="font-family: 'Open Sans', verdana, arial, sans-serif; font-size: 37px; fill: rgb(42, 63, 95); fill-opacity: 1; white-space: pre; opacity: 1;" transform="translate(0,511.3)">0</text></g><g class="ytick"><text text-anchor="end" x="159" y="12.95" style="font-family: 'Open Sans', verdana, arial, sans-serif; font-size: 37px; fill: rgb(42, 63, 95); fill-opacity: 1; white-space: pre; opacity: 1;" transform="translate(0,431.55)">50</text></g><g class="ytick"><text text-anchor="end" x="159" y="12.95" style="font-family: 'Open Sans', verdana, arial, sans-serif; font-size: 37px; fill: rgb(42, 63, 95); fill-opacity: 1; white-space: pre; opacity: 1;" transform="translate(0,351.8)">100</text></g><g class="ytick"><text text-anchor="end" x="159" y="12.95" style="font-family: 'Open Sans', verdana, arial, sans-serif; font-size: 37px; fill: rgb(42, 63, 95); fill-opacity: 1; white-space: pre; opacity: 1;" transform="translate(0,272.06)">150</text></g><g class="ytick"><text text-anchor="end" x="159" y="12.95" style="font-family: 'Open Sans', verdana, arial, sans-serif; font-size: 37px; fill: rgb(42, 63, 95); fill-opacity: 1; white-space: pre; opacity: 1;" transform="translate(0,192.31)">200</text></g><g class="ytick"><text text-anchor="end" x="159" y="12.95" style="font-family: 'Open Sans', verdana, arial, sans-serif; font-size: 37px; fill: rgb(42, 63, 95); fill-opacity: 1; white-space: pre; opacity: 1;" transform="translate(0,112.56)">250</text></g></g><g class="overaxes-above"/></g></g><g class="polarlayer"/><g class="ternarylayer"/><g class="geolayer"/><g class="funnelarealayer"/><g class="pielayer"/><g class="iciclelayer"/><g class="treemaplayer"/><g class="sunburstlayer"/><g class="glimages"/><defs id="topdefs-152b41"><g class="clips"/><clipPath id="legend152b41"><rect width="694" height="113" x="0" y="0"/></clipPath></defs><g class="layer-above"><g class="imagelayer"/><g class="shapelayer"/></g><g class="infolayer"><g class="legend" pointer-events="all" transform="translate(2793.64,100)"><rect class="bg" shape-rendering="crispEdges" width="694" height="113" x="0" y="0" style="stroke: rgb(68, 68, 68); stroke-opacity: 1; fill: rgb(255, 255, 255); fill-opacity: 1; stroke-width: 0px;"/><g class="scrollbox" transform="" clip-path="url(#legend152b41)"><g class="groups"><g class="traces" transform="translate(0,30.55)" style="opacity: 1;"><text class="legendtext" text-anchor="start" x="40" y="14.43" style="font-family: 'Open Sans', verdana, arial, sans-serif; font-size: 37px; fill: rgb(42, 63, 95); fill-opacity: 1; white-space: pre;">Predicted Curvature at Anchors #1</text><g class="layers" style="opacity: 1;"><g class="legendfill"/><g class="legendlines"><path class="js-line" d="M5,0h30" style="fill: none; stroke: rgb(170, 0, 0); stroke-opacity: 1; stroke-width: 4px;"/></g><g class="legendsymbols"><g class="legendpoints"/></g></g><rect class="legendtoggle" x="0" y="-25.55" width="688.125" height="51.1" style="fill: rgb(0, 0, 0); fill-opacity: 0;"/></g><g class="traces" transform="translate(0,81.65)" style="opacity: 1;"><text class="legendtext" text-anchor="start" x="40" y="14.43" style="font-family: 'Open Sans', verdana, arial, sans-serif; font-size: 37px; fill: rgb(42, 63, 95); fill-opacity: 1; white-space: pre;">Predicted Curvature at Anchors #2</text><g class="layers" style="opacity: 1;"><g class="legendfill"/><g class="legendlines"><path class="js-line" d="M5,0h30" style="fill: none; stroke: rgb(0, 170, 0); stroke-opacity: 1; stroke-width: 4px;"/></g><g class="legendsymbols"><g class="legendpoints"/></g></g><rect class="legendtoggle" x="0" y="-25.55" width="688.125" height="51.1" style="fill: rgb(0, 0, 0); fill-opacity: 0;"/></g></g></g><rect class="scrollbar" rx="20" ry="3" width="0" height="0" x="0" y="0" style="fill: rgb(128, 139, 164); fill-opacity: 1;"/></g><g class="g-gtitle"/><g class="g-xtitle"><text class="xtitle" x="1451" y="987.8" text-anchor="middle" style="font-family: 'Open Sans', verdana, arial, sans-serif; font-size: 44px; fill: rgb(42, 63, 95); opacity: 1; font-weight: normal; white-space: pre;">Anchor Point Index</text></g><g class="g-ytitle" transform="translate(31.6591796875,0)"><text class="ytitle" transform="rotate(-90,12.340624999999989,498)" x="12.340624999999989" y="498" text-anchor="middle" style="font-family: 'Open Sans', verdana, arial, sans-serif; font-size: 44px; fill: rgb(42, 63, 95); opacity: 1; font-weight: normal; white-space: pre;">Predicted Curvature</text></g><g class="annotation" data-index="0" style="opacity: 1;"><g class="annotation-text-g" transform="rotate(0,1451,66.49999999999993)"><g class="cursor-pointer" transform="translate(234,33)"><rect class="bg" x="0.5" y="0.5" width="2433" height="66" style="stroke-width: 1px; stroke: rgb(0, 0, 0); stroke-opacity: 0; fill: rgb(0, 0, 0); fill-opacity: 0;"/><text class="annotation-text" text-anchor="middle" x="1217.03125" y="54" style="font-family: 'Open Sans', verdana, arial, sans-serif; font-size: 52px; fill: rgb(42, 63, 95); fill-opacity: 1; white-space: pre;"><tspan style="font-weight:bold">Predicted Curvature at Anchors (Transformed Curve #1 vs. Transformed Curve #2)</tspan></text></g></g></g></g></svg>