<svg class="main-svg" xmlns="http://www.w3.org/2000/svg" xmlns:xlink="http://www.w3.org/1999/xlink" width="3500" height="1000" style="" viewBox="0 0 3500 1000"><rect x="0" y="0" width="3500" height="1000" style="fill: rgb(255, 255, 255); fill-opacity: 1;"/><defs id="defs-f8bf45"><g class="clips"><clipPath id="clipf8bf45xyplot" class="plotclip"><rect width="2582" height="796"/></clipPath><clipPath class="axesclip" id="clipf8bf45x"><rect x="160" y="0" width="2582" height="1000"/></clipPath><clipPath class="axesclip" id="clipf8bf45y"><rect x="0" y="100" width="3500" height="796"/></clipPath><clipPath class="axesclip" id="clipf8bf45xy"><rect x="160" y="100" width="2582" height="796"/></clipPath></g><g class="gradients"/><g class="patterns"/></defs><g class="bglayer"><rect class="bg" x="160" y="100" width="2582" height="796" style="fill: rgb(229, 236, 246); fill-opacity: 1; stroke-width: 0;"/></g><g class="layer-below"><g class="imagelayer"/><g class="shapelayer"/></g><g class="cartesianlayer"><g class="subplot xy"><g class="layer-subplot"><g class="shapelayer"/><g class="imagelayer"/></g><g class="gridlayer"><g class="x"><path class="xgrid crisp" transform="translate(653.69,0)" d="M0,100v796" style="stroke: rgb(255, 255, 255); stroke-opacity: 1; stroke-width: 1px;"/><path class="xgrid crisp" transform="translate(1147.38,0)" d="M0,100v796" style="stroke: rgb(255, 255, 255); stroke-opacity: 1; stroke-width: 1px;"/><path class="xgrid crisp" transform="translate(1641.07,0)" d="M0,100v796" style="stroke: rgb(255, 255, 255); stroke-opacity: 1; stroke-width: 1px;"/><path class="xgrid crisp" transform="translate(2134.76,0)" d="M0,100v796" style="stroke: rgb(255, 255, 255); stroke-opacity: 1; stroke-width: 1px;"/><path class="xgrid crisp" transform="translate(2628.45,0)" d="M0,100v796" style="stroke: rgb(255, 255, 255); stroke-opacity: 1; stroke-width: 1px;"/></g><g class="y"><path class="ygrid crisp" transform="translate(0,872.16)" d="M160,0h2582" style="stroke: rgb(255, 255, 255); stroke-opacity: 1; stroke-width: 1px;"/><path class="ygrid crisp" transform="translate(0,772.06)" d="M160,0h2582" style="stroke: rgb(255, 255, 255); stroke-opacity: 1; stroke-width: 1px;"/><path class="ygrid crisp" transform="translate(0,671.96)" d="M160,0h2582" style="stroke: rgb(255, 255, 255); stroke-opacity: 1; stroke-width: 1px;"/><path class="ygrid crisp" transform="translate(0,571.86)" d="M160,0h2582" style="stroke: rgb(255, 255, 255); stroke-opacity: 1; stroke-width: 1px;"/><path class="ygrid crisp" transform="translate(0,371.65)" d="M160,0h2582" style="stroke: rgb(255, 255, 255); stroke-opacity: 1; stroke-width: 1px;"/><path class="ygrid crisp" transform="translate(0,271.55)" d="M160,0h2582" style="stroke: rgb(255, 255, 255); stroke-opacity: 1; stroke-width: 1px;"/><path class="ygrid crisp" transform="translate(0,171.45)" d="M160,0h2582" style="stroke: rgb(255, 255, 255); stroke-opacity: 1; stroke-width: 1px;"/></g></g><g class="zerolinelayer"><path class="xzl zl crisp" transform="translate(160,0)" d="M0,100v796" style="stroke: rgb(255, 255, 255); stroke-opacity: 1; stroke-width: 2px;"/><path class="yzl zl crisp" transform="translate(0,471.76)" d="M160,0h2582" style="stroke: rgb(255, 255, 255); stroke-opacity: 1; stroke-width: 2px;"/></g><path class="xlines-below"/><path class="ylines-below"/><g class="overlines-below"/><g class="xaxislayer-below"/><g class="yaxislayer-below"/><g class="overaxes-below"/><g class="plot" transform="translate(160,100)" clip-path="url(#clipf8bf45xyplot)"><g class="scatterlayer mlayer"><g class="trace scatter tracefb88da" style="stroke-miterlimit: 2; opacity: 1;"><g class="fills"/><g class="errorbars"/><g class="lines"><path class="js-line" d="M0,203.65L32.09,189.68L34.56,189.02L44.43,185.69L46.9,185.47L51.84,183.04L54.31,182.34L64.18,179.72L66.65,179.22L81.46,177.35L83.93,177.26L96.27,178.02L98.74,178.44L111.08,181.89L113.55,182.87L125.89,189.19L128.36,190.72L143.17,201.57L145.64,203.61L167.85,223.57L170.32,225.85L175.26,231.86L177.73,232.63L190.07,243.75L192.54,245.62L195.01,246.6L197.48,249.4L202.41,253.6L204.88,254.62L212.29,259.99L214.76,261.24L222.16,265.62L224.63,266.61L232.03,270.26L234.5,271.01L241.91,273.97L244.38,274.67L254.25,277.41L256.72,277.79L278.93,282.26L281.4,283.18L293.75,285.65L296.21,286.27L308.56,290.16L311.02,291.73L323.37,297.01L325.84,299.1L330.77,303.04L333.24,304.95L340.65,310.32L343.11,313.24L362.86,338.15L365.33,342.78L387.55,387.03L390.02,392.84L402.36,421.91L404.83,428.23L429.51,484.92L431.98,489.23L439.38,502.7L441.85,505.9L446.79,512.47L449.26,515.64L451.73,518.27L454.2,519.33L456.66,522.45L459.13,523.09L461.6,525.15L464.07,524.79L466.54,525.73L469.01,525.08L471.47,525.3L473.94,523.94L478.88,522.87L481.35,519.73L483.82,517.64L486.28,514.12L488.75,512.6L491.22,509.42L496.16,502.61L498.63,499.31L503.56,491.92L506.03,488.08L515.91,466.4L518.37,462.03L533.19,430.4L535.65,425.14L557.87,379.06L560.34,374.18L580.09,339.06L582.55,335.26L597.37,312.33L599.83,309.08L619.58,285.71L622.05,282.88L641.8,264.46L644.27,262.64L654.14,255.63L656.61,254.37L659.08,252.16L661.54,251.35L668.95,246.63L671.42,246.46L681.29,242.37L683.76,242.45L693.63,239.81L696.1,240.4L698.57,240.99L701.04,239.53L705.98,241.04L708.45,239.81L713.38,241.81L715.85,240.84L720.79,243.3L723.26,242.59L725.72,242.39L728.19,243.59L733.13,247.42L735.6,247.09L738.07,247.16L740.54,248.69L745.47,253.37L747.94,253.4L750.41,253.71L752.88,255.51L757.81,260.83L760.28,261.2L799.78,289.79L802.25,291.48L807.18,294.79L809.65,295.83L821.99,301.24L824.46,301.9L829.4,303.14L831.87,303.74L841.74,303.97L844.21,303.82L859.02,299.18L861.49,298.15L878.77,284.58L881.24,281.31L886.17,275.46L888.64,272.65L896.05,262.23L898.52,257.53L903.45,248.86L905.92,244.97L915.8,226.3L918.26,219.96L957.76,127.98L960.23,123.43L965.16,112.74L967.63,109.3L970.1,104.06L972.57,101.42L979.98,92.21L982.44,89.59L989.85,84.4L992.32,83.56L997.25,82.56L999.72,82.4L1007.13,84.42L1009.6,85.44L1014.53,88.59L1017,91.57L1021.94,94.75L1024.41,98.92L1029.34,103.18L1031.81,107.79L1036.75,112.69L1039.22,117.54L1044.15,122.63L1046.62,127.48L1051.56,132.3L1054.03,136.95L1058.97,141.11L1061.43,145.37L1066.37,148.59L1068.84,152.35L1073.78,154.46L1076.24,157.66L1081.18,158.62L1083.65,161.25L1088.59,161.11L1091.06,162.16L1113.27,161.36L1115.74,161.03L1120.68,160.17L1123.15,160.11L1133.02,158.93L1135.49,160.08L1145.36,162.92L1147.83,163.79L1155.24,168.53L1157.7,171.4L1165.11,178.05L1167.58,182.04L1174.98,194.37L1177.45,197.12L1189.79,227.88L1192.26,234.99L1197.2,244.76L1199.67,254.2L1214.48,308.69L1216.95,316.63L1249.04,485.21L1251.5,499.2L1271.25,599.6L1273.72,610.24L1283.59,646.37L1286.06,654.79L1295.94,677.54L1298.41,681.73L1300.87,684.41L1303.34,688.95L1308.28,691.35L1310.75,694.11L1315.68,693L1318.15,695.77L1323.09,689.07L1325.56,687.44L1328.03,686.32L1330.5,682.13L1337.9,669.73L1340.37,664.32L1342.84,660.43L1345.31,653.84L1367.52,595.36L1369.99,587.96L1384.8,551.24L1387.27,548.72L1389.74,545.18L1392.21,539.78L1397.14,530.39L1399.61,528.81L1402.08,525.59L1404.55,524.04L1414.42,516.1L1416.89,516.73L1419.36,515.72L1421.83,516.48L1424.3,516.34L1426.76,517.94L1429.23,518.59L1431.7,521.07L1434.17,522.54L1436.64,525.97L1439.11,528.3L1441.58,532.71L1444.04,535.94L1446.51,542.57L1456.39,562.74L1458.85,570.87L1463.79,585.97L1466.26,595.13L1471.2,617.16L1473.67,625.57L1483.54,659.61L1486.01,671.31L1490.94,691.57L1493.41,698.35L1495.88,704.12L1498.35,713.83L1505.76,733.06L1508.22,736.19L1513.16,746.56L1515.63,748.8L1518.1,752.13L1520.57,752.83L1525.5,756.2L1527.97,755.27L1537.85,749.14L1540.31,745.51L1547.72,729.34L1550.19,719.76L1552.66,716.27L1555.12,706.54L1560.06,686.56L1562.53,670.95L1565,664.12L1567.47,648.74L1572.4,616.73L1574.87,593.84L1579.81,565.67L1582.28,548.4L1584.75,533.68L1587.21,509.7L1594.62,434.12L1597.09,420.15L1606.96,343.76L1609.43,321.37L1614.37,278.88L1616.84,267.32L1621.77,240.31L1624.24,229.58L1631.65,183.01L1634.11,167.75L1643.99,134.82L1646.46,122.52L1653.86,94.22L1656.33,89.46L1673.61,53.68L1676.08,51.55L1681.02,46.67L1683.48,45.39L1688.42,42.4L1690.89,41.63L1693.36,40.26L1695.83,40.04L1700.76,40.66L1703.23,41.4L1710.64,45.73L1713.11,47.24L1727.92,62.19L1730.38,65.55L1742.73,82.28L1745.2,85.17L1757.54,101.6L1760.01,103.9L1769.88,117.86L1772.35,120.03L1787.16,137.07L1789.63,139.93L1801.97,155.71L1804.44,159.91L1806.91,162.07L1809.37,166.09L1814.31,173.47L1816.78,178.63L1819.25,181.22L1821.72,185.31L1826.65,194.26L1829.12,200.12L1839,218.98L1841.46,226.74L1846.4,241.93L1848.87,246.38L1851.34,250.85L1853.81,259.81L1866.15,300.6L1868.62,306.86L1873.55,330.35L1876.02,336.85L1880.96,353.39L1883.43,365.89L1893.3,405.78L1895.77,414.98L1903.18,445.03L1905.64,454.47L1910.58,475.87L1913.05,481.25L1920.46,505.04L1922.92,512.39L1927.86,528.74L1930.33,534.6L1940.2,548.33L1942.67,550.15L1947.61,555.5L1950.08,556.27L1957.48,555.73L1959.95,554.42L1967.36,547.02L1969.82,543.67L1979.7,522.39L1982.17,514.29L1989.57,491.22L1992.04,479.52L2019.19,358.75L2021.66,345.61L2036.47,287.94L2038.94,281.37L2051.28,245.86L2053.75,239.35L2056.22,236.61L2058.69,232.01L2068.56,219.78L2071.03,217.7L2080.9,210.65L2083.37,209.91L2088.31,208.84L2090.78,208.69L2098.18,208.53L2100.65,208.79L2112.99,210.73L2115.46,211.74L2130.27,213.46L2132.74,213.4L2137.68,213.24L2140.15,212.53L2145.08,210.44L2147.55,208.77L2154.96,204.98L2157.43,202.63L2162.36,197.67L2164.83,194.32L2172.24,184.71L2174.71,179.4L2177.17,175.71L2179.64,169.89L2184.58,158.49L2187.05,155.09L2201.86,120.16L2204.33,113.89L2219.14,83.03L2221.61,81L2229.01,70.98L2231.48,67.43L2236.42,62.32L2238.89,62.31L2243.82,60.87L2246.29,60.61L2251.23,62.06L2253.7,63.93L2256.16,65.58L2258.63,68.61L2261.1,71.28L2263.57,75.53L2268.51,84.81L2270.98,90.94L2275.91,105.09L2278.38,113.72L2280.85,118.75L2283.32,129.65L2288.25,151.93L2290.72,168.11L2293.19,175.21L2295.66,192.68L2300.6,224.84L2303.07,247.13L2305.53,257.96L2308,281.58L2312.94,326.74L2315.41,356.2L2320.34,390.39L2322.81,410.06L2325.28,423.82L2327.75,449.91L2335.15,510.83L2337.62,520.11L2342.56,552.39L2345.03,564.98L2347.5,579.26L2349.97,585.02L2354.9,604.4L2357.37,612.93L2362.31,628.44L2364.78,633.81L2369.71,642.96L2372.18,646.49L2377.12,651.32L2379.59,652.86L2386.99,654.07L2389.46,653.95L2394.4,647.29L2396.87,642.76L2399.33,641.11L2401.8,636.98L2414.15,609.86L2416.61,600.08L2424.02,570.31L2426.49,563.16L2441.3,503.25L2443.77,490.21L2448.7,468.38L2451.17,458.49L2456.11,439.72L2458.58,431.03L2463.51,410.71L2465.98,401.41L2475.86,366L2478.33,358.8L2485.73,339.21L2488.2,331.87L2495.6,312.8L2498.07,306.01L2505.48,290.75L2507.95,286.62L2522.76,261.17L2525.23,257.82L2535.1,244.3L2537.57,241.34L2554.85,223.82L2557.32,221.69L2579.53,206.22L2582,204.81" style="vector-effect: non-scaling-stroke; fill: none; stroke: rgb(170, 0, 0); stroke-opacity: 1; stroke-width: 4px; opacity: 1;"/></g><g class="points"/><g class="text"/></g><g class="trace scatter tracea1e3f4" style="stroke-miterlimit: 2; opacity: 1;"><g class="fills"/><g class="errorbars"/><g class="lines"><path class="js-line" d="M0,203.05L2.47,201.4L4.94,201.27L7.41,200.69L9.87,198.59L14.81,196.64L17.28,195.02L27.15,192.95L29.62,190.21L32.09,189.41L34.56,190.25L37.03,187.55L39.5,186.81L44.43,185.1L46.9,183.87L49.37,184.16L51.84,183.22L56.77,181.59L59.24,180.67L74.05,178.48L76.52,177.8L93.8,178.07L96.27,178.68L108.61,181.51L111.08,182.44L116.02,184.31L118.49,185.61L135.76,195.78L138.23,197.85L140.7,200.65L143.17,201.8L145.64,202.86L148.11,205.19L155.51,212.62L157.98,215.06L170.32,225.77L172.79,229.01L180.2,234.09L182.67,237.08L190.07,243.16L192.54,245.47L214.76,261.39L217.22,262.3L224.63,266.11L227.1,267.84L254.25,277.24L256.72,277.84L303.62,288.49L306.09,289.54L315.96,293.43L318.43,295.32L328.3,300.53L330.77,301.95L340.65,311.62L343.11,313.47L348.05,318.12L350.52,322.07L355.46,329.24L357.93,332.59L362.86,338.73L365.33,342.1L387.55,385.4L390.02,392.71L394.95,405.51L397.42,411.16L399.89,415.1L402.36,421L404.83,426.26L407.29,434.05L412.23,447.38L414.7,453.03L417.17,456.59L419.64,463.54L427.04,480.68L429.51,483.5L441.85,507.72L444.32,511.08L459.13,523.44L461.6,524.41L464.07,525.41L466.54,524.87L471.47,525.11L473.94,524.19L483.82,518.46L486.28,516.21L498.63,498.56L501.1,494.79L513.44,474L515.91,467.46L545.53,404.79L548,400.79L552.93,388.97L555.4,384L560.34,374.93L562.81,369.78L567.74,361.29L570.21,356.05L592.43,319.58L594.9,316.12L597.37,313.33L599.83,308.82L607.24,299.71L609.71,297.04L619.58,284.84L622.05,281.87L624.52,280.47L626.99,277.81L639.33,266.33L641.8,264.8L651.67,256.65L654.14,255.41L661.54,251.22L664.01,249.85L676.36,244.18L678.82,243.72L688.7,241.12L691.17,241.06L701.04,239.95L703.51,240.4L710.91,240.26L713.38,240.85L728.19,244.14L730.66,245.5L750.41,254.52L752.88,256.61L802.25,290.9L804.72,291.86L809.65,296.11L812.12,297.44L814.59,297.12L817.06,298.37L821.99,301.47L824.46,302.27L826.93,301.55L829.4,302.45L834.34,304.11L836.8,304.26L839.27,303.08L841.74,303.51L846.68,303.54L849.15,302.71L856.55,300.26L859.02,299.15L863.96,296.42L866.43,294.8L871.36,291.09L873.83,288.67L876.3,287.07L878.77,283.94L886.17,276.36L888.64,272.51L898.52,257.79L900.98,253.66L903.45,250.47L905.92,244.77L913.33,230.05L915.8,224.89L925.67,203.23L928.14,197.53L935.54,178.8L938.01,174.72L942.95,161.3L945.42,155.34L952.82,137.11L955.29,133.49L960.23,121.26L962.7,118.23L970.1,104.06L972.57,99.8L975.04,96.81L977.51,95.62L982.44,90.2L984.91,88.05L987.38,84.9L989.85,84.35L994.79,82.12L997.25,82.97L1002.19,82.91L1004.66,83.47L1007.13,83.69L1009.6,85.63L1017,90.55L1019.47,93.44L1031.81,106.51L1034.28,109.64L1039.22,117.22L1041.69,119.62L1054.03,136.41L1056.5,139.25L1063.9,146.39L1066.37,150.21L1071.31,152.7L1073.78,156.08L1078.71,157.42L1081.18,160.24L1086.12,159.94L1088.59,161.62L1091.06,162.99L1093.52,162.54L1095.99,161.78L1098.46,162.68L1108.33,162.16L1110.8,160.98L1115.74,161.12L1118.21,160.15L1120.68,161.02L1123.15,160.15L1125.61,159.04L1128.08,159.72L1130.55,159.27L1133.02,160.59L1137.96,159.44L1140.42,161.04L1142.89,162.72L1145.36,162.66L1147.83,163.43L1150.3,166.44L1152.77,166.81L1155.24,168.43L1162.64,176.13L1165.11,178.05L1179.92,203.69L1182.39,209.04L1192.26,233.3L1194.73,239.45L1197.2,244.76L1199.67,254.2L1207.07,281.78L1209.54,289.79L1221.88,342.45L1224.35,353.91L1231.76,386.03L1234.23,400.38L1241.63,443.68L1244.1,457.37L1271.25,607.1L1273.72,614.83L1276.19,620.53L1278.66,630.05L1281.13,636.4L1283.59,646.62L1286.06,656.89L1288.53,662.65L1295.94,677.25L1298.41,680.95L1303.34,689.65L1305.81,692.2L1308.28,693.99L1310.75,693.94L1313.22,694.82L1315.68,694.46L1323.09,691.51L1325.56,688.41L1335.43,675.73L1337.9,670.15L1352.71,636.29L1355.18,629.64L1365.05,603.21L1367.52,595.88L1377.4,570.29L1379.86,565.05L1387.27,549.18L1389.74,544.16L1397.14,532.3L1399.61,529.09L1407.02,521.55L1409.49,519.84L1414.42,517.35L1416.89,516.65L1421.83,516.6L1424.3,516.95L1431.7,521.7L1434.17,523.75L1441.58,532.31L1444.04,536.51L1448.98,545.12L1451.45,552.57L1461.32,581.19L1463.79,587.72L1471.2,612.41L1473.67,620.67L1478.6,646.64L1481.07,654.76L1488.48,680.45L1490.94,687.8L1495.88,704.79L1498.35,711.06L1503.29,727.46L1505.76,731.77L1510.69,742.49L1513.16,745.7L1518.1,751.68L1520.57,753.69L1527.97,755.69L1530.44,754.44L1532.91,754.01L1535.38,751.38L1542.78,740.22L1545.25,733.23L1547.72,730.19L1550.19,724.52L1555.12,708.16L1557.59,696.09L1565,661.47L1567.47,647.35L1577.34,589.8L1579.81,567.69L1584.75,518.43L1587.21,500.77L1594.62,447.47L1597.09,425.81L1602.02,373.71L1604.49,355.25L1609.43,321.54L1611.9,303L1624.24,224.29L1626.71,209.68L1641.52,136.54L1643.99,128.83L1651.39,106.07L1653.86,99.85L1658.8,81.6L1661.27,77.27L1671.14,58.94L1673.61,55.92L1678.55,49.68L1681.02,46.73L1685.95,43.45L1688.42,41.97L1693.36,40.28L1695.83,39.8L1700.76,40.25L1703.23,41.81L1705.7,43.23L1708.17,43.49L1715.57,49.16L1718.04,51.96L1725.45,60.51L1727.92,63.68L1732.85,68.16L1735.32,71.31L1764.94,111.36L1767.41,114.04L1772.35,119.68L1774.82,121.9L1782.22,132.44L1784.69,134.12L1794.56,146.08L1797.03,147.9L1804.44,159.89L1806.91,162.47L1809.37,164.32L1811.84,169.3L1816.78,178.58L1819.25,181.9L1826.65,192.93L1829.12,199.46L1834.06,211.8L1836.53,215.92L1839,218.98L1841.46,226.74L1846.4,241.93L1848.87,246.38L1851.34,250.85L1853.81,259.81L1858.74,278.31L1861.21,283.06L1863.68,289.23L1866.15,299.4L1871.09,321.12L1873.55,326.62L1876.02,334.02L1878.49,345.21L1883.43,369.12L1885.9,375.72L1888.37,383.41L1890.83,394.82L1895.77,419.06L1898.24,426.35L1903.18,443.96L1905.64,457.02L1910.58,473.55L1913.05,480.17L1915.52,488.03L1917.99,499.34L1925.39,518.29L1927.86,523.18L1930.33,531.73L1932.8,536.27L1937.73,544.72L1940.2,546.46L1942.67,551.71L1945.14,553.53L1950.08,556.48L1952.54,555.88L1955.01,557.64L1957.48,557.88L1959.95,554.3L1962.42,553.96L1969.82,544.54L1972.29,538.95L1977.23,529.35L1979.7,521.39L1984.63,506.15L1987.1,496.19L1992.04,484.5L1994.51,472.95L2009.32,404.46L2011.79,390.87L2016.72,367.93L2019.19,360.17L2029.07,312.9L2031.54,306.73L2041.41,269.99L2043.88,265.04L2053.75,239.49L2056.22,236.21L2066.09,221.87L2068.56,220.19L2071.03,216.28L2073.5,215.38L2080.9,210L2083.37,209.9L2095.72,208.34L2098.18,208.26L2108.06,210.17L2110.53,210.41L2120.4,212.88L2122.87,212.99L2135.21,213.43L2137.68,212.94L2142.62,211.87L2145.08,210.3L2157.43,202.63L2159.89,200.41L2169.77,187.16L2172.24,184.15L2179.64,170.02L2182.11,163.17L2189.52,150.48L2191.98,144.43L2194.45,139.65L2196.92,132.43L2199.39,124.09L2201.86,119.89L2214.2,94.16L2216.67,87.09L2224.07,77.69L2226.54,73.61L2236.42,63.49L2238.89,62.31L2243.82,59.76L2246.29,60.82L2253.7,62.92L2256.16,64.92L2261.1,71.78L2263.57,75L2270.98,90.41L2273.44,96.31L2280.85,120.06L2283.32,129.85L2290.72,163.7L2293.19,178.28L2298.13,208.42L2300.6,224.19L2305.53,256.08L2308,277.79L2315.41,341.73L2317.88,361.16L2327.75,459.14L2330.22,467.33L2335.15,502.52L2337.62,519.81L2347.5,576.08L2349.97,587.55L2354.9,608.71L2357.37,615.91L2364.78,635.9L2367.24,639.62L2374.65,650.3L2377.12,651.4L2382.06,653.66L2384.52,653.67L2389.46,652.06L2391.93,650.4L2396.87,644.97L2399.33,641.4L2406.74,626.68L2409.21,621.04L2419.08,591.58L2421.55,582.13L2428.96,554.6L2431.42,543.67L2441.3,501.7L2443.77,491.64L2456.11,439.05L2458.58,429.47L2470.92,383.38L2473.39,375.18L2485.73,337.74L2488.2,331.09L2500.54,300.86L2503.01,297.14L2515.35,272.42L2517.82,267.94L2527.69,254.59L2530.16,251.57L2537.57,240.8L2540.04,238.45L2544.97,233.27L2547.44,230.75L2557.32,221.95L2559.78,220.12L2569.66,211.71L2572.13,211.28L2574.59,210.51L2577.06,207.64L2582,205.06" style="vector-effect: non-scaling-stroke; fill: none; stroke: rgb(0, 170, 0); stroke-opacity: 1; stroke-width: 4px; opacity: 1;"/></g><g class="points"/><g class="text"/></g></g></g><g class="overplot"/><path class="xlines-above crisp" d="M0,0" style="fill: none;"/><path class="ylines-above crisp" d="M0,0" style="fill: none;"/><g class="overlines-above"/><g class="xaxislayer-above"><g class="xtick"><text text-anchor="middle" x="0" y="934" transform="translate(160,0)" style="font-family: 'Open Sans', verdana, arial, sans-serif; font-size: 37px; fill: rgb(42, 63, 95); fill-opacity: 1; white-space: pre; opacity: 1;">0</text></g><g class="xtick"><text text-anchor="middle" x="0" y="934" style="font-family: 'Open Sans', verdana, arial, sans-serif; font-size: 37px; fill: rgb(42, 63, 95); fill-opacity: 1; white-space: pre; opacity: 1;" transform="translate(653.69,0)">200</text></g><g class="xtick"><text text-anchor="middle" x="0" y="934" style="font-family: 'Open Sans', verdana, arial, sans-serif; font-size: 37px; fill: rgb(42, 63, 95); fill-opacity: 1; white-space: pre; opacity: 1;" transform="translate(1147.38,0)">400</text></g><g class="xtick"><text text-anchor="middle" x="0" y="934" style="font-family: 'Open Sans', verdana, arial, sans-serif; font-size: 37px; fill: rgb(42, 63, 95); fill-opacity: 1; white-space: pre; opacity: 1;" transform="translate(1641.07,0)">600</text></g><g class="xtick"><text text-anchor="middle" x="0" y="934" style="font-family: 'Open Sans', verdana, arial, sans-serif; font-size: 37px; fill: rgb(42, 63, 95); fill-opacity: 1; white-space: pre; opacity: 1;" transform="translate(2134.76,0)">800</text></g><g class="xtick"><text text-anchor="middle" x="0" y="934" style="font-family: 'Open Sans', verdana, arial, sans-serif; font-size: 37px; fill: rgb(42, 63, 95); fill-opacity: 1; white-space: pre; opacity: 1;" transform="translate(2628.45,0)">1000</text></g></g><g class="yaxislayer-above"><g class="ytick"><text text-anchor="end" x="159" y="12.95" transform="translate(0,872.16)" style="font-family: 'Open Sans', verdana, arial, sans-serif; font-size: 37px; fill: rgb(42, 63, 95); fill-opacity: 1; white-space: pre; opacity: 1;">−200</text></g><g class="ytick"><text text-anchor="end" x="159" y="12.95" style="font-family: 'Open Sans', verdana, arial, sans-serif; font-size: 37px; fill: rgb(42, 63, 95); fill-opacity: 1; white-space: pre; opacity: 1;" transform="translate(0,772.06)">−150</text></g><g class="ytick"><text text-anchor="end" x="159" y="12.95" style="font-family: 'Open Sans', verdana, arial, sans-serif; font-size: 37px; fill: rgb(42, 63, 95); fill-opacity: 1; white-space: pre; opacity: 1;" transform="translate(0,671.96)">−100</text></g><g class="ytick"><text text-anchor="end" x="159" y="12.95" style="font-family: 'Open Sans', verdana, arial, sans-serif; font-size: 37px; fill: rgb(42, 63, 95); fill-opacity: 1; white-space: pre; opacity: 1;" transform="translate(0,571.86)">−50</text></g><g class="ytick"><text text-anchor="end" x="159" y="12.95" style="font-family: 'Open Sans', verdana, arial, sans-serif; font-size: 37px; fill: rgb(42, 63, 95); fill-opacity: 1; white-space: pre; opacity: 1;" transform="translate(0,471.76)">0</text></g><g class="ytick"><text text-anchor="end" x="159" y="12.95" style="font-family: 'Open Sans', verdana, arial, sans-serif; font-size: 37px; fill: rgb(42, 63, 95); fill-opacity: 1; white-space: pre; opacity: 1;" transform="translate(0,371.65)">50</text></g><g class="ytick"><text text-anchor="end" x="159" y="12.95" style="font-family: 'Open Sans', verdana, arial, sans-serif; font-size: 37px; fill: rgb(42, 63, 95); fill-opacity: 1; white-space: pre; opacity: 1;" transform="translate(0,271.55)">100</text></g><g class="ytick"><text text-anchor="end" x="159" y="12.95" style="font-family: 'Open Sans', verdana, arial, sans-serif; font-size: 37px; fill: rgb(42, 63, 95); fill-opacity: 1; white-space: pre; opacity: 1;" transform="translate(0,171.45)">150</text></g></g><g class="overaxes-above"/></g></g><g class="polarlayer"/><g class="ternarylayer"/><g class="geolayer"/><g class="funnelarealayer"/><g class="pielayer"/><g class="iciclelayer"/><g class="treemaplayer"/><g class="sunburstlayer"/><g class="glimages"/><defs id="topdefs-f8bf45"><g class="clips"/><clipPath id="legendf8bf45"><rect width="694" height="113" x="0" y="0"/></clipPath></defs><g class="layer-above"><g class="imagelayer"/><g class="shapelayer"/></g><g class="infolayer"><g class="legend" pointer-events="all" transform="translate(2793.64,100)"><rect class="bg" shape-rendering="crispEdges" width="694" height="113" x="0" y="0" style="stroke: rgb(68, 68, 68); stroke-opacity: 1; fill: rgb(255, 255, 255); fill-opacity: 1; stroke-width: 0px;"/><g class="scrollbox" transform="" clip-path="url(#legendf8bf45)"><g class="groups"><g class="traces" transform="translate(0,30.55)" style="opacity: 1;"><text class="legendtext" text-anchor="start" x="40" y="14.43" style="font-family: 'Open Sans', verdana, arial, sans-serif; font-size: 37px; fill: rgb(42, 63, 95); fill-opacity: 1; white-space: pre;">Predicted Curvature at Anchors #1</text><g class="layers" style="opacity: 1;"><g class="legendfill"/><g class="legendlines"><path class="js-line" d="M5,0h30" style="fill: none; stroke: rgb(170, 0, 0); stroke-opacity: 1; stroke-width: 4px;"/></g><g class="legendsymbols"><g class="legendpoints"/></g></g><rect class="legendtoggle" x="0" y="-25.55" width="688.125" height="51.1" style="fill: rgb(0, 0, 0); fill-opacity: 0;"/></g><g class="traces" transform="translate(0,81.65)" style="opacity: 1;"><text class="legendtext" text-anchor="start" x="40" y="14.43" style="font-family: 'Open Sans', verdana, arial, sans-serif; font-size: 37px; fill: rgb(42, 63, 95); fill-opacity: 1; white-space: pre;">Predicted Curvature at Anchors #2</text><g class="layers" style="opacity: 1;"><g class="legendfill"/><g class="legendlines"><path class="js-line" d="M5,0h30" style="fill: none; stroke: rgb(0, 170, 0); stroke-opacity: 1; stroke-width: 4px;"/></g><g class="legendsymbols"><g class="legendpoints"/></g></g><rect class="legendtoggle" x="0" y="-25.55" width="688.125" height="51.1" style="fill: rgb(0, 0, 0); fill-opacity: 0;"/></g></g></g><rect class="scrollbar" rx="20" ry="3" width="0" height="0" x="0" y="0" style="fill: rgb(128, 139, 164); fill-opacity: 1;"/></g><g class="g-gtitle"/><g class="g-xtitle"><text class="xtitle" x="1451" y="987.8" text-anchor="middle" style="font-family: 'Open Sans', verdana, arial, sans-serif; font-size: 44px; fill: rgb(42, 63, 95); opacity: 1; font-weight: normal; white-space: pre;">Anchor Point Index</text></g><g class="g-ytitle" transform="translate(31.6591796875,0)"><text class="ytitle" transform="rotate(-90,12.340624999999989,498)" x="12.340624999999989" y="498" text-anchor="middle" style="font-family: 'Open Sans', verdana, arial, sans-serif; font-size: 44px; fill: rgb(42, 63, 95); opacity: 1; font-weight: normal; white-space: pre;">Predicted Curvature</text></g><g class="annotation" data-index="0" style="opacity: 1;"><g class="annotation-text-g" transform="rotate(0,1451,66.49999999999993)"><g class="cursor-pointer" transform="translate(234,33)"><rect class="bg" x="0.5" y="0.5" width="2433" height="66" style="stroke-width: 1px; stroke: rgb(0, 0, 0); stroke-opacity: 0; fill: rgb(0, 0, 0); fill-opacity: 0;"/><text class="annotation-text" text-anchor="middle" x="1217.03125" y="54" style="font-family: 'Open Sans', verdana, arial, sans-serif; font-size: 52px; fill: rgb(42, 63, 95); fill-opacity: 1; white-space: pre;"><tspan style="font-weight:bold">Predicted Curvature at Anchors (Transformed Curve #1 vs. Transformed Curve #2)</tspan></text></g></g></g></g></svg>