<?xml version="1.0" encoding="utf-8" standalone="no"?>
<!DOCTYPE svg PUBLIC "-//W3C//DTD SVG 1.1//EN"
  "http://www.w3.org/Graphics/SVG/1.1/DTD/svg11.dtd">
<svg xmlns:xlink="http://www.w3.org/1999/xlink" width="4320pt" height="1440pt" viewBox="0 0 4320 1440" xmlns="http://www.w3.org/2000/svg" version="1.1">
 <metadata>
  <rdf:RDF xmlns:dc="http://purl.org/dc/elements/1.1/" xmlns:cc="http://creativecommons.org/ns#" xmlns:rdf="http://www.w3.org/1999/02/22-rdf-syntax-ns#">
   <cc:Work>
    <dc:type rdf:resource="http://purl.org/dc/dcmitype/StillImage"/>
    <dc:date>2021-11-07T01:26:37.790395</dc:date>
    <dc:format>image/svg+xml</dc:format>
    <dc:creator>
     <cc:Agent>
      <dc:title>Matplotlib v3.5.0rc1, https://matplotlib.org/</dc:title>
     </cc:Agent>
    </dc:creator>
   </cc:Work>
  </rdf:RDF>
 </metadata>
 <defs>
  <style type="text/css">*{stroke-linejoin: round; stroke-linecap: butt}</style>
 </defs>
 <g id="figure_1">
  <g id="patch_1">
   <path d="M 0 1440 
L 4320 1440 
L 4320 0 
L 0 0 
z
" style="fill: #ffffff"/>
  </g>
  <g id="axes_1">
   <g id="patch_2">
    <path d="M 540 1260 
L 3888 1260 
L 3888 172.8 
L 540 172.8 
z
" style="fill: #ffffff"/>
   </g>
   <g id="matplotlib.axis_1">
    <g id="xtick_1">
     <g id="line2d_1">
      <defs>
       <path id="m4d82a91ab8" d="M 0 0 
L 0 3.5 
" style="stroke: #000000; stroke-width: 0.8"/>
      </defs>
      <g>
       <use xlink:href="#m4d82a91ab8" x="692.181818" y="1260" style="stroke: #000000; stroke-width: 0.8"/>
      </g>
     </g>
     <g id="text_1">
      <!-- 0 -->
      <g transform="translate(684.228693 1285.996094)scale(0.25 -0.25)">
       <defs>
        <path id="DejaVuSans-30" d="M 2034 4250 
Q 1547 4250 1301 3770 
Q 1056 3291 1056 2328 
Q 1056 1369 1301 889 
Q 1547 409 2034 409 
Q 2525 409 2770 889 
Q 3016 1369 3016 2328 
Q 3016 3291 2770 3770 
Q 2525 4250 2034 4250 
z
M 2034 4750 
Q 2819 4750 3233 4129 
Q 3647 3509 3647 2328 
Q 3647 1150 3233 529 
Q 2819 -91 2034 -91 
Q 1250 -91 836 529 
Q 422 1150 422 2328 
Q 422 3509 836 4129 
Q 1250 4750 2034 4750 
z
" transform="scale(0.015625)"/>
       </defs>
       <use xlink:href="#DejaVuSans-30"/>
      </g>
     </g>
    </g>
    <g id="xtick_2">
     <g id="line2d_2">
      <g>
       <use xlink:href="#m4d82a91ab8" x="1092.660287" y="1260" style="stroke: #000000; stroke-width: 0.8"/>
      </g>
     </g>
     <g id="text_2">
      <!-- 150 -->
      <g transform="translate(1068.800912 1285.996094)scale(0.25 -0.25)">
       <defs>
        <path id="DejaVuSans-31" d="M 794 531 
L 1825 531 
L 1825 4091 
L 703 3866 
L 703 4441 
L 1819 4666 
L 2450 4666 
L 2450 531 
L 3481 531 
L 3481 0 
L 794 0 
L 794 531 
z
" transform="scale(0.015625)"/>
        <path id="DejaVuSans-35" d="M 691 4666 
L 3169 4666 
L 3169 4134 
L 1269 4134 
L 1269 2991 
Q 1406 3038 1543 3061 
Q 1681 3084 1819 3084 
Q 2600 3084 3056 2656 
Q 3513 2228 3513 1497 
Q 3513 744 3044 326 
Q 2575 -91 1722 -91 
Q 1428 -91 1123 -41 
Q 819 9 494 109 
L 494 744 
Q 775 591 1075 516 
Q 1375 441 1709 441 
Q 2250 441 2565 725 
Q 2881 1009 2881 1497 
Q 2881 1984 2565 2268 
Q 2250 2553 1709 2553 
Q 1456 2553 1204 2497 
Q 953 2441 691 2322 
L 691 4666 
z
" transform="scale(0.015625)"/>
       </defs>
       <use xlink:href="#DejaVuSans-31"/>
       <use xlink:href="#DejaVuSans-35" x="63.623047"/>
       <use xlink:href="#DejaVuSans-30" x="127.246094"/>
      </g>
     </g>
    </g>
    <g id="xtick_3">
     <g id="line2d_3">
      <g>
       <use xlink:href="#m4d82a91ab8" x="1493.138756" y="1260" style="stroke: #000000; stroke-width: 0.8"/>
      </g>
     </g>
     <g id="text_3">
      <!-- 300 -->
      <g transform="translate(1469.279381 1285.996094)scale(0.25 -0.25)">
       <defs>
        <path id="DejaVuSans-33" d="M 2597 2516 
Q 3050 2419 3304 2112 
Q 3559 1806 3559 1356 
Q 3559 666 3084 287 
Q 2609 -91 1734 -91 
Q 1441 -91 1130 -33 
Q 819 25 488 141 
L 488 750 
Q 750 597 1062 519 
Q 1375 441 1716 441 
Q 2309 441 2620 675 
Q 2931 909 2931 1356 
Q 2931 1769 2642 2001 
Q 2353 2234 1838 2234 
L 1294 2234 
L 1294 2753 
L 1863 2753 
Q 2328 2753 2575 2939 
Q 2822 3125 2822 3475 
Q 2822 3834 2567 4026 
Q 2313 4219 1838 4219 
Q 1578 4219 1281 4162 
Q 984 4106 628 3988 
L 628 4550 
Q 988 4650 1302 4700 
Q 1616 4750 1894 4750 
Q 2613 4750 3031 4423 
Q 3450 4097 3450 3541 
Q 3450 3153 3228 2886 
Q 3006 2619 2597 2516 
z
" transform="scale(0.015625)"/>
       </defs>
       <use xlink:href="#DejaVuSans-33"/>
       <use xlink:href="#DejaVuSans-30" x="63.623047"/>
       <use xlink:href="#DejaVuSans-30" x="127.246094"/>
      </g>
     </g>
    </g>
    <g id="xtick_4">
     <g id="line2d_4">
      <g>
       <use xlink:href="#m4d82a91ab8" x="1893.617225" y="1260" style="stroke: #000000; stroke-width: 0.8"/>
      </g>
     </g>
     <g id="text_4">
      <!-- 450 -->
      <g transform="translate(1869.75785 1285.996094)scale(0.25 -0.25)">
       <defs>
        <path id="DejaVuSans-34" d="M 2419 4116 
L 825 1625 
L 2419 1625 
L 2419 4116 
z
M 2253 4666 
L 3047 4666 
L 3047 1625 
L 3713 1625 
L 3713 1100 
L 3047 1100 
L 3047 0 
L 2419 0 
L 2419 1100 
L 313 1100 
L 313 1709 
L 2253 4666 
z
" transform="scale(0.015625)"/>
       </defs>
       <use xlink:href="#DejaVuSans-34"/>
       <use xlink:href="#DejaVuSans-35" x="63.623047"/>
       <use xlink:href="#DejaVuSans-30" x="127.246094"/>
      </g>
     </g>
    </g>
    <g id="xtick_5">
     <g id="line2d_5">
      <g>
       <use xlink:href="#m4d82a91ab8" x="2294.095694" y="1260" style="stroke: #000000; stroke-width: 0.8"/>
      </g>
     </g>
     <g id="text_5">
      <!-- 600 -->
      <g transform="translate(2270.236319 1285.996094)scale(0.25 -0.25)">
       <defs>
        <path id="DejaVuSans-36" d="M 2113 2584 
Q 1688 2584 1439 2293 
Q 1191 2003 1191 1497 
Q 1191 994 1439 701 
Q 1688 409 2113 409 
Q 2538 409 2786 701 
Q 3034 994 3034 1497 
Q 3034 2003 2786 2293 
Q 2538 2584 2113 2584 
z
M 3366 4563 
L 3366 3988 
Q 3128 4100 2886 4159 
Q 2644 4219 2406 4219 
Q 1781 4219 1451 3797 
Q 1122 3375 1075 2522 
Q 1259 2794 1537 2939 
Q 1816 3084 2150 3084 
Q 2853 3084 3261 2657 
Q 3669 2231 3669 1497 
Q 3669 778 3244 343 
Q 2819 -91 2113 -91 
Q 1303 -91 875 529 
Q 447 1150 447 2328 
Q 447 3434 972 4092 
Q 1497 4750 2381 4750 
Q 2619 4750 2861 4703 
Q 3103 4656 3366 4563 
z
" transform="scale(0.015625)"/>
       </defs>
       <use xlink:href="#DejaVuSans-36"/>
       <use xlink:href="#DejaVuSans-30" x="63.623047"/>
       <use xlink:href="#DejaVuSans-30" x="127.246094"/>
      </g>
     </g>
    </g>
    <g id="xtick_6">
     <g id="line2d_6">
      <g>
       <use xlink:href="#m4d82a91ab8" x="2694.574163" y="1260" style="stroke: #000000; stroke-width: 0.8"/>
      </g>
     </g>
     <g id="text_6">
      <!-- 750 -->
      <g transform="translate(2670.714788 1285.996094)scale(0.25 -0.25)">
       <defs>
        <path id="DejaVuSans-37" d="M 525 4666 
L 3525 4666 
L 3525 4397 
L 1831 0 
L 1172 0 
L 2766 4134 
L 525 4134 
L 525 4666 
z
" transform="scale(0.015625)"/>
       </defs>
       <use xlink:href="#DejaVuSans-37"/>
       <use xlink:href="#DejaVuSans-35" x="63.623047"/>
       <use xlink:href="#DejaVuSans-30" x="127.246094"/>
      </g>
     </g>
    </g>
    <g id="xtick_7">
     <g id="line2d_7">
      <g>
       <use xlink:href="#m4d82a91ab8" x="3095.052632" y="1260" style="stroke: #000000; stroke-width: 0.8"/>
      </g>
     </g>
     <g id="text_7">
      <!-- 900 -->
      <g transform="translate(3071.193257 1285.996094)scale(0.25 -0.25)">
       <defs>
        <path id="DejaVuSans-39" d="M 703 97 
L 703 672 
Q 941 559 1184 500 
Q 1428 441 1663 441 
Q 2288 441 2617 861 
Q 2947 1281 2994 2138 
Q 2813 1869 2534 1725 
Q 2256 1581 1919 1581 
Q 1219 1581 811 2004 
Q 403 2428 403 3163 
Q 403 3881 828 4315 
Q 1253 4750 1959 4750 
Q 2769 4750 3195 4129 
Q 3622 3509 3622 2328 
Q 3622 1225 3098 567 
Q 2575 -91 1691 -91 
Q 1453 -91 1209 -44 
Q 966 3 703 97 
z
M 1959 2075 
Q 2384 2075 2632 2365 
Q 2881 2656 2881 3163 
Q 2881 3666 2632 3958 
Q 2384 4250 1959 4250 
Q 1534 4250 1286 3958 
Q 1038 3666 1038 3163 
Q 1038 2656 1286 2365 
Q 1534 2075 1959 2075 
z
" transform="scale(0.015625)"/>
       </defs>
       <use xlink:href="#DejaVuSans-39"/>
       <use xlink:href="#DejaVuSans-30" x="63.623047"/>
       <use xlink:href="#DejaVuSans-30" x="127.246094"/>
      </g>
     </g>
    </g>
    <g id="xtick_8">
     <g id="line2d_8">
      <g>
       <use xlink:href="#m4d82a91ab8" x="3495.5311" y="1260" style="stroke: #000000; stroke-width: 0.8"/>
      </g>
     </g>
     <g id="text_8">
      <!-- 1050 -->
      <g transform="translate(3463.7186 1285.996094)scale(0.25 -0.25)">
       <use xlink:href="#DejaVuSans-31"/>
       <use xlink:href="#DejaVuSans-30" x="63.623047"/>
       <use xlink:href="#DejaVuSans-35" x="127.246094"/>
       <use xlink:href="#DejaVuSans-30" x="190.869141"/>
      </g>
     </g>
    </g>
    <g id="text_9">
     <!-- Point Index -->
     <g transform="translate(2116.817578 1321.789844)scale(0.35 -0.35)">
      <defs>
       <path id="DejaVuSans-50" d="M 1259 4147 
L 1259 2394 
L 2053 2394 
Q 2494 2394 2734 2622 
Q 2975 2850 2975 3272 
Q 2975 3691 2734 3919 
Q 2494 4147 2053 4147 
L 1259 4147 
z
M 628 4666 
L 2053 4666 
Q 2838 4666 3239 4311 
Q 3641 3956 3641 3272 
Q 3641 2581 3239 2228 
Q 2838 1875 2053 1875 
L 1259 1875 
L 1259 0 
L 628 0 
L 628 4666 
z
" transform="scale(0.015625)"/>
       <path id="DejaVuSans-6f" d="M 1959 3097 
Q 1497 3097 1228 2736 
Q 959 2375 959 1747 
Q 959 1119 1226 758 
Q 1494 397 1959 397 
Q 2419 397 2687 759 
Q 2956 1122 2956 1747 
Q 2956 2369 2687 2733 
Q 2419 3097 1959 3097 
z
M 1959 3584 
Q 2709 3584 3137 3096 
Q 3566 2609 3566 1747 
Q 3566 888 3137 398 
Q 2709 -91 1959 -91 
Q 1206 -91 779 398 
Q 353 888 353 1747 
Q 353 2609 779 3096 
Q 1206 3584 1959 3584 
z
" transform="scale(0.015625)"/>
       <path id="DejaVuSans-69" d="M 603 3500 
L 1178 3500 
L 1178 0 
L 603 0 
L 603 3500 
z
M 603 4863 
L 1178 4863 
L 1178 4134 
L 603 4134 
L 603 4863 
z
" transform="scale(0.015625)"/>
       <path id="DejaVuSans-6e" d="M 3513 2113 
L 3513 0 
L 2938 0 
L 2938 2094 
Q 2938 2591 2744 2837 
Q 2550 3084 2163 3084 
Q 1697 3084 1428 2787 
Q 1159 2491 1159 1978 
L 1159 0 
L 581 0 
L 581 3500 
L 1159 3500 
L 1159 2956 
Q 1366 3272 1645 3428 
Q 1925 3584 2291 3584 
Q 2894 3584 3203 3211 
Q 3513 2838 3513 2113 
z
" transform="scale(0.015625)"/>
       <path id="DejaVuSans-74" d="M 1172 4494 
L 1172 3500 
L 2356 3500 
L 2356 3053 
L 1172 3053 
L 1172 1153 
Q 1172 725 1289 603 
Q 1406 481 1766 481 
L 2356 481 
L 2356 0 
L 1766 0 
Q 1100 0 847 248 
Q 594 497 594 1153 
L 594 3053 
L 172 3053 
L 172 3500 
L 594 3500 
L 594 4494 
L 1172 4494 
z
" transform="scale(0.015625)"/>
       <path id="DejaVuSans-20" transform="scale(0.015625)"/>
       <path id="DejaVuSans-49" d="M 628 4666 
L 1259 4666 
L 1259 0 
L 628 0 
L 628 4666 
z
" transform="scale(0.015625)"/>
       <path id="DejaVuSans-64" d="M 2906 2969 
L 2906 4863 
L 3481 4863 
L 3481 0 
L 2906 0 
L 2906 525 
Q 2725 213 2448 61 
Q 2172 -91 1784 -91 
Q 1150 -91 751 415 
Q 353 922 353 1747 
Q 353 2572 751 3078 
Q 1150 3584 1784 3584 
Q 2172 3584 2448 3432 
Q 2725 3281 2906 2969 
z
M 947 1747 
Q 947 1113 1208 752 
Q 1469 391 1925 391 
Q 2381 391 2643 752 
Q 2906 1113 2906 1747 
Q 2906 2381 2643 2742 
Q 2381 3103 1925 3103 
Q 1469 3103 1208 2742 
Q 947 2381 947 1747 
z
" transform="scale(0.015625)"/>
       <path id="DejaVuSans-65" d="M 3597 1894 
L 3597 1613 
L 953 1613 
Q 991 1019 1311 708 
Q 1631 397 2203 397 
Q 2534 397 2845 478 
Q 3156 559 3463 722 
L 3463 178 
Q 3153 47 2828 -22 
Q 2503 -91 2169 -91 
Q 1331 -91 842 396 
Q 353 884 353 1716 
Q 353 2575 817 3079 
Q 1281 3584 2069 3584 
Q 2775 3584 3186 3129 
Q 3597 2675 3597 1894 
z
M 3022 2063 
Q 3016 2534 2758 2815 
Q 2500 3097 2075 3097 
Q 1594 3097 1305 2825 
Q 1016 2553 972 2059 
L 3022 2063 
z
" transform="scale(0.015625)"/>
       <path id="DejaVuSans-78" d="M 3513 3500 
L 2247 1797 
L 3578 0 
L 2900 0 
L 1881 1375 
L 863 0 
L 184 0 
L 1544 1831 
L 300 3500 
L 978 3500 
L 1906 2253 
L 2834 3500 
L 3513 3500 
z
" transform="scale(0.015625)"/>
      </defs>
      <use xlink:href="#DejaVuSans-50"/>
      <use xlink:href="#DejaVuSans-6f" x="56.677734"/>
      <use xlink:href="#DejaVuSans-69" x="117.859375"/>
      <use xlink:href="#DejaVuSans-6e" x="145.642578"/>
      <use xlink:href="#DejaVuSans-74" x="209.021484"/>
      <use xlink:href="#DejaVuSans-20" x="248.230469"/>
      <use xlink:href="#DejaVuSans-49" x="280.017578"/>
      <use xlink:href="#DejaVuSans-6e" x="309.509766"/>
      <use xlink:href="#DejaVuSans-64" x="372.888672"/>
      <use xlink:href="#DejaVuSans-65" x="436.365234"/>
      <use xlink:href="#DejaVuSans-78" x="496.138672"/>
     </g>
    </g>
   </g>
   <g id="matplotlib.axis_2">
    <g id="ytick_1">
     <g id="line2d_9">
      <defs>
       <path id="m4639b3a8bf" d="M 0 0 
L -3.5 0 
" style="stroke: #000000; stroke-width: 0.8"/>
      </defs>
      <g>
       <use xlink:href="#m4639b3a8bf" x="540" y="1210.581818" style="stroke: #000000; stroke-width: 0.8"/>
      </g>
     </g>
     <g id="text_10">
      <!-- 0 -->
      <g transform="translate(517.09375 1220.079865)scale(0.25 -0.25)">
       <use xlink:href="#DejaVuSans-30"/>
      </g>
     </g>
    </g>
    <g id="ytick_2">
     <g id="line2d_10">
      <g>
       <use xlink:href="#m4639b3a8bf" x="540" y="1071.320958" style="stroke: #000000; stroke-width: 0.8"/>
      </g>
     </g>
     <g id="text_11">
      <!-- 100 -->
      <g transform="translate(485.28125 1080.819005)scale(0.25 -0.25)">
       <use xlink:href="#DejaVuSans-31"/>
       <use xlink:href="#DejaVuSans-30" x="63.623047"/>
       <use xlink:href="#DejaVuSans-30" x="127.246094"/>
      </g>
     </g>
    </g>
    <g id="ytick_3">
     <g id="line2d_11">
      <g>
       <use xlink:href="#m4639b3a8bf" x="540" y="932.060097" style="stroke: #000000; stroke-width: 0.8"/>
      </g>
     </g>
     <g id="text_12">
      <!-- 200 -->
      <g transform="translate(485.28125 941.558144)scale(0.25 -0.25)">
       <defs>
        <path id="DejaVuSans-32" d="M 1228 531 
L 3431 531 
L 3431 0 
L 469 0 
L 469 531 
Q 828 903 1448 1529 
Q 2069 2156 2228 2338 
Q 2531 2678 2651 2914 
Q 2772 3150 2772 3378 
Q 2772 3750 2511 3984 
Q 2250 4219 1831 4219 
Q 1534 4219 1204 4116 
Q 875 4013 500 3803 
L 500 4441 
Q 881 4594 1212 4672 
Q 1544 4750 1819 4750 
Q 2544 4750 2975 4387 
Q 3406 4025 3406 3419 
Q 3406 3131 3298 2873 
Q 3191 2616 2906 2266 
Q 2828 2175 2409 1742 
Q 1991 1309 1228 531 
z
" transform="scale(0.015625)"/>
       </defs>
       <use xlink:href="#DejaVuSans-32"/>
       <use xlink:href="#DejaVuSans-30" x="63.623047"/>
       <use xlink:href="#DejaVuSans-30" x="127.246094"/>
      </g>
     </g>
    </g>
    <g id="ytick_4">
     <g id="line2d_12">
      <g>
       <use xlink:href="#m4639b3a8bf" x="540" y="792.799237" style="stroke: #000000; stroke-width: 0.8"/>
      </g>
     </g>
     <g id="text_13">
      <!-- 300 -->
      <g transform="translate(485.28125 802.297284)scale(0.25 -0.25)">
       <use xlink:href="#DejaVuSans-33"/>
       <use xlink:href="#DejaVuSans-30" x="63.623047"/>
       <use xlink:href="#DejaVuSans-30" x="127.246094"/>
      </g>
     </g>
    </g>
    <g id="ytick_5">
     <g id="line2d_13">
      <g>
       <use xlink:href="#m4639b3a8bf" x="540" y="653.538376" style="stroke: #000000; stroke-width: 0.8"/>
      </g>
     </g>
     <g id="text_14">
      <!-- 400 -->
      <g transform="translate(485.28125 663.036423)scale(0.25 -0.25)">
       <use xlink:href="#DejaVuSans-34"/>
       <use xlink:href="#DejaVuSans-30" x="63.623047"/>
       <use xlink:href="#DejaVuSans-30" x="127.246094"/>
      </g>
     </g>
    </g>
    <g id="ytick_6">
     <g id="line2d_14">
      <g>
       <use xlink:href="#m4639b3a8bf" x="540" y="514.277516" style="stroke: #000000; stroke-width: 0.8"/>
      </g>
     </g>
     <g id="text_15">
      <!-- 500 -->
      <g transform="translate(485.28125 523.775563)scale(0.25 -0.25)">
       <use xlink:href="#DejaVuSans-35"/>
       <use xlink:href="#DejaVuSans-30" x="63.623047"/>
       <use xlink:href="#DejaVuSans-30" x="127.246094"/>
      </g>
     </g>
    </g>
    <g id="ytick_7">
     <g id="line2d_15">
      <g>
       <use xlink:href="#m4639b3a8bf" x="540" y="375.016655" style="stroke: #000000; stroke-width: 0.8"/>
      </g>
     </g>
     <g id="text_16">
      <!-- 600 -->
      <g transform="translate(485.28125 384.514702)scale(0.25 -0.25)">
       <use xlink:href="#DejaVuSans-36"/>
       <use xlink:href="#DejaVuSans-30" x="63.623047"/>
       <use xlink:href="#DejaVuSans-30" x="127.246094"/>
      </g>
     </g>
    </g>
    <g id="ytick_8">
     <g id="line2d_16">
      <g>
       <use xlink:href="#m4639b3a8bf" x="540" y="235.755795" style="stroke: #000000; stroke-width: 0.8"/>
      </g>
     </g>
     <g id="text_17">
      <!-- 700 -->
      <g transform="translate(485.28125 245.253842)scale(0.25 -0.25)">
       <use xlink:href="#DejaVuSans-37"/>
       <use xlink:href="#DejaVuSans-30" x="63.623047"/>
       <use xlink:href="#DejaVuSans-30" x="127.246094"/>
      </g>
     </g>
    </g>
    <g id="text_18">
     <!-- Arc-Length -->
     <g transform="translate(474.002344 811.471484)rotate(-90)scale(0.35 -0.35)">
      <defs>
       <path id="DejaVuSans-41" d="M 2188 4044 
L 1331 1722 
L 3047 1722 
L 2188 4044 
z
M 1831 4666 
L 2547 4666 
L 4325 0 
L 3669 0 
L 3244 1197 
L 1141 1197 
L 716 0 
L 50 0 
L 1831 4666 
z
" transform="scale(0.015625)"/>
       <path id="DejaVuSans-72" d="M 2631 2963 
Q 2534 3019 2420 3045 
Q 2306 3072 2169 3072 
Q 1681 3072 1420 2755 
Q 1159 2438 1159 1844 
L 1159 0 
L 581 0 
L 581 3500 
L 1159 3500 
L 1159 2956 
Q 1341 3275 1631 3429 
Q 1922 3584 2338 3584 
Q 2397 3584 2469 3576 
Q 2541 3569 2628 3553 
L 2631 2963 
z
" transform="scale(0.015625)"/>
       <path id="DejaVuSans-63" d="M 3122 3366 
L 3122 2828 
Q 2878 2963 2633 3030 
Q 2388 3097 2138 3097 
Q 1578 3097 1268 2742 
Q 959 2388 959 1747 
Q 959 1106 1268 751 
Q 1578 397 2138 397 
Q 2388 397 2633 464 
Q 2878 531 3122 666 
L 3122 134 
Q 2881 22 2623 -34 
Q 2366 -91 2075 -91 
Q 1284 -91 818 406 
Q 353 903 353 1747 
Q 353 2603 823 3093 
Q 1294 3584 2113 3584 
Q 2378 3584 2631 3529 
Q 2884 3475 3122 3366 
z
" transform="scale(0.015625)"/>
       <path id="DejaVuSans-2d" d="M 313 2009 
L 1997 2009 
L 1997 1497 
L 313 1497 
L 313 2009 
z
" transform="scale(0.015625)"/>
       <path id="DejaVuSans-4c" d="M 628 4666 
L 1259 4666 
L 1259 531 
L 3531 531 
L 3531 0 
L 628 0 
L 628 4666 
z
" transform="scale(0.015625)"/>
       <path id="DejaVuSans-67" d="M 2906 1791 
Q 2906 2416 2648 2759 
Q 2391 3103 1925 3103 
Q 1463 3103 1205 2759 
Q 947 2416 947 1791 
Q 947 1169 1205 825 
Q 1463 481 1925 481 
Q 2391 481 2648 825 
Q 2906 1169 2906 1791 
z
M 3481 434 
Q 3481 -459 3084 -895 
Q 2688 -1331 1869 -1331 
Q 1566 -1331 1297 -1286 
Q 1028 -1241 775 -1147 
L 775 -588 
Q 1028 -725 1275 -790 
Q 1522 -856 1778 -856 
Q 2344 -856 2625 -561 
Q 2906 -266 2906 331 
L 2906 616 
Q 2728 306 2450 153 
Q 2172 0 1784 0 
Q 1141 0 747 490 
Q 353 981 353 1791 
Q 353 2603 747 3093 
Q 1141 3584 1784 3584 
Q 2172 3584 2450 3431 
Q 2728 3278 2906 2969 
L 2906 3500 
L 3481 3500 
L 3481 434 
z
" transform="scale(0.015625)"/>
       <path id="DejaVuSans-68" d="M 3513 2113 
L 3513 0 
L 2938 0 
L 2938 2094 
Q 2938 2591 2744 2837 
Q 2550 3084 2163 3084 
Q 1697 3084 1428 2787 
Q 1159 2491 1159 1978 
L 1159 0 
L 581 0 
L 581 4863 
L 1159 4863 
L 1159 2956 
Q 1366 3272 1645 3428 
Q 1925 3584 2291 3584 
Q 2894 3584 3203 3211 
Q 3513 2838 3513 2113 
z
" transform="scale(0.015625)"/>
      </defs>
      <use xlink:href="#DejaVuSans-41"/>
      <use xlink:href="#DejaVuSans-72" x="68.408203"/>
      <use xlink:href="#DejaVuSans-63" x="107.271484"/>
      <use xlink:href="#DejaVuSans-2d" x="162.251953"/>
      <use xlink:href="#DejaVuSans-4c" x="198.335938"/>
      <use xlink:href="#DejaVuSans-65" x="252.298828"/>
      <use xlink:href="#DejaVuSans-6e" x="313.822266"/>
      <use xlink:href="#DejaVuSans-67" x="377.201172"/>
      <use xlink:href="#DejaVuSans-74" x="440.677734"/>
      <use xlink:href="#DejaVuSans-68" x="479.886719"/>
     </g>
    </g>
   </g>
   <g id="patch_3">
    <path d="M 540 1260 
L 540 172.8 
" style="fill: none; stroke: #000000; stroke-width: 0.8; stroke-linejoin: miter; stroke-linecap: square"/>
   </g>
   <g id="patch_4">
    <path d="M 3888 1260 
L 3888 172.8 
" style="fill: none; stroke: #000000; stroke-width: 0.8; stroke-linejoin: miter; stroke-linecap: square"/>
   </g>
   <g id="patch_5">
    <path d="M 540 1260 
L 3888 1260 
" style="fill: none; stroke: #000000; stroke-width: 0.8; stroke-linejoin: miter; stroke-linecap: square"/>
   </g>
   <g id="patch_6">
    <path d="M 540 172.8 
L 3888 172.8 
" style="fill: none; stroke: #000000; stroke-width: 0.8; stroke-linejoin: miter; stroke-linecap: square"/>
   </g>
   <g id="text_19">
    <!-- Predicted Arc-Length vs. Ground Truth Arc-Length (at Anchors) -->
    <g transform="translate(1667.007422 165.521094)scale(0.35 -0.35)">
     <defs>
      <path id="DejaVuSans-76" d="M 191 3500 
L 800 3500 
L 1894 563 
L 2988 3500 
L 3597 3500 
L 2284 0 
L 1503 0 
L 191 3500 
z
" transform="scale(0.015625)"/>
      <path id="DejaVuSans-73" d="M 2834 3397 
L 2834 2853 
Q 2591 2978 2328 3040 
Q 2066 3103 1784 3103 
Q 1356 3103 1142 2972 
Q 928 2841 928 2578 
Q 928 2378 1081 2264 
Q 1234 2150 1697 2047 
L 1894 2003 
Q 2506 1872 2764 1633 
Q 3022 1394 3022 966 
Q 3022 478 2636 193 
Q 2250 -91 1575 -91 
Q 1294 -91 989 -36 
Q 684 19 347 128 
L 347 722 
Q 666 556 975 473 
Q 1284 391 1588 391 
Q 1994 391 2212 530 
Q 2431 669 2431 922 
Q 2431 1156 2273 1281 
Q 2116 1406 1581 1522 
L 1381 1569 
Q 847 1681 609 1914 
Q 372 2147 372 2553 
Q 372 3047 722 3315 
Q 1072 3584 1716 3584 
Q 2034 3584 2315 3537 
Q 2597 3491 2834 3397 
z
" transform="scale(0.015625)"/>
      <path id="DejaVuSans-2e" d="M 684 794 
L 1344 794 
L 1344 0 
L 684 0 
L 684 794 
z
" transform="scale(0.015625)"/>
      <path id="DejaVuSans-47" d="M 3809 666 
L 3809 1919 
L 2778 1919 
L 2778 2438 
L 4434 2438 
L 4434 434 
Q 4069 175 3628 42 
Q 3188 -91 2688 -91 
Q 1594 -91 976 548 
Q 359 1188 359 2328 
Q 359 3472 976 4111 
Q 1594 4750 2688 4750 
Q 3144 4750 3555 4637 
Q 3966 4525 4313 4306 
L 4313 3634 
Q 3963 3931 3569 4081 
Q 3175 4231 2741 4231 
Q 1884 4231 1454 3753 
Q 1025 3275 1025 2328 
Q 1025 1384 1454 906 
Q 1884 428 2741 428 
Q 3075 428 3337 486 
Q 3600 544 3809 666 
z
" transform="scale(0.015625)"/>
      <path id="DejaVuSans-75" d="M 544 1381 
L 544 3500 
L 1119 3500 
L 1119 1403 
Q 1119 906 1312 657 
Q 1506 409 1894 409 
Q 2359 409 2629 706 
Q 2900 1003 2900 1516 
L 2900 3500 
L 3475 3500 
L 3475 0 
L 2900 0 
L 2900 538 
Q 2691 219 2414 64 
Q 2138 -91 1772 -91 
Q 1169 -91 856 284 
Q 544 659 544 1381 
z
M 1991 3584 
L 1991 3584 
z
" transform="scale(0.015625)"/>
      <path id="DejaVuSans-54" d="M -19 4666 
L 3928 4666 
L 3928 4134 
L 2272 4134 
L 2272 0 
L 1638 0 
L 1638 4134 
L -19 4134 
L -19 4666 
z
" transform="scale(0.015625)"/>
      <path id="DejaVuSans-28" d="M 1984 4856 
Q 1566 4138 1362 3434 
Q 1159 2731 1159 2009 
Q 1159 1288 1364 580 
Q 1569 -128 1984 -844 
L 1484 -844 
Q 1016 -109 783 600 
Q 550 1309 550 2009 
Q 550 2706 781 3412 
Q 1013 4119 1484 4856 
L 1984 4856 
z
" transform="scale(0.015625)"/>
      <path id="DejaVuSans-61" d="M 2194 1759 
Q 1497 1759 1228 1600 
Q 959 1441 959 1056 
Q 959 750 1161 570 
Q 1363 391 1709 391 
Q 2188 391 2477 730 
Q 2766 1069 2766 1631 
L 2766 1759 
L 2194 1759 
z
M 3341 1997 
L 3341 0 
L 2766 0 
L 2766 531 
Q 2569 213 2275 61 
Q 1981 -91 1556 -91 
Q 1019 -91 701 211 
Q 384 513 384 1019 
Q 384 1609 779 1909 
Q 1175 2209 1959 2209 
L 2766 2209 
L 2766 2266 
Q 2766 2663 2505 2880 
Q 2244 3097 1772 3097 
Q 1472 3097 1187 3025 
Q 903 2953 641 2809 
L 641 3341 
Q 956 3463 1253 3523 
Q 1550 3584 1831 3584 
Q 2591 3584 2966 3190 
Q 3341 2797 3341 1997 
z
" transform="scale(0.015625)"/>
      <path id="DejaVuSans-29" d="M 513 4856 
L 1013 4856 
Q 1481 4119 1714 3412 
Q 1947 2706 1947 2009 
Q 1947 1309 1714 600 
Q 1481 -109 1013 -844 
L 513 -844 
Q 928 -128 1133 580 
Q 1338 1288 1338 2009 
Q 1338 2731 1133 3434 
Q 928 4138 513 4856 
z
" transform="scale(0.015625)"/>
     </defs>
     <use xlink:href="#DejaVuSans-50"/>
     <use xlink:href="#DejaVuSans-72" x="58.552734"/>
     <use xlink:href="#DejaVuSans-65" x="97.416016"/>
     <use xlink:href="#DejaVuSans-64" x="158.939453"/>
     <use xlink:href="#DejaVuSans-69" x="222.416016"/>
     <use xlink:href="#DejaVuSans-63" x="250.199219"/>
     <use xlink:href="#DejaVuSans-74" x="305.179688"/>
     <use xlink:href="#DejaVuSans-65" x="344.388672"/>
     <use xlink:href="#DejaVuSans-64" x="405.912109"/>
     <use xlink:href="#DejaVuSans-20" x="469.388672"/>
     <use xlink:href="#DejaVuSans-41" x="501.175781"/>
     <use xlink:href="#DejaVuSans-72" x="569.583984"/>
     <use xlink:href="#DejaVuSans-63" x="608.447266"/>
     <use xlink:href="#DejaVuSans-2d" x="663.427734"/>
     <use xlink:href="#DejaVuSans-4c" x="699.511719"/>
     <use xlink:href="#DejaVuSans-65" x="753.474609"/>
     <use xlink:href="#DejaVuSans-6e" x="814.998047"/>
     <use xlink:href="#DejaVuSans-67" x="878.376953"/>
     <use xlink:href="#DejaVuSans-74" x="941.853516"/>
     <use xlink:href="#DejaVuSans-68" x="981.0625"/>
     <use xlink:href="#DejaVuSans-20" x="1044.441406"/>
     <use xlink:href="#DejaVuSans-76" x="1076.228516"/>
     <use xlink:href="#DejaVuSans-73" x="1135.408203"/>
     <use xlink:href="#DejaVuSans-2e" x="1187.507812"/>
     <use xlink:href="#DejaVuSans-20" x="1219.294922"/>
     <use xlink:href="#DejaVuSans-47" x="1251.082031"/>
     <use xlink:href="#DejaVuSans-72" x="1328.572266"/>
     <use xlink:href="#DejaVuSans-6f" x="1367.435547"/>
     <use xlink:href="#DejaVuSans-75" x="1428.617188"/>
     <use xlink:href="#DejaVuSans-6e" x="1491.996094"/>
     <use xlink:href="#DejaVuSans-64" x="1555.375"/>
     <use xlink:href="#DejaVuSans-20" x="1618.851562"/>
     <use xlink:href="#DejaVuSans-54" x="1650.638672"/>
     <use xlink:href="#DejaVuSans-72" x="1696.972656"/>
     <use xlink:href="#DejaVuSans-75" x="1738.085938"/>
     <use xlink:href="#DejaVuSans-74" x="1801.464844"/>
     <use xlink:href="#DejaVuSans-68" x="1840.673828"/>
     <use xlink:href="#DejaVuSans-20" x="1904.052734"/>
     <use xlink:href="#DejaVuSans-41" x="1935.839844"/>
     <use xlink:href="#DejaVuSans-72" x="2004.248047"/>
     <use xlink:href="#DejaVuSans-63" x="2043.111328"/>
     <use xlink:href="#DejaVuSans-2d" x="2098.091797"/>
     <use xlink:href="#DejaVuSans-4c" x="2134.175781"/>
     <use xlink:href="#DejaVuSans-65" x="2188.138672"/>
     <use xlink:href="#DejaVuSans-6e" x="2249.662109"/>
     <use xlink:href="#DejaVuSans-67" x="2313.041016"/>
     <use xlink:href="#DejaVuSans-74" x="2376.517578"/>
     <use xlink:href="#DejaVuSans-68" x="2415.726562"/>
     <use xlink:href="#DejaVuSans-20" x="2479.105469"/>
     <use xlink:href="#DejaVuSans-28" x="2510.892578"/>
     <use xlink:href="#DejaVuSans-61" x="2549.90625"/>
     <use xlink:href="#DejaVuSans-74" x="2611.185547"/>
     <use xlink:href="#DejaVuSans-20" x="2650.394531"/>
     <use xlink:href="#DejaVuSans-41" x="2682.181641"/>
     <use xlink:href="#DejaVuSans-6e" x="2750.589844"/>
     <use xlink:href="#DejaVuSans-63" x="2813.96875"/>
     <use xlink:href="#DejaVuSans-68" x="2868.949219"/>
     <use xlink:href="#DejaVuSans-6f" x="2932.328125"/>
     <use xlink:href="#DejaVuSans-72" x="2993.509766"/>
     <use xlink:href="#DejaVuSans-73" x="3034.623047"/>
     <use xlink:href="#DejaVuSans-29" x="3086.722656"/>
    </g>
   </g>
   <g id="legend_1">
    <g id="patch_7">
     <path d="M 557.5 339.58125 
L 1208.160156 339.58125 
Q 1213.160156 339.58125 1213.160156 334.58125 
L 1213.160156 190.3 
Q 1213.160156 185.3 1208.160156 185.3 
L 557.5 185.3 
Q 552.5 185.3 552.5 190.3 
L 552.5 334.58125 
Q 552.5 339.58125 557.5 339.58125 
z
" style="fill: #ffffff; opacity: 0.8; stroke: #cccccc; stroke-linejoin: miter"/>
    </g>
    <g id="line2d_17">
     <path d="M 562.5 205.546094 
L 587.5 205.546094 
L 612.5 205.546094 
" style="fill: none; stroke: #ff8c00; stroke-width: 6; stroke-linecap: square"/>
    </g>
    <g id="text_20">
     <!-- True Arc-Length (Transformed Curve #1) -->
     <g transform="translate(632.5 214.296094)scale(0.25 -0.25)">
      <defs>
       <path id="DejaVuSans-66" d="M 2375 4863 
L 2375 4384 
L 1825 4384 
Q 1516 4384 1395 4259 
Q 1275 4134 1275 3809 
L 1275 3500 
L 2222 3500 
L 2222 3053 
L 1275 3053 
L 1275 0 
L 697 0 
L 697 3053 
L 147 3053 
L 147 3500 
L 697 3500 
L 697 3744 
Q 697 4328 969 4595 
Q 1241 4863 1831 4863 
L 2375 4863 
z
" transform="scale(0.015625)"/>
       <path id="DejaVuSans-6d" d="M 3328 2828 
Q 3544 3216 3844 3400 
Q 4144 3584 4550 3584 
Q 5097 3584 5394 3201 
Q 5691 2819 5691 2113 
L 5691 0 
L 5113 0 
L 5113 2094 
Q 5113 2597 4934 2840 
Q 4756 3084 4391 3084 
Q 3944 3084 3684 2787 
Q 3425 2491 3425 1978 
L 3425 0 
L 2847 0 
L 2847 2094 
Q 2847 2600 2669 2842 
Q 2491 3084 2119 3084 
Q 1678 3084 1418 2786 
Q 1159 2488 1159 1978 
L 1159 0 
L 581 0 
L 581 3500 
L 1159 3500 
L 1159 2956 
Q 1356 3278 1631 3431 
Q 1906 3584 2284 3584 
Q 2666 3584 2933 3390 
Q 3200 3197 3328 2828 
z
" transform="scale(0.015625)"/>
       <path id="DejaVuSans-43" d="M 4122 4306 
L 4122 3641 
Q 3803 3938 3442 4084 
Q 3081 4231 2675 4231 
Q 1875 4231 1450 3742 
Q 1025 3253 1025 2328 
Q 1025 1406 1450 917 
Q 1875 428 2675 428 
Q 3081 428 3442 575 
Q 3803 722 4122 1019 
L 4122 359 
Q 3791 134 3420 21 
Q 3050 -91 2638 -91 
Q 1578 -91 968 557 
Q 359 1206 359 2328 
Q 359 3453 968 4101 
Q 1578 4750 2638 4750 
Q 3056 4750 3426 4639 
Q 3797 4528 4122 4306 
z
" transform="scale(0.015625)"/>
       <path id="DejaVuSans-23" d="M 3272 2816 
L 2363 2816 
L 2100 1772 
L 3016 1772 
L 3272 2816 
z
M 2803 4594 
L 2478 3297 
L 3391 3297 
L 3719 4594 
L 4219 4594 
L 3897 3297 
L 4872 3297 
L 4872 2816 
L 3775 2816 
L 3519 1772 
L 4513 1772 
L 4513 1294 
L 3397 1294 
L 3072 0 
L 2572 0 
L 2894 1294 
L 1978 1294 
L 1656 0 
L 1153 0 
L 1478 1294 
L 494 1294 
L 494 1772 
L 1594 1772 
L 1856 2816 
L 850 2816 
L 850 3297 
L 1978 3297 
L 2297 4594 
L 2803 4594 
z
" transform="scale(0.015625)"/>
      </defs>
      <use xlink:href="#DejaVuSans-54"/>
      <use xlink:href="#DejaVuSans-72" x="46.333984"/>
      <use xlink:href="#DejaVuSans-75" x="87.447266"/>
      <use xlink:href="#DejaVuSans-65" x="150.826172"/>
      <use xlink:href="#DejaVuSans-20" x="212.349609"/>
      <use xlink:href="#DejaVuSans-41" x="244.136719"/>
      <use xlink:href="#DejaVuSans-72" x="312.544922"/>
      <use xlink:href="#DejaVuSans-63" x="351.408203"/>
      <use xlink:href="#DejaVuSans-2d" x="406.388672"/>
      <use xlink:href="#DejaVuSans-4c" x="442.472656"/>
      <use xlink:href="#DejaVuSans-65" x="496.435547"/>
      <use xlink:href="#DejaVuSans-6e" x="557.958984"/>
      <use xlink:href="#DejaVuSans-67" x="621.337891"/>
      <use xlink:href="#DejaVuSans-74" x="684.814453"/>
      <use xlink:href="#DejaVuSans-68" x="724.023438"/>
      <use xlink:href="#DejaVuSans-20" x="787.402344"/>
      <use xlink:href="#DejaVuSans-28" x="819.189453"/>
      <use xlink:href="#DejaVuSans-54" x="858.203125"/>
      <use xlink:href="#DejaVuSans-72" x="904.537109"/>
      <use xlink:href="#DejaVuSans-61" x="945.650391"/>
      <use xlink:href="#DejaVuSans-6e" x="1006.929688"/>
      <use xlink:href="#DejaVuSans-73" x="1070.308594"/>
      <use xlink:href="#DejaVuSans-66" x="1122.408203"/>
      <use xlink:href="#DejaVuSans-6f" x="1157.613281"/>
      <use xlink:href="#DejaVuSans-72" x="1218.794922"/>
      <use xlink:href="#DejaVuSans-6d" x="1258.158203"/>
      <use xlink:href="#DejaVuSans-65" x="1355.570312"/>
      <use xlink:href="#DejaVuSans-64" x="1417.09375"/>
      <use xlink:href="#DejaVuSans-20" x="1480.570312"/>
      <use xlink:href="#DejaVuSans-43" x="1512.357422"/>
      <use xlink:href="#DejaVuSans-75" x="1582.181641"/>
      <use xlink:href="#DejaVuSans-72" x="1645.560547"/>
      <use xlink:href="#DejaVuSans-76" x="1686.673828"/>
      <use xlink:href="#DejaVuSans-65" x="1745.853516"/>
      <use xlink:href="#DejaVuSans-20" x="1807.376953"/>
      <use xlink:href="#DejaVuSans-23" x="1839.164062"/>
      <use xlink:href="#DejaVuSans-31" x="1922.953125"/>
      <use xlink:href="#DejaVuSans-29" x="1986.576172"/>
     </g>
    </g>
    <g id="line2d_18">
     <path d="M 562.5 242.241406 
L 587.5 242.241406 
L 612.5 242.241406 
" style="fill: none; stroke: #aa0000; stroke-width: 6; stroke-linecap: square"/>
    </g>
    <g id="text_21">
     <!-- Predicted Arc-Length (Transformed Curve #1) -->
     <g transform="translate(632.5 250.991406)scale(0.25 -0.25)">
      <use xlink:href="#DejaVuSans-50"/>
      <use xlink:href="#DejaVuSans-72" x="58.552734"/>
      <use xlink:href="#DejaVuSans-65" x="97.416016"/>
      <use xlink:href="#DejaVuSans-64" x="158.939453"/>
      <use xlink:href="#DejaVuSans-69" x="222.416016"/>
      <use xlink:href="#DejaVuSans-63" x="250.199219"/>
      <use xlink:href="#DejaVuSans-74" x="305.179688"/>
      <use xlink:href="#DejaVuSans-65" x="344.388672"/>
      <use xlink:href="#DejaVuSans-64" x="405.912109"/>
      <use xlink:href="#DejaVuSans-20" x="469.388672"/>
      <use xlink:href="#DejaVuSans-41" x="501.175781"/>
      <use xlink:href="#DejaVuSans-72" x="569.583984"/>
      <use xlink:href="#DejaVuSans-63" x="608.447266"/>
      <use xlink:href="#DejaVuSans-2d" x="663.427734"/>
      <use xlink:href="#DejaVuSans-4c" x="699.511719"/>
      <use xlink:href="#DejaVuSans-65" x="753.474609"/>
      <use xlink:href="#DejaVuSans-6e" x="814.998047"/>
      <use xlink:href="#DejaVuSans-67" x="878.376953"/>
      <use xlink:href="#DejaVuSans-74" x="941.853516"/>
      <use xlink:href="#DejaVuSans-68" x="981.0625"/>
      <use xlink:href="#DejaVuSans-20" x="1044.441406"/>
      <use xlink:href="#DejaVuSans-28" x="1076.228516"/>
      <use xlink:href="#DejaVuSans-54" x="1115.242188"/>
      <use xlink:href="#DejaVuSans-72" x="1161.576172"/>
      <use xlink:href="#DejaVuSans-61" x="1202.689453"/>
      <use xlink:href="#DejaVuSans-6e" x="1263.96875"/>
      <use xlink:href="#DejaVuSans-73" x="1327.347656"/>
      <use xlink:href="#DejaVuSans-66" x="1379.447266"/>
      <use xlink:href="#DejaVuSans-6f" x="1414.652344"/>
      <use xlink:href="#DejaVuSans-72" x="1475.833984"/>
      <use xlink:href="#DejaVuSans-6d" x="1515.197266"/>
      <use xlink:href="#DejaVuSans-65" x="1612.609375"/>
      <use xlink:href="#DejaVuSans-64" x="1674.132812"/>
      <use xlink:href="#DejaVuSans-20" x="1737.609375"/>
      <use xlink:href="#DejaVuSans-43" x="1769.396484"/>
      <use xlink:href="#DejaVuSans-75" x="1839.220703"/>
      <use xlink:href="#DejaVuSans-72" x="1902.599609"/>
      <use xlink:href="#DejaVuSans-76" x="1943.712891"/>
      <use xlink:href="#DejaVuSans-65" x="2002.892578"/>
      <use xlink:href="#DejaVuSans-20" x="2064.416016"/>
      <use xlink:href="#DejaVuSans-23" x="2096.203125"/>
      <use xlink:href="#DejaVuSans-31" x="2179.992188"/>
      <use xlink:href="#DejaVuSans-29" x="2243.615234"/>
     </g>
    </g>
    <g id="line2d_19">
     <path d="M 562.5 278.936719 
L 587.5 278.936719 
L 612.5 278.936719 
" style="fill: none; stroke: #444444; stroke-width: 6; stroke-linecap: square"/>
    </g>
    <g id="text_22">
     <!-- True Arc-Length (Transformed Curve #2) -->
     <g transform="translate(632.5 287.686719)scale(0.25 -0.25)">
      <use xlink:href="#DejaVuSans-54"/>
      <use xlink:href="#DejaVuSans-72" x="46.333984"/>
      <use xlink:href="#DejaVuSans-75" x="87.447266"/>
      <use xlink:href="#DejaVuSans-65" x="150.826172"/>
      <use xlink:href="#DejaVuSans-20" x="212.349609"/>
      <use xlink:href="#DejaVuSans-41" x="244.136719"/>
      <use xlink:href="#DejaVuSans-72" x="312.544922"/>
      <use xlink:href="#DejaVuSans-63" x="351.408203"/>
      <use xlink:href="#DejaVuSans-2d" x="406.388672"/>
      <use xlink:href="#DejaVuSans-4c" x="442.472656"/>
      <use xlink:href="#DejaVuSans-65" x="496.435547"/>
      <use xlink:href="#DejaVuSans-6e" x="557.958984"/>
      <use xlink:href="#DejaVuSans-67" x="621.337891"/>
      <use xlink:href="#DejaVuSans-74" x="684.814453"/>
      <use xlink:href="#DejaVuSans-68" x="724.023438"/>
      <use xlink:href="#DejaVuSans-20" x="787.402344"/>
      <use xlink:href="#DejaVuSans-28" x="819.189453"/>
      <use xlink:href="#DejaVuSans-54" x="858.203125"/>
      <use xlink:href="#DejaVuSans-72" x="904.537109"/>
      <use xlink:href="#DejaVuSans-61" x="945.650391"/>
      <use xlink:href="#DejaVuSans-6e" x="1006.929688"/>
      <use xlink:href="#DejaVuSans-73" x="1070.308594"/>
      <use xlink:href="#DejaVuSans-66" x="1122.408203"/>
      <use xlink:href="#DejaVuSans-6f" x="1157.613281"/>
      <use xlink:href="#DejaVuSans-72" x="1218.794922"/>
      <use xlink:href="#DejaVuSans-6d" x="1258.158203"/>
      <use xlink:href="#DejaVuSans-65" x="1355.570312"/>
      <use xlink:href="#DejaVuSans-64" x="1417.09375"/>
      <use xlink:href="#DejaVuSans-20" x="1480.570312"/>
      <use xlink:href="#DejaVuSans-43" x="1512.357422"/>
      <use xlink:href="#DejaVuSans-75" x="1582.181641"/>
      <use xlink:href="#DejaVuSans-72" x="1645.560547"/>
      <use xlink:href="#DejaVuSans-76" x="1686.673828"/>
      <use xlink:href="#DejaVuSans-65" x="1745.853516"/>
      <use xlink:href="#DejaVuSans-20" x="1807.376953"/>
      <use xlink:href="#DejaVuSans-23" x="1839.164062"/>
      <use xlink:href="#DejaVuSans-32" x="1922.953125"/>
      <use xlink:href="#DejaVuSans-29" x="1986.576172"/>
     </g>
    </g>
    <g id="line2d_20">
     <path d="M 562.5 315.632031 
L 587.5 315.632031 
L 612.5 315.632031 
" style="fill: none; stroke: #00aa00; stroke-width: 6; stroke-linecap: square"/>
    </g>
    <g id="text_23">
     <!-- Predicted Arc-Length (Transformed Curve #2) -->
     <g transform="translate(632.5 324.382031)scale(0.25 -0.25)">
      <use xlink:href="#DejaVuSans-50"/>
      <use xlink:href="#DejaVuSans-72" x="58.552734"/>
      <use xlink:href="#DejaVuSans-65" x="97.416016"/>
      <use xlink:href="#DejaVuSans-64" x="158.939453"/>
      <use xlink:href="#DejaVuSans-69" x="222.416016"/>
      <use xlink:href="#DejaVuSans-63" x="250.199219"/>
      <use xlink:href="#DejaVuSans-74" x="305.179688"/>
      <use xlink:href="#DejaVuSans-65" x="344.388672"/>
      <use xlink:href="#DejaVuSans-64" x="405.912109"/>
      <use xlink:href="#DejaVuSans-20" x="469.388672"/>
      <use xlink:href="#DejaVuSans-41" x="501.175781"/>
      <use xlink:href="#DejaVuSans-72" x="569.583984"/>
      <use xlink:href="#DejaVuSans-63" x="608.447266"/>
      <use xlink:href="#DejaVuSans-2d" x="663.427734"/>
      <use xlink:href="#DejaVuSans-4c" x="699.511719"/>
      <use xlink:href="#DejaVuSans-65" x="753.474609"/>
      <use xlink:href="#DejaVuSans-6e" x="814.998047"/>
      <use xlink:href="#DejaVuSans-67" x="878.376953"/>
      <use xlink:href="#DejaVuSans-74" x="941.853516"/>
      <use xlink:href="#DejaVuSans-68" x="981.0625"/>
      <use xlink:href="#DejaVuSans-20" x="1044.441406"/>
      <use xlink:href="#DejaVuSans-28" x="1076.228516"/>
      <use xlink:href="#DejaVuSans-54" x="1115.242188"/>
      <use xlink:href="#DejaVuSans-72" x="1161.576172"/>
      <use xlink:href="#DejaVuSans-61" x="1202.689453"/>
      <use xlink:href="#DejaVuSans-6e" x="1263.96875"/>
      <use xlink:href="#DejaVuSans-73" x="1327.347656"/>
      <use xlink:href="#DejaVuSans-66" x="1379.447266"/>
      <use xlink:href="#DejaVuSans-6f" x="1414.652344"/>
      <use xlink:href="#DejaVuSans-72" x="1475.833984"/>
      <use xlink:href="#DejaVuSans-6d" x="1515.197266"/>
      <use xlink:href="#DejaVuSans-65" x="1612.609375"/>
      <use xlink:href="#DejaVuSans-64" x="1674.132812"/>
      <use xlink:href="#DejaVuSans-20" x="1737.609375"/>
      <use xlink:href="#DejaVuSans-43" x="1769.396484"/>
      <use xlink:href="#DejaVuSans-75" x="1839.220703"/>
      <use xlink:href="#DejaVuSans-72" x="1902.599609"/>
      <use xlink:href="#DejaVuSans-76" x="1943.712891"/>
      <use xlink:href="#DejaVuSans-65" x="2002.892578"/>
      <use xlink:href="#DejaVuSans-20" x="2064.416016"/>
      <use xlink:href="#DejaVuSans-23" x="2096.203125"/>
      <use xlink:href="#DejaVuSans-32" x="2179.992188"/>
      <use xlink:href="#DejaVuSans-29" x="2243.615234"/>
     </g>
    </g>
   </g>
   <g id="line2d_21">
    <path d="M 692.181818 1210.581818 
L 710.870813 1204.620755 
L 732.229665 1197.541726 
L 785.626794 1179.624753 
L 801.645933 1174.558899 
L 817.665072 1169.751005 
L 833.684211 1165.201268 
L 852.373206 1160.150665 
L 908.440191 1145.437847 
L 943.148325 1136.370888 
L 961.837321 1131.718655 
L 980.526316 1127.30511 
L 1012.564593 1120.060355 
L 1033.923445 1115.102844 
L 1052.61244 1110.529254 
L 1100.669856 1098.549908 
L 1111.349282 1096.159882 
L 1122.028708 1093.992127 
L 1132.708134 1092.099066 
L 1140.717703 1090.885657 
L 1148.727273 1089.862954 
L 1156.736842 1089.033821 
L 1167.416268 1088.199764 
L 1188.77512 1086.769002 
L 1196.784689 1085.995396 
L 1204.794258 1085.011066 
L 1212.803828 1083.805825 
L 1220.813397 1082.381094 
L 1228.822967 1080.744935 
L 1236.832536 1078.909694 
L 1244.842105 1076.890658 
L 1255.521531 1073.942777 
L 1266.200957 1070.743132 
L 1279.550239 1066.458446 
L 1292.899522 1061.936098 
L 1311.588517 1055.346472 
L 1340.956938 1044.697225 
L 1381.004785 1029.931544 
L 1410.373206 1018.882493 
L 1445.08134 1005.566337 
L 1503.818182 982.993275 
L 1541.196172 968.913481 
L 1605.272727 945.069681 
L 1639.980861 932.319376 
L 1661.339713 924.687901 
L 1677.358852 919.16513 
L 1693.37799 913.887593 
L 1706.727273 909.726414 
L 1720.076555 905.819318 
L 1730.755981 902.895369 
L 1741.435407 900.158435 
L 1754.784689 896.99358 
L 1768.133971 894.075097 
L 1792.162679 889.141538 
L 1808.181818 885.737294 
L 1818.861244 883.26222 
L 1829.54067 880.550849 
L 1840.220096 877.562178 
L 1850.899522 874.272942 
L 1861.578947 870.675276 
L 1872.258373 866.774228 
L 1882.937799 862.585605 
L 1893.617225 858.134228 
L 1904.296651 853.452494 
L 1917.645933 847.335965 
L 1933.665072 839.724831 
L 1976.382775 819.263225 
L 1989.732057 813.22735 
L 2000.411483 808.650473 
L 2011.090909 804.352809 
L 2019.100478 801.340834 
L 2027.110048 798.529181 
L 2035.119617 795.93223 
L 2043.129187 793.560768 
L 2051.138756 791.420817 
L 2059.148325 789.511913 
L 2067.157895 787.82451 
L 2075.167464 786.336199 
L 2085.84689 784.589275 
L 2109.875598 780.841278 
L 2117.885167 779.384394 
L 2125.894737 777.740654 
L 2133.904306 775.888874 
L 2141.913876 773.821208 
L 2149.923445 771.539136 
L 2157.933014 769.050677 
L 2165.942584 766.368493 
L 2176.62201 762.518851 
L 2187.301435 758.397325 
L 2197.980861 754.05182 
L 2211.330144 748.37998 
L 2230.019139 740.157863 
L 2278.076555 718.852661 
L 2296.76555 710.855417 
L 2315.454545 703.091968 
L 2336.813397 694.487834 
L 2358.172249 686.120904 
L 2384.870813 675.910061 
L 2416.909091 663.909852 
L 2451.617225 651.15531 
L 2480.985646 640.589988 
L 2513.023923 629.321589 
L 2555.741627 614.325276 
L 2574.430622 607.48995 
L 2590.449761 601.372184 
L 2603.799043 596.056302 
L 2617.148325 590.532404 
L 2633.167464 583.639397 
L 2649.186603 576.493074 
L 2667.875598 567.910602 
L 2699.913876 552.885833 
L 2729.282297 539.180027 
L 2747.971292 530.679591 
L 2763.990431 523.608637 
L 2780.009569 516.780575 
L 2796.028708 510.224956 
L 2809.37799 504.982588 
L 2822.727273 499.9452 
L 2836.076555 495.113438 
L 2849.425837 490.487891 
L 2862.77512 486.072828 
L 2876.124402 481.879575 
L 2889.473684 477.928503 
L 2902.822967 474.248696 
L 2913.502392 471.523337 
L 2924.181818 469.011235 
L 2934.861244 466.726033 
L 2945.54067 464.67253 
L 2956.220096 462.839711 
L 2969.569378 460.801308 
L 3001.607656 456.104911 
L 3012.287081 454.249404 
L 3022.966507 452.135115 
L 3033.645933 449.73901 
L 3044.325359 447.060555 
L 3055.004785 444.115435 
L 3065.684211 440.930888 
L 3079.033493 436.667874 
L 3092.382775 432.166595 
L 3113.741627 424.687196 
L 3140.440191 415.343747 
L 3156.45933 409.995585 
L 3169.808612 405.800807 
L 3180.488038 402.66231 
L 3191.167464 399.74588 
L 3201.84689 397.070381 
L 3212.526316 394.643643 
L 3223.205742 392.456923 
L 3236.555024 390.007895 
L 3273.933014 383.47283 
L 3284.61244 381.24193 
L 3292.62201 379.375765 
L 3300.631579 377.329787 
L 3308.641148 375.099562 
L 3316.650718 372.686919 
L 3327.330144 369.198725 
L 3338.009569 365.425714 
L 3348.688995 361.403829 
L 3362.038278 356.090851 
L 3378.057416 349.414212 
L 3404.755981 337.951371 
L 3428.784689 327.705622 
L 3447.473684 319.986735 
L 3463.492823 313.603214 
L 3479.511962 307.440509 
L 3498.200957 300.50019 
L 3519.559809 292.82014 
L 3548.92823 282.513163 
L 3596.985646 265.897907 
L 3623.684211 256.8706 
L 3645.043062 249.884787 
L 3663.732057 243.995364 
L 3685.090909 237.498275 
L 3735.818182 222.218182 
L 3735.818182 222.218182 
" clip-path="url(#p8a095eedbd)" style="fill: none; stroke: #ff8c00; stroke-width: 6; stroke-linecap: square"/>
   </g>
   <g id="line2d_22">
    <path d="M 692.181818 1210.581818 
L 718.880383 1202.009271 
L 764.267943 1186.73038 
L 780.287081 1181.42725 
L 806.985646 1173.012365 
L 833.684211 1165.322268 
L 841.69378 1163.174221 
L 847.033493 1161.742072 
L 860.382775 1158.232906 
L 884.411483 1151.9578 
L 903.100478 1147.029212 
L 945.818182 1135.860031 
L 964.507177 1131.243659 
L 983.196172 1126.8635 
L 1007.22488 1121.444932 
L 1033.923445 1115.278776 
L 1052.61244 1110.711971 
L 1100.669856 1098.73567 
L 1111.349282 1096.342027 
L 1122.028708 1094.169696 
L 1130.038278 1092.719315 
L 1138.047847 1091.438731 
L 1148.727273 1090.02081 
L 1156.736842 1089.196343 
L 1164.746411 1088.538484 
L 1178.095694 1087.740103 
L 1188.77512 1087.022704 
L 1196.784689 1086.245268 
L 1204.794258 1085.252051 
L 1212.803828 1084.045043 
L 1220.813397 1082.609733 
L 1231.492823 1080.384008 
L 1239.502392 1078.480451 
L 1247.511962 1076.404904 
L 1258.191388 1073.388182 
L 1268.870813 1070.133287 
L 1282.220096 1065.790135 
L 1295.569378 1061.22458 
L 1314.258373 1054.598866 
L 1343.626794 1043.91723 
L 1381.004785 1030.124066 
L 1421.052632 1014.968672 
L 1466.440191 997.497142 
L 1506.488038 982.176984 
L 1549.205742 966.104291 
L 1631.971292 935.402667 
L 1656 926.757449 
L 1680.028708 918.47006 
L 1693.37799 914.093492 
L 1706.727273 909.923171 
L 1720.076555 906.005936 
L 1730.755981 903.074927 
L 1744.105263 899.68108 
L 1757.454545 896.561943 
L 1773.473684 893.139936 
L 1794.832536 888.791378 
L 1808.181818 885.951246 
L 1818.861244 883.487 
L 1829.54067 880.787054 
L 1840.220096 877.802429 
L 1850.899522 874.514862 
L 1861.578947 870.913049 
L 1869.588517 868.013547 
L 1880.267943 863.893491 
L 1890.947368 859.504091 
L 1901.626794 854.882561 
L 1914.976077 848.829658 
L 1930.995215 841.273579 
L 1979.052632 818.326178 
L 1992.401914 812.340095 
L 2000.411483 808.930643 
L 2011.090909 804.62336 
L 2019.100478 801.602244 
L 2027.110048 798.789784 
L 2035.119617 796.198824 
L 2043.129187 793.829611 
L 2051.138756 791.697469 
L 2059.148325 789.789248 
L 2067.157895 788.099572 
L 2077.837321 786.164261 
L 2088.516746 784.483722 
L 2109.875598 781.227577 
L 2120.555024 779.263101 
L 2128.564593 777.564926 
L 2139.244019 774.948128 
L 2147.253589 772.733894 
L 2155.263158 770.311057 
L 2163.272727 767.694655 
L 2173.952153 763.92428 
L 2184.631579 759.859682 
L 2192.641148 756.655285 
L 2205.990431 751.078487 
L 2224.679426 742.91987 
L 2283.416268 716.940069 
L 2304.77512 707.872048 
L 2328.803828 698.073205 
L 2352.832536 688.585652 
L 2382.200957 677.300623 
L 2416.909091 664.269761 
L 2464.966507 646.643862 
L 2499.674641 634.319408 
L 2521.033493 626.863697 
L 2539.722488 620.344408 
L 2555.741627 614.672168 
L 2577.100478 606.830951 
L 2593.119617 600.655547 
L 2606.4689 595.280935 
L 2619.818182 589.707583 
L 2638.507177 581.579844 
L 2657.196172 573.121288 
L 2675.885167 564.437418 
L 2702.583732 551.882892 
L 2723.942584 541.884583 
L 2742.631579 533.306203 
L 2758.650718 526.171284 
L 2774.669856 519.271671 
L 2790.688995 512.63342 
L 2806.708134 506.271102 
L 2820.057416 501.190837 
L 2836.076555 495.374268 
L 2849.425837 490.750707 
L 2862.77512 486.329637 
L 2873.454545 482.966831 
L 2884.133971 479.715763 
L 2897.483254 475.967171 
L 2908.162679 473.118643 
L 2921.511962 469.904258 
L 2934.861244 467.035045 
L 2945.54067 464.982837 
L 2961.559809 462.312505 
L 2974.909091 460.363548 
L 2998.937799 456.920514 
L 3009.617225 455.132392 
L 3020.296651 453.061473 
L 3030.976077 450.708749 
L 3038.985646 448.780512 
L 3046.995215 446.705289 
L 3057.674641 443.700087 
L 3068.354067 440.455263 
L 3081.703349 436.117407 
L 3097.722488 430.636141 
L 3148.449761 412.960292 
L 3167.138756 406.949712 
L 3177.818182 403.744516 
L 3185.827751 401.482548 
L 3199.177033 398.004732 
L 3209.856459 395.51573 
L 3220.535885 393.294636 
L 3231.215311 391.251965 
L 3247.23445 388.488929 
L 3271.263158 384.35747 
L 3279.272727 382.766407 
L 3289.952153 380.380566 
L 3300.631579 377.690665 
L 3311.311005 374.670592 
L 3319.320574 372.183403 
L 3330 368.617664 
L 3340.679426 364.772503 
L 3351.358852 360.685028 
L 3364.708134 355.327864 
L 3383.397129 347.462901 
L 3442.133971 322.471486 
L 3460.822967 314.95619 
L 3476.842105 308.749712 
L 3495.5311 301.744977 
L 3519.559809 293.087441 
L 3538.248804 286.504525 
L 3572.956938 274.462974 
L 3604.995215 263.444305 
L 3626.354067 256.243824 
L 3650.382775 248.421994 
L 3674.411483 240.936119 
L 3714.45933 229.006893 
L 3725.138756 225.772367 
L 3730.478469 224.22114 
L 3735.818182 222.581295 
L 3735.818182 222.581295 
" clip-path="url(#p8a095eedbd)" style="fill: none; stroke: #aa0000; stroke-width: 6; stroke-linecap: square"/>
   </g>
   <g id="line2d_23">
    <path d="M 692.181818 1210.581818 
L 710.870813 1204.620755 
L 732.229665 1197.541726 
L 785.626794 1179.624753 
L 801.645933 1174.558899 
L 817.665072 1169.751005 
L 833.684211 1165.201268 
L 852.373206 1160.150665 
L 908.440191 1145.437847 
L 943.148325 1136.370888 
L 961.837321 1131.718655 
L 980.526316 1127.30511 
L 1012.564593 1120.060355 
L 1033.923445 1115.102844 
L 1052.61244 1110.529254 
L 1100.669856 1098.549908 
L 1111.349282 1096.159882 
L 1122.028708 1093.992127 
L 1132.708134 1092.099066 
L 1140.717703 1090.885657 
L 1148.727273 1089.862954 
L 1156.736842 1089.033821 
L 1167.416268 1088.199764 
L 1188.77512 1086.769002 
L 1196.784689 1085.995396 
L 1204.794258 1085.011066 
L 1212.803828 1083.805825 
L 1220.813397 1082.381094 
L 1228.822967 1080.744935 
L 1236.832536 1078.909694 
L 1244.842105 1076.890658 
L 1255.521531 1073.942777 
L 1266.200957 1070.743132 
L 1279.550239 1066.458446 
L 1292.899522 1061.936098 
L 1311.588517 1055.346472 
L 1340.956938 1044.697225 
L 1381.004785 1029.931544 
L 1410.373206 1018.882493 
L 1445.08134 1005.566337 
L 1503.818182 982.993275 
L 1541.196172 968.913481 
L 1605.272727 945.069681 
L 1639.980861 932.319376 
L 1661.339713 924.687901 
L 1677.358852 919.16513 
L 1693.37799 913.887593 
L 1706.727273 909.726414 
L 1720.076555 905.819318 
L 1730.755981 902.895369 
L 1741.435407 900.158435 
L 1754.784689 896.99358 
L 1768.133971 894.075097 
L 1792.162679 889.141538 
L 1808.181818 885.737294 
L 1818.861244 883.26222 
L 1829.54067 880.550849 
L 1840.220096 877.562178 
L 1850.899522 874.272942 
L 1861.578947 870.675276 
L 1872.258373 866.774228 
L 1882.937799 862.585605 
L 1893.617225 858.134228 
L 1904.296651 853.452494 
L 1917.645933 847.335965 
L 1933.665072 839.724831 
L 1976.382775 819.263225 
L 1989.732057 813.22735 
L 2000.411483 808.650473 
L 2011.090909 804.352809 
L 2019.100478 801.340834 
L 2027.110048 798.529181 
L 2035.119617 795.93223 
L 2043.129187 793.560768 
L 2051.138756 791.420817 
L 2059.148325 789.511913 
L 2067.157895 787.82451 
L 2075.167464 786.336199 
L 2085.84689 784.589275 
L 2109.875598 780.841278 
L 2117.885167 779.384394 
L 2125.894737 777.740654 
L 2133.904306 775.888874 
L 2141.913876 773.821208 
L 2149.923445 771.539136 
L 2157.933014 769.050677 
L 2165.942584 766.368493 
L 2176.62201 762.518851 
L 2187.301435 758.397325 
L 2197.980861 754.05182 
L 2211.330144 748.37998 
L 2230.019139 740.157863 
L 2278.076555 718.852661 
L 2296.76555 710.855417 
L 2315.454545 703.091968 
L 2336.813397 694.487834 
L 2358.172249 686.120904 
L 2384.870813 675.910061 
L 2416.909091 663.909852 
L 2451.617225 651.15531 
L 2480.985646 640.589988 
L 2513.023923 629.321589 
L 2555.741627 614.325276 
L 2574.430622 607.48995 
L 2590.449761 601.372184 
L 2603.799043 596.056302 
L 2617.148325 590.532404 
L 2633.167464 583.639397 
L 2649.186603 576.493074 
L 2667.875598 567.910602 
L 2699.913876 552.885833 
L 2729.282297 539.180027 
L 2747.971292 530.679591 
L 2763.990431 523.608637 
L 2780.009569 516.780575 
L 2796.028708 510.224956 
L 2809.37799 504.982588 
L 2822.727273 499.9452 
L 2836.076555 495.113438 
L 2849.425837 490.487891 
L 2862.77512 486.072828 
L 2876.124402 481.879575 
L 2889.473684 477.928503 
L 2902.822967 474.248696 
L 2913.502392 471.523337 
L 2924.181818 469.011235 
L 2934.861244 466.726033 
L 2945.54067 464.67253 
L 2956.220096 462.839711 
L 2969.569378 460.801308 
L 3001.607656 456.104911 
L 3012.287081 454.249404 
L 3022.966507 452.135115 
L 3033.645933 449.73901 
L 3044.325359 447.060555 
L 3055.004785 444.115435 
L 3065.684211 440.930888 
L 3079.033493 436.667874 
L 3092.382775 432.166595 
L 3113.741627 424.687196 
L 3140.440191 415.343747 
L 3156.45933 409.995585 
L 3169.808612 405.800807 
L 3180.488038 402.66231 
L 3191.167464 399.74588 
L 3201.84689 397.070381 
L 3212.526316 394.643643 
L 3223.205742 392.456923 
L 3236.555024 390.007895 
L 3273.933014 383.47283 
L 3284.61244 381.24193 
L 3292.62201 379.375765 
L 3300.631579 377.329787 
L 3308.641148 375.099562 
L 3316.650718 372.686919 
L 3327.330144 369.198725 
L 3338.009569 365.425714 
L 3348.688995 361.403829 
L 3362.038278 356.090851 
L 3378.057416 349.414212 
L 3404.755981 337.951371 
L 3428.784689 327.705622 
L 3447.473684 319.986735 
L 3463.492823 313.603214 
L 3479.511962 307.440509 
L 3498.200957 300.50019 
L 3519.559809 292.82014 
L 3548.92823 282.513163 
L 3596.985646 265.897907 
L 3623.684211 256.8706 
L 3645.043062 249.884787 
L 3663.732057 243.995364 
L 3685.090909 237.498275 
L 3735.818182 222.218182 
L 3735.818182 222.218182 
" clip-path="url(#p8a095eedbd)" style="fill: none; stroke: #444444; stroke-width: 6; stroke-linecap: square"/>
   </g>
   <g id="line2d_24">
    <path d="M 692.181818 1210.581818 
L 716.210526 1202.939473 
L 726.889952 1199.465859 
L 734.899522 1196.810014 
L 748.248804 1192.291895 
L 766.937799 1186.049061 
L 793.636364 1177.351464 
L 820.334928 1169.280392 
L 839.023923 1164.055776 
L 857.712919 1159.070152 
L 951.157895 1134.699526 
L 972.516746 1129.527783 
L 993.875598 1124.627489 
L 1031.253589 1116.104443 
L 1052.61244 1110.894287 
L 1100.669856 1098.920878 
L 1111.349282 1096.528799 
L 1119.358852 1094.876878 
L 1130.038278 1092.910238 
L 1138.047847 1091.635034 
L 1146.057416 1090.548101 
L 1154.066986 1089.652956 
L 1162.076555 1088.958814 
L 1170.086124 1088.410238 
L 1186.105263 1087.526087 
L 1199.454545 1086.271242 
L 1207.464115 1085.214693 
L 1215.473684 1083.938898 
L 1223.483254 1082.438062 
L 1231.492823 1080.731069 
L 1239.502392 1078.837018 
L 1250.181818 1076.030156 
L 1260.861244 1072.958308 
L 1271.54067 1069.640792 
L 1282.220096 1066.136788 
L 1298.239234 1060.637353 
L 1324.937799 1051.110731 
L 1375.665072 1032.521442 
L 1415.712919 1017.480954 
L 1439.741627 1008.253253 
L 1519.837321 977.548783 
L 1567.894737 959.551199 
L 1634.641148 934.857824 
L 1656 927.154116 
L 1674.688995 920.646041 
L 1688.038278 916.169426 
L 1704.057416 911.079224 
L 1717.406699 907.115356 
L 1730.755981 903.431764 
L 1744.105263 900.024517 
L 1754.784689 897.526285 
L 1768.133971 894.567514 
L 1781.483254 891.790451 
L 1800.172249 887.955004 
L 1816.191388 884.36437 
L 1837.550239 878.7918 
L 1848.229665 875.567956 
L 1856.239234 872.935963 
L 1866.91866 869.177715 
L 1874.92823 866.172632 
L 1885.607656 861.926422 
L 1896.287081 857.423486 
L 1906.966507 852.703743 
L 1920.315789 846.510633 
L 1933.665072 840.177109 
L 1981.722488 817.095452 
L 1992.401914 812.310996 
L 2005.751196 806.718103 
L 2013.760766 803.516934 
L 2021.770335 800.558253 
L 2032.449761 796.940797 
L 2040.45933 794.523469 
L 2048.4689 792.311132 
L 2059.148325 789.678118 
L 2072.497608 787.021564 
L 2091.186603 783.996905 
L 2107.205742 781.575406 
L 2117.885167 779.691921 
L 2125.894737 778.052243 
L 2133.904306 776.189082 
L 2141.913876 774.121356 
L 2149.923445 771.831089 
L 2157.933014 769.347034 
L 2165.942584 766.662784 
L 2176.62201 762.817731 
L 2187.301435 758.710917 
L 2197.980861 754.375657 
L 2214 747.553102 
L 2232.688995 739.304666 
L 2280.746411 718.044695 
L 2299.435407 710.103009 
L 2315.454545 703.467948 
L 2339.483254 693.833264 
L 2366.181818 683.456975 
L 2392.880383 673.335715 
L 2427.588517 660.430263 
L 2462.296651 647.785892 
L 2494.334928 636.392085 
L 2521.033493 627.068002 
L 2553.07177 615.844312 
L 2571.760766 609.069249 
L 2587.779904 603.003469 
L 2601.129187 597.741216 
L 2614.478469 592.259247 
L 2630.497608 585.411128 
L 2646.516746 578.298473 
L 2665.205742 569.739198 
L 2739.961722 534.821993 
L 2755.980861 527.626276 
L 2769.330144 521.806977 
L 2788.019139 513.949482 
L 2801.368421 508.577487 
L 2817.38756 502.41228 
L 2830.736842 497.501429 
L 2844.086124 492.803045 
L 2860.105263 487.443962 
L 2873.454545 483.209913 
L 2886.803828 479.215091 
L 2900.15311 475.472256 
L 2913.502392 472.037828 
L 2924.181818 469.520979 
L 2934.861244 467.235687 
L 2945.54067 465.182809 
L 2956.220096 463.358091 
L 2969.569378 461.334539 
L 3004.277512 456.280217 
L 3014.956938 454.370405 
L 3025.636364 452.192898 
L 3036.315789 449.721799 
L 3046.995215 446.967268 
L 3057.674641 443.955715 
L 3068.354067 440.717154 
L 3081.703349 436.391146 
L 3097.722488 430.923948 
L 3153.789474 411.45211 
L 3167.138756 407.199556 
L 3177.818182 404.0089 
L 3188.497608 401.032301 
L 3199.177033 398.297529 
L 3209.856459 395.821407 
L 3220.535885 393.583952 
L 3231.215311 391.5725 
L 3244.564593 389.300512 
L 3265.923445 385.722771 
L 3276.602871 383.710567 
L 3284.61244 382.027556 
L 3292.62201 380.168366 
L 3300.631579 378.132989 
L 3311.311005 375.109082 
L 3319.320574 372.636609 
L 3330 369.078028 
L 3340.679426 365.228034 
L 3351.358852 361.140264 
L 3364.708134 355.780765 
L 3380.727273 349.065601 
L 3407.425837 337.602742 
L 3428.784689 328.522215 
L 3442.133971 322.967889 
L 3458.15311 316.494789 
L 3474.172249 310.245615 
L 3490.191388 304.212815 
L 3506.210526 298.362507 
L 3530.239234 289.819566 
L 3564.947368 277.69128 
L 3596.985646 266.642894 
L 3626.354067 256.711342 
L 3647.712919 249.780971 
L 3663.732057 244.762035 
L 3679.751196 239.933129 
L 3735.818182 223.417587 
L 3735.818182 223.417587 
" clip-path="url(#p8a095eedbd)" style="fill: none; stroke: #00aa00; stroke-width: 6; stroke-linecap: square"/>
   </g>
  </g>
 </g>
 <defs>
  <clipPath id="p8a095eedbd">
   <rect x="540" y="172.8" width="3348" height="1087.2"/>
  </clipPath>
 </defs>
</svg>
